<?xml version="1.0" encoding="UTF-8" standalone="no"?>
<!DOCTYPE svg PUBLIC "-//W3C//DTD SVG 1.1//EN"
 "http://www.w3.org/Graphics/SVG/1.1/DTD/svg11.dtd">
<!-- Generated by graphviz version 2.40.1 (20161225.0304)
 -->
<!-- Title: org.cobbzilla.util.io.CompositeBufferedFilesystemWatcher Pages: 1 -->
<!--zoomable 1103 -->
<svg id="main" version="1.1" xmlns="http://www.w3.org/2000/svg" xmlns:xlink="http://www.w3.org/1999/xlink" xml:space="preserve" onload="init(evt)">
<style type="text/css"><![CDATA[
.edge:hover path { stroke: red; }
.edge:hover polygon { stroke: red; fill: red; }
]]></style>
<script type="text/javascript"><![CDATA[
var edges = document.getElementsByTagName('g');
if (edges && edges.length) {
  for (var i=0;i<edges.length;i++) {
    if (edges[i].id.substr(0,4)=='edge') {
      edges[i].setAttribute('class','edge');
    }
  }
}
]]></script>
        <defs>
                <circle id="rim" cx="0" cy="0" r="7"/>
                <circle id="rim2" cx="0" cy="0" r="3.5"/>
                <g id="zoomPlus">
                        <use xlink:href="#rim" fill="#404040">
                                <set attributeName="fill" to="#808080" begin="zoomplus.mouseover" end="zoomplus.mouseout"/>
                        </use>
                        <path d="M-4,0h8M0,-4v8" fill="none" stroke="white" stroke-width="1.5" pointer-events="none"/>
                </g>
                <g id="zoomMin">
                        <use xlink:href="#rim" fill="#404040">
                                <set attributeName="fill" to="#808080" begin="zoomminus.mouseover" end="zoomminus.mouseout"/>
                        </use>
                        <path d="M-4,0h8" fill="none" stroke="white" stroke-width="1.5" pointer-events="none"/>
                </g>
                <g id="dirArrow">
                        <path fill="none" stroke="white" stroke-width="1.5" d="M0,-3.0v7 M-2.5,-0.5L0,-3.0L2.5,-0.5"/>
                </g>
               <g id="resetDef">
                       <use xlink:href="#rim2" fill="#404040">
                               <set attributeName="fill" to="#808080" begin="reset.mouseover" end="reset.mouseout"/>
                       </use>
               </g>
        </defs>

<script type="text/javascript">
var viewWidth = 388;
var viewHeight = 1103;
var sectionId = 'dynsection-1';
</script>
<script xlink:href="../../svgpan.js"/>
<svg id="graph" class="graph">
<g id="viewport">
<title>org.cobbzilla.util.io.CompositeBufferedFilesystemWatcher</title>
<!-- Node7 -->
<g id="node1" class="node">
<title>Node7</title>
<polygon fill="#bfbfbf" stroke="#000000" points="81,-.5 81,-189.5 239,-189.5 239,-.5 81,-.5"/>
<text text-anchor="start" x="89" y="-177.5" font-family="Helvetica,sans-Serif" font-size="10.00" fill="#000000">org.cobbzilla.util.io.Composite</text>
<text text-anchor="middle" x="160" y="-166.5" font-family="Helvetica,sans-Serif" font-size="10.00" fill="#000000">BufferedFilesystemWatcher</text>
<polyline fill="none" stroke="#000000" points="81,-159.5 239,-159.5 "/>
<text text-anchor="start" x="89" y="-147.5" font-family="Helvetica,sans-Serif" font-size="10.00" fill="#000000">&#45; timeout</text>
<text text-anchor="start" x="89" y="-136.5" font-family="Helvetica,sans-Serif" font-size="10.00" fill="#000000">&#45; maxEvents</text>
<polyline fill="none" stroke="#000000" points="81,-129.5 239,-129.5 "/>
<text text-anchor="start" x="89" y="-117.5" font-family="Helvetica,sans-Serif" font-size="10.00" fill="#000000">+ CompositeBufferedFilesystem</text>
<text text-anchor="start" x="89" y="-106.5" font-family="Helvetica,sans-Serif" font-size="10.00" fill="#000000">Watcher()</text>
<text text-anchor="start" x="89" y="-95.5" font-family="Helvetica,sans-Serif" font-size="10.00" fill="#000000">+ CompositeBufferedFilesystem</text>
<text text-anchor="start" x="89" y="-84.5" font-family="Helvetica,sans-Serif" font-size="10.00" fill="#000000">Watcher()</text>
<text text-anchor="start" x="89" y="-73.5" font-family="Helvetica,sans-Serif" font-size="10.00" fill="#000000">+ CompositeBufferedFilesystem</text>
<text text-anchor="start" x="89" y="-62.5" font-family="Helvetica,sans-Serif" font-size="10.00" fill="#000000">Watcher()</text>
<text text-anchor="start" x="89" y="-51.5" font-family="Helvetica,sans-Serif" font-size="10.00" fill="#000000">+ CompositeBufferedFilesystem</text>
<text text-anchor="start" x="89" y="-40.5" font-family="Helvetica,sans-Serif" font-size="10.00" fill="#000000">Watcher()</text>
<text text-anchor="start" x="89" y="-29.5" font-family="Helvetica,sans-Serif" font-size="10.00" fill="#000000">+ fire()</text>
<text text-anchor="start" x="89" y="-18.5" font-family="Helvetica,sans-Serif" font-size="10.00" fill="#000000"># newWatcher()</text>
<text text-anchor="start" x="89" y="-7.5" font-family="Helvetica,sans-Serif" font-size="10.00" fill="#000000">&#45; _fire()</text>
</g>
<!-- Node8 -->
<g id="node2" class="node">
<title>Node8</title>
<g id="a_node2"><a xlink:href="../../db/dd9/classorg_1_1cobbzilla_1_1util_1_1io_1_1CompositeFilesystemWatcher.html" target="_top" xlink:title="{org.cobbzilla.util.io.Composite\lFilesystemWatcher\&lt; BufferedFilesystem\lWatcher \&gt;\n|&#45; watchers\l|+ close()\l+ pathsWatching()\l+ dirsWatching()\l+ isEmpty()\l+ add()\l+ add()\l+ add()\l+ addAll()\l+ addAll()\l+ addAll()\l+ addAll()\l+ toString()\l# newWatcher()\l}">
<polygon fill="none" stroke="#000000" points="62.5,-227.5 62.5,-438.5 257.5,-438.5 257.5,-227.5 62.5,-227.5"/>
<text text-anchor="start" x="70.5" y="-426.5" font-family="Helvetica,sans-Serif" font-size="10.00" fill="#000000">org.cobbzilla.util.io.Composite</text>
<text text-anchor="start" x="70.5" y="-415.5" font-family="Helvetica,sans-Serif" font-size="10.00" fill="#000000">FilesystemWatcher&lt; BufferedFilesystem</text>
<text text-anchor="middle" x="160" y="-404.5" font-family="Helvetica,sans-Serif" font-size="10.00" fill="#000000">Watcher &gt;</text>
<polyline fill="none" stroke="#000000" points="62.5,-397.5 257.5,-397.5 "/>
<text text-anchor="start" x="70.5" y="-385.5" font-family="Helvetica,sans-Serif" font-size="10.00" fill="#000000">&#45; watchers</text>
<polyline fill="none" stroke="#000000" points="62.5,-378.5 257.5,-378.5 "/>
<text text-anchor="start" x="70.5" y="-366.5" font-family="Helvetica,sans-Serif" font-size="10.00" fill="#000000">+ close()</text>
<text text-anchor="start" x="70.5" y="-355.5" font-family="Helvetica,sans-Serif" font-size="10.00" fill="#000000">+ pathsWatching()</text>
<text text-anchor="start" x="70.5" y="-344.5" font-family="Helvetica,sans-Serif" font-size="10.00" fill="#000000">+ dirsWatching()</text>
<text text-anchor="start" x="70.5" y="-333.5" font-family="Helvetica,sans-Serif" font-size="10.00" fill="#000000">+ isEmpty()</text>
<text text-anchor="start" x="70.5" y="-322.5" font-family="Helvetica,sans-Serif" font-size="10.00" fill="#000000">+ add()</text>
<text text-anchor="start" x="70.5" y="-311.5" font-family="Helvetica,sans-Serif" font-size="10.00" fill="#000000">+ add()</text>
<text text-anchor="start" x="70.5" y="-300.5" font-family="Helvetica,sans-Serif" font-size="10.00" fill="#000000">+ add()</text>
<text text-anchor="start" x="70.5" y="-289.5" font-family="Helvetica,sans-Serif" font-size="10.00" fill="#000000">+ addAll()</text>
<text text-anchor="start" x="70.5" y="-278.5" font-family="Helvetica,sans-Serif" font-size="10.00" fill="#000000">+ addAll()</text>
<text text-anchor="start" x="70.5" y="-267.5" font-family="Helvetica,sans-Serif" font-size="10.00" fill="#000000">+ addAll()</text>
<text text-anchor="start" x="70.5" y="-256.5" font-family="Helvetica,sans-Serif" font-size="10.00" fill="#000000">+ addAll()</text>
<text text-anchor="start" x="70.5" y="-245.5" font-family="Helvetica,sans-Serif" font-size="10.00" fill="#000000">+ toString()</text>
<text text-anchor="start" x="70.5" y="-234.5" font-family="Helvetica,sans-Serif" font-size="10.00" fill="#000000"># newWatcher()</text>
</a>
</g>
</g>
<!-- Node8&#45;&gt;Node7 -->
<g id="edge1" class="edge">
<title>Node8&#45;&gt;Node7</title>
<path fill="none" stroke="#191970" d="M160,-217.2004C160,-207.944 160,-198.6618 160,-189.5781"/>
<polygon fill="none" stroke="#191970" points="156.5001,-217.2237 160,-227.2237 163.5001,-217.2238 156.5001,-217.2237"/>
</g>
<!-- Node9 -->
<g id="node3" class="node">
<title>Node9</title>
<g id="a_node3"><a xlink:href="../../db/dd9/classorg_1_1cobbzilla_1_1util_1_1io_1_1CompositeFilesystemWatcher.html" target="_top" xlink:title="{org.cobbzilla.util.io.Composite\lFilesystemWatcher\&lt; T extends\l FilesystemWatcher \&gt;\n||+ close()\l+ pathsWatching()\l+ dirsWatching()\l+ isEmpty()\l+ add()\l+ add()\l+ add()\l+ addAll()\l+ addAll()\l+ addAll()\l+ addAll()\l+ toString()\l# newWatcher()\l}">
<polygon fill="none" stroke="#000000" points="83,-486.5 83,-697.5 237,-697.5 237,-486.5 83,-486.5"/>
<text text-anchor="start" x="91" y="-685.5" font-family="Helvetica,sans-Serif" font-size="10.00" fill="#000000">org.cobbzilla.util.io.Composite</text>
<text text-anchor="start" x="91" y="-674.5" font-family="Helvetica,sans-Serif" font-size="10.00" fill="#000000">FilesystemWatcher&lt; T extends</text>
<text text-anchor="middle" x="160" y="-663.5" font-family="Helvetica,sans-Serif" font-size="10.00" fill="#000000"> FilesystemWatcher &gt;</text>
<polyline fill="none" stroke="#000000" points="83,-656.5 237,-656.5 "/>
<text text-anchor="middle" x="160" y="-644.5" font-family="Helvetica,sans-Serif" font-size="10.00" fill="#000000"> </text>
<polyline fill="none" stroke="#000000" points="83,-637.5 237,-637.5 "/>
<text text-anchor="start" x="91" y="-625.5" font-family="Helvetica,sans-Serif" font-size="10.00" fill="#000000">+ close()</text>
<text text-anchor="start" x="91" y="-614.5" font-family="Helvetica,sans-Serif" font-size="10.00" fill="#000000">+ pathsWatching()</text>
<text text-anchor="start" x="91" y="-603.5" font-family="Helvetica,sans-Serif" font-size="10.00" fill="#000000">+ dirsWatching()</text>
<text text-anchor="start" x="91" y="-592.5" font-family="Helvetica,sans-Serif" font-size="10.00" fill="#000000">+ isEmpty()</text>
<text text-anchor="start" x="91" y="-581.5" font-family="Helvetica,sans-Serif" font-size="10.00" fill="#000000">+ add()</text>
<text text-anchor="start" x="91" y="-570.5" font-family="Helvetica,sans-Serif" font-size="10.00" fill="#000000">+ add()</text>
<text text-anchor="start" x="91" y="-559.5" font-family="Helvetica,sans-Serif" font-size="10.00" fill="#000000">+ add()</text>
<text text-anchor="start" x="91" y="-548.5" font-family="Helvetica,sans-Serif" font-size="10.00" fill="#000000">+ addAll()</text>
<text text-anchor="start" x="91" y="-537.5" font-family="Helvetica,sans-Serif" font-size="10.00" fill="#000000">+ addAll()</text>
<text text-anchor="start" x="91" y="-526.5" font-family="Helvetica,sans-Serif" font-size="10.00" fill="#000000">+ addAll()</text>
<text text-anchor="start" x="91" y="-515.5" font-family="Helvetica,sans-Serif" font-size="10.00" fill="#000000">+ addAll()</text>
<text text-anchor="start" x="91" y="-504.5" font-family="Helvetica,sans-Serif" font-size="10.00" fill="#000000">+ toString()</text>
<text text-anchor="start" x="91" y="-493.5" font-family="Helvetica,sans-Serif" font-size="10.00" fill="#000000"># newWatcher()</text>
</a>
</g>
</g>
<!-- Node9&#45;&gt;Node8 -->
<g id="edge2" class="edge">
<title>Node9&#45;&gt;Node8</title>
<path fill="none" stroke="#ffa500" d="M160,-475.9414C160,-463.5738 160,-451.0409 160,-438.8005"/>
<polygon fill="#ffa500" stroke="#ffa500" points="156.5001,-476.2812 160,-486.2812 163.5001,-476.2813 156.5001,-476.2812"/>
<text text-anchor="middle" x="231.5" y="-460" font-family="Helvetica,sans-Serif" font-size="10.00" fill="#000000"> &lt; BufferedFilesystemWatcher &gt;</text>
</g>
<!-- Node10 -->
<g id="node4" class="node">
<title>Node10</title>
<polygon fill="none" stroke="#bfbfbf" points="0,-1037.5 0,-1094.5 60,-1094.5 60,-1037.5 0,-1037.5"/>
<text text-anchor="middle" x="30" y="-1082.5" font-family="Helvetica,sans-Serif" font-size="10.00" fill="#000000">Closeable</text>
<polyline fill="none" stroke="#bfbfbf" points="0,-1075.5 60,-1075.5 "/>
<text text-anchor="middle" x="30" y="-1063.5" font-family="Helvetica,sans-Serif" font-size="10.00" fill="#000000"> </text>
<polyline fill="none" stroke="#bfbfbf" points="0,-1056.5 60,-1056.5 "/>
<text text-anchor="middle" x="30" y="-1044.5" font-family="Helvetica,sans-Serif" font-size="10.00" fill="#000000"> </text>
</g>
<!-- Node10&#45;&gt;Node9 -->
<g id="edge3" class="edge">
<title>Node10&#45;&gt;Node9</title>
<path fill="none" stroke="#191970" d="M29.6069,-1027.1708C30.1023,-965.6387 35.6762,-842.6918 69,-745 74.4379,-729.0583 81.6848,-712.97 89.7239,-697.52"/>
<polygon fill="none" stroke="#191970" points="26.1069,-1027.2028 29.5676,-1037.2165 33.1068,-1027.2303 26.1069,-1027.2028"/>
</g>
<!-- Node13 -->
<g id="node7" class="node">
<title>Node13</title>
<g id="a_node7"><a xlink:href="../../d3/d98/classorg_1_1cobbzilla_1_1util_1_1io_1_1FilesystemWatcher.html" target="_top" xlink:title="{org.cobbzilla.util.io.Filesystem\lWatcher\n|+ STOP_TIMEOUT\l&#45; thread\l|+ FilesystemWatcher()\l+ FilesystemWatcher()\l+ start()\l+ stop()\l+ close()\l+ toFile()\l+ run()\l# handleEvent()\l# onDirCreated()\l# onFileCreated()\l# onDirModified()\l# onFileModified()\l# onDirDeleted()\l# onFileDeleted()\l# getSleepWhileNotExists()\l# getSleepAfterUnexpectedError()\l}">
<polygon fill="none" stroke="#000000" points="78,-745.5 78,-989.5 242,-989.5 242,-745.5 78,-745.5"/>
<text text-anchor="start" x="86" y="-977.5" font-family="Helvetica,sans-Serif" font-size="10.00" fill="#000000">org.cobbzilla.util.io.Filesystem</text>
<text text-anchor="middle" x="160" y="-966.5" font-family="Helvetica,sans-Serif" font-size="10.00" fill="#000000">Watcher</text>
<polyline fill="none" stroke="#000000" points="78,-959.5 242,-959.5 "/>
<text text-anchor="start" x="86" y="-947.5" font-family="Helvetica,sans-Serif" font-size="10.00" fill="#000000">+ STOP_TIMEOUT</text>
<text text-anchor="start" x="86" y="-936.5" font-family="Helvetica,sans-Serif" font-size="10.00" fill="#000000">&#45; thread</text>
<polyline fill="none" stroke="#000000" points="78,-929.5 242,-929.5 "/>
<text text-anchor="start" x="86" y="-917.5" font-family="Helvetica,sans-Serif" font-size="10.00" fill="#000000">+ FilesystemWatcher()</text>
<text text-anchor="start" x="86" y="-906.5" font-family="Helvetica,sans-Serif" font-size="10.00" fill="#000000">+ FilesystemWatcher()</text>
<text text-anchor="start" x="86" y="-895.5" font-family="Helvetica,sans-Serif" font-size="10.00" fill="#000000">+ start()</text>
<text text-anchor="start" x="86" y="-884.5" font-family="Helvetica,sans-Serif" font-size="10.00" fill="#000000">+ stop()</text>
<text text-anchor="start" x="86" y="-873.5" font-family="Helvetica,sans-Serif" font-size="10.00" fill="#000000">+ close()</text>
<text text-anchor="start" x="86" y="-862.5" font-family="Helvetica,sans-Serif" font-size="10.00" fill="#000000">+ toFile()</text>
<text text-anchor="start" x="86" y="-851.5" font-family="Helvetica,sans-Serif" font-size="10.00" fill="#000000">+ run()</text>
<text text-anchor="start" x="86" y="-840.5" font-family="Helvetica,sans-Serif" font-size="10.00" fill="#000000"># handleEvent()</text>
<text text-anchor="start" x="86" y="-829.5" font-family="Helvetica,sans-Serif" font-size="10.00" fill="#000000"># onDirCreated()</text>
<text text-anchor="start" x="86" y="-818.5" font-family="Helvetica,sans-Serif" font-size="10.00" fill="#000000"># onFileCreated()</text>
<text text-anchor="start" x="86" y="-807.5" font-family="Helvetica,sans-Serif" font-size="10.00" fill="#000000"># onDirModified()</text>
<text text-anchor="start" x="86" y="-796.5" font-family="Helvetica,sans-Serif" font-size="10.00" fill="#000000"># onFileModified()</text>
<text text-anchor="start" x="86" y="-785.5" font-family="Helvetica,sans-Serif" font-size="10.00" fill="#000000"># onDirDeleted()</text>
<text text-anchor="start" x="86" y="-774.5" font-family="Helvetica,sans-Serif" font-size="10.00" fill="#000000"># onFileDeleted()</text>
<text text-anchor="start" x="86" y="-763.5" font-family="Helvetica,sans-Serif" font-size="10.00" fill="#000000"># getSleepWhileNotExists()</text>
<text text-anchor="start" x="86" y="-752.5" font-family="Helvetica,sans-Serif" font-size="10.00" fill="#000000"># getSleepAfterUnexpectedError()</text>
</a>
</g>
</g>
<!-- Node10&#45;&gt;Node13 -->
<g id="edge8" class="edge">
<title>Node10&#45;&gt;Node13</title>
<path fill="none" stroke="#191970" d="M54.4466,-1028.6719C62.0253,-1017.0998 70.8289,-1003.6575 80.0573,-989.5664"/>
<polygon fill="none" stroke="#191970" points="51.4539,-1026.8532 48.9031,-1037.1364 57.3099,-1030.6883 51.4539,-1026.8532"/>
</g>
<!-- Node11 -->
<g id="node5" class="node">
<title>Node11</title>
<polygon fill="none" stroke="#bfbfbf" points="273,-839 273,-896 359,-896 359,-839 273,-839"/>
<text text-anchor="middle" x="316" y="-884" font-family="Helvetica,sans-Serif" font-size="10.00" fill="#000000">Map&lt; Path, T &gt;</text>
<polyline fill="none" stroke="#bfbfbf" points="273,-877 359,-877 "/>
<text text-anchor="middle" x="316" y="-865" font-family="Helvetica,sans-Serif" font-size="10.00" fill="#000000"> </text>
<polyline fill="none" stroke="#bfbfbf" points="273,-858 359,-858 "/>
<text text-anchor="middle" x="316" y="-846" font-family="Helvetica,sans-Serif" font-size="10.00" fill="#000000"> </text>
</g>
<!-- Node11&#45;&gt;Node9 -->
<g id="edge4" class="edge">
<title>Node11&#45;&gt;Node9</title>
<path fill="none" stroke="#404040" d="M301.1576,-838.5741C288.2302,-813.6146 268.8172,-776.6891 251,-745 244.2549,-733.0035 237.103,-720.551 229.8897,-708.1642"/>
<polygon fill="none" stroke="#404040" points="229.8793,-708.1462 223.3981,-704.9847 223.8237,-697.7861 230.3049,-700.9477 229.8793,-708.1462"/>
<text text-anchor="middle" x="263" y="-719" font-family="Helvetica,sans-Serif" font-size="10.00" fill="#000000"> &#45;watchers</text>
</g>
<!-- Node12 -->
<g id="node6" class="node">
<title>Node12</title>
<polygon fill="none" stroke="#bfbfbf" points="310.5,-1037.5 310.5,-1094.5 345.5,-1094.5 345.5,-1037.5 310.5,-1037.5"/>
<text text-anchor="middle" x="328" y="-1082.5" font-family="Helvetica,sans-Serif" font-size="10.00" fill="#000000">Map</text>
<polyline fill="none" stroke="#bfbfbf" points="310.5,-1075.5 345.5,-1075.5 "/>
<text text-anchor="middle" x="328" y="-1063.5" font-family="Helvetica,sans-Serif" font-size="10.00" fill="#000000"> </text>
<polyline fill="none" stroke="#bfbfbf" points="310.5,-1056.5 345.5,-1056.5 "/>
<text text-anchor="middle" x="328" y="-1044.5" font-family="Helvetica,sans-Serif" font-size="10.00" fill="#000000"> </text>
</g>
<!-- Node12&#45;&gt;Node11 -->
<g id="edge5" class="edge">
<title>Node12&#45;&gt;Node11</title>
<path fill="none" stroke="#ffa500" d="M325.6315,-1026.8218C323.3032,-988.3069 319.8052,-930.4444 317.7275,-896.0764"/>
<polygon fill="#ffa500" stroke="#ffa500" points="322.158,-1027.3659 326.2551,-1037.1364 329.1452,-1026.9434 322.158,-1027.3659"/>
<text text-anchor="middle" x="353" y="-1011" font-family="Helvetica,sans-Serif" font-size="10.00" fill="#000000"> &lt; Path, T &gt;</text>
</g>
<!-- Node13&#45;&gt;Node9 -->
<g id="edge6" class="edge">
<title>Node13&#45;&gt;Node9</title>
<path fill="none" stroke="#ffa500" d="M160,-735.3188C160,-722.6484 160,-709.915 160,-697.5484"/>
<polygon fill="#ffa500" stroke="#ffa500" points="156.5001,-735.4585 160,-745.4586 163.5001,-735.4586 156.5001,-735.4585"/>
<text text-anchor="middle" x="165" y="-719" font-family="Helvetica,sans-Serif" font-size="10.00" fill="#000000"> T</text>
</g>
<!-- Node14 -->
<g id="node8" class="node">
<title>Node14</title>
<polygon fill="none" stroke="#bfbfbf" points="78,-1037.5 78,-1094.5 136,-1094.5 136,-1037.5 78,-1037.5"/>
<text text-anchor="middle" x="107" y="-1082.5" font-family="Helvetica,sans-Serif" font-size="10.00" fill="#000000">Runnable</text>
<polyline fill="none" stroke="#bfbfbf" points="78,-1075.5 136,-1075.5 "/>
<text text-anchor="middle" x="107" y="-1063.5" font-family="Helvetica,sans-Serif" font-size="10.00" fill="#000000"> </text>
<polyline fill="none" stroke="#bfbfbf" points="78,-1056.5 136,-1056.5 "/>
<text text-anchor="middle" x="107" y="-1044.5" font-family="Helvetica,sans-Serif" font-size="10.00" fill="#000000"> </text>
</g>
<!-- Node14&#45;&gt;Node13 -->
<g id="edge7" class="edge">
<title>Node14&#45;&gt;Node13</title>
<path fill="none" stroke="#191970" d="M117.3325,-1027.302C120.3382,-1016.0445 123.7932,-1003.1049 127.408,-989.5664"/>
<polygon fill="none" stroke="#191970" points="113.9048,-1026.5719 114.7067,-1037.1364 120.6679,-1028.3778 113.9048,-1026.5719"/>
</g>
<!-- Node15 -->
<g id="node9" class="node">
<title>Node15</title>
<polygon fill="none" stroke="#bfbfbf" points="154.5,-1037.5 154.5,-1094.5 191.5,-1094.5 191.5,-1037.5 154.5,-1037.5"/>
<text text-anchor="middle" x="173" y="-1082.5" font-family="Helvetica,sans-Serif" font-size="10.00" fill="#000000">Path</text>
<polyline fill="none" stroke="#bfbfbf" points="154.5,-1075.5 191.5,-1075.5 "/>
<text text-anchor="middle" x="173" y="-1063.5" font-family="Helvetica,sans-Serif" font-size="10.00" fill="#000000"> </text>
<polyline fill="none" stroke="#bfbfbf" points="154.5,-1056.5 191.5,-1056.5 "/>
<text text-anchor="middle" x="173" y="-1044.5" font-family="Helvetica,sans-Serif" font-size="10.00" fill="#000000"> </text>
</g>
<!-- Node15&#45;&gt;Node13 -->
<g id="edge9" class="edge">
<title>Node15&#45;&gt;Node13</title>
<path fill="none" stroke="#404040" d="M171.1097,-1037.1364C170.4465,-1027.0104 169.6515,-1014.8706 168.7955,-1001.8003"/>
<polygon fill="none" stroke="#404040" points="168.7786,-1001.5407 164.395,-995.815 167.9943,-989.5664 172.3779,-995.2921 168.7786,-1001.5407"/>
<text text-anchor="middle" x="182.5" y="-1011" font-family="Helvetica,sans-Serif" font-size="10.00" fill="#000000"> &#45;path</text>
</g>
<!-- Node16 -->
<g id="node10" class="node">
<title>Node16</title>
<polygon fill="none" stroke="#bfbfbf" points="209.5,-1037.5 209.5,-1094.5 292.5,-1094.5 292.5,-1037.5 209.5,-1037.5"/>
<text text-anchor="middle" x="251" y="-1082.5" font-family="Helvetica,sans-Serif" font-size="10.00" fill="#000000">AtomicBoolean</text>
<polyline fill="none" stroke="#bfbfbf" points="209.5,-1075.5 292.5,-1075.5 "/>
<text text-anchor="middle" x="251" y="-1063.5" font-family="Helvetica,sans-Serif" font-size="10.00" fill="#000000"> </text>
<polyline fill="none" stroke="#bfbfbf" points="209.5,-1056.5 292.5,-1056.5 "/>
<text text-anchor="middle" x="251" y="-1044.5" font-family="Helvetica,sans-Serif" font-size="10.00" fill="#000000"> </text>
</g>
<!-- Node16&#45;&gt;Node13 -->
<g id="edge10" class="edge">
<title>Node16&#45;&gt;Node13</title>
<path fill="none" stroke="#404040" d="M237.7678,-1037.1364C232.9836,-1026.7005 227.2187,-1014.1255 221.0169,-1000.5973"/>
<polygon fill="none" stroke="#404040" points="220.9608,-1000.4747 214.8242,-996.6875 215.9599,-989.5664 222.0964,-993.3536 220.9608,-1000.4747"/>
<text text-anchor="middle" x="244" y="-1011" font-family="Helvetica,sans-Serif" font-size="10.00" fill="#000000"> &#45;done</text>
</g>
</g>
</svg>
        <g id="navigator" transform="translate(0 0)" fill="#404254">
                <rect fill="#f2f5e9" fill-opacity="0.5" stroke="#606060" stroke-width=".5" x="0" y="0" width="60" height="60"/>
                <use id="zoomplus" xlink:href="#zoomPlus" x="17" y="9" onmousedown="handleZoom(evt,'in')"/>
                <use id="zoomminus" xlink:href="#zoomMin" x="42" y="9" onmousedown="handleZoom(evt,'out')"/>
                <use id="reset" xlink:href="#resetDef" x="30" y="36" onmousedown="handleReset()"/>
                <g id="arrowUp" xlink:href="#dirArrow" transform="translate(30 24)" onmousedown="handlePan(0,-1)">
                  <use xlink:href="#rim" fill="#404040">
                        <set attributeName="fill" to="#808080" begin="arrowUp.mouseover" end="arrowUp.mouseout"/>
                  </use>
                  <path fill="none" stroke="white" stroke-width="1.5" d="M0,-3.0v7 M-2.5,-0.5L0,-3.0L2.5,-0.5"/>
                </g>
                <g id="arrowRight" xlink:href="#dirArrow" transform="rotate(90) translate(36 -43)" onmousedown="handlePan(1,0)">
                  <use xlink:href="#rim" fill="#404040">
                        <set attributeName="fill" to="#808080" begin="arrowRight.mouseover" end="arrowRight.mouseout"/>
                  </use>
                  <path fill="none" stroke="white" stroke-width="1.5" d="M0,-3.0v7 M-2.5,-0.5L0,-3.0L2.5,-0.5"/>
                </g>
                <g id="arrowDown" xlink:href="#dirArrow" transform="rotate(180) translate(-30 -48)" onmousedown="handlePan(0,1)">
                  <use xlink:href="#rim" fill="#404040">
                        <set attributeName="fill" to="#808080" begin="arrowDown.mouseover" end="arrowDown.mouseout"/>
                  </use>
                  <path fill="none" stroke="white" stroke-width="1.5" d="M0,-3.0v7 M-2.5,-0.5L0,-3.0L2.5,-0.5"/>
                </g>
                <g id="arrowLeft" xlink:href="#dirArrow" transform="rotate(270) translate(-36 17)" onmousedown="handlePan(-1,0)">
                  <use xlink:href="#rim" fill="#404040">
                        <set attributeName="fill" to="#808080" begin="arrowLeft.mouseover" end="arrowLeft.mouseout"/>
                  </use>
                  <path fill="none" stroke="white" stroke-width="1.5" d="M0,-3.0v7 M-2.5,-0.5L0,-3.0L2.5,-0.5"/>
                </g>
        </g>
        <svg viewBox="0 0 15 15" width="100%" height="30px" preserveAspectRatio="xMaxYMin meet">
         <g id="arrow_out" transform="scale(0.3 0.3)">
          <a xlink:href="classorg_1_1cobbzilla_1_1util_1_1io_1_1CompositeBufferedFilesystemWatcher__coll__graph_org.svg" target="_base">
           <rect id="button" ry="5" rx="5" y="6" x="6" height="38" width="38"
                fill="#f2f5e9" fill-opacity="0.5" stroke="#606060" stroke-width="1.0"/>
           <path id="arrow"
             d="M 11.500037,31.436501 C 11.940474,20.09759 22.043105,11.32322 32.158766,21.979434 L 37.068811,17.246167 C 37.068811,17.246167 37.088388,32 37.088388,32 L 22.160133,31.978069 C 22.160133,31.978069 26.997745,27.140456 26.997745,27.140456 C 18.528582,18.264221 13.291696,25.230495 11.500037,31.436501 z"
             style="fill:#404040;"/>
          </a>
         </g>
        </svg>
</svg>
