<?xml version="1.0" encoding="UTF-8" standalone="no"?>
<!DOCTYPE svg PUBLIC "-//W3C//DTD SVG 1.1//EN"
 "http://www.w3.org/Graphics/SVG/1.1/DTD/svg11.dtd">
<!-- Generated by graphviz version 2.40.1 (20161225.0304)
 -->
<!-- Title: org.cobbzilla.util.io.StreamUtil.stream2string Pages: 1 -->
<svg width="333pt" height="137pt"
 viewBox="0.00 0.00 333.00 137.00" xmlns="http://www.w3.org/2000/svg" xmlns:xlink="http://www.w3.org/1999/xlink">
<g id="graph0" class="graph" transform="scale(1 1) rotate(0) translate(4 133)">
<title>org.cobbzilla.util.io.StreamUtil.stream2string</title>
<!-- Node3 -->
<g id="node1" class="node">
<title>Node3</title>
<polygon fill="#bfbfbf" stroke="#000000" points="0,-49.5 0,-79.5 132,-79.5 132,-49.5 0,-49.5"/>
<text text-anchor="start" x="8" y="-67.5" font-family="Helvetica,sans-Serif" font-size="10.00" fill="#000000">org.cobbzilla.util.io.Stream</text>
<text text-anchor="middle" x="66" y="-56.5" font-family="Helvetica,sans-Serif" font-size="10.00" fill="#000000">Util.stream2string</text>
</g>
<!-- Node4 -->
<g id="node2" class="node">
<title>Node4</title>
<g id="a_node2"><a xlink:href="../../dc/d81/classorg_1_1cobbzilla_1_1util_1_1io_1_1StreamUtil_a210eaddec694c1e14c3f0de73e6c0df4.html#a210eaddec694c1e14c3f0de73e6c0df4" target="_top" xlink:title="org.cobbzilla.util.io.Stream\lUtil.fromClasspathOrFilesystem">
<polygon fill="none" stroke="#000000" points="168,-98.5 168,-128.5 325,-128.5 325,-98.5 168,-98.5"/>
<text text-anchor="start" x="176" y="-116.5" font-family="Helvetica,sans-Serif" font-size="10.00" fill="#000000">org.cobbzilla.util.io.Stream</text>
<text text-anchor="middle" x="246.5" y="-105.5" font-family="Helvetica,sans-Serif" font-size="10.00" fill="#000000">Util.fromClasspathOrFilesystem</text>
</a>
</g>
</g>
<!-- Node3&#45;&gt;Node4 -->
<g id="edge1" class="edge">
<title>Node3&#45;&gt;Node4</title>
<path fill="none" stroke="#191970" d="M131.3796,-82.2485C150.9422,-87.5591 172.1958,-93.3288 191.0549,-98.4484"/>
<polygon fill="#191970" stroke="#191970" points="132.1965,-78.8436 121.6288,-79.6014 130.3625,-85.5991 132.1965,-78.8436"/>
</g>
<!-- Node5 -->
<g id="node3" class="node">
<title>Node5</title>
<g id="a_node3"><a xlink:href="../../dc/d81/classorg_1_1cobbzilla_1_1util_1_1io_1_1StreamUtil_ae1370ab4e84bf8d22deffad5977f6349.html#ae1370ab4e84bf8d22deffad5977f6349" target="_top" xlink:title="org.cobbzilla.util.io.Stream\lUtil.fromClasspathOrString">
<polygon fill="none" stroke="#000000" points="179.5,-49.5 179.5,-79.5 313.5,-79.5 313.5,-49.5 179.5,-49.5"/>
<text text-anchor="start" x="187.5" y="-67.5" font-family="Helvetica,sans-Serif" font-size="10.00" fill="#000000">org.cobbzilla.util.io.Stream</text>
<text text-anchor="middle" x="246.5" y="-56.5" font-family="Helvetica,sans-Serif" font-size="10.00" fill="#000000">Util.fromClasspathOrString</text>
</a>
</g>
</g>
<!-- Node3&#45;&gt;Node5 -->
<g id="edge2" class="edge">
<title>Node3&#45;&gt;Node5</title>
<path fill="none" stroke="#191970" d="M142.4129,-64.5C154.71,-64.5 167.3581,-64.5 179.4147,-64.5"/>
<polygon fill="#191970" stroke="#191970" points="142.1866,-61.0001 132.1866,-64.5 142.1866,-68.0001 142.1866,-61.0001"/>
</g>
<!-- Node6 -->
<g id="node4" class="node">
<title>Node6</title>
<g id="a_node4"><a xlink:href="../../d9/d3d/classorg_1_1cobbzilla_1_1util_1_1json_1_1JsonUtilTest_a506201864e5b3d7073a4fa42fa837cd3.html#a506201864e5b3d7073a4fa42fa837cd3" target="_top" xlink:title="org.cobbzilla.util.json.\lJsonUtilTest.testMerge">
<polygon fill="none" stroke="#000000" points="187,-.5 187,-30.5 306,-30.5 306,-.5 187,-.5"/>
<text text-anchor="start" x="195" y="-18.5" font-family="Helvetica,sans-Serif" font-size="10.00" fill="#000000">org.cobbzilla.util.json.</text>
<text text-anchor="middle" x="246.5" y="-7.5" font-family="Helvetica,sans-Serif" font-size="10.00" fill="#000000">JsonUtilTest.testMerge</text>
</a>
</g>
</g>
<!-- Node3&#45;&gt;Node6 -->
<g id="edge3" class="edge">
<title>Node3&#45;&gt;Node6</title>
<path fill="none" stroke="#191970" d="M131.3796,-46.7515C150.9422,-41.4409 172.1958,-35.6712 191.0549,-30.5516"/>
<polygon fill="#191970" stroke="#191970" points="130.3625,-43.4009 121.6288,-49.3986 132.1965,-50.1564 130.3625,-43.4009"/>
</g>
</g>
</svg>
