<?xml version="1.0" encoding="UTF-8" standalone="no"?>
<!DOCTYPE svg PUBLIC "-//W3C//DTD SVG 1.1//EN"
 "http://www.w3.org/Graphics/SVG/1.1/DTD/svg11.dtd">
<!-- Generated by graphviz version 2.40.1 (20161225.0304)
 -->
<!-- Title: org.cobbzilla.util.io.StreamUtil.loadResourceAsStream Pages: 1 -->
<!--zoomable 421 -->
<svg id="main" version="1.1" xmlns="http://www.w3.org/2000/svg" xmlns:xlink="http://www.w3.org/1999/xlink" xml:space="preserve" onload="init(evt)">
<style type="text/css"><![CDATA[
.edge:hover path { stroke: red; }
.edge:hover polygon { stroke: red; fill: red; }
]]></style>
<script type="text/javascript"><![CDATA[
var edges = document.getElementsByTagName('g');
if (edges && edges.length) {
  for (var i=0;i<edges.length;i++) {
    if (edges[i].id.substr(0,4)=='edge') {
      edges[i].setAttribute('class','edge');
    }
  }
}
]]></script>
        <defs>
                <circle id="rim" cx="0" cy="0" r="7"/>
                <circle id="rim2" cx="0" cy="0" r="3.5"/>
                <g id="zoomPlus">
                        <use xlink:href="#rim" fill="#404040">
                                <set attributeName="fill" to="#808080" begin="zoomplus.mouseover" end="zoomplus.mouseout"/>
                        </use>
                        <path d="M-4,0h8M0,-4v8" fill="none" stroke="white" stroke-width="1.5" pointer-events="none"/>
                </g>
                <g id="zoomMin">
                        <use xlink:href="#rim" fill="#404040">
                                <set attributeName="fill" to="#808080" begin="zoomminus.mouseover" end="zoomminus.mouseout"/>
                        </use>
                        <path d="M-4,0h8" fill="none" stroke="white" stroke-width="1.5" pointer-events="none"/>
                </g>
                <g id="dirArrow">
                        <path fill="none" stroke="white" stroke-width="1.5" d="M0,-3.0v7 M-2.5,-0.5L0,-3.0L2.5,-0.5"/>
                </g>
               <g id="resetDef">
                       <use xlink:href="#rim2" fill="#404040">
                               <set attributeName="fill" to="#808080" begin="reset.mouseover" end="reset.mouseout"/>
                       </use>
               </g>
        </defs>

<script type="text/javascript">
var viewWidth = 729;
var viewHeight = 421;
var sectionId = 'dynsection-0';
</script>
<script xlink:href="../../svgpan.js"/>
<svg id="graph" class="graph">
<g id="viewport">
<title>org.cobbzilla.util.io.StreamUtil.loadResourceAsStream</title>
<!-- Node1 -->
<g id="node1" class="node">
<title>Node1</title>
<polygon fill="#bfbfbf" stroke="#000000" points="0,-186.5 0,-216.5 138,-216.5 138,-186.5 0,-186.5"/>
<text text-anchor="start" x="8" y="-204.5" font-family="Helvetica,sans-Serif" font-size="10.00" fill="#000000">org.cobbzilla.util.io.Stream</text>
<text text-anchor="middle" x="69" y="-193.5" font-family="Helvetica,sans-Serif" font-size="10.00" fill="#000000">Util.loadResourceAsStream</text>
</g>
<!-- Node2 -->
<g id="node2" class="node">
<title>Node2</title>
<g id="a_node2"><a xlink:href="../../d2/db5/classorg_1_1cobbzilla_1_1util_1_1time_1_1ImprovedTimezone_ac1438d9fd95803a313cc2e3513e11bb6.html#ac1438d9fd95803a313cc2e3513e11bb6" target="_top" xlink:title="Initialize timezones from a file on classpath. ">
<polygon fill="none" stroke="#000000" points="190.5,-382.5 190.5,-412.5 306.5,-412.5 306.5,-382.5 190.5,-382.5"/>
<text text-anchor="start" x="198.5" y="-400.5" font-family="Helvetica,sans-Serif" font-size="10.00" fill="#000000">org.cobbzilla.util.time.</text>
<text text-anchor="middle" x="248.5" y="-389.5" font-family="Helvetica,sans-Serif" font-size="10.00" fill="#000000">ImprovedTimezone.init</text>
</a>
</g>
</g>
<!-- Node1&#45;&gt;Node2 -->
<g id="edge1" class="edge">
<title>Node1&#45;&gt;Node2</title>
<path fill="none" stroke="#191970" d="M77.6261,-226.2119C91.887,-263.5129 123.8823,-334.0233 174,-373.5 178.9104,-377.3678 184.4615,-380.6205 190.2646,-383.3543"/>
<polygon fill="#191970" stroke="#191970" points="80.8304,-224.7859 74.0738,-216.6251 74.2665,-227.2182 80.8304,-224.7859"/>
</g>
<!-- Node3 -->
<g id="node3" class="node">
<title>Node3</title>
<g id="a_node3"><a xlink:href="../../dc/d81/classorg_1_1cobbzilla_1_1util_1_1io_1_1StreamUtil_a06c527bc30ff5252cd56e2e2b954c8eb.html#a06c527bc30ff5252cd56e2e2b954c8eb" target="_top" xlink:title="org.cobbzilla.util.io.Stream\lUtil.loadResourceAsFile">
<polygon fill="none" stroke="#000000" points="182.5,-333.5 182.5,-363.5 314.5,-363.5 314.5,-333.5 182.5,-333.5"/>
<text text-anchor="start" x="190.5" y="-351.5" font-family="Helvetica,sans-Serif" font-size="10.00" fill="#000000">org.cobbzilla.util.io.Stream</text>
<text text-anchor="middle" x="248.5" y="-340.5" font-family="Helvetica,sans-Serif" font-size="10.00" fill="#000000">Util.loadResourceAsFile</text>
</a>
</g>
</g>
<!-- Node1&#45;&gt;Node3 -->
<g id="edge2" class="edge">
<title>Node1&#45;&gt;Node3</title>
<path fill="none" stroke="#191970" d="M83.4879,-225.3895C101.4411,-253.0587 134.5391,-298.1977 174,-324.5 179.0882,-327.8915 184.6895,-330.8322 190.4664,-333.3759"/>
<polygon fill="#191970" stroke="#191970" points="86.3054,-223.297 77.9927,-216.7282 80.3947,-227.0472 86.3054,-223.297"/>
</g>
<!-- Node4 -->
<g id="node4" class="node">
<title>Node4</title>
<g id="a_node4"><a xlink:href="../../dc/d81/classorg_1_1cobbzilla_1_1util_1_1io_1_1StreamUtil_a94238d51b85f0dcd4d5c8fd3d0940af9.html#a94238d51b85f0dcd4d5c8fd3d0940af9" target="_top" xlink:title="org.cobbzilla.util.io.Stream\lUtil.loadResourceAsReader">
<polygon fill="none" stroke="#000000" points="179.5,-284.5 179.5,-314.5 317.5,-314.5 317.5,-284.5 179.5,-284.5"/>
<text text-anchor="start" x="187.5" y="-302.5" font-family="Helvetica,sans-Serif" font-size="10.00" fill="#000000">org.cobbzilla.util.io.Stream</text>
<text text-anchor="middle" x="248.5" y="-291.5" font-family="Helvetica,sans-Serif" font-size="10.00" fill="#000000">Util.loadResourceAsReader</text>
</a>
</g>
</g>
<!-- Node1&#45;&gt;Node4 -->
<g id="edge3" class="edge">
<title>Node1&#45;&gt;Node4</title>
<path fill="none" stroke="#191970" d="M94.7742,-223.0233C115.2136,-239.2345 145.0604,-261.0615 174,-275.5 180.566,-278.7759 187.6768,-281.7377 194.8105,-284.372"/>
<polygon fill="#191970" stroke="#191970" points="96.8734,-220.22 86.8887,-216.6765 92.4843,-225.6731 96.8734,-220.22"/>
</g>
<!-- Node7 -->
<g id="node7" class="node">
<title>Node7</title>
<g id="a_node7"><a xlink:href="../../dc/d81/classorg_1_1cobbzilla_1_1util_1_1io_1_1StreamUtil_a886cc10f761c227fbbc8579a3f15ee25.html#a886cc10f761c227fbbc8579a3f15ee25" target="_top" xlink:title="org.cobbzilla.util.io.Stream\lUtil.loadResourceAsString">
<polygon fill="none" stroke="#000000" points="182.5,-235.5 182.5,-265.5 314.5,-265.5 314.5,-235.5 182.5,-235.5"/>
<text text-anchor="start" x="190.5" y="-253.5" font-family="Helvetica,sans-Serif" font-size="10.00" fill="#000000">org.cobbzilla.util.io.Stream</text>
<text text-anchor="middle" x="248.5" y="-242.5" font-family="Helvetica,sans-Serif" font-size="10.00" fill="#000000">Util.loadResourceAsString</text>
</a>
</g>
</g>
<!-- Node1&#45;&gt;Node7 -->
<g id="edge6" class="edge">
<title>Node1&#45;&gt;Node7</title>
<path fill="none" stroke="#191970" d="M134.0174,-219.2485C153.4716,-224.5591 174.6075,-230.3288 193.3621,-235.4484"/>
<polygon fill="#191970" stroke="#191970" points="134.8893,-215.8585 124.3206,-216.6014 133.0459,-222.6114 134.8893,-215.8585"/>
</g>
<!-- Node8 -->
<g id="node8" class="node">
<title>Node8</title>
<g id="a_node8"><a xlink:href="../../d9/de3/classorg_1_1cobbzilla_1_1util_1_1xml_1_1CommonEntityResolver_a7cd2fba223b2854b886c94658fd50d38.html#a7cd2fba223b2854b886c94658fd50d38" target="_top" xlink:title="org.cobbzilla.util.xml.Common\lEntityResolver.resolveEntity">
<polygon fill="none" stroke="#000000" points="174,-186.5 174,-216.5 323,-216.5 323,-186.5 174,-186.5"/>
<text text-anchor="start" x="182" y="-204.5" font-family="Helvetica,sans-Serif" font-size="10.00" fill="#000000">org.cobbzilla.util.xml.Common</text>
<text text-anchor="middle" x="248.5" y="-193.5" font-family="Helvetica,sans-Serif" font-size="10.00" fill="#000000">EntityResolver.resolveEntity</text>
</a>
</g>
</g>
<!-- Node1&#45;&gt;Node8 -->
<g id="edge7" class="edge">
<title>Node1&#45;&gt;Node8</title>
<path fill="none" stroke="#191970" d="M148.3511,-201.5C156.7875,-201.5 165.3481,-201.5 173.7294,-201.5"/>
<polygon fill="#191970" stroke="#191970" points="148.1427,-198.0001 138.1426,-201.5 148.1426,-205.0001 148.1427,-198.0001"/>
</g>
<!-- Node9 -->
<g id="node9" class="node">
<title>Node9</title>
<g id="a_node9"><a xlink:href="../../df/dac/classorg_1_1cobbzilla_1_1util_1_1io_1_1FileUtil_a8b100ce51fe7aedf8001e878aff51f8d.html#a8b100ce51fe7aedf8001e878aff51f8d" target="_top" xlink:title="org.cobbzilla.util.io.File\lUtil.resourceToProperties">
<polygon fill="none" stroke="#000000" points="184.5,-137.5 184.5,-167.5 312.5,-167.5 312.5,-137.5 184.5,-137.5"/>
<text text-anchor="start" x="192.5" y="-155.5" font-family="Helvetica,sans-Serif" font-size="10.00" fill="#000000">org.cobbzilla.util.io.File</text>
<text text-anchor="middle" x="248.5" y="-144.5" font-family="Helvetica,sans-Serif" font-size="10.00" fill="#000000">Util.resourceToProperties</text>
</a>
</g>
</g>
<!-- Node1&#45;&gt;Node9 -->
<g id="edge8" class="edge">
<title>Node1&#45;&gt;Node9</title>
<path fill="none" stroke="#191970" d="M134.0174,-183.7515C153.4716,-178.4409 174.6075,-172.6712 193.3621,-167.5516"/>
<polygon fill="#191970" stroke="#191970" points="133.0459,-180.3886 124.3206,-186.3986 134.8893,-187.1415 133.0459,-180.3886"/>
</g>
<!-- Node11 -->
<g id="node11" class="node">
<title>Node11</title>
<g id="a_node11"><a xlink:href="../../dc/d81/classorg_1_1cobbzilla_1_1util_1_1io_1_1StreamUtil_ae9f7358616e0196ae3b887b32ba3b6c4.html#ae9f7358616e0196ae3b887b32ba3b6c4" target="_top" xlink:title="org.cobbzilla.util.io.Stream\lUtil.stream2temp">
<polygon fill="none" stroke="#000000" points="182.5,-88.5 182.5,-118.5 314.5,-118.5 314.5,-88.5 182.5,-88.5"/>
<text text-anchor="start" x="190.5" y="-106.5" font-family="Helvetica,sans-Serif" font-size="10.00" fill="#000000">org.cobbzilla.util.io.Stream</text>
<text text-anchor="middle" x="248.5" y="-95.5" font-family="Helvetica,sans-Serif" font-size="10.00" fill="#000000">Util.stream2temp</text>
</a>
</g>
</g>
<!-- Node1&#45;&gt;Node11 -->
<g id="edge10" class="edge">
<title>Node1&#45;&gt;Node11</title>
<path fill="none" stroke="#191970" d="M95.2439,-180.0974C115.7234,-164.1997 145.4052,-142.8688 174,-128.5 181.3142,-124.8246 189.2923,-121.4988 197.2213,-118.5606"/>
<polygon fill="#191970" stroke="#191970" points="93.023,-177.3913 87.33,-186.3267 97.3526,-182.8918 93.023,-177.3913"/>
</g>
<!-- Node12 -->
<g id="node12" class="node">
<title>Node12</title>
<g id="a_node12"><a xlink:href="../../db/df2/classorg_1_1cobbzilla_1_1util_1_1io_1_1TarballTest_a2291fc7c46504058afb866982146cc43.html#a2291fc7c46504058afb866982146cc43" target="_top" xlink:title="org.cobbzilla.util.io.Tarball\lTest.testUnrollAndReroll">
<polygon fill="none" stroke="#000000" points="370.5,-69.5 370.5,-99.5 500.5,-99.5 500.5,-69.5 370.5,-69.5"/>
<text text-anchor="start" x="378.5" y="-87.5" font-family="Helvetica,sans-Serif" font-size="10.00" fill="#000000">org.cobbzilla.util.io.Tarball</text>
<text text-anchor="middle" x="435.5" y="-76.5" font-family="Helvetica,sans-Serif" font-size="10.00" fill="#000000">Test.testUnrollAndReroll</text>
</a>
</g>
</g>
<!-- Node1&#45;&gt;Node12 -->
<g id="edge14" class="edge">
<title>Node1&#45;&gt;Node12</title>
<path fill="none" stroke="#191970" d="M81.2846,-177.3656C97.8001,-147.9191 130.2235,-99.5808 174,-79.5 238.7979,-49.7765 322.4709,-58.3913 377.4961,-69.4995"/>
<polygon fill="#191970" stroke="#191970" points="78.1823,-175.7443 76.4872,-186.2026 84.3343,-179.0841 78.1823,-175.7443"/>
</g>
<!-- Node13 -->
<g id="node13" class="node">
<title>Node13</title>
<g id="a_node13"><a xlink:href="../../d1/d68/classorg_1_1cobbzilla_1_1util_1_1json_1_1JsonEditTest_ab9c8a124d8697e658569d2d5c7597499.html#ab9c8a124d8697e658569d2d5c7597499" target="_top" xlink:title="org.cobbzilla.util.json.\lJsonEditTest.testJson">
<polygon fill="none" stroke="#000000" points="191,-.5 191,-30.5 306,-30.5 306,-.5 191,-.5"/>
<text text-anchor="start" x="199" y="-18.5" font-family="Helvetica,sans-Serif" font-size="10.00" fill="#000000">org.cobbzilla.util.json.</text>
<text text-anchor="middle" x="248.5" y="-7.5" font-family="Helvetica,sans-Serif" font-size="10.00" fill="#000000">JsonEditTest.testJson</text>
</a>
</g>
</g>
<!-- Node1&#45;&gt;Node13 -->
<g id="edge12" class="edge">
<title>Node1&#45;&gt;Node13</title>
<path fill="none" stroke="#191970" d="M79.6196,-177.285C95.5696,-143.471 128.7369,-82.147 174,-45.5 181.369,-39.5338 190.0797,-34.6204 198.8993,-30.6215"/>
<polygon fill="#191970" stroke="#191970" points="76.4056,-175.8968 75.4044,-186.4443 82.7645,-178.8233 76.4056,-175.8968"/>
</g>
<!-- Node5 -->
<g id="node5" class="node">
<title>Node5</title>
<g id="a_node5"><a xlink:href="../../df/dac/classorg_1_1cobbzilla_1_1util_1_1io_1_1FileUtil_a81b3dbff87fc3818c102e85c18baede7.html#a81b3dbff87fc3818c102e85c18baede7" target="_top" xlink:title="org.cobbzilla.util.io.File\lUtil.loadResourceAsStringList">
<polygon fill="none" stroke="#000000" points="361.5,-284.5 361.5,-314.5 509.5,-314.5 509.5,-284.5 361.5,-284.5"/>
<text text-anchor="start" x="369.5" y="-302.5" font-family="Helvetica,sans-Serif" font-size="10.00" fill="#000000">org.cobbzilla.util.io.File</text>
<text text-anchor="middle" x="435.5" y="-291.5" font-family="Helvetica,sans-Serif" font-size="10.00" fill="#000000">Util.loadResourceAsStringList</text>
</a>
</g>
</g>
<!-- Node4&#45;&gt;Node5 -->
<g id="edge4" class="edge">
<title>Node4&#45;&gt;Node5</title>
<path fill="none" stroke="#191970" d="M327.738,-299.5C338.8817,-299.5 350.3022,-299.5 361.3461,-299.5"/>
<polygon fill="#191970" stroke="#191970" points="327.6006,-296.0001 317.6006,-299.5 327.6006,-303.0001 327.6006,-296.0001"/>
</g>
<!-- Node6 -->
<g id="node6" class="node">
<title>Node6</title>
<g id="a_node6"><a xlink:href="../../df/dac/classorg_1_1cobbzilla_1_1util_1_1io_1_1FileUtil_a0fce1611299bd20ecc6a13bf3c602895.html#a0fce1611299bd20ecc6a13bf3c602895" target="_top" xlink:title="org.cobbzilla.util.io.File\lUtil.loadResourceAsStringListOrDie">
<polygon fill="none" stroke="#000000" points="548,-284.5 548,-314.5 721,-314.5 721,-284.5 548,-284.5"/>
<text text-anchor="start" x="556" y="-302.5" font-family="Helvetica,sans-Serif" font-size="10.00" fill="#000000">org.cobbzilla.util.io.File</text>
<text text-anchor="middle" x="634.5" y="-291.5" font-family="Helvetica,sans-Serif" font-size="10.00" fill="#000000">Util.loadResourceAsStringListOrDie</text>
</a>
</g>
</g>
<!-- Node5&#45;&gt;Node6 -->
<g id="edge5" class="edge">
<title>Node5&#45;&gt;Node6</title>
<path fill="none" stroke="#191970" d="M519.6558,-299.5C529.0046,-299.5 538.5385,-299.5 547.9167,-299.5"/>
<polygon fill="#191970" stroke="#191970" points="519.6003,-296.0001 509.6003,-299.5 519.6002,-303.0001 519.6003,-296.0001"/>
</g>
<!-- Node10 -->
<g id="node10" class="node">
<title>Node10</title>
<g id="a_node10"><a xlink:href="../../df/dac/classorg_1_1cobbzilla_1_1util_1_1io_1_1FileUtil_a90fee53cf9d6174e475907548538fbf0.html#a90fee53cf9d6174e475907548538fbf0" target="_top" xlink:title="org.cobbzilla.util.io.File\lUtil.resourceToPropertiesOrDie">
<polygon fill="none" stroke="#000000" points="359,-137.5 359,-167.5 512,-167.5 512,-137.5 359,-137.5"/>
<text text-anchor="start" x="367" y="-155.5" font-family="Helvetica,sans-Serif" font-size="10.00" fill="#000000">org.cobbzilla.util.io.File</text>
<text text-anchor="middle" x="435.5" y="-144.5" font-family="Helvetica,sans-Serif" font-size="10.00" fill="#000000">Util.resourceToPropertiesOrDie</text>
</a>
</g>
</g>
<!-- Node9&#45;&gt;Node10 -->
<g id="edge9" class="edge">
<title>Node9&#45;&gt;Node10</title>
<path fill="none" stroke="#191970" d="M322.8764,-152.5C334.7266,-152.5 347.0048,-152.5 358.9051,-152.5"/>
<polygon fill="#191970" stroke="#191970" points="322.5932,-149.0001 312.5932,-152.5 322.5931,-156.0001 322.5932,-149.0001"/>
</g>
<!-- Node11&#45;&gt;Node12 -->
<g id="edge11" class="edge">
<title>Node11&#45;&gt;Node12</title>
<path fill="none" stroke="#191970" d="M324.9949,-95.7278C340.0456,-94.1986 355.7046,-92.6075 370.3405,-91.1205"/>
<polygon fill="#191970" stroke="#191970" points="324.2873,-92.2816 314.6924,-96.7746 324.995,-99.2457 324.2873,-92.2816"/>
</g>
<!-- Node14 -->
<g id="node14" class="node">
<title>Node14</title>
<g id="a_node14"><a xlink:href="../../d1/d68/classorg_1_1cobbzilla_1_1util_1_1json_1_1JsonEditTest_ab3fb98ec8772451e27673ba5d5368cd7.html#ab3fb98ec8772451e27673ba5d5368cd7" target="_top" xlink:title="org.cobbzilla.util.json.\lJsonEditTest.testEditJson">
<polygon fill="none" stroke="#000000" points="369.5,-.5 369.5,-30.5 501.5,-30.5 501.5,-.5 369.5,-.5"/>
<text text-anchor="start" x="377.5" y="-18.5" font-family="Helvetica,sans-Serif" font-size="10.00" fill="#000000">org.cobbzilla.util.json.</text>
<text text-anchor="middle" x="435.5" y="-7.5" font-family="Helvetica,sans-Serif" font-size="10.00" fill="#000000">JsonEditTest.testEditJson</text>
</a>
</g>
</g>
<!-- Node13&#45;&gt;Node14 -->
<g id="edge13" class="edge">
<title>Node13&#45;&gt;Node14</title>
<path fill="none" stroke="#191970" d="M316.144,-15.5C333.4336,-15.5 352.0032,-15.5 369.2233,-15.5"/>
<polygon fill="#191970" stroke="#191970" points="316.1321,-12.0001 306.132,-15.5 316.132,-19.0001 316.1321,-12.0001"/>
</g>
</g>
</svg>
        <g id="navigator" transform="translate(0 0)" fill="#404254">
                <rect fill="#f2f5e9" fill-opacity="0.5" stroke="#606060" stroke-width=".5" x="0" y="0" width="60" height="60"/>
                <use id="zoomplus" xlink:href="#zoomPlus" x="17" y="9" onmousedown="handleZoom(evt,'in')"/>
                <use id="zoomminus" xlink:href="#zoomMin" x="42" y="9" onmousedown="handleZoom(evt,'out')"/>
                <use id="reset" xlink:href="#resetDef" x="30" y="36" onmousedown="handleReset()"/>
                <g id="arrowUp" xlink:href="#dirArrow" transform="translate(30 24)" onmousedown="handlePan(0,-1)">
                  <use xlink:href="#rim" fill="#404040">
                        <set attributeName="fill" to="#808080" begin="arrowUp.mouseover" end="arrowUp.mouseout"/>
                  </use>
                  <path fill="none" stroke="white" stroke-width="1.5" d="M0,-3.0v7 M-2.5,-0.5L0,-3.0L2.5,-0.5"/>
                </g>
                <g id="arrowRight" xlink:href="#dirArrow" transform="rotate(90) translate(36 -43)" onmousedown="handlePan(1,0)">
                  <use xlink:href="#rim" fill="#404040">
                        <set attributeName="fill" to="#808080" begin="arrowRight.mouseover" end="arrowRight.mouseout"/>
                  </use>
                  <path fill="none" stroke="white" stroke-width="1.5" d="M0,-3.0v7 M-2.5,-0.5L0,-3.0L2.5,-0.5"/>
                </g>
                <g id="arrowDown" xlink:href="#dirArrow" transform="rotate(180) translate(-30 -48)" onmousedown="handlePan(0,1)">
                  <use xlink:href="#rim" fill="#404040">
                        <set attributeName="fill" to="#808080" begin="arrowDown.mouseover" end="arrowDown.mouseout"/>
                  </use>
                  <path fill="none" stroke="white" stroke-width="1.5" d="M0,-3.0v7 M-2.5,-0.5L0,-3.0L2.5,-0.5"/>
                </g>
                <g id="arrowLeft" xlink:href="#dirArrow" transform="rotate(270) translate(-36 17)" onmousedown="handlePan(-1,0)">
                  <use xlink:href="#rim" fill="#404040">
                        <set attributeName="fill" to="#808080" begin="arrowLeft.mouseover" end="arrowLeft.mouseout"/>
                  </use>
                  <path fill="none" stroke="white" stroke-width="1.5" d="M0,-3.0v7 M-2.5,-0.5L0,-3.0L2.5,-0.5"/>
                </g>
        </g>
        <svg viewBox="0 0 15 15" width="100%" height="30px" preserveAspectRatio="xMaxYMin meet">
         <g id="arrow_out" transform="scale(0.3 0.3)">
          <a xlink:href="classorg_1_1cobbzilla_1_1util_1_1io_1_1StreamUtil_aa82a9bc20749f971c1ec04a4025ef34d_aa82a9bc20749f971c1ec04a4025ef34d_icgraph_org.svg" target="_base">
           <rect id="button" ry="5" rx="5" y="6" x="6" height="38" width="38"
                fill="#f2f5e9" fill-opacity="0.5" stroke="#606060" stroke-width="1.0"/>
           <path id="arrow"
             d="M 11.500037,31.436501 C 11.940474,20.09759 22.043105,11.32322 32.158766,21.979434 L 37.068811,17.246167 C 37.068811,17.246167 37.088388,32 37.088388,32 L 22.160133,31.978069 C 22.160133,31.978069 26.997745,27.140456 26.997745,27.140456 C 18.528582,18.264221 13.291696,25.230495 11.500037,31.436501 z"
             style="fill:#404040;"/>
          </a>
         </g>
        </svg>
</svg>
