<?xml version="1.0" encoding="UTF-8" standalone="no"?>
<!DOCTYPE svg PUBLIC "-//W3C//DTD SVG 1.1//EN"
 "http://www.w3.org/Graphics/SVG/1.1/DTD/svg11.dtd">
<!-- Generated by graphviz version 2.40.1 (20161225.0304)
 -->
<!-- Title: org.cobbzilla.util.io.StreamUtil.stream2file Pages: 1 -->
<svg width="308pt" height="106pt"
 viewBox="0.00 0.00 308.00 106.00" xmlns="http://www.w3.org/2000/svg" xmlns:xlink="http://www.w3.org/1999/xlink">
<g id="graph0" class="graph" transform="scale(1 1) rotate(0) translate(4 102)">
<title>org.cobbzilla.util.io.StreamUtil.stream2file</title>
<!-- Node0 -->
<g id="node1" class="node">
<title>Node0</title>
<polygon fill="#bfbfbf" stroke="#000000" points="0,-33.5 0,-63.5 132,-63.5 132,-33.5 0,-33.5"/>
<text text-anchor="start" x="8" y="-51.5" font-family="Helvetica,sans-Serif" font-size="10.00" fill="#000000">org.cobbzilla.util.io.Stream</text>
<text text-anchor="middle" x="66" y="-40.5" font-family="Helvetica,sans-Serif" font-size="10.00" fill="#000000">Util.stream2file</text>
</g>
<!-- Node1 -->
<g id="node2" class="node">
<title>Node1</title>
<g id="a_node2"><a xlink:href="../../dc/d81/classorg_1_1cobbzilla_1_1util_1_1io_1_1StreamUtil_ad556d37f29722d7544b6fe0af5d95253.html#ad556d37f29722d7544b6fe0af5d95253" target="_top" xlink:title="org.cobbzilla.util.io.Stream\lUtil.mktemp">
<polygon fill="none" stroke="#000000" points="168,-67.5 168,-97.5 300,-97.5 300,-67.5 168,-67.5"/>
<text text-anchor="start" x="176" y="-85.5" font-family="Helvetica,sans-Serif" font-size="10.00" fill="#000000">org.cobbzilla.util.io.Stream</text>
<text text-anchor="middle" x="234" y="-74.5" font-family="Helvetica,sans-Serif" font-size="10.00" fill="#000000">Util.mktemp</text>
</a>
</g>
</g>
<!-- Node0&#45;&gt;Node1 -->
<g id="edge1" class="edge">
<title>Node0&#45;&gt;Node1</title>
<path fill="none" stroke="#191970" d="M132.398,-61.9377C140.7701,-63.632 149.3863,-65.3758 157.8936,-67.0975"/>
<polygon fill="#191970" stroke="#191970" points="157.3136,-70.551 167.8092,-69.1042 158.7022,-63.6901 157.3136,-70.551"/>
</g>
<!-- Node2 -->
<g id="node3" class="node">
<title>Node2</title>
<g id="a_node3"><a xlink:href="../../dc/d81/classorg_1_1cobbzilla_1_1util_1_1io_1_1StreamUtil_a428479631ba6f829c21041926ff04168.html#a428479631ba6f829c21041926ff04168" target="_top" xlink:title="org.cobbzilla.util.io.Stream\lUtil.stream2file">
<polygon fill="none" stroke="#000000" points="168,-.5 168,-30.5 300,-30.5 300,-.5 168,-.5"/>
<text text-anchor="start" x="176" y="-18.5" font-family="Helvetica,sans-Serif" font-size="10.00" fill="#000000">org.cobbzilla.util.io.Stream</text>
<text text-anchor="middle" x="234" y="-7.5" font-family="Helvetica,sans-Serif" font-size="10.00" fill="#000000">Util.stream2file</text>
</a>
</g>
</g>
<!-- Node0&#45;&gt;Node2 -->
<g id="edge2" class="edge">
<title>Node0&#45;&gt;Node2</title>
<path fill="none" stroke="#191970" d="M132.398,-35.4575C140.7701,-33.813 149.3863,-32.1205 157.8936,-30.4495"/>
<polygon fill="#191970" stroke="#191970" points="158.6714,-33.8637 167.8092,-28.5018 157.3221,-26.9949 158.6714,-33.8637"/>
</g>
<!-- Node2&#45;&gt;Node2 -->
<g id="edge3" class="edge">
<title>Node2&#45;&gt;Node2</title>
<path fill="none" stroke="#191970" d="M204.7225,-30.659C197.6627,-40.0566 207.4219,-49 234,-49 250.196,-49 260.1466,-45.679 263.8516,-40.9579"/>
<polygon fill="#191970" stroke="#191970" points="267.3287,-40.4487 263.2775,-30.659 260.3396,-40.8383 267.3287,-40.4487"/>
</g>
</g>
</svg>
