<?xml version="1.0" encoding="UTF-8" standalone="no"?>
<!DOCTYPE svg PUBLIC "-//W3C//DTD SVG 1.1//EN"
 "http://www.w3.org/Graphics/SVG/1.1/DTD/svg11.dtd">
<!-- Generated by graphviz version 2.40.1 (20161225.0304)
 -->
<!-- Title: org.cobbzilla.util.io.StreamUtil.fromClasspathOrString Pages: 1 -->
<svg width="672pt" height="39pt"
 viewBox="0.00 0.00 672.00 39.00" xmlns="http://www.w3.org/2000/svg" xmlns:xlink="http://www.w3.org/1999/xlink">
<g id="graph0" class="graph" transform="scale(1 1) rotate(0) translate(4 35)">
<title>org.cobbzilla.util.io.StreamUtil.fromClasspathOrString</title>
<!-- Node0 -->
<g id="node1" class="node">
<title>Node0</title>
<polygon fill="#bfbfbf" stroke="#000000" points="0,-.5 0,-30.5 134,-30.5 134,-.5 0,-.5"/>
<text text-anchor="start" x="8" y="-18.5" font-family="Helvetica,sans-Serif" font-size="10.00" fill="#000000">org.cobbzilla.util.io.Stream</text>
<text text-anchor="middle" x="67" y="-7.5" font-family="Helvetica,sans-Serif" font-size="10.00" fill="#000000">Util.fromClasspathOrString</text>
</g>
<!-- Node1 -->
<g id="node2" class="node">
<title>Node1</title>
<g id="a_node2"><a xlink:href="../../dc/d81/classorg_1_1cobbzilla_1_1util_1_1io_1_1StreamUtil_affb0a215e484683e608965f1f54c675e.html#affb0a215e484683e608965f1f54c675e" target="_top" xlink:title="org.cobbzilla.util.io.Stream\lUtil.stream2string">
<polygon fill="none" stroke="#000000" points="170,-.5 170,-30.5 302,-30.5 302,-.5 170,-.5"/>
<text text-anchor="start" x="178" y="-18.5" font-family="Helvetica,sans-Serif" font-size="10.00" fill="#000000">org.cobbzilla.util.io.Stream</text>
<text text-anchor="middle" x="236" y="-7.5" font-family="Helvetica,sans-Serif" font-size="10.00" fill="#000000">Util.stream2string</text>
</a>
</g>
</g>
<!-- Node0&#45;&gt;Node1 -->
<g id="edge1" class="edge">
<title>Node0&#45;&gt;Node1</title>
<path fill="none" stroke="#191970" d="M134.2789,-15.5C142.5898,-15.5 151.1329,-15.5 159.5677,-15.5"/>
<polygon fill="#191970" stroke="#191970" points="159.7799,-19.0001 169.7798,-15.5 159.7798,-12.0001 159.7799,-19.0001"/>
</g>
<!-- Node2 -->
<g id="node3" class="node">
<title>Node2</title>
<g id="a_node3"><a xlink:href="../../dc/d81/classorg_1_1cobbzilla_1_1util_1_1io_1_1StreamUtil_aed1b3ab72071c047ba71eb00dfc67606.html#aed1b3ab72071c047ba71eb00dfc67606" target="_top" xlink:title="org.cobbzilla.util.io.Stream\lUtil.loadResourceAsStringOrDie">
<polygon fill="none" stroke="#000000" points="338,-.5 338,-30.5 496,-30.5 496,-.5 338,-.5"/>
<text text-anchor="start" x="346" y="-18.5" font-family="Helvetica,sans-Serif" font-size="10.00" fill="#000000">org.cobbzilla.util.io.Stream</text>
<text text-anchor="middle" x="417" y="-7.5" font-family="Helvetica,sans-Serif" font-size="10.00" fill="#000000">Util.loadResourceAsStringOrDie</text>
</a>
</g>
</g>
<!-- Node1&#45;&gt;Node2 -->
<g id="edge2" class="edge">
<title>Node1&#45;&gt;Node2</title>
<path fill="none" stroke="#191970" d="M302.1135,-15.5C310.4606,-15.5 319.1069,-15.5 327.7381,-15.5"/>
<polygon fill="#191970" stroke="#191970" points="327.8448,-19.0001 337.8448,-15.5 327.8447,-12.0001 327.8448,-19.0001"/>
</g>
<!-- Node3 -->
<g id="node4" class="node">
<title>Node3</title>
<g id="a_node4"><a xlink:href="../../dc/d81/classorg_1_1cobbzilla_1_1util_1_1io_1_1StreamUtil_a09bfc80b03407b81fa60047418590599.html#a09bfc80b03407b81fa60047418590599" target="_top" xlink:title="org.cobbzilla.util.io.Stream\lUtil.loadResourceAsString">
<polygon fill="none" stroke="#000000" points="532,-.5 532,-30.5 664,-30.5 664,-.5 532,-.5"/>
<text text-anchor="start" x="540" y="-18.5" font-family="Helvetica,sans-Serif" font-size="10.00" fill="#000000">org.cobbzilla.util.io.Stream</text>
<text text-anchor="middle" x="598" y="-7.5" font-family="Helvetica,sans-Serif" font-size="10.00" fill="#000000">Util.loadResourceAsString</text>
</a>
</g>
</g>
<!-- Node2&#45;&gt;Node3 -->
<g id="edge3" class="edge">
<title>Node2&#45;&gt;Node3</title>
<path fill="none" stroke="#191970" d="M496.1259,-15.5C504.5795,-15.5 513.1675,-15.5 521.5888,-15.5"/>
<polygon fill="#191970" stroke="#191970" points="521.7579,-19.0001 531.7578,-15.5 521.7578,-12.0001 521.7579,-19.0001"/>
</g>
</g>
</svg>
