<?xml version="1.0" encoding="UTF-8" standalone="no"?>
<!DOCTYPE svg PUBLIC "-//W3C//DTD SVG 1.1//EN"
 "http://www.w3.org/Graphics/SVG/1.1/DTD/svg11.dtd">
<!-- Generated by graphviz version 2.40.1 (20161225.0304)
 -->
<!-- Title: org.cobbzilla.util.io.StreamUtil.stream2string Pages: 1 -->
<svg width="502pt" height="39pt"
 viewBox="0.00 0.00 502.00 39.00" xmlns="http://www.w3.org/2000/svg" xmlns:xlink="http://www.w3.org/1999/xlink">
<g id="graph0" class="graph" transform="scale(1 1) rotate(0) translate(4 35)">
<title>org.cobbzilla.util.io.StreamUtil.stream2string</title>
<!-- Node0 -->
<g id="node1" class="node">
<title>Node0</title>
<polygon fill="#bfbfbf" stroke="#000000" points="0,-.5 0,-30.5 132,-30.5 132,-.5 0,-.5"/>
<text text-anchor="start" x="8" y="-18.5" font-family="Helvetica,sans-Serif" font-size="10.00" fill="#000000">org.cobbzilla.util.io.Stream</text>
<text text-anchor="middle" x="66" y="-7.5" font-family="Helvetica,sans-Serif" font-size="10.00" fill="#000000">Util.stream2string</text>
</g>
<!-- Node1 -->
<g id="node2" class="node">
<title>Node1</title>
<g id="a_node2"><a xlink:href="../../dc/d81/classorg_1_1cobbzilla_1_1util_1_1io_1_1StreamUtil_aed1b3ab72071c047ba71eb00dfc67606.html#aed1b3ab72071c047ba71eb00dfc67606" target="_top" xlink:title="org.cobbzilla.util.io.Stream\lUtil.loadResourceAsStringOrDie">
<polygon fill="none" stroke="#000000" points="168,-.5 168,-30.5 326,-30.5 326,-.5 168,-.5"/>
<text text-anchor="start" x="176" y="-18.5" font-family="Helvetica,sans-Serif" font-size="10.00" fill="#000000">org.cobbzilla.util.io.Stream</text>
<text text-anchor="middle" x="247" y="-7.5" font-family="Helvetica,sans-Serif" font-size="10.00" fill="#000000">Util.loadResourceAsStringOrDie</text>
</a>
</g>
</g>
<!-- Node0&#45;&gt;Node1 -->
<g id="edge1" class="edge">
<title>Node0&#45;&gt;Node1</title>
<path fill="none" stroke="#191970" d="M132.1135,-15.5C140.4606,-15.5 149.1069,-15.5 157.7381,-15.5"/>
<polygon fill="#191970" stroke="#191970" points="157.8448,-19.0001 167.8448,-15.5 157.8447,-12.0001 157.8448,-19.0001"/>
</g>
<!-- Node2 -->
<g id="node3" class="node">
<title>Node2</title>
<g id="a_node3"><a xlink:href="../../dc/d81/classorg_1_1cobbzilla_1_1util_1_1io_1_1StreamUtil_a09bfc80b03407b81fa60047418590599.html#a09bfc80b03407b81fa60047418590599" target="_top" xlink:title="org.cobbzilla.util.io.Stream\lUtil.loadResourceAsString">
<polygon fill="none" stroke="#000000" points="362,-.5 362,-30.5 494,-30.5 494,-.5 362,-.5"/>
<text text-anchor="start" x="370" y="-18.5" font-family="Helvetica,sans-Serif" font-size="10.00" fill="#000000">org.cobbzilla.util.io.Stream</text>
<text text-anchor="middle" x="428" y="-7.5" font-family="Helvetica,sans-Serif" font-size="10.00" fill="#000000">Util.loadResourceAsString</text>
</a>
</g>
</g>
<!-- Node1&#45;&gt;Node2 -->
<g id="edge2" class="edge">
<title>Node1&#45;&gt;Node2</title>
<path fill="none" stroke="#191970" d="M326.1259,-15.5C334.5795,-15.5 343.1675,-15.5 351.5888,-15.5"/>
<polygon fill="#191970" stroke="#191970" points="351.7579,-19.0001 361.7578,-15.5 351.7578,-12.0001 351.7579,-19.0001"/>
</g>
</g>
</svg>
