<?xml version="1.0" encoding="UTF-8" standalone="no"?>
<!DOCTYPE svg PUBLIC "-//W3C//DTD SVG 1.1//EN"
 "http://www.w3.org/Graphics/SVG/1.1/DTD/svg11.dtd">
<!-- Generated by graphviz version 2.40.1 (20161225.0304)
 -->
<!-- Title: org.cobbzilla.util.io.StreamUtil.loadResourceAsStringOrDie Pages: 1 -->
<svg width="527pt" height="137pt"
 viewBox="0.00 0.00 527.00 137.00" xmlns="http://www.w3.org/2000/svg" xmlns:xlink="http://www.w3.org/1999/xlink">
<g id="graph0" class="graph" transform="scale(1 1) rotate(0) translate(4 133)">
<title>org.cobbzilla.util.io.StreamUtil.loadResourceAsStringOrDie</title>
<!-- Node2 -->
<g id="node1" class="node">
<title>Node2</title>
<polygon fill="#bfbfbf" stroke="#000000" points="0,-49.5 0,-79.5 158,-79.5 158,-49.5 0,-49.5"/>
<text text-anchor="start" x="8" y="-67.5" font-family="Helvetica,sans-Serif" font-size="10.00" fill="#000000">org.cobbzilla.util.io.Stream</text>
<text text-anchor="middle" x="79" y="-56.5" font-family="Helvetica,sans-Serif" font-size="10.00" fill="#000000">Util.loadResourceAsStringOrDie</text>
</g>
<!-- Node3 -->
<g id="node2" class="node">
<title>Node3</title>
<g id="a_node2"><a xlink:href="../../dc/d81/classorg_1_1cobbzilla_1_1util_1_1io_1_1StreamUtil_affb0a215e484683e608965f1f54c675e.html#affb0a215e484683e608965f1f54c675e" target="_top" xlink:title="org.cobbzilla.util.io.Stream\lUtil.stream2string">
<polygon fill="none" stroke="#000000" points="194,-49.5 194,-79.5 326,-79.5 326,-49.5 194,-49.5"/>
<text text-anchor="start" x="202" y="-67.5" font-family="Helvetica,sans-Serif" font-size="10.00" fill="#000000">org.cobbzilla.util.io.Stream</text>
<text text-anchor="middle" x="260" y="-56.5" font-family="Helvetica,sans-Serif" font-size="10.00" fill="#000000">Util.stream2string</text>
</a>
</g>
</g>
<!-- Node2&#45;&gt;Node3 -->
<g id="edge1" class="edge">
<title>Node2&#45;&gt;Node3</title>
<path fill="none" stroke="#191970" d="M168.2032,-64.5C176.8096,-64.5 185.4316,-64.5 193.7578,-64.5"/>
<polygon fill="#191970" stroke="#191970" points="168.126,-61.0001 158.1259,-64.5 168.1259,-68.0001 168.126,-61.0001"/>
</g>
<!-- Node4 -->
<g id="node3" class="node">
<title>Node4</title>
<g id="a_node3"><a xlink:href="../../dc/d81/classorg_1_1cobbzilla_1_1util_1_1io_1_1StreamUtil_a210eaddec694c1e14c3f0de73e6c0df4.html#a210eaddec694c1e14c3f0de73e6c0df4" target="_top" xlink:title="org.cobbzilla.util.io.Stream\lUtil.fromClasspathOrFilesystem">
<polygon fill="none" stroke="#000000" points="362,-98.5 362,-128.5 519,-128.5 519,-98.5 362,-98.5"/>
<text text-anchor="start" x="370" y="-116.5" font-family="Helvetica,sans-Serif" font-size="10.00" fill="#000000">org.cobbzilla.util.io.Stream</text>
<text text-anchor="middle" x="440.5" y="-105.5" font-family="Helvetica,sans-Serif" font-size="10.00" fill="#000000">Util.fromClasspathOrFilesystem</text>
</a>
</g>
</g>
<!-- Node3&#45;&gt;Node4 -->
<g id="edge2" class="edge">
<title>Node3&#45;&gt;Node4</title>
<path fill="none" stroke="#191970" d="M325.3796,-82.2485C344.9422,-87.5591 366.1958,-93.3288 385.0549,-98.4484"/>
<polygon fill="#191970" stroke="#191970" points="326.1965,-78.8436 315.6288,-79.6014 324.3625,-85.5991 326.1965,-78.8436"/>
</g>
<!-- Node5 -->
<g id="node4" class="node">
<title>Node5</title>
<g id="a_node4"><a xlink:href="../../dc/d81/classorg_1_1cobbzilla_1_1util_1_1io_1_1StreamUtil_ae1370ab4e84bf8d22deffad5977f6349.html#ae1370ab4e84bf8d22deffad5977f6349" target="_top" xlink:title="org.cobbzilla.util.io.Stream\lUtil.fromClasspathOrString">
<polygon fill="none" stroke="#000000" points="373.5,-49.5 373.5,-79.5 507.5,-79.5 507.5,-49.5 373.5,-49.5"/>
<text text-anchor="start" x="381.5" y="-67.5" font-family="Helvetica,sans-Serif" font-size="10.00" fill="#000000">org.cobbzilla.util.io.Stream</text>
<text text-anchor="middle" x="440.5" y="-56.5" font-family="Helvetica,sans-Serif" font-size="10.00" fill="#000000">Util.fromClasspathOrString</text>
</a>
</g>
</g>
<!-- Node3&#45;&gt;Node5 -->
<g id="edge3" class="edge">
<title>Node3&#45;&gt;Node5</title>
<path fill="none" stroke="#191970" d="M336.4129,-64.5C348.71,-64.5 361.3581,-64.5 373.4147,-64.5"/>
<polygon fill="#191970" stroke="#191970" points="336.1866,-61.0001 326.1866,-64.5 336.1866,-68.0001 336.1866,-61.0001"/>
</g>
<!-- Node6 -->
<g id="node5" class="node">
<title>Node6</title>
<g id="a_node5"><a xlink:href="../../d9/d3d/classorg_1_1cobbzilla_1_1util_1_1json_1_1JsonUtilTest_a506201864e5b3d7073a4fa42fa837cd3.html#a506201864e5b3d7073a4fa42fa837cd3" target="_top" xlink:title="org.cobbzilla.util.json.\lJsonUtilTest.testMerge">
<polygon fill="none" stroke="#000000" points="381,-.5 381,-30.5 500,-30.5 500,-.5 381,-.5"/>
<text text-anchor="start" x="389" y="-18.5" font-family="Helvetica,sans-Serif" font-size="10.00" fill="#000000">org.cobbzilla.util.json.</text>
<text text-anchor="middle" x="440.5" y="-7.5" font-family="Helvetica,sans-Serif" font-size="10.00" fill="#000000">JsonUtilTest.testMerge</text>
</a>
</g>
</g>
<!-- Node3&#45;&gt;Node6 -->
<g id="edge4" class="edge">
<title>Node3&#45;&gt;Node6</title>
<path fill="none" stroke="#191970" d="M325.3796,-46.7515C344.9422,-41.4409 366.1958,-35.6712 385.0549,-30.5516"/>
<polygon fill="#191970" stroke="#191970" points="324.3625,-43.4009 315.6288,-49.3986 326.1965,-50.1564 324.3625,-43.4009"/>
</g>
</g>
</svg>
