<?xml version="1.0" encoding="UTF-8" standalone="no"?>
<!DOCTYPE svg PUBLIC "-//W3C//DTD SVG 1.1//EN"
 "http://www.w3.org/Graphics/SVG/1.1/DTD/svg11.dtd">
<!-- Generated by graphviz version 2.40.1 (20161225.0304)
 -->
<!-- Title: org.cobbzilla.util.io.StreamUtil.toString Pages: 1 -->
<!--zoomable 382 -->
<svg id="main" version="1.1" xmlns="http://www.w3.org/2000/svg" xmlns:xlink="http://www.w3.org/1999/xlink" xml:space="preserve" onload="init(evt)">
<style type="text/css"><![CDATA[
.edge:hover path { stroke: red; }
.edge:hover polygon { stroke: red; fill: red; }
]]></style>
<script type="text/javascript"><![CDATA[
var edges = document.getElementsByTagName('g');
if (edges && edges.length) {
  for (var i=0;i<edges.length;i++) {
    if (edges[i].id.substr(0,4)=='edge') {
      edges[i].setAttribute('class','edge');
    }
  }
}
]]></script>
        <defs>
                <circle id="rim" cx="0" cy="0" r="7"/>
                <circle id="rim2" cx="0" cy="0" r="3.5"/>
                <g id="zoomPlus">
                        <use xlink:href="#rim" fill="#404040">
                                <set attributeName="fill" to="#808080" begin="zoomplus.mouseover" end="zoomplus.mouseout"/>
                        </use>
                        <path d="M-4,0h8M0,-4v8" fill="none" stroke="white" stroke-width="1.5" pointer-events="none"/>
                </g>
                <g id="zoomMin">
                        <use xlink:href="#rim" fill="#404040">
                                <set attributeName="fill" to="#808080" begin="zoomminus.mouseover" end="zoomminus.mouseout"/>
                        </use>
                        <path d="M-4,0h8" fill="none" stroke="white" stroke-width="1.5" pointer-events="none"/>
                </g>
                <g id="dirArrow">
                        <path fill="none" stroke="white" stroke-width="1.5" d="M0,-3.0v7 M-2.5,-0.5L0,-3.0L2.5,-0.5"/>
                </g>
               <g id="resetDef">
                       <use xlink:href="#rim2" fill="#404040">
                               <set attributeName="fill" to="#808080" begin="reset.mouseover" end="reset.mouseout"/>
                       </use>
               </g>
        </defs>

<script type="text/javascript">
var viewWidth = 737;
var viewHeight = 382;
var sectionId = 'dynsection-0';
</script>
<script xlink:href="../../svgpan.js"/>
<svg id="graph" class="graph">
<g id="viewport">
<title>org.cobbzilla.util.io.StreamUtil.toString</title>
<!-- Node1 -->
<g id="node1" class="node">
<title>Node1</title>
<polygon fill="#bfbfbf" stroke="#000000" points="0,-97.5 0,-127.5 132,-127.5 132,-97.5 0,-97.5"/>
<text text-anchor="start" x="8" y="-115.5" font-family="Helvetica,sans-Serif" font-size="10.00" fill="#000000">org.cobbzilla.util.io.Stream</text>
<text text-anchor="middle" x="66" y="-104.5" font-family="Helvetica,sans-Serif" font-size="10.00" fill="#000000">Util.toString</text>
</g>
<!-- Node2 -->
<g id="node2" class="node">
<title>Node2</title>
<g id="a_node2"><a xlink:href="../../dc/d2c/classorg_1_1cobbzilla_1_1util_1_1json_1_1JsonUtil_a012540ca836ef7dea8ae971437fb82c7.html#a012540ca836ef7dea8ae971437fb82c7" target="_top" xlink:title="org.cobbzilla.util.json.\lJsonUtil.fromJson">
<polygon fill="none" stroke="#000000" points="178.5,-171.5 178.5,-201.5 289.5,-201.5 289.5,-171.5 178.5,-171.5"/>
<text text-anchor="start" x="186.5" y="-189.5" font-family="Helvetica,sans-Serif" font-size="10.00" fill="#000000">org.cobbzilla.util.json.</text>
<text text-anchor="middle" x="234" y="-178.5" font-family="Helvetica,sans-Serif" font-size="10.00" fill="#000000">JsonUtil.fromJson</text>
</a>
</g>
</g>
<!-- Node1&#45;&gt;Node2 -->
<g id="edge1" class="edge">
<title>Node1&#45;&gt;Node2</title>
<path fill="none" stroke="#191970" d="M109.6217,-131.7143C137.7807,-144.1177 173.8831,-160.0199 199.9308,-171.4933"/>
<polygon fill="#191970" stroke="#191970" points="110.9651,-128.4816 100.4027,-127.6536 108.1434,-134.8877 110.9651,-128.4816"/>
</g>
<!-- Node16 -->
<g id="node16" class="node">
<title>Node16</title>
<g id="a_node16"><a xlink:href="../../dc/d81/classorg_1_1cobbzilla_1_1util_1_1io_1_1StreamUtil_a1e79ef65a7b676885358f295bf94e697.html#a1e79ef65a7b676885358f295bf94e697" target="_top" xlink:title="org.cobbzilla.util.io.Stream\lUtil.toStringOrDie">
<polygon fill="none" stroke="#000000" points="168,-73.5 168,-103.5 300,-103.5 300,-73.5 168,-73.5"/>
<text text-anchor="start" x="176" y="-91.5" font-family="Helvetica,sans-Serif" font-size="10.00" fill="#000000">org.cobbzilla.util.io.Stream</text>
<text text-anchor="middle" x="234" y="-80.5" font-family="Helvetica,sans-Serif" font-size="10.00" fill="#000000">Util.toStringOrDie</text>
</a>
</g>
</g>
<!-- Node1&#45;&gt;Node16 -->
<g id="edge15" class="edge">
<title>Node1&#45;&gt;Node16</title>
<path fill="none" stroke="#191970" d="M142.3171,-101.5976C150.8262,-100.382 159.4413,-99.1512 167.8092,-97.9558"/>
<polygon fill="#191970" stroke="#191970" points="141.8025,-98.1354 132.398,-103.0146 142.7925,-105.0651 141.8025,-98.1354"/>
</g>
<!-- Node3 -->
<g id="node3" class="node">
<title>Node3</title>
<g id="a_node3"><a xlink:href="../../d2/dc3/classorg_1_1cobbzilla_1_1util_1_1handlebars_1_1main_1_1PdfMergeOptions_a0fb7412217c1fa7e0e1f85ecdca5df60.html#a0fb7412217c1fa7e0e1f85ecdca5df60" target="_top" xlink:title="org.cobbzilla.util.handlebars.main.\lPdfMergeOptions.getContext">
<polygon fill="none" stroke="#000000" points="346,-343.5 346,-373.5 510,-373.5 510,-343.5 346,-343.5"/>
<text text-anchor="start" x="354" y="-361.5" font-family="Helvetica,sans-Serif" font-size="10.00" fill="#000000">org.cobbzilla.util.handlebars.main.</text>
<text text-anchor="middle" x="428" y="-350.5" font-family="Helvetica,sans-Serif" font-size="10.00" fill="#000000">PdfMergeOptions.getContext</text>
</a>
</g>
</g>
<!-- Node2&#45;&gt;Node3 -->
<g id="edge2" class="edge">
<title>Node2&#45;&gt;Node3</title>
<path fill="none" stroke="#191970" d="M244.2951,-211.1856C259.423,-244.3715 290.8398,-302.8511 336,-334.5 340.8664,-337.9104 346.1834,-340.8363 351.7281,-343.3464"/>
<polygon fill="#191970" stroke="#191970" points="247.3709,-209.4868 240.126,-201.7562 240.9688,-212.3175 247.3709,-209.4868"/>
</g>
<!-- Node5 -->
<g id="node5" class="node">
<title>Node5</title>
<g id="a_node5"><a xlink:href="../../dc/d2c/classorg_1_1cobbzilla_1_1util_1_1json_1_1JsonUtil_a7306126614b51464932ef1d46b760f30.html#a7306126614b51464932ef1d46b760f30" target="_top" xlink:title="org.cobbzilla.util.json.\lJsonUtil.fromJson">
<polygon fill="none" stroke="#000000" points="372.5,-294.5 372.5,-324.5 483.5,-324.5 483.5,-294.5 372.5,-294.5"/>
<text text-anchor="start" x="380.5" y="-312.5" font-family="Helvetica,sans-Serif" font-size="10.00" fill="#000000">org.cobbzilla.util.json.</text>
<text text-anchor="middle" x="428" y="-301.5" font-family="Helvetica,sans-Serif" font-size="10.00" fill="#000000">JsonUtil.fromJson</text>
</a>
</g>
</g>
<!-- Node2&#45;&gt;Node5 -->
<g id="edge4" class="edge">
<title>Node2&#45;&gt;Node5</title>
<path fill="none" stroke="#191970" d="M251.8951,-209.8174C270.5049,-232.4636 301.6787,-266.1745 336,-285.5 347.0752,-291.7362 359.8111,-296.3922 372.2068,-299.8544"/>
<polygon fill="#191970" stroke="#191970" points="254.3902,-207.3348 245.3976,-201.7328 248.934,-211.72 254.3902,-207.3348"/>
</g>
<!-- Node6 -->
<g id="node6" class="node">
<title>Node6</title>
<g id="a_node6"><a xlink:href="../../dc/d2c/classorg_1_1cobbzilla_1_1util_1_1json_1_1JsonUtil_a5f816d81de3ddd762863e64b9d235f86.html#a5f816d81de3ddd762863e64b9d235f86" target="_top" xlink:title="org.cobbzilla.util.json.\lJsonUtil.fromJsonOrDie">
<polygon fill="none" stroke="#000000" points="367,-245.5 367,-275.5 489,-275.5 489,-245.5 367,-245.5"/>
<text text-anchor="start" x="375" y="-263.5" font-family="Helvetica,sans-Serif" font-size="10.00" fill="#000000">org.cobbzilla.util.json.</text>
<text text-anchor="middle" x="428" y="-252.5" font-family="Helvetica,sans-Serif" font-size="10.00" fill="#000000">JsonUtil.fromJsonOrDie</text>
</a>
</g>
</g>
<!-- Node2&#45;&gt;Node6 -->
<g id="edge5" class="edge">
<title>Node2&#45;&gt;Node6</title>
<path fill="none" stroke="#191970" d="M270.0285,-206.3658C289.2089,-216.372 313.4382,-228.124 336,-236.5 345.7491,-240.1193 356.2715,-243.4108 366.5962,-246.3165"/>
<polygon fill="#191970" stroke="#191970" points="271.5238,-203.1974 261.0476,-201.6164 268.2514,-209.3854 271.5238,-203.1974"/>
</g>
<!-- Node7 -->
<g id="node7" class="node">
<title>Node7</title>
<g id="a_node7"><a xlink:href="../../dc/d2c/classorg_1_1cobbzilla_1_1util_1_1json_1_1JsonUtil_a27f0e0cf42d6f0099f15e238509207b9.html#a27f0e0cf42d6f0099f15e238509207b9" target="_top" xlink:title="org.cobbzilla.util.json.\lJsonUtil.mergeJson">
<polygon fill="none" stroke="#000000" points="372.5,-196.5 372.5,-226.5 483.5,-226.5 483.5,-196.5 372.5,-196.5"/>
<text text-anchor="start" x="380.5" y="-214.5" font-family="Helvetica,sans-Serif" font-size="10.00" fill="#000000">org.cobbzilla.util.json.</text>
<text text-anchor="middle" x="428" y="-203.5" font-family="Helvetica,sans-Serif" font-size="10.00" fill="#000000">JsonUtil.mergeJson</text>
</a>
</g>
</g>
<!-- Node2&#45;&gt;Node7 -->
<g id="edge6" class="edge">
<title>Node2&#45;&gt;Node7</title>
<path fill="none" stroke="#191970" d="M299.5432,-194.9463C323.2059,-197.9956 349.6693,-201.4058 372.3993,-204.335"/>
<polygon fill="#191970" stroke="#191970" points="299.958,-191.4709 289.5926,-193.664 299.0632,-198.4135 299.958,-191.4709"/>
</g>
<!-- Node10 -->
<g id="node10" class="node">
<title>Node10</title>
<g id="a_node10"><a xlink:href="../../dc/d2c/classorg_1_1cobbzilla_1_1util_1_1json_1_1JsonUtil_ad4d54d7709ab54d8cd27595ff46d3223.html#ad4d54d7709ab54d8cd27595ff46d3223" target="_top" xlink:title="org.cobbzilla.util.json.\lJsonUtil.mergeJsonNodes">
<polygon fill="none" stroke="#000000" points="362,-147.5 362,-177.5 494,-177.5 494,-147.5 362,-147.5"/>
<text text-anchor="start" x="370" y="-165.5" font-family="Helvetica,sans-Serif" font-size="10.00" fill="#000000">org.cobbzilla.util.json.</text>
<text text-anchor="middle" x="428" y="-154.5" font-family="Helvetica,sans-Serif" font-size="10.00" fill="#000000">JsonUtil.mergeJsonNodes</text>
</a>
</g>
</g>
<!-- Node2&#45;&gt;Node10 -->
<g id="edge9" class="edge">
<title>Node2&#45;&gt;Node10</title>
<path fill="none" stroke="#191970" d="M299.561,-178.3894C319.6054,-175.9096 341.6581,-173.1815 361.7481,-170.6961"/>
<polygon fill="#191970" stroke="#191970" points="299.0872,-174.9212 289.5926,-179.6226 299.9467,-181.8682 299.0872,-174.9212"/>
</g>
<!-- Node13 -->
<g id="node13" class="node">
<title>Node13</title>
<g id="a_node13"><a xlink:href="../../d1/d68/classorg_1_1cobbzilla_1_1util_1_1json_1_1JsonEditTest_ab3fb98ec8772451e27673ba5d5368cd7.html#ab3fb98ec8772451e27673ba5d5368cd7" target="_top" xlink:title="org.cobbzilla.util.json.\lJsonEditTest.testEditJson">
<polygon fill="none" stroke="#000000" points="362,-98.5 362,-128.5 494,-128.5 494,-98.5 362,-98.5"/>
<text text-anchor="start" x="370" y="-116.5" font-family="Helvetica,sans-Serif" font-size="10.00" fill="#000000">org.cobbzilla.util.json.</text>
<text text-anchor="middle" x="428" y="-105.5" font-family="Helvetica,sans-Serif" font-size="10.00" fill="#000000">JsonEditTest.testEditJson</text>
</a>
</g>
</g>
<!-- Node2&#45;&gt;Node13 -->
<g id="edge12" class="edge">
<title>Node2&#45;&gt;Node13</title>
<path fill="none" stroke="#191970" d="M271.6341,-166.8616C290.6017,-157.4634 314.1596,-146.5365 336,-138.5 345.7859,-134.8991 356.3271,-131.5565 366.659,-128.5631"/>
<polygon fill="#191970" stroke="#191970" points="269.8121,-163.8598 262.4438,-171.4729 272.9515,-170.1164 269.8121,-163.8598"/>
</g>
<!-- Node14 -->
<g id="node14" class="node">
<title>Node14</title>
<g id="a_node14"><a xlink:href="../../d9/d3d/classorg_1_1cobbzilla_1_1util_1_1json_1_1JsonUtilTest_a239642f3764a1c94c594d22e2629b3c1.html#a239642f3764a1c94c594d22e2629b3c1" target="_top" xlink:title="org.cobbzilla.util.json.\lJsonUtilTest.assertReplacementMade">
<polygon fill="none" stroke="#000000" points="336,-49.5 336,-79.5 520,-79.5 520,-49.5 336,-49.5"/>
<text text-anchor="start" x="344" y="-67.5" font-family="Helvetica,sans-Serif" font-size="10.00" fill="#000000">org.cobbzilla.util.json.</text>
<text text-anchor="middle" x="428" y="-56.5" font-family="Helvetica,sans-Serif" font-size="10.00" fill="#000000">JsonUtilTest.assertReplacementMade</text>
</a>
</g>
</g>
<!-- Node2&#45;&gt;Node14 -->
<g id="edge13" class="edge">
<title>Node2&#45;&gt;Node14</title>
<path fill="none" stroke="#191970" d="M252.3504,-163.3696C271.1039,-141.2505 302.2017,-108.53 336,-89.5 342.7786,-85.6834 350.1691,-82.4255 357.7185,-79.6498"/>
<polygon fill="#191970" stroke="#191970" points="249.4807,-161.3469 245.7874,-171.2772 254.8672,-165.8174 249.4807,-161.3469"/>
</g>
<!-- Node4 -->
<g id="node4" class="node">
<title>Node4</title>
<g id="a_node4"><a xlink:href="../../d9/d75/classorg_1_1cobbzilla_1_1util_1_1handlebars_1_1main_1_1PdfMergeMain_a125fc1d1e7f706476767dcc2fdb0b34d.html#a125fc1d1e7f706476767dcc2fdb0b34d" target="_top" xlink:title="org.cobbzilla.util.handlebars.main.\lPdfMergeMain.run">
<polygon fill="none" stroke="#000000" points="560.5,-343.5 560.5,-373.5 724.5,-373.5 724.5,-343.5 560.5,-343.5"/>
<text text-anchor="start" x="568.5" y="-361.5" font-family="Helvetica,sans-Serif" font-size="10.00" fill="#000000">org.cobbzilla.util.handlebars.main.</text>
<text text-anchor="middle" x="642.5" y="-350.5" font-family="Helvetica,sans-Serif" font-size="10.00" fill="#000000">PdfMergeMain.run</text>
</a>
</g>
</g>
<!-- Node3&#45;&gt;Node4 -->
<g id="edge3" class="edge">
<title>Node3&#45;&gt;Node4</title>
<path fill="none" stroke="#191970" d="M520.1191,-358.5C533.436,-358.5 547.0706,-358.5 560.1792,-358.5"/>
<polygon fill="#191970" stroke="#191970" points="520.0114,-355.0001 510.0114,-358.5 520.0114,-362.0001 520.0114,-355.0001"/>
</g>
<!-- Node8 -->
<g id="node8" class="node">
<title>Node8</title>
<g id="a_node8"><a xlink:href="../../dc/d2c/classorg_1_1cobbzilla_1_1util_1_1json_1_1JsonUtil_a2e0261c1837f4d37641121bf753b568d.html#a2e0261c1837f4d37641121bf753b568d" target="_top" xlink:title="org.cobbzilla.util.json.\lJsonUtil.mergeJsonOrDie">
<polygon fill="none" stroke="#000000" points="578,-245.5 578,-275.5 707,-275.5 707,-245.5 578,-245.5"/>
<text text-anchor="start" x="586" y="-263.5" font-family="Helvetica,sans-Serif" font-size="10.00" fill="#000000">org.cobbzilla.util.json.</text>
<text text-anchor="middle" x="642.5" y="-252.5" font-family="Helvetica,sans-Serif" font-size="10.00" fill="#000000">JsonUtil.mergeJsonOrDie</text>
</a>
</g>
</g>
<!-- Node7&#45;&gt;Node8 -->
<g id="edge7" class="edge">
<title>Node7&#45;&gt;Node8</title>
<path fill="none" stroke="#191970" d="M493.5398,-226.4718C520.2559,-232.5748 551.0623,-239.6121 577.7019,-245.6976"/>
<polygon fill="#191970" stroke="#191970" points="494.0464,-222.9974 483.518,-224.1824 492.4874,-229.8216 494.0464,-222.9974"/>
</g>
<!-- Node9 -->
<g id="node9" class="node">
<title>Node9</title>
<g id="a_node9"><a xlink:href="../../d9/d3d/classorg_1_1cobbzilla_1_1util_1_1json_1_1JsonUtilTest_a506201864e5b3d7073a4fa42fa837cd3.html#a506201864e5b3d7073a4fa42fa837cd3" target="_top" xlink:title="org.cobbzilla.util.json.\lJsonUtilTest.testMerge">
<polygon fill="none" stroke="#000000" points="583,-196.5 583,-226.5 702,-226.5 702,-196.5 583,-196.5"/>
<text text-anchor="start" x="591" y="-214.5" font-family="Helvetica,sans-Serif" font-size="10.00" fill="#000000">org.cobbzilla.util.json.</text>
<text text-anchor="middle" x="642.5" y="-203.5" font-family="Helvetica,sans-Serif" font-size="10.00" fill="#000000">JsonUtilTest.testMerge</text>
</a>
</g>
</g>
<!-- Node7&#45;&gt;Node9 -->
<g id="edge8" class="edge">
<title>Node7&#45;&gt;Node9</title>
<path fill="none" stroke="#191970" d="M493.7407,-211.5C522.0999,-211.5 555.0375,-211.5 582.7002,-211.5"/>
<polygon fill="#191970" stroke="#191970" points="493.5181,-208.0001 483.518,-211.5 493.518,-215.0001 493.5181,-208.0001"/>
</g>
<!-- Node11 -->
<g id="node11" class="node">
<title>Node11</title>
<g id="a_node11"><a xlink:href="../../dc/d2c/classorg_1_1cobbzilla_1_1util_1_1json_1_1JsonUtil_aa129e8fee46fe4395aeb5146a86b5359.html#aa129e8fee46fe4395aeb5146a86b5359" target="_top" xlink:title="org.cobbzilla.util.json.\lJsonUtil.mergeJson">
<polygon fill="none" stroke="#000000" points="587,-147.5 587,-177.5 698,-177.5 698,-147.5 587,-147.5"/>
<text text-anchor="start" x="595" y="-165.5" font-family="Helvetica,sans-Serif" font-size="10.00" fill="#000000">org.cobbzilla.util.json.</text>
<text text-anchor="middle" x="642.5" y="-154.5" font-family="Helvetica,sans-Serif" font-size="10.00" fill="#000000">JsonUtil.mergeJson</text>
</a>
</g>
</g>
<!-- Node10&#45;&gt;Node11 -->
<g id="edge10" class="edge">
<title>Node10&#45;&gt;Node11</title>
<path fill="none" stroke="#191970" d="M504.3634,-162.5C531.5356,-162.5 561.5995,-162.5 586.7233,-162.5"/>
<polygon fill="#191970" stroke="#191970" points="504.1074,-159.0001 494.1073,-162.5 504.1073,-166.0001 504.1074,-159.0001"/>
</g>
<!-- Node12 -->
<g id="node12" class="node">
<title>Node12</title>
<g id="a_node12"><a xlink:href="../../dc/d2c/classorg_1_1cobbzilla_1_1util_1_1json_1_1JsonUtil_a0b510c01cb40a5a63bfd8a8187d5a9a2.html#a0b510c01cb40a5a63bfd8a8187d5a9a2" target="_top" xlink:title="org.cobbzilla.util.json.\lJsonUtil.mergeJsonNodesOrDie">
<polygon fill="none" stroke="#000000" points="563.5,-98.5 563.5,-128.5 721.5,-128.5 721.5,-98.5 563.5,-98.5"/>
<text text-anchor="start" x="571.5" y="-116.5" font-family="Helvetica,sans-Serif" font-size="10.00" fill="#000000">org.cobbzilla.util.json.</text>
<text text-anchor="middle" x="642.5" y="-105.5" font-family="Helvetica,sans-Serif" font-size="10.00" fill="#000000">JsonUtil.mergeJsonNodesOrDie</text>
</a>
</g>
</g>
<!-- Node10&#45;&gt;Node12 -->
<g id="edge11" class="edge">
<title>Node10&#45;&gt;Node12</title>
<path fill="none" stroke="#191970" d="M503.8671,-145.1691C527.6819,-139.7288 553.7605,-133.7715 576.8097,-128.5062"/>
<polygon fill="#191970" stroke="#191970" points="502.7842,-141.8262 493.8148,-147.4654 504.3431,-148.6504 502.7842,-141.8262"/>
</g>
<!-- Node15 -->
<g id="node15" class="node">
<title>Node15</title>
<g id="a_node15"><a xlink:href="../../d9/d3d/classorg_1_1cobbzilla_1_1util_1_1json_1_1JsonUtilTest_ab9eb80bbec6ad8d6ed24e56482d513f4.html#ab9eb80bbec6ad8d6ed24e56482d513f4" target="_top" xlink:title="org.cobbzilla.util.json.\lJsonUtilTest.testReplaceJsonValue">
<polygon fill="none" stroke="#000000" points="556,-49.5 556,-79.5 729,-79.5 729,-49.5 556,-49.5"/>
<text text-anchor="start" x="564" y="-67.5" font-family="Helvetica,sans-Serif" font-size="10.00" fill="#000000">org.cobbzilla.util.json.</text>
<text text-anchor="middle" x="642.5" y="-56.5" font-family="Helvetica,sans-Serif" font-size="10.00" fill="#000000">JsonUtilTest.testReplaceJsonValue</text>
</a>
</g>
</g>
<!-- Node14&#45;&gt;Node15 -->
<g id="edge14" class="edge">
<title>Node14&#45;&gt;Node15</title>
<path fill="none" stroke="#191970" d="M530.2218,-64.5C538.7765,-64.5 547.3739,-64.5 555.7957,-64.5"/>
<polygon fill="#191970" stroke="#191970" points="530.2122,-61.0001 520.2122,-64.5 530.2121,-68.0001 530.2122,-61.0001"/>
</g>
<!-- Node17 -->
<g id="node17" class="node">
<title>Node17</title>
<g id="a_node17"><a xlink:href="../../d4/de3/classorg_1_1cobbzilla_1_1util_1_1daemon_1_1ZillaRuntime_a5854531fafc3b84e7a703566c69d74e1.html#a5854531fafc3b84e7a703566c69d74e1" target="_top" xlink:title="org.cobbzilla.util.daemon.\lZillaRuntime.readStdin">
<polygon fill="none" stroke="#000000" points="364,-.5 364,-30.5 492,-30.5 492,-.5 364,-.5"/>
<text text-anchor="start" x="372" y="-18.5" font-family="Helvetica,sans-Serif" font-size="10.00" fill="#000000">org.cobbzilla.util.daemon.</text>
<text text-anchor="middle" x="428" y="-7.5" font-family="Helvetica,sans-Serif" font-size="10.00" fill="#000000">ZillaRuntime.readStdin</text>
</a>
</g>
</g>
<!-- Node16&#45;&gt;Node17 -->
<g id="edge16" class="edge">
<title>Node16&#45;&gt;Node17</title>
<path fill="none" stroke="#191970" d="M271.6341,-68.8616C290.6017,-59.4634 314.1596,-48.5365 336,-40.5 345.7859,-36.8991 356.3271,-33.5565 366.659,-30.5631"/>
<polygon fill="#191970" stroke="#191970" points="269.8121,-65.8598 262.4438,-73.4729 272.9515,-72.1164 269.8121,-65.8598"/>
</g>
</g>
</svg>
        <g id="navigator" transform="translate(0 0)" fill="#404254">
                <rect fill="#f2f5e9" fill-opacity="0.5" stroke="#606060" stroke-width=".5" x="0" y="0" width="60" height="60"/>
                <use id="zoomplus" xlink:href="#zoomPlus" x="17" y="9" onmousedown="handleZoom(evt,'in')"/>
                <use id="zoomminus" xlink:href="#zoomMin" x="42" y="9" onmousedown="handleZoom(evt,'out')"/>
                <use id="reset" xlink:href="#resetDef" x="30" y="36" onmousedown="handleReset()"/>
                <g id="arrowUp" xlink:href="#dirArrow" transform="translate(30 24)" onmousedown="handlePan(0,-1)">
                  <use xlink:href="#rim" fill="#404040">
                        <set attributeName="fill" to="#808080" begin="arrowUp.mouseover" end="arrowUp.mouseout"/>
                  </use>
                  <path fill="none" stroke="white" stroke-width="1.5" d="M0,-3.0v7 M-2.5,-0.5L0,-3.0L2.5,-0.5"/>
                </g>
                <g id="arrowRight" xlink:href="#dirArrow" transform="rotate(90) translate(36 -43)" onmousedown="handlePan(1,0)">
                  <use xlink:href="#rim" fill="#404040">
                        <set attributeName="fill" to="#808080" begin="arrowRight.mouseover" end="arrowRight.mouseout"/>
                  </use>
                  <path fill="none" stroke="white" stroke-width="1.5" d="M0,-3.0v7 M-2.5,-0.5L0,-3.0L2.5,-0.5"/>
                </g>
                <g id="arrowDown" xlink:href="#dirArrow" transform="rotate(180) translate(-30 -48)" onmousedown="handlePan(0,1)">
                  <use xlink:href="#rim" fill="#404040">
                        <set attributeName="fill" to="#808080" begin="arrowDown.mouseover" end="arrowDown.mouseout"/>
                  </use>
                  <path fill="none" stroke="white" stroke-width="1.5" d="M0,-3.0v7 M-2.5,-0.5L0,-3.0L2.5,-0.5"/>
                </g>
                <g id="arrowLeft" xlink:href="#dirArrow" transform="rotate(270) translate(-36 17)" onmousedown="handlePan(-1,0)">
                  <use xlink:href="#rim" fill="#404040">
                        <set attributeName="fill" to="#808080" begin="arrowLeft.mouseover" end="arrowLeft.mouseout"/>
                  </use>
                  <path fill="none" stroke="white" stroke-width="1.5" d="M0,-3.0v7 M-2.5,-0.5L0,-3.0L2.5,-0.5"/>
                </g>
        </g>
        <svg viewBox="0 0 15 15" width="100%" height="30px" preserveAspectRatio="xMaxYMin meet">
         <g id="arrow_out" transform="scale(0.3 0.3)">
          <a xlink:href="classorg_1_1cobbzilla_1_1util_1_1io_1_1StreamUtil_a242c4cb3ac88a027891f05b372294875_a242c4cb3ac88a027891f05b372294875_icgraph_org.svg" target="_base">
           <rect id="button" ry="5" rx="5" y="6" x="6" height="38" width="38"
                fill="#f2f5e9" fill-opacity="0.5" stroke="#606060" stroke-width="1.0"/>
           <path id="arrow"
             d="M 11.500037,31.436501 C 11.940474,20.09759 22.043105,11.32322 32.158766,21.979434 L 37.068811,17.246167 C 37.068811,17.246167 37.088388,32 37.088388,32 L 22.160133,31.978069 C 22.160133,31.978069 26.997745,27.140456 26.997745,27.140456 C 18.528582,18.264221 13.291696,25.230495 11.500037,31.436501 z"
             style="fill:#404040;"/>
          </a>
         </g>
        </svg>
</svg>
