<?xml version="1.0" encoding="UTF-8" standalone="no"?>
<!DOCTYPE svg PUBLIC "-//W3C//DTD SVG 1.1//EN"
 "http://www.w3.org/Graphics/SVG/1.1/DTD/svg11.dtd">
<!-- Generated by graphviz version 2.40.1 (20161225.0304)
 -->
<!-- Title: org.cobbzilla.util.io.StreamUtil.loadResourceAsString Pages: 1 -->
<svg width="710pt" height="137pt"
 viewBox="0.00 0.00 710.00 137.00" xmlns="http://www.w3.org/2000/svg" xmlns:xlink="http://www.w3.org/1999/xlink">
<g id="graph0" class="graph" transform="scale(1 1) rotate(0) translate(4 133)">
<title>org.cobbzilla.util.io.StreamUtil.loadResourceAsString</title>
<!-- Node1 -->
<g id="node1" class="node">
<title>Node1</title>
<polygon fill="#bfbfbf" stroke="#000000" points="0,-24.5 0,-54.5 132,-54.5 132,-24.5 0,-24.5"/>
<text text-anchor="start" x="8" y="-42.5" font-family="Helvetica,sans-Serif" font-size="10.00" fill="#000000">org.cobbzilla.util.io.Stream</text>
<text text-anchor="middle" x="66" y="-31.5" font-family="Helvetica,sans-Serif" font-size="10.00" fill="#000000">Util.loadResourceAsString</text>
</g>
<!-- Node2 -->
<g id="node2" class="node">
<title>Node2</title>
<g id="a_node2"><a xlink:href="../../dc/d81/classorg_1_1cobbzilla_1_1util_1_1io_1_1StreamUtil_aed1b3ab72071c047ba71eb00dfc67606.html#aed1b3ab72071c047ba71eb00dfc67606" target="_top" xlink:title="org.cobbzilla.util.io.Stream\lUtil.loadResourceAsStringOrDie">
<polygon fill="none" stroke="#000000" points="175.5,-49.5 175.5,-79.5 333.5,-79.5 333.5,-49.5 175.5,-49.5"/>
<text text-anchor="start" x="183.5" y="-67.5" font-family="Helvetica,sans-Serif" font-size="10.00" fill="#000000">org.cobbzilla.util.io.Stream</text>
<text text-anchor="middle" x="254.5" y="-56.5" font-family="Helvetica,sans-Serif" font-size="10.00" fill="#000000">Util.loadResourceAsStringOrDie</text>
</a>
</g>
</g>
<!-- Node1&#45;&gt;Node2 -->
<g id="edge1" class="edge">
<title>Node1&#45;&gt;Node2</title>
<path fill="none" stroke="#191970" d="M142.4281,-49.6363C153.2271,-51.0686 164.3502,-52.5438 175.2019,-53.983"/>
<polygon fill="#191970" stroke="#191970" points="142.5664,-46.1241 132.193,-48.2789 141.646,-53.0634 142.5664,-46.1241"/>
</g>
<!-- Node7 -->
<g id="node7" class="node">
<title>Node7</title>
<g id="a_node7"><a xlink:href="../../d9/d3d/classorg_1_1cobbzilla_1_1util_1_1json_1_1JsonUtilTest_ab9eb80bbec6ad8d6ed24e56482d513f4.html#ab9eb80bbec6ad8d6ed24e56482d513f4" target="_top" xlink:title="org.cobbzilla.util.json.\lJsonUtilTest.testReplaceJsonValue">
<polygon fill="none" stroke="#000000" points="168,-.5 168,-30.5 341,-30.5 341,-.5 168,-.5"/>
<text text-anchor="start" x="176" y="-18.5" font-family="Helvetica,sans-Serif" font-size="10.00" fill="#000000">org.cobbzilla.util.json.</text>
<text text-anchor="middle" x="254.5" y="-7.5" font-family="Helvetica,sans-Serif" font-size="10.00" fill="#000000">JsonUtilTest.testReplaceJsonValue</text>
</a>
</g>
</g>
<!-- Node1&#45;&gt;Node7 -->
<g id="edge6" class="edge">
<title>Node1&#45;&gt;Node7</title>
<path fill="none" stroke="#191970" d="M142.3567,-29.7782C150.7852,-28.7051 159.412,-27.6067 167.9538,-26.5191"/>
<polygon fill="#191970" stroke="#191970" points="141.6708,-26.3372 132.193,-31.0722 142.555,-33.2811 141.6708,-26.3372"/>
</g>
<!-- Node3 -->
<g id="node3" class="node">
<title>Node3</title>
<g id="a_node3"><a xlink:href="../../dc/d81/classorg_1_1cobbzilla_1_1util_1_1io_1_1StreamUtil_affb0a215e484683e608965f1f54c675e.html#affb0a215e484683e608965f1f54c675e" target="_top" xlink:title="org.cobbzilla.util.io.Stream\lUtil.stream2string">
<polygon fill="none" stroke="#000000" points="377,-49.5 377,-79.5 509,-79.5 509,-49.5 377,-49.5"/>
<text text-anchor="start" x="385" y="-67.5" font-family="Helvetica,sans-Serif" font-size="10.00" fill="#000000">org.cobbzilla.util.io.Stream</text>
<text text-anchor="middle" x="443" y="-56.5" font-family="Helvetica,sans-Serif" font-size="10.00" fill="#000000">Util.stream2string</text>
</a>
</g>
</g>
<!-- Node2&#45;&gt;Node3 -->
<g id="edge2" class="edge">
<title>Node2&#45;&gt;Node3</title>
<path fill="none" stroke="#191970" d="M343.8138,-64.5C354.9597,-64.5 366.198,-64.5 376.9027,-64.5"/>
<polygon fill="#191970" stroke="#191970" points="343.6217,-61.0001 333.6216,-64.5 343.6216,-68.0001 343.6217,-61.0001"/>
</g>
<!-- Node4 -->
<g id="node4" class="node">
<title>Node4</title>
<g id="a_node4"><a xlink:href="../../dc/d81/classorg_1_1cobbzilla_1_1util_1_1io_1_1StreamUtil_a210eaddec694c1e14c3f0de73e6c0df4.html#a210eaddec694c1e14c3f0de73e6c0df4" target="_top" xlink:title="org.cobbzilla.util.io.Stream\lUtil.fromClasspathOrFilesystem">
<polygon fill="none" stroke="#000000" points="545,-98.5 545,-128.5 702,-128.5 702,-98.5 545,-98.5"/>
<text text-anchor="start" x="553" y="-116.5" font-family="Helvetica,sans-Serif" font-size="10.00" fill="#000000">org.cobbzilla.util.io.Stream</text>
<text text-anchor="middle" x="623.5" y="-105.5" font-family="Helvetica,sans-Serif" font-size="10.00" fill="#000000">Util.fromClasspathOrFilesystem</text>
</a>
</g>
</g>
<!-- Node3&#45;&gt;Node4 -->
<g id="edge3" class="edge">
<title>Node3&#45;&gt;Node4</title>
<path fill="none" stroke="#191970" d="M508.3796,-82.2485C527.9422,-87.5591 549.1958,-93.3288 568.0549,-98.4484"/>
<polygon fill="#191970" stroke="#191970" points="509.1965,-78.8436 498.6288,-79.6014 507.3625,-85.5991 509.1965,-78.8436"/>
</g>
<!-- Node5 -->
<g id="node5" class="node">
<title>Node5</title>
<g id="a_node5"><a xlink:href="../../dc/d81/classorg_1_1cobbzilla_1_1util_1_1io_1_1StreamUtil_ae1370ab4e84bf8d22deffad5977f6349.html#ae1370ab4e84bf8d22deffad5977f6349" target="_top" xlink:title="org.cobbzilla.util.io.Stream\lUtil.fromClasspathOrString">
<polygon fill="none" stroke="#000000" points="556.5,-49.5 556.5,-79.5 690.5,-79.5 690.5,-49.5 556.5,-49.5"/>
<text text-anchor="start" x="564.5" y="-67.5" font-family="Helvetica,sans-Serif" font-size="10.00" fill="#000000">org.cobbzilla.util.io.Stream</text>
<text text-anchor="middle" x="623.5" y="-56.5" font-family="Helvetica,sans-Serif" font-size="10.00" fill="#000000">Util.fromClasspathOrString</text>
</a>
</g>
</g>
<!-- Node3&#45;&gt;Node5 -->
<g id="edge4" class="edge">
<title>Node3&#45;&gt;Node5</title>
<path fill="none" stroke="#191970" d="M519.4129,-64.5C531.71,-64.5 544.3581,-64.5 556.4147,-64.5"/>
<polygon fill="#191970" stroke="#191970" points="519.1866,-61.0001 509.1866,-64.5 519.1866,-68.0001 519.1866,-61.0001"/>
</g>
<!-- Node6 -->
<g id="node6" class="node">
<title>Node6</title>
<g id="a_node6"><a xlink:href="../../d9/d3d/classorg_1_1cobbzilla_1_1util_1_1json_1_1JsonUtilTest_a506201864e5b3d7073a4fa42fa837cd3.html#a506201864e5b3d7073a4fa42fa837cd3" target="_top" xlink:title="org.cobbzilla.util.json.\lJsonUtilTest.testMerge">
<polygon fill="none" stroke="#000000" points="564,-.5 564,-30.5 683,-30.5 683,-.5 564,-.5"/>
<text text-anchor="start" x="572" y="-18.5" font-family="Helvetica,sans-Serif" font-size="10.00" fill="#000000">org.cobbzilla.util.json.</text>
<text text-anchor="middle" x="623.5" y="-7.5" font-family="Helvetica,sans-Serif" font-size="10.00" fill="#000000">JsonUtilTest.testMerge</text>
</a>
</g>
</g>
<!-- Node3&#45;&gt;Node6 -->
<g id="edge5" class="edge">
<title>Node3&#45;&gt;Node6</title>
<path fill="none" stroke="#191970" d="M508.3796,-46.7515C527.9422,-41.4409 549.1958,-35.6712 568.0549,-30.5516"/>
<polygon fill="#191970" stroke="#191970" points="507.3625,-43.4009 498.6288,-49.3986 509.1965,-50.1564 507.3625,-43.4009"/>
</g>
</g>
</svg>
