<?xml version="1.0" encoding="UTF-8" standalone="no"?>
<!DOCTYPE svg PUBLIC "-//W3C//DTD SVG 1.1//EN"
 "http://www.w3.org/Graphics/SVG/1.1/DTD/svg11.dtd">
<!-- Generated by graphviz version 2.40.1 (20161225.0304)
 -->
<!-- Title: org.cobbzilla.util.io.StreamUtil.loadResourceAsFile Pages: 1 -->
<svg width="308pt" height="88pt"
 viewBox="0.00 0.00 308.00 88.00" xmlns="http://www.w3.org/2000/svg" xmlns:xlink="http://www.w3.org/1999/xlink">
<g id="graph0" class="graph" transform="scale(1 1) rotate(0) translate(4 84)">
<title>org.cobbzilla.util.io.StreamUtil.loadResourceAsFile</title>
<!-- Node1 -->
<g id="node1" class="node">
<title>Node1</title>
<polygon fill="#bfbfbf" stroke="#000000" points="0,-24.5 0,-54.5 132,-54.5 132,-24.5 0,-24.5"/>
<text text-anchor="start" x="8" y="-42.5" font-family="Helvetica,sans-Serif" font-size="10.00" fill="#000000">org.cobbzilla.util.io.Stream</text>
<text text-anchor="middle" x="66" y="-31.5" font-family="Helvetica,sans-Serif" font-size="10.00" fill="#000000">Util.loadResourceAsFile</text>
</g>
<!-- Node2 -->
<g id="node2" class="node">
<title>Node2</title>
<g id="a_node2"><a xlink:href="../../dc/d81/classorg_1_1cobbzilla_1_1util_1_1io_1_1StreamUtil_a6a930bb09f3363e1e494f3706b9e8479.html#a6a930bb09f3363e1e494f3706b9e8479" target="_top" xlink:title="org.cobbzilla.util.io.Stream\lUtil.loadResourceAsFile">
<polygon fill="none" stroke="#000000" points="168,-49.5 168,-79.5 300,-79.5 300,-49.5 168,-49.5"/>
<text text-anchor="start" x="176" y="-67.5" font-family="Helvetica,sans-Serif" font-size="10.00" fill="#000000">org.cobbzilla.util.io.Stream</text>
<text text-anchor="middle" x="234" y="-56.5" font-family="Helvetica,sans-Serif" font-size="10.00" fill="#000000">Util.loadResourceAsFile</text>
</a>
</g>
</g>
<!-- Node1&#45;&gt;Node2 -->
<g id="edge1" class="edge">
<title>Node1&#45;&gt;Node2</title>
<path fill="none" stroke="#191970" d="M142.3171,-50.8567C150.8262,-52.1229 159.4413,-53.4049 167.8092,-54.6502"/>
<polygon fill="#191970" stroke="#191970" points="142.8043,-47.3908 132.398,-49.3807 141.7739,-54.3145 142.8043,-47.3908"/>
</g>
<!-- Node3 -->
<g id="node3" class="node">
<title>Node3</title>
<g id="a_node3"><a xlink:href="../../d9/dae/classorg_1_1cobbzilla_1_1util_1_1system_1_1CommandShellTest_a06b3e957772e4c9d81759042f2cdca66.html#a06b3e957772e4c9d81759042f2cdca66" target="_top" xlink:title="org.cobbzilla.util.system.\lCommandShellTest.setup">
<polygon fill="none" stroke="#000000" points="169,-.5 169,-30.5 299,-30.5 299,-.5 169,-.5"/>
<text text-anchor="start" x="177" y="-18.5" font-family="Helvetica,sans-Serif" font-size="10.00" fill="#000000">org.cobbzilla.util.system.</text>
<text text-anchor="middle" x="234" y="-7.5" font-family="Helvetica,sans-Serif" font-size="10.00" fill="#000000">CommandShellTest.setup</text>
</a>
</g>
</g>
<!-- Node1&#45;&gt;Node3 -->
<g id="edge2" class="edge">
<title>Node1&#45;&gt;Node3</title>
<path fill="none" stroke="#191970" d="M142.3455,-28.5935C151.2182,-27.326 160.2058,-26.042 168.9078,-24.7989"/>
<polygon fill="#191970" stroke="#191970" points="141.8025,-25.1354 132.398,-30.0146 142.7925,-32.0651 141.8025,-25.1354"/>
</g>
</g>
</svg>
