<?xml version="1.0" encoding="UTF-8" standalone="no"?>
<!DOCTYPE svg PUBLIC "-//W3C//DTD SVG 1.1//EN"
 "http://www.w3.org/Graphics/SVG/1.1/DTD/svg11.dtd">
<!-- Generated by graphviz version 2.40.1 (20161225.0304)
 -->
<!-- Title: org.cobbzilla.util.io.StreamUtil.stream2file Pages: 1 -->
<svg width="474pt" height="57pt"
 viewBox="0.00 0.00 474.00 57.00" xmlns="http://www.w3.org/2000/svg" xmlns:xlink="http://www.w3.org/1999/xlink">
<g id="graph0" class="graph" transform="scale(1 1) rotate(0) translate(4 53)">
<title>org.cobbzilla.util.io.StreamUtil.stream2file</title>
<!-- Node1 -->
<g id="node1" class="node">
<title>Node1</title>
<polygon fill="#bfbfbf" stroke="#000000" points="0,-.5 0,-30.5 132,-30.5 132,-.5 0,-.5"/>
<text text-anchor="start" x="8" y="-18.5" font-family="Helvetica,sans-Serif" font-size="10.00" fill="#000000">org.cobbzilla.util.io.Stream</text>
<text text-anchor="middle" x="66" y="-7.5" font-family="Helvetica,sans-Serif" font-size="10.00" fill="#000000">Util.stream2file</text>
</g>
<!-- Node1&#45;&gt;Node1 -->
<g id="edge1" class="edge">
<title>Node1&#45;&gt;Node1</title>
<path fill="none" stroke="#191970" d="M36.1484,-40.9579C39.8534,-45.679 49.804,-49 66,-49 92.5781,-49 102.3373,-40.0566 95.2775,-30.659"/>
<polygon fill="#191970" stroke="#191970" points="39.6604,-40.8383 36.7225,-30.659 32.6713,-40.4487 39.6604,-40.8383"/>
</g>
<!-- Node2 -->
<g id="node2" class="node">
<title>Node2</title>
<g id="a_node2"><a xlink:href="../../dc/d81/classorg_1_1cobbzilla_1_1util_1_1io_1_1StreamUtil_ae9f7358616e0196ae3b887b32ba3b6c4.html#ae9f7358616e0196ae3b887b32ba3b6c4" target="_top" xlink:title="org.cobbzilla.util.io.Stream\lUtil.stream2temp">
<polygon fill="none" stroke="#000000" points="168,-.5 168,-30.5 300,-30.5 300,-.5 168,-.5"/>
<text text-anchor="start" x="176" y="-18.5" font-family="Helvetica,sans-Serif" font-size="10.00" fill="#000000">org.cobbzilla.util.io.Stream</text>
<text text-anchor="middle" x="234" y="-7.5" font-family="Helvetica,sans-Serif" font-size="10.00" fill="#000000">Util.stream2temp</text>
</a>
</g>
</g>
<!-- Node1&#45;&gt;Node2 -->
<g id="edge2" class="edge">
<title>Node1&#45;&gt;Node2</title>
<path fill="none" stroke="#191970" d="M142.5946,-15.5C151.0134,-15.5 159.5322,-15.5 167.8092,-15.5"/>
<polygon fill="#191970" stroke="#191970" points="142.3981,-12.0001 132.398,-15.5 142.398,-19.0001 142.3981,-12.0001"/>
</g>
<!-- Node3 -->
<g id="node3" class="node">
<title>Node3</title>
<g id="a_node3"><a xlink:href="../../db/df2/classorg_1_1cobbzilla_1_1util_1_1io_1_1TarballTest_a2291fc7c46504058afb866982146cc43.html#a2291fc7c46504058afb866982146cc43" target="_top" xlink:title="org.cobbzilla.util.io.Tarball\lTest.testUnrollAndReroll">
<polygon fill="none" stroke="#000000" points="336,-.5 336,-30.5 466,-30.5 466,-.5 336,-.5"/>
<text text-anchor="start" x="344" y="-18.5" font-family="Helvetica,sans-Serif" font-size="10.00" fill="#000000">org.cobbzilla.util.io.Tarball</text>
<text text-anchor="middle" x="401" y="-7.5" font-family="Helvetica,sans-Serif" font-size="10.00" fill="#000000">Test.testUnrollAndReroll</text>
</a>
</g>
</g>
<!-- Node2&#45;&gt;Node3 -->
<g id="edge3" class="edge">
<title>Node2&#45;&gt;Node3</title>
<path fill="none" stroke="#191970" d="M310.0192,-15.5C318.6121,-15.5 327.3116,-15.5 335.7496,-15.5"/>
<polygon fill="#191970" stroke="#191970" points="310.0029,-12.0001 300.0028,-15.5 310.0028,-19.0001 310.0029,-12.0001"/>
</g>
</g>
</svg>
