<?xml version="1.0" encoding="UTF-8" standalone="no"?>
<!DOCTYPE svg PUBLIC "-//W3C//DTD SVG 1.1//EN"
 "http://www.w3.org/Graphics/SVG/1.1/DTD/svg11.dtd">
<!-- Generated by graphviz version 2.40.1 (20161225.0304)
 -->
<!-- Title: org.cobbzilla.util.io.StreamUtil.fromClasspathOrFilesystem Pages: 1 -->
<svg width="695pt" height="88pt"
 viewBox="0.00 0.00 695.00 88.00" xmlns="http://www.w3.org/2000/svg" xmlns:xlink="http://www.w3.org/1999/xlink">
<g id="graph0" class="graph" transform="scale(1 1) rotate(0) translate(4 84)">
<title>org.cobbzilla.util.io.StreamUtil.fromClasspathOrFilesystem</title>
<!-- Node0 -->
<g id="node1" class="node">
<title>Node0</title>
<polygon fill="#bfbfbf" stroke="#000000" points="0,-24.5 0,-54.5 157,-54.5 157,-24.5 0,-24.5"/>
<text text-anchor="start" x="8" y="-42.5" font-family="Helvetica,sans-Serif" font-size="10.00" fill="#000000">org.cobbzilla.util.io.Stream</text>
<text text-anchor="middle" x="78.5" y="-31.5" font-family="Helvetica,sans-Serif" font-size="10.00" fill="#000000">Util.fromClasspathOrFilesystem</text>
</g>
<!-- Node1 -->
<g id="node2" class="node">
<title>Node1</title>
<g id="a_node2"><a xlink:href="../../dc/d81/classorg_1_1cobbzilla_1_1util_1_1io_1_1StreamUtil_affb0a215e484683e608965f1f54c675e.html#affb0a215e484683e608965f1f54c675e" target="_top" xlink:title="org.cobbzilla.util.io.Stream\lUtil.stream2string">
<polygon fill="none" stroke="#000000" points="193,-49.5 193,-79.5 325,-79.5 325,-49.5 193,-49.5"/>
<text text-anchor="start" x="201" y="-67.5" font-family="Helvetica,sans-Serif" font-size="10.00" fill="#000000">org.cobbzilla.util.io.Stream</text>
<text text-anchor="middle" x="259" y="-56.5" font-family="Helvetica,sans-Serif" font-size="10.00" fill="#000000">Util.stream2string</text>
</a>
</g>
</g>
<!-- Node0&#45;&gt;Node1 -->
<g id="edge1" class="edge">
<title>Node0&#45;&gt;Node1</title>
<path fill="none" stroke="#191970" d="M157.1449,-50.3926C165.5874,-51.562 174.1677,-52.7504 182.5837,-53.916"/>
<polygon fill="#191970" stroke="#191970" points="182.3618,-57.4186 192.7474,-55.3237 183.3222,-50.4848 182.3618,-57.4186"/>
</g>
<!-- Node4 -->
<g id="node5" class="node">
<title>Node4</title>
<g id="a_node5"><a xlink:href="../../df/dac/classorg_1_1cobbzilla_1_1util_1_1io_1_1FileUtil_a0f510aeca1ca214915d575181815e6ac.html#a0f510aeca1ca214915d575181815e6ac" target="_top" xlink:title="org.cobbzilla.util.io.File\lUtil.toStringOrDie">
<polygon fill="none" stroke="#000000" points="201,-.5 201,-30.5 317,-30.5 317,-.5 201,-.5"/>
<text text-anchor="start" x="209" y="-18.5" font-family="Helvetica,sans-Serif" font-size="10.00" fill="#000000">org.cobbzilla.util.io.File</text>
<text text-anchor="middle" x="259" y="-7.5" font-family="Helvetica,sans-Serif" font-size="10.00" fill="#000000">Util.toStringOrDie</text>
</a>
</g>
</g>
<!-- Node0&#45;&gt;Node4 -->
<g id="edge4" class="edge">
<title>Node0&#45;&gt;Node4</title>
<path fill="none" stroke="#191970" d="M157.1449,-29.0431C168.4189,-27.544 179.9387,-26.0123 190.9845,-24.5436"/>
<polygon fill="#191970" stroke="#191970" points="191.5234,-28.0029 200.9748,-23.2153 190.6007,-21.0639 191.5234,-28.0029"/>
</g>
<!-- Node2 -->
<g id="node3" class="node">
<title>Node2</title>
<g id="a_node3"><a xlink:href="../../dc/d81/classorg_1_1cobbzilla_1_1util_1_1io_1_1StreamUtil_aed1b3ab72071c047ba71eb00dfc67606.html#aed1b3ab72071c047ba71eb00dfc67606" target="_top" xlink:title="org.cobbzilla.util.io.Stream\lUtil.loadResourceAsStringOrDie">
<polygon fill="none" stroke="#000000" points="361,-49.5 361,-79.5 519,-79.5 519,-49.5 361,-49.5"/>
<text text-anchor="start" x="369" y="-67.5" font-family="Helvetica,sans-Serif" font-size="10.00" fill="#000000">org.cobbzilla.util.io.Stream</text>
<text text-anchor="middle" x="440" y="-56.5" font-family="Helvetica,sans-Serif" font-size="10.00" fill="#000000">Util.loadResourceAsStringOrDie</text>
</a>
</g>
</g>
<!-- Node1&#45;&gt;Node2 -->
<g id="edge2" class="edge">
<title>Node1&#45;&gt;Node2</title>
<path fill="none" stroke="#191970" d="M325.1135,-64.5C333.4606,-64.5 342.1069,-64.5 350.7381,-64.5"/>
<polygon fill="#191970" stroke="#191970" points="350.8448,-68.0001 360.8448,-64.5 350.8447,-61.0001 350.8448,-68.0001"/>
</g>
<!-- Node3 -->
<g id="node4" class="node">
<title>Node3</title>
<g id="a_node4"><a xlink:href="../../dc/d81/classorg_1_1cobbzilla_1_1util_1_1io_1_1StreamUtil_a09bfc80b03407b81fa60047418590599.html#a09bfc80b03407b81fa60047418590599" target="_top" xlink:title="org.cobbzilla.util.io.Stream\lUtil.loadResourceAsString">
<polygon fill="none" stroke="#000000" points="555,-49.5 555,-79.5 687,-79.5 687,-49.5 555,-49.5"/>
<text text-anchor="start" x="563" y="-67.5" font-family="Helvetica,sans-Serif" font-size="10.00" fill="#000000">org.cobbzilla.util.io.Stream</text>
<text text-anchor="middle" x="621" y="-56.5" font-family="Helvetica,sans-Serif" font-size="10.00" fill="#000000">Util.loadResourceAsString</text>
</a>
</g>
</g>
<!-- Node2&#45;&gt;Node3 -->
<g id="edge3" class="edge">
<title>Node2&#45;&gt;Node3</title>
<path fill="none" stroke="#191970" d="M519.1259,-64.5C527.5795,-64.5 536.1675,-64.5 544.5888,-64.5"/>
<polygon fill="#191970" stroke="#191970" points="544.7579,-68.0001 554.7578,-64.5 544.7578,-61.0001 544.7579,-68.0001"/>
</g>
</g>
</svg>
