<?xml version="1.0" encoding="UTF-8" standalone="no"?>
<!DOCTYPE svg PUBLIC "-//W3C//DTD SVG 1.1//EN"
 "http://www.w3.org/Graphics/SVG/1.1/DTD/svg11.dtd">
<!-- Generated by graphviz version 2.40.1 (20161225.0304)
 -->
<!-- Title: org.cobbzilla.util.collection.CollectionSource&lt; T &gt; Pages: 1 -->
<svg width="170pt" height="610pt"
 viewBox="0.00 0.00 170.00 610.00" xmlns="http://www.w3.org/2000/svg" xmlns:xlink="http://www.w3.org/1999/xlink">
<g id="graph0" class="graph" transform="scale(1 1) rotate(0) translate(4 606)">
<title>org.cobbzilla.util.collection.CollectionSource&lt; T &gt;</title>
<!-- Node0 -->
<g id="node1" class="node">
<title>Node0</title>
<polygon fill="#bfbfbf" stroke="#000000" points="14,-511.5 14,-601.5 148,-601.5 148,-511.5 14,-511.5"/>
<text text-anchor="start" x="22" y="-589.5" font-family="Helvetica,sans-Serif" font-size="10.00" fill="#000000">org.cobbzilla.util.collection.</text>
<text text-anchor="middle" x="81" y="-578.5" font-family="Helvetica,sans-Serif" font-size="10.00" fill="#000000">CollectionSource&lt; T &gt;</text>
<polyline fill="none" stroke="#000000" points="14,-571.5 148,-571.5 "/>
<text text-anchor="middle" x="81" y="-559.5" font-family="Helvetica,sans-Serif" font-size="10.00" fill="#000000"> </text>
<polyline fill="none" stroke="#000000" points="14,-552.5 148,-552.5 "/>
<text text-anchor="start" x="22" y="-540.5" font-family="Helvetica,sans-Serif" font-size="10.00" fill="#000000">+ addValue()</text>
<text text-anchor="start" x="22" y="-529.5" font-family="Helvetica,sans-Serif" font-size="10.00" fill="#000000">+ addValues()</text>
<text text-anchor="start" x="22" y="-518.5" font-family="Helvetica,sans-Serif" font-size="10.00" fill="#000000">+ getValues()</text>
</g>
<!-- Node1 -->
<g id="node2" class="node">
<title>Node1</title>
<g id="a_node2"><a xlink:href="../../dd/de6/classorg_1_1cobbzilla_1_1util_1_1collection_1_1SetSourceBase.html" target="_top" xlink:title="{org::cobbzilla::util\l::collection::SetSourceBase\&lt; T \&gt;\n|&#45; values\l|+ getValues()\l+ addValue()\l+ addValues()\l+ toString()\l}">
<polygon fill="none" stroke="#000000" points="0,-372.5 0,-473.5 162,-473.5 162,-372.5 0,-372.5"/>
<text text-anchor="start" x="8" y="-461.5" font-family="Helvetica,sans-Serif" font-size="10.00" fill="#000000">org::cobbzilla::util</text>
<text text-anchor="middle" x="81" y="-450.5" font-family="Helvetica,sans-Serif" font-size="10.00" fill="#000000">::collection::SetSourceBase&lt; T &gt;</text>
<polyline fill="none" stroke="#000000" points="0,-443.5 162,-443.5 "/>
<text text-anchor="start" x="8" y="-431.5" font-family="Helvetica,sans-Serif" font-size="10.00" fill="#000000">&#45; values</text>
<polyline fill="none" stroke="#000000" points="0,-424.5 162,-424.5 "/>
<text text-anchor="start" x="8" y="-412.5" font-family="Helvetica,sans-Serif" font-size="10.00" fill="#000000">+ getValues()</text>
<text text-anchor="start" x="8" y="-401.5" font-family="Helvetica,sans-Serif" font-size="10.00" fill="#000000">+ addValue()</text>
<text text-anchor="start" x="8" y="-390.5" font-family="Helvetica,sans-Serif" font-size="10.00" fill="#000000">+ addValues()</text>
<text text-anchor="start" x="8" y="-379.5" font-family="Helvetica,sans-Serif" font-size="10.00" fill="#000000">+ toString()</text>
</a>
</g>
</g>
<!-- Node0&#45;&gt;Node1 -->
<g id="edge1" class="edge">
<title>Node0&#45;&gt;Node1</title>
<path fill="none" stroke="#191970" d="M81,-501.175C81,-492.0608 81,-482.6537 81,-473.661"/>
<polygon fill="none" stroke="#191970" points="77.5001,-501.303 81,-511.303 84.5001,-501.303 77.5001,-501.303"/>
</g>
<!-- Node2 -->
<g id="node3" class="node">
<title>Node2</title>
<g id="a_node3"><a xlink:href="../../dd/de6/classorg_1_1cobbzilla_1_1util_1_1collection_1_1SetSourceBase.html" target="_top" xlink:title="{org.cobbzilla.util.collection.\lSetSourceBase\&lt; String \&gt;\n|&#45; values\l|+ getValues()\l+ addValue()\l+ addValues()\l+ toString()\l}">
<polygon fill="none" stroke="#000000" points="14,-223.5 14,-324.5 148,-324.5 148,-223.5 14,-223.5"/>
<text text-anchor="start" x="22" y="-312.5" font-family="Helvetica,sans-Serif" font-size="10.00" fill="#000000">org.cobbzilla.util.collection.</text>
<text text-anchor="middle" x="81" y="-301.5" font-family="Helvetica,sans-Serif" font-size="10.00" fill="#000000">SetSourceBase&lt; String &gt;</text>
<polyline fill="none" stroke="#000000" points="14,-294.5 148,-294.5 "/>
<text text-anchor="start" x="22" y="-282.5" font-family="Helvetica,sans-Serif" font-size="10.00" fill="#000000">&#45; values</text>
<polyline fill="none" stroke="#000000" points="14,-275.5 148,-275.5 "/>
<text text-anchor="start" x="22" y="-263.5" font-family="Helvetica,sans-Serif" font-size="10.00" fill="#000000">+ getValues()</text>
<text text-anchor="start" x="22" y="-252.5" font-family="Helvetica,sans-Serif" font-size="10.00" fill="#000000">+ addValue()</text>
<text text-anchor="start" x="22" y="-241.5" font-family="Helvetica,sans-Serif" font-size="10.00" fill="#000000">+ addValues()</text>
<text text-anchor="start" x="22" y="-230.5" font-family="Helvetica,sans-Serif" font-size="10.00" fill="#000000">+ toString()</text>
</a>
</g>
</g>
<!-- Node1&#45;&gt;Node2 -->
<g id="edge2" class="edge">
<title>Node1&#45;&gt;Node2</title>
<path fill="none" stroke="#ffa500" d="M81,-361.8874C81,-349.5023 81,-336.6068 81,-324.6314"/>
<polygon fill="#ffa500" stroke="#ffa500" points="77.5001,-362.1394 81,-372.1394 84.5001,-362.1394 77.5001,-362.1394"/>
<text text-anchor="middle" x="104.5" y="-346" font-family="Helvetica,sans-Serif" font-size="10.00" fill="#000000"> &lt; String &gt;</text>
</g>
<!-- Node3 -->
<g id="node4" class="node">
<title>Node3</title>
<g id="a_node4"><a xlink:href="../../d5/df5/classorg_1_1cobbzilla_1_1util_1_1collection_1_1StringSetSource.html" target="_top" xlink:title="{org.cobbzilla.util.collection.\lStringSetSource\n||}">
<polygon fill="none" stroke="#000000" points="14,-117.5 14,-185.5 148,-185.5 148,-117.5 14,-117.5"/>
<text text-anchor="start" x="22" y="-173.5" font-family="Helvetica,sans-Serif" font-size="10.00" fill="#000000">org.cobbzilla.util.collection.</text>
<text text-anchor="middle" x="81" y="-162.5" font-family="Helvetica,sans-Serif" font-size="10.00" fill="#000000">StringSetSource</text>
<polyline fill="none" stroke="#000000" points="14,-155.5 148,-155.5 "/>
<text text-anchor="middle" x="81" y="-143.5" font-family="Helvetica,sans-Serif" font-size="10.00" fill="#000000"> </text>
<polyline fill="none" stroke="#000000" points="14,-136.5 148,-136.5 "/>
<text text-anchor="middle" x="81" y="-124.5" font-family="Helvetica,sans-Serif" font-size="10.00" fill="#000000"> </text>
</a>
</g>
</g>
<!-- Node2&#45;&gt;Node3 -->
<g id="edge3" class="edge">
<title>Node2&#45;&gt;Node3</title>
<path fill="none" stroke="#191970" d="M81,-213.186C81,-203.6659 81,-194.1318 81,-185.5036"/>
<polygon fill="none" stroke="#191970" points="77.5001,-213.4673 81,-223.4673 84.5001,-213.4674 77.5001,-213.4673"/>
</g>
<!-- Node4 -->
<g id="node5" class="node">
<title>Node4</title>
<g id="a_node5"><a xlink:href="../../d2/d5d/classorg_1_1cobbzilla_1_1util_1_1io_1_1PathListFileResolver.html" target="_top" xlink:title="{org.cobbzilla.util.io.Path\lListFileResolver\n||+ PathListFileResolver()\l+ resolve()\l}">
<polygon fill="none" stroke="#000000" points="20,-.5 20,-79.5 142,-79.5 142,-.5 20,-.5"/>
<text text-anchor="start" x="28" y="-67.5" font-family="Helvetica,sans-Serif" font-size="10.00" fill="#000000">org.cobbzilla.util.io.Path</text>
<text text-anchor="middle" x="81" y="-56.5" font-family="Helvetica,sans-Serif" font-size="10.00" fill="#000000">ListFileResolver</text>
<polyline fill="none" stroke="#000000" points="20,-49.5 142,-49.5 "/>
<text text-anchor="middle" x="81" y="-37.5" font-family="Helvetica,sans-Serif" font-size="10.00" fill="#000000"> </text>
<polyline fill="none" stroke="#000000" points="20,-30.5 142,-30.5 "/>
<text text-anchor="start" x="28" y="-18.5" font-family="Helvetica,sans-Serif" font-size="10.00" fill="#000000">+ PathListFileResolver()</text>
<text text-anchor="start" x="28" y="-7.5" font-family="Helvetica,sans-Serif" font-size="10.00" fill="#000000">+ resolve()</text>
</a>
</g>
</g>
<!-- Node3&#45;&gt;Node4 -->
<g id="edge4" class="edge">
<title>Node3&#45;&gt;Node4</title>
<path fill="none" stroke="#191970" d="M81,-107.3732C81,-98.2436 81,-88.6788 81,-79.718"/>
<polygon fill="none" stroke="#191970" points="77.5001,-107.4404 81,-117.4405 84.5001,-107.4405 77.5001,-107.4404"/>
</g>
</g>
</svg>
