<?xml version="1.0" encoding="UTF-8" standalone="no"?>
<!DOCTYPE svg PUBLIC "-//W3C//DTD SVG 1.1//EN"
 "http://www.w3.org/Graphics/SVG/1.1/DTD/svg11.dtd">
<!-- Generated by graphviz version 2.40.1 (20161225.0304)
 -->
<!-- Title: org.cobbzilla.util.handlebars.HandlebarsUtil Pages: 1 -->
<!--zoomable 661 -->
<svg id="main" version="1.1" xmlns="http://www.w3.org/2000/svg" xmlns:xlink="http://www.w3.org/1999/xlink" xml:space="preserve" onload="init(evt)">
<style type="text/css"><![CDATA[
.edge:hover path { stroke: red; }
.edge:hover polygon { stroke: red; fill: red; }
]]></style>
<script type="text/javascript"><![CDATA[
var edges = document.getElementsByTagName('g');
if (edges && edges.length) {
  for (var i=0;i<edges.length;i++) {
    if (edges[i].id.substr(0,4)=='edge') {
      edges[i].setAttribute('class','edge');
    }
  }
}
]]></script>
        <defs>
                <circle id="rim" cx="0" cy="0" r="7"/>
                <circle id="rim2" cx="0" cy="0" r="3.5"/>
                <g id="zoomPlus">
                        <use xlink:href="#rim" fill="#404040">
                                <set attributeName="fill" to="#808080" begin="zoomplus.mouseover" end="zoomplus.mouseout"/>
                        </use>
                        <path d="M-4,0h8M0,-4v8" fill="none" stroke="white" stroke-width="1.5" pointer-events="none"/>
                </g>
                <g id="zoomMin">
                        <use xlink:href="#rim" fill="#404040">
                                <set attributeName="fill" to="#808080" begin="zoomminus.mouseover" end="zoomminus.mouseout"/>
                        </use>
                        <path d="M-4,0h8" fill="none" stroke="white" stroke-width="1.5" pointer-events="none"/>
                </g>
                <g id="dirArrow">
                        <path fill="none" stroke="white" stroke-width="1.5" d="M0,-3.0v7 M-2.5,-0.5L0,-3.0L2.5,-0.5"/>
                </g>
               <g id="resetDef">
                       <use xlink:href="#rim2" fill="#404040">
                               <set attributeName="fill" to="#808080" begin="reset.mouseover" end="reset.mouseout"/>
                       </use>
               </g>
        </defs>

<script type="text/javascript">
var viewWidth = 822;
var viewHeight = 661;
var sectionId = 'dynsection-1';
</script>
<script xlink:href="../../svgpan.js"/>
<svg id="graph" class="graph">
<g id="viewport">
<title>org.cobbzilla.util.handlebars.HandlebarsUtil</title>
<!-- Node2 -->
<g id="node1" class="node">
<title>Node2</title>
<polygon fill="#bfbfbf" stroke="#000000" points="266.5,-.5 266.5,-409.5 424.5,-409.5 424.5,-.5 266.5,-.5"/>
<text text-anchor="start" x="274.5" y="-397.5" font-family="Helvetica,sans-Serif" font-size="10.00" fill="#000000">org.cobbzilla.util.handlebars.</text>
<text text-anchor="middle" x="345.5" y="-386.5" font-family="Helvetica,sans-Serif" font-size="10.00" fill="#000000">HandlebarsUtil</text>
<polyline fill="none" stroke="#000000" points="266.5,-379.5 424.5,-379.5 "/>
<text text-anchor="start" x="274.5" y="-367.5" font-family="Helvetica,sans-Serif" font-size="10.00" fill="#000000">+ HB_START_CHAR</text>
<text text-anchor="start" x="274.5" y="-356.5" font-family="Helvetica,sans-Serif" font-size="10.00" fill="#000000">+ HB_END_CHAR</text>
<text text-anchor="start" x="274.5" y="-345.5" font-family="Helvetica,sans-Serif" font-size="10.00" fill="#000000">+ HB_START</text>
<text text-anchor="start" x="274.5" y="-334.5" font-family="Helvetica,sans-Serif" font-size="10.00" fill="#000000">+ HB_END</text>
<text text-anchor="start" x="274.5" y="-323.5" font-family="Helvetica,sans-Serif" font-size="10.00" fill="#000000">+ HB_LSTART</text>
<text text-anchor="start" x="274.5" y="-312.5" font-family="Helvetica,sans-Serif" font-size="10.00" fill="#000000">+ HB_LEND</text>
<text text-anchor="start" x="274.5" y="-301.5" font-family="Helvetica,sans-Serif" font-size="10.00" fill="#000000">+ DEFAULT_FLOAT_FORMAT</text>
<text text-anchor="start" x="274.5" y="-290.5" font-family="Helvetica,sans-Serif" font-size="10.00" fill="#000000">+ DUMMY_START3</text>
<text text-anchor="start" x="274.5" y="-279.5" font-family="Helvetica,sans-Serif" font-size="10.00" fill="#000000">+ DUMMY_START2</text>
<text text-anchor="start" x="274.5" y="-268.5" font-family="Helvetica,sans-Serif" font-size="10.00" fill="#000000">+ DUMMY_END3</text>
<text text-anchor="start" x="274.5" y="-257.5" font-family="Helvetica,sans-Serif" font-size="10.00" fill="#000000">+ DUMMY_END2</text>
<text text-anchor="start" x="274.5" y="-246.5" font-family="Helvetica,sans-Serif" font-size="10.00" fill="#000000">+ EMPTY_SAFE_STRING</text>
<text text-anchor="start" x="274.5" y="-235.5" font-family="Helvetica,sans-Serif" font-size="10.00" fill="#000000">+ CLOSE_XML_DECL</text>
<text text-anchor="start" x="274.5" y="-224.5" font-family="Helvetica,sans-Serif" font-size="10.00" fill="#000000">+ DEFAULT_FILE_RESOLVER</text>
<text text-anchor="start" x="274.5" y="-213.5" font-family="Helvetica,sans-Serif" font-size="10.00" fill="#000000">&#45; sourceName</text>
<text text-anchor="start" x="274.5" y="-202.5" font-family="Helvetica,sans-Serif" font-size="10.00" fill="#000000">&#45; defaultTimeZone</text>
<polyline fill="none" stroke="#000000" points="266.5,-195.5 424.5,-195.5 "/>
<text text-anchor="start" x="274.5" y="-183.5" font-family="Helvetica,sans-Serif" font-size="10.00" fill="#000000">+ sourceAt()</text>
<text text-anchor="start" x="274.5" y="-172.5" font-family="Helvetica,sans-Serif" font-size="10.00" fill="#000000">+ apply()</text>
<text text-anchor="start" x="274.5" y="-161.5" font-family="Helvetica,sans-Serif" font-size="10.00" fill="#000000">+ apply()</text>
<text text-anchor="start" x="274.5" y="-150.5" font-family="Helvetica,sans-Serif" font-size="10.00" fill="#000000">+ apply()</text>
<text text-anchor="start" x="274.5" y="-139.5" font-family="Helvetica,sans-Serif" font-size="10.00" fill="#000000">+ apply()</text>
<text text-anchor="start" x="274.5" y="-128.5" font-family="Helvetica,sans-Serif" font-size="10.00" fill="#000000">+ applyReflectively()</text>
<text text-anchor="start" x="274.5" y="-117.5" font-family="Helvetica,sans-Serif" font-size="10.00" fill="#000000">+ applyReflectively()</text>
<text text-anchor="start" x="274.5" y="-106.5" font-family="Helvetica,sans-Serif" font-size="10.00" fill="#000000">+ setMessageSender()</text>
<text text-anchor="start" x="274.5" y="-95.5" font-family="Helvetica,sans-Serif" font-size="10.00" fill="#000000">+ registerUtilityHelpers()</text>
<text text-anchor="start" x="274.5" y="-84.5" font-family="Helvetica,sans-Serif" font-size="10.00" fill="#000000">+ getComparisonArgParam()</text>
<text text-anchor="start" x="274.5" y="-73.5" font-family="Helvetica,sans-Serif" font-size="10.00" fill="#000000">+ getEmailRecipient()</text>
<text text-anchor="start" x="274.5" y="-62.5" font-family="Helvetica,sans-Serif" font-size="10.00" fill="#000000">and 12 more...</text>
<text text-anchor="start" x="274.5" y="-51.5" font-family="Helvetica,sans-Serif" font-size="10.00" fill="#000000">&#45; canApplyReflectively()</text>
<text text-anchor="start" x="274.5" y="-40.5" font-family="Helvetica,sans-Serif" font-size="10.00" fill="#000000">&#45; getIterator()</text>
<text text-anchor="start" x="274.5" y="-29.5" font-family="Helvetica,sans-Serif" font-size="10.00" fill="#000000">&#45; cval()</text>
<text text-anchor="start" x="274.5" y="-18.5" font-family="Helvetica,sans-Serif" font-size="10.00" fill="#000000">&#45; longVal()</text>
<text text-anchor="start" x="274.5" y="-7.5" font-family="Helvetica,sans-Serif" font-size="10.00" fill="#000000">&#45; longVal()</text>
</g>
<!-- Node3 -->
<g id="node2" class="node">
<title>Node3</title>
<polygon fill="none" stroke="#bfbfbf" points="0,-463 0,-520 123,-520 123,-463 0,-463"/>
<text text-anchor="middle" x="61.5" y="-508" font-family="Helvetica,sans-Serif" font-size="10.00" fill="#000000">AbstractTemplateLoader</text>
<polyline fill="none" stroke="#bfbfbf" points="0,-501 123,-501 "/>
<text text-anchor="middle" x="61.5" y="-489" font-family="Helvetica,sans-Serif" font-size="10.00" fill="#000000"> </text>
<polyline fill="none" stroke="#bfbfbf" points="0,-482 123,-482 "/>
<text text-anchor="middle" x="61.5" y="-470" font-family="Helvetica,sans-Serif" font-size="10.00" fill="#000000"> </text>
</g>
<!-- Node3&#45;&gt;Node2 -->
<g id="edge1" class="edge">
<title>Node3&#45;&gt;Node2</title>
<path fill="none" stroke="#191970" d="M97.0323,-455.6549C139.173,-413.1433 210.6932,-340.9935 266.2103,-284.9877"/>
<polygon fill="none" stroke="#191970" points="94.3236,-453.4158 89.7693,-462.9819 99.295,-458.3439 94.3236,-453.4158"/>
</g>
<!-- Node4 -->
<g id="node3" class="node">
<title>Node4</title>
<polygon fill="none" stroke="#bfbfbf" points="141.5,-457.5 141.5,-525.5 301.5,-525.5 301.5,-457.5 141.5,-457.5"/>
<text text-anchor="start" x="149.5" y="-513.5" font-family="Helvetica,sans-Serif" font-size="10.00" fill="#000000">Map&lt; String, org.cobbzilla.util.io.</text>
<text text-anchor="middle" x="221.5" y="-502.5" font-family="Helvetica,sans-Serif" font-size="10.00" fill="#000000">FileResolver &gt;</text>
<polyline fill="none" stroke="#bfbfbf" points="141.5,-495.5 301.5,-495.5 "/>
<text text-anchor="middle" x="221.5" y="-483.5" font-family="Helvetica,sans-Serif" font-size="10.00" fill="#000000"> </text>
<polyline fill="none" stroke="#bfbfbf" points="141.5,-476.5 301.5,-476.5 "/>
<text text-anchor="middle" x="221.5" y="-464.5" font-family="Helvetica,sans-Serif" font-size="10.00" fill="#000000"> </text>
</g>
<!-- Node4&#45;&gt;Node2 -->
<g id="edge2" class="edge">
<title>Node4&#45;&gt;Node2</title>
<path fill="none" stroke="#404040" d="M236.3341,-457.226C243.2397,-441.2708 252.053,-420.9079 261.6695,-398.689"/>
<polygon fill="none" stroke="#404040" points="261.6836,-398.6564 260.3959,-391.5612 266.45,-387.6436 267.7377,-394.7389 261.6836,-398.6564"/>
<text text-anchor="middle" x="287" y="-431" font-family="Helvetica,sans-Serif" font-size="10.00" fill="#000000"> &#45;fileResolverMap</text>
</g>
<!-- Node5 -->
<g id="node4" class="node">
<title>Node5</title>
<polygon fill="none" stroke="#bfbfbf" points="204,-595.5 204,-652.5 239,-652.5 239,-595.5 204,-595.5"/>
<text text-anchor="middle" x="221.5" y="-640.5" font-family="Helvetica,sans-Serif" font-size="10.00" fill="#000000">Map</text>
<polyline fill="none" stroke="#bfbfbf" points="204,-633.5 239,-633.5 "/>
<text text-anchor="middle" x="221.5" y="-621.5" font-family="Helvetica,sans-Serif" font-size="10.00" fill="#000000"> </text>
<polyline fill="none" stroke="#bfbfbf" points="204,-614.5 239,-614.5 "/>
<text text-anchor="middle" x="221.5" y="-602.5" font-family="Helvetica,sans-Serif" font-size="10.00" fill="#000000"> </text>
</g>
<!-- Node5&#45;&gt;Node4 -->
<g id="edge3" class="edge">
<title>Node5&#45;&gt;Node4</title>
<path fill="none" stroke="#ffa500" d="M221.5,-585.2195C221.5,-566.4117 221.5,-544.0145 221.5,-525.8321"/>
<polygon fill="#ffa500" stroke="#ffa500" points="218.0001,-585.2494 221.5,-595.2495 225.0001,-585.2495 218.0001,-585.2494"/>
<text text-anchor="start" x="221.5" y="-563.5" font-family="Helvetica,sans-Serif" font-size="10.00" fill="#000000"> &lt; String, org::cobbzilla</text>
<text text-anchor="middle" x="273" y="-552.5" font-family="Helvetica,sans-Serif" font-size="10.00" fill="#000000">::util::io::FileResolver &gt;</text>
</g>
<!-- Node6 -->
<g id="node5" class="node">
<title>Node6</title>
<polygon fill="none" stroke="#bfbfbf" points="320,-463 320,-520 419,-520 419,-463 320,-463"/>
<text text-anchor="middle" x="369.5" y="-508" font-family="Helvetica,sans-Serif" font-size="10.00" fill="#000000">JsonStringEncoder</text>
<polyline fill="none" stroke="#bfbfbf" points="320,-501 419,-501 "/>
<text text-anchor="middle" x="369.5" y="-489" font-family="Helvetica,sans-Serif" font-size="10.00" fill="#000000"> </text>
<polyline fill="none" stroke="#bfbfbf" points="320,-482 419,-482 "/>
<text text-anchor="middle" x="369.5" y="-470" font-family="Helvetica,sans-Serif" font-size="10.00" fill="#000000"> </text>
</g>
<!-- Node6&#45;&gt;Node2 -->
<g id="edge4" class="edge">
<title>Node6&#45;&gt;Node2</title>
<path fill="none" stroke="#404040" d="M354.4095,-462.7724C351.1568,-455.2382 348.1897,-446.9829 346.5,-439 345.3012,-433.3364 344.2327,-427.5782 343.2838,-421.7536"/>
<polygon fill="none" stroke="#404040" points="343.2588,-421.584 338.4228,-416.2348 341.5006,-409.7135 346.3365,-415.0627 343.2588,-421.584"/>
<text text-anchor="middle" x="414.5" y="-431" font-family="Helvetica,sans-Serif" font-size="10.00" fill="#000000"> +JSON_STRING_ENCODER</text>
</g>
<!-- Node7 -->
<g id="node6" class="node">
<title>Node7</title>
<polygon fill="none" stroke="#bfbfbf" points="460,-463 460,-520 549,-520 549,-463 460,-463"/>
<text text-anchor="middle" x="504.5" y="-508" font-family="Helvetica,sans-Serif" font-size="10.00" fill="#000000">ExecutorService</text>
<polyline fill="none" stroke="#bfbfbf" points="460,-501 549,-501 "/>
<text text-anchor="middle" x="504.5" y="-489" font-family="Helvetica,sans-Serif" font-size="10.00" fill="#000000"> </text>
<polyline fill="none" stroke="#bfbfbf" points="460,-482 549,-482 "/>
<text text-anchor="middle" x="504.5" y="-470" font-family="Helvetica,sans-Serif" font-size="10.00" fill="#000000"> </text>
</g>
<!-- Node7&#45;&gt;Node2 -->
<g id="edge5" class="edge">
<title>Node7&#45;&gt;Node2</title>
<path fill="none" stroke="#404040" d="M496.0389,-462.841C492.3855,-451.7442 487.7425,-439.0722 482.5,-428 467.5849,-396.4991 449.3081,-363.8547 431.0231,-333.5802"/>
<polygon fill="none" stroke="#404040" points="430.8057,-333.2234 424.2675,-330.1815 424.5607,-322.9764 431.0989,-326.0182 430.8057,-333.2234"/>
<text text-anchor="middle" x="522.5" y="-431" font-family="Helvetica,sans-Serif" font-size="10.00" fill="#000000"> &#45;contextSender</text>
</g>
<!-- Node8 -->
<g id="node7" class="node">
<title>Node8</title>
<polygon fill="none" stroke="#bfbfbf" points="567,-457.5 567,-525.5 792,-525.5 792,-457.5 567,-457.5"/>
<text text-anchor="start" x="575" y="-513.5" font-family="Helvetica,sans-Serif" font-size="10.00" fill="#000000">AtomicReference&lt; org.cobbzilla.util.handlebars.</text>
<text text-anchor="middle" x="679.5" y="-502.5" font-family="Helvetica,sans-Serif" font-size="10.00" fill="#000000">ContextMessageSender &gt;</text>
<polyline fill="none" stroke="#bfbfbf" points="567,-495.5 792,-495.5 "/>
<text text-anchor="middle" x="679.5" y="-483.5" font-family="Helvetica,sans-Serif" font-size="10.00" fill="#000000"> </text>
<polyline fill="none" stroke="#bfbfbf" points="567,-476.5 792,-476.5 "/>
<text text-anchor="middle" x="679.5" y="-464.5" font-family="Helvetica,sans-Serif" font-size="10.00" fill="#000000"> </text>
</g>
<!-- Node8&#45;&gt;Node2 -->
<g id="edge6" class="edge">
<title>Node8&#45;&gt;Node2</title>
<path fill="none" stroke="#404040" d="M639.5436,-457.226C589.0216,-413.889 500.589,-338.0329 433.8619,-280.7955"/>
<polygon fill="none" stroke="#404040" points="433.7049,-280.6608 426.5465,-279.7904 424.5967,-272.8479 431.7551,-273.7183 433.7049,-280.6608"/>
<text text-anchor="middle" x="655" y="-431" font-family="Helvetica,sans-Serif" font-size="10.00" fill="#000000"> &#45;messageSender</text>
</g>
<!-- Node9 -->
<g id="node8" class="node">
<title>Node9</title>
<polygon fill="none" stroke="#bfbfbf" points="633.5,-595.5 633.5,-652.5 725.5,-652.5 725.5,-595.5 633.5,-595.5"/>
<text text-anchor="middle" x="679.5" y="-640.5" font-family="Helvetica,sans-Serif" font-size="10.00" fill="#000000">AtomicReference</text>
<polyline fill="none" stroke="#bfbfbf" points="633.5,-633.5 725.5,-633.5 "/>
<text text-anchor="middle" x="679.5" y="-621.5" font-family="Helvetica,sans-Serif" font-size="10.00" fill="#000000"> </text>
<polyline fill="none" stroke="#bfbfbf" points="633.5,-614.5 725.5,-614.5 "/>
<text text-anchor="middle" x="679.5" y="-602.5" font-family="Helvetica,sans-Serif" font-size="10.00" fill="#000000"> </text>
</g>
<!-- Node9&#45;&gt;Node8 -->
<g id="edge7" class="edge">
<title>Node9&#45;&gt;Node8</title>
<path fill="none" stroke="#ffa500" d="M679.5,-585.2195C679.5,-566.4117 679.5,-544.0145 679.5,-525.8321"/>
<polygon fill="#ffa500" stroke="#ffa500" points="676.0001,-585.2494 679.5,-595.2495 683.0001,-585.2495 676.0001,-585.2494"/>
<text text-anchor="start" x="679.5" y="-569" font-family="Helvetica,sans-Serif" font-size="10.00" fill="#000000"> &lt; org::cobbzilla::util</text>
<text text-anchor="start" x="679.5" y="-558" font-family="Helvetica,sans-Serif" font-size="10.00" fill="#000000">::handlebars::ContextMessage</text>
<text text-anchor="middle" x="746.5" y="-547" font-family="Helvetica,sans-Serif" font-size="10.00" fill="#000000">Sender &gt;</text>
</g>
</g>
</svg>
        <g id="navigator" transform="translate(0 0)" fill="#404254">
                <rect fill="#f2f5e9" fill-opacity="0.5" stroke="#606060" stroke-width=".5" x="0" y="0" width="60" height="60"/>
                <use id="zoomplus" xlink:href="#zoomPlus" x="17" y="9" onmousedown="handleZoom(evt,'in')"/>
                <use id="zoomminus" xlink:href="#zoomMin" x="42" y="9" onmousedown="handleZoom(evt,'out')"/>
                <use id="reset" xlink:href="#resetDef" x="30" y="36" onmousedown="handleReset()"/>
                <g id="arrowUp" xlink:href="#dirArrow" transform="translate(30 24)" onmousedown="handlePan(0,-1)">
                  <use xlink:href="#rim" fill="#404040">
                        <set attributeName="fill" to="#808080" begin="arrowUp.mouseover" end="arrowUp.mouseout"/>
                  </use>
                  <path fill="none" stroke="white" stroke-width="1.5" d="M0,-3.0v7 M-2.5,-0.5L0,-3.0L2.5,-0.5"/>
                </g>
                <g id="arrowRight" xlink:href="#dirArrow" transform="rotate(90) translate(36 -43)" onmousedown="handlePan(1,0)">
                  <use xlink:href="#rim" fill="#404040">
                        <set attributeName="fill" to="#808080" begin="arrowRight.mouseover" end="arrowRight.mouseout"/>
                  </use>
                  <path fill="none" stroke="white" stroke-width="1.5" d="M0,-3.0v7 M-2.5,-0.5L0,-3.0L2.5,-0.5"/>
                </g>
                <g id="arrowDown" xlink:href="#dirArrow" transform="rotate(180) translate(-30 -48)" onmousedown="handlePan(0,1)">
                  <use xlink:href="#rim" fill="#404040">
                        <set attributeName="fill" to="#808080" begin="arrowDown.mouseover" end="arrowDown.mouseout"/>
                  </use>
                  <path fill="none" stroke="white" stroke-width="1.5" d="M0,-3.0v7 M-2.5,-0.5L0,-3.0L2.5,-0.5"/>
                </g>
                <g id="arrowLeft" xlink:href="#dirArrow" transform="rotate(270) translate(-36 17)" onmousedown="handlePan(-1,0)">
                  <use xlink:href="#rim" fill="#404040">
                        <set attributeName="fill" to="#808080" begin="arrowLeft.mouseover" end="arrowLeft.mouseout"/>
                  </use>
                  <path fill="none" stroke="white" stroke-width="1.5" d="M0,-3.0v7 M-2.5,-0.5L0,-3.0L2.5,-0.5"/>
                </g>
        </g>
        <svg viewBox="0 0 15 15" width="100%" height="30px" preserveAspectRatio="xMaxYMin meet">
         <g id="arrow_out" transform="scale(0.3 0.3)">
          <a xlink:href="classorg_1_1cobbzilla_1_1util_1_1handlebars_1_1HandlebarsUtil__coll__graph_org.svg" target="_base">
           <rect id="button" ry="5" rx="5" y="6" x="6" height="38" width="38"
                fill="#f2f5e9" fill-opacity="0.5" stroke="#606060" stroke-width="1.0"/>
           <path id="arrow"
             d="M 11.500037,31.436501 C 11.940474,20.09759 22.043105,11.32322 32.158766,21.979434 L 37.068811,17.246167 C 37.068811,17.246167 37.088388,32 37.088388,32 L 22.160133,31.978069 C 22.160133,31.978069 26.997745,27.140456 26.997745,27.140456 C 18.528582,18.264221 13.291696,25.230495 11.500037,31.436501 z"
             style="fill:#404040;"/>
          </a>
         </g>
        </svg>
</svg>
