<?xml version="1.0" encoding="UTF-8" standalone="no"?>
<!DOCTYPE svg PUBLIC "-//W3C//DTD SVG 1.1//EN"
 "http://www.w3.org/Graphics/SVG/1.1/DTD/svg11.dtd">
<!-- Generated by graphviz version 2.40.1 (20161225.0304)
 -->
<!-- Title: org.cobbzilla.util.collection.AllowNullComparator&lt; E &gt; Pages: 1 -->
<svg width="502pt" height="332pt"
 viewBox="0.00 0.00 502.00 332.00" xmlns="http://www.w3.org/2000/svg" xmlns:xlink="http://www.w3.org/1999/xlink">
<g id="graph0" class="graph" transform="scale(1 1) rotate(0) translate(4 328)">
<title>org.cobbzilla.util.collection.AllowNullComparator&lt; E &gt;</title>
<!-- Node0 -->
<g id="node1" class="node">
<title>Node0</title>
<polygon fill="#bfbfbf" stroke="#000000" points="182,-138.5 182,-228.5 316,-228.5 316,-138.5 182,-138.5"/>
<text text-anchor="start" x="190" y="-216.5" font-family="Helvetica,sans-Serif" font-size="10.00" fill="#000000">org.cobbzilla.util.collection.</text>
<text text-anchor="middle" x="249" y="-205.5" font-family="Helvetica,sans-Serif" font-size="10.00" fill="#000000">AllowNullComparator&lt; E &gt;</text>
<polyline fill="none" stroke="#000000" points="182,-198.5 316,-198.5 "/>
<text text-anchor="start" x="190" y="-186.5" font-family="Helvetica,sans-Serif" font-size="10.00" fill="#000000">+ STRING</text>
<text text-anchor="start" x="190" y="-175.5" font-family="Helvetica,sans-Serif" font-size="10.00" fill="#000000">+ INT</text>
<text text-anchor="start" x="190" y="-164.5" font-family="Helvetica,sans-Serif" font-size="10.00" fill="#000000">+ LONG</text>
<polyline fill="none" stroke="#000000" points="182,-157.5 316,-157.5 "/>
<text text-anchor="start" x="190" y="-145.5" font-family="Helvetica,sans-Serif" font-size="10.00" fill="#000000">+ compare()</text>
</g>
<!-- Node2 -->
<g id="node3" class="node">
<title>Node2</title>
<g id="a_node3"><a xlink:href="../../d5/def/classorg_1_1cobbzilla_1_1util_1_1collection_1_1AllowNullComparator.html" target="_top" xlink:title="{org.cobbzilla.util.collection.\lAllowNullComparator\&lt; String \&gt;\n|+ STRING\l+ INT\l+ LONG\l|+ compare()\l}">
<polygon fill="none" stroke="#000000" points="0,-.5 0,-90.5 152,-90.5 152,-.5 0,-.5"/>
<text text-anchor="start" x="8" y="-78.5" font-family="Helvetica,sans-Serif" font-size="10.00" fill="#000000">org.cobbzilla.util.collection.</text>
<text text-anchor="middle" x="76" y="-67.5" font-family="Helvetica,sans-Serif" font-size="10.00" fill="#000000">AllowNullComparator&lt; String &gt;</text>
<polyline fill="none" stroke="#000000" points="0,-60.5 152,-60.5 "/>
<text text-anchor="start" x="8" y="-48.5" font-family="Helvetica,sans-Serif" font-size="10.00" fill="#000000">+ STRING</text>
<text text-anchor="start" x="8" y="-37.5" font-family="Helvetica,sans-Serif" font-size="10.00" fill="#000000">+ INT</text>
<text text-anchor="start" x="8" y="-26.5" font-family="Helvetica,sans-Serif" font-size="10.00" fill="#000000">+ LONG</text>
<polyline fill="none" stroke="#000000" points="0,-19.5 152,-19.5 "/>
<text text-anchor="start" x="8" y="-7.5" font-family="Helvetica,sans-Serif" font-size="10.00" fill="#000000">+ compare()</text>
</a>
</g>
</g>
<!-- Node0&#45;&gt;Node2 -->
<g id="edge2" class="edge">
<title>Node0&#45;&gt;Node2</title>
<path fill="none" stroke="#ffa500" d="M184.1262,-131.751C167.1474,-118.2072 148.9807,-103.7158 132.4783,-90.5521"/>
<polygon fill="#ffa500" stroke="#ffa500" points="182.3532,-134.8138 192.3533,-138.3136 186.7184,-129.3415 182.3532,-134.8138"/>
<text text-anchor="middle" x="191.5" y="-112" font-family="Helvetica,sans-Serif" font-size="10.00" fill="#000000"> &lt; String &gt;</text>
</g>
<!-- Node3 -->
<g id="node4" class="node">
<title>Node3</title>
<g id="a_node4"><a xlink:href="../../d5/def/classorg_1_1cobbzilla_1_1util_1_1collection_1_1AllowNullComparator.html" target="_top" xlink:title="{org.cobbzilla.util.collection.\lAllowNullComparator\&lt; Integer \&gt;\n|+ STRING\l+ INT\l+ LONG\l|+ compare()\l}">
<polygon fill="none" stroke="#000000" points="170.5,-.5 170.5,-90.5 327.5,-90.5 327.5,-.5 170.5,-.5"/>
<text text-anchor="start" x="178.5" y="-78.5" font-family="Helvetica,sans-Serif" font-size="10.00" fill="#000000">org.cobbzilla.util.collection.</text>
<text text-anchor="middle" x="249" y="-67.5" font-family="Helvetica,sans-Serif" font-size="10.00" fill="#000000">AllowNullComparator&lt; Integer &gt;</text>
<polyline fill="none" stroke="#000000" points="170.5,-60.5 327.5,-60.5 "/>
<text text-anchor="start" x="178.5" y="-48.5" font-family="Helvetica,sans-Serif" font-size="10.00" fill="#000000">+ STRING</text>
<text text-anchor="start" x="178.5" y="-37.5" font-family="Helvetica,sans-Serif" font-size="10.00" fill="#000000">+ INT</text>
<text text-anchor="start" x="178.5" y="-26.5" font-family="Helvetica,sans-Serif" font-size="10.00" fill="#000000">+ LONG</text>
<polyline fill="none" stroke="#000000" points="170.5,-19.5 327.5,-19.5 "/>
<text text-anchor="start" x="178.5" y="-7.5" font-family="Helvetica,sans-Serif" font-size="10.00" fill="#000000">+ compare()</text>
</a>
</g>
</g>
<!-- Node0&#45;&gt;Node3 -->
<g id="edge3" class="edge">
<title>Node0&#45;&gt;Node3</title>
<path fill="none" stroke="#ffa500" d="M249,-128.089C249,-115.7026 249,-102.7078 249,-90.7879"/>
<polygon fill="#ffa500" stroke="#ffa500" points="245.5001,-128.3136 249,-138.3136 252.5001,-128.3137 245.5001,-128.3136"/>
<text text-anchor="middle" x="275" y="-112" font-family="Helvetica,sans-Serif" font-size="10.00" fill="#000000"> &lt; Integer &gt;</text>
</g>
<!-- Node4 -->
<g id="node5" class="node">
<title>Node4</title>
<g id="a_node5"><a xlink:href="../../d5/def/classorg_1_1cobbzilla_1_1util_1_1collection_1_1AllowNullComparator.html" target="_top" xlink:title="{org.cobbzilla.util.collection.\lAllowNullComparator\&lt; Long \&gt;\n|+ STRING\l+ INT\l+ LONG\l|+ compare()\l}">
<polygon fill="none" stroke="#000000" points="346,-.5 346,-90.5 494,-90.5 494,-.5 346,-.5"/>
<text text-anchor="start" x="354" y="-78.5" font-family="Helvetica,sans-Serif" font-size="10.00" fill="#000000">org.cobbzilla.util.collection.</text>
<text text-anchor="middle" x="420" y="-67.5" font-family="Helvetica,sans-Serif" font-size="10.00" fill="#000000">AllowNullComparator&lt; Long &gt;</text>
<polyline fill="none" stroke="#000000" points="346,-60.5 494,-60.5 "/>
<text text-anchor="start" x="354" y="-48.5" font-family="Helvetica,sans-Serif" font-size="10.00" fill="#000000">+ STRING</text>
<text text-anchor="start" x="354" y="-37.5" font-family="Helvetica,sans-Serif" font-size="10.00" fill="#000000">+ INT</text>
<text text-anchor="start" x="354" y="-26.5" font-family="Helvetica,sans-Serif" font-size="10.00" fill="#000000">+ LONG</text>
<polyline fill="none" stroke="#000000" points="346,-19.5 494,-19.5 "/>
<text text-anchor="start" x="354" y="-7.5" font-family="Helvetica,sans-Serif" font-size="10.00" fill="#000000">+ compare()</text>
</a>
</g>
</g>
<!-- Node0&#45;&gt;Node4 -->
<g id="edge4" class="edge">
<title>Node0&#45;&gt;Node4</title>
<path fill="none" stroke="#ffa500" d="M313.1238,-131.751C329.9063,-118.2072 347.863,-103.7158 364.1746,-90.5521"/>
<polygon fill="#ffa500" stroke="#ffa500" points="310.5757,-129.3097 304.9918,-138.3136 314.9719,-134.7571 310.5757,-129.3097"/>
<text text-anchor="middle" x="361.5" y="-112" font-family="Helvetica,sans-Serif" font-size="10.00" fill="#000000"> &lt; Long &gt;</text>
</g>
<!-- Node1 -->
<g id="node2" class="node">
<title>Node1</title>
<polygon fill="none" stroke="#bfbfbf" points="181.5,-266.5 181.5,-323.5 316.5,-323.5 316.5,-266.5 181.5,-266.5"/>
<text text-anchor="middle" x="249" y="-311.5" font-family="Helvetica,sans-Serif" font-size="10.00" fill="#000000">java::util::Comparator&lt; E &gt;</text>
<polyline fill="none" stroke="#bfbfbf" points="181.5,-304.5 316.5,-304.5 "/>
<text text-anchor="middle" x="249" y="-292.5" font-family="Helvetica,sans-Serif" font-size="10.00" fill="#000000"> </text>
<polyline fill="none" stroke="#bfbfbf" points="181.5,-285.5 316.5,-285.5 "/>
<text text-anchor="middle" x="249" y="-273.5" font-family="Helvetica,sans-Serif" font-size="10.00" fill="#000000"> </text>
</g>
<!-- Node1&#45;&gt;Node0 -->
<g id="edge1" class="edge">
<title>Node1&#45;&gt;Node0</title>
<path fill="none" stroke="#191970" d="M249,-256.178C249,-247.2649 249,-237.7141 249,-228.5626"/>
<polygon fill="none" stroke="#191970" points="245.5001,-256.2859 249,-266.286 252.5001,-256.286 245.5001,-256.2859"/>
</g>
</g>
</svg>
