<?xml version="1.0" encoding="UTF-8" standalone="no"?>
<!DOCTYPE svg PUBLIC "-//W3C//DTD SVG 1.1//EN"
 "http://www.w3.org/Graphics/SVG/1.1/DTD/svg11.dtd">
<!-- Generated by graphviz version 2.40.1 (20161225.0304)
 -->
<!-- Title: org.cobbzilla.util.io.DeleteOnExit Pages: 1 -->
<svg width="137pt" height="204pt"
 viewBox="0.00 0.00 137.00 204.00" xmlns="http://www.w3.org/2000/svg" xmlns:xlink="http://www.w3.org/1999/xlink">
<g id="graph0" class="graph" transform="scale(1 1) rotate(0) translate(4 200)">
<title>org.cobbzilla.util.io.DeleteOnExit</title>
<!-- Node0 -->
<g id="node1" class="node">
<title>Node0</title>
<polygon fill="#bfbfbf" stroke="#000000" points="0,-.5 0,-101.5 129,-101.5 129,-.5 0,-.5"/>
<text text-anchor="start" x="8" y="-89.5" font-family="Helvetica,sans-Serif" font-size="10.00" fill="#000000">org.cobbzilla.util.io.Delete</text>
<text text-anchor="middle" x="64.5" y="-78.5" font-family="Helvetica,sans-Serif" font-size="10.00" fill="#000000">OnExit</text>
<polyline fill="none" stroke="#000000" points="0,-71.5 129,-71.5 "/>
<text text-anchor="start" x="8" y="-59.5" font-family="Helvetica,sans-Serif" font-size="10.00" fill="#000000">&#45; paths</text>
<polyline fill="none" stroke="#000000" points="0,-52.5 129,-52.5 "/>
<text text-anchor="start" x="8" y="-40.5" font-family="Helvetica,sans-Serif" font-size="10.00" fill="#000000">+ run()</text>
<text text-anchor="start" x="8" y="-29.5" font-family="Helvetica,sans-Serif" font-size="10.00" fill="#000000">+ add()</text>
<text text-anchor="start" x="8" y="-18.5" font-family="Helvetica,sans-Serif" font-size="10.00" fill="#000000">~ [static initializer]()</text>
<text text-anchor="start" x="8" y="-7.5" font-family="Helvetica,sans-Serif" font-size="10.00" fill="#000000">&#45; DeleteOnExit()</text>
</g>
<!-- Node1 -->
<g id="node2" class="node">
<title>Node1</title>
<polygon fill="none" stroke="#bfbfbf" points="35.5,-138.5 35.5,-195.5 93.5,-195.5 93.5,-138.5 35.5,-138.5"/>
<text text-anchor="middle" x="64.5" y="-183.5" font-family="Helvetica,sans-Serif" font-size="10.00" fill="#000000">Runnable</text>
<polyline fill="none" stroke="#bfbfbf" points="35.5,-176.5 93.5,-176.5 "/>
<text text-anchor="middle" x="64.5" y="-164.5" font-family="Helvetica,sans-Serif" font-size="10.00" fill="#000000"> </text>
<polyline fill="none" stroke="#bfbfbf" points="35.5,-157.5 93.5,-157.5 "/>
<text text-anchor="middle" x="64.5" y="-145.5" font-family="Helvetica,sans-Serif" font-size="10.00" fill="#000000"> </text>
</g>
<!-- Node1&#45;&gt;Node0 -->
<g id="edge1" class="edge">
<title>Node1&#45;&gt;Node0</title>
<path fill="none" stroke="#191970" d="M64.5,-128.0826C64.5,-119.6942 64.5,-110.7064 64.5,-101.9373"/>
<polygon fill="none" stroke="#191970" points="61.0001,-128.3258 64.5,-138.3258 68.0001,-128.3259 61.0001,-128.3258"/>
</g>
</g>
</svg>
