<?xml version="1.0" encoding="UTF-8" standalone="no"?>
<!DOCTYPE svg PUBLIC "-//W3C//DTD SVG 1.1//EN"
 "http://www.w3.org/Graphics/SVG/1.1/DTD/svg11.dtd">
<!-- Generated by graphviz version 2.40.1 (20161225.0304)
 -->
<!-- Title: org.cobbzilla.util.network.NetworkUtil.isLocalIpv4 Pages: 1 -->
<svg width="318pt" height="88pt"
 viewBox="0.00 0.00 318.00 88.00" xmlns="http://www.w3.org/2000/svg" xmlns:xlink="http://www.w3.org/1999/xlink">
<g id="graph0" class="graph" transform="scale(1 1) rotate(0) translate(4 84)">
<title>org.cobbzilla.util.network.NetworkUtil.isLocalIpv4</title>
<!-- Node1 -->
<g id="node1" class="node">
<title>Node1</title>
<polygon fill="#bfbfbf" stroke="#000000" points="0,-24.5 0,-54.5 128,-54.5 128,-24.5 0,-24.5"/>
<text text-anchor="start" x="8" y="-42.5" font-family="Helvetica,sans-Serif" font-size="10.00" fill="#000000">org.cobbzilla.util.network.</text>
<text text-anchor="middle" x="64" y="-31.5" font-family="Helvetica,sans-Serif" font-size="10.00" fill="#000000">NetworkUtil.isLocalIpv4</text>
</g>
<!-- Node2 -->
<g id="node2" class="node">
<title>Node2</title>
<g id="a_node2"><a xlink:href="../../d0/d32/classorg_1_1cobbzilla_1_1util_1_1network_1_1NetworkUtil_ae77791607431409dff41efb6e4a6a878.html#ae77791607431409dff41efb6e4a6a878" target="_top" xlink:title="org.cobbzilla.util.network.\lNetworkUtil.getLocalhostIpv4">
<polygon fill="none" stroke="#000000" points="164,-49.5 164,-79.5 310,-79.5 310,-49.5 164,-49.5"/>
<text text-anchor="start" x="172" y="-67.5" font-family="Helvetica,sans-Serif" font-size="10.00" fill="#000000">org.cobbzilla.util.network.</text>
<text text-anchor="middle" x="237" y="-56.5" font-family="Helvetica,sans-Serif" font-size="10.00" fill="#000000">NetworkUtil.getLocalhostIpv4</text>
</a>
</g>
</g>
<!-- Node1&#45;&gt;Node2 -->
<g id="edge1" class="edge">
<title>Node1&#45;&gt;Node2</title>
<path fill="none" stroke="#191970" d="M138.5347,-50.2709C146.9077,-51.4809 155.4332,-52.7129 163.7892,-53.9204"/>
<polygon fill="#191970" stroke="#191970" points="138.8166,-46.7754 128.4188,-48.8091 137.8154,-53.7034 138.8166,-46.7754"/>
</g>
<!-- Node3 -->
<g id="node3" class="node">
<title>Node3</title>
<g id="a_node3"><a xlink:href="../../d0/d32/classorg_1_1cobbzilla_1_1util_1_1network_1_1NetworkUtil_a0c8fe4d7f88c2bbc73ae9700ceb564ae.html#a0c8fe4d7f88c2bbc73ae9700ceb564ae" target="_top" xlink:title="org.cobbzilla.util.network.\lNetworkUtil.isLocalHost">
<polygon fill="none" stroke="#000000" points="173,-.5 173,-30.5 301,-30.5 301,-.5 173,-.5"/>
<text text-anchor="start" x="181" y="-18.5" font-family="Helvetica,sans-Serif" font-size="10.00" fill="#000000">org.cobbzilla.util.network.</text>
<text text-anchor="middle" x="237" y="-7.5" font-family="Helvetica,sans-Serif" font-size="10.00" fill="#000000">NetworkUtil.isLocalHost</text>
</a>
</g>
</g>
<!-- Node1&#45;&gt;Node3 -->
<g id="edge2" class="edge">
<title>Node1&#45;&gt;Node3</title>
<path fill="none" stroke="#191970" d="M138.3944,-29.1794C149.8543,-27.5896 161.6034,-25.9596 172.8155,-24.4042"/>
<polygon fill="#191970" stroke="#191970" points="137.843,-25.7223 128.4188,-30.5633 138.8049,-32.6559 137.843,-25.7223"/>
</g>
</g>
</svg>
