<?xml version="1.0" encoding="UTF-8" standalone="no"?>
<!DOCTYPE svg PUBLIC "-//W3C//DTD SVG 1.1//EN"
 "http://www.w3.org/Graphics/SVG/1.1/DTD/svg11.dtd">
<!-- Generated by graphviz version 2.40.1 (20161225.0304)
 -->
<!-- Title: org.cobbzilla.util.network.NetworkUtil.getLocalhostIpv4 Pages: 1 -->
<svg width="362pt" height="88pt"
 viewBox="0.00 0.00 362.00 88.00" xmlns="http://www.w3.org/2000/svg" xmlns:xlink="http://www.w3.org/1999/xlink">
<g id="graph0" class="graph" transform="scale(1 1) rotate(0) translate(4 84)">
<title>org.cobbzilla.util.network.NetworkUtil.getLocalhostIpv4</title>
<!-- Node0 -->
<g id="node1" class="node">
<title>Node0</title>
<polygon fill="#bfbfbf" stroke="#000000" points="0,-24.5 0,-54.5 146,-54.5 146,-24.5 0,-24.5"/>
<text text-anchor="start" x="8" y="-42.5" font-family="Helvetica,sans-Serif" font-size="10.00" fill="#000000">org.cobbzilla.util.network.</text>
<text text-anchor="middle" x="73" y="-31.5" font-family="Helvetica,sans-Serif" font-size="10.00" fill="#000000">NetworkUtil.getLocalhostIpv4</text>
</g>
<!-- Node1 -->
<g id="node2" class="node">
<title>Node1</title>
<g id="a_node2"><a xlink:href="../../d0/d32/classorg_1_1cobbzilla_1_1util_1_1network_1_1NetworkUtil_ae9e6d8f7a916409141400e2f5f6a7821.html#ae9e6d8f7a916409141400e2f5f6a7821" target="_top" xlink:title="org.cobbzilla.util.network.\lNetworkUtil.getLocalInterfacePrefix">
<polygon fill="none" stroke="#000000" points="182,-49.5 182,-79.5 354,-79.5 354,-49.5 182,-49.5"/>
<text text-anchor="start" x="190" y="-67.5" font-family="Helvetica,sans-Serif" font-size="10.00" fill="#000000">org.cobbzilla.util.network.</text>
<text text-anchor="middle" x="268" y="-56.5" font-family="Helvetica,sans-Serif" font-size="10.00" fill="#000000">NetworkUtil.getLocalInterfacePrefix</text>
</a>
</g>
</g>
<!-- Node0&#45;&gt;Node1 -->
<g id="edge1" class="edge">
<title>Node0&#45;&gt;Node1</title>
<path fill="none" stroke="#191970" d="M146.1656,-48.8802C154.5546,-49.9557 163.2003,-51.0641 171.8321,-52.1708"/>
<polygon fill="#191970" stroke="#191970" points="171.5785,-55.6668 181.9425,-53.467 172.4687,-48.7237 171.5785,-55.6668"/>
</g>
<!-- Node2 -->
<g id="node3" class="node">
<title>Node2</title>
<g id="a_node3"><a xlink:href="../../d0/d32/classorg_1_1cobbzilla_1_1util_1_1network_1_1NetworkUtil_a14b235835bae799378bd34bd9b31406a.html#a14b235835bae799378bd34bd9b31406a" target="_top" xlink:title="org.cobbzilla.util.network.\lNetworkUtil.isLocalIpv4">
<polygon fill="none" stroke="#000000" points="204,-.5 204,-30.5 332,-30.5 332,-.5 204,-.5"/>
<text text-anchor="start" x="212" y="-18.5" font-family="Helvetica,sans-Serif" font-size="10.00" fill="#000000">org.cobbzilla.util.network.</text>
<text text-anchor="middle" x="268" y="-7.5" font-family="Helvetica,sans-Serif" font-size="10.00" fill="#000000">NetworkUtil.isLocalIpv4</text>
</a>
</g>
</g>
<!-- Node0&#45;&gt;Node2 -->
<g id="edge2" class="edge">
<title>Node0&#45;&gt;Node2</title>
<path fill="none" stroke="#191970" d="M146.1656,-30.495C161.6796,-28.5856 178.0718,-26.5681 193.63,-24.6532"/>
<polygon fill="#191970" stroke="#191970" points="194.2184,-28.1073 203.716,-23.4119 193.3633,-21.1597 194.2184,-28.1073"/>
</g>
</g>
</svg>
