<?xml version="1.0" encoding="UTF-8" standalone="no"?>
<!DOCTYPE svg PUBLIC "-//W3C//DTD SVG 1.1//EN"
 "http://www.w3.org/Graphics/SVG/1.1/DTD/svg11.dtd">
<!-- Generated by graphviz version 2.40.1 (20161225.0304)
 -->
<!-- Title: org.cobbzilla.util.network.NetworkUtil.getFirstEthernetIpv4 Pages: 1 -->
<svg width="540pt" height="50pt"
 viewBox="0.00 0.00 540.00 50.00" xmlns="http://www.w3.org/2000/svg" xmlns:xlink="http://www.w3.org/1999/xlink">
<g id="graph0" class="graph" transform="scale(1 1) rotate(0) translate(4 46)">
<title>org.cobbzilla.util.network.NetworkUtil.getFirstEthernetIpv4</title>
<!-- Node0 -->
<g id="node1" class="node">
<title>Node0</title>
<polygon fill="#bfbfbf" stroke="#000000" points="0,-6 0,-36 160,-36 160,-6 0,-6"/>
<text text-anchor="start" x="8" y="-24" font-family="Helvetica,sans-Serif" font-size="10.00" fill="#000000">org.cobbzilla.util.network.</text>
<text text-anchor="middle" x="80" y="-13" font-family="Helvetica,sans-Serif" font-size="10.00" fill="#000000">NetworkUtil.getFirstEthernetIpv4</text>
</g>
<!-- Node1 -->
<g id="node2" class="node">
<title>Node1</title>
<g id="a_node2"><a xlink:href="../../d0/d32/classorg_1_1cobbzilla_1_1util_1_1network_1_1NetworkUtil_a87b1fb9c12e9e350d470938f351a4095.html#a87b1fb9c12e9e350d470938f351a4095" target="_top" xlink:title="org.cobbzilla.util.network.\lNetworkUtil.getEthernetIpv4">
<polygon fill="none" stroke="#000000" points="196,-6 196,-36 336,-36 336,-6 196,-6"/>
<text text-anchor="start" x="204" y="-24" font-family="Helvetica,sans-Serif" font-size="10.00" fill="#000000">org.cobbzilla.util.network.</text>
<text text-anchor="middle" x="266" y="-13" font-family="Helvetica,sans-Serif" font-size="10.00" fill="#000000">NetworkUtil.getEthernetIpv4</text>
</a>
</g>
</g>
<!-- Node0&#45;&gt;Node1 -->
<g id="edge1" class="edge">
<title>Node0&#45;&gt;Node1</title>
<path fill="none" stroke="#191970" d="M160.2303,-21C168.6883,-21 177.2899,-21 185.7481,-21"/>
<polygon fill="#191970" stroke="#191970" points="185.9749,-24.5001 195.9749,-21 185.9748,-17.5001 185.9749,-24.5001"/>
</g>
<!-- Node2 -->
<g id="node3" class="node">
<title>Node2</title>
<g id="a_node3"><a xlink:href="../../d0/d32/classorg_1_1cobbzilla_1_1util_1_1network_1_1NetworkUtil_a2d5bf8a4154cf60bc220be287e2a9efa.html#a2d5bf8a4154cf60bc220be287e2a9efa" target="_top" xlink:title="org.cobbzilla.util.network.\lNetworkUtil.getEthernetInterface\lPrefix">
<polygon fill="none" stroke="#000000" points="372,-.5 372,-41.5 532,-41.5 532,-.5 372,-.5"/>
<text text-anchor="start" x="380" y="-29.5" font-family="Helvetica,sans-Serif" font-size="10.00" fill="#000000">org.cobbzilla.util.network.</text>
<text text-anchor="start" x="380" y="-18.5" font-family="Helvetica,sans-Serif" font-size="10.00" fill="#000000">NetworkUtil.getEthernetInterface</text>
<text text-anchor="middle" x="452" y="-7.5" font-family="Helvetica,sans-Serif" font-size="10.00" fill="#000000">Prefix</text>
</a>
</g>
</g>
<!-- Node1&#45;&gt;Node2 -->
<g id="edge2" class="edge">
<title>Node1&#45;&gt;Node2</title>
<path fill="none" stroke="#191970" d="M336.0536,-21C344.4174,-21 353.0454,-21 361.6432,-21"/>
<polygon fill="#191970" stroke="#191970" points="361.7048,-24.5001 371.7048,-21 361.7048,-17.5001 361.7048,-24.5001"/>
</g>
</g>
</svg>
