<?xml version="1.0" encoding="UTF-8" standalone="no"?>
<!DOCTYPE svg PUBLIC "-//W3C//DTD SVG 1.1//EN"
 "http://www.w3.org/Graphics/SVG/1.1/DTD/svg11.dtd">
<!-- Generated by graphviz version 2.40.1 (20161225.0304)
 -->
<!-- Title: org.cobbzilla.util.network.NetworkUtil.getEthernetInterfacePrefix Pages: 1 -->
<svg width="540pt" height="50pt"
 viewBox="0.00 0.00 540.00 50.00" xmlns="http://www.w3.org/2000/svg" xmlns:xlink="http://www.w3.org/1999/xlink">
<g id="graph0" class="graph" transform="scale(1 1) rotate(0) translate(4 46)">
<title>org.cobbzilla.util.network.NetworkUtil.getEthernetInterfacePrefix</title>
<!-- Node1 -->
<g id="node1" class="node">
<title>Node1</title>
<polygon fill="#bfbfbf" stroke="#000000" points="0,-.5 0,-41.5 160,-41.5 160,-.5 0,-.5"/>
<text text-anchor="start" x="8" y="-29.5" font-family="Helvetica,sans-Serif" font-size="10.00" fill="#000000">org.cobbzilla.util.network.</text>
<text text-anchor="start" x="8" y="-18.5" font-family="Helvetica,sans-Serif" font-size="10.00" fill="#000000">NetworkUtil.getEthernetInterface</text>
<text text-anchor="middle" x="80" y="-7.5" font-family="Helvetica,sans-Serif" font-size="10.00" fill="#000000">Prefix</text>
</g>
<!-- Node2 -->
<g id="node2" class="node">
<title>Node2</title>
<g id="a_node2"><a xlink:href="../../d0/d32/classorg_1_1cobbzilla_1_1util_1_1network_1_1NetworkUtil_a87b1fb9c12e9e350d470938f351a4095.html#a87b1fb9c12e9e350d470938f351a4095" target="_top" xlink:title="org.cobbzilla.util.network.\lNetworkUtil.getEthernetIpv4">
<polygon fill="none" stroke="#000000" points="196,-6 196,-36 336,-36 336,-6 196,-6"/>
<text text-anchor="start" x="204" y="-24" font-family="Helvetica,sans-Serif" font-size="10.00" fill="#000000">org.cobbzilla.util.network.</text>
<text text-anchor="middle" x="266" y="-13" font-family="Helvetica,sans-Serif" font-size="10.00" fill="#000000">NetworkUtil.getEthernetIpv4</text>
</a>
</g>
</g>
<!-- Node1&#45;&gt;Node2 -->
<g id="edge1" class="edge">
<title>Node1&#45;&gt;Node2</title>
<path fill="none" stroke="#191970" d="M170.318,-21C178.9384,-21 187.5896,-21 195.9749,-21"/>
<polygon fill="#191970" stroke="#191970" points="170.2303,-17.5001 160.2303,-21 170.2303,-24.5001 170.2303,-17.5001"/>
</g>
<!-- Node3 -->
<g id="node3" class="node">
<title>Node3</title>
<g id="a_node3"><a xlink:href="../../d0/d32/classorg_1_1cobbzilla_1_1util_1_1network_1_1NetworkUtil_a48992c05c8f84ebd249a2f72b30e69da.html#a48992c05c8f84ebd249a2f72b30e69da" target="_top" xlink:title="org.cobbzilla.util.network.\lNetworkUtil.getFirstEthernetIpv4">
<polygon fill="none" stroke="#000000" points="372,-6 372,-36 532,-36 532,-6 372,-6"/>
<text text-anchor="start" x="380" y="-24" font-family="Helvetica,sans-Serif" font-size="10.00" fill="#000000">org.cobbzilla.util.network.</text>
<text text-anchor="middle" x="452" y="-13" font-family="Helvetica,sans-Serif" font-size="10.00" fill="#000000">NetworkUtil.getFirstEthernetIpv4</text>
</a>
</g>
</g>
<!-- Node2&#45;&gt;Node3 -->
<g id="edge2" class="edge">
<title>Node2&#45;&gt;Node3</title>
<path fill="none" stroke="#191970" d="M346.2538,-21C354.6897,-21 363.2683,-21 371.7048,-21"/>
<polygon fill="#191970" stroke="#191970" points="346.0536,-17.5001 336.0536,-21 346.0536,-24.5001 346.0536,-17.5001"/>
</g>
</g>
</svg>
