<?xml version="1.0" encoding="UTF-8" standalone="no"?>
<!DOCTYPE svg PUBLIC "-//W3C//DTD SVG 1.1//EN"
 "http://www.w3.org/Graphics/SVG/1.1/DTD/svg11.dtd">
<!-- Generated by graphviz version 2.40.1 (20161225.0304)
 -->
<!-- Title: org.cobbzilla.util.handlebars.TextImageInsertion.ParsedText Pages: 1 -->
<svg width="162pt" height="298pt"
 viewBox="0.00 0.00 162.00 298.00" xmlns="http://www.w3.org/2000/svg" xmlns:xlink="http://www.w3.org/1999/xlink">
<g id="graph0" class="graph" transform="scale(1 1) rotate(0) translate(4 294)">
<title>org.cobbzilla.util.handlebars.TextImageInsertion.ParsedText</title>
<!-- Node1 -->
<g id="node1" class="node">
<title>Node1</title>
<polygon fill="#bfbfbf" stroke="#000000" points="0,-.5 0,-79.5 154,-79.5 154,-.5 0,-.5"/>
<text text-anchor="start" x="8" y="-67.5" font-family="Helvetica,sans-Serif" font-size="10.00" fill="#000000">org.cobbzilla.util.handlebars.</text>
<text text-anchor="middle" x="77" y="-56.5" font-family="Helvetica,sans-Serif" font-size="10.00" fill="#000000">TextImageInsertion.ParsedText</text>
<polyline fill="none" stroke="#000000" points="0,-49.5 154,-49.5 "/>
<text text-anchor="start" x="8" y="-37.5" font-family="Helvetica,sans-Serif" font-size="10.00" fill="#000000">+ width</text>
<text text-anchor="start" x="8" y="-26.5" font-family="Helvetica,sans-Serif" font-size="10.00" fill="#000000">+ height</text>
<polyline fill="none" stroke="#000000" points="0,-19.5 154,-19.5 "/>
<text text-anchor="middle" x="77" y="-7.5" font-family="Helvetica,sans-Serif" font-size="10.00" fill="#000000"> </text>
</g>
<!-- Node2 -->
<g id="node2" class="node">
<title>Node2</title>
<polygon fill="none" stroke="#bfbfbf" points="39,-127.5 39,-184.5 115,-184.5 115,-127.5 39,-127.5"/>
<text text-anchor="middle" x="77" y="-172.5" font-family="Helvetica,sans-Serif" font-size="10.00" fill="#000000">List&lt; String &gt;</text>
<polyline fill="none" stroke="#bfbfbf" points="39,-165.5 115,-165.5 "/>
<text text-anchor="middle" x="77" y="-153.5" font-family="Helvetica,sans-Serif" font-size="10.00" fill="#000000"> </text>
<polyline fill="none" stroke="#bfbfbf" points="39,-146.5 115,-146.5 "/>
<text text-anchor="middle" x="77" y="-134.5" font-family="Helvetica,sans-Serif" font-size="10.00" fill="#000000"> </text>
</g>
<!-- Node2&#45;&gt;Node1 -->
<g id="edge1" class="edge">
<title>Node2&#45;&gt;Node1</title>
<path fill="none" stroke="#404040" d="M77,-127.3258C77,-116.5576 77,-103.9593 77,-91.7364"/>
<polygon fill="none" stroke="#404040" points="77.0001,-91.7203 73,-85.7203 77,-79.7203 81,-85.7203 77.0001,-91.7203"/>
<text text-anchor="middle" x="92" y="-101" font-family="Helvetica,sans-Serif" font-size="10.00" fill="#000000"> +lines</text>
</g>
<!-- Node3 -->
<g id="node3" class="node">
<title>Node3</title>
<polygon fill="none" stroke="#bfbfbf" points="61,-232.5 61,-289.5 93,-289.5 93,-232.5 61,-232.5"/>
<text text-anchor="middle" x="77" y="-277.5" font-family="Helvetica,sans-Serif" font-size="10.00" fill="#000000">List</text>
<polyline fill="none" stroke="#bfbfbf" points="61,-270.5 93,-270.5 "/>
<text text-anchor="middle" x="77" y="-258.5" font-family="Helvetica,sans-Serif" font-size="10.00" fill="#000000"> </text>
<polyline fill="none" stroke="#bfbfbf" points="61,-251.5 93,-251.5 "/>
<text text-anchor="middle" x="77" y="-239.5" font-family="Helvetica,sans-Serif" font-size="10.00" fill="#000000"> </text>
</g>
<!-- Node3&#45;&gt;Node2 -->
<g id="edge2" class="edge">
<title>Node3&#45;&gt;Node2</title>
<path fill="none" stroke="#ffa500" d="M77,-222.192C77,-209.7605 77,-196.2278 77,-184.657"/>
<polygon fill="#ffa500" stroke="#ffa500" points="73.5001,-222.3083 77,-232.3083 80.5001,-222.3083 73.5001,-222.3083"/>
<text text-anchor="middle" x="100.5" y="-206" font-family="Helvetica,sans-Serif" font-size="10.00" fill="#000000"> &lt; String &gt;</text>
</g>
</g>
</svg>
