<?xml version="1.0" encoding="UTF-8" standalone="no"?>
<!DOCTYPE svg PUBLIC "-//W3C//DTD SVG 1.1//EN"
 "http://www.w3.org/Graphics/SVG/1.1/DTD/svg11.dtd">
<!-- Generated by graphviz version 2.40.1 (20161225.0304)
 -->
<!-- Title: org.cobbzilla.util.error.GeneralErrorHandlerBase Pages: 1 -->
<svg width="200pt" height="205pt"
 viewBox="0.00 0.00 200.00 205.00" xmlns="http://www.w3.org/2000/svg" xmlns:xlink="http://www.w3.org/1999/xlink">
<g id="graph0" class="graph" transform="scale(1 1) rotate(0) translate(4 201)">
<title>org.cobbzilla.util.error.GeneralErrorHandlerBase</title>
<!-- Node2 -->
<g id="node1" class="node">
<title>Node2</title>
<polygon fill="#bfbfbf" stroke="#000000" points="0,-.5 0,-68.5 128,-68.5 128,-.5 0,-.5"/>
<text text-anchor="start" x="8" y="-56.5" font-family="Helvetica,sans-Serif" font-size="10.00" fill="#000000">org.cobbzilla.util.error.</text>
<text text-anchor="middle" x="64" y="-45.5" font-family="Helvetica,sans-Serif" font-size="10.00" fill="#000000">GeneralErrorHandlerBase</text>
<polyline fill="none" stroke="#000000" points="0,-38.5 128,-38.5 "/>
<text text-anchor="middle" x="64" y="-26.5" font-family="Helvetica,sans-Serif" font-size="10.00" fill="#000000"> </text>
<polyline fill="none" stroke="#000000" points="0,-19.5 128,-19.5 "/>
<text text-anchor="start" x="8" y="-7.5" font-family="Helvetica,sans-Serif" font-size="10.00" fill="#000000">+ defaultErrorHandler()</text>
</g>
<!-- Node2&#45;&gt;Node2 -->
<g id="edge2" class="edge">
<title>Node2&#45;&gt;Node2</title>
<path fill="none" stroke="#404040" d="M128.2877,-43.521C138.7855,-42.2297 146,-39.2227 146,-34.5 146,-31.9173 143.8423,-29.8477 140.17,-28.2912"/>
<polygon fill="none" stroke="#404040" points="139.9652,-28.2428 133.2052,-30.7534 128.2877,-25.479 135.0477,-22.9684 139.9652,-28.2428"/>
<text text-anchor="middle" x="169" y="-32" font-family="Helvetica,sans-Serif" font-size="10.00" fill="#000000"> +instance</text>
</g>
<!-- Node3 -->
<g id="node2" class="node">
<title>Node3</title>
<g id="a_node2"><a xlink:href="../../df/d15/interfaceorg_1_1cobbzilla_1_1util_1_1error_1_1GeneralErrorHandler.html" target="_top" xlink:title="{org.cobbzilla.util.error.\lGeneralErrorHandler\n||+ handleError()\l+ handleError()\l+ handleError()\l}">
<polygon fill="none" stroke="#000000" points="7.5,-106.5 7.5,-196.5 120.5,-196.5 120.5,-106.5 7.5,-106.5"/>
<text text-anchor="start" x="15.5" y="-184.5" font-family="Helvetica,sans-Serif" font-size="10.00" fill="#000000">org.cobbzilla.util.error.</text>
<text text-anchor="middle" x="64" y="-173.5" font-family="Helvetica,sans-Serif" font-size="10.00" fill="#000000">GeneralErrorHandler</text>
<polyline fill="none" stroke="#000000" points="7.5,-166.5 120.5,-166.5 "/>
<text text-anchor="middle" x="64" y="-154.5" font-family="Helvetica,sans-Serif" font-size="10.00" fill="#000000"> </text>
<polyline fill="none" stroke="#000000" points="7.5,-147.5 120.5,-147.5 "/>
<text text-anchor="start" x="15.5" y="-135.5" font-family="Helvetica,sans-Serif" font-size="10.00" fill="#000000">+ handleError()</text>
<text text-anchor="start" x="15.5" y="-124.5" font-family="Helvetica,sans-Serif" font-size="10.00" fill="#000000">+ handleError()</text>
<text text-anchor="start" x="15.5" y="-113.5" font-family="Helvetica,sans-Serif" font-size="10.00" fill="#000000">+ handleError()</text>
</a>
</g>
</g>
<!-- Node3&#45;&gt;Node2 -->
<g id="edge1" class="edge">
<title>Node3&#45;&gt;Node2</title>
<path fill="none" stroke="#191970" d="M64,-96.1895C64,-86.8229 64,-77.3469 64,-68.7259"/>
<polygon fill="none" stroke="#191970" points="60.5001,-96.2647 64,-106.2647 67.5001,-96.2648 60.5001,-96.2647"/>
</g>
</g>
</svg>
