<?xml version="1.0" encoding="UTF-8" standalone="no"?>
<!DOCTYPE svg PUBLIC "-//W3C//DTD SVG 1.1//EN"
 "http://www.w3.org/Graphics/SVG/1.1/DTD/svg11.dtd">
<!-- Generated by graphviz version 2.40.1 (20161225.0304)
 -->
<!-- Title: org.cobbzilla.util.io.handlers.ConfigurableStreamHandlerFactory Pages: 1 -->
<svg width="387pt" height="353pt"
 viewBox="0.00 0.00 387.00 353.00" xmlns="http://www.w3.org/2000/svg" xmlns:xlink="http://www.w3.org/1999/xlink">
<g id="graph0" class="graph" transform="scale(1 1) rotate(0) translate(4 349)">
<title>org.cobbzilla.util.io.handlers.ConfigurableStreamHandlerFactory</title>
<!-- Node2 -->
<g id="node1" class="node">
<title>Node2</title>
<polygon fill="#bfbfbf" stroke="#000000" points="0,-.5 0,-134.5 170,-134.5 170,-.5 0,-.5"/>
<text text-anchor="start" x="8" y="-122.5" font-family="Helvetica,sans-Serif" font-size="10.00" fill="#000000">org.cobbzilla.util.io.handlers.</text>
<text text-anchor="middle" x="85" y="-111.5" font-family="Helvetica,sans-Serif" font-size="10.00" fill="#000000">ConfigurableStreamHandlerFactory</text>
<polyline fill="none" stroke="#000000" points="0,-104.5 170,-104.5 "/>
<text text-anchor="middle" x="85" y="-92.5" font-family="Helvetica,sans-Serif" font-size="10.00" fill="#000000"> </text>
<polyline fill="none" stroke="#000000" points="0,-85.5 170,-85.5 "/>
<text text-anchor="start" x="8" y="-73.5" font-family="Helvetica,sans-Serif" font-size="10.00" fill="#000000">+ ConfigurableStreamHandler</text>
<text text-anchor="start" x="8" y="-62.5" font-family="Helvetica,sans-Serif" font-size="10.00" fill="#000000">Factory()</text>
<text text-anchor="start" x="8" y="-51.5" font-family="Helvetica,sans-Serif" font-size="10.00" fill="#000000">+ ConfigurableStreamHandler</text>
<text text-anchor="start" x="8" y="-40.5" font-family="Helvetica,sans-Serif" font-size="10.00" fill="#000000">Factory()</text>
<text text-anchor="start" x="8" y="-29.5" font-family="Helvetica,sans-Serif" font-size="10.00" fill="#000000">+ addAll()</text>
<text text-anchor="start" x="8" y="-18.5" font-family="Helvetica,sans-Serif" font-size="10.00" fill="#000000">+ addHandler()</text>
<text text-anchor="start" x="8" y="-7.5" font-family="Helvetica,sans-Serif" font-size="10.00" fill="#000000">+ createURLStreamHandler()</text>
</g>
<!-- Node2&#45;&gt;Node2 -->
<g id="edge4" class="edge">
<title>Node2&#45;&gt;Node2</title>
<path fill="none" stroke="#404040" d="M170.2494,-82.1956C180.9548,-79.6056 188,-74.707 188,-67.5 188,-63.3334 185.6453,-59.9384 181.5899,-57.315"/>
<polygon fill="none" stroke="#404040" points="181.3998,-57.2394 174.3462,-58.7387 170.2494,-52.8044 177.3029,-51.3051 181.3998,-57.2394"/>
<text text-anchor="middle" x="218.5" y="-65" font-family="Helvetica,sans-Serif" font-size="10.00" fill="#000000"> +INSTANCE</text>
</g>
<!-- Node3 -->
<g id="node2" class="node">
<title>Node3</title>
<polygon fill="none" stroke="#bfbfbf" points="1.5,-182.5 1.5,-239.5 136.5,-239.5 136.5,-182.5 1.5,-182.5"/>
<text text-anchor="middle" x="69" y="-227.5" font-family="Helvetica,sans-Serif" font-size="10.00" fill="#000000">URLStreamHandlerFactory</text>
<polyline fill="none" stroke="#bfbfbf" points="1.5,-220.5 136.5,-220.5 "/>
<text text-anchor="middle" x="69" y="-208.5" font-family="Helvetica,sans-Serif" font-size="10.00" fill="#000000"> </text>
<polyline fill="none" stroke="#bfbfbf" points="1.5,-201.5 136.5,-201.5 "/>
<text text-anchor="middle" x="69" y="-189.5" font-family="Helvetica,sans-Serif" font-size="10.00" fill="#000000"> </text>
</g>
<!-- Node3&#45;&gt;Node2 -->
<g id="edge1" class="edge">
<title>Node3&#45;&gt;Node2</title>
<path fill="none" stroke="#191970" d="M73.3328,-172.1403C74.6223,-160.5746 76.0741,-147.5539 77.5043,-134.7267"/>
<polygon fill="none" stroke="#191970" points="69.8291,-171.9792 72.1994,-182.3055 76.786,-172.755 69.8291,-171.9792"/>
</g>
<!-- Node4 -->
<g id="node3" class="node">
<title>Node4</title>
<polygon fill="none" stroke="#bfbfbf" points="155,-182.5 155,-239.5 325,-239.5 325,-182.5 155,-182.5"/>
<text text-anchor="middle" x="240" y="-227.5" font-family="Helvetica,sans-Serif" font-size="10.00" fill="#000000">Map&lt; String, URLStreamHandler &gt;</text>
<polyline fill="none" stroke="#bfbfbf" points="155,-220.5 325,-220.5 "/>
<text text-anchor="middle" x="240" y="-208.5" font-family="Helvetica,sans-Serif" font-size="10.00" fill="#000000"> </text>
<polyline fill="none" stroke="#bfbfbf" points="155,-201.5 325,-201.5 "/>
<text text-anchor="middle" x="240" y="-189.5" font-family="Helvetica,sans-Serif" font-size="10.00" fill="#000000"> </text>
</g>
<!-- Node4&#45;&gt;Node2 -->
<g id="edge2" class="edge">
<title>Node4&#45;&gt;Node2</title>
<path fill="none" stroke="#404040" d="M209.006,-182.3055C196.5989,-170.819 181.6685,-156.9963 166.5324,-142.9832"/>
<polygon fill="none" stroke="#404040" points="166.4199,-142.8791 159.2996,-141.7381 157.6142,-134.7267 164.7345,-135.8676 166.4199,-142.8791"/>
<text text-anchor="middle" x="225" y="-156" font-family="Helvetica,sans-Serif" font-size="10.00" fill="#000000"> &#45;protocolHandlers</text>
</g>
<!-- Node5 -->
<g id="node4" class="node">
<title>Node5</title>
<polygon fill="none" stroke="#bfbfbf" points="222.5,-287.5 222.5,-344.5 257.5,-344.5 257.5,-287.5 222.5,-287.5"/>
<text text-anchor="middle" x="240" y="-332.5" font-family="Helvetica,sans-Serif" font-size="10.00" fill="#000000">Map</text>
<polyline fill="none" stroke="#bfbfbf" points="222.5,-325.5 257.5,-325.5 "/>
<text text-anchor="middle" x="240" y="-313.5" font-family="Helvetica,sans-Serif" font-size="10.00" fill="#000000"> </text>
<polyline fill="none" stroke="#bfbfbf" points="222.5,-306.5 257.5,-306.5 "/>
<text text-anchor="middle" x="240" y="-294.5" font-family="Helvetica,sans-Serif" font-size="10.00" fill="#000000"> </text>
</g>
<!-- Node5&#45;&gt;Node4 -->
<g id="edge3" class="edge">
<title>Node5&#45;&gt;Node4</title>
<path fill="none" stroke="#ffa500" d="M240,-277.192C240,-264.7605 240,-251.2278 240,-239.657"/>
<polygon fill="#ffa500" stroke="#ffa500" points="236.5001,-277.3083 240,-287.3083 243.5001,-277.3083 236.5001,-277.3083"/>
<text text-anchor="middle" x="309.5" y="-261" font-family="Helvetica,sans-Serif" font-size="10.00" fill="#000000"> &lt; String, URLStreamHandler &gt;</text>
</g>
</g>
</svg>
