<?xml version="1.0" encoding="UTF-8" standalone="no"?>
<!DOCTYPE svg PUBLIC "-//W3C//DTD SVG 1.1//EN"
 "http://www.w3.org/Graphics/SVG/1.1/DTD/svg11.dtd">
<!-- Generated by graphviz version 2.40.1 (20161225.0304)
 -->
<!-- Title: org.cobbzilla.util.io.JarTrimmerConfig.required Pages: 1 -->
<svg width="590pt" height="39pt"
 viewBox="0.00 0.00 590.00 39.00" xmlns="http://www.w3.org/2000/svg" xmlns:xlink="http://www.w3.org/1999/xlink">
<g id="graph0" class="graph" transform="scale(1 1) rotate(0) translate(4 35)">
<title>org.cobbzilla.util.io.JarTrimmerConfig.required</title>
<!-- Node2 -->
<g id="node1" class="node">
<title>Node2</title>
<polygon fill="#bfbfbf" stroke="#000000" points="0,-.5 0,-30.5 119,-30.5 119,-.5 0,-.5"/>
<text text-anchor="start" x="8" y="-18.5" font-family="Helvetica,sans-Serif" font-size="10.00" fill="#000000">org.cobbzilla.util.io.Jar</text>
<text text-anchor="middle" x="59.5" y="-7.5" font-family="Helvetica,sans-Serif" font-size="10.00" fill="#000000">TrimmerConfig.required</text>
</g>
<!-- Node3 -->
<g id="node2" class="node">
<title>Node3</title>
<g id="a_node2"><a xlink:href="../../d5/dc2/classorg_1_1cobbzilla_1_1util_1_1io_1_1JarTrimmer_ad74dbddd094b06ae8b30c8c7ff35be71.html#ad74dbddd094b06ae8b30c8c7ff35be71" target="_top" xlink:title="org.cobbzilla.util.io.Jar\lTrimmer.shouldInclude">
<polygon fill="none" stroke="#000000" points="155,-.5 155,-30.5 271,-30.5 271,-.5 155,-.5"/>
<text text-anchor="start" x="163" y="-18.5" font-family="Helvetica,sans-Serif" font-size="10.00" fill="#000000">org.cobbzilla.util.io.Jar</text>
<text text-anchor="middle" x="213" y="-7.5" font-family="Helvetica,sans-Serif" font-size="10.00" fill="#000000">Trimmer.shouldInclude</text>
</a>
</g>
</g>
<!-- Node2&#45;&gt;Node3 -->
<g id="edge1" class="edge">
<title>Node2&#45;&gt;Node3</title>
<path fill="none" stroke="#191970" d="M129.5444,-15.5C138.0216,-15.5 146.6087,-15.5 154.8879,-15.5"/>
<polygon fill="#191970" stroke="#191970" points="129.2867,-12.0001 119.2866,-15.5 129.2866,-19.0001 129.2867,-12.0001"/>
</g>
<!-- Node4 -->
<g id="node3" class="node">
<title>Node4</title>
<g id="a_node3"><a xlink:href="../../d5/dc2/classorg_1_1cobbzilla_1_1util_1_1io_1_1JarTrimmer_af3d4171c0e315e009d3436a293f5d9b1.html#af3d4171c0e315e009d3436a293f5d9b1" target="_top" xlink:title="org.cobbzilla.util.io.Jar\lTrimmer.trim">
<polygon fill="none" stroke="#000000" points="307,-.5 307,-30.5 421,-30.5 421,-.5 307,-.5"/>
<text text-anchor="start" x="315" y="-18.5" font-family="Helvetica,sans-Serif" font-size="10.00" fill="#000000">org.cobbzilla.util.io.Jar</text>
<text text-anchor="middle" x="364" y="-7.5" font-family="Helvetica,sans-Serif" font-size="10.00" fill="#000000">Trimmer.trim</text>
</a>
</g>
</g>
<!-- Node3&#45;&gt;Node4 -->
<g id="edge2" class="edge">
<title>Node3&#45;&gt;Node4</title>
<path fill="none" stroke="#191970" d="M281.5708,-15.5C289.9955,-15.5 298.5363,-15.5 306.7687,-15.5"/>
<polygon fill="#191970" stroke="#191970" points="281.3806,-12.0001 271.3805,-15.5 281.3805,-19.0001 281.3806,-12.0001"/>
</g>
<!-- Node5 -->
<g id="node4" class="node">
<title>Node5</title>
<g id="a_node4"><a xlink:href="../../d1/dcf/classorg_1_1cobbzilla_1_1util_1_1io_1_1main_1_1JarTrimmerMain_a0d79049130f7976bee1c1f8eb13c1538.html#a0d79049130f7976bee1c1f8eb13c1538" target="_top" xlink:title="org.cobbzilla.util.io.main.\lJarTrimmerMain.run">
<polygon fill="none" stroke="#000000" points="457,-.5 457,-30.5 582,-30.5 582,-.5 457,-.5"/>
<text text-anchor="start" x="465" y="-18.5" font-family="Helvetica,sans-Serif" font-size="10.00" fill="#000000">org.cobbzilla.util.io.main.</text>
<text text-anchor="middle" x="519.5" y="-7.5" font-family="Helvetica,sans-Serif" font-size="10.00" fill="#000000">JarTrimmerMain.run</text>
</a>
</g>
</g>
<!-- Node4&#45;&gt;Node5 -->
<g id="edge3" class="edge">
<title>Node4&#45;&gt;Node5</title>
<path fill="none" stroke="#191970" d="M431.0271,-15.5C439.6444,-15.5 448.4409,-15.5 456.9821,-15.5"/>
<polygon fill="#191970" stroke="#191970" points="431.0195,-12.0001 421.0195,-15.5 431.0195,-19.0001 431.0195,-12.0001"/>
</g>
</g>
</svg>
