<?xml version="1.0" encoding="UTF-8" standalone="no"?>
<!DOCTYPE svg PUBLIC "-//W3C//DTD SVG 1.1//EN"
 "http://www.w3.org/Graphics/SVG/1.1/DTD/svg11.dtd">
<!-- Generated by graphviz version 2.40.1 (20161225.0304)
 -->
<!-- Title: org.cobbzilla.util.system.WindowsAdminUtil.Shell32.IsUserAnAdmin Pages: 1 -->
<svg width="572pt" height="50pt"
 viewBox="0.00 0.00 572.00 50.00" xmlns="http://www.w3.org/2000/svg" xmlns:xlink="http://www.w3.org/1999/xlink">
<g id="graph0" class="graph" transform="scale(1 1) rotate(0) translate(4 46)">
<title>org.cobbzilla.util.system.WindowsAdminUtil.Shell32.IsUserAnAdmin</title>
<!-- Node1 -->
<g id="node1" class="node">
<title>Node1</title>
<polygon fill="#bfbfbf" stroke="#000000" points="0,-.5 0,-41.5 167,-41.5 167,-.5 0,-.5"/>
<text text-anchor="start" x="8" y="-29.5" font-family="Helvetica,sans-Serif" font-size="10.00" fill="#000000">org.cobbzilla.util.system.</text>
<text text-anchor="start" x="8" y="-18.5" font-family="Helvetica,sans-Serif" font-size="10.00" fill="#000000">WindowsAdminUtil.Shell32.IsUser</text>
<text text-anchor="middle" x="83.5" y="-7.5" font-family="Helvetica,sans-Serif" font-size="10.00" fill="#000000">AnAdmin</text>
</g>
<!-- Node2 -->
<g id="node2" class="node">
<title>Node2</title>
<g id="a_node2"><a xlink:href="../../d0/d67/classorg_1_1cobbzilla_1_1util_1_1system_1_1WindowsAdminUtil_a4ac0743b80212a57d3bfbfdb2260c97a.html#a4ac0743b80212a57d3bfbfdb2260c97a" target="_top" xlink:title="org.cobbzilla.util.system.\lWindowsAdminUtil.isUserWindowsAdmin">
<polygon fill="none" stroke="#000000" points="203,-6 203,-36 403,-36 403,-6 203,-6"/>
<text text-anchor="start" x="211" y="-24" font-family="Helvetica,sans-Serif" font-size="10.00" fill="#000000">org.cobbzilla.util.system.</text>
<text text-anchor="middle" x="303" y="-13" font-family="Helvetica,sans-Serif" font-size="10.00" fill="#000000">WindowsAdminUtil.isUserWindowsAdmin</text>
</a>
</g>
</g>
<!-- Node1&#45;&gt;Node2 -->
<g id="edge1" class="edge">
<title>Node1&#45;&gt;Node2</title>
<path fill="none" stroke="#191970" d="M177.2863,-21C185.6924,-21 194.2262,-21 202.6847,-21"/>
<polygon fill="#191970" stroke="#191970" points="177.1097,-17.5001 167.1097,-21 177.1097,-24.5001 177.1097,-17.5001"/>
</g>
<!-- Node3 -->
<g id="node3" class="node">
<title>Node3</title>
<g id="a_node3"><a xlink:href="../../d4/d99/enumorg_1_1cobbzilla_1_1util_1_1system_1_1OsType_ac1e9cc07ddf790459e58c2894aa972f5.html#ac1e9cc07ddf790459e58c2894aa972f5" target="_top" xlink:title="org.cobbzilla.util.system.\lOsType.initIsAdmin">
<polygon fill="none" stroke="#000000" points="439,-6 439,-36 564,-36 564,-6 439,-6"/>
<text text-anchor="start" x="447" y="-24" font-family="Helvetica,sans-Serif" font-size="10.00" fill="#000000">org.cobbzilla.util.system.</text>
<text text-anchor="middle" x="501.5" y="-13" font-family="Helvetica,sans-Serif" font-size="10.00" fill="#000000">OsType.initIsAdmin</text>
</a>
</g>
</g>
<!-- Node2&#45;&gt;Node3 -->
<g id="edge2" class="edge">
<title>Node2&#45;&gt;Node3</title>
<path fill="none" stroke="#191970" d="M413.3455,-21C422.0231,-21 430.5861,-21 438.7647,-21"/>
<polygon fill="#191970" stroke="#191970" points="413.1223,-17.5001 403.1223,-21 413.1223,-24.5001 413.1223,-17.5001"/>
</g>
</g>
</svg>
