<?xml version="1.0" encoding="UTF-8" standalone="no"?>
<!DOCTYPE svg PUBLIC "-//W3C//DTD SVG 1.1//EN"
 "http://www.w3.org/Graphics/SVG/1.1/DTD/svg11.dtd">
<!-- Generated by graphviz version 2.40.1 (20161225.0304)
 -->
<!-- Title: org.cobbzilla.util.io.DirFilter Pages: 1 -->
<svg width="121pt" height="204pt"
 viewBox="0.00 0.00 121.00 204.00" xmlns="http://www.w3.org/2000/svg" xmlns:xlink="http://www.w3.org/1999/xlink">
<g id="graph0" class="graph" transform="scale(1 1) rotate(0) translate(4 200)">
<title>org.cobbzilla.util.io.DirFilter</title>
<!-- Node0 -->
<g id="node1" class="node">
<title>Node0</title>
<polygon fill="#bfbfbf" stroke="#000000" points="0,-.5 0,-101.5 113,-101.5 113,-.5 0,-.5"/>
<text text-anchor="start" x="8" y="-89.5" font-family="Helvetica,sans-Serif" font-size="10.00" fill="#000000">org.cobbzilla.util.io.Dir</text>
<text text-anchor="middle" x="56.5" y="-78.5" font-family="Helvetica,sans-Serif" font-size="10.00" fill="#000000">Filter</text>
<polyline fill="none" stroke="#000000" points="0,-71.5 113,-71.5 "/>
<text text-anchor="start" x="8" y="-59.5" font-family="Helvetica,sans-Serif" font-size="10.00" fill="#000000">+ instance</text>
<text text-anchor="start" x="8" y="-48.5" font-family="Helvetica,sans-Serif" font-size="10.00" fill="#000000">&#45; regex</text>
<text text-anchor="start" x="8" y="-37.5" font-family="Helvetica,sans-Serif" font-size="10.00" fill="#000000">&#45; pattern</text>
<polyline fill="none" stroke="#000000" points="0,-30.5 113,-30.5 "/>
<text text-anchor="start" x="8" y="-18.5" font-family="Helvetica,sans-Serif" font-size="10.00" fill="#000000">+ accept()</text>
<text text-anchor="start" x="8" y="-7.5" font-family="Helvetica,sans-Serif" font-size="10.00" fill="#000000">&#45; initPattern()</text>
</g>
<!-- Node1 -->
<g id="node2" class="node">
<title>Node1</title>
<polygon fill="none" stroke="#bfbfbf" points="29.5,-138.5 29.5,-195.5 83.5,-195.5 83.5,-138.5 29.5,-138.5"/>
<text text-anchor="middle" x="56.5" y="-183.5" font-family="Helvetica,sans-Serif" font-size="10.00" fill="#000000">FileFilter</text>
<polyline fill="none" stroke="#bfbfbf" points="29.5,-176.5 83.5,-176.5 "/>
<text text-anchor="middle" x="56.5" y="-164.5" font-family="Helvetica,sans-Serif" font-size="10.00" fill="#000000"> </text>
<polyline fill="none" stroke="#bfbfbf" points="29.5,-157.5 83.5,-157.5 "/>
<text text-anchor="middle" x="56.5" y="-145.5" font-family="Helvetica,sans-Serif" font-size="10.00" fill="#000000"> </text>
</g>
<!-- Node1&#45;&gt;Node0 -->
<g id="edge1" class="edge">
<title>Node1&#45;&gt;Node0</title>
<path fill="none" stroke="#191970" d="M56.5,-128.0826C56.5,-119.6942 56.5,-110.7064 56.5,-101.9373"/>
<polygon fill="none" stroke="#191970" points="53.0001,-128.3258 56.5,-138.3258 60.0001,-128.3259 53.0001,-128.3258"/>
</g>
</g>
</svg>
