<?xml version="1.0" encoding="UTF-8" standalone="no"?>
<!DOCTYPE svg PUBLIC "-//W3C//DTD SVG 1.1//EN"
 "http://www.w3.org/Graphics/SVG/1.1/DTD/svg11.dtd">
<!-- Generated by graphviz version 2.40.1 (20161225.0304)
 -->
<!-- Title: org.cobbzilla.util.http.HttpResponseBean.setEntity Pages: 1 -->
<svg width="478pt" height="61pt"
 viewBox="0.00 0.00 478.00 61.00" xmlns="http://www.w3.org/2000/svg" xmlns:xlink="http://www.w3.org/1999/xlink">
<g id="graph0" class="graph" transform="scale(1 1) rotate(0) translate(4 57)">
<title>org.cobbzilla.util.http.HttpResponseBean.setEntity</title>
<!-- Node1 -->
<g id="node1" class="node">
<title>Node1</title>
<polygon fill="#bfbfbf" stroke="#000000" points="0,-22.5 0,-52.5 144,-52.5 144,-22.5 0,-22.5"/>
<text text-anchor="start" x="8" y="-40.5" font-family="Helvetica,sans-Serif" font-size="10.00" fill="#000000">org.cobbzilla.util.http.</text>
<text text-anchor="middle" x="72" y="-29.5" font-family="Helvetica,sans-Serif" font-size="10.00" fill="#000000">HttpResponseBean.setEntity</text>
</g>
<!-- Node2 -->
<g id="node2" class="node">
<title>Node2</title>
<g id="a_node2"><a xlink:href="../../d9/d6b/classorg_1_1cobbzilla_1_1util_1_1http_1_1HttpUtil_a79493a20601d122c25f84a7fc0f63e8c.html#a79493a20601d122c25f84a7fc0f63e8c" target="_top" xlink:title="org.cobbzilla.util.http.\lHttpUtil.getResponse">
<polygon fill="none" stroke="#000000" points="359,-22.5 359,-52.5 470,-52.5 470,-22.5 359,-22.5"/>
<text text-anchor="start" x="367" y="-40.5" font-family="Helvetica,sans-Serif" font-size="10.00" fill="#000000">org.cobbzilla.util.http.</text>
<text text-anchor="middle" x="414.5" y="-29.5" font-family="Helvetica,sans-Serif" font-size="10.00" fill="#000000">HttpUtil.getResponse</text>
</a>
</g>
</g>
<!-- Node1&#45;&gt;Node2 -->
<g id="edge1" class="edge">
<title>Node1&#45;&gt;Node2</title>
<path fill="none" stroke="#191970" d="M154.2176,-40.0214C162.9215,-40.2174 171.6421,-40.3839 180,-40.5 243.5494,-41.3825 259.453,-41.5415 323,-40.5 334.601,-40.3099 347.0261,-39.9842 358.8619,-39.6158"/>
<polygon fill="#191970" stroke="#191970" points="154.1108,-36.518 144.0304,-39.7791 153.9443,-43.516 154.1108,-36.518"/>
</g>
<!-- Node3 -->
<g id="node3" class="node">
<title>Node3</title>
<g id="a_node3"><a xlink:href="../../d9/d6b/classorg_1_1cobbzilla_1_1util_1_1http_1_1HttpUtil_a72c117e88566027a8ad8437f3396095d.html#a72c117e88566027a8ad8437f3396095d" target="_top" xlink:title="org.cobbzilla.util.http.\lHttpUtil.getStreamResponse">
<polygon fill="none" stroke="#000000" points="180,-.5 180,-30.5 323,-30.5 323,-.5 180,-.5"/>
<text text-anchor="start" x="188" y="-18.5" font-family="Helvetica,sans-Serif" font-size="10.00" fill="#000000">org.cobbzilla.util.http.</text>
<text text-anchor="middle" x="251.5" y="-7.5" font-family="Helvetica,sans-Serif" font-size="10.00" fill="#000000">HttpUtil.getStreamResponse</text>
</a>
</g>
</g>
<!-- Node1&#45;&gt;Node3 -->
<g id="edge2" class="edge">
<title>Node1&#45;&gt;Node3</title>
<path fill="none" stroke="#191970" d="M154.2599,-27.418C162.8532,-26.3648 171.5386,-25.3003 179.9982,-24.2634"/>
<polygon fill="#191970" stroke="#191970" points="153.7335,-23.9562 144.2336,-28.6469 154.5852,-30.9042 153.7335,-23.9562"/>
</g>
<!-- Node3&#45;&gt;Node2 -->
<g id="edge3" class="edge">
<title>Node3&#45;&gt;Node2</title>
<path fill="none" stroke="#191970" d="M333.4405,-26.5594C341.9514,-27.7082 350.456,-28.856 358.5828,-29.9529"/>
<polygon fill="#191970" stroke="#191970" points="333.847,-23.0827 323.4686,-25.2136 332.9106,-30.0198 333.847,-23.0827"/>
</g>
</g>
</svg>
