<?xml version="1.0" encoding="UTF-8" standalone="no"?>
<!DOCTYPE svg PUBLIC "-//W3C//DTD SVG 1.1//EN"
 "http://www.w3.org/Graphics/SVG/1.1/DTD/svg11.dtd">
<!-- Generated by graphviz version 2.40.1 (20161225.0304)
 -->
<!-- Title: org.cobbzilla.util.daemon.BufferedRunDaemon.run Pages: 1 -->
<svg width="367pt" height="88pt"
 viewBox="0.00 0.00 367.00 88.00" xmlns="http://www.w3.org/2000/svg" xmlns:xlink="http://www.w3.org/1999/xlink">
<g id="graph0" class="graph" transform="scale(1 1) rotate(0) translate(4 84)">
<title>org.cobbzilla.util.daemon.BufferedRunDaemon.run</title>
<!-- Node0 -->
<g id="node1" class="node">
<title>Node0</title>
<polygon fill="#bfbfbf" stroke="#000000" points="0,-24.5 0,-54.5 128,-54.5 128,-24.5 0,-24.5"/>
<text text-anchor="start" x="8" y="-42.5" font-family="Helvetica,sans-Serif" font-size="10.00" fill="#000000">org.cobbzilla.util.daemon.</text>
<text text-anchor="middle" x="64" y="-31.5" font-family="Helvetica,sans-Serif" font-size="10.00" fill="#000000">BufferedRunDaemon.run</text>
</g>
<!-- Node1 -->
<g id="node2" class="node">
<title>Node1</title>
<g id="a_node2"><a xlink:href="../../de/d1c/classorg_1_1cobbzilla_1_1util_1_1daemon_1_1BufferedRunDaemon_a50bbac0b53c366bbf3e810bad4dc9cd9.html#a50bbac0b53c366bbf3e810bad4dc9cd9" target="_top" xlink:title="org.cobbzilla.util.daemon.\lBufferedRunDaemon.getIdleSyncInterval">
<polygon fill="none" stroke="#000000" points="164,-49.5 164,-79.5 359,-79.5 359,-49.5 164,-49.5"/>
<text text-anchor="start" x="172" y="-67.5" font-family="Helvetica,sans-Serif" font-size="10.00" fill="#000000">org.cobbzilla.util.daemon.</text>
<text text-anchor="middle" x="261.5" y="-56.5" font-family="Helvetica,sans-Serif" font-size="10.00" fill="#000000">BufferedRunDaemon.getIdleSyncInterval</text>
</a>
</g>
</g>
<!-- Node0&#45;&gt;Node1 -->
<g id="edge1" class="edge">
<title>Node0&#45;&gt;Node1</title>
<path fill="none" stroke="#191970" d="M128.1226,-47.6168C136.4698,-48.6734 145.1951,-49.7779 154.0139,-50.8942"/>
<polygon fill="#191970" stroke="#191970" points="153.6349,-54.374 163.9953,-52.1576 154.5141,-47.4295 153.6349,-54.374"/>
</g>
<!-- Node2 -->
<g id="node3" class="node">
<title>Node2</title>
<g id="a_node3"><a xlink:href="../../de/d1c/classorg_1_1cobbzilla_1_1util_1_1daemon_1_1BufferedRunDaemon_a428f5ea7d1ce976db5565a608c5318b9.html#a428f5ea7d1ce976db5565a608c5318b9" target="_top" xlink:title="org.cobbzilla.util.daemon.\lBufferedRunDaemon.getMinSyncWait">
<polygon fill="none" stroke="#000000" points="170,-.5 170,-30.5 353,-30.5 353,-.5 170,-.5"/>
<text text-anchor="start" x="178" y="-18.5" font-family="Helvetica,sans-Serif" font-size="10.00" fill="#000000">org.cobbzilla.util.daemon.</text>
<text text-anchor="middle" x="261.5" y="-7.5" font-family="Helvetica,sans-Serif" font-size="10.00" fill="#000000">BufferedRunDaemon.getMinSyncWait</text>
</a>
</g>
</g>
<!-- Node0&#45;&gt;Node2 -->
<g id="edge2" class="edge">
<title>Node0&#45;&gt;Node2</title>
<path fill="none" stroke="#191970" d="M128.1226,-31.7079C138.1946,-30.484 148.8168,-29.1931 159.4899,-27.8962"/>
<polygon fill="#191970" stroke="#191970" points="160.2174,-31.3336 169.7221,-26.6528 159.3729,-24.3847 160.2174,-31.3336"/>
</g>
</g>
</svg>
