<?xml version="1.0" encoding="UTF-8" standalone="no"?>
<!DOCTYPE svg PUBLIC "-//W3C//DTD SVG 1.1//EN"
 "http://www.w3.org/Graphics/SVG/1.1/DTD/svg11.dtd">
<!-- Generated by graphviz version 2.40.1 (20161225.0304)
 -->
<!-- Title: org.cobbzilla.util.daemon.BufferedRunDaemon.interrupt Pages: 1 -->
<svg width="322pt" height="88pt"
 viewBox="0.00 0.00 322.00 88.00" xmlns="http://www.w3.org/2000/svg" xmlns:xlink="http://www.w3.org/1999/xlink">
<g id="graph0" class="graph" transform="scale(1 1) rotate(0) translate(4 84)">
<title>org.cobbzilla.util.daemon.BufferedRunDaemon.interrupt</title>
<!-- Node1 -->
<g id="node1" class="node">
<title>Node1</title>
<polygon fill="#bfbfbf" stroke="#000000" points="0,-24.5 0,-54.5 146,-54.5 146,-24.5 0,-24.5"/>
<text text-anchor="start" x="8" y="-42.5" font-family="Helvetica,sans-Serif" font-size="10.00" fill="#000000">org.cobbzilla.util.daemon.</text>
<text text-anchor="middle" x="73" y="-31.5" font-family="Helvetica,sans-Serif" font-size="10.00" fill="#000000">BufferedRunDaemon.interrupt</text>
</g>
<!-- Node2 -->
<g id="node2" class="node">
<title>Node2</title>
<g id="a_node2"><a xlink:href="../../de/d1c/classorg_1_1cobbzilla_1_1util_1_1daemon_1_1BufferedRunDaemon_a23044625d207c05ceb70fa8a858fb15b.html#a23044625d207c05ceb70fa8a858fb15b" target="_top" xlink:title="org.cobbzilla.util.daemon.\lBufferedRunDaemon.done">
<polygon fill="none" stroke="#000000" points="182,-49.5 182,-79.5 314,-79.5 314,-49.5 182,-49.5"/>
<text text-anchor="start" x="190" y="-67.5" font-family="Helvetica,sans-Serif" font-size="10.00" fill="#000000">org.cobbzilla.util.daemon.</text>
<text text-anchor="middle" x="248" y="-56.5" font-family="Helvetica,sans-Serif" font-size="10.00" fill="#000000">BufferedRunDaemon.done</text>
</a>
</g>
</g>
<!-- Node1&#45;&gt;Node2 -->
<g id="edge1" class="edge">
<title>Node1&#45;&gt;Node2</title>
<path fill="none" stroke="#191970" d="M156.224,-51.3891C164.7997,-52.6142 173.4304,-53.8472 181.7854,-55.0408"/>
<polygon fill="#191970" stroke="#191970" points="156.5963,-47.9069 146.2018,-49.9574 155.6063,-54.8365 156.5963,-47.9069"/>
</g>
<!-- Node3 -->
<g id="node3" class="node">
<title>Node3</title>
<g id="a_node3"><a xlink:href="../../de/d1c/classorg_1_1cobbzilla_1_1util_1_1daemon_1_1BufferedRunDaemon_ab14e6747dc03be8c6765e84c7bde0011.html#ab14e6747dc03be8c6765e84c7bde0011" target="_top" xlink:title="org.cobbzilla.util.daemon.\lBufferedRunDaemon.poke">
<polygon fill="none" stroke="#000000" points="182,-.5 182,-30.5 314,-30.5 314,-.5 182,-.5"/>
<text text-anchor="start" x="190" y="-18.5" font-family="Helvetica,sans-Serif" font-size="10.00" fill="#000000">org.cobbzilla.util.daemon.</text>
<text text-anchor="middle" x="248" y="-7.5" font-family="Helvetica,sans-Serif" font-size="10.00" fill="#000000">BufferedRunDaemon.poke</text>
</a>
</g>
</g>
<!-- Node1&#45;&gt;Node3 -->
<g id="edge2" class="edge">
<title>Node1&#45;&gt;Node3</title>
<path fill="none" stroke="#191970" d="M156.224,-28.0864C164.7997,-26.9103 173.4304,-25.7267 181.7854,-24.5809"/>
<polygon fill="#191970" stroke="#191970" points="155.6335,-24.6346 146.2018,-29.4609 156.5846,-31.5696 155.6335,-24.6346"/>
</g>
</g>
</svg>
