<?xml version="1.0" encoding="UTF-8" standalone="no"?>
<!DOCTYPE svg PUBLIC "-//W3C//DTD SVG 1.1//EN"
 "http://www.w3.org/Graphics/SVG/1.1/DTD/svg11.dtd">
<!-- Generated by graphviz version 2.40.1 (20161225.0304)
 -->
<!-- Title: org.cobbzilla.util.system.MultiCommandResult Pages: 1 -->
<svg width="205pt" height="364pt"
 viewBox="0.00 0.00 205.00 364.00" xmlns="http://www.w3.org/2000/svg" xmlns:xlink="http://www.w3.org/1999/xlink">
<g id="graph0" class="graph" transform="scale(1 1) rotate(0) translate(4 360)">
<title>org.cobbzilla.util.system.MultiCommandResult</title>
<!-- Node1 -->
<g id="node1" class="node">
<title>Node1</title>
<polygon fill="#bfbfbf" stroke="#000000" points="25.5,-.5 25.5,-90.5 150.5,-90.5 150.5,-.5 25.5,-.5"/>
<text text-anchor="start" x="33.5" y="-78.5" font-family="Helvetica,sans-Serif" font-size="10.00" fill="#000000">org.cobbzilla.util.system.</text>
<text text-anchor="middle" x="88" y="-67.5" font-family="Helvetica,sans-Serif" font-size="10.00" fill="#000000">MultiCommandResult</text>
<polyline fill="none" stroke="#000000" points="25.5,-60.5 150.5,-60.5 "/>
<text text-anchor="middle" x="88" y="-48.5" font-family="Helvetica,sans-Serif" font-size="10.00" fill="#000000"> </text>
<polyline fill="none" stroke="#000000" points="25.5,-41.5 150.5,-41.5 "/>
<text text-anchor="start" x="33.5" y="-29.5" font-family="Helvetica,sans-Serif" font-size="10.00" fill="#000000">+ hasException()</text>
<text text-anchor="start" x="33.5" y="-18.5" font-family="Helvetica,sans-Serif" font-size="10.00" fill="#000000">+ add()</text>
<text text-anchor="start" x="33.5" y="-7.5" font-family="Helvetica,sans-Serif" font-size="10.00" fill="#000000">+ toString()</text>
</g>
<!-- Node2 -->
<g id="node2" class="node">
<title>Node2</title>
<polygon fill="none" stroke="#bfbfbf" points="0,-138.5 0,-217.5 176,-217.5 176,-138.5 0,-138.5"/>
<text text-anchor="start" x="8" y="-205.5" font-family="Helvetica,sans-Serif" font-size="10.00" fill="#000000">Map&lt; org.cobbzilla.util.system.</text>
<text text-anchor="start" x="8" y="-194.5" font-family="Helvetica,sans-Serif" font-size="10.00" fill="#000000">Command, org.cobbzilla.util.system.</text>
<text text-anchor="middle" x="88" y="-183.5" font-family="Helvetica,sans-Serif" font-size="10.00" fill="#000000">CommandResult &gt;</text>
<polyline fill="none" stroke="#bfbfbf" points="0,-176.5 176,-176.5 "/>
<text text-anchor="middle" x="88" y="-164.5" font-family="Helvetica,sans-Serif" font-size="10.00" fill="#000000"> </text>
<polyline fill="none" stroke="#bfbfbf" points="0,-157.5 176,-157.5 "/>
<text text-anchor="middle" x="88" y="-145.5" font-family="Helvetica,sans-Serif" font-size="10.00" fill="#000000"> </text>
</g>
<!-- Node2&#45;&gt;Node1 -->
<g id="edge1" class="edge">
<title>Node2&#45;&gt;Node1</title>
<path fill="none" stroke="#404040" d="M88,-138.2456C88,-127.1568 88,-114.8824 88,-102.9911"/>
<polygon fill="none" stroke="#404040" points="88.0001,-102.8036 84,-96.8037 88,-90.8036 92,-96.8036 88.0001,-102.8036"/>
<text text-anchor="middle" x="106" y="-112" font-family="Helvetica,sans-Serif" font-size="10.00" fill="#000000"> &#45;results</text>
</g>
<!-- Node3 -->
<g id="node3" class="node">
<title>Node3</title>
<polygon fill="none" stroke="#bfbfbf" points="70.5,-298.5 70.5,-355.5 105.5,-355.5 105.5,-298.5 70.5,-298.5"/>
<text text-anchor="middle" x="88" y="-343.5" font-family="Helvetica,sans-Serif" font-size="10.00" fill="#000000">Map</text>
<polyline fill="none" stroke="#bfbfbf" points="70.5,-336.5 105.5,-336.5 "/>
<text text-anchor="middle" x="88" y="-324.5" font-family="Helvetica,sans-Serif" font-size="10.00" fill="#000000"> </text>
<polyline fill="none" stroke="#bfbfbf" points="70.5,-317.5 105.5,-317.5 "/>
<text text-anchor="middle" x="88" y="-305.5" font-family="Helvetica,sans-Serif" font-size="10.00" fill="#000000"> </text>
</g>
<!-- Node3&#45;&gt;Node2 -->
<g id="edge2" class="edge">
<title>Node3&#45;&gt;Node2</title>
<path fill="none" stroke="#ffa500" d="M88,-288.089C88,-266.3929 88,-239.4333 88,-217.6236"/>
<polygon fill="#ffa500" stroke="#ffa500" points="84.5001,-288.2713 88,-298.2713 91.5001,-288.2713 84.5001,-288.2713"/>
<text text-anchor="start" x="88" y="-272" font-family="Helvetica,sans-Serif" font-size="10.00" fill="#000000"> &lt; org::cobbzilla::util</text>
<text text-anchor="start" x="88" y="-261" font-family="Helvetica,sans-Serif" font-size="10.00" fill="#000000">::system::Command, org</text>
<text text-anchor="start" x="88" y="-250" font-family="Helvetica,sans-Serif" font-size="10.00" fill="#000000">::cobbzilla::util::system</text>
<text text-anchor="middle" x="142.5" y="-239" font-family="Helvetica,sans-Serif" font-size="10.00" fill="#000000">::CommandResult &gt;</text>
</g>
</g>
</svg>
