<?xml version="1.0" encoding="UTF-8" standalone="no"?>
<!DOCTYPE svg PUBLIC "-//W3C//DTD SVG 1.1//EN"
 "http://www.w3.org/Graphics/SVG/1.1/DTD/svg11.dtd">
<!-- Generated by graphviz version 2.40.1 (20161225.0304)
 -->
<!-- Title: org.cobbzilla.util.reflect.ClassReLoader Pages: 1 -->
<svg width="128pt" height="193pt"
 viewBox="0.00 0.00 128.00 193.00" xmlns="http://www.w3.org/2000/svg" xmlns:xlink="http://www.w3.org/1999/xlink">
<g id="graph0" class="graph" transform="scale(1 1) rotate(0) translate(4 189)">
<title>org.cobbzilla.util.reflect.ClassReLoader</title>
<!-- Node0 -->
<g id="node1" class="node">
<title>Node0</title>
<polygon fill="#bfbfbf" stroke="#000000" points="0,-.5 0,-90.5 120,-90.5 120,-.5 0,-.5"/>
<text text-anchor="start" x="8" y="-78.5" font-family="Helvetica,sans-Serif" font-size="10.00" fill="#000000">org.cobbzilla.util.reflect.</text>
<text text-anchor="middle" x="60" y="-67.5" font-family="Helvetica,sans-Serif" font-size="10.00" fill="#000000">ClassReLoader</text>
<polyline fill="none" stroke="#000000" points="0,-60.5 120,-60.5 "/>
<text text-anchor="start" x="8" y="-48.5" font-family="Helvetica,sans-Serif" font-size="10.00" fill="#000000">&#45; reload</text>
<polyline fill="none" stroke="#000000" points="0,-41.5 120,-41.5 "/>
<text text-anchor="start" x="8" y="-29.5" font-family="Helvetica,sans-Serif" font-size="10.00" fill="#000000">+ doReloadFor()</text>
<text text-anchor="start" x="8" y="-18.5" font-family="Helvetica,sans-Serif" font-size="10.00" fill="#000000">+ ClassReLoader()</text>
<text text-anchor="start" x="8" y="-7.5" font-family="Helvetica,sans-Serif" font-size="10.00" fill="#000000">+ loadClass()</text>
</g>
<!-- Node1 -->
<g id="node2" class="node">
<title>Node1</title>
<polygon fill="none" stroke="#bfbfbf" points="14,-127.5 14,-184.5 106,-184.5 106,-127.5 14,-127.5"/>
<text text-anchor="middle" x="60" y="-172.5" font-family="Helvetica,sans-Serif" font-size="10.00" fill="#000000">URLClassLoader</text>
<polyline fill="none" stroke="#bfbfbf" points="14,-165.5 106,-165.5 "/>
<text text-anchor="middle" x="60" y="-153.5" font-family="Helvetica,sans-Serif" font-size="10.00" fill="#000000"> </text>
<polyline fill="none" stroke="#bfbfbf" points="14,-146.5 106,-146.5 "/>
<text text-anchor="middle" x="60" y="-134.5" font-family="Helvetica,sans-Serif" font-size="10.00" fill="#000000"> </text>
</g>
<!-- Node1&#45;&gt;Node0 -->
<g id="edge1" class="edge">
<title>Node1&#45;&gt;Node0</title>
<path fill="none" stroke="#191970" d="M60,-117.1977C60,-108.667 60,-99.5607 60,-90.7995"/>
<polygon fill="none" stroke="#191970" points="56.5001,-117.2559 60,-127.2559 63.5001,-117.2559 56.5001,-117.2559"/>
</g>
</g>
</svg>
