<?xml version="1.0" encoding="UTF-8" standalone="no"?>
<!DOCTYPE svg PUBLIC "-//W3C//DTD SVG 1.1//EN"
 "http://www.w3.org/Graphics/SVG/1.1/DTD/svg11.dtd">
<!-- Generated by graphviz version 2.40.1 (20161225.0304)
 -->
<!-- Title: org.cobbzilla.util.system.CommandResult.hasException Pages: 1 -->
<svg width="536pt" height="88pt"
 viewBox="0.00 0.00 536.00 88.00" xmlns="http://www.w3.org/2000/svg" xmlns:xlink="http://www.w3.org/1999/xlink">
<g id="graph0" class="graph" transform="scale(1 1) rotate(0) translate(4 84)">
<title>org.cobbzilla.util.system.CommandResult.hasException</title>
<!-- Node1 -->
<g id="node1" class="node">
<title>Node1</title>
<polygon fill="#bfbfbf" stroke="#000000" points="0,-24.5 0,-54.5 152,-54.5 152,-24.5 0,-24.5"/>
<text text-anchor="start" x="8" y="-42.5" font-family="Helvetica,sans-Serif" font-size="10.00" fill="#000000">org.cobbzilla.util.system.</text>
<text text-anchor="middle" x="76" y="-31.5" font-family="Helvetica,sans-Serif" font-size="10.00" fill="#000000">CommandResult.hasException</text>
</g>
<!-- Node2 -->
<g id="node2" class="node">
<title>Node2</title>
<g id="a_node2"><a xlink:href="../../d0/de1/classorg_1_1cobbzilla_1_1util_1_1system_1_1CommandResult_ace8f1a4844470e27cd5fd36bd1b37949.html#ace8f1a4844470e27cd5fd36bd1b37949" target="_top" xlink:title="org.cobbzilla.util.system.\lCommandResult.getExceptionString">
<polygon fill="none" stroke="#000000" points="188,-24.5 188,-54.5 364,-54.5 364,-24.5 188,-24.5"/>
<text text-anchor="start" x="196" y="-42.5" font-family="Helvetica,sans-Serif" font-size="10.00" fill="#000000">org.cobbzilla.util.system.</text>
<text text-anchor="middle" x="276" y="-31.5" font-family="Helvetica,sans-Serif" font-size="10.00" fill="#000000">CommandResult.getExceptionString</text>
</a>
</g>
</g>
<!-- Node1&#45;&gt;Node2 -->
<g id="edge1" class="edge">
<title>Node1&#45;&gt;Node2</title>
<path fill="none" stroke="#191970" d="M162.4283,-39.5C170.896,-39.5 179.496,-39.5 187.9792,-39.5"/>
<polygon fill="#191970" stroke="#191970" points="162.182,-36.0001 152.182,-39.5 162.1819,-43.0001 162.182,-36.0001"/>
</g>
<!-- Node3 -->
<g id="node3" class="node">
<title>Node3</title>
<g id="a_node3"><a xlink:href="../../d6/dbf/classorg_1_1cobbzilla_1_1util_1_1security_1_1ShaUtil_aa74201a78df200c56dd062c4573828d4.html#aa74201a78df200c56dd062c4573828d4" target="_top" xlink:title="org.cobbzilla.util.security.\lShaUtil.sha256_file">
<polygon fill="none" stroke="#000000" points="400,-49.5 400,-79.5 528,-79.5 528,-49.5 400,-49.5"/>
<text text-anchor="start" x="408" y="-67.5" font-family="Helvetica,sans-Serif" font-size="10.00" fill="#000000">org.cobbzilla.util.security.</text>
<text text-anchor="middle" x="464" y="-56.5" font-family="Helvetica,sans-Serif" font-size="10.00" fill="#000000">ShaUtil.sha256_file</text>
</a>
</g>
</g>
<!-- Node2&#45;&gt;Node3 -->
<g id="edge2" class="edge">
<title>Node2&#45;&gt;Node3</title>
<path fill="none" stroke="#191970" d="M374.3748,-52.5818C383.0208,-53.7315 391.6174,-54.8746 399.871,-55.9722"/>
<polygon fill="#191970" stroke="#191970" points="374.5942,-49.0802 364.22,-51.2314 373.6714,-56.0191 374.5942,-49.0802"/>
</g>
<!-- Node4 -->
<g id="node4" class="node">
<title>Node4</title>
<g id="a_node4"><a xlink:href="../../d0/de1/classorg_1_1cobbzilla_1_1util_1_1system_1_1CommandResult_a0d8ac1206d9fd03e076d02f6a9cb447c.html#a0d8ac1206d9fd03e076d02f6a9cb447c" target="_top" xlink:title="org.cobbzilla.util.system.\lCommandResult.toString">
<polygon fill="none" stroke="#000000" points="400.5,-.5 400.5,-30.5 527.5,-30.5 527.5,-.5 400.5,-.5"/>
<text text-anchor="start" x="408.5" y="-18.5" font-family="Helvetica,sans-Serif" font-size="10.00" fill="#000000">org.cobbzilla.util.system.</text>
<text text-anchor="middle" x="464" y="-7.5" font-family="Helvetica,sans-Serif" font-size="10.00" fill="#000000">CommandResult.toString</text>
</a>
</g>
</g>
<!-- Node2&#45;&gt;Node4 -->
<g id="edge3" class="edge">
<title>Node2&#45;&gt;Node4</title>
<path fill="none" stroke="#191970" d="M374.2495,-26.9575C383.1287,-25.824 391.9572,-24.6969 400.4173,-23.6169"/>
<polygon fill="#191970" stroke="#191970" points="373.6963,-23.4996 364.22,-28.2379 374.5828,-30.4433 373.6963,-23.4996"/>
</g>
</g>
</svg>
