<?xml version="1.0" encoding="UTF-8" standalone="no"?>
<!DOCTYPE svg PUBLIC "-//W3C//DTD SVG 1.1//EN"
 "http://www.w3.org/Graphics/SVG/1.1/DTD/svg11.dtd">
<!-- Generated by graphviz version 2.40.1 (20161225.0304)
 -->
<!-- Title: org.cobbzilla.util.system.CommandResult.getExceptionString Pages: 1 -->
<svg width="348pt" height="88pt"
 viewBox="0.00 0.00 348.00 88.00" xmlns="http://www.w3.org/2000/svg" xmlns:xlink="http://www.w3.org/1999/xlink">
<g id="graph0" class="graph" transform="scale(1 1) rotate(0) translate(4 84)">
<title>org.cobbzilla.util.system.CommandResult.getExceptionString</title>
<!-- Node2 -->
<g id="node1" class="node">
<title>Node2</title>
<polygon fill="#bfbfbf" stroke="#000000" points="0,-24.5 0,-54.5 176,-54.5 176,-24.5 0,-24.5"/>
<text text-anchor="start" x="8" y="-42.5" font-family="Helvetica,sans-Serif" font-size="10.00" fill="#000000">org.cobbzilla.util.system.</text>
<text text-anchor="middle" x="88" y="-31.5" font-family="Helvetica,sans-Serif" font-size="10.00" fill="#000000">CommandResult.getExceptionString</text>
</g>
<!-- Node3 -->
<g id="node2" class="node">
<title>Node3</title>
<g id="a_node2"><a xlink:href="../../d6/dbf/classorg_1_1cobbzilla_1_1util_1_1security_1_1ShaUtil_aa74201a78df200c56dd062c4573828d4.html#aa74201a78df200c56dd062c4573828d4" target="_top" xlink:title="org.cobbzilla.util.security.\lShaUtil.sha256_file">
<polygon fill="none" stroke="#000000" points="212,-49.5 212,-79.5 340,-79.5 340,-49.5 212,-49.5"/>
<text text-anchor="start" x="220" y="-67.5" font-family="Helvetica,sans-Serif" font-size="10.00" fill="#000000">org.cobbzilla.util.security.</text>
<text text-anchor="middle" x="276" y="-56.5" font-family="Helvetica,sans-Serif" font-size="10.00" fill="#000000">ShaUtil.sha256_file</text>
</a>
</g>
</g>
<!-- Node2&#45;&gt;Node3 -->
<g id="edge1" class="edge">
<title>Node2&#45;&gt;Node3</title>
<path fill="none" stroke="#191970" d="M186.3748,-52.5818C195.0208,-53.7315 203.6174,-54.8746 211.871,-55.9722"/>
<polygon fill="#191970" stroke="#191970" points="186.5942,-49.0802 176.22,-51.2314 185.6714,-56.0191 186.5942,-49.0802"/>
</g>
<!-- Node4 -->
<g id="node3" class="node">
<title>Node4</title>
<g id="a_node3"><a xlink:href="../../d0/de1/classorg_1_1cobbzilla_1_1util_1_1system_1_1CommandResult_a0d8ac1206d9fd03e076d02f6a9cb447c.html#a0d8ac1206d9fd03e076d02f6a9cb447c" target="_top" xlink:title="org.cobbzilla.util.system.\lCommandResult.toString">
<polygon fill="none" stroke="#000000" points="212.5,-.5 212.5,-30.5 339.5,-30.5 339.5,-.5 212.5,-.5"/>
<text text-anchor="start" x="220.5" y="-18.5" font-family="Helvetica,sans-Serif" font-size="10.00" fill="#000000">org.cobbzilla.util.system.</text>
<text text-anchor="middle" x="276" y="-7.5" font-family="Helvetica,sans-Serif" font-size="10.00" fill="#000000">CommandResult.toString</text>
</a>
</g>
</g>
<!-- Node2&#45;&gt;Node4 -->
<g id="edge2" class="edge">
<title>Node2&#45;&gt;Node4</title>
<path fill="none" stroke="#191970" d="M186.2495,-26.9575C195.1287,-25.824 203.9572,-24.6969 212.4173,-23.6169"/>
<polygon fill="#191970" stroke="#191970" points="185.6963,-23.4996 176.22,-28.2379 186.5828,-30.4433 185.6963,-23.4996"/>
</g>
</g>
</svg>
