<?xml version="1.0" encoding="UTF-8" standalone="no"?>
<!DOCTYPE svg PUBLIC "-//W3C//DTD SVG 1.1//EN"
 "http://www.w3.org/Graphics/SVG/1.1/DTD/svg11.dtd">
<!-- Generated by graphviz version 2.40.1 (20161225.0304)
 -->
<!-- Title: org.cobbzilla.util.system.CommandResult.isZeroExitStatus Pages: 1 -->
<svg width="343pt" height="186pt"
 viewBox="0.00 0.00 343.00 186.00" xmlns="http://www.w3.org/2000/svg" xmlns:xlink="http://www.w3.org/1999/xlink">
<g id="graph0" class="graph" transform="scale(1 1) rotate(0) translate(4 182)">
<title>org.cobbzilla.util.system.CommandResult.isZeroExitStatus</title>
<!-- Node1 -->
<g id="node1" class="node">
<title>Node1</title>
<polygon fill="#bfbfbf" stroke="#000000" points="0,-73.5 0,-103.5 166,-103.5 166,-73.5 0,-73.5"/>
<text text-anchor="start" x="8" y="-91.5" font-family="Helvetica,sans-Serif" font-size="10.00" fill="#000000">org.cobbzilla.util.system.</text>
<text text-anchor="middle" x="83" y="-80.5" font-family="Helvetica,sans-Serif" font-size="10.00" fill="#000000">CommandResult.isZeroExitStatus</text>
</g>
<!-- Node2 -->
<g id="node2" class="node">
<title>Node2</title>
<g id="a_node2"><a xlink:href="../../df/ded/classorg_1_1cobbzilla_1_1util_1_1system_1_1CommandShell_a1869caafeacce9bd02dcdffa75d7eb06.html#a1869caafeacce9bd02dcdffa75d7eb06" target="_top" xlink:title="org.cobbzilla.util.system.\lCommandShell.execScript">
<polygon fill="none" stroke="#000000" points="202,-147.5 202,-177.5 335,-177.5 335,-147.5 202,-147.5"/>
<text text-anchor="start" x="210" y="-165.5" font-family="Helvetica,sans-Serif" font-size="10.00" fill="#000000">org.cobbzilla.util.system.</text>
<text text-anchor="middle" x="268.5" y="-154.5" font-family="Helvetica,sans-Serif" font-size="10.00" fill="#000000">CommandShell.execScript</text>
</a>
</g>
</g>
<!-- Node1&#45;&gt;Node2 -->
<g id="edge1" class="edge">
<title>Node1&#45;&gt;Node2</title>
<path fill="none" stroke="#191970" d="M126.6858,-107.4889C149.0912,-117.0663 176.8835,-128.6986 202,-138.5 209.6609,-141.4896 217.8669,-144.5582 225.8078,-147.4598"/>
<polygon fill="#191970" stroke="#191970" points="128.0067,-104.2472 117.4368,-103.5215 125.2471,-110.6803 128.0067,-104.2472"/>
</g>
<!-- Node3 -->
<g id="node3" class="node">
<title>Node3</title>
<g id="a_node3"><a xlink:href="../../d9/d6b/classorg_1_1cobbzilla_1_1util_1_1http_1_1HttpUtil_a39f8ec957b9281635ac9a6f3d6df3c96.html#a39f8ec957b9281635ac9a6f3d6df3c96" target="_top" xlink:title="org.cobbzilla.util.http.\lHttpUtil.isOk">
<polygon fill="none" stroke="#000000" points="213.5,-98.5 213.5,-128.5 323.5,-128.5 323.5,-98.5 213.5,-98.5"/>
<text text-anchor="start" x="221.5" y="-116.5" font-family="Helvetica,sans-Serif" font-size="10.00" fill="#000000">org.cobbzilla.util.http.</text>
<text text-anchor="middle" x="268.5" y="-105.5" font-family="Helvetica,sans-Serif" font-size="10.00" fill="#000000">HttpUtil.isOk</text>
</a>
</g>
</g>
<!-- Node1&#45;&gt;Node3 -->
<g id="edge2" class="edge">
<title>Node1&#45;&gt;Node3</title>
<path fill="none" stroke="#191970" d="M176.4047,-101.0882C189.0795,-102.7964 201.738,-104.5024 213.4333,-106.0786"/>
<polygon fill="#191970" stroke="#191970" points="176.6322,-97.5873 166.2543,-99.7203 175.6972,-104.5246 176.6322,-97.5873"/>
</g>
<!-- Node4 -->
<g id="node4" class="node">
<title>Node4</title>
<g id="a_node4"><a xlink:href="../../df/ded/classorg_1_1cobbzilla_1_1util_1_1system_1_1CommandShell_af1681460f8ac22b29875c4bfd155b92d.html#af1681460f8ac22b29875c4bfd155b92d" target="_top" xlink:title="org.cobbzilla.util.system.\lCommandShell.okResult">
<polygon fill="none" stroke="#000000" points="206,-49.5 206,-79.5 331,-79.5 331,-49.5 206,-49.5"/>
<text text-anchor="start" x="214" y="-67.5" font-family="Helvetica,sans-Serif" font-size="10.00" fill="#000000">org.cobbzilla.util.system.</text>
<text text-anchor="middle" x="268.5" y="-56.5" font-family="Helvetica,sans-Serif" font-size="10.00" fill="#000000">CommandShell.okResult</text>
</a>
</g>
</g>
<!-- Node1&#45;&gt;Node4 -->
<g id="edge3" class="edge">
<title>Node1&#45;&gt;Node4</title>
<path fill="none" stroke="#191970" d="M176.255,-76.4347C186.2703,-75.1389 196.2778,-73.8441 205.8103,-72.6108"/>
<polygon fill="#191970" stroke="#191970" points="175.7225,-72.9743 166.2543,-77.7286 176.6208,-79.9164 175.7225,-72.9743"/>
</g>
<!-- Node5 -->
<g id="node5" class="node">
<title>Node5</title>
<g id="a_node5"><a xlink:href="../../d6/dbf/classorg_1_1cobbzilla_1_1util_1_1security_1_1ShaUtil_aa74201a78df200c56dd062c4573828d4.html#aa74201a78df200c56dd062c4573828d4" target="_top" xlink:title="org.cobbzilla.util.security.\lShaUtil.sha256_file">
<polygon fill="none" stroke="#000000" points="204.5,-.5 204.5,-30.5 332.5,-30.5 332.5,-.5 204.5,-.5"/>
<text text-anchor="start" x="212.5" y="-18.5" font-family="Helvetica,sans-Serif" font-size="10.00" fill="#000000">org.cobbzilla.util.security.</text>
<text text-anchor="middle" x="268.5" y="-7.5" font-family="Helvetica,sans-Serif" font-size="10.00" fill="#000000">ShaUtil.sha256_file</text>
</a>
</g>
</g>
<!-- Node1&#45;&gt;Node5 -->
<g id="edge4" class="edge">
<title>Node1&#45;&gt;Node5</title>
<path fill="none" stroke="#191970" d="M129.0735,-69.6187C151.0967,-60.6695 177.861,-49.9043 202,-40.5 210.3896,-37.2315 219.402,-33.7942 227.9996,-30.5502"/>
<polygon fill="#191970" stroke="#191970" points="127.5742,-66.45 119.6317,-73.462 130.2134,-72.9335 127.5742,-66.45"/>
</g>
</g>
</svg>
