<?xml version="1.0" encoding="UTF-8" standalone="no"?>
<!DOCTYPE svg PUBLIC "-//W3C//DTD SVG 1.1//EN"
 "http://www.w3.org/Graphics/SVG/1.1/DTD/svg11.dtd">
<!-- Generated by graphviz version 2.40.1 (20161225.0304)
 -->
<!-- Title: org.cobbzilla.util.http.CookieJar Pages: 1 -->
<svg width="266pt" height="485pt"
 viewBox="0.00 0.00 266.00 485.00" xmlns="http://www.w3.org/2000/svg" xmlns:xlink="http://www.w3.org/1999/xlink">
<g id="graph0" class="graph" transform="scale(1 1) rotate(0) translate(4 481)">
<title>org.cobbzilla.util.http.CookieJar</title>
<!-- Node0 -->
<g id="node1" class="node">
<title>Node0</title>
<polygon fill="#bfbfbf" stroke="#000000" points="98.5,-.5 98.5,-145.5 208.5,-145.5 208.5,-.5 98.5,-.5"/>
<text text-anchor="start" x="106.5" y="-133.5" font-family="Helvetica,sans-Serif" font-size="10.00" fill="#000000">org.cobbzilla.util.http.</text>
<text text-anchor="middle" x="153.5" y="-122.5" font-family="Helvetica,sans-Serif" font-size="10.00" fill="#000000">CookieJar</text>
<polyline fill="none" stroke="#000000" points="98.5,-115.5 208.5,-115.5 "/>
<text text-anchor="middle" x="153.5" y="-103.5" font-family="Helvetica,sans-Serif" font-size="10.00" fill="#000000"> </text>
<polyline fill="none" stroke="#000000" points="98.5,-96.5 208.5,-96.5 "/>
<text text-anchor="start" x="106.5" y="-84.5" font-family="Helvetica,sans-Serif" font-size="10.00" fill="#000000">+ CookieJar()</text>
<text text-anchor="start" x="106.5" y="-73.5" font-family="Helvetica,sans-Serif" font-size="10.00" fill="#000000">+ CookieJar()</text>
<text text-anchor="start" x="106.5" y="-62.5" font-family="Helvetica,sans-Serif" font-size="10.00" fill="#000000">+ add()</text>
<text text-anchor="start" x="106.5" y="-51.5" font-family="Helvetica,sans-Serif" font-size="10.00" fill="#000000">+ getRequestValue()</text>
<text text-anchor="start" x="106.5" y="-40.5" font-family="Helvetica,sans-Serif" font-size="10.00" fill="#000000">+ getCookiesList()</text>
<text text-anchor="start" x="106.5" y="-29.5" font-family="Helvetica,sans-Serif" font-size="10.00" fill="#000000">+ addCookie()</text>
<text text-anchor="start" x="106.5" y="-18.5" font-family="Helvetica,sans-Serif" font-size="10.00" fill="#000000">+ getCookies()</text>
<text text-anchor="start" x="106.5" y="-7.5" font-family="Helvetica,sans-Serif" font-size="10.00" fill="#000000">+ clearExpired()</text>
</g>
<!-- Node1 -->
<g id="node2" class="node">
<title>Node1</title>
<g id="a_node2"><a xlink:href="../../d4/d12/classorg_1_1cobbzilla_1_1util_1_1collection_1_1CaseInsensitiveStringKeyMap.html" target="_top" xlink:title="{org::cobbzilla::util\l::collection::CaseInsensitive\lStringKeyMap\&lt; HttpCookieBean \&gt;\n|&#45; origKeys\l|+ key()\l+ keySet()\l+ keys()\l+ get()\l+ containsKey()\l+ put()\l+ putIfAbsent()\l+ remove()\l+ remove()\l+ replace()\l+ replace()\l}">
<polygon fill="none" stroke="#000000" points=".5,-182.5 .5,-371.5 168.5,-371.5 168.5,-182.5 .5,-182.5"/>
<text text-anchor="start" x="8.5" y="-359.5" font-family="Helvetica,sans-Serif" font-size="10.00" fill="#000000">org::cobbzilla::util</text>
<text text-anchor="start" x="8.5" y="-348.5" font-family="Helvetica,sans-Serif" font-size="10.00" fill="#000000">::collection::CaseInsensitive</text>
<text text-anchor="middle" x="84.5" y="-337.5" font-family="Helvetica,sans-Serif" font-size="10.00" fill="#000000">StringKeyMap&lt; HttpCookieBean &gt;</text>
<polyline fill="none" stroke="#000000" points=".5,-330.5 168.5,-330.5 "/>
<text text-anchor="start" x="8.5" y="-318.5" font-family="Helvetica,sans-Serif" font-size="10.00" fill="#000000">&#45; origKeys</text>
<polyline fill="none" stroke="#000000" points=".5,-311.5 168.5,-311.5 "/>
<text text-anchor="start" x="8.5" y="-299.5" font-family="Helvetica,sans-Serif" font-size="10.00" fill="#000000">+ key()</text>
<text text-anchor="start" x="8.5" y="-288.5" font-family="Helvetica,sans-Serif" font-size="10.00" fill="#000000">+ keySet()</text>
<text text-anchor="start" x="8.5" y="-277.5" font-family="Helvetica,sans-Serif" font-size="10.00" fill="#000000">+ keys()</text>
<text text-anchor="start" x="8.5" y="-266.5" font-family="Helvetica,sans-Serif" font-size="10.00" fill="#000000">+ get()</text>
<text text-anchor="start" x="8.5" y="-255.5" font-family="Helvetica,sans-Serif" font-size="10.00" fill="#000000">+ containsKey()</text>
<text text-anchor="start" x="8.5" y="-244.5" font-family="Helvetica,sans-Serif" font-size="10.00" fill="#000000">+ put()</text>
<text text-anchor="start" x="8.5" y="-233.5" font-family="Helvetica,sans-Serif" font-size="10.00" fill="#000000">+ putIfAbsent()</text>
<text text-anchor="start" x="8.5" y="-222.5" font-family="Helvetica,sans-Serif" font-size="10.00" fill="#000000">+ remove()</text>
<text text-anchor="start" x="8.5" y="-211.5" font-family="Helvetica,sans-Serif" font-size="10.00" fill="#000000">+ remove()</text>
<text text-anchor="start" x="8.5" y="-200.5" font-family="Helvetica,sans-Serif" font-size="10.00" fill="#000000">+ replace()</text>
<text text-anchor="start" x="8.5" y="-189.5" font-family="Helvetica,sans-Serif" font-size="10.00" fill="#000000">+ replace()</text>
</a>
</g>
</g>
<!-- Node1&#45;&gt;Node0 -->
<g id="edge1" class="edge">
<title>Node1&#45;&gt;Node0</title>
<path fill="none" stroke="#191970" d="M119.7254,-172.8552C122.8458,-163.63 125.9582,-154.4281 128.9605,-145.5516"/>
<polygon fill="none" stroke="#191970" points="116.3638,-171.8705 116.4752,-182.4648 122.9947,-174.1134 116.3638,-171.8705"/>
</g>
<!-- Node2 -->
<g id="node3" class="node">
<title>Node2</title>
<polygon fill="none" stroke="#bfbfbf" points="0,-408.5 0,-476.5 169,-476.5 169,-408.5 0,-408.5"/>
<text text-anchor="start" x="8" y="-464.5" font-family="Helvetica,sans-Serif" font-size="10.00" fill="#000000">java::util::concurrent</text>
<text text-anchor="middle" x="84.5" y="-453.5" font-family="Helvetica,sans-Serif" font-size="10.00" fill="#000000">::ConcurrentHashMap&lt; String, V &gt;</text>
<polyline fill="none" stroke="#bfbfbf" points="0,-446.5 169,-446.5 "/>
<text text-anchor="middle" x="84.5" y="-434.5" font-family="Helvetica,sans-Serif" font-size="10.00" fill="#000000"> </text>
<polyline fill="none" stroke="#bfbfbf" points="0,-427.5 169,-427.5 "/>
<text text-anchor="middle" x="84.5" y="-415.5" font-family="Helvetica,sans-Serif" font-size="10.00" fill="#000000"> </text>
</g>
<!-- Node2&#45;&gt;Node1 -->
<g id="edge2" class="edge">
<title>Node2&#45;&gt;Node1</title>
<path fill="none" stroke="#191970" d="M84.5,-398.0888C84.5,-389.7937 84.5,-380.8388 84.5,-371.6848"/>
<polygon fill="none" stroke="#191970" points="81.0001,-398.2083 84.5,-408.2083 88.0001,-398.2083 81.0001,-398.2083"/>
</g>
<!-- Node3 -->
<g id="node4" class="node">
<title>Node3</title>
<polygon fill="none" stroke="#bfbfbf" points="187,-248.5 187,-305.5 258,-305.5 258,-248.5 187,-248.5"/>
<text text-anchor="middle" x="222.5" y="-293.5" font-family="Helvetica,sans-Serif" font-size="10.00" fill="#000000">CookieStore</text>
<polyline fill="none" stroke="#bfbfbf" points="187,-286.5 258,-286.5 "/>
<text text-anchor="middle" x="222.5" y="-274.5" font-family="Helvetica,sans-Serif" font-size="10.00" fill="#000000"> </text>
<polyline fill="none" stroke="#bfbfbf" points="187,-267.5 258,-267.5 "/>
<text text-anchor="middle" x="222.5" y="-255.5" font-family="Helvetica,sans-Serif" font-size="10.00" fill="#000000"> </text>
</g>
<!-- Node3&#45;&gt;Node0 -->
<g id="edge3" class="edge">
<title>Node3&#45;&gt;Node0</title>
<path fill="none" stroke="#191970" d="M209.5321,-238.6601C200.6821,-212.4948 188.6826,-177.018 178.0583,-145.6072"/>
<polygon fill="none" stroke="#191970" points="206.2407,-239.8531 212.7603,-248.2045 212.8717,-237.6102 206.2407,-239.8531"/>
</g>
</g>
</svg>
