<?xml version="1.0" encoding="UTF-8" standalone="no"?>
<!DOCTYPE svg PUBLIC "-//W3C//DTD SVG 1.1//EN"
 "http://www.w3.org/Graphics/SVG/1.1/DTD/svg11.dtd">
<!-- Generated by graphviz version 2.40.1 (20161225.0304)
 -->
<!-- Title: org.cobbzilla.util.json.JsonEditTest Pages: 1 -->
<svg width="119pt" height="193pt"
 viewBox="0.00 0.00 119.00 193.00" xmlns="http://www.w3.org/2000/svg" xmlns:xlink="http://www.w3.org/1999/xlink">
<g id="graph0" class="graph" transform="scale(1 1) rotate(0) translate(4 189)">
<title>org.cobbzilla.util.json.JsonEditTest</title>
<!-- Node1 -->
<g id="node1" class="node">
<title>Node1</title>
<polygon fill="#bfbfbf" stroke="#000000" points="0,-.5 0,-79.5 111,-79.5 111,-.5 0,-.5"/>
<text text-anchor="start" x="8" y="-67.5" font-family="Helvetica,sans-Serif" font-size="10.00" fill="#000000">org.cobbzilla.util.json.</text>
<text text-anchor="middle" x="55.5" y="-56.5" font-family="Helvetica,sans-Serif" font-size="10.00" fill="#000000">JsonEditTest</text>
<polyline fill="none" stroke="#000000" points="0,-49.5 111,-49.5 "/>
<text text-anchor="start" x="8" y="-37.5" font-family="Helvetica,sans-Serif" font-size="10.00" fill="#000000">+ TEST_JSON</text>
<polyline fill="none" stroke="#000000" points="0,-30.5 111,-30.5 "/>
<text text-anchor="start" x="8" y="-18.5" font-family="Helvetica,sans-Serif" font-size="10.00" fill="#000000">+ testEditJson()</text>
<text text-anchor="start" x="8" y="-7.5" font-family="Helvetica,sans-Serif" font-size="10.00" fill="#000000">&#45; testJson()</text>
</g>
<!-- Node2 -->
<g id="node2" class="node">
<title>Node2</title>
<polygon fill="none" stroke="#bfbfbf" points="29,-127.5 29,-184.5 82,-184.5 82,-127.5 29,-127.5"/>
<text text-anchor="middle" x="55.5" y="-172.5" font-family="Helvetica,sans-Serif" font-size="10.00" fill="#000000">Random</text>
<polyline fill="none" stroke="#bfbfbf" points="29,-165.5 82,-165.5 "/>
<text text-anchor="middle" x="55.5" y="-153.5" font-family="Helvetica,sans-Serif" font-size="10.00" fill="#000000"> </text>
<polyline fill="none" stroke="#bfbfbf" points="29,-146.5 82,-146.5 "/>
<text text-anchor="middle" x="55.5" y="-134.5" font-family="Helvetica,sans-Serif" font-size="10.00" fill="#000000"> </text>
</g>
<!-- Node2&#45;&gt;Node1 -->
<g id="edge1" class="edge">
<title>Node2&#45;&gt;Node1</title>
<path fill="none" stroke="#404040" d="M55.5,-127.3258C55.5,-116.5576 55.5,-103.9593 55.5,-91.7364"/>
<polygon fill="none" stroke="#404040" points="55.5001,-91.7203 51.5,-85.7203 55.5,-79.7203 59.5,-85.7203 55.5001,-91.7203"/>
<text text-anchor="middle" x="75" y="-101" font-family="Helvetica,sans-Serif" font-size="10.00" fill="#000000"> &#45;random</text>
</g>
</g>
</svg>
