<?xml version="1.0" encoding="UTF-8" standalone="no"?>
<!DOCTYPE svg PUBLIC "-//W3C//DTD SVG 1.1//EN"
 "http://www.w3.org/Graphics/SVG/1.1/DTD/svg11.dtd">
<!-- Generated by graphviz version 2.40.1 (20161225.0304)
 -->
<!-- Title: org.cobbzilla.util.io.FilesystemWalker.FsWalker.run Pages: 1 -->
<svg width="342pt" height="137pt"
 viewBox="0.00 0.00 342.00 137.00" xmlns="http://www.w3.org/2000/svg" xmlns:xlink="http://www.w3.org/1999/xlink">
<g id="graph0" class="graph" transform="scale(1 1) rotate(0) translate(4 133)">
<title>org.cobbzilla.util.io.FilesystemWalker.FsWalker.run</title>
<!-- Node0 -->
<g id="node1" class="node">
<title>Node0</title>
<polygon fill="#bfbfbf" stroke="#000000" points="0,-49.5 0,-79.5 149,-79.5 149,-49.5 0,-49.5"/>
<text text-anchor="start" x="8" y="-67.5" font-family="Helvetica,sans-Serif" font-size="10.00" fill="#000000">org.cobbzilla.util.io.Filesystem</text>
<text text-anchor="middle" x="74.5" y="-56.5" font-family="Helvetica,sans-Serif" font-size="10.00" fill="#000000">Walker.FsWalker.run</text>
</g>
<!-- Node1 -->
<g id="node2" class="node">
<title>Node1</title>
<g id="a_node2"><a xlink:href="../../de/de0/classorg_1_1cobbzilla_1_1util_1_1io_1_1FilesystemWalker_a11c5f116bc3b7619e956fcfc3a4d0c61.html#a11c5f116bc3b7619e956fcfc3a4d0c61" target="_top" xlink:title="org.cobbzilla.util.io.Filesystem\lWalker.fileJob">
<polygon fill="none" stroke="#000000" points="185,-98.5 185,-128.5 334,-128.5 334,-98.5 185,-98.5"/>
<text text-anchor="start" x="193" y="-116.5" font-family="Helvetica,sans-Serif" font-size="10.00" fill="#000000">org.cobbzilla.util.io.Filesystem</text>
<text text-anchor="middle" x="259.5" y="-105.5" font-family="Helvetica,sans-Serif" font-size="10.00" fill="#000000">Walker.fileJob</text>
</a>
</g>
</g>
<!-- Node0&#45;&gt;Node1 -->
<g id="edge1" class="edge">
<title>Node0&#45;&gt;Node1</title>
<path fill="none" stroke="#191970" d="M131.2633,-79.5346C150.7968,-84.7083 172.8426,-90.5475 193.0759,-95.9066"/>
<polygon fill="#191970" stroke="#191970" points="192.2812,-99.3167 202.844,-98.4938 194.0735,-92.55 192.2812,-99.3167"/>
</g>
<!-- Node2 -->
<g id="node3" class="node">
<title>Node2</title>
<g id="a_node3"><a xlink:href="../../de/de0/classorg_1_1cobbzilla_1_1util_1_1io_1_1FilesystemWalker_a6f11297b3f53f59b21aba3fb170c5337.html#a6f11297b3f53f59b21aba3fb170c5337" target="_top" xlink:title="org.cobbzilla.util.io.Filesystem\lWalker.hasFilter">
<polygon fill="none" stroke="#000000" points="185,-49.5 185,-79.5 334,-79.5 334,-49.5 185,-49.5"/>
<text text-anchor="start" x="193" y="-67.5" font-family="Helvetica,sans-Serif" font-size="10.00" fill="#000000">org.cobbzilla.util.io.Filesystem</text>
<text text-anchor="middle" x="259.5" y="-56.5" font-family="Helvetica,sans-Serif" font-size="10.00" fill="#000000">Walker.hasFilter</text>
</a>
</g>
</g>
<!-- Node0&#45;&gt;Node2 -->
<g id="edge2" class="edge">
<title>Node0&#45;&gt;Node2</title>
<path fill="none" stroke="#191970" d="M149.2133,-64.5C157.5547,-64.5 166.0967,-64.5 174.5539,-64.5"/>
<polygon fill="#191970" stroke="#191970" points="174.8086,-68.0001 184.8085,-64.5 174.8085,-61.0001 174.8086,-68.0001"/>
</g>
<!-- Node3 -->
<g id="node4" class="node">
<title>Node3</title>
<g id="a_node4"><a xlink:href="../../d9/de6/classorg_1_1cobbzilla_1_1util_1_1io_1_1FilesystemWalker_1_1FsWalker_a3e6c436836969b82f8e49e3b6f32f8c7.html#a3e6c436836969b82f8e49e3b6f32f8c7" target="_top" xlink:title="org.cobbzilla.util.io.Filesystem\lWalker.FsWalker.visit">
<polygon fill="none" stroke="#000000" points="185,-.5 185,-30.5 334,-30.5 334,-.5 185,-.5"/>
<text text-anchor="start" x="193" y="-18.5" font-family="Helvetica,sans-Serif" font-size="10.00" fill="#000000">org.cobbzilla.util.io.Filesystem</text>
<text text-anchor="middle" x="259.5" y="-7.5" font-family="Helvetica,sans-Serif" font-size="10.00" fill="#000000">Walker.FsWalker.visit</text>
</a>
</g>
</g>
<!-- Node0&#45;&gt;Node3 -->
<g id="edge3" class="edge">
<title>Node0&#45;&gt;Node3</title>
<path fill="none" stroke="#191970" d="M131.2633,-49.4654C150.7968,-44.2917 172.8426,-38.4525 193.0759,-33.0934"/>
<polygon fill="#191970" stroke="#191970" points="194.0735,-36.45 202.844,-30.5062 192.2812,-29.6833 194.0735,-36.45"/>
</g>
</g>
</svg>
