<?xml version="1.0" encoding="UTF-8" standalone="no"?>
<!DOCTYPE svg PUBLIC "-//W3C//DTD SVG 1.1//EN"
 "http://www.w3.org/Graphics/SVG/1.1/DTD/svg11.dtd">
<!-- Generated by graphviz version 2.40.1 (20161225.0304)
 -->
<!-- Title: org.cobbzilla.util.collection.multi.MultiResultDriverBase Pages: 1 -->
<svg width="394pt" height="579pt"
 viewBox="0.00 0.00 394.00 579.00" xmlns="http://www.w3.org/2000/svg" xmlns:xlink="http://www.w3.org/1999/xlink">
<g id="graph0" class="graph" transform="scale(1 1) rotate(0) translate(4 575)">
<title>org.cobbzilla.util.collection.multi.MultiResultDriverBase</title>
<!-- Node2 -->
<g id="node1" class="node">
<title>Node2</title>
<polygon fill="#bfbfbf" stroke="#000000" points="16,-.5 16,-145.5 174,-145.5 174,-.5 16,-.5"/>
<text text-anchor="start" x="24" y="-133.5" font-family="Helvetica,sans-Serif" font-size="10.00" fill="#000000">org.cobbzilla.util.collection.multi.</text>
<text text-anchor="middle" x="95" y="-122.5" font-family="Helvetica,sans-Serif" font-size="10.00" fill="#000000">MultiResultDriverBase</text>
<polyline fill="none" stroke="#000000" points="16,-115.5 174,-115.5 "/>
<text text-anchor="middle" x="95" y="-103.5" font-family="Helvetica,sans-Serif" font-size="10.00" fill="#000000"> </text>
<polyline fill="none" stroke="#000000" points="16,-96.5 174,-96.5 "/>
<text text-anchor="start" x="24" y="-84.5" font-family="Helvetica,sans-Serif" font-size="10.00" fill="#000000">+ before()</text>
<text text-anchor="start" x="24" y="-73.5" font-family="Helvetica,sans-Serif" font-size="10.00" fill="#000000">+ after()</text>
<text text-anchor="start" x="24" y="-62.5" font-family="Helvetica,sans-Serif" font-size="10.00" fill="#000000">+ exec()</text>
<text text-anchor="start" x="24" y="-51.5" font-family="Helvetica,sans-Serif" font-size="10.00" fill="#000000">+ success()</text>
<text text-anchor="start" x="24" y="-40.5" font-family="Helvetica,sans-Serif" font-size="10.00" fill="#000000">+ failure()</text>
<text text-anchor="start" x="24" y="-29.5" font-family="Helvetica,sans-Serif" font-size="10.00" fill="#000000"># successMessage()</text>
<text text-anchor="start" x="24" y="-18.5" font-family="Helvetica,sans-Serif" font-size="10.00" fill="#000000"># failureMessage()</text>
<text text-anchor="start" x="24" y="-7.5" font-family="Helvetica,sans-Serif" font-size="10.00" fill="#000000"># run()</text>
</g>
<!-- Node3 -->
<g id="node2" class="node">
<title>Node3</title>
<g id="a_node2"><a xlink:href="../../d2/de1/interfaceorg_1_1cobbzilla_1_1util_1_1collection_1_1multi_1_1MultiResultDriver.html" target="_top" xlink:title="{org.cobbzilla.util.collection.multi.\lMultiResultDriver\n||+ getResult()\l+ before()\l+ exec()\l+ success()\l+ failure()\l+ after()\l+ getContext()\l+ setContext()\l+ getMaxConcurrent()\l+ getTimeout()\l}">
<polygon fill="none" stroke="#000000" points="0,-193.5 0,-360.5 158,-360.5 158,-193.5 0,-193.5"/>
<text text-anchor="start" x="8" y="-348.5" font-family="Helvetica,sans-Serif" font-size="10.00" fill="#000000">org.cobbzilla.util.collection.multi.</text>
<text text-anchor="middle" x="79" y="-337.5" font-family="Helvetica,sans-Serif" font-size="10.00" fill="#000000">MultiResultDriver</text>
<polyline fill="none" stroke="#000000" points="0,-330.5 158,-330.5 "/>
<text text-anchor="middle" x="79" y="-318.5" font-family="Helvetica,sans-Serif" font-size="10.00" fill="#000000"> </text>
<polyline fill="none" stroke="#000000" points="0,-311.5 158,-311.5 "/>
<text text-anchor="start" x="8" y="-299.5" font-family="Helvetica,sans-Serif" font-size="10.00" fill="#000000">+ getResult()</text>
<text text-anchor="start" x="8" y="-288.5" font-family="Helvetica,sans-Serif" font-size="10.00" fill="#000000">+ before()</text>
<text text-anchor="start" x="8" y="-277.5" font-family="Helvetica,sans-Serif" font-size="10.00" fill="#000000">+ exec()</text>
<text text-anchor="start" x="8" y="-266.5" font-family="Helvetica,sans-Serif" font-size="10.00" fill="#000000">+ success()</text>
<text text-anchor="start" x="8" y="-255.5" font-family="Helvetica,sans-Serif" font-size="10.00" fill="#000000">+ failure()</text>
<text text-anchor="start" x="8" y="-244.5" font-family="Helvetica,sans-Serif" font-size="10.00" fill="#000000">+ after()</text>
<text text-anchor="start" x="8" y="-233.5" font-family="Helvetica,sans-Serif" font-size="10.00" fill="#000000">+ getContext()</text>
<text text-anchor="start" x="8" y="-222.5" font-family="Helvetica,sans-Serif" font-size="10.00" fill="#000000">+ setContext()</text>
<text text-anchor="start" x="8" y="-211.5" font-family="Helvetica,sans-Serif" font-size="10.00" fill="#000000">+ getMaxConcurrent()</text>
<text text-anchor="start" x="8" y="-200.5" font-family="Helvetica,sans-Serif" font-size="10.00" fill="#000000">+ getTimeout()</text>
</a>
</g>
</g>
<!-- Node3&#45;&gt;Node2 -->
<g id="edge1" class="edge">
<title>Node3&#45;&gt;Node2</title>
<path fill="none" stroke="#191970" d="M86.3456,-183.343C87.3379,-170.6921 88.3436,-157.8689 89.3013,-145.6589"/>
<polygon fill="none" stroke="#191970" points="82.8467,-183.1937 85.554,-193.4368 89.8253,-183.7411 82.8467,-183.1937"/>
</g>
<!-- Node4 -->
<g id="node3" class="node">
<title>Node4</title>
<g id="a_node3"><a xlink:href="../../de/d50/classorg_1_1cobbzilla_1_1util_1_1collection_1_1multi_1_1MultiResult.html" target="_top" xlink:title="{org.cobbzilla.util.collection.multi.\lMultiResult\n||+ successCount()\l+ failCount()\l+ success()\l+ fail()\l+ hasFailures()\l+ getHeader()\l+ toString()\l}">
<polygon fill="none" stroke="#000000" points="176,-210 176,-344 334,-344 334,-210 176,-210"/>
<text text-anchor="start" x="184" y="-332" font-family="Helvetica,sans-Serif" font-size="10.00" fill="#000000">org.cobbzilla.util.collection.multi.</text>
<text text-anchor="middle" x="255" y="-321" font-family="Helvetica,sans-Serif" font-size="10.00" fill="#000000">MultiResult</text>
<polyline fill="none" stroke="#000000" points="176,-314 334,-314 "/>
<text text-anchor="middle" x="255" y="-302" font-family="Helvetica,sans-Serif" font-size="10.00" fill="#000000"> </text>
<polyline fill="none" stroke="#000000" points="176,-295 334,-295 "/>
<text text-anchor="start" x="184" y="-283" font-family="Helvetica,sans-Serif" font-size="10.00" fill="#000000">+ successCount()</text>
<text text-anchor="start" x="184" y="-272" font-family="Helvetica,sans-Serif" font-size="10.00" fill="#000000">+ failCount()</text>
<text text-anchor="start" x="184" y="-261" font-family="Helvetica,sans-Serif" font-size="10.00" fill="#000000">+ success()</text>
<text text-anchor="start" x="184" y="-250" font-family="Helvetica,sans-Serif" font-size="10.00" fill="#000000">+ fail()</text>
<text text-anchor="start" x="184" y="-239" font-family="Helvetica,sans-Serif" font-size="10.00" fill="#000000">+ hasFailures()</text>
<text text-anchor="start" x="184" y="-228" font-family="Helvetica,sans-Serif" font-size="10.00" fill="#000000">+ getHeader()</text>
<text text-anchor="start" x="184" y="-217" font-family="Helvetica,sans-Serif" font-size="10.00" fill="#000000">+ toString()</text>
</a>
</g>
</g>
<!-- Node4&#45;&gt;Node2 -->
<g id="edge2" class="edge">
<title>Node4&#45;&gt;Node2</title>
<path fill="none" stroke="#404040" d="M202.3884,-209.9202C188.7229,-192.4968 173.8449,-173.5273 159.6385,-155.414"/>
<polygon fill="none" stroke="#404040" points="159.4605,-155.1871 152.6102,-152.9345 152.0548,-145.7448 158.905,-147.9974 159.4605,-155.1871"/>
<text text-anchor="middle" x="191.5" y="-167" font-family="Helvetica,sans-Serif" font-size="10.00" fill="#000000"> #result</text>
</g>
<!-- Node5 -->
<g id="node4" class="node">
<title>Node5</title>
<polygon fill="none" stroke="#bfbfbf" points="158,-408.5 158,-465.5 234,-465.5 234,-408.5 158,-408.5"/>
<text text-anchor="middle" x="196" y="-453.5" font-family="Helvetica,sans-Serif" font-size="10.00" fill="#000000">List&lt; String &gt;</text>
<polyline fill="none" stroke="#bfbfbf" points="158,-446.5 234,-446.5 "/>
<text text-anchor="middle" x="196" y="-434.5" font-family="Helvetica,sans-Serif" font-size="10.00" fill="#000000"> </text>
<polyline fill="none" stroke="#bfbfbf" points="158,-427.5 234,-427.5 "/>
<text text-anchor="middle" x="196" y="-415.5" font-family="Helvetica,sans-Serif" font-size="10.00" fill="#000000"> </text>
</g>
<!-- Node5&#45;&gt;Node4 -->
<g id="edge3" class="edge">
<title>Node5&#45;&gt;Node4</title>
<path fill="none" stroke="#404040" d="M206.548,-408.3952C212.0361,-393.5124 219.0416,-374.5142 226.0093,-355.6188"/>
<polygon fill="none" stroke="#404040" points="226.06,-355.4812 224.3829,-348.4678 230.2118,-344.2223 231.8889,-351.2357 226.06,-355.4812"/>
<text text-anchor="middle" x="245.5" y="-382" font-family="Helvetica,sans-Serif" font-size="10.00" fill="#000000"> +successes</text>
</g>
<!-- Node6 -->
<g id="node5" class="node">
<title>Node6</title>
<polygon fill="none" stroke="#bfbfbf" points="180,-513.5 180,-570.5 212,-570.5 212,-513.5 180,-513.5"/>
<text text-anchor="middle" x="196" y="-558.5" font-family="Helvetica,sans-Serif" font-size="10.00" fill="#000000">List</text>
<polyline fill="none" stroke="#bfbfbf" points="180,-551.5 212,-551.5 "/>
<text text-anchor="middle" x="196" y="-539.5" font-family="Helvetica,sans-Serif" font-size="10.00" fill="#000000"> </text>
<polyline fill="none" stroke="#bfbfbf" points="180,-532.5 212,-532.5 "/>
<text text-anchor="middle" x="196" y="-520.5" font-family="Helvetica,sans-Serif" font-size="10.00" fill="#000000"> </text>
</g>
<!-- Node6&#45;&gt;Node5 -->
<g id="edge4" class="edge">
<title>Node6&#45;&gt;Node5</title>
<path fill="none" stroke="#ffa500" d="M196,-503.192C196,-490.7605 196,-477.2278 196,-465.657"/>
<polygon fill="#ffa500" stroke="#ffa500" points="192.5001,-503.3083 196,-513.3083 199.5001,-503.3083 192.5001,-503.3083"/>
<text text-anchor="middle" x="219.5" y="-487" font-family="Helvetica,sans-Serif" font-size="10.00" fill="#000000"> &lt; String &gt;</text>
</g>
<!-- Node7 -->
<g id="node6" class="node">
<title>Node7</title>
<polygon fill="none" stroke="#bfbfbf" points="252,-408.5 252,-465.5 362,-465.5 362,-408.5 252,-408.5"/>
<text text-anchor="middle" x="307" y="-453.5" font-family="Helvetica,sans-Serif" font-size="10.00" fill="#000000">Map&lt; String, String &gt;</text>
<polyline fill="none" stroke="#bfbfbf" points="252,-446.5 362,-446.5 "/>
<text text-anchor="middle" x="307" y="-434.5" font-family="Helvetica,sans-Serif" font-size="10.00" fill="#000000"> </text>
<polyline fill="none" stroke="#bfbfbf" points="252,-427.5 362,-427.5 "/>
<text text-anchor="middle" x="307" y="-415.5" font-family="Helvetica,sans-Serif" font-size="10.00" fill="#000000"> </text>
</g>
<!-- Node7&#45;&gt;Node4 -->
<g id="edge5" class="edge">
<title>Node7&#45;&gt;Node4</title>
<path fill="none" stroke="#404040" d="M297.7034,-408.3952C292.8892,-393.5823 286.7501,-374.6925 280.6376,-355.8849"/>
<polygon fill="none" stroke="#404040" points="280.5564,-355.6347 274.8977,-351.1649 276.8473,-344.2223 282.5059,-348.6921 280.5564,-355.6347"/>
<text text-anchor="middle" x="312.5" y="-382" font-family="Helvetica,sans-Serif" font-size="10.00" fill="#000000"> +failures</text>
</g>
<!-- Node8 -->
<g id="node7" class="node">
<title>Node8</title>
<polygon fill="none" stroke="#bfbfbf" points="289.5,-513.5 289.5,-570.5 324.5,-570.5 324.5,-513.5 289.5,-513.5"/>
<text text-anchor="middle" x="307" y="-558.5" font-family="Helvetica,sans-Serif" font-size="10.00" fill="#000000">Map</text>
<polyline fill="none" stroke="#bfbfbf" points="289.5,-551.5 324.5,-551.5 "/>
<text text-anchor="middle" x="307" y="-539.5" font-family="Helvetica,sans-Serif" font-size="10.00" fill="#000000"> </text>
<polyline fill="none" stroke="#bfbfbf" points="289.5,-532.5 324.5,-532.5 "/>
<text text-anchor="middle" x="307" y="-520.5" font-family="Helvetica,sans-Serif" font-size="10.00" fill="#000000"> </text>
</g>
<!-- Node8&#45;&gt;Node7 -->
<g id="edge6" class="edge">
<title>Node8&#45;&gt;Node7</title>
<path fill="none" stroke="#ffa500" d="M307,-503.192C307,-490.7605 307,-477.2278 307,-465.657"/>
<polygon fill="#ffa500" stroke="#ffa500" points="303.5001,-503.3083 307,-513.3083 310.5001,-503.3083 303.5001,-503.3083"/>
<text text-anchor="middle" x="346.5" y="-487" font-family="Helvetica,sans-Serif" font-size="10.00" fill="#000000"> &lt; String, String &gt;</text>
</g>
</g>
</svg>
