<?xml version="1.0" encoding="UTF-8" standalone="no"?>
<!DOCTYPE svg PUBLIC "-//W3C//DTD SVG 1.1//EN"
 "http://www.w3.org/Graphics/SVG/1.1/DTD/svg11.dtd">
<!-- Generated by graphviz version 2.40.1 (20161225.0304)
 -->
<!-- Title: org.cobbzilla.util.dns.DnsRecordBase.match Pages: 1 -->
<svg width="314pt" height="235pt"
 viewBox="0.00 0.00 314.00 235.00" xmlns="http://www.w3.org/2000/svg" xmlns:xlink="http://www.w3.org/1999/xlink">
<g id="graph0" class="graph" transform="scale(1 1) rotate(0) translate(4 231)">
<title>org.cobbzilla.util.dns.DnsRecordBase.match</title>
<!-- Node0 -->
<g id="node1" class="node">
<title>Node0</title>
<polygon fill="#bfbfbf" stroke="#000000" points="0,-98.5 0,-128.5 127,-128.5 127,-98.5 0,-98.5"/>
<text text-anchor="start" x="8" y="-116.5" font-family="Helvetica,sans-Serif" font-size="10.00" fill="#000000">org.cobbzilla.util.dns.Dns</text>
<text text-anchor="middle" x="63.5" y="-105.5" font-family="Helvetica,sans-Serif" font-size="10.00" fill="#000000">RecordBase.match</text>
</g>
<!-- Node1 -->
<g id="node2" class="node">
<title>Node1</title>
<g id="a_node2"><a xlink:href="../../d4/d66/classorg_1_1cobbzilla_1_1util_1_1dns_1_1DnsRecordBase_a555ff7817114fb6d5345b29601d61d41.html#a555ff7817114fb6d5345b29601d61d41" target="_top" xlink:title="org.cobbzilla.util.dns.Dns\lRecordBase.getNormalFqdn">
<polygon fill="none" stroke="#000000" points="164.5,-196.5 164.5,-226.5 304.5,-226.5 304.5,-196.5 164.5,-196.5"/>
<text text-anchor="start" x="172.5" y="-214.5" font-family="Helvetica,sans-Serif" font-size="10.00" fill="#000000">org.cobbzilla.util.dns.Dns</text>
<text text-anchor="middle" x="234.5" y="-203.5" font-family="Helvetica,sans-Serif" font-size="10.00" fill="#000000">RecordBase.getNormalFqdn</text>
</a>
</g>
</g>
<!-- Node0&#45;&gt;Node1 -->
<g id="edge1" class="edge">
<title>Node0&#45;&gt;Node1</title>
<path fill="none" stroke="#191970" d="M80.3463,-128.6662C99.2855,-145.0603 131.5202,-171.0449 163,-187.5 166.3289,-189.2401 169.8096,-190.8916 173.3663,-192.4525"/>
<polygon fill="#191970" stroke="#191970" points="172.3265,-195.8091 182.9064,-196.3712 174.9863,-189.334 172.3265,-195.8091"/>
</g>
<!-- Node2 -->
<g id="node3" class="node">
<title>Node2</title>
<g id="a_node3"><a xlink:href="../../d4/d66/classorg_1_1cobbzilla_1_1util_1_1dns_1_1DnsRecordBase_af31212e34380ca34bb574faa306258f8.html#af31212e34380ca34bb574faa306258f8" target="_top" xlink:title="org.cobbzilla.util.dns.Dns\lRecordBase.hasFqdn">
<polygon fill="none" stroke="#000000" points="171,-147.5 171,-177.5 298,-177.5 298,-147.5 171,-147.5"/>
<text text-anchor="start" x="179" y="-165.5" font-family="Helvetica,sans-Serif" font-size="10.00" fill="#000000">org.cobbzilla.util.dns.Dns</text>
<text text-anchor="middle" x="234.5" y="-154.5" font-family="Helvetica,sans-Serif" font-size="10.00" fill="#000000">RecordBase.hasFqdn</text>
</a>
</g>
</g>
<!-- Node0&#45;&gt;Node2 -->
<g id="edge2" class="edge">
<title>Node0&#45;&gt;Node2</title>
<path fill="none" stroke="#191970" d="M116.2009,-128.6014C133.9189,-133.6785 153.8517,-139.3902 172.234,-144.6577"/>
<polygon fill="#191970" stroke="#191970" points="171.3958,-148.0583 181.9731,-147.4484 173.3241,-141.3291 171.3958,-148.0583"/>
</g>
<!-- Node3 -->
<g id="node4" class="node">
<title>Node3</title>
<g id="a_node4"><a xlink:href="../../dc/d93/classorg_1_1cobbzilla_1_1util_1_1dns_1_1DnsRecordMatch_a94abe38f8095590b3dee989c148d39ca.html#a94abe38f8095590b3dee989c148d39ca" target="_top" xlink:title="org.cobbzilla.util.dns.Dns\lRecordMatch.hasSubdomain">
<polygon fill="none" stroke="#000000" points="163,-98.5 163,-128.5 306,-128.5 306,-98.5 163,-98.5"/>
<text text-anchor="start" x="171" y="-116.5" font-family="Helvetica,sans-Serif" font-size="10.00" fill="#000000">org.cobbzilla.util.dns.Dns</text>
<text text-anchor="middle" x="234.5" y="-105.5" font-family="Helvetica,sans-Serif" font-size="10.00" fill="#000000">RecordMatch.hasSubdomain</text>
</a>
</g>
</g>
<!-- Node0&#45;&gt;Node3 -->
<g id="edge3" class="edge">
<title>Node0&#45;&gt;Node3</title>
<path fill="none" stroke="#191970" d="M127.1741,-113.5C135.5006,-113.5 144.1231,-113.5 152.6959,-113.5"/>
<polygon fill="#191970" stroke="#191970" points="152.7162,-117.0001 162.7161,-113.5 152.7161,-110.0001 152.7162,-117.0001"/>
</g>
<!-- Node4 -->
<g id="node5" class="node">
<title>Node4</title>
<g id="a_node5"><a xlink:href="../../d4/d66/classorg_1_1cobbzilla_1_1util_1_1dns_1_1DnsRecordBase_a5e42c72be13793a7b91438b4161125e9.html#a5e42c72be13793a7b91438b4161125e9" target="_top" xlink:title="org.cobbzilla.util.dns.Dns\lRecordBase.hasType">
<polygon fill="none" stroke="#000000" points="171,-49.5 171,-79.5 298,-79.5 298,-49.5 171,-49.5"/>
<text text-anchor="start" x="179" y="-67.5" font-family="Helvetica,sans-Serif" font-size="10.00" fill="#000000">org.cobbzilla.util.dns.Dns</text>
<text text-anchor="middle" x="234.5" y="-56.5" font-family="Helvetica,sans-Serif" font-size="10.00" fill="#000000">RecordBase.hasType</text>
</a>
</g>
</g>
<!-- Node0&#45;&gt;Node4 -->
<g id="edge4" class="edge">
<title>Node0&#45;&gt;Node4</title>
<path fill="none" stroke="#191970" d="M116.2009,-98.3986C133.9189,-93.3215 153.8517,-87.6098 172.234,-82.3423"/>
<polygon fill="#191970" stroke="#191970" points="173.3241,-85.6709 181.9731,-79.5516 171.3958,-78.9417 173.3241,-85.6709"/>
</g>
<!-- Node5 -->
<g id="node6" class="node">
<title>Node5</title>
<g id="a_node6"><a xlink:href="../../d4/d66/classorg_1_1cobbzilla_1_1util_1_1dns_1_1DnsRecordBase_a43c91ad106c6d676ca12854c334df3b3.html#a43c91ad106c6d676ca12854c334df3b3" target="_top" xlink:title="org.cobbzilla.util.dns.Dns\lRecordBase.hasValue">
<polygon fill="none" stroke="#000000" points="171,-.5 171,-30.5 298,-30.5 298,-.5 171,-.5"/>
<text text-anchor="start" x="179" y="-18.5" font-family="Helvetica,sans-Serif" font-size="10.00" fill="#000000">org.cobbzilla.util.dns.Dns</text>
<text text-anchor="middle" x="234.5" y="-7.5" font-family="Helvetica,sans-Serif" font-size="10.00" fill="#000000">RecordBase.hasValue</text>
</a>
</g>
</g>
<!-- Node0&#45;&gt;Node5 -->
<g id="edge5" class="edge">
<title>Node0&#45;&gt;Node5</title>
<path fill="none" stroke="#191970" d="M80.7693,-98.3352C99.8192,-82.2256 131.91,-56.8706 163,-40.5 167.0361,-38.3748 171.2912,-36.3665 175.6317,-34.4824"/>
<polygon fill="#191970" stroke="#191970" points="177.2893,-37.5859 185.2188,-30.5593 174.6382,-31.1074 177.2893,-37.5859"/>
</g>
</g>
</svg>
