<?xml version="1.0" encoding="UTF-8" standalone="no"?>
<!DOCTYPE svg PUBLIC "-//W3C//DTD SVG 1.1//EN"
 "http://www.w3.org/Graphics/SVG/1.1/DTD/svg11.dtd">
<!-- Generated by graphviz version 2.40.1 (20161225.0304)
 -->
<!-- Title: org.cobbzilla.util.daemon.ZillaRuntime.sorted Pages: 1 -->
<svg width="464pt" height="88pt"
 viewBox="0.00 0.00 464.00 88.00" xmlns="http://www.w3.org/2000/svg" xmlns:xlink="http://www.w3.org/1999/xlink">
<g id="graph0" class="graph" transform="scale(1 1) rotate(0) translate(4 84)">
<title>org.cobbzilla.util.daemon.ZillaRuntime.sorted</title>
<!-- Node0 -->
<g id="node1" class="node">
<title>Node0</title>
<polygon fill="#bfbfbf" stroke="#000000" points="0,-24.5 0,-54.5 128,-54.5 128,-24.5 0,-24.5"/>
<text text-anchor="start" x="8" y="-42.5" font-family="Helvetica,sans-Serif" font-size="10.00" fill="#000000">org.cobbzilla.util.daemon.</text>
<text text-anchor="middle" x="64" y="-31.5" font-family="Helvetica,sans-Serif" font-size="10.00" fill="#000000">ZillaRuntime.sorted</text>
</g>
<!-- Node1 -->
<g id="node2" class="node">
<title>Node1</title>
<g id="a_node2"><a xlink:href="../../d4/de3/classorg_1_1cobbzilla_1_1util_1_1daemon_1_1ZillaRuntime_aee321878568dfa594d9ee28c6bf9bf17.html#aee321878568dfa594d9ee28c6bf9bf17" target="_top" xlink:title="org.cobbzilla.util.daemon.\lZillaRuntime.die">
<polygon fill="none" stroke="#000000" points="164,-49.5 164,-79.5 292,-79.5 292,-49.5 164,-49.5"/>
<text text-anchor="start" x="172" y="-67.5" font-family="Helvetica,sans-Serif" font-size="10.00" fill="#000000">org.cobbzilla.util.daemon.</text>
<text text-anchor="middle" x="228" y="-56.5" font-family="Helvetica,sans-Serif" font-size="10.00" fill="#000000">ZillaRuntime.die</text>
</a>
</g>
</g>
<!-- Node0&#45;&gt;Node1 -->
<g id="edge1" class="edge">
<title>Node0&#45;&gt;Node1</title>
<path fill="none" stroke="#191970" d="M128.3464,-49.3089C136.7313,-50.5871 145.3746,-51.9047 153.9029,-53.2047"/>
<polygon fill="#191970" stroke="#191970" points="153.4258,-56.6723 163.8391,-54.7194 154.4808,-49.7523 153.4258,-56.6723"/>
</g>
<!-- Node3 -->
<g id="node4" class="node">
<title>Node3</title>
<g id="a_node4"><a xlink:href="../../d4/de3/classorg_1_1cobbzilla_1_1util_1_1daemon_1_1ZillaRuntime_ac511b20ccbad1ef7a412fd5f971d0aa8.html#ac511b20ccbad1ef7a412fd5f971d0aa8" target="_top" xlink:title="org.cobbzilla.util.daemon.\lZillaRuntime.empty">
<polygon fill="none" stroke="#000000" points="164,-.5 164,-30.5 292,-30.5 292,-.5 164,-.5"/>
<text text-anchor="start" x="172" y="-18.5" font-family="Helvetica,sans-Serif" font-size="10.00" fill="#000000">org.cobbzilla.util.daemon.</text>
<text text-anchor="middle" x="228" y="-7.5" font-family="Helvetica,sans-Serif" font-size="10.00" fill="#000000">ZillaRuntime.empty</text>
</a>
</g>
</g>
<!-- Node0&#45;&gt;Node3 -->
<g id="edge3" class="edge">
<title>Node0&#45;&gt;Node3</title>
<path fill="none" stroke="#191970" d="M128.3464,-30.0834C136.7313,-28.8564 145.3746,-27.5915 153.9029,-26.3435"/>
<polygon fill="#191970" stroke="#191970" points="154.4513,-29.8006 163.8391,-24.8894 153.4377,-22.8744 154.4513,-29.8006"/>
</g>
<!-- Node2 -->
<g id="node3" class="node">
<title>Node2</title>
<g id="a_node3"><a xlink:href="../../d4/de3/classorg_1_1cobbzilla_1_1util_1_1daemon_1_1ZillaRuntime_ae4e677bb99886be3ded04e9164246f69.html#ae4e677bb99886be3ded04e9164246f69" target="_top" xlink:title="org.cobbzilla.util.daemon.\lZillaRuntime._throw">
<polygon fill="none" stroke="#000000" points="328,-49.5 328,-79.5 456,-79.5 456,-49.5 328,-49.5"/>
<text text-anchor="start" x="336" y="-67.5" font-family="Helvetica,sans-Serif" font-size="10.00" fill="#000000">org.cobbzilla.util.daemon.</text>
<text text-anchor="middle" x="392" y="-56.5" font-family="Helvetica,sans-Serif" font-size="10.00" fill="#000000">ZillaRuntime._throw</text>
</a>
</g>
</g>
<!-- Node1&#45;&gt;Node2 -->
<g id="edge2" class="edge">
<title>Node1&#45;&gt;Node2</title>
<path fill="none" stroke="#191970" d="M292.3464,-64.5C300.6401,-64.5 309.1868,-64.5 317.6248,-64.5"/>
<polygon fill="#191970" stroke="#191970" points="317.8392,-68.0001 327.8391,-64.5 317.8391,-61.0001 317.8392,-68.0001"/>
</g>
</g>
</svg>
