<?xml version="1.0" encoding="UTF-8" standalone="no"?>
<!DOCTYPE svg PUBLIC "-//W3C//DTD SVG 1.1//EN"
 "http://www.w3.org/Graphics/SVG/1.1/DTD/svg11.dtd">
<!-- Generated by graphviz version 2.40.1 (20161225.0304)
 -->
<!-- Title: org.cobbzilla.util.daemon.ZillaRuntime._throw Pages: 1 -->
<svg width="483pt" height="149pt"
 viewBox="0.00 0.00 483.00 148.50" xmlns="http://www.w3.org/2000/svg" xmlns:xlink="http://www.w3.org/1999/xlink">
<g id="graph0" class="graph" transform="scale(1 1) rotate(0) translate(4 144.5)">
<title>org.cobbzilla.util.daemon.ZillaRuntime._throw</title>
<!-- Node1 -->
<g id="node1" class="node">
<title>Node1</title>
<polygon fill="#bfbfbf" stroke="#000000" points="0,-24.5 0,-54.5 128,-54.5 128,-24.5 0,-24.5"/>
<text text-anchor="start" x="8" y="-42.5" font-family="Helvetica,sans-Serif" font-size="10.00" fill="#000000">org.cobbzilla.util.daemon.</text>
<text text-anchor="middle" x="64" y="-31.5" font-family="Helvetica,sans-Serif" font-size="10.00" fill="#000000">ZillaRuntime._throw</text>
</g>
<!-- Node2 -->
<g id="node2" class="node">
<title>Node2</title>
<g id="a_node2"><a xlink:href="../../d4/de3/classorg_1_1cobbzilla_1_1util_1_1daemon_1_1ZillaRuntime_aee321878568dfa594d9ee28c6bf9bf17.html#aee321878568dfa594d9ee28c6bf9bf17" target="_top" xlink:title="org.cobbzilla.util.daemon.\lZillaRuntime.die">
<polygon fill="none" stroke="#000000" points="166,-49.5 166,-79.5 294,-79.5 294,-49.5 166,-49.5"/>
<text text-anchor="start" x="174" y="-67.5" font-family="Helvetica,sans-Serif" font-size="10.00" fill="#000000">org.cobbzilla.util.daemon.</text>
<text text-anchor="middle" x="230" y="-56.5" font-family="Helvetica,sans-Serif" font-size="10.00" fill="#000000">ZillaRuntime.die</text>
</a>
</g>
</g>
<!-- Node1&#45;&gt;Node2 -->
<g id="edge1" class="edge">
<title>Node1&#45;&gt;Node2</title>
<path fill="none" stroke="#191970" d="M138.1706,-50.6703C147.4522,-52.0681 156.8826,-53.4884 165.9907,-54.8601"/>
<polygon fill="#191970" stroke="#191970" points="138.5897,-47.194 128.1799,-49.1657 137.5472,-54.1159 138.5897,-47.194"/>
</g>
<!-- Node6 -->
<g id="node6" class="node">
<title>Node6</title>
<g id="a_node6"><a xlink:href="../../d4/de3/classorg_1_1cobbzilla_1_1util_1_1daemon_1_1ZillaRuntime_a5a3d645ec263adbcb2001ae09cbfb7cd.html#a5a3d645ec263adbcb2001ae09cbfb7cd" target="_top" xlink:title="org.cobbzilla.util.daemon.\lZillaRuntime.notSupported">
<polygon fill="none" stroke="#000000" points="164,-.5 164,-30.5 296,-30.5 296,-.5 164,-.5"/>
<text text-anchor="start" x="172" y="-18.5" font-family="Helvetica,sans-Serif" font-size="10.00" fill="#000000">org.cobbzilla.util.daemon.</text>
<text text-anchor="middle" x="230" y="-7.5" font-family="Helvetica,sans-Serif" font-size="10.00" fill="#000000">ZillaRuntime.notSupported</text>
</a>
</g>
</g>
<!-- Node1&#45;&gt;Node6 -->
<g id="edge5" class="edge">
<title>Node1&#45;&gt;Node6</title>
<path fill="none" stroke="#191970" d="M138.1358,-28.7816C146.6851,-27.5455 155.3614,-26.2911 163.7961,-25.0716"/>
<polygon fill="#191970" stroke="#191970" points="137.5762,-25.326 128.1799,-30.221 138.5779,-32.254 137.5762,-25.326"/>
</g>
<!-- Node3 -->
<g id="node3" class="node">
<title>Node3</title>
<g id="a_node3"><a xlink:href="../../d6/dee/classorg_1_1cobbzilla_1_1util_1_1main_1_1BaseMain_a43abb9f79a924b1a222a6a8350b0a257.html#a43abb9f79a924b1a222a6a8350b0a257" target="_top" xlink:title="org.cobbzilla.util.main.\lBaseMain\&lt; HttpMainOptions\l \&gt;::main">
<polygon fill="none" stroke="#000000" points="332,-99 332,-140 475,-140 475,-99 332,-99"/>
<text text-anchor="start" x="340" y="-128" font-family="Helvetica,sans-Serif" font-size="10.00" fill="#000000">org.cobbzilla.util.main.</text>
<text text-anchor="start" x="340" y="-117" font-family="Helvetica,sans-Serif" font-size="10.00" fill="#000000">BaseMain&lt; HttpMainOptions</text>
<text text-anchor="middle" x="403.5" y="-106" font-family="Helvetica,sans-Serif" font-size="10.00" fill="#000000"> &gt;::main</text>
</a>
</g>
</g>
<!-- Node2&#45;&gt;Node3 -->
<g id="edge2" class="edge">
<title>Node2&#45;&gt;Node3</title>
<path fill="none" stroke="#191970" d="M287.39,-82.6928C303.7879,-87.891 321.7725,-93.5922 338.5866,-98.9223"/>
<polygon fill="#191970" stroke="#191970" points="287.9998,-79.2145 277.4096,-79.529 285.8845,-85.8873 287.9998,-79.2145"/>
</g>
<!-- Node4 -->
<g id="node4" class="node">
<title>Node4</title>
<g id="a_node4"><a xlink:href="../../d4/de3/classorg_1_1cobbzilla_1_1util_1_1daemon_1_1ZillaRuntime_aca9507f48430a830b9a38902bfc0641a.html#aca9507f48430a830b9a38902bfc0641a" target="_top" xlink:title="org.cobbzilla.util.daemon.\lZillaRuntime.sorted">
<polygon fill="none" stroke="#000000" points="339.5,-49.5 339.5,-79.5 467.5,-79.5 467.5,-49.5 339.5,-49.5"/>
<text text-anchor="start" x="347.5" y="-67.5" font-family="Helvetica,sans-Serif" font-size="10.00" fill="#000000">org.cobbzilla.util.daemon.</text>
<text text-anchor="middle" x="403.5" y="-56.5" font-family="Helvetica,sans-Serif" font-size="10.00" fill="#000000">ZillaRuntime.sorted</text>
</a>
</g>
</g>
<!-- Node2&#45;&gt;Node4 -->
<g id="edge3" class="edge">
<title>Node2&#45;&gt;Node4</title>
<path fill="none" stroke="#191970" d="M304.2736,-64.5C315.9518,-64.5 327.9381,-64.5 339.362,-64.5"/>
<polygon fill="#191970" stroke="#191970" points="304.1121,-61.0001 294.1121,-64.5 304.112,-68.0001 304.1121,-61.0001"/>
</g>
<!-- Node5 -->
<g id="node5" class="node">
<title>Node5</title>
<g id="a_node5"><a xlink:href="../../d4/de3/classorg_1_1cobbzilla_1_1util_1_1daemon_1_1ZillaRuntime_a48f88d9201538e72f0f90958892113c6.html#a48f88d9201538e72f0f90958892113c6" target="_top" xlink:title="org.cobbzilla.util.daemon.\lZillaRuntime.sortedList">
<polygon fill="none" stroke="#000000" points="339.5,-.5 339.5,-30.5 467.5,-30.5 467.5,-.5 339.5,-.5"/>
<text text-anchor="start" x="347.5" y="-18.5" font-family="Helvetica,sans-Serif" font-size="10.00" fill="#000000">org.cobbzilla.util.daemon.</text>
<text text-anchor="middle" x="403.5" y="-7.5" font-family="Helvetica,sans-Serif" font-size="10.00" fill="#000000">ZillaRuntime.sortedList</text>
</a>
</g>
</g>
<!-- Node2&#45;&gt;Node5 -->
<g id="edge4" class="edge">
<title>Node2&#45;&gt;Node5</title>
<path fill="none" stroke="#191970" d="M293.1018,-46.6788C311.8345,-41.3882 332.1602,-35.6478 350.2051,-30.5516"/>
<polygon fill="#191970" stroke="#191970" points="292.1437,-43.3123 283.4714,-49.3986 294.0463,-50.0488 292.1437,-43.3123"/>
</g>
</g>
</svg>
