<?xml version="1.0" encoding="UTF-8" standalone="no"?>
<!DOCTYPE svg PUBLIC "-//W3C//DTD SVG 1.1//EN"
 "http://www.w3.org/Graphics/SVG/1.1/DTD/svg11.dtd">
<!-- Generated by graphviz version 2.40.1 (20161225.0304)
 -->
<!-- Title: org.cobbzilla.util.daemon.ZillaRuntime.sortedList Pages: 1 -->
<svg width="464pt" height="39pt"
 viewBox="0.00 0.00 464.00 39.00" xmlns="http://www.w3.org/2000/svg" xmlns:xlink="http://www.w3.org/1999/xlink">
<g id="graph0" class="graph" transform="scale(1 1) rotate(0) translate(4 35)">
<title>org.cobbzilla.util.daemon.ZillaRuntime.sortedList</title>
<!-- Node0 -->
<g id="node1" class="node">
<title>Node0</title>
<polygon fill="#bfbfbf" stroke="#000000" points="0,-.5 0,-30.5 128,-30.5 128,-.5 0,-.5"/>
<text text-anchor="start" x="8" y="-18.5" font-family="Helvetica,sans-Serif" font-size="10.00" fill="#000000">org.cobbzilla.util.daemon.</text>
<text text-anchor="middle" x="64" y="-7.5" font-family="Helvetica,sans-Serif" font-size="10.00" fill="#000000">ZillaRuntime.sortedList</text>
</g>
<!-- Node1 -->
<g id="node2" class="node">
<title>Node1</title>
<g id="a_node2"><a xlink:href="../../d4/de3/classorg_1_1cobbzilla_1_1util_1_1daemon_1_1ZillaRuntime_aee321878568dfa594d9ee28c6bf9bf17.html#aee321878568dfa594d9ee28c6bf9bf17" target="_top" xlink:title="org.cobbzilla.util.daemon.\lZillaRuntime.die">
<polygon fill="none" stroke="#000000" points="164,-.5 164,-30.5 292,-30.5 292,-.5 164,-.5"/>
<text text-anchor="start" x="172" y="-18.5" font-family="Helvetica,sans-Serif" font-size="10.00" fill="#000000">org.cobbzilla.util.daemon.</text>
<text text-anchor="middle" x="228" y="-7.5" font-family="Helvetica,sans-Serif" font-size="10.00" fill="#000000">ZillaRuntime.die</text>
</a>
</g>
</g>
<!-- Node0&#45;&gt;Node1 -->
<g id="edge1" class="edge">
<title>Node0&#45;&gt;Node1</title>
<path fill="none" stroke="#191970" d="M128.3464,-15.5C136.6401,-15.5 145.1868,-15.5 153.6248,-15.5"/>
<polygon fill="#191970" stroke="#191970" points="153.8392,-19.0001 163.8391,-15.5 153.8391,-12.0001 153.8392,-19.0001"/>
</g>
<!-- Node2 -->
<g id="node3" class="node">
<title>Node2</title>
<g id="a_node3"><a xlink:href="../../d4/de3/classorg_1_1cobbzilla_1_1util_1_1daemon_1_1ZillaRuntime_ae4e677bb99886be3ded04e9164246f69.html#ae4e677bb99886be3ded04e9164246f69" target="_top" xlink:title="org.cobbzilla.util.daemon.\lZillaRuntime._throw">
<polygon fill="none" stroke="#000000" points="328,-.5 328,-30.5 456,-30.5 456,-.5 328,-.5"/>
<text text-anchor="start" x="336" y="-18.5" font-family="Helvetica,sans-Serif" font-size="10.00" fill="#000000">org.cobbzilla.util.daemon.</text>
<text text-anchor="middle" x="392" y="-7.5" font-family="Helvetica,sans-Serif" font-size="10.00" fill="#000000">ZillaRuntime._throw</text>
</a>
</g>
</g>
<!-- Node1&#45;&gt;Node2 -->
<g id="edge2" class="edge">
<title>Node1&#45;&gt;Node2</title>
<path fill="none" stroke="#191970" d="M292.3464,-15.5C300.6401,-15.5 309.1868,-15.5 317.6248,-15.5"/>
<polygon fill="#191970" stroke="#191970" points="317.8392,-19.0001 327.8391,-15.5 317.8391,-12.0001 317.8392,-19.0001"/>
</g>
</g>
</svg>
