<?xml version="1.0" encoding="UTF-8" standalone="no"?>
<!DOCTYPE svg PUBLIC "-//W3C//DTD SVG 1.1//EN"
 "http://www.w3.org/Graphics/SVG/1.1/DTD/svg11.dtd">
<!-- Generated by graphviz version 2.40.1 (20161225.0304)
 -->
<!-- Title: org.cobbzilla.util.daemon.ZillaRuntime.javaOptions Pages: 1 -->
<svg width="311pt" height="106pt"
 viewBox="0.00 0.00 311.00 106.00" xmlns="http://www.w3.org/2000/svg" xmlns:xlink="http://www.w3.org/1999/xlink">
<g id="graph0" class="graph" transform="scale(1 1) rotate(0) translate(4 102)">
<title>org.cobbzilla.util.daemon.ZillaRuntime.javaOptions</title>
<!-- Node0 -->
<g id="node1" class="node">
<title>Node0</title>
<polygon fill="#bfbfbf" stroke="#000000" points="0,-33.5 0,-63.5 128,-63.5 128,-33.5 0,-33.5"/>
<text text-anchor="start" x="8" y="-51.5" font-family="Helvetica,sans-Serif" font-size="10.00" fill="#000000">org.cobbzilla.util.daemon.</text>
<text text-anchor="middle" x="64" y="-40.5" font-family="Helvetica,sans-Serif" font-size="10.00" fill="#000000">ZillaRuntime.javaOptions</text>
</g>
<!-- Node1 -->
<g id="node2" class="node">
<title>Node1</title>
<g id="a_node2"><a xlink:href="../../d4/de3/classorg_1_1cobbzilla_1_1util_1_1daemon_1_1ZillaRuntime_a0eb71725d9cac7a90047428c9b5815f5.html#a0eb71725d9cac7a90047428c9b5815f5" target="_top" xlink:title="org.cobbzilla.util.daemon.\lZillaRuntime.isDebugOption">
<polygon fill="none" stroke="#000000" points="164,-67.5 164,-97.5 303,-97.5 303,-67.5 164,-67.5"/>
<text text-anchor="start" x="172" y="-85.5" font-family="Helvetica,sans-Serif" font-size="10.00" fill="#000000">org.cobbzilla.util.daemon.</text>
<text text-anchor="middle" x="233.5" y="-74.5" font-family="Helvetica,sans-Serif" font-size="10.00" fill="#000000">ZillaRuntime.isDebugOption</text>
</a>
</g>
</g>
<!-- Node0&#45;&gt;Node1 -->
<g id="edge1" class="edge">
<title>Node0&#45;&gt;Node1</title>
<path fill="none" stroke="#191970" d="M128.0807,-61.3539C136.595,-63.0618 145.4057,-64.8292 154.1398,-66.5811"/>
<polygon fill="#191970" stroke="#191970" points="153.4553,-70.0135 163.9484,-68.5486 154.8321,-63.1502 153.4553,-70.0135"/>
</g>
<!-- Node2 -->
<g id="node3" class="node">
<title>Node2</title>
<g id="a_node3"><a xlink:href="../../db/d9f/classorg_1_1cobbzilla_1_1util_1_1string_1_1StringUtil_a7241ffa301b092ebc9118059204827b0.html#a7241ffa301b092ebc9118059204827b0" target="_top" xlink:title="org.cobbzilla.util.string.\lStringUtil.toString">
<polygon fill="none" stroke="#000000" points="175,-.5 175,-30.5 292,-30.5 292,-.5 175,-.5"/>
<text text-anchor="start" x="183" y="-18.5" font-family="Helvetica,sans-Serif" font-size="10.00" fill="#000000">org.cobbzilla.util.string.</text>
<text text-anchor="middle" x="233.5" y="-7.5" font-family="Helvetica,sans-Serif" font-size="10.00" fill="#000000">StringUtil.toString</text>
</a>
</g>
</g>
<!-- Node0&#45;&gt;Node2 -->
<g id="edge2" class="edge">
<title>Node0&#45;&gt;Node2</title>
<path fill="none" stroke="#191970" d="M128.0807,-36.0241C140.0923,-33.6856 152.6938,-31.2322 164.8378,-28.8679"/>
<polygon fill="#191970" stroke="#191970" points="165.7613,-32.2539 174.9081,-26.9073 164.4235,-25.3829 165.7613,-32.2539"/>
</g>
<!-- Node2&#45;&gt;Node2 -->
<g id="edge3" class="edge">
<title>Node2&#45;&gt;Node2</title>
<path fill="none" stroke="#191970" d="M204.2225,-30.659C197.1627,-40.0566 206.9219,-49 233.5,-49 249.696,-49 259.6466,-45.679 263.3516,-40.9579"/>
<polygon fill="#191970" stroke="#191970" points="266.8287,-40.4487 262.7775,-30.659 259.8396,-40.8383 266.8287,-40.4487"/>
</g>
</g>
</svg>
