<?xml version="1.0" encoding="UTF-8" standalone="no"?>
<!DOCTYPE svg PUBLIC "-//W3C//DTD SVG 1.1//EN"
 "http://www.w3.org/Graphics/SVG/1.1/DTD/svg11.dtd">
<!-- Generated by graphviz version 2.40.1 (20161225.0304)
 -->
<!-- Title: org.cobbzilla.util.daemon.ZillaRuntime.now Pages: 1 -->
<svg width="300pt" height="88pt"
 viewBox="0.00 0.00 300.00 88.00" xmlns="http://www.w3.org/2000/svg" xmlns:xlink="http://www.w3.org/1999/xlink">
<g id="graph0" class="graph" transform="scale(1 1) rotate(0) translate(4 84)">
<title>org.cobbzilla.util.daemon.ZillaRuntime.now</title>
<!-- Node1 -->
<g id="node1" class="node">
<title>Node1</title>
<polygon fill="#bfbfbf" stroke="#000000" points="0,-24.5 0,-54.5 128,-54.5 128,-24.5 0,-24.5"/>
<text text-anchor="start" x="8" y="-42.5" font-family="Helvetica,sans-Serif" font-size="10.00" fill="#000000">org.cobbzilla.util.daemon.</text>
<text text-anchor="middle" x="64" y="-31.5" font-family="Helvetica,sans-Serif" font-size="10.00" fill="#000000">ZillaRuntime.now</text>
</g>
<!-- Node2 -->
<g id="node2" class="node">
<title>Node2</title>
<g id="a_node2"><a xlink:href="../../de/de5/classorg_1_1cobbzilla_1_1util_1_1time_1_1CurrentTime_a6895704bf7b3adf9cdd8be9d33030804.html#a6895704bf7b3adf9cdd8be9d33030804" target="_top" xlink:title="org.cobbzilla.util.time.\lCurrentTime.CurrentTime">
<polygon fill="none" stroke="#000000" points="164,-49.5 164,-79.5 292,-79.5 292,-49.5 164,-49.5"/>
<text text-anchor="start" x="172" y="-67.5" font-family="Helvetica,sans-Serif" font-size="10.00" fill="#000000">org.cobbzilla.util.time.</text>
<text text-anchor="middle" x="228" y="-56.5" font-family="Helvetica,sans-Serif" font-size="10.00" fill="#000000">CurrentTime.CurrentTime</text>
</a>
</g>
</g>
<!-- Node1&#45;&gt;Node2 -->
<g id="edge1" class="edge">
<title>Node1&#45;&gt;Node2</title>
<path fill="none" stroke="#191970" d="M138.2859,-50.8241C146.8158,-52.1244 155.4581,-53.4418 163.8391,-54.7194"/>
<polygon fill="#191970" stroke="#191970" points="138.7597,-47.3559 128.3464,-49.3089 137.7048,-54.276 138.7597,-47.3559"/>
</g>
<!-- Node3 -->
<g id="node3" class="node">
<title>Node3</title>
<g id="a_node3"><a xlink:href="../../d4/de3/classorg_1_1cobbzilla_1_1util_1_1daemon_1_1ZillaRuntime_a90ce07ec64a157cf7995e3f3041682d5.html#a90ce07ec64a157cf7995e3f3041682d5" target="_top" xlink:title="org.cobbzilla.util.daemon.\lZillaRuntime.hexnow">
<polygon fill="none" stroke="#000000" points="164,-.5 164,-30.5 292,-30.5 292,-.5 164,-.5"/>
<text text-anchor="start" x="172" y="-18.5" font-family="Helvetica,sans-Serif" font-size="10.00" fill="#000000">org.cobbzilla.util.daemon.</text>
<text text-anchor="middle" x="228" y="-7.5" font-family="Helvetica,sans-Serif" font-size="10.00" fill="#000000">ZillaRuntime.hexnow</text>
</a>
</g>
</g>
<!-- Node1&#45;&gt;Node3 -->
<g id="edge2" class="edge">
<title>Node1&#45;&gt;Node3</title>
<path fill="none" stroke="#191970" d="M138.2859,-28.6289C146.8158,-27.3806 155.4581,-26.1159 163.8391,-24.8894"/>
<polygon fill="#191970" stroke="#191970" points="137.7342,-25.1723 128.3464,-30.0834 138.7479,-32.0985 137.7342,-25.1723"/>
</g>
</g>
</svg>
