<?xml version="1.0" encoding="UTF-8" standalone="no"?>
<!DOCTYPE svg PUBLIC "-//W3C//DTD SVG 1.1//EN"
 "http://www.w3.org/Graphics/SVG/1.1/DTD/svg11.dtd">
<!-- Generated by graphviz version 2.40.1 (20161225.0304)
 -->
<!-- Title: org.cobbzilla.util.daemon.ZillaRuntime.empty Pages: 1 -->
<svg width="300pt" height="235pt"
 viewBox="0.00 0.00 300.00 235.00" xmlns="http://www.w3.org/2000/svg" xmlns:xlink="http://www.w3.org/1999/xlink">
<g id="graph0" class="graph" transform="scale(1 1) rotate(0) translate(4 231)">
<title>org.cobbzilla.util.daemon.ZillaRuntime.empty</title>
<!-- Node1 -->
<g id="node1" class="node">
<title>Node1</title>
<polygon fill="#bfbfbf" stroke="#000000" points="0,-98.5 0,-128.5 128,-128.5 128,-98.5 0,-98.5"/>
<text text-anchor="start" x="8" y="-116.5" font-family="Helvetica,sans-Serif" font-size="10.00" fill="#000000">org.cobbzilla.util.daemon.</text>
<text text-anchor="middle" x="64" y="-105.5" font-family="Helvetica,sans-Serif" font-size="10.00" fill="#000000">ZillaRuntime.empty</text>
</g>
<!-- Node2 -->
<g id="node2" class="node">
<title>Node2</title>
<g id="a_node2"><a xlink:href="../../d4/de3/classorg_1_1cobbzilla_1_1util_1_1daemon_1_1ZillaRuntime_a590d77fa35ff7530d269e975d4a2af8b.html#a590d77fa35ff7530d269e975d4a2af8b" target="_top" xlink:title="org.cobbzilla.util.daemon.\lZillaRuntime.envInt">
<polygon fill="none" stroke="#000000" points="164,-196.5 164,-226.5 292,-226.5 292,-196.5 164,-196.5"/>
<text text-anchor="start" x="172" y="-214.5" font-family="Helvetica,sans-Serif" font-size="10.00" fill="#000000">org.cobbzilla.util.daemon.</text>
<text text-anchor="middle" x="228" y="-203.5" font-family="Helvetica,sans-Serif" font-size="10.00" fill="#000000">ZillaRuntime.envInt</text>
</a>
</g>
</g>
<!-- Node1&#45;&gt;Node2 -->
<g id="edge1" class="edge">
<title>Node1&#45;&gt;Node2</title>
<path fill="none" stroke="#191970" d="M89.1868,-135.2365C108.6466,-151.2386 136.7705,-172.6979 164,-187.5 169.9427,-190.7305 176.4119,-193.7122 182.8785,-196.3958"/>
<polygon fill="#191970" stroke="#191970" points="91.327,-132.4639 81.4052,-128.7478 86.844,-137.8401 91.327,-132.4639"/>
</g>
<!-- Node3 -->
<g id="node3" class="node">
<title>Node3</title>
<g id="a_node3"><a xlink:href="../../d4/de3/classorg_1_1cobbzilla_1_1util_1_1daemon_1_1ZillaRuntime_a78d8d13e02c5f08c4e0b3a3ceb582870.html#a78d8d13e02c5f08c4e0b3a3ceb582870" target="_top" xlink:title="org.cobbzilla.util.daemon.\lZillaRuntime.safeBoolean">
<polygon fill="none" stroke="#000000" points="164,-147.5 164,-177.5 292,-177.5 292,-147.5 164,-147.5"/>
<text text-anchor="start" x="172" y="-165.5" font-family="Helvetica,sans-Serif" font-size="10.00" fill="#000000">org.cobbzilla.util.daemon.</text>
<text text-anchor="middle" x="228" y="-154.5" font-family="Helvetica,sans-Serif" font-size="10.00" fill="#000000">ZillaRuntime.safeBoolean</text>
</a>
</g>
</g>
<!-- Node1&#45;&gt;Node3 -->
<g id="edge2" class="edge">
<title>Node1&#45;&gt;Node3</title>
<path fill="none" stroke="#191970" d="M124.1343,-131.467C141.706,-136.717 160.7229,-142.3989 177.6233,-147.4484"/>
<polygon fill="#191970" stroke="#191970" points="125.1271,-128.1108 114.5436,-128.6014 123.1231,-134.8178 125.1271,-128.1108"/>
</g>
<!-- Node4 -->
<g id="node4" class="node">
<title>Node4</title>
<g id="a_node4"><a xlink:href="../../d4/de3/classorg_1_1cobbzilla_1_1util_1_1daemon_1_1ZillaRuntime_a8de9d22fda2511a62e132e1b475f1443.html#a8de9d22fda2511a62e132e1b475f1443" target="_top" xlink:title="org.cobbzilla.util.daemon.\lZillaRuntime.safeInt">
<polygon fill="none" stroke="#000000" points="164,-98.5 164,-128.5 292,-128.5 292,-98.5 164,-98.5"/>
<text text-anchor="start" x="172" y="-116.5" font-family="Helvetica,sans-Serif" font-size="10.00" fill="#000000">org.cobbzilla.util.daemon.</text>
<text text-anchor="middle" x="228" y="-105.5" font-family="Helvetica,sans-Serif" font-size="10.00" fill="#000000">ZillaRuntime.safeInt</text>
</a>
</g>
</g>
<!-- Node1&#45;&gt;Node4 -->
<g id="edge3" class="edge">
<title>Node1&#45;&gt;Node4</title>
<path fill="none" stroke="#191970" d="M138.5641,-113.5C147.0037,-113.5 155.5492,-113.5 163.8391,-113.5"/>
<polygon fill="#191970" stroke="#191970" points="138.3465,-110.0001 128.3464,-113.5 138.3464,-117.0001 138.3465,-110.0001"/>
</g>
<!-- Node5 -->
<g id="node5" class="node">
<title>Node5</title>
<g id="a_node5"><a xlink:href="../../d4/de3/classorg_1_1cobbzilla_1_1util_1_1daemon_1_1ZillaRuntime_aa435370b4118691d473a3e64637b0041.html#aa435370b4118691d473a3e64637b0041" target="_top" xlink:title="org.cobbzilla.util.daemon.\lZillaRuntime.safeLong">
<polygon fill="none" stroke="#000000" points="164,-49.5 164,-79.5 292,-79.5 292,-49.5 164,-49.5"/>
<text text-anchor="start" x="172" y="-67.5" font-family="Helvetica,sans-Serif" font-size="10.00" fill="#000000">org.cobbzilla.util.daemon.</text>
<text text-anchor="middle" x="228" y="-56.5" font-family="Helvetica,sans-Serif" font-size="10.00" fill="#000000">ZillaRuntime.safeLong</text>
</a>
</g>
</g>
<!-- Node1&#45;&gt;Node5 -->
<g id="edge4" class="edge">
<title>Node1&#45;&gt;Node5</title>
<path fill="none" stroke="#191970" d="M124.1343,-95.533C141.706,-90.283 160.7229,-84.6011 177.6233,-79.5516"/>
<polygon fill="#191970" stroke="#191970" points="123.1231,-92.1822 114.5436,-98.3986 125.1271,-98.8892 123.1231,-92.1822"/>
</g>
<!-- Node6 -->
<g id="node6" class="node">
<title>Node6</title>
<g id="a_node6"><a xlink:href="../../d4/de3/classorg_1_1cobbzilla_1_1util_1_1daemon_1_1ZillaRuntime_aca9507f48430a830b9a38902bfc0641a.html#aca9507f48430a830b9a38902bfc0641a" target="_top" xlink:title="org.cobbzilla.util.daemon.\lZillaRuntime.sorted">
<polygon fill="none" stroke="#000000" points="164,-.5 164,-30.5 292,-30.5 292,-.5 164,-.5"/>
<text text-anchor="start" x="172" y="-18.5" font-family="Helvetica,sans-Serif" font-size="10.00" fill="#000000">org.cobbzilla.util.daemon.</text>
<text text-anchor="middle" x="228" y="-7.5" font-family="Helvetica,sans-Serif" font-size="10.00" fill="#000000">ZillaRuntime.sorted</text>
</a>
</g>
</g>
<!-- Node1&#45;&gt;Node6 -->
<g id="edge5" class="edge">
<title>Node1&#45;&gt;Node6</title>
<path fill="none" stroke="#191970" d="M89.6504,-91.9002C109.1501,-76.2125 137.1178,-55.2378 164,-40.5 170.5898,-36.8873 177.8121,-33.5386 184.9566,-30.5429"/>
<polygon fill="#191970" stroke="#191970" points="87.38,-89.2353 81.8397,-98.2661 91.8024,-94.6614 87.38,-89.2353"/>
</g>
</g>
</svg>
