<?xml version="1.0" encoding="UTF-8" standalone="no"?>
<!DOCTYPE svg PUBLIC "-//W3C//DTD SVG 1.1//EN"
 "http://www.w3.org/Graphics/SVG/1.1/DTD/svg11.dtd">
<!-- Generated by graphviz version 2.40.1 (20161225.0304)
 -->
<!-- Title: org.cobbzilla.util.daemon.ZillaRuntime.percent Pages: 1 -->
<svg width="300pt" height="106pt"
 viewBox="0.00 0.00 300.00 106.00" xmlns="http://www.w3.org/2000/svg" xmlns:xlink="http://www.w3.org/1999/xlink">
<g id="graph0" class="graph" transform="scale(1 1) rotate(0) translate(4 102)">
<title>org.cobbzilla.util.daemon.ZillaRuntime.percent</title>
<!-- Node0 -->
<g id="node1" class="node">
<title>Node0</title>
<polygon fill="#bfbfbf" stroke="#000000" points="0,-33.5 0,-63.5 128,-63.5 128,-33.5 0,-33.5"/>
<text text-anchor="start" x="8" y="-51.5" font-family="Helvetica,sans-Serif" font-size="10.00" fill="#000000">org.cobbzilla.util.daemon.</text>
<text text-anchor="middle" x="64" y="-40.5" font-family="Helvetica,sans-Serif" font-size="10.00" fill="#000000">ZillaRuntime.percent</text>
</g>
<!-- Node1 -->
<g id="node2" class="node">
<title>Node1</title>
<g id="a_node2"><a xlink:href="../../d4/de3/classorg_1_1cobbzilla_1_1util_1_1daemon_1_1ZillaRuntime_abd01b3230b13169c8913b00c57b1265d.html#abd01b3230b13169c8913b00c57b1265d" target="_top" xlink:title="org.cobbzilla.util.daemon.\lZillaRuntime.big">
<polygon fill="none" stroke="#000000" points="164,-67.5 164,-97.5 292,-97.5 292,-67.5 164,-67.5"/>
<text text-anchor="start" x="172" y="-85.5" font-family="Helvetica,sans-Serif" font-size="10.00" fill="#000000">org.cobbzilla.util.daemon.</text>
<text text-anchor="middle" x="228" y="-74.5" font-family="Helvetica,sans-Serif" font-size="10.00" fill="#000000">ZillaRuntime.big</text>
</a>
</g>
</g>
<!-- Node0&#45;&gt;Node1 -->
<g id="edge1" class="edge">
<title>Node0&#45;&gt;Node1</title>
<path fill="none" stroke="#191970" d="M128.3464,-61.8401C136.7313,-63.5784 145.3746,-65.3704 153.9029,-67.1384"/>
<polygon fill="#191970" stroke="#191970" points="153.3368,-70.5954 163.8391,-69.1984 154.7579,-63.7411 153.3368,-70.5954"/>
</g>
<!-- Node2 -->
<g id="node3" class="node">
<title>Node2</title>
<g id="a_node3"><a xlink:href="../../d4/de3/classorg_1_1cobbzilla_1_1util_1_1daemon_1_1ZillaRuntime_ab9d10db0996867b52028018d3e02a9cc.html#ab9d10db0996867b52028018d3e02a9cc" target="_top" xlink:title="org.cobbzilla.util.daemon.\lZillaRuntime.percent">
<polygon fill="none" stroke="#000000" points="164,-.5 164,-30.5 292,-30.5 292,-.5 164,-.5"/>
<text text-anchor="start" x="172" y="-18.5" font-family="Helvetica,sans-Serif" font-size="10.00" fill="#000000">org.cobbzilla.util.daemon.</text>
<text text-anchor="middle" x="228" y="-7.5" font-family="Helvetica,sans-Serif" font-size="10.00" fill="#000000">ZillaRuntime.percent</text>
</a>
</g>
</g>
<!-- Node0&#45;&gt;Node2 -->
<g id="edge2" class="edge">
<title>Node0&#45;&gt;Node2</title>
<path fill="none" stroke="#191970" d="M128.3464,-35.5522C136.7313,-33.865 145.3746,-32.1258 153.9029,-30.4098"/>
<polygon fill="#191970" stroke="#191970" points="154.7261,-33.8144 163.8391,-28.4104 153.3452,-26.9519 154.7261,-33.8144"/>
</g>
<!-- Node2&#45;&gt;Node2 -->
<g id="edge3" class="edge">
<title>Node2&#45;&gt;Node2</title>
<path fill="none" stroke="#191970" d="M199.4196,-30.659C192.5279,-40.0566 202.0547,-49 228,-49 243.8104,-49 253.524,-45.679 257.1408,-40.9579"/>
<polygon fill="#191970" stroke="#191970" points="260.6187,-40.454 256.5804,-30.659 253.629,-40.8344 260.6187,-40.454"/>
</g>
</g>
</svg>
