<?xml version="1.0" encoding="UTF-8" standalone="no"?>
<!DOCTYPE svg PUBLIC "-//W3C//DTD SVG 1.1//EN"
 "http://www.w3.org/Graphics/SVG/1.1/DTD/svg11.dtd">
<!-- Generated by graphviz version 2.40.1 (20161225.0304)
 -->
<!-- Title: org.cobbzilla.util.daemon.ZillaRuntime.die Pages: 1 -->
<svg width="315pt" height="149pt"
 viewBox="0.00 0.00 315.00 148.50" xmlns="http://www.w3.org/2000/svg" xmlns:xlink="http://www.w3.org/1999/xlink">
<g id="graph0" class="graph" transform="scale(1 1) rotate(0) translate(4 144.5)">
<title>org.cobbzilla.util.daemon.ZillaRuntime.die</title>
<!-- Node2 -->
<g id="node1" class="node">
<title>Node2</title>
<polygon fill="#bfbfbf" stroke="#000000" points="0,-49.5 0,-79.5 128,-79.5 128,-49.5 0,-49.5"/>
<text text-anchor="start" x="8" y="-67.5" font-family="Helvetica,sans-Serif" font-size="10.00" fill="#000000">org.cobbzilla.util.daemon.</text>
<text text-anchor="middle" x="64" y="-56.5" font-family="Helvetica,sans-Serif" font-size="10.00" fill="#000000">ZillaRuntime.die</text>
</g>
<!-- Node3 -->
<g id="node2" class="node">
<title>Node3</title>
<g id="a_node2"><a xlink:href="../../d6/dee/classorg_1_1cobbzilla_1_1util_1_1main_1_1BaseMain_a43abb9f79a924b1a222a6a8350b0a257.html#a43abb9f79a924b1a222a6a8350b0a257" target="_top" xlink:title="org.cobbzilla.util.main.\lBaseMain\&lt; HttpMainOptions\l \&gt;::main">
<polygon fill="none" stroke="#000000" points="164,-99 164,-140 307,-140 307,-99 164,-99"/>
<text text-anchor="start" x="172" y="-128" font-family="Helvetica,sans-Serif" font-size="10.00" fill="#000000">org.cobbzilla.util.main.</text>
<text text-anchor="start" x="172" y="-117" font-family="Helvetica,sans-Serif" font-size="10.00" fill="#000000">BaseMain&lt; HttpMainOptions</text>
<text text-anchor="middle" x="235.5" y="-106" font-family="Helvetica,sans-Serif" font-size="10.00" fill="#000000"> &gt;::main</text>
</a>
</g>
</g>
<!-- Node2&#45;&gt;Node3 -->
<g id="edge1" class="edge">
<title>Node2&#45;&gt;Node3</title>
<path fill="none" stroke="#191970" d="M120.7284,-82.6928C136.9373,-87.891 154.7146,-93.5922 171.3348,-98.9223"/>
<polygon fill="#191970" stroke="#191970" points="121.4543,-79.2501 110.8631,-79.529 119.3166,-85.9157 121.4543,-79.2501"/>
</g>
<!-- Node4 -->
<g id="node3" class="node">
<title>Node4</title>
<g id="a_node3"><a xlink:href="../../d4/de3/classorg_1_1cobbzilla_1_1util_1_1daemon_1_1ZillaRuntime_aca9507f48430a830b9a38902bfc0641a.html#aca9507f48430a830b9a38902bfc0641a" target="_top" xlink:title="org.cobbzilla.util.daemon.\lZillaRuntime.sorted">
<polygon fill="none" stroke="#000000" points="171.5,-49.5 171.5,-79.5 299.5,-79.5 299.5,-49.5 171.5,-49.5"/>
<text text-anchor="start" x="179.5" y="-67.5" font-family="Helvetica,sans-Serif" font-size="10.00" fill="#000000">org.cobbzilla.util.daemon.</text>
<text text-anchor="middle" x="235.5" y="-56.5" font-family="Helvetica,sans-Serif" font-size="10.00" fill="#000000">ZillaRuntime.sorted</text>
</a>
</g>
</g>
<!-- Node2&#45;&gt;Node4 -->
<g id="edge2" class="edge">
<title>Node2&#45;&gt;Node4</title>
<path fill="none" stroke="#191970" d="M138.353,-64.5C149.3482,-64.5 160.5979,-64.5 171.3615,-64.5"/>
<polygon fill="#191970" stroke="#191970" points="138.3482,-61.0001 128.3482,-64.5 138.3482,-68.0001 138.3482,-61.0001"/>
</g>
<!-- Node5 -->
<g id="node4" class="node">
<title>Node5</title>
<g id="a_node4"><a xlink:href="../../d4/de3/classorg_1_1cobbzilla_1_1util_1_1daemon_1_1ZillaRuntime_a48f88d9201538e72f0f90958892113c6.html#a48f88d9201538e72f0f90958892113c6" target="_top" xlink:title="org.cobbzilla.util.daemon.\lZillaRuntime.sortedList">
<polygon fill="none" stroke="#000000" points="171.5,-.5 171.5,-30.5 299.5,-30.5 299.5,-.5 171.5,-.5"/>
<text text-anchor="start" x="179.5" y="-18.5" font-family="Helvetica,sans-Serif" font-size="10.00" fill="#000000">org.cobbzilla.util.daemon.</text>
<text text-anchor="middle" x="235.5" y="-7.5" font-family="Helvetica,sans-Serif" font-size="10.00" fill="#000000">ZillaRuntime.sortedList</text>
</a>
</g>
</g>
<!-- Node2&#45;&gt;Node5 -->
<g id="edge3" class="edge">
<title>Node2&#45;&gt;Node5</title>
<path fill="none" stroke="#191970" d="M126.6293,-46.6059C145.0755,-41.3356 165.0644,-35.6245 182.8195,-30.5516"/>
<polygon fill="#191970" stroke="#191970" points="125.5087,-43.2859 116.855,-49.3986 127.4318,-50.0166 125.5087,-43.2859"/>
</g>
</g>
</svg>
