<?xml version="1.0" encoding="UTF-8" standalone="no"?>
<!DOCTYPE svg PUBLIC "-//W3C//DTD SVG 1.1//EN"
 "http://www.w3.org/Graphics/SVG/1.1/DTD/svg11.dtd">
<!-- Generated by graphviz version 2.40.1 (20161225.0304)
 -->
<!-- Title: org.cobbzilla.util.jdbc.ResultSetBean Pages: 1 -->
<svg width="350pt" height="485pt"
 viewBox="0.00 0.00 349.50 485.00" xmlns="http://www.w3.org/2000/svg" xmlns:xlink="http://www.w3.org/1999/xlink">
<g id="graph0" class="graph" transform="scale(1 1) rotate(0) translate(4 481)">
<title>org.cobbzilla.util.jdbc.ResultSetBean</title>
<!-- Node2 -->
<g id="node1" class="node">
<title>Node2</title>
<polygon fill="#bfbfbf" stroke="#000000" points="92,-.5 92,-255.5 203,-255.5 203,-.5 92,-.5"/>
<text text-anchor="start" x="100" y="-243.5" font-family="Helvetica,sans-Serif" font-size="10.00" fill="#000000">org.cobbzilla.util.jdbc.</text>
<text text-anchor="middle" x="147.5" y="-232.5" font-family="Helvetica,sans-Serif" font-size="10.00" fill="#000000">ResultSetBean</text>
<polyline fill="none" stroke="#000000" points="92,-225.5 203,-225.5 "/>
<text text-anchor="middle" x="147.5" y="-213.5" font-family="Helvetica,sans-Serif" font-size="10.00" fill="#000000"> </text>
<polyline fill="none" stroke="#000000" points="92,-206.5 203,-206.5 "/>
<text text-anchor="start" x="100" y="-194.5" font-family="Helvetica,sans-Serif" font-size="10.00" fill="#000000">+ isEmpty()</text>
<text text-anchor="start" x="100" y="-183.5" font-family="Helvetica,sans-Serif" font-size="10.00" fill="#000000">+ rowCount()</text>
<text text-anchor="start" x="100" y="-172.5" font-family="Helvetica,sans-Serif" font-size="10.00" fill="#000000">+ first()</text>
<text text-anchor="start" x="100" y="-161.5" font-family="Helvetica,sans-Serif" font-size="10.00" fill="#000000">+ count()</text>
<text text-anchor="start" x="100" y="-150.5" font-family="Helvetica,sans-Serif" font-size="10.00" fill="#000000">+ countOrZero()</text>
<text text-anchor="start" x="100" y="-139.5" font-family="Helvetica,sans-Serif" font-size="10.00" fill="#000000">+ ResultSetBean()</text>
<text text-anchor="start" x="100" y="-128.5" font-family="Helvetica,sans-Serif" font-size="10.00" fill="#000000">+ ResultSetBean()</text>
<text text-anchor="start" x="100" y="-117.5" font-family="Helvetica,sans-Serif" font-size="10.00" fill="#000000">+ ResultSetBean()</text>
<text text-anchor="start" x="100" y="-106.5" font-family="Helvetica,sans-Serif" font-size="10.00" fill="#000000">+ getRsMetaData()</text>
<text text-anchor="start" x="100" y="-95.5" font-family="Helvetica,sans-Serif" font-size="10.00" fill="#000000">+ getRsMetaData()</text>
<text text-anchor="start" x="100" y="-84.5" font-family="Helvetica,sans-Serif" font-size="10.00" fill="#000000">+ row2map()</text>
<text text-anchor="start" x="100" y="-73.5" font-family="Helvetica,sans-Serif" font-size="10.00" fill="#000000">+ row2map()</text>
<text text-anchor="start" x="100" y="-62.5" font-family="Helvetica,sans-Serif" font-size="10.00" fill="#000000">+ row2map()</text>
<text text-anchor="start" x="100" y="-51.5" font-family="Helvetica,sans-Serif" font-size="10.00" fill="#000000">+ getColumns()</text>
<text text-anchor="start" x="100" y="-40.5" font-family="Helvetica,sans-Serif" font-size="10.00" fill="#000000">~ getColumnValues()</text>
<text text-anchor="start" x="100" y="-29.5" font-family="Helvetica,sans-Serif" font-size="10.00" fill="#000000">&#45; read()</text>
<text text-anchor="start" x="100" y="-18.5" font-family="Helvetica,sans-Serif" font-size="10.00" fill="#000000">&#45; read()</text>
<text text-anchor="start" x="100" y="-7.5" font-family="Helvetica,sans-Serif" font-size="10.00" fill="#000000">&#45; read()</text>
</g>
<!-- Node2&#45;&gt;Node2 -->
<g id="edge1" class="edge">
<title>Node2&#45;&gt;Node2</title>
<path fill="none" stroke="#404040" d="M203.2668,-154.6813C213.672,-151.3957 221,-142.502 221,-128 221,-119.1629 218.2788,-112.4083 213.7984,-107.7362"/>
<polygon fill="none" stroke="#404040" points="213.5141,-107.563 206.309,-107.8566 203.2668,-101.3187 210.4719,-101.0251 213.5141,-107.563"/>
<text text-anchor="middle" x="243" y="-125.5" font-family="Helvetica,sans-Serif" font-size="10.00" fill="#000000"> +EMPTY</text>
</g>
<!-- Node3 -->
<g id="node2" class="node">
<title>Node3</title>
<polygon fill="none" stroke="#bfbfbf" points="0,-303.5 0,-371.5 145,-371.5 145,-303.5 0,-303.5"/>
<text text-anchor="start" x="8" y="-359.5" font-family="Helvetica,sans-Serif" font-size="10.00" fill="#000000">AtomicReference&lt; ResultSet</text>
<text text-anchor="middle" x="72.5" y="-348.5" font-family="Helvetica,sans-Serif" font-size="10.00" fill="#000000">MetaData &gt;</text>
<polyline fill="none" stroke="#bfbfbf" points="0,-341.5 145,-341.5 "/>
<text text-anchor="middle" x="72.5" y="-329.5" font-family="Helvetica,sans-Serif" font-size="10.00" fill="#000000"> </text>
<polyline fill="none" stroke="#bfbfbf" points="0,-322.5 145,-322.5 "/>
<text text-anchor="middle" x="72.5" y="-310.5" font-family="Helvetica,sans-Serif" font-size="10.00" fill="#000000"> </text>
</g>
<!-- Node3&#45;&gt;Node2 -->
<g id="edge2" class="edge">
<title>Node3&#45;&gt;Node2</title>
<path fill="none" stroke="#404040" d="M84.717,-303.3739C88.4731,-292.8817 92.8627,-280.6201 97.5446,-267.5421"/>
<polygon fill="none" stroke="#404040" points="97.6809,-267.1611 95.9373,-260.164 101.7256,-255.8633 103.4692,-262.8604 97.6809,-267.1611"/>
<text text-anchor="middle" x="124.5" y="-277" font-family="Helvetica,sans-Serif" font-size="10.00" fill="#000000"> &#45;rsMetaData</text>
</g>
<!-- Node4 -->
<g id="node3" class="node">
<title>Node4</title>
<polygon fill="none" stroke="#bfbfbf" points="26.5,-419.5 26.5,-476.5 118.5,-476.5 118.5,-419.5 26.5,-419.5"/>
<text text-anchor="middle" x="72.5" y="-464.5" font-family="Helvetica,sans-Serif" font-size="10.00" fill="#000000">AtomicReference</text>
<polyline fill="none" stroke="#bfbfbf" points="26.5,-457.5 118.5,-457.5 "/>
<text text-anchor="middle" x="72.5" y="-445.5" font-family="Helvetica,sans-Serif" font-size="10.00" fill="#000000"> </text>
<polyline fill="none" stroke="#bfbfbf" points="26.5,-438.5 118.5,-438.5 "/>
<text text-anchor="middle" x="72.5" y="-426.5" font-family="Helvetica,sans-Serif" font-size="10.00" fill="#000000"> </text>
</g>
<!-- Node4&#45;&gt;Node3 -->
<g id="edge3" class="edge">
<title>Node4&#45;&gt;Node3</title>
<path fill="none" stroke="#ffa500" d="M72.5,-408.9162C72.5,-396.7375 72.5,-383.4096 72.5,-371.6001"/>
<polygon fill="#ffa500" stroke="#ffa500" points="69.0001,-409.2559 72.5,-419.2559 76.0001,-409.2559 69.0001,-409.2559"/>
<text text-anchor="middle" x="126.5" y="-393" font-family="Helvetica,sans-Serif" font-size="10.00" fill="#000000"> &lt; ResultSetMetaData &gt;</text>
</g>
<!-- Node5 -->
<g id="node4" class="node">
<title>Node5</title>
<polygon fill="none" stroke="#bfbfbf" points="163,-303.5 163,-371.5 284,-371.5 284,-303.5 163,-303.5"/>
<text text-anchor="start" x="171" y="-359.5" font-family="Helvetica,sans-Serif" font-size="10.00" fill="#000000">ArrayList&lt; Map&lt; String,</text>
<text text-anchor="middle" x="223.5" y="-348.5" font-family="Helvetica,sans-Serif" font-size="10.00" fill="#000000"> Object &gt; &gt;</text>
<polyline fill="none" stroke="#bfbfbf" points="163,-341.5 284,-341.5 "/>
<text text-anchor="middle" x="223.5" y="-329.5" font-family="Helvetica,sans-Serif" font-size="10.00" fill="#000000"> </text>
<polyline fill="none" stroke="#bfbfbf" points="163,-322.5 284,-322.5 "/>
<text text-anchor="middle" x="223.5" y="-310.5" font-family="Helvetica,sans-Serif" font-size="10.00" fill="#000000"> </text>
</g>
<!-- Node5&#45;&gt;Node2 -->
<g id="edge4" class="edge">
<title>Node5&#45;&gt;Node2</title>
<path fill="none" stroke="#404040" d="M211.1201,-303.3739C207.2755,-292.7758 202.7758,-280.3722 197.9776,-267.1456"/>
<polygon fill="none" stroke="#404040" points="197.9771,-267.1439 192.1707,-262.8677 193.8848,-255.8633 199.6912,-260.1395 197.9771,-267.1439"/>
<text text-anchor="middle" x="216.5" y="-277" font-family="Helvetica,sans-Serif" font-size="10.00" fill="#000000"> &#45;rows</text>
</g>
<!-- Node6 -->
<g id="node5" class="node">
<title>Node6</title>
<polygon fill="none" stroke="#bfbfbf" points="195.5,-419.5 195.5,-476.5 251.5,-476.5 251.5,-419.5 195.5,-419.5"/>
<text text-anchor="middle" x="223.5" y="-464.5" font-family="Helvetica,sans-Serif" font-size="10.00" fill="#000000">ArrayList</text>
<polyline fill="none" stroke="#bfbfbf" points="195.5,-457.5 251.5,-457.5 "/>
<text text-anchor="middle" x="223.5" y="-445.5" font-family="Helvetica,sans-Serif" font-size="10.00" fill="#000000"> </text>
<polyline fill="none" stroke="#bfbfbf" points="195.5,-438.5 251.5,-438.5 "/>
<text text-anchor="middle" x="223.5" y="-426.5" font-family="Helvetica,sans-Serif" font-size="10.00" fill="#000000"> </text>
</g>
<!-- Node6&#45;&gt;Node5 -->
<g id="edge5" class="edge">
<title>Node6&#45;&gt;Node5</title>
<path fill="none" stroke="#ffa500" d="M223.5,-408.9162C223.5,-396.7375 223.5,-383.4096 223.5,-371.6001"/>
<polygon fill="#ffa500" stroke="#ffa500" points="220.0001,-409.2559 223.5,-419.2559 227.0001,-409.2559 220.0001,-409.2559"/>
<text text-anchor="middle" x="282.5" y="-393" font-family="Helvetica,sans-Serif" font-size="10.00" fill="#000000"> &lt; Map&lt; String, Object &gt; &gt;</text>
</g>
</g>
</svg>
