<?xml version="1.0" encoding="UTF-8" standalone="no"?>
<!DOCTYPE svg PUBLIC "-//W3C//DTD SVG 1.1//EN"
 "http://www.w3.org/Graphics/SVG/1.1/DTD/svg11.dtd">
<!-- Generated by graphviz version 2.40.1 (20161225.0304)
 -->
<!-- Title: Graphical Class Hierarchy Pages: 1 -->
<svg width="335pt" height="382pt"
 viewBox="0.00 0.00 335.00 382.00" xmlns="http://www.w3.org/2000/svg" xmlns:xlink="http://www.w3.org/1999/xlink">
<g id="graph0" class="graph" transform="scale(1 1) rotate(0) translate(4 378)">
<title>Graphical Class Hierarchy</title>
<!-- Node0 -->
<g id="node1" class="node">
<title>Node0</title>
<g id="a_node1"><a xlink:href="d6/dee/classorg_1_1cobbzilla_1_1util_1_1main_1_1BaseMain.html" target="_top" xlink:title="org.cobbzilla.util.main.\lBaseMain\&lt; OPT extends\l BaseMainOptions \&gt;">
<polygon fill="none" stroke="#000000" points="0,-166 0,-207 127,-207 127,-166 0,-166"/>
<text text-anchor="start" x="8" y="-195" font-family="Helvetica,sans-Serif" font-size="10.00" fill="#000000">org.cobbzilla.util.main.</text>
<text text-anchor="start" x="8" y="-184" font-family="Helvetica,sans-Serif" font-size="10.00" fill="#000000">BaseMain&lt; OPT extends</text>
<text text-anchor="middle" x="63.5" y="-173" font-family="Helvetica,sans-Serif" font-size="10.00" fill="#000000"> BaseMainOptions &gt;</text>
</a>
</g>
</g>
<!-- Node1 -->
<g id="node2" class="node">
<title>Node1</title>
<g id="a_node2"><a xlink:href="d5/d66/classorg_1_1cobbzilla_1_1util_1_1handlebars_1_1main_1_1PdfConcatMain.html" target="_top" xlink:title="org.cobbzilla.util.handlebars.main.\lPdfConcatMain">
<polygon fill="none" stroke="#000000" points="163,-343.5 163,-373.5 327,-373.5 327,-343.5 163,-343.5"/>
<text text-anchor="start" x="171" y="-361.5" font-family="Helvetica,sans-Serif" font-size="10.00" fill="#000000">org.cobbzilla.util.handlebars.main.</text>
<text text-anchor="middle" x="245" y="-350.5" font-family="Helvetica,sans-Serif" font-size="10.00" fill="#000000">PdfConcatMain</text>
</a>
</g>
</g>
<!-- Node0&#45;&gt;Node1 -->
<g id="edge1" class="edge">
<title>Node0&#45;&gt;Node1</title>
<path fill="none" stroke="#191970" d="M75.9567,-216.3706C91.4801,-249.9833 121.1589,-303.8764 163,-334.5 167.6682,-337.9167 172.8172,-340.8494 178.1921,-343.3662"/>
<polygon fill="#191970" stroke="#191970" points="79.0624,-214.7424 71.7754,-207.0514 72.6757,-217.6079 79.0624,-214.7424"/>
</g>
<!-- Node2 -->
<g id="node3" class="node">
<title>Node2</title>
<g id="a_node3"><a xlink:href="d9/d75/classorg_1_1cobbzilla_1_1util_1_1handlebars_1_1main_1_1PdfMergeMain.html" target="_top" xlink:title="org.cobbzilla.util.handlebars.main.\lPdfMergeMain">
<polygon fill="none" stroke="#000000" points="163,-294.5 163,-324.5 327,-324.5 327,-294.5 163,-294.5"/>
<text text-anchor="start" x="171" y="-312.5" font-family="Helvetica,sans-Serif" font-size="10.00" fill="#000000">org.cobbzilla.util.handlebars.main.</text>
<text text-anchor="middle" x="245" y="-301.5" font-family="Helvetica,sans-Serif" font-size="10.00" fill="#000000">PdfMergeMain</text>
</a>
</g>
</g>
<!-- Node0&#45;&gt;Node2 -->
<g id="edge2" class="edge">
<title>Node0&#45;&gt;Node2</title>
<path fill="none" stroke="#191970" d="M85.5002,-215.1679C103.9499,-237.3552 132.1721,-267.2795 163,-285.5 168.7464,-288.8963 175.0062,-291.8402 181.4215,-294.3858"/>
<polygon fill="#191970" stroke="#191970" points="88.1867,-212.9241 79.1583,-207.3798 82.7586,-217.3441 88.1867,-212.9241"/>
</g>
<!-- Node3 -->
<g id="node4" class="node">
<title>Node3</title>
<g id="a_node4"><a xlink:href="d7/d34/classorg_1_1cobbzilla_1_1util_1_1http_1_1main_1_1HttpMain.html" target="_top" xlink:title="org.cobbzilla.util.http.main.\lHttpMain">
<polygon fill="none" stroke="#000000" points="178,-245.5 178,-275.5 312,-275.5 312,-245.5 178,-245.5"/>
<text text-anchor="start" x="186" y="-263.5" font-family="Helvetica,sans-Serif" font-size="10.00" fill="#000000">org.cobbzilla.util.http.main.</text>
<text text-anchor="middle" x="245" y="-252.5" font-family="Helvetica,sans-Serif" font-size="10.00" fill="#000000">HttpMain</text>
</a>
</g>
</g>
<!-- Node0&#45;&gt;Node3 -->
<g id="edge3" class="edge">
<title>Node0&#45;&gt;Node3</title>
<path fill="none" stroke="#191970" d="M109.4934,-211.7924C126.062,-220.3166 145.0908,-229.4465 163,-236.5 171.1429,-239.7071 179.8879,-242.7107 188.525,-245.4342"/>
<polygon fill="#191970" stroke="#191970" points="111.0496,-208.6566 100.5644,-207.136 107.8128,-214.8633 111.0496,-208.6566"/>
</g>
<!-- Node4 -->
<g id="node5" class="node">
<title>Node4</title>
<g id="a_node5"><a xlink:href="d7/deb/classorg_1_1cobbzilla_1_1util_1_1io_1_1main_1_1FilesystemWatcherMain.html" target="_top" xlink:title="org.cobbzilla.util.io.main.\lFilesystemWatcherMain">
<polygon fill="none" stroke="#000000" points="182.5,-196.5 182.5,-226.5 307.5,-226.5 307.5,-196.5 182.5,-196.5"/>
<text text-anchor="start" x="190.5" y="-214.5" font-family="Helvetica,sans-Serif" font-size="10.00" fill="#000000">org.cobbzilla.util.io.main.</text>
<text text-anchor="middle" x="245" y="-203.5" font-family="Helvetica,sans-Serif" font-size="10.00" fill="#000000">FilesystemWatcherMain</text>
</a>
</g>
</g>
<!-- Node0&#45;&gt;Node4 -->
<g id="edge4" class="edge">
<title>Node0&#45;&gt;Node4</title>
<path fill="none" stroke="#191970" d="M137.4312,-196.6834C152.3338,-198.7361 167.8635,-200.8751 182.336,-202.8686"/>
<polygon fill="#191970" stroke="#191970" points="137.619,-193.1763 127.2349,-195.2789 136.6637,-200.1108 137.619,-193.1763"/>
</g>
<!-- Node5 -->
<g id="node6" class="node">
<title>Node5</title>
<g id="a_node6"><a xlink:href="d1/dcf/classorg_1_1cobbzilla_1_1util_1_1io_1_1main_1_1JarTrimmerMain.html" target="_top" xlink:title="org.cobbzilla.util.io.main.\lJarTrimmerMain">
<polygon fill="none" stroke="#000000" points="182.5,-147.5 182.5,-177.5 307.5,-177.5 307.5,-147.5 182.5,-147.5"/>
<text text-anchor="start" x="190.5" y="-165.5" font-family="Helvetica,sans-Serif" font-size="10.00" fill="#000000">org.cobbzilla.util.io.main.</text>
<text text-anchor="middle" x="245" y="-154.5" font-family="Helvetica,sans-Serif" font-size="10.00" fill="#000000">JarTrimmerMain</text>
</a>
</g>
</g>
<!-- Node0&#45;&gt;Node5 -->
<g id="edge5" class="edge">
<title>Node0&#45;&gt;Node5</title>
<path fill="none" stroke="#191970" d="M137.4312,-176.724C152.3338,-174.7534 167.8635,-172.6999 182.336,-170.7862"/>
<polygon fill="#191970" stroke="#191970" points="136.6898,-173.2915 127.2349,-178.0722 137.6074,-180.2311 136.6898,-173.2915"/>
</g>
<!-- Node6 -->
<g id="node7" class="node">
<title>Node6</title>
<g id="a_node7"><a xlink:href="d7/d80/classorg_1_1cobbzilla_1_1util_1_1io_1_1main_1_1UniqueFileWalkerMain.html" target="_top" xlink:title="org.cobbzilla.util.io.main.\lUniqueFileWalkerMain">
<polygon fill="none" stroke="#000000" points="182.5,-98.5 182.5,-128.5 307.5,-128.5 307.5,-98.5 182.5,-98.5"/>
<text text-anchor="start" x="190.5" y="-116.5" font-family="Helvetica,sans-Serif" font-size="10.00" fill="#000000">org.cobbzilla.util.io.main.</text>
<text text-anchor="middle" x="245" y="-105.5" font-family="Helvetica,sans-Serif" font-size="10.00" fill="#000000">UniqueFileWalkerMain</text>
</a>
</g>
</g>
<!-- Node0&#45;&gt;Node6 -->
<g id="edge6" class="edge">
<title>Node0&#45;&gt;Node6</title>
<path fill="none" stroke="#191970" d="M111.7774,-161.3703C127.8404,-153.5073 145.9775,-145.1554 163,-138.5 172.0098,-134.9774 181.7308,-131.6319 191.2208,-128.6007"/>
<polygon fill="#191970" stroke="#191970" points="109.9891,-158.3503 102.5835,-165.927 113.0977,-164.6222 109.9891,-158.3503"/>
</g>
<!-- Node7 -->
<g id="node8" class="node">
<title>Node7</title>
<g id="a_node8"><a xlink:href="d8/de4/classorg_1_1cobbzilla_1_1util_1_1io_1_1main_1_1UnrollMain.html" target="_top" xlink:title="org.cobbzilla.util.io.main.\lUnrollMain">
<polygon fill="none" stroke="#000000" points="182.5,-49.5 182.5,-79.5 307.5,-79.5 307.5,-49.5 182.5,-49.5"/>
<text text-anchor="start" x="190.5" y="-67.5" font-family="Helvetica,sans-Serif" font-size="10.00" fill="#000000">org.cobbzilla.util.io.main.</text>
<text text-anchor="middle" x="245" y="-56.5" font-family="Helvetica,sans-Serif" font-size="10.00" fill="#000000">UnrollMain</text>
</a>
</g>
</g>
<!-- Node0&#45;&gt;Node7 -->
<g id="edge7" class="edge">
<title>Node0&#45;&gt;Node7</title>
<path fill="none" stroke="#191970" d="M86.2558,-157.8406C104.8095,-136.2343 132.8072,-107.3654 163,-89.5 169.4044,-85.7105 176.4351,-82.4476 183.6031,-79.6501"/>
<polygon fill="#191970" stroke="#191970" points="83.3804,-155.8217 79.6224,-165.7277 88.7376,-160.3273 83.3804,-155.8217"/>
</g>
<!-- Node8 -->
<g id="node9" class="node">
<title>Node8</title>
<g id="a_node9"><a xlink:href="d3/d75/classorg_1_1cobbzilla_1_1util_1_1json_1_1main_1_1JsonEditor.html" target="_top" xlink:title="org.cobbzilla.util.json.main.\lJsonEditor">
<polygon fill="none" stroke="#000000" points="177.5,-.5 177.5,-30.5 312.5,-30.5 312.5,-.5 177.5,-.5"/>
<text text-anchor="start" x="185.5" y="-18.5" font-family="Helvetica,sans-Serif" font-size="10.00" fill="#000000">org.cobbzilla.util.json.main.</text>
<text text-anchor="middle" x="245" y="-7.5" font-family="Helvetica,sans-Serif" font-size="10.00" fill="#000000">JsonEditor</text>
</a>
</g>
</g>
<!-- Node0&#45;&gt;Node8 -->
<g id="edge8" class="edge">
<title>Node0&#45;&gt;Node8</title>
<path fill="none" stroke="#191970" d="M76.3796,-156.5746C92.1246,-123.4575 121.8465,-70.7748 163,-40.5 168.2749,-36.6195 174.159,-33.3343 180.2869,-30.5546"/>
<polygon fill="#191970" stroke="#191970" points="73.1482,-155.2238 72.1279,-165.7694 79.5018,-158.1618 73.1482,-155.2238"/>
</g>
</g>
</svg>
