<?xml version="1.0" encoding="UTF-8" standalone="no"?>
<!DOCTYPE svg PUBLIC "-//W3C//DTD SVG 1.1//EN"
 "http://www.w3.org/Graphics/SVG/1.1/DTD/svg11.dtd">
<!-- Generated by graphviz version 2.40.1 (20161225.0304)
 -->
<!-- Title: Graphical Class Hierarchy Pages: 1 -->
<svg width="333pt" height="198pt"
 viewBox="0.00 0.00 333.00 198.00" xmlns="http://www.w3.org/2000/svg" xmlns:xlink="http://www.w3.org/1999/xlink">
<g id="graph0" class="graph" transform="scale(1 1) rotate(0) translate(4 194)">
<title>Graphical Class Hierarchy</title>
<!-- Node555 -->
<g id="node1" class="node">
<title>Node555</title>
<polygon fill="none" stroke="#bfbfbf" points="0,-88 0,-107 95,-107 95,-88 0,-88"/>
<text text-anchor="middle" x="47.5" y="-95" font-family="Helvetica,sans-Serif" font-size="10.00" fill="#000000">InvocationHandler</text>
</g>
<!-- Node0 -->
<g id="node2" class="node">
<title>Node0</title>
<g id="a_node2"><a xlink:href="d9/d1f/classorg_1_1cobbzilla_1_1util_1_1reflect_1_1Immutable.html" target="_top" xlink:title="org.cobbzilla.util.reflect.\lImmutable\&lt; T \&gt;">
<polygon fill="none" stroke="#000000" points="168,-159.5 168,-189.5 288,-189.5 288,-159.5 168,-159.5"/>
<text text-anchor="start" x="176" y="-177.5" font-family="Helvetica,sans-Serif" font-size="10.00" fill="#000000">org.cobbzilla.util.reflect.</text>
<text text-anchor="middle" x="228" y="-166.5" font-family="Helvetica,sans-Serif" font-size="10.00" fill="#000000">Immutable&lt; T &gt;</text>
</a>
</g>
</g>
<!-- Node555&#45;&gt;Node0 -->
<g id="edge1" class="edge">
<title>Node555&#45;&gt;Node0</title>
<path fill="none" stroke="#191970" d="M68.0281,-113.2006C84.3194,-124.9814 108.0884,-140.7033 131,-150.5 142.5645,-155.4448 155.3586,-159.5138 167.7584,-162.8063"/>
<polygon fill="#191970" stroke="#191970" points="69.9231,-110.2491 59.7997,-107.1238 65.7646,-115.88 69.9231,-110.2491"/>
</g>
<!-- Node557 -->
<g id="node3" class="node">
<title>Node557</title>
<g id="a_node3"><a xlink:href="de/dcf/classorg_1_1cobbzilla_1_1util_1_1reflect_1_1NoSetters_1_1NoSettersInvocationHandler.html" target="_top" xlink:title="org.cobbzilla.util.reflect.\lNoSetters.NoSettersInvocationHandler">
<polygon fill="none" stroke="#000000" points="134.5,-110.5 134.5,-140.5 321.5,-140.5 321.5,-110.5 134.5,-110.5"/>
<text text-anchor="start" x="142.5" y="-128.5" font-family="Helvetica,sans-Serif" font-size="10.00" fill="#000000">org.cobbzilla.util.reflect.</text>
<text text-anchor="middle" x="228" y="-117.5" font-family="Helvetica,sans-Serif" font-size="10.00" fill="#000000">NoSetters.NoSettersInvocationHandler</text>
</a>
</g>
</g>
<!-- Node555&#45;&gt;Node557 -->
<g id="edge2" class="edge">
<title>Node555&#45;&gt;Node557</title>
<path fill="none" stroke="#191970" d="M105.307,-106.4673C114.6547,-107.9174 124.5381,-109.4505 134.4745,-110.9919"/>
<polygon fill="#191970" stroke="#191970" points="105.8152,-103.0043 95.3968,-104.93 104.7421,-109.9216 105.8152,-103.0043"/>
</g>
<!-- Node558 -->
<g id="node4" class="node">
<title>Node558</title>
<g id="a_node4"><a xlink:href="dd/d0f/classorg_1_1cobbzilla_1_1util_1_1reflect_1_1OnlyGetters_1_1OnlyGettersInvocationHandler.html" target="_top" xlink:title="org.cobbzilla.util.reflect.\lOnlyGetters.OnlyGettersInvocation\lHandler">
<polygon fill="none" stroke="#000000" points="143,-50 143,-91 313,-91 313,-50 143,-50"/>
<text text-anchor="start" x="151" y="-79" font-family="Helvetica,sans-Serif" font-size="10.00" fill="#000000">org.cobbzilla.util.reflect.</text>
<text text-anchor="start" x="151" y="-68" font-family="Helvetica,sans-Serif" font-size="10.00" fill="#000000">OnlyGetters.OnlyGettersInvocation</text>
<text text-anchor="middle" x="228" y="-57" font-family="Helvetica,sans-Serif" font-size="10.00" fill="#000000">Handler</text>
</a>
</g>
</g>
<!-- Node555&#45;&gt;Node558 -->
<g id="edge3" class="edge">
<title>Node555&#45;&gt;Node558</title>
<path fill="none" stroke="#191970" d="M105.6055,-88.8083C117.5018,-87.0288 130.2552,-85.1211 142.8745,-83.2335"/>
<polygon fill="#191970" stroke="#191970" points="104.769,-85.3944 95.3968,-90.3354 105.8046,-92.3174 104.769,-85.3944"/>
</g>
<!-- Node559 -->
<g id="node5" class="node">
<title>Node559</title>
<g id="a_node5"><a xlink:href="dc/d34/classorg_1_1cobbzilla_1_1util_1_1reflect_1_1PoisonProxy_1_1PoisonedInvocationHandler.html" target="_top" xlink:title="org.cobbzilla.util.reflect.\lPoisonProxy.PoisonedInvocationHandler">
<polygon fill="none" stroke="#000000" points="131,-.5 131,-30.5 325,-30.5 325,-.5 131,-.5"/>
<text text-anchor="start" x="139" y="-18.5" font-family="Helvetica,sans-Serif" font-size="10.00" fill="#000000">org.cobbzilla.util.reflect.</text>
<text text-anchor="middle" x="228" y="-7.5" font-family="Helvetica,sans-Serif" font-size="10.00" fill="#000000">PoisonProxy.PoisonedInvocationHandler</text>
</a>
</g>
</g>
<!-- Node555&#45;&gt;Node559 -->
<g id="edge4" class="edge">
<title>Node555&#45;&gt;Node559</title>
<path fill="none" stroke="#191970" d="M67.0249,-81.263C83.2416,-68.5198 107.3953,-51.2004 131,-40.5 139.3947,-36.6945 148.4711,-33.3932 157.5871,-30.5504"/>
<polygon fill="#191970" stroke="#191970" points="64.4905,-78.8095 58.8861,-87.8007 68.8742,-84.2669 64.4905,-78.8095"/>
</g>
</g>
</svg>
