<?xml version="1.0" encoding="UTF-8" standalone="no"?>
<!DOCTYPE svg PUBLIC "-//W3C//DTD SVG 1.1//EN"
 "http://www.w3.org/Graphics/SVG/1.1/DTD/svg11.dtd">
<!-- Generated by graphviz version 2.40.1 (20161225.0304)
 -->
<!-- Title: Graphical Class Hierarchy Pages: 1 -->
<svg width="247pt" height="88pt"
 viewBox="0.00 0.00 247.00 88.00" xmlns="http://www.w3.org/2000/svg" xmlns:xlink="http://www.w3.org/1999/xlink">
<g id="graph0" class="graph" transform="scale(1 1) rotate(0) translate(4 84)">
<title>Graphical Class Hierarchy</title>
<!-- Node580 -->
<g id="node1" class="node">
<title>Node580</title>
<polygon fill="none" stroke="#bfbfbf" points="0,-30 0,-49 45,-49 45,-30 0,-30"/>
<text text-anchor="middle" x="22.5" y="-37" font-family="Helvetica,sans-Serif" font-size="10.00" fill="#000000">Helper</text>
</g>
<!-- Node0 -->
<g id="node2" class="node">
<title>Node0</title>
<g id="a_node2"><a xlink:href="db/d54/classorg_1_1cobbzilla_1_1util_1_1handlebars_1_1HandlebarsUtil_1_1DateHelper.html" target="_top" xlink:title="org.cobbzilla.util.handlebars.\lHandlebarsUtil.DateHelper">
<polygon fill="none" stroke="#000000" points="90,-49.5 90,-79.5 230,-79.5 230,-49.5 90,-49.5"/>
<text text-anchor="start" x="98" y="-67.5" font-family="Helvetica,sans-Serif" font-size="10.00" fill="#000000">org.cobbzilla.util.handlebars.</text>
<text text-anchor="middle" x="160" y="-56.5" font-family="Helvetica,sans-Serif" font-size="10.00" fill="#000000">HandlebarsUtil.DateHelper</text>
</a>
</g>
</g>
<!-- Node580&#45;&gt;Node0 -->
<g id="edge1" class="edge">
<title>Node580&#45;&gt;Node0</title>
<path fill="none" stroke="#191970" d="M55.106,-45.4284C65.584,-47.3335 77.6273,-49.5231 89.7332,-51.7242"/>
<polygon fill="#191970" stroke="#191970" points="55.6702,-41.9736 45.2053,-43.6282 54.4179,-48.8607 55.6702,-41.9736"/>
</g>
<!-- Node582 -->
<g id="node3" class="node">
<title>Node582</title>
<g id="a_node3"><a xlink:href="d7/d5c/classorg_1_1cobbzilla_1_1util_1_1handlebars_1_1HandlebarsUtil_1_1FileLoaderHelper.html" target="_top" xlink:title="org.cobbzilla.util.handlebars.\lHandlebarsUtil.FileLoaderHelper">
<polygon fill="none" stroke="#000000" points="81,-.5 81,-30.5 239,-30.5 239,-.5 81,-.5"/>
<text text-anchor="start" x="89" y="-18.5" font-family="Helvetica,sans-Serif" font-size="10.00" fill="#000000">org.cobbzilla.util.handlebars.</text>
<text text-anchor="middle" x="160" y="-7.5" font-family="Helvetica,sans-Serif" font-size="10.00" fill="#000000">HandlebarsUtil.FileLoaderHelper</text>
</a>
</g>
</g>
<!-- Node580&#45;&gt;Node582 -->
<g id="edge2" class="edge">
<title>Node580&#45;&gt;Node582</title>
<path fill="none" stroke="#191970" d="M55.3002,-33.7749C63.1408,-32.4063 71.8494,-30.8863 80.7999,-29.324"/>
<polygon fill="#191970" stroke="#191970" points="54.4546,-30.3695 45.2053,-35.5369 55.6582,-37.2652 54.4546,-30.3695"/>
</g>
</g>
</svg>
