<?xml version="1.0" encoding="UTF-8" standalone="no"?>
<!DOCTYPE svg PUBLIC "-//W3C//DTD SVG 1.1//EN"
 "http://www.w3.org/Graphics/SVG/1.1/DTD/svg11.dtd">
<!-- Generated by graphviz version 2.40.1 (20161225.0304)
 -->
<!-- Title: Graphical Class Hierarchy Pages: 1 -->
<svg width="273pt" height="78pt"
 viewBox="0.00 0.00 273.00 77.50" xmlns="http://www.w3.org/2000/svg" xmlns:xlink="http://www.w3.org/1999/xlink">
<g id="graph0" class="graph" transform="scale(1 1) rotate(0) translate(4 73.5)">
<title>Graphical Class Hierarchy</title>
<!-- Node647 -->
<g id="node1" class="node">
<title>Node647</title>
<polygon fill="none" stroke="#bfbfbf" points="34,-50 34,-69 77,-69 77,-50 34,-50"/>
<text text-anchor="middle" x="55.5" y="-57" font-family="Helvetica,sans-Serif" font-size="10.00" fill="#000000">Driver</text>
</g>
<!-- Node1 -->
<g id="node2" class="node">
<title>Node1</title>
<g id="a_node2"><a xlink:href="d7/d61/classorg_1_1cobbzilla_1_1util_1_1jdbc_1_1DebugPostgresqlDriver.html" target="_top" xlink:title="org.cobbzilla.util.jdbc.\lDebugPostgresqlDriver">
<polygon fill="none" stroke="#000000" points="147,-22.5 147,-52.5 265,-52.5 265,-22.5 147,-22.5"/>
<text text-anchor="start" x="155" y="-40.5" font-family="Helvetica,sans-Serif" font-size="10.00" fill="#000000">org.cobbzilla.util.jdbc.</text>
<text text-anchor="middle" x="206" y="-29.5" font-family="Helvetica,sans-Serif" font-size="10.00" fill="#000000">DebugPostgresqlDriver</text>
</a>
</g>
</g>
<!-- Node647&#45;&gt;Node1 -->
<g id="edge1" class="edge">
<title>Node647&#45;&gt;Node1</title>
<path fill="none" stroke="#191970" d="M87.1694,-54.8706C104.4646,-52.3424 126.4464,-49.1291 146.7884,-46.1555"/>
<polygon fill="#191970" stroke="#191970" points="86.4515,-51.4382 77.063,-56.3479 87.4641,-58.3646 86.4515,-51.4382"/>
</g>
<!-- Node0 -->
<g id="node3" class="node">
<title>Node0</title>
<g id="a_node3"><a xlink:href="da/d17/interfaceorg_1_1cobbzilla_1_1util_1_1jdbc_1_1DebugDriver.html" target="_top" xlink:title="org.cobbzilla.util.jdbc.\lDebugDriver">
<polygon fill="none" stroke="#000000" points="0,-.5 0,-30.5 111,-30.5 111,-.5 0,-.5"/>
<text text-anchor="start" x="8" y="-18.5" font-family="Helvetica,sans-Serif" font-size="10.00" fill="#000000">org.cobbzilla.util.jdbc.</text>
<text text-anchor="middle" x="55.5" y="-7.5" font-family="Helvetica,sans-Serif" font-size="10.00" fill="#000000">DebugDriver</text>
</a>
</g>
</g>
<!-- Node0&#45;&gt;Node1 -->
<g id="edge2" class="edge">
<title>Node0&#45;&gt;Node1</title>
<path fill="none" stroke="#191970" d="M121.0662,-25.0844C129.6346,-26.337 138.3734,-27.6144 146.8281,-28.8503"/>
<polygon fill="#191970" stroke="#191970" points="121.5142,-21.6128 111.1131,-23.6295 120.5016,-28.5392 121.5142,-21.6128"/>
</g>
</g>
</svg>
