<?xml version="1.0" encoding="UTF-8" standalone="no"?>
<!DOCTYPE svg PUBLIC "-//W3C//DTD SVG 1.1//EN"
 "http://www.w3.org/Graphics/SVG/1.1/DTD/svg11.dtd">
<!-- Generated by graphviz version 2.40.1 (20161225.0304)
 -->
<!-- Title: Graphical Class Hierarchy Pages: 1 -->
<svg width="298pt" height="88pt"
 viewBox="0.00 0.00 298.00 88.00" xmlns="http://www.w3.org/2000/svg" xmlns:xlink="http://www.w3.org/1999/xlink">
<g id="graph0" class="graph" transform="scale(1 1) rotate(0) translate(4 84)">
<title>Graphical Class Hierarchy</title>
<!-- Node0 -->
<g id="node1" class="node">
<title>Node0</title>
<g id="a_node1"><a xlink:href="d4/d66/classorg_1_1cobbzilla_1_1util_1_1dns_1_1DnsRecordBase.html" target="_top" xlink:title="org.cobbzilla.util.dns.Dns\lRecordBase">
<polygon fill="none" stroke="#000000" points="0,-24.5 0,-54.5 127,-54.5 127,-24.5 0,-24.5"/>
<text text-anchor="start" x="8" y="-42.5" font-family="Helvetica,sans-Serif" font-size="10.00" fill="#000000">org.cobbzilla.util.dns.Dns</text>
<text text-anchor="middle" x="63.5" y="-31.5" font-family="Helvetica,sans-Serif" font-size="10.00" fill="#000000">RecordBase</text>
</a>
</g>
</g>
<!-- Node1 -->
<g id="node2" class="node">
<title>Node1</title>
<g id="a_node2"><a xlink:href="d9/d92/classorg_1_1cobbzilla_1_1util_1_1dns_1_1DnsRecord.html" target="_top" xlink:title="org.cobbzilla.util.dns.Dns\lRecord">
<polygon fill="none" stroke="#000000" points="163,-49.5 163,-79.5 290,-79.5 290,-49.5 163,-49.5"/>
<text text-anchor="start" x="171" y="-67.5" font-family="Helvetica,sans-Serif" font-size="10.00" fill="#000000">org.cobbzilla.util.dns.Dns</text>
<text text-anchor="middle" x="226.5" y="-56.5" font-family="Helvetica,sans-Serif" font-size="10.00" fill="#000000">Record</text>
</a>
</g>
</g>
<!-- Node0&#45;&gt;Node1 -->
<g id="edge1" class="edge">
<title>Node0&#45;&gt;Node1</title>
<path fill="none" stroke="#191970" d="M137.4095,-50.8358C145.9533,-52.1462 154.6094,-53.4738 162.9977,-54.7604"/>
<polygon fill="#191970" stroke="#191970" points="137.8691,-47.3655 127.4541,-49.3089 136.8079,-54.2846 137.8691,-47.3655"/>
</g>
<!-- Node2 -->
<g id="node3" class="node">
<title>Node2</title>
<g id="a_node3"><a xlink:href="dc/d93/classorg_1_1cobbzilla_1_1util_1_1dns_1_1DnsRecordMatch.html" target="_top" xlink:title="org.cobbzilla.util.dns.Dns\lRecordMatch">
<polygon fill="none" stroke="#000000" points="163,-.5 163,-30.5 290,-30.5 290,-.5 163,-.5"/>
<text text-anchor="start" x="171" y="-18.5" font-family="Helvetica,sans-Serif" font-size="10.00" fill="#000000">org.cobbzilla.util.dns.Dns</text>
<text text-anchor="middle" x="226.5" y="-7.5" font-family="Helvetica,sans-Serif" font-size="10.00" fill="#000000">RecordMatch</text>
</a>
</g>
</g>
<!-- Node0&#45;&gt;Node2 -->
<g id="edge2" class="edge">
<title>Node0&#45;&gt;Node2</title>
<path fill="none" stroke="#191970" d="M137.4095,-28.6176C145.9533,-27.3596 154.6094,-26.0851 162.9977,-24.85"/>
<polygon fill="#191970" stroke="#191970" points="136.8376,-25.164 127.4541,-30.0834 137.8573,-32.0893 136.8376,-25.164"/>
</g>
</g>
</svg>
