<?xml version="1.0" encoding="UTF-8" standalone="no"?>
<!DOCTYPE svg PUBLIC "-//W3C//DTD SVG 1.1//EN"
 "http://www.w3.org/Graphics/SVG/1.1/DTD/svg11.dtd">
<!-- Generated by graphviz version 2.40.1 (20161225.0304)
 -->
<!-- Title: Graphical Class Hierarchy Pages: 1 -->
<svg width="232pt" height="137pt"
 viewBox="0.00 0.00 232.00 137.00" xmlns="http://www.w3.org/2000/svg" xmlns:xlink="http://www.w3.org/1999/xlink">
<g id="graph0" class="graph" transform="scale(1 1) rotate(0) translate(4 133)">
<title>Graphical Class Hierarchy</title>
<!-- Node619 -->
<g id="node1" class="node">
<title>Node619</title>
<polygon fill="none" stroke="#bfbfbf" points="0,-55 0,-74 54,-74 54,-55 0,-55"/>
<text text-anchor="middle" x="27" y="-62" font-family="Helvetica,sans-Serif" font-size="10.00" fill="#000000">FileFilter</text>
</g>
<!-- Node0 -->
<g id="node2" class="node">
<title>Node0</title>
<g id="a_node2"><a xlink:href="d0/d05/classorg_1_1cobbzilla_1_1util_1_1io_1_1DirFilter.html" target="_top" xlink:title="org.cobbzilla.util.io.Dir\lFilter">
<polygon fill="none" stroke="#000000" points="100.5,-98.5 100.5,-128.5 213.5,-128.5 213.5,-98.5 100.5,-98.5"/>
<text text-anchor="start" x="108.5" y="-116.5" font-family="Helvetica,sans-Serif" font-size="10.00" fill="#000000">org.cobbzilla.util.io.Dir</text>
<text text-anchor="middle" x="157" y="-105.5" font-family="Helvetica,sans-Serif" font-size="10.00" fill="#000000">Filter</text>
</a>
</g>
</g>
<!-- Node619&#45;&gt;Node0 -->
<g id="edge1" class="edge">
<title>Node619&#45;&gt;Node0</title>
<path fill="none" stroke="#191970" d="M59.8606,-77.7829C69.5423,-81.6306 80.1742,-85.7918 90,-89.5 97.8607,-92.4666 106.2727,-95.5505 114.3885,-98.4802"/>
<polygon fill="#191970" stroke="#191970" points="61.1456,-74.5274 50.5607,-74.0682 58.5489,-81.028 61.1456,-74.5274"/>
</g>
<!-- Node621 -->
<g id="node3" class="node">
<title>Node621</title>
<g id="a_node3"><a xlink:href="d6/d2d/classorg_1_1cobbzilla_1_1util_1_1io_1_1FileSuffixFilter.html" target="_top" xlink:title="org.cobbzilla.util.io.File\lSuffixFilter">
<polygon fill="none" stroke="#000000" points="99,-49.5 99,-79.5 215,-79.5 215,-49.5 99,-49.5"/>
<text text-anchor="start" x="107" y="-67.5" font-family="Helvetica,sans-Serif" font-size="10.00" fill="#000000">org.cobbzilla.util.io.File</text>
<text text-anchor="middle" x="157" y="-56.5" font-family="Helvetica,sans-Serif" font-size="10.00" fill="#000000">SuffixFilter</text>
</a>
</g>
</g>
<!-- Node619&#45;&gt;Node621 -->
<g id="edge2" class="edge">
<title>Node619&#45;&gt;Node621</title>
<path fill="none" stroke="#191970" d="M64.5481,-64.5C75.3108,-64.5 87.3036,-64.5 98.9915,-64.5"/>
<polygon fill="#191970" stroke="#191970" points="64.2523,-61.0001 54.2523,-64.5 64.2522,-68.0001 64.2523,-61.0001"/>
</g>
<!-- Node622 -->
<g id="node4" class="node">
<title>Node622</title>
<g id="a_node4"><a xlink:href="df/da2/classorg_1_1cobbzilla_1_1util_1_1io_1_1RegularFileFilter.html" target="_top" xlink:title="org.cobbzilla.util.io.Regular\lFileFilter">
<polygon fill="none" stroke="#000000" points="90,-.5 90,-30.5 224,-30.5 224,-.5 90,-.5"/>
<text text-anchor="start" x="98" y="-18.5" font-family="Helvetica,sans-Serif" font-size="10.00" fill="#000000">org.cobbzilla.util.io.Regular</text>
<text text-anchor="middle" x="157" y="-7.5" font-family="Helvetica,sans-Serif" font-size="10.00" fill="#000000">FileFilter</text>
</a>
</g>
</g>
<!-- Node619&#45;&gt;Node622 -->
<g id="edge3" class="edge">
<title>Node619&#45;&gt;Node622</title>
<path fill="none" stroke="#191970" d="M61.2001,-51.4226C70.5351,-47.8664 80.6526,-44.0243 90,-40.5 98.5966,-37.2588 107.8216,-33.8024 116.5934,-30.5262"/>
<polygon fill="#191970" stroke="#191970" points="59.9168,-48.1661 51.8204,-54.9998 62.4112,-54.7066 59.9168,-48.1661"/>
</g>
</g>
</svg>
