<?xml version="1.0" encoding="UTF-8" standalone="no"?>
<!DOCTYPE svg PUBLIC "-//W3C//DTD SVG 1.1//EN"
 "http://www.w3.org/Graphics/SVG/1.1/DTD/svg11.dtd">
<!-- Generated by graphviz version 2.40.1 (20161225.0304)
 -->
<!-- Title: Graphical Class Hierarchy Pages: 1 -->
<svg width="265pt" height="198pt"
 viewBox="0.00 0.00 265.00 197.50" xmlns="http://www.w3.org/2000/svg" xmlns:xlink="http://www.w3.org/1999/xlink">
<g id="graph0" class="graph" transform="scale(1 1) rotate(0) translate(4 193.5)">
<title>Graphical Class Hierarchy</title>
<!-- Node691 -->
<g id="node1" class="node">
<title>Node691</title>
<polygon fill="none" stroke="#bfbfbf" points="0,-90.5 0,-109.5 68,-109.5 68,-90.5 0,-90.5"/>
<text text-anchor="middle" x="34" y="-97.5" font-family="Helvetica,sans-Serif" font-size="10.00" fill="#000000">Comparator</text>
</g>
<!-- Node0 -->
<g id="node2" class="node">
<title>Node0</title>
<g id="a_node2"><a xlink:href="d5/def/classorg_1_1cobbzilla_1_1util_1_1collection_1_1AllowNullComparator.html" target="_top" xlink:title="org.cobbzilla.util.collection.\lAllowNullComparator\&lt; E \&gt;">
<polygon fill="none" stroke="#000000" points="113.5,-159 113.5,-189 247.5,-189 247.5,-159 113.5,-159"/>
<text text-anchor="start" x="121.5" y="-177" font-family="Helvetica,sans-Serif" font-size="10.00" fill="#000000">org.cobbzilla.util.collection.</text>
<text text-anchor="middle" x="180.5" y="-166" font-family="Helvetica,sans-Serif" font-size="10.00" fill="#000000">AllowNullComparator&lt; E &gt;</text>
</a>
</g>
</g>
<!-- Node691&#45;&gt;Node0 -->
<g id="edge1" class="edge">
<title>Node691&#45;&gt;Node0</title>
<path fill="none" stroke="#191970" d="M53.2033,-116.2633C66.7035,-127.0371 85.5771,-140.8236 104,-150 110.6035,-153.2892 117.7517,-156.2451 124.936,-158.8649"/>
<polygon fill="#191970" stroke="#191970" points="55.125,-113.3137 45.1665,-109.6972 50.6961,-118.7346 55.125,-113.3137"/>
</g>
<!-- Node693 -->
<g id="node3" class="node">
<title>Node693</title>
<g id="a_node3"><a xlink:href="d4/df0/classorg_1_1cobbzilla_1_1util_1_1collection_1_1NumberComparator.html" target="_top" xlink:title="org.cobbzilla.util.collection.\lNumberComparator">
<polygon fill="none" stroke="#000000" points="113.5,-110 113.5,-140 247.5,-140 247.5,-110 113.5,-110"/>
<text text-anchor="start" x="121.5" y="-128" font-family="Helvetica,sans-Serif" font-size="10.00" fill="#000000">org.cobbzilla.util.collection.</text>
<text text-anchor="middle" x="180.5" y="-117" font-family="Helvetica,sans-Serif" font-size="10.00" fill="#000000">NumberComparator</text>
</a>
</g>
</g>
<!-- Node691&#45;&gt;Node693 -->
<g id="edge2" class="edge">
<title>Node691&#45;&gt;Node693</title>
<path fill="none" stroke="#191970" d="M78.5112,-107.5958C89.4803,-109.4676 101.4713,-111.5139 113.2536,-113.5245"/>
<polygon fill="#191970" stroke="#191970" points="78.794,-104.0935 68.3477,-105.8614 77.6165,-110.9938 78.794,-104.0935"/>
</g>
<!-- Node694 -->
<g id="node4" class="node">
<title>Node694</title>
<g id="a_node4"><a xlink:href="d6/d34/classorg_1_1cobbzilla_1_1util_1_1json_1_1JsonNodeComparator.html" target="_top" xlink:title="org.cobbzilla.util.json.\lJsonNodeComparator">
<polygon fill="none" stroke="#000000" points="124.5,-61 124.5,-91 236.5,-91 236.5,-61 124.5,-61"/>
<text text-anchor="start" x="132.5" y="-79" font-family="Helvetica,sans-Serif" font-size="10.00" fill="#000000">org.cobbzilla.util.json.</text>
<text text-anchor="middle" x="180.5" y="-68" font-family="Helvetica,sans-Serif" font-size="10.00" fill="#000000">JsonNodeComparator</text>
</a>
</g>
</g>
<!-- Node691&#45;&gt;Node694 -->
<g id="edge3" class="edge">
<title>Node691&#45;&gt;Node694</title>
<path fill="none" stroke="#191970" d="M78.5027,-92.7095C92.9333,-90.3454 109.1331,-87.6915 124.3003,-85.2068"/>
<polygon fill="#191970" stroke="#191970" points="77.6503,-89.3024 68.3477,-94.3731 78.7821,-96.2103 77.6503,-89.3024"/>
</g>
<!-- Node695 -->
<g id="node5" class="node">
<title>Node695</title>
<g id="a_node5"><a xlink:href="d9/dd8/classorg_1_1cobbzilla_1_1util_1_1reflect_1_1FieldComparator.html" target="_top" xlink:title="org.cobbzilla.util.reflect.\lFieldComparator\&lt; T, F extends\l Comparable\&lt; F \&gt;">
<polygon fill="none" stroke="#000000" points="104,-.5 104,-41.5 257,-41.5 257,-.5 104,-.5"/>
<text text-anchor="start" x="112" y="-29.5" font-family="Helvetica,sans-Serif" font-size="10.00" fill="#000000">org.cobbzilla.util.reflect.</text>
<text text-anchor="start" x="112" y="-18.5" font-family="Helvetica,sans-Serif" font-size="10.00" fill="#000000">FieldComparator&lt; T, F extends</text>
<text text-anchor="middle" x="180.5" y="-7.5" font-family="Helvetica,sans-Serif" font-size="10.00" fill="#000000"> Comparable&lt; F &gt;</text>
</a>
</g>
</g>
<!-- Node691&#45;&gt;Node695 -->
<g id="edge4" class="edge">
<title>Node691&#45;&gt;Node695</title>
<path fill="none" stroke="#191970" d="M54.5289,-84.1726C68.0968,-74.1598 86.5372,-61.3827 104,-52 110.8167,-48.3374 118.1614,-44.8406 125.5082,-41.6027"/>
<polygon fill="#191970" stroke="#191970" points="52.2741,-81.4886 46.3757,-90.2897 56.4751,-87.0879 52.2741,-81.4886"/>
</g>
</g>
</svg>
