<?xml version="1.0" encoding="UTF-8" standalone="no"?>
<!DOCTYPE svg PUBLIC "-//W3C//DTD SVG 1.1//EN"
 "http://www.w3.org/Graphics/SVG/1.1/DTD/svg11.dtd">
<!-- Generated by graphviz version 2.40.1 (20161225.0304)
 -->
<!-- Title: Graphical Class Hierarchy Pages: 1 -->
<svg width="470pt" height="127pt"
 viewBox="0.00 0.00 470.00 126.50" xmlns="http://www.w3.org/2000/svg" xmlns:xlink="http://www.w3.org/1999/xlink">
<g id="graph0" class="graph" transform="scale(1 1) rotate(0) translate(4 122.5)">
<title>Graphical Class Hierarchy</title>
<!-- Node687 -->
<g id="node1" class="node">
<title>Node687</title>
<polygon fill="none" stroke="#bfbfbf" points="0,-68.5 0,-87.5 107,-87.5 107,-68.5 0,-68.5"/>
<text text-anchor="middle" x="53.5" y="-75.5" font-family="Helvetica,sans-Serif" font-size="10.00" fill="#000000">ConcurrentHashMap</text>
</g>
<!-- Node688 -->
<g id="node2" class="node">
<title>Node688</title>
<g id="a_node2"><a xlink:href="d4/d12/classorg_1_1cobbzilla_1_1util_1_1collection_1_1CaseInsensitiveStringKeyMap.html" target="_top" xlink:title="org.cobbzilla.util.collection.\lCaseInsensitiveStringKeyMap\&lt; V \&gt;">
<polygon fill="none" stroke="#000000" points="143,-88 143,-118 316,-118 316,-88 143,-88"/>
<text text-anchor="start" x="151" y="-106" font-family="Helvetica,sans-Serif" font-size="10.00" fill="#000000">org.cobbzilla.util.collection.</text>
<text text-anchor="middle" x="229.5" y="-95" font-family="Helvetica,sans-Serif" font-size="10.00" fill="#000000">CaseInsensitiveStringKeyMap&lt; V &gt;</text>
</a>
</g>
</g>
<!-- Node687&#45;&gt;Node688 -->
<g id="edge1" class="edge">
<title>Node687&#45;&gt;Node688</title>
<path fill="none" stroke="#191970" d="M117.2826,-87.06C125.6446,-88.2478 134.3231,-89.4805 142.9824,-90.7106"/>
<polygon fill="#191970" stroke="#191970" points="117.655,-83.5779 107.2621,-85.6367 116.6705,-90.5083 117.655,-83.5779"/>
</g>
<!-- Node689 -->
<g id="node4" class="node">
<title>Node689</title>
<g id="a_node4"><a xlink:href="d6/da6/classorg_1_1cobbzilla_1_1util_1_1collection_1_1FailedOperationCounter.html" target="_top" xlink:title="org.cobbzilla.util.collection.\lFailedOperationCounter\&lt; T \&gt;">
<polygon fill="none" stroke="#000000" points="158,-39 158,-69 301,-69 301,-39 158,-39"/>
<text text-anchor="start" x="166" y="-57" font-family="Helvetica,sans-Serif" font-size="10.00" fill="#000000">org.cobbzilla.util.collection.</text>
<text text-anchor="middle" x="229.5" y="-46" font-family="Helvetica,sans-Serif" font-size="10.00" fill="#000000">FailedOperationCounter&lt; T &gt;</text>
</a>
</g>
</g>
<!-- Node687&#45;&gt;Node689 -->
<g id="edge3" class="edge">
<title>Node687&#45;&gt;Node689</title>
<path fill="none" stroke="#191970" d="M117.194,-69.3145C130.4129,-67.5119 144.4257,-65.601 157.9061,-63.7628"/>
<polygon fill="#191970" stroke="#191970" points="116.6975,-65.8497 107.2621,-70.6688 117.6434,-72.7855 116.6975,-65.8497"/>
</g>
<!-- Node0 -->
<g id="node3" class="node">
<title>Node0</title>
<g id="a_node3"><a xlink:href="da/d50/classorg_1_1cobbzilla_1_1util_1_1http_1_1CookieJar.html" target="_top" xlink:title="org.cobbzilla.util.http.\lCookieJar">
<polygon fill="none" stroke="#000000" points="352,-41 352,-71 462,-71 462,-41 352,-41"/>
<text text-anchor="start" x="360" y="-59" font-family="Helvetica,sans-Serif" font-size="10.00" fill="#000000">org.cobbzilla.util.http.</text>
<text text-anchor="middle" x="407" y="-48" font-family="Helvetica,sans-Serif" font-size="10.00" fill="#000000">CookieJar</text>
</a>
</g>
</g>
<!-- Node688&#45;&gt;Node0 -->
<g id="edge2" class="edge">
<title>Node688&#45;&gt;Node0</title>
<path fill="none" stroke="#191970" d="M295.9216,-85.4123C314.3281,-80.5385 334.1051,-75.3018 351.7967,-70.6172"/>
<polygon fill="#191970" stroke="#191970" points="294.9211,-82.0565 286.1501,-87.9997 296.7129,-88.8233 294.9211,-82.0565"/>
</g>
<!-- Node674 -->
<g id="node5" class="node">
<title>Node674</title>
<polygon fill="none" stroke="#bfbfbf" points="194,-.5 194,-19.5 265,-19.5 265,-.5 194,-.5"/>
<text text-anchor="middle" x="229.5" y="-7.5" font-family="Helvetica,sans-Serif" font-size="10.00" fill="#000000">CookieStore</text>
</g>
<!-- Node674&#45;&gt;Node0 -->
<g id="edge4" class="edge">
<title>Node674&#45;&gt;Node0</title>
<path fill="none" stroke="#191970" d="M275.233,-19.3995C288.4351,-22.2874 302.8307,-25.6047 316,-29 329.883,-32.5793 344.8399,-36.8442 358.5373,-40.9152"/>
<polygon fill="#191970" stroke="#191970" points="275.9231,-15.9679 265.4099,-17.2807 274.4471,-22.8106 275.9231,-15.9679"/>
</g>
</g>
</svg>
