<?xml version="1.0" encoding="UTF-8" standalone="no"?>
<!DOCTYPE svg PUBLIC "-//W3C//DTD SVG 1.1//EN"
 "http://www.w3.org/Graphics/SVG/1.1/DTD/svg11.dtd">
<!-- Generated by graphviz version 2.40.1 (20161225.0304)
 -->
<!-- Title: Graphical Class Hierarchy Pages: 1 -->
<svg width="289pt" height="78pt"
 viewBox="0.00 0.00 289.00 77.50" xmlns="http://www.w3.org/2000/svg" xmlns:xlink="http://www.w3.org/1999/xlink">
<g id="graph0" class="graph" transform="scale(1 1) rotate(0) translate(4 73.5)">
<title>Graphical Class Hierarchy</title>
<!-- Node161 -->
<g id="node1" class="node">
<title>Node161</title>
<polygon fill="none" stroke="#bfbfbf" points="31,-50 31,-69 80,-69 80,-50 31,-50"/>
<text text-anchor="middle" x="55.5" y="-57" font-family="Helvetica,sans-Serif" font-size="10.00" fill="#000000">Iterable</text>
</g>
<!-- Node1 -->
<g id="node2" class="node">
<title>Node1</title>
<g id="a_node2"><a xlink:href="d1/dbd/classorg_1_1cobbzilla_1_1util_1_1jdbc_1_1TypedResultSetBean.html" target="_top" xlink:title="org.cobbzilla.util.jdbc.\lTypedResultSetBean\&lt; T \&gt;">
<polygon fill="none" stroke="#000000" points="147,-22.5 147,-52.5 281,-52.5 281,-22.5 147,-22.5"/>
<text text-anchor="start" x="155" y="-40.5" font-family="Helvetica,sans-Serif" font-size="10.00" fill="#000000">org.cobbzilla.util.jdbc.</text>
<text text-anchor="middle" x="214" y="-29.5" font-family="Helvetica,sans-Serif" font-size="10.00" fill="#000000">TypedResultSetBean&lt; T &gt;</text>
</a>
</g>
</g>
<!-- Node161&#45;&gt;Node1 -->
<g id="edge1" class="edge">
<title>Node161&#45;&gt;Node1</title>
<path fill="none" stroke="#191970" d="M90.5296,-54.6378C107.0505,-52.3447 127.3424,-49.5282 146.6668,-46.8459"/>
<polygon fill="#191970" stroke="#191970" points="89.6894,-51.2208 80.2656,-56.0625 90.6519,-58.1543 89.6894,-51.2208"/>
</g>
<!-- Node0 -->
<g id="node3" class="node">
<title>Node0</title>
<g id="a_node3"><a xlink:href="de/dfa/classorg_1_1cobbzilla_1_1util_1_1jdbc_1_1ResultSetBean.html" target="_top" xlink:title="org.cobbzilla.util.jdbc.\lResultSetBean">
<polygon fill="none" stroke="#000000" points="0,-.5 0,-30.5 111,-30.5 111,-.5 0,-.5"/>
<text text-anchor="start" x="8" y="-18.5" font-family="Helvetica,sans-Serif" font-size="10.00" fill="#000000">org.cobbzilla.util.jdbc.</text>
<text text-anchor="middle" x="55.5" y="-7.5" font-family="Helvetica,sans-Serif" font-size="10.00" fill="#000000">ResultSetBean</text>
</a>
</g>
</g>
<!-- Node0&#45;&gt;Node1 -->
<g id="edge2" class="edge">
<title>Node0&#45;&gt;Node1</title>
<path fill="none" stroke="#191970" d="M121.5058,-24.6617C129.911,-25.8283 138.5208,-27.0234 146.9424,-28.1923"/>
<polygon fill="#191970" stroke="#191970" points="121.7674,-21.1645 111.3812,-23.2564 120.805,-28.0981 121.7674,-21.1645"/>
</g>
</g>
</svg>
