<?xml version="1.0" encoding="UTF-8" standalone="no"?>
<!DOCTYPE svg PUBLIC "-//W3C//DTD SVG 1.1//EN"
 "http://www.w3.org/Graphics/SVG/1.1/DTD/svg11.dtd">
<!-- Generated by graphviz version 2.40.1 (20161225.0304)
 -->
<!-- Title: Graphical Class Hierarchy Pages: 1 -->
<svg width="449pt" height="629pt"
 viewBox="0.00 0.00 449.00 629.00" xmlns="http://www.w3.org/2000/svg" xmlns:xlink="http://www.w3.org/1999/xlink">
<g id="graph0" class="graph" transform="scale(1 1) rotate(0) translate(4 625)">
<title>Graphical Class Hierarchy</title>
<!-- Node704 -->
<g id="node1" class="node">
<title>Node704</title>
<polygon fill="none" stroke="#bfbfbf" points="5.5,-492 5.5,-511 65.5,-511 65.5,-492 5.5,-492"/>
<text text-anchor="middle" x="35.5" y="-499" font-family="Helvetica,sans-Serif" font-size="10.00" fill="#000000">Closeable</text>
</g>
<!-- Node635 -->
<g id="node2" class="node">
<title>Node635</title>
<g id="a_node2"><a xlink:href="da/d6b/classorg_1_1cobbzilla_1_1util_1_1http_1_1PhantomJSHandle.html" target="_top" xlink:title="org.cobbzilla.util.http.\lPhantomJSHandle">
<polygon fill="none" stroke="#000000" points="132.5,-590.5 132.5,-620.5 242.5,-620.5 242.5,-590.5 132.5,-590.5"/>
<text text-anchor="start" x="140.5" y="-608.5" font-family="Helvetica,sans-Serif" font-size="10.00" fill="#000000">org.cobbzilla.util.http.</text>
<text text-anchor="middle" x="187.5" y="-597.5" font-family="Helvetica,sans-Serif" font-size="10.00" fill="#000000">PhantomJSHandle</text>
</a>
</g>
</g>
<!-- Node704&#45;&gt;Node635 -->
<g id="edge1" class="edge">
<title>Node704&#45;&gt;Node635</title>
<path fill="none" stroke="#191970" d="M47.373,-519.4607C60.1033,-537.3783 81.9048,-564.4801 107,-580.5 114.7711,-585.4608 123.5926,-589.494 132.4769,-592.7557"/>
<polygon fill="#191970" stroke="#191970" points="50.1265,-517.288 41.5733,-511.0355 44.3605,-521.2572 50.1265,-517.288"/>
</g>
<!-- Node61 -->
<g id="node3" class="node">
<title>Node61</title>
<g id="a_node3"><a xlink:href="d4/d17/classorg_1_1cobbzilla_1_1util_1_1io_1_1BufferedFilesystemWatcher.html" target="_top" xlink:title="Sometimes you just want to know that something changed, and you don&#39;t really care what...">
<polygon fill="none" stroke="#000000" points="304,-445.5 304,-475.5 441,-475.5 441,-445.5 304,-445.5"/>
<text text-anchor="start" x="312" y="-463.5" font-family="Helvetica,sans-Serif" font-size="10.00" fill="#000000">org.cobbzilla.util.io.Buffered</text>
<text text-anchor="middle" x="372.5" y="-452.5" font-family="Helvetica,sans-Serif" font-size="10.00" fill="#000000">FilesystemWatcher</text>
</a>
</g>
</g>
<!-- Node704&#45;&gt;Node61 -->
<g id="edge2" class="edge">
<title>Node704&#45;&gt;Node61</title>
<path fill="none" stroke="#191970" d="M76.0028,-499.7389C122.5302,-497.3575 201.0746,-492.2398 268,-482.5 280.8427,-480.631 294.4754,-478.1392 307.5057,-475.5049"/>
<polygon fill="#191970" stroke="#191970" points="75.5485,-496.257 65.7335,-500.2464 75.8942,-503.2484 75.5485,-496.257"/>
</g>
<!-- Node705 -->
<g id="node4" class="node">
<title>Node705</title>
<g id="a_node4"><a xlink:href="db/dd9/classorg_1_1cobbzilla_1_1util_1_1io_1_1CompositeFilesystemWatcher.html" target="_top" xlink:title="org.cobbzilla.util.io.Composite\lFilesystemWatcher\&lt; T extends\l FilesystemWatcher \&gt;">
<polygon fill="none" stroke="#000000" points="110.5,-530 110.5,-571 264.5,-571 264.5,-530 110.5,-530"/>
<text text-anchor="start" x="118.5" y="-559" font-family="Helvetica,sans-Serif" font-size="10.00" fill="#000000">org.cobbzilla.util.io.Composite</text>
<text text-anchor="start" x="118.5" y="-548" font-family="Helvetica,sans-Serif" font-size="10.00" fill="#000000">FilesystemWatcher&lt; T extends</text>
<text text-anchor="middle" x="187.5" y="-537" font-family="Helvetica,sans-Serif" font-size="10.00" fill="#000000"> FilesystemWatcher &gt;</text>
</a>
</g>
</g>
<!-- Node704&#45;&gt;Node705 -->
<g id="edge3" class="edge">
<title>Node704&#45;&gt;Node705</title>
<path fill="none" stroke="#191970" d="M75.0153,-514.2385C89.858,-519.0233 107.1349,-524.5928 123.6293,-529.9101"/>
<polygon fill="#191970" stroke="#191970" points="75.7595,-510.8011 65.168,-511.064 73.6118,-517.4635 75.7595,-510.8011"/>
</g>
<!-- Node60 -->
<g id="node5" class="node">
<title>Node60</title>
<g id="a_node5"><a xlink:href="d3/d98/classorg_1_1cobbzilla_1_1util_1_1io_1_1FilesystemWatcher.html" target="_top" xlink:title="org.cobbzilla.util.io.Filesystem\lWatcher">
<polygon fill="none" stroke="#000000" points="113,-404.5 113,-434.5 262,-434.5 262,-404.5 113,-404.5"/>
<text text-anchor="start" x="121" y="-422.5" font-family="Helvetica,sans-Serif" font-size="10.00" fill="#000000">org.cobbzilla.util.io.Filesystem</text>
<text text-anchor="middle" x="187.5" y="-411.5" font-family="Helvetica,sans-Serif" font-size="10.00" fill="#000000">Watcher</text>
</a>
</g>
</g>
<!-- Node704&#45;&gt;Node60 -->
<g id="edge4" class="edge">
<title>Node704&#45;&gt;Node60</title>
<path fill="none" stroke="#191970" d="M65.151,-486.5886C67.1784,-485.2797 69.1489,-483.9128 71,-482.5 89.4934,-468.3852 87.2492,-456.794 107,-444.5 113.212,-440.6333 120.0682,-437.3234 127.0801,-434.5003"/>
<polygon fill="#191970" stroke="#191970" points="62.9352,-483.8315 56.0913,-491.9193 66.485,-489.8646 62.9352,-483.8315"/>
</g>
<!-- Node625 -->
<g id="node6" class="node">
<title>Node625</title>
<g id="a_node6"><a xlink:href="d1/df8/classorg_1_1cobbzilla_1_1util_1_1io_1_1TempDir.html" target="_top" xlink:title="A directory that implements Closeable. ">
<polygon fill="none" stroke="#000000" points="118.5,-454 118.5,-473 256.5,-473 256.5,-454 118.5,-454"/>
<text text-anchor="middle" x="187.5" y="-461" font-family="Helvetica,sans-Serif" font-size="10.00" fill="#000000">org.cobbzilla.util.io.TempDir</text>
</a>
</g>
</g>
<!-- Node704&#45;&gt;Node625 -->
<g id="edge6" class="edge">
<title>Node704&#45;&gt;Node625</title>
<path fill="none" stroke="#191970" d="M75.2841,-491.554C98.1882,-485.8279 126.8197,-478.6701 149.429,-473.0178"/>
<polygon fill="#191970" stroke="#191970" points="74.3828,-488.1715 65.5303,-493.9924 76.0806,-494.9625 74.3828,-488.1715"/>
</g>
<!-- Node60&#45;&gt;Node61 -->
<g id="edge5" class="edge">
<title>Node60&#45;&gt;Node61</title>
<path fill="none" stroke="#191970" d="M265.2547,-436.7321C278.3511,-439.6346 291.8523,-442.6267 304.6715,-445.4677"/>
<polygon fill="#191970" stroke="#191970" points="265.8571,-433.2808 255.3367,-434.5341 264.3425,-440.115 265.8571,-433.2808"/>
</g>
<!-- Node634 -->
<g id="node7" class="node">
<title>Node634</title>
<polygon fill="none" stroke="#bfbfbf" points="0,-596 0,-615 71,-615 71,-596 0,-596"/>
<text text-anchor="middle" x="35.5" y="-603" font-family="Helvetica,sans-Serif" font-size="10.00" fill="#000000">ErrorHandler</text>
</g>
<!-- Node634&#45;&gt;Node635 -->
<g id="edge7" class="edge">
<title>Node634&#45;&gt;Node635</title>
<path fill="none" stroke="#191970" d="M81.3616,-605.5C97.4493,-605.5 115.6871,-605.5 132.4499,-605.5"/>
<polygon fill="#191970" stroke="#191970" points="81.1373,-602.0001 71.1372,-605.5 81.1372,-609.0001 81.1373,-602.0001"/>
</g>
<!-- Node624 -->
<g id="node8" class="node">
<title>Node624</title>
<polygon fill="none" stroke="#bfbfbf" points="19.5,-454 19.5,-473 51.5,-473 51.5,-454 19.5,-454"/>
<text text-anchor="middle" x="35.5" y="-461" font-family="Helvetica,sans-Serif" font-size="10.00" fill="#000000">File</text>
</g>
<!-- Node624&#45;&gt;Node625 -->
<g id="edge8" class="edge">
<title>Node624&#45;&gt;Node625</title>
<path fill="none" stroke="#191970" d="M62.2145,-463.5C77.861,-463.5 98.4079,-463.5 118.3246,-463.5"/>
<polygon fill="#191970" stroke="#191970" points="61.7667,-460.0001 51.7667,-463.5 61.7666,-467.0001 61.7667,-460.0001"/>
</g>
<!-- Node52 -->
<g id="node9" class="node">
<title>Node52</title>
<polygon fill="none" stroke="#bfbfbf" points="6.5,-214 6.5,-233 64.5,-233 64.5,-214 6.5,-214"/>
<text text-anchor="middle" x="35.5" y="-221" font-family="Helvetica,sans-Serif" font-size="10.00" fill="#000000">Runnable</text>
</g>
<!-- Node52&#45;&gt;Node60 -->
<g id="edge16" class="edge">
<title>Node52&#45;&gt;Node60</title>
<path fill="none" stroke="#191970" d="M38.2498,-243.3144C44.2186,-278.7888 61.6723,-353.2828 107,-394.5 111.2226,-398.3397 116.0269,-401.5897 121.1377,-404.3405"/>
<polygon fill="#191970" stroke="#191970" points="41.6821,-242.6069 36.6947,-233.2594 34.7643,-243.6769 41.6821,-242.6069"/>
</g>
<!-- Node0 -->
<g id="node10" class="node">
<title>Node0</title>
<g id="a_node10"><a xlink:href="d7/d7d/classorg_1_1cobbzilla_1_1util_1_1cache_1_1BackgroundRefreshingReference_1_1Refresher.html" target="_top" xlink:title="org.cobbzilla.util.cache.\lBackgroundRefreshingReference\l\&lt; T \&gt;.Refresher">
<polygon fill="none" stroke="#000000" points="107,-99 107,-140 268,-140 268,-99 107,-99"/>
<text text-anchor="start" x="115" y="-128" font-family="Helvetica,sans-Serif" font-size="10.00" fill="#000000">org.cobbzilla.util.cache.</text>
<text text-anchor="start" x="115" y="-117" font-family="Helvetica,sans-Serif" font-size="10.00" fill="#000000">BackgroundRefreshingReference</text>
<text text-anchor="middle" x="187.5" y="-106" font-family="Helvetica,sans-Serif" font-size="10.00" fill="#000000">&lt; T &gt;.Refresher</text>
</a>
</g>
</g>
<!-- Node52&#45;&gt;Node0 -->
<g id="edge9" class="edge">
<title>Node52&#45;&gt;Node0</title>
<path fill="none" stroke="#191970" d="M49.2242,-205.1956C62.4398,-188.6725 83.7958,-164.6911 107,-149.5 112.2409,-146.0689 117.9289,-142.9562 123.7763,-140.1496"/>
<polygon fill="#191970" stroke="#191970" points="46.1379,-203.4627 42.7597,-213.5046 51.6628,-207.7611 46.1379,-203.4627"/>
</g>
<!-- Node54 -->
<g id="node11" class="node">
<title>Node54</title>
<g id="a_node11"><a xlink:href="de/d1c/classorg_1_1cobbzilla_1_1util_1_1daemon_1_1BufferedRunDaemon.html" target="_top" xlink:title="org.cobbzilla.util.daemon.\lBufferedRunDaemon">
<polygon fill="none" stroke="#000000" points="123.5,-49.5 123.5,-79.5 251.5,-79.5 251.5,-49.5 123.5,-49.5"/>
<text text-anchor="start" x="131.5" y="-67.5" font-family="Helvetica,sans-Serif" font-size="10.00" fill="#000000">org.cobbzilla.util.daemon.</text>
<text text-anchor="middle" x="187.5" y="-56.5" font-family="Helvetica,sans-Serif" font-size="10.00" fill="#000000">BufferedRunDaemon</text>
</a>
</g>
</g>
<!-- Node52&#45;&gt;Node54 -->
<g id="edge10" class="edge">
<title>Node52&#45;&gt;Node54</title>
<path fill="none" stroke="#191970" d="M40.7301,-203.9417C49.5295,-174.7731 70.0596,-120.043 107,-89.5 111.8497,-85.4902 117.3414,-82.1221 123.1225,-79.2933"/>
<polygon fill="#191970" stroke="#191970" points="37.3053,-203.1887 37.9223,-213.7655 44.0357,-205.1124 37.3053,-203.1887"/>
</g>
<!-- Node55 -->
<g id="node12" class="node">
<title>Node55</title>
<g id="a_node12"><a xlink:href="dc/d43/classorg_1_1cobbzilla_1_1util_1_1daemon_1_1SimpleDaemon.html" target="_top" xlink:title="org.cobbzilla.util.daemon.\lSimpleDaemon">
<polygon fill="none" stroke="#000000" points="123.5,-.5 123.5,-30.5 251.5,-30.5 251.5,-.5 123.5,-.5"/>
<text text-anchor="start" x="131.5" y="-18.5" font-family="Helvetica,sans-Serif" font-size="10.00" fill="#000000">org.cobbzilla.util.daemon.</text>
<text text-anchor="middle" x="187.5" y="-7.5" font-family="Helvetica,sans-Serif" font-size="10.00" fill="#000000">SimpleDaemon</text>
</a>
</g>
</g>
<!-- Node52&#45;&gt;Node55 -->
<g id="edge11" class="edge">
<title>Node52&#45;&gt;Node55</title>
<path fill="none" stroke="#191970" d="M37.5227,-203.7197C42.4241,-166.1779 58.3686,-84.3489 107,-39.5 111.8243,-35.0509 117.4399,-31.4244 123.4196,-28.4688"/>
<polygon fill="#191970" stroke="#191970" points="34.0223,-203.5188 36.3321,-213.8588 40.9745,-204.3353 34.0223,-203.5188"/>
</g>
<!-- Node56 -->
<g id="node13" class="node">
<title>Node56</title>
<g id="a_node13"><a xlink:href="d3/d80/classorg_1_1cobbzilla_1_1util_1_1io_1_1BufferedFilesystemWatcher_1_1BfsMonitor.html" target="_top" xlink:title="org.cobbzilla.util.io.Buffered\lFilesystemWatcher.BfsMonitor">
<polygon fill="none" stroke="#000000" points="111.5,-355.5 111.5,-385.5 263.5,-385.5 263.5,-355.5 111.5,-355.5"/>
<text text-anchor="start" x="119.5" y="-373.5" font-family="Helvetica,sans-Serif" font-size="10.00" fill="#000000">org.cobbzilla.util.io.Buffered</text>
<text text-anchor="middle" x="187.5" y="-362.5" font-family="Helvetica,sans-Serif" font-size="10.00" fill="#000000">FilesystemWatcher.BfsMonitor</text>
</a>
</g>
</g>
<!-- Node52&#45;&gt;Node56 -->
<g id="edge12" class="edge">
<title>Node52&#45;&gt;Node56</title>
<path fill="none" stroke="#191970" d="M41.7672,-242.82C51.4756,-269.7356 72.6918,-318.2689 107,-345.5 111.8142,-349.3211 117.2155,-352.5614 122.8817,-355.3085"/>
<polygon fill="#191970" stroke="#191970" points="44.9657,-241.3579 38.4056,-233.0383 38.3457,-243.633 44.9657,-241.3579"/>
</g>
<!-- Node57 -->
<g id="node14" class="node">
<title>Node57</title>
<g id="a_node14"><a xlink:href="df/dbe/classorg_1_1cobbzilla_1_1util_1_1io_1_1CloseOnExit.html" target="_top" xlink:title="org.cobbzilla.util.io.Close\lOnExit">
<polygon fill="none" stroke="#000000" points="124.5,-306.5 124.5,-336.5 250.5,-336.5 250.5,-306.5 124.5,-306.5"/>
<text text-anchor="start" x="132.5" y="-324.5" font-family="Helvetica,sans-Serif" font-size="10.00" fill="#000000">org.cobbzilla.util.io.Close</text>
<text text-anchor="middle" x="187.5" y="-313.5" font-family="Helvetica,sans-Serif" font-size="10.00" fill="#000000">OnExit</text>
</a>
</g>
</g>
<!-- Node52&#45;&gt;Node57 -->
<g id="edge13" class="edge">
<title>Node52&#45;&gt;Node57</title>
<path fill="none" stroke="#191970" d="M48.661,-241.3128C61.7427,-257.8319 83.2425,-281.9849 107,-296.5 113.2439,-300.3148 120.1196,-303.5932 127.1422,-306.3991"/>
<polygon fill="#191970" stroke="#191970" points="51.1661,-238.8285 42.2985,-233.0306 45.615,-243.093 51.1661,-238.8285"/>
</g>
<!-- Node58 -->
<g id="node15" class="node">
<title>Node58</title>
<g id="a_node15"><a xlink:href="d4/d4f/classorg_1_1cobbzilla_1_1util_1_1io_1_1DeleteOnExit.html" target="_top" xlink:title="org.cobbzilla.util.io.Delete\lOnExit">
<polygon fill="none" stroke="#000000" points="123,-257.5 123,-287.5 252,-287.5 252,-257.5 123,-257.5"/>
<text text-anchor="start" x="131" y="-275.5" font-family="Helvetica,sans-Serif" font-size="10.00" fill="#000000">org.cobbzilla.util.io.Delete</text>
<text text-anchor="middle" x="187.5" y="-264.5" font-family="Helvetica,sans-Serif" font-size="10.00" fill="#000000">OnExit</text>
</a>
</g>
</g>
<!-- Node52&#45;&gt;Node58 -->
<g id="edge14" class="edge">
<title>Node52&#45;&gt;Node58</title>
<path fill="none" stroke="#191970" d="M73.2788,-236.3595C84.1476,-240.0106 96.0296,-243.9558 107,-247.5 117.1656,-250.7842 128.0794,-254.2282 138.4881,-257.4738"/>
<polygon fill="#191970" stroke="#191970" points="74.2314,-232.9871 63.6373,-233.109 71.9951,-239.6203 74.2314,-232.9871"/>
</g>
<!-- Node59 -->
<g id="node16" class="node">
<title>Node59</title>
<g id="a_node16"><a xlink:href="d9/de6/classorg_1_1cobbzilla_1_1util_1_1io_1_1FilesystemWalker_1_1FsWalker.html" target="_top" xlink:title="org.cobbzilla.util.io.Filesystem\lWalker.FsWalker">
<polygon fill="none" stroke="#000000" points="113,-208.5 113,-238.5 262,-238.5 262,-208.5 113,-208.5"/>
<text text-anchor="start" x="121" y="-226.5" font-family="Helvetica,sans-Serif" font-size="10.00" fill="#000000">org.cobbzilla.util.io.Filesystem</text>
<text text-anchor="middle" x="187.5" y="-215.5" font-family="Helvetica,sans-Serif" font-size="10.00" fill="#000000">Walker.FsWalker</text>
</a>
</g>
</g>
<!-- Node52&#45;&gt;Node59 -->
<g id="edge15" class="edge">
<title>Node52&#45;&gt;Node59</title>
<path fill="none" stroke="#191970" d="M75.0208,-223.5C86.6479,-223.5 99.7682,-223.5 112.8359,-223.5"/>
<polygon fill="#191970" stroke="#191970" points="74.8072,-220.0001 64.8071,-223.5 74.8071,-227.0001 74.8072,-220.0001"/>
</g>
<!-- Node62 -->
<g id="node17" class="node">
<title>Node62</title>
<g id="a_node17"><a xlink:href="d0/dae/classorg_1_1cobbzilla_1_1util_1_1io_1_1TempDir_1_1QuickTempReaper.html" target="_top" xlink:title="org.cobbzilla.util.io.Temp\lDir.QuickTempReaper">
<polygon fill="none" stroke="#000000" points="125,-159.5 125,-189.5 250,-189.5 250,-159.5 125,-159.5"/>
<text text-anchor="start" x="133" y="-177.5" font-family="Helvetica,sans-Serif" font-size="10.00" fill="#000000">org.cobbzilla.util.io.Temp</text>
<text text-anchor="middle" x="187.5" y="-166.5" font-family="Helvetica,sans-Serif" font-size="10.00" fill="#000000">Dir.QuickTempReaper</text>
</a>
</g>
</g>
<!-- Node52&#45;&gt;Node62 -->
<g id="edge17" class="edge">
<title>Node52&#45;&gt;Node62</title>
<path fill="none" stroke="#191970" d="M71.4652,-210.5574C82.7981,-206.578 95.3882,-202.2587 107,-198.5 116.2961,-195.4909 126.2403,-192.4129 135.8565,-189.5082"/>
<polygon fill="#191970" stroke="#191970" points="70.1472,-207.311 61.8858,-213.9443 72.4806,-213.9107 70.1472,-207.311"/>
</g>
</g>
</svg>
