<?xml version="1.0" encoding="UTF-8" standalone="no"?>
<!DOCTYPE svg PUBLIC "-//W3C//DTD SVG 1.1//EN"
 "http://www.w3.org/Graphics/SVG/1.1/DTD/svg11.dtd">
<!-- Generated by graphviz version 2.40.1 (20161225.0304)
 -->
<!-- Title: Graphical Class Hierarchy Pages: 1 -->
<svg width="329pt" height="186pt"
 viewBox="0.00 0.00 329.00 186.00" xmlns="http://www.w3.org/2000/svg" xmlns:xlink="http://www.w3.org/1999/xlink">
<g id="graph0" class="graph" transform="scale(1 1) rotate(0) translate(4 182)">
<title>Graphical Class Hierarchy</title>
<!-- Node47 -->
<g id="node1" class="node">
<title>Node47</title>
<polygon fill="none" stroke="#bfbfbf" points="0,-79 0,-98 97,-98 97,-79 0,-79"/>
<text text-anchor="middle" x="48.5" y="-86" font-family="Helvetica,sans-Serif" font-size="10.00" fill="#000000">RuntimeException</text>
</g>
<!-- Node0 -->
<g id="node2" class="node">
<title>Node0</title>
<g id="a_node2"><a xlink:href="d5/d15/classorg_1_1cobbzilla_1_1util_1_1handlebars_1_1RequiredVariableUndefinedException.html" target="_top" xlink:title="org.cobbzilla.util.handlebars.\lRequiredVariableUndefinedException">
<polygon fill="none" stroke="#000000" points="137.5,-147.5 137.5,-177.5 316.5,-177.5 316.5,-147.5 137.5,-147.5"/>
<text text-anchor="start" x="145.5" y="-165.5" font-family="Helvetica,sans-Serif" font-size="10.00" fill="#000000">org.cobbzilla.util.handlebars.</text>
<text text-anchor="middle" x="227" y="-154.5" font-family="Helvetica,sans-Serif" font-size="10.00" fill="#000000">RequiredVariableUndefinedException</text>
</a>
</g>
</g>
<!-- Node47&#45;&gt;Node0 -->
<g id="edge1" class="edge">
<title>Node47&#45;&gt;Node0</title>
<path fill="none" stroke="#191970" d="M70.332,-103.7742C86.8828,-114.7571 110.5386,-129.2108 133,-138.5 141.0935,-141.8472 149.7775,-144.8248 158.478,-147.4449"/>
<polygon fill="#191970" stroke="#191970" points="72.1648,-100.7884 61.9208,-98.0845 68.2427,-106.5865 72.1648,-100.7884"/>
</g>
<!-- Node49 -->
<g id="node3" class="node">
<title>Node49</title>
<g id="a_node3"><a xlink:href="d2/db4/classorg_1_1cobbzilla_1_1util_1_1jdbc_1_1UncheckedSqlException.html" target="_top" xlink:title="org.cobbzilla.util.jdbc.\lUncheckedSqlException">
<polygon fill="none" stroke="#000000" points="165,-98.5 165,-128.5 289,-128.5 289,-98.5 165,-98.5"/>
<text text-anchor="start" x="173" y="-116.5" font-family="Helvetica,sans-Serif" font-size="10.00" fill="#000000">org.cobbzilla.util.jdbc.</text>
<text text-anchor="middle" x="227" y="-105.5" font-family="Helvetica,sans-Serif" font-size="10.00" fill="#000000">UncheckedSqlException</text>
</a>
</g>
</g>
<!-- Node47&#45;&gt;Node49 -->
<g id="edge2" class="edge">
<title>Node47&#45;&gt;Node49</title>
<path fill="none" stroke="#191970" d="M107.3001,-96.7353C125.7517,-99.3196 146.176,-102.1801 164.8513,-104.7957"/>
<polygon fill="#191970" stroke="#191970" points="107.6647,-93.2523 97.2759,-95.3314 106.6938,-100.1846 107.6647,-93.2523"/>
</g>
<!-- Node50 -->
<g id="node4" class="node">
<title>Node50</title>
<g id="a_node4"><a xlink:href="de/d3f/classorg_1_1cobbzilla_1_1util_1_1json_1_1JsonPathNotFoundException.html" target="_top" xlink:title="org.cobbzilla.util.json.\lJsonPathNotFoundException">
<polygon fill="none" stroke="#000000" points="155,-49.5 155,-79.5 299,-79.5 299,-49.5 155,-49.5"/>
<text text-anchor="start" x="163" y="-67.5" font-family="Helvetica,sans-Serif" font-size="10.00" fill="#000000">org.cobbzilla.util.json.</text>
<text text-anchor="middle" x="227" y="-56.5" font-family="Helvetica,sans-Serif" font-size="10.00" fill="#000000">JsonPathNotFoundException</text>
</a>
</g>
</g>
<!-- Node47&#45;&gt;Node50 -->
<g id="edge3" class="edge">
<title>Node47&#45;&gt;Node50</title>
<path fill="none" stroke="#191970" d="M107.5235,-80.5641C122.6658,-78.5281 139.1244,-76.3152 154.8475,-74.2012"/>
<polygon fill="#191970" stroke="#191970" points="106.7203,-77.1405 97.2759,-81.9419 107.6531,-84.0781 106.7203,-77.1405"/>
</g>
<!-- Node51 -->
<g id="node5" class="node">
<title>Node51</title>
<g id="a_node5"><a xlink:href="db/d98/classorg_1_1cobbzilla_1_1util_1_1mustache_1_1MustacheResourceNotFoundException.html" target="_top" xlink:title="(c) Copyright 2013 Jonathan Cobb. ">
<polygon fill="none" stroke="#000000" points="133,-.5 133,-30.5 321,-30.5 321,-.5 133,-.5"/>
<text text-anchor="start" x="141" y="-18.5" font-family="Helvetica,sans-Serif" font-size="10.00" fill="#000000">org.cobbzilla.util.mustache.</text>
<text text-anchor="middle" x="227" y="-7.5" font-family="Helvetica,sans-Serif" font-size="10.00" fill="#000000">MustacheResourceNotFoundException</text>
</a>
</g>
</g>
<!-- Node47&#45;&gt;Node51 -->
<g id="edge4" class="edge">
<title>Node47&#45;&gt;Node51</title>
<path fill="none" stroke="#191970" d="M71.0388,-73.5752C87.6149,-63.1347 110.9961,-49.5003 133,-40.5 142.1434,-36.7601 152.0167,-33.4239 161.8087,-30.5023"/>
<polygon fill="#191970" stroke="#191970" points="69.1113,-70.6533 62.582,-78.9971 72.8894,-76.5462 69.1113,-70.6533"/>
</g>
</g>
</svg>
