<?xml version="1.0" encoding="UTF-8" standalone="no"?>
<!DOCTYPE svg PUBLIC "-//W3C//DTD SVG 1.1//EN"
 "http://www.w3.org/Graphics/SVG/1.1/DTD/svg11.dtd">
<!-- Generated by graphviz version 2.40.1 (20161225.0304)
 -->
<!-- Title: Graphical Class Hierarchy Pages: 1 -->
<svg width="322pt" height="382pt"
 viewBox="0.00 0.00 322.00 382.00" xmlns="http://www.w3.org/2000/svg" xmlns:xlink="http://www.w3.org/1999/xlink">
<g id="graph0" class="graph" transform="scale(1 1) rotate(0) translate(4 378)">
<title>Graphical Class Hierarchy</title>
<!-- Node0 -->
<g id="node1" class="node">
<title>Node0</title>
<g id="a_node1"><a xlink:href="d7/d90/classorg_1_1cobbzilla_1_1util_1_1main_1_1BaseMainOptions.html" target="_top" xlink:title="org.cobbzilla.util.main.\lBaseMainOptions">
<polygon fill="none" stroke="#000000" points="0,-171.5 0,-201.5 114,-201.5 114,-171.5 0,-171.5"/>
<text text-anchor="start" x="8" y="-189.5" font-family="Helvetica,sans-Serif" font-size="10.00" fill="#000000">org.cobbzilla.util.main.</text>
<text text-anchor="middle" x="57" y="-178.5" font-family="Helvetica,sans-Serif" font-size="10.00" fill="#000000">BaseMainOptions</text>
</a>
</g>
</g>
<!-- Node1 -->
<g id="node2" class="node">
<title>Node1</title>
<g id="a_node2"><a xlink:href="d8/d78/classorg_1_1cobbzilla_1_1util_1_1handlebars_1_1main_1_1PdfConcatOptions.html" target="_top" xlink:title="org.cobbzilla.util.handlebars.main.\lPdfConcatOptions">
<polygon fill="none" stroke="#000000" points="150,-343.5 150,-373.5 314,-373.5 314,-343.5 150,-343.5"/>
<text text-anchor="start" x="158" y="-361.5" font-family="Helvetica,sans-Serif" font-size="10.00" fill="#000000">org.cobbzilla.util.handlebars.main.</text>
<text text-anchor="middle" x="232" y="-350.5" font-family="Helvetica,sans-Serif" font-size="10.00" fill="#000000">PdfConcatOptions</text>
</a>
</g>
</g>
<!-- Node0&#45;&gt;Node1 -->
<g id="edge1" class="edge">
<title>Node0&#45;&gt;Node1</title>
<path fill="none" stroke="#191970" d="M69.4815,-210.7285C89.215,-248.1887 127.6662,-317.6184 150,-334.5 154.4966,-337.8989 159.4651,-340.8175 164.6662,-343.3236"/>
<polygon fill="#191970" stroke="#191970" points="72.3985,-208.7535 64.6645,-201.5122 66.1947,-211.9959 72.3985,-208.7535"/>
</g>
<!-- Node2 -->
<g id="node3" class="node">
<title>Node2</title>
<g id="a_node3"><a xlink:href="d2/dc3/classorg_1_1cobbzilla_1_1util_1_1handlebars_1_1main_1_1PdfMergeOptions.html" target="_top" xlink:title="org.cobbzilla.util.handlebars.main.\lPdfMergeOptions">
<polygon fill="none" stroke="#000000" points="150,-294.5 150,-324.5 314,-324.5 314,-294.5 150,-294.5"/>
<text text-anchor="start" x="158" y="-312.5" font-family="Helvetica,sans-Serif" font-size="10.00" fill="#000000">org.cobbzilla.util.handlebars.main.</text>
<text text-anchor="middle" x="232" y="-301.5" font-family="Helvetica,sans-Serif" font-size="10.00" fill="#000000">PdfMergeOptions</text>
</a>
</g>
</g>
<!-- Node0&#45;&gt;Node2 -->
<g id="edge2" class="edge">
<title>Node0&#45;&gt;Node2</title>
<path fill="none" stroke="#191970" d="M73.2053,-209.9585C89.9442,-232.4812 118.0669,-265.8916 150,-285.5 155.5618,-288.9152 161.6341,-291.8654 167.8771,-294.4096"/>
<polygon fill="#191970" stroke="#191970" points="75.8636,-207.6623 67.1589,-201.6226 70.1973,-211.7724 75.8636,-207.6623"/>
</g>
<!-- Node3 -->
<g id="node4" class="node">
<title>Node3</title>
<g id="a_node4"><a xlink:href="dc/d7a/classorg_1_1cobbzilla_1_1util_1_1http_1_1main_1_1HttpMainOptions.html" target="_top" xlink:title="org.cobbzilla.util.http.main.\lHttpMainOptions">
<polygon fill="none" stroke="#000000" points="165,-245.5 165,-275.5 299,-275.5 299,-245.5 165,-245.5"/>
<text text-anchor="start" x="173" y="-263.5" font-family="Helvetica,sans-Serif" font-size="10.00" fill="#000000">org.cobbzilla.util.http.main.</text>
<text text-anchor="middle" x="232" y="-252.5" font-family="Helvetica,sans-Serif" font-size="10.00" fill="#000000">HttpMainOptions</text>
</a>
</g>
</g>
<!-- Node0&#45;&gt;Node3 -->
<g id="edge3" class="edge">
<title>Node0&#45;&gt;Node3</title>
<path fill="none" stroke="#191970" d="M90.7015,-206.823C108.0071,-216.685 129.6777,-228.1698 150,-236.5 157.9605,-239.7631 166.523,-242.7795 175.0062,-245.4935"/>
<polygon fill="#191970" stroke="#191970" points="91.9812,-203.5198 81.5727,-201.5414 88.4757,-209.5788 91.9812,-203.5198"/>
</g>
<!-- Node4 -->
<g id="node5" class="node">
<title>Node4</title>
<g id="a_node5"><a xlink:href="d4/dcd/classorg_1_1cobbzilla_1_1util_1_1io_1_1main_1_1FilesystemWatcherMainOptions.html" target="_top" xlink:title="org.cobbzilla.util.io.main.\lFilesystemWatcherMainOptions">
<polygon fill="none" stroke="#000000" points="154,-196.5 154,-226.5 310,-226.5 310,-196.5 154,-196.5"/>
<text text-anchor="start" x="162" y="-214.5" font-family="Helvetica,sans-Serif" font-size="10.00" fill="#000000">org.cobbzilla.util.io.main.</text>
<text text-anchor="middle" x="232" y="-203.5" font-family="Helvetica,sans-Serif" font-size="10.00" fill="#000000">FilesystemWatcherMainOptions</text>
</a>
</g>
</g>
<!-- Node0&#45;&gt;Node4 -->
<g id="edge4" class="edge">
<title>Node0&#45;&gt;Node4</title>
<path fill="none" stroke="#191970" d="M124.2632,-196.109C133.9649,-197.495 144.0179,-198.9311 153.9086,-200.3441"/>
<polygon fill="#191970" stroke="#191970" points="124.696,-192.6354 114.3015,-194.6859 123.706,-199.5651 124.696,-192.6354"/>
</g>
<!-- Node5 -->
<g id="node6" class="node">
<title>Node5</title>
<g id="a_node6"><a xlink:href="db/db0/classorg_1_1cobbzilla_1_1util_1_1io_1_1main_1_1JarTrimmerOptions.html" target="_top" xlink:title="org.cobbzilla.util.io.main.\lJarTrimmerOptions">
<polygon fill="none" stroke="#000000" points="169.5,-147.5 169.5,-177.5 294.5,-177.5 294.5,-147.5 169.5,-147.5"/>
<text text-anchor="start" x="177.5" y="-165.5" font-family="Helvetica,sans-Serif" font-size="10.00" fill="#000000">org.cobbzilla.util.io.main.</text>
<text text-anchor="middle" x="232" y="-154.5" font-family="Helvetica,sans-Serif" font-size="10.00" fill="#000000">JarTrimmerOptions</text>
</a>
</g>
</g>
<!-- Node0&#45;&gt;Node5 -->
<g id="edge5" class="edge">
<title>Node0&#45;&gt;Node5</title>
<path fill="none" stroke="#191970" d="M124.4007,-177.2565C139.2081,-175.2258 154.8273,-173.0837 169.4349,-171.0804"/>
<polygon fill="#191970" stroke="#191970" points="123.7332,-173.8152 114.3015,-178.6415 124.6844,-180.7503 123.7332,-173.8152"/>
</g>
<!-- Node6 -->
<g id="node7" class="node">
<title>Node6</title>
<g id="a_node7"><a xlink:href="d9/d84/classorg_1_1cobbzilla_1_1util_1_1io_1_1main_1_1UniqueFileWalkerOptions.html" target="_top" xlink:title="org.cobbzilla.util.io.main.\lUniqueFileWalkerOptions">
<polygon fill="none" stroke="#000000" points="168,-98.5 168,-128.5 296,-128.5 296,-98.5 168,-98.5"/>
<text text-anchor="start" x="176" y="-116.5" font-family="Helvetica,sans-Serif" font-size="10.00" fill="#000000">org.cobbzilla.util.io.main.</text>
<text text-anchor="middle" x="232" y="-105.5" font-family="Helvetica,sans-Serif" font-size="10.00" fill="#000000">UniqueFileWalkerOptions</text>
</a>
</g>
</g>
<!-- Node0&#45;&gt;Node6 -->
<g id="edge6" class="edge">
<title>Node0&#45;&gt;Node6</title>
<path fill="none" stroke="#191970" d="M92.3096,-166.3621C109.3924,-157.1186 130.402,-146.4688 150,-138.5 158.8236,-134.9122 168.3604,-131.5558 177.7023,-128.5393"/>
<polygon fill="#191970" stroke="#191970" points="90.3421,-163.4493 83.2571,-171.3266 93.7081,-169.5869 90.3421,-163.4493"/>
</g>
<!-- Node7 -->
<g id="node8" class="node">
<title>Node7</title>
<g id="a_node8"><a xlink:href="db/d6d/classorg_1_1cobbzilla_1_1util_1_1io_1_1main_1_1UnrollOptions.html" target="_top" xlink:title="org.cobbzilla.util.io.main.\lUnrollOptions">
<polygon fill="none" stroke="#000000" points="169.5,-49.5 169.5,-79.5 294.5,-79.5 294.5,-49.5 169.5,-49.5"/>
<text text-anchor="start" x="177.5" y="-67.5" font-family="Helvetica,sans-Serif" font-size="10.00" fill="#000000">org.cobbzilla.util.io.main.</text>
<text text-anchor="middle" x="232" y="-56.5" font-family="Helvetica,sans-Serif" font-size="10.00" fill="#000000">UnrollOptions</text>
</a>
</g>
</g>
<!-- Node0&#45;&gt;Node7 -->
<g id="edge7" class="edge">
<title>Node0&#45;&gt;Node7</title>
<path fill="none" stroke="#191970" d="M73.6386,-163.2352C90.5238,-141.2386 118.5932,-108.807 150,-89.5 156.2127,-85.6808 163.0512,-82.4078 170.0485,-79.6117"/>
<polygon fill="#191970" stroke="#191970" points="70.724,-161.2881 67.524,-171.3881 76.324,-165.488 70.724,-161.2881"/>
</g>
<!-- Node8 -->
<g id="node9" class="node">
<title>Node8</title>
<g id="a_node9"><a xlink:href="d2/d5d/classorg_1_1cobbzilla_1_1util_1_1json_1_1main_1_1JsonEditorOptions.html" target="_top" xlink:title="org.cobbzilla.util.json.main.\lJsonEditorOptions">
<polygon fill="none" stroke="#000000" points="164.5,-.5 164.5,-30.5 299.5,-30.5 299.5,-.5 164.5,-.5"/>
<text text-anchor="start" x="172.5" y="-18.5" font-family="Helvetica,sans-Serif" font-size="10.00" fill="#000000">org.cobbzilla.util.json.main.</text>
<text text-anchor="middle" x="232" y="-7.5" font-family="Helvetica,sans-Serif" font-size="10.00" fill="#000000">JsonEditorOptions</text>
</a>
</g>
</g>
<!-- Node0&#45;&gt;Node8 -->
<g id="edge8" class="edge">
<title>Node0&#45;&gt;Node8</title>
<path fill="none" stroke="#191970" d="M66.4503,-161.487C80.0244,-128.8965 108.1118,-72.3287 150,-40.5 155.0956,-36.6281 160.7929,-33.3516 166.746,-30.5797"/>
<polygon fill="#191970" stroke="#191970" points="63.0423,-160.5805 62.5539,-171.1641 69.5357,-163.195 63.0423,-160.5805"/>
</g>
</g>
</svg>
