<?xml version="1.0" encoding="UTF-8" standalone="no"?>
<!DOCTYPE svg PUBLIC "-//W3C//DTD SVG 1.1//EN"
 "http://www.w3.org/Graphics/SVG/1.1/DTD/svg11.dtd">
<!-- Generated by graphviz version 2.40.1 (20161225.0304)
 -->
<!-- Title: Graphical Class Hierarchy Pages: 1 -->
<svg width="469pt" height="88pt"
 viewBox="0.00 0.00 469.00 88.00" xmlns="http://www.w3.org/2000/svg" xmlns:xlink="http://www.w3.org/1999/xlink">
<g id="graph0" class="graph" transform="scale(1 1) rotate(0) translate(4 84)">
<title>Graphical Class Hierarchy</title>
<!-- Node205 -->
<g id="node1" class="node">
<title>Node205</title>
<g id="a_node1"><a xlink:href="d0/df1/interfaceorg_1_1cobbzilla_1_1util_1_1io_1_1FileResolver.html" target="_top" xlink:title="org.cobbzilla.util.io.File\lResolver">
<polygon fill="none" stroke="#000000" points="179,-49.5 179,-79.5 295,-79.5 295,-49.5 179,-49.5"/>
<text text-anchor="start" x="187" y="-67.5" font-family="Helvetica,sans-Serif" font-size="10.00" fill="#000000">org.cobbzilla.util.io.File</text>
<text text-anchor="middle" x="237" y="-56.5" font-family="Helvetica,sans-Serif" font-size="10.00" fill="#000000">Resolver</text>
</a>
</g>
</g>
<!-- Node2 -->
<g id="node2" class="node">
<title>Node2</title>
<g id="a_node2"><a xlink:href="d2/d5d/classorg_1_1cobbzilla_1_1util_1_1io_1_1PathListFileResolver.html" target="_top" xlink:title="org.cobbzilla.util.io.Path\lListFileResolver">
<polygon fill="none" stroke="#000000" points="340,-24.5 340,-54.5 461,-54.5 461,-24.5 340,-24.5"/>
<text text-anchor="start" x="348" y="-42.5" font-family="Helvetica,sans-Serif" font-size="10.00" fill="#000000">org.cobbzilla.util.io.Path</text>
<text text-anchor="middle" x="400.5" y="-31.5" font-family="Helvetica,sans-Serif" font-size="10.00" fill="#000000">ListFileResolver</text>
</a>
</g>
</g>
<!-- Node205&#45;&gt;Node2 -->
<g id="edge1" class="edge">
<title>Node205&#45;&gt;Node2</title>
<path fill="none" stroke="#191970" d="M305.1048,-54.0864C316.6206,-52.3256 328.5081,-50.5079 339.8183,-48.7785"/>
<polygon fill="#191970" stroke="#191970" points="304.4604,-50.6442 295.1043,-55.6155 305.5185,-57.5638 304.4604,-50.6442"/>
</g>
<!-- Node0 -->
<g id="node3" class="node">
<title>Node0</title>
<g id="a_node3"><a xlink:href="dd/de6/classorg_1_1cobbzilla_1_1util_1_1collection_1_1SetSourceBase.html" target="_top" xlink:title="org.cobbzilla.util.collection.\lSetSourceBase\&lt; String \&gt;">
<polygon fill="none" stroke="#000000" points="0,-.5 0,-30.5 134,-30.5 134,-.5 0,-.5"/>
<text text-anchor="start" x="8" y="-18.5" font-family="Helvetica,sans-Serif" font-size="10.00" fill="#000000">org.cobbzilla.util.collection.</text>
<text text-anchor="middle" x="67" y="-7.5" font-family="Helvetica,sans-Serif" font-size="10.00" fill="#000000">SetSourceBase&lt; String &gt;</text>
</a>
</g>
</g>
<!-- Node1 -->
<g id="node4" class="node">
<title>Node1</title>
<g id="a_node4"><a xlink:href="d5/df5/classorg_1_1cobbzilla_1_1util_1_1collection_1_1StringSetSource.html" target="_top" xlink:title="org.cobbzilla.util.collection.\lStringSetSource">
<polygon fill="none" stroke="#000000" points="170,-.5 170,-30.5 304,-30.5 304,-.5 170,-.5"/>
<text text-anchor="start" x="178" y="-18.5" font-family="Helvetica,sans-Serif" font-size="10.00" fill="#000000">org.cobbzilla.util.collection.</text>
<text text-anchor="middle" x="237" y="-7.5" font-family="Helvetica,sans-Serif" font-size="10.00" fill="#000000">StringSetSource</text>
</a>
</g>
</g>
<!-- Node0&#45;&gt;Node1 -->
<g id="edge2" class="edge">
<title>Node0&#45;&gt;Node1</title>
<path fill="none" stroke="#191970" d="M144.4246,-15.5C152.8759,-15.5 161.4279,-15.5 169.7428,-15.5"/>
<polygon fill="#191970" stroke="#191970" points="144.1885,-12.0001 134.1885,-15.5 144.1885,-19.0001 144.1885,-12.0001"/>
</g>
<!-- Node1&#45;&gt;Node2 -->
<g id="edge3" class="edge">
<title>Node1&#45;&gt;Node2</title>
<path fill="none" stroke="#191970" d="M314.3905,-26.8601C322.9056,-28.11 331.4841,-29.3692 339.7548,-30.5833"/>
<polygon fill="#191970" stroke="#191970" points="314.848,-23.3898 304.4457,-25.4003 313.8313,-30.3156 314.848,-23.3898"/>
</g>
</g>
</svg>
