<?xml version="1.0" encoding="UTF-8" standalone="no"?>
<!DOCTYPE svg PUBLIC "-//W3C//DTD SVG 1.1//EN"
 "http://www.w3.org/Graphics/SVG/1.1/DTD/svg11.dtd">
<!-- Generated by graphviz version 2.40.1 (20161225.0304)
 -->
<!-- Title: Graphical Class Hierarchy Pages: 1 -->
<svg width="309pt" height="88pt"
 viewBox="0.00 0.00 309.00 88.00" xmlns="http://www.w3.org/2000/svg" xmlns:xlink="http://www.w3.org/1999/xlink">
<g id="graph0" class="graph" transform="scale(1 1) rotate(0) translate(4 84)">
<title>Graphical Class Hierarchy</title>
<!-- Node0 -->
<g id="node1" class="node">
<title>Node0</title>
<g id="a_node1"><a xlink:href="d7/d8b/interfaceorg_1_1cobbzilla_1_1util_1_1bean_1_1BeanMerger_1_1CopyEvaluator.html" target="_top" xlink:title="org.cobbzilla.util.bean.\lBeanMerger.CopyEvaluator">
<polygon fill="none" stroke="#000000" points="0,-24.5 0,-54.5 137,-54.5 137,-24.5 0,-24.5"/>
<text text-anchor="start" x="8" y="-42.5" font-family="Helvetica,sans-Serif" font-size="10.00" fill="#000000">org.cobbzilla.util.bean.</text>
<text text-anchor="middle" x="68.5" y="-31.5" font-family="Helvetica,sans-Serif" font-size="10.00" fill="#000000">BeanMerger.CopyEvaluator</text>
</a>
</g>
</g>
<!-- Node1 -->
<g id="node2" class="node">
<title>Node1</title>
<g id="a_node2"><a xlink:href="df/df9/classorg_1_1cobbzilla_1_1util_1_1bean_1_1BeanMerger_1_1AlwaysCopy.html" target="_top" xlink:title="org.cobbzilla.util.bean.\lBeanMerger.AlwaysCopy">
<polygon fill="none" stroke="#000000" points="173,-49.5 173,-79.5 301,-79.5 301,-49.5 173,-49.5"/>
<text text-anchor="start" x="181" y="-67.5" font-family="Helvetica,sans-Serif" font-size="10.00" fill="#000000">org.cobbzilla.util.bean.</text>
<text text-anchor="middle" x="237" y="-56.5" font-family="Helvetica,sans-Serif" font-size="10.00" fill="#000000">BeanMerger.AlwaysCopy</text>
</a>
</g>
</g>
<!-- Node0&#45;&gt;Node1 -->
<g id="edge1" class="edge">
<title>Node0&#45;&gt;Node1</title>
<path fill="none" stroke="#191970" d="M147.1095,-51.1631C155.7408,-52.4437 164.4514,-53.7361 172.8768,-54.9862"/>
<polygon fill="#191970" stroke="#191970" points="147.4408,-47.6741 137.0354,-49.6685 146.4134,-54.5983 147.4408,-47.6741"/>
</g>
<!-- Node2 -->
<g id="node3" class="node">
<title>Node2</title>
<g id="a_node3"><a xlink:href="dc/d34/classorg_1_1cobbzilla_1_1util_1_1bean_1_1BeanMerger_1_1NotNull.html" target="_top" xlink:title="org.cobbzilla.util.bean.\lBeanMerger.NotNull">
<polygon fill="none" stroke="#000000" points="180,-.5 180,-30.5 294,-30.5 294,-.5 180,-.5"/>
<text text-anchor="start" x="188" y="-18.5" font-family="Helvetica,sans-Serif" font-size="10.00" fill="#000000">org.cobbzilla.util.bean.</text>
<text text-anchor="middle" x="237" y="-7.5" font-family="Helvetica,sans-Serif" font-size="10.00" fill="#000000">BeanMerger.NotNull</text>
</a>
</g>
</g>
<!-- Node0&#45;&gt;Node2 -->
<g id="edge2" class="edge">
<title>Node0&#45;&gt;Node2</title>
<path fill="none" stroke="#191970" d="M147.1095,-28.3034C158.1426,-26.7319 169.3052,-25.142 179.8361,-23.642"/>
<polygon fill="#191970" stroke="#191970" points="146.4419,-24.8631 137.0354,-29.7383 147.429,-31.7931 146.4419,-24.8631"/>
</g>
</g>
</svg>
