<?xml version="1.0" encoding="UTF-8" standalone="no"?>
<!DOCTYPE svg PUBLIC "-//W3C//DTD SVG 1.1//EN"
 "http://www.w3.org/Graphics/SVG/1.1/DTD/svg11.dtd">
<!-- Generated by graphviz version 2.40.1 (20161225.0304)
 -->
<!-- Title: Graphical Class Hierarchy Pages: 1 -->
<svg width="247pt" height="137pt"
 viewBox="0.00 0.00 247.00 137.00" xmlns="http://www.w3.org/2000/svg" xmlns:xlink="http://www.w3.org/1999/xlink">
<g id="graph0" class="graph" transform="scale(1 1) rotate(0) translate(4 133)">
<title>Graphical Class Hierarchy</title>
<!-- Node376 -->
<g id="node1" class="node">
<title>Node376</title>
<polygon fill="none" stroke="#bfbfbf" points="0,-55 0,-74 69,-74 69,-55 0,-55"/>
<text text-anchor="middle" x="34.5" y="-62" font-family="Helvetica,sans-Serif" font-size="10.00" fill="#000000">Transformer</text>
</g>
<!-- Node0 -->
<g id="node2" class="node">
<title>Node0</title>
<g id="a_node2"><a xlink:href="d9/dc3/classorg_1_1cobbzilla_1_1util_1_1collection_1_1FieldTransformer.html" target="_top" xlink:title="org.cobbzilla.util.collection.\lFieldTransformer">
<polygon fill="none" stroke="#000000" points="105,-98.5 105,-128.5 239,-128.5 239,-98.5 105,-98.5"/>
<text text-anchor="start" x="113" y="-116.5" font-family="Helvetica,sans-Serif" font-size="10.00" fill="#000000">org.cobbzilla.util.collection.</text>
<text text-anchor="middle" x="172" y="-105.5" font-family="Helvetica,sans-Serif" font-size="10.00" fill="#000000">FieldTransformer</text>
</a>
</g>
</g>
<!-- Node376&#45;&gt;Node0 -->
<g id="edge1" class="edge">
<title>Node376&#45;&gt;Node0</title>
<path fill="none" stroke="#191970" d="M70.9461,-77.4881C89.0361,-83.9347 110.9881,-91.7576 129.8044,-98.463"/>
<polygon fill="#191970" stroke="#191970" points="71.9325,-74.124 61.3378,-74.064 69.5826,-80.7178 71.9325,-74.124"/>
</g>
<!-- Node378 -->
<g id="node3" class="node">
<title>Node378</title>
<g id="a_node3"><a xlink:href="d9/df7/classorg_1_1cobbzilla_1_1util_1_1collection_1_1StringPrefixTransformer.html" target="_top" xlink:title="org.cobbzilla.util.collection.\lStringPrefixTransformer">
<polygon fill="none" stroke="#000000" points="105,-49.5 105,-79.5 239,-79.5 239,-49.5 105,-49.5"/>
<text text-anchor="start" x="113" y="-67.5" font-family="Helvetica,sans-Serif" font-size="10.00" fill="#000000">org.cobbzilla.util.collection.</text>
<text text-anchor="middle" x="172" y="-56.5" font-family="Helvetica,sans-Serif" font-size="10.00" fill="#000000">StringPrefixTransformer</text>
</a>
</g>
</g>
<!-- Node376&#45;&gt;Node378 -->
<g id="edge2" class="edge">
<title>Node376&#45;&gt;Node378</title>
<path fill="none" stroke="#191970" d="M79.2664,-64.5C87.4687,-64.5 96.1918,-64.5 104.8801,-64.5"/>
<polygon fill="#191970" stroke="#191970" points="79.1971,-61.0001 69.1971,-64.5 79.197,-68.0001 79.1971,-61.0001"/>
</g>
<!-- Node379 -->
<g id="node4" class="node">
<title>Node379</title>
<g id="a_node4"><a xlink:href="d0/dec/classorg_1_1cobbzilla_1_1util_1_1collection_1_1ToStringTransformer.html" target="_top" xlink:title="org.cobbzilla.util.collection.\lToStringTransformer">
<polygon fill="none" stroke="#000000" points="105,-.5 105,-30.5 239,-30.5 239,-.5 105,-.5"/>
<text text-anchor="start" x="113" y="-18.5" font-family="Helvetica,sans-Serif" font-size="10.00" fill="#000000">org.cobbzilla.util.collection.</text>
<text text-anchor="middle" x="172" y="-7.5" font-family="Helvetica,sans-Serif" font-size="10.00" fill="#000000">ToStringTransformer</text>
</a>
</g>
</g>
<!-- Node376&#45;&gt;Node379 -->
<g id="edge3" class="edge">
<title>Node376&#45;&gt;Node379</title>
<path fill="none" stroke="#191970" d="M70.9461,-51.5119C89.0361,-45.0653 110.9881,-37.2424 129.8044,-30.537"/>
<polygon fill="#191970" stroke="#191970" points="69.5826,-48.2822 61.3378,-54.936 71.9325,-54.876 69.5826,-48.2822"/>
</g>
</g>
</svg>
