<?xml version="1.0" encoding="UTF-8" standalone="no"?>
<!DOCTYPE svg PUBLIC "-//W3C//DTD SVG 1.1//EN"
 "http://www.w3.org/Graphics/SVG/1.1/DTD/svg11.dtd">
<!-- Generated by graphviz version 2.40.1 (20161225.0304)
 -->
<!-- Title: Graphical Class Hierarchy Pages: 1 -->
<svg width="324pt" height="137pt"
 viewBox="0.00 0.00 324.00 137.00" xmlns="http://www.w3.org/2000/svg" xmlns:xlink="http://www.w3.org/1999/xlink">
<g id="graph0" class="graph" transform="scale(1 1) rotate(0) translate(4 133)">
<title>Graphical Class Hierarchy</title>
<!-- Node0 -->
<g id="node1" class="node">
<title>Node0</title>
<g id="a_node1"><a xlink:href="dc/d34/classorg_1_1cobbzilla_1_1util_1_1handlebars_1_1ImageInsertion.html" target="_top" xlink:title="org.cobbzilla.util.handlebars.\lImageInsertion">
<polygon fill="none" stroke="#000000" points="0,-49.5 0,-79.5 140,-79.5 140,-49.5 0,-49.5"/>
<text text-anchor="start" x="8" y="-67.5" font-family="Helvetica,sans-Serif" font-size="10.00" fill="#000000">org.cobbzilla.util.handlebars.</text>
<text text-anchor="middle" x="70" y="-56.5" font-family="Helvetica,sans-Serif" font-size="10.00" fill="#000000">ImageInsertion</text>
</a>
</g>
</g>
<!-- Node1 -->
<g id="node2" class="node">
<title>Node1</title>
<g id="a_node2"><a xlink:href="d2/d2d/classorg_1_1cobbzilla_1_1util_1_1handlebars_1_1Base64ImageInsertion.html" target="_top" xlink:title="org.cobbzilla.util.handlebars.\lBase64ImageInsertion">
<polygon fill="none" stroke="#000000" points="176,-98.5 176,-128.5 316,-128.5 316,-98.5 176,-98.5"/>
<text text-anchor="start" x="184" y="-116.5" font-family="Helvetica,sans-Serif" font-size="10.00" fill="#000000">org.cobbzilla.util.handlebars.</text>
<text text-anchor="middle" x="246" y="-105.5" font-family="Helvetica,sans-Serif" font-size="10.00" fill="#000000">Base64ImageInsertion</text>
</a>
</g>
</g>
<!-- Node0&#45;&gt;Node1 -->
<g id="edge1" class="edge">
<title>Node0&#45;&gt;Node1</title>
<path fill="none" stroke="#191970" d="M134.011,-82.3212C153.0137,-87.6118 173.6322,-93.3522 191.9372,-98.4484"/>
<polygon fill="#191970" stroke="#191970" points="134.8143,-78.9118 124.2419,-79.6014 132.9368,-85.6554 134.8143,-78.9118"/>
</g>
<!-- Node2 -->
<g id="node3" class="node">
<title>Node2</title>
<g id="a_node3"><a xlink:href="d1/d7a/classorg_1_1cobbzilla_1_1util_1_1handlebars_1_1ESignInsertion.html" target="_top" xlink:title="org.cobbzilla.util.handlebars.\lESignInsertion">
<polygon fill="none" stroke="#000000" points="176,-49.5 176,-79.5 316,-79.5 316,-49.5 176,-49.5"/>
<text text-anchor="start" x="184" y="-67.5" font-family="Helvetica,sans-Serif" font-size="10.00" fill="#000000">org.cobbzilla.util.handlebars.</text>
<text text-anchor="middle" x="246" y="-56.5" font-family="Helvetica,sans-Serif" font-size="10.00" fill="#000000">ESignInsertion</text>
</a>
</g>
</g>
<!-- Node0&#45;&gt;Node2 -->
<g id="edge2" class="edge">
<title>Node0&#45;&gt;Node2</title>
<path fill="none" stroke="#191970" d="M150.1006,-64.5C158.7058,-64.5 167.4124,-64.5 175.888,-64.5"/>
<polygon fill="#191970" stroke="#191970" points="150.0656,-61.0001 140.0656,-64.5 150.0655,-68.0001 150.0656,-61.0001"/>
</g>
<!-- Node3 -->
<g id="node4" class="node">
<title>Node3</title>
<g id="a_node4"><a xlink:href="d7/db4/classorg_1_1cobbzilla_1_1util_1_1handlebars_1_1TextImageInsertion.html" target="_top" xlink:title="org.cobbzilla.util.handlebars.\lTextImageInsertion">
<polygon fill="none" stroke="#000000" points="176,-.5 176,-30.5 316,-30.5 316,-.5 176,-.5"/>
<text text-anchor="start" x="184" y="-18.5" font-family="Helvetica,sans-Serif" font-size="10.00" fill="#000000">org.cobbzilla.util.handlebars.</text>
<text text-anchor="middle" x="246" y="-7.5" font-family="Helvetica,sans-Serif" font-size="10.00" fill="#000000">TextImageInsertion</text>
</a>
</g>
</g>
<!-- Node0&#45;&gt;Node3 -->
<g id="edge3" class="edge">
<title>Node0&#45;&gt;Node3</title>
<path fill="none" stroke="#191970" d="M134.011,-46.6788C153.0137,-41.3882 173.6322,-35.6478 191.9372,-30.5516"/>
<polygon fill="#191970" stroke="#191970" points="132.9368,-43.3446 124.2419,-49.3986 134.8143,-50.0882 132.9368,-43.3446"/>
</g>
</g>
</svg>
