<?xml version="1.0" encoding="UTF-8" standalone="no"?>
<!DOCTYPE svg PUBLIC "-//W3C//DTD SVG 1.1//EN"
 "http://www.w3.org/Graphics/SVG/1.1/DTD/svg11.dtd">
<!-- Generated by graphviz version 2.40.1 (20161225.0304)
 -->
<!-- Title: org.cobbzilla.util.json.JsonUtilTest.jsonObjectEquals Pages: 1 -->
<svg width="319pt" height="88pt"
 viewBox="0.00 0.00 319.00 88.00" xmlns="http://www.w3.org/2000/svg" xmlns:xlink="http://www.w3.org/1999/xlink">
<g id="graph0" class="graph" transform="scale(1 1) rotate(0) translate(4 84)">
<title>org.cobbzilla.util.json.JsonUtilTest.jsonObjectEquals</title>
<!-- Node0 -->
<g id="node1" class="node">
<title>Node0</title>
<polygon fill="#bfbfbf" stroke="#000000" points="0,-24.5 0,-54.5 152,-54.5 152,-24.5 0,-24.5"/>
<text text-anchor="start" x="8" y="-42.5" font-family="Helvetica,sans-Serif" font-size="10.00" fill="#000000">org.cobbzilla.util.json.</text>
<text text-anchor="middle" x="76" y="-31.5" font-family="Helvetica,sans-Serif" font-size="10.00" fill="#000000">JsonUtilTest.jsonObjectEquals</text>
</g>
<!-- Node1 -->
<g id="node2" class="node">
<title>Node1</title>
<g id="a_node2"><a xlink:href="../../d9/d3d/classorg_1_1cobbzilla_1_1util_1_1json_1_1JsonUtilTest_aed9af41e8c031f6abd93a81c71eafa0b.html#aed9af41e8c031f6abd93a81c71eafa0b" target="_top" xlink:title="org.cobbzilla.util.json.\lJsonUtilTest.jsonEquals">
<polygon fill="none" stroke="#000000" points="188,-49.5 188,-79.5 311,-79.5 311,-49.5 188,-49.5"/>
<text text-anchor="start" x="196" y="-67.5" font-family="Helvetica,sans-Serif" font-size="10.00" fill="#000000">org.cobbzilla.util.json.</text>
<text text-anchor="middle" x="249.5" y="-56.5" font-family="Helvetica,sans-Serif" font-size="10.00" fill="#000000">JsonUtilTest.jsonEquals</text>
</a>
</g>
</g>
<!-- Node0&#45;&gt;Node1 -->
<g id="edge1" class="edge">
<title>Node0&#45;&gt;Node1</title>
<path fill="none" stroke="#191970" d="M152.0996,-50.4654C160.5793,-51.6872 169.1968,-52.9289 177.6215,-54.1429"/>
<polygon fill="#191970" stroke="#191970" points="177.3828,-57.6445 187.7798,-55.6066 178.3812,-50.7161 177.3828,-57.6445"/>
</g>
<!-- Node2 -->
<g id="node3" class="node">
<title>Node2</title>
<g id="a_node3"><a xlink:href="../../d9/d3d/classorg_1_1cobbzilla_1_1util_1_1json_1_1JsonUtilTest_a47da11075739a8c4b0077bcfd813a412.html#a47da11075739a8c4b0077bcfd813a412" target="_top" xlink:title="org.cobbzilla.util.json.\lJsonUtilTest.toMap">
<polygon fill="none" stroke="#000000" points="194,-.5 194,-30.5 305,-30.5 305,-.5 194,-.5"/>
<text text-anchor="start" x="202" y="-18.5" font-family="Helvetica,sans-Serif" font-size="10.00" fill="#000000">org.cobbzilla.util.json.</text>
<text text-anchor="middle" x="249.5" y="-7.5" font-family="Helvetica,sans-Serif" font-size="10.00" fill="#000000">JsonUtilTest.toMap</text>
</a>
</g>
</g>
<!-- Node0&#45;&gt;Node2 -->
<g id="edge2" class="edge">
<title>Node0&#45;&gt;Node2</title>
<path fill="none" stroke="#191970" d="M152.0996,-28.9733C162.6158,-27.5186 173.344,-26.0345 183.6534,-24.6085"/>
<polygon fill="#191970" stroke="#191970" points="184.3738,-28.0422 193.7998,-23.2049 183.4145,-21.1083 184.3738,-28.0422"/>
</g>
</g>
</svg>
