<?xml version="1.0" encoding="UTF-8" standalone="no"?>
<!DOCTYPE svg PUBLIC "-//W3C//DTD SVG 1.1//EN"
 "http://www.w3.org/Graphics/SVG/1.1/DTD/svg11.dtd">
<!-- Generated by graphviz version 2.40.1 (20161225.0304)
 -->
<!-- Title: org.cobbzilla.util.json.JsonUtilTest.jsonEquals Pages: 1 -->
<svg width="478pt" height="137pt"
 viewBox="0.00 0.00 478.00 137.00" xmlns="http://www.w3.org/2000/svg" xmlns:xlink="http://www.w3.org/1999/xlink">
<g id="graph0" class="graph" transform="scale(1 1) rotate(0) translate(4 133)">
<title>org.cobbzilla.util.json.JsonUtilTest.jsonEquals</title>
<!-- Node1 -->
<g id="node1" class="node">
<title>Node1</title>
<polygon fill="#bfbfbf" stroke="#000000" points="0,-49.5 0,-79.5 123,-79.5 123,-49.5 0,-49.5"/>
<text text-anchor="start" x="8" y="-67.5" font-family="Helvetica,sans-Serif" font-size="10.00" fill="#000000">org.cobbzilla.util.json.</text>
<text text-anchor="middle" x="61.5" y="-56.5" font-family="Helvetica,sans-Serif" font-size="10.00" fill="#000000">JsonUtilTest.jsonEquals</text>
</g>
<!-- Node2 -->
<g id="node2" class="node">
<title>Node2</title>
<g id="a_node2"><a xlink:href="../../d9/d3d/classorg_1_1cobbzilla_1_1util_1_1json_1_1JsonUtilTest_a1600fad55e519478d8502944c8a35bf6.html#a1600fad55e519478d8502944c8a35bf6" target="_top" xlink:title="org.cobbzilla.util.json.\lJsonUtilTest.jsonArrayEquals">
<polygon fill="none" stroke="#000000" points="162,-98.5 162,-128.5 308,-128.5 308,-98.5 162,-98.5"/>
<text text-anchor="start" x="170" y="-116.5" font-family="Helvetica,sans-Serif" font-size="10.00" fill="#000000">org.cobbzilla.util.json.</text>
<text text-anchor="middle" x="235" y="-105.5" font-family="Helvetica,sans-Serif" font-size="10.00" fill="#000000">JsonUtilTest.jsonArrayEquals</text>
</a>
</g>
</g>
<!-- Node1&#45;&gt;Node2 -->
<g id="edge1" class="edge">
<title>Node1&#45;&gt;Node2</title>
<path fill="none" stroke="#191970" d="M124.6018,-82.3212C143.3345,-87.6118 163.6602,-93.3522 181.7051,-98.4484"/>
<polygon fill="#191970" stroke="#191970" points="125.5463,-78.9512 114.9714,-79.6014 123.6437,-85.6877 125.5463,-78.9512"/>
</g>
<!-- Node4 -->
<g id="node4" class="node">
<title>Node4</title>
<g id="a_node4"><a xlink:href="../../d9/d3d/classorg_1_1cobbzilla_1_1util_1_1json_1_1JsonUtilTest_a659b28593affcbaa129c68342c984c0b.html#a659b28593affcbaa129c68342c984c0b" target="_top" xlink:title="org.cobbzilla.util.json.\lJsonUtilTest.jsonObjectEquals">
<polygon fill="none" stroke="#000000" points="159,-49.5 159,-79.5 311,-79.5 311,-49.5 159,-49.5"/>
<text text-anchor="start" x="167" y="-67.5" font-family="Helvetica,sans-Serif" font-size="10.00" fill="#000000">org.cobbzilla.util.json.</text>
<text text-anchor="middle" x="235" y="-56.5" font-family="Helvetica,sans-Serif" font-size="10.00" fill="#000000">JsonUtilTest.jsonObjectEquals</text>
</a>
</g>
</g>
<!-- Node1&#45;&gt;Node4 -->
<g id="edge3" class="edge">
<title>Node1&#45;&gt;Node4</title>
<path fill="none" stroke="#191970" d="M133.3508,-64.5C141.8045,-64.5 150.4528,-64.5 158.9615,-64.5"/>
<polygon fill="#191970" stroke="#191970" points="133.1582,-61.0001 123.1581,-64.5 133.1581,-68.0001 133.1582,-61.0001"/>
</g>
<!-- Node5 -->
<g id="node5" class="node">
<title>Node5</title>
<g id="a_node5"><a xlink:href="../../d9/d3d/classorg_1_1cobbzilla_1_1util_1_1json_1_1JsonUtilTest_a506201864e5b3d7073a4fa42fa837cd3.html#a506201864e5b3d7073a4fa42fa837cd3" target="_top" xlink:title="org.cobbzilla.util.json.\lJsonUtilTest.testMerge">
<polygon fill="none" stroke="#000000" points="175.5,-.5 175.5,-30.5 294.5,-30.5 294.5,-.5 175.5,-.5"/>
<text text-anchor="start" x="183.5" y="-18.5" font-family="Helvetica,sans-Serif" font-size="10.00" fill="#000000">org.cobbzilla.util.json.</text>
<text text-anchor="middle" x="235" y="-7.5" font-family="Helvetica,sans-Serif" font-size="10.00" fill="#000000">JsonUtilTest.testMerge</text>
</a>
</g>
</g>
<!-- Node1&#45;&gt;Node5 -->
<g id="edge5" class="edge">
<title>Node1&#45;&gt;Node5</title>
<path fill="none" stroke="#191970" d="M124.6018,-46.6788C143.3345,-41.3882 163.6602,-35.6478 181.7051,-30.5516"/>
<polygon fill="#191970" stroke="#191970" points="123.6437,-43.3123 114.9714,-49.3986 125.5463,-50.0488 123.6437,-43.3123"/>
</g>
<!-- Node3 -->
<g id="node3" class="node">
<title>Node3</title>
<g id="a_node3"><a xlink:href="../../d9/d3d/classorg_1_1cobbzilla_1_1util_1_1json_1_1JsonUtilTest_a91bcfcbb21e5634c2374b36763eefa7d.html#a91bcfcbb21e5634c2374b36763eefa7d" target="_top" xlink:title="org.cobbzilla.util.json.\lJsonUtilTest.jsonEquals">
<polygon fill="none" stroke="#000000" points="347,-73.5 347,-103.5 470,-103.5 470,-73.5 347,-73.5"/>
<text text-anchor="start" x="355" y="-91.5" font-family="Helvetica,sans-Serif" font-size="10.00" fill="#000000">org.cobbzilla.util.json.</text>
<text text-anchor="middle" x="408.5" y="-80.5" font-family="Helvetica,sans-Serif" font-size="10.00" fill="#000000">JsonUtilTest.jsonEquals</text>
</a>
</g>
</g>
<!-- Node2&#45;&gt;Node3 -->
<g id="edge2" class="edge">
<title>Node2&#45;&gt;Node3</title>
<path fill="none" stroke="#191970" d="M318.0951,-101.5266C327.749,-100.1356 337.4633,-98.7358 346.7588,-97.3964"/>
<polygon fill="#191970" stroke="#191970" points="317.4753,-98.0797 308.0768,-102.9702 318.4737,-105.0082 317.4753,-98.0797"/>
</g>
<!-- Node4&#45;&gt;Node3 -->
<g id="edge4" class="edge">
<title>Node4&#45;&gt;Node3</title>
<path fill="none" stroke="#191970" d="M321.2077,-76.425C329.8385,-77.6189 338.4764,-78.8137 346.7798,-79.9623"/>
<polygon fill="#191970" stroke="#191970" points="321.4849,-72.9301 311.0996,-75.0267 320.5257,-79.8641 321.4849,-72.9301"/>
</g>
</g>
</svg>
