<?xml version="1.0" encoding="UTF-8" standalone="no"?>
<!DOCTYPE svg PUBLIC "-//W3C//DTD SVG 1.1//EN"
 "http://www.w3.org/Graphics/SVG/1.1/DTD/svg11.dtd">
<!-- Generated by graphviz version 2.40.1 (20161225.0304)
 -->
<!-- Title: org.cobbzilla.util.json.JsonUtilTest.jsonEquals Pages: 1 -->
<svg width="478pt" height="88pt"
 viewBox="0.00 0.00 478.00 88.00" xmlns="http://www.w3.org/2000/svg" xmlns:xlink="http://www.w3.org/1999/xlink">
<g id="graph0" class="graph" transform="scale(1 1) rotate(0) translate(4 84)">
<title>org.cobbzilla.util.json.JsonUtilTest.jsonEquals</title>
<!-- Node0 -->
<g id="node1" class="node">
<title>Node0</title>
<polygon fill="#bfbfbf" stroke="#000000" points="0,-24.5 0,-54.5 123,-54.5 123,-24.5 0,-24.5"/>
<text text-anchor="start" x="8" y="-42.5" font-family="Helvetica,sans-Serif" font-size="10.00" fill="#000000">org.cobbzilla.util.json.</text>
<text text-anchor="middle" x="61.5" y="-31.5" font-family="Helvetica,sans-Serif" font-size="10.00" fill="#000000">JsonUtilTest.jsonEquals</text>
</g>
<!-- Node1 -->
<g id="node2" class="node">
<title>Node1</title>
<g id="a_node2"><a xlink:href="../../d9/d3d/classorg_1_1cobbzilla_1_1util_1_1json_1_1JsonUtilTest_a1600fad55e519478d8502944c8a35bf6.html#a1600fad55e519478d8502944c8a35bf6" target="_top" xlink:title="org.cobbzilla.util.json.\lJsonUtilTest.jsonArrayEquals">
<polygon fill="none" stroke="#000000" points="162,-49.5 162,-79.5 308,-79.5 308,-49.5 162,-49.5"/>
<text text-anchor="start" x="170" y="-67.5" font-family="Helvetica,sans-Serif" font-size="10.00" fill="#000000">org.cobbzilla.util.json.</text>
<text text-anchor="middle" x="235" y="-56.5" font-family="Helvetica,sans-Serif" font-size="10.00" fill="#000000">JsonUtilTest.jsonArrayEquals</text>
</a>
</g>
</g>
<!-- Node0&#45;&gt;Node1 -->
<g id="edge1" class="edge">
<title>Node0&#45;&gt;Node1</title>
<path fill="none" stroke="#191970" d="M123.1581,-48.3845C132.4834,-49.7282 142.232,-51.1329 151.9194,-52.5287"/>
<polygon fill="#191970" stroke="#191970" points="151.5753,-56.0152 161.9723,-53.9773 152.5737,-49.0868 151.5753,-56.0152"/>
</g>
<!-- Node3 -->
<g id="node4" class="node">
<title>Node3</title>
<g id="a_node4"><a xlink:href="../../d9/d3d/classorg_1_1cobbzilla_1_1util_1_1json_1_1JsonUtilTest_a659b28593affcbaa129c68342c984c0b.html#a659b28593affcbaa129c68342c984c0b" target="_top" xlink:title="org.cobbzilla.util.json.\lJsonUtilTest.jsonObjectEquals">
<polygon fill="none" stroke="#000000" points="159,-.5 159,-30.5 311,-30.5 311,-.5 159,-.5"/>
<text text-anchor="start" x="167" y="-18.5" font-family="Helvetica,sans-Serif" font-size="10.00" fill="#000000">org.cobbzilla.util.json.</text>
<text text-anchor="middle" x="235" y="-7.5" font-family="Helvetica,sans-Serif" font-size="10.00" fill="#000000">JsonUtilTest.jsonObjectEquals</text>
</a>
</g>
</g>
<!-- Node0&#45;&gt;Node3 -->
<g id="edge3" class="edge">
<title>Node0&#45;&gt;Node3</title>
<path fill="none" stroke="#191970" d="M123.1581,-30.9709C131.4889,-29.8185 140.1574,-28.6194 148.8184,-27.4214"/>
<polygon fill="#191970" stroke="#191970" points="149.5354,-30.8556 158.9615,-26.0183 148.5762,-23.9216 149.5354,-30.8556"/>
</g>
<!-- Node2 -->
<g id="node3" class="node">
<title>Node2</title>
<g id="a_node3"><a xlink:href="../../d9/d3d/classorg_1_1cobbzilla_1_1util_1_1json_1_1JsonUtilTest_aed9af41e8c031f6abd93a81c71eafa0b.html#aed9af41e8c031f6abd93a81c71eafa0b" target="_top" xlink:title="org.cobbzilla.util.json.\lJsonUtilTest.jsonEquals">
<polygon fill="none" stroke="#000000" points="347,-49.5 347,-79.5 470,-79.5 470,-49.5 347,-49.5"/>
<text text-anchor="start" x="355" y="-67.5" font-family="Helvetica,sans-Serif" font-size="10.00" fill="#000000">org.cobbzilla.util.json.</text>
<text text-anchor="middle" x="408.5" y="-56.5" font-family="Helvetica,sans-Serif" font-size="10.00" fill="#000000">JsonUtilTest.jsonEquals</text>
</a>
</g>
</g>
<!-- Node1&#45;&gt;Node2 -->
<g id="edge2" class="edge">
<title>Node1&#45;&gt;Node2</title>
<path fill="none" stroke="#191970" d="M308.0768,-64.5C317.5302,-64.5 327.2059,-64.5 336.6394,-64.5"/>
<polygon fill="#191970" stroke="#191970" points="336.7588,-68.0001 346.7588,-64.5 336.7587,-61.0001 336.7588,-68.0001"/>
</g>
<!-- Node3&#45;&gt;Node2 -->
<g id="edge4" class="edge">
<title>Node3&#45;&gt;Node2</title>
<path fill="none" stroke="#191970" d="M288.4714,-30.6014C306.5312,-35.7019 326.859,-41.4429 345.5814,-46.7305"/>
<polygon fill="#191970" stroke="#191970" points="344.6303,-50.0987 355.2051,-49.4484 346.5329,-43.3622 344.6303,-50.0987"/>
</g>
<!-- Node4 -->
<g id="node5" class="node">
<title>Node4</title>
<g id="a_node5"><a xlink:href="../../d9/d3d/classorg_1_1cobbzilla_1_1util_1_1json_1_1JsonUtilTest_a47da11075739a8c4b0077bcfd813a412.html#a47da11075739a8c4b0077bcfd813a412" target="_top" xlink:title="org.cobbzilla.util.json.\lJsonUtilTest.toMap">
<polygon fill="none" stroke="#000000" points="353,-.5 353,-30.5 464,-30.5 464,-.5 353,-.5"/>
<text text-anchor="start" x="361" y="-18.5" font-family="Helvetica,sans-Serif" font-size="10.00" fill="#000000">org.cobbzilla.util.json.</text>
<text text-anchor="middle" x="408.5" y="-7.5" font-family="Helvetica,sans-Serif" font-size="10.00" fill="#000000">JsonUtilTest.toMap</text>
</a>
</g>
</g>
<!-- Node3&#45;&gt;Node4 -->
<g id="edge5" class="edge">
<title>Node3&#45;&gt;Node4</title>
<path fill="none" stroke="#191970" d="M311.0996,-15.5C321.6158,-15.5 332.344,-15.5 342.6534,-15.5"/>
<polygon fill="#191970" stroke="#191970" points="342.7999,-19.0001 352.7998,-15.5 342.7998,-12.0001 342.7999,-19.0001"/>
</g>
</g>
</svg>
