<?xml version="1.0" encoding="UTF-8" standalone="no"?>
<!DOCTYPE svg PUBLIC "-//W3C//DTD SVG 1.1//EN"
 "http://www.w3.org/Graphics/SVG/1.1/DTD/svg11.dtd">
<!-- Generated by graphviz version 2.40.1 (20161225.0304)
 -->
<!-- Title: org.cobbzilla.util.json.JsonUtilTest.assertReplacementMade Pages: 1 -->
<svg width="811pt" height="234pt"
 viewBox="0.00 0.00 811.00 234.00" xmlns="http://www.w3.org/2000/svg" xmlns:xlink="http://www.w3.org/1999/xlink">
<g id="graph0" class="graph" transform="scale(1 1) rotate(0) translate(4 230)">
<title>org.cobbzilla.util.json.JsonUtilTest.assertReplacementMade</title>
<!-- Node0 -->
<g id="node1" class="node">
<title>Node0</title>
<polygon fill="#bfbfbf" stroke="#000000" points="0,-103.5 0,-133.5 184,-133.5 184,-103.5 0,-103.5"/>
<text text-anchor="start" x="8" y="-121.5" font-family="Helvetica,sans-Serif" font-size="10.00" fill="#000000">org.cobbzilla.util.json.</text>
<text text-anchor="middle" x="92" y="-110.5" font-family="Helvetica,sans-Serif" font-size="10.00" fill="#000000">JsonUtilTest.assertReplacementMade</text>
</g>
<!-- Node1 -->
<g id="node2" class="node">
<title>Node1</title>
<g id="a_node2"><a xlink:href="../../dc/d2c/classorg_1_1cobbzilla_1_1util_1_1json_1_1JsonUtil_a012540ca836ef7dea8ae971437fb82c7.html#a012540ca836ef7dea8ae971437fb82c7" target="_top" xlink:title="org.cobbzilla.util.json.\lJsonUtil.fromJson">
<polygon fill="none" stroke="#000000" points="222.5,-152.5 222.5,-182.5 333.5,-182.5 333.5,-152.5 222.5,-152.5"/>
<text text-anchor="start" x="230.5" y="-170.5" font-family="Helvetica,sans-Serif" font-size="10.00" fill="#000000">org.cobbzilla.util.json.</text>
<text text-anchor="middle" x="278" y="-159.5" font-family="Helvetica,sans-Serif" font-size="10.00" fill="#000000">JsonUtil.fromJson</text>
</a>
</g>
</g>
<!-- Node0&#45;&gt;Node1 -->
<g id="edge1" class="edge">
<title>Node0&#45;&gt;Node1</title>
<path fill="none" stroke="#191970" d="M149.0702,-133.5346C169.1672,-138.829 191.9095,-144.8202 212.6371,-150.2807"/>
<polygon fill="#191970" stroke="#191970" points="211.7532,-153.6672 222.315,-152.8303 213.5365,-146.8982 211.7532,-153.6672"/>
</g>
<!-- Node6 -->
<g id="node7" class="node">
<title>Node6</title>
<g id="a_node7"><a xlink:href="../../dc/d2c/classorg_1_1cobbzilla_1_1util_1_1json_1_1JsonUtil_a4a60f61bb58c1e072a7e2ce5e5b43c46.html#a4a60f61bb58c1e072a7e2ce5e5b43c46" target="_top" xlink:title="org.cobbzilla.util.json.\lJsonUtil.replaceNode">
<polygon fill="none" stroke="#000000" points="222.5,-103.5 222.5,-133.5 333.5,-133.5 333.5,-103.5 222.5,-103.5"/>
<text text-anchor="start" x="230.5" y="-121.5" font-family="Helvetica,sans-Serif" font-size="10.00" fill="#000000">org.cobbzilla.util.json.</text>
<text text-anchor="middle" x="278" y="-110.5" font-family="Helvetica,sans-Serif" font-size="10.00" fill="#000000">JsonUtil.replaceNode</text>
</a>
</g>
</g>
<!-- Node0&#45;&gt;Node6 -->
<g id="edge7" class="edge">
<title>Node0&#45;&gt;Node6</title>
<path fill="none" stroke="#191970" d="M184.1826,-118.5C193.6737,-118.5 203.1761,-118.5 212.2944,-118.5"/>
<polygon fill="#191970" stroke="#191970" points="212.405,-122.0001 222.405,-118.5 212.405,-115.0001 212.405,-122.0001"/>
</g>
<!-- Node7 -->
<g id="node8" class="node">
<title>Node7</title>
<g id="a_node8"><a xlink:href="../../df/dac/classorg_1_1cobbzilla_1_1util_1_1io_1_1FileUtil_a7bd7d6a564be7a6169daa8eb5b33e9b7.html#a7bd7d6a564be7a6169daa8eb5b33e9b7" target="_top" xlink:title="org.cobbzilla.util.io.File\lUtil.toFile">
<polygon fill="none" stroke="#000000" points="220,-54.5 220,-84.5 336,-84.5 336,-54.5 220,-54.5"/>
<text text-anchor="start" x="228" y="-72.5" font-family="Helvetica,sans-Serif" font-size="10.00" fill="#000000">org.cobbzilla.util.io.File</text>
<text text-anchor="middle" x="278" y="-61.5" font-family="Helvetica,sans-Serif" font-size="10.00" fill="#000000">Util.toFile</text>
</a>
</g>
</g>
<!-- Node0&#45;&gt;Node7 -->
<g id="edge8" class="edge">
<title>Node0&#45;&gt;Node7</title>
<path fill="none" stroke="#191970" d="M149.0702,-103.4654C168.7092,-98.2917 190.8742,-92.4525 211.2168,-87.0934"/>
<polygon fill="#191970" stroke="#191970" points="212.2593,-90.4383 221.0377,-84.5062 210.476,-83.6692 212.2593,-90.4383"/>
</g>
<!-- Node2 -->
<g id="node3" class="node">
<title>Node2</title>
<g id="a_node3"><a xlink:href="../../dc/d2c/classorg_1_1cobbzilla_1_1util_1_1json_1_1JsonUtil_a4181f7525f80c694d58881fca5fe097f.html#a4181f7525f80c694d58881fca5fe097f" target="_top" xlink:title="org.cobbzilla.util.json.\lJsonUtil.json">
<polygon fill="none" stroke="#000000" points="382.5,-177.5 382.5,-207.5 493.5,-207.5 493.5,-177.5 382.5,-177.5"/>
<text text-anchor="start" x="390.5" y="-195.5" font-family="Helvetica,sans-Serif" font-size="10.00" fill="#000000">org.cobbzilla.util.json.</text>
<text text-anchor="middle" x="438" y="-184.5" font-family="Helvetica,sans-Serif" font-size="10.00" fill="#000000">JsonUtil.json</text>
</a>
</g>
</g>
<!-- Node1&#45;&gt;Node2 -->
<g id="edge2" class="edge">
<title>Node1&#45;&gt;Node2</title>
<path fill="none" stroke="#191970" d="M333.5112,-176.1736C345.9745,-178.121 359.3154,-180.2055 372.1539,-182.2115"/>
<polygon fill="#191970" stroke="#191970" points="371.8956,-185.7136 382.3161,-183.7994 372.9763,-178.7975 371.8956,-185.7136"/>
</g>
<!-- Node5 -->
<g id="node6" class="node">
<title>Node5</title>
<g id="a_node6"><a xlink:href="../../dc/d81/classorg_1_1cobbzilla_1_1util_1_1io_1_1StreamUtil_a242c4cb3ac88a027891f05b372294875.html#a242c4cb3ac88a027891f05b372294875" target="_top" xlink:title="org.cobbzilla.util.io.Stream\lUtil.toString">
<polygon fill="none" stroke="#000000" points="372,-128.5 372,-158.5 504,-158.5 504,-128.5 372,-128.5"/>
<text text-anchor="start" x="380" y="-146.5" font-family="Helvetica,sans-Serif" font-size="10.00" fill="#000000">org.cobbzilla.util.io.Stream</text>
<text text-anchor="middle" x="438" y="-135.5" font-family="Helvetica,sans-Serif" font-size="10.00" fill="#000000">Util.toString</text>
</a>
</g>
</g>
<!-- Node1&#45;&gt;Node5 -->
<g id="edge6" class="edge">
<title>Node1&#45;&gt;Node5</title>
<path fill="none" stroke="#191970" d="M333.5112,-159.1733C342.6886,-157.7967 352.3417,-156.3487 361.9198,-154.912"/>
<polygon fill="#191970" stroke="#191970" points="362.4808,-158.3671 371.8509,-153.4224 361.4423,-151.4446 362.4808,-158.3671"/>
</g>
<!-- Node3 -->
<g id="node4" class="node">
<title>Node3</title>
<g id="a_node4"><a xlink:href="../../dc/d2c/classorg_1_1cobbzilla_1_1util_1_1json_1_1JsonUtil_ae4b0ddbe1c463c41b05503ea67eb8f10.html#ae4b0ddbe1c463c41b05503ea67eb8f10" target="_top" xlink:title="org.cobbzilla.util.json.\lJsonUtil.toJsonOrDie">
<polygon fill="none" stroke="#000000" points="542.5,-177.5 542.5,-207.5 653.5,-207.5 653.5,-177.5 542.5,-177.5"/>
<text text-anchor="start" x="550.5" y="-195.5" font-family="Helvetica,sans-Serif" font-size="10.00" fill="#000000">org.cobbzilla.util.json.</text>
<text text-anchor="middle" x="598" y="-184.5" font-family="Helvetica,sans-Serif" font-size="10.00" fill="#000000">JsonUtil.toJsonOrDie</text>
</a>
</g>
</g>
<!-- Node2&#45;&gt;Node3 -->
<g id="edge3" class="edge">
<title>Node2&#45;&gt;Node3</title>
<path fill="none" stroke="#191970" d="M493.5112,-192.5C505.9745,-192.5 519.3154,-192.5 532.1539,-192.5"/>
<polygon fill="#191970" stroke="#191970" points="532.3161,-196.0001 542.3161,-192.5 532.3161,-189.0001 532.3161,-196.0001"/>
</g>
<!-- Node4 -->
<g id="node5" class="node">
<title>Node4</title>
<g id="a_node5"><a xlink:href="../../dc/d2c/classorg_1_1cobbzilla_1_1util_1_1json_1_1JsonUtil_aa10cd1ef91d278b645230ab79181d51e.html#aa10cd1ef91d278b645230ab79181d51e" target="_top" xlink:title="org.cobbzilla.util.json.\lJsonUtil.toJson">
<polygon fill="none" stroke="#000000" points="692,-177.5 692,-207.5 803,-207.5 803,-177.5 692,-177.5"/>
<text text-anchor="start" x="700" y="-195.5" font-family="Helvetica,sans-Serif" font-size="10.00" fill="#000000">org.cobbzilla.util.json.</text>
<text text-anchor="middle" x="747.5" y="-184.5" font-family="Helvetica,sans-Serif" font-size="10.00" fill="#000000">JsonUtil.toJson</text>
</a>
</g>
</g>
<!-- Node3&#45;&gt;Node4 -->
<g id="edge4" class="edge">
<title>Node3&#45;&gt;Node4</title>
<path fill="none" stroke="#191970" d="M653.6683,-192.5C662.8132,-192.5 672.3664,-192.5 681.729,-192.5"/>
<polygon fill="#191970" stroke="#191970" points="681.7853,-196.0001 691.7852,-192.5 681.7852,-189.0001 681.7853,-196.0001"/>
</g>
<!-- Node4&#45;&gt;Node4 -->
<g id="edge5" class="edge">
<title>Node4&#45;&gt;Node4</title>
<path fill="none" stroke="#191970" d="M721.7079,-207.659C715.4886,-217.0566 724.0859,-226 747.5,-226 761.7679,-226 770.5339,-222.679 773.7978,-217.9579"/>
<polygon fill="#191970" stroke="#191970" points="777.2784,-217.4753 773.2921,-207.659 770.2868,-217.8187 777.2784,-217.4753"/>
</g>
<!-- Node8 -->
<g id="node9" class="node">
<title>Node8</title>
<g id="a_node9"><a xlink:href="../../df/dac/classorg_1_1cobbzilla_1_1util_1_1io_1_1FileUtil_a10f84be9d8fbe17dad8bf91e5e68b699.html#a10f84be9d8fbe17dad8bf91e5e68b699" target="_top" xlink:title="org.cobbzilla.util.io.File\lUtil.getDefaultTempDir">
<polygon fill="none" stroke="#000000" points="379.5,-67.5 379.5,-97.5 496.5,-97.5 496.5,-67.5 379.5,-67.5"/>
<text text-anchor="start" x="387.5" y="-85.5" font-family="Helvetica,sans-Serif" font-size="10.00" fill="#000000">org.cobbzilla.util.io.File</text>
<text text-anchor="middle" x="438" y="-74.5" font-family="Helvetica,sans-Serif" font-size="10.00" fill="#000000">Util.getDefaultTempDir</text>
</a>
</g>
</g>
<!-- Node7&#45;&gt;Node8 -->
<g id="edge9" class="edge">
<title>Node7&#45;&gt;Node8</title>
<path fill="none" stroke="#191970" d="M336.2163,-74.2301C346.9566,-75.1027 358.264,-76.0214 369.2802,-76.9165"/>
<polygon fill="#191970" stroke="#191970" points="369.0399,-80.4084 379.2906,-77.7299 369.6069,-73.4314 369.0399,-80.4084"/>
</g>
<!-- Node10 -->
<g id="node11" class="node">
<title>Node10</title>
<g id="a_node11"><a xlink:href="../../df/dac/classorg_1_1cobbzilla_1_1util_1_1io_1_1FileUtil_a43aac0bb53ce0212efc2e57cb1024722.html#a43aac0bb53ce0212efc2e57cb1024722" target="_top" xlink:title="org.cobbzilla.util.io.File\lUtil.temp">
<polygon fill="none" stroke="#000000" points="380,-.5 380,-30.5 496,-30.5 496,-.5 380,-.5"/>
<text text-anchor="start" x="388" y="-18.5" font-family="Helvetica,sans-Serif" font-size="10.00" fill="#000000">org.cobbzilla.util.io.File</text>
<text text-anchor="middle" x="438" y="-7.5" font-family="Helvetica,sans-Serif" font-size="10.00" fill="#000000">Util.temp</text>
</a>
</g>
</g>
<!-- Node7&#45;&gt;Node10 -->
<g id="edge12" class="edge">
<title>Node7&#45;&gt;Node10</title>
<path fill="none" stroke="#191970" d="M322.5689,-54.458C341.5606,-48.0483 363.8908,-40.5119 383.8247,-33.7842"/>
<polygon fill="#191970" stroke="#191970" points="385.0372,-37.069 393.3929,-30.5549 382.7987,-30.4365 385.0372,-37.069"/>
</g>
<!-- Node9 -->
<g id="node10" class="node">
<title>Node9</title>
<g id="a_node10"><a xlink:href="../../df/dac/classorg_1_1cobbzilla_1_1util_1_1io_1_1FileUtil_a53028c20e45f972c04978ac736e5c39c.html#a53028c20e45f972c04978ac736e5c39c" target="_top" xlink:title="org.cobbzilla.util.io.File\lUtil.mkdirOrDie">
<polygon fill="none" stroke="#000000" points="540,-67.5 540,-97.5 656,-97.5 656,-67.5 540,-67.5"/>
<text text-anchor="start" x="548" y="-85.5" font-family="Helvetica,sans-Serif" font-size="10.00" fill="#000000">org.cobbzilla.util.io.File</text>
<text text-anchor="middle" x="598" y="-74.5" font-family="Helvetica,sans-Serif" font-size="10.00" fill="#000000">Util.mkdirOrDie</text>
</a>
</g>
</g>
<!-- Node8&#45;&gt;Node9 -->
<g id="edge10" class="edge">
<title>Node8&#45;&gt;Node9</title>
<path fill="none" stroke="#191970" d="M496.6696,-82.5C507.4585,-82.5 518.8057,-82.5 529.8452,-82.5"/>
<polygon fill="#191970" stroke="#191970" points="529.8722,-86.0001 539.8722,-82.5 529.8721,-79.0001 529.8722,-86.0001"/>
</g>
<!-- Node9&#45;&gt;Node9 -->
<g id="edge11" class="edge">
<title>Node9&#45;&gt;Node9</title>
<path fill="none" stroke="#191970" d="M572.2079,-97.659C565.9886,-107.0566 574.5859,-116 598,-116 612.2679,-116 621.0339,-112.679 624.2978,-107.9579"/>
<polygon fill="#191970" stroke="#191970" points="627.7784,-107.4753 623.7921,-97.659 620.7868,-107.8187 627.7784,-107.4753"/>
</g>
<!-- Node10&#45;&gt;Node10 -->
<g id="edge13" class="edge">
<title>Node10&#45;&gt;Node10</title>
<path fill="none" stroke="#191970" d="M410.1167,-30.659C403.3931,-40.0566 412.6875,-49 438,-49 453.4248,-49 462.9015,-45.679 466.4301,-40.9579"/>
<polygon fill="#191970" stroke="#191970" points="469.9086,-40.4594 465.8833,-30.659 462.9185,-40.8305 469.9086,-40.4594"/>
</g>
</g>
</svg>
