<?xml version="1.0" encoding="UTF-8" standalone="no"?>
<!DOCTYPE svg PUBLIC "-//W3C//DTD SVG 1.1//EN"
 "http://www.w3.org/Graphics/SVG/1.1/DTD/svg11.dtd">
<!-- Generated by graphviz version 2.40.1 (20161225.0304)
 -->
<!-- Title: org.cobbzilla.util.json.JsonUtilTest.testReplaceJsonValue Pages: 1 -->
<!--zoomable 234 -->
<svg id="main" version="1.1" xmlns="http://www.w3.org/2000/svg" xmlns:xlink="http://www.w3.org/1999/xlink" xml:space="preserve" onload="init(evt)">
<style type="text/css"><![CDATA[
.edge:hover path { stroke: red; }
.edge:hover polygon { stroke: red; fill: red; }
]]></style>
<script type="text/javascript"><![CDATA[
var edges = document.getElementsByTagName('g');
if (edges && edges.length) {
  for (var i=0;i<edges.length;i++) {
    if (edges[i].id.substr(0,4)=='edge') {
      edges[i].setAttribute('class','edge');
    }
  }
}
]]></script>
        <defs>
                <circle id="rim" cx="0" cy="0" r="7"/>
                <circle id="rim2" cx="0" cy="0" r="3.5"/>
                <g id="zoomPlus">
                        <use xlink:href="#rim" fill="#404040">
                                <set attributeName="fill" to="#808080" begin="zoomplus.mouseover" end="zoomplus.mouseout"/>
                        </use>
                        <path d="M-4,0h8M0,-4v8" fill="none" stroke="white" stroke-width="1.5" pointer-events="none"/>
                </g>
                <g id="zoomMin">
                        <use xlink:href="#rim" fill="#404040">
                                <set attributeName="fill" to="#808080" begin="zoomminus.mouseover" end="zoomminus.mouseout"/>
                        </use>
                        <path d="M-4,0h8" fill="none" stroke="white" stroke-width="1.5" pointer-events="none"/>
                </g>
                <g id="dirArrow">
                        <path fill="none" stroke="white" stroke-width="1.5" d="M0,-3.0v7 M-2.5,-0.5L0,-3.0L2.5,-0.5"/>
                </g>
               <g id="resetDef">
                       <use xlink:href="#rim2" fill="#404040">
                               <set attributeName="fill" to="#808080" begin="reset.mouseover" end="reset.mouseout"/>
                       </use>
               </g>
        </defs>

<script type="text/javascript">
var viewWidth = 1020;
var viewHeight = 234;
var sectionId = 'dynsection-0';
</script>
<script xlink:href="../../svgpan.js"/>
<svg id="graph" class="graph">
<g id="viewport">
<title>org.cobbzilla.util.json.JsonUtilTest.testReplaceJsonValue</title>
<!-- Node0 -->
<g id="node1" class="node">
<title>Node0</title>
<polygon fill="#bfbfbf" stroke="#000000" points="0,-78.5 0,-108.5 173,-108.5 173,-78.5 0,-78.5"/>
<text text-anchor="start" x="8" y="-96.5" font-family="Helvetica,sans-Serif" font-size="10.00" fill="#000000">org.cobbzilla.util.json.</text>
<text text-anchor="middle" x="86.5" y="-85.5" font-family="Helvetica,sans-Serif" font-size="10.00" fill="#000000">JsonUtilTest.testReplaceJsonValue</text>
</g>
<!-- Node1 -->
<g id="node2" class="node">
<title>Node1</title>
<g id="a_node2"><a xlink:href="../../d9/d3d/classorg_1_1cobbzilla_1_1util_1_1json_1_1JsonUtilTest_a239642f3764a1c94c594d22e2629b3c1.html#a239642f3764a1c94c594d22e2629b3c1" target="_top" xlink:title="org.cobbzilla.util.json.\lJsonUtilTest.assertReplacementMade">
<polygon fill="none" stroke="#000000" points="209,-103.5 209,-133.5 393,-133.5 393,-103.5 209,-103.5"/>
<text text-anchor="start" x="217" y="-121.5" font-family="Helvetica,sans-Serif" font-size="10.00" fill="#000000">org.cobbzilla.util.json.</text>
<text text-anchor="middle" x="301" y="-110.5" font-family="Helvetica,sans-Serif" font-size="10.00" fill="#000000">JsonUtilTest.assertReplacementMade</text>
</a>
</g>
</g>
<!-- Node0&#45;&gt;Node1 -->
<g id="edge1" class="edge">
<title>Node0&#45;&gt;Node1</title>
<path fill="none" stroke="#191970" d="M173.1271,-103.5964C181.5677,-104.5802 190.1855,-105.5846 198.7605,-106.584"/>
<polygon fill="#191970" stroke="#191970" points="198.4559,-110.0721 208.7939,-107.7534 199.2664,-103.1192 198.4559,-110.0721"/>
</g>
<!-- Node12 -->
<g id="node13" class="node">
<title>Node12</title>
<g id="a_node13"><a xlink:href="../../dc/d81/classorg_1_1cobbzilla_1_1util_1_1io_1_1StreamUtil_a09bfc80b03407b81fa60047418590599.html#a09bfc80b03407b81fa60047418590599" target="_top" xlink:title="org.cobbzilla.util.io.Stream\lUtil.loadResourceAsString">
<polygon fill="none" stroke="#000000" points="235,-54.5 235,-84.5 367,-84.5 367,-54.5 235,-54.5"/>
<text text-anchor="start" x="243" y="-72.5" font-family="Helvetica,sans-Serif" font-size="10.00" fill="#000000">org.cobbzilla.util.io.Stream</text>
<text text-anchor="middle" x="301" y="-61.5" font-family="Helvetica,sans-Serif" font-size="10.00" fill="#000000">Util.loadResourceAsString</text>
</a>
</g>
</g>
<!-- Node0&#45;&gt;Node12 -->
<g id="edge15" class="edge">
<title>Node0&#45;&gt;Node12</title>
<path fill="none" stroke="#191970" d="M173.1271,-83.8075C190.1701,-81.9005 207.9352,-79.9128 224.612,-78.0469"/>
<polygon fill="#191970" stroke="#191970" points="225.2902,-81.493 234.8389,-76.9026 224.5117,-74.5364 225.2902,-81.493"/>
</g>
<!-- Node2 -->
<g id="node3" class="node">
<title>Node2</title>
<g id="a_node3"><a xlink:href="../../dc/d2c/classorg_1_1cobbzilla_1_1util_1_1json_1_1JsonUtil_a012540ca836ef7dea8ae971437fb82c7.html#a012540ca836ef7dea8ae971437fb82c7" target="_top" xlink:title="org.cobbzilla.util.json.\lJsonUtil.fromJson">
<polygon fill="none" stroke="#000000" points="431.5,-152.5 431.5,-182.5 542.5,-182.5 542.5,-152.5 431.5,-152.5"/>
<text text-anchor="start" x="439.5" y="-170.5" font-family="Helvetica,sans-Serif" font-size="10.00" fill="#000000">org.cobbzilla.util.json.</text>
<text text-anchor="middle" x="487" y="-159.5" font-family="Helvetica,sans-Serif" font-size="10.00" fill="#000000">JsonUtil.fromJson</text>
</a>
</g>
</g>
<!-- Node1&#45;&gt;Node2 -->
<g id="edge2" class="edge">
<title>Node1&#45;&gt;Node2</title>
<path fill="none" stroke="#191970" d="M358.0702,-133.5346C378.1672,-138.829 400.9095,-144.8202 421.6371,-150.2807"/>
<polygon fill="#191970" stroke="#191970" points="420.7532,-153.6672 431.315,-152.8303 422.5365,-146.8982 420.7532,-153.6672"/>
</g>
<!-- Node7 -->
<g id="node8" class="node">
<title>Node7</title>
<g id="a_node8"><a xlink:href="../../dc/d2c/classorg_1_1cobbzilla_1_1util_1_1json_1_1JsonUtil_a4a60f61bb58c1e072a7e2ce5e5b43c46.html#a4a60f61bb58c1e072a7e2ce5e5b43c46" target="_top" xlink:title="org.cobbzilla.util.json.\lJsonUtil.replaceNode">
<polygon fill="none" stroke="#000000" points="431.5,-103.5 431.5,-133.5 542.5,-133.5 542.5,-103.5 431.5,-103.5"/>
<text text-anchor="start" x="439.5" y="-121.5" font-family="Helvetica,sans-Serif" font-size="10.00" fill="#000000">org.cobbzilla.util.json.</text>
<text text-anchor="middle" x="487" y="-110.5" font-family="Helvetica,sans-Serif" font-size="10.00" fill="#000000">JsonUtil.replaceNode</text>
</a>
</g>
</g>
<!-- Node1&#45;&gt;Node7 -->
<g id="edge8" class="edge">
<title>Node1&#45;&gt;Node7</title>
<path fill="none" stroke="#191970" d="M393.1826,-118.5C402.6737,-118.5 412.1761,-118.5 421.2944,-118.5"/>
<polygon fill="#191970" stroke="#191970" points="421.405,-122.0001 431.405,-118.5 421.405,-115.0001 421.405,-122.0001"/>
</g>
<!-- Node8 -->
<g id="node9" class="node">
<title>Node8</title>
<g id="a_node9"><a xlink:href="../../df/dac/classorg_1_1cobbzilla_1_1util_1_1io_1_1FileUtil_a7bd7d6a564be7a6169daa8eb5b33e9b7.html#a7bd7d6a564be7a6169daa8eb5b33e9b7" target="_top" xlink:title="org.cobbzilla.util.io.File\lUtil.toFile">
<polygon fill="none" stroke="#000000" points="429,-54.5 429,-84.5 545,-84.5 545,-54.5 429,-54.5"/>
<text text-anchor="start" x="437" y="-72.5" font-family="Helvetica,sans-Serif" font-size="10.00" fill="#000000">org.cobbzilla.util.io.File</text>
<text text-anchor="middle" x="487" y="-61.5" font-family="Helvetica,sans-Serif" font-size="10.00" fill="#000000">Util.toFile</text>
</a>
</g>
</g>
<!-- Node1&#45;&gt;Node8 -->
<g id="edge9" class="edge">
<title>Node1&#45;&gt;Node8</title>
<path fill="none" stroke="#191970" d="M358.9216,-103.4348C370.2258,-100.482 381.986,-97.4012 393,-94.5 401.8742,-92.1624 411.2167,-89.6907 420.4287,-87.2472"/>
<polygon fill="#191970" stroke="#191970" points="421.5782,-90.5633 430.3452,-84.6144 419.7819,-83.7977 421.5782,-90.5633"/>
</g>
<!-- Node3 -->
<g id="node4" class="node">
<title>Node3</title>
<g id="a_node4"><a xlink:href="../../dc/d2c/classorg_1_1cobbzilla_1_1util_1_1json_1_1JsonUtil_a4181f7525f80c694d58881fca5fe097f.html#a4181f7525f80c694d58881fca5fe097f" target="_top" xlink:title="org.cobbzilla.util.json.\lJsonUtil.json">
<polygon fill="none" stroke="#000000" points="591.5,-177.5 591.5,-207.5 702.5,-207.5 702.5,-177.5 591.5,-177.5"/>
<text text-anchor="start" x="599.5" y="-195.5" font-family="Helvetica,sans-Serif" font-size="10.00" fill="#000000">org.cobbzilla.util.json.</text>
<text text-anchor="middle" x="647" y="-184.5" font-family="Helvetica,sans-Serif" font-size="10.00" fill="#000000">JsonUtil.json</text>
</a>
</g>
</g>
<!-- Node2&#45;&gt;Node3 -->
<g id="edge3" class="edge">
<title>Node2&#45;&gt;Node3</title>
<path fill="none" stroke="#191970" d="M542.5112,-176.1736C554.9745,-178.121 568.3154,-180.2055 581.1539,-182.2115"/>
<polygon fill="#191970" stroke="#191970" points="580.8956,-185.7136 591.3161,-183.7994 581.9763,-178.7975 580.8956,-185.7136"/>
</g>
<!-- Node6 -->
<g id="node7" class="node">
<title>Node6</title>
<g id="a_node7"><a xlink:href="../../dc/d81/classorg_1_1cobbzilla_1_1util_1_1io_1_1StreamUtil_a242c4cb3ac88a027891f05b372294875.html#a242c4cb3ac88a027891f05b372294875" target="_top" xlink:title="org.cobbzilla.util.io.Stream\lUtil.toString">
<polygon fill="none" stroke="#000000" points="581,-128.5 581,-158.5 713,-158.5 713,-128.5 581,-128.5"/>
<text text-anchor="start" x="589" y="-146.5" font-family="Helvetica,sans-Serif" font-size="10.00" fill="#000000">org.cobbzilla.util.io.Stream</text>
<text text-anchor="middle" x="647" y="-135.5" font-family="Helvetica,sans-Serif" font-size="10.00" fill="#000000">Util.toString</text>
</a>
</g>
</g>
<!-- Node2&#45;&gt;Node6 -->
<g id="edge7" class="edge">
<title>Node2&#45;&gt;Node6</title>
<path fill="none" stroke="#191970" d="M542.5112,-159.1733C551.6886,-157.7967 561.3417,-156.3487 570.9198,-154.912"/>
<polygon fill="#191970" stroke="#191970" points="571.4808,-158.3671 580.8509,-153.4224 570.4423,-151.4446 571.4808,-158.3671"/>
</g>
<!-- Node4 -->
<g id="node5" class="node">
<title>Node4</title>
<g id="a_node5"><a xlink:href="../../dc/d2c/classorg_1_1cobbzilla_1_1util_1_1json_1_1JsonUtil_ae4b0ddbe1c463c41b05503ea67eb8f10.html#ae4b0ddbe1c463c41b05503ea67eb8f10" target="_top" xlink:title="org.cobbzilla.util.json.\lJsonUtil.toJsonOrDie">
<polygon fill="none" stroke="#000000" points="751.5,-177.5 751.5,-207.5 862.5,-207.5 862.5,-177.5 751.5,-177.5"/>
<text text-anchor="start" x="759.5" y="-195.5" font-family="Helvetica,sans-Serif" font-size="10.00" fill="#000000">org.cobbzilla.util.json.</text>
<text text-anchor="middle" x="807" y="-184.5" font-family="Helvetica,sans-Serif" font-size="10.00" fill="#000000">JsonUtil.toJsonOrDie</text>
</a>
</g>
</g>
<!-- Node3&#45;&gt;Node4 -->
<g id="edge4" class="edge">
<title>Node3&#45;&gt;Node4</title>
<path fill="none" stroke="#191970" d="M702.5112,-192.5C714.9745,-192.5 728.3154,-192.5 741.1539,-192.5"/>
<polygon fill="#191970" stroke="#191970" points="741.3161,-196.0001 751.3161,-192.5 741.3161,-189.0001 741.3161,-196.0001"/>
</g>
<!-- Node5 -->
<g id="node6" class="node">
<title>Node5</title>
<g id="a_node6"><a xlink:href="../../dc/d2c/classorg_1_1cobbzilla_1_1util_1_1json_1_1JsonUtil_aa10cd1ef91d278b645230ab79181d51e.html#aa10cd1ef91d278b645230ab79181d51e" target="_top" xlink:title="org.cobbzilla.util.json.\lJsonUtil.toJson">
<polygon fill="none" stroke="#000000" points="901,-177.5 901,-207.5 1012,-207.5 1012,-177.5 901,-177.5"/>
<text text-anchor="start" x="909" y="-195.5" font-family="Helvetica,sans-Serif" font-size="10.00" fill="#000000">org.cobbzilla.util.json.</text>
<text text-anchor="middle" x="956.5" y="-184.5" font-family="Helvetica,sans-Serif" font-size="10.00" fill="#000000">JsonUtil.toJson</text>
</a>
</g>
</g>
<!-- Node4&#45;&gt;Node5 -->
<g id="edge5" class="edge">
<title>Node4&#45;&gt;Node5</title>
<path fill="none" stroke="#191970" d="M862.6683,-192.5C871.8132,-192.5 881.3664,-192.5 890.729,-192.5"/>
<polygon fill="#191970" stroke="#191970" points="890.7853,-196.0001 900.7852,-192.5 890.7852,-189.0001 890.7853,-196.0001"/>
</g>
<!-- Node5&#45;&gt;Node5 -->
<g id="edge6" class="edge">
<title>Node5&#45;&gt;Node5</title>
<path fill="none" stroke="#191970" d="M930.7079,-207.659C924.4886,-217.0566 933.0859,-226 956.5,-226 970.7679,-226 979.5339,-222.679 982.7978,-217.9579"/>
<polygon fill="#191970" stroke="#191970" points="986.2784,-217.4753 982.2921,-207.659 979.2868,-217.8187 986.2784,-217.4753"/>
</g>
<!-- Node9 -->
<g id="node10" class="node">
<title>Node9</title>
<g id="a_node10"><a xlink:href="../../df/dac/classorg_1_1cobbzilla_1_1util_1_1io_1_1FileUtil_a10f84be9d8fbe17dad8bf91e5e68b699.html#a10f84be9d8fbe17dad8bf91e5e68b699" target="_top" xlink:title="org.cobbzilla.util.io.File\lUtil.getDefaultTempDir">
<polygon fill="none" stroke="#000000" points="588.5,-67.5 588.5,-97.5 705.5,-97.5 705.5,-67.5 588.5,-67.5"/>
<text text-anchor="start" x="596.5" y="-85.5" font-family="Helvetica,sans-Serif" font-size="10.00" fill="#000000">org.cobbzilla.util.io.File</text>
<text text-anchor="middle" x="647" y="-74.5" font-family="Helvetica,sans-Serif" font-size="10.00" fill="#000000">Util.getDefaultTempDir</text>
</a>
</g>
</g>
<!-- Node8&#45;&gt;Node9 -->
<g id="edge10" class="edge">
<title>Node8&#45;&gt;Node9</title>
<path fill="none" stroke="#191970" d="M545.2163,-74.2301C555.9566,-75.1027 567.264,-76.0214 578.2802,-76.9165"/>
<polygon fill="#191970" stroke="#191970" points="578.0399,-80.4084 588.2906,-77.7299 578.6069,-73.4314 578.0399,-80.4084"/>
</g>
<!-- Node11 -->
<g id="node12" class="node">
<title>Node11</title>
<g id="a_node12"><a xlink:href="../../df/dac/classorg_1_1cobbzilla_1_1util_1_1io_1_1FileUtil_a43aac0bb53ce0212efc2e57cb1024722.html#a43aac0bb53ce0212efc2e57cb1024722" target="_top" xlink:title="org.cobbzilla.util.io.File\lUtil.temp">
<polygon fill="none" stroke="#000000" points="589,-.5 589,-30.5 705,-30.5 705,-.5 589,-.5"/>
<text text-anchor="start" x="597" y="-18.5" font-family="Helvetica,sans-Serif" font-size="10.00" fill="#000000">org.cobbzilla.util.io.File</text>
<text text-anchor="middle" x="647" y="-7.5" font-family="Helvetica,sans-Serif" font-size="10.00" fill="#000000">Util.temp</text>
</a>
</g>
</g>
<!-- Node8&#45;&gt;Node11 -->
<g id="edge13" class="edge">
<title>Node8&#45;&gt;Node11</title>
<path fill="none" stroke="#191970" d="M531.5689,-54.458C550.5606,-48.0483 572.8908,-40.5119 592.8247,-33.7842"/>
<polygon fill="#191970" stroke="#191970" points="594.0372,-37.069 602.3929,-30.5549 591.7987,-30.4365 594.0372,-37.069"/>
</g>
<!-- Node10 -->
<g id="node11" class="node">
<title>Node10</title>
<g id="a_node11"><a xlink:href="../../df/dac/classorg_1_1cobbzilla_1_1util_1_1io_1_1FileUtil_a53028c20e45f972c04978ac736e5c39c.html#a53028c20e45f972c04978ac736e5c39c" target="_top" xlink:title="org.cobbzilla.util.io.File\lUtil.mkdirOrDie">
<polygon fill="none" stroke="#000000" points="749,-67.5 749,-97.5 865,-97.5 865,-67.5 749,-67.5"/>
<text text-anchor="start" x="757" y="-85.5" font-family="Helvetica,sans-Serif" font-size="10.00" fill="#000000">org.cobbzilla.util.io.File</text>
<text text-anchor="middle" x="807" y="-74.5" font-family="Helvetica,sans-Serif" font-size="10.00" fill="#000000">Util.mkdirOrDie</text>
</a>
</g>
</g>
<!-- Node9&#45;&gt;Node10 -->
<g id="edge11" class="edge">
<title>Node9&#45;&gt;Node10</title>
<path fill="none" stroke="#191970" d="M705.6696,-82.5C716.4585,-82.5 727.8057,-82.5 738.8452,-82.5"/>
<polygon fill="#191970" stroke="#191970" points="738.8722,-86.0001 748.8722,-82.5 738.8721,-79.0001 738.8722,-86.0001"/>
</g>
<!-- Node10&#45;&gt;Node10 -->
<g id="edge12" class="edge">
<title>Node10&#45;&gt;Node10</title>
<path fill="none" stroke="#191970" d="M781.2079,-97.659C774.9886,-107.0566 783.5859,-116 807,-116 821.2679,-116 830.0339,-112.679 833.2978,-107.9579"/>
<polygon fill="#191970" stroke="#191970" points="836.7784,-107.4753 832.7921,-97.659 829.7868,-107.8187 836.7784,-107.4753"/>
</g>
<!-- Node11&#45;&gt;Node11 -->
<g id="edge14" class="edge">
<title>Node11&#45;&gt;Node11</title>
<path fill="none" stroke="#191970" d="M619.1167,-30.659C612.3931,-40.0566 621.6875,-49 647,-49 662.4248,-49 671.9015,-45.679 675.4301,-40.9579"/>
<polygon fill="#191970" stroke="#191970" points="678.9086,-40.4594 674.8833,-30.659 671.9185,-40.8305 678.9086,-40.4594"/>
</g>
</g>
</svg>
        <g id="navigator" transform="translate(0 0)" fill="#404254">
                <rect fill="#f2f5e9" fill-opacity="0.5" stroke="#606060" stroke-width=".5" x="0" y="0" width="60" height="60"/>
                <use id="zoomplus" xlink:href="#zoomPlus" x="17" y="9" onmousedown="handleZoom(evt,'in')"/>
                <use id="zoomminus" xlink:href="#zoomMin" x="42" y="9" onmousedown="handleZoom(evt,'out')"/>
                <use id="reset" xlink:href="#resetDef" x="30" y="36" onmousedown="handleReset()"/>
                <g id="arrowUp" xlink:href="#dirArrow" transform="translate(30 24)" onmousedown="handlePan(0,-1)">
                  <use xlink:href="#rim" fill="#404040">
                        <set attributeName="fill" to="#808080" begin="arrowUp.mouseover" end="arrowUp.mouseout"/>
                  </use>
                  <path fill="none" stroke="white" stroke-width="1.5" d="M0,-3.0v7 M-2.5,-0.5L0,-3.0L2.5,-0.5"/>
                </g>
                <g id="arrowRight" xlink:href="#dirArrow" transform="rotate(90) translate(36 -43)" onmousedown="handlePan(1,0)">
                  <use xlink:href="#rim" fill="#404040">
                        <set attributeName="fill" to="#808080" begin="arrowRight.mouseover" end="arrowRight.mouseout"/>
                  </use>
                  <path fill="none" stroke="white" stroke-width="1.5" d="M0,-3.0v7 M-2.5,-0.5L0,-3.0L2.5,-0.5"/>
                </g>
                <g id="arrowDown" xlink:href="#dirArrow" transform="rotate(180) translate(-30 -48)" onmousedown="handlePan(0,1)">
                  <use xlink:href="#rim" fill="#404040">
                        <set attributeName="fill" to="#808080" begin="arrowDown.mouseover" end="arrowDown.mouseout"/>
                  </use>
                  <path fill="none" stroke="white" stroke-width="1.5" d="M0,-3.0v7 M-2.5,-0.5L0,-3.0L2.5,-0.5"/>
                </g>
                <g id="arrowLeft" xlink:href="#dirArrow" transform="rotate(270) translate(-36 17)" onmousedown="handlePan(-1,0)">
                  <use xlink:href="#rim" fill="#404040">
                        <set attributeName="fill" to="#808080" begin="arrowLeft.mouseover" end="arrowLeft.mouseout"/>
                  </use>
                  <path fill="none" stroke="white" stroke-width="1.5" d="M0,-3.0v7 M-2.5,-0.5L0,-3.0L2.5,-0.5"/>
                </g>
        </g>
        <svg viewBox="0 0 15 15" width="100%" height="30px" preserveAspectRatio="xMaxYMin meet">
         <g id="arrow_out" transform="scale(0.3 0.3)">
          <a xlink:href="classorg_1_1cobbzilla_1_1util_1_1json_1_1JsonUtilTest_ab9eb80bbec6ad8d6ed24e56482d513f4_ab9eb80bbec6ad8d6ed24e56482d513f4_cgraph_org.svg" target="_base">
           <rect id="button" ry="5" rx="5" y="6" x="6" height="38" width="38"
                fill="#f2f5e9" fill-opacity="0.5" stroke="#606060" stroke-width="1.0"/>
           <path id="arrow"
             d="M 11.500037,31.436501 C 11.940474,20.09759 22.043105,11.32322 32.158766,21.979434 L 37.068811,17.246167 C 37.068811,17.246167 37.088388,32 37.088388,32 L 22.160133,31.978069 C 22.160133,31.978069 26.997745,27.140456 26.997745,27.140456 C 18.528582,18.264221 13.291696,25.230495 11.500037,31.436501 z"
             style="fill:#404040;"/>
          </a>
         </g>
        </svg>
</svg>
