<?xml version="1.0" encoding="UTF-8" standalone="no"?>
<!DOCTYPE svg PUBLIC "-//W3C//DTD SVG 1.1//EN"
 "http://www.w3.org/Graphics/SVG/1.1/DTD/svg11.dtd">
<!-- Generated by graphviz version 2.40.1 (20161225.0304)
 -->
<!-- Title: org.cobbzilla.util.time.DefaultTimezone Pages: 1 -->
<svg width="136pt" height="182pt"
 viewBox="0.00 0.00 136.00 182.00" xmlns="http://www.w3.org/2000/svg" xmlns:xlink="http://www.w3.org/1999/xlink">
<g id="graph0" class="graph" transform="scale(1 1) rotate(0) translate(4 178)">
<title>org.cobbzilla.util.time.DefaultTimezone</title>
<!-- Node1 -->
<g id="node1" class="node">
<title>Node1</title>
<polygon fill="#bfbfbf" stroke="#000000" points="0,-.5 0,-68.5 128,-68.5 128,-.5 0,-.5"/>
<text text-anchor="start" x="8" y="-56.5" font-family="Helvetica,sans-Serif" font-size="10.00" fill="#000000">org.cobbzilla.util.time.</text>
<text text-anchor="middle" x="64" y="-45.5" font-family="Helvetica,sans-Serif" font-size="10.00" fill="#000000">DefaultTimezone</text>
<polyline fill="none" stroke="#000000" points="0,-38.5 128,-38.5 "/>
<text text-anchor="start" x="8" y="-26.5" font-family="Helvetica,sans-Serif" font-size="10.00" fill="#000000">+ DEFAULT_TIMEZONE</text>
<polyline fill="none" stroke="#000000" points="0,-19.5 128,-19.5 "/>
<text text-anchor="start" x="8" y="-7.5" font-family="Helvetica,sans-Serif" font-size="10.00" fill="#000000">&#45; initTimeZone()</text>
</g>
<!-- Node2 -->
<g id="node2" class="node">
<title>Node2</title>
<polygon fill="none" stroke="#bfbfbf" points="23.5,-116.5 23.5,-173.5 104.5,-173.5 104.5,-116.5 23.5,-116.5"/>
<text text-anchor="middle" x="64" y="-161.5" font-family="Helvetica,sans-Serif" font-size="10.00" fill="#000000">DateTimeZone</text>
<polyline fill="none" stroke="#bfbfbf" points="23.5,-154.5 104.5,-154.5 "/>
<text text-anchor="middle" x="64" y="-142.5" font-family="Helvetica,sans-Serif" font-size="10.00" fill="#000000"> </text>
<polyline fill="none" stroke="#bfbfbf" points="23.5,-135.5 104.5,-135.5 "/>
<text text-anchor="middle" x="64" y="-123.5" font-family="Helvetica,sans-Serif" font-size="10.00" fill="#000000"> </text>
</g>
<!-- Node2&#45;&gt;Node1 -->
<g id="edge1" class="edge">
<title>Node2&#45;&gt;Node1</title>
<path fill="none" stroke="#404040" d="M64,-116.2559C64,-105.4349 64,-92.8362 64,-80.8169"/>
<polygon fill="none" stroke="#404040" points="64.0001,-80.6001 60,-74.6001 64,-68.6001 68,-74.6 64.0001,-80.6001"/>
<text text-anchor="middle" x="78" y="-90" font-family="Helvetica,sans-Serif" font-size="10.00" fill="#000000"> &#45;zone</text>
</g>
</g>
</svg>
