<?xml version="1.0" encoding="UTF-8" standalone="no"?>
<!DOCTYPE svg PUBLIC "-//W3C//DTD SVG 1.1//EN"
 "http://www.w3.org/Graphics/SVG/1.1/DTD/svg11.dtd">
<!-- Generated by graphviz version 2.40.1 (20161225.0304)
 -->
<!-- Title: org.cobbzilla.util.collection.mappy.MappyConcurrentSortedSet&lt; K, V &gt; Pages: 1 -->
<svg width="363pt" height="860pt"
 viewBox="0.00 0.00 362.50 860.00" xmlns="http://www.w3.org/2000/svg" xmlns:xlink="http://www.w3.org/1999/xlink">
<g id="graph0" class="graph" transform="scale(1 1) rotate(0) translate(4 856)">
<title>org.cobbzilla.util.collection.mappy.MappyConcurrentSortedSet&lt; K, V &gt;</title>
<!-- Node4 -->
<g id="node1" class="node">
<title>Node4</title>
<polygon fill="#bfbfbf" stroke="#000000" points="110.5,-.5 110.5,-90.5 285.5,-90.5 285.5,-.5 110.5,-.5"/>
<text text-anchor="start" x="118.5" y="-78.5" font-family="Helvetica,sans-Serif" font-size="10.00" fill="#000000">org.cobbzilla.util.collection.mappy.</text>
<text text-anchor="middle" x="198" y="-67.5" font-family="Helvetica,sans-Serif" font-size="10.00" fill="#000000">MappyConcurrentSortedSet&lt; K, V &gt;</text>
<polyline fill="none" stroke="#000000" points="110.5,-60.5 285.5,-60.5 "/>
<text text-anchor="middle" x="198" y="-48.5" font-family="Helvetica,sans-Serif" font-size="10.00" fill="#000000"> </text>
<polyline fill="none" stroke="#000000" points="110.5,-41.5 285.5,-41.5 "/>
<text text-anchor="start" x="118.5" y="-29.5" font-family="Helvetica,sans-Serif" font-size="10.00" fill="#000000">+ MappyConcurrentSortedSet()</text>
<text text-anchor="start" x="118.5" y="-18.5" font-family="Helvetica,sans-Serif" font-size="10.00" fill="#000000"># newCollection()</text>
<text text-anchor="start" x="118.5" y="-7.5" font-family="Helvetica,sans-Serif" font-size="10.00" fill="#000000"># firstInCollection()</text>
</g>
<!-- Node5 -->
<g id="node2" class="node">
<title>Node5</title>
<g id="a_node2"><a xlink:href="../../d0/d68/classorg_1_1cobbzilla_1_1util_1_1collection_1_1mappy_1_1Mappy.html" target="_top" xlink:title="{org.cobbzilla.util.collection.mappy.\lMappy\&lt; K, V, ConcurrentSkipListSet\&lt; V \&gt; \&gt;\n|&#45; map\l&#45; valueClass\l|+ Mappy()\l+ Mappy()\l+ Mappy()\l+ size()\l+ totalSize()\l+ isEmpty()\l+ containsKey()\l+ containsValue()\l+ get()\l+ getAll()\land 16 more...\l# newCollection()\l# firstInCollection()\l&#45; initValueClass()\l}">
<polygon fill="none" stroke="#000000" points="0,-138.5 0,-360.5 212,-360.5 212,-138.5 0,-138.5"/>
<text text-anchor="start" x="8" y="-348.5" font-family="Helvetica,sans-Serif" font-size="10.00" fill="#000000">org.cobbzilla.util.collection.mappy.</text>
<text text-anchor="middle" x="106" y="-337.5" font-family="Helvetica,sans-Serif" font-size="10.00" fill="#000000">Mappy&lt; K, V, ConcurrentSkipListSet&lt; V &gt; &gt;</text>
<polyline fill="none" stroke="#000000" points="0,-330.5 212,-330.5 "/>
<text text-anchor="start" x="8" y="-318.5" font-family="Helvetica,sans-Serif" font-size="10.00" fill="#000000">&#45; map</text>
<text text-anchor="start" x="8" y="-307.5" font-family="Helvetica,sans-Serif" font-size="10.00" fill="#000000">&#45; valueClass</text>
<polyline fill="none" stroke="#000000" points="0,-300.5 212,-300.5 "/>
<text text-anchor="start" x="8" y="-288.5" font-family="Helvetica,sans-Serif" font-size="10.00" fill="#000000">+ Mappy()</text>
<text text-anchor="start" x="8" y="-277.5" font-family="Helvetica,sans-Serif" font-size="10.00" fill="#000000">+ Mappy()</text>
<text text-anchor="start" x="8" y="-266.5" font-family="Helvetica,sans-Serif" font-size="10.00" fill="#000000">+ Mappy()</text>
<text text-anchor="start" x="8" y="-255.5" font-family="Helvetica,sans-Serif" font-size="10.00" fill="#000000">+ size()</text>
<text text-anchor="start" x="8" y="-244.5" font-family="Helvetica,sans-Serif" font-size="10.00" fill="#000000">+ totalSize()</text>
<text text-anchor="start" x="8" y="-233.5" font-family="Helvetica,sans-Serif" font-size="10.00" fill="#000000">+ isEmpty()</text>
<text text-anchor="start" x="8" y="-222.5" font-family="Helvetica,sans-Serif" font-size="10.00" fill="#000000">+ containsKey()</text>
<text text-anchor="start" x="8" y="-211.5" font-family="Helvetica,sans-Serif" font-size="10.00" fill="#000000">+ containsValue()</text>
<text text-anchor="start" x="8" y="-200.5" font-family="Helvetica,sans-Serif" font-size="10.00" fill="#000000">+ get()</text>
<text text-anchor="start" x="8" y="-189.5" font-family="Helvetica,sans-Serif" font-size="10.00" fill="#000000">+ getAll()</text>
<text text-anchor="start" x="8" y="-178.5" font-family="Helvetica,sans-Serif" font-size="10.00" fill="#000000">and 16 more...</text>
<text text-anchor="start" x="8" y="-167.5" font-family="Helvetica,sans-Serif" font-size="10.00" fill="#000000"># newCollection()</text>
<text text-anchor="start" x="8" y="-156.5" font-family="Helvetica,sans-Serif" font-size="10.00" fill="#000000"># firstInCollection()</text>
<text text-anchor="start" x="8" y="-145.5" font-family="Helvetica,sans-Serif" font-size="10.00" fill="#000000">&#45; initValueClass()</text>
</a>
</g>
</g>
<!-- Node5&#45;&gt;Node4 -->
<g id="edge1" class="edge">
<title>Node5&#45;&gt;Node4</title>
<path fill="none" stroke="#191970" d="M160.4084,-128.8552C166.4879,-115.3747 172.3645,-102.3439 177.5938,-90.7485"/>
<polygon fill="none" stroke="#191970" points="157.0932,-127.6929 156.1726,-138.2476 163.4743,-130.5707 157.0932,-127.6929"/>
</g>
<!-- Node6 -->
<g id="node3" class="node">
<title>Node6</title>
<g id="a_node3"><a xlink:href="../../d0/d68/classorg_1_1cobbzilla_1_1util_1_1collection_1_1mappy_1_1Mappy.html" target="_top" xlink:title="Mappy is a map of keys to collections of values. ">
<polygon fill="none" stroke="#000000" points="7.5,-419.5 7.5,-630.5 204.5,-630.5 204.5,-419.5 7.5,-419.5"/>
<text text-anchor="start" x="15.5" y="-618.5" font-family="Helvetica,sans-Serif" font-size="10.00" fill="#000000">org.cobbzilla.util.collection.mappy.</text>
<text text-anchor="middle" x="106" y="-607.5" font-family="Helvetica,sans-Serif" font-size="10.00" fill="#000000">Mappy&lt; K, V, C extends Collection&lt; V &gt;</text>
<polyline fill="none" stroke="#000000" points="7.5,-600.5 204.5,-600.5 "/>
<text text-anchor="start" x="15.5" y="-588.5" font-family="Helvetica,sans-Serif" font-size="10.00" fill="#000000">&#45; valueClass</text>
<polyline fill="none" stroke="#000000" points="7.5,-581.5 204.5,-581.5 "/>
<text text-anchor="start" x="15.5" y="-569.5" font-family="Helvetica,sans-Serif" font-size="10.00" fill="#000000">+ Mappy()</text>
<text text-anchor="start" x="15.5" y="-558.5" font-family="Helvetica,sans-Serif" font-size="10.00" fill="#000000">+ Mappy()</text>
<text text-anchor="start" x="15.5" y="-547.5" font-family="Helvetica,sans-Serif" font-size="10.00" fill="#000000">+ Mappy()</text>
<text text-anchor="start" x="15.5" y="-536.5" font-family="Helvetica,sans-Serif" font-size="10.00" fill="#000000">+ size()</text>
<text text-anchor="start" x="15.5" y="-525.5" font-family="Helvetica,sans-Serif" font-size="10.00" fill="#000000">+ totalSize()</text>
<text text-anchor="start" x="15.5" y="-514.5" font-family="Helvetica,sans-Serif" font-size="10.00" fill="#000000">+ isEmpty()</text>
<text text-anchor="start" x="15.5" y="-503.5" font-family="Helvetica,sans-Serif" font-size="10.00" fill="#000000">+ containsKey()</text>
<text text-anchor="start" x="15.5" y="-492.5" font-family="Helvetica,sans-Serif" font-size="10.00" fill="#000000">+ containsValue()</text>
<text text-anchor="start" x="15.5" y="-481.5" font-family="Helvetica,sans-Serif" font-size="10.00" fill="#000000">+ get()</text>
<text text-anchor="start" x="15.5" y="-470.5" font-family="Helvetica,sans-Serif" font-size="10.00" fill="#000000">+ getAll()</text>
<text text-anchor="start" x="15.5" y="-459.5" font-family="Helvetica,sans-Serif" font-size="10.00" fill="#000000">and 16 more...</text>
<text text-anchor="start" x="15.5" y="-448.5" font-family="Helvetica,sans-Serif" font-size="10.00" fill="#000000"># newCollection()</text>
<text text-anchor="start" x="15.5" y="-437.5" font-family="Helvetica,sans-Serif" font-size="10.00" fill="#000000"># firstInCollection()</text>
<text text-anchor="start" x="15.5" y="-426.5" font-family="Helvetica,sans-Serif" font-size="10.00" fill="#000000">&#45; initValueClass()</text>
</a>
</g>
</g>
<!-- Node6&#45;&gt;Node5 -->
<g id="edge2" class="edge">
<title>Node6&#45;&gt;Node5</title>
<path fill="none" stroke="#ffa500" d="M106,-408.8905C106,-392.9916 106,-376.6983 106,-360.8863"/>
<polygon fill="#ffa500" stroke="#ffa500" points="102.5001,-409.2724 106,-419.2724 109.5001,-409.2725 102.5001,-409.2724"/>
<text text-anchor="start" x="106" y="-393" font-family="Helvetica,sans-Serif" font-size="10.00" fill="#000000"> &lt; K, V, ConcurrentSkipList</text>
<text text-anchor="middle" x="166.5" y="-382" font-family="Helvetica,sans-Serif" font-size="10.00" fill="#000000">Set&lt; V &gt; &gt;</text>
</g>
<!-- Node7 -->
<g id="node4" class="node">
<title>Node7</title>
<polygon fill="none" stroke="#bfbfbf" points="32,-684 32,-741 148,-741 148,-684 32,-684"/>
<text text-anchor="middle" x="90" y="-729" font-family="Helvetica,sans-Serif" font-size="10.00" fill="#000000">java::util::Map&lt; K, V &gt;</text>
<polyline fill="none" stroke="#bfbfbf" points="32,-722 148,-722 "/>
<text text-anchor="middle" x="90" y="-710" font-family="Helvetica,sans-Serif" font-size="10.00" fill="#000000"> </text>
<polyline fill="none" stroke="#bfbfbf" points="32,-703 148,-703 "/>
<text text-anchor="middle" x="90" y="-691" font-family="Helvetica,sans-Serif" font-size="10.00" fill="#000000"> </text>
</g>
<!-- Node7&#45;&gt;Node6 -->
<g id="edge3" class="edge">
<title>Node7&#45;&gt;Node6</title>
<path fill="none" stroke="#191970" d="M93.3355,-673.412C94.4253,-660.6412 95.6925,-645.7905 96.9959,-630.5166"/>
<polygon fill="none" stroke="#191970" points="89.8279,-673.3526 92.4649,-683.614 96.8026,-673.9479 89.8279,-673.3526"/>
</g>
<!-- Node8 -->
<g id="node5" class="node">
<title>Node8</title>
<polygon fill="none" stroke="#bfbfbf" points="166.5,-678.5 166.5,-746.5 279.5,-746.5 279.5,-678.5 166.5,-678.5"/>
<text text-anchor="start" x="174.5" y="-734.5" font-family="Helvetica,sans-Serif" font-size="10.00" fill="#000000">ConcurrentHashMap&lt;</text>
<text text-anchor="middle" x="223" y="-723.5" font-family="Helvetica,sans-Serif" font-size="10.00" fill="#000000"> K, C &gt;</text>
<polyline fill="none" stroke="#bfbfbf" points="166.5,-716.5 279.5,-716.5 "/>
<text text-anchor="middle" x="223" y="-704.5" font-family="Helvetica,sans-Serif" font-size="10.00" fill="#000000"> </text>
<polyline fill="none" stroke="#bfbfbf" points="166.5,-697.5 279.5,-697.5 "/>
<text text-anchor="middle" x="223" y="-685.5" font-family="Helvetica,sans-Serif" font-size="10.00" fill="#000000"> </text>
</g>
<!-- Node8&#45;&gt;Node6 -->
<g id="edge4" class="edge">
<title>Node8&#45;&gt;Node6</title>
<path fill="none" stroke="#404040" d="M201.5404,-678.1096C194.7063,-667.1575 186.7264,-654.3693 178.3443,-640.9363"/>
<polygon fill="none" stroke="#404040" points="178.221,-640.7387 171.6511,-637.766 171.8683,-630.5581 178.4381,-633.5308 178.221,-640.7387"/>
<text text-anchor="middle" x="201.5" y="-652" font-family="Helvetica,sans-Serif" font-size="10.00" fill="#000000"> &#45;map</text>
</g>
<!-- Node9 -->
<g id="node6" class="node">
<title>Node9</title>
<polygon fill="none" stroke="#bfbfbf" points="169.5,-794.5 169.5,-851.5 276.5,-851.5 276.5,-794.5 169.5,-794.5"/>
<text text-anchor="middle" x="223" y="-839.5" font-family="Helvetica,sans-Serif" font-size="10.00" fill="#000000">ConcurrentHashMap</text>
<polyline fill="none" stroke="#bfbfbf" points="169.5,-832.5 276.5,-832.5 "/>
<text text-anchor="middle" x="223" y="-820.5" font-family="Helvetica,sans-Serif" font-size="10.00" fill="#000000"> </text>
<polyline fill="none" stroke="#bfbfbf" points="169.5,-813.5 276.5,-813.5 "/>
<text text-anchor="middle" x="223" y="-801.5" font-family="Helvetica,sans-Serif" font-size="10.00" fill="#000000"> </text>
</g>
<!-- Node9&#45;&gt;Node8 -->
<g id="edge5" class="edge">
<title>Node9&#45;&gt;Node8</title>
<path fill="none" stroke="#ffa500" d="M223,-783.9162C223,-771.7375 223,-758.4096 223,-746.6001"/>
<polygon fill="#ffa500" stroke="#ffa500" points="219.5001,-784.2559 223,-794.2559 226.5001,-784.2559 219.5001,-784.2559"/>
<text text-anchor="middle" x="244" y="-768" font-family="Helvetica,sans-Serif" font-size="10.00" fill="#000000"> &lt; K, C &gt;</text>
</g>
<!-- Node10 -->
<g id="node7" class="node">
<title>Node10</title>
<polygon fill="none" stroke="#bfbfbf" points="229.5,-221 229.5,-278 354.5,-278 354.5,-221 229.5,-221"/>
<text text-anchor="middle" x="292" y="-266" font-family="Helvetica,sans-Serif" font-size="10.00" fill="#000000">Comparator&lt;? super V &gt;</text>
<polyline fill="none" stroke="#bfbfbf" points="229.5,-259 354.5,-259 "/>
<text text-anchor="middle" x="292" y="-247" font-family="Helvetica,sans-Serif" font-size="10.00" fill="#000000"> </text>
<polyline fill="none" stroke="#bfbfbf" points="229.5,-240 354.5,-240 "/>
<text text-anchor="middle" x="292" y="-228" font-family="Helvetica,sans-Serif" font-size="10.00" fill="#000000"> </text>
</g>
<!-- Node10&#45;&gt;Node4 -->
<g id="edge6" class="edge">
<title>Node10&#45;&gt;Node4</title>
<path fill="none" stroke="#404040" d="M278.7315,-220.7045C264.5447,-189.9161 241.6917,-140.3203 223.9151,-101.7414"/>
<polygon fill="none" stroke="#404040" points="223.8344,-101.5661 217.6905,-97.7907 218.8124,-90.6674 224.9563,-94.4428 223.8344,-101.5661"/>
<text text-anchor="middle" x="259.5" y="-112" font-family="Helvetica,sans-Serif" font-size="10.00" fill="#000000"> &#45;comparator</text>
</g>
<!-- Node11 -->
<g id="node8" class="node">
<title>Node11</title>
<polygon fill="none" stroke="#bfbfbf" points="258,-496.5 258,-553.5 326,-553.5 326,-496.5 258,-496.5"/>
<text text-anchor="middle" x="292" y="-541.5" font-family="Helvetica,sans-Serif" font-size="10.00" fill="#000000">Comparator</text>
<polyline fill="none" stroke="#bfbfbf" points="258,-534.5 326,-534.5 "/>
<text text-anchor="middle" x="292" y="-522.5" font-family="Helvetica,sans-Serif" font-size="10.00" fill="#000000"> </text>
<polyline fill="none" stroke="#bfbfbf" points="258,-515.5 326,-515.5 "/>
<text text-anchor="middle" x="292" y="-503.5" font-family="Helvetica,sans-Serif" font-size="10.00" fill="#000000"> </text>
</g>
<!-- Node11&#45;&gt;Node10 -->
<g id="edge7" class="edge">
<title>Node11&#45;&gt;Node10</title>
<path fill="none" stroke="#ffa500" d="M292,-486.0563C292,-429.9863 292,-327.8112 292,-278.1391"/>
<polygon fill="#ffa500" stroke="#ffa500" points="288.5001,-486.2963 292,-496.2963 295.5001,-486.2964 288.5001,-486.2963"/>
<text text-anchor="middle" x="322.5" y="-387.5" font-family="Helvetica,sans-Serif" font-size="10.00" fill="#000000"> &lt;? super V &gt;</text>
</g>
</g>
</svg>
