<?xml version="1.0" encoding="UTF-8" standalone="no"?>
<!DOCTYPE svg PUBLIC "-//W3C//DTD SVG 1.1//EN"
 "http://www.w3.org/Graphics/SVG/1.1/DTD/svg11.dtd">
<!-- Generated by graphviz version 2.40.1 (20161225.0304)
 -->
<!-- Title: org.cobbzilla.util.xml.XmlUtil.findElements Pages: 1 -->
<svg width="620pt" height="61pt"
 viewBox="0.00 0.00 620.00 61.00" xmlns="http://www.w3.org/2000/svg" xmlns:xlink="http://www.w3.org/1999/xlink">
<g id="graph0" class="graph" transform="scale(1 1) rotate(0) translate(4 57)">
<title>org.cobbzilla.util.xml.XmlUtil.findElements</title>
<!-- Node0 -->
<g id="node1" class="node">
<title>Node0</title>
<polygon fill="#bfbfbf" stroke="#000000" points="0,-22.5 0,-52.5 126,-52.5 126,-22.5 0,-22.5"/>
<text text-anchor="start" x="8" y="-40.5" font-family="Helvetica,sans-Serif" font-size="10.00" fill="#000000">org.cobbzilla.util.xml.Xml</text>
<text text-anchor="middle" x="63" y="-29.5" font-family="Helvetica,sans-Serif" font-size="10.00" fill="#000000">Util.findElements</text>
</g>
<!-- Node1 -->
<g id="node2" class="node">
<title>Node1</title>
<g id="a_node2"><a xlink:href="../../d1/d5b/classorg_1_1cobbzilla_1_1util_1_1xml_1_1XmlUtil_aab50858331cbf0e74d3058e0f5bcefe3.html#aab50858331cbf0e74d3058e0f5bcefe3" target="_top" xlink:title="org.cobbzilla.util.xml.Xml\lUtil.applyRecursively">
<polygon fill="none" stroke="#000000" points="324,-22.5 324,-52.5 450,-52.5 450,-22.5 324,-22.5"/>
<text text-anchor="start" x="332" y="-40.5" font-family="Helvetica,sans-Serif" font-size="10.00" fill="#000000">org.cobbzilla.util.xml.Xml</text>
<text text-anchor="middle" x="387" y="-29.5" font-family="Helvetica,sans-Serif" font-size="10.00" fill="#000000">Util.applyRecursively</text>
</a>
</g>
</g>
<!-- Node0&#45;&gt;Node1 -->
<g id="edge1" class="edge">
<title>Node0&#45;&gt;Node1</title>
<path fill="none" stroke="#191970" d="M126.1044,-39.6983C138.0262,-40.0325 150.3944,-40.3242 162,-40.5 217.9936,-41.3482 232.0064,-41.3482 288,-40.5 296.3415,-40.3736 305.077,-40.1874 313.7575,-39.9686"/>
<polygon fill="#191970" stroke="#191970" points="313.9924,-43.4637 323.8956,-39.6983 313.8058,-36.4662 313.9924,-43.4637"/>
</g>
<!-- Node3 -->
<g id="node4" class="node">
<title>Node3</title>
<g id="a_node4"><a xlink:href="../../d1/d5b/classorg_1_1cobbzilla_1_1util_1_1xml_1_1XmlUtil_a48cac09d760c523f207beb93812b70a2.html#a48cac09d760c523f207beb93812b70a2" target="_top" xlink:title="org.cobbzilla.util.xml.Xml\lUtil.findElements">
<polygon fill="none" stroke="#000000" points="162,-.5 162,-30.5 288,-30.5 288,-.5 162,-.5"/>
<text text-anchor="start" x="170" y="-18.5" font-family="Helvetica,sans-Serif" font-size="10.00" fill="#000000">org.cobbzilla.util.xml.Xml</text>
<text text-anchor="middle" x="225" y="-7.5" font-family="Helvetica,sans-Serif" font-size="10.00" fill="#000000">Util.findElements</text>
</a>
</g>
</g>
<!-- Node0&#45;&gt;Node3 -->
<g id="edge3" class="edge">
<title>Node0&#45;&gt;Node3</title>
<path fill="none" stroke="#191970" d="M126.0973,-28.9312C134.5261,-27.7866 143.2273,-26.6049 151.8103,-25.4393"/>
<polygon fill="#191970" stroke="#191970" points="152.3704,-28.8955 161.8084,-24.0816 151.4283,-21.9592 152.3704,-28.8955"/>
</g>
<!-- Node2 -->
<g id="node3" class="node">
<title>Node2</title>
<g id="a_node3"><a xlink:href="../../d8/dba/interfaceorg_1_1cobbzilla_1_1util_1_1xml_1_1XmlElementFunction_a3ae4813d1fe401fd3253188b0512d971.html#a3ae4813d1fe401fd3253188b0512d971" target="_top" xlink:title="org.cobbzilla.util.xml.Xml\lElementFunction.apply">
<polygon fill="none" stroke="#000000" points="486,-22.5 486,-52.5 612,-52.5 612,-22.5 486,-22.5"/>
<text text-anchor="start" x="494" y="-40.5" font-family="Helvetica,sans-Serif" font-size="10.00" fill="#000000">org.cobbzilla.util.xml.Xml</text>
<text text-anchor="middle" x="549" y="-29.5" font-family="Helvetica,sans-Serif" font-size="10.00" fill="#000000">ElementFunction.apply</text>
</a>
</g>
</g>
<!-- Node1&#45;&gt;Node2 -->
<g id="edge2" class="edge">
<title>Node1&#45;&gt;Node2</title>
<path fill="none" stroke="#191970" d="M450.0973,-37.5C458.4345,-37.5 467.0381,-37.5 475.5304,-37.5"/>
<polygon fill="#191970" stroke="#191970" points="475.8084,-41.0001 485.8084,-37.5 475.8084,-34.0001 475.8084,-41.0001"/>
</g>
<!-- Node3&#45;&gt;Node1 -->
<g id="edge4" class="edge">
<title>Node3&#45;&gt;Node1</title>
<path fill="none" stroke="#191970" d="M288.0973,-24.0688C296.5261,-25.2134 305.2273,-26.3951 313.8103,-27.5607"/>
<polygon fill="#191970" stroke="#191970" points="313.4283,-31.0408 323.8084,-28.9184 314.3704,-24.1045 313.4283,-31.0408"/>
</g>
</g>
</svg>
