<?xml version="1.0" encoding="UTF-8" standalone="no"?>
<!DOCTYPE svg PUBLIC "-//W3C//DTD SVG 1.1//EN"
 "http://www.w3.org/Graphics/SVG/1.1/DTD/svg11.dtd">
<!-- Generated by graphviz version 2.40.1 (20161225.0304)
 -->
<!-- Title: org.cobbzilla.util.xml.XmlUtil.findElements Pages: 1 -->
<svg width="505pt" height="186pt"
 viewBox="0.00 0.00 505.00 186.00" xmlns="http://www.w3.org/2000/svg" xmlns:xlink="http://www.w3.org/1999/xlink">
<g id="graph0" class="graph" transform="scale(1 1) rotate(0) translate(4 182)">
<title>org.cobbzilla.util.xml.XmlUtil.findElements</title>
<!-- Node3 -->
<g id="node1" class="node">
<title>Node3</title>
<polygon fill="#bfbfbf" stroke="#000000" points="0,-73.5 0,-103.5 126,-103.5 126,-73.5 0,-73.5"/>
<text text-anchor="start" x="8" y="-91.5" font-family="Helvetica,sans-Serif" font-size="10.00" fill="#000000">org.cobbzilla.util.xml.Xml</text>
<text text-anchor="middle" x="63" y="-80.5" font-family="Helvetica,sans-Serif" font-size="10.00" fill="#000000">Util.findElements</text>
</g>
<!-- Node4 -->
<g id="node2" class="node">
<title>Node4</title>
<g id="a_node2"><a xlink:href="../../d1/d5b/classorg_1_1cobbzilla_1_1util_1_1xml_1_1XmlUtil_adab56074e07263e38585a83a2dabffa1.html#adab56074e07263e38585a83a2dabffa1" target="_top" xlink:title="org.cobbzilla.util.xml.Xml\lUtil.findElements">
<polygon fill="none" stroke="#000000" points="162,-147.5 162,-177.5 288,-177.5 288,-147.5 162,-147.5"/>
<text text-anchor="start" x="170" y="-165.5" font-family="Helvetica,sans-Serif" font-size="10.00" fill="#000000">org.cobbzilla.util.xml.Xml</text>
<text text-anchor="middle" x="225" y="-154.5" font-family="Helvetica,sans-Serif" font-size="10.00" fill="#000000">Util.findElements</text>
</a>
</g>
</g>
<!-- Node3&#45;&gt;Node4 -->
<g id="edge1" class="edge">
<title>Node3&#45;&gt;Node4</title>
<path fill="none" stroke="#191970" d="M99.7447,-108.2016C118.2078,-117.8066 141.0548,-129.251 162,-138.5 168.9595,-141.5732 176.4463,-144.633 183.7441,-147.4881"/>
<polygon fill="#191970" stroke="#191970" points="101.2746,-105.0519 90.7925,-103.5104 98.0254,-111.2522 101.2746,-105.0519"/>
</g>
<!-- Node5 -->
<g id="node3" class="node">
<title>Node5</title>
<g id="a_node3"><a xlink:href="../../d1/d5b/classorg_1_1cobbzilla_1_1util_1_1xml_1_1XmlUtil_a0fcdcada33c057b72487de1466df1d12.html#a0fcdcada33c057b72487de1466df1d12" target="_top" xlink:title="org.cobbzilla.util.xml.Xml\lUtil.findFirstElement">
<polygon fill="none" stroke="#000000" points="162,-98.5 162,-128.5 288,-128.5 288,-98.5 162,-98.5"/>
<text text-anchor="start" x="170" y="-116.5" font-family="Helvetica,sans-Serif" font-size="10.00" fill="#000000">org.cobbzilla.util.xml.Xml</text>
<text text-anchor="middle" x="225" y="-105.5" font-family="Helvetica,sans-Serif" font-size="10.00" fill="#000000">Util.findFirstElement</text>
</a>
</g>
</g>
<!-- Node3&#45;&gt;Node5 -->
<g id="edge2" class="edge">
<title>Node3&#45;&gt;Node5</title>
<path fill="none" stroke="#191970" d="M136.0937,-99.7799C144.6759,-101.1043 153.3775,-102.4472 161.8084,-103.7482"/>
<polygon fill="#191970" stroke="#191970" points="136.5141,-96.3034 126.0973,-98.2372 135.4465,-103.2215 136.5141,-96.3034"/>
</g>
<!-- Node7 -->
<g id="node5" class="node">
<title>Node7</title>
<g id="a_node5"><a xlink:href="../../d1/d5b/classorg_1_1cobbzilla_1_1util_1_1xml_1_1XmlUtil_a8b1fef0acaf9c03be7055635b3ed9f5a.html#a8b1fef0acaf9c03be7055635b3ed9f5a" target="_top" xlink:title="org.cobbzilla.util.xml.Xml\lUtil.findUniqueElement">
<polygon fill="none" stroke="#000000" points="162,-49.5 162,-79.5 288,-79.5 288,-49.5 162,-49.5"/>
<text text-anchor="start" x="170" y="-67.5" font-family="Helvetica,sans-Serif" font-size="10.00" fill="#000000">org.cobbzilla.util.xml.Xml</text>
<text text-anchor="middle" x="225" y="-56.5" font-family="Helvetica,sans-Serif" font-size="10.00" fill="#000000">Util.findUniqueElement</text>
</a>
</g>
</g>
<!-- Node3&#45;&gt;Node7 -->
<g id="edge4" class="edge">
<title>Node3&#45;&gt;Node7</title>
<path fill="none" stroke="#191970" d="M136.0937,-77.6713C144.6759,-76.3999 153.3775,-75.1107 161.8084,-73.8617"/>
<polygon fill="#191970" stroke="#191970" points="135.4764,-74.2245 126.0973,-79.1523 136.5023,-81.1489 135.4764,-74.2245"/>
</g>
<!-- Node8 -->
<g id="node6" class="node">
<title>Node8</title>
<g id="a_node6"><a xlink:href="../../d1/d5b/classorg_1_1cobbzilla_1_1util_1_1xml_1_1XmlUtil_a47042adfa151ae5a063b77940961745d.html#a47042adfa151ae5a063b77940961745d" target="_top" xlink:title="org.cobbzilla.util.xml.Xml\lUtil.removeElements">
<polygon fill="none" stroke="#000000" points="162,-.5 162,-30.5 288,-30.5 288,-.5 162,-.5"/>
<text text-anchor="start" x="170" y="-18.5" font-family="Helvetica,sans-Serif" font-size="10.00" fill="#000000">org.cobbzilla.util.xml.Xml</text>
<text text-anchor="middle" x="225" y="-7.5" font-family="Helvetica,sans-Serif" font-size="10.00" fill="#000000">Util.removeElements</text>
</a>
</g>
</g>
<!-- Node3&#45;&gt;Node8 -->
<g id="edge5" class="edge">
<title>Node3&#45;&gt;Node8</title>
<path fill="none" stroke="#191970" d="M101.7362,-68.9003C119.8899,-59.9266 141.9016,-49.3458 162,-40.5 169.6468,-37.1344 177.898,-33.7127 185.8301,-30.5249"/>
<polygon fill="#191970" stroke="#191970" points="100.0223,-65.8436 92.6253,-73.4287 103.138,-72.112 100.0223,-65.8436"/>
</g>
<!-- Node6 -->
<g id="node4" class="node">
<title>Node6</title>
<g id="a_node4"><a xlink:href="../../d2/dfa/classorg_1_1cobbzilla_1_1util_1_1xml_1_1XmlUtil_1_1MatchNodeSubElements_a96fc2adbc0eccd50df644034876b766e.html#a96fc2adbc0eccd50df644034876b766e" target="_top" xlink:title="org.cobbzilla.util.xml.Xml\lUtil.MatchNodeSubElements.check">
<polygon fill="none" stroke="#000000" points="324,-98.5 324,-128.5 497,-128.5 497,-98.5 324,-98.5"/>
<text text-anchor="start" x="332" y="-116.5" font-family="Helvetica,sans-Serif" font-size="10.00" fill="#000000">org.cobbzilla.util.xml.Xml</text>
<text text-anchor="middle" x="410.5" y="-105.5" font-family="Helvetica,sans-Serif" font-size="10.00" fill="#000000">Util.MatchNodeSubElements.check</text>
</a>
</g>
</g>
<!-- Node5&#45;&gt;Node6 -->
<g id="edge3" class="edge">
<title>Node5&#45;&gt;Node6</title>
<path fill="none" stroke="#191970" d="M298.232,-113.5C306.6791,-113.5 315.3524,-113.5 323.9542,-113.5"/>
<polygon fill="#191970" stroke="#191970" points="298.0607,-110.0001 288.0607,-113.5 298.0606,-117.0001 298.0607,-110.0001"/>
</g>
</g>
</svg>
