<?xml version="1.0" encoding="UTF-8" standalone="no"?>
<!DOCTYPE svg PUBLIC "-//W3C//DTD SVG 1.1//EN"
 "http://www.w3.org/Graphics/SVG/1.1/DTD/svg11.dtd">
<!-- Generated by graphviz version 2.40.1 (20161225.0304)
 -->
<!-- Title: org.cobbzilla.util.xml.XmlUtil.applyRecursively Pages: 1 -->
<svg width="667pt" height="210pt"
 viewBox="0.00 0.00 667.00 210.00" xmlns="http://www.w3.org/2000/svg" xmlns:xlink="http://www.w3.org/1999/xlink">
<g id="graph0" class="graph" transform="scale(1 1) rotate(0) translate(4 206)">
<title>org.cobbzilla.util.xml.XmlUtil.applyRecursively</title>
<!-- Node2 -->
<g id="node1" class="node">
<title>Node2</title>
<polygon fill="#bfbfbf" stroke="#000000" points="0,-49.5 0,-79.5 126,-79.5 126,-49.5 0,-49.5"/>
<text text-anchor="start" x="8" y="-67.5" font-family="Helvetica,sans-Serif" font-size="10.00" fill="#000000">org.cobbzilla.util.xml.Xml</text>
<text text-anchor="middle" x="63" y="-56.5" font-family="Helvetica,sans-Serif" font-size="10.00" fill="#000000">Util.applyRecursively</text>
</g>
<!-- Node3 -->
<g id="node2" class="node">
<title>Node3</title>
<g id="a_node2"><a xlink:href="../../d1/d5b/classorg_1_1cobbzilla_1_1util_1_1xml_1_1XmlUtil_a48cac09d760c523f207beb93812b70a2.html#a48cac09d760c523f207beb93812b70a2" target="_top" xlink:title="org.cobbzilla.util.xml.Xml\lUtil.findElements">
<polygon fill="none" stroke="#000000" points="162,-98.5 162,-128.5 288,-128.5 288,-98.5 162,-98.5"/>
<text text-anchor="start" x="170" y="-116.5" font-family="Helvetica,sans-Serif" font-size="10.00" fill="#000000">org.cobbzilla.util.xml.Xml</text>
<text text-anchor="middle" x="225" y="-105.5" font-family="Helvetica,sans-Serif" font-size="10.00" fill="#000000">Util.findElements</text>
</a>
</g>
</g>
<!-- Node2&#45;&gt;Node3 -->
<g id="edge1" class="edge">
<title>Node2&#45;&gt;Node3</title>
<path fill="none" stroke="#191970" d="M122.8835,-82.6129C140.1061,-87.8222 158.6979,-93.4457 175.2376,-98.4484"/>
<polygon fill="#191970" stroke="#191970" points="123.5123,-79.1466 112.9272,-79.6014 121.4856,-85.8468 123.5123,-79.1466"/>
</g>
<!-- Node9 -->
<g id="node8" class="node">
<title>Node9</title>
<g id="a_node8"><a xlink:href="../../d1/d5b/classorg_1_1cobbzilla_1_1util_1_1xml_1_1XmlUtil_a66ec541aae188d0a56e46455097a4475.html#a66ec541aae188d0a56e46455097a4475" target="_top" xlink:title="org.cobbzilla.util.xml.Xml\lUtil.findLargest">
<polygon fill="none" stroke="#000000" points="162,-49.5 162,-79.5 288,-79.5 288,-49.5 162,-49.5"/>
<text text-anchor="start" x="170" y="-67.5" font-family="Helvetica,sans-Serif" font-size="10.00" fill="#000000">org.cobbzilla.util.xml.Xml</text>
<text text-anchor="middle" x="225" y="-56.5" font-family="Helvetica,sans-Serif" font-size="10.00" fill="#000000">Util.findLargest</text>
</a>
</g>
</g>
<!-- Node2&#45;&gt;Node9 -->
<g id="edge7" class="edge">
<title>Node2&#45;&gt;Node9</title>
<path fill="none" stroke="#191970" d="M136.3736,-64.5C144.865,-64.5 153.4692,-64.5 161.8084,-64.5"/>
<polygon fill="#191970" stroke="#191970" points="136.0973,-61.0001 126.0973,-64.5 136.0973,-68.0001 136.0973,-61.0001"/>
</g>
<!-- Node10 -->
<g id="node9" class="node">
<title>Node10</title>
<g id="a_node9"><a xlink:href="../../d1/d5b/classorg_1_1cobbzilla_1_1util_1_1xml_1_1XmlUtil_a534ed17fcba8c9e7b247fc081ce9eecb.html#a534ed17fcba8c9e7b247fc081ce9eecb" target="_top" xlink:title="org.cobbzilla.util.xml.Xml\lUtil.getElementById">
<polygon fill="none" stroke="#000000" points="162,-.5 162,-30.5 288,-30.5 288,-.5 162,-.5"/>
<text text-anchor="start" x="170" y="-18.5" font-family="Helvetica,sans-Serif" font-size="10.00" fill="#000000">org.cobbzilla.util.xml.Xml</text>
<text text-anchor="middle" x="225" y="-7.5" font-family="Helvetica,sans-Serif" font-size="10.00" fill="#000000">Util.getElementById</text>
</a>
</g>
</g>
<!-- Node2&#45;&gt;Node10 -->
<g id="edge8" class="edge">
<title>Node2&#45;&gt;Node10</title>
<path fill="none" stroke="#191970" d="M122.8835,-46.3871C140.1061,-41.1778 158.6979,-35.5543 175.2376,-30.5516"/>
<polygon fill="#191970" stroke="#191970" points="121.4856,-43.1532 112.9272,-49.3986 123.5123,-49.8534 121.4856,-43.1532"/>
</g>
<!-- Node4 -->
<g id="node3" class="node">
<title>Node4</title>
<g id="a_node3"><a xlink:href="../../d1/d5b/classorg_1_1cobbzilla_1_1util_1_1xml_1_1XmlUtil_adab56074e07263e38585a83a2dabffa1.html#adab56074e07263e38585a83a2dabffa1" target="_top" xlink:title="org.cobbzilla.util.xml.Xml\lUtil.findElements">
<polygon fill="none" stroke="#000000" points="324,-171.5 324,-201.5 450,-201.5 450,-171.5 324,-171.5"/>
<text text-anchor="start" x="332" y="-189.5" font-family="Helvetica,sans-Serif" font-size="10.00" fill="#000000">org.cobbzilla.util.xml.Xml</text>
<text text-anchor="middle" x="387" y="-178.5" font-family="Helvetica,sans-Serif" font-size="10.00" fill="#000000">Util.findElements</text>
</a>
</g>
</g>
<!-- Node3&#45;&gt;Node4 -->
<g id="edge2" class="edge">
<title>Node3&#45;&gt;Node4</title>
<path fill="none" stroke="#191970" d="M262.5856,-133.16C280.9155,-142.475 303.4029,-153.504 324,-162.5 330.9718,-165.545 338.4648,-168.591 345.7647,-171.4411"/>
<polygon fill="#191970" stroke="#191970" points="264.1769,-130.0427 253.6803,-128.6035 260.9884,-136.2744 264.1769,-130.0427"/>
</g>
<!-- Node5 -->
<g id="node4" class="node">
<title>Node5</title>
<g id="a_node4"><a xlink:href="../../d1/d5b/classorg_1_1cobbzilla_1_1util_1_1xml_1_1XmlUtil_a0fcdcada33c057b72487de1466df1d12.html#a0fcdcada33c057b72487de1466df1d12" target="_top" xlink:title="org.cobbzilla.util.xml.Xml\lUtil.findFirstElement">
<polygon fill="none" stroke="#000000" points="324,-122.5 324,-152.5 450,-152.5 450,-122.5 324,-122.5"/>
<text text-anchor="start" x="332" y="-140.5" font-family="Helvetica,sans-Serif" font-size="10.00" fill="#000000">org.cobbzilla.util.xml.Xml</text>
<text text-anchor="middle" x="387" y="-129.5" font-family="Helvetica,sans-Serif" font-size="10.00" fill="#000000">Util.findFirstElement</text>
</a>
</g>
</g>
<!-- Node3&#45;&gt;Node5 -->
<g id="edge3" class="edge">
<title>Node3&#45;&gt;Node5</title>
<path fill="none" stroke="#191970" d="M298.0937,-124.3287C306.6759,-125.6001 315.3775,-126.8893 323.8084,-128.1383"/>
<polygon fill="#191970" stroke="#191970" points="298.5023,-120.8511 288.0973,-122.8477 297.4764,-127.7755 298.5023,-120.8511"/>
</g>
<!-- Node7 -->
<g id="node6" class="node">
<title>Node7</title>
<g id="a_node6"><a xlink:href="../../d1/d5b/classorg_1_1cobbzilla_1_1util_1_1xml_1_1XmlUtil_a8b1fef0acaf9c03be7055635b3ed9f5a.html#a8b1fef0acaf9c03be7055635b3ed9f5a" target="_top" xlink:title="org.cobbzilla.util.xml.Xml\lUtil.findUniqueElement">
<polygon fill="none" stroke="#000000" points="324,-73.5 324,-103.5 450,-103.5 450,-73.5 324,-73.5"/>
<text text-anchor="start" x="332" y="-91.5" font-family="Helvetica,sans-Serif" font-size="10.00" fill="#000000">org.cobbzilla.util.xml.Xml</text>
<text text-anchor="middle" x="387" y="-80.5" font-family="Helvetica,sans-Serif" font-size="10.00" fill="#000000">Util.findUniqueElement</text>
</a>
</g>
</g>
<!-- Node3&#45;&gt;Node7 -->
<g id="edge5" class="edge">
<title>Node3&#45;&gt;Node7</title>
<path fill="none" stroke="#191970" d="M298.0937,-102.2201C306.6759,-100.8957 315.3775,-99.5528 323.8084,-98.2518"/>
<polygon fill="#191970" stroke="#191970" points="297.4465,-98.7785 288.0973,-103.7628 298.5141,-105.6966 297.4465,-98.7785"/>
</g>
<!-- Node8 -->
<g id="node7" class="node">
<title>Node8</title>
<g id="a_node7"><a xlink:href="../../d1/d5b/classorg_1_1cobbzilla_1_1util_1_1xml_1_1XmlUtil_a47042adfa151ae5a063b77940961745d.html#a47042adfa151ae5a063b77940961745d" target="_top" xlink:title="org.cobbzilla.util.xml.Xml\lUtil.removeElements">
<polygon fill="none" stroke="#000000" points="324,-24.5 324,-54.5 450,-54.5 450,-24.5 324,-24.5"/>
<text text-anchor="start" x="332" y="-42.5" font-family="Helvetica,sans-Serif" font-size="10.00" fill="#000000">org.cobbzilla.util.xml.Xml</text>
<text text-anchor="middle" x="387" y="-31.5" font-family="Helvetica,sans-Serif" font-size="10.00" fill="#000000">Util.removeElements</text>
</a>
</g>
</g>
<!-- Node3&#45;&gt;Node8 -->
<g id="edge6" class="edge">
<title>Node3&#45;&gt;Node8</title>
<path fill="none" stroke="#191970" d="M277.9017,-94.4463C281.3608,-92.8643 284.7553,-91.2119 288,-89.5 305.2288,-80.4101 306.8343,-73.7085 324,-64.5 330.6364,-60.9399 337.8921,-57.5974 345.0427,-54.5861"/>
<polygon fill="#191970" stroke="#191970" points="276.4323,-91.2686 268.6532,-98.4614 279.2199,-97.6896 276.4323,-91.2686"/>
</g>
<!-- Node6 -->
<g id="node5" class="node">
<title>Node6</title>
<g id="a_node5"><a xlink:href="../../d2/dfa/classorg_1_1cobbzilla_1_1util_1_1xml_1_1XmlUtil_1_1MatchNodeSubElements_a96fc2adbc0eccd50df644034876b766e.html#a96fc2adbc0eccd50df644034876b766e" target="_top" xlink:title="org.cobbzilla.util.xml.Xml\lUtil.MatchNodeSubElements.check">
<polygon fill="none" stroke="#000000" points="486,-122.5 486,-152.5 659,-152.5 659,-122.5 486,-122.5"/>
<text text-anchor="start" x="494" y="-140.5" font-family="Helvetica,sans-Serif" font-size="10.00" fill="#000000">org.cobbzilla.util.xml.Xml</text>
<text text-anchor="middle" x="572.5" y="-129.5" font-family="Helvetica,sans-Serif" font-size="10.00" fill="#000000">Util.MatchNodeSubElements.check</text>
</a>
</g>
</g>
<!-- Node5&#45;&gt;Node6 -->
<g id="edge4" class="edge">
<title>Node5&#45;&gt;Node6</title>
<path fill="none" stroke="#191970" d="M460.232,-137.5C468.6791,-137.5 477.3524,-137.5 485.9542,-137.5"/>
<polygon fill="#191970" stroke="#191970" points="460.0607,-134.0001 450.0607,-137.5 460.0606,-141.0001 460.0607,-134.0001"/>
</g>
</g>
</svg>
