<?xml version="1.0" encoding="UTF-8" standalone="no"?>
<!DOCTYPE svg PUBLIC "-//W3C//DTD SVG 1.1//EN"
 "http://www.w3.org/Graphics/SVG/1.1/DTD/svg11.dtd">
<!-- Generated by graphviz version 2.40.1 (20161225.0304)
 -->
<!-- Title: org.cobbzilla.util.xml.XmlUtil.removeElements Pages: 1 -->
<svg width="620pt" height="39pt"
 viewBox="0.00 0.00 620.00 39.00" xmlns="http://www.w3.org/2000/svg" xmlns:xlink="http://www.w3.org/1999/xlink">
<g id="graph0" class="graph" transform="scale(1 1) rotate(0) translate(4 35)">
<title>org.cobbzilla.util.xml.XmlUtil.removeElements</title>
<!-- Node0 -->
<g id="node1" class="node">
<title>Node0</title>
<polygon fill="#bfbfbf" stroke="#000000" points="0,-.5 0,-30.5 126,-30.5 126,-.5 0,-.5"/>
<text text-anchor="start" x="8" y="-18.5" font-family="Helvetica,sans-Serif" font-size="10.00" fill="#000000">org.cobbzilla.util.xml.Xml</text>
<text text-anchor="middle" x="63" y="-7.5" font-family="Helvetica,sans-Serif" font-size="10.00" fill="#000000">Util.removeElements</text>
</g>
<!-- Node1 -->
<g id="node2" class="node">
<title>Node1</title>
<g id="a_node2"><a xlink:href="../../d1/d5b/classorg_1_1cobbzilla_1_1util_1_1xml_1_1XmlUtil_a48cac09d760c523f207beb93812b70a2.html#a48cac09d760c523f207beb93812b70a2" target="_top" xlink:title="org.cobbzilla.util.xml.Xml\lUtil.findElements">
<polygon fill="none" stroke="#000000" points="162,-.5 162,-30.5 288,-30.5 288,-.5 162,-.5"/>
<text text-anchor="start" x="170" y="-18.5" font-family="Helvetica,sans-Serif" font-size="10.00" fill="#000000">org.cobbzilla.util.xml.Xml</text>
<text text-anchor="middle" x="225" y="-7.5" font-family="Helvetica,sans-Serif" font-size="10.00" fill="#000000">Util.findElements</text>
</a>
</g>
</g>
<!-- Node0&#45;&gt;Node1 -->
<g id="edge1" class="edge">
<title>Node0&#45;&gt;Node1</title>
<path fill="none" stroke="#191970" d="M126.0973,-15.5C134.4345,-15.5 143.0381,-15.5 151.5304,-15.5"/>
<polygon fill="#191970" stroke="#191970" points="151.8084,-19.0001 161.8084,-15.5 151.8084,-12.0001 151.8084,-19.0001"/>
</g>
<!-- Node2 -->
<g id="node3" class="node">
<title>Node2</title>
<g id="a_node3"><a xlink:href="../../d1/d5b/classorg_1_1cobbzilla_1_1util_1_1xml_1_1XmlUtil_aab50858331cbf0e74d3058e0f5bcefe3.html#aab50858331cbf0e74d3058e0f5bcefe3" target="_top" xlink:title="org.cobbzilla.util.xml.Xml\lUtil.applyRecursively">
<polygon fill="none" stroke="#000000" points="324,-.5 324,-30.5 450,-30.5 450,-.5 324,-.5"/>
<text text-anchor="start" x="332" y="-18.5" font-family="Helvetica,sans-Serif" font-size="10.00" fill="#000000">org.cobbzilla.util.xml.Xml</text>
<text text-anchor="middle" x="387" y="-7.5" font-family="Helvetica,sans-Serif" font-size="10.00" fill="#000000">Util.applyRecursively</text>
</a>
</g>
</g>
<!-- Node1&#45;&gt;Node2 -->
<g id="edge2" class="edge">
<title>Node1&#45;&gt;Node2</title>
<path fill="none" stroke="#191970" d="M288.0973,-15.5C296.4345,-15.5 305.0381,-15.5 313.5304,-15.5"/>
<polygon fill="#191970" stroke="#191970" points="313.8084,-19.0001 323.8084,-15.5 313.8084,-12.0001 313.8084,-19.0001"/>
</g>
<!-- Node3 -->
<g id="node4" class="node">
<title>Node3</title>
<g id="a_node4"><a xlink:href="../../d8/dba/interfaceorg_1_1cobbzilla_1_1util_1_1xml_1_1XmlElementFunction_a3ae4813d1fe401fd3253188b0512d971.html#a3ae4813d1fe401fd3253188b0512d971" target="_top" xlink:title="org.cobbzilla.util.xml.Xml\lElementFunction.apply">
<polygon fill="none" stroke="#000000" points="486,-.5 486,-30.5 612,-30.5 612,-.5 486,-.5"/>
<text text-anchor="start" x="494" y="-18.5" font-family="Helvetica,sans-Serif" font-size="10.00" fill="#000000">org.cobbzilla.util.xml.Xml</text>
<text text-anchor="middle" x="549" y="-7.5" font-family="Helvetica,sans-Serif" font-size="10.00" fill="#000000">ElementFunction.apply</text>
</a>
</g>
</g>
<!-- Node2&#45;&gt;Node3 -->
<g id="edge3" class="edge">
<title>Node2&#45;&gt;Node3</title>
<path fill="none" stroke="#191970" d="M450.0973,-15.5C458.4345,-15.5 467.0381,-15.5 475.5304,-15.5"/>
<polygon fill="#191970" stroke="#191970" points="475.8084,-19.0001 485.8084,-15.5 475.8084,-12.0001 475.8084,-19.0001"/>
</g>
</g>
</svg>
