<?xml version="1.0" encoding="UTF-8" standalone="no"?>
<!DOCTYPE svg PUBLIC "-//W3C//DTD SVG 1.1//EN"
 "http://www.w3.org/Graphics/SVG/1.1/DTD/svg11.dtd">
<!-- Generated by graphviz version 2.40.1 (20161225.0304)
 -->
<!-- Title: org.cobbzilla.util.xml.XmlUtil.findLargest Pages: 1 -->
<svg width="477pt" height="137pt"
 viewBox="0.00 0.00 477.00 137.00" xmlns="http://www.w3.org/2000/svg" xmlns:xlink="http://www.w3.org/1999/xlink">
<g id="graph0" class="graph" transform="scale(1 1) rotate(0) translate(4 133)">
<title>org.cobbzilla.util.xml.XmlUtil.findLargest</title>
<!-- Node0 -->
<g id="node1" class="node">
<title>Node0</title>
<polygon fill="#bfbfbf" stroke="#000000" points="0,-49.5 0,-79.5 126,-79.5 126,-49.5 0,-49.5"/>
<text text-anchor="start" x="8" y="-67.5" font-family="Helvetica,sans-Serif" font-size="10.00" fill="#000000">org.cobbzilla.util.xml.Xml</text>
<text text-anchor="middle" x="63" y="-56.5" font-family="Helvetica,sans-Serif" font-size="10.00" fill="#000000">Util.findLargest</text>
</g>
<!-- Node1 -->
<g id="node2" class="node">
<title>Node1</title>
<g id="a_node2"><a xlink:href="../../d1/d5b/classorg_1_1cobbzilla_1_1util_1_1xml_1_1XmlUtil_aab50858331cbf0e74d3058e0f5bcefe3.html#aab50858331cbf0e74d3058e0f5bcefe3" target="_top" xlink:title="org.cobbzilla.util.xml.Xml\lUtil.applyRecursively">
<polygon fill="none" stroke="#000000" points="171.5,-98.5 171.5,-128.5 297.5,-128.5 297.5,-98.5 171.5,-98.5"/>
<text text-anchor="start" x="179.5" y="-116.5" font-family="Helvetica,sans-Serif" font-size="10.00" fill="#000000">org.cobbzilla.util.xml.Xml</text>
<text text-anchor="middle" x="234.5" y="-105.5" font-family="Helvetica,sans-Serif" font-size="10.00" fill="#000000">Util.applyRecursively</text>
</a>
</g>
</g>
<!-- Node0&#45;&gt;Node1 -->
<g id="edge1" class="edge">
<title>Node0&#45;&gt;Node1</title>
<path fill="none" stroke="#191970" d="M115.855,-79.6014C133.6248,-84.6785 153.6159,-90.3902 172.0519,-95.6577"/>
<polygon fill="#191970" stroke="#191970" points="171.2427,-99.0665 181.8195,-98.4484 173.1658,-92.3358 171.2427,-99.0665"/>
</g>
<!-- Node3 -->
<g id="node4" class="node">
<title>Node3</title>
<g id="a_node4"><a xlink:href="../../d6/d2a/interfaceorg_1_1cobbzilla_1_1util_1_1xml_1_1ElementMatcher_a1ae0943fe9d09a67f7e1bc8bdab7cf81.html#a1ae0943fe9d09a67f7e1bc8bdab7cf81" target="_top" xlink:title="org.cobbzilla.util.xml.Element\lMatcher.matches">
<polygon fill="none" stroke="#000000" points="162,-49.5 162,-79.5 307,-79.5 307,-49.5 162,-49.5"/>
<text text-anchor="start" x="170" y="-67.5" font-family="Helvetica,sans-Serif" font-size="10.00" fill="#000000">org.cobbzilla.util.xml.Element</text>
<text text-anchor="middle" x="234.5" y="-56.5" font-family="Helvetica,sans-Serif" font-size="10.00" fill="#000000">Matcher.matches</text>
</a>
</g>
</g>
<!-- Node0&#45;&gt;Node3 -->
<g id="edge3" class="edge">
<title>Node0&#45;&gt;Node3</title>
<path fill="none" stroke="#191970" d="M126.373,-64.5C134.6714,-64.5 143.2704,-64.5 151.8284,-64.5"/>
<polygon fill="#191970" stroke="#191970" points="151.8356,-68.0001 161.8356,-64.5 151.8355,-61.0001 151.8356,-68.0001"/>
</g>
<!-- Node4 -->
<g id="node5" class="node">
<title>Node4</title>
<g id="a_node5"><a xlink:href="../../d1/d1c/interfaceorg_1_1cobbzilla_1_1util_1_1xml_1_1ElementTransformer_abaaaef241857522e9a15b75123735302.html#abaaaef241857522e9a15b75123735302" target="_top" xlink:title="org.cobbzilla.util.xml.Element\lTransformer.transform">
<polygon fill="none" stroke="#000000" points="162,-.5 162,-30.5 307,-30.5 307,-.5 162,-.5"/>
<text text-anchor="start" x="170" y="-18.5" font-family="Helvetica,sans-Serif" font-size="10.00" fill="#000000">org.cobbzilla.util.xml.Element</text>
<text text-anchor="middle" x="234.5" y="-7.5" font-family="Helvetica,sans-Serif" font-size="10.00" fill="#000000">Transformer.transform</text>
</a>
</g>
</g>
<!-- Node0&#45;&gt;Node4 -->
<g id="edge4" class="edge">
<title>Node0&#45;&gt;Node4</title>
<path fill="none" stroke="#191970" d="M115.855,-49.3986C133.6248,-44.3215 153.6159,-38.6098 172.0519,-33.3423"/>
<polygon fill="#191970" stroke="#191970" points="173.1658,-36.6642 181.8195,-30.5516 171.2427,-29.9335 173.1658,-36.6642"/>
</g>
<!-- Node2 -->
<g id="node3" class="node">
<title>Node2</title>
<g id="a_node3"><a xlink:href="../../d8/dba/interfaceorg_1_1cobbzilla_1_1util_1_1xml_1_1XmlElementFunction_a3ae4813d1fe401fd3253188b0512d971.html#a3ae4813d1fe401fd3253188b0512d971" target="_top" xlink:title="org.cobbzilla.util.xml.Xml\lElementFunction.apply">
<polygon fill="none" stroke="#000000" points="343,-98.5 343,-128.5 469,-128.5 469,-98.5 343,-98.5"/>
<text text-anchor="start" x="351" y="-116.5" font-family="Helvetica,sans-Serif" font-size="10.00" fill="#000000">org.cobbzilla.util.xml.Xml</text>
<text text-anchor="middle" x="406" y="-105.5" font-family="Helvetica,sans-Serif" font-size="10.00" fill="#000000">ElementFunction.apply</text>
</a>
</g>
</g>
<!-- Node1&#45;&gt;Node2 -->
<g id="edge2" class="edge">
<title>Node1&#45;&gt;Node2</title>
<path fill="none" stroke="#191970" d="M297.873,-113.5C309.2382,-113.5 321.1672,-113.5 332.7827,-113.5"/>
<polygon fill="#191970" stroke="#191970" points="332.8875,-117.0001 342.8875,-113.5 332.8874,-110.0001 332.8875,-117.0001"/>
</g>
</g>
</svg>
