<?xml version="1.0" encoding="UTF-8" standalone="no"?>
<!DOCTYPE svg PUBLIC "-//W3C//DTD SVG 1.1//EN"
 "http://www.w3.org/Graphics/SVG/1.1/DTD/svg11.dtd">
<!-- Generated by graphviz version 2.40.1 (20161225.0304)
 -->
<!-- Title: org.cobbzilla.util.handlebars.PdfMerger Pages: 1 -->
<svg width="237pt" height="419pt"
 viewBox="0.00 0.00 236.50 419.00" xmlns="http://www.w3.org/2000/svg" xmlns:xlink="http://www.w3.org/1999/xlink">
<g id="graph0" class="graph" transform="scale(1 1) rotate(0) translate(4 415)">
<title>org.cobbzilla.util.handlebars.PdfMerger</title>
<!-- Node1 -->
<g id="node1" class="node">
<title>Node1</title>
<polygon fill="#bfbfbf" stroke="#000000" points="23,-.5 23,-178.5 174,-178.5 174,-.5 23,-.5"/>
<text text-anchor="start" x="31" y="-166.5" font-family="Helvetica,sans-Serif" font-size="10.00" fill="#000000">org.cobbzilla.util.handlebars.</text>
<text text-anchor="middle" x="98.5" y="-155.5" font-family="Helvetica,sans-Serif" font-size="10.00" fill="#000000">PdfMerger</text>
<polyline fill="none" stroke="#000000" points="23,-148.5 174,-148.5 "/>
<text text-anchor="start" x="31" y="-136.5" font-family="Helvetica,sans-Serif" font-size="10.00" fill="#000000">+ NULL_FORM_VALUE</text>
<text text-anchor="start" x="31" y="-125.5" font-family="Helvetica,sans-Serif" font-size="10.00" fill="#000000">+ CTX_IMAGE_INSERTIONS</text>
<text text-anchor="start" x="31" y="-114.5" font-family="Helvetica,sans-Serif" font-size="10.00" fill="#000000">+ CTX_TEXT_INSERTIONS</text>
<polyline fill="none" stroke="#000000" points="23,-107.5 174,-107.5 "/>
<text text-anchor="start" x="31" y="-95.5" font-family="Helvetica,sans-Serif" font-size="10.00" fill="#000000">+ setErrorHandler()</text>
<text text-anchor="start" x="31" y="-84.5" font-family="Helvetica,sans-Serif" font-size="10.00" fill="#000000">+ merge()</text>
<text text-anchor="start" x="31" y="-73.5" font-family="Helvetica,sans-Serif" font-size="10.00" fill="#000000">+ merge()</text>
<text text-anchor="start" x="31" y="-62.5" font-family="Helvetica,sans-Serif" font-size="10.00" fill="#000000">+ merge()</text>
<text text-anchor="start" x="31" y="-51.5" font-family="Helvetica,sans-Serif" font-size="10.00" fill="#000000">+ safeApply()</text>
<text text-anchor="start" x="31" y="-40.5" font-family="Helvetica,sans-Serif" font-size="10.00" fill="#000000">+ concatenate()</text>
<text text-anchor="start" x="31" y="-29.5" font-family="Helvetica,sans-Serif" font-size="10.00" fill="#000000">+ scrubAcroForm()</text>
<text text-anchor="start" x="31" y="-18.5" font-family="Helvetica,sans-Serif" font-size="10.00" fill="#000000"># insertImage()</text>
<text text-anchor="start" x="31" y="-7.5" font-family="Helvetica,sans-Serif" font-size="10.00" fill="#000000">&#45; insertImageOnPage()</text>
</g>
<!-- Node2 -->
<g id="node2" class="node">
<title>Node2</title>
<polygon fill="none" stroke="#bfbfbf" points="0,-226.5 0,-294.5 197,-294.5 197,-226.5 0,-226.5"/>
<text text-anchor="start" x="8" y="-282.5" font-family="Helvetica,sans-Serif" font-size="10.00" fill="#000000">AtomicReference&lt; org.cobbzilla.util.error.</text>
<text text-anchor="middle" x="98.5" y="-271.5" font-family="Helvetica,sans-Serif" font-size="10.00" fill="#000000">GeneralErrorHandler &gt;</text>
<polyline fill="none" stroke="#bfbfbf" points="0,-264.5 197,-264.5 "/>
<text text-anchor="middle" x="98.5" y="-252.5" font-family="Helvetica,sans-Serif" font-size="10.00" fill="#000000"> </text>
<polyline fill="none" stroke="#bfbfbf" points="0,-245.5 197,-245.5 "/>
<text text-anchor="middle" x="98.5" y="-233.5" font-family="Helvetica,sans-Serif" font-size="10.00" fill="#000000"> </text>
</g>
<!-- Node2&#45;&gt;Node1 -->
<g id="edge1" class="edge">
<title>Node2&#45;&gt;Node1</title>
<path fill="none" stroke="#404040" d="M98.5,-226.3066C98.5,-215.7446 98.5,-203.5249 98.5,-190.8225"/>
<polygon fill="none" stroke="#404040" points="98.5001,-190.5343 94.5,-184.5343 98.5,-178.5343 102.5,-184.5343 98.5001,-190.5343"/>
<text text-anchor="middle" x="128.5" y="-200" font-family="Helvetica,sans-Serif" font-size="10.00" fill="#000000"> &#45;errorHandler</text>
</g>
<!-- Node3 -->
<g id="node3" class="node">
<title>Node3</title>
<polygon fill="none" stroke="#bfbfbf" points="52.5,-353.5 52.5,-410.5 144.5,-410.5 144.5,-353.5 52.5,-353.5"/>
<text text-anchor="middle" x="98.5" y="-398.5" font-family="Helvetica,sans-Serif" font-size="10.00" fill="#000000">AtomicReference</text>
<polyline fill="none" stroke="#bfbfbf" points="52.5,-391.5 144.5,-391.5 "/>
<text text-anchor="middle" x="98.5" y="-379.5" font-family="Helvetica,sans-Serif" font-size="10.00" fill="#000000"> </text>
<polyline fill="none" stroke="#bfbfbf" points="52.5,-372.5 144.5,-372.5 "/>
<text text-anchor="middle" x="98.5" y="-360.5" font-family="Helvetica,sans-Serif" font-size="10.00" fill="#000000"> </text>
</g>
<!-- Node3&#45;&gt;Node2 -->
<g id="edge2" class="edge">
<title>Node3&#45;&gt;Node2</title>
<path fill="none" stroke="#ffa500" d="M98.5,-342.8733C98.5,-327.3628 98.5,-309.6896 98.5,-294.7007"/>
<polygon fill="#ffa500" stroke="#ffa500" points="95.0001,-343.2062 98.5,-353.2062 102.0001,-343.2062 95.0001,-343.2062"/>
<text text-anchor="start" x="98.5" y="-327" font-family="Helvetica,sans-Serif" font-size="10.00" fill="#000000"> &lt; org::cobbzilla::util</text>
<text text-anchor="middle" x="163.5" y="-316" font-family="Helvetica,sans-Serif" font-size="10.00" fill="#000000">::error::GeneralErrorHandler &gt;</text>
</g>
</g>
</svg>
