<?xml version="1.0" encoding="UTF-8" standalone="no"?>
<!DOCTYPE svg PUBLIC "-//W3C//DTD SVG 1.1//EN"
 "http://www.w3.org/Graphics/SVG/1.1/DTD/svg11.dtd">
<!-- Generated by graphviz version 2.40.1 (20161225.0304)
 -->
<!-- Title: org.cobbzilla.util.collection.AllowNullComparator&lt; E &gt; Pages: 1 -->
<svg width="502pt" height="310pt"
 viewBox="0.00 0.00 502.00 310.00" xmlns="http://www.w3.org/2000/svg" xmlns:xlink="http://www.w3.org/1999/xlink">
<g id="graph0" class="graph" transform="scale(1 1) rotate(0) translate(4 306)">
<title>org.cobbzilla.util.collection.AllowNullComparator&lt; E &gt;</title>
<!-- Node5 -->
<g id="node1" class="node">
<title>Node5</title>
<polygon fill="#bfbfbf" stroke="#000000" points="191,-138.5 191,-206.5 325,-206.5 325,-138.5 191,-138.5"/>
<text text-anchor="start" x="199" y="-194.5" font-family="Helvetica,sans-Serif" font-size="10.00" fill="#000000">org.cobbzilla.util.collection.</text>
<text text-anchor="middle" x="258" y="-183.5" font-family="Helvetica,sans-Serif" font-size="10.00" fill="#000000">AllowNullComparator&lt; E &gt;</text>
<polyline fill="none" stroke="#000000" points="191,-176.5 325,-176.5 "/>
<text text-anchor="middle" x="258" y="-164.5" font-family="Helvetica,sans-Serif" font-size="10.00" fill="#000000"> </text>
<polyline fill="none" stroke="#000000" points="191,-157.5 325,-157.5 "/>
<text text-anchor="start" x="199" y="-145.5" font-family="Helvetica,sans-Serif" font-size="10.00" fill="#000000">+ compare()</text>
</g>
<!-- Node7 -->
<g id="node3" class="node">
<title>Node7</title>
<g id="a_node3"><a xlink:href="../../d5/def/classorg_1_1cobbzilla_1_1util_1_1collection_1_1AllowNullComparator.html" target="_top" xlink:title="{org.cobbzilla.util.collection.\lAllowNullComparator\&lt; Long \&gt;\n|+ STRING\l+ INT\l+ LONG\l|+ compare()\l}">
<polygon fill="none" stroke="#000000" points="0,-.5 0,-90.5 148,-90.5 148,-.5 0,-.5"/>
<text text-anchor="start" x="8" y="-78.5" font-family="Helvetica,sans-Serif" font-size="10.00" fill="#000000">org.cobbzilla.util.collection.</text>
<text text-anchor="middle" x="74" y="-67.5" font-family="Helvetica,sans-Serif" font-size="10.00" fill="#000000">AllowNullComparator&lt; Long &gt;</text>
<polyline fill="none" stroke="#000000" points="0,-60.5 148,-60.5 "/>
<text text-anchor="start" x="8" y="-48.5" font-family="Helvetica,sans-Serif" font-size="10.00" fill="#000000">+ STRING</text>
<text text-anchor="start" x="8" y="-37.5" font-family="Helvetica,sans-Serif" font-size="10.00" fill="#000000">+ INT</text>
<text text-anchor="start" x="8" y="-26.5" font-family="Helvetica,sans-Serif" font-size="10.00" fill="#000000">+ LONG</text>
<polyline fill="none" stroke="#000000" points="0,-19.5 148,-19.5 "/>
<text text-anchor="start" x="8" y="-7.5" font-family="Helvetica,sans-Serif" font-size="10.00" fill="#000000">+ compare()</text>
</a>
</g>
</g>
<!-- Node5&#45;&gt;Node7 -->
<g id="edge3" class="edge">
<title>Node5&#45;&gt;Node7</title>
<path fill="none" stroke="#ffa500" d="M181.0574,-155.4043C157.9516,-147.491 133.7812,-136.1356 115,-120 105.7056,-112.0148 98.1282,-101.3762 92.1314,-90.6442"/>
<polygon fill="#ffa500" stroke="#ffa500" points="180.2838,-158.8329 190.8758,-158.589 182.4435,-152.1744 180.2838,-158.8329"/>
<text text-anchor="middle" x="136.5" y="-112" font-family="Helvetica,sans-Serif" font-size="10.00" fill="#000000"> &lt; Long &gt;</text>
</g>
<!-- Node8 -->
<g id="node4" class="node">
<title>Node8</title>
<g id="a_node4"><a xlink:href="../../d5/def/classorg_1_1cobbzilla_1_1util_1_1collection_1_1AllowNullComparator.html" target="_top" xlink:title="{org.cobbzilla.util.collection.\lAllowNullComparator\&lt; Integer \&gt;\n|+ STRING\l+ INT\l+ LONG\l|+ compare()\l}">
<polygon fill="none" stroke="#000000" points="166.5,-.5 166.5,-90.5 323.5,-90.5 323.5,-.5 166.5,-.5"/>
<text text-anchor="start" x="174.5" y="-78.5" font-family="Helvetica,sans-Serif" font-size="10.00" fill="#000000">org.cobbzilla.util.collection.</text>
<text text-anchor="middle" x="245" y="-67.5" font-family="Helvetica,sans-Serif" font-size="10.00" fill="#000000">AllowNullComparator&lt; Integer &gt;</text>
<polyline fill="none" stroke="#000000" points="166.5,-60.5 323.5,-60.5 "/>
<text text-anchor="start" x="174.5" y="-48.5" font-family="Helvetica,sans-Serif" font-size="10.00" fill="#000000">+ STRING</text>
<text text-anchor="start" x="174.5" y="-37.5" font-family="Helvetica,sans-Serif" font-size="10.00" fill="#000000">+ INT</text>
<text text-anchor="start" x="174.5" y="-26.5" font-family="Helvetica,sans-Serif" font-size="10.00" fill="#000000">+ LONG</text>
<polyline fill="none" stroke="#000000" points="166.5,-19.5 323.5,-19.5 "/>
<text text-anchor="start" x="174.5" y="-7.5" font-family="Helvetica,sans-Serif" font-size="10.00" fill="#000000">+ compare()</text>
</a>
</g>
</g>
<!-- Node5&#45;&gt;Node8 -->
<g id="edge5" class="edge">
<title>Node5&#45;&gt;Node8</title>
<path fill="none" stroke="#ffa500" d="M222.1573,-129.7415C220.5296,-126.5621 219.1149,-123.3029 218,-120 214.7881,-110.4847 215.6035,-100.3382 218.4105,-90.6942"/>
<polygon fill="#ffa500" stroke="#ffa500" points="219.1781,-131.5807 227.2358,-138.46 225.2268,-128.0574 219.1781,-131.5807"/>
<text text-anchor="middle" x="244" y="-112" font-family="Helvetica,sans-Serif" font-size="10.00" fill="#000000"> &lt; Integer &gt;</text>
</g>
<!-- Node9 -->
<g id="node5" class="node">
<title>Node9</title>
<g id="a_node5"><a xlink:href="../../d5/def/classorg_1_1cobbzilla_1_1util_1_1collection_1_1AllowNullComparator.html" target="_top" xlink:title="{org.cobbzilla.util.collection.\lAllowNullComparator\&lt; String \&gt;\n|+ STRING\l+ INT\l+ LONG\l|+ compare()\l}">
<polygon fill="none" stroke="#000000" points="342,-.5 342,-90.5 494,-90.5 494,-.5 342,-.5"/>
<text text-anchor="start" x="350" y="-78.5" font-family="Helvetica,sans-Serif" font-size="10.00" fill="#000000">org.cobbzilla.util.collection.</text>
<text text-anchor="middle" x="418" y="-67.5" font-family="Helvetica,sans-Serif" font-size="10.00" fill="#000000">AllowNullComparator&lt; String &gt;</text>
<polyline fill="none" stroke="#000000" points="342,-60.5 494,-60.5 "/>
<text text-anchor="start" x="350" y="-48.5" font-family="Helvetica,sans-Serif" font-size="10.00" fill="#000000">+ STRING</text>
<text text-anchor="start" x="350" y="-37.5" font-family="Helvetica,sans-Serif" font-size="10.00" fill="#000000">+ INT</text>
<text text-anchor="start" x="350" y="-26.5" font-family="Helvetica,sans-Serif" font-size="10.00" fill="#000000">+ LONG</text>
<polyline fill="none" stroke="#000000" points="342,-19.5 494,-19.5 "/>
<text text-anchor="start" x="350" y="-7.5" font-family="Helvetica,sans-Serif" font-size="10.00" fill="#000000">+ compare()</text>
</a>
</g>
</g>
<!-- Node5&#45;&gt;Node9 -->
<g id="edge7" class="edge">
<title>Node5&#45;&gt;Node9</title>
<path fill="none" stroke="#ffa500" d="M308.8743,-132.1185C325.5146,-118.9103 344.1019,-104.1566 361.1536,-90.6219"/>
<polygon fill="#ffa500" stroke="#ffa500" points="306.5336,-129.5079 300.8771,-138.4663 310.8856,-134.9906 306.5336,-129.5079"/>
<text text-anchor="middle" x="361.5" y="-112" font-family="Helvetica,sans-Serif" font-size="10.00" fill="#000000"> &lt; String &gt;</text>
</g>
<!-- Node6 -->
<g id="node2" class="node">
<title>Node6</title>
<polygon fill="none" stroke="#bfbfbf" points="190.5,-244.5 190.5,-301.5 325.5,-301.5 325.5,-244.5 190.5,-244.5"/>
<text text-anchor="middle" x="258" y="-289.5" font-family="Helvetica,sans-Serif" font-size="10.00" fill="#000000">java::util::Comparator&lt; E &gt;</text>
<polyline fill="none" stroke="#bfbfbf" points="190.5,-282.5 325.5,-282.5 "/>
<text text-anchor="middle" x="258" y="-270.5" font-family="Helvetica,sans-Serif" font-size="10.00" fill="#000000"> </text>
<polyline fill="none" stroke="#bfbfbf" points="190.5,-263.5 325.5,-263.5 "/>
<text text-anchor="middle" x="258" y="-251.5" font-family="Helvetica,sans-Serif" font-size="10.00" fill="#000000"> </text>
</g>
<!-- Node6&#45;&gt;Node5 -->
<g id="edge1" class="edge">
<title>Node6&#45;&gt;Node5</title>
<path fill="none" stroke="#191970" d="M258,-234.1903C258,-225.1667 258,-215.6233 258,-206.8097"/>
<polygon fill="none" stroke="#191970" points="254.5001,-234.4695 258,-244.4696 261.5001,-234.4696 254.5001,-234.4695"/>
</g>
<!-- Node7&#45;&gt;Node5 -->
<g id="edge2" class="edge">
<title>Node7&#45;&gt;Node5</title>
<path fill="none" stroke="#404040" d="M134.5111,-90.6336C148.0529,-100.4709 162.4275,-110.7114 176,-120 181.4928,-123.7591 187.2357,-127.6038 193.022,-131.4189"/>
<polygon fill="none" stroke="#404040" points="193.3953,-131.6629 200.6061,-131.598 203.4394,-138.2292 196.2286,-138.2941 193.3953,-131.6629"/>
<text text-anchor="middle" x="194.5" y="-112" font-family="Helvetica,sans-Serif" font-size="10.00" fill="#000000"> +LONG</text>
</g>
<!-- Node8&#45;&gt;Node5 -->
<g id="edge4" class="edge">
<title>Node8&#45;&gt;Node5</title>
<path fill="none" stroke="#404040" d="M268.4781,-90.8246C270.7448,-96.8068 272.6861,-102.9603 274,-109 275.234,-114.6726 275.3392,-120.6086 274.7167,-126.4772"/>
<polygon fill="none" stroke="#404040" points="274.7091,-126.5195 277.5618,-133.1424 272.5457,-138.3229 269.6929,-131.7001 274.7091,-126.5195"/>
<text text-anchor="middle" x="289" y="-112" font-family="Helvetica,sans-Serif" font-size="10.00" fill="#000000"> +INT</text>
</g>
<!-- Node9&#45;&gt;Node5 -->
<g id="edge6" class="edge">
<title>Node9&#45;&gt;Node5</title>
<path fill="none" stroke="#404040" d="M411.0778,-90.7322C407.6686,-101.338 402.5835,-111.8946 395,-120 379.4376,-136.6334 358.03,-148.0524 336.7599,-155.8702"/>
<polygon fill="none" stroke="#404040" points="336.7032,-155.8893 332.307,-161.6054 325.3397,-159.7457 329.736,-154.0297 336.7032,-155.8893"/>
<text text-anchor="middle" x="427" y="-112" font-family="Helvetica,sans-Serif" font-size="10.00" fill="#000000"> +STRING</text>
</g>
</g>
</svg>
