<?xml version="1.0" encoding="UTF-8" standalone="no"?>
<!DOCTYPE svg PUBLIC "-//W3C//DTD SVG 1.1//EN"
 "http://www.w3.org/Graphics/SVG/1.1/DTD/svg11.dtd">
<!-- Generated by graphviz version 2.40.1 (20161225.0304)
 -->
<!-- Title: org.cobbzilla.util.mustache.LocaleAwareMustacheFactory.LAMFCacheLoader Pages: 1 -->
<svg width="214pt" height="204pt"
 viewBox="0.00 0.00 214.00 204.00" xmlns="http://www.w3.org/2000/svg" xmlns:xlink="http://www.w3.org/1999/xlink">
<g id="graph0" class="graph" transform="scale(1 1) rotate(0) translate(4 200)">
<title>org.cobbzilla.util.mustache.LocaleAwareMustacheFactory.LAMFCacheLoader</title>
<!-- Node2 -->
<g id="node1" class="node">
<title>Node2</title>
<polygon fill="#bfbfbf" stroke="#000000" points="0,-.5 0,-79.5 206,-79.5 206,-.5 0,-.5"/>
<text text-anchor="start" x="8" y="-67.5" font-family="Helvetica,sans-Serif" font-size="10.00" fill="#000000">org.cobbzilla.util.mustache.</text>
<text text-anchor="start" x="8" y="-56.5" font-family="Helvetica,sans-Serif" font-size="10.00" fill="#000000">LocaleAwareMustacheFactory.LAMFCache</text>
<text text-anchor="middle" x="103" y="-45.5" font-family="Helvetica,sans-Serif" font-size="10.00" fill="#000000">Loader</text>
<polyline fill="none" stroke="#000000" points="0,-38.5 206,-38.5 "/>
<text text-anchor="middle" x="103" y="-26.5" font-family="Helvetica,sans-Serif" font-size="10.00" fill="#000000"> </text>
<polyline fill="none" stroke="#000000" points="0,-19.5 206,-19.5 "/>
<text text-anchor="start" x="8" y="-7.5" font-family="Helvetica,sans-Serif" font-size="10.00" fill="#000000">+ load()</text>
</g>
<!-- Node3 -->
<g id="node2" class="node">
<title>Node3</title>
<polygon fill="none" stroke="#bfbfbf" points="46.5,-116.5 46.5,-195.5 159.5,-195.5 159.5,-116.5 46.5,-116.5"/>
<text text-anchor="start" x="54.5" y="-183.5" font-family="Helvetica,sans-Serif" font-size="10.00" fill="#000000">com::google::common</text>
<text text-anchor="start" x="54.5" y="-172.5" font-family="Helvetica,sans-Serif" font-size="10.00" fill="#000000">::cache::CacheLoader</text>
<text text-anchor="middle" x="103" y="-161.5" font-family="Helvetica,sans-Serif" font-size="10.00" fill="#000000">&lt; String, Mustache &gt;</text>
<polyline fill="none" stroke="#bfbfbf" points="46.5,-154.5 159.5,-154.5 "/>
<text text-anchor="middle" x="103" y="-142.5" font-family="Helvetica,sans-Serif" font-size="10.00" fill="#000000"> </text>
<polyline fill="none" stroke="#bfbfbf" points="46.5,-135.5 159.5,-135.5 "/>
<text text-anchor="middle" x="103" y="-123.5" font-family="Helvetica,sans-Serif" font-size="10.00" fill="#000000"> </text>
</g>
<!-- Node3&#45;&gt;Node2 -->
<g id="edge1" class="edge">
<title>Node3&#45;&gt;Node2</title>
<path fill="none" stroke="#191970" d="M103,-106.2163C103,-97.394 103,-88.3127 103,-79.8116"/>
<polygon fill="none" stroke="#191970" points="99.5001,-106.4038 103,-116.4038 106.5001,-106.4039 99.5001,-106.4038"/>
</g>
</g>
</svg>
