<?xml version="1.0" encoding="UTF-8" standalone="no"?>
<!DOCTYPE svg PUBLIC "-//W3C//DTD SVG 1.1//EN"
 "http://www.w3.org/Graphics/SVG/1.1/DTD/svg11.dtd">
<!-- Generated by graphviz version 2.40.1 (20161225.0304)
 -->
<!-- Title: org.cobbzilla.util.collection.multi.MultiResultDriverBase.exec Pages: 1 -->
<svg width="396pt" height="333pt"
 viewBox="0.00 0.00 396.00 333.00" xmlns="http://www.w3.org/2000/svg" xmlns:xlink="http://www.w3.org/1999/xlink">
<g id="graph0" class="graph" transform="scale(1 1) rotate(0) translate(4 329)">
<title>org.cobbzilla.util.collection.multi.MultiResultDriverBase.exec</title>
<!-- Node0 -->
<g id="node1" class="node">
<title>Node0</title>
<polygon fill="#bfbfbf" stroke="#000000" points="0,-147.5 0,-177.5 158,-177.5 158,-147.5 0,-147.5"/>
<text text-anchor="start" x="8" y="-165.5" font-family="Helvetica,sans-Serif" font-size="10.00" fill="#000000">org.cobbzilla.util.collection.multi.</text>
<text text-anchor="middle" x="79" y="-154.5" font-family="Helvetica,sans-Serif" font-size="10.00" fill="#000000">MultiResultDriverBase.exec</text>
</g>
<!-- Node1 -->
<g id="node2" class="node">
<title>Node1</title>
<g id="a_node2"><a xlink:href="../../de/db7/classorg_1_1cobbzilla_1_1util_1_1collection_1_1multi_1_1MultiResultDriverBase_ad4741d4504ce1a173ae3fb91ef6e5b2b.html#ad4741d4504ce1a173ae3fb91ef6e5b2b" target="_top" xlink:title="org.cobbzilla.util.collection.multi.\lMultiResultDriverBase.after">
<polygon fill="none" stroke="#000000" points="212,-294.5 212,-324.5 370,-324.5 370,-294.5 212,-294.5"/>
<text text-anchor="start" x="220" y="-312.5" font-family="Helvetica,sans-Serif" font-size="10.00" fill="#000000">org.cobbzilla.util.collection.multi.</text>
<text text-anchor="middle" x="291" y="-301.5" font-family="Helvetica,sans-Serif" font-size="10.00" fill="#000000">MultiResultDriverBase.after</text>
</a>
</g>
</g>
<!-- Node0&#45;&gt;Node1 -->
<g id="edge1" class="edge">
<title>Node0&#45;&gt;Node1</title>
<path fill="none" stroke="#191970" d="M88.7166,-177.618C106.3764,-203.8179 146.35,-257.5314 194,-285.5 197.0086,-287.2659 200.1431,-288.9025 203.3651,-290.4192"/>
<polygon fill="#191970" stroke="#191970" points="202.0742,-293.6737 212.6453,-294.3838 204.8243,-287.2365 202.0742,-293.6737"/>
</g>
<!-- Node2 -->
<g id="node3" class="node">
<title>Node2</title>
<g id="a_node3"><a xlink:href="../../de/db7/classorg_1_1cobbzilla_1_1util_1_1collection_1_1multi_1_1MultiResultDriverBase_a6409fbd0a0ea226d5596b5454efa616c.html#a6409fbd0a0ea226d5596b5454efa616c" target="_top" xlink:title="org.cobbzilla.util.collection.multi.\lMultiResultDriverBase.before">
<polygon fill="none" stroke="#000000" points="212,-245.5 212,-275.5 370,-275.5 370,-245.5 212,-245.5"/>
<text text-anchor="start" x="220" y="-263.5" font-family="Helvetica,sans-Serif" font-size="10.00" fill="#000000">org.cobbzilla.util.collection.multi.</text>
<text text-anchor="middle" x="291" y="-252.5" font-family="Helvetica,sans-Serif" font-size="10.00" fill="#000000">MultiResultDriverBase.before</text>
</a>
</g>
</g>
<!-- Node0&#45;&gt;Node2 -->
<g id="edge2" class="edge">
<title>Node0&#45;&gt;Node2</title>
<path fill="none" stroke="#191970" d="M98.2283,-177.7206C120.2004,-194.4114 157.8109,-220.893 194,-236.5 198.9283,-238.6254 204.0821,-240.5876 209.3349,-242.395"/>
<polygon fill="#191970" stroke="#191970" points="208.2776,-245.7315 218.8695,-245.483 210.4344,-239.0721 208.2776,-245.7315"/>
</g>
<!-- Node3 -->
<g id="node4" class="node">
<title>Node3</title>
<g id="a_node4"><a xlink:href="../../de/db7/classorg_1_1cobbzilla_1_1util_1_1collection_1_1multi_1_1MultiResultDriverBase_aa699696850df5fdfd6e30a94cebf901b.html#aa699696850df5fdfd6e30a94cebf901b" target="_top" xlink:title="org.cobbzilla.util.collection.multi.\lMultiResultDriverBase.failure">
<polygon fill="none" stroke="#000000" points="212,-196.5 212,-226.5 370,-226.5 370,-196.5 212,-196.5"/>
<text text-anchor="start" x="220" y="-214.5" font-family="Helvetica,sans-Serif" font-size="10.00" fill="#000000">org.cobbzilla.util.collection.multi.</text>
<text text-anchor="middle" x="291" y="-203.5" font-family="Helvetica,sans-Serif" font-size="10.00" fill="#000000">MultiResultDriverBase.failure</text>
</a>
</g>
</g>
<!-- Node0&#45;&gt;Node3 -->
<g id="edge3" class="edge">
<title>Node0&#45;&gt;Node3</title>
<path fill="none" stroke="#191970" d="M144.0477,-177.5346C166.839,-182.8024 192.615,-188.7601 216.1442,-194.1984"/>
<polygon fill="#191970" stroke="#191970" points="215.5439,-197.6519 226.0753,-196.4938 217.1203,-190.8317 215.5439,-197.6519"/>
</g>
<!-- Node4 -->
<g id="node5" class="node">
<title>Node4</title>
<g id="a_node5"><a xlink:href="../../de/db7/classorg_1_1cobbzilla_1_1util_1_1collection_1_1multi_1_1MultiResultDriverBase_a0de7a5a8972c939077e35e4253e81e06.html#a0de7a5a8972c939077e35e4253e81e06" target="_top" xlink:title="org.cobbzilla.util.collection.multi.\lMultiResultDriverBase.failureMessage">
<polygon fill="none" stroke="#000000" points="199,-147.5 199,-177.5 383,-177.5 383,-147.5 199,-147.5"/>
<text text-anchor="start" x="207" y="-165.5" font-family="Helvetica,sans-Serif" font-size="10.00" fill="#000000">org.cobbzilla.util.collection.multi.</text>
<text text-anchor="middle" x="291" y="-154.5" font-family="Helvetica,sans-Serif" font-size="10.00" fill="#000000">MultiResultDriverBase.failureMessage</text>
</a>
</g>
</g>
<!-- Node0&#45;&gt;Node4 -->
<g id="edge4" class="edge">
<title>Node0&#45;&gt;Node4</title>
<path fill="none" stroke="#191970" d="M158.2425,-162.5C168.1216,-162.5 178.3325,-162.5 188.5004,-162.5"/>
<polygon fill="#191970" stroke="#191970" points="188.6401,-166.0001 198.6401,-162.5 188.64,-159.0001 188.6401,-166.0001"/>
</g>
<!-- Node5 -->
<g id="node6" class="node">
<title>Node5</title>
<g id="a_node6"><a xlink:href="../../de/db7/classorg_1_1cobbzilla_1_1util_1_1collection_1_1multi_1_1MultiResultDriverBase_a51eb35292ec5c6054dff0b5a3eb96f26.html#a51eb35292ec5c6054dff0b5a3eb96f26" target="_top" xlink:title="org.cobbzilla.util.collection.multi.\lMultiResultDriverBase.run">
<polygon fill="none" stroke="#000000" points="212,-98.5 212,-128.5 370,-128.5 370,-98.5 212,-98.5"/>
<text text-anchor="start" x="220" y="-116.5" font-family="Helvetica,sans-Serif" font-size="10.00" fill="#000000">org.cobbzilla.util.collection.multi.</text>
<text text-anchor="middle" x="291" y="-105.5" font-family="Helvetica,sans-Serif" font-size="10.00" fill="#000000">MultiResultDriverBase.run</text>
</a>
</g>
</g>
<!-- Node0&#45;&gt;Node5 -->
<g id="edge5" class="edge">
<title>Node0&#45;&gt;Node5</title>
<path fill="none" stroke="#191970" d="M144.0477,-147.4654C166.839,-142.1976 192.615,-136.2399 216.1442,-130.8016"/>
<polygon fill="#191970" stroke="#191970" points="217.1203,-134.1683 226.0753,-128.5062 215.5439,-127.3481 217.1203,-134.1683"/>
</g>
<!-- Node6 -->
<g id="node7" class="node">
<title>Node6</title>
<g id="a_node7"><a xlink:href="../../de/db7/classorg_1_1cobbzilla_1_1util_1_1collection_1_1multi_1_1MultiResultDriverBase_a43a795fb1bab6730cb87fad106463727.html#a43a795fb1bab6730cb87fad106463727" target="_top" xlink:title="org.cobbzilla.util.collection.multi.\lMultiResultDriverBase.success">
<polygon fill="none" stroke="#000000" points="212,-49.5 212,-79.5 370,-79.5 370,-49.5 212,-49.5"/>
<text text-anchor="start" x="220" y="-67.5" font-family="Helvetica,sans-Serif" font-size="10.00" fill="#000000">org.cobbzilla.util.collection.multi.</text>
<text text-anchor="middle" x="291" y="-56.5" font-family="Helvetica,sans-Serif" font-size="10.00" fill="#000000">MultiResultDriverBase.success</text>
</a>
</g>
</g>
<!-- Node0&#45;&gt;Node6 -->
<g id="edge6" class="edge">
<title>Node0&#45;&gt;Node6</title>
<path fill="none" stroke="#191970" d="M98.6911,-147.2667C120.7735,-130.8558 158.1978,-105.0149 194,-89.5 199.7594,-87.0042 205.8229,-84.7151 211.9904,-82.6242"/>
<polygon fill="#191970" stroke="#191970" points="213.284,-85.8851 221.7389,-79.5004 211.1478,-79.219 213.284,-85.8851"/>
</g>
<!-- Node7 -->
<g id="node8" class="node">
<title>Node7</title>
<g id="a_node8"><a xlink:href="../../de/db7/classorg_1_1cobbzilla_1_1util_1_1collection_1_1multi_1_1MultiResultDriverBase_a9f05ce4aa877f8d57308fca1c0db29ad.html#a9f05ce4aa877f8d57308fca1c0db29ad" target="_top" xlink:title="org.cobbzilla.util.collection.multi.\lMultiResultDriverBase.successMessage">
<polygon fill="none" stroke="#000000" points="194,-.5 194,-30.5 388,-30.5 388,-.5 194,-.5"/>
<text text-anchor="start" x="202" y="-18.5" font-family="Helvetica,sans-Serif" font-size="10.00" fill="#000000">org.cobbzilla.util.collection.multi.</text>
<text text-anchor="middle" x="291" y="-7.5" font-family="Helvetica,sans-Serif" font-size="10.00" fill="#000000">MultiResultDriverBase.successMessage</text>
</a>
</g>
</g>
<!-- Node0&#45;&gt;Node7 -->
<g id="edge7" class="edge">
<title>Node0&#45;&gt;Node7</title>
<path fill="none" stroke="#191970" d="M89.0587,-147.1405C106.9501,-121.0815 146.8853,-68.3326 194,-40.5 197.7058,-38.3108 201.6018,-36.3112 205.6164,-34.4851"/>
<polygon fill="#191970" stroke="#191970" points="207.2654,-37.5906 215.1658,-30.5312 204.5875,-31.123 207.2654,-37.5906"/>
</g>
</g>
</svg>
