<?xml version="1.0" encoding="UTF-8" standalone="no"?>
<!DOCTYPE svg PUBLIC "-//W3C//DTD SVG 1.1//EN"
 "http://www.w3.org/Graphics/SVG/1.1/DTD/svg11.dtd">
<!-- Generated by graphviz version 2.40.1 (20161225.0304)
 -->
<!-- Title: org.cobbzilla.util.json.JsonUtil.fromJsonOrDie Pages: 1 -->
<svg width="457pt" height="284pt"
 viewBox="0.00 0.00 457.00 284.00" xmlns="http://www.w3.org/2000/svg" xmlns:xlink="http://www.w3.org/1999/xlink">
<g id="graph0" class="graph" transform="scale(1 1) rotate(0) translate(4 280)">
<title>org.cobbzilla.util.json.JsonUtil.fromJsonOrDie</title>
<!-- Node2 -->
<g id="node1" class="node">
<title>Node2</title>
<polygon fill="#bfbfbf" stroke="#000000" points="0,-122.5 0,-152.5 122,-152.5 122,-122.5 0,-122.5"/>
<text text-anchor="start" x="8" y="-140.5" font-family="Helvetica,sans-Serif" font-size="10.00" fill="#000000">org.cobbzilla.util.json.</text>
<text text-anchor="middle" x="61" y="-129.5" font-family="Helvetica,sans-Serif" font-size="10.00" fill="#000000">JsonUtil.fromJsonOrDie</text>
</g>
<!-- Node3 -->
<g id="node2" class="node">
<title>Node3</title>
<g id="a_node2"><a xlink:href="../../dc/d2c/classorg_1_1cobbzilla_1_1util_1_1json_1_1JsonUtil_ae4518d62d0beea29cf62cdaaef0aebb5.html#ae4518d62d0beea29cf62cdaaef0aebb5" target="_top" xlink:title="org.cobbzilla.util.json.\lJsonUtil.fromJsonOrDie">
<polygon fill="none" stroke="#000000" points="169,-245.5 169,-275.5 291,-275.5 291,-245.5 169,-245.5"/>
<text text-anchor="start" x="177" y="-263.5" font-family="Helvetica,sans-Serif" font-size="10.00" fill="#000000">org.cobbzilla.util.json.</text>
<text text-anchor="middle" x="230" y="-252.5" font-family="Helvetica,sans-Serif" font-size="10.00" fill="#000000">JsonUtil.fromJsonOrDie</text>
</a>
</g>
</g>
<!-- Node2&#45;&gt;Node3 -->
<g id="edge1" class="edge">
<title>Node2&#45;&gt;Node3</title>
<path fill="none" stroke="#191970" d="M78.3451,-160.7512C96.0994,-183.0577 125.6142,-216.2554 158,-236.5 163.363,-239.8524 169.2461,-242.7914 175.2657,-245.3542"/>
<polygon fill="#191970" stroke="#191970" points="81.0435,-158.5199 72.1349,-152.785 75.5228,-162.8236 81.0435,-158.5199"/>
</g>
<!-- Node4 -->
<g id="node3" class="node">
<title>Node4</title>
<g id="a_node3"><a xlink:href="../../d3/d9f/classorg_1_1cobbzilla_1_1util_1_1http_1_1HttpResponseBean_a785b5260bd743d27696b3535a5c3a664.html#a785b5260bd743d27696b3535a5c3a664" target="_top" xlink:title="org.cobbzilla.util.http.\lHttpResponseBean.getEntity">
<polygon fill="none" stroke="#000000" points="158,-196.5 158,-226.5 302,-226.5 302,-196.5 158,-196.5"/>
<text text-anchor="start" x="166" y="-214.5" font-family="Helvetica,sans-Serif" font-size="10.00" fill="#000000">org.cobbzilla.util.http.</text>
<text text-anchor="middle" x="230" y="-203.5" font-family="Helvetica,sans-Serif" font-size="10.00" fill="#000000">HttpResponseBean.getEntity</text>
</a>
</g>
</g>
<!-- Node2&#45;&gt;Node4 -->
<g id="edge2" class="edge">
<title>Node2&#45;&gt;Node4</title>
<path fill="none" stroke="#191970" d="M96.6571,-157.5561C114.721,-167.2827 137.1858,-178.7282 158,-187.5 165.4066,-190.6214 173.3715,-193.6179 181.2081,-196.3719"/>
<polygon fill="#191970" stroke="#191970" points="98.1004,-154.3569 87.644,-152.6497 94.7536,-160.5049 98.1004,-154.3569"/>
</g>
<!-- Node6 -->
<g id="node5" class="node">
<title>Node6</title>
<g id="a_node5"><a xlink:href="../../dc/d2c/classorg_1_1cobbzilla_1_1util_1_1json_1_1JsonUtil_ac9c9842a3a7fc103b770c6f6bd9fd989.html#ac9c9842a3a7fc103b770c6f6bd9fd989" target="_top" xlink:title="org.cobbzilla.util.json.\lJsonUtil.json">
<polygon fill="none" stroke="#000000" points="174.5,-147.5 174.5,-177.5 285.5,-177.5 285.5,-147.5 174.5,-147.5"/>
<text text-anchor="start" x="182.5" y="-165.5" font-family="Helvetica,sans-Serif" font-size="10.00" fill="#000000">org.cobbzilla.util.json.</text>
<text text-anchor="middle" x="230" y="-154.5" font-family="Helvetica,sans-Serif" font-size="10.00" fill="#000000">JsonUtil.json</text>
</a>
</g>
</g>
<!-- Node2&#45;&gt;Node6 -->
<g id="edge4" class="edge">
<title>Node2&#45;&gt;Node6</title>
<path fill="none" stroke="#191970" d="M132.1765,-148.0291C146.29,-150.1169 160.9122,-152.2799 174.4144,-154.2773"/>
<polygon fill="#191970" stroke="#191970" points="132.4174,-144.5267 122.0129,-146.5256 131.393,-151.4513 132.4174,-144.5267"/>
</g>
<!-- Node7 -->
<g id="node6" class="node">
<title>Node7</title>
<g id="a_node6"><a xlink:href="../../dc/d2c/classorg_1_1cobbzilla_1_1util_1_1json_1_1JsonUtil_a507e163f042dd19d61801ca0ac64b423.html#a507e163f042dd19d61801ca0ac64b423" target="_top" xlink:title="org.cobbzilla.util.json.\lJsonUtil.jsonWithComments">
<polygon fill="none" stroke="#000000" points="159,-98.5 159,-128.5 301,-128.5 301,-98.5 159,-98.5"/>
<text text-anchor="start" x="167" y="-116.5" font-family="Helvetica,sans-Serif" font-size="10.00" fill="#000000">org.cobbzilla.util.json.</text>
<text text-anchor="middle" x="230" y="-105.5" font-family="Helvetica,sans-Serif" font-size="10.00" fill="#000000">JsonUtil.jsonWithComments</text>
</a>
</g>
</g>
<!-- Node2&#45;&gt;Node7 -->
<g id="edge5" class="edge">
<title>Node2&#45;&gt;Node7</title>
<path fill="none" stroke="#191970" d="M131.9154,-127.4292C140.7824,-126.17 149.8543,-124.8816 158.7268,-123.6216"/>
<polygon fill="#191970" stroke="#191970" points="131.4214,-123.9641 122.0129,-128.8354 132.4057,-130.8946 131.4214,-123.9641"/>
</g>
<!-- Node8 -->
<g id="node7" class="node">
<title>Node8</title>
<g id="a_node7"><a xlink:href="../../dc/d2c/classorg_1_1cobbzilla_1_1util_1_1json_1_1JsonUtil_a4d7991d93b20e6e89ab14af0bae666ee.html#a4d7991d93b20e6e89ab14af0bae666ee" target="_top" xlink:title="org.cobbzilla.util.json.\lJsonUtil.nodeValue">
<polygon fill="none" stroke="#000000" points="174.5,-49.5 174.5,-79.5 285.5,-79.5 285.5,-49.5 174.5,-49.5"/>
<text text-anchor="start" x="182.5" y="-67.5" font-family="Helvetica,sans-Serif" font-size="10.00" fill="#000000">org.cobbzilla.util.json.</text>
<text text-anchor="middle" x="230" y="-56.5" font-family="Helvetica,sans-Serif" font-size="10.00" fill="#000000">JsonUtil.nodeValue</text>
</a>
</g>
</g>
<!-- Node2&#45;&gt;Node8 -->
<g id="edge6" class="edge">
<title>Node2&#45;&gt;Node8</title>
<path fill="none" stroke="#191970" d="M97.9589,-117.85C115.8479,-108.6917 137.7832,-97.9727 158,-89.5 166.2985,-86.0222 175.2685,-82.628 183.9678,-79.5185"/>
<polygon fill="#191970" stroke="#191970" points="96.2813,-114.7772 89.0035,-122.4768 99.4944,-120.9962 96.2813,-114.7772"/>
</g>
<!-- Node9 -->
<g id="node8" class="node">
<title>Node9</title>
<g id="a_node8"><a xlink:href="../../dc/d2c/classorg_1_1cobbzilla_1_1util_1_1json_1_1JsonUtil_acf8269fbc2da4585b2735bdfdc63a360.html#acf8269fbc2da4585b2735bdfdc63a360" target="_top" xlink:title="org.cobbzilla.util.json.\lJsonUtil.toNode">
<polygon fill="none" stroke="#000000" points="174.5,-.5 174.5,-30.5 285.5,-30.5 285.5,-.5 174.5,-.5"/>
<text text-anchor="start" x="182.5" y="-18.5" font-family="Helvetica,sans-Serif" font-size="10.00" fill="#000000">org.cobbzilla.util.json.</text>
<text text-anchor="middle" x="230" y="-7.5" font-family="Helvetica,sans-Serif" font-size="10.00" fill="#000000">JsonUtil.toNode</text>
</a>
</g>
</g>
<!-- Node2&#45;&gt;Node9 -->
<g id="edge7" class="edge">
<title>Node2&#45;&gt;Node9</title>
<path fill="none" stroke="#191970" d="M78.7993,-114.4553C96.6998,-92.6806 126.1478,-60.4608 158,-40.5 164.0547,-36.7057 170.7587,-33.3998 177.5686,-30.545"/>
<polygon fill="#191970" stroke="#191970" points="76.0736,-112.2596 72.5232,-122.2419 81.5237,-116.6525 76.0736,-112.2596"/>
</g>
<!-- Node5 -->
<g id="node4" class="node">
<title>Node5</title>
<g id="a_node4"><a xlink:href="../../d9/d6b/classorg_1_1cobbzilla_1_1util_1_1http_1_1HttpUtil_a79493a20601d122c25f84a7fc0f63e8c.html#a79493a20601d122c25f84a7fc0f63e8c" target="_top" xlink:title="org.cobbzilla.util.http.\lHttpUtil.getResponse">
<polygon fill="none" stroke="#000000" points="338,-196.5 338,-226.5 449,-226.5 449,-196.5 338,-196.5"/>
<text text-anchor="start" x="346" y="-214.5" font-family="Helvetica,sans-Serif" font-size="10.00" fill="#000000">org.cobbzilla.util.http.</text>
<text text-anchor="middle" x="393.5" y="-203.5" font-family="Helvetica,sans-Serif" font-size="10.00" fill="#000000">HttpUtil.getResponse</text>
</a>
</g>
</g>
<!-- Node4&#45;&gt;Node5 -->
<g id="edge3" class="edge">
<title>Node4&#45;&gt;Node5</title>
<path fill="none" stroke="#191970" d="M312.3371,-211.5C320.9978,-211.5 329.6497,-211.5 337.9039,-211.5"/>
<polygon fill="#191970" stroke="#191970" points="312.1894,-208.0001 302.1894,-211.5 312.1894,-215.0001 312.1894,-208.0001"/>
</g>
</g>
</svg>
