<?xml version="1.0" encoding="UTF-8" standalone="no"?>
<!DOCTYPE svg PUBLIC "-//W3C//DTD SVG 1.1//EN"
 "http://www.w3.org/Graphics/SVG/1.1/DTD/svg11.dtd">
<!-- Generated by graphviz version 2.40.1 (20161225.0304)
 -->
<!-- Title: org.cobbzilla.util.json.JsonUtil.mergeJsonNodes Pages: 1 -->
<!--zoomable 150 -->
<svg id="main" version="1.1" xmlns="http://www.w3.org/2000/svg" xmlns:xlink="http://www.w3.org/1999/xlink" xml:space="preserve" onload="init(evt)">
<style type="text/css"><![CDATA[
.edge:hover path { stroke: red; }
.edge:hover polygon { stroke: red; fill: red; }
]]></style>
<script type="text/javascript"><![CDATA[
var edges = document.getElementsByTagName('g');
if (edges && edges.length) {
  for (var i=0;i<edges.length;i++) {
    if (edges[i].id.substr(0,4)=='edge') {
      edges[i].setAttribute('class','edge');
    }
  }
}
]]></script>
        <defs>
                <circle id="rim" cx="0" cy="0" r="7"/>
                <circle id="rim2" cx="0" cy="0" r="3.5"/>
                <g id="zoomPlus">
                        <use xlink:href="#rim" fill="#404040">
                                <set attributeName="fill" to="#808080" begin="zoomplus.mouseover" end="zoomplus.mouseout"/>
                        </use>
                        <path d="M-4,0h8M0,-4v8" fill="none" stroke="white" stroke-width="1.5" pointer-events="none"/>
                </g>
                <g id="zoomMin">
                        <use xlink:href="#rim" fill="#404040">
                                <set attributeName="fill" to="#808080" begin="zoomminus.mouseover" end="zoomminus.mouseout"/>
                        </use>
                        <path d="M-4,0h8" fill="none" stroke="white" stroke-width="1.5" pointer-events="none"/>
                </g>
                <g id="dirArrow">
                        <path fill="none" stroke="white" stroke-width="1.5" d="M0,-3.0v7 M-2.5,-0.5L0,-3.0L2.5,-0.5"/>
                </g>
               <g id="resetDef">
                       <use xlink:href="#rim2" fill="#404040">
                               <set attributeName="fill" to="#808080" begin="reset.mouseover" end="reset.mouseout"/>
                       </use>
               </g>
        </defs>

<script type="text/javascript">
var viewWidth = 749;
var viewHeight = 150;
var sectionId = 'dynsection-0';
</script>
<script xlink:href="../../svgpan.js"/>
<svg id="graph" class="graph">
<g id="viewport">
<title>org.cobbzilla.util.json.JsonUtil.mergeJsonNodes</title>
<!-- Node0 -->
<g id="node1" class="node">
<title>Node0</title>
<polygon fill="#bfbfbf" stroke="#000000" points="0,-49.5 0,-79.5 132,-79.5 132,-49.5 0,-49.5"/>
<text text-anchor="start" x="8" y="-67.5" font-family="Helvetica,sans-Serif" font-size="10.00" fill="#000000">org.cobbzilla.util.json.</text>
<text text-anchor="middle" x="66" y="-56.5" font-family="Helvetica,sans-Serif" font-size="10.00" fill="#000000">JsonUtil.mergeJsonNodes</text>
</g>
<!-- Node1 -->
<g id="node2" class="node">
<title>Node1</title>
<g id="a_node2"><a xlink:href="../../dc/d2c/classorg_1_1cobbzilla_1_1util_1_1json_1_1JsonUtil_a012540ca836ef7dea8ae971437fb82c7.html#a012540ca836ef7dea8ae971437fb82c7" target="_top" xlink:title="org.cobbzilla.util.json.\lJsonUtil.fromJson">
<polygon fill="none" stroke="#000000" points="168,-49.5 168,-79.5 279,-79.5 279,-49.5 168,-49.5"/>
<text text-anchor="start" x="176" y="-67.5" font-family="Helvetica,sans-Serif" font-size="10.00" fill="#000000">org.cobbzilla.util.json.</text>
<text text-anchor="middle" x="223.5" y="-56.5" font-family="Helvetica,sans-Serif" font-size="10.00" fill="#000000">JsonUtil.fromJson</text>
</a>
</g>
</g>
<!-- Node0&#45;&gt;Node1 -->
<g id="edge1" class="edge">
<title>Node0&#45;&gt;Node1</title>
<path fill="none" stroke="#191970" d="M132.3377,-64.5C140.7053,-64.5 149.2646,-64.5 157.6249,-64.5"/>
<polygon fill="#191970" stroke="#191970" points="157.6978,-68.0001 167.6978,-64.5 157.6977,-61.0001 157.6978,-68.0001"/>
</g>
<!-- Node2 -->
<g id="node3" class="node">
<title>Node2</title>
<g id="a_node3"><a xlink:href="../../dc/d2c/classorg_1_1cobbzilla_1_1util_1_1json_1_1JsonUtil_a4181f7525f80c694d58881fca5fe097f.html#a4181f7525f80c694d58881fca5fe097f" target="_top" xlink:title="org.cobbzilla.util.json.\lJsonUtil.json">
<polygon fill="none" stroke="#000000" points="325.5,-93.5 325.5,-123.5 436.5,-123.5 436.5,-93.5 325.5,-93.5"/>
<text text-anchor="start" x="333.5" y="-111.5" font-family="Helvetica,sans-Serif" font-size="10.00" fill="#000000">org.cobbzilla.util.json.</text>
<text text-anchor="middle" x="381" y="-100.5" font-family="Helvetica,sans-Serif" font-size="10.00" fill="#000000">JsonUtil.json</text>
</a>
</g>
</g>
<!-- Node0&#45;&gt;Node2 -->
<g id="edge7" class="edge">
<title>Node0&#45;&gt;Node2</title>
<path fill="none" stroke="#191970" d="M123.7094,-79.5355C138.0992,-82.8812 153.5481,-86.1328 168,-88.5 216.9298,-96.5146 272.7485,-101.609 314.9667,-104.6494"/>
<polygon fill="#191970" stroke="#191970" points="314.9008,-108.1533 325.1208,-105.3601 315.3896,-101.1704 314.9008,-108.1533"/>
</g>
<!-- Node6 -->
<g id="node7" class="node">
<title>Node6</title>
<g id="a_node7"><a xlink:href="../../dc/d2c/classorg_1_1cobbzilla_1_1util_1_1json_1_1JsonUtil_a76d81863023ff53dcb9a04fa2d7adda0.html#a76d81863023ff53dcb9a04fa2d7adda0" target="_top" xlink:title="org.cobbzilla.util.json.\lJsonUtil.mergeNodes">
<polygon fill="none" stroke="#000000" points="168,-.5 168,-30.5 279,-30.5 279,-.5 168,-.5"/>
<text text-anchor="start" x="176" y="-18.5" font-family="Helvetica,sans-Serif" font-size="10.00" fill="#000000">org.cobbzilla.util.json.</text>
<text text-anchor="middle" x="223.5" y="-7.5" font-family="Helvetica,sans-Serif" font-size="10.00" fill="#000000">JsonUtil.mergeNodes</text>
</a>
</g>
</g>
<!-- Node0&#45;&gt;Node6 -->
<g id="edge8" class="edge">
<title>Node0&#45;&gt;Node6</title>
<path fill="none" stroke="#191970" d="M114.5403,-49.3986C130.6339,-44.3917 148.7114,-38.7676 165.4467,-33.561"/>
<polygon fill="#191970" stroke="#191970" points="166.6111,-36.8643 175.1199,-30.5516 164.5316,-30.1803 166.6111,-36.8643"/>
</g>
<!-- Node1&#45;&gt;Node2 -->
<g id="edge2" class="edge">
<title>Node1&#45;&gt;Node2</title>
<path fill="none" stroke="#191970" d="M277.2621,-79.5192C290.1154,-83.11 303.9595,-86.9776 317.2162,-90.681"/>
<polygon fill="#191970" stroke="#191970" points="316.64,-94.154 327.213,-93.4738 318.5235,-87.4122 316.64,-94.154"/>
</g>
<!-- Node5 -->
<g id="node6" class="node">
<title>Node5</title>
<g id="a_node6"><a xlink:href="../../dc/d81/classorg_1_1cobbzilla_1_1util_1_1io_1_1StreamUtil_a242c4cb3ac88a027891f05b372294875.html#a242c4cb3ac88a027891f05b372294875" target="_top" xlink:title="org.cobbzilla.util.io.Stream\lUtil.toString">
<polygon fill="none" stroke="#000000" points="315,-44.5 315,-74.5 447,-74.5 447,-44.5 315,-44.5"/>
<text text-anchor="start" x="323" y="-62.5" font-family="Helvetica,sans-Serif" font-size="10.00" fill="#000000">org.cobbzilla.util.io.Stream</text>
<text text-anchor="middle" x="381" y="-51.5" font-family="Helvetica,sans-Serif" font-size="10.00" fill="#000000">Util.toString</text>
</a>
</g>
</g>
<!-- Node1&#45;&gt;Node5 -->
<g id="edge6" class="edge">
<title>Node1&#45;&gt;Node5</title>
<path fill="none" stroke="#191970" d="M279.0286,-62.7372C287.3675,-62.4725 296.088,-62.1956 304.7676,-61.9201"/>
<polygon fill="#191970" stroke="#191970" points="305.0288,-65.4136 314.9127,-61.598 304.8066,-58.4172 305.0288,-65.4136"/>
</g>
<!-- Node3 -->
<g id="node4" class="node">
<title>Node3</title>
<g id="a_node4"><a xlink:href="../../dc/d2c/classorg_1_1cobbzilla_1_1util_1_1json_1_1JsonUtil_ae4b0ddbe1c463c41b05503ea67eb8f10.html#ae4b0ddbe1c463c41b05503ea67eb8f10" target="_top" xlink:title="org.cobbzilla.util.json.\lJsonUtil.toJsonOrDie">
<polygon fill="none" stroke="#000000" points="483,-93.5 483,-123.5 594,-123.5 594,-93.5 483,-93.5"/>
<text text-anchor="start" x="491" y="-111.5" font-family="Helvetica,sans-Serif" font-size="10.00" fill="#000000">org.cobbzilla.util.json.</text>
<text text-anchor="middle" x="538.5" y="-100.5" font-family="Helvetica,sans-Serif" font-size="10.00" fill="#000000">JsonUtil.toJsonOrDie</text>
</a>
</g>
</g>
<!-- Node2&#45;&gt;Node3 -->
<g id="edge3" class="edge">
<title>Node2&#45;&gt;Node3</title>
<path fill="none" stroke="#191970" d="M436.5286,-108.5C448.2911,-108.5 460.8127,-108.5 472.9081,-108.5"/>
<polygon fill="#191970" stroke="#191970" points="472.942,-112.0001 482.942,-108.5 472.9419,-105.0001 472.942,-112.0001"/>
</g>
<!-- Node4 -->
<g id="node5" class="node">
<title>Node4</title>
<g id="a_node5"><a xlink:href="../../dc/d2c/classorg_1_1cobbzilla_1_1util_1_1json_1_1JsonUtil_aa10cd1ef91d278b645230ab79181d51e.html#aa10cd1ef91d278b645230ab79181d51e" target="_top" xlink:title="org.cobbzilla.util.json.\lJsonUtil.toJson">
<polygon fill="none" stroke="#000000" points="630,-93.5 630,-123.5 741,-123.5 741,-93.5 630,-93.5"/>
<text text-anchor="start" x="638" y="-111.5" font-family="Helvetica,sans-Serif" font-size="10.00" fill="#000000">org.cobbzilla.util.json.</text>
<text text-anchor="middle" x="685.5" y="-100.5" font-family="Helvetica,sans-Serif" font-size="10.00" fill="#000000">JsonUtil.toJson</text>
</a>
</g>
</g>
<!-- Node3&#45;&gt;Node4 -->
<g id="edge4" class="edge">
<title>Node3&#45;&gt;Node4</title>
<path fill="none" stroke="#191970" d="M594.0744,-108.5C602.4894,-108.5 611.2383,-108.5 619.8421,-108.5"/>
<polygon fill="#191970" stroke="#191970" points="619.8471,-112.0001 629.847,-108.5 619.847,-105.0001 619.8471,-112.0001"/>
</g>
<!-- Node4&#45;&gt;Node4 -->
<g id="edge5" class="edge">
<title>Node4&#45;&gt;Node4</title>
<path fill="none" stroke="#191970" d="M660.0565,-123.659C653.9212,-133.0566 662.4023,-142 685.5,-142 699.5751,-142 708.2226,-138.679 711.4424,-133.9579"/>
<polygon fill="#191970" stroke="#191970" points="714.9234,-133.4779 710.9435,-123.659 707.9316,-133.8167 714.9234,-133.4779"/>
</g>
</g>
</svg>
        <g id="navigator" transform="translate(0 0)" fill="#404254">
                <rect fill="#f2f5e9" fill-opacity="0.5" stroke="#606060" stroke-width=".5" x="0" y="0" width="60" height="60"/>
                <use id="zoomplus" xlink:href="#zoomPlus" x="17" y="9" onmousedown="handleZoom(evt,'in')"/>
                <use id="zoomminus" xlink:href="#zoomMin" x="42" y="9" onmousedown="handleZoom(evt,'out')"/>
                <use id="reset" xlink:href="#resetDef" x="30" y="36" onmousedown="handleReset()"/>
                <g id="arrowUp" xlink:href="#dirArrow" transform="translate(30 24)" onmousedown="handlePan(0,-1)">
                  <use xlink:href="#rim" fill="#404040">
                        <set attributeName="fill" to="#808080" begin="arrowUp.mouseover" end="arrowUp.mouseout"/>
                  </use>
                  <path fill="none" stroke="white" stroke-width="1.5" d="M0,-3.0v7 M-2.5,-0.5L0,-3.0L2.5,-0.5"/>
                </g>
                <g id="arrowRight" xlink:href="#dirArrow" transform="rotate(90) translate(36 -43)" onmousedown="handlePan(1,0)">
                  <use xlink:href="#rim" fill="#404040">
                        <set attributeName="fill" to="#808080" begin="arrowRight.mouseover" end="arrowRight.mouseout"/>
                  </use>
                  <path fill="none" stroke="white" stroke-width="1.5" d="M0,-3.0v7 M-2.5,-0.5L0,-3.0L2.5,-0.5"/>
                </g>
                <g id="arrowDown" xlink:href="#dirArrow" transform="rotate(180) translate(-30 -48)" onmousedown="handlePan(0,1)">
                  <use xlink:href="#rim" fill="#404040">
                        <set attributeName="fill" to="#808080" begin="arrowDown.mouseover" end="arrowDown.mouseout"/>
                  </use>
                  <path fill="none" stroke="white" stroke-width="1.5" d="M0,-3.0v7 M-2.5,-0.5L0,-3.0L2.5,-0.5"/>
                </g>
                <g id="arrowLeft" xlink:href="#dirArrow" transform="rotate(270) translate(-36 17)" onmousedown="handlePan(-1,0)">
                  <use xlink:href="#rim" fill="#404040">
                        <set attributeName="fill" to="#808080" begin="arrowLeft.mouseover" end="arrowLeft.mouseout"/>
                  </use>
                  <path fill="none" stroke="white" stroke-width="1.5" d="M0,-3.0v7 M-2.5,-0.5L0,-3.0L2.5,-0.5"/>
                </g>
        </g>
        <svg viewBox="0 0 15 15" width="100%" height="30px" preserveAspectRatio="xMaxYMin meet">
         <g id="arrow_out" transform="scale(0.3 0.3)">
          <a xlink:href="classorg_1_1cobbzilla_1_1util_1_1json_1_1JsonUtil_ad4d54d7709ab54d8cd27595ff46d3223_ad4d54d7709ab54d8cd27595ff46d3223_cgraph_org.svg" target="_base">
           <rect id="button" ry="5" rx="5" y="6" x="6" height="38" width="38"
                fill="#f2f5e9" fill-opacity="0.5" stroke="#606060" stroke-width="1.0"/>
           <path id="arrow"
             d="M 11.500037,31.436501 C 11.940474,20.09759 22.043105,11.32322 32.158766,21.979434 L 37.068811,17.246167 C 37.068811,17.246167 37.088388,32 37.088388,32 L 22.160133,31.978069 C 22.160133,31.978069 26.997745,27.140456 26.997745,27.140456 C 18.528582,18.264221 13.291696,25.230495 11.500037,31.436501 z"
             style="fill:#404040;"/>
          </a>
         </g>
        </svg>
</svg>
