<?xml version="1.0" encoding="UTF-8" standalone="no"?>
<!DOCTYPE svg PUBLIC "-//W3C//DTD SVG 1.1//EN"
 "http://www.w3.org/Graphics/SVG/1.1/DTD/svg11.dtd">
<!-- Generated by graphviz version 2.40.1 (20161225.0304)
 -->
<!-- Title: org.cobbzilla.util.json.JsonUtil.fromJson Pages: 1 -->
<svg width="733pt" height="150pt"
 viewBox="0.00 0.00 733.00 150.00" xmlns="http://www.w3.org/2000/svg" xmlns:xlink="http://www.w3.org/1999/xlink">
<g id="graph0" class="graph" transform="scale(1 1) rotate(0) translate(4 146)">
<title>org.cobbzilla.util.json.JsonUtil.fromJson</title>
<!-- Node0 -->
<g id="node1" class="node">
<title>Node0</title>
<polygon fill="#bfbfbf" stroke="#000000" points="0,-49.5 0,-79.5 111,-79.5 111,-49.5 0,-49.5"/>
<text text-anchor="start" x="8" y="-67.5" font-family="Helvetica,sans-Serif" font-size="10.00" fill="#000000">org.cobbzilla.util.json.</text>
<text text-anchor="middle" x="55.5" y="-56.5" font-family="Helvetica,sans-Serif" font-size="10.00" fill="#000000">JsonUtil.fromJson</text>
</g>
<!-- Node1 -->
<g id="node2" class="node">
<title>Node1</title>
<g id="a_node2"><a xlink:href="../../dc/d2c/classorg_1_1cobbzilla_1_1util_1_1json_1_1JsonUtil_a012540ca836ef7dea8ae971437fb82c7.html#a012540ca836ef7dea8ae971437fb82c7" target="_top" xlink:title="org.cobbzilla.util.json.\lJsonUtil.fromJson">
<polygon fill="none" stroke="#000000" points="149.5,-49.5 149.5,-79.5 260.5,-79.5 260.5,-49.5 149.5,-49.5"/>
<text text-anchor="start" x="157.5" y="-67.5" font-family="Helvetica,sans-Serif" font-size="10.00" fill="#000000">org.cobbzilla.util.json.</text>
<text text-anchor="middle" x="205" y="-56.5" font-family="Helvetica,sans-Serif" font-size="10.00" fill="#000000">JsonUtil.fromJson</text>
</a>
</g>
</g>
<!-- Node0&#45;&gt;Node1 -->
<g id="edge1" class="edge">
<title>Node0&#45;&gt;Node1</title>
<path fill="none" stroke="#191970" d="M111.1683,-64.5C120.3132,-64.5 129.8664,-64.5 139.229,-64.5"/>
<polygon fill="#191970" stroke="#191970" points="139.2853,-68.0001 149.2852,-64.5 139.2852,-61.0001 139.2853,-68.0001"/>
</g>
<!-- Node2 -->
<g id="node3" class="node">
<title>Node2</title>
<g id="a_node3"><a xlink:href="../../dc/d2c/classorg_1_1cobbzilla_1_1util_1_1json_1_1JsonUtil_a4181f7525f80c694d58881fca5fe097f.html#a4181f7525f80c694d58881fca5fe097f" target="_top" xlink:title="org.cobbzilla.util.json.\lJsonUtil.json">
<polygon fill="none" stroke="#000000" points="309.5,-93.5 309.5,-123.5 420.5,-123.5 420.5,-93.5 309.5,-93.5"/>
<text text-anchor="start" x="317.5" y="-111.5" font-family="Helvetica,sans-Serif" font-size="10.00" fill="#000000">org.cobbzilla.util.json.</text>
<text text-anchor="middle" x="365" y="-100.5" font-family="Helvetica,sans-Serif" font-size="10.00" fill="#000000">JsonUtil.json</text>
</a>
</g>
</g>
<!-- Node0&#45;&gt;Node2 -->
<g id="edge7" class="edge">
<title>Node0&#45;&gt;Node2</title>
<path fill="none" stroke="#191970" d="M106.9487,-79.5838C119.9274,-82.9487 133.8984,-86.197 147,-88.5 197.595,-97.3936 255.5346,-102.4711 298.9589,-105.2831"/>
<polygon fill="#191970" stroke="#191970" points="298.913,-108.7869 309.1116,-105.9165 299.3489,-101.8005 298.913,-108.7869"/>
</g>
<!-- Node6 -->
<g id="node7" class="node">
<title>Node6</title>
<g id="a_node7"><a xlink:href="../../df/dac/classorg_1_1cobbzilla_1_1util_1_1io_1_1FileUtil_a68ba3562aff4d6bb1e737600420c3a0a.html#a68ba3562aff4d6bb1e737600420c3a0a" target="_top" xlink:title="org.cobbzilla.util.io.File\lUtil.toString">
<polygon fill="none" stroke="#000000" points="147,-.5 147,-30.5 263,-30.5 263,-.5 147,-.5"/>
<text text-anchor="start" x="155" y="-18.5" font-family="Helvetica,sans-Serif" font-size="10.00" fill="#000000">org.cobbzilla.util.io.File</text>
<text text-anchor="middle" x="205" y="-7.5" font-family="Helvetica,sans-Serif" font-size="10.00" fill="#000000">Util.toString</text>
</a>
</g>
</g>
<!-- Node0&#45;&gt;Node6 -->
<g id="edge8" class="edge">
<title>Node0&#45;&gt;Node6</title>
<path fill="none" stroke="#191970" d="M101.5748,-49.3986C116.7081,-44.4385 133.6896,-38.8726 149.4497,-33.7071"/>
<polygon fill="#191970" stroke="#191970" points="150.6648,-36.9921 159.0773,-30.5516 148.4846,-30.3403 150.6648,-36.9921"/>
</g>
<!-- Node1&#45;&gt;Node2 -->
<g id="edge2" class="edge">
<title>Node1&#45;&gt;Node2</title>
<path fill="none" stroke="#191970" d="M259.6154,-79.5192C272.8008,-83.1452 287.0125,-87.0534 300.5997,-90.7899"/>
<polygon fill="#191970" stroke="#191970" points="299.7891,-94.1969 310.3593,-93.4738 301.6453,-87.4474 299.7891,-94.1969"/>
</g>
<!-- Node5 -->
<g id="node6" class="node">
<title>Node5</title>
<g id="a_node6"><a xlink:href="../../dc/d81/classorg_1_1cobbzilla_1_1util_1_1io_1_1StreamUtil_a242c4cb3ac88a027891f05b372294875.html#a242c4cb3ac88a027891f05b372294875" target="_top" xlink:title="org.cobbzilla.util.io.Stream\lUtil.toString">
<polygon fill="none" stroke="#000000" points="299,-44.5 299,-74.5 431,-74.5 431,-44.5 299,-44.5"/>
<text text-anchor="start" x="307" y="-62.5" font-family="Helvetica,sans-Serif" font-size="10.00" fill="#000000">org.cobbzilla.util.io.Stream</text>
<text text-anchor="middle" x="365" y="-51.5" font-family="Helvetica,sans-Serif" font-size="10.00" fill="#000000">Util.toString</text>
</a>
</g>
</g>
<!-- Node1&#45;&gt;Node5 -->
<g id="edge6" class="edge">
<title>Node1&#45;&gt;Node5</title>
<path fill="none" stroke="#191970" d="M260.5112,-62.7653C269.5919,-62.4815 279.1386,-62.1832 288.6173,-61.887"/>
<polygon fill="#191970" stroke="#191970" points="288.9652,-65.3779 298.8509,-61.5672 288.7464,-58.3813 288.9652,-65.3779"/>
</g>
<!-- Node3 -->
<g id="node4" class="node">
<title>Node3</title>
<g id="a_node4"><a xlink:href="../../dc/d2c/classorg_1_1cobbzilla_1_1util_1_1json_1_1JsonUtil_ae4b0ddbe1c463c41b05503ea67eb8f10.html#ae4b0ddbe1c463c41b05503ea67eb8f10" target="_top" xlink:title="org.cobbzilla.util.json.\lJsonUtil.toJsonOrDie">
<polygon fill="none" stroke="#000000" points="467,-93.5 467,-123.5 578,-123.5 578,-93.5 467,-93.5"/>
<text text-anchor="start" x="475" y="-111.5" font-family="Helvetica,sans-Serif" font-size="10.00" fill="#000000">org.cobbzilla.util.json.</text>
<text text-anchor="middle" x="522.5" y="-100.5" font-family="Helvetica,sans-Serif" font-size="10.00" fill="#000000">JsonUtil.toJsonOrDie</text>
</a>
</g>
</g>
<!-- Node2&#45;&gt;Node3 -->
<g id="edge3" class="edge">
<title>Node2&#45;&gt;Node3</title>
<path fill="none" stroke="#191970" d="M420.5286,-108.5C432.2911,-108.5 444.8127,-108.5 456.9081,-108.5"/>
<polygon fill="#191970" stroke="#191970" points="456.942,-112.0001 466.942,-108.5 456.9419,-105.0001 456.942,-112.0001"/>
</g>
<!-- Node4 -->
<g id="node5" class="node">
<title>Node4</title>
<g id="a_node5"><a xlink:href="../../dc/d2c/classorg_1_1cobbzilla_1_1util_1_1json_1_1JsonUtil_aa10cd1ef91d278b645230ab79181d51e.html#aa10cd1ef91d278b645230ab79181d51e" target="_top" xlink:title="org.cobbzilla.util.json.\lJsonUtil.toJson">
<polygon fill="none" stroke="#000000" points="614,-93.5 614,-123.5 725,-123.5 725,-93.5 614,-93.5"/>
<text text-anchor="start" x="622" y="-111.5" font-family="Helvetica,sans-Serif" font-size="10.00" fill="#000000">org.cobbzilla.util.json.</text>
<text text-anchor="middle" x="669.5" y="-100.5" font-family="Helvetica,sans-Serif" font-size="10.00" fill="#000000">JsonUtil.toJson</text>
</a>
</g>
</g>
<!-- Node3&#45;&gt;Node4 -->
<g id="edge4" class="edge">
<title>Node3&#45;&gt;Node4</title>
<path fill="none" stroke="#191970" d="M578.0744,-108.5C586.4894,-108.5 595.2383,-108.5 603.8421,-108.5"/>
<polygon fill="#191970" stroke="#191970" points="603.8471,-112.0001 613.847,-108.5 603.847,-105.0001 603.8471,-112.0001"/>
</g>
<!-- Node4&#45;&gt;Node4 -->
<g id="edge5" class="edge">
<title>Node4&#45;&gt;Node4</title>
<path fill="none" stroke="#191970" d="M644.0565,-123.659C637.9212,-133.0566 646.4023,-142 669.5,-142 683.5751,-142 692.2226,-138.679 695.4424,-133.9579"/>
<polygon fill="#191970" stroke="#191970" points="698.9234,-133.4779 694.9435,-123.659 691.9316,-133.8167 698.9234,-133.4779"/>
</g>
</g>
</svg>
