<?xml version="1.0" encoding="UTF-8" standalone="no"?>
<!DOCTYPE svg PUBLIC "-//W3C//DTD SVG 1.1//EN"
 "http://www.w3.org/Graphics/SVG/1.1/DTD/svg11.dtd">
<!-- Generated by graphviz version 2.40.1 (20161225.0304)
 -->
<!-- Title: org.cobbzilla.util.json.JsonUtil.replaceNode Pages: 1 -->
<svg width="419pt" height="88pt"
 viewBox="0.00 0.00 419.00 88.00" xmlns="http://www.w3.org/2000/svg" xmlns:xlink="http://www.w3.org/1999/xlink">
<g id="graph0" class="graph" transform="scale(1 1) rotate(0) translate(4 84)">
<title>org.cobbzilla.util.json.JsonUtil.replaceNode</title>
<!-- Node0 -->
<g id="node1" class="node">
<title>Node0</title>
<polygon fill="#bfbfbf" stroke="#000000" points="0,-24.5 0,-54.5 111,-54.5 111,-24.5 0,-24.5"/>
<text text-anchor="start" x="8" y="-42.5" font-family="Helvetica,sans-Serif" font-size="10.00" fill="#000000">org.cobbzilla.util.json.</text>
<text text-anchor="middle" x="55.5" y="-31.5" font-family="Helvetica,sans-Serif" font-size="10.00" fill="#000000">JsonUtil.replaceNode</text>
</g>
<!-- Node1 -->
<g id="node2" class="node">
<title>Node1</title>
<g id="a_node2"><a xlink:href="../../dc/d2c/classorg_1_1cobbzilla_1_1util_1_1json_1_1JsonUtil_a1713a93cde638e66a102813fbddf8afa.html#a1713a93cde638e66a102813fbddf8afa" target="_top" xlink:title="org.cobbzilla.util.json.\lJsonUtil.findNodePath">
<polygon fill="none" stroke="#000000" points="148,-49.5 148,-79.5 263,-79.5 263,-49.5 148,-49.5"/>
<text text-anchor="start" x="156" y="-67.5" font-family="Helvetica,sans-Serif" font-size="10.00" fill="#000000">org.cobbzilla.util.json.</text>
<text text-anchor="middle" x="205.5" y="-56.5" font-family="Helvetica,sans-Serif" font-size="10.00" fill="#000000">JsonUtil.findNodePath</text>
</a>
</g>
</g>
<!-- Node0&#45;&gt;Node1 -->
<g id="edge1" class="edge">
<title>Node0&#45;&gt;Node1</title>
<path fill="none" stroke="#191970" d="M111.3545,-48.8091C120.0087,-50.2515 129.0274,-51.7546 137.9063,-53.2344"/>
<polygon fill="#191970" stroke="#191970" points="137.4053,-56.6991 147.8446,-54.8908 138.5561,-49.7943 137.4053,-56.6991"/>
</g>
<!-- Node3 -->
<g id="node4" class="node">
<title>Node3</title>
<g id="a_node4"><a xlink:href="../../dc/d2c/classorg_1_1cobbzilla_1_1util_1_1json_1_1JsonUtil_ad4fe697851b66ffcd33981004a67fd69.html#ad4fe697851b66ffcd33981004a67fd69" target="_top" xlink:title="org.cobbzilla.util.json.\lJsonUtil.getValueNode">
<polygon fill="none" stroke="#000000" points="147,-.5 147,-30.5 264,-30.5 264,-.5 147,-.5"/>
<text text-anchor="start" x="155" y="-18.5" font-family="Helvetica,sans-Serif" font-size="10.00" fill="#000000">org.cobbzilla.util.json.</text>
<text text-anchor="middle" x="205.5" y="-7.5" font-family="Helvetica,sans-Serif" font-size="10.00" fill="#000000">JsonUtil.getValueNode</text>
</a>
</g>
</g>
<!-- Node0&#45;&gt;Node3 -->
<g id="edge3" class="edge">
<title>Node0&#45;&gt;Node3</title>
<path fill="none" stroke="#191970" d="M111.3545,-30.5633C119.6762,-29.2318 128.3349,-27.8464 136.8823,-26.4788"/>
<polygon fill="#191970" stroke="#191970" points="137.5167,-29.9219 146.8381,-24.8859 136.4107,-23.0098 137.5167,-29.9219"/>
</g>
<!-- Node2 -->
<g id="node3" class="node">
<title>Node2</title>
<g id="a_node3"><a xlink:href="../../dc/d2c/classorg_1_1cobbzilla_1_1util_1_1json_1_1JsonUtil_a9dd7aea54318cb336822758c95c4bf84.html#a9dd7aea54318cb336822758c95c4bf84" target="_top" xlink:title="org.cobbzilla.util.json.\lJsonUtil.tokenize">
<polygon fill="none" stroke="#000000" points="300,-49.5 300,-79.5 411,-79.5 411,-49.5 300,-49.5"/>
<text text-anchor="start" x="308" y="-67.5" font-family="Helvetica,sans-Serif" font-size="10.00" fill="#000000">org.cobbzilla.util.json.</text>
<text text-anchor="middle" x="355.5" y="-56.5" font-family="Helvetica,sans-Serif" font-size="10.00" fill="#000000">JsonUtil.tokenize</text>
</a>
</g>
</g>
<!-- Node1&#45;&gt;Node2 -->
<g id="edge2" class="edge">
<title>Node1&#45;&gt;Node2</title>
<path fill="none" stroke="#191970" d="M263.0649,-64.5C271.7347,-64.5 280.7336,-64.5 289.5624,-64.5"/>
<polygon fill="#191970" stroke="#191970" points="289.8188,-68.0001 299.8187,-64.5 289.8187,-61.0001 289.8188,-68.0001"/>
</g>
</g>
</svg>
