<?xml version="1.0" encoding="UTF-8" standalone="no"?>
<!DOCTYPE svg PUBLIC "-//W3C//DTD SVG 1.1//EN"
 "http://www.w3.org/Graphics/SVG/1.1/DTD/svg11.dtd">
<!-- Generated by graphviz version 2.40.1 (20161225.0304)
 -->
<!-- Title: org.cobbzilla.util.json.JsonUtil.toJsonOrDie Pages: 1 -->
<svg width="873pt" height="513pt"
 viewBox="0.00 0.00 873.00 513.00" xmlns="http://www.w3.org/2000/svg" xmlns:xlink="http://www.w3.org/1999/xlink">
<g id="graph0" class="graph" transform="scale(1 1) rotate(0) translate(4 509)">
<title>org.cobbzilla.util.json.JsonUtil.toJsonOrDie</title>
<!-- Node2 -->
<g id="node1" class="node">
<title>Node2</title>
<polygon fill="#bfbfbf" stroke="#000000" points="0,-147.5 0,-177.5 111,-177.5 111,-147.5 0,-147.5"/>
<text text-anchor="start" x="8" y="-165.5" font-family="Helvetica,sans-Serif" font-size="10.00" fill="#000000">org.cobbzilla.util.json.</text>
<text text-anchor="middle" x="55.5" y="-154.5" font-family="Helvetica,sans-Serif" font-size="10.00" fill="#000000">JsonUtil.toJsonOrDie</text>
</g>
<!-- Node3 -->
<g id="node2" class="node">
<title>Node3</title>
<g id="a_node2"><a xlink:href="../../dc/d2c/classorg_1_1cobbzilla_1_1util_1_1json_1_1JsonUtil_a4181f7525f80c694d58881fca5fe097f.html#a4181f7525f80c694d58881fca5fe097f" target="_top" xlink:title="org.cobbzilla.util.json.\lJsonUtil.json">
<polygon fill="none" stroke="#000000" points="147,-147.5 147,-177.5 258,-177.5 258,-147.5 147,-147.5"/>
<text text-anchor="start" x="155" y="-165.5" font-family="Helvetica,sans-Serif" font-size="10.00" fill="#000000">org.cobbzilla.util.json.</text>
<text text-anchor="middle" x="202.5" y="-154.5" font-family="Helvetica,sans-Serif" font-size="10.00" fill="#000000">JsonUtil.json</text>
</a>
</g>
</g>
<!-- Node2&#45;&gt;Node3 -->
<g id="edge1" class="edge">
<title>Node2&#45;&gt;Node3</title>
<path fill="none" stroke="#191970" d="M121.0775,-162.5C129.6805,-162.5 138.4299,-162.5 146.847,-162.5"/>
<polygon fill="#191970" stroke="#191970" points="121.0744,-159.0001 111.0744,-162.5 121.0744,-166.0001 121.0744,-159.0001"/>
</g>
<!-- Node4 -->
<g id="node3" class="node">
<title>Node4</title>
<g id="a_node3"><a xlink:href="../../dc/d2c/classorg_1_1cobbzilla_1_1util_1_1json_1_1JsonUtil_a012540ca836ef7dea8ae971437fb82c7.html#a012540ca836ef7dea8ae971437fb82c7" target="_top" xlink:title="org.cobbzilla.util.json.\lJsonUtil.fromJson">
<polygon fill="none" stroke="#000000" points="309.5,-302.5 309.5,-332.5 420.5,-332.5 420.5,-302.5 309.5,-302.5"/>
<text text-anchor="start" x="317.5" y="-320.5" font-family="Helvetica,sans-Serif" font-size="10.00" fill="#000000">org.cobbzilla.util.json.</text>
<text text-anchor="middle" x="365" y="-309.5" font-family="Helvetica,sans-Serif" font-size="10.00" fill="#000000">JsonUtil.fromJson</text>
</a>
</g>
</g>
<!-- Node3&#45;&gt;Node4 -->
<g id="edge2" class="edge">
<title>Node3&#45;&gt;Node4</title>
<path fill="none" stroke="#191970" d="M222.8532,-185.3096C240.9453,-205.2256 268.4172,-234.6015 294,-258.5 310.7477,-274.1451 330.939,-290.7213 345.501,-302.3066"/>
<polygon fill="#191970" stroke="#191970" points="225.2394,-182.7299 215.9388,-177.6555 220.045,-187.4223 225.2394,-182.7299"/>
</g>
<!-- Node11 -->
<g id="node10" class="node">
<title>Node11</title>
<g id="a_node10"><a xlink:href="../../dc/d2c/classorg_1_1cobbzilla_1_1util_1_1json_1_1JsonUtil_a27f0e0cf42d6f0099f15e238509207b9.html#a27f0e0cf42d6f0099f15e238509207b9" target="_top" xlink:title="org.cobbzilla.util.json.\lJsonUtil.mergeJson">
<polygon fill="none" stroke="#000000" points="508.5,-229.5 508.5,-259.5 619.5,-259.5 619.5,-229.5 508.5,-229.5"/>
<text text-anchor="start" x="516.5" y="-247.5" font-family="Helvetica,sans-Serif" font-size="10.00" fill="#000000">org.cobbzilla.util.json.</text>
<text text-anchor="middle" x="564" y="-236.5" font-family="Helvetica,sans-Serif" font-size="10.00" fill="#000000">JsonUtil.mergeJson</text>
</a>
</g>
</g>
<!-- Node3&#45;&gt;Node11 -->
<g id="edge19" class="edge">
<title>Node3&#45;&gt;Node11</title>
<path fill="none" stroke="#191970" d="M237.2823,-182.3597C253.9534,-191.0517 274.4991,-200.5951 294,-206.5 366.149,-228.3469 453.0168,-237.7181 508.3715,-241.681"/>
<polygon fill="#191970" stroke="#191970" points="238.9208,-179.2669 228.4505,-177.6468 235.6253,-185.4426 238.9208,-179.2669"/>
</g>
<!-- Node14 -->
<g id="node13" class="node">
<title>Node14</title>
<g id="a_node13"><a xlink:href="../../dc/d2c/classorg_1_1cobbzilla_1_1util_1_1json_1_1JsonUtil_ad4d54d7709ab54d8cd27595ff46d3223.html#ad4d54d7709ab54d8cd27595ff46d3223" target="_top" xlink:title="org.cobbzilla.util.json.\lJsonUtil.mergeJsonNodes">
<polygon fill="none" stroke="#000000" points="498,-180.5 498,-210.5 630,-210.5 630,-180.5 498,-180.5"/>
<text text-anchor="start" x="506" y="-198.5" font-family="Helvetica,sans-Serif" font-size="10.00" fill="#000000">org.cobbzilla.util.json.</text>
<text text-anchor="middle" x="564" y="-187.5" font-family="Helvetica,sans-Serif" font-size="10.00" fill="#000000">JsonUtil.mergeJsonNodes</text>
</a>
</g>
</g>
<!-- Node3&#45;&gt;Node14 -->
<g id="edge20" class="edge">
<title>Node3&#45;&gt;Node14</title>
<path fill="none" stroke="#191970" d="M261.9482,-180.1394C272.5393,-182.694 283.5323,-184.9723 294,-186.5 363.034,-196.575 443.0016,-197.9803 497.8891,-197.3896"/>
<polygon fill="#191970" stroke="#191970" points="262.4991,-176.6689 251.9471,-177.621 260.7897,-183.457 262.4991,-176.6689"/>
</g>
<!-- Node18 -->
<g id="node17" class="node">
<title>Node18</title>
<g id="a_node17"><a xlink:href="../../dc/d2c/classorg_1_1cobbzilla_1_1util_1_1json_1_1JsonUtil_afc0868a213137107f6bf81958dcb533a.html#afc0868a213137107f6bf81958dcb533a" target="_top" xlink:title="org.cobbzilla.util.json.\lJsonUtil.json">
<polygon fill="none" stroke="#000000" points="309.5,-147.5 309.5,-177.5 420.5,-177.5 420.5,-147.5 309.5,-147.5"/>
<text text-anchor="start" x="317.5" y="-165.5" font-family="Helvetica,sans-Serif" font-size="10.00" fill="#000000">org.cobbzilla.util.json.</text>
<text text-anchor="middle" x="365" y="-154.5" font-family="Helvetica,sans-Serif" font-size="10.00" fill="#000000">JsonUtil.json</text>
</a>
</g>
</g>
<!-- Node3&#45;&gt;Node18 -->
<g id="edge16" class="edge">
<title>Node3&#45;&gt;Node18</title>
<path fill="none" stroke="#191970" d="M268.6017,-162.5C282.0931,-162.5 296.1621,-162.5 309.249,-162.5"/>
<polygon fill="#191970" stroke="#191970" points="268.4233,-159.0001 258.4233,-162.5 268.4232,-166.0001 268.4233,-159.0001"/>
</g>
<!-- Node19 -->
<g id="node18" class="node">
<title>Node19</title>
<g id="a_node18"><a xlink:href="../../dc/d2c/classorg_1_1cobbzilla_1_1util_1_1json_1_1JsonUtil_a7a0ef9cb2596326d1c7f5c3a6ccf362e.html#a7a0ef9cb2596326d1c7f5c3a6ccf362e" target="_top" xlink:title="org.cobbzilla.util.json.\lJsonUtil.json_html">
<polygon fill="none" stroke="#000000" points="309.5,-98.5 309.5,-128.5 420.5,-128.5 420.5,-98.5 309.5,-98.5"/>
<text text-anchor="start" x="317.5" y="-116.5" font-family="Helvetica,sans-Serif" font-size="10.00" fill="#000000">org.cobbzilla.util.json.</text>
<text text-anchor="middle" x="365" y="-105.5" font-family="Helvetica,sans-Serif" font-size="10.00" fill="#000000">JsonUtil.json_html</text>
</a>
</g>
</g>
<!-- Node3&#45;&gt;Node19 -->
<g id="edge17" class="edge">
<title>Node3&#45;&gt;Node19</title>
<path fill="none" stroke="#191970" d="M262.5683,-144.3871C279.8441,-139.1778 298.4933,-133.5543 315.0841,-128.5516"/>
<polygon fill="#191970" stroke="#191970" points="261.145,-141.1605 252.5813,-147.3986 263.166,-147.8625 261.145,-141.1605"/>
</g>
<!-- Node20 -->
<g id="node19" class="node">
<title>Node20</title>
<g id="a_node19"><a xlink:href="../../dc/d2c/classorg_1_1cobbzilla_1_1util_1_1json_1_1JsonUtil_ad9109156126e88b9a28d726c8a9f49d6.html#ad9109156126e88b9a28d726c8a9f49d6" target="_top" xlink:title="org.cobbzilla.util.json.\lJsonUtil.jsonWithComments">
<polygon fill="none" stroke="#000000" points="294,-49.5 294,-79.5 436,-79.5 436,-49.5 294,-49.5"/>
<text text-anchor="start" x="302" y="-67.5" font-family="Helvetica,sans-Serif" font-size="10.00" fill="#000000">org.cobbzilla.util.json.</text>
<text text-anchor="middle" x="365" y="-56.5" font-family="Helvetica,sans-Serif" font-size="10.00" fill="#000000">JsonUtil.jsonWithComments</text>
</a>
</g>
</g>
<!-- Node3&#45;&gt;Node20 -->
<g id="edge18" class="edge">
<title>Node3&#45;&gt;Node20</title>
<path fill="none" stroke="#191970" d="M225.2515,-140.2355C242.8218,-124.049 268.388,-102.5921 294,-88.5 300.0419,-85.1756 306.6253,-82.1991 313.267,-79.5688"/>
<polygon fill="#191970" stroke="#191970" points="222.6669,-137.8611 217.7698,-147.2562 227.457,-142.9656 222.6669,-137.8611"/>
</g>
<!-- Node21 -->
<g id="node20" class="node">
<title>Node21</title>
<g id="a_node20"><a xlink:href="../../dc/d2c/classorg_1_1cobbzilla_1_1util_1_1json_1_1JsonUtil_a06c079d84e771134b6f19776ee2d6e35.html#a06c079d84e771134b6f19776ee2d6e35" target="_top" xlink:title="org.cobbzilla.util.json.\lJsonUtil.replaceNode">
<polygon fill="none" stroke="#000000" points="309.5,-.5 309.5,-30.5 420.5,-30.5 420.5,-.5 309.5,-.5"/>
<text text-anchor="start" x="317.5" y="-18.5" font-family="Helvetica,sans-Serif" font-size="10.00" fill="#000000">org.cobbzilla.util.json.</text>
<text text-anchor="middle" x="365" y="-7.5" font-family="Helvetica,sans-Serif" font-size="10.00" fill="#000000">JsonUtil.replaceNode</text>
</a>
</g>
</g>
<!-- Node3&#45;&gt;Node21 -->
<g id="edge21" class="edge">
<title>Node3&#45;&gt;Node21</title>
<path fill="none" stroke="#191970" d="M214.636,-138.2946C229.6724,-110.6386 257.7967,-65.8182 294,-39.5 298.736,-36.0571 304.0009,-33.083 309.4623,-30.5193"/>
<polygon fill="#191970" stroke="#191970" points="211.4531,-136.8265 209.8714,-147.3026 217.6409,-140.0994 211.4531,-136.8265"/>
</g>
<!-- Node5 -->
<g id="node4" class="node">
<title>Node5</title>
<g id="a_node4"><a xlink:href="../../d9/d3d/classorg_1_1cobbzilla_1_1util_1_1json_1_1JsonUtilTest_a239642f3764a1c94c594d22e2629b3c1.html#a239642f3764a1c94c594d22e2629b3c1" target="_top" xlink:title="org.cobbzilla.util.json.\lJsonUtilTest.assertReplacementMade">
<polygon fill="none" stroke="#000000" points="472,-425.5 472,-455.5 656,-455.5 656,-425.5 472,-425.5"/>
<text text-anchor="start" x="480" y="-443.5" font-family="Helvetica,sans-Serif" font-size="10.00" fill="#000000">org.cobbzilla.util.json.</text>
<text text-anchor="middle" x="564" y="-432.5" font-family="Helvetica,sans-Serif" font-size="10.00" fill="#000000">JsonUtilTest.assertReplacementMade</text>
</a>
</g>
</g>
<!-- Node4&#45;&gt;Node5 -->
<g id="edge3" class="edge">
<title>Node4&#45;&gt;Node5</title>
<path fill="none" stroke="#191970" d="M383.7558,-340.4886C403.4356,-363.1125 436.4121,-397.0174 472,-416.5 478.226,-419.9084 484.9561,-422.8489 491.8453,-425.3826"/>
<polygon fill="#191970" stroke="#191970" points="386.2775,-338.0515 377.1268,-332.7115 380.9501,-342.5924 386.2775,-338.0515"/>
</g>
<!-- Node7 -->
<g id="node6" class="node">
<title>Node7</title>
<g id="a_node6"><a xlink:href="../../dc/d2c/classorg_1_1cobbzilla_1_1util_1_1json_1_1JsonUtil_a7306126614b51464932ef1d46b760f30.html#a7306126614b51464932ef1d46b760f30" target="_top" xlink:title="org.cobbzilla.util.json.\lJsonUtil.fromJson">
<polygon fill="none" stroke="#000000" points="508.5,-376.5 508.5,-406.5 619.5,-406.5 619.5,-376.5 508.5,-376.5"/>
<text text-anchor="start" x="516.5" y="-394.5" font-family="Helvetica,sans-Serif" font-size="10.00" fill="#000000">org.cobbzilla.util.json.</text>
<text text-anchor="middle" x="564" y="-383.5" font-family="Helvetica,sans-Serif" font-size="10.00" fill="#000000">JsonUtil.fromJson</text>
</a>
</g>
</g>
<!-- Node4&#45;&gt;Node7 -->
<g id="edge5" class="edge">
<title>Node4&#45;&gt;Node7</title>
<path fill="none" stroke="#191970" d="M402.627,-337.1365C422.8203,-347.1461 448.3554,-358.9718 472,-367.5 483.4904,-371.6444 496.0252,-375.3982 508.0405,-378.6409"/>
<polygon fill="#191970" stroke="#191970" points="403.9711,-333.8951 393.4635,-332.5378 400.8312,-340.1514 403.9711,-333.8951"/>
</g>
<!-- Node8 -->
<g id="node7" class="node">
<title>Node8</title>
<g id="a_node7"><a xlink:href="../../dc/d2c/classorg_1_1cobbzilla_1_1util_1_1json_1_1JsonUtil_a5f816d81de3ddd762863e64b9d235f86.html#a5f816d81de3ddd762863e64b9d235f86" target="_top" xlink:title="org.cobbzilla.util.json.\lJsonUtil.fromJsonOrDie">
<polygon fill="none" stroke="#000000" points="503,-327.5 503,-357.5 625,-357.5 625,-327.5 503,-327.5"/>
<text text-anchor="start" x="511" y="-345.5" font-family="Helvetica,sans-Serif" font-size="10.00" fill="#000000">org.cobbzilla.util.json.</text>
<text text-anchor="middle" x="564" y="-334.5" font-family="Helvetica,sans-Serif" font-size="10.00" fill="#000000">JsonUtil.fromJsonOrDie</text>
</a>
</g>
</g>
<!-- Node4&#45;&gt;Node8 -->
<g id="edge6" class="edge">
<title>Node4&#45;&gt;Node8</title>
<path fill="none" stroke="#191970" d="M430.789,-325.765C453.9741,-328.6777 479.9286,-331.9383 502.7259,-334.8022"/>
<polygon fill="#191970" stroke="#191970" points="431.0555,-322.271 420.6972,-324.4971 430.1829,-329.2164 431.0555,-322.271"/>
</g>
<!-- Node9 -->
<g id="node8" class="node">
<title>Node9</title>
<g id="a_node8"><a xlink:href="../../d2/dc3/classorg_1_1cobbzilla_1_1util_1_1handlebars_1_1main_1_1PdfMergeOptions_a0fb7412217c1fa7e0e1f85ecdca5df60.html#a0fb7412217c1fa7e0e1f85ecdca5df60" target="_top" xlink:title="org.cobbzilla.util.handlebars.main.\lPdfMergeOptions.getContext">
<polygon fill="none" stroke="#000000" points="482,-278.5 482,-308.5 646,-308.5 646,-278.5 482,-278.5"/>
<text text-anchor="start" x="490" y="-296.5" font-family="Helvetica,sans-Serif" font-size="10.00" fill="#000000">org.cobbzilla.util.handlebars.main.</text>
<text text-anchor="middle" x="564" y="-285.5" font-family="Helvetica,sans-Serif" font-size="10.00" fill="#000000">PdfMergeOptions.getContext</text>
</a>
</g>
</g>
<!-- Node4&#45;&gt;Node9 -->
<g id="edge7" class="edge">
<title>Node4&#45;&gt;Node9</title>
<path fill="none" stroke="#191970" d="M430.6963,-309.5768C447.0732,-307.6017 464.8368,-305.4594 481.8961,-303.402"/>
<polygon fill="#191970" stroke="#191970" points="430.2062,-306.1105 420.6972,-310.7827 431.0444,-313.0601 430.2062,-306.1105"/>
</g>
<!-- Node4&#45;&gt;Node11 -->
<g id="edge9" class="edge">
<title>Node4&#45;&gt;Node11</title>
<path fill="none" stroke="#191970" d="M404.4663,-298.0152C424.4074,-288.63 449.1617,-277.6691 472,-269.5 483.5325,-265.3749 496.085,-261.5457 508.1043,-258.186"/>
<polygon fill="#191970" stroke="#191970" points="402.9069,-294.8811 395.3809,-302.3383 405.9146,-301.202 402.9069,-294.8811"/>
</g>
<!-- Node4&#45;&gt;Node14 -->
<g id="edge12" class="edge">
<title>Node4&#45;&gt;Node14</title>
<path fill="none" stroke="#191970" d="M383.8046,-294.7506C403.5227,-272.3606 436.5285,-238.8024 472,-219.5 479.9745,-215.1606 488.7689,-211.5779 497.663,-208.6272"/>
<polygon fill="#191970" stroke="#191970" points="381.0459,-292.5901 377.1613,-302.4471 386.345,-297.164 381.0459,-292.5901"/>
</g>
<!-- Node17 -->
<g id="node16" class="node">
<title>Node17</title>
<g id="a_node16"><a xlink:href="../../d1/d68/classorg_1_1cobbzilla_1_1util_1_1json_1_1JsonEditTest_ab3fb98ec8772451e27673ba5d5368cd7.html#ab3fb98ec8772451e27673ba5d5368cd7" target="_top" xlink:title="org.cobbzilla.util.json.\lJsonEditTest.testEditJson">
<polygon fill="none" stroke="#000000" points="498,-474.5 498,-504.5 630,-504.5 630,-474.5 498,-474.5"/>
<text text-anchor="start" x="506" y="-492.5" font-family="Helvetica,sans-Serif" font-size="10.00" fill="#000000">org.cobbzilla.util.json.</text>
<text text-anchor="middle" x="564" y="-481.5" font-family="Helvetica,sans-Serif" font-size="10.00" fill="#000000">JsonEditTest.testEditJson</text>
</a>
</g>
</g>
<!-- Node4&#45;&gt;Node17 -->
<g id="edge15" class="edge">
<title>Node4&#45;&gt;Node17</title>
<path fill="none" stroke="#191970" d="M376.1248,-342.1889C392.3689,-375.3786 425.7557,-433.8626 472,-465.5 479.7655,-470.8126 488.6338,-474.9493 497.729,-478.1703"/>
<polygon fill="#191970" stroke="#191970" points="379.0951,-340.2852 371.6387,-332.7584 372.7739,-343.2922 379.0951,-340.2852"/>
</g>
<!-- Node6 -->
<g id="node5" class="node">
<title>Node6</title>
<g id="a_node5"><a xlink:href="../../d9/d3d/classorg_1_1cobbzilla_1_1util_1_1json_1_1JsonUtilTest_ab9eb80bbec6ad8d6ed24e56482d513f4.html#ab9eb80bbec6ad8d6ed24e56482d513f4" target="_top" xlink:title="org.cobbzilla.util.json.\lJsonUtilTest.testReplaceJsonValue">
<polygon fill="none" stroke="#000000" points="692,-425.5 692,-455.5 865,-455.5 865,-425.5 692,-425.5"/>
<text text-anchor="start" x="700" y="-443.5" font-family="Helvetica,sans-Serif" font-size="10.00" fill="#000000">org.cobbzilla.util.json.</text>
<text text-anchor="middle" x="778.5" y="-432.5" font-family="Helvetica,sans-Serif" font-size="10.00" fill="#000000">JsonUtilTest.testReplaceJsonValue</text>
</a>
</g>
</g>
<!-- Node5&#45;&gt;Node6 -->
<g id="edge4" class="edge">
<title>Node5&#45;&gt;Node6</title>
<path fill="none" stroke="#191970" d="M666.2218,-440.5C674.7765,-440.5 683.3739,-440.5 691.7957,-440.5"/>
<polygon fill="#191970" stroke="#191970" points="666.2122,-437.0001 656.2122,-440.5 666.2121,-444.0001 666.2122,-437.0001"/>
</g>
<!-- Node10 -->
<g id="node9" class="node">
<title>Node10</title>
<g id="a_node9"><a xlink:href="../../d9/d75/classorg_1_1cobbzilla_1_1util_1_1handlebars_1_1main_1_1PdfMergeMain_a125fc1d1e7f706476767dcc2fdb0b34d.html#a125fc1d1e7f706476767dcc2fdb0b34d" target="_top" xlink:title="org.cobbzilla.util.handlebars.main.\lPdfMergeMain.run">
<polygon fill="none" stroke="#000000" points="696.5,-327.5 696.5,-357.5 860.5,-357.5 860.5,-327.5 696.5,-327.5"/>
<text text-anchor="start" x="704.5" y="-345.5" font-family="Helvetica,sans-Serif" font-size="10.00" fill="#000000">org.cobbzilla.util.handlebars.main.</text>
<text text-anchor="middle" x="778.5" y="-334.5" font-family="Helvetica,sans-Serif" font-size="10.00" fill="#000000">PdfMergeMain.run</text>
</a>
</g>
</g>
<!-- Node9&#45;&gt;Node10 -->
<g id="edge8" class="edge">
<title>Node9&#45;&gt;Node10</title>
<path fill="none" stroke="#191970" d="M639.8671,-310.8309C663.6819,-316.2712 689.7605,-322.2285 712.8097,-327.4938"/>
<polygon fill="#191970" stroke="#191970" points="640.3431,-307.3496 629.8148,-308.5346 638.7842,-314.1738 640.3431,-307.3496"/>
</g>
<!-- Node12 -->
<g id="node11" class="node">
<title>Node12</title>
<g id="a_node11"><a xlink:href="../../dc/d2c/classorg_1_1cobbzilla_1_1util_1_1json_1_1JsonUtil_a2e0261c1837f4d37641121bf753b568d.html#a2e0261c1837f4d37641121bf753b568d" target="_top" xlink:title="org.cobbzilla.util.json.\lJsonUtil.mergeJsonOrDie">
<polygon fill="none" stroke="#000000" points="714,-278.5 714,-308.5 843,-308.5 843,-278.5 714,-278.5"/>
<text text-anchor="start" x="722" y="-296.5" font-family="Helvetica,sans-Serif" font-size="10.00" fill="#000000">org.cobbzilla.util.json.</text>
<text text-anchor="middle" x="778.5" y="-285.5" font-family="Helvetica,sans-Serif" font-size="10.00" fill="#000000">JsonUtil.mergeJsonOrDie</text>
</a>
</g>
</g>
<!-- Node11&#45;&gt;Node12 -->
<g id="edge10" class="edge">
<title>Node11&#45;&gt;Node12</title>
<path fill="none" stroke="#191970" d="M629.5398,-259.4718C656.2559,-265.5748 687.0623,-272.6121 713.7019,-278.6976"/>
<polygon fill="#191970" stroke="#191970" points="630.0464,-255.9974 619.518,-257.1824 628.4874,-262.8216 630.0464,-255.9974"/>
</g>
<!-- Node13 -->
<g id="node12" class="node">
<title>Node13</title>
<g id="a_node12"><a xlink:href="../../d9/d3d/classorg_1_1cobbzilla_1_1util_1_1json_1_1JsonUtilTest_a506201864e5b3d7073a4fa42fa837cd3.html#a506201864e5b3d7073a4fa42fa837cd3" target="_top" xlink:title="org.cobbzilla.util.json.\lJsonUtilTest.testMerge">
<polygon fill="none" stroke="#000000" points="719,-229.5 719,-259.5 838,-259.5 838,-229.5 719,-229.5"/>
<text text-anchor="start" x="727" y="-247.5" font-family="Helvetica,sans-Serif" font-size="10.00" fill="#000000">org.cobbzilla.util.json.</text>
<text text-anchor="middle" x="778.5" y="-236.5" font-family="Helvetica,sans-Serif" font-size="10.00" fill="#000000">JsonUtilTest.testMerge</text>
</a>
</g>
</g>
<!-- Node11&#45;&gt;Node13 -->
<g id="edge11" class="edge">
<title>Node11&#45;&gt;Node13</title>
<path fill="none" stroke="#191970" d="M629.7407,-244.5C658.0999,-244.5 691.0375,-244.5 718.7002,-244.5"/>
<polygon fill="#191970" stroke="#191970" points="629.5181,-241.0001 619.518,-244.5 629.518,-248.0001 629.5181,-241.0001"/>
</g>
<!-- Node15 -->
<g id="node14" class="node">
<title>Node15</title>
<g id="a_node14"><a xlink:href="../../dc/d2c/classorg_1_1cobbzilla_1_1util_1_1json_1_1JsonUtil_aa129e8fee46fe4395aeb5146a86b5359.html#aa129e8fee46fe4395aeb5146a86b5359" target="_top" xlink:title="org.cobbzilla.util.json.\lJsonUtil.mergeJson">
<polygon fill="none" stroke="#000000" points="723,-180.5 723,-210.5 834,-210.5 834,-180.5 723,-180.5"/>
<text text-anchor="start" x="731" y="-198.5" font-family="Helvetica,sans-Serif" font-size="10.00" fill="#000000">org.cobbzilla.util.json.</text>
<text text-anchor="middle" x="778.5" y="-187.5" font-family="Helvetica,sans-Serif" font-size="10.00" fill="#000000">JsonUtil.mergeJson</text>
</a>
</g>
</g>
<!-- Node14&#45;&gt;Node15 -->
<g id="edge13" class="edge">
<title>Node14&#45;&gt;Node15</title>
<path fill="none" stroke="#191970" d="M640.3634,-195.5C667.5356,-195.5 697.5995,-195.5 722.7233,-195.5"/>
<polygon fill="#191970" stroke="#191970" points="640.1074,-192.0001 630.1073,-195.5 640.1073,-199.0001 640.1074,-192.0001"/>
</g>
<!-- Node16 -->
<g id="node15" class="node">
<title>Node16</title>
<g id="a_node15"><a xlink:href="../../dc/d2c/classorg_1_1cobbzilla_1_1util_1_1json_1_1JsonUtil_a0b510c01cb40a5a63bfd8a8187d5a9a2.html#a0b510c01cb40a5a63bfd8a8187d5a9a2" target="_top" xlink:title="org.cobbzilla.util.json.\lJsonUtil.mergeJsonNodesOrDie">
<polygon fill="none" stroke="#000000" points="699.5,-131.5 699.5,-161.5 857.5,-161.5 857.5,-131.5 699.5,-131.5"/>
<text text-anchor="start" x="707.5" y="-149.5" font-family="Helvetica,sans-Serif" font-size="10.00" fill="#000000">org.cobbzilla.util.json.</text>
<text text-anchor="middle" x="778.5" y="-138.5" font-family="Helvetica,sans-Serif" font-size="10.00" fill="#000000">JsonUtil.mergeJsonNodesOrDie</text>
</a>
</g>
</g>
<!-- Node14&#45;&gt;Node16 -->
<g id="edge14" class="edge">
<title>Node14&#45;&gt;Node16</title>
<path fill="none" stroke="#191970" d="M639.8671,-178.1691C663.6819,-172.7288 689.7605,-166.7715 712.8097,-161.5062"/>
<polygon fill="#191970" stroke="#191970" points="638.7842,-174.8262 629.8148,-180.4654 640.3431,-181.6504 638.7842,-174.8262"/>
</g>
</g>
</svg>
