<?xml version="1.0" encoding="UTF-8" standalone="no"?>
<!DOCTYPE svg PUBLIC "-//W3C//DTD SVG 1.1//EN"
 "http://www.w3.org/Graphics/SVG/1.1/DTD/svg11.dtd">
<!-- Generated by graphviz version 2.40.1 (20161225.0304)
 -->
<!-- Title: org.cobbzilla.util.json.JsonUtil.fromJson Pages: 1 -->
<svg width="728pt" height="106pt"
 viewBox="0.00 0.00 728.00 106.00" xmlns="http://www.w3.org/2000/svg" xmlns:xlink="http://www.w3.org/1999/xlink">
<g id="graph0" class="graph" transform="scale(1 1) rotate(0) translate(4 102)">
<title>org.cobbzilla.util.json.JsonUtil.fromJson</title>
<!-- Node0 -->
<g id="node1" class="node">
<title>Node0</title>
<polygon fill="#bfbfbf" stroke="#000000" points="0,-24.5 0,-54.5 111,-54.5 111,-24.5 0,-24.5"/>
<text text-anchor="start" x="8" y="-42.5" font-family="Helvetica,sans-Serif" font-size="10.00" fill="#000000">org.cobbzilla.util.json.</text>
<text text-anchor="middle" x="55.5" y="-31.5" font-family="Helvetica,sans-Serif" font-size="10.00" fill="#000000">JsonUtil.fromJson</text>
</g>
<!-- Node1 -->
<g id="node2" class="node">
<title>Node1</title>
<g id="a_node2"><a xlink:href="../../dc/d2c/classorg_1_1cobbzilla_1_1util_1_1json_1_1JsonUtil_a012540ca836ef7dea8ae971437fb82c7.html#a012540ca836ef7dea8ae971437fb82c7" target="_top" xlink:title="org.cobbzilla.util.json.\lJsonUtil.fromJson">
<polygon fill="none" stroke="#000000" points="147,-24.5 147,-54.5 258,-54.5 258,-24.5 147,-24.5"/>
<text text-anchor="start" x="155" y="-42.5" font-family="Helvetica,sans-Serif" font-size="10.00" fill="#000000">org.cobbzilla.util.json.</text>
<text text-anchor="middle" x="202.5" y="-31.5" font-family="Helvetica,sans-Serif" font-size="10.00" fill="#000000">JsonUtil.fromJson</text>
</a>
</g>
</g>
<!-- Node0&#45;&gt;Node1 -->
<g id="edge1" class="edge">
<title>Node0&#45;&gt;Node1</title>
<path fill="none" stroke="#191970" d="M111.0744,-39.5C119.4894,-39.5 128.2383,-39.5 136.8421,-39.5"/>
<polygon fill="#191970" stroke="#191970" points="136.8471,-43.0001 146.847,-39.5 136.847,-36.0001 136.8471,-43.0001"/>
</g>
<!-- Node2 -->
<g id="node3" class="node">
<title>Node2</title>
<g id="a_node3"><a xlink:href="../../dc/d2c/classorg_1_1cobbzilla_1_1util_1_1json_1_1JsonUtil_a4181f7525f80c694d58881fca5fe097f.html#a4181f7525f80c694d58881fca5fe097f" target="_top" xlink:title="org.cobbzilla.util.json.\lJsonUtil.json">
<polygon fill="none" stroke="#000000" points="304.5,-49.5 304.5,-79.5 415.5,-79.5 415.5,-49.5 304.5,-49.5"/>
<text text-anchor="start" x="312.5" y="-67.5" font-family="Helvetica,sans-Serif" font-size="10.00" fill="#000000">org.cobbzilla.util.json.</text>
<text text-anchor="middle" x="360" y="-56.5" font-family="Helvetica,sans-Serif" font-size="10.00" fill="#000000">JsonUtil.json</text>
</a>
</g>
</g>
<!-- Node1&#45;&gt;Node2 -->
<g id="edge2" class="edge">
<title>Node1&#45;&gt;Node2</title>
<path fill="none" stroke="#191970" d="M258.0286,-48.3141C269.7911,-50.1811 282.3127,-52.1687 294.4081,-54.0886"/>
<polygon fill="#191970" stroke="#191970" points="294.0169,-57.5702 304.442,-55.6813 295.1143,-50.6568 294.0169,-57.5702"/>
</g>
<!-- Node5 -->
<g id="node6" class="node">
<title>Node5</title>
<g id="a_node6"><a xlink:href="../../dc/d81/classorg_1_1cobbzilla_1_1util_1_1io_1_1StreamUtil_a242c4cb3ac88a027891f05b372294875.html#a242c4cb3ac88a027891f05b372294875" target="_top" xlink:title="org.cobbzilla.util.io.Stream\lUtil.toString">
<polygon fill="none" stroke="#000000" points="294,-.5 294,-30.5 426,-30.5 426,-.5 294,-.5"/>
<text text-anchor="start" x="302" y="-18.5" font-family="Helvetica,sans-Serif" font-size="10.00" fill="#000000">org.cobbzilla.util.io.Stream</text>
<text text-anchor="middle" x="360" y="-7.5" font-family="Helvetica,sans-Serif" font-size="10.00" fill="#000000">Util.toString</text>
</a>
</g>
</g>
<!-- Node1&#45;&gt;Node5 -->
<g id="edge6" class="edge">
<title>Node1&#45;&gt;Node5</title>
<path fill="none" stroke="#191970" d="M258.0286,-31.0385C266.3675,-29.7678 275.088,-28.439 283.7676,-27.1164"/>
<polygon fill="#191970" stroke="#191970" points="284.5541,-30.537 293.9127,-25.5705 283.4995,-23.6169 284.5541,-30.537"/>
</g>
<!-- Node3 -->
<g id="node4" class="node">
<title>Node3</title>
<g id="a_node4"><a xlink:href="../../dc/d2c/classorg_1_1cobbzilla_1_1util_1_1json_1_1JsonUtil_ae4b0ddbe1c463c41b05503ea67eb8f10.html#ae4b0ddbe1c463c41b05503ea67eb8f10" target="_top" xlink:title="org.cobbzilla.util.json.\lJsonUtil.toJsonOrDie">
<polygon fill="none" stroke="#000000" points="462,-49.5 462,-79.5 573,-79.5 573,-49.5 462,-49.5"/>
<text text-anchor="start" x="470" y="-67.5" font-family="Helvetica,sans-Serif" font-size="10.00" fill="#000000">org.cobbzilla.util.json.</text>
<text text-anchor="middle" x="517.5" y="-56.5" font-family="Helvetica,sans-Serif" font-size="10.00" fill="#000000">JsonUtil.toJsonOrDie</text>
</a>
</g>
</g>
<!-- Node2&#45;&gt;Node3 -->
<g id="edge3" class="edge">
<title>Node2&#45;&gt;Node3</title>
<path fill="none" stroke="#191970" d="M415.5286,-64.5C427.2911,-64.5 439.8127,-64.5 451.9081,-64.5"/>
<polygon fill="#191970" stroke="#191970" points="451.942,-68.0001 461.942,-64.5 451.9419,-61.0001 451.942,-68.0001"/>
</g>
<!-- Node4 -->
<g id="node5" class="node">
<title>Node4</title>
<g id="a_node5"><a xlink:href="../../dc/d2c/classorg_1_1cobbzilla_1_1util_1_1json_1_1JsonUtil_aa10cd1ef91d278b645230ab79181d51e.html#aa10cd1ef91d278b645230ab79181d51e" target="_top" xlink:title="org.cobbzilla.util.json.\lJsonUtil.toJson">
<polygon fill="none" stroke="#000000" points="609,-49.5 609,-79.5 720,-79.5 720,-49.5 609,-49.5"/>
<text text-anchor="start" x="617" y="-67.5" font-family="Helvetica,sans-Serif" font-size="10.00" fill="#000000">org.cobbzilla.util.json.</text>
<text text-anchor="middle" x="664.5" y="-56.5" font-family="Helvetica,sans-Serif" font-size="10.00" fill="#000000">JsonUtil.toJson</text>
</a>
</g>
</g>
<!-- Node3&#45;&gt;Node4 -->
<g id="edge4" class="edge">
<title>Node3&#45;&gt;Node4</title>
<path fill="none" stroke="#191970" d="M573.0744,-64.5C581.4894,-64.5 590.2383,-64.5 598.8421,-64.5"/>
<polygon fill="#191970" stroke="#191970" points="598.8471,-68.0001 608.847,-64.5 598.847,-61.0001 598.8471,-68.0001"/>
</g>
<!-- Node4&#45;&gt;Node4 -->
<g id="edge5" class="edge">
<title>Node4&#45;&gt;Node4</title>
<path fill="none" stroke="#191970" d="M639.0565,-79.659C632.9212,-89.0566 641.4023,-98 664.5,-98 678.5751,-98 687.2226,-94.679 690.4424,-89.9579"/>
<polygon fill="#191970" stroke="#191970" points="693.9234,-89.4779 689.9435,-79.659 686.9316,-89.8167 693.9234,-89.4779"/>
</g>
</g>
</svg>
