<?xml version="1.0" encoding="UTF-8" standalone="no"?>
<!DOCTYPE svg PUBLIC "-//W3C//DTD SVG 1.1//EN"
 "http://www.w3.org/Graphics/SVG/1.1/DTD/svg11.dtd">
<!-- Generated by graphviz version 2.40.1 (20161225.0304)
 -->
<!-- Title: org.cobbzilla.util.json.JsonUtil.toJson Pages: 1 -->
<!--zoomable 513 -->
<svg id="main" version="1.1" xmlns="http://www.w3.org/2000/svg" xmlns:xlink="http://www.w3.org/1999/xlink" xml:space="preserve" onload="init(evt)">
<style type="text/css"><![CDATA[
.edge:hover path { stroke: red; }
.edge:hover polygon { stroke: red; fill: red; }
]]></style>
<script type="text/javascript"><![CDATA[
var edges = document.getElementsByTagName('g');
if (edges && edges.length) {
  for (var i=0;i<edges.length;i++) {
    if (edges[i].id.substr(0,4)=='edge') {
      edges[i].setAttribute('class','edge');
    }
  }
}
]]></script>
        <defs>
                <circle id="rim" cx="0" cy="0" r="7"/>
                <circle id="rim2" cx="0" cy="0" r="3.5"/>
                <g id="zoomPlus">
                        <use xlink:href="#rim" fill="#404040">
                                <set attributeName="fill" to="#808080" begin="zoomplus.mouseover" end="zoomplus.mouseout"/>
                        </use>
                        <path d="M-4,0h8M0,-4v8" fill="none" stroke="white" stroke-width="1.5" pointer-events="none"/>
                </g>
                <g id="zoomMin">
                        <use xlink:href="#rim" fill="#404040">
                                <set attributeName="fill" to="#808080" begin="zoomminus.mouseover" end="zoomminus.mouseout"/>
                        </use>
                        <path d="M-4,0h8" fill="none" stroke="white" stroke-width="1.5" pointer-events="none"/>
                </g>
                <g id="dirArrow">
                        <path fill="none" stroke="white" stroke-width="1.5" d="M0,-3.0v7 M-2.5,-0.5L0,-3.0L2.5,-0.5"/>
                </g>
               <g id="resetDef">
                       <use xlink:href="#rim2" fill="#404040">
                               <set attributeName="fill" to="#808080" begin="reset.mouseover" end="reset.mouseout"/>
                       </use>
               </g>
        </defs>

<script type="text/javascript">
var viewWidth = 1020;
var viewHeight = 513;
var sectionId = 'dynsection-1';
</script>
<script xlink:href="../../svgpan.js"/>
<svg id="graph" class="graph">
<g id="viewport">
<title>org.cobbzilla.util.json.JsonUtil.toJson</title>
<!-- Node1 -->
<g id="node1" class="node">
<title>Node1</title>
<polygon fill="#bfbfbf" stroke="#000000" points="0,-122.5 0,-152.5 111,-152.5 111,-122.5 0,-122.5"/>
<text text-anchor="start" x="8" y="-140.5" font-family="Helvetica,sans-Serif" font-size="10.00" fill="#000000">org.cobbzilla.util.json.</text>
<text text-anchor="middle" x="55.5" y="-129.5" font-family="Helvetica,sans-Serif" font-size="10.00" fill="#000000">JsonUtil.toJson</text>
</g>
<!-- Node1&#45;&gt;Node1 -->
<g id="edge1" class="edge">
<title>Node1&#45;&gt;Node1</title>
<path fill="none" stroke="#191970" d="M29.5576,-162.9579C32.7774,-167.679 41.4249,-171 55.5,-171 78.5977,-171 87.0788,-162.0566 80.9435,-152.659"/>
<polygon fill="#191970" stroke="#191970" points="33.0684,-162.8167 30.0565,-152.659 26.0766,-162.4779 33.0684,-162.8167"/>
</g>
<!-- Node2 -->
<g id="node2" class="node">
<title>Node2</title>
<g id="a_node2"><a xlink:href="../../dc/d2c/classorg_1_1cobbzilla_1_1util_1_1json_1_1JsonUtil_ae4b0ddbe1c463c41b05503ea67eb8f10.html#ae4b0ddbe1c463c41b05503ea67eb8f10" target="_top" xlink:title="org.cobbzilla.util.json.\lJsonUtil.toJsonOrDie">
<polygon fill="none" stroke="#000000" points="147,-147.5 147,-177.5 258,-177.5 258,-147.5 147,-147.5"/>
<text text-anchor="start" x="155" y="-165.5" font-family="Helvetica,sans-Serif" font-size="10.00" fill="#000000">org.cobbzilla.util.json.</text>
<text text-anchor="middle" x="202.5" y="-154.5" font-family="Helvetica,sans-Serif" font-size="10.00" fill="#000000">JsonUtil.toJsonOrDie</text>
</a>
</g>
</g>
<!-- Node1&#45;&gt;Node2 -->
<g id="edge2" class="edge">
<title>Node1&#45;&gt;Node2</title>
<path fill="none" stroke="#191970" d="M121.0775,-148.6526C129.6805,-150.1157 138.4299,-151.6037 146.847,-153.0352"/>
<polygon fill="#191970" stroke="#191970" points="121.5197,-145.1777 111.0744,-146.9514 120.346,-152.0786 121.5197,-145.1777"/>
</g>
<!-- Node22 -->
<g id="node22" class="node">
<title>Node22</title>
<g id="a_node22"><a xlink:href="../../dc/d2c/classorg_1_1cobbzilla_1_1util_1_1json_1_1JsonUtil_a8f3727008fb6328716aa27d503cd834d.html#a8f3727008fb6328716aa27d503cd834d" target="_top" xlink:title="org.cobbzilla.util.json.\lJsonUtil.toJsonOrErr">
<polygon fill="none" stroke="#000000" points="147,-98.5 147,-128.5 258,-128.5 258,-98.5 147,-98.5"/>
<text text-anchor="start" x="155" y="-116.5" font-family="Helvetica,sans-Serif" font-size="10.00" fill="#000000">org.cobbzilla.util.json.</text>
<text text-anchor="middle" x="202.5" y="-105.5" font-family="Helvetica,sans-Serif" font-size="10.00" fill="#000000">JsonUtil.toJsonOrErr</text>
</a>
</g>
</g>
<!-- Node1&#45;&gt;Node22 -->
<g id="edge24" class="edge">
<title>Node1&#45;&gt;Node22</title>
<path fill="none" stroke="#191970" d="M121.0775,-126.7935C129.6805,-125.3889 138.4299,-123.9604 146.847,-122.5862"/>
<polygon fill="#191970" stroke="#191970" points="120.3797,-123.361 111.0744,-128.4266 121.5077,-130.2695 120.3797,-123.361"/>
</g>
<!-- Node3 -->
<g id="node3" class="node">
<title>Node3</title>
<g id="a_node3"><a xlink:href="../../dc/d2c/classorg_1_1cobbzilla_1_1util_1_1json_1_1JsonUtil_a4181f7525f80c694d58881fca5fe097f.html#a4181f7525f80c694d58881fca5fe097f" target="_top" xlink:title="org.cobbzilla.util.json.\lJsonUtil.json">
<polygon fill="none" stroke="#000000" points="294,-147.5 294,-177.5 405,-177.5 405,-147.5 294,-147.5"/>
<text text-anchor="start" x="302" y="-165.5" font-family="Helvetica,sans-Serif" font-size="10.00" fill="#000000">org.cobbzilla.util.json.</text>
<text text-anchor="middle" x="349.5" y="-154.5" font-family="Helvetica,sans-Serif" font-size="10.00" fill="#000000">JsonUtil.json</text>
</a>
</g>
</g>
<!-- Node2&#45;&gt;Node3 -->
<g id="edge3" class="edge">
<title>Node2&#45;&gt;Node3</title>
<path fill="none" stroke="#191970" d="M268.0775,-162.5C276.6805,-162.5 285.4299,-162.5 293.847,-162.5"/>
<polygon fill="#191970" stroke="#191970" points="268.0744,-159.0001 258.0744,-162.5 268.0744,-166.0001 268.0744,-159.0001"/>
</g>
<!-- Node4 -->
<g id="node4" class="node">
<title>Node4</title>
<g id="a_node4"><a xlink:href="../../dc/d2c/classorg_1_1cobbzilla_1_1util_1_1json_1_1JsonUtil_a012540ca836ef7dea8ae971437fb82c7.html#a012540ca836ef7dea8ae971437fb82c7" target="_top" xlink:title="org.cobbzilla.util.json.\lJsonUtil.fromJson">
<polygon fill="none" stroke="#000000" points="456.5,-302.5 456.5,-332.5 567.5,-332.5 567.5,-302.5 456.5,-302.5"/>
<text text-anchor="start" x="464.5" y="-320.5" font-family="Helvetica,sans-Serif" font-size="10.00" fill="#000000">org.cobbzilla.util.json.</text>
<text text-anchor="middle" x="512" y="-309.5" font-family="Helvetica,sans-Serif" font-size="10.00" fill="#000000">JsonUtil.fromJson</text>
</a>
</g>
</g>
<!-- Node3&#45;&gt;Node4 -->
<g id="edge4" class="edge">
<title>Node3&#45;&gt;Node4</title>
<path fill="none" stroke="#191970" d="M369.8532,-185.3096C387.9453,-205.2256 415.4172,-234.6015 441,-258.5 457.7477,-274.1451 477.939,-290.7213 492.501,-302.3066"/>
<polygon fill="#191970" stroke="#191970" points="372.2394,-182.7299 362.9388,-177.6555 367.045,-187.4223 372.2394,-182.7299"/>
</g>
<!-- Node11 -->
<g id="node11" class="node">
<title>Node11</title>
<g id="a_node11"><a xlink:href="../../dc/d2c/classorg_1_1cobbzilla_1_1util_1_1json_1_1JsonUtil_a27f0e0cf42d6f0099f15e238509207b9.html#a27f0e0cf42d6f0099f15e238509207b9" target="_top" xlink:title="org.cobbzilla.util.json.\lJsonUtil.mergeJson">
<polygon fill="none" stroke="#000000" points="655.5,-229.5 655.5,-259.5 766.5,-259.5 766.5,-229.5 655.5,-229.5"/>
<text text-anchor="start" x="663.5" y="-247.5" font-family="Helvetica,sans-Serif" font-size="10.00" fill="#000000">org.cobbzilla.util.json.</text>
<text text-anchor="middle" x="711" y="-236.5" font-family="Helvetica,sans-Serif" font-size="10.00" fill="#000000">JsonUtil.mergeJson</text>
</a>
</g>
</g>
<!-- Node3&#45;&gt;Node11 -->
<g id="edge21" class="edge">
<title>Node3&#45;&gt;Node11</title>
<path fill="none" stroke="#191970" d="M384.2823,-182.3597C400.9534,-191.0517 421.4991,-200.5951 441,-206.5 513.149,-228.3469 600.0168,-237.7181 655.3715,-241.681"/>
<polygon fill="#191970" stroke="#191970" points="385.9208,-179.2669 375.4505,-177.6468 382.6253,-185.4426 385.9208,-179.2669"/>
</g>
<!-- Node14 -->
<g id="node14" class="node">
<title>Node14</title>
<g id="a_node14"><a xlink:href="../../dc/d2c/classorg_1_1cobbzilla_1_1util_1_1json_1_1JsonUtil_ad4d54d7709ab54d8cd27595ff46d3223.html#ad4d54d7709ab54d8cd27595ff46d3223" target="_top" xlink:title="org.cobbzilla.util.json.\lJsonUtil.mergeJsonNodes">
<polygon fill="none" stroke="#000000" points="645,-180.5 645,-210.5 777,-210.5 777,-180.5 645,-180.5"/>
<text text-anchor="start" x="653" y="-198.5" font-family="Helvetica,sans-Serif" font-size="10.00" fill="#000000">org.cobbzilla.util.json.</text>
<text text-anchor="middle" x="711" y="-187.5" font-family="Helvetica,sans-Serif" font-size="10.00" fill="#000000">JsonUtil.mergeJsonNodes</text>
</a>
</g>
</g>
<!-- Node3&#45;&gt;Node14 -->
<g id="edge22" class="edge">
<title>Node3&#45;&gt;Node14</title>
<path fill="none" stroke="#191970" d="M408.9482,-180.1394C419.5393,-182.694 430.5323,-184.9723 441,-186.5 510.034,-196.575 590.0016,-197.9803 644.8891,-197.3896"/>
<polygon fill="#191970" stroke="#191970" points="409.4991,-176.6689 398.9471,-177.621 407.7897,-183.457 409.4991,-176.6689"/>
</g>
<!-- Node18 -->
<g id="node18" class="node">
<title>Node18</title>
<g id="a_node18"><a xlink:href="../../dc/d2c/classorg_1_1cobbzilla_1_1util_1_1json_1_1JsonUtil_afc0868a213137107f6bf81958dcb533a.html#afc0868a213137107f6bf81958dcb533a" target="_top" xlink:title="org.cobbzilla.util.json.\lJsonUtil.json">
<polygon fill="none" stroke="#000000" points="456.5,-147.5 456.5,-177.5 567.5,-177.5 567.5,-147.5 456.5,-147.5"/>
<text text-anchor="start" x="464.5" y="-165.5" font-family="Helvetica,sans-Serif" font-size="10.00" fill="#000000">org.cobbzilla.util.json.</text>
<text text-anchor="middle" x="512" y="-154.5" font-family="Helvetica,sans-Serif" font-size="10.00" fill="#000000">JsonUtil.json</text>
</a>
</g>
</g>
<!-- Node3&#45;&gt;Node18 -->
<g id="edge18" class="edge">
<title>Node3&#45;&gt;Node18</title>
<path fill="none" stroke="#191970" d="M415.6017,-162.5C429.0931,-162.5 443.1621,-162.5 456.249,-162.5"/>
<polygon fill="#191970" stroke="#191970" points="415.4233,-159.0001 405.4233,-162.5 415.4232,-166.0001 415.4233,-159.0001"/>
</g>
<!-- Node19 -->
<g id="node19" class="node">
<title>Node19</title>
<g id="a_node19"><a xlink:href="../../dc/d2c/classorg_1_1cobbzilla_1_1util_1_1json_1_1JsonUtil_a7a0ef9cb2596326d1c7f5c3a6ccf362e.html#a7a0ef9cb2596326d1c7f5c3a6ccf362e" target="_top" xlink:title="org.cobbzilla.util.json.\lJsonUtil.json_html">
<polygon fill="none" stroke="#000000" points="456.5,-98.5 456.5,-128.5 567.5,-128.5 567.5,-98.5 456.5,-98.5"/>
<text text-anchor="start" x="464.5" y="-116.5" font-family="Helvetica,sans-Serif" font-size="10.00" fill="#000000">org.cobbzilla.util.json.</text>
<text text-anchor="middle" x="512" y="-105.5" font-family="Helvetica,sans-Serif" font-size="10.00" fill="#000000">JsonUtil.json_html</text>
</a>
</g>
</g>
<!-- Node3&#45;&gt;Node19 -->
<g id="edge19" class="edge">
<title>Node3&#45;&gt;Node19</title>
<path fill="none" stroke="#191970" d="M409.5683,-144.3871C426.8441,-139.1778 445.4933,-133.5543 462.0841,-128.5516"/>
<polygon fill="#191970" stroke="#191970" points="408.145,-141.1605 399.5813,-147.3986 410.166,-147.8625 408.145,-141.1605"/>
</g>
<!-- Node20 -->
<g id="node20" class="node">
<title>Node20</title>
<g id="a_node20"><a xlink:href="../../dc/d2c/classorg_1_1cobbzilla_1_1util_1_1json_1_1JsonUtil_ad9109156126e88b9a28d726c8a9f49d6.html#ad9109156126e88b9a28d726c8a9f49d6" target="_top" xlink:title="org.cobbzilla.util.json.\lJsonUtil.jsonWithComments">
<polygon fill="none" stroke="#000000" points="441,-49.5 441,-79.5 583,-79.5 583,-49.5 441,-49.5"/>
<text text-anchor="start" x="449" y="-67.5" font-family="Helvetica,sans-Serif" font-size="10.00" fill="#000000">org.cobbzilla.util.json.</text>
<text text-anchor="middle" x="512" y="-56.5" font-family="Helvetica,sans-Serif" font-size="10.00" fill="#000000">JsonUtil.jsonWithComments</text>
</a>
</g>
</g>
<!-- Node3&#45;&gt;Node20 -->
<g id="edge20" class="edge">
<title>Node3&#45;&gt;Node20</title>
<path fill="none" stroke="#191970" d="M372.2515,-140.2355C389.8218,-124.049 415.388,-102.5921 441,-88.5 447.0419,-85.1756 453.6253,-82.1991 460.267,-79.5688"/>
<polygon fill="#191970" stroke="#191970" points="369.6669,-137.8611 364.7698,-147.2562 374.457,-142.9656 369.6669,-137.8611"/>
</g>
<!-- Node21 -->
<g id="node21" class="node">
<title>Node21</title>
<g id="a_node21"><a xlink:href="../../dc/d2c/classorg_1_1cobbzilla_1_1util_1_1json_1_1JsonUtil_a06c079d84e771134b6f19776ee2d6e35.html#a06c079d84e771134b6f19776ee2d6e35" target="_top" xlink:title="org.cobbzilla.util.json.\lJsonUtil.replaceNode">
<polygon fill="none" stroke="#000000" points="456.5,-.5 456.5,-30.5 567.5,-30.5 567.5,-.5 456.5,-.5"/>
<text text-anchor="start" x="464.5" y="-18.5" font-family="Helvetica,sans-Serif" font-size="10.00" fill="#000000">org.cobbzilla.util.json.</text>
<text text-anchor="middle" x="512" y="-7.5" font-family="Helvetica,sans-Serif" font-size="10.00" fill="#000000">JsonUtil.replaceNode</text>
</a>
</g>
</g>
<!-- Node3&#45;&gt;Node21 -->
<g id="edge23" class="edge">
<title>Node3&#45;&gt;Node21</title>
<path fill="none" stroke="#191970" d="M361.636,-138.2946C376.6724,-110.6386 404.7967,-65.8182 441,-39.5 445.736,-36.0571 451.0009,-33.083 456.4623,-30.5193"/>
<polygon fill="#191970" stroke="#191970" points="358.4531,-136.8265 356.8714,-147.3026 364.6409,-140.0994 358.4531,-136.8265"/>
</g>
<!-- Node5 -->
<g id="node5" class="node">
<title>Node5</title>
<g id="a_node5"><a xlink:href="../../d9/d3d/classorg_1_1cobbzilla_1_1util_1_1json_1_1JsonUtilTest_a239642f3764a1c94c594d22e2629b3c1.html#a239642f3764a1c94c594d22e2629b3c1" target="_top" xlink:title="org.cobbzilla.util.json.\lJsonUtilTest.assertReplacementMade">
<polygon fill="none" stroke="#000000" points="619,-425.5 619,-455.5 803,-455.5 803,-425.5 619,-425.5"/>
<text text-anchor="start" x="627" y="-443.5" font-family="Helvetica,sans-Serif" font-size="10.00" fill="#000000">org.cobbzilla.util.json.</text>
<text text-anchor="middle" x="711" y="-432.5" font-family="Helvetica,sans-Serif" font-size="10.00" fill="#000000">JsonUtilTest.assertReplacementMade</text>
</a>
</g>
</g>
<!-- Node4&#45;&gt;Node5 -->
<g id="edge5" class="edge">
<title>Node4&#45;&gt;Node5</title>
<path fill="none" stroke="#191970" d="M530.7558,-340.4886C550.4356,-363.1125 583.4121,-397.0174 619,-416.5 625.226,-419.9084 631.9561,-422.8489 638.8453,-425.3826"/>
<polygon fill="#191970" stroke="#191970" points="533.2775,-338.0515 524.1268,-332.7115 527.9501,-342.5924 533.2775,-338.0515"/>
</g>
<!-- Node7 -->
<g id="node7" class="node">
<title>Node7</title>
<g id="a_node7"><a xlink:href="../../dc/d2c/classorg_1_1cobbzilla_1_1util_1_1json_1_1JsonUtil_a7306126614b51464932ef1d46b760f30.html#a7306126614b51464932ef1d46b760f30" target="_top" xlink:title="org.cobbzilla.util.json.\lJsonUtil.fromJson">
<polygon fill="none" stroke="#000000" points="655.5,-376.5 655.5,-406.5 766.5,-406.5 766.5,-376.5 655.5,-376.5"/>
<text text-anchor="start" x="663.5" y="-394.5" font-family="Helvetica,sans-Serif" font-size="10.00" fill="#000000">org.cobbzilla.util.json.</text>
<text text-anchor="middle" x="711" y="-383.5" font-family="Helvetica,sans-Serif" font-size="10.00" fill="#000000">JsonUtil.fromJson</text>
</a>
</g>
</g>
<!-- Node4&#45;&gt;Node7 -->
<g id="edge7" class="edge">
<title>Node4&#45;&gt;Node7</title>
<path fill="none" stroke="#191970" d="M549.627,-337.1365C569.8203,-347.1461 595.3554,-358.9718 619,-367.5 630.4904,-371.6444 643.0252,-375.3982 655.0405,-378.6409"/>
<polygon fill="#191970" stroke="#191970" points="550.9711,-333.8951 540.4635,-332.5378 547.8312,-340.1514 550.9711,-333.8951"/>
</g>
<!-- Node8 -->
<g id="node8" class="node">
<title>Node8</title>
<g id="a_node8"><a xlink:href="../../dc/d2c/classorg_1_1cobbzilla_1_1util_1_1json_1_1JsonUtil_a5f816d81de3ddd762863e64b9d235f86.html#a5f816d81de3ddd762863e64b9d235f86" target="_top" xlink:title="org.cobbzilla.util.json.\lJsonUtil.fromJsonOrDie">
<polygon fill="none" stroke="#000000" points="650,-327.5 650,-357.5 772,-357.5 772,-327.5 650,-327.5"/>
<text text-anchor="start" x="658" y="-345.5" font-family="Helvetica,sans-Serif" font-size="10.00" fill="#000000">org.cobbzilla.util.json.</text>
<text text-anchor="middle" x="711" y="-334.5" font-family="Helvetica,sans-Serif" font-size="10.00" fill="#000000">JsonUtil.fromJsonOrDie</text>
</a>
</g>
</g>
<!-- Node4&#45;&gt;Node8 -->
<g id="edge8" class="edge">
<title>Node4&#45;&gt;Node8</title>
<path fill="none" stroke="#191970" d="M577.789,-325.765C600.9741,-328.6777 626.9286,-331.9383 649.7259,-334.8022"/>
<polygon fill="#191970" stroke="#191970" points="578.0555,-322.271 567.6972,-324.4971 577.1829,-329.2164 578.0555,-322.271"/>
</g>
<!-- Node9 -->
<g id="node9" class="node">
<title>Node9</title>
<g id="a_node9"><a xlink:href="../../d2/dc3/classorg_1_1cobbzilla_1_1util_1_1handlebars_1_1main_1_1PdfMergeOptions_a0fb7412217c1fa7e0e1f85ecdca5df60.html#a0fb7412217c1fa7e0e1f85ecdca5df60" target="_top" xlink:title="org.cobbzilla.util.handlebars.main.\lPdfMergeOptions.getContext">
<polygon fill="none" stroke="#000000" points="629,-278.5 629,-308.5 793,-308.5 793,-278.5 629,-278.5"/>
<text text-anchor="start" x="637" y="-296.5" font-family="Helvetica,sans-Serif" font-size="10.00" fill="#000000">org.cobbzilla.util.handlebars.main.</text>
<text text-anchor="middle" x="711" y="-285.5" font-family="Helvetica,sans-Serif" font-size="10.00" fill="#000000">PdfMergeOptions.getContext</text>
</a>
</g>
</g>
<!-- Node4&#45;&gt;Node9 -->
<g id="edge9" class="edge">
<title>Node4&#45;&gt;Node9</title>
<path fill="none" stroke="#191970" d="M577.6963,-309.5768C594.0732,-307.6017 611.8368,-305.4594 628.8961,-303.402"/>
<polygon fill="#191970" stroke="#191970" points="577.2062,-306.1105 567.6972,-310.7827 578.0444,-313.0601 577.2062,-306.1105"/>
</g>
<!-- Node4&#45;&gt;Node11 -->
<g id="edge11" class="edge">
<title>Node4&#45;&gt;Node11</title>
<path fill="none" stroke="#191970" d="M551.4663,-298.0152C571.4074,-288.63 596.1617,-277.6691 619,-269.5 630.5325,-265.3749 643.085,-261.5457 655.1043,-258.186"/>
<polygon fill="#191970" stroke="#191970" points="549.9069,-294.8811 542.3809,-302.3383 552.9146,-301.202 549.9069,-294.8811"/>
</g>
<!-- Node4&#45;&gt;Node14 -->
<g id="edge14" class="edge">
<title>Node4&#45;&gt;Node14</title>
<path fill="none" stroke="#191970" d="M530.8046,-294.7506C550.5227,-272.3606 583.5285,-238.8024 619,-219.5 626.9745,-215.1606 635.7689,-211.5779 644.663,-208.6272"/>
<polygon fill="#191970" stroke="#191970" points="528.0459,-292.5901 524.1613,-302.4471 533.345,-297.164 528.0459,-292.5901"/>
</g>
<!-- Node17 -->
<g id="node17" class="node">
<title>Node17</title>
<g id="a_node17"><a xlink:href="../../d1/d68/classorg_1_1cobbzilla_1_1util_1_1json_1_1JsonEditTest_ab3fb98ec8772451e27673ba5d5368cd7.html#ab3fb98ec8772451e27673ba5d5368cd7" target="_top" xlink:title="org.cobbzilla.util.json.\lJsonEditTest.testEditJson">
<polygon fill="none" stroke="#000000" points="645,-474.5 645,-504.5 777,-504.5 777,-474.5 645,-474.5"/>
<text text-anchor="start" x="653" y="-492.5" font-family="Helvetica,sans-Serif" font-size="10.00" fill="#000000">org.cobbzilla.util.json.</text>
<text text-anchor="middle" x="711" y="-481.5" font-family="Helvetica,sans-Serif" font-size="10.00" fill="#000000">JsonEditTest.testEditJson</text>
</a>
</g>
</g>
<!-- Node4&#45;&gt;Node17 -->
<g id="edge17" class="edge">
<title>Node4&#45;&gt;Node17</title>
<path fill="none" stroke="#191970" d="M523.1248,-342.1889C539.3689,-375.3786 572.7557,-433.8626 619,-465.5 626.7655,-470.8126 635.6338,-474.9493 644.729,-478.1703"/>
<polygon fill="#191970" stroke="#191970" points="526.0951,-340.2852 518.6387,-332.7584 519.7739,-343.2922 526.0951,-340.2852"/>
</g>
<!-- Node6 -->
<g id="node6" class="node">
<title>Node6</title>
<g id="a_node6"><a xlink:href="../../d9/d3d/classorg_1_1cobbzilla_1_1util_1_1json_1_1JsonUtilTest_ab9eb80bbec6ad8d6ed24e56482d513f4.html#ab9eb80bbec6ad8d6ed24e56482d513f4" target="_top" xlink:title="org.cobbzilla.util.json.\lJsonUtilTest.testReplaceJsonValue">
<polygon fill="none" stroke="#000000" points="839,-425.5 839,-455.5 1012,-455.5 1012,-425.5 839,-425.5"/>
<text text-anchor="start" x="847" y="-443.5" font-family="Helvetica,sans-Serif" font-size="10.00" fill="#000000">org.cobbzilla.util.json.</text>
<text text-anchor="middle" x="925.5" y="-432.5" font-family="Helvetica,sans-Serif" font-size="10.00" fill="#000000">JsonUtilTest.testReplaceJsonValue</text>
</a>
</g>
</g>
<!-- Node5&#45;&gt;Node6 -->
<g id="edge6" class="edge">
<title>Node5&#45;&gt;Node6</title>
<path fill="none" stroke="#191970" d="M813.2218,-440.5C821.7765,-440.5 830.3739,-440.5 838.7957,-440.5"/>
<polygon fill="#191970" stroke="#191970" points="813.2122,-437.0001 803.2122,-440.5 813.2121,-444.0001 813.2122,-437.0001"/>
</g>
<!-- Node10 -->
<g id="node10" class="node">
<title>Node10</title>
<g id="a_node10"><a xlink:href="../../d9/d75/classorg_1_1cobbzilla_1_1util_1_1handlebars_1_1main_1_1PdfMergeMain_a125fc1d1e7f706476767dcc2fdb0b34d.html#a125fc1d1e7f706476767dcc2fdb0b34d" target="_top" xlink:title="org.cobbzilla.util.handlebars.main.\lPdfMergeMain.run">
<polygon fill="none" stroke="#000000" points="843.5,-327.5 843.5,-357.5 1007.5,-357.5 1007.5,-327.5 843.5,-327.5"/>
<text text-anchor="start" x="851.5" y="-345.5" font-family="Helvetica,sans-Serif" font-size="10.00" fill="#000000">org.cobbzilla.util.handlebars.main.</text>
<text text-anchor="middle" x="925.5" y="-334.5" font-family="Helvetica,sans-Serif" font-size="10.00" fill="#000000">PdfMergeMain.run</text>
</a>
</g>
</g>
<!-- Node9&#45;&gt;Node10 -->
<g id="edge10" class="edge">
<title>Node9&#45;&gt;Node10</title>
<path fill="none" stroke="#191970" d="M786.8671,-310.8309C810.6819,-316.2712 836.7605,-322.2285 859.8097,-327.4938"/>
<polygon fill="#191970" stroke="#191970" points="787.3431,-307.3496 776.8148,-308.5346 785.7842,-314.1738 787.3431,-307.3496"/>
</g>
<!-- Node12 -->
<g id="node12" class="node">
<title>Node12</title>
<g id="a_node12"><a xlink:href="../../dc/d2c/classorg_1_1cobbzilla_1_1util_1_1json_1_1JsonUtil_a2e0261c1837f4d37641121bf753b568d.html#a2e0261c1837f4d37641121bf753b568d" target="_top" xlink:title="org.cobbzilla.util.json.\lJsonUtil.mergeJsonOrDie">
<polygon fill="none" stroke="#000000" points="861,-278.5 861,-308.5 990,-308.5 990,-278.5 861,-278.5"/>
<text text-anchor="start" x="869" y="-296.5" font-family="Helvetica,sans-Serif" font-size="10.00" fill="#000000">org.cobbzilla.util.json.</text>
<text text-anchor="middle" x="925.5" y="-285.5" font-family="Helvetica,sans-Serif" font-size="10.00" fill="#000000">JsonUtil.mergeJsonOrDie</text>
</a>
</g>
</g>
<!-- Node11&#45;&gt;Node12 -->
<g id="edge12" class="edge">
<title>Node11&#45;&gt;Node12</title>
<path fill="none" stroke="#191970" d="M776.5398,-259.4718C803.2559,-265.5748 834.0623,-272.6121 860.7019,-278.6976"/>
<polygon fill="#191970" stroke="#191970" points="777.0464,-255.9974 766.518,-257.1824 775.4874,-262.8216 777.0464,-255.9974"/>
</g>
<!-- Node13 -->
<g id="node13" class="node">
<title>Node13</title>
<g id="a_node13"><a xlink:href="../../d9/d3d/classorg_1_1cobbzilla_1_1util_1_1json_1_1JsonUtilTest_a506201864e5b3d7073a4fa42fa837cd3.html#a506201864e5b3d7073a4fa42fa837cd3" target="_top" xlink:title="org.cobbzilla.util.json.\lJsonUtilTest.testMerge">
<polygon fill="none" stroke="#000000" points="866,-229.5 866,-259.5 985,-259.5 985,-229.5 866,-229.5"/>
<text text-anchor="start" x="874" y="-247.5" font-family="Helvetica,sans-Serif" font-size="10.00" fill="#000000">org.cobbzilla.util.json.</text>
<text text-anchor="middle" x="925.5" y="-236.5" font-family="Helvetica,sans-Serif" font-size="10.00" fill="#000000">JsonUtilTest.testMerge</text>
</a>
</g>
</g>
<!-- Node11&#45;&gt;Node13 -->
<g id="edge13" class="edge">
<title>Node11&#45;&gt;Node13</title>
<path fill="none" stroke="#191970" d="M776.7407,-244.5C805.0999,-244.5 838.0375,-244.5 865.7002,-244.5"/>
<polygon fill="#191970" stroke="#191970" points="776.5181,-241.0001 766.518,-244.5 776.518,-248.0001 776.5181,-241.0001"/>
</g>
<!-- Node15 -->
<g id="node15" class="node">
<title>Node15</title>
<g id="a_node15"><a xlink:href="../../dc/d2c/classorg_1_1cobbzilla_1_1util_1_1json_1_1JsonUtil_aa129e8fee46fe4395aeb5146a86b5359.html#aa129e8fee46fe4395aeb5146a86b5359" target="_top" xlink:title="org.cobbzilla.util.json.\lJsonUtil.mergeJson">
<polygon fill="none" stroke="#000000" points="870,-180.5 870,-210.5 981,-210.5 981,-180.5 870,-180.5"/>
<text text-anchor="start" x="878" y="-198.5" font-family="Helvetica,sans-Serif" font-size="10.00" fill="#000000">org.cobbzilla.util.json.</text>
<text text-anchor="middle" x="925.5" y="-187.5" font-family="Helvetica,sans-Serif" font-size="10.00" fill="#000000">JsonUtil.mergeJson</text>
</a>
</g>
</g>
<!-- Node14&#45;&gt;Node15 -->
<g id="edge15" class="edge">
<title>Node14&#45;&gt;Node15</title>
<path fill="none" stroke="#191970" d="M787.3634,-195.5C814.5356,-195.5 844.5995,-195.5 869.7233,-195.5"/>
<polygon fill="#191970" stroke="#191970" points="787.1074,-192.0001 777.1073,-195.5 787.1073,-199.0001 787.1074,-192.0001"/>
</g>
<!-- Node16 -->
<g id="node16" class="node">
<title>Node16</title>
<g id="a_node16"><a xlink:href="../../dc/d2c/classorg_1_1cobbzilla_1_1util_1_1json_1_1JsonUtil_a0b510c01cb40a5a63bfd8a8187d5a9a2.html#a0b510c01cb40a5a63bfd8a8187d5a9a2" target="_top" xlink:title="org.cobbzilla.util.json.\lJsonUtil.mergeJsonNodesOrDie">
<polygon fill="none" stroke="#000000" points="846.5,-131.5 846.5,-161.5 1004.5,-161.5 1004.5,-131.5 846.5,-131.5"/>
<text text-anchor="start" x="854.5" y="-149.5" font-family="Helvetica,sans-Serif" font-size="10.00" fill="#000000">org.cobbzilla.util.json.</text>
<text text-anchor="middle" x="925.5" y="-138.5" font-family="Helvetica,sans-Serif" font-size="10.00" fill="#000000">JsonUtil.mergeJsonNodesOrDie</text>
</a>
</g>
</g>
<!-- Node14&#45;&gt;Node16 -->
<g id="edge16" class="edge">
<title>Node14&#45;&gt;Node16</title>
<path fill="none" stroke="#191970" d="M786.8671,-178.1691C810.6819,-172.7288 836.7605,-166.7715 859.8097,-161.5062"/>
<polygon fill="#191970" stroke="#191970" points="785.7842,-174.8262 776.8148,-180.4654 787.3431,-181.6504 785.7842,-174.8262"/>
</g>
</g>
</svg>
        <g id="navigator" transform="translate(0 0)" fill="#404254">
                <rect fill="#f2f5e9" fill-opacity="0.5" stroke="#606060" stroke-width=".5" x="0" y="0" width="60" height="60"/>
                <use id="zoomplus" xlink:href="#zoomPlus" x="17" y="9" onmousedown="handleZoom(evt,'in')"/>
                <use id="zoomminus" xlink:href="#zoomMin" x="42" y="9" onmousedown="handleZoom(evt,'out')"/>
                <use id="reset" xlink:href="#resetDef" x="30" y="36" onmousedown="handleReset()"/>
                <g id="arrowUp" xlink:href="#dirArrow" transform="translate(30 24)" onmousedown="handlePan(0,-1)">
                  <use xlink:href="#rim" fill="#404040">
                        <set attributeName="fill" to="#808080" begin="arrowUp.mouseover" end="arrowUp.mouseout"/>
                  </use>
                  <path fill="none" stroke="white" stroke-width="1.5" d="M0,-3.0v7 M-2.5,-0.5L0,-3.0L2.5,-0.5"/>
                </g>
                <g id="arrowRight" xlink:href="#dirArrow" transform="rotate(90) translate(36 -43)" onmousedown="handlePan(1,0)">
                  <use xlink:href="#rim" fill="#404040">
                        <set attributeName="fill" to="#808080" begin="arrowRight.mouseover" end="arrowRight.mouseout"/>
                  </use>
                  <path fill="none" stroke="white" stroke-width="1.5" d="M0,-3.0v7 M-2.5,-0.5L0,-3.0L2.5,-0.5"/>
                </g>
                <g id="arrowDown" xlink:href="#dirArrow" transform="rotate(180) translate(-30 -48)" onmousedown="handlePan(0,1)">
                  <use xlink:href="#rim" fill="#404040">
                        <set attributeName="fill" to="#808080" begin="arrowDown.mouseover" end="arrowDown.mouseout"/>
                  </use>
                  <path fill="none" stroke="white" stroke-width="1.5" d="M0,-3.0v7 M-2.5,-0.5L0,-3.0L2.5,-0.5"/>
                </g>
                <g id="arrowLeft" xlink:href="#dirArrow" transform="rotate(270) translate(-36 17)" onmousedown="handlePan(-1,0)">
                  <use xlink:href="#rim" fill="#404040">
                        <set attributeName="fill" to="#808080" begin="arrowLeft.mouseover" end="arrowLeft.mouseout"/>
                  </use>
                  <path fill="none" stroke="white" stroke-width="1.5" d="M0,-3.0v7 M-2.5,-0.5L0,-3.0L2.5,-0.5"/>
                </g>
        </g>
        <svg viewBox="0 0 15 15" width="100%" height="30px" preserveAspectRatio="xMaxYMin meet">
         <g id="arrow_out" transform="scale(0.3 0.3)">
          <a xlink:href="classorg_1_1cobbzilla_1_1util_1_1json_1_1JsonUtil_aa10cd1ef91d278b645230ab79181d51e_aa10cd1ef91d278b645230ab79181d51e_icgraph_org.svg" target="_base">
           <rect id="button" ry="5" rx="5" y="6" x="6" height="38" width="38"
                fill="#f2f5e9" fill-opacity="0.5" stroke="#606060" stroke-width="1.0"/>
           <path id="arrow"
             d="M 11.500037,31.436501 C 11.940474,20.09759 22.043105,11.32322 32.158766,21.979434 L 37.068811,17.246167 C 37.068811,17.246167 37.088388,32 37.088388,32 L 22.160133,31.978069 C 22.160133,31.978069 26.997745,27.140456 26.997745,27.140456 C 18.528582,18.264221 13.291696,25.230495 11.500037,31.436501 z"
             style="fill:#404040;"/>
          </a>
         </g>
        </svg>
</svg>
