<?xml version="1.0" encoding="UTF-8" standalone="no"?>
<!DOCTYPE svg PUBLIC "-//W3C//DTD SVG 1.1//EN"
 "http://www.w3.org/Graphics/SVG/1.1/DTD/svg11.dtd">
<!-- Generated by graphviz version 2.40.1 (20161225.0304)
 -->
<!-- Title: org.cobbzilla.util.json.JsonUtil.mergeJson Pages: 1 -->
<svg width="896pt" height="153pt"
 viewBox="0.00 0.00 896.00 153.00" xmlns="http://www.w3.org/2000/svg" xmlns:xlink="http://www.w3.org/1999/xlink">
<g id="graph0" class="graph" transform="scale(1 1) rotate(0) translate(4 149)">
<title>org.cobbzilla.util.json.JsonUtil.mergeJson</title>
<!-- Node0 -->
<g id="node1" class="node">
<title>Node0</title>
<polygon fill="#bfbfbf" stroke="#000000" points="0,-90.5 0,-120.5 111,-120.5 111,-90.5 0,-90.5"/>
<text text-anchor="start" x="8" y="-108.5" font-family="Helvetica,sans-Serif" font-size="10.00" fill="#000000">org.cobbzilla.util.json.</text>
<text text-anchor="middle" x="55.5" y="-97.5" font-family="Helvetica,sans-Serif" font-size="10.00" fill="#000000">JsonUtil.mergeJson</text>
</g>
<!-- Node1 -->
<g id="node2" class="node">
<title>Node1</title>
<g id="a_node2"><a xlink:href="../../dc/d2c/classorg_1_1cobbzilla_1_1util_1_1json_1_1JsonUtil_a4181f7525f80c694d58881fca5fe097f.html#a4181f7525f80c694d58881fca5fe097f" target="_top" xlink:title="org.cobbzilla.util.json.\lJsonUtil.json">
<polygon fill="none" stroke="#000000" points="472.5,-96.5 472.5,-126.5 583.5,-126.5 583.5,-96.5 472.5,-96.5"/>
<text text-anchor="start" x="480.5" y="-114.5" font-family="Helvetica,sans-Serif" font-size="10.00" fill="#000000">org.cobbzilla.util.json.</text>
<text text-anchor="middle" x="528" y="-103.5" font-family="Helvetica,sans-Serif" font-size="10.00" fill="#000000">JsonUtil.json</text>
</a>
</g>
</g>
<!-- Node0&#45;&gt;Node1 -->
<g id="edge1" class="edge">
<title>Node0&#45;&gt;Node1</title>
<path fill="none" stroke="#191970" d="M111.1414,-107.4571C122.977,-107.8362 135.4011,-108.2063 147,-108.5 221.6546,-110.3903 240.3244,-110.8333 315,-111.5 364.3627,-111.9407 420.1628,-111.9218 462.2641,-111.8028"/>
<polygon fill="#191970" stroke="#191970" points="462.3984,-115.3025 472.3875,-111.7715 462.3767,-108.3025 462.3984,-115.3025"/>
</g>
<!-- Node4 -->
<g id="node5" class="node">
<title>Node4</title>
<g id="a_node5"><a xlink:href="../../dc/d2c/classorg_1_1cobbzilla_1_1util_1_1json_1_1JsonUtil_ad4d54d7709ab54d8cd27595ff46d3223.html#ad4d54d7709ab54d8cd27595ff46d3223" target="_top" xlink:title="org.cobbzilla.util.json.\lJsonUtil.mergeJsonNodes">
<polygon fill="none" stroke="#000000" points="147,-68.5 147,-98.5 279,-98.5 279,-68.5 147,-68.5"/>
<text text-anchor="start" x="155" y="-86.5" font-family="Helvetica,sans-Serif" font-size="10.00" fill="#000000">org.cobbzilla.util.json.</text>
<text text-anchor="middle" x="213" y="-75.5" font-family="Helvetica,sans-Serif" font-size="10.00" fill="#000000">JsonUtil.mergeJsonNodes</text>
</a>
</g>
</g>
<!-- Node0&#45;&gt;Node4 -->
<g id="edge5" class="edge">
<title>Node0&#45;&gt;Node4</title>
<path fill="none" stroke="#191970" d="M111.0286,-97.7436C119.3675,-96.5788 128.088,-95.3607 136.7676,-94.1483"/>
<polygon fill="#191970" stroke="#191970" points="137.493,-97.5811 146.9127,-92.7312 136.5246,-90.6484 137.493,-97.5811"/>
</g>
<!-- Node2 -->
<g id="node3" class="node">
<title>Node2</title>
<g id="a_node3"><a xlink:href="../../dc/d2c/classorg_1_1cobbzilla_1_1util_1_1json_1_1JsonUtil_ae4b0ddbe1c463c41b05503ea67eb8f10.html#ae4b0ddbe1c463c41b05503ea67eb8f10" target="_top" xlink:title="org.cobbzilla.util.json.\lJsonUtil.toJsonOrDie">
<polygon fill="none" stroke="#000000" points="630,-96.5 630,-126.5 741,-126.5 741,-96.5 630,-96.5"/>
<text text-anchor="start" x="638" y="-114.5" font-family="Helvetica,sans-Serif" font-size="10.00" fill="#000000">org.cobbzilla.util.json.</text>
<text text-anchor="middle" x="685.5" y="-103.5" font-family="Helvetica,sans-Serif" font-size="10.00" fill="#000000">JsonUtil.toJsonOrDie</text>
</a>
</g>
</g>
<!-- Node1&#45;&gt;Node2 -->
<g id="edge2" class="edge">
<title>Node1&#45;&gt;Node2</title>
<path fill="none" stroke="#191970" d="M583.5286,-111.5C595.2911,-111.5 607.8127,-111.5 619.9081,-111.5"/>
<polygon fill="#191970" stroke="#191970" points="619.942,-115.0001 629.942,-111.5 619.9419,-108.0001 619.942,-115.0001"/>
</g>
<!-- Node3 -->
<g id="node4" class="node">
<title>Node3</title>
<g id="a_node4"><a xlink:href="../../dc/d2c/classorg_1_1cobbzilla_1_1util_1_1json_1_1JsonUtil_aa10cd1ef91d278b645230ab79181d51e.html#aa10cd1ef91d278b645230ab79181d51e" target="_top" xlink:title="org.cobbzilla.util.json.\lJsonUtil.toJson">
<polygon fill="none" stroke="#000000" points="777,-96.5 777,-126.5 888,-126.5 888,-96.5 777,-96.5"/>
<text text-anchor="start" x="785" y="-114.5" font-family="Helvetica,sans-Serif" font-size="10.00" fill="#000000">org.cobbzilla.util.json.</text>
<text text-anchor="middle" x="832.5" y="-103.5" font-family="Helvetica,sans-Serif" font-size="10.00" fill="#000000">JsonUtil.toJson</text>
</a>
</g>
</g>
<!-- Node2&#45;&gt;Node3 -->
<g id="edge3" class="edge">
<title>Node2&#45;&gt;Node3</title>
<path fill="none" stroke="#191970" d="M741.0744,-111.5C749.4894,-111.5 758.2383,-111.5 766.8421,-111.5"/>
<polygon fill="#191970" stroke="#191970" points="766.8471,-115.0001 776.847,-111.5 766.847,-108.0001 766.8471,-115.0001"/>
</g>
<!-- Node3&#45;&gt;Node3 -->
<g id="edge4" class="edge">
<title>Node3&#45;&gt;Node3</title>
<path fill="none" stroke="#191970" d="M807.0565,-126.659C800.9212,-136.0566 809.4023,-145 832.5,-145 846.5751,-145 855.2226,-141.679 858.4424,-136.9579"/>
<polygon fill="#191970" stroke="#191970" points="861.9234,-136.4779 857.9435,-126.659 854.9316,-136.8167 861.9234,-136.4779"/>
</g>
<!-- Node4&#45;&gt;Node1 -->
<g id="edge9" class="edge">
<title>Node4&#45;&gt;Node1</title>
<path fill="none" stroke="#191970" d="M279.0343,-89.3697C332.8453,-94.1529 408.4551,-100.8738 462.2021,-105.6513"/>
<polygon fill="#191970" stroke="#191970" points="462.0391,-109.1505 472.3098,-106.5498 462.659,-102.178 462.0391,-109.1505"/>
</g>
<!-- Node5 -->
<g id="node6" class="node">
<title>Node5</title>
<g id="a_node6"><a xlink:href="../../dc/d2c/classorg_1_1cobbzilla_1_1util_1_1json_1_1JsonUtil_a012540ca836ef7dea8ae971437fb82c7.html#a012540ca836ef7dea8ae971437fb82c7" target="_top" xlink:title="org.cobbzilla.util.json.\lJsonUtil.fromJson">
<polygon fill="none" stroke="#000000" points="315,-49.5 315,-79.5 426,-79.5 426,-49.5 315,-49.5"/>
<text text-anchor="start" x="323" y="-67.5" font-family="Helvetica,sans-Serif" font-size="10.00" fill="#000000">org.cobbzilla.util.json.</text>
<text text-anchor="middle" x="370.5" y="-56.5" font-family="Helvetica,sans-Serif" font-size="10.00" fill="#000000">JsonUtil.fromJson</text>
</a>
</g>
</g>
<!-- Node4&#45;&gt;Node5 -->
<g id="edge6" class="edge">
<title>Node4&#45;&gt;Node5</title>
<path fill="none" stroke="#191970" d="M279.3377,-75.4974C287.7053,-74.4879 296.2646,-73.4554 304.6249,-72.4468"/>
<polygon fill="#191970" stroke="#191970" points="305.189,-75.9043 314.6978,-71.2317 304.3505,-68.9546 305.189,-75.9043"/>
</g>
<!-- Node7 -->
<g id="node8" class="node">
<title>Node7</title>
<g id="a_node8"><a xlink:href="../../dc/d2c/classorg_1_1cobbzilla_1_1util_1_1json_1_1JsonUtil_a76d81863023ff53dcb9a04fa2d7adda0.html#a76d81863023ff53dcb9a04fa2d7adda0" target="_top" xlink:title="org.cobbzilla.util.json.\lJsonUtil.mergeNodes">
<polygon fill="none" stroke="#000000" points="315,-.5 315,-30.5 426,-30.5 426,-.5 315,-.5"/>
<text text-anchor="start" x="323" y="-18.5" font-family="Helvetica,sans-Serif" font-size="10.00" fill="#000000">org.cobbzilla.util.json.</text>
<text text-anchor="middle" x="370.5" y="-7.5" font-family="Helvetica,sans-Serif" font-size="10.00" fill="#000000">JsonUtil.mergeNodes</text>
</a>
</g>
</g>
<!-- Node4&#45;&gt;Node7 -->
<g id="edge10" class="edge">
<title>Node4&#45;&gt;Node7</title>
<path fill="none" stroke="#191970" d="M247.9544,-68.4086C271.0981,-58.4164 301.6416,-45.2293 326.4455,-34.5204"/>
<polygon fill="#191970" stroke="#191970" points="327.8498,-37.7264 335.6434,-30.5492 325.0751,-31.2998 327.8498,-37.7264"/>
</g>
<!-- Node5&#45;&gt;Node1 -->
<g id="edge7" class="edge">
<title>Node5&#45;&gt;Node1</title>
<path fill="none" stroke="#191970" d="M420.767,-79.5003C435.6847,-83.9519 452.1783,-88.8738 467.6652,-93.4953"/>
<polygon fill="#191970" stroke="#191970" points="467.087,-96.9752 477.6703,-96.481 469.0887,-90.2675 467.087,-96.9752"/>
</g>
<!-- Node6 -->
<g id="node7" class="node">
<title>Node6</title>
<g id="a_node7"><a xlink:href="../../dc/d81/classorg_1_1cobbzilla_1_1util_1_1io_1_1StreamUtil_a242c4cb3ac88a027891f05b372294875.html#a242c4cb3ac88a027891f05b372294875" target="_top" xlink:title="org.cobbzilla.util.io.Stream\lUtil.toString">
<polygon fill="none" stroke="#000000" points="462,-47.5 462,-77.5 594,-77.5 594,-47.5 462,-47.5"/>
<text text-anchor="start" x="470" y="-65.5" font-family="Helvetica,sans-Serif" font-size="10.00" fill="#000000">org.cobbzilla.util.io.Stream</text>
<text text-anchor="middle" x="528" y="-54.5" font-family="Helvetica,sans-Serif" font-size="10.00" fill="#000000">Util.toString</text>
</a>
</g>
</g>
<!-- Node5&#45;&gt;Node6 -->
<g id="edge8" class="edge">
<title>Node5&#45;&gt;Node6</title>
<path fill="none" stroke="#191970" d="M426.0286,-63.7949C434.3675,-63.689 443.088,-63.5782 451.7676,-63.468"/>
<polygon fill="#191970" stroke="#191970" points="451.958,-66.966 461.9127,-63.3392 451.869,-59.9666 451.958,-66.966"/>
</g>
</g>
</svg>
