<?xml version="1.0" encoding="UTF-8" standalone="no"?>
<!DOCTYPE svg PUBLIC "-//W3C//DTD SVG 1.1//EN"
 "http://www.w3.org/Graphics/SVG/1.1/DTD/svg11.dtd">
<!-- Generated by graphviz version 2.40.1 (20161225.0304)
 -->
<!-- Title: org.cobbzilla.util.json.JsonUtil.tokenize Pages: 1 -->
<svg width="594pt" height="136pt"
 viewBox="0.00 0.00 594.00 136.00" xmlns="http://www.w3.org/2000/svg" xmlns:xlink="http://www.w3.org/1999/xlink">
<g id="graph0" class="graph" transform="scale(1 1) rotate(0) translate(4 132)">
<title>org.cobbzilla.util.json.JsonUtil.tokenize</title>
<!-- Node1 -->
<g id="node1" class="node">
<title>Node1</title>
<polygon fill="#bfbfbf" stroke="#000000" points="0,-24.5 0,-54.5 111,-54.5 111,-24.5 0,-24.5"/>
<text text-anchor="start" x="8" y="-42.5" font-family="Helvetica,sans-Serif" font-size="10.00" fill="#000000">org.cobbzilla.util.json.</text>
<text text-anchor="middle" x="55.5" y="-31.5" font-family="Helvetica,sans-Serif" font-size="10.00" fill="#000000">JsonUtil.tokenize</text>
</g>
<!-- Node2 -->
<g id="node2" class="node">
<title>Node2</title>
<g id="a_node2"><a xlink:href="../../dc/d2c/classorg_1_1cobbzilla_1_1util_1_1json_1_1JsonUtil_a1713a93cde638e66a102813fbddf8afa.html#a1713a93cde638e66a102813fbddf8afa" target="_top" xlink:title="org.cobbzilla.util.json.\lJsonUtil.findNodePath">
<polygon fill="none" stroke="#000000" points="162,-49.5 162,-79.5 277,-79.5 277,-49.5 162,-49.5"/>
<text text-anchor="start" x="170" y="-67.5" font-family="Helvetica,sans-Serif" font-size="10.00" fill="#000000">org.cobbzilla.util.json.</text>
<text text-anchor="middle" x="219.5" y="-56.5" font-family="Helvetica,sans-Serif" font-size="10.00" fill="#000000">JsonUtil.findNodePath</text>
</a>
</g>
</g>
<!-- Node1&#45;&gt;Node2 -->
<g id="edge1" class="edge">
<title>Node1&#45;&gt;Node2</title>
<path fill="none" stroke="#191970" d="M121.1587,-49.509C134.6019,-51.5582 148.6559,-53.7006 161.7951,-55.7035"/>
<polygon fill="#191970" stroke="#191970" points="121.4362,-46.0109 111.0229,-47.9639 120.3812,-52.931 121.4362,-46.0109"/>
</g>
<!-- Node7 -->
<g id="node7" class="node">
<title>Node7</title>
<g id="a_node7"><a xlink:href="../../d7/df3/classorg_1_1cobbzilla_1_1util_1_1json_1_1JsonEditOperation_a4e156ced0ca5b3d0209e116bcc4af774.html#a4e156ced0ca5b3d0209e116bcc4af774" target="_top" xlink:title="org.cobbzilla.util.json.\lJsonEditOperation.initTokens">
<polygon fill="none" stroke="#000000" points="147,-.5 147,-30.5 292,-30.5 292,-.5 147,-.5"/>
<text text-anchor="start" x="155" y="-18.5" font-family="Helvetica,sans-Serif" font-size="10.00" fill="#000000">org.cobbzilla.util.json.</text>
<text text-anchor="middle" x="219.5" y="-7.5" font-family="Helvetica,sans-Serif" font-size="10.00" fill="#000000">JsonEditOperation.initTokens</text>
</a>
</g>
</g>
<!-- Node1&#45;&gt;Node7 -->
<g id="edge6" class="edge">
<title>Node1&#45;&gt;Node7</title>
<path fill="none" stroke="#191970" d="M121.1857,-29.8875C129.6361,-28.6508 138.3275,-27.3789 146.8809,-26.1272"/>
<polygon fill="#191970" stroke="#191970" points="120.4107,-26.4635 111.0229,-31.3747 121.4244,-33.3897 120.4107,-26.4635"/>
</g>
<!-- Node3 -->
<g id="node3" class="node">
<title>Node3</title>
<g id="a_node3"><a xlink:href="../../dc/d2c/classorg_1_1cobbzilla_1_1util_1_1json_1_1JsonUtil_a6a72c755314acd43c41790df5a009e19.html#a6a72c755314acd43c41790df5a009e19" target="_top" xlink:title="org.cobbzilla.util.json.\lJsonUtil.findNode">
<polygon fill="none" stroke="#000000" points="328,-73.5 328,-103.5 439,-103.5 439,-73.5 328,-73.5"/>
<text text-anchor="start" x="336" y="-91.5" font-family="Helvetica,sans-Serif" font-size="10.00" fill="#000000">org.cobbzilla.util.json.</text>
<text text-anchor="middle" x="383.5" y="-80.5" font-family="Helvetica,sans-Serif" font-size="10.00" fill="#000000">JsonUtil.findNode</text>
</a>
</g>
</g>
<!-- Node2&#45;&gt;Node3 -->
<g id="edge2" class="edge">
<title>Node2&#45;&gt;Node3</title>
<path fill="none" stroke="#191970" d="M287.4741,-74.4474C300.9168,-76.4147 314.8779,-78.4577 327.8537,-80.3566"/>
<polygon fill="#191970" stroke="#191970" points="287.7217,-70.9465 277.3203,-72.9615 286.7081,-77.8727 287.7217,-70.9465"/>
</g>
<!-- Node6 -->
<g id="node6" class="node">
<title>Node6</title>
<g id="a_node6"><a xlink:href="../../dc/d2c/classorg_1_1cobbzilla_1_1util_1_1json_1_1JsonUtil_a8d0be03da317f28bb06dcd550135e30d.html#a8d0be03da317f28bb06dcd550135e30d" target="_top" xlink:title="org.cobbzilla.util.json.\lJsonUtil.replaceNode">
<polygon fill="none" stroke="#000000" points="328,-24.5 328,-54.5 439,-54.5 439,-24.5 328,-24.5"/>
<text text-anchor="start" x="336" y="-42.5" font-family="Helvetica,sans-Serif" font-size="10.00" fill="#000000">org.cobbzilla.util.json.</text>
<text text-anchor="middle" x="383.5" y="-31.5" font-family="Helvetica,sans-Serif" font-size="10.00" fill="#000000">JsonUtil.replaceNode</text>
</a>
</g>
</g>
<!-- Node2&#45;&gt;Node6 -->
<g id="edge5" class="edge">
<title>Node2&#45;&gt;Node6</title>
<path fill="none" stroke="#191970" d="M287.4741,-54.1381C300.9168,-52.0889 314.8779,-49.9607 327.8537,-47.9827"/>
<polygon fill="#191970" stroke="#191970" points="286.6786,-50.7188 277.3203,-55.6859 287.7335,-57.6389 286.6786,-50.7188"/>
</g>
<!-- Node4 -->
<g id="node4" class="node">
<title>Node4</title>
<g id="a_node4"><a xlink:href="../../dc/d2c/classorg_1_1cobbzilla_1_1util_1_1json_1_1JsonUtil_a43c3a5e5aec5e83d8ded7748bbfff180.html#a43c3a5e5aec5e83d8ded7748bbfff180" target="_top" xlink:title="org.cobbzilla.util.json.\lJsonUtil.fromJson">
<polygon fill="none" stroke="#000000" points="475,-97.5 475,-127.5 586,-127.5 586,-97.5 475,-97.5"/>
<text text-anchor="start" x="483" y="-115.5" font-family="Helvetica,sans-Serif" font-size="10.00" fill="#000000">org.cobbzilla.util.json.</text>
<text text-anchor="middle" x="530.5" y="-104.5" font-family="Helvetica,sans-Serif" font-size="10.00" fill="#000000">JsonUtil.fromJson</text>
</a>
</g>
</g>
<!-- Node3&#45;&gt;Node4 -->
<g id="edge3" class="edge">
<title>Node3&#45;&gt;Node4</title>
<path fill="none" stroke="#191970" d="M449.0775,-99.2065C457.6805,-100.6111 466.4299,-102.0396 474.847,-103.4138"/>
<polygon fill="#191970" stroke="#191970" points="449.5077,-95.7305 439.0744,-97.5734 448.3797,-102.639 449.5077,-95.7305"/>
</g>
<!-- Node5 -->
<g id="node5" class="node">
<title>Node5</title>
<g id="a_node5"><a xlink:href="../../dc/d2c/classorg_1_1cobbzilla_1_1util_1_1json_1_1JsonUtil_a4d7991d93b20e6e89ab14af0bae666ee.html#a4d7991d93b20e6e89ab14af0bae666ee" target="_top" xlink:title="org.cobbzilla.util.json.\lJsonUtil.nodeValue">
<polygon fill="none" stroke="#000000" points="475,-48.5 475,-78.5 586,-78.5 586,-48.5 475,-48.5"/>
<text text-anchor="start" x="483" y="-66.5" font-family="Helvetica,sans-Serif" font-size="10.00" fill="#000000">org.cobbzilla.util.json.</text>
<text text-anchor="middle" x="530.5" y="-55.5" font-family="Helvetica,sans-Serif" font-size="10.00" fill="#000000">JsonUtil.nodeValue</text>
</a>
</g>
</g>
<!-- Node3&#45;&gt;Node5 -->
<g id="edge4" class="edge">
<title>Node3&#45;&gt;Node5</title>
<path fill="none" stroke="#191970" d="M449.0775,-77.3474C457.6805,-75.8843 466.4299,-74.3963 474.847,-72.9648"/>
<polygon fill="#191970" stroke="#191970" points="448.346,-73.9214 439.0744,-79.0486 449.5197,-80.8223 448.346,-73.9214"/>
</g>
</g>
</svg>
