<?xml version="1.0" encoding="UTF-8" standalone="no"?>
<!DOCTYPE svg PUBLIC "-//W3C//DTD SVG 1.1//EN"
 "http://www.w3.org/Graphics/SVG/1.1/DTD/svg11.dtd">
<!-- Generated by graphviz version 2.40.1 (20161225.0304)
 -->
<!-- Title: org.cobbzilla.util.json.JsonUtil.findNodePath Pages: 1 -->
<svg width="417pt" height="112pt"
 viewBox="0.00 0.00 417.00 112.00" xmlns="http://www.w3.org/2000/svg" xmlns:xlink="http://www.w3.org/1999/xlink">
<g id="graph0" class="graph" transform="scale(1 1) rotate(0) translate(4 108)">
<title>org.cobbzilla.util.json.JsonUtil.findNodePath</title>
<!-- Node2 -->
<g id="node1" class="node">
<title>Node2</title>
<polygon fill="#bfbfbf" stroke="#000000" points="0,-24.5 0,-54.5 115,-54.5 115,-24.5 0,-24.5"/>
<text text-anchor="start" x="8" y="-42.5" font-family="Helvetica,sans-Serif" font-size="10.00" fill="#000000">org.cobbzilla.util.json.</text>
<text text-anchor="middle" x="57.5" y="-31.5" font-family="Helvetica,sans-Serif" font-size="10.00" fill="#000000">JsonUtil.findNodePath</text>
</g>
<!-- Node3 -->
<g id="node2" class="node">
<title>Node3</title>
<g id="a_node2"><a xlink:href="../../dc/d2c/classorg_1_1cobbzilla_1_1util_1_1json_1_1JsonUtil_a6a72c755314acd43c41790df5a009e19.html#a6a72c755314acd43c41790df5a009e19" target="_top" xlink:title="org.cobbzilla.util.json.\lJsonUtil.findNode">
<polygon fill="none" stroke="#000000" points="151,-49.5 151,-79.5 262,-79.5 262,-49.5 151,-49.5"/>
<text text-anchor="start" x="159" y="-67.5" font-family="Helvetica,sans-Serif" font-size="10.00" fill="#000000">org.cobbzilla.util.json.</text>
<text text-anchor="middle" x="206.5" y="-56.5" font-family="Helvetica,sans-Serif" font-size="10.00" fill="#000000">JsonUtil.findNode</text>
</a>
</g>
</g>
<!-- Node2&#45;&gt;Node3 -->
<g id="edge1" class="edge">
<title>Node2&#45;&gt;Node3</title>
<path fill="none" stroke="#191970" d="M125.0294,-50.8304C133.5527,-52.2605 142.1988,-53.7112 150.5161,-55.1067"/>
<polygon fill="#191970" stroke="#191970" points="125.5486,-47.3687 115.1073,-49.1657 124.3903,-54.2722 125.5486,-47.3687"/>
</g>
<!-- Node6 -->
<g id="node5" class="node">
<title>Node6</title>
<g id="a_node5"><a xlink:href="../../dc/d2c/classorg_1_1cobbzilla_1_1util_1_1json_1_1JsonUtil_a8d0be03da317f28bb06dcd550135e30d.html#a8d0be03da317f28bb06dcd550135e30d" target="_top" xlink:title="org.cobbzilla.util.json.\lJsonUtil.replaceNode">
<polygon fill="none" stroke="#000000" points="151,-.5 151,-30.5 262,-30.5 262,-.5 151,-.5"/>
<text text-anchor="start" x="159" y="-18.5" font-family="Helvetica,sans-Serif" font-size="10.00" fill="#000000">org.cobbzilla.util.json.</text>
<text text-anchor="middle" x="206.5" y="-7.5" font-family="Helvetica,sans-Serif" font-size="10.00" fill="#000000">JsonUtil.replaceNode</text>
</a>
</g>
</g>
<!-- Node2&#45;&gt;Node6 -->
<g id="edge4" class="edge">
<title>Node2&#45;&gt;Node6</title>
<path fill="none" stroke="#191970" d="M125.0294,-28.6228C133.5527,-27.2499 142.1988,-25.8572 150.5161,-24.5175"/>
<polygon fill="#191970" stroke="#191970" points="124.4234,-25.1752 115.1073,-30.221 125.5367,-32.0861 124.4234,-25.1752"/>
</g>
<!-- Node4 -->
<g id="node3" class="node">
<title>Node4</title>
<g id="a_node3"><a xlink:href="../../dc/d2c/classorg_1_1cobbzilla_1_1util_1_1json_1_1JsonUtil_a43c3a5e5aec5e83d8ded7748bbfff180.html#a43c3a5e5aec5e83d8ded7748bbfff180" target="_top" xlink:title="org.cobbzilla.util.json.\lJsonUtil.fromJson">
<polygon fill="none" stroke="#000000" points="298,-73.5 298,-103.5 409,-103.5 409,-73.5 298,-73.5"/>
<text text-anchor="start" x="306" y="-91.5" font-family="Helvetica,sans-Serif" font-size="10.00" fill="#000000">org.cobbzilla.util.json.</text>
<text text-anchor="middle" x="353.5" y="-80.5" font-family="Helvetica,sans-Serif" font-size="10.00" fill="#000000">JsonUtil.fromJson</text>
</a>
</g>
</g>
<!-- Node3&#45;&gt;Node4 -->
<g id="edge2" class="edge">
<title>Node3&#45;&gt;Node4</title>
<path fill="none" stroke="#191970" d="M272.0775,-75.2065C280.6805,-76.6111 289.4299,-78.0396 297.847,-79.4138"/>
<polygon fill="#191970" stroke="#191970" points="272.5077,-71.7305 262.0744,-73.5734 271.3797,-78.639 272.5077,-71.7305"/>
</g>
<!-- Node5 -->
<g id="node4" class="node">
<title>Node5</title>
<g id="a_node4"><a xlink:href="../../dc/d2c/classorg_1_1cobbzilla_1_1util_1_1json_1_1JsonUtil_a4d7991d93b20e6e89ab14af0bae666ee.html#a4d7991d93b20e6e89ab14af0bae666ee" target="_top" xlink:title="org.cobbzilla.util.json.\lJsonUtil.nodeValue">
<polygon fill="none" stroke="#000000" points="298,-24.5 298,-54.5 409,-54.5 409,-24.5 298,-24.5"/>
<text text-anchor="start" x="306" y="-42.5" font-family="Helvetica,sans-Serif" font-size="10.00" fill="#000000">org.cobbzilla.util.json.</text>
<text text-anchor="middle" x="353.5" y="-31.5" font-family="Helvetica,sans-Serif" font-size="10.00" fill="#000000">JsonUtil.nodeValue</text>
</a>
</g>
</g>
<!-- Node3&#45;&gt;Node5 -->
<g id="edge3" class="edge">
<title>Node3&#45;&gt;Node5</title>
<path fill="none" stroke="#191970" d="M272.0775,-53.3474C280.6805,-51.8843 289.4299,-50.3963 297.847,-48.9648"/>
<polygon fill="#191970" stroke="#191970" points="271.346,-49.9214 262.0744,-55.0486 272.5197,-56.8223 271.346,-49.9214"/>
</g>
</g>
</svg>
