<?xml version="1.0" encoding="UTF-8" standalone="no"?>
<!DOCTYPE svg PUBLIC "-//W3C//DTD SVG 1.1//EN"
 "http://www.w3.org/Graphics/SVG/1.1/DTD/svg11.dtd">
<!-- Generated by graphviz version 2.40.1 (20161225.0304)
 -->
<!-- Title: org.cobbzilla.util.json.JsonUtil.toString Pages: 1 -->
<svg width="437pt" height="112pt"
 viewBox="0.00 0.00 437.00 112.00" xmlns="http://www.w3.org/2000/svg" xmlns:xlink="http://www.w3.org/1999/xlink">
<g id="graph0" class="graph" transform="scale(1 1) rotate(0) translate(4 108)">
<title>org.cobbzilla.util.json.JsonUtil.toString</title>
<!-- Node1 -->
<g id="node1" class="node">
<title>Node1</title>
<polygon fill="#bfbfbf" stroke="#000000" points="0,-24.5 0,-54.5 111,-54.5 111,-24.5 0,-24.5"/>
<text text-anchor="start" x="8" y="-42.5" font-family="Helvetica,sans-Serif" font-size="10.00" fill="#000000">org.cobbzilla.util.json.</text>
<text text-anchor="middle" x="55.5" y="-31.5" font-family="Helvetica,sans-Serif" font-size="10.00" fill="#000000">JsonUtil.toString</text>
</g>
<!-- Node2 -->
<g id="node2" class="node">
<title>Node2</title>
<g id="a_node2"><a xlink:href="../../d0/d44/classorg_1_1cobbzilla_1_1util_1_1json_1_1JsonEdit_a89997f01f59da2657d094cff40f28ba4.html#a89997f01f59da2657d094cff40f28ba4" target="_top" xlink:title="org.cobbzilla.util.json.\lJsonEdit.edit">
<polygon fill="none" stroke="#000000" points="147,-49.5 147,-79.5 258,-79.5 258,-49.5 147,-49.5"/>
<text text-anchor="start" x="155" y="-67.5" font-family="Helvetica,sans-Serif" font-size="10.00" fill="#000000">org.cobbzilla.util.json.</text>
<text text-anchor="middle" x="202.5" y="-56.5" font-family="Helvetica,sans-Serif" font-size="10.00" fill="#000000">JsonEdit.edit</text>
</a>
</g>
</g>
<!-- Node1&#45;&gt;Node2 -->
<g id="edge1" class="edge">
<title>Node1&#45;&gt;Node2</title>
<path fill="none" stroke="#191970" d="M121.0775,-50.6526C129.6805,-52.1157 138.4299,-53.6037 146.847,-55.0352"/>
<polygon fill="#191970" stroke="#191970" points="121.5197,-47.1777 111.0744,-48.9514 120.346,-54.0786 121.5197,-47.1777"/>
</g>
<!-- Node5 -->
<g id="node5" class="node">
<title>Node5</title>
<g id="a_node5"><a xlink:href="../../dc/d2c/classorg_1_1cobbzilla_1_1util_1_1json_1_1JsonUtil_a4d7991d93b20e6e89ab14af0bae666ee.html#a4d7991d93b20e6e89ab14af0bae666ee" target="_top" xlink:title="org.cobbzilla.util.json.\lJsonUtil.nodeValue">
<polygon fill="none" stroke="#000000" points="147,-.5 147,-30.5 258,-30.5 258,-.5 147,-.5"/>
<text text-anchor="start" x="155" y="-18.5" font-family="Helvetica,sans-Serif" font-size="10.00" fill="#000000">org.cobbzilla.util.json.</text>
<text text-anchor="middle" x="202.5" y="-7.5" font-family="Helvetica,sans-Serif" font-size="10.00" fill="#000000">JsonUtil.nodeValue</text>
</a>
</g>
</g>
<!-- Node1&#45;&gt;Node5 -->
<g id="edge4" class="edge">
<title>Node1&#45;&gt;Node5</title>
<path fill="none" stroke="#191970" d="M121.0775,-28.7935C129.6805,-27.3889 138.4299,-25.9604 146.847,-24.5862"/>
<polygon fill="#191970" stroke="#191970" points="120.3797,-25.361 111.0744,-30.4266 121.5077,-32.2695 120.3797,-25.361"/>
</g>
<!-- Node3 -->
<g id="node3" class="node">
<title>Node3</title>
<g id="a_node3"><a xlink:href="../../d3/d75/classorg_1_1cobbzilla_1_1util_1_1json_1_1main_1_1JsonEditor_ad06ae51ad03acf41df4ddca3500bc086.html#ad06ae51ad03acf41df4ddca3500bc086" target="_top" xlink:title="org.cobbzilla.util.json.main.\lJsonEditor.run">
<polygon fill="none" stroke="#000000" points="294,-73.5 294,-103.5 429,-103.5 429,-73.5 294,-73.5"/>
<text text-anchor="start" x="302" y="-91.5" font-family="Helvetica,sans-Serif" font-size="10.00" fill="#000000">org.cobbzilla.util.json.main.</text>
<text text-anchor="middle" x="361.5" y="-80.5" font-family="Helvetica,sans-Serif" font-size="10.00" fill="#000000">JsonEditor.run</text>
</a>
</g>
</g>
<!-- Node2&#45;&gt;Node3 -->
<g id="edge2" class="edge">
<title>Node2&#45;&gt;Node3</title>
<path fill="none" stroke="#191970" d="M268.0092,-74.3882C276.5494,-75.6773 285.312,-76.9999 293.886,-78.2941"/>
<polygon fill="#191970" stroke="#191970" points="268.5209,-70.9259 258.1105,-72.894 267.4761,-77.8474 268.5209,-70.9259"/>
</g>
<!-- Node4 -->
<g id="node4" class="node">
<title>Node4</title>
<g id="a_node4"><a xlink:href="../../d1/d68/classorg_1_1cobbzilla_1_1util_1_1json_1_1JsonEditTest_ab3fb98ec8772451e27673ba5d5368cd7.html#ab3fb98ec8772451e27673ba5d5368cd7" target="_top" xlink:title="org.cobbzilla.util.json.\lJsonEditTest.testEditJson">
<polygon fill="none" stroke="#000000" points="295.5,-24.5 295.5,-54.5 427.5,-54.5 427.5,-24.5 295.5,-24.5"/>
<text text-anchor="start" x="303.5" y="-42.5" font-family="Helvetica,sans-Serif" font-size="10.00" fill="#000000">org.cobbzilla.util.json.</text>
<text text-anchor="middle" x="361.5" y="-31.5" font-family="Helvetica,sans-Serif" font-size="10.00" fill="#000000">JsonEditTest.testEditJson</text>
</a>
</g>
</g>
<!-- Node2&#45;&gt;Node4 -->
<g id="edge3" class="edge">
<title>Node2&#45;&gt;Node4</title>
<path fill="none" stroke="#191970" d="M268.1085,-54.1842C277.078,-52.7739 286.2909,-51.3253 295.2713,-49.9133"/>
<polygon fill="#191970" stroke="#191970" points="267.4455,-50.7454 258.1105,-55.7562 268.5328,-57.6604 267.4455,-50.7454"/>
</g>
</g>
</svg>
