<?xml version="1.0" encoding="UTF-8" standalone="no"?>
<!DOCTYPE svg PUBLIC "-//W3C//DTD SVG 1.1//EN"
 "http://www.w3.org/Graphics/SVG/1.1/DTD/svg11.dtd">
<!-- Generated by graphviz version 2.40.1 (20161225.0304)
 -->
<!-- Title: org.cobbzilla.util.json.JsonUtil.jsonWithComments Pages: 1 -->
<svg width="607pt" height="88pt"
 viewBox="0.00 0.00 607.00 88.00" xmlns="http://www.w3.org/2000/svg" xmlns:xlink="http://www.w3.org/1999/xlink">
<g id="graph0" class="graph" transform="scale(1 1) rotate(0) translate(4 84)">
<title>org.cobbzilla.util.json.JsonUtil.jsonWithComments</title>
<!-- Node0 -->
<g id="node1" class="node">
<title>Node0</title>
<polygon fill="#bfbfbf" stroke="#000000" points="0,-24.5 0,-54.5 142,-54.5 142,-24.5 0,-24.5"/>
<text text-anchor="start" x="8" y="-42.5" font-family="Helvetica,sans-Serif" font-size="10.00" fill="#000000">org.cobbzilla.util.json.</text>
<text text-anchor="middle" x="71" y="-31.5" font-family="Helvetica,sans-Serif" font-size="10.00" fill="#000000">JsonUtil.jsonWithComments</text>
</g>
<!-- Node1 -->
<g id="node2" class="node">
<title>Node1</title>
<g id="a_node2"><a xlink:href="../../dc/d2c/classorg_1_1cobbzilla_1_1util_1_1json_1_1JsonUtil_afa60fed1f5aa26f6b3806c8d7c9cbea5.html#afa60fed1f5aa26f6b3806c8d7c9cbea5" target="_top" xlink:title="org.cobbzilla.util.json.\lJsonUtil.fromJsonOrDie">
<polygon fill="none" stroke="#000000" points="178,-49.5 178,-79.5 300,-79.5 300,-49.5 178,-49.5"/>
<text text-anchor="start" x="186" y="-67.5" font-family="Helvetica,sans-Serif" font-size="10.00" fill="#000000">org.cobbzilla.util.json.</text>
<text text-anchor="middle" x="239" y="-56.5" font-family="Helvetica,sans-Serif" font-size="10.00" fill="#000000">JsonUtil.fromJsonOrDie</text>
</a>
</g>
</g>
<!-- Node0&#45;&gt;Node1 -->
<g id="edge1" class="edge">
<title>Node0&#45;&gt;Node1</title>
<path fill="none" stroke="#191970" d="M142.2471,-50.1023C150.7961,-51.3744 159.5255,-52.6734 168.07,-53.9449"/>
<polygon fill="#191970" stroke="#191970" points="167.5874,-57.4116 177.9936,-55.4217 168.6177,-50.4878 167.5874,-57.4116"/>
</g>
<!-- Node3 -->
<g id="node4" class="node">
<title>Node3</title>
<g id="a_node4"><a xlink:href="../../dc/d2c/classorg_1_1cobbzilla_1_1util_1_1json_1_1JsonUtil_a4181f7525f80c694d58881fca5fe097f.html#a4181f7525f80c694d58881fca5fe097f" target="_top" xlink:title="org.cobbzilla.util.json.\lJsonUtil.json">
<polygon fill="none" stroke="#000000" points="183.5,-.5 183.5,-30.5 294.5,-30.5 294.5,-.5 183.5,-.5"/>
<text text-anchor="start" x="191.5" y="-18.5" font-family="Helvetica,sans-Serif" font-size="10.00" fill="#000000">org.cobbzilla.util.json.</text>
<text text-anchor="middle" x="239" y="-7.5" font-family="Helvetica,sans-Serif" font-size="10.00" fill="#000000">JsonUtil.json</text>
</a>
</g>
</g>
<!-- Node0&#45;&gt;Node3 -->
<g id="edge3" class="edge">
<title>Node0&#45;&gt;Node3</title>
<path fill="none" stroke="#191970" d="M142.2471,-29.3218C152.5763,-27.8462 163.169,-26.333 173.3805,-24.8742"/>
<polygon fill="#191970" stroke="#191970" points="174.0367,-28.3161 183.4412,-23.437 173.0467,-21.3865 174.0367,-28.3161"/>
</g>
<!-- Node2 -->
<g id="node3" class="node">
<title>Node2</title>
<g id="a_node3"><a xlink:href="../../df/dac/classorg_1_1cobbzilla_1_1util_1_1io_1_1FileUtil_a0f510aeca1ca214915d575181815e6ac.html#a0f510aeca1ca214915d575181815e6ac" target="_top" xlink:title="org.cobbzilla.util.io.File\lUtil.toStringOrDie">
<polygon fill="none" stroke="#000000" points="336,-49.5 336,-79.5 452,-79.5 452,-49.5 336,-49.5"/>
<text text-anchor="start" x="344" y="-67.5" font-family="Helvetica,sans-Serif" font-size="10.00" fill="#000000">org.cobbzilla.util.io.File</text>
<text text-anchor="middle" x="394" y="-56.5" font-family="Helvetica,sans-Serif" font-size="10.00" fill="#000000">Util.toStringOrDie</text>
</a>
</g>
</g>
<!-- Node1&#45;&gt;Node2 -->
<g id="edge2" class="edge">
<title>Node1&#45;&gt;Node2</title>
<path fill="none" stroke="#191970" d="M300.2601,-64.5C308.6222,-64.5 317.2484,-64.5 325.7253,-64.5"/>
<polygon fill="#191970" stroke="#191970" points="325.9634,-68.0001 335.9634,-64.5 325.9633,-61.0001 325.9634,-68.0001"/>
</g>
<!-- Node4 -->
<g id="node5" class="node">
<title>Node4</title>
<g id="a_node5"><a xlink:href="../../dc/d2c/classorg_1_1cobbzilla_1_1util_1_1json_1_1JsonUtil_ae4b0ddbe1c463c41b05503ea67eb8f10.html#ae4b0ddbe1c463c41b05503ea67eb8f10" target="_top" xlink:title="org.cobbzilla.util.json.\lJsonUtil.toJsonOrDie">
<polygon fill="none" stroke="#000000" points="338.5,-.5 338.5,-30.5 449.5,-30.5 449.5,-.5 338.5,-.5"/>
<text text-anchor="start" x="346.5" y="-18.5" font-family="Helvetica,sans-Serif" font-size="10.00" fill="#000000">org.cobbzilla.util.json.</text>
<text text-anchor="middle" x="394" y="-7.5" font-family="Helvetica,sans-Serif" font-size="10.00" fill="#000000">JsonUtil.toJsonOrDie</text>
</a>
</g>
</g>
<!-- Node3&#45;&gt;Node4 -->
<g id="edge4" class="edge">
<title>Node3&#45;&gt;Node4</title>
<path fill="none" stroke="#191970" d="M294.5208,-15.5C305.4279,-15.5 316.9683,-15.5 328.1752,-15.5"/>
<polygon fill="#191970" stroke="#191970" points="328.346,-19.0001 338.3459,-15.5 328.3459,-12.0001 328.346,-19.0001"/>
</g>
<!-- Node5 -->
<g id="node6" class="node">
<title>Node5</title>
<g id="a_node6"><a xlink:href="../../dc/d2c/classorg_1_1cobbzilla_1_1util_1_1json_1_1JsonUtil_aa10cd1ef91d278b645230ab79181d51e.html#aa10cd1ef91d278b645230ab79181d51e" target="_top" xlink:title="org.cobbzilla.util.json.\lJsonUtil.toJson">
<polygon fill="none" stroke="#000000" points="488,-.5 488,-30.5 599,-30.5 599,-.5 488,-.5"/>
<text text-anchor="start" x="496" y="-18.5" font-family="Helvetica,sans-Serif" font-size="10.00" fill="#000000">org.cobbzilla.util.json.</text>
<text text-anchor="middle" x="543.5" y="-7.5" font-family="Helvetica,sans-Serif" font-size="10.00" fill="#000000">JsonUtil.toJson</text>
</a>
</g>
</g>
<!-- Node4&#45;&gt;Node5 -->
<g id="edge5" class="edge">
<title>Node4&#45;&gt;Node5</title>
<path fill="none" stroke="#191970" d="M449.6683,-15.5C458.8132,-15.5 468.3664,-15.5 477.729,-15.5"/>
<polygon fill="#191970" stroke="#191970" points="477.7853,-19.0001 487.7852,-15.5 477.7852,-12.0001 477.7853,-19.0001"/>
</g>
<!-- Node5&#45;&gt;Node5 -->
<g id="edge6" class="edge">
<title>Node5&#45;&gt;Node5</title>
<path fill="none" stroke="#191970" d="M517.7079,-30.659C511.4886,-40.0566 520.0859,-49 543.5,-49 557.7679,-49 566.5339,-45.679 569.7978,-40.9579"/>
<polygon fill="#191970" stroke="#191970" points="573.2784,-40.4753 569.2921,-30.659 566.2868,-40.8187 573.2784,-40.4753"/>
</g>
</g>
</svg>
