<?xml version="1.0" encoding="UTF-8" standalone="no"?>
<!DOCTYPE svg PUBLIC "-//W3C//DTD SVG 1.1//EN"
 "http://www.w3.org/Graphics/SVG/1.1/DTD/svg11.dtd">
<!-- Generated by graphviz version 2.40.1 (20161225.0304)
 -->
<!-- Title: org.cobbzilla.util.json.JsonUtil.toNode Pages: 1 -->
<svg width="429pt" height="61pt"
 viewBox="0.00 0.00 429.00 61.00" xmlns="http://www.w3.org/2000/svg" xmlns:xlink="http://www.w3.org/1999/xlink">
<g id="graph0" class="graph" transform="scale(1 1) rotate(0) translate(4 57)">
<title>org.cobbzilla.util.json.JsonUtil.toNode</title>
<!-- Node0 -->
<g id="node1" class="node">
<title>Node0</title>
<polygon fill="#bfbfbf" stroke="#000000" points="0,-.5 0,-30.5 111,-30.5 111,-.5 0,-.5"/>
<text text-anchor="start" x="8" y="-18.5" font-family="Helvetica,sans-Serif" font-size="10.00" fill="#000000">org.cobbzilla.util.json.</text>
<text text-anchor="middle" x="55.5" y="-7.5" font-family="Helvetica,sans-Serif" font-size="10.00" fill="#000000">JsonUtil.toNode</text>
</g>
<!-- Node1 -->
<g id="node2" class="node">
<title>Node1</title>
<g id="a_node2"><a xlink:href="../../dc/d2c/classorg_1_1cobbzilla_1_1util_1_1json_1_1JsonUtil_afa60fed1f5aa26f6b3806c8d7c9cbea5.html#afa60fed1f5aa26f6b3806c8d7c9cbea5" target="_top" xlink:title="org.cobbzilla.util.json.\lJsonUtil.fromJsonOrDie">
<polygon fill="none" stroke="#000000" points="147,-22.5 147,-52.5 269,-52.5 269,-22.5 147,-22.5"/>
<text text-anchor="start" x="155" y="-40.5" font-family="Helvetica,sans-Serif" font-size="10.00" fill="#000000">org.cobbzilla.util.json.</text>
<text text-anchor="middle" x="208" y="-29.5" font-family="Helvetica,sans-Serif" font-size="10.00" fill="#000000">JsonUtil.fromJsonOrDie</text>
</a>
</g>
</g>
<!-- Node0&#45;&gt;Node1 -->
<g id="edge1" class="edge">
<title>Node0&#45;&gt;Node1</title>
<path fill="none" stroke="#191970" d="M111.4194,-23.5671C119.7288,-24.7658 128.3857,-26.0147 136.9546,-27.2508"/>
<polygon fill="#191970" stroke="#191970" points="136.5498,-30.7286 146.9471,-28.6924 137.5493,-23.8003 136.5498,-30.7286"/>
</g>
<!-- Node2 -->
<g id="node3" class="node">
<title>Node2</title>
<g id="a_node3"><a xlink:href="../../df/dac/classorg_1_1cobbzilla_1_1util_1_1io_1_1FileUtil_a0f510aeca1ca214915d575181815e6ac.html#a0f510aeca1ca214915d575181815e6ac" target="_top" xlink:title="org.cobbzilla.util.io.File\lUtil.toStringOrDie">
<polygon fill="none" stroke="#000000" points="305,-.5 305,-30.5 421,-30.5 421,-.5 305,-.5"/>
<text text-anchor="start" x="313" y="-18.5" font-family="Helvetica,sans-Serif" font-size="10.00" fill="#000000">org.cobbzilla.util.io.File</text>
<text text-anchor="middle" x="363" y="-7.5" font-family="Helvetica,sans-Serif" font-size="10.00" fill="#000000">Util.toStringOrDie</text>
</a>
</g>
</g>
<!-- Node0&#45;&gt;Node2 -->
<g id="edge3" class="edge">
<title>Node0&#45;&gt;Node2</title>
<path fill="none" stroke="#191970" d="M111.1421,-14.0894C122.9776,-13.8438 135.4016,-13.6267 147,-13.5 201.219,-12.9075 214.7808,-12.9233 269,-13.5 277.3294,-13.5886 286.0733,-13.7214 294.7355,-13.8771"/>
<polygon fill="#191970" stroke="#191970" points="294.772,-17.3784 304.8368,-14.0693 294.9052,-10.3796 294.772,-17.3784"/>
</g>
<!-- Node1&#45;&gt;Node2 -->
<g id="edge2" class="edge">
<title>Node1&#45;&gt;Node2</title>
<path fill="none" stroke="#191970" d="M269.2601,-28.805C277.7141,-27.6051 286.4381,-26.3669 295.0047,-25.1509"/>
<polygon fill="#191970" stroke="#191970" points="295.5545,-28.6081 304.9634,-23.7375 294.5707,-21.6775 295.5545,-28.6081"/>
</g>
</g>
</svg>
