<?xml version="1.0" encoding="UTF-8" standalone="no"?>
<!DOCTYPE svg PUBLIC "-//W3C//DTD SVG 1.1//EN"
 "http://www.w3.org/Graphics/SVG/1.1/DTD/svg11.dtd">
<!-- Generated by graphviz version 2.40.1 (20161225.0304)
 -->
<!-- Title: org.cobbzilla.util.json.JsonUtil.fromJson Pages: 1 -->
<svg width="548pt" height="333pt"
 viewBox="0.00 0.00 548.00 333.00" xmlns="http://www.w3.org/2000/svg" xmlns:xlink="http://www.w3.org/1999/xlink">
<g id="graph0" class="graph" transform="scale(1 1) rotate(0) translate(4 329)">
<title>org.cobbzilla.util.json.JsonUtil.fromJson</title>
<!-- Node5 -->
<g id="node1" class="node">
<title>Node5</title>
<polygon fill="#bfbfbf" stroke="#000000" points="0,-147.5 0,-177.5 111,-177.5 111,-147.5 0,-147.5"/>
<text text-anchor="start" x="8" y="-165.5" font-family="Helvetica,sans-Serif" font-size="10.00" fill="#000000">org.cobbzilla.util.json.</text>
<text text-anchor="middle" x="55.5" y="-154.5" font-family="Helvetica,sans-Serif" font-size="10.00" fill="#000000">JsonUtil.fromJson</text>
</g>
<!-- Node6 -->
<g id="node2" class="node">
<title>Node6</title>
<g id="a_node2"><a xlink:href="../../d9/d3d/classorg_1_1cobbzilla_1_1util_1_1json_1_1JsonUtilTest_a239642f3764a1c94c594d22e2629b3c1.html#a239642f3764a1c94c594d22e2629b3c1" target="_top" xlink:title="org.cobbzilla.util.json.\lJsonUtilTest.assertReplacementMade">
<polygon fill="none" stroke="#000000" points="147,-294.5 147,-324.5 331,-324.5 331,-294.5 147,-294.5"/>
<text text-anchor="start" x="155" y="-312.5" font-family="Helvetica,sans-Serif" font-size="10.00" fill="#000000">org.cobbzilla.util.json.</text>
<text text-anchor="middle" x="239" y="-301.5" font-family="Helvetica,sans-Serif" font-size="10.00" fill="#000000">JsonUtilTest.assertReplacementMade</text>
</a>
</g>
</g>
<!-- Node5&#45;&gt;Node6 -->
<g id="edge1" class="edge">
<title>Node5&#45;&gt;Node6</title>
<path fill="none" stroke="#191970" d="M67.0811,-186.7168C81.753,-214.7701 109.6906,-260.3463 147,-285.5 152.0641,-288.9142 157.5861,-291.8428 163.328,-294.3549"/>
<polygon fill="#191970" stroke="#191970" points="70.0956,-184.9226 62.4511,-177.587 63.8526,-188.0887 70.0956,-184.9226"/>
</g>
<!-- Node8 -->
<g id="node4" class="node">
<title>Node8</title>
<g id="a_node4"><a xlink:href="../../dc/d2c/classorg_1_1cobbzilla_1_1util_1_1json_1_1JsonUtil_a7306126614b51464932ef1d46b760f30.html#a7306126614b51464932ef1d46b760f30" target="_top" xlink:title="org.cobbzilla.util.json.\lJsonUtil.fromJson">
<polygon fill="none" stroke="#000000" points="183.5,-245.5 183.5,-275.5 294.5,-275.5 294.5,-245.5 183.5,-245.5"/>
<text text-anchor="start" x="191.5" y="-263.5" font-family="Helvetica,sans-Serif" font-size="10.00" fill="#000000">org.cobbzilla.util.json.</text>
<text text-anchor="middle" x="239" y="-252.5" font-family="Helvetica,sans-Serif" font-size="10.00" fill="#000000">JsonUtil.fromJson</text>
</a>
</g>
</g>
<!-- Node5&#45;&gt;Node8 -->
<g id="edge3" class="edge">
<title>Node5&#45;&gt;Node8</title>
<path fill="none" stroke="#191970" d="M77.3397,-184.7024C94.7777,-201.2343 120.5891,-223.1633 147,-236.5 158.1984,-242.1548 170.8561,-246.5673 183.1197,-249.9768"/>
<polygon fill="#191970" stroke="#191970" points="79.5619,-181.982 69.9447,-177.5367 74.6907,-187.0091 79.5619,-181.982"/>
</g>
<!-- Node9 -->
<g id="node5" class="node">
<title>Node9</title>
<g id="a_node5"><a xlink:href="../../dc/d2c/classorg_1_1cobbzilla_1_1util_1_1json_1_1JsonUtil_a5f816d81de3ddd762863e64b9d235f86.html#a5f816d81de3ddd762863e64b9d235f86" target="_top" xlink:title="org.cobbzilla.util.json.\lJsonUtil.fromJsonOrDie">
<polygon fill="none" stroke="#000000" points="178,-196.5 178,-226.5 300,-226.5 300,-196.5 178,-196.5"/>
<text text-anchor="start" x="186" y="-214.5" font-family="Helvetica,sans-Serif" font-size="10.00" fill="#000000">org.cobbzilla.util.json.</text>
<text text-anchor="middle" x="239" y="-203.5" font-family="Helvetica,sans-Serif" font-size="10.00" fill="#000000">JsonUtil.fromJsonOrDie</text>
</a>
</g>
</g>
<!-- Node5&#45;&gt;Node9 -->
<g id="edge4" class="edge">
<title>Node5&#45;&gt;Node9</title>
<path fill="none" stroke="#191970" d="M119.9223,-180.2019C129.0092,-182.6696 138.237,-185.1599 147,-187.5 158.0041,-190.4385 169.7598,-193.5365 181.0626,-196.4945"/>
<polygon fill="#191970" stroke="#191970" points="120.7142,-176.7902 110.146,-177.5413 118.876,-183.5445 120.7142,-176.7902"/>
</g>
<!-- Node10 -->
<g id="node6" class="node">
<title>Node10</title>
<g id="a_node6"><a xlink:href="../../d2/dc3/classorg_1_1cobbzilla_1_1util_1_1handlebars_1_1main_1_1PdfMergeOptions_a0fb7412217c1fa7e0e1f85ecdca5df60.html#a0fb7412217c1fa7e0e1f85ecdca5df60" target="_top" xlink:title="org.cobbzilla.util.handlebars.main.\lPdfMergeOptions.getContext">
<polygon fill="none" stroke="#000000" points="157,-147.5 157,-177.5 321,-177.5 321,-147.5 157,-147.5"/>
<text text-anchor="start" x="165" y="-165.5" font-family="Helvetica,sans-Serif" font-size="10.00" fill="#000000">org.cobbzilla.util.handlebars.main.</text>
<text text-anchor="middle" x="239" y="-154.5" font-family="Helvetica,sans-Serif" font-size="10.00" fill="#000000">PdfMergeOptions.getContext</text>
</a>
</g>
</g>
<!-- Node5&#45;&gt;Node10 -->
<g id="edge5" class="edge">
<title>Node5&#45;&gt;Node10</title>
<path fill="none" stroke="#191970" d="M121.0754,-162.5C132.6814,-162.5 144.8973,-162.5 156.891,-162.5"/>
<polygon fill="#191970" stroke="#191970" points="121.0541,-159.0001 111.054,-162.5 121.054,-166.0001 121.0541,-159.0001"/>
</g>
<!-- Node12 -->
<g id="node8" class="node">
<title>Node12</title>
<g id="a_node8"><a xlink:href="../../dc/d2c/classorg_1_1cobbzilla_1_1util_1_1json_1_1JsonUtil_a27f0e0cf42d6f0099f15e238509207b9.html#a27f0e0cf42d6f0099f15e238509207b9" target="_top" xlink:title="org.cobbzilla.util.json.\lJsonUtil.mergeJson">
<polygon fill="none" stroke="#000000" points="183.5,-98.5 183.5,-128.5 294.5,-128.5 294.5,-98.5 183.5,-98.5"/>
<text text-anchor="start" x="191.5" y="-116.5" font-family="Helvetica,sans-Serif" font-size="10.00" fill="#000000">org.cobbzilla.util.json.</text>
<text text-anchor="middle" x="239" y="-105.5" font-family="Helvetica,sans-Serif" font-size="10.00" fill="#000000">JsonUtil.mergeJson</text>
</a>
</g>
</g>
<!-- Node5&#45;&gt;Node12 -->
<g id="edge7" class="edge">
<title>Node5&#45;&gt;Node12</title>
<path fill="none" stroke="#191970" d="M120.9034,-145.0353C141.3187,-139.5838 163.6355,-133.6246 183.3184,-128.3687"/>
<polygon fill="#191970" stroke="#191970" points="119.8125,-141.7039 111.054,-147.6654 121.6185,-148.467 119.8125,-141.7039"/>
</g>
<!-- Node15 -->
<g id="node11" class="node">
<title>Node15</title>
<g id="a_node11"><a xlink:href="../../dc/d2c/classorg_1_1cobbzilla_1_1util_1_1json_1_1JsonUtil_ad4d54d7709ab54d8cd27595ff46d3223.html#ad4d54d7709ab54d8cd27595ff46d3223" target="_top" xlink:title="org.cobbzilla.util.json.\lJsonUtil.mergeJsonNodes">
<polygon fill="none" stroke="#000000" points="173,-49.5 173,-79.5 305,-79.5 305,-49.5 173,-49.5"/>
<text text-anchor="start" x="181" y="-67.5" font-family="Helvetica,sans-Serif" font-size="10.00" fill="#000000">org.cobbzilla.util.json.</text>
<text text-anchor="middle" x="239" y="-56.5" font-family="Helvetica,sans-Serif" font-size="10.00" fill="#000000">JsonUtil.mergeJsonNodes</text>
</a>
</g>
</g>
<!-- Node5&#45;&gt;Node15 -->
<g id="edge10" class="edge">
<title>Node5&#45;&gt;Node15</title>
<path fill="none" stroke="#191970" d="M77.7474,-140.3928C95.2295,-124.1655 120.9101,-102.7321 147,-89.5 155.1188,-85.3824 163.9956,-81.8801 172.9299,-78.9188"/>
<polygon fill="#191970" stroke="#191970" points="75.1693,-138.0141 70.3201,-147.4341 79.9853,-143.0942 75.1693,-138.0141"/>
</g>
<!-- Node18 -->
<g id="node14" class="node">
<title>Node18</title>
<g id="a_node14"><a xlink:href="../../d1/d68/classorg_1_1cobbzilla_1_1util_1_1json_1_1JsonEditTest_ab3fb98ec8772451e27673ba5d5368cd7.html#ab3fb98ec8772451e27673ba5d5368cd7" target="_top" xlink:title="org.cobbzilla.util.json.\lJsonEditTest.testEditJson">
<polygon fill="none" stroke="#000000" points="173,-.5 173,-30.5 305,-30.5 305,-.5 173,-.5"/>
<text text-anchor="start" x="181" y="-18.5" font-family="Helvetica,sans-Serif" font-size="10.00" fill="#000000">org.cobbzilla.util.json.</text>
<text text-anchor="middle" x="239" y="-7.5" font-family="Helvetica,sans-Serif" font-size="10.00" fill="#000000">JsonEditTest.testEditJson</text>
</a>
</g>
</g>
<!-- Node5&#45;&gt;Node18 -->
<g id="edge13" class="edge">
<title>Node5&#45;&gt;Node18</title>
<path fill="none" stroke="#191970" d="M67.4111,-138.1032C82.2354,-110.3059 110.1598,-65.5049 147,-40.5 154.8061,-35.2017 163.697,-31.0234 172.8026,-27.7291"/>
<polygon fill="#191970" stroke="#191970" points="64.2087,-136.6762 62.7207,-147.166 70.4255,-139.8937 64.2087,-136.6762"/>
</g>
<!-- Node7 -->
<g id="node3" class="node">
<title>Node7</title>
<g id="a_node3"><a xlink:href="../../d9/d3d/classorg_1_1cobbzilla_1_1util_1_1json_1_1JsonUtilTest_ab9eb80bbec6ad8d6ed24e56482d513f4.html#ab9eb80bbec6ad8d6ed24e56482d513f4" target="_top" xlink:title="org.cobbzilla.util.json.\lJsonUtilTest.testReplaceJsonValue">
<polygon fill="none" stroke="#000000" points="367,-294.5 367,-324.5 540,-324.5 540,-294.5 367,-294.5"/>
<text text-anchor="start" x="375" y="-312.5" font-family="Helvetica,sans-Serif" font-size="10.00" fill="#000000">org.cobbzilla.util.json.</text>
<text text-anchor="middle" x="453.5" y="-301.5" font-family="Helvetica,sans-Serif" font-size="10.00" fill="#000000">JsonUtilTest.testReplaceJsonValue</text>
</a>
</g>
</g>
<!-- Node6&#45;&gt;Node7 -->
<g id="edge2" class="edge">
<title>Node6&#45;&gt;Node7</title>
<path fill="none" stroke="#191970" d="M341.2218,-309.5C349.7765,-309.5 358.3739,-309.5 366.7957,-309.5"/>
<polygon fill="#191970" stroke="#191970" points="341.2122,-306.0001 331.2122,-309.5 341.2121,-313.0001 341.2122,-306.0001"/>
</g>
<!-- Node11 -->
<g id="node7" class="node">
<title>Node11</title>
<g id="a_node7"><a xlink:href="../../d9/d75/classorg_1_1cobbzilla_1_1util_1_1handlebars_1_1main_1_1PdfMergeMain_a125fc1d1e7f706476767dcc2fdb0b34d.html#a125fc1d1e7f706476767dcc2fdb0b34d" target="_top" xlink:title="org.cobbzilla.util.handlebars.main.\lPdfMergeMain.run">
<polygon fill="none" stroke="#000000" points="371.5,-196.5 371.5,-226.5 535.5,-226.5 535.5,-196.5 371.5,-196.5"/>
<text text-anchor="start" x="379.5" y="-214.5" font-family="Helvetica,sans-Serif" font-size="10.00" fill="#000000">org.cobbzilla.util.handlebars.main.</text>
<text text-anchor="middle" x="453.5" y="-203.5" font-family="Helvetica,sans-Serif" font-size="10.00" fill="#000000">PdfMergeMain.run</text>
</a>
</g>
</g>
<!-- Node10&#45;&gt;Node11 -->
<g id="edge6" class="edge">
<title>Node10&#45;&gt;Node11</title>
<path fill="none" stroke="#191970" d="M314.8671,-179.8309C338.6819,-185.2712 364.7605,-191.2285 387.8097,-196.4938"/>
<polygon fill="#191970" stroke="#191970" points="315.3431,-176.3496 304.8148,-177.5346 313.7842,-183.1738 315.3431,-176.3496"/>
</g>
<!-- Node13 -->
<g id="node9" class="node">
<title>Node13</title>
<g id="a_node9"><a xlink:href="../../dc/d2c/classorg_1_1cobbzilla_1_1util_1_1json_1_1JsonUtil_a2e0261c1837f4d37641121bf753b568d.html#a2e0261c1837f4d37641121bf753b568d" target="_top" xlink:title="org.cobbzilla.util.json.\lJsonUtil.mergeJsonOrDie">
<polygon fill="none" stroke="#000000" points="389,-147.5 389,-177.5 518,-177.5 518,-147.5 389,-147.5"/>
<text text-anchor="start" x="397" y="-165.5" font-family="Helvetica,sans-Serif" font-size="10.00" fill="#000000">org.cobbzilla.util.json.</text>
<text text-anchor="middle" x="453.5" y="-154.5" font-family="Helvetica,sans-Serif" font-size="10.00" fill="#000000">JsonUtil.mergeJsonOrDie</text>
</a>
</g>
</g>
<!-- Node12&#45;&gt;Node13 -->
<g id="edge8" class="edge">
<title>Node12&#45;&gt;Node13</title>
<path fill="none" stroke="#191970" d="M304.5398,-128.4718C331.2559,-134.5748 362.0623,-141.6121 388.7019,-147.6976"/>
<polygon fill="#191970" stroke="#191970" points="305.0464,-124.9974 294.518,-126.1824 303.4874,-131.8216 305.0464,-124.9974"/>
</g>
<!-- Node14 -->
<g id="node10" class="node">
<title>Node14</title>
<g id="a_node10"><a xlink:href="../../d9/d3d/classorg_1_1cobbzilla_1_1util_1_1json_1_1JsonUtilTest_a506201864e5b3d7073a4fa42fa837cd3.html#a506201864e5b3d7073a4fa42fa837cd3" target="_top" xlink:title="org.cobbzilla.util.json.\lJsonUtilTest.testMerge">
<polygon fill="none" stroke="#000000" points="394,-98.5 394,-128.5 513,-128.5 513,-98.5 394,-98.5"/>
<text text-anchor="start" x="402" y="-116.5" font-family="Helvetica,sans-Serif" font-size="10.00" fill="#000000">org.cobbzilla.util.json.</text>
<text text-anchor="middle" x="453.5" y="-105.5" font-family="Helvetica,sans-Serif" font-size="10.00" fill="#000000">JsonUtilTest.testMerge</text>
</a>
</g>
</g>
<!-- Node12&#45;&gt;Node14 -->
<g id="edge9" class="edge">
<title>Node12&#45;&gt;Node14</title>
<path fill="none" stroke="#191970" d="M304.7407,-113.5C333.0999,-113.5 366.0375,-113.5 393.7002,-113.5"/>
<polygon fill="#191970" stroke="#191970" points="304.5181,-110.0001 294.518,-113.5 304.518,-117.0001 304.5181,-110.0001"/>
</g>
<!-- Node16 -->
<g id="node12" class="node">
<title>Node16</title>
<g id="a_node12"><a xlink:href="../../dc/d2c/classorg_1_1cobbzilla_1_1util_1_1json_1_1JsonUtil_aa129e8fee46fe4395aeb5146a86b5359.html#aa129e8fee46fe4395aeb5146a86b5359" target="_top" xlink:title="org.cobbzilla.util.json.\lJsonUtil.mergeJson">
<polygon fill="none" stroke="#000000" points="398,-49.5 398,-79.5 509,-79.5 509,-49.5 398,-49.5"/>
<text text-anchor="start" x="406" y="-67.5" font-family="Helvetica,sans-Serif" font-size="10.00" fill="#000000">org.cobbzilla.util.json.</text>
<text text-anchor="middle" x="453.5" y="-56.5" font-family="Helvetica,sans-Serif" font-size="10.00" fill="#000000">JsonUtil.mergeJson</text>
</a>
</g>
</g>
<!-- Node15&#45;&gt;Node16 -->
<g id="edge11" class="edge">
<title>Node15&#45;&gt;Node16</title>
<path fill="none" stroke="#191970" d="M315.3634,-64.5C342.5356,-64.5 372.5995,-64.5 397.7233,-64.5"/>
<polygon fill="#191970" stroke="#191970" points="315.1074,-61.0001 305.1073,-64.5 315.1073,-68.0001 315.1074,-61.0001"/>
</g>
<!-- Node17 -->
<g id="node13" class="node">
<title>Node17</title>
<g id="a_node13"><a xlink:href="../../dc/d2c/classorg_1_1cobbzilla_1_1util_1_1json_1_1JsonUtil_a0b510c01cb40a5a63bfd8a8187d5a9a2.html#a0b510c01cb40a5a63bfd8a8187d5a9a2" target="_top" xlink:title="org.cobbzilla.util.json.\lJsonUtil.mergeJsonNodesOrDie">
<polygon fill="none" stroke="#000000" points="374.5,-.5 374.5,-30.5 532.5,-30.5 532.5,-.5 374.5,-.5"/>
<text text-anchor="start" x="382.5" y="-18.5" font-family="Helvetica,sans-Serif" font-size="10.00" fill="#000000">org.cobbzilla.util.json.</text>
<text text-anchor="middle" x="453.5" y="-7.5" font-family="Helvetica,sans-Serif" font-size="10.00" fill="#000000">JsonUtil.mergeJsonNodesOrDie</text>
</a>
</g>
</g>
<!-- Node15&#45;&gt;Node17 -->
<g id="edge12" class="edge">
<title>Node15&#45;&gt;Node17</title>
<path fill="none" stroke="#191970" d="M314.8671,-47.1691C338.6819,-41.7288 364.7605,-35.7715 387.8097,-30.5062"/>
<polygon fill="#191970" stroke="#191970" points="313.7842,-43.8262 304.8148,-49.4654 315.3431,-50.6504 313.7842,-43.8262"/>
</g>
</g>
</svg>
