<?xml version="1.0" encoding="UTF-8" standalone="no"?>
<!DOCTYPE svg PUBLIC "-//W3C//DTD SVG 1.1//EN"
 "http://www.w3.org/Graphics/SVG/1.1/DTD/svg11.dtd">
<!-- Generated by graphviz version 2.40.1 (20161225.0304)
 -->
<!-- Title: org.cobbzilla.util.json.JsonUtil.fromJson Pages: 1 -->
<svg width="728pt" height="116pt"
 viewBox="0.00 0.00 728.00 116.00" xmlns="http://www.w3.org/2000/svg" xmlns:xlink="http://www.w3.org/1999/xlink">
<g id="graph0" class="graph" transform="scale(1 1) rotate(0) translate(4 112)">
<title>org.cobbzilla.util.json.JsonUtil.fromJson</title>
<!-- Node0 -->
<g id="node1" class="node">
<title>Node0</title>
<polygon fill="#bfbfbf" stroke="#000000" points="0,-25.5 0,-55.5 111,-55.5 111,-25.5 0,-25.5"/>
<text text-anchor="start" x="8" y="-43.5" font-family="Helvetica,sans-Serif" font-size="10.00" fill="#000000">org.cobbzilla.util.json.</text>
<text text-anchor="middle" x="55.5" y="-32.5" font-family="Helvetica,sans-Serif" font-size="10.00" fill="#000000">JsonUtil.fromJson</text>
</g>
<!-- Node1 -->
<g id="node2" class="node">
<title>Node1</title>
<g id="a_node2"><a xlink:href="../../dc/d2c/classorg_1_1cobbzilla_1_1util_1_1json_1_1JsonUtil_a012540ca836ef7dea8ae971437fb82c7.html#a012540ca836ef7dea8ae971437fb82c7" target="_top" xlink:title="org.cobbzilla.util.json.\lJsonUtil.fromJson">
<polygon fill="none" stroke="#000000" points="147,-25.5 147,-55.5 258,-55.5 258,-25.5 147,-25.5"/>
<text text-anchor="start" x="155" y="-43.5" font-family="Helvetica,sans-Serif" font-size="10.00" fill="#000000">org.cobbzilla.util.json.</text>
<text text-anchor="middle" x="202.5" y="-32.5" font-family="Helvetica,sans-Serif" font-size="10.00" fill="#000000">JsonUtil.fromJson</text>
</a>
</g>
</g>
<!-- Node0&#45;&gt;Node1 -->
<g id="edge1" class="edge">
<title>Node0&#45;&gt;Node1</title>
<path fill="none" stroke="#191970" d="M111.0744,-40.5C119.4894,-40.5 128.2383,-40.5 136.8421,-40.5"/>
<polygon fill="#191970" stroke="#191970" points="136.8471,-44.0001 146.847,-40.5 136.847,-37.0001 136.8471,-44.0001"/>
</g>
<!-- Node2 -->
<g id="node3" class="node">
<title>Node2</title>
<g id="a_node3"><a xlink:href="../../dc/d2c/classorg_1_1cobbzilla_1_1util_1_1json_1_1JsonUtil_a4181f7525f80c694d58881fca5fe097f.html#a4181f7525f80c694d58881fca5fe097f" target="_top" xlink:title="org.cobbzilla.util.json.\lJsonUtil.json">
<polygon fill="none" stroke="#000000" points="304.5,-59.5 304.5,-89.5 415.5,-89.5 415.5,-59.5 304.5,-59.5"/>
<text text-anchor="start" x="312.5" y="-77.5" font-family="Helvetica,sans-Serif" font-size="10.00" fill="#000000">org.cobbzilla.util.json.</text>
<text text-anchor="middle" x="360" y="-66.5" font-family="Helvetica,sans-Serif" font-size="10.00" fill="#000000">JsonUtil.json</text>
</a>
</g>
</g>
<!-- Node0&#45;&gt;Node2 -->
<g id="edge7" class="edge">
<title>Node0&#45;&gt;Node2</title>
<path fill="none" stroke="#191970" d="M102.5518,-55.5265C116.6989,-59.4528 132.3556,-63.2197 147,-65.5 195.8204,-73.1019 251.6438,-75.2229 293.8915,-75.5121"/>
<polygon fill="#191970" stroke="#191970" points="294.041,-79.0125 304.0534,-75.5483 294.066,-72.0126 294.041,-79.0125"/>
</g>
<!-- Node5 -->
<g id="node6" class="node">
<title>Node5</title>
<g id="a_node6"><a xlink:href="../../dc/d81/classorg_1_1cobbzilla_1_1util_1_1io_1_1StreamUtil_a242c4cb3ac88a027891f05b372294875.html#a242c4cb3ac88a027891f05b372294875" target="_top" xlink:title="org.cobbzilla.util.io.Stream\lUtil.toString">
<polygon fill="none" stroke="#000000" points="294,-.5 294,-30.5 426,-30.5 426,-.5 294,-.5"/>
<text text-anchor="start" x="302" y="-18.5" font-family="Helvetica,sans-Serif" font-size="10.00" fill="#000000">org.cobbzilla.util.io.Stream</text>
<text text-anchor="middle" x="360" y="-7.5" font-family="Helvetica,sans-Serif" font-size="10.00" fill="#000000">Util.toString</text>
</a>
</g>
</g>
<!-- Node0&#45;&gt;Node5 -->
<g id="edge8" class="edge">
<title>Node0&#45;&gt;Node5</title>
<path fill="none" stroke="#191970" d="M101.0858,-25.4774C115.595,-21.3924 131.821,-17.5363 147,-15.5 192.1063,-9.4488 243.0708,-9.2158 283.8362,-10.6053"/>
<polygon fill="#191970" stroke="#191970" points="283.8449,-14.1081 293.9708,-10.991 284.1112,-7.1132 283.8449,-14.1081"/>
</g>
<!-- Node1&#45;&gt;Node2 -->
<g id="edge2" class="edge">
<title>Node1&#45;&gt;Node2</title>
<path fill="none" stroke="#191970" d="M258.0286,-52.4871C269.7911,-55.0263 282.3127,-57.7294 294.4081,-60.3405"/>
<polygon fill="#191970" stroke="#191970" points="293.9286,-63.8175 304.442,-62.5065 295.4057,-56.9751 293.9286,-63.8175"/>
</g>
<!-- Node1&#45;&gt;Node5 -->
<g id="edge6" class="edge">
<title>Node1&#45;&gt;Node5</title>
<path fill="none" stroke="#191970" d="M258.0286,-31.6859C266.3675,-30.3623 275.088,-28.9781 283.7676,-27.6004"/>
<polygon fill="#191970" stroke="#191970" points="284.585,-31.0145 293.9127,-25.9901 283.4876,-24.1011 284.585,-31.0145"/>
</g>
<!-- Node3 -->
<g id="node4" class="node">
<title>Node3</title>
<g id="a_node4"><a xlink:href="../../dc/d2c/classorg_1_1cobbzilla_1_1util_1_1json_1_1JsonUtil_ae4b0ddbe1c463c41b05503ea67eb8f10.html#ae4b0ddbe1c463c41b05503ea67eb8f10" target="_top" xlink:title="org.cobbzilla.util.json.\lJsonUtil.toJsonOrDie">
<polygon fill="none" stroke="#000000" points="462,-59.5 462,-89.5 573,-89.5 573,-59.5 462,-59.5"/>
<text text-anchor="start" x="470" y="-77.5" font-family="Helvetica,sans-Serif" font-size="10.00" fill="#000000">org.cobbzilla.util.json.</text>
<text text-anchor="middle" x="517.5" y="-66.5" font-family="Helvetica,sans-Serif" font-size="10.00" fill="#000000">JsonUtil.toJsonOrDie</text>
</a>
</g>
</g>
<!-- Node2&#45;&gt;Node3 -->
<g id="edge3" class="edge">
<title>Node2&#45;&gt;Node3</title>
<path fill="none" stroke="#191970" d="M415.5286,-74.5C427.2911,-74.5 439.8127,-74.5 451.9081,-74.5"/>
<polygon fill="#191970" stroke="#191970" points="451.942,-78.0001 461.942,-74.5 451.9419,-71.0001 451.942,-78.0001"/>
</g>
<!-- Node4 -->
<g id="node5" class="node">
<title>Node4</title>
<g id="a_node5"><a xlink:href="../../dc/d2c/classorg_1_1cobbzilla_1_1util_1_1json_1_1JsonUtil_aa10cd1ef91d278b645230ab79181d51e.html#aa10cd1ef91d278b645230ab79181d51e" target="_top" xlink:title="org.cobbzilla.util.json.\lJsonUtil.toJson">
<polygon fill="none" stroke="#000000" points="609,-59.5 609,-89.5 720,-89.5 720,-59.5 609,-59.5"/>
<text text-anchor="start" x="617" y="-77.5" font-family="Helvetica,sans-Serif" font-size="10.00" fill="#000000">org.cobbzilla.util.json.</text>
<text text-anchor="middle" x="664.5" y="-66.5" font-family="Helvetica,sans-Serif" font-size="10.00" fill="#000000">JsonUtil.toJson</text>
</a>
</g>
</g>
<!-- Node3&#45;&gt;Node4 -->
<g id="edge4" class="edge">
<title>Node3&#45;&gt;Node4</title>
<path fill="none" stroke="#191970" d="M573.0744,-74.5C581.4894,-74.5 590.2383,-74.5 598.8421,-74.5"/>
<polygon fill="#191970" stroke="#191970" points="598.8471,-78.0001 608.847,-74.5 598.847,-71.0001 598.8471,-78.0001"/>
</g>
<!-- Node4&#45;&gt;Node4 -->
<g id="edge5" class="edge">
<title>Node4&#45;&gt;Node4</title>
<path fill="none" stroke="#191970" d="M639.0565,-89.659C632.9212,-99.0566 641.4023,-108 664.5,-108 678.5751,-108 687.2226,-104.679 690.4424,-99.9579"/>
<polygon fill="#191970" stroke="#191970" points="693.9234,-99.4779 689.9435,-89.659 686.9316,-99.8167 693.9234,-99.4779"/>
</g>
</g>
</svg>
