<?xml version="1.0" encoding="UTF-8" standalone="no"?>
<!DOCTYPE svg PUBLIC "-//W3C//DTD SVG 1.1//EN"
 "http://www.w3.org/Graphics/SVG/1.1/DTD/svg11.dtd">
<!-- Generated by graphviz version 2.40.1 (20161225.0304)
 -->
<!-- Title: org.cobbzilla.util.mustache.MustacheResourceNotFoundException Pages: 1 -->
<svg width="196pt" height="193pt"
 viewBox="0.00 0.00 196.00 193.00" xmlns="http://www.w3.org/2000/svg" xmlns:xlink="http://www.w3.org/1999/xlink">
<g id="graph0" class="graph" transform="scale(1 1) rotate(0) translate(4 189)">
<title>org.cobbzilla.util.mustache.MustacheResourceNotFoundException</title>
<!-- Node2 -->
<g id="node1" class="node">
<title>Node2</title>
<polygon fill="#bfbfbf" stroke="#000000" points="0,-.5 0,-79.5 188,-79.5 188,-.5 0,-.5"/>
<text text-anchor="start" x="8" y="-67.5" font-family="Helvetica,sans-Serif" font-size="10.00" fill="#000000">org.cobbzilla.util.mustache.</text>
<text text-anchor="middle" x="94" y="-56.5" font-family="Helvetica,sans-Serif" font-size="10.00" fill="#000000">MustacheResourceNotFoundException</text>
<polyline fill="none" stroke="#000000" points="0,-49.5 188,-49.5 "/>
<text text-anchor="middle" x="94" y="-37.5" font-family="Helvetica,sans-Serif" font-size="10.00" fill="#000000"> </text>
<polyline fill="none" stroke="#000000" points="0,-30.5 188,-30.5 "/>
<text text-anchor="start" x="8" y="-18.5" font-family="Helvetica,sans-Serif" font-size="10.00" fill="#000000">+ MustacheResourceNotFound</text>
<text text-anchor="start" x="8" y="-7.5" font-family="Helvetica,sans-Serif" font-size="10.00" fill="#000000">Exception()</text>
</g>
<!-- Node3 -->
<g id="node2" class="node">
<title>Node3</title>
<polygon fill="none" stroke="#bfbfbf" points=".5,-127.5 .5,-184.5 97.5,-184.5 97.5,-127.5 .5,-127.5"/>
<text text-anchor="middle" x="49" y="-172.5" font-family="Helvetica,sans-Serif" font-size="10.00" fill="#000000">RuntimeException</text>
<polyline fill="none" stroke="#bfbfbf" points=".5,-165.5 97.5,-165.5 "/>
<text text-anchor="middle" x="49" y="-153.5" font-family="Helvetica,sans-Serif" font-size="10.00" fill="#000000"> </text>
<polyline fill="none" stroke="#bfbfbf" points=".5,-146.5 97.5,-146.5 "/>
<text text-anchor="middle" x="49" y="-134.5" font-family="Helvetica,sans-Serif" font-size="10.00" fill="#000000"> </text>
</g>
<!-- Node3&#45;&gt;Node2 -->
<g id="edge1" class="edge">
<title>Node3&#45;&gt;Node2</title>
<path fill="none" stroke="#191970" d="M63.7977,-117.8549C68.5415,-105.6264 73.8048,-92.0587 78.5913,-79.7203"/>
<polygon fill="none" stroke="#191970" points="60.4773,-116.7369 60.1236,-127.3258 67.0034,-119.2686 60.4773,-116.7369"/>
</g>
<!-- Node4 -->
<g id="node3" class="node">
<title>Node4</title>
<polygon fill="none" stroke="#bfbfbf" points="116,-127.5 116,-184.5 162,-184.5 162,-127.5 116,-127.5"/>
<text text-anchor="middle" x="139" y="-172.5" font-family="Helvetica,sans-Serif" font-size="10.00" fill="#000000">Logger</text>
<polyline fill="none" stroke="#bfbfbf" points="116,-165.5 162,-165.5 "/>
<text text-anchor="middle" x="139" y="-153.5" font-family="Helvetica,sans-Serif" font-size="10.00" fill="#000000"> </text>
<polyline fill="none" stroke="#bfbfbf" points="116,-146.5 162,-146.5 "/>
<text text-anchor="middle" x="139" y="-134.5" font-family="Helvetica,sans-Serif" font-size="10.00" fill="#000000"> </text>
</g>
<!-- Node4&#45;&gt;Node2 -->
<g id="edge2" class="edge">
<title>Node4&#45;&gt;Node2</title>
<path fill="none" stroke="#404040" d="M127.8764,-127.3258C123.6121,-116.3333 118.6078,-103.4336 113.774,-90.973"/>
<polygon fill="none" stroke="#404040" points="113.7489,-90.908 107.8496,-86.7609 109.4087,-79.7203 115.308,-83.8674 113.7489,-90.908"/>
<text text-anchor="middle" x="133.5" y="-101" font-family="Helvetica,sans-Serif" font-size="10.00" fill="#000000"> &#45;LOG</text>
</g>
</g>
</svg>
