<?xml version="1.0" encoding="UTF-8" standalone="no"?>
<!DOCTYPE svg PUBLIC "-//W3C//DTD SVG 1.1//EN"
 "http://www.w3.org/Graphics/SVG/1.1/DTD/svg11.dtd">
<!-- Generated by graphviz version 2.40.1 (20161225.0304)
 -->
<!-- Title: org.cobbzilla.util.system.MultiCommandResult.add Pages: 1 -->
<svg width="871pt" height="382pt"
 viewBox="0.00 0.00 871.00 382.00" xmlns="http://www.w3.org/2000/svg" xmlns:xlink="http://www.w3.org/1999/xlink">
<g id="graph0" class="graph" transform="scale(1 1) rotate(0) translate(4 378)">
<title>org.cobbzilla.util.system.MultiCommandResult.add</title>
<!-- Node1 -->
<g id="node1" class="node">
<title>Node1</title>
<polygon fill="#bfbfbf" stroke="#000000" points="0,-196.5 0,-226.5 130,-226.5 130,-196.5 0,-196.5"/>
<text text-anchor="start" x="8" y="-214.5" font-family="Helvetica,sans-Serif" font-size="10.00" fill="#000000">org.cobbzilla.util.system.</text>
<text text-anchor="middle" x="65" y="-203.5" font-family="Helvetica,sans-Serif" font-size="10.00" fill="#000000">MultiCommandResult.add</text>
</g>
<!-- Node2 -->
<g id="node2" class="node">
<title>Node2</title>
<g id="a_node2"><a xlink:href="../../df/ded/classorg_1_1cobbzilla_1_1util_1_1system_1_1CommandShell_a3bf65e24823a4dbf204b9af10afd9d07.html#a3bf65e24823a4dbf204b9af10afd9d07" target="_top" xlink:title="org.cobbzilla.util.system.\lCommandShell.exec">
<polygon fill="none" stroke="#000000" points="166,-196.5 166,-226.5 291,-226.5 291,-196.5 166,-196.5"/>
<text text-anchor="start" x="174" y="-214.5" font-family="Helvetica,sans-Serif" font-size="10.00" fill="#000000">org.cobbzilla.util.system.</text>
<text text-anchor="middle" x="228.5" y="-203.5" font-family="Helvetica,sans-Serif" font-size="10.00" fill="#000000">CommandShell.exec</text>
</a>
</g>
</g>
<!-- Node1&#45;&gt;Node2 -->
<g id="edge1" class="edge">
<title>Node1&#45;&gt;Node2</title>
<path fill="none" stroke="#191970" d="M140.0986,-211.5C148.683,-211.5 157.3658,-211.5 165.7652,-211.5"/>
<polygon fill="#191970" stroke="#191970" points="140.0894,-208.0001 130.0893,-211.5 140.0893,-215.0001 140.0894,-208.0001"/>
</g>
<!-- Node3 -->
<g id="node3" class="node">
<title>Node3</title>
<g id="a_node3"><a xlink:href="../../df/ded/classorg_1_1cobbzilla_1_1util_1_1system_1_1CommandShell_a856a8d31d6d8b934c5f5a1ae84f5f6ff.html#a856a8d31d6d8b934c5f5a1ae84f5f6ff" target="_top" xlink:title="org.cobbzilla.util.system.\lCommandShell.exec">
<polygon fill="none" stroke="#000000" points="363,-343.5 363,-373.5 488,-373.5 488,-343.5 363,-343.5"/>
<text text-anchor="start" x="371" y="-361.5" font-family="Helvetica,sans-Serif" font-size="10.00" fill="#000000">org.cobbzilla.util.system.</text>
<text text-anchor="middle" x="425.5" y="-350.5" font-family="Helvetica,sans-Serif" font-size="10.00" fill="#000000">CommandShell.exec</text>
</a>
</g>
</g>
<!-- Node2&#45;&gt;Node3 -->
<g id="edge2" class="edge">
<title>Node2&#45;&gt;Node3</title>
<path fill="none" stroke="#191970" d="M241.1558,-235.453C257.2808,-263.5749 287.822,-309.5383 327,-334.5 337.762,-341.3568 350.3284,-346.2548 362.814,-349.7535"/>
<polygon fill="#191970" stroke="#191970" points="244.1768,-233.6839 236.2484,-226.656 238.0637,-237.0942 244.1768,-233.6839"/>
</g>
<!-- Node4 -->
<g id="node4" class="node">
<title>Node4</title>
<g id="a_node4"><a xlink:href="../../d9/d6b/classorg_1_1cobbzilla_1_1util_1_1http_1_1HttpUtil_a39f8ec957b9281635ac9a6f3d6df3c96.html#a39f8ec957b9281635ac9a6f3d6df3c96" target="_top" xlink:title="org.cobbzilla.util.http.\lHttpUtil.isOk">
<polygon fill="none" stroke="#000000" points="370.5,-294.5 370.5,-324.5 480.5,-324.5 480.5,-294.5 370.5,-294.5"/>
<text text-anchor="start" x="378.5" y="-312.5" font-family="Helvetica,sans-Serif" font-size="10.00" fill="#000000">org.cobbzilla.util.http.</text>
<text text-anchor="middle" x="425.5" y="-301.5" font-family="Helvetica,sans-Serif" font-size="10.00" fill="#000000">HttpUtil.isOk</text>
</a>
</g>
</g>
<!-- Node2&#45;&gt;Node4 -->
<g id="edge3" class="edge">
<title>Node2&#45;&gt;Node4</title>
<path fill="none" stroke="#191970" d="M251.7441,-233.3108C270.6529,-249.9222 298.7445,-272.1407 327,-285.5 340.5253,-291.8948 355.928,-296.6889 370.4704,-300.2403"/>
<polygon fill="#191970" stroke="#191970" points="254.0122,-230.6436 244.2288,-226.5771 249.341,-235.857 254.0122,-230.6436"/>
</g>
<!-- Node5 -->
<g id="node5" class="node">
<title>Node5</title>
<g id="a_node5"><a xlink:href="../../d7/deb/classorg_1_1cobbzilla_1_1util_1_1io_1_1main_1_1FilesystemWatcherMain_a4c5e96bac952e792820ecb038f4c234d.html#a4c5e96bac952e792820ecb038f4c234d" target="_top" xlink:title="org.cobbzilla.util.io.main.\lFilesystemWatcherMain.run">
<polygon fill="none" stroke="#000000" points="356,-245.5 356,-275.5 495,-275.5 495,-245.5 356,-245.5"/>
<text text-anchor="start" x="364" y="-263.5" font-family="Helvetica,sans-Serif" font-size="10.00" fill="#000000">org.cobbzilla.util.io.main.</text>
<text text-anchor="middle" x="425.5" y="-252.5" font-family="Helvetica,sans-Serif" font-size="10.00" fill="#000000">FilesystemWatcherMain.run</text>
</a>
</g>
</g>
<!-- Node2&#45;&gt;Node5 -->
<g id="edge4" class="edge">
<title>Node2&#45;&gt;Node5</title>
<path fill="none" stroke="#191970" d="M297.2329,-229.0343C307.2153,-231.5549 317.3693,-234.1046 327,-236.5 338.7856,-239.4314 351.3738,-242.5261 363.4757,-245.4831"/>
<polygon fill="#191970" stroke="#191970" points="297.8864,-225.5894 287.3334,-226.5302 296.1698,-232.3757 297.8864,-225.5894"/>
</g>
<!-- Node6 -->
<g id="node6" class="node">
<title>Node6</title>
<g id="a_node6"><a xlink:href="../../df/ded/classorg_1_1cobbzilla_1_1util_1_1system_1_1CommandShell_a2b1b58f19b56a6d27b9b48f601443aec.html#a2b1b58f19b56a6d27b9b48f601443aec" target="_top" xlink:title="org.cobbzilla.util.system.\lCommandShell.scriptResult">
<polygon fill="none" stroke="#000000" points="356,-196.5 356,-226.5 495,-226.5 495,-196.5 356,-196.5"/>
<text text-anchor="start" x="364" y="-214.5" font-family="Helvetica,sans-Serif" font-size="10.00" fill="#000000">org.cobbzilla.util.system.</text>
<text text-anchor="middle" x="425.5" y="-203.5" font-family="Helvetica,sans-Serif" font-size="10.00" fill="#000000">CommandShell.scriptResult</text>
</a>
</g>
</g>
<!-- Node2&#45;&gt;Node6 -->
<g id="edge5" class="edge">
<title>Node2&#45;&gt;Node6</title>
<path fill="none" stroke="#191970" d="M301.4275,-211.5C319.231,-211.5 338.232,-211.5 355.8768,-211.5"/>
<polygon fill="#191970" stroke="#191970" points="301.1027,-208.0001 291.1027,-211.5 301.1027,-215.0001 301.1027,-208.0001"/>
</g>
<!-- Node7 -->
<g id="node7" class="node">
<title>Node7</title>
<g id="a_node7"><a xlink:href="../../d9/dae/classorg_1_1cobbzilla_1_1util_1_1system_1_1CommandShellTest_ac7b087beaa2b7f6c815558964deb15fb.html#ac7b087beaa2b7f6c815558964deb15fb" target="_top" xlink:title="org.cobbzilla.util.system.\lCommandShellTest.testProgressFilter">
<polygon fill="none" stroke="#000000" points="334,-147.5 334,-177.5 517,-177.5 517,-147.5 334,-147.5"/>
<text text-anchor="start" x="342" y="-165.5" font-family="Helvetica,sans-Serif" font-size="10.00" fill="#000000">org.cobbzilla.util.system.</text>
<text text-anchor="middle" x="425.5" y="-154.5" font-family="Helvetica,sans-Serif" font-size="10.00" fill="#000000">CommandShellTest.testProgressFilter</text>
</a>
</g>
</g>
<!-- Node2&#45;&gt;Node7 -->
<g id="edge6" class="edge">
<title>Node2&#45;&gt;Node7</title>
<path fill="none" stroke="#191970" d="M298.7638,-194.0232C320.4769,-188.6225 344.1894,-182.7245 365.169,-177.5062"/>
<polygon fill="#191970" stroke="#191970" points="297.8048,-190.655 288.9453,-196.4654 299.4945,-197.4481 297.8048,-190.655"/>
</g>
<!-- Node8 -->
<g id="node8" class="node">
<title>Node8</title>
<g id="a_node8"><a xlink:href="../../d9/dae/classorg_1_1cobbzilla_1_1util_1_1system_1_1CommandShellTest_a3356ca7b357cc90e8708c236d0b8fc5f.html#a3356ca7b357cc90e8708c236d0b8fc5f" target="_top" xlink:title="org.cobbzilla.util.system.\lCommandShellTest.testStreamCallbacks">
<polygon fill="none" stroke="#000000" points="327,-98.5 327,-128.5 524,-128.5 524,-98.5 327,-98.5"/>
<text text-anchor="start" x="335" y="-116.5" font-family="Helvetica,sans-Serif" font-size="10.00" fill="#000000">org.cobbzilla.util.system.</text>
<text text-anchor="middle" x="425.5" y="-105.5" font-family="Helvetica,sans-Serif" font-size="10.00" fill="#000000">CommandShellTest.testStreamCallbacks</text>
</a>
</g>
</g>
<!-- Node2&#45;&gt;Node8 -->
<g id="edge7" class="edge">
<title>Node2&#45;&gt;Node8</title>
<path fill="none" stroke="#191970" d="M252.1726,-189.7774C271.1247,-173.4711 299.0701,-151.7573 327,-138.5 335.0489,-134.6794 343.7553,-131.3934 352.5466,-128.5796"/>
<polygon fill="#191970" stroke="#191970" points="249.838,-187.1695 244.6272,-196.3943 254.4534,-192.4324 249.838,-187.1695"/>
</g>
<!-- Node9 -->
<g id="node9" class="node">
<title>Node9</title>
<g id="a_node9"><a xlink:href="../../df/ded/classorg_1_1cobbzilla_1_1util_1_1system_1_1CommandShell_aaacae4bcb630654d95f303d3adedfd35.html#aaacae4bcb630654d95f303d3adedfd35" target="_top" xlink:title="org.cobbzilla.util.system.\lCommandShell.toString">
<polygon fill="none" stroke="#000000" points="363,-49.5 363,-79.5 488,-79.5 488,-49.5 363,-49.5"/>
<text text-anchor="start" x="371" y="-67.5" font-family="Helvetica,sans-Serif" font-size="10.00" fill="#000000">org.cobbzilla.util.system.</text>
<text text-anchor="middle" x="425.5" y="-56.5" font-family="Helvetica,sans-Serif" font-size="10.00" fill="#000000">CommandShell.toString</text>
</a>
</g>
</g>
<!-- Node2&#45;&gt;Node9 -->
<g id="edge8" class="edge">
<title>Node2&#45;&gt;Node9</title>
<path fill="none" stroke="#191970" d="M241.5039,-187.3625C257.7823,-159.4939 288.291,-114.3149 327,-89.5 337.7684,-82.5968 350.3376,-77.5985 362.8239,-73.9799"/>
<polygon fill="#191970" stroke="#191970" points="238.4386,-185.6726 236.5376,-196.0955 244.5235,-189.133 238.4386,-185.6726"/>
</g>
<!-- Node10 -->
<g id="node10" class="node">
<title>Node10</title>
<g id="a_node10"><a xlink:href="../../df/ded/classorg_1_1cobbzilla_1_1util_1_1system_1_1CommandShell_a85457af0db04ef61c9911dde95b30f01.html#a85457af0db04ef61c9911dde95b30f01" target="_top" xlink:title="org.cobbzilla.util.system.\lCommandShell.domainname">
<polygon fill="none" stroke="#000000" points="560,-98.5 560,-128.5 702,-128.5 702,-98.5 560,-98.5"/>
<text text-anchor="start" x="568" y="-116.5" font-family="Helvetica,sans-Serif" font-size="10.00" fill="#000000">org.cobbzilla.util.system.</text>
<text text-anchor="middle" x="631" y="-105.5" font-family="Helvetica,sans-Serif" font-size="10.00" fill="#000000">CommandShell.domainname</text>
</a>
</g>
</g>
<!-- Node9&#45;&gt;Node10 -->
<g id="edge9" class="edge">
<title>Node9&#45;&gt;Node10</title>
<path fill="none" stroke="#191970" d="M498.2158,-81.8386C520.9666,-87.2633 545.8713,-93.2017 567.9029,-98.4549"/>
<polygon fill="#191970" stroke="#191970" points="498.8125,-78.3828 488.2734,-79.4679 497.1889,-85.1919 498.8125,-78.3828"/>
</g>
<!-- Node11 -->
<g id="node11" class="node">
<title>Node11</title>
<g id="a_node11"><a xlink:href="../../df/ded/classorg_1_1cobbzilla_1_1util_1_1system_1_1CommandShell_a4951a272fb6d4964d2d8c4d86670f6c6.html#a4951a272fb6d4964d2d8c4d86670f6c6" target="_top" xlink:title="org.cobbzilla.util.system.\lCommandShell.hostname">
<polygon fill="none" stroke="#000000" points="566.5,-49.5 566.5,-79.5 695.5,-79.5 695.5,-49.5 566.5,-49.5"/>
<text text-anchor="start" x="574.5" y="-67.5" font-family="Helvetica,sans-Serif" font-size="10.00" fill="#000000">org.cobbzilla.util.system.</text>
<text text-anchor="middle" x="631" y="-56.5" font-family="Helvetica,sans-Serif" font-size="10.00" fill="#000000">CommandShell.hostname</text>
</a>
</g>
</g>
<!-- Node9&#45;&gt;Node11 -->
<g id="edge10" class="edge">
<title>Node9&#45;&gt;Node11</title>
<path fill="none" stroke="#191970" d="M498.3273,-64.5C520.5597,-64.5 544.8397,-64.5 566.4807,-64.5"/>
<polygon fill="#191970" stroke="#191970" points="498.2734,-61.0001 488.2734,-64.5 498.2734,-68.0001 498.2734,-61.0001"/>
</g>
<!-- Node12 -->
<g id="node12" class="node">
<title>Node12</title>
<g id="a_node12"><a xlink:href="../../df/ded/classorg_1_1cobbzilla_1_1util_1_1system_1_1CommandShell_a5d319c1d133f079fc42e036687cba998.html#a5d319c1d133f079fc42e036687cba998" target="_top" xlink:title="org.cobbzilla.util.system.\lCommandShell.whoami">
<polygon fill="none" stroke="#000000" points="568.5,-.5 568.5,-30.5 693.5,-30.5 693.5,-.5 568.5,-.5"/>
<text text-anchor="start" x="576.5" y="-18.5" font-family="Helvetica,sans-Serif" font-size="10.00" fill="#000000">org.cobbzilla.util.system.</text>
<text text-anchor="middle" x="631" y="-7.5" font-family="Helvetica,sans-Serif" font-size="10.00" fill="#000000">CommandShell.whoami</text>
</a>
</g>
</g>
<!-- Node9&#45;&gt;Node12 -->
<g id="edge11" class="edge">
<title>Node9&#45;&gt;Node12</title>
<path fill="none" stroke="#191970" d="M498.263,-47.1502C521.1231,-41.6994 546.1537,-35.731 568.2572,-30.4606"/>
<polygon fill="#191970" stroke="#191970" points="497.1889,-43.8081 488.2734,-49.5321 498.8125,-50.6172 497.1889,-43.8081"/>
</g>
<!-- Node13 -->
<g id="node13" class="node">
<title>Node13</title>
<g id="a_node13"><a xlink:href="../../df/ded/classorg_1_1cobbzilla_1_1util_1_1system_1_1CommandShell_a327beb579a560b71b752bf9f1cbba1c3.html#a327beb579a560b71b752bf9f1cbba1c3" target="_top" xlink:title="org.cobbzilla.util.system.\lCommandShell.isRoot">
<polygon fill="none" stroke="#000000" points="738,-.5 738,-30.5 863,-30.5 863,-.5 738,-.5"/>
<text text-anchor="start" x="746" y="-18.5" font-family="Helvetica,sans-Serif" font-size="10.00" fill="#000000">org.cobbzilla.util.system.</text>
<text text-anchor="middle" x="800.5" y="-7.5" font-family="Helvetica,sans-Serif" font-size="10.00" fill="#000000">CommandShell.isRoot</text>
</a>
</g>
</g>
<!-- Node12&#45;&gt;Node13 -->
<g id="edge12" class="edge">
<title>Node12&#45;&gt;Node13</title>
<path fill="none" stroke="#191970" d="M703.907,-15.5C715.2067,-15.5 726.7929,-15.5 737.8407,-15.5"/>
<polygon fill="#191970" stroke="#191970" points="703.634,-12.0001 693.634,-15.5 703.6339,-19.0001 703.634,-12.0001"/>
</g>
</g>
</svg>
