<?xml version="1.0" encoding="UTF-8" standalone="no"?>
<!DOCTYPE svg PUBLIC "-//W3C//DTD SVG 1.1//EN"
 "http://www.w3.org/Graphics/SVG/1.1/DTD/svg11.dtd">
<!-- Generated by graphviz version 2.40.1 (20161225.0304)
 -->
<!-- Title: org.cobbzilla.util.system.MultiCommandResult.hasException Pages: 1 -->
<!--zoomable 382 -->
<svg id="main" version="1.1" xmlns="http://www.w3.org/2000/svg" xmlns:xlink="http://www.w3.org/1999/xlink" xml:space="preserve" onload="init(evt)">
<style type="text/css"><![CDATA[
.edge:hover path { stroke: red; }
.edge:hover polygon { stroke: red; fill: red; }
]]></style>
<script type="text/javascript"><![CDATA[
var edges = document.getElementsByTagName('g');
if (edges && edges.length) {
  for (var i=0;i<edges.length;i++) {
    if (edges[i].id.substr(0,4)=='edge') {
      edges[i].setAttribute('class','edge');
    }
  }
}
]]></script>
        <defs>
                <circle id="rim" cx="0" cy="0" r="7"/>
                <circle id="rim2" cx="0" cy="0" r="3.5"/>
                <g id="zoomPlus">
                        <use xlink:href="#rim" fill="#404040">
                                <set attributeName="fill" to="#808080" begin="zoomplus.mouseover" end="zoomplus.mouseout"/>
                        </use>
                        <path d="M-4,0h8M0,-4v8" fill="none" stroke="white" stroke-width="1.5" pointer-events="none"/>
                </g>
                <g id="zoomMin">
                        <use xlink:href="#rim" fill="#404040">
                                <set attributeName="fill" to="#808080" begin="zoomminus.mouseover" end="zoomminus.mouseout"/>
                        </use>
                        <path d="M-4,0h8" fill="none" stroke="white" stroke-width="1.5" pointer-events="none"/>
                </g>
                <g id="dirArrow">
                        <path fill="none" stroke="white" stroke-width="1.5" d="M0,-3.0v7 M-2.5,-0.5L0,-3.0L2.5,-0.5"/>
                </g>
               <g id="resetDef">
                       <use xlink:href="#rim2" fill="#404040">
                               <set attributeName="fill" to="#808080" begin="reset.mouseover" end="reset.mouseout"/>
                       </use>
               </g>
        </defs>

<script type="text/javascript">
var viewWidth = 937;
var viewHeight = 382;
var sectionId = 'dynsection-0';
</script>
<script xlink:href="../../svgpan.js"/>
<svg id="graph" class="graph">
<g id="viewport">
<title>org.cobbzilla.util.system.MultiCommandResult.hasException</title>
<!-- Node1 -->
<g id="node1" class="node">
<title>Node1</title>
<polygon fill="#bfbfbf" stroke="#000000" points="0,-171.5 0,-201.5 173,-201.5 173,-171.5 0,-171.5"/>
<text text-anchor="start" x="8" y="-189.5" font-family="Helvetica,sans-Serif" font-size="10.00" fill="#000000">org.cobbzilla.util.system.</text>
<text text-anchor="middle" x="86.5" y="-178.5" font-family="Helvetica,sans-Serif" font-size="10.00" fill="#000000">MultiCommandResult.hasException</text>
</g>
<!-- Node2 -->
<g id="node2" class="node">
<title>Node2</title>
<g id="a_node2"><a xlink:href="../../df/ded/classorg_1_1cobbzilla_1_1util_1_1system_1_1CommandShell_a3bf65e24823a4dbf204b9af10afd9d07.html#a3bf65e24823a4dbf204b9af10afd9d07" target="_top" xlink:title="org.cobbzilla.util.system.\lCommandShell.exec">
<polygon fill="none" stroke="#000000" points="220.5,-196.5 220.5,-226.5 345.5,-226.5 345.5,-196.5 220.5,-196.5"/>
<text text-anchor="start" x="228.5" y="-214.5" font-family="Helvetica,sans-Serif" font-size="10.00" fill="#000000">org.cobbzilla.util.system.</text>
<text text-anchor="middle" x="283" y="-203.5" font-family="Helvetica,sans-Serif" font-size="10.00" fill="#000000">CommandShell.exec</text>
</a>
</g>
</g>
<!-- Node1&#45;&gt;Node2 -->
<g id="edge1" class="edge">
<title>Node1&#45;&gt;Node2</title>
<path fill="none" stroke="#191970" d="M183.3172,-198.8177C195.886,-200.4168 208.486,-202.0199 220.2944,-203.5222"/>
<polygon fill="#191970" stroke="#191970" points="183.6216,-195.3283 173.2598,-197.5381 182.738,-202.2723 183.6216,-195.3283"/>
</g>
<!-- Node14 -->
<g id="node14" class="node">
<title>Node14</title>
<g id="a_node14"><a xlink:href="../../dc/df7/classorg_1_1cobbzilla_1_1util_1_1system_1_1MultiCommandResult_a4f30cddafffdde8f24ba8dc25eda4b66.html#a4f30cddafffdde8f24ba8dc25eda4b66" target="_top" xlink:title="org.cobbzilla.util.system.\lMultiCommandResult.toString">
<polygon fill="none" stroke="#000000" points="209,-147.5 209,-177.5 357,-177.5 357,-147.5 209,-147.5"/>
<text text-anchor="start" x="217" y="-165.5" font-family="Helvetica,sans-Serif" font-size="10.00" fill="#000000">org.cobbzilla.util.system.</text>
<text text-anchor="middle" x="283" y="-154.5" font-family="Helvetica,sans-Serif" font-size="10.00" fill="#000000">MultiCommandResult.toString</text>
</a>
</g>
</g>
<!-- Node1&#45;&gt;Node14 -->
<g id="edge13" class="edge">
<title>Node1&#45;&gt;Node14</title>
<path fill="none" stroke="#191970" d="M183.2736,-174.6803C191.823,-173.6361 200.3872,-172.5901 208.7074,-171.5739"/>
<polygon fill="#191970" stroke="#191970" points="182.7616,-171.2168 173.2598,-175.9034 183.6103,-178.1651 182.7616,-171.2168"/>
</g>
<!-- Node3 -->
<g id="node3" class="node">
<title>Node3</title>
<g id="a_node3"><a xlink:href="../../df/ded/classorg_1_1cobbzilla_1_1util_1_1system_1_1CommandShell_a856a8d31d6d8b934c5f5a1ae84f5f6ff.html#a856a8d31d6d8b934c5f5a1ae84f5f6ff" target="_top" xlink:title="org.cobbzilla.util.system.\lCommandShell.exec">
<polygon fill="none" stroke="#000000" points="429,-343.5 429,-373.5 554,-373.5 554,-343.5 429,-343.5"/>
<text text-anchor="start" x="437" y="-361.5" font-family="Helvetica,sans-Serif" font-size="10.00" fill="#000000">org.cobbzilla.util.system.</text>
<text text-anchor="middle" x="491.5" y="-350.5" font-family="Helvetica,sans-Serif" font-size="10.00" fill="#000000">CommandShell.exec</text>
</a>
</g>
</g>
<!-- Node2&#45;&gt;Node3 -->
<g id="edge2" class="edge">
<title>Node2&#45;&gt;Node3</title>
<path fill="none" stroke="#191970" d="M297.5811,-235.0699C316.2058,-263.1403 351.0966,-309.3781 393,-334.5 403.8691,-341.0162 416.4158,-345.7655 428.8367,-349.2263"/>
<polygon fill="#191970" stroke="#191970" points="300.4948,-233.1303 292.1174,-226.6443 294.6216,-236.9389 300.4948,-233.1303"/>
</g>
<!-- Node4 -->
<g id="node4" class="node">
<title>Node4</title>
<g id="a_node4"><a xlink:href="../../d9/d6b/classorg_1_1cobbzilla_1_1util_1_1http_1_1HttpUtil_a39f8ec957b9281635ac9a6f3d6df3c96.html#a39f8ec957b9281635ac9a6f3d6df3c96" target="_top" xlink:title="org.cobbzilla.util.http.\lHttpUtil.isOk">
<polygon fill="none" stroke="#000000" points="436.5,-294.5 436.5,-324.5 546.5,-324.5 546.5,-294.5 436.5,-294.5"/>
<text text-anchor="start" x="444.5" y="-312.5" font-family="Helvetica,sans-Serif" font-size="10.00" fill="#000000">org.cobbzilla.util.http.</text>
<text text-anchor="middle" x="491.5" y="-301.5" font-family="Helvetica,sans-Serif" font-size="10.00" fill="#000000">HttpUtil.isOk</text>
</a>
</g>
</g>
<!-- Node2&#45;&gt;Node4 -->
<g id="edge3" class="edge">
<title>Node2&#45;&gt;Node4</title>
<path fill="none" stroke="#191970" d="M309.2067,-233.0465C330.566,-249.6058 362.1413,-271.8822 393,-285.5 406.6068,-291.5046 421.9627,-296.1601 436.4306,-299.7029"/>
<polygon fill="#191970" stroke="#191970" points="311.2868,-230.2295 301.2665,-226.7879 306.9535,-235.727 311.2868,-230.2295"/>
</g>
<!-- Node5 -->
<g id="node5" class="node">
<title>Node5</title>
<g id="a_node5"><a xlink:href="../../d7/deb/classorg_1_1cobbzilla_1_1util_1_1io_1_1main_1_1FilesystemWatcherMain_a4c5e96bac952e792820ecb038f4c234d.html#a4c5e96bac952e792820ecb038f4c234d" target="_top" xlink:title="org.cobbzilla.util.io.main.\lFilesystemWatcherMain.run">
<polygon fill="none" stroke="#000000" points="422,-245.5 422,-275.5 561,-275.5 561,-245.5 422,-245.5"/>
<text text-anchor="start" x="430" y="-263.5" font-family="Helvetica,sans-Serif" font-size="10.00" fill="#000000">org.cobbzilla.util.io.main.</text>
<text text-anchor="middle" x="491.5" y="-252.5" font-family="Helvetica,sans-Serif" font-size="10.00" fill="#000000">FilesystemWatcherMain.run</text>
</a>
</g>
</g>
<!-- Node2&#45;&gt;Node5 -->
<g id="edge4" class="edge">
<title>Node2&#45;&gt;Node5</title>
<path fill="none" stroke="#191970" d="M355.45,-228.5266C378.9101,-234.04 404.7462,-240.1118 427.5439,-245.4696"/>
<polygon fill="#191970" stroke="#191970" points="356.0924,-225.0823 345.5569,-226.2016 354.4909,-231.8967 356.0924,-225.0823"/>
</g>
<!-- Node6 -->
<g id="node6" class="node">
<title>Node6</title>
<g id="a_node6"><a xlink:href="../../df/ded/classorg_1_1cobbzilla_1_1util_1_1system_1_1CommandShell_a2b1b58f19b56a6d27b9b48f601443aec.html#a2b1b58f19b56a6d27b9b48f601443aec" target="_top" xlink:title="org.cobbzilla.util.system.\lCommandShell.scriptResult">
<polygon fill="none" stroke="#000000" points="422,-196.5 422,-226.5 561,-226.5 561,-196.5 422,-196.5"/>
<text text-anchor="start" x="430" y="-214.5" font-family="Helvetica,sans-Serif" font-size="10.00" fill="#000000">org.cobbzilla.util.system.</text>
<text text-anchor="middle" x="491.5" y="-203.5" font-family="Helvetica,sans-Serif" font-size="10.00" fill="#000000">CommandShell.scriptResult</text>
</a>
</g>
</g>
<!-- Node2&#45;&gt;Node6 -->
<g id="edge5" class="edge">
<title>Node2&#45;&gt;Node6</title>
<path fill="none" stroke="#191970" d="M355.578,-211.5C377.0173,-211.5 400.4312,-211.5 421.692,-211.5"/>
<polygon fill="#191970" stroke="#191970" points="355.5569,-208.0001 345.5569,-211.5 355.5568,-215.0001 355.5569,-208.0001"/>
</g>
<!-- Node7 -->
<g id="node7" class="node">
<title>Node7</title>
<g id="a_node7"><a xlink:href="../../d9/dae/classorg_1_1cobbzilla_1_1util_1_1system_1_1CommandShellTest_ac7b087beaa2b7f6c815558964deb15fb.html#ac7b087beaa2b7f6c815558964deb15fb" target="_top" xlink:title="org.cobbzilla.util.system.\lCommandShellTest.testProgressFilter">
<polygon fill="none" stroke="#000000" points="400,-147.5 400,-177.5 583,-177.5 583,-147.5 400,-147.5"/>
<text text-anchor="start" x="408" y="-165.5" font-family="Helvetica,sans-Serif" font-size="10.00" fill="#000000">org.cobbzilla.util.system.</text>
<text text-anchor="middle" x="491.5" y="-154.5" font-family="Helvetica,sans-Serif" font-size="10.00" fill="#000000">CommandShellTest.testProgressFilter</text>
</a>
</g>
</g>
<!-- Node2&#45;&gt;Node7 -->
<g id="edge6" class="edge">
<title>Node2&#45;&gt;Node7</title>
<path fill="none" stroke="#191970" d="M355.45,-194.4734C378.9101,-188.96 404.7462,-182.8882 427.5439,-177.5304"/>
<polygon fill="#191970" stroke="#191970" points="354.4909,-191.1033 345.5569,-196.7984 356.0924,-197.9177 354.4909,-191.1033"/>
</g>
<!-- Node8 -->
<g id="node8" class="node">
<title>Node8</title>
<g id="a_node8"><a xlink:href="../../d9/dae/classorg_1_1cobbzilla_1_1util_1_1system_1_1CommandShellTest_a3356ca7b357cc90e8708c236d0b8fc5f.html#a3356ca7b357cc90e8708c236d0b8fc5f" target="_top" xlink:title="org.cobbzilla.util.system.\lCommandShellTest.testStreamCallbacks">
<polygon fill="none" stroke="#000000" points="393,-98.5 393,-128.5 590,-128.5 590,-98.5 393,-98.5"/>
<text text-anchor="start" x="401" y="-116.5" font-family="Helvetica,sans-Serif" font-size="10.00" fill="#000000">org.cobbzilla.util.system.</text>
<text text-anchor="middle" x="491.5" y="-105.5" font-family="Helvetica,sans-Serif" font-size="10.00" fill="#000000">CommandShellTest.testStreamCallbacks</text>
</a>
</g>
</g>
<!-- Node2&#45;&gt;Node8 -->
<g id="edge7" class="edge">
<title>Node2&#45;&gt;Node8</title>
<path fill="none" stroke="#191970" d="M350.555,-191.7003C352.7833,-190.3859 354.9401,-188.9874 357,-187.5 378.9089,-171.68 370.5881,-153.599 393,-138.5 398.7065,-134.6555 404.9604,-131.4021 411.4623,-128.6491"/>
<polygon fill="#191970" stroke="#191970" points="348.8904,-188.6211 341.6594,-196.3648 352.1411,-194.8206 348.8904,-188.6211"/>
</g>
<!-- Node9 -->
<g id="node9" class="node">
<title>Node9</title>
<g id="a_node9"><a xlink:href="../../df/ded/classorg_1_1cobbzilla_1_1util_1_1system_1_1CommandShell_aaacae4bcb630654d95f303d3adedfd35.html#aaacae4bcb630654d95f303d3adedfd35" target="_top" xlink:title="org.cobbzilla.util.system.\lCommandShell.toString">
<polygon fill="none" stroke="#000000" points="429,-49.5 429,-79.5 554,-79.5 554,-49.5 429,-49.5"/>
<text text-anchor="start" x="437" y="-67.5" font-family="Helvetica,sans-Serif" font-size="10.00" fill="#000000">org.cobbzilla.util.system.</text>
<text text-anchor="middle" x="491.5" y="-56.5" font-family="Helvetica,sans-Serif" font-size="10.00" fill="#000000">CommandShell.toString</text>
</a>
</g>
</g>
<!-- Node2&#45;&gt;Node9 -->
<g id="edge8" class="edge">
<title>Node2&#45;&gt;Node9</title>
<path fill="none" stroke="#191970" d="M353.4831,-190.6041C354.7002,-189.6168 355.8747,-188.5828 357,-187.5 390.435,-155.3257 358.5362,-120.5698 393,-89.5 403.0245,-80.4627 415.8537,-74.5941 428.9161,-70.8075"/>
<polygon fill="#191970" stroke="#191970" points="351.1857,-187.9348 344.9039,-196.4665 355.1351,-193.7143 351.1857,-187.9348"/>
</g>
<!-- Node10 -->
<g id="node10" class="node">
<title>Node10</title>
<g id="a_node10"><a xlink:href="../../df/ded/classorg_1_1cobbzilla_1_1util_1_1system_1_1CommandShell_a85457af0db04ef61c9911dde95b30f01.html#a85457af0db04ef61c9911dde95b30f01" target="_top" xlink:title="org.cobbzilla.util.system.\lCommandShell.domainname">
<polygon fill="none" stroke="#000000" points="626,-98.5 626,-128.5 768,-128.5 768,-98.5 626,-98.5"/>
<text text-anchor="start" x="634" y="-116.5" font-family="Helvetica,sans-Serif" font-size="10.00" fill="#000000">org.cobbzilla.util.system.</text>
<text text-anchor="middle" x="697" y="-105.5" font-family="Helvetica,sans-Serif" font-size="10.00" fill="#000000">CommandShell.domainname</text>
</a>
</g>
</g>
<!-- Node9&#45;&gt;Node10 -->
<g id="edge9" class="edge">
<title>Node9&#45;&gt;Node10</title>
<path fill="none" stroke="#191970" d="M564.2158,-81.8386C586.9666,-87.2633 611.8713,-93.2017 633.9029,-98.4549"/>
<polygon fill="#191970" stroke="#191970" points="564.8125,-78.3828 554.2734,-79.4679 563.1889,-85.1919 564.8125,-78.3828"/>
</g>
<!-- Node11 -->
<g id="node11" class="node">
<title>Node11</title>
<g id="a_node11"><a xlink:href="../../df/ded/classorg_1_1cobbzilla_1_1util_1_1system_1_1CommandShell_a4951a272fb6d4964d2d8c4d86670f6c6.html#a4951a272fb6d4964d2d8c4d86670f6c6" target="_top" xlink:title="org.cobbzilla.util.system.\lCommandShell.hostname">
<polygon fill="none" stroke="#000000" points="632.5,-49.5 632.5,-79.5 761.5,-79.5 761.5,-49.5 632.5,-49.5"/>
<text text-anchor="start" x="640.5" y="-67.5" font-family="Helvetica,sans-Serif" font-size="10.00" fill="#000000">org.cobbzilla.util.system.</text>
<text text-anchor="middle" x="697" y="-56.5" font-family="Helvetica,sans-Serif" font-size="10.00" fill="#000000">CommandShell.hostname</text>
</a>
</g>
</g>
<!-- Node9&#45;&gt;Node11 -->
<g id="edge10" class="edge">
<title>Node9&#45;&gt;Node11</title>
<path fill="none" stroke="#191970" d="M564.3273,-64.5C586.5597,-64.5 610.8397,-64.5 632.4807,-64.5"/>
<polygon fill="#191970" stroke="#191970" points="564.2734,-61.0001 554.2734,-64.5 564.2734,-68.0001 564.2734,-61.0001"/>
</g>
<!-- Node12 -->
<g id="node12" class="node">
<title>Node12</title>
<g id="a_node12"><a xlink:href="../../df/ded/classorg_1_1cobbzilla_1_1util_1_1system_1_1CommandShell_a5d319c1d133f079fc42e036687cba998.html#a5d319c1d133f079fc42e036687cba998" target="_top" xlink:title="org.cobbzilla.util.system.\lCommandShell.whoami">
<polygon fill="none" stroke="#000000" points="634.5,-.5 634.5,-30.5 759.5,-30.5 759.5,-.5 634.5,-.5"/>
<text text-anchor="start" x="642.5" y="-18.5" font-family="Helvetica,sans-Serif" font-size="10.00" fill="#000000">org.cobbzilla.util.system.</text>
<text text-anchor="middle" x="697" y="-7.5" font-family="Helvetica,sans-Serif" font-size="10.00" fill="#000000">CommandShell.whoami</text>
</a>
</g>
</g>
<!-- Node9&#45;&gt;Node12 -->
<g id="edge11" class="edge">
<title>Node9&#45;&gt;Node12</title>
<path fill="none" stroke="#191970" d="M564.263,-47.1502C587.1231,-41.6994 612.1537,-35.731 634.2572,-30.4606"/>
<polygon fill="#191970" stroke="#191970" points="563.1889,-43.8081 554.2734,-49.5321 564.8125,-50.6172 563.1889,-43.8081"/>
</g>
<!-- Node13 -->
<g id="node13" class="node">
<title>Node13</title>
<g id="a_node13"><a xlink:href="../../df/ded/classorg_1_1cobbzilla_1_1util_1_1system_1_1CommandShell_a327beb579a560b71b752bf9f1cbba1c3.html#a327beb579a560b71b752bf9f1cbba1c3" target="_top" xlink:title="org.cobbzilla.util.system.\lCommandShell.isRoot">
<polygon fill="none" stroke="#000000" points="804,-.5 804,-30.5 929,-30.5 929,-.5 804,-.5"/>
<text text-anchor="start" x="812" y="-18.5" font-family="Helvetica,sans-Serif" font-size="10.00" fill="#000000">org.cobbzilla.util.system.</text>
<text text-anchor="middle" x="866.5" y="-7.5" font-family="Helvetica,sans-Serif" font-size="10.00" fill="#000000">CommandShell.isRoot</text>
</a>
</g>
</g>
<!-- Node12&#45;&gt;Node13 -->
<g id="edge12" class="edge">
<title>Node12&#45;&gt;Node13</title>
<path fill="none" stroke="#191970" d="M769.907,-15.5C781.2067,-15.5 792.7929,-15.5 803.8407,-15.5"/>
<polygon fill="#191970" stroke="#191970" points="769.634,-12.0001 759.634,-15.5 769.6339,-19.0001 769.634,-12.0001"/>
</g>
</g>
</svg>
        <g id="navigator" transform="translate(0 0)" fill="#404254">
                <rect fill="#f2f5e9" fill-opacity="0.5" stroke="#606060" stroke-width=".5" x="0" y="0" width="60" height="60"/>
                <use id="zoomplus" xlink:href="#zoomPlus" x="17" y="9" onmousedown="handleZoom(evt,'in')"/>
                <use id="zoomminus" xlink:href="#zoomMin" x="42" y="9" onmousedown="handleZoom(evt,'out')"/>
                <use id="reset" xlink:href="#resetDef" x="30" y="36" onmousedown="handleReset()"/>
                <g id="arrowUp" xlink:href="#dirArrow" transform="translate(30 24)" onmousedown="handlePan(0,-1)">
                  <use xlink:href="#rim" fill="#404040">
                        <set attributeName="fill" to="#808080" begin="arrowUp.mouseover" end="arrowUp.mouseout"/>
                  </use>
                  <path fill="none" stroke="white" stroke-width="1.5" d="M0,-3.0v7 M-2.5,-0.5L0,-3.0L2.5,-0.5"/>
                </g>
                <g id="arrowRight" xlink:href="#dirArrow" transform="rotate(90) translate(36 -43)" onmousedown="handlePan(1,0)">
                  <use xlink:href="#rim" fill="#404040">
                        <set attributeName="fill" to="#808080" begin="arrowRight.mouseover" end="arrowRight.mouseout"/>
                  </use>
                  <path fill="none" stroke="white" stroke-width="1.5" d="M0,-3.0v7 M-2.5,-0.5L0,-3.0L2.5,-0.5"/>
                </g>
                <g id="arrowDown" xlink:href="#dirArrow" transform="rotate(180) translate(-30 -48)" onmousedown="handlePan(0,1)">
                  <use xlink:href="#rim" fill="#404040">
                        <set attributeName="fill" to="#808080" begin="arrowDown.mouseover" end="arrowDown.mouseout"/>
                  </use>
                  <path fill="none" stroke="white" stroke-width="1.5" d="M0,-3.0v7 M-2.5,-0.5L0,-3.0L2.5,-0.5"/>
                </g>
                <g id="arrowLeft" xlink:href="#dirArrow" transform="rotate(270) translate(-36 17)" onmousedown="handlePan(-1,0)">
                  <use xlink:href="#rim" fill="#404040">
                        <set attributeName="fill" to="#808080" begin="arrowLeft.mouseover" end="arrowLeft.mouseout"/>
                  </use>
                  <path fill="none" stroke="white" stroke-width="1.5" d="M0,-3.0v7 M-2.5,-0.5L0,-3.0L2.5,-0.5"/>
                </g>
        </g>
        <svg viewBox="0 0 15 15" width="100%" height="30px" preserveAspectRatio="xMaxYMin meet">
         <g id="arrow_out" transform="scale(0.3 0.3)">
          <a xlink:href="classorg_1_1cobbzilla_1_1util_1_1system_1_1MultiCommandResult_adeb9e510ac60b715f83f640a65248af2_adeb9e510ac60b715f83f640a65248af2_icgraph_org.svg" target="_base">
           <rect id="button" ry="5" rx="5" y="6" x="6" height="38" width="38"
                fill="#f2f5e9" fill-opacity="0.5" stroke="#606060" stroke-width="1.0"/>
           <path id="arrow"
             d="M 11.500037,31.436501 C 11.940474,20.09759 22.043105,11.32322 32.158766,21.979434 L 37.068811,17.246167 C 37.068811,17.246167 37.088388,32 37.088388,32 L 22.160133,31.978069 C 22.160133,31.978069 26.997745,27.140456 26.997745,27.140456 C 18.528582,18.264221 13.291696,25.230495 11.500037,31.436501 z"
             style="fill:#404040;"/>
          </a>
         </g>
        </svg>
</svg>
