<?xml version="1.0" encoding="UTF-8" standalone="no"?>
<!DOCTYPE svg PUBLIC "-//W3C//DTD SVG 1.1//EN"
 "http://www.w3.org/Graphics/SVG/1.1/DTD/svg11.dtd">
<!-- Generated by graphviz version 2.40.1 (20161225.0304)
 -->
<!-- Title: org.cobbzilla.util.io.FilesystemWalker.walk Pages: 1 -->
<svg width="509pt" height="170pt"
 viewBox="0.00 0.00 509.00 170.00" xmlns="http://www.w3.org/2000/svg" xmlns:xlink="http://www.w3.org/1999/xlink">
<g id="graph0" class="graph" transform="scale(1 1) rotate(0) translate(4 166)">
<title>org.cobbzilla.util.io.FilesystemWalker.walk</title>
<!-- Node0 -->
<g id="node1" class="node">
<title>Node0</title>
<polygon fill="#bfbfbf" stroke="#000000" points="0,-49.5 0,-79.5 149,-79.5 149,-49.5 0,-49.5"/>
<text text-anchor="start" x="8" y="-67.5" font-family="Helvetica,sans-Serif" font-size="10.00" fill="#000000">org.cobbzilla.util.io.Filesystem</text>
<text text-anchor="middle" x="74.5" y="-56.5" font-family="Helvetica,sans-Serif" font-size="10.00" fill="#000000">Walker.walk</text>
</g>
<!-- Node1 -->
<g id="node2" class="node">
<title>Node1</title>
<g id="a_node2"><a xlink:href="../../de/de0/classorg_1_1cobbzilla_1_1util_1_1io_1_1FilesystemWalker_ae03d4f7ba6b303af5ee4bf3157d1433e.html#ae03d4f7ba6b303af5ee4bf3157d1433e" target="_top" xlink:title="org.cobbzilla.util.io.Filesystem\lWalker.awaitFutures">
<polygon fill="none" stroke="#000000" points="185,-98.5 185,-128.5 334,-128.5 334,-98.5 185,-98.5"/>
<text text-anchor="start" x="193" y="-116.5" font-family="Helvetica,sans-Serif" font-size="10.00" fill="#000000">org.cobbzilla.util.io.Filesystem</text>
<text text-anchor="middle" x="259.5" y="-105.5" font-family="Helvetica,sans-Serif" font-size="10.00" fill="#000000">Walker.awaitFutures</text>
</a>
</g>
</g>
<!-- Node0&#45;&gt;Node1 -->
<g id="edge1" class="edge">
<title>Node0&#45;&gt;Node1</title>
<path fill="none" stroke="#191970" d="M131.2633,-79.5346C150.7968,-84.7083 172.8426,-90.5475 193.0759,-95.9066"/>
<polygon fill="#191970" stroke="#191970" points="192.2812,-99.3167 202.844,-98.4938 194.0735,-92.55 192.2812,-99.3167"/>
</g>
<!-- Node4 -->
<g id="node5" class="node">
<title>Node4</title>
<g id="a_node5"><a xlink:href="../../de/de0/classorg_1_1cobbzilla_1_1util_1_1io_1_1FilesystemWalker_a11c5f116bc3b7619e956fcfc3a4d0c61.html#a11c5f116bc3b7619e956fcfc3a4d0c61" target="_top" xlink:title="org.cobbzilla.util.io.Filesystem\lWalker.fileJob">
<polygon fill="none" stroke="#000000" points="185,-49.5 185,-79.5 334,-79.5 334,-49.5 185,-49.5"/>
<text text-anchor="start" x="193" y="-67.5" font-family="Helvetica,sans-Serif" font-size="10.00" fill="#000000">org.cobbzilla.util.io.Filesystem</text>
<text text-anchor="middle" x="259.5" y="-56.5" font-family="Helvetica,sans-Serif" font-size="10.00" fill="#000000">Walker.fileJob</text>
</a>
</g>
</g>
<!-- Node0&#45;&gt;Node4 -->
<g id="edge5" class="edge">
<title>Node0&#45;&gt;Node4</title>
<path fill="none" stroke="#191970" d="M149.2133,-64.5C157.5547,-64.5 166.0967,-64.5 174.5539,-64.5"/>
<polygon fill="#191970" stroke="#191970" points="174.8086,-68.0001 184.8085,-64.5 174.8085,-61.0001 174.8086,-68.0001"/>
</g>
<!-- Node5 -->
<g id="node6" class="node">
<title>Node5</title>
<g id="a_node6"><a xlink:href="../../de/de0/classorg_1_1cobbzilla_1_1util_1_1io_1_1FilesystemWalker_aa78aa25f5e3e8f92fcaab5e9202a0a39.html#aa78aa25f5e3e8f92fcaab5e9202a0a39" target="_top" xlink:title="org.cobbzilla.util.io.Filesystem\lWalker.numFutures">
<polygon fill="none" stroke="#000000" points="185,-.5 185,-30.5 334,-30.5 334,-.5 185,-.5"/>
<text text-anchor="start" x="193" y="-18.5" font-family="Helvetica,sans-Serif" font-size="10.00" fill="#000000">org.cobbzilla.util.io.Filesystem</text>
<text text-anchor="middle" x="259.5" y="-7.5" font-family="Helvetica,sans-Serif" font-size="10.00" fill="#000000">Walker.numFutures</text>
</a>
</g>
</g>
<!-- Node0&#45;&gt;Node5 -->
<g id="edge6" class="edge">
<title>Node0&#45;&gt;Node5</title>
<path fill="none" stroke="#191970" d="M131.2633,-49.4654C150.7968,-44.2917 172.8426,-38.4525 193.0759,-33.0934"/>
<polygon fill="#191970" stroke="#191970" points="194.0735,-36.45 202.844,-30.5062 192.2812,-29.6833 194.0735,-36.45"/>
</g>
<!-- Node2 -->
<g id="node3" class="node">
<title>Node2</title>
<g id="a_node3"><a xlink:href="../../d4/d54/classorg_1_1cobbzilla_1_1util_1_1daemon_1_1AwaitResult_a378c0f070e729dc8791107a3201f85a3.html#a378c0f070e729dc8791107a3201f85a3" target="_top" xlink:title="org.cobbzilla.util.daemon.\lAwaitResult.allSucceeded">
<polygon fill="none" stroke="#000000" points="370,-131.5 370,-161.5 501,-161.5 501,-131.5 370,-131.5"/>
<text text-anchor="start" x="378" y="-149.5" font-family="Helvetica,sans-Serif" font-size="10.00" fill="#000000">org.cobbzilla.util.daemon.</text>
<text text-anchor="middle" x="435.5" y="-138.5" font-family="Helvetica,sans-Serif" font-size="10.00" fill="#000000">AwaitResult.allSucceeded</text>
</a>
</g>
</g>
<!-- Node1&#45;&gt;Node2 -->
<g id="edge2" class="edge">
<title>Node1&#45;&gt;Node2</title>
<path fill="none" stroke="#191970" d="M334.1398,-127.495C342.6919,-129.0985 351.4163,-130.7343 359.9798,-132.34"/>
<polygon fill="#191970" stroke="#191970" points="359.4649,-135.8043 369.9387,-134.2073 360.755,-128.9242 359.4649,-135.8043"/>
</g>
<!-- Node3 -->
<g id="node4" class="node">
<title>Node3</title>
<g id="a_node4"><a xlink:href="../../db/d9f/classorg_1_1cobbzilla_1_1util_1_1string_1_1StringUtil_a7241ffa301b092ebc9118059204827b0.html#a7241ffa301b092ebc9118059204827b0" target="_top" xlink:title="org.cobbzilla.util.string.\lStringUtil.toString">
<polygon fill="none" stroke="#000000" points="377,-64.5 377,-94.5 494,-94.5 494,-64.5 377,-64.5"/>
<text text-anchor="start" x="385" y="-82.5" font-family="Helvetica,sans-Serif" font-size="10.00" fill="#000000">org.cobbzilla.util.string.</text>
<text text-anchor="middle" x="435.5" y="-71.5" font-family="Helvetica,sans-Serif" font-size="10.00" fill="#000000">StringUtil.toString</text>
</a>
</g>
</g>
<!-- Node1&#45;&gt;Node3 -->
<g id="edge3" class="edge">
<title>Node1&#45;&gt;Node3</title>
<path fill="none" stroke="#191970" d="M334.1398,-99.0809C344.9317,-96.9962 355.9979,-94.8584 366.6689,-92.7969"/>
<polygon fill="#191970" stroke="#191970" points="367.6024,-96.1814 376.7569,-90.8481 366.2746,-89.3085 367.6024,-96.1814"/>
</g>
<!-- Node3&#45;&gt;Node3 -->
<g id="edge4" class="edge">
<title>Node3&#45;&gt;Node3</title>
<path fill="none" stroke="#191970" d="M404.8284,-94.659C397.4324,-104.0566 407.6563,-113 435.5,-113 452.4673,-113 462.8916,-109.679 466.7731,-104.9579"/>
<polygon fill="#191970" stroke="#191970" points="470.2488,-104.4379 466.1716,-94.659 463.2607,-104.8461 470.2488,-104.4379"/>
</g>
</g>
</svg>
