<?xml version="1.0" encoding="UTF-8" standalone="no"?>
<!DOCTYPE svg PUBLIC "-//W3C//DTD SVG 1.1//EN"
 "http://www.w3.org/Graphics/SVG/1.1/DTD/svg11.dtd">
<!-- Generated by graphviz version 2.40.1 (20161225.0304)
 -->
<!-- Title: org.cobbzilla.util.io.FilesystemWalker.awaitFutures Pages: 1 -->
<svg width="324pt" height="106pt"
 viewBox="0.00 0.00 324.00 106.00" xmlns="http://www.w3.org/2000/svg" xmlns:xlink="http://www.w3.org/1999/xlink">
<g id="graph0" class="graph" transform="scale(1 1) rotate(0) translate(4 102)">
<title>org.cobbzilla.util.io.FilesystemWalker.awaitFutures</title>
<!-- Node0 -->
<g id="node1" class="node">
<title>Node0</title>
<polygon fill="#bfbfbf" stroke="#000000" points="0,-33.5 0,-63.5 149,-63.5 149,-33.5 0,-33.5"/>
<text text-anchor="start" x="8" y="-51.5" font-family="Helvetica,sans-Serif" font-size="10.00" fill="#000000">org.cobbzilla.util.io.Filesystem</text>
<text text-anchor="middle" x="74.5" y="-40.5" font-family="Helvetica,sans-Serif" font-size="10.00" fill="#000000">Walker.awaitFutures</text>
</g>
<!-- Node1 -->
<g id="node2" class="node">
<title>Node1</title>
<g id="a_node2"><a xlink:href="../../d4/d54/classorg_1_1cobbzilla_1_1util_1_1daemon_1_1AwaitResult_a378c0f070e729dc8791107a3201f85a3.html#a378c0f070e729dc8791107a3201f85a3" target="_top" xlink:title="org.cobbzilla.util.daemon.\lAwaitResult.allSucceeded">
<polygon fill="none" stroke="#000000" points="185,-67.5 185,-97.5 316,-97.5 316,-67.5 185,-67.5"/>
<text text-anchor="start" x="193" y="-85.5" font-family="Helvetica,sans-Serif" font-size="10.00" fill="#000000">org.cobbzilla.util.daemon.</text>
<text text-anchor="middle" x="250.5" y="-74.5" font-family="Helvetica,sans-Serif" font-size="10.00" fill="#000000">AwaitResult.allSucceeded</text>
</a>
</g>
</g>
<!-- Node0&#45;&gt;Node1 -->
<g id="edge1" class="edge">
<title>Node0&#45;&gt;Node1</title>
<path fill="none" stroke="#191970" d="M149.1398,-62.9191C157.6919,-64.5712 166.4163,-66.2566 174.9798,-67.9109"/>
<polygon fill="#191970" stroke="#191970" points="174.4563,-71.3744 184.9387,-69.8347 175.7841,-64.5015 174.4563,-71.3744"/>
</g>
<!-- Node2 -->
<g id="node3" class="node">
<title>Node2</title>
<g id="a_node3"><a xlink:href="../../db/d9f/classorg_1_1cobbzilla_1_1util_1_1string_1_1StringUtil_a7241ffa301b092ebc9118059204827b0.html#a7241ffa301b092ebc9118059204827b0" target="_top" xlink:title="org.cobbzilla.util.string.\lStringUtil.toString">
<polygon fill="none" stroke="#000000" points="192,-.5 192,-30.5 309,-30.5 309,-.5 192,-.5"/>
<text text-anchor="start" x="200" y="-18.5" font-family="Helvetica,sans-Serif" font-size="10.00" fill="#000000">org.cobbzilla.util.string.</text>
<text text-anchor="middle" x="250.5" y="-7.5" font-family="Helvetica,sans-Serif" font-size="10.00" fill="#000000">StringUtil.toString</text>
</a>
</g>
</g>
<!-- Node0&#45;&gt;Node2 -->
<g id="edge2" class="edge">
<title>Node0&#45;&gt;Node2</title>
<path fill="none" stroke="#191970" d="M149.1398,-34.505C159.9317,-32.4816 170.9979,-30.4066 181.6689,-28.4058"/>
<polygon fill="#191970" stroke="#191970" points="182.5733,-31.7973 191.7569,-26.5143 181.2832,-24.9172 182.5733,-31.7973"/>
</g>
<!-- Node2&#45;&gt;Node2 -->
<g id="edge3" class="edge">
<title>Node2&#45;&gt;Node2</title>
<path fill="none" stroke="#191970" d="M219.8284,-30.659C212.4324,-40.0566 222.6563,-49 250.5,-49 267.4673,-49 277.8916,-45.679 281.7731,-40.9579"/>
<polygon fill="#191970" stroke="#191970" points="285.2488,-40.4379 281.1716,-30.659 278.2607,-40.8461 285.2488,-40.4379"/>
</g>
</g>
</svg>
