<?xml version="1.0" encoding="UTF-8" standalone="no"?>
<!DOCTYPE svg PUBLIC "-//W3C//DTD SVG 1.1//EN"
 "http://www.w3.org/Graphics/SVG/1.1/DTD/svg11.dtd">
<!-- Generated by graphviz version 2.40.1 (20161225.0304)
 -->
<!-- Title: org.cobbzilla.util.system.CommandShellTest.TestFilterOutputStream Pages: 1 -->
<svg width="184pt" height="182pt"
 viewBox="0.00 0.00 184.00 182.00" xmlns="http://www.w3.org/2000/svg" xmlns:xlink="http://www.w3.org/1999/xlink">
<g id="graph0" class="graph" transform="scale(1 1) rotate(0) translate(4 178)">
<title>org.cobbzilla.util.system.CommandShellTest.TestFilterOutputStream</title>
<!-- Node0 -->
<g id="node1" class="node">
<title>Node0</title>
<polygon fill="#bfbfbf" stroke="#000000" points="0,-.5 0,-79.5 176,-79.5 176,-.5 0,-.5"/>
<text text-anchor="start" x="8" y="-67.5" font-family="Helvetica,sans-Serif" font-size="10.00" fill="#000000">org.cobbzilla.util.system.</text>
<text text-anchor="start" x="8" y="-56.5" font-family="Helvetica,sans-Serif" font-size="10.00" fill="#000000">CommandShellTest.TestFilterOutput</text>
<text text-anchor="middle" x="88" y="-45.5" font-family="Helvetica,sans-Serif" font-size="10.00" fill="#000000">Stream</text>
<polyline fill="none" stroke="#000000" points="0,-38.5 176,-38.5 "/>
<text text-anchor="start" x="8" y="-26.5" font-family="Helvetica,sans-Serif" font-size="10.00" fill="#000000">~ foundPercentages</text>
<polyline fill="none" stroke="#000000" points="0,-19.5 176,-19.5 "/>
<text text-anchor="start" x="8" y="-7.5" font-family="Helvetica,sans-Serif" font-size="10.00" fill="#000000"># processLine()</text>
</g>
<!-- Node1 -->
<g id="node2" class="node">
<title>Node1</title>
<polygon fill="none" stroke="#bfbfbf" points="22,-116.5 22,-173.5 154,-173.5 154,-116.5 22,-116.5"/>
<text text-anchor="middle" x="88" y="-161.5" font-family="Helvetica,sans-Serif" font-size="10.00" fill="#000000">LineOrientedOutputStream</text>
<polyline fill="none" stroke="#bfbfbf" points="22,-154.5 154,-154.5 "/>
<text text-anchor="middle" x="88" y="-142.5" font-family="Helvetica,sans-Serif" font-size="10.00" fill="#000000"> </text>
<polyline fill="none" stroke="#bfbfbf" points="22,-135.5 154,-135.5 "/>
<text text-anchor="middle" x="88" y="-123.5" font-family="Helvetica,sans-Serif" font-size="10.00" fill="#000000"> </text>
</g>
<!-- Node1&#45;&gt;Node0 -->
<g id="edge1" class="edge">
<title>Node1&#45;&gt;Node0</title>
<path fill="none" stroke="#191970" d="M88,-106.1156C88,-97.4889 88,-88.3353 88,-79.6773"/>
<polygon fill="none" stroke="#191970" points="84.5001,-106.3083 88,-116.3083 91.5001,-106.3083 84.5001,-106.3083"/>
</g>
</g>
</svg>
