<?xml version="1.0" encoding="UTF-8" standalone="no"?>
<!DOCTYPE svg PUBLIC "-//W3C//DTD SVG 1.1//EN"
 "http://www.w3.org/Graphics/SVG/1.1/DTD/svg11.dtd">
<!-- Generated by graphviz version 2.40.1 (20161225.0304)
 -->
<!-- Title: org.cobbzilla.util.jdbc.DebugPostgresqlDriver Pages: 1 -->
<svg width="180pt" height="226pt"
 viewBox="0.00 0.00 180.00 226.00" xmlns="http://www.w3.org/2000/svg" xmlns:xlink="http://www.w3.org/1999/xlink">
<g id="graph0" class="graph" transform="scale(1 1) rotate(0) translate(4 222)">
<title>org.cobbzilla.util.jdbc.DebugPostgresqlDriver</title>
<!-- Node0 -->
<g id="node1" class="node">
<title>Node0</title>
<polygon fill="#bfbfbf" stroke="#000000" points="1.5,-.5 1.5,-112.5 135.5,-112.5 135.5,-.5 1.5,-.5"/>
<text text-anchor="start" x="9.5" y="-100.5" font-family="Helvetica,sans-Serif" font-size="10.00" fill="#000000">org.cobbzilla.util.jdbc.</text>
<text text-anchor="middle" x="68.5" y="-89.5" font-family="Helvetica,sans-Serif" font-size="10.00" fill="#000000">DebugPostgresqlDriver</text>
<polyline fill="none" stroke="#000000" points="1.5,-82.5 135.5,-82.5 "/>
<text text-anchor="start" x="9.5" y="-70.5" font-family="Helvetica,sans-Serif" font-size="10.00" fill="#000000">&#45; driver</text>
<text text-anchor="start" x="9.5" y="-59.5" font-family="Helvetica,sans-Serif" font-size="10.00" fill="#000000">&#45; DEBUG_PREFIX</text>
<text text-anchor="start" x="9.5" y="-48.5" font-family="Helvetica,sans-Serif" font-size="10.00" fill="#000000">&#45; POSTGRESQL_PREFIX</text>
<text text-anchor="start" x="9.5" y="-37.5" font-family="Helvetica,sans-Serif" font-size="10.00" fill="#000000">&#45; DRIVER_CLASS_NAME</text>
<polyline fill="none" stroke="#000000" points="1.5,-30.5 135.5,-30.5 "/>
<text text-anchor="start" x="9.5" y="-18.5" font-family="Helvetica,sans-Serif" font-size="10.00" fill="#000000">+ connect()</text>
<text text-anchor="start" x="9.5" y="-7.5" font-family="Helvetica,sans-Serif" font-size="10.00" fill="#000000">~ [static initializer]()</text>
</g>
<!-- Node1 -->
<g id="node2" class="node">
<title>Node1</title>
<polygon fill="none" stroke="#bfbfbf" points="0,-155 0,-212 43,-212 43,-155 0,-155"/>
<text text-anchor="middle" x="21.5" y="-200" font-family="Helvetica,sans-Serif" font-size="10.00" fill="#000000">Driver</text>
<polyline fill="none" stroke="#bfbfbf" points="0,-193 43,-193 "/>
<text text-anchor="middle" x="21.5" y="-181" font-family="Helvetica,sans-Serif" font-size="10.00" fill="#000000"> </text>
<polyline fill="none" stroke="#bfbfbf" points="0,-174 43,-174 "/>
<text text-anchor="middle" x="21.5" y="-162" font-family="Helvetica,sans-Serif" font-size="10.00" fill="#000000"> </text>
</g>
<!-- Node1&#45;&gt;Node0 -->
<g id="edge1" class="edge">
<title>Node1&#45;&gt;Node0</title>
<path fill="none" stroke="#191970" d="M35.5652,-145.494C39.3783,-135.1905 43.5888,-123.8132 47.6887,-112.7348"/>
<polygon fill="none" stroke="#191970" points="32.2361,-144.4056 32.0477,-154.9987 38.801,-146.8351 32.2361,-144.4056"/>
</g>
<!-- Node2 -->
<g id="node3" class="node">
<title>Node2</title>
<g id="a_node3"><a xlink:href="../../da/d17/interfaceorg_1_1cobbzilla_1_1util_1_1jdbc_1_1DebugDriver.html" target="_top" xlink:title="{org.cobbzilla.util.jdbc.\lDebugDriver\n||+ connect()\l}">
<polygon fill="none" stroke="#000000" points="61,-149.5 61,-217.5 172,-217.5 172,-149.5 61,-149.5"/>
<text text-anchor="start" x="69" y="-205.5" font-family="Helvetica,sans-Serif" font-size="10.00" fill="#000000">org.cobbzilla.util.jdbc.</text>
<text text-anchor="middle" x="116.5" y="-194.5" font-family="Helvetica,sans-Serif" font-size="10.00" fill="#000000">DebugDriver</text>
<polyline fill="none" stroke="#000000" points="61,-187.5 172,-187.5 "/>
<text text-anchor="middle" x="116.5" y="-175.5" font-family="Helvetica,sans-Serif" font-size="10.00" fill="#000000"> </text>
<polyline fill="none" stroke="#000000" points="61,-168.5 172,-168.5 "/>
<text text-anchor="start" x="69" y="-156.5" font-family="Helvetica,sans-Serif" font-size="10.00" fill="#000000">+ connect()</text>
</a>
</g>
</g>
<!-- Node2&#45;&gt;Node0 -->
<g id="edge2" class="edge">
<title>Node2&#45;&gt;Node0</title>
<path fill="none" stroke="#191970" d="M100.0082,-139.8653C96.7009,-131.115 93.1822,-121.805 89.7402,-112.698"/>
<polygon fill="none" stroke="#191970" points="96.8274,-141.3496 103.6369,-149.4663 103.3753,-138.8747 96.8274,-141.3496"/>
</g>
</g>
</svg>
