<?xml version="1.0" encoding="UTF-8" standalone="no"?>
<!DOCTYPE svg PUBLIC "-//W3C//DTD SVG 1.1//EN"
 "http://www.w3.org/Graphics/SVG/1.1/DTD/svg11.dtd">
<!-- Generated by graphviz version 2.40.1 (20161225.0304)
 -->
<!-- Title: org.cobbzilla.util.reflect.ReflectionUtilTest.testGetSet Pages: 1 -->
<svg width="908pt" height="156pt"
 viewBox="0.00 0.00 908.00 156.00" xmlns="http://www.w3.org/2000/svg" xmlns:xlink="http://www.w3.org/1999/xlink">
<g id="graph0" class="graph" transform="scale(1 1) rotate(0) translate(4 152)">
<title>org.cobbzilla.util.reflect.ReflectionUtilTest.testGetSet</title>
<!-- Node0 -->
<g id="node1" class="node">
<title>Node0</title>
<polygon fill="#bfbfbf" stroke="#000000" points="0,-73.5 0,-103.5 146,-103.5 146,-73.5 0,-73.5"/>
<text text-anchor="start" x="8" y="-91.5" font-family="Helvetica,sans-Serif" font-size="10.00" fill="#000000">org.cobbzilla.util.reflect.</text>
<text text-anchor="middle" x="73" y="-80.5" font-family="Helvetica,sans-Serif" font-size="10.00" fill="#000000">ReflectionUtilTest.testGetSet</text>
</g>
<!-- Node1 -->
<g id="node2" class="node">
<title>Node1</title>
<g id="a_node2"><a xlink:href="../../de/d45/classorg_1_1cobbzilla_1_1util_1_1reflect_1_1ReflectionUtil_a875bf838f367197bc1b9c5d46e5122bd.html#a875bf838f367197bc1b9c5d46e5122bd" target="_top" xlink:title="Call a getter. ">
<polygon fill="none" stroke="#000000" points="351,-117.5 351,-147.5 471,-147.5 471,-117.5 351,-117.5"/>
<text text-anchor="start" x="359" y="-135.5" font-family="Helvetica,sans-Serif" font-size="10.00" fill="#000000">org.cobbzilla.util.reflect.</text>
<text text-anchor="middle" x="411" y="-124.5" font-family="Helvetica,sans-Serif" font-size="10.00" fill="#000000">ReflectionUtil.get</text>
</a>
</g>
</g>
<!-- Node0&#45;&gt;Node1 -->
<g id="edge1" class="edge">
<title>Node0&#45;&gt;Node1</title>
<path fill="none" stroke="#191970" d="M131.5344,-103.5407C147.7862,-107.2745 165.501,-110.9369 182,-113.5 234.9577,-121.727 295.3963,-126.5517 340.881,-129.2794"/>
<polygon fill="#191970" stroke="#191970" points="340.7488,-132.7775 350.9348,-129.8629 341.1544,-125.7893 340.7488,-132.7775"/>
</g>
<!-- Node4 -->
<g id="node5" class="node">
<title>Node4</title>
<g id="a_node5"><a xlink:href="../../de/d45/classorg_1_1cobbzilla_1_1util_1_1reflect_1_1ReflectionUtil_af1f90dab8ddbc70b2248d649e823cf0c.html#af1f90dab8ddbc70b2248d649e823cf0c" target="_top" xlink:title="Call a setter. ">
<polygon fill="none" stroke="#000000" points="182,-73.5 182,-103.5 302,-103.5 302,-73.5 182,-73.5"/>
<text text-anchor="start" x="190" y="-91.5" font-family="Helvetica,sans-Serif" font-size="10.00" fill="#000000">org.cobbzilla.util.reflect.</text>
<text text-anchor="middle" x="242" y="-80.5" font-family="Helvetica,sans-Serif" font-size="10.00" fill="#000000">ReflectionUtil.set</text>
</a>
</g>
</g>
<!-- Node0&#45;&gt;Node4 -->
<g id="edge4" class="edge">
<title>Node0&#45;&gt;Node4</title>
<path fill="none" stroke="#191970" d="M146.1429,-88.5C154.6413,-88.5 163.2958,-88.5 171.7541,-88.5"/>
<polygon fill="#191970" stroke="#191970" points="171.9504,-92.0001 181.9504,-88.5 171.9503,-85.0001 171.9504,-92.0001"/>
</g>
<!-- Node5 -->
<g id="node6" class="node">
<title>Node5</title>
<g id="a_node6"><a xlink:href="../../de/d45/classorg_1_1cobbzilla_1_1util_1_1reflect_1_1ReflectionUtil_a87f8ef4046a1b11a6ec353b0231e8409.html#a87f8ef4046a1b11a6ec353b0231e8409" target="_top" xlink:title="org.cobbzilla.util.reflect.\lReflectionUtil.setNull">
<polygon fill="none" stroke="#000000" points="182,-24.5 182,-54.5 302,-54.5 302,-24.5 182,-24.5"/>
<text text-anchor="start" x="190" y="-42.5" font-family="Helvetica,sans-Serif" font-size="10.00" fill="#000000">org.cobbzilla.util.reflect.</text>
<text text-anchor="middle" x="242" y="-31.5" font-family="Helvetica,sans-Serif" font-size="10.00" fill="#000000">ReflectionUtil.setNull</text>
</a>
</g>
</g>
<!-- Node0&#45;&gt;Node5 -->
<g id="edge5" class="edge">
<title>Node0&#45;&gt;Node5</title>
<path fill="none" stroke="#191970" d="M125.0846,-73.3986C142.5952,-68.3215 162.2949,-62.6098 180.4622,-57.3423"/>
<polygon fill="#191970" stroke="#191970" points="181.4577,-60.6979 190.0874,-54.5516 179.5083,-53.9748 181.4577,-60.6979"/>
</g>
<!-- Node2 -->
<g id="node3" class="node">
<title>Node2</title>
<g id="a_node3"><a xlink:href="../../de/d45/classorg_1_1cobbzilla_1_1util_1_1reflect_1_1ReflectionUtil_a1acc0385c017266a2f5a416746f69863.html#a1acc0385c017266a2f5a416746f69863" target="_top" xlink:title="org.cobbzilla.util.reflect.\lReflectionUtil.invoke_get">
<polygon fill="none" stroke="#000000" points="533,-88.5 533,-118.5 659,-118.5 659,-88.5 533,-88.5"/>
<text text-anchor="start" x="541" y="-106.5" font-family="Helvetica,sans-Serif" font-size="10.00" fill="#000000">org.cobbzilla.util.reflect.</text>
<text text-anchor="middle" x="596" y="-95.5" font-family="Helvetica,sans-Serif" font-size="10.00" fill="#000000">ReflectionUtil.invoke_get</text>
</a>
</g>
</g>
<!-- Node1&#45;&gt;Node2 -->
<g id="edge2" class="edge">
<title>Node1&#45;&gt;Node2</title>
<path fill="none" stroke="#191970" d="M471.0642,-123.0845C487.5568,-120.4992 505.6247,-117.6669 522.7685,-114.9795"/>
<polygon fill="#191970" stroke="#191970" points="523.3995,-118.4234 532.7368,-113.4169 522.3154,-111.5079 523.3995,-118.4234"/>
</g>
<!-- Node3 -->
<g id="node4" class="node">
<title>Node3</title>
<g id="a_node4"><a xlink:href="../../de/d45/classorg_1_1cobbzilla_1_1util_1_1reflect_1_1ReflectionUtil_ad1861d10610bdbfd08ec4c2fc5abb667.html#ad1861d10610bdbfd08ec4c2fc5abb667" target="_top" xlink:title="org.cobbzilla.util.reflect.\lReflectionUtil.getAccessorMethodName">
<polygon fill="none" stroke="#000000" points="708,-66.5 708,-96.5 900,-96.5 900,-66.5 708,-66.5"/>
<text text-anchor="start" x="716" y="-84.5" font-family="Helvetica,sans-Serif" font-size="10.00" fill="#000000">org.cobbzilla.util.reflect.</text>
<text text-anchor="middle" x="804" y="-73.5" font-family="Helvetica,sans-Serif" font-size="10.00" fill="#000000">ReflectionUtil.getAccessorMethodName</text>
</a>
</g>
</g>
<!-- Node2&#45;&gt;Node3 -->
<g id="edge3" class="edge">
<title>Node2&#45;&gt;Node3</title>
<path fill="none" stroke="#191970" d="M659.254,-96.8097C671.4452,-95.5202 684.5236,-94.1369 697.6519,-92.7484"/>
<polygon fill="#191970" stroke="#191970" points="698.1108,-96.2194 707.6871,-91.6869 697.3744,-89.2583 698.1108,-96.2194"/>
</g>
<!-- Node6 -->
<g id="node7" class="node">
<title>Node6</title>
<g id="a_node7"><a xlink:href="../../de/d45/classorg_1_1cobbzilla_1_1util_1_1reflect_1_1ReflectionUtil_adf3aadf0c5ba71fa48a1c2d9511fd91a.html#adf3aadf0c5ba71fa48a1c2d9511fd91a" target="_top" xlink:title="org.cobbzilla.util.reflect.\lReflectionUtil.getTarget">
<polygon fill="none" stroke="#000000" points="351,-68.5 351,-98.5 471,-98.5 471,-68.5 351,-68.5"/>
<text text-anchor="start" x="359" y="-86.5" font-family="Helvetica,sans-Serif" font-size="10.00" fill="#000000">org.cobbzilla.util.reflect.</text>
<text text-anchor="middle" x="411" y="-75.5" font-family="Helvetica,sans-Serif" font-size="10.00" fill="#000000">ReflectionUtil.getTarget</text>
</a>
</g>
</g>
<!-- Node5&#45;&gt;Node6 -->
<g id="edge6" class="edge">
<title>Node5&#45;&gt;Node6</title>
<path fill="none" stroke="#191970" d="M299.6875,-54.5192C313.7498,-58.1804 328.9173,-62.1294 343.395,-65.8987"/>
<polygon fill="#191970" stroke="#191970" points="342.7265,-69.3413 353.2857,-68.4738 344.4902,-62.5671 342.7265,-69.3413"/>
</g>
<!-- Node7 -->
<g id="node8" class="node">
<title>Node7</title>
<g id="a_node8"><a xlink:href="../../de/d45/classorg_1_1cobbzilla_1_1util_1_1reflect_1_1ReflectionUtil_a69508b2f18c3a99ed406ef02cccbefe1.html#a69508b2f18c3a99ed406ef02cccbefe1" target="_top" xlink:title="org.cobbzilla.util.reflect.\lReflectionUtil.invoke_set_null">
<polygon fill="none" stroke="#000000" points="338,-19.5 338,-49.5 484,-49.5 484,-19.5 338,-19.5"/>
<text text-anchor="start" x="346" y="-37.5" font-family="Helvetica,sans-Serif" font-size="10.00" fill="#000000">org.cobbzilla.util.reflect.</text>
<text text-anchor="middle" x="411" y="-26.5" font-family="Helvetica,sans-Serif" font-size="10.00" fill="#000000">ReflectionUtil.invoke_set_null</text>
</a>
</g>
</g>
<!-- Node5&#45;&gt;Node7 -->
<g id="edge8" class="edge">
<title>Node5&#45;&gt;Node7</title>
<path fill="none" stroke="#191970" d="M302.0589,-37.7231C310.3782,-37.477 319.0433,-37.2206 327.6917,-36.9647"/>
<polygon fill="#191970" stroke="#191970" points="327.9228,-40.4595 337.8148,-36.6652 327.7157,-33.4626 327.9228,-40.4595"/>
</g>
<!-- Node6&#45;&gt;Node2 -->
<g id="edge7" class="edge">
<title>Node6&#45;&gt;Node2</title>
<path fill="none" stroke="#191970" d="M471.0642,-89.9934C487.5568,-91.7764 505.6247,-93.7297 522.7685,-95.5831"/>
<polygon fill="#191970" stroke="#191970" points="522.4185,-99.0656 532.7368,-96.6607 523.1709,-92.1061 522.4185,-99.0656"/>
</g>
<!-- Node7&#45;&gt;Node3 -->
<g id="edge9" class="edge">
<title>Node7&#45;&gt;Node3</title>
<path fill="none" stroke="#191970" d="M484.4593,-43.2852C544.4733,-50.4625 630.1091,-60.7039 697.6247,-68.7783"/>
<polygon fill="#191970" stroke="#191970" points="697.5283,-72.2916 707.8732,-70.0039 698.3596,-65.3411 697.5283,-72.2916"/>
</g>
<!-- Node8 -->
<g id="node9" class="node">
<title>Node8</title>
<g id="a_node9"><a xlink:href="../../de/d45/classorg_1_1cobbzilla_1_1util_1_1reflect_1_1ReflectionUtil_aefc5753ae0cd37dee8673a6f09f00455.html#aefc5753ae0cd37dee8673a6f09f00455" target="_top" xlink:title="org.cobbzilla.util.reflect.\lReflectionUtil.getNullArgument">
<polygon fill="none" stroke="#000000" points="520,-.5 520,-30.5 672,-30.5 672,-.5 520,-.5"/>
<text text-anchor="start" x="528" y="-18.5" font-family="Helvetica,sans-Serif" font-size="10.00" fill="#000000">org.cobbzilla.util.reflect.</text>
<text text-anchor="middle" x="596" y="-7.5" font-family="Helvetica,sans-Serif" font-size="10.00" fill="#000000">ReflectionUtil.getNullArgument</text>
</a>
</g>
</g>
<!-- Node7&#45;&gt;Node8 -->
<g id="edge10" class="edge">
<title>Node7&#45;&gt;Node8</title>
<path fill="none" stroke="#191970" d="M484.1169,-26.9907C492.5376,-26.1259 501.1826,-25.238 509.7557,-24.3575"/>
<polygon fill="#191970" stroke="#191970" points="510.1788,-27.8326 519.7689,-23.3291 509.4636,-20.8692 510.1788,-27.8326"/>
</g>
</g>
</svg>
