<?xml version="1.0" encoding="UTF-8" standalone="no"?>
<!DOCTYPE svg PUBLIC "-//W3C//DTD SVG 1.1//EN"
 "http://www.w3.org/Graphics/SVG/1.1/DTD/svg11.dtd">
<!-- Generated by graphviz version 2.40.1 (20161225.0304)
 -->
<!-- Title: org.cobbzilla.util.io.JarTrimmer.toPath Pages: 1 -->
<svg width="585pt" height="61pt"
 viewBox="0.00 0.00 585.00 61.00" xmlns="http://www.w3.org/2000/svg" xmlns:xlink="http://www.w3.org/1999/xlink">
<g id="graph0" class="graph" transform="scale(1 1) rotate(0) translate(4 57)">
<title>org.cobbzilla.util.io.JarTrimmer.toPath</title>
<!-- Node1 -->
<g id="node1" class="node">
<title>Node1</title>
<polygon fill="#bfbfbf" stroke="#000000" points="0,-.5 0,-30.5 114,-30.5 114,-.5 0,-.5"/>
<text text-anchor="start" x="8" y="-18.5" font-family="Helvetica,sans-Serif" font-size="10.00" fill="#000000">org.cobbzilla.util.io.Jar</text>
<text text-anchor="middle" x="57" y="-7.5" font-family="Helvetica,sans-Serif" font-size="10.00" fill="#000000">Trimmer.toPath</text>
</g>
<!-- Node2 -->
<g id="node2" class="node">
<title>Node2</title>
<g id="a_node2"><a xlink:href="../../d5/dc2/classorg_1_1cobbzilla_1_1util_1_1io_1_1JarTrimmer_ad74dbddd094b06ae8b30c8c7ff35be71.html#ad74dbddd094b06ae8b30c8c7ff35be71" target="_top" xlink:title="org.cobbzilla.util.io.Jar\lTrimmer.shouldInclude">
<polygon fill="none" stroke="#000000" points="150,-22.5 150,-52.5 266,-52.5 266,-22.5 150,-22.5"/>
<text text-anchor="start" x="158" y="-40.5" font-family="Helvetica,sans-Serif" font-size="10.00" fill="#000000">org.cobbzilla.util.io.Jar</text>
<text text-anchor="middle" x="208" y="-29.5" font-family="Helvetica,sans-Serif" font-size="10.00" fill="#000000">Trimmer.shouldInclude</text>
</a>
</g>
</g>
<!-- Node1&#45;&gt;Node2 -->
<g id="edge1" class="edge">
<title>Node1&#45;&gt;Node2</title>
<path fill="none" stroke="#191970" d="M124.0739,-25.2723C132.6622,-26.5236 141.3978,-27.7964 149.8287,-29.0247"/>
<polygon fill="#191970" stroke="#191970" points="124.4868,-21.7956 114.0866,-23.8173 123.4775,-28.7225 124.4868,-21.7956"/>
</g>
<!-- Node3 -->
<g id="node3" class="node">
<title>Node3</title>
<g id="a_node3"><a xlink:href="../../d5/dc2/classorg_1_1cobbzilla_1_1util_1_1io_1_1JarTrimmer_af3d4171c0e315e009d3436a293f5d9b1.html#af3d4171c0e315e009d3436a293f5d9b1" target="_top" xlink:title="org.cobbzilla.util.io.Jar\lTrimmer.trim">
<polygon fill="none" stroke="#000000" points="302,-.5 302,-30.5 416,-30.5 416,-.5 302,-.5"/>
<text text-anchor="start" x="310" y="-18.5" font-family="Helvetica,sans-Serif" font-size="10.00" fill="#000000">org.cobbzilla.util.io.Jar</text>
<text text-anchor="middle" x="359" y="-7.5" font-family="Helvetica,sans-Serif" font-size="10.00" fill="#000000">Trimmer.trim</text>
</a>
</g>
</g>
<!-- Node1&#45;&gt;Node3 -->
<g id="edge4" class="edge">
<title>Node1&#45;&gt;Node3</title>
<path fill="none" stroke="#191970" d="M124.1762,-13.8837C132.8645,-13.7251 141.6431,-13.5898 150,-13.5 201.5526,-12.9457 214.4474,-12.9457 266,-13.5 277.627,-13.625 290.0703,-13.8379 301.9509,-14.0794"/>
<polygon fill="#191970" stroke="#191970" points="123.9796,-10.3868 114.0491,-14.0794 124.1148,-17.3855 123.9796,-10.3868"/>
</g>
<!-- Node2&#45;&gt;Node3 -->
<g id="edge2" class="edge">
<title>Node2&#45;&gt;Node3</title>
<path fill="none" stroke="#191970" d="M276.2931,-27.55C284.8077,-26.3095 293.4458,-25.0509 301.7687,-23.8383"/>
<polygon fill="#191970" stroke="#191970" points="275.7714,-24.089 266.3805,-28.9942 276.7807,-31.0158 275.7714,-24.089"/>
</g>
<!-- Node4 -->
<g id="node4" class="node">
<title>Node4</title>
<g id="a_node4"><a xlink:href="../../d1/dcf/classorg_1_1cobbzilla_1_1util_1_1io_1_1main_1_1JarTrimmerMain_a0d79049130f7976bee1c1f8eb13c1538.html#a0d79049130f7976bee1c1f8eb13c1538" target="_top" xlink:title="org.cobbzilla.util.io.main.\lJarTrimmerMain.run">
<polygon fill="none" stroke="#000000" points="452,-.5 452,-30.5 577,-30.5 577,-.5 452,-.5"/>
<text text-anchor="start" x="460" y="-18.5" font-family="Helvetica,sans-Serif" font-size="10.00" fill="#000000">org.cobbzilla.util.io.main.</text>
<text text-anchor="middle" x="514.5" y="-7.5" font-family="Helvetica,sans-Serif" font-size="10.00" fill="#000000">JarTrimmerMain.run</text>
</a>
</g>
</g>
<!-- Node3&#45;&gt;Node4 -->
<g id="edge3" class="edge">
<title>Node3&#45;&gt;Node4</title>
<path fill="none" stroke="#191970" d="M426.0271,-15.5C434.6444,-15.5 443.4409,-15.5 451.9821,-15.5"/>
<polygon fill="#191970" stroke="#191970" points="426.0195,-12.0001 416.0195,-15.5 426.0195,-19.0001 426.0195,-12.0001"/>
</g>
</g>
</svg>
