<?xml version="1.0" encoding="UTF-8" standalone="no"?>
<!DOCTYPE svg PUBLIC "-//W3C//DTD SVG 1.1//EN"
 "http://www.w3.org/Graphics/SVG/1.1/DTD/svg11.dtd">
<!-- Generated by graphviz version 2.40.1 (20161225.0304)
 -->
<!-- Title: org.cobbzilla.util.io.JarTrimmer.shouldInclude Pages: 1 -->
<svg width="431pt" height="88pt"
 viewBox="0.00 0.00 431.00 88.00" xmlns="http://www.w3.org/2000/svg" xmlns:xlink="http://www.w3.org/1999/xlink">
<g id="graph0" class="graph" transform="scale(1 1) rotate(0) translate(4 84)">
<title>org.cobbzilla.util.io.JarTrimmer.shouldInclude</title>
<!-- Node0 -->
<g id="node1" class="node">
<title>Node0</title>
<polygon fill="#bfbfbf" stroke="#000000" points="0,-24.5 0,-54.5 116,-54.5 116,-24.5 0,-24.5"/>
<text text-anchor="start" x="8" y="-42.5" font-family="Helvetica,sans-Serif" font-size="10.00" fill="#000000">org.cobbzilla.util.io.Jar</text>
<text text-anchor="middle" x="58" y="-31.5" font-family="Helvetica,sans-Serif" font-size="10.00" fill="#000000">Trimmer.shouldInclude</text>
</g>
<!-- Node1 -->
<g id="node2" class="node">
<title>Node1</title>
<g id="a_node2"><a xlink:href="../../d3/ded/classorg_1_1cobbzilla_1_1util_1_1io_1_1JarTrimmerConfig_ad83040ab89dbdd96e9d49ed5b511bb13.html#ad83040ab89dbdd96e9d49ed5b511bb13" target="_top" xlink:title="org.cobbzilla.util.io.Jar\lTrimmerConfig.required">
<polygon fill="none" stroke="#000000" points="152,-49.5 152,-79.5 271,-79.5 271,-49.5 152,-49.5"/>
<text text-anchor="start" x="160" y="-67.5" font-family="Helvetica,sans-Serif" font-size="10.00" fill="#000000">org.cobbzilla.util.io.Jar</text>
<text text-anchor="middle" x="211.5" y="-56.5" font-family="Helvetica,sans-Serif" font-size="10.00" fill="#000000">TrimmerConfig.required</text>
</a>
</g>
</g>
<!-- Node0&#45;&gt;Node1 -->
<g id="edge1" class="edge">
<title>Node0&#45;&gt;Node1</title>
<path fill="none" stroke="#191970" d="M116.0318,-48.9514C124.4527,-50.3229 133.1939,-51.7466 141.8151,-53.1507"/>
<polygon fill="#191970" stroke="#191970" points="141.4216,-56.6326 151.8542,-54.7857 142.5469,-49.7236 141.4216,-56.6326"/>
</g>
<!-- Node3 -->
<g id="node4" class="node">
<title>Node3</title>
<g id="a_node4"><a xlink:href="../../d5/dc2/classorg_1_1cobbzilla_1_1util_1_1io_1_1JarTrimmer_a9e54d91afd187a5feb55af1f9a356213.html#a9e54d91afd187a5feb55af1f9a356213" target="_top" xlink:title="org.cobbzilla.util.io.Jar\lTrimmer.toPath">
<polygon fill="none" stroke="#000000" points="154.5,-.5 154.5,-30.5 268.5,-30.5 268.5,-.5 154.5,-.5"/>
<text text-anchor="start" x="162.5" y="-18.5" font-family="Helvetica,sans-Serif" font-size="10.00" fill="#000000">org.cobbzilla.util.io.Jar</text>
<text text-anchor="middle" x="211.5" y="-7.5" font-family="Helvetica,sans-Serif" font-size="10.00" fill="#000000">Trimmer.toPath</text>
</a>
</g>
</g>
<!-- Node0&#45;&gt;Node3 -->
<g id="edge3" class="edge">
<title>Node0&#45;&gt;Node3</title>
<path fill="none" stroke="#191970" d="M116.0318,-30.4266C125.2593,-28.9839 134.8712,-27.481 144.2886,-26.0086"/>
<polygon fill="#191970" stroke="#191970" points="145.0644,-29.4299 154.4036,-24.4271 143.983,-22.514 145.0644,-29.4299"/>
</g>
<!-- Node2 -->
<g id="node3" class="node">
<title>Node2</title>
<g id="a_node3"><a xlink:href="../../d5/dc2/classorg_1_1cobbzilla_1_1util_1_1io_1_1JarTrimmer_acb709a69c016bc6983384d530ae208dd.html#acb709a69c016bc6983384d530ae208dd" target="_top" xlink:title="org.cobbzilla.util.io.Jar\lTrimmer.toClassName">
<polygon fill="none" stroke="#000000" points="307,-49.5 307,-79.5 423,-79.5 423,-49.5 307,-49.5"/>
<text text-anchor="start" x="315" y="-67.5" font-family="Helvetica,sans-Serif" font-size="10.00" fill="#000000">org.cobbzilla.util.io.Jar</text>
<text text-anchor="middle" x="365" y="-56.5" font-family="Helvetica,sans-Serif" font-size="10.00" fill="#000000">Trimmer.toClassName</text>
</a>
</g>
</g>
<!-- Node1&#45;&gt;Node2 -->
<g id="edge2" class="edge">
<title>Node1&#45;&gt;Node2</title>
<path fill="none" stroke="#191970" d="M271.2866,-64.5C279.6054,-64.5 288.2039,-64.5 296.6645,-64.5"/>
<polygon fill="#191970" stroke="#191970" points="296.8879,-68.0001 306.8879,-64.5 296.8878,-61.0001 296.8879,-68.0001"/>
</g>
</g>
</svg>
