<?xml version="1.0" encoding="UTF-8" standalone="no"?>
<!DOCTYPE svg PUBLIC "-//W3C//DTD SVG 1.1//EN"
 "http://www.w3.org/Graphics/SVG/1.1/DTD/svg11.dtd">
<!-- Generated by graphviz version 2.40.1 (20161225.0304)
 -->
<!-- Title: org.cobbzilla.util.main.BaseMainOptions.err Pages: 1 -->
<svg width="297pt" height="88pt"
 viewBox="0.00 0.00 297.00 88.00" xmlns="http://www.w3.org/2000/svg" xmlns:xlink="http://www.w3.org/1999/xlink">
<g id="graph0" class="graph" transform="scale(1 1) rotate(0) translate(4 84)">
<title>org.cobbzilla.util.main.BaseMainOptions.err</title>
<!-- Node1 -->
<g id="node1" class="node">
<title>Node1</title>
<polygon fill="#bfbfbf" stroke="#000000" points="0,-24.5 0,-54.5 114,-54.5 114,-24.5 0,-24.5"/>
<text text-anchor="start" x="8" y="-42.5" font-family="Helvetica,sans-Serif" font-size="10.00" fill="#000000">org.cobbzilla.util.main.</text>
<text text-anchor="middle" x="57" y="-31.5" font-family="Helvetica,sans-Serif" font-size="10.00" fill="#000000">BaseMainOptions.err</text>
</g>
<!-- Node2 -->
<g id="node2" class="node">
<title>Node2</title>
<g id="a_node2"><a xlink:href="../../d7/d90/classorg_1_1cobbzilla_1_1util_1_1main_1_1BaseMainOptions_af2cbfd7f71992b21be514a02cf20d603.html#af2cbfd7f71992b21be514a02cf20d603" target="_top" xlink:title="org.cobbzilla.util.main.\lBaseMainOptions.required">
<polygon fill="none" stroke="#000000" points="154,-49.5 154,-79.5 285,-79.5 285,-49.5 154,-49.5"/>
<text text-anchor="start" x="162" y="-67.5" font-family="Helvetica,sans-Serif" font-size="10.00" fill="#000000">org.cobbzilla.util.main.</text>
<text text-anchor="middle" x="219.5" y="-56.5" font-family="Helvetica,sans-Serif" font-size="10.00" fill="#000000">BaseMainOptions.required</text>
</a>
</g>
</g>
<!-- Node1&#45;&gt;Node2 -->
<g id="edge1" class="edge">
<title>Node1&#45;&gt;Node2</title>
<path fill="none" stroke="#191970" d="M124.3348,-49.8592C134.0917,-51.3603 144.1246,-52.9038 153.8478,-54.3997"/>
<polygon fill="#191970" stroke="#191970" points="124.7074,-46.3754 114.2914,-48.3141 123.6429,-53.294 124.7074,-46.3754"/>
</g>
<!-- Node3 -->
<g id="node3" class="node">
<title>Node3</title>
<g id="a_node3"><a xlink:href="../../d7/deb/classorg_1_1cobbzilla_1_1util_1_1io_1_1main_1_1FilesystemWatcherMain_a4c5e96bac952e792820ecb038f4c234d.html#a4c5e96bac952e792820ecb038f4c234d" target="_top" xlink:title="org.cobbzilla.util.io.main.\lFilesystemWatcherMain.run">
<polygon fill="none" stroke="#000000" points="150,-.5 150,-30.5 289,-30.5 289,-.5 150,-.5"/>
<text text-anchor="start" x="158" y="-18.5" font-family="Helvetica,sans-Serif" font-size="10.00" fill="#000000">org.cobbzilla.util.io.main.</text>
<text text-anchor="middle" x="219.5" y="-7.5" font-family="Helvetica,sans-Serif" font-size="10.00" fill="#000000">FilesystemWatcherMain.run</text>
</a>
</g>
</g>
<!-- Node1&#45;&gt;Node3 -->
<g id="edge2" class="edge">
<title>Node1&#45;&gt;Node3</title>
<path fill="none" stroke="#191970" d="M124.4272,-29.5415C132.8402,-28.299 141.4569,-27.0264 149.9022,-25.7791"/>
<polygon fill="#191970" stroke="#191970" points="123.6727,-26.1149 114.2914,-31.0385 124.6955,-33.0398 123.6727,-26.1149"/>
</g>
</g>
</svg>
