<?xml version="1.0" encoding="UTF-8" standalone="no"?>
<!DOCTYPE svg PUBLIC "-//W3C//DTD SVG 1.1//EN"
 "http://www.w3.org/Graphics/SVG/1.1/DTD/svg11.dtd">
<!-- Generated by graphviz version 2.40.1 (20161225.0304)
 -->
<!-- Title: org.cobbzilla.util.main.BaseMainOptions.inStream Pages: 1 -->
<svg width="544pt" height="88pt"
 viewBox="0.00 0.00 544.00 88.00" xmlns="http://www.w3.org/2000/svg" xmlns:xlink="http://www.w3.org/1999/xlink">
<g id="graph0" class="graph" transform="scale(1 1) rotate(0) translate(4 84)">
<title>org.cobbzilla.util.main.BaseMainOptions.inStream</title>
<!-- Node1 -->
<g id="node1" class="node">
<title>Node1</title>
<polygon fill="#bfbfbf" stroke="#000000" points="0,-24.5 0,-54.5 136,-54.5 136,-24.5 0,-24.5"/>
<text text-anchor="start" x="8" y="-42.5" font-family="Helvetica,sans-Serif" font-size="10.00" fill="#000000">org.cobbzilla.util.main.</text>
<text text-anchor="middle" x="68" y="-31.5" font-family="Helvetica,sans-Serif" font-size="10.00" fill="#000000">BaseMainOptions.inStream</text>
</g>
<!-- Node2 -->
<g id="node2" class="node">
<title>Node2</title>
<g id="a_node2"><a xlink:href="../../d2/d5d/classorg_1_1cobbzilla_1_1util_1_1json_1_1main_1_1JsonEditorOptions_a5fc8d58c76c9786550d7b2e06b7fb56d.html#a5fc8d58c76c9786550d7b2e06b7fb56d" target="_top" xlink:title="org.cobbzilla.util.json.main.\lJsonEditorOptions.getInputJson">
<polygon fill="none" stroke="#000000" points="176,-49.5 176,-79.5 332,-79.5 332,-49.5 176,-49.5"/>
<text text-anchor="start" x="184" y="-67.5" font-family="Helvetica,sans-Serif" font-size="10.00" fill="#000000">org.cobbzilla.util.json.main.</text>
<text text-anchor="middle" x="254" y="-56.5" font-family="Helvetica,sans-Serif" font-size="10.00" fill="#000000">JsonEditorOptions.getInputJson</text>
</a>
</g>
</g>
<!-- Node1&#45;&gt;Node2 -->
<g id="edge1" class="edge">
<title>Node1&#45;&gt;Node2</title>
<path fill="none" stroke="#191970" d="M146.2644,-50.0194C156.0137,-51.3298 165.9847,-52.67 175.7341,-53.9804"/>
<polygon fill="#191970" stroke="#191970" points="146.5805,-46.5305 136.2034,-48.6671 145.648,-53.4681 146.5805,-46.5305"/>
</g>
<!-- Node4 -->
<g id="node4" class="node">
<title>Node4</title>
<g id="a_node4"><a xlink:href="../../d2/dc3/classorg_1_1cobbzilla_1_1util_1_1handlebars_1_1main_1_1PdfMergeOptions_a5992ba9117660f0a2f1c43570f94e981.html#a5992ba9117660f0a2f1c43570f94e981" target="_top" xlink:title="org.cobbzilla.util.handlebars.main.\lPdfMergeOptions.getInputStream">
<polygon fill="none" stroke="#000000" points="172,-.5 172,-30.5 336,-30.5 336,-.5 172,-.5"/>
<text text-anchor="start" x="180" y="-18.5" font-family="Helvetica,sans-Serif" font-size="10.00" fill="#000000">org.cobbzilla.util.handlebars.main.</text>
<text text-anchor="middle" x="254" y="-7.5" font-family="Helvetica,sans-Serif" font-size="10.00" fill="#000000">PdfMergeOptions.getInputStream</text>
</a>
</g>
</g>
<!-- Node1&#45;&gt;Node4 -->
<g id="edge3" class="edge">
<title>Node1&#45;&gt;Node4</title>
<path fill="none" stroke="#191970" d="M146.3935,-29.3847C154.8303,-28.2961 163.4315,-27.1863 171.9101,-26.0922"/>
<polygon fill="#191970" stroke="#191970" points="145.6732,-25.9485 136.2034,-30.6996 146.5691,-32.891 145.6732,-25.9485"/>
</g>
<!-- Node3 -->
<g id="node3" class="node">
<title>Node3</title>
<g id="a_node3"><a xlink:href="../../d3/d75/classorg_1_1cobbzilla_1_1util_1_1json_1_1main_1_1JsonEditor_ad06ae51ad03acf41df4ddca3500bc086.html#ad06ae51ad03acf41df4ddca3500bc086" target="_top" xlink:title="org.cobbzilla.util.json.main.\lJsonEditor.run">
<polygon fill="none" stroke="#000000" points="386.5,-49.5 386.5,-79.5 521.5,-79.5 521.5,-49.5 386.5,-49.5"/>
<text text-anchor="start" x="394.5" y="-67.5" font-family="Helvetica,sans-Serif" font-size="10.00" fill="#000000">org.cobbzilla.util.json.main.</text>
<text text-anchor="middle" x="454" y="-56.5" font-family="Helvetica,sans-Serif" font-size="10.00" fill="#000000">JsonEditor.run</text>
</a>
</g>
</g>
<!-- Node2&#45;&gt;Node3 -->
<g id="edge2" class="edge">
<title>Node2&#45;&gt;Node3</title>
<path fill="none" stroke="#191970" d="M342.3166,-64.5C357.0541,-64.5 372.1349,-64.5 386.2548,-64.5"/>
<polygon fill="#191970" stroke="#191970" points="342.1845,-61.0001 332.1845,-64.5 342.1845,-68.0001 342.1845,-61.0001"/>
</g>
<!-- Node5 -->
<g id="node5" class="node">
<title>Node5</title>
<g id="a_node5"><a xlink:href="../../d9/d75/classorg_1_1cobbzilla_1_1util_1_1handlebars_1_1main_1_1PdfMergeMain_a125fc1d1e7f706476767dcc2fdb0b34d.html#a125fc1d1e7f706476767dcc2fdb0b34d" target="_top" xlink:title="org.cobbzilla.util.handlebars.main.\lPdfMergeMain.run">
<polygon fill="none" stroke="#000000" points="372,-.5 372,-30.5 536,-30.5 536,-.5 372,-.5"/>
<text text-anchor="start" x="380" y="-18.5" font-family="Helvetica,sans-Serif" font-size="10.00" fill="#000000">org.cobbzilla.util.handlebars.main.</text>
<text text-anchor="middle" x="454" y="-7.5" font-family="Helvetica,sans-Serif" font-size="10.00" fill="#000000">PdfMergeMain.run</text>
</a>
</g>
</g>
<!-- Node4&#45;&gt;Node5 -->
<g id="edge4" class="edge">
<title>Node4&#45;&gt;Node5</title>
<path fill="none" stroke="#191970" d="M346.4658,-15.5C354.9136,-15.5 363.4335,-15.5 371.7826,-15.5"/>
<polygon fill="#191970" stroke="#191970" points="346.2135,-12.0001 336.2135,-15.5 346.2134,-19.0001 346.2135,-12.0001"/>
</g>
</g>
</svg>
