<?xml version="1.0" encoding="UTF-8" standalone="no"?>
<!DOCTYPE svg PUBLIC "-//W3C//DTD SVG 1.1//EN"
 "http://www.w3.org/Graphics/SVG/1.1/DTD/svg11.dtd">
<!-- Generated by graphviz version 2.40.1 (20161225.0304)
 -->
<!-- Title: org.cobbzilla.util.collection.HasPriority Pages: 1 -->
<svg width="217pt" height="331pt"
 viewBox="0.00 0.00 217.00 331.00" xmlns="http://www.w3.org/2000/svg" xmlns:xlink="http://www.w3.org/1999/xlink">
<g id="graph0" class="graph" transform="scale(1 1) rotate(0) translate(4 327)">
<title>org.cobbzilla.util.collection.HasPriority</title>
<!-- Node1 -->
<g id="node1" class="node">
<title>Node1</title>
<polygon fill="#bfbfbf" stroke="#000000" points="30,-.5 30,-90.5 164,-90.5 164,-.5 30,-.5"/>
<text text-anchor="start" x="38" y="-78.5" font-family="Helvetica,sans-Serif" font-size="10.00" fill="#000000">org.cobbzilla.util.collection.</text>
<text text-anchor="middle" x="97" y="-67.5" font-family="Helvetica,sans-Serif" font-size="10.00" fill="#000000">HasPriority</text>
<polyline fill="none" stroke="#000000" points="30,-60.5 164,-60.5 "/>
<text text-anchor="middle" x="97" y="-48.5" font-family="Helvetica,sans-Serif" font-size="10.00" fill="#000000"> </text>
<polyline fill="none" stroke="#000000" points="30,-41.5 164,-41.5 "/>
<text text-anchor="start" x="38" y="-29.5" font-family="Helvetica,sans-Serif" font-size="10.00" fill="#000000">+ getPriority()</text>
<text text-anchor="start" x="38" y="-18.5" font-family="Helvetica,sans-Serif" font-size="10.00" fill="#000000">+ hasPriority()</text>
<text text-anchor="start" x="38" y="-7.5" font-family="Helvetica,sans-Serif" font-size="10.00" fill="#000000">+ compare()</text>
</g>
<!-- Node2 -->
<g id="node2" class="node">
<title>Node2</title>
<polygon fill="none" stroke="#bfbfbf" points="0,-138.5 0,-206.5 194,-206.5 194,-138.5 0,-138.5"/>
<text text-anchor="start" x="8" y="-194.5" font-family="Helvetica,sans-Serif" font-size="10.00" fill="#000000">Comparator&lt; org.cobbzilla.util.collection.</text>
<text text-anchor="middle" x="97" y="-183.5" font-family="Helvetica,sans-Serif" font-size="10.00" fill="#000000">HasPriority &gt;</text>
<polyline fill="none" stroke="#bfbfbf" points="0,-176.5 194,-176.5 "/>
<text text-anchor="middle" x="97" y="-164.5" font-family="Helvetica,sans-Serif" font-size="10.00" fill="#000000"> </text>
<polyline fill="none" stroke="#bfbfbf" points="0,-157.5 194,-157.5 "/>
<text text-anchor="middle" x="97" y="-145.5" font-family="Helvetica,sans-Serif" font-size="10.00" fill="#000000"> </text>
</g>
<!-- Node2&#45;&gt;Node1 -->
<g id="edge1" class="edge">
<title>Node2&#45;&gt;Node1</title>
<path fill="none" stroke="#404040" d="M97,-138.4663C97,-127.4452 97,-114.9023 97,-102.6754"/>
<polygon fill="none" stroke="#404040" points="97.0001,-102.6219 93,-96.6219 97,-90.6219 101,-96.6218 97.0001,-102.6219"/>
<text text-anchor="middle" x="142.5" y="-112" font-family="Helvetica,sans-Serif" font-size="10.00" fill="#000000"> +SORT_PRIORITY</text>
</g>
<!-- Node3 -->
<g id="node3" class="node">
<title>Node3</title>
<polygon fill="none" stroke="#bfbfbf" points="63,-265.5 63,-322.5 131,-322.5 131,-265.5 63,-265.5"/>
<text text-anchor="middle" x="97" y="-310.5" font-family="Helvetica,sans-Serif" font-size="10.00" fill="#000000">Comparator</text>
<polyline fill="none" stroke="#bfbfbf" points="63,-303.5 131,-303.5 "/>
<text text-anchor="middle" x="97" y="-291.5" font-family="Helvetica,sans-Serif" font-size="10.00" fill="#000000"> </text>
<polyline fill="none" stroke="#bfbfbf" points="63,-284.5 131,-284.5 "/>
<text text-anchor="middle" x="97" y="-272.5" font-family="Helvetica,sans-Serif" font-size="10.00" fill="#000000"> </text>
</g>
<!-- Node3&#45;&gt;Node2 -->
<g id="edge2" class="edge">
<title>Node3&#45;&gt;Node2</title>
<path fill="none" stroke="#ffa500" d="M97,-254.8733C97,-239.3628 97,-221.6896 97,-206.7007"/>
<polygon fill="#ffa500" stroke="#ffa500" points="93.5001,-255.2062 97,-265.2062 100.5001,-255.2062 93.5001,-255.2062"/>
<text text-anchor="start" x="97" y="-239" font-family="Helvetica,sans-Serif" font-size="10.00" fill="#000000"> &lt; org::cobbzilla::util</text>
<text text-anchor="middle" x="153" y="-228" font-family="Helvetica,sans-Serif" font-size="10.00" fill="#000000">::collection::HasPriority &gt;</text>
</g>
</g>
</svg>
