<?xml version="1.0" encoding="UTF-8" standalone="no"?>
<!DOCTYPE svg PUBLIC "-//W3C//DTD SVG 1.1//EN"
 "http://www.w3.org/Graphics/SVG/1.1/DTD/svg11.dtd">
<!-- Generated by graphviz version 2.40.1 (20161225.0304)
 -->
<!-- Title: org.cobbzilla.util.xml.XmlUtil.MatchNodeSubElements Pages: 1 -->
<svg width="151pt" height="447pt"
 viewBox="0.00 0.00 151.00 447.00" xmlns="http://www.w3.org/2000/svg" xmlns:xlink="http://www.w3.org/1999/xlink">
<g id="graph0" class="graph" transform="scale(1 1) rotate(0) translate(4 443)">
<title>org.cobbzilla.util.xml.XmlUtil.MatchNodeSubElements</title>
<!-- Node0 -->
<g id="node1" class="node">
<title>Node0</title>
<polygon fill="#bfbfbf" stroke="#000000" points="0,-.5 0,-79.5 143,-79.5 143,-.5 0,-.5"/>
<text text-anchor="start" x="8" y="-67.5" font-family="Helvetica,sans-Serif" font-size="10.00" fill="#000000">org.cobbzilla.util.xml.Xml</text>
<text text-anchor="middle" x="71.5" y="-56.5" font-family="Helvetica,sans-Serif" font-size="10.00" fill="#000000">Util.MatchNodeSubElements</text>
<polyline fill="none" stroke="#000000" points="0,-49.5 143,-49.5 "/>
<text text-anchor="start" x="8" y="-37.5" font-family="Helvetica,sans-Serif" font-size="10.00" fill="#000000">&#45; conditions</text>
<polyline fill="none" stroke="#000000" points="0,-30.5 143,-30.5 "/>
<text text-anchor="start" x="8" y="-18.5" font-family="Helvetica,sans-Serif" font-size="10.00" fill="#000000">+ MatchNodeSubElements()</text>
<text text-anchor="start" x="8" y="-7.5" font-family="Helvetica,sans-Serif" font-size="10.00" fill="#000000"># check()</text>
</g>
<!-- Node1 -->
<g id="node2" class="node">
<title>Node1</title>
<g id="a_node2"><a xlink:href="../../df/d83/classorg_1_1cobbzilla_1_1util_1_1xml_1_1XmlUtil_1_1MatchNodeName.html" target="_top" xlink:title="{org.cobbzilla.util.xml.Xml\lUtil.MatchNodeName\n||+ MatchNodeName()\l# check()\l}">
<polygon fill="none" stroke="#000000" points="8.5,-116.5 8.5,-195.5 134.5,-195.5 134.5,-116.5 8.5,-116.5"/>
<text text-anchor="start" x="16.5" y="-183.5" font-family="Helvetica,sans-Serif" font-size="10.00" fill="#000000">org.cobbzilla.util.xml.Xml</text>
<text text-anchor="middle" x="71.5" y="-172.5" font-family="Helvetica,sans-Serif" font-size="10.00" fill="#000000">Util.MatchNodeName</text>
<polyline fill="none" stroke="#000000" points="8.5,-165.5 134.5,-165.5 "/>
<text text-anchor="middle" x="71.5" y="-153.5" font-family="Helvetica,sans-Serif" font-size="10.00" fill="#000000"> </text>
<polyline fill="none" stroke="#000000" points="8.5,-146.5 134.5,-146.5 "/>
<text text-anchor="start" x="16.5" y="-134.5" font-family="Helvetica,sans-Serif" font-size="10.00" fill="#000000">+ MatchNodeName()</text>
<text text-anchor="start" x="16.5" y="-123.5" font-family="Helvetica,sans-Serif" font-size="10.00" fill="#000000"># check()</text>
</a>
</g>
</g>
<!-- Node1&#45;&gt;Node0 -->
<g id="edge1" class="edge">
<title>Node1&#45;&gt;Node0</title>
<path fill="none" stroke="#191970" d="M71.5,-106.2163C71.5,-97.394 71.5,-88.3127 71.5,-79.8116"/>
<polygon fill="none" stroke="#191970" points="68.0001,-106.4038 71.5,-116.4038 75.0001,-106.4039 68.0001,-106.4038"/>
</g>
<!-- Node2 -->
<g id="node3" class="node">
<title>Node2</title>
<g id="a_node3"><a xlink:href="../../de/dc6/classorg_1_1cobbzilla_1_1util_1_1xml_1_1XmlUtil_1_1MatchNodeXMLFunction.html" target="_top" xlink:title="{org.cobbzilla.util.xml.Xml\lUtil.MatchNodeXMLFunction\n|# value\l# found\l|+ MatchNodeXMLFunction()\l+ apply()\l# check()\l}">
<polygon fill="none" stroke="#000000" points="0,-232.5 0,-333.5 143,-333.5 143,-232.5 0,-232.5"/>
<text text-anchor="start" x="8" y="-321.5" font-family="Helvetica,sans-Serif" font-size="10.00" fill="#000000">org.cobbzilla.util.xml.Xml</text>
<text text-anchor="middle" x="71.5" y="-310.5" font-family="Helvetica,sans-Serif" font-size="10.00" fill="#000000">Util.MatchNodeXMLFunction</text>
<polyline fill="none" stroke="#000000" points="0,-303.5 143,-303.5 "/>
<text text-anchor="start" x="8" y="-291.5" font-family="Helvetica,sans-Serif" font-size="10.00" fill="#000000"># value</text>
<text text-anchor="start" x="8" y="-280.5" font-family="Helvetica,sans-Serif" font-size="10.00" fill="#000000"># found</text>
<polyline fill="none" stroke="#000000" points="0,-273.5 143,-273.5 "/>
<text text-anchor="start" x="8" y="-261.5" font-family="Helvetica,sans-Serif" font-size="10.00" fill="#000000">+ MatchNodeXMLFunction()</text>
<text text-anchor="start" x="8" y="-250.5" font-family="Helvetica,sans-Serif" font-size="10.00" fill="#000000">+ apply()</text>
<text text-anchor="start" x="8" y="-239.5" font-family="Helvetica,sans-Serif" font-size="10.00" fill="#000000"># check()</text>
</a>
</g>
</g>
<!-- Node2&#45;&gt;Node1 -->
<g id="edge2" class="edge">
<title>Node2&#45;&gt;Node1</title>
<path fill="none" stroke="#191970" d="M71.5,-222.3446C71.5,-213.3388 71.5,-204.2565 71.5,-195.8243"/>
<polygon fill="none" stroke="#191970" points="68.0001,-222.4413 71.5,-232.4413 75.0001,-222.4414 68.0001,-222.4413"/>
</g>
<!-- Node3 -->
<g id="node4" class="node">
<title>Node3</title>
<g id="a_node4"><a xlink:href="../../d8/dba/interfaceorg_1_1cobbzilla_1_1util_1_1xml_1_1XmlElementFunction.html" target="_top" xlink:title="{org.cobbzilla.util.xml.Xml\lElementFunction\n||+ apply()\l}">
<polygon fill="none" stroke="#000000" points="8.5,-370.5 8.5,-438.5 134.5,-438.5 134.5,-370.5 8.5,-370.5"/>
<text text-anchor="start" x="16.5" y="-426.5" font-family="Helvetica,sans-Serif" font-size="10.00" fill="#000000">org.cobbzilla.util.xml.Xml</text>
<text text-anchor="middle" x="71.5" y="-415.5" font-family="Helvetica,sans-Serif" font-size="10.00" fill="#000000">ElementFunction</text>
<polyline fill="none" stroke="#000000" points="8.5,-408.5 134.5,-408.5 "/>
<text text-anchor="middle" x="71.5" y="-396.5" font-family="Helvetica,sans-Serif" font-size="10.00" fill="#000000"> </text>
<polyline fill="none" stroke="#000000" points="8.5,-389.5 134.5,-389.5 "/>
<text text-anchor="start" x="16.5" y="-377.5" font-family="Helvetica,sans-Serif" font-size="10.00" fill="#000000">+ apply()</text>
</a>
</g>
</g>
<!-- Node3&#45;&gt;Node2 -->
<g id="edge3" class="edge">
<title>Node3&#45;&gt;Node2</title>
<path fill="none" stroke="#191970" d="M71.5,-360.1349C71.5,-351.5408 71.5,-342.474 71.5,-333.6952"/>
<polygon fill="none" stroke="#191970" points="68.0001,-360.3321 71.5,-370.3321 75.0001,-360.3322 68.0001,-360.3321"/>
</g>
</g>
</svg>
