<?xml version="1.0" encoding="UTF-8" standalone="no"?>
<!DOCTYPE svg PUBLIC "-//W3C//DTD SVG 1.1//EN"
 "http://www.w3.org/Graphics/SVG/1.1/DTD/svg11.dtd">
<!-- Generated by graphviz version 2.40.1 (20161225.0304)
 -->
<!-- Title: org.cobbzilla.util.xml.TidyHandlebarsSpanMerger Pages: 1 -->
<svg width="200pt" height="271pt"
 viewBox="0.00 0.00 200.00 271.00" xmlns="http://www.w3.org/2000/svg" xmlns:xlink="http://www.w3.org/1999/xlink">
<g id="graph0" class="graph" transform="scale(1 1) rotate(0) translate(4 267)">
<title>org.cobbzilla.util.xml.TidyHandlebarsSpanMerger</title>
<!-- Node2 -->
<g id="node1" class="node">
<title>Node2</title>
<polygon fill="#bfbfbf" stroke="#000000" points="0,-.5 0,-156.5 128,-156.5 128,-.5 0,-.5"/>
<text text-anchor="start" x="8" y="-144.5" font-family="Helvetica,sans-Serif" font-size="10.00" fill="#000000">org.cobbzilla.util.xml.Tidy</text>
<text text-anchor="middle" x="64" y="-133.5" font-family="Helvetica,sans-Serif" font-size="10.00" fill="#000000">HandlebarsSpanMerger</text>
<polyline fill="none" stroke="#000000" points="0,-126.5 128,-126.5 "/>
<text text-anchor="middle" x="64" y="-114.5" font-family="Helvetica,sans-Serif" font-size="10.00" fill="#000000"> </text>
<polyline fill="none" stroke="#000000" points="0,-107.5 128,-107.5 "/>
<text text-anchor="start" x="8" y="-95.5" font-family="Helvetica,sans-Serif" font-size="10.00" fill="#000000">+ process()</text>
<text text-anchor="start" x="8" y="-84.5" font-family="Helvetica,sans-Serif" font-size="10.00" fill="#000000">+ scrubHandlebars()</text>
<text text-anchor="start" x="8" y="-73.5" font-family="Helvetica,sans-Serif" font-size="10.00" fill="#000000">+ scrubHtmlEntities()</text>
<text text-anchor="start" x="8" y="-62.5" font-family="Helvetica,sans-Serif" font-size="10.00" fill="#000000"># mergeSpans()</text>
<text text-anchor="start" x="8" y="-51.5" font-family="Helvetica,sans-Serif" font-size="10.00" fill="#000000">&#45; setSpan()</text>
<text text-anchor="start" x="8" y="-40.5" font-family="Helvetica,sans-Serif" font-size="10.00" fill="#000000">&#45; append()</text>
<text text-anchor="start" x="8" y="-29.5" font-family="Helvetica,sans-Serif" font-size="10.00" fill="#000000">&#45; collectText()</text>
<text text-anchor="start" x="8" y="-18.5" font-family="Helvetica,sans-Serif" font-size="10.00" fill="#000000">&#45; sameAttrs()</text>
<text text-anchor="start" x="8" y="-7.5" font-family="Helvetica,sans-Serif" font-size="10.00" fill="#000000">&#45; isGoBack()</text>
</g>
<!-- Node2&#45;&gt;Node2 -->
<g id="edge2" class="edge">
<title>Node2&#45;&gt;Node2</title>
<path fill="none" stroke="#404040" d="M128.2877,-95.1542C138.7855,-92.7701 146,-87.2188 146,-78.5 146,-73.4595 143.5887,-69.4776 139.5257,-66.5543"/>
<polygon fill="none" stroke="#404040" points="139.3556,-66.483 132.2759,-67.8537 128.2877,-61.8458 135.3674,-60.4752 139.3556,-66.483"/>
<text text-anchor="middle" x="169" y="-76" font-family="Helvetica,sans-Serif" font-size="10.00" fill="#000000"> +instance</text>
</g>
<!-- Node3 -->
<g id="node2" class="node">
<title>Node3</title>
<g id="a_node2"><a xlink:href="../../df/d01/interfaceorg_1_1cobbzilla_1_1util_1_1xml_1_1TidyHelper.html" target="_top" xlink:title="{org.cobbzilla.util.xml.Tidy\lHelper\n||+ process()\l}">
<polygon fill="none" stroke="#000000" points="0,-194.5 0,-262.5 128,-262.5 128,-194.5 0,-194.5"/>
<text text-anchor="start" x="8" y="-250.5" font-family="Helvetica,sans-Serif" font-size="10.00" fill="#000000">org.cobbzilla.util.xml.Tidy</text>
<text text-anchor="middle" x="64" y="-239.5" font-family="Helvetica,sans-Serif" font-size="10.00" fill="#000000">Helper</text>
<polyline fill="none" stroke="#000000" points="0,-232.5 128,-232.5 "/>
<text text-anchor="middle" x="64" y="-220.5" font-family="Helvetica,sans-Serif" font-size="10.00" fill="#000000"> </text>
<polyline fill="none" stroke="#000000" points="0,-213.5 128,-213.5 "/>
<text text-anchor="start" x="8" y="-201.5" font-family="Helvetica,sans-Serif" font-size="10.00" fill="#000000">+ process()</text>
</a>
</g>
</g>
<!-- Node3&#45;&gt;Node2 -->
<g id="edge1" class="edge">
<title>Node3&#45;&gt;Node2</title>
<path fill="none" stroke="#191970" d="M64,-184.2328C64,-175.5427 64,-166.1869 64,-156.7624"/>
<polygon fill="none" stroke="#191970" points="60.5001,-184.4626 64,-194.4627 67.5001,-184.4627 60.5001,-184.4626"/>
</g>
</g>
</svg>
