<?xml version="1.0" encoding="UTF-8" standalone="no"?>
<!DOCTYPE svg PUBLIC "-//W3C//DTD SVG 1.1//EN"
 "http://www.w3.org/Graphics/SVG/1.1/DTD/svg11.dtd">
<!-- Generated by graphviz version 2.40.1 (20161225.0304)
 -->
<!-- Title: org.cobbzilla.util.mustache.LocaleAwareMustacheFactoryTest.setUp Pages: 1 -->
<svg width="439pt" height="88pt"
 viewBox="0.00 0.00 439.00 88.00" xmlns="http://www.w3.org/2000/svg" xmlns:xlink="http://www.w3.org/1999/xlink">
<g id="graph0" class="graph" transform="scale(1 1) rotate(0) translate(4 84)">
<title>org.cobbzilla.util.mustache.LocaleAwareMustacheFactoryTest.setUp</title>
<!-- Node0 -->
<g id="node1" class="node">
<title>Node0</title>
<polygon fill="#bfbfbf" stroke="#000000" points="0,-24.5 0,-54.5 197,-54.5 197,-24.5 0,-24.5"/>
<text text-anchor="start" x="8" y="-42.5" font-family="Helvetica,sans-Serif" font-size="10.00" fill="#000000">org.cobbzilla.util.mustache.</text>
<text text-anchor="middle" x="98.5" y="-31.5" font-family="Helvetica,sans-Serif" font-size="10.00" fill="#000000">LocaleAwareMustacheFactoryTest.setUp</text>
</g>
<!-- Node1 -->
<g id="node2" class="node">
<title>Node1</title>
<g id="a_node2"><a xlink:href="../../df/dac/classorg_1_1cobbzilla_1_1util_1_1io_1_1FileUtil_ae3342a8aa5953865b770b51f7f548560.html#ae3342a8aa5953865b770b51f7f548560" target="_top" xlink:title="org.cobbzilla.util.io.File\lUtil.createTempDir">
<polygon fill="none" stroke="#000000" points="274,-49.5 274,-79.5 390,-79.5 390,-49.5 274,-49.5"/>
<text text-anchor="start" x="282" y="-67.5" font-family="Helvetica,sans-Serif" font-size="10.00" fill="#000000">org.cobbzilla.util.io.File</text>
<text text-anchor="middle" x="332" y="-56.5" font-family="Helvetica,sans-Serif" font-size="10.00" fill="#000000">Util.createTempDir</text>
</a>
</g>
</g>
<!-- Node0&#45;&gt;Node1 -->
<g id="edge1" class="edge">
<title>Node0&#45;&gt;Node1</title>
<path fill="none" stroke="#191970" d="M197.1866,-50.066C219.6491,-52.471 243.0259,-54.9739 263.8816,-57.2068"/>
<polygon fill="#191970" stroke="#191970" points="263.5865,-60.6951 273.9023,-58.2797 264.3318,-53.7349 263.5865,-60.6951"/>
</g>
<!-- Node2 -->
<g id="node3" class="node">
<title>Node2</title>
<g id="a_node3"><a xlink:href="../../dd/d83/classorg_1_1cobbzilla_1_1util_1_1mustache_1_1LocaleAwareMustacheFactory_aab29c30fa4b75c7647f8361d09acd801.html#aab29c30fa4b75c7647f8361d09acd801" target="_top" xlink:title="org.cobbzilla.util.mustache.\lLocaleAwareMustacheFactory.getFactory">
<polygon fill="none" stroke="#000000" points="233,-.5 233,-30.5 431,-30.5 431,-.5 233,-.5"/>
<text text-anchor="start" x="241" y="-18.5" font-family="Helvetica,sans-Serif" font-size="10.00" fill="#000000">org.cobbzilla.util.mustache.</text>
<text text-anchor="middle" x="332" y="-7.5" font-family="Helvetica,sans-Serif" font-size="10.00" fill="#000000">LocaleAwareMustacheFactory.getFactory</text>
</a>
</g>
</g>
<!-- Node0&#45;&gt;Node2 -->
<g id="edge2" class="edge">
<title>Node0&#45;&gt;Node2</title>
<path fill="none" stroke="#191970" d="M197.1866,-29.3566C205.6854,-28.4831 214.3151,-27.5961 222.8896,-26.7148"/>
<polygon fill="#191970" stroke="#191970" points="223.3291,-30.1881 232.9188,-25.6839 222.6133,-23.2248 223.3291,-30.1881"/>
</g>
</g>
</svg>
