<?xml version="1.0" encoding="UTF-8" standalone="no"?>
<!DOCTYPE svg PUBLIC "-//W3C//DTD SVG 1.1//EN"
 "http://www.w3.org/Graphics/SVG/1.1/DTD/svg11.dtd">
<!-- Generated by graphviz version 2.40.1 (20161225.0304)
 -->
<!-- Title: org.cobbzilla.util.mustache.LocaleAwareMustacheFactoryTest.populateTempDir Pages: 1 -->
<svg width="440pt" height="230pt"
 viewBox="0.00 0.00 440.00 230.00" xmlns="http://www.w3.org/2000/svg" xmlns:xlink="http://www.w3.org/1999/xlink">
<g id="graph0" class="graph" transform="scale(1 1) rotate(0) translate(4 226)">
<title>org.cobbzilla.util.mustache.LocaleAwareMustacheFactoryTest.populateTempDir</title>
<!-- Node1 -->
<g id="node1" class="node">
<title>Node1</title>
<polygon fill="#bfbfbf" stroke="#000000" points="0,-90.5 0,-131.5 208,-131.5 208,-90.5 0,-90.5"/>
<text text-anchor="start" x="8" y="-119.5" font-family="Helvetica,sans-Serif" font-size="10.00" fill="#000000">org.cobbzilla.util.mustache.</text>
<text text-anchor="start" x="8" y="-108.5" font-family="Helvetica,sans-Serif" font-size="10.00" fill="#000000">LocaleAwareMustacheFactoryTest.populate</text>
<text text-anchor="middle" x="104" y="-97.5" font-family="Helvetica,sans-Serif" font-size="10.00" fill="#000000">TempDir</text>
</g>
<!-- Node2 -->
<g id="node2" class="node">
<title>Node2</title>
<g id="a_node2"><a xlink:href="../../df/d92/classorg_1_1cobbzilla_1_1util_1_1mustache_1_1LocaleAwareMustacheFactoryTest_a3494969c5bf4eff92879b04af11991c1.html#a3494969c5bf4eff92879b04af11991c1" target="_top" xlink:title="org.cobbzilla.util.mustache.\lLocaleAwareMustacheFactoryTest.test\lFindDefaultResource">
<polygon fill="none" stroke="#000000" points="244,-180.5 244,-221.5 432,-221.5 432,-180.5 244,-180.5"/>
<text text-anchor="start" x="252" y="-209.5" font-family="Helvetica,sans-Serif" font-size="10.00" fill="#000000">org.cobbzilla.util.mustache.</text>
<text text-anchor="start" x="252" y="-198.5" font-family="Helvetica,sans-Serif" font-size="10.00" fill="#000000">LocaleAwareMustacheFactoryTest.test</text>
<text text-anchor="middle" x="338" y="-187.5" font-family="Helvetica,sans-Serif" font-size="10.00" fill="#000000">FindDefaultResource</text>
</a>
</g>
</g>
<!-- Node1&#45;&gt;Node2 -->
<g id="edge1" class="edge">
<title>Node1&#45;&gt;Node2</title>
<path fill="none" stroke="#191970" d="M158.1735,-135.6551C183.9374,-147.009 215.3127,-160.303 244,-171 252.6675,-174.2319 261.8608,-177.4352 270.9726,-180.4782"/>
<polygon fill="#191970" stroke="#191970" points="159.5114,-132.4198 148.9508,-131.5683 156.6754,-138.8196 159.5114,-132.4198"/>
</g>
<!-- Node3 -->
<g id="node3" class="node">
<title>Node3</title>
<g id="a_node3"><a xlink:href="../../df/d92/classorg_1_1cobbzilla_1_1util_1_1mustache_1_1LocaleAwareMustacheFactoryTest_adddf96b960ab77e9e99257c8fe92c907.html#adddf96b960ab77e9e99257c8fe92c907" target="_top" xlink:title="org.cobbzilla.util.mustache.\lLocaleAwareMustacheFactoryTest.test\lFindLanguageResource">
<polygon fill="none" stroke="#000000" points="244,-120.5 244,-161.5 432,-161.5 432,-120.5 244,-120.5"/>
<text text-anchor="start" x="252" y="-149.5" font-family="Helvetica,sans-Serif" font-size="10.00" fill="#000000">org.cobbzilla.util.mustache.</text>
<text text-anchor="start" x="252" y="-138.5" font-family="Helvetica,sans-Serif" font-size="10.00" fill="#000000">LocaleAwareMustacheFactoryTest.test</text>
<text text-anchor="middle" x="338" y="-127.5" font-family="Helvetica,sans-Serif" font-size="10.00" fill="#000000">FindLanguageResource</text>
</a>
</g>
</g>
<!-- Node1&#45;&gt;Node3 -->
<g id="edge2" class="edge">
<title>Node1&#45;&gt;Node3</title>
<path fill="none" stroke="#191970" d="M218.3446,-125.6596C226.8843,-126.7544 235.4428,-127.8516 243.838,-128.928"/>
<polygon fill="#191970" stroke="#191970" points="218.7034,-122.177 208.3395,-124.3769 217.8132,-129.1202 218.7034,-122.177"/>
</g>
<!-- Node4 -->
<g id="node4" class="node">
<title>Node4</title>
<g id="a_node4"><a xlink:href="../../df/d92/classorg_1_1cobbzilla_1_1util_1_1mustache_1_1LocaleAwareMustacheFactoryTest_a2fb570f7bcdf759d8dc1d70da30b9ebc.html#a2fb570f7bcdf759d8dc1d70da30b9ebc" target="_top" xlink:title="org.cobbzilla.util.mustache.\lLocaleAwareMustacheFactoryTest.test\lFindMostSpecificResource">
<polygon fill="none" stroke="#000000" points="244,-60.5 244,-101.5 432,-101.5 432,-60.5 244,-60.5"/>
<text text-anchor="start" x="252" y="-89.5" font-family="Helvetica,sans-Serif" font-size="10.00" fill="#000000">org.cobbzilla.util.mustache.</text>
<text text-anchor="start" x="252" y="-78.5" font-family="Helvetica,sans-Serif" font-size="10.00" fill="#000000">LocaleAwareMustacheFactoryTest.test</text>
<text text-anchor="middle" x="338" y="-67.5" font-family="Helvetica,sans-Serif" font-size="10.00" fill="#000000">FindMostSpecificResource</text>
</a>
</g>
</g>
<!-- Node1&#45;&gt;Node4 -->
<g id="edge3" class="edge">
<title>Node1&#45;&gt;Node4</title>
<path fill="none" stroke="#191970" d="M218.3446,-96.3404C226.8843,-95.2456 235.4428,-94.1484 243.838,-93.072"/>
<polygon fill="#191970" stroke="#191970" points="217.8132,-92.8798 208.3395,-97.6231 218.7034,-99.823 217.8132,-92.8798"/>
</g>
<!-- Node5 -->
<g id="node5" class="node">
<title>Node5</title>
<g id="a_node5"><a xlink:href="../../df/d92/classorg_1_1cobbzilla_1_1util_1_1mustache_1_1LocaleAwareMustacheFactoryTest_a359b66cdca957a32e6813dc5f8323399.html#a359b66cdca957a32e6813dc5f8323399" target="_top" xlink:title="org.cobbzilla.util.mustache.\lLocaleAwareMustacheFactoryTest.test\lFindOnlyFullResource">
<polygon fill="none" stroke="#000000" points="244,-.5 244,-41.5 432,-41.5 432,-.5 244,-.5"/>
<text text-anchor="start" x="252" y="-29.5" font-family="Helvetica,sans-Serif" font-size="10.00" fill="#000000">org.cobbzilla.util.mustache.</text>
<text text-anchor="start" x="252" y="-18.5" font-family="Helvetica,sans-Serif" font-size="10.00" fill="#000000">LocaleAwareMustacheFactoryTest.test</text>
<text text-anchor="middle" x="338" y="-7.5" font-family="Helvetica,sans-Serif" font-size="10.00" fill="#000000">FindOnlyFullResource</text>
</a>
</g>
</g>
<!-- Node1&#45;&gt;Node5 -->
<g id="edge4" class="edge">
<title>Node1&#45;&gt;Node5</title>
<path fill="none" stroke="#191970" d="M158.1735,-86.3449C183.9374,-74.991 215.3127,-61.697 244,-51 252.6675,-47.7681 261.8608,-44.5648 270.9726,-41.5218"/>
<polygon fill="#191970" stroke="#191970" points="156.6754,-83.1804 148.9508,-90.4317 159.5114,-89.5802 156.6754,-83.1804"/>
</g>
</g>
</svg>
