<?xml version="1.0" encoding="UTF-8" standalone="no"?>
<!DOCTYPE svg PUBLIC "-//W3C//DTD SVG 1.1//EN"
 "http://www.w3.org/Graphics/SVG/1.1/DTD/svg11.dtd">
<!-- Generated by graphviz version 2.40.1 (20161225.0304)
 -->
<!-- Title: org.cobbzilla.util.io.TarballTest.validateUnrolledTarball Pages: 1 -->
<svg width="310pt" height="137pt"
 viewBox="0.00 0.00 310.00 137.00" xmlns="http://www.w3.org/2000/svg" xmlns:xlink="http://www.w3.org/1999/xlink">
<g id="graph0" class="graph" transform="scale(1 1) rotate(0) translate(4 133)">
<title>org.cobbzilla.util.io.TarballTest.validateUnrolledTarball</title>
<!-- Node0 -->
<g id="node1" class="node">
<title>Node0</title>
<polygon fill="#bfbfbf" stroke="#000000" points="0,-49.5 0,-79.5 138,-79.5 138,-49.5 0,-49.5"/>
<text text-anchor="start" x="8" y="-67.5" font-family="Helvetica,sans-Serif" font-size="10.00" fill="#000000">org.cobbzilla.util.io.Tarball</text>
<text text-anchor="middle" x="69" y="-56.5" font-family="Helvetica,sans-Serif" font-size="10.00" fill="#000000">Test.validateUnrolledTarball</text>
</g>
<!-- Node1 -->
<g id="node2" class="node">
<title>Node1</title>
<g id="a_node2"><a xlink:href="../../d6/dbf/classorg_1_1cobbzilla_1_1util_1_1security_1_1ShaUtil_a03b7cc0a3af72faadda992c8f324dadc.html#a03b7cc0a3af72faadda992c8f324dadc" target="_top" xlink:title="org.cobbzilla.util.security.\lShaUtil.sha256">
<polygon fill="none" stroke="#000000" points="174,-98.5 174,-128.5 302,-128.5 302,-98.5 174,-98.5"/>
<text text-anchor="start" x="182" y="-116.5" font-family="Helvetica,sans-Serif" font-size="10.00" fill="#000000">org.cobbzilla.util.security.</text>
<text text-anchor="middle" x="238" y="-105.5" font-family="Helvetica,sans-Serif" font-size="10.00" fill="#000000">ShaUtil.sha256</text>
</a>
</g>
</g>
<!-- Node0&#45;&gt;Node1 -->
<g id="edge1" class="edge">
<title>Node0&#45;&gt;Node1</title>
<path fill="none" stroke="#191970" d="M121.0846,-79.6014C138.5952,-84.6785 158.2949,-90.3902 176.4622,-95.6577"/>
<polygon fill="#191970" stroke="#191970" points="175.5083,-99.0252 186.0874,-98.4484 177.4577,-92.3021 175.5083,-99.0252"/>
</g>
<!-- Node2 -->
<g id="node3" class="node">
<title>Node2</title>
<g id="a_node3"><a xlink:href="../../db/d9f/classorg_1_1cobbzilla_1_1util_1_1string_1_1StringUtil_afa3e20cacadb59529d8a3f5a104365b4.html#afa3e20cacadb59529d8a3f5a104365b4" target="_top" xlink:title="org.cobbzilla.util.string.\lStringUtil.tohex">
<polygon fill="none" stroke="#000000" points="179.5,-49.5 179.5,-79.5 296.5,-79.5 296.5,-49.5 179.5,-49.5"/>
<text text-anchor="start" x="187.5" y="-67.5" font-family="Helvetica,sans-Serif" font-size="10.00" fill="#000000">org.cobbzilla.util.string.</text>
<text text-anchor="middle" x="238" y="-56.5" font-family="Helvetica,sans-Serif" font-size="10.00" fill="#000000">StringUtil.tohex</text>
</a>
</g>
</g>
<!-- Node0&#45;&gt;Node2 -->
<g id="edge2" class="edge">
<title>Node0&#45;&gt;Node2</title>
<path fill="none" stroke="#191970" d="M138.2264,-64.5C148.4814,-64.5 159.0468,-64.5 169.2912,-64.5"/>
<polygon fill="#191970" stroke="#191970" points="169.4052,-68.0001 179.4052,-64.5 169.4051,-61.0001 169.4052,-68.0001"/>
</g>
<!-- Node3 -->
<g id="node4" class="node">
<title>Node3</title>
<g id="a_node4"><a xlink:href="../../df/dac/classorg_1_1cobbzilla_1_1util_1_1io_1_1FileUtil_a68ba3562aff4d6bb1e737600420c3a0a.html#a68ba3562aff4d6bb1e737600420c3a0a" target="_top" xlink:title="org.cobbzilla.util.io.File\lUtil.toString">
<polygon fill="none" stroke="#000000" points="180,-.5 180,-30.5 296,-30.5 296,-.5 180,-.5"/>
<text text-anchor="start" x="188" y="-18.5" font-family="Helvetica,sans-Serif" font-size="10.00" fill="#000000">org.cobbzilla.util.io.File</text>
<text text-anchor="middle" x="238" y="-7.5" font-family="Helvetica,sans-Serif" font-size="10.00" fill="#000000">Util.toString</text>
</a>
</g>
</g>
<!-- Node0&#45;&gt;Node3 -->
<g id="edge3" class="edge">
<title>Node0&#45;&gt;Node3</title>
<path fill="none" stroke="#191970" d="M121.0846,-49.3986C138.5952,-44.3215 158.2949,-38.6098 176.4622,-33.3423"/>
<polygon fill="#191970" stroke="#191970" points="177.4577,-36.6979 186.0874,-30.5516 175.5083,-29.9748 177.4577,-36.6979"/>
</g>
</g>
</svg>
