<?xml version="1.0" encoding="UTF-8" standalone="no"?>
<!DOCTYPE svg PUBLIC "-//W3C//DTD SVG 1.1//EN"
 "http://www.w3.org/Graphics/SVG/1.1/DTD/svg11.dtd">
<!-- Generated by graphviz version 2.40.1 (20161225.0304)
 -->
<!-- Title: org.cobbzilla.util.xml.TidyUtil.createTidy Pages: 1 -->
<svg width="472pt" height="88pt"
 viewBox="0.00 0.00 472.00 88.00" xmlns="http://www.w3.org/2000/svg" xmlns:xlink="http://www.w3.org/1999/xlink">
<g id="graph0" class="graph" transform="scale(1 1) rotate(0) translate(4 84)">
<title>org.cobbzilla.util.xml.TidyUtil.createTidy</title>
<!-- Node2 -->
<g id="node1" class="node">
<title>Node2</title>
<polygon fill="#bfbfbf" stroke="#000000" points="0,-22.5 0,-52.5 128,-52.5 128,-22.5 0,-22.5"/>
<text text-anchor="start" x="8" y="-40.5" font-family="Helvetica,sans-Serif" font-size="10.00" fill="#000000">org.cobbzilla.util.xml.Tidy</text>
<text text-anchor="middle" x="64" y="-29.5" font-family="Helvetica,sans-Serif" font-size="10.00" fill="#000000">Util.createTidy</text>
</g>
<!-- Node3 -->
<g id="node2" class="node">
<title>Node3</title>
<g id="a_node2"><a xlink:href="../../d2/d89/classorg_1_1cobbzilla_1_1util_1_1xml_1_1TidyUtil_a3994f6373ca48fd696f9b49bee29da86.html#a3994f6373ca48fd696f9b49bee29da86" target="_top" xlink:title="org.cobbzilla.util.xml.Tidy\lUtil.parse">
<polygon fill="none" stroke="#000000" points="164,-44.5 164,-74.5 292,-74.5 292,-44.5 164,-44.5"/>
<text text-anchor="start" x="172" y="-62.5" font-family="Helvetica,sans-Serif" font-size="10.00" fill="#000000">org.cobbzilla.util.xml.Tidy</text>
<text text-anchor="middle" x="228" y="-51.5" font-family="Helvetica,sans-Serif" font-size="10.00" fill="#000000">Util.parse</text>
</a>
</g>
</g>
<!-- Node2&#45;&gt;Node3 -->
<g id="edge1" class="edge">
<title>Node2&#45;&gt;Node3</title>
<path fill="none" stroke="#191970" d="M138.2859,-47.4652C146.8158,-48.6094 155.4581,-49.7688 163.8391,-50.8931"/>
<polygon fill="#191970" stroke="#191970" points="138.723,-43.9926 128.3464,-46.1318 137.7923,-50.9304 138.723,-43.9926"/>
</g>
<!-- Node5 -->
<g id="node4" class="node">
<title>Node5</title>
<g id="a_node4"><a xlink:href="../../d2/d89/classorg_1_1cobbzilla_1_1util_1_1xml_1_1TidyUtil_a5a97f8d52affdaa2c78b19e56afd42b4.html#a5a97f8d52affdaa2c78b19e56afd42b4" target="_top" xlink:title="org.cobbzilla.util.xml.Tidy\lUtil.tidy">
<polygon fill="none" stroke="#000000" points="332,-.5 332,-30.5 460,-30.5 460,-.5 332,-.5"/>
<text text-anchor="start" x="340" y="-18.5" font-family="Helvetica,sans-Serif" font-size="10.00" fill="#000000">org.cobbzilla.util.xml.Tidy</text>
<text text-anchor="middle" x="396" y="-7.5" font-family="Helvetica,sans-Serif" font-size="10.00" fill="#000000">Util.tidy</text>
</a>
</g>
</g>
<!-- Node2&#45;&gt;Node5 -->
<g id="edge4" class="edge">
<title>Node2&#45;&gt;Node5</title>
<path fill="none" stroke="#191970" d="M138.2438,-32.5802C196.4148,-28.7255 276.5045,-23.4184 331.901,-19.7475"/>
<polygon fill="#191970" stroke="#191970" points="137.7596,-29.1045 128.0129,-33.2582 138.2225,-36.0892 137.7596,-29.1045"/>
</g>
<!-- Node4 -->
<g id="node3" class="node">
<title>Node4</title>
<g id="a_node3"><a xlink:href="../../dd/d36/classorg_1_1cobbzilla_1_1util_1_1xml_1_1XPathUtil_aeec439b2841ad394850449d35b6c3947.html#aeec439b2841ad394850449d35b6c3947" target="_top" xlink:title="org.cobbzilla.util.xml.XPath\lUtil.getDocument">
<polygon fill="none" stroke="#000000" points="328,-49.5 328,-79.5 464,-79.5 464,-49.5 328,-49.5"/>
<text text-anchor="start" x="336" y="-67.5" font-family="Helvetica,sans-Serif" font-size="10.00" fill="#000000">org.cobbzilla.util.xml.XPath</text>
<text text-anchor="middle" x="396" y="-56.5" font-family="Helvetica,sans-Serif" font-size="10.00" fill="#000000">Util.getDocument</text>
</a>
</g>
</g>
<!-- Node3&#45;&gt;Node4 -->
<g id="edge2" class="edge">
<title>Node3&#45;&gt;Node4</title>
<path fill="none" stroke="#191970" d="M302.6114,-61.7206C310.9934,-61.97 319.5016,-62.2233 327.7966,-62.4701"/>
<polygon fill="#191970" stroke="#191970" points="302.5724,-58.218 292.4727,-61.4188 302.3641,-65.2149 302.5724,-58.218"/>
</g>
<!-- Node3&#45;&gt;Node5 -->
<g id="edge3" class="edge">
<title>Node3&#45;&gt;Node5</title>
<path fill="none" stroke="#191970" d="M295.1776,-41.9059C309.5687,-38.1368 324.6468,-34.1878 338.6272,-30.5262"/>
<polygon fill="#191970" stroke="#191970" points="294.1331,-38.5613 285.3462,-44.4808 295.9067,-45.3329 294.1331,-38.5613"/>
</g>
</g>
</svg>
