<?xml version="1.0" encoding="UTF-8" standalone="no"?>
<!DOCTYPE svg PUBLIC "-//W3C//DTD SVG 1.1//EN"
 "http://www.w3.org/Graphics/SVG/1.1/DTD/svg11.dtd">
<!-- Generated by graphviz version 2.40.1 (20161225.0304)
 -->
<!-- Title: org.cobbzilla.util.xml.TidyUtil.parse Pages: 1 -->
<svg width="308pt" height="88pt"
 viewBox="0.00 0.00 308.00 88.00" xmlns="http://www.w3.org/2000/svg" xmlns:xlink="http://www.w3.org/1999/xlink">
<g id="graph0" class="graph" transform="scale(1 1) rotate(0) translate(4 84)">
<title>org.cobbzilla.util.xml.TidyUtil.parse</title>
<!-- Node5 -->
<g id="node1" class="node">
<title>Node5</title>
<polygon fill="#bfbfbf" stroke="#000000" points="0,-24.5 0,-54.5 128,-54.5 128,-24.5 0,-24.5"/>
<text text-anchor="start" x="8" y="-42.5" font-family="Helvetica,sans-Serif" font-size="10.00" fill="#000000">org.cobbzilla.util.xml.Tidy</text>
<text text-anchor="middle" x="64" y="-31.5" font-family="Helvetica,sans-Serif" font-size="10.00" fill="#000000">Util.parse</text>
</g>
<!-- Node6 -->
<g id="node2" class="node">
<title>Node6</title>
<g id="a_node2"><a xlink:href="../../dd/d36/classorg_1_1cobbzilla_1_1util_1_1xml_1_1XPathUtil_aeec439b2841ad394850449d35b6c3947.html#aeec439b2841ad394850449d35b6c3947" target="_top" xlink:title="org.cobbzilla.util.xml.XPath\lUtil.getDocument">
<polygon fill="none" stroke="#000000" points="164,-49.5 164,-79.5 300,-79.5 300,-49.5 164,-49.5"/>
<text text-anchor="start" x="172" y="-67.5" font-family="Helvetica,sans-Serif" font-size="10.00" fill="#000000">org.cobbzilla.util.xml.XPath</text>
<text text-anchor="middle" x="232" y="-56.5" font-family="Helvetica,sans-Serif" font-size="10.00" fill="#000000">Util.getDocument</text>
</a>
</g>
</g>
<!-- Node5&#45;&gt;Node6 -->
<g id="edge1" class="edge">
<title>Node5&#45;&gt;Node6</title>
<path fill="none" stroke="#191970" d="M138.6114,-50.6029C146.9934,-51.8502 155.5016,-53.1163 163.7966,-54.3507"/>
<polygon fill="#191970" stroke="#191970" points="138.879,-47.1042 128.4727,-49.0942 137.8486,-54.028 138.879,-47.1042"/>
</g>
<!-- Node7 -->
<g id="node3" class="node">
<title>Node7</title>
<g id="a_node3"><a xlink:href="../../d2/d89/classorg_1_1cobbzilla_1_1util_1_1xml_1_1TidyUtil_a5a97f8d52affdaa2c78b19e56afd42b4.html#a5a97f8d52affdaa2c78b19e56afd42b4" target="_top" xlink:title="org.cobbzilla.util.xml.Tidy\lUtil.tidy">
<polygon fill="none" stroke="#000000" points="168,-.5 168,-30.5 296,-30.5 296,-.5 168,-.5"/>
<text text-anchor="start" x="176" y="-18.5" font-family="Helvetica,sans-Serif" font-size="10.00" fill="#000000">org.cobbzilla.util.xml.Tidy</text>
<text text-anchor="middle" x="232" y="-7.5" font-family="Helvetica,sans-Serif" font-size="10.00" fill="#000000">Util.tidy</text>
</a>
</g>
</g>
<!-- Node5&#45;&gt;Node7 -->
<g id="edge2" class="edge">
<title>Node5&#45;&gt;Node7</title>
<path fill="none" stroke="#191970" d="M138.6004,-28.8428C148.4007,-27.4428 158.3738,-26.018 167.9772,-24.6461"/>
<polygon fill="#191970" stroke="#191970" points="137.8772,-25.4105 128.4727,-30.2896 138.8672,-32.3401 137.8772,-25.4105"/>
</g>
</g>
</svg>
