<?xml version="1.0" encoding="UTF-8" standalone="no"?>
<!DOCTYPE svg PUBLIC "-//W3C//DTD SVG 1.1//EN"
 "http://www.w3.org/Graphics/SVG/1.1/DTD/svg11.dtd">
<!-- Generated by graphviz version 2.40.1 (20161225.0304)
 -->
<!-- Title: org.cobbzilla.util.xml.TidyUtil.tidy Pages: 1 -->
<!--zoomable 184 -->
<svg id="main" version="1.1" xmlns="http://www.w3.org/2000/svg" xmlns:xlink="http://www.w3.org/1999/xlink" xml:space="preserve" onload="init(evt)">
<style type="text/css"><![CDATA[
.edge:hover path { stroke: red; }
.edge:hover polygon { stroke: red; fill: red; }
]]></style>
<script type="text/javascript"><![CDATA[
var edges = document.getElementsByTagName('g');
if (edges && edges.length) {
  for (var i=0;i<edges.length;i++) {
    if (edges[i].id.substr(0,4)=='edge') {
      edges[i].setAttribute('class','edge');
    }
  }
}
]]></script>
        <defs>
                <circle id="rim" cx="0" cy="0" r="7"/>
                <circle id="rim2" cx="0" cy="0" r="3.5"/>
                <g id="zoomPlus">
                        <use xlink:href="#rim" fill="#404040">
                                <set attributeName="fill" to="#808080" begin="zoomplus.mouseover" end="zoomplus.mouseout"/>
                        </use>
                        <path d="M-4,0h8M0,-4v8" fill="none" stroke="white" stroke-width="1.5" pointer-events="none"/>
                </g>
                <g id="zoomMin">
                        <use xlink:href="#rim" fill="#404040">
                                <set attributeName="fill" to="#808080" begin="zoomminus.mouseover" end="zoomminus.mouseout"/>
                        </use>
                        <path d="M-4,0h8" fill="none" stroke="white" stroke-width="1.5" pointer-events="none"/>
                </g>
                <g id="dirArrow">
                        <path fill="none" stroke="white" stroke-width="1.5" d="M0,-3.0v7 M-2.5,-0.5L0,-3.0L2.5,-0.5"/>
                </g>
               <g id="resetDef">
                       <use xlink:href="#rim2" fill="#404040">
                               <set attributeName="fill" to="#808080" begin="reset.mouseover" end="reset.mouseout"/>
                       </use>
               </g>
        </defs>

<script type="text/javascript">
var viewWidth = 650;
var viewHeight = 184;
var sectionId = 'dynsection-0';
</script>
<script xlink:href="../../svgpan.js"/>
<svg id="graph" class="graph">
<g id="viewport">
<title>org.cobbzilla.util.xml.TidyUtil.tidy</title>
<!-- Node0 -->
<g id="node1" class="node">
<title>Node0</title>
<polygon fill="#bfbfbf" stroke="#000000" points="0,-127.0555 0,-157.0555 128,-157.0555 128,-127.0555 0,-127.0555"/>
<text text-anchor="start" x="8" y="-145.0555" font-family="Helvetica,sans-Serif" font-size="10.00" fill="#000000">org.cobbzilla.util.xml.Tidy</text>
<text text-anchor="middle" x="64" y="-134.0555" font-family="Helvetica,sans-Serif" font-size="10.00" fill="#000000">Util.tidy</text>
</g>
<!-- Node1 -->
<g id="node2" class="node">
<title>Node1</title>
<g id="a_node2"><a xlink:href="../../d2/d89/classorg_1_1cobbzilla_1_1util_1_1xml_1_1TidyUtil_abfbd6dac0167381dbe0161a3d81044ef.html#abfbd6dac0167381dbe0161a3d81044ef" target="_top" xlink:title="org.cobbzilla.util.xml.Tidy\lUtil.createTidy">
<polygon fill="none" stroke="#000000" points="339,-127.0555 339,-157.0555 467,-157.0555 467,-127.0555 339,-127.0555"/>
<text text-anchor="start" x="347" y="-145.0555" font-family="Helvetica,sans-Serif" font-size="10.00" fill="#000000">org.cobbzilla.util.xml.Tidy</text>
<text text-anchor="middle" x="403" y="-134.0555" font-family="Helvetica,sans-Serif" font-size="10.00" fill="#000000">Util.createTidy</text>
</a>
</g>
</g>
<!-- Node0&#45;&gt;Node1 -->
<g id="edge1" class="edge">
<title>Node0&#45;&gt;Node1</title>
<path fill="none" stroke="#191970" d="M128.1618,-142.0555C185.2295,-142.0555 268.6905,-142.0555 328.6519,-142.0555"/>
<polygon fill="#191970" stroke="#191970" points="328.8129,-145.5556 338.8128,-142.0555 328.8128,-138.5556 328.8129,-145.5556"/>
</g>
<!-- Node2 -->
<g id="node3" class="node">
<title>Node2</title>
<g id="a_node3"><a xlink:href="../../d2/d89/classorg_1_1cobbzilla_1_1util_1_1xml_1_1TidyUtil_aa2fbe6c36e3a4760e8927f3494fa9582.html#aa2fbe6c36e3a4760e8927f3494fa9582" target="_top" xlink:title="org.cobbzilla.util.xml.Tidy\lUtil.tidy">
<polygon fill="none" stroke="#000000" points="514,-127.0555 514,-157.0555 642,-157.0555 642,-127.0555 514,-127.0555"/>
<text text-anchor="start" x="522" y="-145.0555" font-family="Helvetica,sans-Serif" font-size="10.00" fill="#000000">org.cobbzilla.util.xml.Tidy</text>
<text text-anchor="middle" x="578" y="-134.0555" font-family="Helvetica,sans-Serif" font-size="10.00" fill="#000000">Util.tidy</text>
</a>
</g>
</g>
<!-- Node0&#45;&gt;Node2 -->
<g id="edge9" class="edge">
<title>Node0&#45;&gt;Node2</title>
<path fill="none" stroke="#191970" d="M128.0553,-153.1433C209.605,-165.6046 354.7204,-182.2319 478,-167.0555 491.1628,-165.4351 505.0851,-162.6577 518.224,-159.5291"/>
<polygon fill="#191970" stroke="#191970" points="519.2296,-162.8858 528.0931,-157.0815 517.5446,-156.0916 519.2296,-162.8858"/>
</g>
<!-- Node3 -->
<g id="node4" class="node">
<title>Node3</title>
<g id="a_node4"><a xlink:href="../../d2/d89/classorg_1_1cobbzilla_1_1util_1_1xml_1_1TidyUtil_a3994f6373ca48fd696f9b49bee29da86.html#a3994f6373ca48fd696f9b49bee29da86" target="_top" xlink:title="org.cobbzilla.util.xml.Tidy\lUtil.parse">
<polygon fill="none" stroke="#000000" points="164,-78.0555 164,-108.0555 292,-108.0555 292,-78.0555 164,-78.0555"/>
<text text-anchor="start" x="172" y="-96.0555" font-family="Helvetica,sans-Serif" font-size="10.00" fill="#000000">org.cobbzilla.util.xml.Tidy</text>
<text text-anchor="middle" x="228" y="-85.0555" font-family="Helvetica,sans-Serif" font-size="10.00" fill="#000000">Util.parse</text>
</a>
</g>
</g>
<!-- Node0&#45;&gt;Node3 -->
<g id="edge4" class="edge">
<title>Node0&#45;&gt;Node3</title>
<path fill="none" stroke="#191970" d="M114.5436,-126.954C131.4579,-121.9004 150.4769,-116.2179 168.0391,-110.9706"/>
<polygon fill="#191970" stroke="#191970" points="169.0438,-114.3234 177.6233,-108.107 167.0398,-107.6164 169.0438,-114.3234"/>
</g>
<!-- Node1&#45;&gt;Node2 -->
<g id="edge2" class="edge">
<title>Node1&#45;&gt;Node2</title>
<path fill="none" stroke="#191970" d="M467.1698,-142.0555C479.0586,-142.0555 491.5672,-142.0555 503.727,-142.0555"/>
<polygon fill="#191970" stroke="#191970" points="503.8379,-145.5556 513.8379,-142.0555 503.8379,-138.5556 503.8379,-145.5556"/>
</g>
<!-- Node2&#45;&gt;Node2 -->
<g id="edge3" class="edge">
<title>Node2&#45;&gt;Node2</title>
<path fill="none" stroke="#191970" d="M547.6769,-157.2145C540.365,-166.6121 550.4727,-175.5555 578,-175.5555 594.7745,-175.5555 605.0804,-172.2344 608.9177,-167.5134"/>
<polygon fill="#191970" stroke="#191970" points="612.3938,-166.9961 608.3231,-157.2145 605.4054,-167.3996 612.3938,-166.9961"/>
</g>
<!-- Node3&#45;&gt;Node1 -->
<g id="edge5" class="edge">
<title>Node3&#45;&gt;Node1</title>
<path fill="none" stroke="#191970" d="M281.9337,-108.1569C300.1496,-113.2574 320.6532,-118.9984 339.5374,-124.286"/>
<polygon fill="#191970" stroke="#191970" points="338.671,-127.6779 349.2444,-127.0039 340.5585,-120.9371 338.671,-127.6779"/>
</g>
<!-- Node3&#45;&gt;Node2 -->
<g id="edge8" class="edge">
<title>Node3&#45;&gt;Node2</title>
<path fill="none" stroke="#191970" d="M242.1523,-77.824C260.0903,-59.7536 292.9258,-30.6217 328,-19.0555 391.313,1.8229 417.7998,9.5868 478,-19.0555 520.6457,-39.3456 551.0517,-87.7012 566.4651,-117.3798"/>
<polygon fill="#191970" stroke="#191970" points="563.5059,-119.2873 571.1135,-126.6612 569.7649,-116.1526 563.5059,-119.2873"/>
</g>
<!-- Node4 -->
<g id="node5" class="node">
<title>Node4</title>
<g id="a_node5"><a xlink:href="../../d2/d89/classorg_1_1cobbzilla_1_1util_1_1xml_1_1TidyUtil_a3c0ca20222f6a130eb318a1e1823827b.html#a3c0ca20222f6a130eb318a1e1823827b" target="_top" xlink:title="org.cobbzilla.util.xml.Tidy\lUtil.removeDuplicateAttributes">
<polygon fill="none" stroke="#000000" points="328,-78.0555 328,-108.0555 478,-108.0555 478,-78.0555 328,-78.0555"/>
<text text-anchor="start" x="336" y="-96.0555" font-family="Helvetica,sans-Serif" font-size="10.00" fill="#000000">org.cobbzilla.util.xml.Tidy</text>
<text text-anchor="middle" x="403" y="-85.0555" font-family="Helvetica,sans-Serif" font-size="10.00" fill="#000000">Util.removeDuplicateAttributes</text>
</a>
</g>
</g>
<!-- Node3&#45;&gt;Node4 -->
<g id="edge6" class="edge">
<title>Node3&#45;&gt;Node4</title>
<path fill="none" stroke="#191970" d="M292.1698,-93.0555C300.5133,-93.0555 309.1621,-93.0555 317.7813,-93.0555"/>
<polygon fill="#191970" stroke="#191970" points="317.8659,-96.5556 327.8659,-93.0555 317.8659,-89.5556 317.8659,-96.5556"/>
</g>
<!-- Node5 -->
<g id="node6" class="node">
<title>Node5</title>
<g id="a_node6"><a xlink:href="../../d2/d89/classorg_1_1cobbzilla_1_1util_1_1xml_1_1TidyUtil_a2c27f5f7465bdae6e644b9a51ec3be27.html#a2c27f5f7465bdae6e644b9a51ec3be27" target="_top" xlink:title="org.cobbzilla.util.xml.Tidy\lUtil.removeElement">
<polygon fill="none" stroke="#000000" points="339,-29.0555 339,-59.0555 467,-59.0555 467,-29.0555 339,-29.0555"/>
<text text-anchor="start" x="347" y="-47.0555" font-family="Helvetica,sans-Serif" font-size="10.00" fill="#000000">org.cobbzilla.util.xml.Tidy</text>
<text text-anchor="middle" x="403" y="-36.0555" font-family="Helvetica,sans-Serif" font-size="10.00" fill="#000000">Util.removeElement</text>
</a>
</g>
</g>
<!-- Node3&#45;&gt;Node5 -->
<g id="edge7" class="edge">
<title>Node3&#45;&gt;Node5</title>
<path fill="none" stroke="#191970" d="M281.9337,-77.954C300.1496,-72.8536 320.6532,-67.1126 339.5374,-61.825"/>
<polygon fill="#191970" stroke="#191970" points="340.5585,-65.1738 349.2444,-59.107 338.671,-58.433 340.5585,-65.1738"/>
</g>
</g>
</svg>
        <g id="navigator" transform="translate(0 0)" fill="#404254">
                <rect fill="#f2f5e9" fill-opacity="0.5" stroke="#606060" stroke-width=".5" x="0" y="0" width="60" height="60"/>
                <use id="zoomplus" xlink:href="#zoomPlus" x="17" y="9" onmousedown="handleZoom(evt,'in')"/>
                <use id="zoomminus" xlink:href="#zoomMin" x="42" y="9" onmousedown="handleZoom(evt,'out')"/>
                <use id="reset" xlink:href="#resetDef" x="30" y="36" onmousedown="handleReset()"/>
                <g id="arrowUp" xlink:href="#dirArrow" transform="translate(30 24)" onmousedown="handlePan(0,-1)">
                  <use xlink:href="#rim" fill="#404040">
                        <set attributeName="fill" to="#808080" begin="arrowUp.mouseover" end="arrowUp.mouseout"/>
                  </use>
                  <path fill="none" stroke="white" stroke-width="1.5" d="M0,-3.0v7 M-2.5,-0.5L0,-3.0L2.5,-0.5"/>
                </g>
                <g id="arrowRight" xlink:href="#dirArrow" transform="rotate(90) translate(36 -43)" onmousedown="handlePan(1,0)">
                  <use xlink:href="#rim" fill="#404040">
                        <set attributeName="fill" to="#808080" begin="arrowRight.mouseover" end="arrowRight.mouseout"/>
                  </use>
                  <path fill="none" stroke="white" stroke-width="1.5" d="M0,-3.0v7 M-2.5,-0.5L0,-3.0L2.5,-0.5"/>
                </g>
                <g id="arrowDown" xlink:href="#dirArrow" transform="rotate(180) translate(-30 -48)" onmousedown="handlePan(0,1)">
                  <use xlink:href="#rim" fill="#404040">
                        <set attributeName="fill" to="#808080" begin="arrowDown.mouseover" end="arrowDown.mouseout"/>
                  </use>
                  <path fill="none" stroke="white" stroke-width="1.5" d="M0,-3.0v7 M-2.5,-0.5L0,-3.0L2.5,-0.5"/>
                </g>
                <g id="arrowLeft" xlink:href="#dirArrow" transform="rotate(270) translate(-36 17)" onmousedown="handlePan(-1,0)">
                  <use xlink:href="#rim" fill="#404040">
                        <set attributeName="fill" to="#808080" begin="arrowLeft.mouseover" end="arrowLeft.mouseout"/>
                  </use>
                  <path fill="none" stroke="white" stroke-width="1.5" d="M0,-3.0v7 M-2.5,-0.5L0,-3.0L2.5,-0.5"/>
                </g>
        </g>
        <svg viewBox="0 0 15 15" width="100%" height="30px" preserveAspectRatio="xMaxYMin meet">
         <g id="arrow_out" transform="scale(0.3 0.3)">
          <a xlink:href="classorg_1_1cobbzilla_1_1util_1_1xml_1_1TidyUtil_a5a97f8d52affdaa2c78b19e56afd42b4_a5a97f8d52affdaa2c78b19e56afd42b4_cgraph_org.svg" target="_base">
           <rect id="button" ry="5" rx="5" y="6" x="6" height="38" width="38"
                fill="#f2f5e9" fill-opacity="0.5" stroke="#606060" stroke-width="1.0"/>
           <path id="arrow"
             d="M 11.500037,31.436501 C 11.940474,20.09759 22.043105,11.32322 32.158766,21.979434 L 37.068811,17.246167 C 37.068811,17.246167 37.088388,32 37.088388,32 L 22.160133,31.978069 C 22.160133,31.978069 26.997745,27.140456 26.997745,27.140456 C 18.528582,18.264221 13.291696,25.230495 11.500037,31.436501 z"
             style="fill:#404040;"/>
          </a>
         </g>
        </svg>
</svg>
