<?xml version="1.0" encoding="UTF-8" standalone="no"?>
<!DOCTYPE svg PUBLIC "-//W3C//DTD SVG 1.1//EN"
 "http://www.w3.org/Graphics/SVG/1.1/DTD/svg11.dtd">
<!-- Generated by graphviz version 2.40.1 (20161225.0304)
 -->
<!-- Title: org.cobbzilla.util.xml.TidyUtil.removeDuplicateAttributes Pages: 1 -->
<svg width="494pt" height="88pt"
 viewBox="0.00 0.00 494.00 88.00" xmlns="http://www.w3.org/2000/svg" xmlns:xlink="http://www.w3.org/1999/xlink">
<g id="graph0" class="graph" transform="scale(1 1) rotate(0) translate(4 84)">
<title>org.cobbzilla.util.xml.TidyUtil.removeDuplicateAttributes</title>
<!-- Node1 -->
<g id="node1" class="node">
<title>Node1</title>
<polygon fill="#bfbfbf" stroke="#000000" points="0,-24.5 0,-54.5 150,-54.5 150,-24.5 0,-24.5"/>
<text text-anchor="start" x="8" y="-42.5" font-family="Helvetica,sans-Serif" font-size="10.00" fill="#000000">org.cobbzilla.util.xml.Tidy</text>
<text text-anchor="middle" x="75" y="-31.5" font-family="Helvetica,sans-Serif" font-size="10.00" fill="#000000">Util.removeDuplicateAttributes</text>
</g>
<!-- Node2 -->
<g id="node2" class="node">
<title>Node2</title>
<g id="a_node2"><a xlink:href="../../d2/d89/classorg_1_1cobbzilla_1_1util_1_1xml_1_1TidyUtil_a3994f6373ca48fd696f9b49bee29da86.html#a3994f6373ca48fd696f9b49bee29da86" target="_top" xlink:title="org.cobbzilla.util.xml.Tidy\lUtil.parse">
<polygon fill="none" stroke="#000000" points="186,-24.5 186,-54.5 314,-54.5 314,-24.5 186,-24.5"/>
<text text-anchor="start" x="194" y="-42.5" font-family="Helvetica,sans-Serif" font-size="10.00" fill="#000000">org.cobbzilla.util.xml.Tidy</text>
<text text-anchor="middle" x="250" y="-31.5" font-family="Helvetica,sans-Serif" font-size="10.00" fill="#000000">Util.parse</text>
</a>
</g>
</g>
<!-- Node1&#45;&gt;Node2 -->
<g id="edge1" class="edge">
<title>Node1&#45;&gt;Node2</title>
<path fill="none" stroke="#191970" d="M160.2892,-39.5C168.8851,-39.5 177.5095,-39.5 185.8302,-39.5"/>
<polygon fill="#191970" stroke="#191970" points="160.2314,-36.0001 150.2314,-39.5 160.2313,-43.0001 160.2314,-36.0001"/>
</g>
<!-- Node3 -->
<g id="node3" class="node">
<title>Node3</title>
<g id="a_node3"><a xlink:href="../../dd/d36/classorg_1_1cobbzilla_1_1util_1_1xml_1_1XPathUtil_aeec439b2841ad394850449d35b6c3947.html#aeec439b2841ad394850449d35b6c3947" target="_top" xlink:title="org.cobbzilla.util.xml.XPath\lUtil.getDocument">
<polygon fill="none" stroke="#000000" points="350,-49.5 350,-79.5 486,-79.5 486,-49.5 350,-49.5"/>
<text text-anchor="start" x="358" y="-67.5" font-family="Helvetica,sans-Serif" font-size="10.00" fill="#000000">org.cobbzilla.util.xml.XPath</text>
<text text-anchor="middle" x="418" y="-56.5" font-family="Helvetica,sans-Serif" font-size="10.00" fill="#000000">Util.getDocument</text>
</a>
</g>
</g>
<!-- Node2&#45;&gt;Node3 -->
<g id="edge2" class="edge">
<title>Node2&#45;&gt;Node3</title>
<path fill="none" stroke="#191970" d="M324.6114,-50.6029C332.9934,-51.8502 341.5016,-53.1163 349.7966,-54.3507"/>
<polygon fill="#191970" stroke="#191970" points="324.879,-47.1042 314.4727,-49.0942 323.8486,-54.028 324.879,-47.1042"/>
</g>
<!-- Node4 -->
<g id="node4" class="node">
<title>Node4</title>
<g id="a_node4"><a xlink:href="../../d2/d89/classorg_1_1cobbzilla_1_1util_1_1xml_1_1TidyUtil_a5a97f8d52affdaa2c78b19e56afd42b4.html#a5a97f8d52affdaa2c78b19e56afd42b4" target="_top" xlink:title="org.cobbzilla.util.xml.Tidy\lUtil.tidy">
<polygon fill="none" stroke="#000000" points="354,-.5 354,-30.5 482,-30.5 482,-.5 354,-.5"/>
<text text-anchor="start" x="362" y="-18.5" font-family="Helvetica,sans-Serif" font-size="10.00" fill="#000000">org.cobbzilla.util.xml.Tidy</text>
<text text-anchor="middle" x="418" y="-7.5" font-family="Helvetica,sans-Serif" font-size="10.00" fill="#000000">Util.tidy</text>
</a>
</g>
</g>
<!-- Node2&#45;&gt;Node4 -->
<g id="edge3" class="edge">
<title>Node2&#45;&gt;Node4</title>
<path fill="none" stroke="#191970" d="M324.6004,-28.8428C334.4007,-27.4428 344.3738,-26.018 353.9772,-24.6461"/>
<polygon fill="#191970" stroke="#191970" points="323.8772,-25.4105 314.4727,-30.2896 324.8672,-32.3401 323.8772,-25.4105"/>
</g>
</g>
</svg>
