<?xml version="1.0" encoding="UTF-8" standalone="no"?>
<!DOCTYPE svg PUBLIC "-//W3C//DTD SVG 1.1//EN"
 "http://www.w3.org/Graphics/SVG/1.1/DTD/svg11.dtd">
<!-- Generated by graphviz version 2.40.1 (20161225.0304)
 -->
<!-- Title: org.cobbzilla.util.xml.TidyUtil.parse Pages: 1 -->
<svg width="486pt" height="176pt"
 viewBox="0.00 0.00 486.00 176.00" xmlns="http://www.w3.org/2000/svg" xmlns:xlink="http://www.w3.org/1999/xlink">
<g id="graph0" class="graph" transform="scale(1 1) rotate(0) translate(4 172)">
<title>org.cobbzilla.util.xml.TidyUtil.parse</title>
<!-- Node0 -->
<g id="node1" class="node">
<title>Node0</title>
<polygon fill="#bfbfbf" stroke="#000000" points="0,-71.5 0,-101.5 128,-101.5 128,-71.5 0,-71.5"/>
<text text-anchor="start" x="8" y="-89.5" font-family="Helvetica,sans-Serif" font-size="10.00" fill="#000000">org.cobbzilla.util.xml.Tidy</text>
<text text-anchor="middle" x="64" y="-78.5" font-family="Helvetica,sans-Serif" font-size="10.00" fill="#000000">Util.parse</text>
</g>
<!-- Node1 -->
<g id="node2" class="node">
<title>Node1</title>
<g id="a_node2"><a xlink:href="../../d2/d89/classorg_1_1cobbzilla_1_1util_1_1xml_1_1TidyUtil_abfbd6dac0167381dbe0161a3d81044ef.html#abfbd6dac0167381dbe0161a3d81044ef" target="_top" xlink:title="org.cobbzilla.util.xml.Tidy\lUtil.createTidy">
<polygon fill="none" stroke="#000000" points="175,-137.5 175,-167.5 303,-167.5 303,-137.5 175,-137.5"/>
<text text-anchor="start" x="183" y="-155.5" font-family="Helvetica,sans-Serif" font-size="10.00" fill="#000000">org.cobbzilla.util.xml.Tidy</text>
<text text-anchor="middle" x="239" y="-144.5" font-family="Helvetica,sans-Serif" font-size="10.00" fill="#000000">Util.createTidy</text>
</a>
</g>
</g>
<!-- Node0&#45;&gt;Node1 -->
<g id="edge1" class="edge">
<title>Node0&#45;&gt;Node1</title>
<path fill="none" stroke="#191970" d="M104.1485,-101.6417C129.4927,-111.2001 162.4215,-123.6189 189.3951,-133.7919"/>
<polygon fill="#191970" stroke="#191970" points="188.4465,-137.1747 199.0383,-137.4287 190.9167,-130.625 188.4465,-137.1747"/>
</g>
<!-- Node2 -->
<g id="node3" class="node">
<title>Node2</title>
<g id="a_node3"><a xlink:href="../../d2/d89/classorg_1_1cobbzilla_1_1util_1_1xml_1_1TidyUtil_aa2fbe6c36e3a4760e8927f3494fa9582.html#aa2fbe6c36e3a4760e8927f3494fa9582" target="_top" xlink:title="org.cobbzilla.util.xml.Tidy\lUtil.tidy">
<polygon fill="none" stroke="#000000" points="350,-115.5 350,-145.5 478,-145.5 478,-115.5 350,-115.5"/>
<text text-anchor="start" x="358" y="-133.5" font-family="Helvetica,sans-Serif" font-size="10.00" fill="#000000">org.cobbzilla.util.xml.Tidy</text>
<text text-anchor="middle" x="414" y="-122.5" font-family="Helvetica,sans-Serif" font-size="10.00" fill="#000000">Util.tidy</text>
</a>
</g>
</g>
<!-- Node0&#45;&gt;Node2 -->
<g id="edge6" class="edge">
<title>Node0&#45;&gt;Node2</title>
<path fill="none" stroke="#191970" d="M128.1954,-94.5703C187.923,-102.0789 276.904,-113.2651 339.6842,-121.1574"/>
<polygon fill="#191970" stroke="#191970" points="339.5575,-124.669 349.916,-122.4437 340.4307,-117.7236 339.5575,-124.669"/>
</g>
<!-- Node3 -->
<g id="node4" class="node">
<title>Node3</title>
<g id="a_node4"><a xlink:href="../../d2/d89/classorg_1_1cobbzilla_1_1util_1_1xml_1_1TidyUtil_a3c0ca20222f6a130eb318a1e1823827b.html#a3c0ca20222f6a130eb318a1e1823827b" target="_top" xlink:title="org.cobbzilla.util.xml.Tidy\lUtil.removeDuplicateAttributes">
<polygon fill="none" stroke="#000000" points="164,-49.5 164,-79.5 314,-79.5 314,-49.5 164,-49.5"/>
<text text-anchor="start" x="172" y="-67.5" font-family="Helvetica,sans-Serif" font-size="10.00" fill="#000000">org.cobbzilla.util.xml.Tidy</text>
<text text-anchor="middle" x="239" y="-56.5" font-family="Helvetica,sans-Serif" font-size="10.00" fill="#000000">Util.removeDuplicateAttributes</text>
</a>
</g>
</g>
<!-- Node0&#45;&gt;Node3 -->
<g id="edge4" class="edge">
<title>Node0&#45;&gt;Node3</title>
<path fill="none" stroke="#191970" d="M128.1698,-78.4329C136.5133,-77.384 145.1621,-76.2968 153.7813,-75.2132"/>
<polygon fill="#191970" stroke="#191970" points="154.3806,-78.6655 163.8659,-73.9454 153.5074,-71.7202 154.3806,-78.6655"/>
</g>
<!-- Node4 -->
<g id="node5" class="node">
<title>Node4</title>
<g id="a_node5"><a xlink:href="../../d2/d89/classorg_1_1cobbzilla_1_1util_1_1xml_1_1TidyUtil_a2c27f5f7465bdae6e644b9a51ec3be27.html#a2c27f5f7465bdae6e644b9a51ec3be27" target="_top" xlink:title="org.cobbzilla.util.xml.Tidy\lUtil.removeElement">
<polygon fill="none" stroke="#000000" points="175,-.5 175,-30.5 303,-30.5 303,-.5 175,-.5"/>
<text text-anchor="start" x="183" y="-18.5" font-family="Helvetica,sans-Serif" font-size="10.00" fill="#000000">org.cobbzilla.util.xml.Tidy</text>
<text text-anchor="middle" x="239" y="-7.5" font-family="Helvetica,sans-Serif" font-size="10.00" fill="#000000">Util.removeElement</text>
</a>
</g>
</g>
<!-- Node0&#45;&gt;Node4 -->
<g id="edge5" class="edge">
<title>Node0&#45;&gt;Node4</title>
<path fill="none" stroke="#191970" d="M94.7024,-71.3177C114.2956,-61.8944 140.3636,-49.8434 164,-40.5 169.5604,-38.302 175.4001,-36.1282 181.2631,-34.0339"/>
<polygon fill="#191970" stroke="#191970" points="182.8211,-37.197 191.1069,-30.5942 180.512,-30.5888 182.8211,-37.197"/>
</g>
<!-- Node1&#45;&gt;Node2 -->
<g id="edge2" class="edge">
<title>Node1&#45;&gt;Node2</title>
<path fill="none" stroke="#191970" d="M303.1698,-144.4329C315.0586,-142.9383 327.5672,-141.3658 339.727,-139.8372"/>
<polygon fill="#191970" stroke="#191970" points="340.3526,-143.2862 349.8379,-138.5661 339.4794,-136.3408 340.3526,-143.2862"/>
</g>
<!-- Node2&#45;&gt;Node2 -->
<g id="edge3" class="edge">
<title>Node2&#45;&gt;Node2</title>
<path fill="none" stroke="#191970" d="M383.6769,-145.659C376.365,-155.0566 386.4727,-164 414,-164 430.7745,-164 441.0804,-160.679 444.9177,-155.9579"/>
<polygon fill="#191970" stroke="#191970" points="448.3938,-155.4406 444.3231,-145.659 441.4054,-155.8441 448.3938,-155.4406"/>
</g>
</g>
</svg>
