<?xml version="1.0" encoding="UTF-8" standalone="no"?>
<!DOCTYPE svg PUBLIC "-//W3C//DTD SVG 1.1//EN"
 "http://www.w3.org/Graphics/SVG/1.1/DTD/svg11.dtd">
<!-- Generated by graphviz version 2.40.1 (20161225.0304)
 -->
<!-- Title: org.cobbzilla.util.xml.TidyUtil.removeElement Pages: 1 -->
<svg width="472pt" height="88pt"
 viewBox="0.00 0.00 472.00 88.00" xmlns="http://www.w3.org/2000/svg" xmlns:xlink="http://www.w3.org/1999/xlink">
<g id="graph0" class="graph" transform="scale(1 1) rotate(0) translate(4 84)">
<title>org.cobbzilla.util.xml.TidyUtil.removeElement</title>
<!-- Node1 -->
<g id="node1" class="node">
<title>Node1</title>
<polygon fill="#bfbfbf" stroke="#000000" points="0,-24.5 0,-54.5 128,-54.5 128,-24.5 0,-24.5"/>
<text text-anchor="start" x="8" y="-42.5" font-family="Helvetica,sans-Serif" font-size="10.00" fill="#000000">org.cobbzilla.util.xml.Tidy</text>
<text text-anchor="middle" x="64" y="-31.5" font-family="Helvetica,sans-Serif" font-size="10.00" fill="#000000">Util.removeElement</text>
</g>
<!-- Node2 -->
<g id="node2" class="node">
<title>Node2</title>
<g id="a_node2"><a xlink:href="../../d2/d89/classorg_1_1cobbzilla_1_1util_1_1xml_1_1TidyUtil_a3994f6373ca48fd696f9b49bee29da86.html#a3994f6373ca48fd696f9b49bee29da86" target="_top" xlink:title="org.cobbzilla.util.xml.Tidy\lUtil.parse">
<polygon fill="none" stroke="#000000" points="164,-24.5 164,-54.5 292,-54.5 292,-24.5 164,-24.5"/>
<text text-anchor="start" x="172" y="-42.5" font-family="Helvetica,sans-Serif" font-size="10.00" fill="#000000">org.cobbzilla.util.xml.Tidy</text>
<text text-anchor="middle" x="228" y="-31.5" font-family="Helvetica,sans-Serif" font-size="10.00" fill="#000000">Util.parse</text>
</a>
</g>
</g>
<!-- Node1&#45;&gt;Node2 -->
<g id="edge1" class="edge">
<title>Node1&#45;&gt;Node2</title>
<path fill="none" stroke="#191970" d="M138.5641,-39.5C147.0037,-39.5 155.5492,-39.5 163.8391,-39.5"/>
<polygon fill="#191970" stroke="#191970" points="138.3465,-36.0001 128.3464,-39.5 138.3464,-43.0001 138.3465,-36.0001"/>
</g>
<!-- Node3 -->
<g id="node3" class="node">
<title>Node3</title>
<g id="a_node3"><a xlink:href="../../dd/d36/classorg_1_1cobbzilla_1_1util_1_1xml_1_1XPathUtil_aeec439b2841ad394850449d35b6c3947.html#aeec439b2841ad394850449d35b6c3947" target="_top" xlink:title="org.cobbzilla.util.xml.XPath\lUtil.getDocument">
<polygon fill="none" stroke="#000000" points="328,-49.5 328,-79.5 464,-79.5 464,-49.5 328,-49.5"/>
<text text-anchor="start" x="336" y="-67.5" font-family="Helvetica,sans-Serif" font-size="10.00" fill="#000000">org.cobbzilla.util.xml.XPath</text>
<text text-anchor="middle" x="396" y="-56.5" font-family="Helvetica,sans-Serif" font-size="10.00" fill="#000000">Util.getDocument</text>
</a>
</g>
</g>
<!-- Node2&#45;&gt;Node3 -->
<g id="edge2" class="edge">
<title>Node2&#45;&gt;Node3</title>
<path fill="none" stroke="#191970" d="M302.6114,-50.6029C310.9934,-51.8502 319.5016,-53.1163 327.7966,-54.3507"/>
<polygon fill="#191970" stroke="#191970" points="302.879,-47.1042 292.4727,-49.0942 301.8486,-54.028 302.879,-47.1042"/>
</g>
<!-- Node4 -->
<g id="node4" class="node">
<title>Node4</title>
<g id="a_node4"><a xlink:href="../../d2/d89/classorg_1_1cobbzilla_1_1util_1_1xml_1_1TidyUtil_a5a97f8d52affdaa2c78b19e56afd42b4.html#a5a97f8d52affdaa2c78b19e56afd42b4" target="_top" xlink:title="org.cobbzilla.util.xml.Tidy\lUtil.tidy">
<polygon fill="none" stroke="#000000" points="332,-.5 332,-30.5 460,-30.5 460,-.5 332,-.5"/>
<text text-anchor="start" x="340" y="-18.5" font-family="Helvetica,sans-Serif" font-size="10.00" fill="#000000">org.cobbzilla.util.xml.Tidy</text>
<text text-anchor="middle" x="396" y="-7.5" font-family="Helvetica,sans-Serif" font-size="10.00" fill="#000000">Util.tidy</text>
</a>
</g>
</g>
<!-- Node2&#45;&gt;Node4 -->
<g id="edge3" class="edge">
<title>Node2&#45;&gt;Node4</title>
<path fill="none" stroke="#191970" d="M302.6004,-28.8428C312.4007,-27.4428 322.3738,-26.018 331.9772,-24.6461"/>
<polygon fill="#191970" stroke="#191970" points="301.8772,-25.4105 292.4727,-30.2896 302.8672,-32.3401 301.8772,-25.4105"/>
</g>
</g>
</svg>
