<?xml version="1.0" encoding="UTF-8" standalone="no"?>
<!DOCTYPE svg PUBLIC "-//W3C//DTD SVG 1.1//EN"
 "http://www.w3.org/Graphics/SVG/1.1/DTD/svg11.dtd">
<!-- Generated by graphviz version 2.40.1 (20161225.0304)
 -->
<!-- Title: org.cobbzilla.util.handlebars.WordDocxMerger.merge Pages: 1 -->
<svg width="767pt" height="204pt"
 viewBox="0.00 0.00 767.00 204.00" xmlns="http://www.w3.org/2000/svg" xmlns:xlink="http://www.w3.org/1999/xlink">
<g id="graph0" class="graph" transform="scale(1 1) rotate(0) translate(4 200)">
<title>org.cobbzilla.util.handlebars.WordDocxMerger.merge</title>
<!-- Node0 -->
<g id="node1" class="node">
<title>Node0</title>
<polygon fill="#bfbfbf" stroke="#000000" points="0,-116.5 0,-146.5 140,-146.5 140,-116.5 0,-116.5"/>
<text text-anchor="start" x="8" y="-134.5" font-family="Helvetica,sans-Serif" font-size="10.00" fill="#000000">org.cobbzilla.util.handlebars.</text>
<text text-anchor="middle" x="70" y="-123.5" font-family="Helvetica,sans-Serif" font-size="10.00" fill="#000000">WordDocxMerger.merge</text>
</g>
<!-- Node1 -->
<g id="node2" class="node">
<title>Node1</title>
<g id="a_node2"><a xlink:href="../../d0/d1b/classorg_1_1cobbzilla_1_1util_1_1handlebars_1_1HandlebarsUtil_a3798bc5bdea2ec45b6d6fe4e84e2caab.html#a3798bc5bdea2ec45b6d6fe4e84e2caab" target="_top" xlink:title="org.cobbzilla.util.handlebars.\lHandlebarsUtil.apply">
<polygon fill="none" stroke="#000000" points="203.5,-165.5 203.5,-195.5 343.5,-195.5 343.5,-165.5 203.5,-165.5"/>
<text text-anchor="start" x="211.5" y="-183.5" font-family="Helvetica,sans-Serif" font-size="10.00" fill="#000000">org.cobbzilla.util.handlebars.</text>
<text text-anchor="middle" x="273.5" y="-172.5" font-family="Helvetica,sans-Serif" font-size="10.00" fill="#000000">HandlebarsUtil.apply</text>
</a>
</g>
</g>
<!-- Node0&#45;&gt;Node1 -->
<g id="edge1" class="edge">
<title>Node0&#45;&gt;Node1</title>
<path fill="none" stroke="#191970" d="M132.4397,-146.5346C154.2194,-151.7789 178.8388,-157.7069 201.3428,-163.1255"/>
<polygon fill="#191970" stroke="#191970" points="200.6369,-166.5555 211.1784,-165.4938 202.2756,-159.75 200.6369,-166.5555"/>
</g>
<!-- Node2 -->
<g id="node3" class="node">
<title>Node2</title>
<g id="a_node3"><a xlink:href="../../db/dd4/classorg_1_1cobbzilla_1_1util_1_1xml_1_1TidyHandlebarsSpanMerger_a39d3f52fea602d93ca7d2d8b4423bf17.html#a39d3f52fea602d93ca7d2d8b4423bf17" target="_top" xlink:title="org.cobbzilla.util.xml.Tidy\lHandlebarsSpanMerger.scrubHandlebars">
<polygon fill="none" stroke="#000000" points="176,-116.5 176,-146.5 371,-146.5 371,-116.5 176,-116.5"/>
<text text-anchor="start" x="184" y="-134.5" font-family="Helvetica,sans-Serif" font-size="10.00" fill="#000000">org.cobbzilla.util.xml.Tidy</text>
<text text-anchor="middle" x="273.5" y="-123.5" font-family="Helvetica,sans-Serif" font-size="10.00" fill="#000000">HandlebarsSpanMerger.scrubHandlebars</text>
</a>
</g>
</g>
<!-- Node0&#45;&gt;Node2 -->
<g id="edge2" class="edge">
<title>Node0&#45;&gt;Node2</title>
<path fill="none" stroke="#191970" d="M140.0332,-131.5C148.2967,-131.5 156.8704,-131.5 165.5043,-131.5"/>
<polygon fill="#191970" stroke="#191970" points="165.6524,-135.0001 175.6523,-131.5 165.6523,-128.0001 165.6524,-135.0001"/>
</g>
<!-- Node5 -->
<g id="node6" class="node">
<title>Node5</title>
<g id="a_node6"><a xlink:href="../../df/dac/classorg_1_1cobbzilla_1_1util_1_1io_1_1FileUtil_a7bd7d6a564be7a6169daa8eb5b33e9b7.html#a7bd7d6a564be7a6169daa8eb5b33e9b7" target="_top" xlink:title="org.cobbzilla.util.io.File\lUtil.toFile">
<polygon fill="none" stroke="#000000" points="215.5,-49.5 215.5,-79.5 331.5,-79.5 331.5,-49.5 215.5,-49.5"/>
<text text-anchor="start" x="223.5" y="-67.5" font-family="Helvetica,sans-Serif" font-size="10.00" fill="#000000">org.cobbzilla.util.io.File</text>
<text text-anchor="middle" x="273.5" y="-56.5" font-family="Helvetica,sans-Serif" font-size="10.00" fill="#000000">Util.toFile</text>
</a>
</g>
</g>
<!-- Node0&#45;&gt;Node5 -->
<g id="edge5" class="edge">
<title>Node0&#45;&gt;Node5</title>
<path fill="none" stroke="#191970" d="M115.6694,-116.4639C145.936,-106.499 185.8303,-93.3642 217.9367,-82.7936"/>
<polygon fill="#191970" stroke="#191970" points="219.2276,-86.0535 227.6314,-79.6017 217.0384,-79.4046 219.2276,-86.0535"/>
</g>
<!-- Node3 -->
<g id="node4" class="node">
<title>Node3</title>
<g id="a_node4"><a xlink:href="../../db/dd4/classorg_1_1cobbzilla_1_1util_1_1xml_1_1TidyHandlebarsSpanMerger_a164345e18c56a9955a43c9a699c7109d.html#a164345e18c56a9955a43c9a699c7109d" target="_top" xlink:title="org.cobbzilla.util.xml.Tidy\lHandlebarsSpanMerger.append">
<polygon fill="none" stroke="#000000" points="430.5,-165.5 430.5,-195.5 583.5,-195.5 583.5,-165.5 430.5,-165.5"/>
<text text-anchor="start" x="438.5" y="-183.5" font-family="Helvetica,sans-Serif" font-size="10.00" fill="#000000">org.cobbzilla.util.xml.Tidy</text>
<text text-anchor="middle" x="507" y="-172.5" font-family="Helvetica,sans-Serif" font-size="10.00" fill="#000000">HandlebarsSpanMerger.append</text>
</a>
</g>
</g>
<!-- Node2&#45;&gt;Node3 -->
<g id="edge3" class="edge">
<title>Node2&#45;&gt;Node3</title>
<path fill="none" stroke="#191970" d="M345.1445,-146.5346C370.5833,-151.873 399.3983,-157.9198 425.5925,-163.4166"/>
<polygon fill="#191970" stroke="#191970" points="424.9853,-166.8654 435.4909,-165.4938 426.4229,-160.0146 424.9853,-166.8654"/>
</g>
<!-- Node4 -->
<g id="node5" class="node">
<title>Node4</title>
<g id="a_node5"><a xlink:href="../../db/dd4/classorg_1_1cobbzilla_1_1util_1_1xml_1_1TidyHandlebarsSpanMerger_a2de8882eeb946f3c043968e92d865d11.html#a2de8882eeb946f3c043968e92d865d11" target="_top" xlink:title="org.cobbzilla.util.xml.Tidy\lHandlebarsSpanMerger.scrubHtmlEntities">
<polygon fill="none" stroke="#000000" points="407,-116.5 407,-146.5 607,-146.5 607,-116.5 407,-116.5"/>
<text text-anchor="start" x="415" y="-134.5" font-family="Helvetica,sans-Serif" font-size="10.00" fill="#000000">org.cobbzilla.util.xml.Tidy</text>
<text text-anchor="middle" x="507" y="-123.5" font-family="Helvetica,sans-Serif" font-size="10.00" fill="#000000">HandlebarsSpanMerger.scrubHtmlEntities</text>
</a>
</g>
</g>
<!-- Node2&#45;&gt;Node4 -->
<g id="edge4" class="edge">
<title>Node2&#45;&gt;Node4</title>
<path fill="none" stroke="#191970" d="M371.1721,-131.5C379.5236,-131.5 388.0091,-131.5 396.4512,-131.5"/>
<polygon fill="#191970" stroke="#191970" points="396.7153,-135.0001 406.7152,-131.5 396.7152,-128.0001 396.7153,-135.0001"/>
</g>
<!-- Node6 -->
<g id="node7" class="node">
<title>Node6</title>
<g id="a_node7"><a xlink:href="../../df/dac/classorg_1_1cobbzilla_1_1util_1_1io_1_1FileUtil_a43aac0bb53ce0212efc2e57cb1024722.html#a43aac0bb53ce0212efc2e57cb1024722" target="_top" xlink:title="org.cobbzilla.util.io.File\lUtil.temp">
<polygon fill="none" stroke="#000000" points="449,-49.5 449,-79.5 565,-79.5 565,-49.5 449,-49.5"/>
<text text-anchor="start" x="457" y="-67.5" font-family="Helvetica,sans-Serif" font-size="10.00" fill="#000000">org.cobbzilla.util.io.File</text>
<text text-anchor="middle" x="507" y="-56.5" font-family="Helvetica,sans-Serif" font-size="10.00" fill="#000000">Util.temp</text>
</a>
</g>
</g>
<!-- Node5&#45;&gt;Node6 -->
<g id="edge6" class="edge">
<title>Node5&#45;&gt;Node6</title>
<path fill="none" stroke="#191970" d="M331.5191,-64.5C363.9562,-64.5 404.5717,-64.5 438.5569,-64.5"/>
<polygon fill="#191970" stroke="#191970" points="438.8748,-68.0001 448.8747,-64.5 438.8747,-61.0001 438.8748,-68.0001"/>
</g>
<!-- Node7 -->
<g id="node8" class="node">
<title>Node7</title>
<g id="a_node8"><a xlink:href="../../df/dac/classorg_1_1cobbzilla_1_1util_1_1io_1_1FileUtil_a10f84be9d8fbe17dad8bf91e5e68b699.html#a10f84be9d8fbe17dad8bf91e5e68b699" target="_top" xlink:title="org.cobbzilla.util.io.File\lUtil.getDefaultTempDir">
<polygon fill="none" stroke="#000000" points="448.5,-.5 448.5,-30.5 565.5,-30.5 565.5,-.5 448.5,-.5"/>
<text text-anchor="start" x="456.5" y="-18.5" font-family="Helvetica,sans-Serif" font-size="10.00" fill="#000000">org.cobbzilla.util.io.File</text>
<text text-anchor="middle" x="507" y="-7.5" font-family="Helvetica,sans-Serif" font-size="10.00" fill="#000000">Util.getDefaultTempDir</text>
</a>
</g>
</g>
<!-- Node5&#45;&gt;Node7 -->
<g id="edge8" class="edge">
<title>Node5&#45;&gt;Node7</title>
<path fill="none" stroke="#191970" d="M331.5191,-52.3247C363.973,-45.5142 404.614,-36.9857 438.6099,-29.8517"/>
<polygon fill="#191970" stroke="#191970" points="439.4009,-33.262 448.4689,-27.7828 437.9632,-26.4112 439.4009,-33.262"/>
</g>
<!-- Node6&#45;&gt;Node6 -->
<g id="edge7" class="edge">
<title>Node6&#45;&gt;Node6</title>
<path fill="none" stroke="#191970" d="M473.1915,-79.659C465.0391,-89.0566 476.3086,-98 507,-98 525.7026,-98 537.1931,-94.679 541.4715,-89.9579"/>
<polygon fill="#191970" stroke="#191970" points="544.9438,-89.4135 540.8085,-79.659 537.9582,-89.8632 544.9438,-89.4135"/>
</g>
<!-- Node8 -->
<g id="node9" class="node">
<title>Node8</title>
<g id="a_node9"><a xlink:href="../../df/dac/classorg_1_1cobbzilla_1_1util_1_1io_1_1FileUtil_a53028c20e45f972c04978ac736e5c39c.html#a53028c20e45f972c04978ac736e5c39c" target="_top" xlink:title="org.cobbzilla.util.io.File\lUtil.mkdirOrDie">
<polygon fill="none" stroke="#000000" points="643,-.5 643,-30.5 759,-30.5 759,-.5 643,-.5"/>
<text text-anchor="start" x="651" y="-18.5" font-family="Helvetica,sans-Serif" font-size="10.00" fill="#000000">org.cobbzilla.util.io.File</text>
<text text-anchor="middle" x="701" y="-7.5" font-family="Helvetica,sans-Serif" font-size="10.00" fill="#000000">Util.mkdirOrDie</text>
</a>
</g>
</g>
<!-- Node7&#45;&gt;Node8 -->
<g id="edge9" class="edge">
<title>Node7&#45;&gt;Node8</title>
<path fill="none" stroke="#191970" d="M565.7329,-15.5C586.817,-15.5 610.7739,-15.5 632.6072,-15.5"/>
<polygon fill="#191970" stroke="#191970" points="632.8008,-19.0001 642.8008,-15.5 632.8008,-12.0001 632.8008,-19.0001"/>
</g>
<!-- Node8&#45;&gt;Node8 -->
<g id="edge10" class="edge">
<title>Node8&#45;&gt;Node8</title>
<path fill="none" stroke="#191970" d="M667.1915,-30.659C659.0391,-40.0566 670.3086,-49 701,-49 719.7026,-49 731.1931,-45.679 735.4715,-40.9579"/>
<polygon fill="#191970" stroke="#191970" points="738.9438,-40.4135 734.8085,-30.659 731.9582,-40.8632 738.9438,-40.4135"/>
</g>
</g>
</svg>
