<?xml version="1.0" encoding="UTF-8" standalone="no"?>
<!DOCTYPE svg PUBLIC "-//W3C//DTD SVG 1.1//EN"
 "http://www.w3.org/Graphics/SVG/1.1/DTD/svg11.dtd">
<!-- Generated by graphviz version 2.40.1 (20161225.0304)
 -->
<!-- Title: org.cobbzilla.util.collection.multi.MultiResult Pages: 1 -->
<svg width="236pt" height="353pt"
 viewBox="0.00 0.00 236.00 353.00" xmlns="http://www.w3.org/2000/svg" xmlns:xlink="http://www.w3.org/1999/xlink">
<g id="graph0" class="graph" transform="scale(1 1) rotate(0) translate(4 349)">
<title>org.cobbzilla.util.collection.multi.MultiResult</title>
<!-- Node1 -->
<g id="node1" class="node">
<title>Node1</title>
<polygon fill="#bfbfbf" stroke="#000000" points="14,-.5 14,-134.5 172,-134.5 172,-.5 14,-.5"/>
<text text-anchor="start" x="22" y="-122.5" font-family="Helvetica,sans-Serif" font-size="10.00" fill="#000000">org.cobbzilla.util.collection.multi.</text>
<text text-anchor="middle" x="93" y="-111.5" font-family="Helvetica,sans-Serif" font-size="10.00" fill="#000000">MultiResult</text>
<polyline fill="none" stroke="#000000" points="14,-104.5 172,-104.5 "/>
<text text-anchor="middle" x="93" y="-92.5" font-family="Helvetica,sans-Serif" font-size="10.00" fill="#000000"> </text>
<polyline fill="none" stroke="#000000" points="14,-85.5 172,-85.5 "/>
<text text-anchor="start" x="22" y="-73.5" font-family="Helvetica,sans-Serif" font-size="10.00" fill="#000000">+ successCount()</text>
<text text-anchor="start" x="22" y="-62.5" font-family="Helvetica,sans-Serif" font-size="10.00" fill="#000000">+ failCount()</text>
<text text-anchor="start" x="22" y="-51.5" font-family="Helvetica,sans-Serif" font-size="10.00" fill="#000000">+ success()</text>
<text text-anchor="start" x="22" y="-40.5" font-family="Helvetica,sans-Serif" font-size="10.00" fill="#000000">+ fail()</text>
<text text-anchor="start" x="22" y="-29.5" font-family="Helvetica,sans-Serif" font-size="10.00" fill="#000000">+ hasFailures()</text>
<text text-anchor="start" x="22" y="-18.5" font-family="Helvetica,sans-Serif" font-size="10.00" fill="#000000">+ getHeader()</text>
<text text-anchor="start" x="22" y="-7.5" font-family="Helvetica,sans-Serif" font-size="10.00" fill="#000000">+ toString()</text>
</g>
<!-- Node2 -->
<g id="node2" class="node">
<title>Node2</title>
<polygon fill="none" stroke="#bfbfbf" points="0,-182.5 0,-239.5 76,-239.5 76,-182.5 0,-182.5"/>
<text text-anchor="middle" x="38" y="-227.5" font-family="Helvetica,sans-Serif" font-size="10.00" fill="#000000">List&lt; String &gt;</text>
<polyline fill="none" stroke="#bfbfbf" points="0,-220.5 76,-220.5 "/>
<text text-anchor="middle" x="38" y="-208.5" font-family="Helvetica,sans-Serif" font-size="10.00" fill="#000000"> </text>
<polyline fill="none" stroke="#bfbfbf" points="0,-201.5 76,-201.5 "/>
<text text-anchor="middle" x="38" y="-189.5" font-family="Helvetica,sans-Serif" font-size="10.00" fill="#000000"> </text>
</g>
<!-- Node2&#45;&gt;Node1 -->
<g id="edge1" class="edge">
<title>Node2&#45;&gt;Node1</title>
<path fill="none" stroke="#404040" d="M48.9979,-182.3055C53.0712,-171.6778 57.9111,-159.0502 62.866,-146.1222"/>
<polygon fill="none" stroke="#404040" points="62.9389,-145.9319 61.3512,-138.8977 67.2337,-134.7267 68.8214,-141.7609 62.9389,-145.9319"/>
<text text-anchor="middle" x="87.5" y="-156" font-family="Helvetica,sans-Serif" font-size="10.00" fill="#000000"> +successes</text>
</g>
<!-- Node3 -->
<g id="node3" class="node">
<title>Node3</title>
<polygon fill="none" stroke="#bfbfbf" points="22,-287.5 22,-344.5 54,-344.5 54,-287.5 22,-287.5"/>
<text text-anchor="middle" x="38" y="-332.5" font-family="Helvetica,sans-Serif" font-size="10.00" fill="#000000">List</text>
<polyline fill="none" stroke="#bfbfbf" points="22,-325.5 54,-325.5 "/>
<text text-anchor="middle" x="38" y="-313.5" font-family="Helvetica,sans-Serif" font-size="10.00" fill="#000000"> </text>
<polyline fill="none" stroke="#bfbfbf" points="22,-306.5 54,-306.5 "/>
<text text-anchor="middle" x="38" y="-294.5" font-family="Helvetica,sans-Serif" font-size="10.00" fill="#000000"> </text>
</g>
<!-- Node3&#45;&gt;Node2 -->
<g id="edge2" class="edge">
<title>Node3&#45;&gt;Node2</title>
<path fill="none" stroke="#ffa500" d="M38,-277.192C38,-264.7605 38,-251.2278 38,-239.657"/>
<polygon fill="#ffa500" stroke="#ffa500" points="34.5001,-277.3083 38,-287.3083 41.5001,-277.3083 34.5001,-277.3083"/>
<text text-anchor="middle" x="61.5" y="-261" font-family="Helvetica,sans-Serif" font-size="10.00" fill="#000000"> &lt; String &gt;</text>
</g>
<!-- Node4 -->
<g id="node4" class="node">
<title>Node4</title>
<polygon fill="none" stroke="#bfbfbf" points="94,-182.5 94,-239.5 204,-239.5 204,-182.5 94,-182.5"/>
<text text-anchor="middle" x="149" y="-227.5" font-family="Helvetica,sans-Serif" font-size="10.00" fill="#000000">Map&lt; String, String &gt;</text>
<polyline fill="none" stroke="#bfbfbf" points="94,-220.5 204,-220.5 "/>
<text text-anchor="middle" x="149" y="-208.5" font-family="Helvetica,sans-Serif" font-size="10.00" fill="#000000"> </text>
<polyline fill="none" stroke="#bfbfbf" points="94,-201.5 204,-201.5 "/>
<text text-anchor="middle" x="149" y="-189.5" font-family="Helvetica,sans-Serif" font-size="10.00" fill="#000000"> </text>
</g>
<!-- Node4&#45;&gt;Node1 -->
<g id="edge3" class="edge">
<title>Node4&#45;&gt;Node1</title>
<path fill="none" stroke="#404040" d="M137.8022,-182.3055C133.6548,-171.6778 128.7269,-159.0502 123.6818,-146.1222"/>
<polygon fill="none" stroke="#404040" points="123.5974,-145.9056 117.6898,-141.7703 119.2348,-134.7267 125.1424,-138.862 123.5974,-145.9056"/>
<text text-anchor="middle" x="150.5" y="-156" font-family="Helvetica,sans-Serif" font-size="10.00" fill="#000000"> +failures</text>
</g>
<!-- Node5 -->
<g id="node5" class="node">
<title>Node5</title>
<polygon fill="none" stroke="#bfbfbf" points="131.5,-287.5 131.5,-344.5 166.5,-344.5 166.5,-287.5 131.5,-287.5"/>
<text text-anchor="middle" x="149" y="-332.5" font-family="Helvetica,sans-Serif" font-size="10.00" fill="#000000">Map</text>
<polyline fill="none" stroke="#bfbfbf" points="131.5,-325.5 166.5,-325.5 "/>
<text text-anchor="middle" x="149" y="-313.5" font-family="Helvetica,sans-Serif" font-size="10.00" fill="#000000"> </text>
<polyline fill="none" stroke="#bfbfbf" points="131.5,-306.5 166.5,-306.5 "/>
<text text-anchor="middle" x="149" y="-294.5" font-family="Helvetica,sans-Serif" font-size="10.00" fill="#000000"> </text>
</g>
<!-- Node5&#45;&gt;Node4 -->
<g id="edge4" class="edge">
<title>Node5&#45;&gt;Node4</title>
<path fill="none" stroke="#ffa500" d="M149,-277.192C149,-264.7605 149,-251.2278 149,-239.657"/>
<polygon fill="#ffa500" stroke="#ffa500" points="145.5001,-277.3083 149,-287.3083 152.5001,-277.3083 145.5001,-277.3083"/>
<text text-anchor="middle" x="188.5" y="-261" font-family="Helvetica,sans-Serif" font-size="10.00" fill="#000000"> &lt; String, String &gt;</text>
</g>
</g>
</svg>
