<?xml version="1.0" encoding="UTF-8" standalone="no"?>
<!DOCTYPE svg PUBLIC "-//W3C//DTD SVG 1.1//EN"
 "http://www.w3.org/Graphics/SVG/1.1/DTD/svg11.dtd">
<!-- Generated by graphviz version 2.40.1 (20161225.0304)
 -->
<!-- Title: org.cobbzilla.util.xml.XPath2 Pages: 1 -->
<svg width="444pt" height="419pt"
 viewBox="0.00 0.00 443.50 419.00" xmlns="http://www.w3.org/2000/svg" xmlns:xlink="http://www.w3.org/1999/xlink">
<g id="graph0" class="graph" transform="scale(1 1) rotate(0) translate(4 415)">
<title>org.cobbzilla.util.xml.XPath2</title>
<!-- Node1 -->
<g id="node1" class="node">
<title>Node1</title>
<polygon fill="#bfbfbf" stroke="#000000" points="197.5,-.5 197.5,-178.5 338.5,-178.5 338.5,-.5 197.5,-.5"/>
<text text-anchor="middle" x="268" y="-166.5" font-family="Helvetica,sans-Serif" font-size="10.00" fill="#000000">org.cobbzilla.util.xml.XPath2</text>
<polyline fill="none" stroke="#000000" points="197.5,-159.5 338.5,-159.5 "/>
<text text-anchor="middle" x="268" y="-147.5" font-family="Helvetica,sans-Serif" font-size="10.00" fill="#000000"> </text>
<polyline fill="none" stroke="#000000" points="197.5,-140.5 338.5,-140.5 "/>
<text text-anchor="start" x="205.5" y="-128.5" font-family="Helvetica,sans-Serif" font-size="10.00" fill="#000000">+ XPath2()</text>
<text text-anchor="start" x="205.5" y="-117.5" font-family="Helvetica,sans-Serif" font-size="10.00" fill="#000000">+ firstMatches()</text>
<text text-anchor="start" x="205.5" y="-106.5" font-family="Helvetica,sans-Serif" font-size="10.00" fill="#000000">+ firstMatches()</text>
<text text-anchor="start" x="205.5" y="-95.5" font-family="Helvetica,sans-Serif" font-size="10.00" fill="#000000">+ firstMatch()</text>
<text text-anchor="start" x="205.5" y="-84.5" font-family="Helvetica,sans-Serif" font-size="10.00" fill="#000000">+ matchElement()</text>
<text text-anchor="start" x="205.5" y="-73.5" font-family="Helvetica,sans-Serif" font-size="10.00" fill="#000000">+ matchElements()</text>
<text text-anchor="start" x="205.5" y="-62.5" font-family="Helvetica,sans-Serif" font-size="10.00" fill="#000000">+ matchElements()</text>
<text text-anchor="start" x="205.5" y="-51.5" font-family="Helvetica,sans-Serif" font-size="10.00" fill="#000000">+ xpath()</text>
<text text-anchor="start" x="205.5" y="-40.5" font-family="Helvetica,sans-Serif" font-size="10.00" fill="#000000">+ xpath()</text>
<text text-anchor="start" x="205.5" y="-29.5" font-family="Helvetica,sans-Serif" font-size="10.00" fill="#000000">&#45; initXpathFactory()</text>
<text text-anchor="start" x="205.5" y="-18.5" font-family="Helvetica,sans-Serif" font-size="10.00" fill="#000000">&#45; initXPath()</text>
<text text-anchor="start" x="205.5" y="-7.5" font-family="Helvetica,sans-Serif" font-size="10.00" fill="#000000">&#45; sysinit()</text>
</g>
<!-- Node2 -->
<g id="node2" class="node">
<title>Node2</title>
<polygon fill="none" stroke="#bfbfbf" points="0,-226.5 0,-294.5 168,-294.5 168,-226.5 0,-226.5"/>
<text text-anchor="start" x="8" y="-282.5" font-family="Helvetica,sans-Serif" font-size="10.00" fill="#000000">Map&lt; String, org.cobbzilla.util.xml.</text>
<text text-anchor="middle" x="84" y="-271.5" font-family="Helvetica,sans-Serif" font-size="10.00" fill="#000000">XPath2.Path &gt;</text>
<polyline fill="none" stroke="#bfbfbf" points="0,-264.5 168,-264.5 "/>
<text text-anchor="middle" x="84" y="-252.5" font-family="Helvetica,sans-Serif" font-size="10.00" fill="#000000"> </text>
<polyline fill="none" stroke="#bfbfbf" points="0,-245.5 168,-245.5 "/>
<text text-anchor="middle" x="84" y="-233.5" font-family="Helvetica,sans-Serif" font-size="10.00" fill="#000000"> </text>
</g>
<!-- Node2&#45;&gt;Node1 -->
<g id="edge1" class="edge">
<title>Node2&#45;&gt;Node1</title>
<path fill="none" stroke="#404040" d="M120.7929,-226.3066C140.2288,-208.2439 164.881,-185.3334 188.427,-163.451"/>
<polygon fill="none" stroke="#404040" points="188.5938,-163.296 190.2658,-156.2814 197.3839,-155.1269 195.7119,-162.1415 188.5938,-163.296"/>
<text text-anchor="middle" x="167" y="-200" font-family="Helvetica,sans-Serif" font-size="10.00" fill="#000000"> &#45;xpaths</text>
</g>
<!-- Node3 -->
<g id="node3" class="node">
<title>Node3</title>
<polygon fill="none" stroke="#bfbfbf" points="66.5,-353.5 66.5,-410.5 101.5,-410.5 101.5,-353.5 66.5,-353.5"/>
<text text-anchor="middle" x="84" y="-398.5" font-family="Helvetica,sans-Serif" font-size="10.00" fill="#000000">Map</text>
<polyline fill="none" stroke="#bfbfbf" points="66.5,-391.5 101.5,-391.5 "/>
<text text-anchor="middle" x="84" y="-379.5" font-family="Helvetica,sans-Serif" font-size="10.00" fill="#000000"> </text>
<polyline fill="none" stroke="#bfbfbf" points="66.5,-372.5 101.5,-372.5 "/>
<text text-anchor="middle" x="84" y="-360.5" font-family="Helvetica,sans-Serif" font-size="10.00" fill="#000000"> </text>
</g>
<!-- Node3&#45;&gt;Node2 -->
<g id="edge2" class="edge">
<title>Node3&#45;&gt;Node2</title>
<path fill="none" stroke="#ffa500" d="M84,-342.8733C84,-327.3628 84,-309.6896 84,-294.7007"/>
<polygon fill="#ffa500" stroke="#ffa500" points="80.5001,-343.2062 84,-353.2062 87.5001,-343.2062 80.5001,-343.2062"/>
<text text-anchor="start" x="84" y="-327" font-family="Helvetica,sans-Serif" font-size="10.00" fill="#000000"> &lt; String, org::cobbzilla</text>
<text text-anchor="middle" x="141.5" y="-316" font-family="Helvetica,sans-Serif" font-size="10.00" fill="#000000">::util::xml::XPath2::Path &gt;</text>
</g>
<!-- Node4 -->
<g id="node4" class="node">
<title>Node4</title>
<polygon fill="none" stroke="#bfbfbf" points="186.5,-232 186.5,-289 263.5,-289 263.5,-232 186.5,-232"/>
<text text-anchor="middle" x="225" y="-277" font-family="Helvetica,sans-Serif" font-size="10.00" fill="#000000">XPathFactory</text>
<polyline fill="none" stroke="#bfbfbf" points="186.5,-270 263.5,-270 "/>
<text text-anchor="middle" x="225" y="-258" font-family="Helvetica,sans-Serif" font-size="10.00" fill="#000000"> </text>
<polyline fill="none" stroke="#bfbfbf" points="186.5,-251 263.5,-251 "/>
<text text-anchor="middle" x="225" y="-239" font-family="Helvetica,sans-Serif" font-size="10.00" fill="#000000"> </text>
</g>
<!-- Node4&#45;&gt;Node1 -->
<g id="edge3" class="edge">
<title>Node4&#45;&gt;Node1</title>
<path fill="none" stroke="#404040" d="M223.2998,-231.8246C223.2085,-220.841 223.7882,-208.2514 226,-197 226.4306,-194.8097 226.9032,-192.6064 227.4134,-190.3954"/>
<polygon fill="none" stroke="#404040" points="227.4772,-190.1479 225.1029,-183.3389 230.475,-178.5284 232.8493,-185.3374 227.4772,-190.1479"/>
<text text-anchor="middle" x="258" y="-200" font-family="Helvetica,sans-Serif" font-size="10.00" fill="#000000"> &#45;xpathFactory</text>
</g>
<!-- Node5 -->
<g id="node5" class="node">
<title>Node5</title>
<polygon fill="none" stroke="#bfbfbf" points="290,-232 290,-289 334,-289 334,-232 290,-232"/>
<text text-anchor="middle" x="312" y="-277" font-family="Helvetica,sans-Serif" font-size="10.00" fill="#000000">XPath</text>
<polyline fill="none" stroke="#bfbfbf" points="290,-270 334,-270 "/>
<text text-anchor="middle" x="312" y="-258" font-family="Helvetica,sans-Serif" font-size="10.00" fill="#000000"> </text>
<polyline fill="none" stroke="#bfbfbf" points="290,-251 334,-251 "/>
<text text-anchor="middle" x="312" y="-239" font-family="Helvetica,sans-Serif" font-size="10.00" fill="#000000"> </text>
</g>
<!-- Node5&#45;&gt;Node1 -->
<g id="edge4" class="edge">
<title>Node5&#45;&gt;Node1</title>
<path fill="none" stroke="#404040" d="M304.6354,-231.8784C301.5942,-220.0592 297.8701,-205.5859 293.974,-190.4443"/>
<polygon fill="none" stroke="#404040" points="293.9599,-190.3894 288.5909,-185.5755 290.9695,-178.768 296.3385,-183.5819 293.9599,-190.3894"/>
<text text-anchor="middle" x="313" y="-200" font-family="Helvetica,sans-Serif" font-size="10.00" fill="#000000"> &#45;xPath</text>
</g>
<!-- Node6 -->
<g id="node6" class="node">
<title>Node6</title>
<polygon fill="none" stroke="#bfbfbf" points="352.5,-232 352.5,-289 435.5,-289 435.5,-232 352.5,-232"/>
<text text-anchor="middle" x="394" y="-277" font-family="Helvetica,sans-Serif" font-size="10.00" fill="#000000">AtomicBoolean</text>
<polyline fill="none" stroke="#bfbfbf" points="352.5,-270 435.5,-270 "/>
<text text-anchor="middle" x="394" y="-258" font-family="Helvetica,sans-Serif" font-size="10.00" fill="#000000"> </text>
<polyline fill="none" stroke="#bfbfbf" points="352.5,-251 435.5,-251 "/>
<text text-anchor="middle" x="394" y="-239" font-family="Helvetica,sans-Serif" font-size="10.00" fill="#000000"> </text>
</g>
<!-- Node6&#45;&gt;Node1 -->
<g id="edge5" class="edge">
<title>Node6&#45;&gt;Node1</title>
<path fill="none" stroke="#404040" d="M372.9104,-231.8784C363.86,-219.5957 352.6976,-204.4467 341.0652,-188.66"/>
<polygon fill="none" stroke="#404040" points="340.8948,-188.4287 334.1154,-185.9711 333.7764,-178.768 340.5559,-181.2255 340.8948,-188.4287"/>
<text text-anchor="middle" x="376.5" y="-200" font-family="Helvetica,sans-Serif" font-size="10.00" fill="#000000"> &#45;initialized</text>
</g>
</g>
</svg>
