<?xml version="1.0" encoding="UTF-8" standalone="no"?>
<!DOCTYPE svg PUBLIC "-//W3C//DTD SVG 1.1//EN"
 "http://www.w3.org/Graphics/SVG/1.1/DTD/svg11.dtd">
<!-- Generated by graphviz version 2.40.1 (20161225.0304)
 -->
<!-- Title: org.cobbzilla.util.cron.CronJob.getCommandInstance Pages: 1 -->
<svg width="320pt" height="88pt"
 viewBox="0.00 0.00 320.00 88.00" xmlns="http://www.w3.org/2000/svg" xmlns:xlink="http://www.w3.org/1999/xlink">
<g id="graph0" class="graph" transform="scale(1 1) rotate(0) translate(4 84)">
<title>org.cobbzilla.util.cron.CronJob.getCommandInstance</title>
<!-- Node0 -->
<g id="node1" class="node">
<title>Node0</title>
<polygon fill="#bfbfbf" stroke="#000000" points="0,-24.5 0,-54.5 152,-54.5 152,-24.5 0,-24.5"/>
<text text-anchor="start" x="8" y="-42.5" font-family="Helvetica,sans-Serif" font-size="10.00" fill="#000000">org.cobbzilla.util.cron.</text>
<text text-anchor="middle" x="76" y="-31.5" font-family="Helvetica,sans-Serif" font-size="10.00" fill="#000000">CronJob.getCommandInstance</text>
</g>
<!-- Node1 -->
<g id="node2" class="node">
<title>Node1</title>
<g id="a_node2"><a xlink:href="../../db/d63/interfaceorg_1_1cobbzilla_1_1util_1_1cron_1_1CronCommand_a5da20ade0e586da54eaed7d3756c38ed.html#a5da20ade0e586da54eaed7d3756c38ed" target="_top" xlink:title="org.cobbzilla.util.cron.\lCronCommand.init">
<polygon fill="none" stroke="#000000" points="194,-49.5 194,-79.5 306,-79.5 306,-49.5 194,-49.5"/>
<text text-anchor="start" x="202" y="-67.5" font-family="Helvetica,sans-Serif" font-size="10.00" fill="#000000">org.cobbzilla.util.cron.</text>
<text text-anchor="middle" x="250" y="-56.5" font-family="Helvetica,sans-Serif" font-size="10.00" fill="#000000">CronCommand.init</text>
</a>
</g>
</g>
<!-- Node0&#45;&gt;Node1 -->
<g id="edge1" class="edge">
<title>Node0&#45;&gt;Node1</title>
<path fill="none" stroke="#191970" d="M152.0658,-50.429C162.6279,-51.9465 173.4085,-53.4955 183.7714,-54.9844"/>
<polygon fill="#191970" stroke="#191970" points="183.5755,-58.4921 193.9716,-56.4499 184.571,-51.5633 183.5755,-58.4921"/>
</g>
<!-- Node2 -->
<g id="node3" class="node">
<title>Node2</title>
<g id="a_node3"><a xlink:href="../../de/d45/classorg_1_1cobbzilla_1_1util_1_1reflect_1_1ReflectionUtil_af6f8b7bb888cb263ced2fda7d1e06007.html#af6f8b7bb888cb263ced2fda7d1e06007" target="_top" xlink:title="Create an instance of a class, only throwing unchecked exceptions. ">
<polygon fill="none" stroke="#000000" points="188,-.5 188,-30.5 312,-30.5 312,-.5 188,-.5"/>
<text text-anchor="start" x="196" y="-18.5" font-family="Helvetica,sans-Serif" font-size="10.00" fill="#000000">org.cobbzilla.util.reflect.</text>
<text text-anchor="middle" x="250" y="-7.5" font-family="Helvetica,sans-Serif" font-size="10.00" fill="#000000">ReflectionUtil.instantiate</text>
</a>
</g>
</g>
<!-- Node0&#45;&gt;Node2 -->
<g id="edge2" class="edge">
<title>Node0&#45;&gt;Node2</title>
<path fill="none" stroke="#191970" d="M152.0658,-29.0082C160.6761,-27.8205 169.4315,-26.6129 177.9876,-25.4327"/>
<polygon fill="#191970" stroke="#191970" points="178.4915,-28.8965 187.9194,-24.0628 177.5349,-21.9621 178.4915,-28.8965"/>
</g>
</g>
</svg>
