<?xml version="1.0" encoding="UTF-8" standalone="no"?>
<!DOCTYPE svg PUBLIC "-//W3C//DTD SVG 1.1//EN"
 "http://www.w3.org/Graphics/SVG/1.1/DTD/svg11.dtd">
<!-- Generated by graphviz version 2.40.1 (20161225.0304)
 -->
<!-- Title: org.cobbzilla.util.collection.CaseInsensitiveStringKeyMap.put Pages: 1 -->
<svg width="465pt" height="88pt"
 viewBox="0.00 0.00 465.00 88.00" xmlns="http://www.w3.org/2000/svg" xmlns:xlink="http://www.w3.org/1999/xlink">
<g id="graph0" class="graph" transform="scale(1 1) rotate(0) translate(4 84)">
<title>org.cobbzilla.util.collection.CaseInsensitiveStringKeyMap.put</title>
<!-- Node1 -->
<g id="node1" class="node">
<title>Node1</title>
<polygon fill="#bfbfbf" stroke="#000000" points="0,-24.5 0,-54.5 165,-54.5 165,-24.5 0,-24.5"/>
<text text-anchor="start" x="8" y="-42.5" font-family="Helvetica,sans-Serif" font-size="10.00" fill="#000000">org.cobbzilla.util.collection.</text>
<text text-anchor="middle" x="82.5" y="-31.5" font-family="Helvetica,sans-Serif" font-size="10.00" fill="#000000">CaseInsensitiveStringKeyMap.put</text>
</g>
<!-- Node2 -->
<g id="node2" class="node">
<title>Node2</title>
<g id="a_node2"><a xlink:href="../../da/d50/classorg_1_1cobbzilla_1_1util_1_1http_1_1CookieJar_a7e7511d898fb571e625be6cc1a066e71.html#a7e7511d898fb571e625be6cc1a066e71" target="_top" xlink:title="org.cobbzilla.util.http.\lCookieJar.add">
<polygon fill="none" stroke="#000000" points="201,-24.5 201,-54.5 311,-54.5 311,-24.5 201,-24.5"/>
<text text-anchor="start" x="209" y="-42.5" font-family="Helvetica,sans-Serif" font-size="10.00" fill="#000000">org.cobbzilla.util.http.</text>
<text text-anchor="middle" x="256" y="-31.5" font-family="Helvetica,sans-Serif" font-size="10.00" fill="#000000">CookieJar.add</text>
</a>
</g>
</g>
<!-- Node1&#45;&gt;Node2 -->
<g id="edge1" class="edge">
<title>Node1&#45;&gt;Node2</title>
<path fill="none" stroke="#191970" d="M175.3516,-39.5C183.9979,-39.5 192.5631,-39.5 200.7011,-39.5"/>
<polygon fill="#191970" stroke="#191970" points="175.185,-36.0001 165.1849,-39.5 175.1849,-43.0001 175.185,-36.0001"/>
</g>
<!-- Node3 -->
<g id="node3" class="node">
<title>Node3</title>
<g id="a_node3"><a xlink:href="../../da/d50/classorg_1_1cobbzilla_1_1util_1_1http_1_1CookieJar_a6c946c7bd92da7f4f33e7e026b27cb23.html#a6c946c7bd92da7f4f33e7e026b27cb23" target="_top" xlink:title="org.cobbzilla.util.http.\lCookieJar.CookieJar">
<polygon fill="none" stroke="#000000" points="347,-49.5 347,-79.5 457,-79.5 457,-49.5 347,-49.5"/>
<text text-anchor="start" x="355" y="-67.5" font-family="Helvetica,sans-Serif" font-size="10.00" fill="#000000">org.cobbzilla.util.http.</text>
<text text-anchor="middle" x="402" y="-56.5" font-family="Helvetica,sans-Serif" font-size="10.00" fill="#000000">CookieJar.CookieJar</text>
</a>
</g>
</g>
<!-- Node2&#45;&gt;Node3 -->
<g id="edge2" class="edge">
<title>Node2&#45;&gt;Node3</title>
<path fill="none" stroke="#191970" d="M321.1314,-50.6526C329.6759,-52.1157 338.3658,-53.6037 346.7256,-55.0352"/>
<polygon fill="#191970" stroke="#191970" points="321.6436,-47.1895 311.1963,-48.9514 320.4621,-54.0891 321.6436,-47.1895"/>
</g>
<!-- Node4 -->
<g id="node4" class="node">
<title>Node4</title>
<g id="a_node4"><a xlink:href="../../da/d50/classorg_1_1cobbzilla_1_1util_1_1http_1_1CookieJar_a66071c71677fdc75a9d6d39014682df0.html#a66071c71677fdc75a9d6d39014682df0" target="_top" xlink:title="org.cobbzilla.util.http.\lCookieJar.addCookie">
<polygon fill="none" stroke="#000000" points="347,-.5 347,-30.5 457,-30.5 457,-.5 347,-.5"/>
<text text-anchor="start" x="355" y="-18.5" font-family="Helvetica,sans-Serif" font-size="10.00" fill="#000000">org.cobbzilla.util.http.</text>
<text text-anchor="middle" x="402" y="-7.5" font-family="Helvetica,sans-Serif" font-size="10.00" fill="#000000">CookieJar.addCookie</text>
</a>
</g>
</g>
<!-- Node2&#45;&gt;Node4 -->
<g id="edge3" class="edge">
<title>Node2&#45;&gt;Node4</title>
<path fill="none" stroke="#191970" d="M321.1314,-28.7935C329.6759,-27.3889 338.3658,-25.9604 346.7256,-24.5862"/>
<polygon fill="#191970" stroke="#191970" points="320.4962,-25.3508 311.1963,-30.4266 321.6317,-32.2581 320.4962,-25.3508"/>
</g>
</g>
</svg>
