<?xml version="1.0" encoding="UTF-8" standalone="no"?>
<!DOCTYPE svg PUBLIC "-//W3C//DTD SVG 1.1//EN"
 "http://www.w3.org/Graphics/SVG/1.1/DTD/svg11.dtd">
<!-- Generated by graphviz version 2.40.1 (20161225.0304)
 -->
<!-- Title: org.cobbzilla.util.time.ImprovedTimezone Pages: 1 -->
<svg width="667pt" height="485pt"
 viewBox="0.00 0.00 666.50 485.00" xmlns="http://www.w3.org/2000/svg" xmlns:xlink="http://www.w3.org/1999/xlink">
<g id="graph0" class="graph" transform="scale(1 1) rotate(0) translate(4 481)">
<title>org.cobbzilla.util.time.ImprovedTimezone</title>
<!-- Node1 -->
<g id="node1" class="node">
<title>Node1</title>
<polygon fill="#bfbfbf" stroke="#000000" points="257,-.5 257,-233.5 438,-233.5 438,-.5 257,-.5"/>
<text text-anchor="start" x="265" y="-221.5" font-family="Helvetica,sans-Serif" font-size="10.00" fill="#000000">org.cobbzilla.util.time.</text>
<text text-anchor="middle" x="347.5" y="-210.5" font-family="Helvetica,sans-Serif" font-size="10.00" fill="#000000">ImprovedTimezone</text>
<polyline fill="none" stroke="#000000" points="257,-203.5 438,-203.5 "/>
<text text-anchor="start" x="265" y="-191.5" font-family="Helvetica,sans-Serif" font-size="10.00" fill="#000000">&#45; id</text>
<text text-anchor="start" x="265" y="-180.5" font-family="Helvetica,sans-Serif" font-size="10.00" fill="#000000">&#45; gmtOffset</text>
<text text-anchor="start" x="265" y="-169.5" font-family="Helvetica,sans-Serif" font-size="10.00" fill="#000000">&#45; displayName</text>
<text text-anchor="start" x="265" y="-158.5" font-family="Helvetica,sans-Serif" font-size="10.00" fill="#000000">&#45; linuxName</text>
<text text-anchor="start" x="265" y="-147.5" font-family="Helvetica,sans-Serif" font-size="10.00" fill="#000000">&#45; displayNameWithOffset</text>
<text text-anchor="start" x="265" y="-136.5" font-family="Helvetica,sans-Serif" font-size="10.00" fill="#000000">&#45; TZ_FILE</text>
<polyline fill="none" stroke="#000000" points="257,-129.5 438,-129.5 "/>
<text text-anchor="start" x="265" y="-117.5" font-family="Helvetica,sans-Serif" font-size="10.00" fill="#000000">+ getLocalTime()</text>
<text text-anchor="start" x="265" y="-106.5" font-family="Helvetica,sans-Serif" font-size="10.00" fill="#000000">+ toString()</text>
<text text-anchor="start" x="265" y="-95.5" font-family="Helvetica,sans-Serif" font-size="10.00" fill="#000000">+ getTimeZones()</text>
<text text-anchor="start" x="265" y="-84.5" font-family="Helvetica,sans-Serif" font-size="10.00" fill="#000000">+ getTimeZoneById()</text>
<text text-anchor="start" x="265" y="-73.5" font-family="Helvetica,sans-Serif" font-size="10.00" fill="#000000">+ getTimeZoneByJavaDisplayName()</text>
<text text-anchor="start" x="265" y="-62.5" font-family="Helvetica,sans-Serif" font-size="10.00" fill="#000000">+ getTimeZoneByGmtOffset()</text>
<text text-anchor="start" x="265" y="-51.5" font-family="Helvetica,sans-Serif" font-size="10.00" fill="#000000">~ [static initializer]()</text>
<text text-anchor="start" x="265" y="-40.5" font-family="Helvetica,sans-Serif" font-size="10.00" fill="#000000">&#45; ImprovedTimezone()</text>
<text text-anchor="start" x="265" y="-29.5" font-family="Helvetica,sans-Serif" font-size="10.00" fill="#000000">&#45; init()</text>
<text text-anchor="start" x="265" y="-18.5" font-family="Helvetica,sans-Serif" font-size="10.00" fill="#000000">&#45; initZone()</text>
<text text-anchor="start" x="265" y="-7.5" font-family="Helvetica,sans-Serif" font-size="10.00" fill="#000000">&#45; isGMT()</text>
</g>
<!-- Node2 -->
<g id="node2" class="node">
<title>Node2</title>
<polygon fill="none" stroke="#bfbfbf" points="0,-292.5 0,-360.5 171,-360.5 171,-292.5 0,-292.5"/>
<text text-anchor="start" x="8" y="-348.5" font-family="Helvetica,sans-Serif" font-size="10.00" fill="#000000">Map&lt; String, org.cobbzilla.util.time.</text>
<text text-anchor="middle" x="85.5" y="-337.5" font-family="Helvetica,sans-Serif" font-size="10.00" fill="#000000">ImprovedTimezone &gt;</text>
<polyline fill="none" stroke="#bfbfbf" points="0,-330.5 171,-330.5 "/>
<text text-anchor="middle" x="85.5" y="-318.5" font-family="Helvetica,sans-Serif" font-size="10.00" fill="#000000"> </text>
<polyline fill="none" stroke="#bfbfbf" points="0,-311.5 171,-311.5 "/>
<text text-anchor="middle" x="85.5" y="-299.5" font-family="Helvetica,sans-Serif" font-size="10.00" fill="#000000"> </text>
</g>
<!-- Node2&#45;&gt;Node1 -->
<g id="edge1" class="edge">
<title>Node2&#45;&gt;Node1</title>
<path fill="none" stroke="#404040" d="M114.2995,-292.3894C126.1638,-279.1638 140.4146,-264.2803 154.5,-252 182.8833,-227.2541 215.8209,-202.8423 246.3633,-181.7264"/>
<polygon fill="none" stroke="#404040" points="246.7216,-181.4809 249.4088,-174.7892 256.6194,-174.696 253.9321,-181.3877 246.7216,-181.4809"/>
<text text-anchor="middle" x="216.5" y="-266" font-family="Helvetica,sans-Serif" font-size="10.00" fill="#000000"> &#45;TIMEZONES_BY_JNAME</text>
<text text-anchor="middle" x="216.5" y="-255" font-family="Helvetica,sans-Serif" font-size="10.00" fill="#000000">&#45;TIMEZONES_BY_GMT</text>
</g>
<!-- Node3 -->
<g id="node3" class="node">
<title>Node3</title>
<polygon fill="none" stroke="#bfbfbf" points="165,-419.5 165,-476.5 200,-476.5 200,-419.5 165,-419.5"/>
<text text-anchor="middle" x="182.5" y="-464.5" font-family="Helvetica,sans-Serif" font-size="10.00" fill="#000000">Map</text>
<polyline fill="none" stroke="#bfbfbf" points="165,-457.5 200,-457.5 "/>
<text text-anchor="middle" x="182.5" y="-445.5" font-family="Helvetica,sans-Serif" font-size="10.00" fill="#000000"> </text>
<polyline fill="none" stroke="#bfbfbf" points="165,-438.5 200,-438.5 "/>
<text text-anchor="middle" x="182.5" y="-426.5" font-family="Helvetica,sans-Serif" font-size="10.00" fill="#000000"> </text>
</g>
<!-- Node3&#45;&gt;Node2 -->
<g id="edge2" class="edge">
<title>Node3&#45;&gt;Node2</title>
<path fill="none" stroke="#ffa500" d="M155.0012,-441.2953C134.214,-434.6929 106.8808,-422.4037 92.5,-401 84.6754,-389.3542 82.2069,-374.2752 81.968,-360.7324"/>
<polygon fill="#ffa500" stroke="#ffa500" points="154.3028,-444.7372 164.8826,-444.1712 156.2591,-438.0161 154.3028,-444.7372"/>
<text text-anchor="start" x="92.5" y="-393" font-family="Helvetica,sans-Serif" font-size="10.00" fill="#000000"> &lt; String, org::cobbzilla</text>
<text text-anchor="middle" x="163.5" y="-382" font-family="Helvetica,sans-Serif" font-size="10.00" fill="#000000">::util::time::ImprovedTimezone &gt;</text>
</g>
<!-- Node4 -->
<g id="node4" class="node">
<title>Node4</title>
<polygon fill="none" stroke="#bfbfbf" points="189.5,-292.5 189.5,-360.5 365.5,-360.5 365.5,-292.5 189.5,-292.5"/>
<text text-anchor="start" x="197.5" y="-348.5" font-family="Helvetica,sans-Serif" font-size="10.00" fill="#000000">Map&lt; Integer, org.cobbzilla.util.time.</text>
<text text-anchor="middle" x="277.5" y="-337.5" font-family="Helvetica,sans-Serif" font-size="10.00" fill="#000000">ImprovedTimezone &gt;</text>
<polyline fill="none" stroke="#bfbfbf" points="189.5,-330.5 365.5,-330.5 "/>
<text text-anchor="middle" x="277.5" y="-318.5" font-family="Helvetica,sans-Serif" font-size="10.00" fill="#000000"> </text>
<polyline fill="none" stroke="#bfbfbf" points="189.5,-311.5 365.5,-311.5 "/>
<text text-anchor="middle" x="277.5" y="-299.5" font-family="Helvetica,sans-Serif" font-size="10.00" fill="#000000"> </text>
</g>
<!-- Node3&#45;&gt;Node4 -->
<g id="edge4" class="edge">
<title>Node3&#45;&gt;Node4</title>
<path fill="none" stroke="#ffa500" d="M208.4473,-429.7051C218.6381,-421.6804 229.923,-411.6627 238.5,-401 248.1994,-388.9419 256.5529,-374.0965 263.0122,-360.8395"/>
<polygon fill="#ffa500" stroke="#ffa500" points="206.0746,-427.1121 200.2278,-435.9476 210.3084,-432.6867 206.0746,-427.1121"/>
<text text-anchor="start" x="253.5" y="-393" font-family="Helvetica,sans-Serif" font-size="10.00" fill="#000000"> &lt; Integer, org::cobbzilla</text>
<text text-anchor="middle" x="324.5" y="-382" font-family="Helvetica,sans-Serif" font-size="10.00" fill="#000000">::util::time::ImprovedTimezone &gt;</text>
</g>
<!-- Node4&#45;&gt;Node1 -->
<g id="edge3" class="edge">
<title>Node4&#45;&gt;Node1</title>
<path fill="none" stroke="#404040" d="M279.4342,-292.3253C280.7291,-279.5089 282.8909,-264.9245 286.5,-252 287.1355,-249.7241 287.804,-247.4377 288.5022,-245.1445"/>
<polygon fill="none" stroke="#404040" points="288.5311,-245.0552 286.5733,-238.1149 292.2268,-233.6384 294.1845,-240.5787 288.5311,-245.0552"/>
<text text-anchor="middle" x="336.5" y="-260.5" font-family="Helvetica,sans-Serif" font-size="10.00" fill="#000000"> &#45;TIMEZONES_BY_ID</text>
</g>
<!-- Node5 -->
<g id="node5" class="node">
<title>Node5</title>
<polygon fill="none" stroke="#bfbfbf" points="383.5,-298 383.5,-355 443.5,-355 443.5,-298 383.5,-298"/>
<text text-anchor="middle" x="413.5" y="-343" font-family="Helvetica,sans-Serif" font-size="10.00" fill="#000000">TimeZone</text>
<polyline fill="none" stroke="#bfbfbf" points="383.5,-336 443.5,-336 "/>
<text text-anchor="middle" x="413.5" y="-324" font-family="Helvetica,sans-Serif" font-size="10.00" fill="#000000"> </text>
<polyline fill="none" stroke="#bfbfbf" points="383.5,-317 443.5,-317 "/>
<text text-anchor="middle" x="413.5" y="-305" font-family="Helvetica,sans-Serif" font-size="10.00" fill="#000000"> </text>
</g>
<!-- Node5&#45;&gt;Node1 -->
<g id="edge5" class="edge">
<title>Node5&#45;&gt;Node1</title>
<path fill="none" stroke="#404040" d="M404.4614,-297.8092C399.946,-283.4764 394.1321,-265.0216 387.9502,-245.3987"/>
<polygon fill="none" stroke="#404040" points="387.8807,-245.1778 382.2626,-240.657 384.2749,-233.7323 389.8929,-238.2531 387.8807,-245.1778"/>
<text text-anchor="middle" x="447.5" y="-266" font-family="Helvetica,sans-Serif" font-size="10.00" fill="#000000"> &#45;timezone</text>
<text text-anchor="middle" x="447.5" y="-255" font-family="Helvetica,sans-Serif" font-size="10.00" fill="#000000">&#45;SYSTEM_TIMEZONE</text>
</g>
<!-- Node6 -->
<g id="node6" class="node">
<title>Node6</title>
<polygon fill="none" stroke="#bfbfbf" points="466,-292.5 466,-360.5 603,-360.5 603,-292.5 466,-292.5"/>
<text text-anchor="start" x="474" y="-348.5" font-family="Helvetica,sans-Serif" font-size="10.00" fill="#000000">List&lt; org.cobbzilla.util.time.</text>
<text text-anchor="middle" x="534.5" y="-337.5" font-family="Helvetica,sans-Serif" font-size="10.00" fill="#000000">ImprovedTimezone &gt;</text>
<polyline fill="none" stroke="#bfbfbf" points="466,-330.5 603,-330.5 "/>
<text text-anchor="middle" x="534.5" y="-318.5" font-family="Helvetica,sans-Serif" font-size="10.00" fill="#000000"> </text>
<polyline fill="none" stroke="#bfbfbf" points="466,-311.5 603,-311.5 "/>
<text text-anchor="middle" x="534.5" y="-299.5" font-family="Helvetica,sans-Serif" font-size="10.00" fill="#000000"> </text>
</g>
<!-- Node6&#45;&gt;Node1 -->
<g id="edge6" class="edge">
<title>Node6&#45;&gt;Node1</title>
<path fill="none" stroke="#404040" d="M523.4696,-292.1594C518.2877,-278.9022 511.2905,-264.057 502.5,-252 486.9124,-230.6202 467.352,-210.3005 447.4276,-192.2201"/>
<polygon fill="none" stroke="#404040" points="447.231,-192.0454 440.0888,-191.0502 438.2605,-184.0747 445.4026,-185.0699 447.231,-192.0454"/>
<text text-anchor="middle" x="548" y="-260.5" font-family="Helvetica,sans-Serif" font-size="10.00" fill="#000000"> &#45;TIMEZONES</text>
</g>
<!-- Node7 -->
<g id="node7" class="node">
<title>Node7</title>
<polygon fill="none" stroke="#bfbfbf" points="518.5,-419.5 518.5,-476.5 550.5,-476.5 550.5,-419.5 518.5,-419.5"/>
<text text-anchor="middle" x="534.5" y="-464.5" font-family="Helvetica,sans-Serif" font-size="10.00" fill="#000000">List</text>
<polyline fill="none" stroke="#bfbfbf" points="518.5,-457.5 550.5,-457.5 "/>
<text text-anchor="middle" x="534.5" y="-445.5" font-family="Helvetica,sans-Serif" font-size="10.00" fill="#000000"> </text>
<polyline fill="none" stroke="#bfbfbf" points="518.5,-438.5 550.5,-438.5 "/>
<text text-anchor="middle" x="534.5" y="-426.5" font-family="Helvetica,sans-Serif" font-size="10.00" fill="#000000"> </text>
</g>
<!-- Node7&#45;&gt;Node6 -->
<g id="edge7" class="edge">
<title>Node7&#45;&gt;Node6</title>
<path fill="none" stroke="#ffa500" d="M534.5,-408.8733C534.5,-393.3628 534.5,-375.6896 534.5,-360.7007"/>
<polygon fill="#ffa500" stroke="#ffa500" points="531.0001,-409.2062 534.5,-419.2062 538.0001,-409.2062 531.0001,-409.2062"/>
<text text-anchor="start" x="534.5" y="-393" font-family="Helvetica,sans-Serif" font-size="10.00" fill="#000000"> &lt; org::cobbzilla::util</text>
<text text-anchor="middle" x="596.5" y="-382" font-family="Helvetica,sans-Serif" font-size="10.00" fill="#000000">::time::ImprovedTimezone &gt;</text>
</g>
</g>
</svg>
