<?xml version="1.0" encoding="UTF-8" standalone="no"?>
<!DOCTYPE svg PUBLIC "-//W3C//DTD SVG 1.1//EN"
 "http://www.w3.org/Graphics/SVG/1.1/DTD/svg11.dtd">
<!-- Generated by graphviz version 2.40.1 (20161225.0304)
 -->
<!-- Title: org.cobbzilla.util.reflect.Immutable&lt; T &gt; Pages: 1 -->
<svg width="128pt" height="182pt"
 viewBox="0.00 0.00 128.00 182.00" xmlns="http://www.w3.org/2000/svg" xmlns:xlink="http://www.w3.org/1999/xlink">
<g id="graph0" class="graph" transform="scale(1 1) rotate(0) translate(4 178)">
<title>org.cobbzilla.util.reflect.Immutable&lt; T &gt;</title>
<!-- Node0 -->
<g id="node1" class="node">
<title>Node0</title>
<polygon fill="#bfbfbf" stroke="#000000" points="0,-.5 0,-79.5 120,-79.5 120,-.5 0,-.5"/>
<text text-anchor="start" x="8" y="-67.5" font-family="Helvetica,sans-Serif" font-size="10.00" fill="#000000">org.cobbzilla.util.reflect.</text>
<text text-anchor="middle" x="60" y="-56.5" font-family="Helvetica,sans-Serif" font-size="10.00" fill="#000000">Immutable&lt; T &gt;</text>
<polyline fill="none" stroke="#000000" points="0,-49.5 120,-49.5 "/>
<text text-anchor="start" x="8" y="-37.5" font-family="Helvetica,sans-Serif" font-size="10.00" fill="#000000">&#45; obj</text>
<polyline fill="none" stroke="#000000" points="0,-30.5 120,-30.5 "/>
<text text-anchor="start" x="8" y="-18.5" font-family="Helvetica,sans-Serif" font-size="10.00" fill="#000000">+ invoke()</text>
<text text-anchor="start" x="8" y="-7.5" font-family="Helvetica,sans-Serif" font-size="10.00" fill="#000000">+ wrap()</text>
</g>
<!-- Node1 -->
<g id="node2" class="node">
<title>Node1</title>
<polygon fill="none" stroke="#bfbfbf" points="12.5,-116.5 12.5,-173.5 107.5,-173.5 107.5,-116.5 12.5,-116.5"/>
<text text-anchor="middle" x="60" y="-161.5" font-family="Helvetica,sans-Serif" font-size="10.00" fill="#000000">InvocationHandler</text>
<polyline fill="none" stroke="#bfbfbf" points="12.5,-154.5 107.5,-154.5 "/>
<text text-anchor="middle" x="60" y="-142.5" font-family="Helvetica,sans-Serif" font-size="10.00" fill="#000000"> </text>
<polyline fill="none" stroke="#bfbfbf" points="12.5,-135.5 107.5,-135.5 "/>
<text text-anchor="middle" x="60" y="-123.5" font-family="Helvetica,sans-Serif" font-size="10.00" fill="#000000"> </text>
</g>
<!-- Node1&#45;&gt;Node0 -->
<g id="edge1" class="edge">
<title>Node1&#45;&gt;Node0</title>
<path fill="none" stroke="#191970" d="M60,-106.1156C60,-97.4889 60,-88.3353 60,-79.6773"/>
<polygon fill="none" stroke="#191970" points="56.5001,-106.3083 60,-116.3083 63.5001,-106.3083 56.5001,-106.3083"/>
</g>
</g>
</svg>
