<?xml version="1.0" encoding="UTF-8" standalone="no"?>
<!DOCTYPE svg PUBLIC "-//W3C//DTD SVG 1.1//EN"
 "http://www.w3.org/Graphics/SVG/1.1/DTD/svg11.dtd">
<!-- Generated by graphviz version 2.40.1 (20161225.0304)
 -->
<!-- Title: org.cobbzilla.util.io.TempDir.QuickTempReaper Pages: 1 -->
<svg width="305pt" height="342pt"
 viewBox="0.00 0.00 304.50 342.00" xmlns="http://www.w3.org/2000/svg" xmlns:xlink="http://www.w3.org/1999/xlink">
<g id="graph0" class="graph" transform="scale(1 1) rotate(0) translate(4 338)">
<title>org.cobbzilla.util.io.TempDir.QuickTempReaper</title>
<!-- Node2 -->
<g id="node1" class="node">
<title>Node2</title>
<polygon fill="#bfbfbf" stroke="#000000" points="0,-.5 0,-101.5 125,-101.5 125,-.5 0,-.5"/>
<text text-anchor="start" x="8" y="-89.5" font-family="Helvetica,sans-Serif" font-size="10.00" fill="#000000">org.cobbzilla.util.io.Temp</text>
<text text-anchor="middle" x="62.5" y="-78.5" font-family="Helvetica,sans-Serif" font-size="10.00" fill="#000000">Dir.QuickTempReaper</text>
<polyline fill="none" stroke="#000000" points="0,-71.5 125,-71.5 "/>
<text text-anchor="middle" x="62.5" y="-59.5" font-family="Helvetica,sans-Serif" font-size="10.00" fill="#000000"> </text>
<polyline fill="none" stroke="#000000" points="0,-52.5 125,-52.5 "/>
<text text-anchor="start" x="8" y="-40.5" font-family="Helvetica,sans-Serif" font-size="10.00" fill="#000000">+ add()</text>
<text text-anchor="start" x="8" y="-29.5" font-family="Helvetica,sans-Serif" font-size="10.00" fill="#000000">+ add()</text>
<text text-anchor="start" x="8" y="-18.5" font-family="Helvetica,sans-Serif" font-size="10.00" fill="#000000">+ run()</text>
<text text-anchor="start" x="8" y="-7.5" font-family="Helvetica,sans-Serif" font-size="10.00" fill="#000000">+ start()</text>
</g>
<!-- Node3 -->
<g id="node2" class="node">
<title>Node3</title>
<polygon fill="none" stroke="#bfbfbf" points="17.5,-155 17.5,-212 75.5,-212 75.5,-155 17.5,-155"/>
<text text-anchor="middle" x="46.5" y="-200" font-family="Helvetica,sans-Serif" font-size="10.00" fill="#000000">Runnable</text>
<polyline fill="none" stroke="#bfbfbf" points="17.5,-193 75.5,-193 "/>
<text text-anchor="middle" x="46.5" y="-181" font-family="Helvetica,sans-Serif" font-size="10.00" fill="#000000"> </text>
<polyline fill="none" stroke="#bfbfbf" points="17.5,-174 75.5,-174 "/>
<text text-anchor="middle" x="46.5" y="-162" font-family="Helvetica,sans-Serif" font-size="10.00" fill="#000000"> </text>
</g>
<!-- Node3&#45;&gt;Node2 -->
<g id="edge1" class="edge">
<title>Node3&#45;&gt;Node2</title>
<path fill="none" stroke="#191970" d="M51.2178,-144.4307C52.8377,-131.0162 54.6747,-115.8031 56.389,-101.6065"/>
<polygon fill="none" stroke="#191970" points="47.6959,-144.402 49.9718,-154.7495 54.6454,-145.2412 47.6959,-144.402"/>
</g>
<!-- Node4 -->
<g id="node3" class="node">
<title>Node4</title>
<polygon fill="none" stroke="#bfbfbf" points="94,-149.5 94,-217.5 247,-217.5 247,-149.5 94,-149.5"/>
<text text-anchor="start" x="102" y="-205.5" font-family="Helvetica,sans-Serif" font-size="10.00" fill="#000000">SortedSet&lt; org.cobbzilla.util.io.</text>
<text text-anchor="middle" x="170.5" y="-194.5" font-family="Helvetica,sans-Serif" font-size="10.00" fill="#000000">TempDir.FileKillOrder &gt;</text>
<polyline fill="none" stroke="#bfbfbf" points="94,-187.5 247,-187.5 "/>
<text text-anchor="middle" x="170.5" y="-175.5" font-family="Helvetica,sans-Serif" font-size="10.00" fill="#000000"> </text>
<polyline fill="none" stroke="#bfbfbf" points="94,-168.5 247,-168.5 "/>
<text text-anchor="middle" x="170.5" y="-156.5" font-family="Helvetica,sans-Serif" font-size="10.00" fill="#000000"> </text>
</g>
<!-- Node4&#45;&gt;Node2 -->
<g id="edge2" class="edge">
<title>Node4&#45;&gt;Node2</title>
<path fill="none" stroke="#404040" d="M142.6873,-149.378C133.1318,-137.6547 122.1327,-124.1605 111.4043,-110.9984"/>
<polygon fill="none" stroke="#404040" points="111.2464,-110.8046 104.3551,-108.6811 103.6648,-101.5031 110.5561,-103.6266 111.2464,-110.8046"/>
<text text-anchor="middle" x="142.5" y="-123" font-family="Helvetica,sans-Serif" font-size="10.00" fill="#000000"> &#45;temps</text>
</g>
<!-- Node5 -->
<g id="node4" class="node">
<title>Node5</title>
<polygon fill="none" stroke="#bfbfbf" points="140.5,-276.5 140.5,-333.5 200.5,-333.5 200.5,-276.5 140.5,-276.5"/>
<text text-anchor="middle" x="170.5" y="-321.5" font-family="Helvetica,sans-Serif" font-size="10.00" fill="#000000">SortedSet</text>
<polyline fill="none" stroke="#bfbfbf" points="140.5,-314.5 200.5,-314.5 "/>
<text text-anchor="middle" x="170.5" y="-302.5" font-family="Helvetica,sans-Serif" font-size="10.00" fill="#000000"> </text>
<polyline fill="none" stroke="#bfbfbf" points="140.5,-295.5 200.5,-295.5 "/>
<text text-anchor="middle" x="170.5" y="-283.5" font-family="Helvetica,sans-Serif" font-size="10.00" fill="#000000"> </text>
</g>
<!-- Node5&#45;&gt;Node4 -->
<g id="edge3" class="edge">
<title>Node5&#45;&gt;Node4</title>
<path fill="none" stroke="#ffa500" d="M170.5,-265.8733C170.5,-250.3628 170.5,-232.6896 170.5,-217.7007"/>
<polygon fill="#ffa500" stroke="#ffa500" points="167.0001,-266.2062 170.5,-276.2062 174.0001,-266.2062 167.0001,-266.2062"/>
<text text-anchor="start" x="170.5" y="-250" font-family="Helvetica,sans-Serif" font-size="10.00" fill="#000000"> &lt; org::cobbzilla::util</text>
<text text-anchor="middle" x="233.5" y="-239" font-family="Helvetica,sans-Serif" font-size="10.00" fill="#000000">::io::TempDir::FileKillOrder &gt;</text>
</g>
</g>
</svg>
