<?xml version="1.0" encoding="UTF-8" standalone="no"?>
<!DOCTYPE svg PUBLIC "-//W3C//DTD SVG 1.1//EN"
 "http://www.w3.org/Graphics/SVG/1.1/DTD/svg11.dtd">
<!-- Generated by graphviz version 2.40.1 (20161225.0304)
 -->
<!-- Title: org.cobbzilla.util.jdbc.TypedResultSetBean&lt; T &gt; Pages: 1 -->
<!--zoomable 678 -->
<svg id="main" version="1.1" xmlns="http://www.w3.org/2000/svg" xmlns:xlink="http://www.w3.org/1999/xlink" xml:space="preserve" onload="init(evt)">
<style type="text/css"><![CDATA[
.edge:hover path { stroke: red; }
.edge:hover polygon { stroke: red; fill: red; }
]]></style>
<script type="text/javascript"><![CDATA[
var edges = document.getElementsByTagName('g');
if (edges && edges.length) {
  for (var i=0;i<edges.length;i++) {
    if (edges[i].id.substr(0,4)=='edge') {
      edges[i].setAttribute('class','edge');
    }
  }
}
]]></script>
        <defs>
                <circle id="rim" cx="0" cy="0" r="7"/>
                <circle id="rim2" cx="0" cy="0" r="3.5"/>
                <g id="zoomPlus">
                        <use xlink:href="#rim" fill="#404040">
                                <set attributeName="fill" to="#808080" begin="zoomplus.mouseover" end="zoomplus.mouseout"/>
                        </use>
                        <path d="M-4,0h8M0,-4v8" fill="none" stroke="white" stroke-width="1.5" pointer-events="none"/>
                </g>
                <g id="zoomMin">
                        <use xlink:href="#rim" fill="#404040">
                                <set attributeName="fill" to="#808080" begin="zoomminus.mouseover" end="zoomminus.mouseout"/>
                        </use>
                        <path d="M-4,0h8" fill="none" stroke="white" stroke-width="1.5" pointer-events="none"/>
                </g>
                <g id="dirArrow">
                        <path fill="none" stroke="white" stroke-width="1.5" d="M0,-3.0v7 M-2.5,-0.5L0,-3.0L2.5,-0.5"/>
                </g>
               <g id="resetDef">
                       <use xlink:href="#rim2" fill="#404040">
                               <set attributeName="fill" to="#808080" begin="reset.mouseover" end="reset.mouseout"/>
                       </use>
               </g>
        </defs>

<script type="text/javascript">
var viewWidth = 474;
var viewHeight = 678;
var sectionId = 'dynsection-1';
</script>
<script xlink:href="../../svgpan.js"/>
<svg id="graph" class="graph">
<g id="viewport">
<title>org.cobbzilla.util.jdbc.TypedResultSetBean&lt; T &gt;</title>
<!-- Node3 -->
<g id="node1" class="node">
<title>Node3</title>
<polygon fill="#bfbfbf" stroke="#000000" points="287.5,-.5 287.5,-145.5 421.5,-145.5 421.5,-.5 287.5,-.5"/>
<text text-anchor="start" x="295.5" y="-133.5" font-family="Helvetica,sans-Serif" font-size="10.00" fill="#000000">org.cobbzilla.util.jdbc.</text>
<text text-anchor="middle" x="354.5" y="-122.5" font-family="Helvetica,sans-Serif" font-size="10.00" fill="#000000">TypedResultSetBean&lt; T &gt;</text>
<polyline fill="none" stroke="#000000" points="287.5,-115.5 421.5,-115.5 "/>
<text text-anchor="start" x="295.5" y="-103.5" font-family="Helvetica,sans-Serif" font-size="10.00" fill="#000000">&#45; rowType</text>
<polyline fill="none" stroke="#000000" points="287.5,-96.5 421.5,-96.5 "/>
<text text-anchor="start" x="295.5" y="-84.5" font-family="Helvetica,sans-Serif" font-size="10.00" fill="#000000">+ TypedResultSetBean()</text>
<text text-anchor="start" x="295.5" y="-73.5" font-family="Helvetica,sans-Serif" font-size="10.00" fill="#000000">+ TypedResultSetBean()</text>
<text text-anchor="start" x="295.5" y="-62.5" font-family="Helvetica,sans-Serif" font-size="10.00" fill="#000000">+ TypedResultSetBean()</text>
<text text-anchor="start" x="295.5" y="-51.5" font-family="Helvetica,sans-Serif" font-size="10.00" fill="#000000">+ iterator()</text>
<text text-anchor="start" x="295.5" y="-40.5" font-family="Helvetica,sans-Serif" font-size="10.00" fill="#000000">+ firstObject()</text>
<text text-anchor="start" x="295.5" y="-29.5" font-family="Helvetica,sans-Serif" font-size="10.00" fill="#000000">~ map()</text>
<text text-anchor="start" x="295.5" y="-18.5" font-family="Helvetica,sans-Serif" font-size="10.00" fill="#000000"># readField()</text>
<text text-anchor="start" x="295.5" y="-7.5" font-family="Helvetica,sans-Serif" font-size="10.00" fill="#000000">&#45; getTypedRows()</text>
</g>
<!-- Node4 -->
<g id="node2" class="node">
<title>Node4</title>
<g id="a_node2"><a xlink:href="../../de/dfa/classorg_1_1cobbzilla_1_1util_1_1jdbc_1_1ResultSetBean.html" target="_top" xlink:title="{org.cobbzilla.util.jdbc.\lResultSetBean\n||+ isEmpty()\l+ rowCount()\l+ first()\l+ count()\l+ countOrZero()\l+ ResultSetBean()\l+ ResultSetBean()\l+ ResultSetBean()\l+ getRsMetaData()\l+ getRsMetaData()\l+ row2map()\l+ row2map()\l+ row2map()\l+ getColumns()\l~ getColumnValues()\l&#45; read()\l&#45; read()\l&#45; read()\l}">
<polygon fill="none" stroke="#000000" points="127,-193.5 127,-448.5 238,-448.5 238,-193.5 127,-193.5"/>
<text text-anchor="start" x="135" y="-436.5" font-family="Helvetica,sans-Serif" font-size="10.00" fill="#000000">org.cobbzilla.util.jdbc.</text>
<text text-anchor="middle" x="182.5" y="-425.5" font-family="Helvetica,sans-Serif" font-size="10.00" fill="#000000">ResultSetBean</text>
<polyline fill="none" stroke="#000000" points="127,-418.5 238,-418.5 "/>
<text text-anchor="middle" x="182.5" y="-406.5" font-family="Helvetica,sans-Serif" font-size="10.00" fill="#000000"> </text>
<polyline fill="none" stroke="#000000" points="127,-399.5 238,-399.5 "/>
<text text-anchor="start" x="135" y="-387.5" font-family="Helvetica,sans-Serif" font-size="10.00" fill="#000000">+ isEmpty()</text>
<text text-anchor="start" x="135" y="-376.5" font-family="Helvetica,sans-Serif" font-size="10.00" fill="#000000">+ rowCount()</text>
<text text-anchor="start" x="135" y="-365.5" font-family="Helvetica,sans-Serif" font-size="10.00" fill="#000000">+ first()</text>
<text text-anchor="start" x="135" y="-354.5" font-family="Helvetica,sans-Serif" font-size="10.00" fill="#000000">+ count()</text>
<text text-anchor="start" x="135" y="-343.5" font-family="Helvetica,sans-Serif" font-size="10.00" fill="#000000">+ countOrZero()</text>
<text text-anchor="start" x="135" y="-332.5" font-family="Helvetica,sans-Serif" font-size="10.00" fill="#000000">+ ResultSetBean()</text>
<text text-anchor="start" x="135" y="-321.5" font-family="Helvetica,sans-Serif" font-size="10.00" fill="#000000">+ ResultSetBean()</text>
<text text-anchor="start" x="135" y="-310.5" font-family="Helvetica,sans-Serif" font-size="10.00" fill="#000000">+ ResultSetBean()</text>
<text text-anchor="start" x="135" y="-299.5" font-family="Helvetica,sans-Serif" font-size="10.00" fill="#000000">+ getRsMetaData()</text>
<text text-anchor="start" x="135" y="-288.5" font-family="Helvetica,sans-Serif" font-size="10.00" fill="#000000">+ getRsMetaData()</text>
<text text-anchor="start" x="135" y="-277.5" font-family="Helvetica,sans-Serif" font-size="10.00" fill="#000000">+ row2map()</text>
<text text-anchor="start" x="135" y="-266.5" font-family="Helvetica,sans-Serif" font-size="10.00" fill="#000000">+ row2map()</text>
<text text-anchor="start" x="135" y="-255.5" font-family="Helvetica,sans-Serif" font-size="10.00" fill="#000000">+ row2map()</text>
<text text-anchor="start" x="135" y="-244.5" font-family="Helvetica,sans-Serif" font-size="10.00" fill="#000000">+ getColumns()</text>
<text text-anchor="start" x="135" y="-233.5" font-family="Helvetica,sans-Serif" font-size="10.00" fill="#000000">~ getColumnValues()</text>
<text text-anchor="start" x="135" y="-222.5" font-family="Helvetica,sans-Serif" font-size="10.00" fill="#000000">&#45; read()</text>
<text text-anchor="start" x="135" y="-211.5" font-family="Helvetica,sans-Serif" font-size="10.00" fill="#000000">&#45; read()</text>
<text text-anchor="start" x="135" y="-200.5" font-family="Helvetica,sans-Serif" font-size="10.00" fill="#000000">&#45; read()</text>
</a>
</g>
</g>
<!-- Node4&#45;&gt;Node3 -->
<g id="edge1" class="edge">
<title>Node4&#45;&gt;Node3</title>
<path fill="none" stroke="#191970" d="M243.8841,-232.4927C263.5968,-204.0698 285.1938,-172.9299 304.0312,-145.769"/>
<polygon fill="none" stroke="#191970" points="240.929,-230.6122 238.1059,-240.824 246.681,-234.6015 240.929,-230.6122"/>
</g>
<!-- Node4&#45;&gt;Node4 -->
<g id="edge2" class="edge">
<title>Node4&#45;&gt;Node4</title>
<path fill="none" stroke="#404040" d="M238.2668,-347.6813C248.672,-344.3957 256,-335.502 256,-321 256,-312.1629 253.2788,-305.4083 248.7984,-300.7362"/>
<polygon fill="none" stroke="#404040" points="248.5141,-300.563 241.309,-300.8566 238.2668,-294.3187 245.4719,-294.0251 248.5141,-300.563"/>
<text text-anchor="middle" x="278" y="-318.5" font-family="Helvetica,sans-Serif" font-size="10.00" fill="#000000"> +EMPTY</text>
</g>
<!-- Node5 -->
<g id="node3" class="node">
<title>Node5</title>
<polygon fill="none" stroke="#bfbfbf" points="0,-496.5 0,-564.5 145,-564.5 145,-496.5 0,-496.5"/>
<text text-anchor="start" x="8" y="-552.5" font-family="Helvetica,sans-Serif" font-size="10.00" fill="#000000">AtomicReference&lt; ResultSet</text>
<text text-anchor="middle" x="72.5" y="-541.5" font-family="Helvetica,sans-Serif" font-size="10.00" fill="#000000">MetaData &gt;</text>
<polyline fill="none" stroke="#bfbfbf" points="0,-534.5 145,-534.5 "/>
<text text-anchor="middle" x="72.5" y="-522.5" font-family="Helvetica,sans-Serif" font-size="10.00" fill="#000000"> </text>
<polyline fill="none" stroke="#bfbfbf" points="0,-515.5 145,-515.5 "/>
<text text-anchor="middle" x="72.5" y="-503.5" font-family="Helvetica,sans-Serif" font-size="10.00" fill="#000000"> </text>
</g>
<!-- Node5&#45;&gt;Node4 -->
<g id="edge3" class="edge">
<title>Node5&#45;&gt;Node4</title>
<path fill="none" stroke="#404040" d="M90.4182,-496.3739C99.0114,-480.0079 109.865,-459.3366 121.0797,-437.9777"/>
<polygon fill="none" stroke="#404040" points="121.2071,-437.7351 120.4548,-430.5633 126.7856,-427.1106 127.5379,-434.2823 121.2071,-437.7351"/>
<text text-anchor="middle" x="134.5" y="-470" font-family="Helvetica,sans-Serif" font-size="10.00" fill="#000000"> &#45;rsMetaData</text>
</g>
<!-- Node6 -->
<g id="node4" class="node">
<title>Node6</title>
<polygon fill="none" stroke="#bfbfbf" points="26.5,-612.5 26.5,-669.5 118.5,-669.5 118.5,-612.5 26.5,-612.5"/>
<text text-anchor="middle" x="72.5" y="-657.5" font-family="Helvetica,sans-Serif" font-size="10.00" fill="#000000">AtomicReference</text>
<polyline fill="none" stroke="#bfbfbf" points="26.5,-650.5 118.5,-650.5 "/>
<text text-anchor="middle" x="72.5" y="-638.5" font-family="Helvetica,sans-Serif" font-size="10.00" fill="#000000"> </text>
<polyline fill="none" stroke="#bfbfbf" points="26.5,-631.5 118.5,-631.5 "/>
<text text-anchor="middle" x="72.5" y="-619.5" font-family="Helvetica,sans-Serif" font-size="10.00" fill="#000000"> </text>
</g>
<!-- Node6&#45;&gt;Node5 -->
<g id="edge4" class="edge">
<title>Node6&#45;&gt;Node5</title>
<path fill="none" stroke="#ffa500" d="M72.5,-601.9162C72.5,-589.7375 72.5,-576.4096 72.5,-564.6001"/>
<polygon fill="#ffa500" stroke="#ffa500" points="69.0001,-602.2559 72.5,-612.2559 76.0001,-602.2559 69.0001,-602.2559"/>
<text text-anchor="middle" x="126.5" y="-586" font-family="Helvetica,sans-Serif" font-size="10.00" fill="#000000"> &lt; ResultSetMetaData &gt;</text>
</g>
<!-- Node7 -->
<g id="node5" class="node">
<title>Node7</title>
<polygon fill="none" stroke="#bfbfbf" points="163,-496.5 163,-564.5 284,-564.5 284,-496.5 163,-496.5"/>
<text text-anchor="start" x="171" y="-552.5" font-family="Helvetica,sans-Serif" font-size="10.00" fill="#000000">ArrayList&lt; Map&lt; String,</text>
<text text-anchor="middle" x="223.5" y="-541.5" font-family="Helvetica,sans-Serif" font-size="10.00" fill="#000000"> Object &gt; &gt;</text>
<polyline fill="none" stroke="#bfbfbf" points="163,-534.5 284,-534.5 "/>
<text text-anchor="middle" x="223.5" y="-522.5" font-family="Helvetica,sans-Serif" font-size="10.00" fill="#000000"> </text>
<polyline fill="none" stroke="#bfbfbf" points="163,-515.5 284,-515.5 "/>
<text text-anchor="middle" x="223.5" y="-503.5" font-family="Helvetica,sans-Serif" font-size="10.00" fill="#000000"> </text>
</g>
<!-- Node7&#45;&gt;Node4 -->
<g id="edge5" class="edge">
<title>Node7&#45;&gt;Node4</title>
<path fill="none" stroke="#404040" d="M216.8214,-496.3739C214.7888,-485.9877 212.4168,-473.8676 209.8865,-460.9382"/>
<polygon fill="none" stroke="#404040" points="209.8282,-460.6399 204.7502,-455.5198 207.5234,-448.8633 212.6013,-453.9833 209.8282,-460.6399"/>
<text text-anchor="middle" x="227.5" y="-470" font-family="Helvetica,sans-Serif" font-size="10.00" fill="#000000"> &#45;rows</text>
</g>
<!-- Node8 -->
<g id="node6" class="node">
<title>Node8</title>
<polygon fill="none" stroke="#bfbfbf" points="195.5,-612.5 195.5,-669.5 251.5,-669.5 251.5,-612.5 195.5,-612.5"/>
<text text-anchor="middle" x="223.5" y="-657.5" font-family="Helvetica,sans-Serif" font-size="10.00" fill="#000000">ArrayList</text>
<polyline fill="none" stroke="#bfbfbf" points="195.5,-650.5 251.5,-650.5 "/>
<text text-anchor="middle" x="223.5" y="-638.5" font-family="Helvetica,sans-Serif" font-size="10.00" fill="#000000"> </text>
<polyline fill="none" stroke="#bfbfbf" points="195.5,-631.5 251.5,-631.5 "/>
<text text-anchor="middle" x="223.5" y="-619.5" font-family="Helvetica,sans-Serif" font-size="10.00" fill="#000000"> </text>
</g>
<!-- Node8&#45;&gt;Node7 -->
<g id="edge6" class="edge">
<title>Node8&#45;&gt;Node7</title>
<path fill="none" stroke="#ffa500" d="M223.5,-601.9162C223.5,-589.7375 223.5,-576.4096 223.5,-564.6001"/>
<polygon fill="#ffa500" stroke="#ffa500" points="220.0001,-602.2559 223.5,-612.2559 227.0001,-602.2559 220.0001,-602.2559"/>
<text text-anchor="middle" x="282.5" y="-586" font-family="Helvetica,sans-Serif" font-size="10.00" fill="#000000"> &lt; Map&lt; String, Object &gt; &gt;</text>
</g>
<!-- Node9 -->
<g id="node7" class="node">
<title>Node9</title>
<polygon fill="none" stroke="#bfbfbf" points="318,-292.5 318,-349.5 391,-349.5 391,-292.5 318,-292.5"/>
<text text-anchor="middle" x="354.5" y="-337.5" font-family="Helvetica,sans-Serif" font-size="10.00" fill="#000000">Iterable&lt; T &gt;</text>
<polyline fill="none" stroke="#bfbfbf" points="318,-330.5 391,-330.5 "/>
<text text-anchor="middle" x="354.5" y="-318.5" font-family="Helvetica,sans-Serif" font-size="10.00" fill="#000000"> </text>
<polyline fill="none" stroke="#bfbfbf" points="318,-311.5 391,-311.5 "/>
<text text-anchor="middle" x="354.5" y="-299.5" font-family="Helvetica,sans-Serif" font-size="10.00" fill="#000000"> </text>
</g>
<!-- Node9&#45;&gt;Node3 -->
<g id="edge7" class="edge">
<title>Node9&#45;&gt;Node3</title>
<path fill="none" stroke="#191970" d="M354.5,-281.8515C354.5,-245.4087 354.5,-190.1767 354.5,-145.6633"/>
<polygon fill="none" stroke="#191970" points="351.0001,-282.0659 354.5,-292.0659 358.0001,-282.0659 351.0001,-282.0659"/>
</g>
<!-- Node10 -->
<g id="node8" class="node">
<title>Node10</title>
<polygon fill="none" stroke="#bfbfbf" points="409.5,-292.5 409.5,-349.5 465.5,-349.5 465.5,-292.5 409.5,-292.5"/>
<text text-anchor="middle" x="437.5" y="-337.5" font-family="Helvetica,sans-Serif" font-size="10.00" fill="#000000">List&lt; T &gt;</text>
<polyline fill="none" stroke="#bfbfbf" points="409.5,-330.5 465.5,-330.5 "/>
<text text-anchor="middle" x="437.5" y="-318.5" font-family="Helvetica,sans-Serif" font-size="10.00" fill="#000000"> </text>
<polyline fill="none" stroke="#bfbfbf" points="409.5,-311.5 465.5,-311.5 "/>
<text text-anchor="middle" x="437.5" y="-299.5" font-family="Helvetica,sans-Serif" font-size="10.00" fill="#000000"> </text>
</g>
<!-- Node10&#45;&gt;Node3 -->
<g id="edge8" class="edge">
<title>Node10&#45;&gt;Node3</title>
<path fill="none" stroke="#404040" d="M429.6169,-292.3506C422.2992,-266.2903 410.8541,-226.8447 399.5,-193 395.5851,-181.3304 391.2608,-169.1006 386.8869,-157.0977"/>
<polygon fill="none" stroke="#404040" points="386.8318,-156.9476 381.0066,-152.6969 382.6899,-145.685 388.515,-149.9357 386.8318,-156.9476"/>
<text text-anchor="middle" x="421.5" y="-167" font-family="Helvetica,sans-Serif" font-size="10.00" fill="#000000"> &#45;typedRows</text>
</g>
<!-- Node11 -->
<g id="node9" class="node">
<title>Node11</title>
<polygon fill="none" stroke="#bfbfbf" points="421.5,-502 421.5,-559 453.5,-559 453.5,-502 421.5,-502"/>
<text text-anchor="middle" x="437.5" y="-547" font-family="Helvetica,sans-Serif" font-size="10.00" fill="#000000">List</text>
<polyline fill="none" stroke="#bfbfbf" points="421.5,-540 453.5,-540 "/>
<text text-anchor="middle" x="437.5" y="-528" font-family="Helvetica,sans-Serif" font-size="10.00" fill="#000000"> </text>
<polyline fill="none" stroke="#bfbfbf" points="421.5,-521 453.5,-521 "/>
<text text-anchor="middle" x="437.5" y="-509" font-family="Helvetica,sans-Serif" font-size="10.00" fill="#000000"> </text>
</g>
<!-- Node11&#45;&gt;Node10 -->
<g id="edge9" class="edge">
<title>Node11&#45;&gt;Node10</title>
<path fill="none" stroke="#ffa500" d="M437.5,-491.6133C437.5,-450.4576 437.5,-386.4774 437.5,-349.6797"/>
<polygon fill="#ffa500" stroke="#ffa500" points="434.0001,-491.8092 437.5,-501.8092 441.0001,-491.8092 434.0001,-491.8092"/>
<text text-anchor="middle" x="451.5" y="-470" font-family="Helvetica,sans-Serif" font-size="10.00" fill="#000000"> &lt; T &gt;</text>
</g>
</g>
</svg>
        <g id="navigator" transform="translate(0 0)" fill="#404254">
                <rect fill="#f2f5e9" fill-opacity="0.5" stroke="#606060" stroke-width=".5" x="0" y="0" width="60" height="60"/>
                <use id="zoomplus" xlink:href="#zoomPlus" x="17" y="9" onmousedown="handleZoom(evt,'in')"/>
                <use id="zoomminus" xlink:href="#zoomMin" x="42" y="9" onmousedown="handleZoom(evt,'out')"/>
                <use id="reset" xlink:href="#resetDef" x="30" y="36" onmousedown="handleReset()"/>
                <g id="arrowUp" xlink:href="#dirArrow" transform="translate(30 24)" onmousedown="handlePan(0,-1)">
                  <use xlink:href="#rim" fill="#404040">
                        <set attributeName="fill" to="#808080" begin="arrowUp.mouseover" end="arrowUp.mouseout"/>
                  </use>
                  <path fill="none" stroke="white" stroke-width="1.5" d="M0,-3.0v7 M-2.5,-0.5L0,-3.0L2.5,-0.5"/>
                </g>
                <g id="arrowRight" xlink:href="#dirArrow" transform="rotate(90) translate(36 -43)" onmousedown="handlePan(1,0)">
                  <use xlink:href="#rim" fill="#404040">
                        <set attributeName="fill" to="#808080" begin="arrowRight.mouseover" end="arrowRight.mouseout"/>
                  </use>
                  <path fill="none" stroke="white" stroke-width="1.5" d="M0,-3.0v7 M-2.5,-0.5L0,-3.0L2.5,-0.5"/>
                </g>
                <g id="arrowDown" xlink:href="#dirArrow" transform="rotate(180) translate(-30 -48)" onmousedown="handlePan(0,1)">
                  <use xlink:href="#rim" fill="#404040">
                        <set attributeName="fill" to="#808080" begin="arrowDown.mouseover" end="arrowDown.mouseout"/>
                  </use>
                  <path fill="none" stroke="white" stroke-width="1.5" d="M0,-3.0v7 M-2.5,-0.5L0,-3.0L2.5,-0.5"/>
                </g>
                <g id="arrowLeft" xlink:href="#dirArrow" transform="rotate(270) translate(-36 17)" onmousedown="handlePan(-1,0)">
                  <use xlink:href="#rim" fill="#404040">
                        <set attributeName="fill" to="#808080" begin="arrowLeft.mouseover" end="arrowLeft.mouseout"/>
                  </use>
                  <path fill="none" stroke="white" stroke-width="1.5" d="M0,-3.0v7 M-2.5,-0.5L0,-3.0L2.5,-0.5"/>
                </g>
        </g>
        <svg viewBox="0 0 15 15" width="100%" height="30px" preserveAspectRatio="xMaxYMin meet">
         <g id="arrow_out" transform="scale(0.3 0.3)">
          <a xlink:href="classorg_1_1cobbzilla_1_1util_1_1jdbc_1_1TypedResultSetBean__coll__graph_org.svg" target="_base">
           <rect id="button" ry="5" rx="5" y="6" x="6" height="38" width="38"
                fill="#f2f5e9" fill-opacity="0.5" stroke="#606060" stroke-width="1.0"/>
           <path id="arrow"
             d="M 11.500037,31.436501 C 11.940474,20.09759 22.043105,11.32322 32.158766,21.979434 L 37.068811,17.246167 C 37.068811,17.246167 37.088388,32 37.088388,32 L 22.160133,31.978069 C 22.160133,31.978069 26.997745,27.140456 26.997745,27.140456 C 18.528582,18.264221 13.291696,25.230495 11.500037,31.436501 z"
             style="fill:#404040;"/>
          </a>
         </g>
        </svg>
</svg>
