<?xml version="1.0" encoding="UTF-8" standalone="no"?>
<!DOCTYPE svg PUBLIC "-//W3C//DTD SVG 1.1//EN"
 "http://www.w3.org/Graphics/SVG/1.1/DTD/svg11.dtd">
<!-- Generated by graphviz version 2.40.1 (20161225.0304)
 -->
<!-- Title: org.cobbzilla.util.io.PathListFileResolver Pages: 1 -->
<!--zoomable 725 -->
<svg id="main" version="1.1" xmlns="http://www.w3.org/2000/svg" xmlns:xlink="http://www.w3.org/1999/xlink" xml:space="preserve" onload="init(evt)">
<style type="text/css"><![CDATA[
.edge:hover path { stroke: red; }
.edge:hover polygon { stroke: red; fill: red; }
]]></style>
<script type="text/javascript"><![CDATA[
var edges = document.getElementsByTagName('g');
if (edges && edges.length) {
  for (var i=0;i<edges.length;i++) {
    if (edges[i].id.substr(0,4)=='edge') {
      edges[i].setAttribute('class','edge');
    }
  }
}
]]></script>
        <defs>
                <circle id="rim" cx="0" cy="0" r="7"/>
                <circle id="rim2" cx="0" cy="0" r="3.5"/>
                <g id="zoomPlus">
                        <use xlink:href="#rim" fill="#404040">
                                <set attributeName="fill" to="#808080" begin="zoomplus.mouseover" end="zoomplus.mouseout"/>
                        </use>
                        <path d="M-4,0h8M0,-4v8" fill="none" stroke="white" stroke-width="1.5" pointer-events="none"/>
                </g>
                <g id="zoomMin">
                        <use xlink:href="#rim" fill="#404040">
                                <set attributeName="fill" to="#808080" begin="zoomminus.mouseover" end="zoomminus.mouseout"/>
                        </use>
                        <path d="M-4,0h8" fill="none" stroke="white" stroke-width="1.5" pointer-events="none"/>
                </g>
                <g id="dirArrow">
                        <path fill="none" stroke="white" stroke-width="1.5" d="M0,-3.0v7 M-2.5,-0.5L0,-3.0L2.5,-0.5"/>
                </g>
               <g id="resetDef">
                       <use xlink:href="#rim2" fill="#404040">
                               <set attributeName="fill" to="#808080" begin="reset.mouseover" end="reset.mouseout"/>
                       </use>
               </g>
        </defs>

<script type="text/javascript">
var viewWidth = 356;
var viewHeight = 725;
var sectionId = 'dynsection-1';
</script>
<script xlink:href="../../svgpan.js"/>
<svg id="graph" class="graph">
<g id="viewport">
<title>org.cobbzilla.util.io.PathListFileResolver</title>
<!-- Node6 -->
<g id="node1" class="node">
<title>Node6</title>
<polygon fill="#bfbfbf" stroke="#000000" points="110,-.5 110,-79.5 232,-79.5 232,-.5 110,-.5"/>
<text text-anchor="start" x="118" y="-67.5" font-family="Helvetica,sans-Serif" font-size="10.00" fill="#000000">org.cobbzilla.util.io.Path</text>
<text text-anchor="middle" x="171" y="-56.5" font-family="Helvetica,sans-Serif" font-size="10.00" fill="#000000">ListFileResolver</text>
<polyline fill="none" stroke="#000000" points="110,-49.5 232,-49.5 "/>
<text text-anchor="middle" x="171" y="-37.5" font-family="Helvetica,sans-Serif" font-size="10.00" fill="#000000"> </text>
<polyline fill="none" stroke="#000000" points="110,-30.5 232,-30.5 "/>
<text text-anchor="start" x="118" y="-18.5" font-family="Helvetica,sans-Serif" font-size="10.00" fill="#000000">+ PathListFileResolver()</text>
<text text-anchor="start" x="118" y="-7.5" font-family="Helvetica,sans-Serif" font-size="10.00" fill="#000000">+ resolve()</text>
</g>
<!-- Node7 -->
<g id="node2" class="node">
<title>Node7</title>
<g id="a_node2"><a xlink:href="../../d5/df5/classorg_1_1cobbzilla_1_1util_1_1collection_1_1StringSetSource.html" target="_top" xlink:title="{org.cobbzilla.util.collection.\lStringSetSource\n||}">
<polygon fill="none" stroke="#000000" points="33,-117.5 33,-185.5 167,-185.5 167,-117.5 33,-117.5"/>
<text text-anchor="start" x="41" y="-173.5" font-family="Helvetica,sans-Serif" font-size="10.00" fill="#000000">org.cobbzilla.util.collection.</text>
<text text-anchor="middle" x="100" y="-162.5" font-family="Helvetica,sans-Serif" font-size="10.00" fill="#000000">StringSetSource</text>
<polyline fill="none" stroke="#000000" points="33,-155.5 167,-155.5 "/>
<text text-anchor="middle" x="100" y="-143.5" font-family="Helvetica,sans-Serif" font-size="10.00" fill="#000000"> </text>
<polyline fill="none" stroke="#000000" points="33,-136.5 167,-136.5 "/>
<text text-anchor="middle" x="100" y="-124.5" font-family="Helvetica,sans-Serif" font-size="10.00" fill="#000000"> </text>
</a>
</g>
</g>
<!-- Node7&#45;&gt;Node6 -->
<g id="edge1" class="edge">
<title>Node7&#45;&gt;Node6</title>
<path fill="none" stroke="#191970" d="M127.1635,-108.8418C133.2561,-99.2738 139.696,-89.1606 145.7087,-79.718"/>
<polygon fill="none" stroke="#191970" points="124.1071,-107.1255 121.6881,-117.4405 130.0117,-110.8853 124.1071,-107.1255"/>
</g>
<!-- Node8 -->
<g id="node3" class="node">
<title>Node8</title>
<g id="a_node3"><a xlink:href="../../dd/de6/classorg_1_1cobbzilla_1_1util_1_1collection_1_1SetSourceBase.html" target="_top" xlink:title="{org.cobbzilla.util.collection.\lSetSourceBase\&lt; String \&gt;\n|&#45; values\l|+ getValues()\l+ addValue()\l+ addValues()\l+ toString()\l}">
<polygon fill="none" stroke="#000000" points="33,-223.5 33,-324.5 167,-324.5 167,-223.5 33,-223.5"/>
<text text-anchor="start" x="41" y="-312.5" font-family="Helvetica,sans-Serif" font-size="10.00" fill="#000000">org.cobbzilla.util.collection.</text>
<text text-anchor="middle" x="100" y="-301.5" font-family="Helvetica,sans-Serif" font-size="10.00" fill="#000000">SetSourceBase&lt; String &gt;</text>
<polyline fill="none" stroke="#000000" points="33,-294.5 167,-294.5 "/>
<text text-anchor="start" x="41" y="-282.5" font-family="Helvetica,sans-Serif" font-size="10.00" fill="#000000">&#45; values</text>
<polyline fill="none" stroke="#000000" points="33,-275.5 167,-275.5 "/>
<text text-anchor="start" x="41" y="-263.5" font-family="Helvetica,sans-Serif" font-size="10.00" fill="#000000">+ getValues()</text>
<text text-anchor="start" x="41" y="-252.5" font-family="Helvetica,sans-Serif" font-size="10.00" fill="#000000">+ addValue()</text>
<text text-anchor="start" x="41" y="-241.5" font-family="Helvetica,sans-Serif" font-size="10.00" fill="#000000">+ addValues()</text>
<text text-anchor="start" x="41" y="-230.5" font-family="Helvetica,sans-Serif" font-size="10.00" fill="#000000">+ toString()</text>
</a>
</g>
</g>
<!-- Node8&#45;&gt;Node7 -->
<g id="edge2" class="edge">
<title>Node8&#45;&gt;Node7</title>
<path fill="none" stroke="#191970" d="M100,-213.186C100,-203.6659 100,-194.1318 100,-185.5036"/>
<polygon fill="none" stroke="#191970" points="96.5001,-213.4673 100,-223.4673 103.5001,-213.4674 96.5001,-213.4673"/>
</g>
<!-- Node9 -->
<g id="node4" class="node">
<title>Node9</title>
<g id="a_node4"><a xlink:href="../../dd/de6/classorg_1_1cobbzilla_1_1util_1_1collection_1_1SetSourceBase.html" target="_top" xlink:title="{org.cobbzilla.util.collection.\lSetSourceBase\&lt; T \&gt;\n||+ getValues()\l+ addValue()\l+ addValues()\l+ toString()\l}">
<polygon fill="none" stroke="#000000" points="33,-372.5 33,-473.5 167,-473.5 167,-372.5 33,-372.5"/>
<text text-anchor="start" x="41" y="-461.5" font-family="Helvetica,sans-Serif" font-size="10.00" fill="#000000">org.cobbzilla.util.collection.</text>
<text text-anchor="middle" x="100" y="-450.5" font-family="Helvetica,sans-Serif" font-size="10.00" fill="#000000">SetSourceBase&lt; T &gt;</text>
<polyline fill="none" stroke="#000000" points="33,-443.5 167,-443.5 "/>
<text text-anchor="middle" x="100" y="-431.5" font-family="Helvetica,sans-Serif" font-size="10.00" fill="#000000"> </text>
<polyline fill="none" stroke="#000000" points="33,-424.5 167,-424.5 "/>
<text text-anchor="start" x="41" y="-412.5" font-family="Helvetica,sans-Serif" font-size="10.00" fill="#000000">+ getValues()</text>
<text text-anchor="start" x="41" y="-401.5" font-family="Helvetica,sans-Serif" font-size="10.00" fill="#000000">+ addValue()</text>
<text text-anchor="start" x="41" y="-390.5" font-family="Helvetica,sans-Serif" font-size="10.00" fill="#000000">+ addValues()</text>
<text text-anchor="start" x="41" y="-379.5" font-family="Helvetica,sans-Serif" font-size="10.00" fill="#000000">+ toString()</text>
</a>
</g>
</g>
<!-- Node9&#45;&gt;Node8 -->
<g id="edge3" class="edge">
<title>Node9&#45;&gt;Node8</title>
<path fill="none" stroke="#ffa500" d="M100,-361.8874C100,-349.5023 100,-336.6068 100,-324.6314"/>
<polygon fill="#ffa500" stroke="#ffa500" points="96.5001,-362.1394 100,-372.1394 103.5001,-362.1394 96.5001,-362.1394"/>
<text text-anchor="middle" x="123.5" y="-346" font-family="Helvetica,sans-Serif" font-size="10.00" fill="#000000"> &lt; String &gt;</text>
</g>
<!-- Node10 -->
<g id="node5" class="node">
<title>Node10</title>
<g id="a_node5"><a xlink:href="../../d9/df4/interfaceorg_1_1cobbzilla_1_1util_1_1collection_1_1CollectionSource.html" target="_top" xlink:title="{org::cobbzilla::util\l::collection::CollectionSource\&lt; T \&gt;\n||+ addValue()\l+ addValues()\l+ getValues()\l}">
<polygon fill="none" stroke="#000000" points="0,-521.5 0,-611.5 168,-611.5 168,-521.5 0,-521.5"/>
<text text-anchor="start" x="8" y="-599.5" font-family="Helvetica,sans-Serif" font-size="10.00" fill="#000000">org::cobbzilla::util</text>
<text text-anchor="middle" x="84" y="-588.5" font-family="Helvetica,sans-Serif" font-size="10.00" fill="#000000">::collection::CollectionSource&lt; T &gt;</text>
<polyline fill="none" stroke="#000000" points="0,-581.5 168,-581.5 "/>
<text text-anchor="middle" x="84" y="-569.5" font-family="Helvetica,sans-Serif" font-size="10.00" fill="#000000"> </text>
<polyline fill="none" stroke="#000000" points="0,-562.5 168,-562.5 "/>
<text text-anchor="start" x="8" y="-550.5" font-family="Helvetica,sans-Serif" font-size="10.00" fill="#000000">+ addValue()</text>
<text text-anchor="start" x="8" y="-539.5" font-family="Helvetica,sans-Serif" font-size="10.00" fill="#000000">+ addValues()</text>
<text text-anchor="start" x="8" y="-528.5" font-family="Helvetica,sans-Serif" font-size="10.00" fill="#000000">+ getValues()</text>
</a>
</g>
</g>
<!-- Node10&#45;&gt;Node9 -->
<g id="edge4" class="edge">
<title>Node10&#45;&gt;Node9</title>
<path fill="none" stroke="#191970" d="M90.1573,-511.2769C91.5392,-498.8828 92.9987,-485.7929 94.3584,-473.5983"/>
<polygon fill="none" stroke="#191970" points="86.6484,-511.1631 89.0186,-521.4894 93.6052,-511.9389 86.6484,-511.1631"/>
</g>
<!-- Node11 -->
<g id="node6" class="node">
<title>Node11</title>
<polygon fill="none" stroke="#bfbfbf" points="186.5,-532.5 186.5,-600.5 331.5,-600.5 331.5,-532.5 186.5,-532.5"/>
<text text-anchor="start" x="194.5" y="-588.5" font-family="Helvetica,sans-Serif" font-size="10.00" fill="#000000">AtomicReference&lt; Collection</text>
<text text-anchor="middle" x="259" y="-577.5" font-family="Helvetica,sans-Serif" font-size="10.00" fill="#000000">&lt; T &gt; &gt;</text>
<polyline fill="none" stroke="#bfbfbf" points="186.5,-570.5 331.5,-570.5 "/>
<text text-anchor="middle" x="259" y="-558.5" font-family="Helvetica,sans-Serif" font-size="10.00" fill="#000000"> </text>
<polyline fill="none" stroke="#bfbfbf" points="186.5,-551.5 331.5,-551.5 "/>
<text text-anchor="middle" x="259" y="-539.5" font-family="Helvetica,sans-Serif" font-size="10.00" fill="#000000"> </text>
</g>
<!-- Node11&#45;&gt;Node9 -->
<g id="edge5" class="edge">
<title>Node11&#45;&gt;Node9</title>
<path fill="none" stroke="#404040" d="M221.3192,-532.4925C204.5124,-517.324 184.2196,-499.0095 165.0804,-481.7361"/>
<polygon fill="none" stroke="#404040" points="165.0008,-481.6643 157.8666,-480.6137 156.0924,-473.6243 163.2266,-474.6748 165.0008,-481.6643"/>
<text text-anchor="middle" x="202.5" y="-495" font-family="Helvetica,sans-Serif" font-size="10.00" fill="#000000"> &#45;values</text>
</g>
<!-- Node12 -->
<g id="node7" class="node">
<title>Node12</title>
<polygon fill="none" stroke="#bfbfbf" points="213,-659.5 213,-716.5 305,-716.5 305,-659.5 213,-659.5"/>
<text text-anchor="middle" x="259" y="-704.5" font-family="Helvetica,sans-Serif" font-size="10.00" fill="#000000">AtomicReference</text>
<polyline fill="none" stroke="#bfbfbf" points="213,-697.5 305,-697.5 "/>
<text text-anchor="middle" x="259" y="-685.5" font-family="Helvetica,sans-Serif" font-size="10.00" fill="#000000"> </text>
<polyline fill="none" stroke="#bfbfbf" points="213,-678.5 305,-678.5 "/>
<text text-anchor="middle" x="259" y="-666.5" font-family="Helvetica,sans-Serif" font-size="10.00" fill="#000000"> </text>
</g>
<!-- Node12&#45;&gt;Node11 -->
<g id="edge6" class="edge">
<title>Node12&#45;&gt;Node11</title>
<path fill="none" stroke="#ffa500" d="M259,-648.8733C259,-633.3628 259,-615.6896 259,-600.7007"/>
<polygon fill="#ffa500" stroke="#ffa500" points="255.5001,-649.2062 259,-659.2062 262.5001,-649.2062 255.5001,-649.2062"/>
<text text-anchor="middle" x="303.5" y="-633" font-family="Helvetica,sans-Serif" font-size="10.00" fill="#000000"> &lt; Collection&lt; T &gt; &gt;</text>
</g>
<!-- Node13 -->
<g id="node8" class="node">
<title>Node13</title>
<g id="a_node8"><a xlink:href="../../d0/df1/interfaceorg_1_1cobbzilla_1_1util_1_1io_1_1FileResolver.html" target="_top" xlink:title="{org.cobbzilla.util.io.File\lResolver\n||+ resolve()\l}">
<polygon fill="none" stroke="#000000" points="185,-117.5 185,-185.5 301,-185.5 301,-117.5 185,-117.5"/>
<text text-anchor="start" x="193" y="-173.5" font-family="Helvetica,sans-Serif" font-size="10.00" fill="#000000">org.cobbzilla.util.io.File</text>
<text text-anchor="middle" x="243" y="-162.5" font-family="Helvetica,sans-Serif" font-size="10.00" fill="#000000">Resolver</text>
<polyline fill="none" stroke="#000000" points="185,-155.5 301,-155.5 "/>
<text text-anchor="middle" x="243" y="-143.5" font-family="Helvetica,sans-Serif" font-size="10.00" fill="#000000"> </text>
<polyline fill="none" stroke="#000000" points="185,-136.5 301,-136.5 "/>
<text text-anchor="start" x="193" y="-124.5" font-family="Helvetica,sans-Serif" font-size="10.00" fill="#000000">+ resolve()</text>
</a>
</g>
</g>
<!-- Node13&#45;&gt;Node6 -->
<g id="edge7" class="edge">
<title>Node13&#45;&gt;Node6</title>
<path fill="none" stroke="#191970" d="M215.4539,-108.8418C209.2755,-99.2738 202.7449,-89.1606 196.6475,-79.718"/>
<polygon fill="none" stroke="#191970" points="212.6414,-110.9384 221.0064,-117.4405 218.5219,-107.141 212.6414,-110.9384"/>
</g>
</g>
</svg>
        <g id="navigator" transform="translate(0 0)" fill="#404254">
                <rect fill="#f2f5e9" fill-opacity="0.5" stroke="#606060" stroke-width=".5" x="0" y="0" width="60" height="60"/>
                <use id="zoomplus" xlink:href="#zoomPlus" x="17" y="9" onmousedown="handleZoom(evt,'in')"/>
                <use id="zoomminus" xlink:href="#zoomMin" x="42" y="9" onmousedown="handleZoom(evt,'out')"/>
                <use id="reset" xlink:href="#resetDef" x="30" y="36" onmousedown="handleReset()"/>
                <g id="arrowUp" xlink:href="#dirArrow" transform="translate(30 24)" onmousedown="handlePan(0,-1)">
                  <use xlink:href="#rim" fill="#404040">
                        <set attributeName="fill" to="#808080" begin="arrowUp.mouseover" end="arrowUp.mouseout"/>
                  </use>
                  <path fill="none" stroke="white" stroke-width="1.5" d="M0,-3.0v7 M-2.5,-0.5L0,-3.0L2.5,-0.5"/>
                </g>
                <g id="arrowRight" xlink:href="#dirArrow" transform="rotate(90) translate(36 -43)" onmousedown="handlePan(1,0)">
                  <use xlink:href="#rim" fill="#404040">
                        <set attributeName="fill" to="#808080" begin="arrowRight.mouseover" end="arrowRight.mouseout"/>
                  </use>
                  <path fill="none" stroke="white" stroke-width="1.5" d="M0,-3.0v7 M-2.5,-0.5L0,-3.0L2.5,-0.5"/>
                </g>
                <g id="arrowDown" xlink:href="#dirArrow" transform="rotate(180) translate(-30 -48)" onmousedown="handlePan(0,1)">
                  <use xlink:href="#rim" fill="#404040">
                        <set attributeName="fill" to="#808080" begin="arrowDown.mouseover" end="arrowDown.mouseout"/>
                  </use>
                  <path fill="none" stroke="white" stroke-width="1.5" d="M0,-3.0v7 M-2.5,-0.5L0,-3.0L2.5,-0.5"/>
                </g>
                <g id="arrowLeft" xlink:href="#dirArrow" transform="rotate(270) translate(-36 17)" onmousedown="handlePan(-1,0)">
                  <use xlink:href="#rim" fill="#404040">
                        <set attributeName="fill" to="#808080" begin="arrowLeft.mouseover" end="arrowLeft.mouseout"/>
                  </use>
                  <path fill="none" stroke="white" stroke-width="1.5" d="M0,-3.0v7 M-2.5,-0.5L0,-3.0L2.5,-0.5"/>
                </g>
        </g>
        <svg viewBox="0 0 15 15" width="100%" height="30px" preserveAspectRatio="xMaxYMin meet">
         <g id="arrow_out" transform="scale(0.3 0.3)">
          <a xlink:href="classorg_1_1cobbzilla_1_1util_1_1io_1_1PathListFileResolver__coll__graph_org.svg" target="_base">
           <rect id="button" ry="5" rx="5" y="6" x="6" height="38" width="38"
                fill="#f2f5e9" fill-opacity="0.5" stroke="#606060" stroke-width="1.0"/>
           <path id="arrow"
             d="M 11.500037,31.436501 C 11.940474,20.09759 22.043105,11.32322 32.158766,21.979434 L 37.068811,17.246167 C 37.068811,17.246167 37.088388,32 37.088388,32 L 22.160133,31.978069 C 22.160133,31.978069 26.997745,27.140456 26.997745,27.140456 C 18.528582,18.264221 13.291696,25.230495 11.500037,31.436501 z"
             style="fill:#404040;"/>
          </a>
         </g>
        </svg>
</svg>
