<?xml version="1.0" encoding="UTF-8" standalone="no"?>
<!DOCTYPE svg PUBLIC "-//W3C//DTD SVG 1.1//EN"
 "http://www.w3.org/Graphics/SVG/1.1/DTD/svg11.dtd">
<!-- Generated by graphviz version 2.40.1 (20161225.0304)
 -->
<!-- Title: org.cobbzilla.util.daemon.SimpleDaemon.alreadyStopped Pages: 1 -->
<svg width="538pt" height="137pt"
 viewBox="0.00 0.00 538.00 137.00" xmlns="http://www.w3.org/2000/svg" xmlns:xlink="http://www.w3.org/1999/xlink">
<g id="graph0" class="graph" transform="scale(1 1) rotate(0) translate(4 133)">
<title>org.cobbzilla.util.daemon.SimpleDaemon.alreadyStopped</title>
<!-- Node1 -->
<g id="node1" class="node">
<title>Node1</title>
<polygon fill="#bfbfbf" stroke="#000000" points="0,-49.5 0,-79.5 154,-79.5 154,-49.5 0,-49.5"/>
<text text-anchor="start" x="8" y="-67.5" font-family="Helvetica,sans-Serif" font-size="10.00" fill="#000000">org.cobbzilla.util.daemon.</text>
<text text-anchor="middle" x="77" y="-56.5" font-family="Helvetica,sans-Serif" font-size="10.00" fill="#000000">SimpleDaemon.alreadyStopped</text>
</g>
<!-- Node2 -->
<g id="node2" class="node">
<title>Node2</title>
<g id="a_node2"><a xlink:href="../../dc/d43/classorg_1_1cobbzilla_1_1util_1_1daemon_1_1SimpleDaemon_a1ba6a1de0545a72912b7f5ac511f315b.html#a1ba6a1de0545a72912b7f5ac511f315b" target="_top" xlink:title="org.cobbzilla.util.daemon.\lSimpleDaemon.interrupt">
<polygon fill="none" stroke="#000000" points="190,-98.5 190,-128.5 318,-128.5 318,-98.5 190,-98.5"/>
<text text-anchor="start" x="198" y="-116.5" font-family="Helvetica,sans-Serif" font-size="10.00" fill="#000000">org.cobbzilla.util.daemon.</text>
<text text-anchor="middle" x="254" y="-105.5" font-family="Helvetica,sans-Serif" font-size="10.00" fill="#000000">SimpleDaemon.interrupt</text>
</a>
</g>
</g>
<!-- Node1&#45;&gt;Node2 -->
<g id="edge1" class="edge">
<title>Node1&#45;&gt;Node2</title>
<path fill="none" stroke="#191970" d="M141.3747,-82.3212C160.4854,-87.6118 181.221,-93.3522 199.63,-98.4484"/>
<polygon fill="#191970" stroke="#191970" points="142.1214,-78.8964 131.5501,-79.6014 140.2538,-85.6427 142.1214,-78.8964"/>
</g>
<!-- Node3 -->
<g id="node3" class="node">
<title>Node3</title>
<g id="a_node3"><a xlink:href="../../dc/d43/classorg_1_1cobbzilla_1_1util_1_1daemon_1_1SimpleDaemon_a850446997db65fd03443f4eaf596ca30.html#a850446997db65fd03443f4eaf596ca30" target="_top" xlink:title="org.cobbzilla.util.daemon.\lSimpleDaemon.kill">
<polygon fill="none" stroke="#000000" points="190,-49.5 190,-79.5 318,-79.5 318,-49.5 190,-49.5"/>
<text text-anchor="start" x="198" y="-67.5" font-family="Helvetica,sans-Serif" font-size="10.00" fill="#000000">org.cobbzilla.util.daemon.</text>
<text text-anchor="middle" x="254" y="-56.5" font-family="Helvetica,sans-Serif" font-size="10.00" fill="#000000">SimpleDaemon.kill</text>
</a>
</g>
</g>
<!-- Node1&#45;&gt;Node3 -->
<g id="edge2" class="edge">
<title>Node1&#45;&gt;Node3</title>
<path fill="none" stroke="#191970" d="M164.228,-64.5C172.8616,-64.5 181.5115,-64.5 189.8487,-64.5"/>
<polygon fill="#191970" stroke="#191970" points="164.1199,-61.0001 154.1199,-64.5 164.1198,-68.0001 164.1199,-61.0001"/>
</g>
<!-- Node5 -->
<g id="node5" class="node">
<title>Node5</title>
<g id="a_node5"><a xlink:href="../../dc/d43/classorg_1_1cobbzilla_1_1util_1_1daemon_1_1SimpleDaemon_a29831708365679ff068883aae27e0bd8.html#a29831708365679ff068883aae27e0bd8" target="_top" xlink:title="org.cobbzilla.util.daemon.\lSimpleDaemon.stop">
<polygon fill="none" stroke="#000000" points="190,-.5 190,-30.5 318,-30.5 318,-.5 190,-.5"/>
<text text-anchor="start" x="198" y="-18.5" font-family="Helvetica,sans-Serif" font-size="10.00" fill="#000000">org.cobbzilla.util.daemon.</text>
<text text-anchor="middle" x="254" y="-7.5" font-family="Helvetica,sans-Serif" font-size="10.00" fill="#000000">SimpleDaemon.stop</text>
</a>
</g>
</g>
<!-- Node1&#45;&gt;Node5 -->
<g id="edge4" class="edge">
<title>Node1&#45;&gt;Node5</title>
<path fill="none" stroke="#191970" d="M141.3747,-46.6788C160.4854,-41.3882 181.221,-35.6478 199.63,-30.5516"/>
<polygon fill="#191970" stroke="#191970" points="140.2538,-43.3573 131.5501,-49.3986 142.1214,-50.1036 140.2538,-43.3573"/>
</g>
<!-- Node4 -->
<g id="node4" class="node">
<title>Node4</title>
<g id="a_node4"><a xlink:href="../../dc/d43/classorg_1_1cobbzilla_1_1util_1_1daemon_1_1SimpleDaemon_a162de033bce64e39a637616a44617c8a.html#a162de033bce64e39a637616a44617c8a" target="_top" xlink:title="Tries to stop the daemon. ">
<polygon fill="none" stroke="#000000" points="354,-24.5 354,-54.5 530,-54.5 530,-24.5 354,-24.5"/>
<text text-anchor="start" x="362" y="-42.5" font-family="Helvetica,sans-Serif" font-size="10.00" fill="#000000">org.cobbzilla.util.daemon.</text>
<text text-anchor="middle" x="442" y="-31.5" font-family="Helvetica,sans-Serif" font-size="10.00" fill="#000000">SimpleDaemon.stopWithPossibleKill</text>
</a>
</g>
</g>
<!-- Node3&#45;&gt;Node4 -->
<g id="edge3" class="edge">
<title>Node3&#45;&gt;Node4</title>
<path fill="none" stroke="#191970" d="M328.2826,-54.622C336.6755,-53.5059 345.2879,-52.3606 353.8358,-51.224"/>
<polygon fill="#191970" stroke="#191970" points="327.6245,-51.1786 318.1731,-55.9663 328.5473,-58.1175 327.6245,-51.1786"/>
</g>
<!-- Node5&#45;&gt;Node4 -->
<g id="edge5" class="edge">
<title>Node5&#45;&gt;Node4</title>
<path fill="none" stroke="#191970" d="M328.2826,-24.9829C336.6755,-26.0543 345.2879,-27.1538 353.8358,-28.245"/>
<polygon fill="#191970" stroke="#191970" points="328.5359,-21.4869 318.1731,-23.6923 327.6494,-28.4305 328.5359,-21.4869"/>
</g>
</g>
</svg>
