<?xml version="1.0" encoding="UTF-8" standalone="no"?>
<!DOCTYPE svg PUBLIC "-//W3C//DTD SVG 1.1//EN"
 "http://www.w3.org/Graphics/SVG/1.1/DTD/svg11.dtd">
<!-- Generated by graphviz version 2.40.1 (20161225.0304)
 -->
<!-- Title: org.cobbzilla.util.daemon.SimpleDaemon.getStartupDelay Pages: 1 -->
<svg width="347pt" height="88pt"
 viewBox="0.00 0.00 347.00 88.00" xmlns="http://www.w3.org/2000/svg" xmlns:xlink="http://www.w3.org/1999/xlink">
<g id="graph0" class="graph" transform="scale(1 1) rotate(0) translate(4 84)">
<title>org.cobbzilla.util.daemon.SimpleDaemon.getStartupDelay</title>
<!-- Node0 -->
<g id="node1" class="node">
<title>Node0</title>
<polygon fill="#bfbfbf" stroke="#000000" points="0,-24.5 0,-54.5 157,-54.5 157,-24.5 0,-24.5"/>
<text text-anchor="start" x="8" y="-42.5" font-family="Helvetica,sans-Serif" font-size="10.00" fill="#000000">org.cobbzilla.util.daemon.</text>
<text text-anchor="middle" x="78.5" y="-31.5" font-family="Helvetica,sans-Serif" font-size="10.00" fill="#000000">SimpleDaemon.getStartupDelay</text>
</g>
<!-- Node1 -->
<g id="node2" class="node">
<title>Node1</title>
<g id="a_node2"><a xlink:href="../../dc/d43/classorg_1_1cobbzilla_1_1util_1_1daemon_1_1SimpleDaemon_aa3f2a07619c31c13b1a56f53d570d328.html#aa3f2a07619c31c13b1a56f53d570d328" target="_top" xlink:title="org.cobbzilla.util.daemon.\lSimpleDaemon.getSleepTime">
<polygon fill="none" stroke="#000000" points="193,-49.5 193,-79.5 339,-79.5 339,-49.5 193,-49.5"/>
<text text-anchor="start" x="201" y="-67.5" font-family="Helvetica,sans-Serif" font-size="10.00" fill="#000000">org.cobbzilla.util.daemon.</text>
<text text-anchor="middle" x="266" y="-56.5" font-family="Helvetica,sans-Serif" font-size="10.00" fill="#000000">SimpleDaemon.getSleepTime</text>
</a>
</g>
</g>
<!-- Node0&#45;&gt;Node1 -->
<g id="edge1" class="edge">
<title>Node0&#45;&gt;Node1</title>
<path fill="none" stroke="#191970" d="M157.2019,-49.9936C165.7016,-51.1269 174.3708,-52.2828 182.92,-53.4227"/>
<polygon fill="#191970" stroke="#191970" points="182.5087,-56.8987 192.8836,-54.7511 183.4339,-49.9601 182.5087,-56.8987"/>
</g>
<!-- Node2 -->
<g id="node3" class="node">
<title>Node2</title>
<g id="a_node3"><a xlink:href="../../dc/d43/classorg_1_1cobbzilla_1_1util_1_1daemon_1_1SimpleDaemon_aa6f521bc807c4f351e517093bb1b1a43.html#aa6f521bc807c4f351e517093bb1b1a43" target="_top" xlink:title="org.cobbzilla.util.daemon.\lSimpleDaemon.process">
<polygon fill="none" stroke="#000000" points="202,-.5 202,-30.5 330,-30.5 330,-.5 202,-.5"/>
<text text-anchor="start" x="210" y="-18.5" font-family="Helvetica,sans-Serif" font-size="10.00" fill="#000000">org.cobbzilla.util.daemon.</text>
<text text-anchor="middle" x="266" y="-7.5" font-family="Helvetica,sans-Serif" font-size="10.00" fill="#000000">SimpleDaemon.process</text>
</a>
</g>
</g>
<!-- Node0&#45;&gt;Node2 -->
<g id="edge2" class="edge">
<title>Node0&#45;&gt;Node2</title>
<path fill="none" stroke="#191970" d="M157.2019,-29.4262C168.7512,-27.9478 180.6133,-26.4295 192.0624,-24.964"/>
<polygon fill="#191970" stroke="#191970" points="192.5244,-28.4335 201.9991,-23.6921 191.6356,-21.4902 192.5244,-28.4335"/>
</g>
</g>
</svg>
