<?xml version="1.0" encoding="UTF-8" standalone="no"?>
<!DOCTYPE svg PUBLIC "-//W3C//DTD SVG 1.1//EN"
 "http://www.w3.org/Graphics/SVG/1.1/DTD/svg11.dtd">
<!-- Generated by graphviz version 2.40.1 (20161225.0304)
 -->
<!-- Title: org.cobbzilla.util.daemon.SimpleDaemon.run Pages: 1 -->
<!--zoomable 362 -->
<svg id="main" version="1.1" xmlns="http://www.w3.org/2000/svg" xmlns:xlink="http://www.w3.org/1999/xlink" xml:space="preserve" onload="init(evt)">
<style type="text/css"><![CDATA[
.edge:hover path { stroke: red; }
.edge:hover polygon { stroke: red; fill: red; }
]]></style>
<script type="text/javascript"><![CDATA[
var edges = document.getElementsByTagName('g');
if (edges && edges.length) {
  for (var i=0;i<edges.length;i++) {
    if (edges[i].id.substr(0,4)=='edge') {
      edges[i].setAttribute('class','edge');
    }
  }
}
]]></script>
        <defs>
                <circle id="rim" cx="0" cy="0" r="7"/>
                <circle id="rim2" cx="0" cy="0" r="3.5"/>
                <g id="zoomPlus">
                        <use xlink:href="#rim" fill="#404040">
                                <set attributeName="fill" to="#808080" begin="zoomplus.mouseover" end="zoomplus.mouseout"/>
                        </use>
                        <path d="M-4,0h8M0,-4v8" fill="none" stroke="white" stroke-width="1.5" pointer-events="none"/>
                </g>
                <g id="zoomMin">
                        <use xlink:href="#rim" fill="#404040">
                                <set attributeName="fill" to="#808080" begin="zoomminus.mouseover" end="zoomminus.mouseout"/>
                        </use>
                        <path d="M-4,0h8" fill="none" stroke="white" stroke-width="1.5" pointer-events="none"/>
                </g>
                <g id="dirArrow">
                        <path fill="none" stroke="white" stroke-width="1.5" d="M0,-3.0v7 M-2.5,-0.5L0,-3.0L2.5,-0.5"/>
                </g>
               <g id="resetDef">
                       <use xlink:href="#rim2" fill="#404040">
                               <set attributeName="fill" to="#808080" begin="reset.mouseover" end="reset.mouseout"/>
                       </use>
               </g>
        </defs>

<script type="text/javascript">
var viewWidth = 511;
var viewHeight = 362;
var sectionId = 'dynsection-0';
</script>
<script xlink:href="../../svgpan.js"/>
<svg id="graph" class="graph">
<g id="viewport">
<title>org.cobbzilla.util.daemon.SimpleDaemon.run</title>
<!-- Node0 -->
<g id="node1" class="node">
<title>Node0</title>
<polygon fill="#bfbfbf" stroke="#000000" points="0,-169.5 0,-199.5 128,-199.5 128,-169.5 0,-169.5"/>
<text text-anchor="start" x="8" y="-187.5" font-family="Helvetica,sans-Serif" font-size="10.00" fill="#000000">org.cobbzilla.util.daemon.</text>
<text text-anchor="middle" x="64" y="-176.5" font-family="Helvetica,sans-Serif" font-size="10.00" fill="#000000">SimpleDaemon.run</text>
</g>
<!-- Node1 -->
<g id="node2" class="node">
<title>Node1</title>
<g id="a_node2"><a xlink:href="../../dc/d43/classorg_1_1cobbzilla_1_1util_1_1daemon_1_1SimpleDaemon_adfc23ae2a7c4e25dd53cff7f7483cd47.html#adfc23ae2a7c4e25dd53cff7f7483cd47" target="_top" xlink:title="org.cobbzilla.util.daemon.\lSimpleDaemon.cleanup">
<polygon fill="none" stroke="#000000" points="178.5,-323.5 178.5,-353.5 306.5,-353.5 306.5,-323.5 178.5,-323.5"/>
<text text-anchor="start" x="186.5" y="-341.5" font-family="Helvetica,sans-Serif" font-size="10.00" fill="#000000">org.cobbzilla.util.daemon.</text>
<text text-anchor="middle" x="242.5" y="-330.5" font-family="Helvetica,sans-Serif" font-size="10.00" fill="#000000">SimpleDaemon.cleanup</text>
</a>
</g>
</g>
<!-- Node0&#45;&gt;Node1 -->
<g id="edge1" class="edge">
<title>Node0&#45;&gt;Node1</title>
<path fill="none" stroke="#191970" d="M72.5168,-199.628C87.7275,-225.3845 121.9448,-277.9279 164,-308.5 169.4709,-312.4771 175.5347,-315.9976 181.7972,-319.0964"/>
<polygon fill="#191970" stroke="#191970" points="180.5192,-322.3606 191.0688,-323.3389 183.4319,-315.9953 180.5192,-322.3606"/>
</g>
<!-- Node2 -->
<g id="node3" class="node">
<title>Node2</title>
<g id="a_node3"><a xlink:href="../../dc/d43/classorg_1_1cobbzilla_1_1util_1_1daemon_1_1SimpleDaemon_aa3f2a07619c31c13b1a56f53d570d328.html#aa3f2a07619c31c13b1a56f53d570d328" target="_top" xlink:title="org.cobbzilla.util.daemon.\lSimpleDaemon.getSleepTime">
<polygon fill="none" stroke="#000000" points="357,-269.5 357,-299.5 503,-299.5 503,-269.5 357,-269.5"/>
<text text-anchor="start" x="365" y="-287.5" font-family="Helvetica,sans-Serif" font-size="10.00" fill="#000000">org.cobbzilla.util.daemon.</text>
<text text-anchor="middle" x="430" y="-276.5" font-family="Helvetica,sans-Serif" font-size="10.00" fill="#000000">SimpleDaemon.getSleepTime</text>
</a>
</g>
</g>
<!-- Node0&#45;&gt;Node2 -->
<g id="edge2" class="edge">
<title>Node0&#45;&gt;Node2</title>
<path fill="none" stroke="#191970" d="M74.858,-199.5921C91.3207,-221.0644 124.8576,-259.59 164,-275.5 221.808,-298.9969 292.6488,-300.208 346.6852,-296.107"/>
<polygon fill="#191970" stroke="#191970" points="347.2417,-299.5728 356.9157,-295.2525 346.659,-292.5971 347.2417,-299.5728"/>
</g>
<!-- Node3 -->
<g id="node4" class="node">
<title>Node3</title>
<g id="a_node4"><a xlink:href="../../dc/d43/classorg_1_1cobbzilla_1_1util_1_1daemon_1_1SimpleDaemon_a6f1edebad741257e71051574376774d8.html#a6f1edebad741257e71051574376774d8" target="_top" xlink:title="org.cobbzilla.util.daemon.\lSimpleDaemon.getStartupDelay">
<polygon fill="none" stroke="#000000" points="164,-235.5 164,-265.5 321,-265.5 321,-235.5 164,-235.5"/>
<text text-anchor="start" x="172" y="-253.5" font-family="Helvetica,sans-Serif" font-size="10.00" fill="#000000">org.cobbzilla.util.daemon.</text>
<text text-anchor="middle" x="242.5" y="-242.5" font-family="Helvetica,sans-Serif" font-size="10.00" fill="#000000">SimpleDaemon.getStartupDelay</text>
</a>
</g>
</g>
<!-- Node0&#45;&gt;Node3 -->
<g id="edge3" class="edge">
<title>Node0&#45;&gt;Node3</title>
<path fill="none" stroke="#191970" d="M104.9515,-199.6417C130.916,-209.242 164.6847,-221.7279 192.2647,-231.9256"/>
<polygon fill="#191970" stroke="#191970" points="191.1458,-235.2434 201.739,-235.4287 193.5735,-228.6779 191.1458,-235.2434"/>
</g>
<!-- Node4 -->
<g id="node5" class="node">
<title>Node4</title>
<g id="a_node5"><a xlink:href="../../dc/d43/classorg_1_1cobbzilla_1_1util_1_1daemon_1_1SimpleDaemon_aa6f521bc807c4f351e517093bb1b1a43.html#aa6f521bc807c4f351e517093bb1b1a43" target="_top" xlink:title="org.cobbzilla.util.daemon.\lSimpleDaemon.process">
<polygon fill="none" stroke="#000000" points="366,-210.5 366,-240.5 494,-240.5 494,-210.5 366,-210.5"/>
<text text-anchor="start" x="374" y="-228.5" font-family="Helvetica,sans-Serif" font-size="10.00" fill="#000000">org.cobbzilla.util.daemon.</text>
<text text-anchor="middle" x="430" y="-217.5" font-family="Helvetica,sans-Serif" font-size="10.00" fill="#000000">SimpleDaemon.process</text>
</a>
</g>
</g>
<!-- Node0&#45;&gt;Node4 -->
<g id="edge9" class="edge">
<title>Node0&#45;&gt;Node4</title>
<path fill="none" stroke="#191970" d="M128.1712,-191.6886C191.7423,-198.8099 289.0192,-209.7071 355.8583,-217.1945"/>
<polygon fill="#191970" stroke="#191970" points="355.575,-220.6846 365.9025,-218.3197 356.3544,-213.7281 355.575,-220.6846"/>
</g>
<!-- Node5 -->
<g id="node6" class="node">
<title>Node5</title>
<g id="a_node6"><a xlink:href="../../dc/d43/classorg_1_1cobbzilla_1_1util_1_1daemon_1_1SimpleDaemon_a2e7bda863ecc479cde9489a74243f1c2.html#a2e7bda863ecc479cde9489a74243f1c2" target="_top" xlink:title="org.cobbzilla.util.daemon.\lSimpleDaemon.init">
<polygon fill="none" stroke="#000000" points="178.5,-147.5 178.5,-177.5 306.5,-177.5 306.5,-147.5 178.5,-147.5"/>
<text text-anchor="start" x="186.5" y="-165.5" font-family="Helvetica,sans-Serif" font-size="10.00" fill="#000000">org.cobbzilla.util.daemon.</text>
<text text-anchor="middle" x="242.5" y="-154.5" font-family="Helvetica,sans-Serif" font-size="10.00" fill="#000000">SimpleDaemon.init</text>
</a>
</g>
</g>
<!-- Node0&#45;&gt;Node5 -->
<g id="edge6" class="edge">
<title>Node0&#45;&gt;Node5</title>
<path fill="none" stroke="#191970" d="M128.1904,-176.5886C141.1729,-174.9885 154.9253,-173.2935 168.2213,-171.6548"/>
<polygon fill="#191970" stroke="#191970" points="168.7828,-175.1122 178.2796,-170.4151 167.9265,-168.1647 168.7828,-175.1122"/>
</g>
<!-- Node6 -->
<g id="node7" class="node">
<title>Node6</title>
<g id="a_node7"><a xlink:href="../../dc/d43/classorg_1_1cobbzilla_1_1util_1_1daemon_1_1SimpleDaemon_a1e4309a27b842ab7defecdc7965c712b.html#a1e4309a27b842ab7defecdc7965c712b" target="_top" xlink:title="Called right after daemon has started. ">
<polygon fill="none" stroke="#000000" points="178.5,-98.5 178.5,-128.5 306.5,-128.5 306.5,-98.5 178.5,-98.5"/>
<text text-anchor="start" x="186.5" y="-116.5" font-family="Helvetica,sans-Serif" font-size="10.00" fill="#000000">org.cobbzilla.util.daemon.</text>
<text text-anchor="middle" x="242.5" y="-105.5" font-family="Helvetica,sans-Serif" font-size="10.00" fill="#000000">SimpleDaemon.onStart</text>
</a>
</g>
</g>
<!-- Node0&#45;&gt;Node6 -->
<g id="edge7" class="edge">
<title>Node0&#45;&gt;Node6</title>
<path fill="none" stroke="#191970" d="M93.2729,-169.3875C112.9568,-159.5643 139.6581,-146.8863 164,-137.5 169.0694,-135.5452 174.37,-133.6404 179.7203,-131.8139"/>
<polygon fill="#191970" stroke="#191970" points="180.9745,-135.0856 189.3657,-128.6172 178.7723,-128.441 180.9745,-135.0856"/>
</g>
<!-- Node7 -->
<g id="node8" class="node">
<title>Node7</title>
<g id="a_node8"><a xlink:href="../../dc/d43/classorg_1_1cobbzilla_1_1util_1_1daemon_1_1SimpleDaemon_a42096a543b0667372066c6bd806f09d0.html#a42096a543b0667372066c6bd806f09d0" target="_top" xlink:title="Called right before daemon is about to exit. ">
<polygon fill="none" stroke="#000000" points="178.5,-49.5 178.5,-79.5 306.5,-79.5 306.5,-49.5 178.5,-49.5"/>
<text text-anchor="start" x="186.5" y="-67.5" font-family="Helvetica,sans-Serif" font-size="10.00" fill="#000000">org.cobbzilla.util.daemon.</text>
<text text-anchor="middle" x="242.5" y="-56.5" font-family="Helvetica,sans-Serif" font-size="10.00" fill="#000000">SimpleDaemon.onStop</text>
</a>
</g>
</g>
<!-- Node0&#45;&gt;Node7 -->
<g id="edge8" class="edge">
<title>Node0&#45;&gt;Node7</title>
<path fill="none" stroke="#191970" d="M75.9046,-169.2345C93.1422,-148.1279 127.0575,-110.1874 164,-88.5 166.9784,-86.7515 170.0963,-85.119 173.3008,-83.5961"/>
<polygon fill="#191970" stroke="#191970" points="174.741,-86.7865 182.5163,-79.5897 171.95,-80.367 174.741,-86.7865"/>
</g>
<!-- Node8 -->
<g id="node9" class="node">
<title>Node8</title>
<g id="a_node9"><a xlink:href="../../dc/d43/classorg_1_1cobbzilla_1_1util_1_1daemon_1_1SimpleDaemon_a5b44b2701469c705d627c28fdb317d56.html#a5b44b2701469c705d627c28fdb317d56" target="_top" xlink:title="org.cobbzilla.util.daemon.\lSimpleDaemon.wait">
<polygon fill="none" stroke="#000000" points="178.5,-.5 178.5,-30.5 306.5,-30.5 306.5,-.5 178.5,-.5"/>
<text text-anchor="start" x="186.5" y="-18.5" font-family="Helvetica,sans-Serif" font-size="10.00" fill="#000000">org.cobbzilla.util.daemon.</text>
<text text-anchor="middle" x="242.5" y="-7.5" font-family="Helvetica,sans-Serif" font-size="10.00" fill="#000000">SimpleDaemon.wait</text>
</a>
</g>
</g>
<!-- Node0&#45;&gt;Node8 -->
<g id="edge10" class="edge">
<title>Node0&#45;&gt;Node8</title>
<path fill="none" stroke="#191970" d="M70.3319,-169.2707C83.3849,-139.7434 116.1298,-74.5407 164,-39.5 166.0627,-37.9901 168.2218,-36.5739 170.4536,-35.2458"/>
<polygon fill="#191970" stroke="#191970" points="172.1561,-38.305 179.3722,-30.5476 168.8935,-32.1118 172.1561,-38.305"/>
</g>
<!-- Node3&#45;&gt;Node2 -->
<g id="edge4" class="edge">
<title>Node3&#45;&gt;Node2</title>
<path fill="none" stroke="#191970" d="M321.2019,-264.7713C329.7016,-266.3126 338.3708,-267.8846 346.92,-269.4348"/>
<polygon fill="#191970" stroke="#191970" points="346.4196,-272.9011 356.8836,-271.2416 347.6686,-266.0134 346.4196,-272.9011"/>
</g>
<!-- Node3&#45;&gt;Node4 -->
<g id="edge5" class="edge">
<title>Node3&#45;&gt;Node4</title>
<path fill="none" stroke="#191970" d="M321.2019,-240.0064C332.7512,-238.4665 344.6133,-236.8849 356.0624,-235.3583"/>
<polygon fill="#191970" stroke="#191970" points="356.5494,-238.8245 365.9991,-234.0335 355.6242,-231.8859 356.5494,-238.8245"/>
</g>
</g>
</svg>
        <g id="navigator" transform="translate(0 0)" fill="#404254">
                <rect fill="#f2f5e9" fill-opacity="0.5" stroke="#606060" stroke-width=".5" x="0" y="0" width="60" height="60"/>
                <use id="zoomplus" xlink:href="#zoomPlus" x="17" y="9" onmousedown="handleZoom(evt,'in')"/>
                <use id="zoomminus" xlink:href="#zoomMin" x="42" y="9" onmousedown="handleZoom(evt,'out')"/>
                <use id="reset" xlink:href="#resetDef" x="30" y="36" onmousedown="handleReset()"/>
                <g id="arrowUp" xlink:href="#dirArrow" transform="translate(30 24)" onmousedown="handlePan(0,-1)">
                  <use xlink:href="#rim" fill="#404040">
                        <set attributeName="fill" to="#808080" begin="arrowUp.mouseover" end="arrowUp.mouseout"/>
                  </use>
                  <path fill="none" stroke="white" stroke-width="1.5" d="M0,-3.0v7 M-2.5,-0.5L0,-3.0L2.5,-0.5"/>
                </g>
                <g id="arrowRight" xlink:href="#dirArrow" transform="rotate(90) translate(36 -43)" onmousedown="handlePan(1,0)">
                  <use xlink:href="#rim" fill="#404040">
                        <set attributeName="fill" to="#808080" begin="arrowRight.mouseover" end="arrowRight.mouseout"/>
                  </use>
                  <path fill="none" stroke="white" stroke-width="1.5" d="M0,-3.0v7 M-2.5,-0.5L0,-3.0L2.5,-0.5"/>
                </g>
                <g id="arrowDown" xlink:href="#dirArrow" transform="rotate(180) translate(-30 -48)" onmousedown="handlePan(0,1)">
                  <use xlink:href="#rim" fill="#404040">
                        <set attributeName="fill" to="#808080" begin="arrowDown.mouseover" end="arrowDown.mouseout"/>
                  </use>
                  <path fill="none" stroke="white" stroke-width="1.5" d="M0,-3.0v7 M-2.5,-0.5L0,-3.0L2.5,-0.5"/>
                </g>
                <g id="arrowLeft" xlink:href="#dirArrow" transform="rotate(270) translate(-36 17)" onmousedown="handlePan(-1,0)">
                  <use xlink:href="#rim" fill="#404040">
                        <set attributeName="fill" to="#808080" begin="arrowLeft.mouseover" end="arrowLeft.mouseout"/>
                  </use>
                  <path fill="none" stroke="white" stroke-width="1.5" d="M0,-3.0v7 M-2.5,-0.5L0,-3.0L2.5,-0.5"/>
                </g>
        </g>
        <svg viewBox="0 0 15 15" width="100%" height="30px" preserveAspectRatio="xMaxYMin meet">
         <g id="arrow_out" transform="scale(0.3 0.3)">
          <a xlink:href="classorg_1_1cobbzilla_1_1util_1_1daemon_1_1SimpleDaemon_a9bd70150ff04a192f0be64770b459357_a9bd70150ff04a192f0be64770b459357_cgraph_org.svg" target="_base">
           <rect id="button" ry="5" rx="5" y="6" x="6" height="38" width="38"
                fill="#f2f5e9" fill-opacity="0.5" stroke="#606060" stroke-width="1.0"/>
           <path id="arrow"
             d="M 11.500037,31.436501 C 11.940474,20.09759 22.043105,11.32322 32.158766,21.979434 L 37.068811,17.246167 C 37.068811,17.246167 37.088388,32 37.088388,32 L 22.160133,31.978069 C 22.160133,31.978069 26.997745,27.140456 26.997745,27.140456 C 18.528582,18.264221 13.291696,25.230495 11.500037,31.436501 z"
             style="fill:#404040;"/>
          </a>
         </g>
        </svg>
</svg>
