<?xml version="1.0" encoding="UTF-8" standalone="no"?>
<!DOCTYPE svg PUBLIC "-//W3C//DTD SVG 1.1//EN"
 "http://www.w3.org/Graphics/SVG/1.1/DTD/svg11.dtd">
<!-- Generated by graphviz version 2.40.1 (20161225.0304)
 -->
<!-- Title: org.cobbzilla.util.daemon.SimpleDaemon.stopWithPossibleKill Pages: 1 -->
<svg width="540pt" height="235pt"
 viewBox="0.00 0.00 540.00 235.00" xmlns="http://www.w3.org/2000/svg" xmlns:xlink="http://www.w3.org/1999/xlink">
<g id="graph0" class="graph" transform="scale(1 1) rotate(0) translate(4 231)">
<title>org.cobbzilla.util.daemon.SimpleDaemon.stopWithPossibleKill</title>
<!-- Node0 -->
<g id="node1" class="node">
<title>Node0</title>
<polygon fill="#bfbfbf" stroke="#000000" points="0,-98.5 0,-128.5 176,-128.5 176,-98.5 0,-98.5"/>
<text text-anchor="start" x="8" y="-116.5" font-family="Helvetica,sans-Serif" font-size="10.00" fill="#000000">org.cobbzilla.util.daemon.</text>
<text text-anchor="middle" x="88" y="-105.5" font-family="Helvetica,sans-Serif" font-size="10.00" fill="#000000">SimpleDaemon.stopWithPossibleKill</text>
</g>
<!-- Node1 -->
<g id="node2" class="node">
<title>Node1</title>
<g id="a_node2"><a xlink:href="../../dc/d43/classorg_1_1cobbzilla_1_1util_1_1daemon_1_1SimpleDaemon_a41b78bee5f95d5fbec18ca02098e2e59.html#a41b78bee5f95d5fbec18ca02098e2e59" target="_top" xlink:title="org.cobbzilla.util.daemon.\lSimpleDaemon.getIsAlive">
<polygon fill="none" stroke="#000000" points="212,-196.5 212,-226.5 342,-226.5 342,-196.5 212,-196.5"/>
<text text-anchor="start" x="220" y="-214.5" font-family="Helvetica,sans-Serif" font-size="10.00" fill="#000000">org.cobbzilla.util.daemon.</text>
<text text-anchor="middle" x="277" y="-203.5" font-family="Helvetica,sans-Serif" font-size="10.00" fill="#000000">SimpleDaemon.getIsAlive</text>
</a>
</g>
</g>
<!-- Node0&#45;&gt;Node1 -->
<g id="edge1" class="edge">
<title>Node0&#45;&gt;Node1</title>
<path fill="none" stroke="#191970" d="M110.607,-128.7254C134.9416,-144.6958 175.1313,-169.8776 212,-187.5 215.724,-189.28 219.6175,-191.014 223.5681,-192.6824"/>
<polygon fill="#191970" stroke="#191970" points="222.2548,-195.9266 232.8369,-196.4468 224.8889,-189.4411 222.2548,-195.9266"/>
</g>
<!-- Node2 -->
<g id="node3" class="node">
<title>Node2</title>
<g id="a_node3"><a xlink:href="../../dc/d43/classorg_1_1cobbzilla_1_1util_1_1daemon_1_1SimpleDaemon_a850446997db65fd03443f4eaf596ca30.html#a850446997db65fd03443f4eaf596ca30" target="_top" xlink:title="org.cobbzilla.util.daemon.\lSimpleDaemon.kill">
<polygon fill="none" stroke="#000000" points="213,-147.5 213,-177.5 341,-177.5 341,-147.5 213,-147.5"/>
<text text-anchor="start" x="221" y="-165.5" font-family="Helvetica,sans-Serif" font-size="10.00" fill="#000000">org.cobbzilla.util.daemon.</text>
<text text-anchor="middle" x="277" y="-154.5" font-family="Helvetica,sans-Serif" font-size="10.00" fill="#000000">SimpleDaemon.kill</text>
</a>
</g>
</g>
<!-- Node0&#45;&gt;Node2 -->
<g id="edge2" class="edge">
<title>Node0&#45;&gt;Node2</title>
<path fill="none" stroke="#191970" d="M145.9907,-128.5346C166.0371,-133.7318 188.6738,-139.6006 209.4214,-144.9796"/>
<polygon fill="#191970" stroke="#191970" points="208.5606,-148.3721 219.119,-147.4938 210.3174,-141.5961 208.5606,-148.3721"/>
</g>
<!-- Node4 -->
<g id="node5" class="node">
<title>Node4</title>
<g id="a_node5"><a xlink:href="../../dc/d43/classorg_1_1cobbzilla_1_1util_1_1daemon_1_1SimpleDaemon_a664531b19c1fecdddff2fb2e64c97726.html#a664531b19c1fecdddff2fb2e64c97726" target="_top" xlink:title="org.cobbzilla.util.daemon.\lSimpleDaemon.start">
<polygon fill="none" stroke="#000000" points="213,-98.5 213,-128.5 341,-128.5 341,-98.5 213,-98.5"/>
<text text-anchor="start" x="221" y="-116.5" font-family="Helvetica,sans-Serif" font-size="10.00" fill="#000000">org.cobbzilla.util.daemon.</text>
<text text-anchor="middle" x="277" y="-105.5" font-family="Helvetica,sans-Serif" font-size="10.00" fill="#000000">SimpleDaemon.start</text>
</a>
</g>
</g>
<!-- Node0&#45;&gt;Node4 -->
<g id="edge4" class="edge">
<title>Node0&#45;&gt;Node4</title>
<path fill="none" stroke="#191970" d="M176.1366,-113.5C185.0595,-113.5 194.0584,-113.5 202.8132,-113.5"/>
<polygon fill="#191970" stroke="#191970" points="202.9592,-117.0001 212.9592,-113.5 202.9591,-110.0001 202.9592,-117.0001"/>
</g>
<!-- Node5 -->
<g id="node6" class="node">
<title>Node5</title>
<g id="a_node6"><a xlink:href="../../dc/d43/classorg_1_1cobbzilla_1_1util_1_1daemon_1_1SimpleDaemon_a29831708365679ff068883aae27e0bd8.html#a29831708365679ff068883aae27e0bd8" target="_top" xlink:title="org.cobbzilla.util.daemon.\lSimpleDaemon.stop">
<polygon fill="none" stroke="#000000" points="213,-49.5 213,-79.5 341,-79.5 341,-49.5 213,-49.5"/>
<text text-anchor="start" x="221" y="-67.5" font-family="Helvetica,sans-Serif" font-size="10.00" fill="#000000">org.cobbzilla.util.daemon.</text>
<text text-anchor="middle" x="277" y="-56.5" font-family="Helvetica,sans-Serif" font-size="10.00" fill="#000000">SimpleDaemon.stop</text>
</a>
</g>
</g>
<!-- Node0&#45;&gt;Node5 -->
<g id="edge5" class="edge">
<title>Node0&#45;&gt;Node5</title>
<path fill="none" stroke="#191970" d="M145.9907,-98.4654C166.0371,-93.2682 188.6738,-87.3994 209.4214,-82.0204"/>
<polygon fill="#191970" stroke="#191970" points="210.3174,-85.4039 219.119,-79.5062 208.5606,-78.6279 210.3174,-85.4039"/>
</g>
<!-- Node6 -->
<g id="node7" class="node">
<title>Node6</title>
<g id="a_node7"><a xlink:href="../../dc/d43/classorg_1_1cobbzilla_1_1util_1_1daemon_1_1SimpleDaemon_a5b44b2701469c705d627c28fdb317d56.html#a5b44b2701469c705d627c28fdb317d56" target="_top" xlink:title="org.cobbzilla.util.daemon.\lSimpleDaemon.wait">
<polygon fill="none" stroke="#000000" points="213,-.5 213,-30.5 341,-30.5 341,-.5 213,-.5"/>
<text text-anchor="start" x="221" y="-18.5" font-family="Helvetica,sans-Serif" font-size="10.00" fill="#000000">org.cobbzilla.util.daemon.</text>
<text text-anchor="middle" x="277" y="-7.5" font-family="Helvetica,sans-Serif" font-size="10.00" fill="#000000">SimpleDaemon.wait</text>
</a>
</g>
</g>
<!-- Node0&#45;&gt;Node6 -->
<g id="edge7" class="edge">
<title>Node0&#45;&gt;Node6</title>
<path fill="none" stroke="#191970" d="M111.1356,-98.3154C135.5779,-82.6501 175.5526,-58.0893 212,-40.5 216.3318,-38.4095 220.8868,-36.3651 225.4912,-34.4028"/>
<polygon fill="#191970" stroke="#191970" points="227.0441,-37.5485 234.9559,-30.502 224.3767,-31.0766 227.0441,-37.5485"/>
</g>
<!-- Node3 -->
<g id="node4" class="node">
<title>Node3</title>
<g id="a_node4"><a xlink:href="../../dc/d43/classorg_1_1cobbzilla_1_1util_1_1daemon_1_1SimpleDaemon_a5132f60b2e0d247163db8246be0178d1.html#a5132f60b2e0d247163db8246be0178d1" target="_top" xlink:title="org.cobbzilla.util.daemon.\lSimpleDaemon.alreadyStopped">
<polygon fill="none" stroke="#000000" points="378,-98.5 378,-128.5 532,-128.5 532,-98.5 378,-98.5"/>
<text text-anchor="start" x="386" y="-116.5" font-family="Helvetica,sans-Serif" font-size="10.00" fill="#000000">org.cobbzilla.util.daemon.</text>
<text text-anchor="middle" x="455" y="-105.5" font-family="Helvetica,sans-Serif" font-size="10.00" fill="#000000">SimpleDaemon.alreadyStopped</text>
</a>
</g>
</g>
<!-- Node2&#45;&gt;Node3 -->
<g id="edge3" class="edge">
<title>Node2&#45;&gt;Node3</title>
<path fill="none" stroke="#191970" d="M331.8583,-147.3986C350.3865,-142.2981 371.2416,-136.5571 390.4495,-131.2695"/>
<polygon fill="#191970" stroke="#191970" points="391.6104,-134.5802 400.3228,-128.5516 389.7525,-127.8313 391.6104,-134.5802"/>
</g>
<!-- Node5&#45;&gt;Node3 -->
<g id="edge6" class="edge">
<title>Node5&#45;&gt;Node3</title>
<path fill="none" stroke="#191970" d="M331.8583,-79.6014C350.3865,-84.7019 371.2416,-90.4429 390.4495,-95.7305"/>
<polygon fill="#191970" stroke="#191970" points="389.7525,-99.1687 400.3228,-98.4484 391.6104,-92.4198 389.7525,-99.1687"/>
</g>
</g>
</svg>
