<?xml version="1.0" encoding="UTF-8" standalone="no"?>
<!DOCTYPE svg PUBLIC "-//W3C//DTD SVG 1.1//EN"
 "http://www.w3.org/Graphics/SVG/1.1/DTD/svg11.dtd">
<!-- Generated by graphviz version 2.40.1 (20161225.0304)
 -->
<!-- Title: org.cobbzilla.util.daemon.SimpleDaemon.process Pages: 1 -->
<svg width="493pt" height="61pt"
 viewBox="0.00 0.00 493.00 61.00" xmlns="http://www.w3.org/2000/svg" xmlns:xlink="http://www.w3.org/1999/xlink">
<g id="graph0" class="graph" transform="scale(1 1) rotate(0) translate(4 57)">
<title>org.cobbzilla.util.daemon.SimpleDaemon.process</title>
<!-- Node1 -->
<g id="node1" class="node">
<title>Node1</title>
<polygon fill="#bfbfbf" stroke="#000000" points="0,-.5 0,-30.5 128,-30.5 128,-.5 0,-.5"/>
<text text-anchor="start" x="8" y="-18.5" font-family="Helvetica,sans-Serif" font-size="10.00" fill="#000000">org.cobbzilla.util.daemon.</text>
<text text-anchor="middle" x="64" y="-7.5" font-family="Helvetica,sans-Serif" font-size="10.00" fill="#000000">SimpleDaemon.process</text>
</g>
<!-- Node2 -->
<g id="node2" class="node">
<title>Node2</title>
<g id="a_node2"><a xlink:href="../../dc/d43/classorg_1_1cobbzilla_1_1util_1_1daemon_1_1SimpleDaemon_a6f1edebad741257e71051574376774d8.html#a6f1edebad741257e71051574376774d8" target="_top" xlink:title="org.cobbzilla.util.daemon.\lSimpleDaemon.getStartupDelay">
<polygon fill="none" stroke="#000000" points="164,-22.5 164,-52.5 321,-52.5 321,-22.5 164,-22.5"/>
<text text-anchor="start" x="172" y="-40.5" font-family="Helvetica,sans-Serif" font-size="10.00" fill="#000000">org.cobbzilla.util.daemon.</text>
<text text-anchor="middle" x="242.5" y="-29.5" font-family="Helvetica,sans-Serif" font-size="10.00" fill="#000000">SimpleDaemon.getStartupDelay</text>
</a>
</g>
</g>
<!-- Node1&#45;&gt;Node2 -->
<g id="edge1" class="edge">
<title>Node1&#45;&gt;Node2</title>
<path fill="none" stroke="#191970" d="M138.3775,-24.667C146.8207,-25.7076 155.4466,-26.7707 163.9415,-27.8177"/>
<polygon fill="#191970" stroke="#191970" points="138.5435,-21.161 128.1904,-23.4114 137.6872,-28.1085 138.5435,-21.161"/>
</g>
<!-- Node3 -->
<g id="node3" class="node">
<title>Node3</title>
<g id="a_node3"><a xlink:href="../../dc/d43/classorg_1_1cobbzilla_1_1util_1_1daemon_1_1SimpleDaemon_a9bd70150ff04a192f0be64770b459357.html#a9bd70150ff04a192f0be64770b459357" target="_top" xlink:title="org.cobbzilla.util.daemon.\lSimpleDaemon.run">
<polygon fill="none" stroke="#000000" points="357,-.5 357,-30.5 485,-30.5 485,-.5 357,-.5"/>
<text text-anchor="start" x="365" y="-18.5" font-family="Helvetica,sans-Serif" font-size="10.00" fill="#000000">org.cobbzilla.util.daemon.</text>
<text text-anchor="middle" x="421" y="-7.5" font-family="Helvetica,sans-Serif" font-size="10.00" fill="#000000">SimpleDaemon.run</text>
</a>
</g>
</g>
<!-- Node1&#45;&gt;Node3 -->
<g id="edge3" class="edge">
<title>Node1&#45;&gt;Node3</title>
<path fill="none" stroke="#191970" d="M138.1804,-13.851C146.8839,-13.7065 155.6383,-13.5836 164,-13.5 233.7743,-12.8023 251.2257,-12.8023 321,-13.5 332.6337,-13.6163 345.0275,-13.8088 356.9868,-14.0295"/>
<polygon fill="#191970" stroke="#191970" points="137.9502,-10.3544 128.0132,-14.0295 138.0731,-17.3533 137.9502,-10.3544"/>
</g>
<!-- Node2&#45;&gt;Node3 -->
<g id="edge2" class="edge">
<title>Node2&#45;&gt;Node3</title>
<path fill="none" stroke="#191970" d="M331.1964,-26.5682C339.8569,-25.5008 348.5244,-24.4326 356.8726,-23.4037"/>
<polygon fill="#191970" stroke="#191970" points="330.5492,-23.1214 321.0525,-27.8185 331.4055,-30.0689 330.5492,-23.1214"/>
</g>
</g>
</svg>
