<?xml version="1.0" encoding="UTF-8" standalone="no"?>
<!DOCTYPE svg PUBLIC "-//W3C//DTD SVG 1.1//EN"
 "http://www.w3.org/Graphics/SVG/1.1/DTD/svg11.dtd">
<!-- Generated by graphviz version 2.40.1 (20161225.0304)
 -->
<!-- Title: org.cobbzilla.util.io.main.FilesystemWatcherMain.run Pages: 1 -->
<!--zoomable 269 -->
<svg id="main" version="1.1" xmlns="http://www.w3.org/2000/svg" xmlns:xlink="http://www.w3.org/1999/xlink" xml:space="preserve" onload="init(evt)">
<style type="text/css"><![CDATA[
.edge:hover path { stroke: red; }
.edge:hover polygon { stroke: red; fill: red; }
]]></style>
<script type="text/javascript"><![CDATA[
var edges = document.getElementsByTagName('g');
if (edges && edges.length) {
  for (var i=0;i<edges.length;i++) {
    if (edges[i].id.substr(0,4)=='edge') {
      edges[i].setAttribute('class','edge');
    }
  }
}
]]></script>
        <defs>
                <circle id="rim" cx="0" cy="0" r="7"/>
                <circle id="rim2" cx="0" cy="0" r="3.5"/>
                <g id="zoomPlus">
                        <use xlink:href="#rim" fill="#404040">
                                <set attributeName="fill" to="#808080" begin="zoomplus.mouseover" end="zoomplus.mouseout"/>
                        </use>
                        <path d="M-4,0h8M0,-4v8" fill="none" stroke="white" stroke-width="1.5" pointer-events="none"/>
                </g>
                <g id="zoomMin">
                        <use xlink:href="#rim" fill="#404040">
                                <set attributeName="fill" to="#808080" begin="zoomminus.mouseover" end="zoomminus.mouseout"/>
                        </use>
                        <path d="M-4,0h8" fill="none" stroke="white" stroke-width="1.5" pointer-events="none"/>
                </g>
                <g id="dirArrow">
                        <path fill="none" stroke="white" stroke-width="1.5" d="M0,-3.0v7 M-2.5,-0.5L0,-3.0L2.5,-0.5"/>
                </g>
               <g id="resetDef">
                       <use xlink:href="#rim2" fill="#404040">
                               <set attributeName="fill" to="#808080" begin="reset.mouseover" end="reset.mouseout"/>
                       </use>
               </g>
        </defs>

<script type="text/javascript">
var viewWidth = 594;
var viewHeight = 269;
var sectionId = 'dynsection-0';
</script>
<script xlink:href="../../svgpan.js"/>
<svg id="graph" class="graph">
<g id="viewport">
<title>org.cobbzilla.util.io.main.FilesystemWatcherMain.run</title>
<!-- Node0 -->
<g id="node1" class="node">
<title>Node0</title>
<polygon fill="#bfbfbf" stroke="#000000" points="0,-126 0,-156 139,-156 139,-126 0,-126"/>
<text text-anchor="start" x="8" y="-144" font-family="Helvetica,sans-Serif" font-size="10.00" fill="#000000">org.cobbzilla.util.io.main.</text>
<text text-anchor="middle" x="69.5" y="-133" font-family="Helvetica,sans-Serif" font-size="10.00" fill="#000000">FilesystemWatcherMain.run</text>
</g>
<!-- Node1 -->
<g id="node2" class="node">
<title>Node1</title>
<g id="a_node2"><a xlink:href="../../d7/d90/classorg_1_1cobbzilla_1_1util_1_1main_1_1BaseMainOptions_ae2be0d91d1778b5f28811a021bfeb940.html#ae2be0d91d1778b5f28811a021bfeb940" target="_top" xlink:title="org.cobbzilla.util.main.\lBaseMainOptions.err">
<polygon fill="none" stroke="#000000" points="205.5,-230 205.5,-260 319.5,-260 319.5,-230 205.5,-230"/>
<text text-anchor="start" x="213.5" y="-248" font-family="Helvetica,sans-Serif" font-size="10.00" fill="#000000">org.cobbzilla.util.main.</text>
<text text-anchor="middle" x="262.5" y="-237" font-family="Helvetica,sans-Serif" font-size="10.00" fill="#000000">BaseMainOptions.err</text>
</a>
</g>
</g>
<!-- Node0&#45;&gt;Node1 -->
<g id="edge1" class="edge">
<title>Node0&#45;&gt;Node1</title>
<path fill="none" stroke="#191970" d="M85.3538,-156.1665C104.9306,-174.1072 139.9546,-203.7133 175,-221 181.5072,-224.2098 188.5056,-227.0415 195.6076,-229.5273"/>
<polygon fill="#191970" stroke="#191970" points="194.7276,-232.9218 205.3202,-232.7055 196.9046,-226.269 194.7276,-232.9218"/>
</g>
<!-- Node2 -->
<g id="node3" class="node">
<title>Node2</title>
<g id="a_node3"><a xlink:href="../../df/ded/classorg_1_1cobbzilla_1_1util_1_1system_1_1CommandShell_a3bf65e24823a4dbf204b9af10afd9d07.html#a3bf65e24823a4dbf204b9af10afd9d07" target="_top" xlink:title="org.cobbzilla.util.system.\lCommandShell.exec">
<polygon fill="none" stroke="#000000" points="200,-181 200,-211 325,-211 325,-181 200,-181"/>
<text text-anchor="start" x="208" y="-199" font-family="Helvetica,sans-Serif" font-size="10.00" fill="#000000">org.cobbzilla.util.system.</text>
<text text-anchor="middle" x="262.5" y="-188" font-family="Helvetica,sans-Serif" font-size="10.00" fill="#000000">CommandShell.exec</text>
</a>
</g>
</g>
<!-- Node0&#45;&gt;Node2 -->
<g id="edge2" class="edge">
<title>Node0&#45;&gt;Node2</title>
<path fill="none" stroke="#191970" d="M122.2381,-156.029C146.2793,-162.8801 174.9181,-171.0414 200.0305,-178.1978"/>
<polygon fill="#191970" stroke="#191970" points="199.2493,-181.6145 209.8257,-180.9892 201.1678,-174.8825 199.2493,-181.6145"/>
</g>
<!-- Node5 -->
<g id="node6" class="node">
<title>Node5</title>
<g id="a_node6"><a xlink:href="../../d4/dcd/classorg_1_1cobbzilla_1_1util_1_1io_1_1main_1_1FilesystemWatcherMainOptions_a333ecb3fa0d406e81d3452c10bbed384.html#a333ecb3fa0d406e81d3452c10bbed384" target="_top" xlink:title="org.cobbzilla.util.io.main.\lFilesystemWatcherMainOptions.get\lDamperMillis">
<polygon fill="none" stroke="#000000" points="176,-120.5 176,-161.5 349,-161.5 349,-120.5 176,-120.5"/>
<text text-anchor="start" x="184" y="-149.5" font-family="Helvetica,sans-Serif" font-size="10.00" fill="#000000">org.cobbzilla.util.io.main.</text>
<text text-anchor="start" x="184" y="-138.5" font-family="Helvetica,sans-Serif" font-size="10.00" fill="#000000">FilesystemWatcherMainOptions.get</text>
<text text-anchor="middle" x="262.5" y="-127.5" font-family="Helvetica,sans-Serif" font-size="10.00" fill="#000000">DamperMillis</text>
</a>
</g>
</g>
<!-- Node0&#45;&gt;Node5 -->
<g id="edge5" class="edge">
<title>Node0&#45;&gt;Node5</title>
<path fill="none" stroke="#191970" d="M139.1774,-141C147.8069,-141 156.7472,-141 165.6911,-141"/>
<polygon fill="#191970" stroke="#191970" points="165.7741,-144.5001 175.7741,-141 165.774,-137.5001 165.7741,-144.5001"/>
</g>
<!-- Node6 -->
<g id="node7" class="node">
<title>Node6</title>
<g id="a_node7"><a xlink:href="../../d4/dcd/classorg_1_1cobbzilla_1_1util_1_1io_1_1main_1_1FilesystemWatcherMainOptions_ac26bc6fc94ba728c61d870b5300d5776.html#ac26bc6fc94ba728c61d870b5300d5776" target="_top" xlink:title="org.cobbzilla.util.io.main.\lFilesystemWatcherMainOptions.get\lWatchPaths">
<polygon fill="none" stroke="#000000" points="176,-60.5 176,-101.5 349,-101.5 349,-60.5 176,-60.5"/>
<text text-anchor="start" x="184" y="-89.5" font-family="Helvetica,sans-Serif" font-size="10.00" fill="#000000">org.cobbzilla.util.io.main.</text>
<text text-anchor="start" x="184" y="-78.5" font-family="Helvetica,sans-Serif" font-size="10.00" fill="#000000">FilesystemWatcherMainOptions.get</text>
<text text-anchor="middle" x="262.5" y="-67.5" font-family="Helvetica,sans-Serif" font-size="10.00" fill="#000000">WatchPaths</text>
</a>
</g>
</g>
<!-- Node0&#45;&gt;Node6 -->
<g id="edge6" class="edge">
<title>Node0&#45;&gt;Node6</title>
<path fill="none" stroke="#191970" d="M118.202,-125.8595C138.9167,-119.4197 163.5625,-111.7578 186.5719,-104.6046"/>
<polygon fill="#191970" stroke="#191970" points="187.8065,-107.8861 196.3166,-101.5751 185.7284,-101.2017 187.8065,-107.8861"/>
</g>
<!-- Node8 -->
<g id="node9" class="node">
<title>Node8</title>
<g id="a_node9"><a xlink:href="../../d4/dcd/classorg_1_1cobbzilla_1_1util_1_1io_1_1main_1_1FilesystemWatcherMainOptions_a4bd59e80159bbc56403283c05fae69b7.html#a4bd59e80159bbc56403283c05fae69b7" target="_top" xlink:title="org.cobbzilla.util.io.main.\lFilesystemWatcherMainOptions.has\lCommand">
<polygon fill="none" stroke="#000000" points="175,-.5 175,-41.5 350,-41.5 350,-.5 175,-.5"/>
<text text-anchor="start" x="183" y="-29.5" font-family="Helvetica,sans-Serif" font-size="10.00" fill="#000000">org.cobbzilla.util.io.main.</text>
<text text-anchor="start" x="183" y="-18.5" font-family="Helvetica,sans-Serif" font-size="10.00" fill="#000000">FilesystemWatcherMainOptions.has</text>
<text text-anchor="middle" x="262.5" y="-7.5" font-family="Helvetica,sans-Serif" font-size="10.00" fill="#000000">Command</text>
</a>
</g>
</g>
<!-- Node0&#45;&gt;Node8 -->
<g id="edge8" class="edge">
<title>Node0&#45;&gt;Node8</title>
<path fill="none" stroke="#191970" d="M83.5101,-125.9399C102.5399,-106.2649 138.4016,-71.8718 175,-51 178.1867,-49.1827 181.5014,-47.4508 184.8959,-45.8036"/>
<polygon fill="#191970" stroke="#191970" points="186.3852,-48.9712 194.0345,-41.6405 183.4833,-42.601 186.3852,-48.9712"/>
</g>
<!-- Node3 -->
<g id="node4" class="node">
<title>Node3</title>
<g id="a_node4"><a xlink:href="../../dc/df7/classorg_1_1cobbzilla_1_1util_1_1system_1_1MultiCommandResult_ac2690cae3ffa9e178ad4dd87b0c37b69.html#ac2690cae3ffa9e178ad4dd87b0c37b69" target="_top" xlink:title="org.cobbzilla.util.system.\lMultiCommandResult.add">
<polygon fill="none" stroke="#000000" points="421,-205 421,-235 551,-235 551,-205 421,-205"/>
<text text-anchor="start" x="429" y="-223" font-family="Helvetica,sans-Serif" font-size="10.00" fill="#000000">org.cobbzilla.util.system.</text>
<text text-anchor="middle" x="486" y="-212" font-family="Helvetica,sans-Serif" font-size="10.00" fill="#000000">MultiCommandResult.add</text>
</a>
</g>
</g>
<!-- Node2&#45;&gt;Node3 -->
<g id="edge3" class="edge">
<title>Node2&#45;&gt;Node3</title>
<path fill="none" stroke="#191970" d="M325.0544,-202.7173C351.6227,-205.5702 382.8262,-208.9209 410.6501,-211.9087"/>
<polygon fill="#191970" stroke="#191970" points="410.4166,-215.4037 420.7332,-212.9915 411.1641,-208.4437 410.4166,-215.4037"/>
</g>
<!-- Node4 -->
<g id="node5" class="node">
<title>Node4</title>
<g id="a_node5"><a xlink:href="../../dc/df7/classorg_1_1cobbzilla_1_1util_1_1system_1_1MultiCommandResult_adeb9e510ac60b715f83f640a65248af2.html#adeb9e510ac60b715f83f640a65248af2" target="_top" xlink:title="org.cobbzilla.util.system.\lMultiCommandResult.hasException">
<polygon fill="none" stroke="#000000" points="399.5,-156 399.5,-186 572.5,-186 572.5,-156 399.5,-156"/>
<text text-anchor="start" x="407.5" y="-174" font-family="Helvetica,sans-Serif" font-size="10.00" fill="#000000">org.cobbzilla.util.system.</text>
<text text-anchor="middle" x="486" y="-163" font-family="Helvetica,sans-Serif" font-size="10.00" fill="#000000">MultiCommandResult.hasException</text>
</a>
</g>
</g>
<!-- Node2&#45;&gt;Node4 -->
<g id="edge4" class="edge">
<title>Node2&#45;&gt;Node4</title>
<path fill="none" stroke="#191970" d="M325.0544,-189.0029C344.8984,-186.7832 367.3283,-184.2742 389.0043,-181.8496"/>
<polygon fill="#191970" stroke="#191970" points="389.684,-185.2955 399.2329,-180.7055 388.9058,-178.3389 389.684,-185.2955"/>
</g>
<!-- Node7 -->
<g id="node8" class="node">
<title>Node7</title>
<g id="a_node8"><a xlink:href="../../d4/dcd/classorg_1_1cobbzilla_1_1util_1_1io_1_1main_1_1FilesystemWatcherMainOptions_a2cd5299b6271ac3424afe20feb1ee2e8.html#a2cd5299b6271ac3424afe20feb1ee2e8" target="_top" xlink:title="org.cobbzilla.util.io.main.\lFilesystemWatcherMainOptions.hasPaths">
<polygon fill="none" stroke="#000000" points="386,-66 386,-96 586,-96 586,-66 386,-66"/>
<text text-anchor="start" x="394" y="-84" font-family="Helvetica,sans-Serif" font-size="10.00" fill="#000000">org.cobbzilla.util.io.main.</text>
<text text-anchor="middle" x="486" y="-73" font-family="Helvetica,sans-Serif" font-size="10.00" fill="#000000">FilesystemWatcherMainOptions.hasPaths</text>
</a>
</g>
</g>
<!-- Node6&#45;&gt;Node7 -->
<g id="edge7" class="edge">
<title>Node6&#45;&gt;Node7</title>
<path fill="none" stroke="#191970" d="M349.2308,-81C357.9677,-81 366.9197,-81 375.8579,-81"/>
<polygon fill="#191970" stroke="#191970" points="375.9315,-84.5001 385.9314,-81 375.9314,-77.5001 375.9315,-84.5001"/>
</g>
</g>
</svg>
        <g id="navigator" transform="translate(0 0)" fill="#404254">
                <rect fill="#f2f5e9" fill-opacity="0.5" stroke="#606060" stroke-width=".5" x="0" y="0" width="60" height="60"/>
                <use id="zoomplus" xlink:href="#zoomPlus" x="17" y="9" onmousedown="handleZoom(evt,'in')"/>
                <use id="zoomminus" xlink:href="#zoomMin" x="42" y="9" onmousedown="handleZoom(evt,'out')"/>
                <use id="reset" xlink:href="#resetDef" x="30" y="36" onmousedown="handleReset()"/>
                <g id="arrowUp" xlink:href="#dirArrow" transform="translate(30 24)" onmousedown="handlePan(0,-1)">
                  <use xlink:href="#rim" fill="#404040">
                        <set attributeName="fill" to="#808080" begin="arrowUp.mouseover" end="arrowUp.mouseout"/>
                  </use>
                  <path fill="none" stroke="white" stroke-width="1.5" d="M0,-3.0v7 M-2.5,-0.5L0,-3.0L2.5,-0.5"/>
                </g>
                <g id="arrowRight" xlink:href="#dirArrow" transform="rotate(90) translate(36 -43)" onmousedown="handlePan(1,0)">
                  <use xlink:href="#rim" fill="#404040">
                        <set attributeName="fill" to="#808080" begin="arrowRight.mouseover" end="arrowRight.mouseout"/>
                  </use>
                  <path fill="none" stroke="white" stroke-width="1.5" d="M0,-3.0v7 M-2.5,-0.5L0,-3.0L2.5,-0.5"/>
                </g>
                <g id="arrowDown" xlink:href="#dirArrow" transform="rotate(180) translate(-30 -48)" onmousedown="handlePan(0,1)">
                  <use xlink:href="#rim" fill="#404040">
                        <set attributeName="fill" to="#808080" begin="arrowDown.mouseover" end="arrowDown.mouseout"/>
                  </use>
                  <path fill="none" stroke="white" stroke-width="1.5" d="M0,-3.0v7 M-2.5,-0.5L0,-3.0L2.5,-0.5"/>
                </g>
                <g id="arrowLeft" xlink:href="#dirArrow" transform="rotate(270) translate(-36 17)" onmousedown="handlePan(-1,0)">
                  <use xlink:href="#rim" fill="#404040">
                        <set attributeName="fill" to="#808080" begin="arrowLeft.mouseover" end="arrowLeft.mouseout"/>
                  </use>
                  <path fill="none" stroke="white" stroke-width="1.5" d="M0,-3.0v7 M-2.5,-0.5L0,-3.0L2.5,-0.5"/>
                </g>
        </g>
        <svg viewBox="0 0 15 15" width="100%" height="30px" preserveAspectRatio="xMaxYMin meet">
         <g id="arrow_out" transform="scale(0.3 0.3)">
          <a xlink:href="classorg_1_1cobbzilla_1_1util_1_1io_1_1main_1_1FilesystemWatcherMain_a4c5e96bac952e792820ecb038f4c234d_a4c5e96bac952e792820ecb038f4c234d_cgraph_org.svg" target="_base">
           <rect id="button" ry="5" rx="5" y="6" x="6" height="38" width="38"
                fill="#f2f5e9" fill-opacity="0.5" stroke="#606060" stroke-width="1.0"/>
           <path id="arrow"
             d="M 11.500037,31.436501 C 11.940474,20.09759 22.043105,11.32322 32.158766,21.979434 L 37.068811,17.246167 C 37.068811,17.246167 37.088388,32 37.088388,32 L 22.160133,31.978069 C 22.160133,31.978069 26.997745,27.140456 26.997745,27.140456 C 18.528582,18.264221 13.291696,25.230495 11.500037,31.436501 z"
             style="fill:#404040;"/>
          </a>
         </g>
        </svg>
</svg>
