<?xml version="1.0" encoding="UTF-8" standalone="no"?>
<!DOCTYPE svg PUBLIC "-//W3C//DTD SVG 1.1//EN"
 "http://www.w3.org/Graphics/SVG/1.1/DTD/svg11.dtd">
<!-- Generated by graphviz version 2.40.1 (20161225.0304)
 -->
<!-- Title: org.cobbzilla.util.http.URIUtil.getHost Pages: 1 -->
<svg width="301pt" height="155pt"
 viewBox="0.00 0.00 301.00 155.00" xmlns="http://www.w3.org/2000/svg" xmlns:xlink="http://www.w3.org/1999/xlink">
<g id="graph0" class="graph" transform="scale(1 1) rotate(0) translate(4 151)">
<title>org.cobbzilla.util.http.URIUtil.getHost</title>
<!-- Node2 -->
<g id="node1" class="node">
<title>Node2</title>
<polygon fill="#bfbfbf" stroke="#000000" points="0,-67.5 0,-97.5 110,-97.5 110,-67.5 0,-67.5"/>
<text text-anchor="start" x="8" y="-85.5" font-family="Helvetica,sans-Serif" font-size="10.00" fill="#000000">org.cobbzilla.util.http.</text>
<text text-anchor="middle" x="55" y="-74.5" font-family="Helvetica,sans-Serif" font-size="10.00" fill="#000000">URIUtil.getHost</text>
</g>
<!-- Node3 -->
<g id="node2" class="node">
<title>Node3</title>
<g id="a_node2"><a xlink:href="../../de/d2a/classorg_1_1cobbzilla_1_1util_1_1http_1_1URIUtil_a536464ea16638a4870f1620f15dda387.html#a536464ea16638a4870f1620f15dda387" target="_top" xlink:title="getRegisteredDomain(&quot;foo.bar.baz&quot;) == &quot;bar.baz&quot; ">
<polygon fill="none" stroke="#000000" points="146,-116.5 146,-146.5 293,-146.5 293,-116.5 146,-116.5"/>
<text text-anchor="start" x="154" y="-134.5" font-family="Helvetica,sans-Serif" font-size="10.00" fill="#000000">org.cobbzilla.util.http.</text>
<text text-anchor="middle" x="219.5" y="-123.5" font-family="Helvetica,sans-Serif" font-size="10.00" fill="#000000">URIUtil.getRegisteredDomain</text>
</a>
</g>
</g>
<!-- Node2&#45;&gt;Node3 -->
<g id="edge1" class="edge">
<title>Node2&#45;&gt;Node3</title>
<path fill="none" stroke="#191970" d="M115.3177,-100.467C132.9429,-105.717 152.0178,-111.3989 168.9697,-116.4484"/>
<polygon fill="#191970" stroke="#191970" points="116.2807,-97.1019 105.6977,-97.6014 114.2824,-103.8106 116.2807,-97.1019"/>
</g>
<!-- Node4 -->
<g id="node3" class="node">
<title>Node4</title>
<g id="a_node3"><a xlink:href="../../de/d2a/classorg_1_1cobbzilla_1_1util_1_1http_1_1URIUtil_a214591e2a20bcc6549f3d8c8b3c26d0e.html#a214591e2a20bcc6549f3d8c8b3c26d0e" target="_top" xlink:title="getTLD(&quot;foo.bar.baz&quot;) == &quot;baz&quot; ">
<polygon fill="none" stroke="#000000" points="164.5,-67.5 164.5,-97.5 274.5,-97.5 274.5,-67.5 164.5,-67.5"/>
<text text-anchor="start" x="172.5" y="-85.5" font-family="Helvetica,sans-Serif" font-size="10.00" fill="#000000">org.cobbzilla.util.http.</text>
<text text-anchor="middle" x="219.5" y="-74.5" font-family="Helvetica,sans-Serif" font-size="10.00" fill="#000000">URIUtil.getTLD</text>
</a>
</g>
</g>
<!-- Node2&#45;&gt;Node4 -->
<g id="edge2" class="edge">
<title>Node2&#45;&gt;Node4</title>
<path fill="none" stroke="#191970" d="M120.6425,-82.5C135.1492,-82.5 150.3751,-82.5 164.412,-82.5"/>
<polygon fill="#191970" stroke="#191970" points="120.2338,-79.0001 110.2337,-82.5 120.2337,-86.0001 120.2338,-79.0001"/>
</g>
<!-- Node5 -->
<g id="node4" class="node">
<title>Node5</title>
<g id="a_node4"><a xlink:href="../../d9/d6b/classorg_1_1cobbzilla_1_1util_1_1http_1_1HttpUtil_a96da447913f0bdfe5915e584a576ebe6.html#a96da447913f0bdfe5915e584a576ebe6" target="_top" xlink:title="org.cobbzilla.util.http.\lHttpUtil.isOk">
<polygon fill="none" stroke="#000000" points="164.5,-.5 164.5,-30.5 274.5,-30.5 274.5,-.5 164.5,-.5"/>
<text text-anchor="start" x="172.5" y="-18.5" font-family="Helvetica,sans-Serif" font-size="10.00" fill="#000000">org.cobbzilla.util.http.</text>
<text text-anchor="middle" x="219.5" y="-7.5" font-family="Helvetica,sans-Serif" font-size="10.00" fill="#000000">HttpUtil.isOk</text>
</a>
</g>
</g>
<!-- Node2&#45;&gt;Node5 -->
<g id="edge3" class="edge">
<title>Node2&#45;&gt;Node5</title>
<path fill="none" stroke="#191970" d="M101.4291,-63.5897C127.0565,-53.1518 158.4498,-40.3654 182.422,-30.6017"/>
<polygon fill="#191970" stroke="#191970" points="99.8581,-60.4503 91.917,-67.4639 102.4986,-66.9332 99.8581,-60.4503"/>
</g>
<!-- Node5&#45;&gt;Node5 -->
<g id="edge4" class="edge">
<title>Node5&#45;&gt;Node5</title>
<path fill="none" stroke="#191970" d="M190.3592,-40.9579C193.976,-45.679 203.6896,-49 219.5,-49 245.4453,-49 254.9721,-40.0566 248.0804,-30.659"/>
<polygon fill="#191970" stroke="#191970" points="193.871,-40.8344 190.9196,-30.659 186.8813,-40.454 193.871,-40.8344"/>
</g>
</g>
</svg>
