<?xml version="1.0" encoding="UTF-8" standalone="no"?>
<!DOCTYPE svg PUBLIC "-//W3C//DTD SVG 1.1//EN"
 "http://www.w3.org/Graphics/SVG/1.1/DTD/svg11.dtd">
<!-- Generated by graphviz version 2.40.1 (20161225.0304)
 -->
<!-- Title: org.cobbzilla.util.http.URIUtil.toUri Pages: 1 -->
<svg width="447pt" height="382pt"
 viewBox="0.00 0.00 447.00 382.00" xmlns="http://www.w3.org/2000/svg" xmlns:xlink="http://www.w3.org/1999/xlink">
<g id="graph0" class="graph" transform="scale(1 1) rotate(0) translate(4 378)">
<title>org.cobbzilla.util.http.URIUtil.toUri</title>
<!-- Node1 -->
<g id="node1" class="node">
<title>Node1</title>
<polygon fill="#bfbfbf" stroke="#000000" points="0,-171.5 0,-201.5 110,-201.5 110,-171.5 0,-171.5"/>
<text text-anchor="start" x="8" y="-189.5" font-family="Helvetica,sans-Serif" font-size="10.00" fill="#000000">org.cobbzilla.util.http.</text>
<text text-anchor="middle" x="55" y="-178.5" font-family="Helvetica,sans-Serif" font-size="10.00" fill="#000000">URIUtil.toUri</text>
</g>
<!-- Node2 -->
<g id="node2" class="node">
<title>Node2</title>
<g id="a_node2"><a xlink:href="../../de/d2a/classorg_1_1cobbzilla_1_1util_1_1http_1_1URIUtil_abee6af13ad0d702c062d43f9b14e5ad0.html#abee6af13ad0d702c062d43f9b14e5ad0" target="_top" xlink:title="org.cobbzilla.util.http.\lURIUtil.getFile">
<polygon fill="none" stroke="#000000" points="146,-343.5 146,-373.5 256,-373.5 256,-343.5 146,-343.5"/>
<text text-anchor="start" x="154" y="-361.5" font-family="Helvetica,sans-Serif" font-size="10.00" fill="#000000">org.cobbzilla.util.http.</text>
<text text-anchor="middle" x="201" y="-350.5" font-family="Helvetica,sans-Serif" font-size="10.00" fill="#000000">URIUtil.getFile</text>
</a>
</g>
</g>
<!-- Node1&#45;&gt;Node2 -->
<g id="edge1" class="edge">
<title>Node1&#45;&gt;Node2</title>
<path fill="none" stroke="#191970" d="M64.5872,-211.1441C78.2465,-243.3923 106.1468,-299.8629 146,-334.5 149.853,-337.8487 154.2461,-340.7948 158.8312,-343.3696"/>
<polygon fill="#191970" stroke="#191970" points="67.6959,-209.5008 60.6557,-201.5834 61.2219,-212.1631 67.6959,-209.5008"/>
</g>
<!-- Node3 -->
<g id="node3" class="node">
<title>Node3</title>
<g id="a_node3"><a xlink:href="../../de/d2a/classorg_1_1cobbzilla_1_1util_1_1http_1_1URIUtil_a76e317aad86d1333b65245a460dab750.html#a76e317aad86d1333b65245a460dab750" target="_top" xlink:title="org.cobbzilla.util.http.\lURIUtil.getFileExt">
<polygon fill="none" stroke="#000000" points="146,-294.5 146,-324.5 256,-324.5 256,-294.5 146,-294.5"/>
<text text-anchor="start" x="154" y="-312.5" font-family="Helvetica,sans-Serif" font-size="10.00" fill="#000000">org.cobbzilla.util.http.</text>
<text text-anchor="middle" x="201" y="-301.5" font-family="Helvetica,sans-Serif" font-size="10.00" fill="#000000">URIUtil.getFileExt</text>
</a>
</g>
</g>
<!-- Node1&#45;&gt;Node3 -->
<g id="edge2" class="edge">
<title>Node1&#45;&gt;Node3</title>
<path fill="none" stroke="#191970" d="M71.868,-209.8593C88.6437,-231.7476 116.1315,-264.2006 146,-285.5 150.5804,-288.7663 155.6757,-291.7226 160.8648,-294.3542"/>
<polygon fill="#191970" stroke="#191970" points="74.5798,-207.642 65.7731,-201.7519 68.9846,-211.8483 74.5798,-207.642"/>
</g>
<!-- Node4 -->
<g id="node4" class="node">
<title>Node4</title>
<g id="a_node4"><a xlink:href="../../de/d2a/classorg_1_1cobbzilla_1_1util_1_1http_1_1URIUtil_a00093c83181939c2dcc8da04b0b98804.html#a00093c83181939c2dcc8da04b0b98804" target="_top" xlink:title="org.cobbzilla.util.http.\lURIUtil.getHost">
<polygon fill="none" stroke="#000000" points="146,-245.5 146,-275.5 256,-275.5 256,-245.5 146,-245.5"/>
<text text-anchor="start" x="154" y="-263.5" font-family="Helvetica,sans-Serif" font-size="10.00" fill="#000000">org.cobbzilla.util.http.</text>
<text text-anchor="middle" x="201" y="-252.5" font-family="Helvetica,sans-Serif" font-size="10.00" fill="#000000">URIUtil.getHost</text>
</a>
</g>
</g>
<!-- Node1&#45;&gt;Node4 -->
<g id="edge3" class="edge">
<title>Node1&#45;&gt;Node4</title>
<path fill="none" stroke="#191970" d="M89.8538,-206.6213C106.6369,-216.0592 127.164,-227.2394 146,-236.5 152.1705,-239.5337 158.8151,-242.5984 165.2791,-245.4764"/>
<polygon fill="#191970" stroke="#191970" points="91.3762,-203.4613 80.9496,-201.5806 87.9277,-209.5529 91.3762,-203.4613"/>
</g>
<!-- Node8 -->
<g id="node8" class="node">
<title>Node8</title>
<g id="a_node8"><a xlink:href="../../de/d2a/classorg_1_1cobbzilla_1_1util_1_1http_1_1URIUtil_a5899d773496430e725886f8afcefbf08.html#a5899d773496430e725886f8afcefbf08" target="_top" xlink:title="org.cobbzilla.util.http.\lURIUtil.getHostUri">
<polygon fill="none" stroke="#000000" points="146,-196.5 146,-226.5 256,-226.5 256,-196.5 146,-196.5"/>
<text text-anchor="start" x="154" y="-214.5" font-family="Helvetica,sans-Serif" font-size="10.00" fill="#000000">org.cobbzilla.util.http.</text>
<text text-anchor="middle" x="201" y="-203.5" font-family="Helvetica,sans-Serif" font-size="10.00" fill="#000000">URIUtil.getHostUri</text>
</a>
</g>
</g>
<!-- Node1&#45;&gt;Node8 -->
<g id="edge8" class="edge">
<title>Node1&#45;&gt;Node8</title>
<path fill="none" stroke="#191970" d="M120.1314,-197.6526C128.6759,-199.1157 137.3658,-200.6037 145.7256,-202.0352"/>
<polygon fill="#191970" stroke="#191970" points="120.6436,-194.1895 110.1963,-195.9514 119.4621,-201.0891 120.6436,-194.1895"/>
</g>
<!-- Node9 -->
<g id="node9" class="node">
<title>Node9</title>
<g id="a_node9"><a xlink:href="../../de/d2a/classorg_1_1cobbzilla_1_1util_1_1http_1_1URIUtil_ac3841e830d30d13de760bcecfe8b1d4e.html#ac3841e830d30d13de760bcecfe8b1d4e" target="_top" xlink:title="org.cobbzilla.util.http.\lURIUtil.getPath">
<polygon fill="none" stroke="#000000" points="146,-147.5 146,-177.5 256,-177.5 256,-147.5 146,-147.5"/>
<text text-anchor="start" x="154" y="-165.5" font-family="Helvetica,sans-Serif" font-size="10.00" fill="#000000">org.cobbzilla.util.http.</text>
<text text-anchor="middle" x="201" y="-154.5" font-family="Helvetica,sans-Serif" font-size="10.00" fill="#000000">URIUtil.getPath</text>
</a>
</g>
</g>
<!-- Node1&#45;&gt;Node9 -->
<g id="edge9" class="edge">
<title>Node1&#45;&gt;Node9</title>
<path fill="none" stroke="#191970" d="M120.1314,-175.7935C128.6759,-174.3889 137.3658,-172.9604 145.7256,-171.5862"/>
<polygon fill="#191970" stroke="#191970" points="119.4962,-172.3508 110.1963,-177.4266 120.6317,-179.2581 119.4962,-172.3508"/>
</g>
<!-- Node10 -->
<g id="node10" class="node">
<title>Node10</title>
<g id="a_node10"><a xlink:href="../../de/d2a/classorg_1_1cobbzilla_1_1util_1_1http_1_1URIUtil_a1b40cfd0e3851524822a2d4abc9da27c.html#a1b40cfd0e3851524822a2d4abc9da27c" target="_top" xlink:title="org.cobbzilla.util.http.\lURIUtil.getPort">
<polygon fill="none" stroke="#000000" points="146,-98.5 146,-128.5 256,-128.5 256,-98.5 146,-98.5"/>
<text text-anchor="start" x="154" y="-116.5" font-family="Helvetica,sans-Serif" font-size="10.00" fill="#000000">org.cobbzilla.util.http.</text>
<text text-anchor="middle" x="201" y="-105.5" font-family="Helvetica,sans-Serif" font-size="10.00" fill="#000000">URIUtil.getPort</text>
</a>
</g>
</g>
<!-- Node1&#45;&gt;Node10 -->
<g id="edge10" class="edge">
<title>Node1&#45;&gt;Node10</title>
<path fill="none" stroke="#191970" d="M91.9311,-166.3893C108.3705,-157.6011 128.0365,-147.3108 146,-138.5 152.7802,-135.1744 160.0972,-131.7419 167.1126,-128.5257"/>
<polygon fill="#191970" stroke="#191970" points="89.8157,-163.5525 82.6619,-171.3675 93.1278,-169.7194 89.8157,-163.5525"/>
</g>
<!-- Node11 -->
<g id="node11" class="node">
<title>Node11</title>
<g id="a_node11"><a xlink:href="../../de/d2a/classorg_1_1cobbzilla_1_1util_1_1http_1_1URIUtil_a5d1bb09006b0a46d8469dbba20c994cc.html#a5d1bb09006b0a46d8469dbba20c994cc" target="_top" xlink:title="org.cobbzilla.util.http.\lURIUtil.getScheme">
<polygon fill="none" stroke="#000000" points="146,-49.5 146,-79.5 256,-79.5 256,-49.5 146,-49.5"/>
<text text-anchor="start" x="154" y="-67.5" font-family="Helvetica,sans-Serif" font-size="10.00" fill="#000000">org.cobbzilla.util.http.</text>
<text text-anchor="middle" x="201" y="-56.5" font-family="Helvetica,sans-Serif" font-size="10.00" fill="#000000">URIUtil.getScheme</text>
</a>
</g>
</g>
<!-- Node1&#45;&gt;Node11 -->
<g id="edge11" class="edge">
<title>Node1&#45;&gt;Node11</title>
<path fill="none" stroke="#191970" d="M72.323,-163.3733C89.2457,-142.0202 116.6754,-110.5222 146,-89.5 151.1147,-85.8333 156.8532,-82.5121 162.642,-79.5759"/>
<polygon fill="#191970" stroke="#191970" points="69.5396,-161.2511 66.1595,-171.2923 75.0636,-165.5506 69.5396,-161.2511"/>
</g>
<!-- Node12 -->
<g id="node12" class="node">
<title>Node12</title>
<g id="a_node12"><a xlink:href="../../de/d2a/classorg_1_1cobbzilla_1_1util_1_1http_1_1URIUtil_a3c3ce622783126f94c62ef4da239c6fb.html#a3c3ce622783126f94c62ef4da239c6fb" target="_top" xlink:title="org.cobbzilla.util.http.\lURIUtil.isHost">
<polygon fill="none" stroke="#000000" points="146,-.5 146,-30.5 256,-30.5 256,-.5 146,-.5"/>
<text text-anchor="start" x="154" y="-18.5" font-family="Helvetica,sans-Serif" font-size="10.00" fill="#000000">org.cobbzilla.util.http.</text>
<text text-anchor="middle" x="201" y="-7.5" font-family="Helvetica,sans-Serif" font-size="10.00" fill="#000000">URIUtil.isHost</text>
</a>
</g>
</g>
<!-- Node1&#45;&gt;Node12 -->
<g id="edge12" class="edge">
<title>Node1&#45;&gt;Node12</title>
<path fill="none" stroke="#191970" d="M64.8432,-161.5265C78.6254,-129.4171 106.4945,-73.7299 146,-39.5 149.8581,-36.1571 154.2543,-33.2147 158.8412,-30.6418"/>
<polygon fill="#191970" stroke="#191970" points="61.4837,-160.4892 60.8665,-171.066 67.9448,-163.1826 61.4837,-160.4892"/>
</g>
<!-- Node5 -->
<g id="node5" class="node">
<title>Node5</title>
<g id="a_node5"><a xlink:href="../../de/d2a/classorg_1_1cobbzilla_1_1util_1_1http_1_1URIUtil_a536464ea16638a4870f1620f15dda387.html#a536464ea16638a4870f1620f15dda387" target="_top" xlink:title="getRegisteredDomain(&quot;foo.bar.baz&quot;) == &quot;bar.baz&quot; ">
<polygon fill="none" stroke="#000000" points="292,-294.5 292,-324.5 439,-324.5 439,-294.5 292,-294.5"/>
<text text-anchor="start" x="300" y="-312.5" font-family="Helvetica,sans-Serif" font-size="10.00" fill="#000000">org.cobbzilla.util.http.</text>
<text text-anchor="middle" x="365.5" y="-301.5" font-family="Helvetica,sans-Serif" font-size="10.00" fill="#000000">URIUtil.getRegisteredDomain</text>
</a>
</g>
</g>
<!-- Node4&#45;&gt;Node5 -->
<g id="edge4" class="edge">
<title>Node4&#45;&gt;Node5</title>
<path fill="none" stroke="#191970" d="M261.3177,-278.467C278.9429,-283.717 298.0178,-289.3989 314.9697,-294.4484"/>
<polygon fill="#191970" stroke="#191970" points="262.2807,-275.1019 251.6977,-275.6014 260.2824,-281.8106 262.2807,-275.1019"/>
</g>
<!-- Node6 -->
<g id="node6" class="node">
<title>Node6</title>
<g id="a_node6"><a xlink:href="../../de/d2a/classorg_1_1cobbzilla_1_1util_1_1http_1_1URIUtil_a214591e2a20bcc6549f3d8c8b3c26d0e.html#a214591e2a20bcc6549f3d8c8b3c26d0e" target="_top" xlink:title="getTLD(&quot;foo.bar.baz&quot;) == &quot;baz&quot; ">
<polygon fill="none" stroke="#000000" points="310.5,-245.5 310.5,-275.5 420.5,-275.5 420.5,-245.5 310.5,-245.5"/>
<text text-anchor="start" x="318.5" y="-263.5" font-family="Helvetica,sans-Serif" font-size="10.00" fill="#000000">org.cobbzilla.util.http.</text>
<text text-anchor="middle" x="365.5" y="-252.5" font-family="Helvetica,sans-Serif" font-size="10.00" fill="#000000">URIUtil.getTLD</text>
</a>
</g>
</g>
<!-- Node4&#45;&gt;Node6 -->
<g id="edge5" class="edge">
<title>Node4&#45;&gt;Node6</title>
<path fill="none" stroke="#191970" d="M266.6425,-260.5C281.1492,-260.5 296.3751,-260.5 310.412,-260.5"/>
<polygon fill="#191970" stroke="#191970" points="266.2338,-257.0001 256.2337,-260.5 266.2337,-264.0001 266.2338,-257.0001"/>
</g>
<!-- Node7 -->
<g id="node7" class="node">
<title>Node7</title>
<g id="a_node7"><a xlink:href="../../d9/d6b/classorg_1_1cobbzilla_1_1util_1_1http_1_1HttpUtil_a96da447913f0bdfe5915e584a576ebe6.html#a96da447913f0bdfe5915e584a576ebe6" target="_top" xlink:title="org.cobbzilla.util.http.\lHttpUtil.isOk">
<polygon fill="none" stroke="#000000" points="310.5,-178.5 310.5,-208.5 420.5,-208.5 420.5,-178.5 310.5,-178.5"/>
<text text-anchor="start" x="318.5" y="-196.5" font-family="Helvetica,sans-Serif" font-size="10.00" fill="#000000">org.cobbzilla.util.http.</text>
<text text-anchor="middle" x="365.5" y="-185.5" font-family="Helvetica,sans-Serif" font-size="10.00" fill="#000000">HttpUtil.isOk</text>
</a>
</g>
</g>
<!-- Node4&#45;&gt;Node7 -->
<g id="edge6" class="edge">
<title>Node4&#45;&gt;Node7</title>
<path fill="none" stroke="#191970" d="M247.4291,-241.5897C273.0565,-231.1518 304.4498,-218.3654 328.422,-208.6017"/>
<polygon fill="#191970" stroke="#191970" points="245.8581,-238.4503 237.917,-245.4639 248.4986,-244.9332 245.8581,-238.4503"/>
</g>
<!-- Node7&#45;&gt;Node7 -->
<g id="edge7" class="edge">
<title>Node7&#45;&gt;Node7</title>
<path fill="none" stroke="#191970" d="M336.3592,-218.9579C339.976,-223.679 349.6896,-227 365.5,-227 391.4453,-227 400.9721,-218.0566 394.0804,-208.659"/>
<polygon fill="#191970" stroke="#191970" points="339.871,-218.8344 336.9196,-208.659 332.8813,-218.454 339.871,-218.8344"/>
</g>
</g>
</svg>
