<?xml version="1.0" encoding="UTF-8" standalone="no"?>
<!DOCTYPE svg PUBLIC "-//W3C//DTD SVG 1.1//EN"
 "http://www.w3.org/Graphics/SVG/1.1/DTD/svg11.dtd">
<!-- Generated by graphviz version 2.40.1 (20161225.0304)
 -->
<!-- Title: org.cobbzilla.util.http.URIUtil.getRegisteredDomain Pages: 1 -->
<svg width="447pt" height="39pt"
 viewBox="0.00 0.00 447.00 39.00" xmlns="http://www.w3.org/2000/svg" xmlns:xlink="http://www.w3.org/1999/xlink">
<g id="graph0" class="graph" transform="scale(1 1) rotate(0) translate(4 35)">
<title>org.cobbzilla.util.http.URIUtil.getRegisteredDomain</title>
<!-- Node0 -->
<g id="node1" class="node">
<title>Node0</title>
<polygon fill="#bfbfbf" stroke="#000000" points="0,-.5 0,-30.5 147,-30.5 147,-.5 0,-.5"/>
<text text-anchor="start" x="8" y="-18.5" font-family="Helvetica,sans-Serif" font-size="10.00" fill="#000000">org.cobbzilla.util.http.</text>
<text text-anchor="middle" x="73.5" y="-7.5" font-family="Helvetica,sans-Serif" font-size="10.00" fill="#000000">URIUtil.getRegisteredDomain</text>
</g>
<!-- Node1 -->
<g id="node2" class="node">
<title>Node1</title>
<g id="a_node2"><a xlink:href="../../de/d2a/classorg_1_1cobbzilla_1_1util_1_1http_1_1URIUtil_a00093c83181939c2dcc8da04b0b98804.html#a00093c83181939c2dcc8da04b0b98804" target="_top" xlink:title="org.cobbzilla.util.http.\lURIUtil.getHost">
<polygon fill="none" stroke="#000000" points="183,-.5 183,-30.5 293,-30.5 293,-.5 183,-.5"/>
<text text-anchor="start" x="191" y="-18.5" font-family="Helvetica,sans-Serif" font-size="10.00" fill="#000000">org.cobbzilla.util.http.</text>
<text text-anchor="middle" x="238" y="-7.5" font-family="Helvetica,sans-Serif" font-size="10.00" fill="#000000">URIUtil.getHost</text>
</a>
</g>
</g>
<!-- Node0&#45;&gt;Node1 -->
<g id="edge1" class="edge">
<title>Node0&#45;&gt;Node1</title>
<path fill="none" stroke="#191970" d="M147.0895,-15.5C155.6039,-15.5 164.2435,-15.5 172.6378,-15.5"/>
<polygon fill="#191970" stroke="#191970" points="172.7305,-19.0001 182.7305,-15.5 172.7304,-12.0001 172.7305,-19.0001"/>
</g>
<!-- Node2 -->
<g id="node3" class="node">
<title>Node2</title>
<g id="a_node3"><a xlink:href="../../de/d2a/classorg_1_1cobbzilla_1_1util_1_1http_1_1URIUtil_a465007e3047f4b96ccc02c4b2f709b7f.html#a465007e3047f4b96ccc02c4b2f709b7f" target="_top" xlink:title="org.cobbzilla.util.http.\lURIUtil.toUri">
<polygon fill="none" stroke="#000000" points="329,-.5 329,-30.5 439,-30.5 439,-.5 329,-.5"/>
<text text-anchor="start" x="337" y="-18.5" font-family="Helvetica,sans-Serif" font-size="10.00" fill="#000000">org.cobbzilla.util.http.</text>
<text text-anchor="middle" x="384" y="-7.5" font-family="Helvetica,sans-Serif" font-size="10.00" fill="#000000">URIUtil.toUri</text>
</a>
</g>
</g>
<!-- Node1&#45;&gt;Node2 -->
<g id="edge2" class="edge">
<title>Node1&#45;&gt;Node2</title>
<path fill="none" stroke="#191970" d="M293.1963,-15.5C301.4633,-15.5 310.0546,-15.5 318.5101,-15.5"/>
<polygon fill="#191970" stroke="#191970" points="318.7256,-19.0001 328.7256,-15.5 318.7256,-12.0001 318.7256,-19.0001"/>
</g>
</g>
</svg>
