<?xml version="1.0" encoding="UTF-8" standalone="no"?>
<!DOCTYPE svg PUBLIC "-//W3C//DTD SVG 1.1//EN"
 "http://www.w3.org/Graphics/SVG/1.1/DTD/svg11.dtd">
<!-- Generated by graphviz version 2.40.1 (20161225.0304)
 -->
<!-- Title: org.cobbzilla.util.xml.ElementIdGenerator Pages: 1 -->
<svg width="230pt" height="281pt"
 viewBox="0.00 0.00 229.50 281.00" xmlns="http://www.w3.org/2000/svg" xmlns:xlink="http://www.w3.org/1999/xlink">
<g id="graph0" class="graph" transform="scale(1 1) rotate(0) translate(4 277)">
<title>org.cobbzilla.util.xml.ElementIdGenerator</title>
<!-- Node1 -->
<g id="node1" class="node">
<title>Node1</title>
<polygon fill="#bfbfbf" stroke="#000000" points="26,-.5 26,-156.5 171,-156.5 171,-.5 26,-.5"/>
<text text-anchor="start" x="34" y="-144.5" font-family="Helvetica,sans-Serif" font-size="10.00" fill="#000000">org.cobbzilla.util.xml.Element</text>
<text text-anchor="middle" x="98.5" y="-133.5" font-family="Helvetica,sans-Serif" font-size="10.00" fill="#000000">IdGenerator</text>
<polyline fill="none" stroke="#000000" points="26,-126.5 171,-126.5 "/>
<text text-anchor="start" x="34" y="-114.5" font-family="Helvetica,sans-Serif" font-size="10.00" fill="#000000">&#45; prefix</text>
<polyline fill="none" stroke="#000000" points="26,-107.5 171,-107.5 "/>
<text text-anchor="start" x="34" y="-95.5" font-family="Helvetica,sans-Serif" font-size="10.00" fill="#000000">+ ElementIdGenerator()</text>
<text text-anchor="start" x="34" y="-84.5" font-family="Helvetica,sans-Serif" font-size="10.00" fill="#000000">+ ElementIdGenerator()</text>
<text text-anchor="start" x="34" y="-73.5" font-family="Helvetica,sans-Serif" font-size="10.00" fill="#000000">+ ElementIdGenerator()</text>
<text text-anchor="start" x="34" y="-62.5" font-family="Helvetica,sans-Serif" font-size="10.00" fill="#000000">+ ElementIdGenerator()</text>
<text text-anchor="start" x="34" y="-51.5" font-family="Helvetica,sans-Serif" font-size="10.00" fill="#000000">+ id()</text>
<text text-anchor="start" x="34" y="-40.5" font-family="Helvetica,sans-Serif" font-size="10.00" fill="#000000">+ create()</text>
<text text-anchor="start" x="34" y="-29.5" font-family="Helvetica,sans-Serif" font-size="10.00" fill="#000000">+ text()</text>
<text text-anchor="start" x="34" y="-18.5" font-family="Helvetica,sans-Serif" font-size="10.00" fill="#000000">+ text()</text>
<text text-anchor="start" x="34" y="-7.5" font-family="Helvetica,sans-Serif" font-size="10.00" fill="#000000">&#45; initIdFunction()</text>
</g>
<!-- Node2 -->
<g id="node2" class="node">
<title>Node2</title>
<polygon fill="none" stroke="#bfbfbf" points="0,-210 0,-267 77,-267 77,-210 0,-210"/>
<text text-anchor="middle" x="38.5" y="-255" font-family="Helvetica,sans-Serif" font-size="10.00" fill="#000000">AtomicInteger</text>
<polyline fill="none" stroke="#bfbfbf" points="0,-248 77,-248 "/>
<text text-anchor="middle" x="38.5" y="-236" font-family="Helvetica,sans-Serif" font-size="10.00" fill="#000000"> </text>
<polyline fill="none" stroke="#bfbfbf" points="0,-229 77,-229 "/>
<text text-anchor="middle" x="38.5" y="-217" font-family="Helvetica,sans-Serif" font-size="10.00" fill="#000000"> </text>
</g>
<!-- Node2&#45;&gt;Node1 -->
<g id="edge1" class="edge">
<title>Node2&#45;&gt;Node1</title>
<path fill="none" stroke="#404040" d="M49.2268,-209.8952C53.7125,-197.9333 59.1951,-183.313 64.8534,-168.2242"/>
<polygon fill="none" stroke="#404040" points="64.9875,-167.8666 63.3489,-160.8441 69.201,-156.6306 70.8396,-163.6531 64.9875,-167.8666"/>
<text text-anchor="middle" x="81" y="-178" font-family="Helvetica,sans-Serif" font-size="10.00" fill="#000000"> &#45;counter</text>
</g>
<!-- Node3 -->
<g id="node3" class="node">
<title>Node3</title>
<g id="a_node3"><a xlink:href="../../d8/dba/interfaceorg_1_1cobbzilla_1_1util_1_1xml_1_1XmlElementFunction.html" target="_top" xlink:title="{org.cobbzilla.util.xml.Xml\lElementFunction\n||+ apply()\l}">
<polygon fill="none" stroke="#000000" points="95.5,-204.5 95.5,-272.5 221.5,-272.5 221.5,-204.5 95.5,-204.5"/>
<text text-anchor="start" x="103.5" y="-260.5" font-family="Helvetica,sans-Serif" font-size="10.00" fill="#000000">org.cobbzilla.util.xml.Xml</text>
<text text-anchor="middle" x="158.5" y="-249.5" font-family="Helvetica,sans-Serif" font-size="10.00" fill="#000000">ElementFunction</text>
<polyline fill="none" stroke="#000000" points="95.5,-242.5 221.5,-242.5 "/>
<text text-anchor="middle" x="158.5" y="-230.5" font-family="Helvetica,sans-Serif" font-size="10.00" fill="#000000"> </text>
<polyline fill="none" stroke="#000000" points="95.5,-223.5 221.5,-223.5 "/>
<text text-anchor="start" x="103.5" y="-211.5" font-family="Helvetica,sans-Serif" font-size="10.00" fill="#000000">+ apply()</text>
</a>
</g>
</g>
<!-- Node3&#45;&gt;Node1 -->
<g id="edge2" class="edge">
<title>Node3&#45;&gt;Node1</title>
<path fill="none" stroke="#404040" d="M145.6285,-204.176C141.5804,-193.3811 136.9066,-180.9175 132.1078,-168.1207"/>
<polygon fill="none" stroke="#404040" points="132.0846,-168.0588 126.2325,-163.8454 127.8711,-156.8229 133.7232,-161.0363 132.0846,-168.0588"/>
<text text-anchor="middle" x="162.5" y="-178" font-family="Helvetica,sans-Serif" font-size="10.00" fill="#000000"> &#45;idFunction</text>
</g>
</g>
</svg>
