<?xml version="1.0" encoding="UTF-8" standalone="no"?>
<!DOCTYPE svg PUBLIC "-//W3C//DTD SVG 1.1//EN"
 "http://www.w3.org/Graphics/SVG/1.1/DTD/svg11.dtd">
<!-- Generated by graphviz version 2.40.1 (20161225.0304)
 -->
<!-- Title: org.cobbzilla.util.collection.SetSourceBase&lt; T &gt; Pages: 1 -->
<svg width="356pt" height="353pt"
 viewBox="0.00 0.00 356.00 353.00" xmlns="http://www.w3.org/2000/svg" xmlns:xlink="http://www.w3.org/1999/xlink">
<g id="graph0" class="graph" transform="scale(1 1) rotate(0) translate(4 349)">
<title>org.cobbzilla.util.collection.SetSourceBase&lt; T &gt;</title>
<!-- Node5 -->
<g id="node1" class="node">
<title>Node5</title>
<polygon fill="#bfbfbf" stroke="#000000" points="33,-.5 33,-101.5 167,-101.5 167,-.5 33,-.5"/>
<text text-anchor="start" x="41" y="-89.5" font-family="Helvetica,sans-Serif" font-size="10.00" fill="#000000">org.cobbzilla.util.collection.</text>
<text text-anchor="middle" x="100" y="-78.5" font-family="Helvetica,sans-Serif" font-size="10.00" fill="#000000">SetSourceBase&lt; T &gt;</text>
<polyline fill="none" stroke="#000000" points="33,-71.5 167,-71.5 "/>
<text text-anchor="middle" x="100" y="-59.5" font-family="Helvetica,sans-Serif" font-size="10.00" fill="#000000"> </text>
<polyline fill="none" stroke="#000000" points="33,-52.5 167,-52.5 "/>
<text text-anchor="start" x="41" y="-40.5" font-family="Helvetica,sans-Serif" font-size="10.00" fill="#000000">+ getValues()</text>
<text text-anchor="start" x="41" y="-29.5" font-family="Helvetica,sans-Serif" font-size="10.00" fill="#000000">+ addValue()</text>
<text text-anchor="start" x="41" y="-18.5" font-family="Helvetica,sans-Serif" font-size="10.00" fill="#000000">+ addValues()</text>
<text text-anchor="start" x="41" y="-7.5" font-family="Helvetica,sans-Serif" font-size="10.00" fill="#000000">+ toString()</text>
</g>
<!-- Node6 -->
<g id="node2" class="node">
<title>Node6</title>
<g id="a_node2"><a xlink:href="../../d9/df4/interfaceorg_1_1cobbzilla_1_1util_1_1collection_1_1CollectionSource.html" target="_top" xlink:title="{org::cobbzilla::util\l::collection::CollectionSource\&lt; T \&gt;\n||+ addValue()\l+ addValues()\l+ getValues()\l}">
<polygon fill="none" stroke="#000000" points="0,-149.5 0,-239.5 168,-239.5 168,-149.5 0,-149.5"/>
<text text-anchor="start" x="8" y="-227.5" font-family="Helvetica,sans-Serif" font-size="10.00" fill="#000000">org::cobbzilla::util</text>
<text text-anchor="middle" x="84" y="-216.5" font-family="Helvetica,sans-Serif" font-size="10.00" fill="#000000">::collection::CollectionSource&lt; T &gt;</text>
<polyline fill="none" stroke="#000000" points="0,-209.5 168,-209.5 "/>
<text text-anchor="middle" x="84" y="-197.5" font-family="Helvetica,sans-Serif" font-size="10.00" fill="#000000"> </text>
<polyline fill="none" stroke="#000000" points="0,-190.5 168,-190.5 "/>
<text text-anchor="start" x="8" y="-178.5" font-family="Helvetica,sans-Serif" font-size="10.00" fill="#000000">+ addValue()</text>
<text text-anchor="start" x="8" y="-167.5" font-family="Helvetica,sans-Serif" font-size="10.00" fill="#000000">+ addValues()</text>
<text text-anchor="start" x="8" y="-156.5" font-family="Helvetica,sans-Serif" font-size="10.00" fill="#000000">+ getValues()</text>
</a>
</g>
</g>
<!-- Node6&#45;&gt;Node5 -->
<g id="edge1" class="edge">
<title>Node6&#45;&gt;Node5</title>
<path fill="none" stroke="#191970" d="M90.1573,-139.2769C91.5392,-126.8828 92.9987,-113.7929 94.3584,-101.5983"/>
<polygon fill="none" stroke="#191970" points="86.6484,-139.1631 89.0186,-149.4894 93.6052,-139.9389 86.6484,-139.1631"/>
</g>
<!-- Node7 -->
<g id="node3" class="node">
<title>Node7</title>
<polygon fill="none" stroke="#bfbfbf" points="186.5,-160.5 186.5,-228.5 331.5,-228.5 331.5,-160.5 186.5,-160.5"/>
<text text-anchor="start" x="194.5" y="-216.5" font-family="Helvetica,sans-Serif" font-size="10.00" fill="#000000">AtomicReference&lt; Collection</text>
<text text-anchor="middle" x="259" y="-205.5" font-family="Helvetica,sans-Serif" font-size="10.00" fill="#000000">&lt; T &gt; &gt;</text>
<polyline fill="none" stroke="#bfbfbf" points="186.5,-198.5 331.5,-198.5 "/>
<text text-anchor="middle" x="259" y="-186.5" font-family="Helvetica,sans-Serif" font-size="10.00" fill="#000000"> </text>
<polyline fill="none" stroke="#bfbfbf" points="186.5,-179.5 331.5,-179.5 "/>
<text text-anchor="middle" x="259" y="-167.5" font-family="Helvetica,sans-Serif" font-size="10.00" fill="#000000"> </text>
</g>
<!-- Node7&#45;&gt;Node5 -->
<g id="edge2" class="edge">
<title>Node7&#45;&gt;Node5</title>
<path fill="none" stroke="#404040" d="M221.3192,-160.4925C204.5124,-145.324 184.2196,-127.0095 165.0804,-109.7361"/>
<polygon fill="none" stroke="#404040" points="165.0008,-109.6643 157.8666,-108.6137 156.0924,-101.6243 163.2266,-102.6748 165.0008,-109.6643"/>
<text text-anchor="middle" x="201.5" y="-123" font-family="Helvetica,sans-Serif" font-size="10.00" fill="#000000"> &#45;values</text>
</g>
<!-- Node8 -->
<g id="node4" class="node">
<title>Node8</title>
<polygon fill="none" stroke="#bfbfbf" points="213,-287.5 213,-344.5 305,-344.5 305,-287.5 213,-287.5"/>
<text text-anchor="middle" x="259" y="-332.5" font-family="Helvetica,sans-Serif" font-size="10.00" fill="#000000">AtomicReference</text>
<polyline fill="none" stroke="#bfbfbf" points="213,-325.5 305,-325.5 "/>
<text text-anchor="middle" x="259" y="-313.5" font-family="Helvetica,sans-Serif" font-size="10.00" fill="#000000"> </text>
<polyline fill="none" stroke="#bfbfbf" points="213,-306.5 305,-306.5 "/>
<text text-anchor="middle" x="259" y="-294.5" font-family="Helvetica,sans-Serif" font-size="10.00" fill="#000000"> </text>
</g>
<!-- Node8&#45;&gt;Node7 -->
<g id="edge3" class="edge">
<title>Node8&#45;&gt;Node7</title>
<path fill="none" stroke="#ffa500" d="M259,-276.8733C259,-261.3628 259,-243.6896 259,-228.7007"/>
<polygon fill="#ffa500" stroke="#ffa500" points="255.5001,-277.2062 259,-287.2062 262.5001,-277.2062 255.5001,-277.2062"/>
<text text-anchor="middle" x="303.5" y="-261" font-family="Helvetica,sans-Serif" font-size="10.00" fill="#000000"> &lt; Collection&lt; T &gt; &gt;</text>
</g>
</g>
</svg>
