<?xml version="1.0" encoding="UTF-8" standalone="no"?>
<!DOCTYPE svg PUBLIC "-//W3C//DTD SVG 1.1//EN"
 "http://www.w3.org/Graphics/SVG/1.1/DTD/svg11.dtd">
<!-- Generated by graphviz version 2.40.1 (20161225.0304)
 -->
<!-- Title: org.cobbzilla.util.handlebars.SimpleJurisdictionResolver Pages: 1 -->
<svg width="218pt" height="216pt"
 viewBox="0.00 0.00 217.50 216.00" xmlns="http://www.w3.org/2000/svg" xmlns:xlink="http://www.w3.org/1999/xlink">
<g id="graph0" class="graph" transform="scale(1 1) rotate(0) translate(4 212)">
<title>org.cobbzilla.util.handlebars.SimpleJurisdictionResolver</title>
<!-- Node2 -->
<g id="node1" class="node">
<title>Node2</title>
<polygon fill="#bfbfbf" stroke="#000000" points="5.5,-.5 5.5,-79.5 145.5,-79.5 145.5,-.5 5.5,-.5"/>
<text text-anchor="start" x="13.5" y="-67.5" font-family="Helvetica,sans-Serif" font-size="10.00" fill="#000000">org.cobbzilla.util.handlebars.</text>
<text text-anchor="middle" x="75.5" y="-56.5" font-family="Helvetica,sans-Serif" font-size="10.00" fill="#000000">SimpleJurisdictionResolver</text>
<polyline fill="none" stroke="#000000" points="5.5,-49.5 145.5,-49.5 "/>
<text text-anchor="middle" x="75.5" y="-37.5" font-family="Helvetica,sans-Serif" font-size="10.00" fill="#000000"> </text>
<polyline fill="none" stroke="#000000" points="5.5,-30.5 145.5,-30.5 "/>
<text text-anchor="start" x="13.5" y="-18.5" font-family="Helvetica,sans-Serif" font-size="10.00" fill="#000000">+ usState()</text>
<text text-anchor="start" x="13.5" y="-7.5" font-family="Helvetica,sans-Serif" font-size="10.00" fill="#000000">+ usZip()</text>
</g>
<!-- Node2&#45;&gt;Node2 -->
<g id="edge2" class="edge">
<title>Node2&#45;&gt;Node2</title>
<path fill="none" stroke="#404040" d="M145.5708,-49.9165C156.249,-48.4032 163.5,-45.0977 163.5,-40 163.5,-37.1326 161.2057,-34.8322 157.2978,-33.0988"/>
<polygon fill="none" stroke="#404040" points="157.1928,-33.0719 150.3857,-35.4517 145.5708,-30.0835 152.378,-27.7037 157.1928,-33.0719"/>
<text text-anchor="middle" x="186.5" y="-37.5" font-family="Helvetica,sans-Serif" font-size="10.00" fill="#000000"> +instance</text>
</g>
<!-- Node3 -->
<g id="node2" class="node">
<title>Node3</title>
<g id="a_node2"><a xlink:href="../../d1/dbf/interfaceorg_1_1cobbzilla_1_1util_1_1handlebars_1_1JurisdictionResolver.html" target="_top" xlink:title="{org.cobbzilla.util.handlebars.\lJurisdictionResolver\n||+ usState()\l+ usZip()\l+ isValidUsStateAbbreviation()\l}">
<polygon fill="none" stroke="#000000" points="0,-117.5 0,-207.5 151,-207.5 151,-117.5 0,-117.5"/>
<text text-anchor="start" x="8" y="-195.5" font-family="Helvetica,sans-Serif" font-size="10.00" fill="#000000">org.cobbzilla.util.handlebars.</text>
<text text-anchor="middle" x="75.5" y="-184.5" font-family="Helvetica,sans-Serif" font-size="10.00" fill="#000000">JurisdictionResolver</text>
<polyline fill="none" stroke="#000000" points="0,-177.5 151,-177.5 "/>
<text text-anchor="middle" x="75.5" y="-165.5" font-family="Helvetica,sans-Serif" font-size="10.00" fill="#000000"> </text>
<polyline fill="none" stroke="#000000" points="0,-158.5 151,-158.5 "/>
<text text-anchor="start" x="8" y="-146.5" font-family="Helvetica,sans-Serif" font-size="10.00" fill="#000000">+ usState()</text>
<text text-anchor="start" x="8" y="-135.5" font-family="Helvetica,sans-Serif" font-size="10.00" fill="#000000">+ usZip()</text>
<text text-anchor="start" x="8" y="-124.5" font-family="Helvetica,sans-Serif" font-size="10.00" fill="#000000">+ isValidUsStateAbbreviation()</text>
</a>
</g>
</g>
<!-- Node3&#45;&gt;Node2 -->
<g id="edge1" class="edge">
<title>Node3&#45;&gt;Node2</title>
<path fill="none" stroke="#191970" d="M75.5,-107.0079C75.5,-97.8464 75.5,-88.5116 75.5,-79.8331"/>
<polygon fill="none" stroke="#191970" points="72.0001,-107.2335 75.5,-117.2336 79.0001,-107.2336 72.0001,-107.2335"/>
</g>
</g>
</svg>
