<?xml version="1.0" encoding="UTF-8" standalone="no"?>
<!DOCTYPE svg PUBLIC "-//W3C//DTD SVG 1.1//EN"
 "http://www.w3.org/Graphics/SVG/1.1/DTD/svg11.dtd">
<!-- Generated by graphviz version 2.40.1 (20161225.0304)
 -->
<!-- Title: org.cobbzilla.util.handlebars.HandlebarsUtil.DateHelper.zonedTimestamp Pages: 1 -->
<svg width="618pt" height="61pt"
 viewBox="0.00 0.00 618.00 61.00" xmlns="http://www.w3.org/2000/svg" xmlns:xlink="http://www.w3.org/1999/xlink">
<g id="graph0" class="graph" transform="scale(1 1) rotate(0) translate(4 57)">
<title>org.cobbzilla.util.handlebars.HandlebarsUtil.DateHelper.zonedTimestamp</title>
<!-- Node1 -->
<g id="node1" class="node">
<title>Node1</title>
<polygon fill="#bfbfbf" stroke="#000000" points="0,-.5 0,-30.5 212,-30.5 212,-.5 0,-.5"/>
<text text-anchor="start" x="8" y="-18.5" font-family="Helvetica,sans-Serif" font-size="10.00" fill="#000000">org.cobbzilla.util.handlebars.</text>
<text text-anchor="middle" x="106" y="-7.5" font-family="Helvetica,sans-Serif" font-size="10.00" fill="#000000">HandlebarsUtil.DateHelper.zonedTimestamp</text>
</g>
<!-- Node1&#45;&gt;Node1 -->
<g id="edge4" class="edge">
<title>Node1&#45;&gt;Node1</title>
<path fill="none" stroke="#191970" d="M67.264,-40.9579C72.0717,-45.679 84.9837,-49 106,-49 140.4883,-49 153.1519,-40.0566 143.991,-30.659"/>
<polygon fill="#191970" stroke="#191970" points="70.7783,-40.8855 68.009,-30.659 63.7966,-40.3804 70.7783,-40.8855"/>
</g>
<!-- Node2 -->
<g id="node2" class="node">
<title>Node2</title>
<g id="a_node2"><a xlink:href="../../db/d54/classorg_1_1cobbzilla_1_1util_1_1handlebars_1_1HandlebarsUtil_1_1DateHelper_af88617030039c50f7c5806cdb84e604f.html#af88617030039c50f7c5806cdb84e604f" target="_top" xlink:title="org.cobbzilla.util.handlebars.\lHandlebarsUtil.DateHelper.print">
<polygon fill="none" stroke="#000000" points="248,-22.5 248,-52.5 403,-52.5 403,-22.5 248,-22.5"/>
<text text-anchor="start" x="256" y="-40.5" font-family="Helvetica,sans-Serif" font-size="10.00" fill="#000000">org.cobbzilla.util.handlebars.</text>
<text text-anchor="middle" x="325.5" y="-29.5" font-family="Helvetica,sans-Serif" font-size="10.00" fill="#000000">HandlebarsUtil.DateHelper.print</text>
</a>
</g>
</g>
<!-- Node1&#45;&gt;Node2 -->
<g id="edge1" class="edge">
<title>Node1&#45;&gt;Node2</title>
<path fill="none" stroke="#191970" d="M222.3707,-27.1636C231.0125,-28.0297 239.5993,-28.8904 247.9159,-29.7239"/>
<polygon fill="#191970" stroke="#191970" points="222.5129,-23.6604 212.2137,-26.1456 221.8147,-30.6255 222.5129,-23.6604"/>
</g>
<!-- Node3 -->
<g id="node3" class="node">
<title>Node3</title>
<g id="a_node3"><a xlink:href="../../d0/d1b/classorg_1_1cobbzilla_1_1util_1_1handlebars_1_1HandlebarsUtil_a4eadff15b21a8fd540a8b14e9c45e200.html#a4eadff15b21a8fd540a8b14e9c45e200" target="_top" xlink:title="org.cobbzilla.util.handlebars.\lHandlebarsUtil.registerDateHelpers">
<polygon fill="none" stroke="#000000" points="439,-.5 439,-30.5 610,-30.5 610,-.5 439,-.5"/>
<text text-anchor="start" x="447" y="-18.5" font-family="Helvetica,sans-Serif" font-size="10.00" fill="#000000">org.cobbzilla.util.handlebars.</text>
<text text-anchor="middle" x="524.5" y="-7.5" font-family="Helvetica,sans-Serif" font-size="10.00" fill="#000000">HandlebarsUtil.registerDateHelpers</text>
</a>
</g>
</g>
<!-- Node1&#45;&gt;Node3 -->
<g id="edge3" class="edge">
<title>Node1&#45;&gt;Node3</title>
<path fill="none" stroke="#191970" d="M222.4079,-13.7279C231.0682,-13.6366 239.6714,-13.5586 248,-13.5 316.8872,-13.0149 334.1134,-12.9331 403,-13.5 414.6027,-13.5955 426.8281,-13.7423 438.873,-13.9139"/>
<polygon fill="#191970" stroke="#191970" points="222.1888,-10.23 212.2282,-13.8406 222.2664,-17.2295 222.1888,-10.23"/>
</g>
<!-- Node2&#45;&gt;Node3 -->
<g id="edge2" class="edge">
<title>Node2&#45;&gt;Node3</title>
<path fill="none" stroke="#191970" d="M413.0402,-27.8222C421.6466,-26.8707 430.3742,-25.9059 438.9602,-24.9567"/>
<polygon fill="#191970" stroke="#191970" points="412.5632,-24.3535 403.0084,-28.9312 413.3325,-31.3111 412.5632,-24.3535"/>
</g>
</g>
</svg>
