<?xml version="1.0" encoding="UTF-8" standalone="no"?>
<!DOCTYPE svg PUBLIC "-//W3C//DTD SVG 1.1//EN"
 "http://www.w3.org/Graphics/SVG/1.1/DTD/svg11.dtd">
<!-- Generated by graphviz version 2.40.1 (20161225.0304)
 -->
<!-- Title: org.cobbzilla.util.handlebars.HandlebarsUtil.DateHelper.print Pages: 1 -->
<svg width="411pt" height="124pt"
 viewBox="0.00 0.00 411.00 124.00" xmlns="http://www.w3.org/2000/svg" xmlns:xlink="http://www.w3.org/1999/xlink">
<g id="graph0" class="graph" transform="scale(1 1) rotate(0) translate(4 120)">
<title>org.cobbzilla.util.handlebars.HandlebarsUtil.DateHelper.print</title>
<!-- Node0 -->
<g id="node1" class="node">
<title>Node0</title>
<polygon fill="#bfbfbf" stroke="#000000" points="0,-33.5 0,-63.5 155,-63.5 155,-33.5 0,-33.5"/>
<text text-anchor="start" x="8" y="-51.5" font-family="Helvetica,sans-Serif" font-size="10.00" fill="#000000">org.cobbzilla.util.handlebars.</text>
<text text-anchor="middle" x="77.5" y="-40.5" font-family="Helvetica,sans-Serif" font-size="10.00" fill="#000000">HandlebarsUtil.DateHelper.print</text>
</g>
<!-- Node1 -->
<g id="node2" class="node">
<title>Node1</title>
<g id="a_node2"><a xlink:href="../../db/d54/classorg_1_1cobbzilla_1_1util_1_1handlebars_1_1HandlebarsUtil_1_1DateHelper_a314a2572f353991e2efe6a1da672630a.html#a314a2572f353991e2efe6a1da672630a" target="_top" xlink:title="org.cobbzilla.util.handlebars.\lHandlebarsUtil.DateHelper.getTimeZone">
<polygon fill="none" stroke="#000000" points="200,-67.5 200,-97.5 394,-97.5 394,-67.5 200,-67.5"/>
<text text-anchor="start" x="208" y="-85.5" font-family="Helvetica,sans-Serif" font-size="10.00" fill="#000000">org.cobbzilla.util.handlebars.</text>
<text text-anchor="middle" x="297" y="-74.5" font-family="Helvetica,sans-Serif" font-size="10.00" fill="#000000">HandlebarsUtil.DateHelper.getTimeZone</text>
</a>
</g>
</g>
<!-- Node0&#45;&gt;Node1 -->
<g id="edge1" class="edge">
<title>Node0&#45;&gt;Node1</title>
<path fill="none" stroke="#191970" d="M155.1964,-60.535C166.3565,-62.2636 178.0013,-64.0674 189.6109,-65.8657"/>
<polygon fill="#191970" stroke="#191970" points="189.3732,-69.3705 199.7911,-67.4426 190.4448,-62.453 189.3732,-69.3705"/>
</g>
<!-- Node2 -->
<g id="node3" class="node">
<title>Node2</title>
<g id="a_node3"><a xlink:href="../../db/d54/classorg_1_1cobbzilla_1_1util_1_1handlebars_1_1HandlebarsUtil_1_1DateHelper_a8f6a8a28b317df47d41baa615088608f.html#a8f6a8a28b317df47d41baa615088608f" target="_top" xlink:title="org.cobbzilla.util.handlebars.\lHandlebarsUtil.DateHelper.zonedTimestamp">
<polygon fill="none" stroke="#000000" points="191,-.5 191,-30.5 403,-30.5 403,-.5 191,-.5"/>
<text text-anchor="start" x="199" y="-18.5" font-family="Helvetica,sans-Serif" font-size="10.00" fill="#000000">org.cobbzilla.util.handlebars.</text>
<text text-anchor="middle" x="297" y="-7.5" font-family="Helvetica,sans-Serif" font-size="10.00" fill="#000000">HandlebarsUtil.DateHelper.zonedTimestamp</text>
</a>
</g>
</g>
<!-- Node0&#45;&gt;Node2 -->
<g id="edge3" class="edge">
<title>Node0&#45;&gt;Node2</title>
<path fill="none" stroke="#191970" d="M155.1964,-36.819C165.5828,-35.2575 176.3891,-33.6328 187.1961,-32.0081"/>
<polygon fill="#191970" stroke="#191970" points="187.7405,-35.4657 197.109,-30.5178 186.6997,-28.5435 187.7405,-35.4657"/>
</g>
<!-- Node1&#45;&gt;Node1 -->
<g id="edge2" class="edge">
<title>Node1&#45;&gt;Node1</title>
<path fill="none" stroke="#191970" d="M259.009,-97.659C249.8481,-107.0566 262.5117,-116 297,-116 318.0163,-116 330.9283,-112.679 335.736,-107.9579"/>
<polygon fill="#191970" stroke="#191970" points="339.2034,-107.3804 334.991,-97.659 332.2217,-107.8855 339.2034,-107.3804"/>
</g>
<!-- Node2&#45;&gt;Node2 -->
<g id="edge4" class="edge">
<title>Node2&#45;&gt;Node2</title>
<path fill="none" stroke="#191970" d="M259.009,-30.659C249.8481,-40.0566 262.5117,-49 297,-49 318.0163,-49 330.9283,-45.679 335.736,-40.9579"/>
<polygon fill="#191970" stroke="#191970" points="339.2034,-40.3804 334.991,-30.659 332.2217,-40.8855 339.2034,-40.3804"/>
</g>
</g>
</svg>
