<?xml version="1.0" encoding="UTF-8" standalone="no"?>
<!DOCTYPE svg PUBLIC "-//W3C//DTD SVG 1.1//EN"
 "http://www.w3.org/Graphics/SVG/1.1/DTD/svg11.dtd">
<!-- Generated by graphviz version 2.40.1 (20161225.0304)
 -->
<!-- Title: org.cobbzilla.util.handlebars.HandlebarsUtil.DateHelper.getTimeZone Pages: 1 -->
<svg width="657pt" height="127pt"
 viewBox="0.00 0.00 657.00 127.00" xmlns="http://www.w3.org/2000/svg" xmlns:xlink="http://www.w3.org/1999/xlink">
<g id="graph0" class="graph" transform="scale(1 1) rotate(0) translate(4 123)">
<title>org.cobbzilla.util.handlebars.HandlebarsUtil.DateHelper.getTimeZone</title>
<!-- Node1 -->
<g id="node1" class="node">
<title>Node1</title>
<polygon fill="#bfbfbf" stroke="#000000" points="0,-44.5 0,-74.5 194,-74.5 194,-44.5 0,-44.5"/>
<text text-anchor="start" x="8" y="-62.5" font-family="Helvetica,sans-Serif" font-size="10.00" fill="#000000">org.cobbzilla.util.handlebars.</text>
<text text-anchor="middle" x="97" y="-51.5" font-family="Helvetica,sans-Serif" font-size="10.00" fill="#000000">HandlebarsUtil.DateHelper.getTimeZone</text>
</g>
<!-- Node1&#45;&gt;Node1 -->
<g id="edge1" class="edge">
<title>Node1&#45;&gt;Node1</title>
<path fill="none" stroke="#191970" d="M54.324,-84.592C59.2419,-89.5065 73.4673,-93 97,-93 134.6523,-93 148.4778,-84.0566 138.4764,-74.659"/>
<polygon fill="#191970" stroke="#191970" points="57.7993,-85.0065 55.5236,-74.659 50.8498,-84.1672 57.7993,-85.0065"/>
</g>
<!-- Node2 -->
<g id="node2" class="node">
<title>Node2</title>
<g id="a_node2"><a xlink:href="../../db/d54/classorg_1_1cobbzilla_1_1util_1_1handlebars_1_1HandlebarsUtil_1_1DateHelper_af88617030039c50f7c5806cdb84e604f.html#af88617030039c50f7c5806cdb84e604f" target="_top" xlink:title="org.cobbzilla.util.handlebars.\lHandlebarsUtil.DateHelper.print">
<polygon fill="none" stroke="#000000" points="258.5,-88.5 258.5,-118.5 413.5,-118.5 413.5,-88.5 258.5,-88.5"/>
<text text-anchor="start" x="266.5" y="-106.5" font-family="Helvetica,sans-Serif" font-size="10.00" fill="#000000">org.cobbzilla.util.handlebars.</text>
<text text-anchor="middle" x="336" y="-95.5" font-family="Helvetica,sans-Serif" font-size="10.00" fill="#000000">HandlebarsUtil.DateHelper.print</text>
</a>
</g>
</g>
<!-- Node1&#45;&gt;Node2 -->
<g id="edge2" class="edge">
<title>Node1&#45;&gt;Node2</title>
<path fill="none" stroke="#191970" d="M188.6896,-76.3801C211.7002,-80.6164 236.1674,-85.1208 258.4152,-89.2166"/>
<polygon fill="#191970" stroke="#191970" points="189.0502,-72.8877 178.5818,-74.5192 187.7828,-79.7721 189.0502,-72.8877"/>
</g>
<!-- Node3 -->
<g id="node3" class="node">
<title>Node3</title>
<g id="a_node3"><a xlink:href="../../d0/d1b/classorg_1_1cobbzilla_1_1util_1_1handlebars_1_1HandlebarsUtil_a4eadff15b21a8fd540a8b14e9c45e200.html#a4eadff15b21a8fd540a8b14e9c45e200" target="_top" xlink:title="org.cobbzilla.util.handlebars.\lHandlebarsUtil.registerDateHelpers">
<polygon fill="none" stroke="#000000" points="478,-66.5 478,-96.5 649,-96.5 649,-66.5 478,-66.5"/>
<text text-anchor="start" x="486" y="-84.5" font-family="Helvetica,sans-Serif" font-size="10.00" fill="#000000">org.cobbzilla.util.handlebars.</text>
<text text-anchor="middle" x="563.5" y="-73.5" font-family="Helvetica,sans-Serif" font-size="10.00" fill="#000000">HandlebarsUtil.registerDateHelpers</text>
</a>
</g>
</g>
<!-- Node1&#45;&gt;Node3 -->
<g id="edge4" class="edge">
<title>Node1&#45;&gt;Node3</title>
<path fill="none" stroke="#191970" d="M204.4492,-64.5673C287.4564,-68.4819 400.7939,-73.8268 477.7717,-77.4571"/>
<polygon fill="#191970" stroke="#191970" points="204.3797,-61.0602 194.2258,-64.0851 204.0498,-68.0524 204.3797,-61.0602"/>
</g>
<!-- Node4 -->
<g id="node4" class="node">
<title>Node4</title>
<g id="a_node4"><a xlink:href="../../db/d54/classorg_1_1cobbzilla_1_1util_1_1handlebars_1_1HandlebarsUtil_1_1DateHelper_a8edbb76ae9f62bf7ab56e1107eeea00d.html#a8edbb76ae9f62bf7ab56e1107eeea00d" target="_top" xlink:title="org.cobbzilla.util.handlebars.\lHandlebarsUtil.DateHelper.zonedTimestamp">
<polygon fill="none" stroke="#000000" points="230,-.5 230,-30.5 442,-30.5 442,-.5 230,-.5"/>
<text text-anchor="start" x="238" y="-18.5" font-family="Helvetica,sans-Serif" font-size="10.00" fill="#000000">org.cobbzilla.util.handlebars.</text>
<text text-anchor="middle" x="336" y="-7.5" font-family="Helvetica,sans-Serif" font-size="10.00" fill="#000000">HandlebarsUtil.DateHelper.zonedTimestamp</text>
</a>
</g>
</g>
<!-- Node1&#45;&gt;Node4 -->
<g id="edge5" class="edge">
<title>Node1&#45;&gt;Node4</title>
<path fill="none" stroke="#191970" d="M188.4482,-42.6643C210.1466,-38.6697 233.1528,-34.4342 254.3804,-30.5262"/>
<polygon fill="#191970" stroke="#191970" points="187.7828,-39.2279 178.5818,-44.4808 189.0502,-46.1123 187.7828,-39.2279"/>
</g>
<!-- Node2&#45;&gt;Node3 -->
<g id="edge3" class="edge">
<title>Node2&#45;&gt;Node3</title>
<path fill="none" stroke="#191970" d="M423.9215,-94.9977C441.5509,-93.2929 460.0543,-91.5035 477.6136,-89.8055"/>
<polygon fill="#191970" stroke="#191970" points="423.2729,-91.544 413.6563,-95.9904 423.9468,-98.5115 423.2729,-91.544"/>
</g>
</g>
</svg>
