<?xml version="1.0" encoding="UTF-8" standalone="no"?>
<!DOCTYPE svg PUBLIC "-//W3C//DTD SVG 1.1//EN"
 "http://www.w3.org/Graphics/SVG/1.1/DTD/svg11.dtd">
<!-- Generated by graphviz version 2.40.1 (20161225.0304)
 -->
<!-- Title: org.cobbzilla.util.handlebars.HandlebarsUtil.DateHelper.zonedTimestamp Pages: 1 -->
<svg width="450pt" height="106pt"
 viewBox="0.00 0.00 450.00 106.00" xmlns="http://www.w3.org/2000/svg" xmlns:xlink="http://www.w3.org/1999/xlink">
<g id="graph0" class="graph" transform="scale(1 1) rotate(0) translate(4 102)">
<title>org.cobbzilla.util.handlebars.HandlebarsUtil.DateHelper.zonedTimestamp</title>
<!-- Node0 -->
<g id="node1" class="node">
<title>Node0</title>
<polygon fill="#bfbfbf" stroke="#000000" points="0,-24.5 0,-54.5 212,-54.5 212,-24.5 0,-24.5"/>
<text text-anchor="start" x="8" y="-42.5" font-family="Helvetica,sans-Serif" font-size="10.00" fill="#000000">org.cobbzilla.util.handlebars.</text>
<text text-anchor="middle" x="106" y="-31.5" font-family="Helvetica,sans-Serif" font-size="10.00" fill="#000000">HandlebarsUtil.DateHelper.zonedTimestamp</text>
</g>
<!-- Node1 -->
<g id="node2" class="node">
<title>Node1</title>
<g id="a_node2"><a xlink:href="../../db/d54/classorg_1_1cobbzilla_1_1util_1_1handlebars_1_1HandlebarsUtil_1_1DateHelper_a314a2572f353991e2efe6a1da672630a.html#a314a2572f353991e2efe6a1da672630a" target="_top" xlink:title="org.cobbzilla.util.handlebars.\lHandlebarsUtil.DateHelper.getTimeZone">
<polygon fill="none" stroke="#000000" points="248,-49.5 248,-79.5 442,-79.5 442,-49.5 248,-49.5"/>
<text text-anchor="start" x="256" y="-67.5" font-family="Helvetica,sans-Serif" font-size="10.00" fill="#000000">org.cobbzilla.util.handlebars.</text>
<text text-anchor="middle" x="345" y="-56.5" font-family="Helvetica,sans-Serif" font-size="10.00" fill="#000000">HandlebarsUtil.DateHelper.getTimeZone</text>
</a>
</g>
</g>
<!-- Node0&#45;&gt;Node1 -->
<g id="edge1" class="edge">
<title>Node0&#45;&gt;Node1</title>
<path fill="none" stroke="#191970" d="M212.2207,-50.611C220.7333,-51.5014 229.337,-52.4014 237.8559,-53.2925"/>
<polygon fill="#191970" stroke="#191970" points="237.4972,-56.7739 247.8071,-54.3334 238.2255,-49.8119 237.4972,-56.7739"/>
</g>
<!-- Node2 -->
<g id="node3" class="node">
<title>Node2</title>
<g id="a_node3"><a xlink:href="../../d0/d1b/classorg_1_1cobbzilla_1_1util_1_1handlebars_1_1HandlebarsUtil_a5f814dc12eb19ff7476cdaecfa19c538.html#a5f814dc12eb19ff7476cdaecfa19c538" target="_top" xlink:title="org.cobbzilla.util.handlebars.\lHandlebarsUtil.longVal">
<polygon fill="none" stroke="#000000" points="275,-.5 275,-30.5 415,-30.5 415,-.5 275,-.5"/>
<text text-anchor="start" x="283" y="-18.5" font-family="Helvetica,sans-Serif" font-size="10.00" fill="#000000">org.cobbzilla.util.handlebars.</text>
<text text-anchor="middle" x="345" y="-7.5" font-family="Helvetica,sans-Serif" font-size="10.00" fill="#000000">HandlebarsUtil.longVal</text>
</a>
</g>
</g>
<!-- Node0&#45;&gt;Node2 -->
<g id="edge3" class="edge">
<title>Node0&#45;&gt;Node2</title>
<path fill="none" stroke="#191970" d="M212.2207,-28.8335C229.7719,-27.071 247.71,-25.2697 264.4952,-23.5842"/>
<polygon fill="#191970" stroke="#191970" points="265.1835,-27.0327 274.7837,-22.551 264.484,-20.0678 265.1835,-27.0327"/>
</g>
<!-- Node1&#45;&gt;Node1 -->
<g id="edge2" class="edge">
<title>Node1&#45;&gt;Node1</title>
<path fill="none" stroke="#191970" d="M303.5236,-79.659C293.5222,-89.0566 307.3477,-98 345,-98 368.5327,-98 382.7581,-94.5065 387.676,-89.592"/>
<polygon fill="#191970" stroke="#191970" points="391.1502,-89.1672 386.4764,-79.659 384.2007,-90.0065 391.1502,-89.1672"/>
</g>
</g>
</svg>
