<?xml version="1.0" encoding="UTF-8" standalone="no"?>
<!DOCTYPE svg PUBLIC "-//W3C//DTD SVG 1.1//EN"
 "http://www.w3.org/Graphics/SVG/1.1/DTD/svg11.dtd">
<!-- Generated by graphviz version 2.40.1 (20161225.0304)
 -->
<!-- Title: org.cobbzilla.util.cache.BackgroundRefreshingReference&lt; T &gt; Pages: 1 -->
<!--zoomable 491 -->
<svg id="main" version="1.1" xmlns="http://www.w3.org/2000/svg" xmlns:xlink="http://www.w3.org/1999/xlink" xml:space="preserve" onload="init(evt)">
<style type="text/css"><![CDATA[
.edge:hover path { stroke: red; }
.edge:hover polygon { stroke: red; fill: red; }
]]></style>
<script type="text/javascript"><![CDATA[
var edges = document.getElementsByTagName('g');
if (edges && edges.length) {
  for (var i=0;i<edges.length;i++) {
    if (edges[i].id.substr(0,4)=='edge') {
      edges[i].setAttribute('class','edge');
    }
  }
}
]]></script>
        <defs>
                <circle id="rim" cx="0" cy="0" r="7"/>
                <circle id="rim2" cx="0" cy="0" r="3.5"/>
                <g id="zoomPlus">
                        <use xlink:href="#rim" fill="#404040">
                                <set attributeName="fill" to="#808080" begin="zoomplus.mouseover" end="zoomplus.mouseout"/>
                        </use>
                        <path d="M-4,0h8M0,-4v8" fill="none" stroke="white" stroke-width="1.5" pointer-events="none"/>
                </g>
                <g id="zoomMin">
                        <use xlink:href="#rim" fill="#404040">
                                <set attributeName="fill" to="#808080" begin="zoomminus.mouseover" end="zoomminus.mouseout"/>
                        </use>
                        <path d="M-4,0h8" fill="none" stroke="white" stroke-width="1.5" pointer-events="none"/>
                </g>
                <g id="dirArrow">
                        <path fill="none" stroke="white" stroke-width="1.5" d="M0,-3.0v7 M-2.5,-0.5L0,-3.0L2.5,-0.5"/>
                </g>
               <g id="resetDef">
                       <use xlink:href="#rim2" fill="#404040">
                               <set attributeName="fill" to="#808080" begin="reset.mouseover" end="reset.mouseout"/>
                       </use>
               </g>
        </defs>

<script type="text/javascript">
var viewWidth = 619;
var viewHeight = 491;
var sectionId = 'dynsection-1';
</script>
<script xlink:href="../../svgpan.js"/>
<svg id="graph" class="graph">
<g id="viewport">
<title>org.cobbzilla.util.cache.BackgroundRefreshingReference&lt; T &gt;</title>
<!-- Node2 -->
<g id="node1" class="node">
<title>Node2</title>
<polygon fill="#bfbfbf" stroke="#000000" points="252.5,-.5 252.5,-90.5 437.5,-90.5 437.5,-.5 252.5,-.5"/>
<text text-anchor="start" x="260.5" y="-78.5" font-family="Helvetica,sans-Serif" font-size="10.00" fill="#000000">org.cobbzilla.util.cache.</text>
<text text-anchor="middle" x="345" y="-67.5" font-family="Helvetica,sans-Serif" font-size="10.00" fill="#000000">BackgroundRefreshingReference&lt; T &gt;</text>
<polyline fill="none" stroke="#000000" points="252.5,-60.5 437.5,-60.5 "/>
<text text-anchor="middle" x="345" y="-48.5" font-family="Helvetica,sans-Serif" font-size="10.00" fill="#000000"> </text>
<polyline fill="none" stroke="#000000" points="252.5,-41.5 437.5,-41.5 "/>
<text text-anchor="start" x="260.5" y="-29.5" font-family="Helvetica,sans-Serif" font-size="10.00" fill="#000000">+ initialize()</text>
<text text-anchor="start" x="260.5" y="-18.5" font-family="Helvetica,sans-Serif" font-size="10.00" fill="#000000">+ BackgroundRefreshingReference()</text>
<text text-anchor="start" x="260.5" y="-7.5" font-family="Helvetica,sans-Serif" font-size="10.00" fill="#000000">+ update()</text>
</g>
<!-- Node3 -->
<g id="node2" class="node">
<title>Node3</title>
<g id="a_node2"><a xlink:href="../../d3/d3f/classorg_1_1cobbzilla_1_1util_1_1cache_1_1AutoRefreshingReference.html" target="_top" xlink:title="{org::cobbzilla::util\l::cache::AutoRefreshingReference\&lt; T \&gt;\n||+ refresh()\l+ getTimeout()\l+ get()\l+ isEmpty()\l+ update()\l+ flush()\l+ set()\l}">
<polygon fill="none" stroke="#000000" points="44.5,-138.5 44.5,-272.5 235.5,-272.5 235.5,-138.5 44.5,-138.5"/>
<text text-anchor="start" x="52.5" y="-260.5" font-family="Helvetica,sans-Serif" font-size="10.00" fill="#000000">org::cobbzilla::util</text>
<text text-anchor="middle" x="140" y="-249.5" font-family="Helvetica,sans-Serif" font-size="10.00" fill="#000000">::cache::AutoRefreshingReference&lt; T &gt;</text>
<polyline fill="none" stroke="#000000" points="44.5,-242.5 235.5,-242.5 "/>
<text text-anchor="middle" x="140" y="-230.5" font-family="Helvetica,sans-Serif" font-size="10.00" fill="#000000"> </text>
<polyline fill="none" stroke="#000000" points="44.5,-223.5 235.5,-223.5 "/>
<text text-anchor="start" x="52.5" y="-211.5" font-family="Helvetica,sans-Serif" font-size="10.00" fill="#000000">+ refresh()</text>
<text text-anchor="start" x="52.5" y="-200.5" font-family="Helvetica,sans-Serif" font-size="10.00" fill="#000000">+ getTimeout()</text>
<text text-anchor="start" x="52.5" y="-189.5" font-family="Helvetica,sans-Serif" font-size="10.00" fill="#000000">+ get()</text>
<text text-anchor="start" x="52.5" y="-178.5" font-family="Helvetica,sans-Serif" font-size="10.00" fill="#000000">+ isEmpty()</text>
<text text-anchor="start" x="52.5" y="-167.5" font-family="Helvetica,sans-Serif" font-size="10.00" fill="#000000">+ update()</text>
<text text-anchor="start" x="52.5" y="-156.5" font-family="Helvetica,sans-Serif" font-size="10.00" fill="#000000">+ flush()</text>
<text text-anchor="start" x="52.5" y="-145.5" font-family="Helvetica,sans-Serif" font-size="10.00" fill="#000000">+ set()</text>
</a>
</g>
</g>
<!-- Node3&#45;&gt;Node2 -->
<g id="edge1" class="edge">
<title>Node3&#45;&gt;Node2</title>
<path fill="none" stroke="#191970" d="M234.2951,-131.9038C252.3156,-117.8391 270.6765,-103.5086 287.1306,-90.6663"/>
<polygon fill="none" stroke="#191970" points="231.7771,-129.4292 226.0474,-138.341 236.0841,-134.9474 231.7771,-129.4292"/>
</g>
<!-- Node4 -->
<g id="node3" class="node">
<title>Node4</title>
<polygon fill="none" stroke="#bfbfbf" points="0,-320.5 0,-377.5 116,-377.5 116,-320.5 0,-320.5"/>
<text text-anchor="middle" x="58" y="-365.5" font-family="Helvetica,sans-Serif" font-size="10.00" fill="#000000">AtomicReference&lt; T &gt;</text>
<polyline fill="none" stroke="#bfbfbf" points="0,-358.5 116,-358.5 "/>
<text text-anchor="middle" x="58" y="-346.5" font-family="Helvetica,sans-Serif" font-size="10.00" fill="#000000"> </text>
<polyline fill="none" stroke="#bfbfbf" points="0,-339.5 116,-339.5 "/>
<text text-anchor="middle" x="58" y="-327.5" font-family="Helvetica,sans-Serif" font-size="10.00" fill="#000000"> </text>
</g>
<!-- Node4&#45;&gt;Node3 -->
<g id="edge2" class="edge">
<title>Node4&#45;&gt;Node3</title>
<path fill="none" stroke="#404040" d="M74.3968,-320.3055C80.5925,-309.4631 87.9776,-296.5392 95.5209,-283.3384"/>
<polygon fill="none" stroke="#404040" points="95.631,-283.1456 95.1349,-275.9516 101.5847,-272.7267 102.0809,-279.9207 95.631,-283.1456"/>
<text text-anchor="middle" x="106.5" y="-294" font-family="Helvetica,sans-Serif" font-size="10.00" fill="#000000"> &#45;object</text>
</g>
<!-- Node5 -->
<g id="node4" class="node">
<title>Node5</title>
<polygon fill="none" stroke="#bfbfbf" points="12,-425.5 12,-482.5 104,-482.5 104,-425.5 12,-425.5"/>
<text text-anchor="middle" x="58" y="-470.5" font-family="Helvetica,sans-Serif" font-size="10.00" fill="#000000">AtomicReference</text>
<polyline fill="none" stroke="#bfbfbf" points="12,-463.5 104,-463.5 "/>
<text text-anchor="middle" x="58" y="-451.5" font-family="Helvetica,sans-Serif" font-size="10.00" fill="#000000"> </text>
<polyline fill="none" stroke="#bfbfbf" points="12,-444.5 104,-444.5 "/>
<text text-anchor="middle" x="58" y="-432.5" font-family="Helvetica,sans-Serif" font-size="10.00" fill="#000000"> </text>
</g>
<!-- Node5&#45;&gt;Node4 -->
<g id="edge3" class="edge">
<title>Node5&#45;&gt;Node4</title>
<path fill="none" stroke="#ffa500" d="M58,-415.192C58,-402.7605 58,-389.2278 58,-377.657"/>
<polygon fill="#ffa500" stroke="#ffa500" points="54.5001,-415.3083 58,-425.3083 61.5001,-415.3083 54.5001,-415.3083"/>
<text text-anchor="middle" x="72" y="-399" font-family="Helvetica,sans-Serif" font-size="10.00" fill="#000000"> &lt; T &gt;</text>
</g>
<!-- Node6 -->
<g id="node5" class="node">
<title>Node6</title>
<polygon fill="none" stroke="#bfbfbf" points="134,-320.5 134,-377.5 202,-377.5 202,-320.5 134,-320.5"/>
<text text-anchor="middle" x="168" y="-365.5" font-family="Helvetica,sans-Serif" font-size="10.00" fill="#000000">AtomicLong</text>
<polyline fill="none" stroke="#bfbfbf" points="134,-358.5 202,-358.5 "/>
<text text-anchor="middle" x="168" y="-346.5" font-family="Helvetica,sans-Serif" font-size="10.00" fill="#000000"> </text>
<polyline fill="none" stroke="#bfbfbf" points="134,-339.5 202,-339.5 "/>
<text text-anchor="middle" x="168" y="-327.5" font-family="Helvetica,sans-Serif" font-size="10.00" fill="#000000"> </text>
</g>
<!-- Node6&#45;&gt;Node3 -->
<g id="edge4" class="edge">
<title>Node6&#45;&gt;Node3</title>
<path fill="none" stroke="#404040" d="M162.4011,-320.3055C160.3483,-309.7852 157.9132,-297.3051 155.4173,-284.5139"/>
<polygon fill="none" stroke="#404040" points="155.4156,-284.5046 150.3405,-279.3817 153.1174,-272.7267 158.1925,-277.8496 155.4156,-284.5046"/>
<text text-anchor="middle" x="177.5" y="-294" font-family="Helvetica,sans-Serif" font-size="10.00" fill="#000000"> &#45;lastSet</text>
</g>
<!-- Node7 -->
<g id="node6" class="node">
<title>Node7</title>
<polygon fill="none" stroke="#bfbfbf" points="253.5,-177 253.5,-234 330.5,-234 330.5,-177 253.5,-177"/>
<text text-anchor="middle" x="292" y="-222" font-family="Helvetica,sans-Serif" font-size="10.00" fill="#000000">AtomicInteger</text>
<polyline fill="none" stroke="#bfbfbf" points="253.5,-215 330.5,-215 "/>
<text text-anchor="middle" x="292" y="-203" font-family="Helvetica,sans-Serif" font-size="10.00" fill="#000000"> </text>
<polyline fill="none" stroke="#bfbfbf" points="253.5,-196 330.5,-196 "/>
<text text-anchor="middle" x="292" y="-184" font-family="Helvetica,sans-Serif" font-size="10.00" fill="#000000"> </text>
</g>
<!-- Node7&#45;&gt;Node2 -->
<g id="edge5" class="edge">
<title>Node7&#45;&gt;Node2</title>
<path fill="none" stroke="#404040" d="M301.4753,-176.8952C308.3126,-156.2544 317.772,-127.6978 326.1261,-102.478"/>
<polygon fill="none" stroke="#404040" points="326.2238,-102.1827 324.3134,-95.2293 329.9972,-90.7914 331.9076,-97.7449 326.2238,-102.1827"/>
<text text-anchor="middle" x="350" y="-112" font-family="Helvetica,sans-Serif" font-size="10.00" fill="#000000"> &#45;errorCount</text>
</g>
<!-- Node8 -->
<g id="node7" class="node">
<title>Node8</title>
<g id="a_node7"><a xlink:href="../../d7/d7d/classorg_1_1cobbzilla_1_1util_1_1cache_1_1BackgroundRefreshingReference_1_1Refresher.html" target="_top" xlink:title="{org.cobbzilla.util.cache.\lBackgroundRefreshingReference\l\&lt; T \&gt;.Refresher\n||+ run()\l}">
<polygon fill="none" stroke="#000000" points="348.5,-166 348.5,-245 509.5,-245 509.5,-166 348.5,-166"/>
<text text-anchor="start" x="356.5" y="-233" font-family="Helvetica,sans-Serif" font-size="10.00" fill="#000000">org.cobbzilla.util.cache.</text>
<text text-anchor="start" x="356.5" y="-222" font-family="Helvetica,sans-Serif" font-size="10.00" fill="#000000">BackgroundRefreshingReference</text>
<text text-anchor="middle" x="429" y="-211" font-family="Helvetica,sans-Serif" font-size="10.00" fill="#000000">&lt; T &gt;.Refresher</text>
<polyline fill="none" stroke="#000000" points="348.5,-204 509.5,-204 "/>
<text text-anchor="middle" x="429" y="-192" font-family="Helvetica,sans-Serif" font-size="10.00" fill="#000000"> </text>
<polyline fill="none" stroke="#000000" points="348.5,-185 509.5,-185 "/>
<text text-anchor="start" x="356.5" y="-173" font-family="Helvetica,sans-Serif" font-size="10.00" fill="#000000">+ run()</text>
</a>
</g>
</g>
<!-- Node8&#45;&gt;Node2 -->
<g id="edge6" class="edge">
<title>Node8&#45;&gt;Node2</title>
<path fill="none" stroke="#404040" d="M408.2359,-165.9494C398.0171,-146.4849 385.5221,-122.685 374.3458,-101.3968"/>
<polygon fill="none" stroke="#404040" points="374.2186,-101.1545 367.888,-97.7014 368.6406,-90.5297 374.9712,-93.9827 374.2186,-101.1545"/>
<text text-anchor="middle" x="404.5" y="-112" font-family="Helvetica,sans-Serif" font-size="10.00" fill="#000000"> &#45;refresher</text>
</g>
<!-- Node9 -->
<g id="node8" class="node">
<title>Node9</title>
<polygon fill="none" stroke="#bfbfbf" points="400,-320.5 400,-377.5 458,-377.5 458,-320.5 400,-320.5"/>
<text text-anchor="middle" x="429" y="-365.5" font-family="Helvetica,sans-Serif" font-size="10.00" fill="#000000">Runnable</text>
<polyline fill="none" stroke="#bfbfbf" points="400,-358.5 458,-358.5 "/>
<text text-anchor="middle" x="429" y="-346.5" font-family="Helvetica,sans-Serif" font-size="10.00" fill="#000000"> </text>
<polyline fill="none" stroke="#bfbfbf" points="400,-339.5 458,-339.5 "/>
<text text-anchor="middle" x="429" y="-327.5" font-family="Helvetica,sans-Serif" font-size="10.00" fill="#000000"> </text>
</g>
<!-- Node9&#45;&gt;Node8 -->
<g id="edge7" class="edge">
<title>Node9&#45;&gt;Node8</title>
<path fill="none" stroke="#191970" d="M429,-310.1909C429,-289.9836 429,-265.3241 429,-245.0146"/>
<polygon fill="none" stroke="#191970" points="425.5001,-310.3055 429,-320.3055 432.5001,-310.3056 425.5001,-310.3055"/>
</g>
<!-- Node10 -->
<g id="node9" class="node">
<title>Node10</title>
<polygon fill="none" stroke="#bfbfbf" points="527.5,-177 527.5,-234 610.5,-234 610.5,-177 527.5,-177"/>
<text text-anchor="middle" x="569" y="-222" font-family="Helvetica,sans-Serif" font-size="10.00" fill="#000000">AtomicBoolean</text>
<polyline fill="none" stroke="#bfbfbf" points="527.5,-215 610.5,-215 "/>
<text text-anchor="middle" x="569" y="-203" font-family="Helvetica,sans-Serif" font-size="10.00" fill="#000000"> </text>
<polyline fill="none" stroke="#bfbfbf" points="527.5,-196 610.5,-196 "/>
<text text-anchor="middle" x="569" y="-184" font-family="Helvetica,sans-Serif" font-size="10.00" fill="#000000"> </text>
</g>
<!-- Node10&#45;&gt;Node2 -->
<g id="edge8" class="edge">
<title>Node10&#45;&gt;Node2</title>
<path fill="none" stroke="#404040" d="M551.996,-176.9222C543.2868,-163.9331 531.8189,-149.039 519,-138 498.1114,-120.0118 473.1344,-104.1834 448.712,-90.9373"/>
<polygon fill="none" stroke="#404040" points="448.528,-90.84 441.3539,-91.5695 437.9212,-85.2278 445.0954,-84.4983 448.528,-90.84"/>
<text text-anchor="middle" x="534.5" y="-112" font-family="Helvetica,sans-Serif" font-size="10.00" fill="#000000"> &#45;updateInProgress</text>
</g>
</g>
</svg>
        <g id="navigator" transform="translate(0 0)" fill="#404254">
                <rect fill="#f2f5e9" fill-opacity="0.5" stroke="#606060" stroke-width=".5" x="0" y="0" width="60" height="60"/>
                <use id="zoomplus" xlink:href="#zoomPlus" x="17" y="9" onmousedown="handleZoom(evt,'in')"/>
                <use id="zoomminus" xlink:href="#zoomMin" x="42" y="9" onmousedown="handleZoom(evt,'out')"/>
                <use id="reset" xlink:href="#resetDef" x="30" y="36" onmousedown="handleReset()"/>
                <g id="arrowUp" xlink:href="#dirArrow" transform="translate(30 24)" onmousedown="handlePan(0,-1)">
                  <use xlink:href="#rim" fill="#404040">
                        <set attributeName="fill" to="#808080" begin="arrowUp.mouseover" end="arrowUp.mouseout"/>
                  </use>
                  <path fill="none" stroke="white" stroke-width="1.5" d="M0,-3.0v7 M-2.5,-0.5L0,-3.0L2.5,-0.5"/>
                </g>
                <g id="arrowRight" xlink:href="#dirArrow" transform="rotate(90) translate(36 -43)" onmousedown="handlePan(1,0)">
                  <use xlink:href="#rim" fill="#404040">
                        <set attributeName="fill" to="#808080" begin="arrowRight.mouseover" end="arrowRight.mouseout"/>
                  </use>
                  <path fill="none" stroke="white" stroke-width="1.5" d="M0,-3.0v7 M-2.5,-0.5L0,-3.0L2.5,-0.5"/>
                </g>
                <g id="arrowDown" xlink:href="#dirArrow" transform="rotate(180) translate(-30 -48)" onmousedown="handlePan(0,1)">
                  <use xlink:href="#rim" fill="#404040">
                        <set attributeName="fill" to="#808080" begin="arrowDown.mouseover" end="arrowDown.mouseout"/>
                  </use>
                  <path fill="none" stroke="white" stroke-width="1.5" d="M0,-3.0v7 M-2.5,-0.5L0,-3.0L2.5,-0.5"/>
                </g>
                <g id="arrowLeft" xlink:href="#dirArrow" transform="rotate(270) translate(-36 17)" onmousedown="handlePan(-1,0)">
                  <use xlink:href="#rim" fill="#404040">
                        <set attributeName="fill" to="#808080" begin="arrowLeft.mouseover" end="arrowLeft.mouseout"/>
                  </use>
                  <path fill="none" stroke="white" stroke-width="1.5" d="M0,-3.0v7 M-2.5,-0.5L0,-3.0L2.5,-0.5"/>
                </g>
        </g>
        <svg viewBox="0 0 15 15" width="100%" height="30px" preserveAspectRatio="xMaxYMin meet">
         <g id="arrow_out" transform="scale(0.3 0.3)">
          <a xlink:href="classorg_1_1cobbzilla_1_1util_1_1cache_1_1BackgroundRefreshingReference__coll__graph_org.svg" target="_base">
           <rect id="button" ry="5" rx="5" y="6" x="6" height="38" width="38"
                fill="#f2f5e9" fill-opacity="0.5" stroke="#606060" stroke-width="1.0"/>
           <path id="arrow"
             d="M 11.500037,31.436501 C 11.940474,20.09759 22.043105,11.32322 32.158766,21.979434 L 37.068811,17.246167 C 37.068811,17.246167 37.088388,32 37.088388,32 L 22.160133,31.978069 C 22.160133,31.978069 26.997745,27.140456 26.997745,27.140456 C 18.528582,18.264221 13.291696,25.230495 11.500037,31.436501 z"
             style="fill:#404040;"/>
          </a>
         </g>
        </svg>
</svg>
