<?xml version="1.0" encoding="UTF-8" standalone="no"?>
<!DOCTYPE svg PUBLIC "-//W3C//DTD SVG 1.1//EN"
 "http://www.w3.org/Graphics/SVG/1.1/DTD/svg11.dtd">
<!-- Generated by graphviz version 2.40.1 (20161225.0304)
 -->
<!-- Title: org.cobbzilla.util.collection.mappy.MappySortedSet&lt; K, V &gt; Pages: 1 -->
<!--zoomable 849 -->
<svg id="main" version="1.1" xmlns="http://www.w3.org/2000/svg" xmlns:xlink="http://www.w3.org/1999/xlink" xml:space="preserve" onload="init(evt)">
<style type="text/css"><![CDATA[
.edge:hover path { stroke: red; }
.edge:hover polygon { stroke: red; fill: red; }
]]></style>
<script type="text/javascript"><![CDATA[
var edges = document.getElementsByTagName('g');
if (edges && edges.length) {
  for (var i=0;i<edges.length;i++) {
    if (edges[i].id.substr(0,4)=='edge') {
      edges[i].setAttribute('class','edge');
    }
  }
}
]]></script>
        <defs>
                <circle id="rim" cx="0" cy="0" r="7"/>
                <circle id="rim2" cx="0" cy="0" r="3.5"/>
                <g id="zoomPlus">
                        <use xlink:href="#rim" fill="#404040">
                                <set attributeName="fill" to="#808080" begin="zoomplus.mouseover" end="zoomplus.mouseout"/>
                        </use>
                        <path d="M-4,0h8M0,-4v8" fill="none" stroke="white" stroke-width="1.5" pointer-events="none"/>
                </g>
                <g id="zoomMin">
                        <use xlink:href="#rim" fill="#404040">
                                <set attributeName="fill" to="#808080" begin="zoomminus.mouseover" end="zoomminus.mouseout"/>
                        </use>
                        <path d="M-4,0h8" fill="none" stroke="white" stroke-width="1.5" pointer-events="none"/>
                </g>
                <g id="dirArrow">
                        <path fill="none" stroke="white" stroke-width="1.5" d="M0,-3.0v7 M-2.5,-0.5L0,-3.0L2.5,-0.5"/>
                </g>
               <g id="resetDef">
                       <use xlink:href="#rim2" fill="#404040">
                               <set attributeName="fill" to="#808080" begin="reset.mouseover" end="reset.mouseout"/>
                       </use>
               </g>
        </defs>

<script type="text/javascript">
var viewWidth = 333;
var viewHeight = 849;
var sectionId = 'dynsection-1';
</script>
<script xlink:href="../../svgpan.js"/>
<svg id="graph" class="graph">
<g id="viewport">
<title>org.cobbzilla.util.collection.mappy.MappySortedSet&lt; K, V &gt;</title>
<!-- Node4 -->
<g id="node1" class="node">
<title>Node4</title>
<polygon fill="#bfbfbf" stroke="#000000" points="96,-.5 96,-90.5 263,-90.5 263,-.5 96,-.5"/>
<text text-anchor="start" x="104" y="-78.5" font-family="Helvetica,sans-Serif" font-size="10.00" fill="#000000">org.cobbzilla.util.collection.mappy.</text>
<text text-anchor="middle" x="179.5" y="-67.5" font-family="Helvetica,sans-Serif" font-size="10.00" fill="#000000">MappySortedSet&lt; K, V &gt;</text>
<polyline fill="none" stroke="#000000" points="96,-60.5 263,-60.5 "/>
<text text-anchor="middle" x="179.5" y="-48.5" font-family="Helvetica,sans-Serif" font-size="10.00" fill="#000000"> </text>
<polyline fill="none" stroke="#000000" points="96,-41.5 263,-41.5 "/>
<text text-anchor="start" x="104" y="-29.5" font-family="Helvetica,sans-Serif" font-size="10.00" fill="#000000">+ MappySortedSet()</text>
<text text-anchor="start" x="104" y="-18.5" font-family="Helvetica,sans-Serif" font-size="10.00" fill="#000000"># newCollection()</text>
<text text-anchor="start" x="104" y="-7.5" font-family="Helvetica,sans-Serif" font-size="10.00" fill="#000000"># firstInCollection()</text>
</g>
<!-- Node5 -->
<g id="node2" class="node">
<title>Node5</title>
<g id="a_node2"><a xlink:href="../../d0/d68/classorg_1_1cobbzilla_1_1util_1_1collection_1_1mappy_1_1Mappy.html" target="_top" xlink:title="{org.cobbzilla.util.collection.mappy.\lMappy\&lt; K, V, TreeSet\&lt; V \&gt; \&gt;\n|&#45; map\l&#45; valueClass\l|+ Mappy()\l+ Mappy()\l+ Mappy()\l+ size()\l+ totalSize()\l+ isEmpty()\l+ containsKey()\l+ containsValue()\l+ get()\l+ getAll()\land 16 more...\l# newCollection()\l# firstInCollection()\l&#45; initValueClass()\l}">
<polygon fill="none" stroke="#000000" points="15,-138.5 15,-360.5 182,-360.5 182,-138.5 15,-138.5"/>
<text text-anchor="start" x="23" y="-348.5" font-family="Helvetica,sans-Serif" font-size="10.00" fill="#000000">org.cobbzilla.util.collection.mappy.</text>
<text text-anchor="middle" x="98.5" y="-337.5" font-family="Helvetica,sans-Serif" font-size="10.00" fill="#000000">Mappy&lt; K, V, TreeSet&lt; V &gt; &gt;</text>
<polyline fill="none" stroke="#000000" points="15,-330.5 182,-330.5 "/>
<text text-anchor="start" x="23" y="-318.5" font-family="Helvetica,sans-Serif" font-size="10.00" fill="#000000">&#45; map</text>
<text text-anchor="start" x="23" y="-307.5" font-family="Helvetica,sans-Serif" font-size="10.00" fill="#000000">&#45; valueClass</text>
<polyline fill="none" stroke="#000000" points="15,-300.5 182,-300.5 "/>
<text text-anchor="start" x="23" y="-288.5" font-family="Helvetica,sans-Serif" font-size="10.00" fill="#000000">+ Mappy()</text>
<text text-anchor="start" x="23" y="-277.5" font-family="Helvetica,sans-Serif" font-size="10.00" fill="#000000">+ Mappy()</text>
<text text-anchor="start" x="23" y="-266.5" font-family="Helvetica,sans-Serif" font-size="10.00" fill="#000000">+ Mappy()</text>
<text text-anchor="start" x="23" y="-255.5" font-family="Helvetica,sans-Serif" font-size="10.00" fill="#000000">+ size()</text>
<text text-anchor="start" x="23" y="-244.5" font-family="Helvetica,sans-Serif" font-size="10.00" fill="#000000">+ totalSize()</text>
<text text-anchor="start" x="23" y="-233.5" font-family="Helvetica,sans-Serif" font-size="10.00" fill="#000000">+ isEmpty()</text>
<text text-anchor="start" x="23" y="-222.5" font-family="Helvetica,sans-Serif" font-size="10.00" fill="#000000">+ containsKey()</text>
<text text-anchor="start" x="23" y="-211.5" font-family="Helvetica,sans-Serif" font-size="10.00" fill="#000000">+ containsValue()</text>
<text text-anchor="start" x="23" y="-200.5" font-family="Helvetica,sans-Serif" font-size="10.00" fill="#000000">+ get()</text>
<text text-anchor="start" x="23" y="-189.5" font-family="Helvetica,sans-Serif" font-size="10.00" fill="#000000">+ getAll()</text>
<text text-anchor="start" x="23" y="-178.5" font-family="Helvetica,sans-Serif" font-size="10.00" fill="#000000">and 16 more...</text>
<text text-anchor="start" x="23" y="-167.5" font-family="Helvetica,sans-Serif" font-size="10.00" fill="#000000"># newCollection()</text>
<text text-anchor="start" x="23" y="-156.5" font-family="Helvetica,sans-Serif" font-size="10.00" fill="#000000"># firstInCollection()</text>
<text text-anchor="start" x="23" y="-145.5" font-family="Helvetica,sans-Serif" font-size="10.00" fill="#000000">&#45; initValueClass()</text>
</a>
</g>
</g>
<!-- Node5&#45;&gt;Node4 -->
<g id="edge1" class="edge">
<title>Node5&#45;&gt;Node4</title>
<path fill="none" stroke="#191970" d="M146.4031,-128.8552C151.7556,-115.3747 156.9296,-102.3439 161.5337,-90.7485"/>
<polygon fill="none" stroke="#191970" points="143.1112,-127.6618 142.6737,-138.2476 149.6171,-130.2451 143.1112,-127.6618"/>
</g>
<!-- Node6 -->
<g id="node3" class="node">
<title>Node6</title>
<g id="a_node3"><a xlink:href="../../d0/d68/classorg_1_1cobbzilla_1_1util_1_1collection_1_1mappy_1_1Mappy.html" target="_top" xlink:title="Mappy is a map of keys to collections of values. ">
<polygon fill="none" stroke="#000000" points="0,-408.5 0,-619.5 197,-619.5 197,-408.5 0,-408.5"/>
<text text-anchor="start" x="8" y="-607.5" font-family="Helvetica,sans-Serif" font-size="10.00" fill="#000000">org.cobbzilla.util.collection.mappy.</text>
<text text-anchor="middle" x="98.5" y="-596.5" font-family="Helvetica,sans-Serif" font-size="10.00" fill="#000000">Mappy&lt; K, V, C extends Collection&lt; V &gt;</text>
<polyline fill="none" stroke="#000000" points="0,-589.5 197,-589.5 "/>
<text text-anchor="start" x="8" y="-577.5" font-family="Helvetica,sans-Serif" font-size="10.00" fill="#000000">&#45; valueClass</text>
<polyline fill="none" stroke="#000000" points="0,-570.5 197,-570.5 "/>
<text text-anchor="start" x="8" y="-558.5" font-family="Helvetica,sans-Serif" font-size="10.00" fill="#000000">+ Mappy()</text>
<text text-anchor="start" x="8" y="-547.5" font-family="Helvetica,sans-Serif" font-size="10.00" fill="#000000">+ Mappy()</text>
<text text-anchor="start" x="8" y="-536.5" font-family="Helvetica,sans-Serif" font-size="10.00" fill="#000000">+ Mappy()</text>
<text text-anchor="start" x="8" y="-525.5" font-family="Helvetica,sans-Serif" font-size="10.00" fill="#000000">+ size()</text>
<text text-anchor="start" x="8" y="-514.5" font-family="Helvetica,sans-Serif" font-size="10.00" fill="#000000">+ totalSize()</text>
<text text-anchor="start" x="8" y="-503.5" font-family="Helvetica,sans-Serif" font-size="10.00" fill="#000000">+ isEmpty()</text>
<text text-anchor="start" x="8" y="-492.5" font-family="Helvetica,sans-Serif" font-size="10.00" fill="#000000">+ containsKey()</text>
<text text-anchor="start" x="8" y="-481.5" font-family="Helvetica,sans-Serif" font-size="10.00" fill="#000000">+ containsValue()</text>
<text text-anchor="start" x="8" y="-470.5" font-family="Helvetica,sans-Serif" font-size="10.00" fill="#000000">+ get()</text>
<text text-anchor="start" x="8" y="-459.5" font-family="Helvetica,sans-Serif" font-size="10.00" fill="#000000">+ getAll()</text>
<text text-anchor="start" x="8" y="-448.5" font-family="Helvetica,sans-Serif" font-size="10.00" fill="#000000">and 16 more...</text>
<text text-anchor="start" x="8" y="-437.5" font-family="Helvetica,sans-Serif" font-size="10.00" fill="#000000"># newCollection()</text>
<text text-anchor="start" x="8" y="-426.5" font-family="Helvetica,sans-Serif" font-size="10.00" fill="#000000"># firstInCollection()</text>
<text text-anchor="start" x="8" y="-415.5" font-family="Helvetica,sans-Serif" font-size="10.00" fill="#000000">&#45; initValueClass()</text>
</a>
</g>
</g>
<!-- Node6&#45;&gt;Node5 -->
<g id="edge2" class="edge">
<title>Node6&#45;&gt;Node5</title>
<path fill="none" stroke="#ffa500" d="M98.5,-397.9645C98.5,-385.5681 98.5,-372.9788 98.5,-360.6411"/>
<polygon fill="#ffa500" stroke="#ffa500" points="95.0001,-398.3223 98.5,-408.3223 102.0001,-398.3223 95.0001,-398.3223"/>
<text text-anchor="middle" x="151.5" y="-382" font-family="Helvetica,sans-Serif" font-size="10.00" fill="#000000"> &lt; K, V, TreeSet&lt; V &gt; &gt;</text>
</g>
<!-- Node7 -->
<g id="node4" class="node">
<title>Node7</title>
<polygon fill="none" stroke="#bfbfbf" points="24.5,-673 24.5,-730 140.5,-730 140.5,-673 24.5,-673"/>
<text text-anchor="middle" x="82.5" y="-718" font-family="Helvetica,sans-Serif" font-size="10.00" fill="#000000">java::util::Map&lt; K, V &gt;</text>
<polyline fill="none" stroke="#bfbfbf" points="24.5,-711 140.5,-711 "/>
<text text-anchor="middle" x="82.5" y="-699" font-family="Helvetica,sans-Serif" font-size="10.00" fill="#000000"> </text>
<polyline fill="none" stroke="#bfbfbf" points="24.5,-692 140.5,-692 "/>
<text text-anchor="middle" x="82.5" y="-680" font-family="Helvetica,sans-Serif" font-size="10.00" fill="#000000"> </text>
</g>
<!-- Node7&#45;&gt;Node6 -->
<g id="edge3" class="edge">
<title>Node7&#45;&gt;Node6</title>
<path fill="none" stroke="#191970" d="M85.8355,-662.412C86.9253,-649.6412 88.1925,-634.7905 89.4959,-619.5166"/>
<polygon fill="none" stroke="#191970" points="82.3279,-662.3526 84.9649,-672.614 89.3026,-662.9479 82.3279,-662.3526"/>
</g>
<!-- Node8 -->
<g id="node5" class="node">
<title>Node8</title>
<polygon fill="none" stroke="#bfbfbf" points="159,-667.5 159,-735.5 272,-735.5 272,-667.5 159,-667.5"/>
<text text-anchor="start" x="167" y="-723.5" font-family="Helvetica,sans-Serif" font-size="10.00" fill="#000000">ConcurrentHashMap&lt;</text>
<text text-anchor="middle" x="215.5" y="-712.5" font-family="Helvetica,sans-Serif" font-size="10.00" fill="#000000"> K, C &gt;</text>
<polyline fill="none" stroke="#bfbfbf" points="159,-705.5 272,-705.5 "/>
<text text-anchor="middle" x="215.5" y="-693.5" font-family="Helvetica,sans-Serif" font-size="10.00" fill="#000000"> </text>
<polyline fill="none" stroke="#bfbfbf" points="159,-686.5 272,-686.5 "/>
<text text-anchor="middle" x="215.5" y="-674.5" font-family="Helvetica,sans-Serif" font-size="10.00" fill="#000000"> </text>
</g>
<!-- Node8&#45;&gt;Node6 -->
<g id="edge4" class="edge">
<title>Node8&#45;&gt;Node6</title>
<path fill="none" stroke="#404040" d="M194.0404,-667.1096C187.2063,-656.1575 179.2264,-643.3693 170.8443,-629.9363"/>
<polygon fill="none" stroke="#404040" points="170.721,-629.7387 164.1511,-626.766 164.3683,-619.5581 170.9381,-622.5308 170.721,-629.7387"/>
<text text-anchor="middle" x="194" y="-641" font-family="Helvetica,sans-Serif" font-size="10.00" fill="#000000"> &#45;map</text>
</g>
<!-- Node9 -->
<g id="node6" class="node">
<title>Node9</title>
<polygon fill="none" stroke="#bfbfbf" points="162,-783.5 162,-840.5 269,-840.5 269,-783.5 162,-783.5"/>
<text text-anchor="middle" x="215.5" y="-828.5" font-family="Helvetica,sans-Serif" font-size="10.00" fill="#000000">ConcurrentHashMap</text>
<polyline fill="none" stroke="#bfbfbf" points="162,-821.5 269,-821.5 "/>
<text text-anchor="middle" x="215.5" y="-809.5" font-family="Helvetica,sans-Serif" font-size="10.00" fill="#000000"> </text>
<polyline fill="none" stroke="#bfbfbf" points="162,-802.5 269,-802.5 "/>
<text text-anchor="middle" x="215.5" y="-790.5" font-family="Helvetica,sans-Serif" font-size="10.00" fill="#000000"> </text>
</g>
<!-- Node9&#45;&gt;Node8 -->
<g id="edge5" class="edge">
<title>Node9&#45;&gt;Node8</title>
<path fill="none" stroke="#ffa500" d="M215.5,-772.9162C215.5,-760.7375 215.5,-747.4096 215.5,-735.6001"/>
<polygon fill="#ffa500" stroke="#ffa500" points="212.0001,-773.2559 215.5,-783.2559 219.0001,-773.2559 212.0001,-773.2559"/>
<text text-anchor="middle" x="236.5" y="-757" font-family="Helvetica,sans-Serif" font-size="10.00" fill="#000000"> &lt; K, C &gt;</text>
</g>
<!-- Node10 -->
<g id="node7" class="node">
<title>Node10</title>
<polygon fill="none" stroke="#bfbfbf" points="200,-221 200,-278 325,-278 325,-221 200,-221"/>
<text text-anchor="middle" x="262.5" y="-266" font-family="Helvetica,sans-Serif" font-size="10.00" fill="#000000">Comparator&lt;? super V &gt;</text>
<polyline fill="none" stroke="#bfbfbf" points="200,-259 325,-259 "/>
<text text-anchor="middle" x="262.5" y="-247" font-family="Helvetica,sans-Serif" font-size="10.00" fill="#000000"> </text>
<polyline fill="none" stroke="#bfbfbf" points="200,-240 325,-240 "/>
<text text-anchor="middle" x="262.5" y="-228" font-family="Helvetica,sans-Serif" font-size="10.00" fill="#000000"> </text>
</g>
<!-- Node10&#45;&gt;Node4 -->
<g id="edge6" class="edge">
<title>Node10&#45;&gt;Node4</title>
<path fill="none" stroke="#404040" d="M250.7842,-220.7045C238.3113,-190.0483 218.2519,-140.7457 202.5849,-102.2387"/>
<polygon fill="none" stroke="#404040" points="202.3994,-101.7827 196.4331,-97.7325 197.8769,-90.6674 203.8432,-94.7176 202.3994,-101.7827"/>
<text text-anchor="middle" x="237" y="-112" font-family="Helvetica,sans-Serif" font-size="10.00" fill="#000000"> &#45;comparator</text>
</g>
<!-- Node11 -->
<g id="node8" class="node">
<title>Node11</title>
<polygon fill="none" stroke="#bfbfbf" points="228.5,-485.5 228.5,-542.5 296.5,-542.5 296.5,-485.5 228.5,-485.5"/>
<text text-anchor="middle" x="262.5" y="-530.5" font-family="Helvetica,sans-Serif" font-size="10.00" fill="#000000">Comparator</text>
<polyline fill="none" stroke="#bfbfbf" points="228.5,-523.5 296.5,-523.5 "/>
<text text-anchor="middle" x="262.5" y="-511.5" font-family="Helvetica,sans-Serif" font-size="10.00" fill="#000000"> </text>
<polyline fill="none" stroke="#bfbfbf" points="228.5,-504.5 296.5,-504.5 "/>
<text text-anchor="middle" x="262.5" y="-492.5" font-family="Helvetica,sans-Serif" font-size="10.00" fill="#000000"> </text>
</g>
<!-- Node11&#45;&gt;Node10 -->
<g id="edge7" class="edge">
<title>Node11&#45;&gt;Node10</title>
<path fill="none" stroke="#ffa500" d="M262.5,-475.3114C262.5,-421.7216 262.5,-326.1166 262.5,-278.3393"/>
<polygon fill="#ffa500" stroke="#ffa500" points="259.0001,-475.4425 262.5,-485.4426 266.0001,-475.4426 259.0001,-475.4425"/>
<text text-anchor="middle" x="293" y="-382" font-family="Helvetica,sans-Serif" font-size="10.00" fill="#000000"> &lt;? super V &gt;</text>
</g>
</g>
</svg>
        <g id="navigator" transform="translate(0 0)" fill="#404254">
                <rect fill="#f2f5e9" fill-opacity="0.5" stroke="#606060" stroke-width=".5" x="0" y="0" width="60" height="60"/>
                <use id="zoomplus" xlink:href="#zoomPlus" x="17" y="9" onmousedown="handleZoom(evt,'in')"/>
                <use id="zoomminus" xlink:href="#zoomMin" x="42" y="9" onmousedown="handleZoom(evt,'out')"/>
                <use id="reset" xlink:href="#resetDef" x="30" y="36" onmousedown="handleReset()"/>
                <g id="arrowUp" xlink:href="#dirArrow" transform="translate(30 24)" onmousedown="handlePan(0,-1)">
                  <use xlink:href="#rim" fill="#404040">
                        <set attributeName="fill" to="#808080" begin="arrowUp.mouseover" end="arrowUp.mouseout"/>
                  </use>
                  <path fill="none" stroke="white" stroke-width="1.5" d="M0,-3.0v7 M-2.5,-0.5L0,-3.0L2.5,-0.5"/>
                </g>
                <g id="arrowRight" xlink:href="#dirArrow" transform="rotate(90) translate(36 -43)" onmousedown="handlePan(1,0)">
                  <use xlink:href="#rim" fill="#404040">
                        <set attributeName="fill" to="#808080" begin="arrowRight.mouseover" end="arrowRight.mouseout"/>
                  </use>
                  <path fill="none" stroke="white" stroke-width="1.5" d="M0,-3.0v7 M-2.5,-0.5L0,-3.0L2.5,-0.5"/>
                </g>
                <g id="arrowDown" xlink:href="#dirArrow" transform="rotate(180) translate(-30 -48)" onmousedown="handlePan(0,1)">
                  <use xlink:href="#rim" fill="#404040">
                        <set attributeName="fill" to="#808080" begin="arrowDown.mouseover" end="arrowDown.mouseout"/>
                  </use>
                  <path fill="none" stroke="white" stroke-width="1.5" d="M0,-3.0v7 M-2.5,-0.5L0,-3.0L2.5,-0.5"/>
                </g>
                <g id="arrowLeft" xlink:href="#dirArrow" transform="rotate(270) translate(-36 17)" onmousedown="handlePan(-1,0)">
                  <use xlink:href="#rim" fill="#404040">
                        <set attributeName="fill" to="#808080" begin="arrowLeft.mouseover" end="arrowLeft.mouseout"/>
                  </use>
                  <path fill="none" stroke="white" stroke-width="1.5" d="M0,-3.0v7 M-2.5,-0.5L0,-3.0L2.5,-0.5"/>
                </g>
        </g>
        <svg viewBox="0 0 15 15" width="100%" height="30px" preserveAspectRatio="xMaxYMin meet">
         <g id="arrow_out" transform="scale(0.3 0.3)">
          <a xlink:href="classorg_1_1cobbzilla_1_1util_1_1collection_1_1mappy_1_1MappySortedSet__coll__graph_org.svg" target="_base">
           <rect id="button" ry="5" rx="5" y="6" x="6" height="38" width="38"
                fill="#f2f5e9" fill-opacity="0.5" stroke="#606060" stroke-width="1.0"/>
           <path id="arrow"
             d="M 11.500037,31.436501 C 11.940474,20.09759 22.043105,11.32322 32.158766,21.979434 L 37.068811,17.246167 C 37.068811,17.246167 37.088388,32 37.088388,32 L 22.160133,31.978069 C 22.160133,31.978069 26.997745,27.140456 26.997745,27.140456 C 18.528582,18.264221 13.291696,25.230495 11.500037,31.436501 z"
             style="fill:#404040;"/>
          </a>
         </g>
        </svg>
</svg>
