<?xml version="1.0" encoding="UTF-8" standalone="no"?>
<!DOCTYPE svg PUBLIC "-//W3C//DTD SVG 1.1//EN"
 "http://www.w3.org/Graphics/SVG/1.1/DTD/svg11.dtd">
<!-- Generated by graphviz version 2.40.1 (20161225.0304)
 -->
<!-- Title: org.cobbzilla.util.system.CommandShell.tempScript Pages: 1 -->
<svg width="608pt" height="124pt"
 viewBox="0.00 0.00 608.00 124.00" xmlns="http://www.w3.org/2000/svg" xmlns:xlink="http://www.w3.org/1999/xlink">
<g id="graph0" class="graph" transform="scale(1 1) rotate(0) translate(4 120)">
<title>org.cobbzilla.util.system.CommandShell.tempScript</title>
<!-- Node0 -->
<g id="node1" class="node">
<title>Node0</title>
<polygon fill="#bfbfbf" stroke="#000000" points="0,-57.5 0,-87.5 134,-87.5 134,-57.5 0,-57.5"/>
<text text-anchor="start" x="8" y="-75.5" font-family="Helvetica,sans-Serif" font-size="10.00" fill="#000000">org.cobbzilla.util.system.</text>
<text text-anchor="middle" x="67" y="-64.5" font-family="Helvetica,sans-Serif" font-size="10.00" fill="#000000">CommandShell.tempScript</text>
</g>
<!-- Node1 -->
<g id="node2" class="node">
<title>Node1</title>
<g id="a_node2"><a xlink:href="../../df/ded/classorg_1_1cobbzilla_1_1util_1_1system_1_1CommandShell_a77e7c5166c74b5d1a2bda55aad578903.html#a77e7c5166c74b5d1a2bda55aad578903" target="_top" xlink:title="org.cobbzilla.util.system.\lCommandShell.chmod">
<polygon fill="none" stroke="#000000" points="170,-82.5 170,-112.5 295,-112.5 295,-82.5 170,-82.5"/>
<text text-anchor="start" x="178" y="-100.5" font-family="Helvetica,sans-Serif" font-size="10.00" fill="#000000">org.cobbzilla.util.system.</text>
<text text-anchor="middle" x="232.5" y="-89.5" font-family="Helvetica,sans-Serif" font-size="10.00" fill="#000000">CommandShell.chmod</text>
</a>
</g>
</g>
<!-- Node0&#45;&gt;Node1 -->
<g id="edge1" class="edge">
<title>Node0&#45;&gt;Node1</title>
<path fill="none" stroke="#191970" d="M134.3152,-82.6685C142.7414,-83.9413 151.3889,-85.2476 159.8914,-86.5319"/>
<polygon fill="#191970" stroke="#191970" points="159.3734,-89.9933 169.7841,-88.0263 160.419,-83.0718 159.3734,-89.9933"/>
</g>
<!-- Node2 -->
<g id="node3" class="node">
<title>Node2</title>
<g id="a_node3"><a xlink:href="../../df/dac/classorg_1_1cobbzilla_1_1util_1_1io_1_1FileUtil_a7bd7d6a564be7a6169daa8eb5b33e9b7.html#a7bd7d6a564be7a6169daa8eb5b33e9b7" target="_top" xlink:title="org.cobbzilla.util.io.File\lUtil.toFile">
<polygon fill="none" stroke="#000000" points="174.5,-33.5 174.5,-63.5 290.5,-63.5 290.5,-33.5 174.5,-33.5"/>
<text text-anchor="start" x="182.5" y="-51.5" font-family="Helvetica,sans-Serif" font-size="10.00" fill="#000000">org.cobbzilla.util.io.File</text>
<text text-anchor="middle" x="232.5" y="-40.5" font-family="Helvetica,sans-Serif" font-size="10.00" fill="#000000">Util.toFile</text>
</a>
</g>
</g>
<!-- Node0&#45;&gt;Node2 -->
<g id="edge2" class="edge">
<title>Node0&#45;&gt;Node2</title>
<path fill="none" stroke="#191970" d="M134.3152,-62.7383C144.1453,-61.3128 154.2766,-59.8436 164.1275,-58.415"/>
<polygon fill="#191970" stroke="#191970" points="164.8731,-61.8436 174.2673,-56.9446 163.8685,-54.9161 164.8731,-61.8436"/>
</g>
<!-- Node3 -->
<g id="node4" class="node">
<title>Node3</title>
<g id="a_node4"><a xlink:href="../../df/dac/classorg_1_1cobbzilla_1_1util_1_1io_1_1FileUtil_a10f84be9d8fbe17dad8bf91e5e68b699.html#a10f84be9d8fbe17dad8bf91e5e68b699" target="_top" xlink:title="org.cobbzilla.util.io.File\lUtil.getDefaultTempDir">
<polygon fill="none" stroke="#000000" points="331,-67.5 331,-97.5 448,-97.5 448,-67.5 331,-67.5"/>
<text text-anchor="start" x="339" y="-85.5" font-family="Helvetica,sans-Serif" font-size="10.00" fill="#000000">org.cobbzilla.util.io.File</text>
<text text-anchor="middle" x="389.5" y="-74.5" font-family="Helvetica,sans-Serif" font-size="10.00" fill="#000000">Util.getDefaultTempDir</text>
</a>
</g>
</g>
<!-- Node2&#45;&gt;Node3 -->
<g id="edge3" class="edge">
<title>Node2&#45;&gt;Node3</title>
<path fill="none" stroke="#191970" d="M290.5149,-61.0637C300.4074,-63.2061 310.7665,-65.4494 320.9018,-67.6443"/>
<polygon fill="#191970" stroke="#191970" points="320.4227,-71.1216 330.937,-69.8176 321.9043,-64.2802 320.4227,-71.1216"/>
</g>
<!-- Node5 -->
<g id="node6" class="node">
<title>Node5</title>
<g id="a_node6"><a xlink:href="../../df/dac/classorg_1_1cobbzilla_1_1util_1_1io_1_1FileUtil_a43aac0bb53ce0212efc2e57cb1024722.html#a43aac0bb53ce0212efc2e57cb1024722" target="_top" xlink:title="org.cobbzilla.util.io.File\lUtil.temp">
<polygon fill="none" stroke="#000000" points="331.5,-.5 331.5,-30.5 447.5,-30.5 447.5,-.5 331.5,-.5"/>
<text text-anchor="start" x="339.5" y="-18.5" font-family="Helvetica,sans-Serif" font-size="10.00" fill="#000000">org.cobbzilla.util.io.File</text>
<text text-anchor="middle" x="389.5" y="-7.5" font-family="Helvetica,sans-Serif" font-size="10.00" fill="#000000">Util.temp</text>
</a>
</g>
</g>
<!-- Node2&#45;&gt;Node5 -->
<g id="edge6" class="edge">
<title>Node2&#45;&gt;Node5</title>
<path fill="none" stroke="#191970" d="M290.5149,-36.3058C300.6428,-34.177 311.2598,-31.9454 321.6251,-29.7667"/>
<polygon fill="#191970" stroke="#191970" points="322.3954,-33.1814 331.4615,-27.6992 320.9554,-26.3311 322.3954,-33.1814"/>
</g>
<!-- Node4 -->
<g id="node5" class="node">
<title>Node4</title>
<g id="a_node5"><a xlink:href="../../df/dac/classorg_1_1cobbzilla_1_1util_1_1io_1_1FileUtil_a53028c20e45f972c04978ac736e5c39c.html#a53028c20e45f972c04978ac736e5c39c" target="_top" xlink:title="org.cobbzilla.util.io.File\lUtil.mkdirOrDie">
<polygon fill="none" stroke="#000000" points="484,-67.5 484,-97.5 600,-97.5 600,-67.5 484,-67.5"/>
<text text-anchor="start" x="492" y="-85.5" font-family="Helvetica,sans-Serif" font-size="10.00" fill="#000000">org.cobbzilla.util.io.File</text>
<text text-anchor="middle" x="542" y="-74.5" font-family="Helvetica,sans-Serif" font-size="10.00" fill="#000000">Util.mkdirOrDie</text>
</a>
</g>
</g>
<!-- Node3&#45;&gt;Node4 -->
<g id="edge4" class="edge">
<title>Node3&#45;&gt;Node4</title>
<path fill="none" stroke="#191970" d="M448.0243,-82.5C456.4764,-82.5 465.2361,-82.5 473.856,-82.5"/>
<polygon fill="#191970" stroke="#191970" points="473.8841,-86.0001 483.884,-82.5 473.884,-79.0001 473.8841,-86.0001"/>
</g>
<!-- Node4&#45;&gt;Node4 -->
<g id="edge5" class="edge">
<title>Node4&#45;&gt;Node4</title>
<path fill="none" stroke="#191970" d="M515.5109,-97.659C509.1234,-107.0566 517.9531,-116 542,-116 556.6536,-116 565.6564,-112.679 569.0086,-107.9579"/>
<polygon fill="#191970" stroke="#191970" points="572.4885,-107.47 568.4891,-97.659 565.4974,-107.8226 572.4885,-107.47"/>
</g>
<!-- Node5&#45;&gt;Node5 -->
<g id="edge7" class="edge">
<title>Node5&#45;&gt;Node5</title>
<path fill="none" stroke="#191970" d="M363.0109,-30.659C356.6234,-40.0566 365.4531,-49 389.5,-49 404.1536,-49 413.1564,-45.679 416.5086,-40.9579"/>
<polygon fill="#191970" stroke="#191970" points="419.9885,-40.47 415.9891,-30.659 412.9974,-40.8226 419.9885,-40.47"/>
</g>
</g>
</svg>
