<?xml version="1.0" encoding="UTF-8" standalone="no"?>
<!DOCTYPE svg PUBLIC "-//W3C//DTD SVG 1.1//EN"
 "http://www.w3.org/Graphics/SVG/1.1/DTD/svg11.dtd">
<!-- Generated by graphviz version 2.40.1 (20161225.0304)
 -->
<!-- Title: org.cobbzilla.util.system.CommandShell.exec Pages: 1 -->
<svg width="342pt" height="88pt"
 viewBox="0.00 0.00 342.00 88.00" xmlns="http://www.w3.org/2000/svg" xmlns:xlink="http://www.w3.org/1999/xlink">
<g id="graph0" class="graph" transform="scale(1 1) rotate(0) translate(4 84)">
<title>org.cobbzilla.util.system.CommandShell.exec</title>
<!-- Node0 -->
<g id="node1" class="node">
<title>Node0</title>
<polygon fill="#bfbfbf" stroke="#000000" points="0,-24.5 0,-54.5 125,-54.5 125,-24.5 0,-24.5"/>
<text text-anchor="start" x="8" y="-42.5" font-family="Helvetica,sans-Serif" font-size="10.00" fill="#000000">org.cobbzilla.util.system.</text>
<text text-anchor="middle" x="62.5" y="-31.5" font-family="Helvetica,sans-Serif" font-size="10.00" fill="#000000">CommandShell.exec</text>
</g>
<!-- Node1 -->
<g id="node2" class="node">
<title>Node1</title>
<g id="a_node2"><a xlink:href="../../dc/df7/classorg_1_1cobbzilla_1_1util_1_1system_1_1MultiCommandResult_ac2690cae3ffa9e178ad4dd87b0c37b69.html#ac2690cae3ffa9e178ad4dd87b0c37b69" target="_top" xlink:title="org.cobbzilla.util.system.\lMultiCommandResult.add">
<polygon fill="none" stroke="#000000" points="182.5,-49.5 182.5,-79.5 312.5,-79.5 312.5,-49.5 182.5,-49.5"/>
<text text-anchor="start" x="190.5" y="-67.5" font-family="Helvetica,sans-Serif" font-size="10.00" fill="#000000">org.cobbzilla.util.system.</text>
<text text-anchor="middle" x="247.5" y="-56.5" font-family="Helvetica,sans-Serif" font-size="10.00" fill="#000000">MultiCommandResult.add</text>
</a>
</g>
</g>
<!-- Node0&#45;&gt;Node1 -->
<g id="edge1" class="edge">
<title>Node0&#45;&gt;Node1</title>
<path fill="none" stroke="#191970" d="M125.1326,-47.9639C140.2665,-50.009 156.5954,-52.2156 172.242,-54.33"/>
<polygon fill="#191970" stroke="#191970" points="172.0273,-57.8327 182.406,-55.7035 172.9648,-50.8958 172.0273,-57.8327"/>
</g>
<!-- Node2 -->
<g id="node3" class="node">
<title>Node2</title>
<g id="a_node3"><a xlink:href="../../dc/df7/classorg_1_1cobbzilla_1_1util_1_1system_1_1MultiCommandResult_adeb9e510ac60b715f83f640a65248af2.html#adeb9e510ac60b715f83f640a65248af2" target="_top" xlink:title="org.cobbzilla.util.system.\lMultiCommandResult.hasException">
<polygon fill="none" stroke="#000000" points="161,-.5 161,-30.5 334,-30.5 334,-.5 161,-.5"/>
<text text-anchor="start" x="169" y="-18.5" font-family="Helvetica,sans-Serif" font-size="10.00" fill="#000000">org.cobbzilla.util.system.</text>
<text text-anchor="middle" x="247.5" y="-7.5" font-family="Helvetica,sans-Serif" font-size="10.00" fill="#000000">MultiCommandResult.hasException</text>
</a>
</g>
</g>
<!-- Node0&#45;&gt;Node2 -->
<g id="edge2" class="edge">
<title>Node0&#45;&gt;Node2</title>
<path fill="none" stroke="#191970" d="M125.1326,-31.3747C133.5103,-30.2879 142.2542,-29.1535 151.0458,-28.013"/>
<polygon fill="#191970" stroke="#191970" points="151.5086,-31.4824 160.9752,-26.7248 150.6079,-24.5405 151.5086,-31.4824"/>
</g>
</g>
</svg>
