<?xml version="1.0" encoding="UTF-8" standalone="no"?>
<!DOCTYPE svg PUBLIC "-//W3C//DTD SVG 1.1//EN"
 "http://www.w3.org/Graphics/SVG/1.1/DTD/svg11.dtd">
<!-- Generated by graphviz version 2.40.1 (20161225.0304)
 -->
<!-- Title: org.cobbzilla.util.system.CommandShell.chown Pages: 1 -->
<svg width="294pt" height="57pt"
 viewBox="0.00 0.00 294.00 57.00" xmlns="http://www.w3.org/2000/svg" xmlns:xlink="http://www.w3.org/1999/xlink">
<g id="graph0" class="graph" transform="scale(1 1) rotate(0) translate(4 53)">
<title>org.cobbzilla.util.system.CommandShell.chown</title>
<!-- Node0 -->
<g id="node1" class="node">
<title>Node0</title>
<polygon fill="#bfbfbf" stroke="#000000" points="0,-.5 0,-30.5 125,-30.5 125,-.5 0,-.5"/>
<text text-anchor="start" x="8" y="-18.5" font-family="Helvetica,sans-Serif" font-size="10.00" fill="#000000">org.cobbzilla.util.system.</text>
<text text-anchor="middle" x="62.5" y="-7.5" font-family="Helvetica,sans-Serif" font-size="10.00" fill="#000000">CommandShell.chown</text>
</g>
<!-- Node1 -->
<g id="node2" class="node">
<title>Node1</title>
<g id="a_node2"><a xlink:href="../../df/ded/classorg_1_1cobbzilla_1_1util_1_1system_1_1CommandShell_ad182680d8f6f09b8b1f6d0530dc69130.html#ad182680d8f6f09b8b1f6d0530dc69130" target="_top" xlink:title="org.cobbzilla.util.system.\lCommandShell.chown">
<polygon fill="none" stroke="#000000" points="161,-.5 161,-30.5 286,-30.5 286,-.5 161,-.5"/>
<text text-anchor="start" x="169" y="-18.5" font-family="Helvetica,sans-Serif" font-size="10.00" fill="#000000">org.cobbzilla.util.system.</text>
<text text-anchor="middle" x="223.5" y="-7.5" font-family="Helvetica,sans-Serif" font-size="10.00" fill="#000000">CommandShell.chown</text>
</a>
</g>
</g>
<!-- Node0&#45;&gt;Node1 -->
<g id="edge1" class="edge">
<title>Node0&#45;&gt;Node1</title>
<path fill="none" stroke="#191970" d="M125.2078,-15.5C133.6481,-15.5 142.3631,-15.5 150.9559,-15.5"/>
<polygon fill="#191970" stroke="#191970" points="150.9634,-19.0001 160.9633,-15.5 150.9633,-12.0001 150.9634,-19.0001"/>
</g>
<!-- Node1&#45;&gt;Node1 -->
<g id="edge2" class="edge">
<title>Node1&#45;&gt;Node1</title>
<path fill="none" stroke="#191970" d="M195.6167,-30.659C188.8931,-40.0566 198.1875,-49 223.5,-49 238.9248,-49 248.4015,-45.679 251.9301,-40.9579"/>
<polygon fill="#191970" stroke="#191970" points="255.4086,-40.4594 251.3833,-30.659 248.4185,-40.8305 255.4086,-40.4594"/>
</g>
</g>
</svg>
