<?xml version="1.0" encoding="UTF-8" standalone="no"?>
<!DOCTYPE svg PUBLIC "-//W3C//DTD SVG 1.1//EN"
 "http://www.w3.org/Graphics/SVG/1.1/DTD/svg11.dtd">
<!-- Generated by graphviz version 2.40.1 (20161225.0304)
 -->
<!-- Title: org.cobbzilla.util.system.CommandShell.scriptResult Pages: 1 -->
<svg width="831pt" height="231pt"
 viewBox="0.00 0.00 831.00 231.00" xmlns="http://www.w3.org/2000/svg" xmlns:xlink="http://www.w3.org/1999/xlink">
<g id="graph0" class="graph" transform="scale(1 1) rotate(0) translate(4 227)">
<title>org.cobbzilla.util.system.CommandShell.scriptResult</title>
<!-- Node0 -->
<g id="node1" class="node">
<title>Node0</title>
<polygon fill="#bfbfbf" stroke="#000000" points="0,-106.5 0,-136.5 139,-136.5 139,-106.5 0,-106.5"/>
<text text-anchor="start" x="8" y="-124.5" font-family="Helvetica,sans-Serif" font-size="10.00" fill="#000000">org.cobbzilla.util.system.</text>
<text text-anchor="middle" x="69.5" y="-113.5" font-family="Helvetica,sans-Serif" font-size="10.00" fill="#000000">CommandShell.scriptResult</text>
</g>
<!-- Node1 -->
<g id="node2" class="node">
<title>Node1</title>
<g id="a_node2"><a xlink:href="../../df/ded/classorg_1_1cobbzilla_1_1util_1_1system_1_1CommandShell_a3bf65e24823a4dbf204b9af10afd9d07.html#a3bf65e24823a4dbf204b9af10afd9d07" target="_top" xlink:title="org.cobbzilla.util.system.\lCommandShell.exec">
<polygon fill="none" stroke="#000000" points="179.5,-155.5 179.5,-185.5 304.5,-185.5 304.5,-155.5 179.5,-155.5"/>
<text text-anchor="start" x="187.5" y="-173.5" font-family="Helvetica,sans-Serif" font-size="10.00" fill="#000000">org.cobbzilla.util.system.</text>
<text text-anchor="middle" x="242" y="-162.5" font-family="Helvetica,sans-Serif" font-size="10.00" fill="#000000">CommandShell.exec</text>
</a>
</g>
</g>
<!-- Node0&#45;&gt;Node1 -->
<g id="edge1" class="edge">
<title>Node0&#45;&gt;Node1</title>
<path fill="none" stroke="#191970" d="M122.6632,-136.6014C140.5366,-141.6785 160.6442,-147.3902 179.1878,-152.6577"/>
<polygon fill="#191970" stroke="#191970" points="178.4365,-156.0827 189.0123,-155.4484 180.3493,-149.3491 178.4365,-156.0827"/>
</g>
<!-- Node4 -->
<g id="node5" class="node">
<title>Node4</title>
<g id="a_node5"><a xlink:href="../../dc/d74/classorg_1_1cobbzilla_1_1util_1_1system_1_1Command_a417a6df054019990c1b482f4ccfb6f0e.html#a417a6df054019990c1b482f4ccfb6f0e" target="_top" xlink:title="org.cobbzilla.util.system.\lCommand.setExitValues">
<polygon fill="none" stroke="#000000" points="179.5,-106.5 179.5,-136.5 304.5,-136.5 304.5,-106.5 179.5,-106.5"/>
<text text-anchor="start" x="187.5" y="-124.5" font-family="Helvetica,sans-Serif" font-size="10.00" fill="#000000">org.cobbzilla.util.system.</text>
<text text-anchor="middle" x="242" y="-113.5" font-family="Helvetica,sans-Serif" font-size="10.00" fill="#000000">Command.setExitValues</text>
</a>
</g>
</g>
<!-- Node0&#45;&gt;Node4 -->
<g id="edge4" class="edge">
<title>Node0&#45;&gt;Node4</title>
<path fill="none" stroke="#191970" d="M139.1651,-121.5C149.0198,-121.5 159.1746,-121.5 169.0885,-121.5"/>
<polygon fill="#191970" stroke="#191970" points="169.31,-125.0001 179.31,-121.5 169.3099,-118.0001 169.31,-125.0001"/>
</g>
<!-- Node5 -->
<g id="node6" class="node">
<title>Node5</title>
<g id="a_node6"><a xlink:href="../../df/ded/classorg_1_1cobbzilla_1_1util_1_1system_1_1CommandShell_a983ac912091b21ff646aa15081109a67.html#a983ac912091b21ff646aa15081109a67" target="_top" xlink:title="org.cobbzilla.util.system.\lCommandShell.tempScript">
<polygon fill="none" stroke="#000000" points="175,-57.5 175,-87.5 309,-87.5 309,-57.5 175,-57.5"/>
<text text-anchor="start" x="183" y="-75.5" font-family="Helvetica,sans-Serif" font-size="10.00" fill="#000000">org.cobbzilla.util.system.</text>
<text text-anchor="middle" x="242" y="-64.5" font-family="Helvetica,sans-Serif" font-size="10.00" fill="#000000">CommandShell.tempScript</text>
</a>
</g>
</g>
<!-- Node0&#45;&gt;Node5 -->
<g id="edge5" class="edge">
<title>Node0&#45;&gt;Node5</title>
<path fill="none" stroke="#191970" d="M122.6632,-106.3986C140.5366,-101.3215 160.6442,-95.6098 179.1878,-90.3423"/>
<polygon fill="#191970" stroke="#191970" points="180.3493,-93.6509 189.0123,-87.5516 178.4365,-86.9173 180.3493,-93.6509"/>
</g>
<!-- Node2 -->
<g id="node3" class="node">
<title>Node2</title>
<g id="a_node3"><a xlink:href="../../dc/df7/classorg_1_1cobbzilla_1_1util_1_1system_1_1MultiCommandResult_ac2690cae3ffa9e178ad4dd87b0c37b69.html#ac2690cae3ffa9e178ad4dd87b0c37b69" target="_top" xlink:title="org.cobbzilla.util.system.\lMultiCommandResult.add">
<polygon fill="none" stroke="#000000" points="366.5,-192.5 366.5,-222.5 496.5,-222.5 496.5,-192.5 366.5,-192.5"/>
<text text-anchor="start" x="374.5" y="-210.5" font-family="Helvetica,sans-Serif" font-size="10.00" fill="#000000">org.cobbzilla.util.system.</text>
<text text-anchor="middle" x="431.5" y="-199.5" font-family="Helvetica,sans-Serif" font-size="10.00" fill="#000000">MultiCommandResult.add</text>
</a>
</g>
</g>
<!-- Node1&#45;&gt;Node2 -->
<g id="edge2" class="edge">
<title>Node1&#45;&gt;Node2</title>
<path fill="none" stroke="#191970" d="M304.5746,-182.7177C321.1566,-185.9554 339.2306,-189.4843 356.4036,-192.8374"/>
<polygon fill="#191970" stroke="#191970" points="355.9072,-196.3065 366.3926,-194.7877 357.2487,-189.4362 355.9072,-196.3065"/>
</g>
<!-- Node3 -->
<g id="node4" class="node">
<title>Node3</title>
<g id="a_node4"><a xlink:href="../../dc/df7/classorg_1_1cobbzilla_1_1util_1_1system_1_1MultiCommandResult_adeb9e510ac60b715f83f640a65248af2.html#adeb9e510ac60b715f83f640a65248af2" target="_top" xlink:title="org.cobbzilla.util.system.\lMultiCommandResult.hasException">
<polygon fill="none" stroke="#000000" points="345,-143.5 345,-173.5 518,-173.5 518,-143.5 345,-143.5"/>
<text text-anchor="start" x="353" y="-161.5" font-family="Helvetica,sans-Serif" font-size="10.00" fill="#000000">org.cobbzilla.util.system.</text>
<text text-anchor="middle" x="431.5" y="-150.5" font-family="Helvetica,sans-Serif" font-size="10.00" fill="#000000">MultiCommandResult.hasException</text>
</a>
</g>
</g>
<!-- Node1&#45;&gt;Node3 -->
<g id="edge3" class="edge">
<title>Node1&#45;&gt;Node3</title>
<path fill="none" stroke="#191970" d="M304.5746,-166.5375C314.2772,-165.9231 324.4906,-165.2763 334.7355,-164.6276"/>
<polygon fill="#191970" stroke="#191970" points="335.2142,-168.1044 344.973,-163.9793 334.7718,-161.1183 335.2142,-168.1044"/>
</g>
<!-- Node6 -->
<g id="node7" class="node">
<title>Node6</title>
<g id="a_node7"><a xlink:href="../../df/ded/classorg_1_1cobbzilla_1_1util_1_1system_1_1CommandShell_a77e7c5166c74b5d1a2bda55aad578903.html#a77e7c5166c74b5d1a2bda55aad578903" target="_top" xlink:title="org.cobbzilla.util.system.\lCommandShell.chmod">
<polygon fill="none" stroke="#000000" points="369,-82.5 369,-112.5 494,-112.5 494,-82.5 369,-82.5"/>
<text text-anchor="start" x="377" y="-100.5" font-family="Helvetica,sans-Serif" font-size="10.00" fill="#000000">org.cobbzilla.util.system.</text>
<text text-anchor="middle" x="431.5" y="-89.5" font-family="Helvetica,sans-Serif" font-size="10.00" fill="#000000">CommandShell.chmod</text>
</a>
</g>
</g>
<!-- Node5&#45;&gt;Node6 -->
<g id="edge6" class="edge">
<title>Node5&#45;&gt;Node6</title>
<path fill="none" stroke="#191970" d="M309.0773,-81.3492C325.2127,-83.4779 342.5217,-85.7614 358.896,-87.9216"/>
<polygon fill="#191970" stroke="#191970" points="358.5797,-91.4102 368.9516,-89.2482 359.4953,-84.4703 358.5797,-91.4102"/>
</g>
<!-- Node7 -->
<g id="node8" class="node">
<title>Node7</title>
<g id="a_node8"><a xlink:href="../../df/dac/classorg_1_1cobbzilla_1_1util_1_1io_1_1FileUtil_a7bd7d6a564be7a6169daa8eb5b33e9b7.html#a7bd7d6a564be7a6169daa8eb5b33e9b7" target="_top" xlink:title="org.cobbzilla.util.io.File\lUtil.toFile">
<polygon fill="none" stroke="#000000" points="373.5,-33.5 373.5,-63.5 489.5,-63.5 489.5,-33.5 373.5,-33.5"/>
<text text-anchor="start" x="381.5" y="-51.5" font-family="Helvetica,sans-Serif" font-size="10.00" fill="#000000">org.cobbzilla.util.io.File</text>
<text text-anchor="middle" x="431.5" y="-40.5" font-family="Helvetica,sans-Serif" font-size="10.00" fill="#000000">Util.toFile</text>
</a>
</g>
</g>
<!-- Node5&#45;&gt;Node7 -->
<g id="edge7" class="edge">
<title>Node5&#45;&gt;Node7</title>
<path fill="none" stroke="#191970" d="M309.0773,-64.0047C326.6109,-61.7841 345.5304,-59.388 363.1304,-57.1589"/>
<polygon fill="#191970" stroke="#191970" points="363.8391,-60.5972 373.3201,-55.8684 362.9596,-53.6527 363.8391,-60.5972"/>
</g>
<!-- Node8 -->
<g id="node9" class="node">
<title>Node8</title>
<g id="a_node9"><a xlink:href="../../df/dac/classorg_1_1cobbzilla_1_1util_1_1io_1_1FileUtil_a10f84be9d8fbe17dad8bf91e5e68b699.html#a10f84be9d8fbe17dad8bf91e5e68b699" target="_top" xlink:title="org.cobbzilla.util.io.File\lUtil.getDefaultTempDir">
<polygon fill="none" stroke="#000000" points="554,-67.5 554,-97.5 671,-97.5 671,-67.5 554,-67.5"/>
<text text-anchor="start" x="562" y="-85.5" font-family="Helvetica,sans-Serif" font-size="10.00" fill="#000000">org.cobbzilla.util.io.File</text>
<text text-anchor="middle" x="612.5" y="-74.5" font-family="Helvetica,sans-Serif" font-size="10.00" fill="#000000">Util.getDefaultTempDir</text>
</a>
</g>
</g>
<!-- Node7&#45;&gt;Node8 -->
<g id="edge8" class="edge">
<title>Node7&#45;&gt;Node8</title>
<path fill="none" stroke="#191970" d="M489.7658,-59.445C506.8709,-62.6581 525.7431,-66.2031 543.4523,-69.5297"/>
<polygon fill="#191970" stroke="#191970" points="543.2485,-73.0526 553.7228,-71.459 544.5408,-66.1729 543.2485,-73.0526"/>
</g>
<!-- Node10 -->
<g id="node11" class="node">
<title>Node10</title>
<g id="a_node11"><a xlink:href="../../df/dac/classorg_1_1cobbzilla_1_1util_1_1io_1_1FileUtil_a43aac0bb53ce0212efc2e57cb1024722.html#a43aac0bb53ce0212efc2e57cb1024722" target="_top" xlink:title="org.cobbzilla.util.io.File\lUtil.temp">
<polygon fill="none" stroke="#000000" points="554.5,-.5 554.5,-30.5 670.5,-30.5 670.5,-.5 554.5,-.5"/>
<text text-anchor="start" x="562.5" y="-18.5" font-family="Helvetica,sans-Serif" font-size="10.00" fill="#000000">org.cobbzilla.util.io.File</text>
<text text-anchor="middle" x="612.5" y="-7.5" font-family="Helvetica,sans-Serif" font-size="10.00" fill="#000000">Util.temp</text>
</a>
</g>
</g>
<!-- Node7&#45;&gt;Node10 -->
<g id="edge11" class="edge">
<title>Node7&#45;&gt;Node10</title>
<path fill="none" stroke="#191970" d="M489.7658,-37.8769C507.2051,-34.6974 526.4813,-31.183 544.4892,-27.8998"/>
<polygon fill="#191970" stroke="#191970" points="545.1333,-31.3401 554.3433,-26.1032 543.8777,-24.4536 545.1333,-31.3401"/>
</g>
<!-- Node9 -->
<g id="node10" class="node">
<title>Node9</title>
<g id="a_node10"><a xlink:href="../../df/dac/classorg_1_1cobbzilla_1_1util_1_1io_1_1FileUtil_a53028c20e45f972c04978ac736e5c39c.html#a53028c20e45f972c04978ac736e5c39c" target="_top" xlink:title="org.cobbzilla.util.io.File\lUtil.mkdirOrDie">
<polygon fill="none" stroke="#000000" points="707,-67.5 707,-97.5 823,-97.5 823,-67.5 707,-67.5"/>
<text text-anchor="start" x="715" y="-85.5" font-family="Helvetica,sans-Serif" font-size="10.00" fill="#000000">org.cobbzilla.util.io.File</text>
<text text-anchor="middle" x="765" y="-74.5" font-family="Helvetica,sans-Serif" font-size="10.00" fill="#000000">Util.mkdirOrDie</text>
</a>
</g>
</g>
<!-- Node8&#45;&gt;Node9 -->
<g id="edge9" class="edge">
<title>Node8&#45;&gt;Node9</title>
<path fill="none" stroke="#191970" d="M671.0243,-82.5C679.4764,-82.5 688.2361,-82.5 696.856,-82.5"/>
<polygon fill="#191970" stroke="#191970" points="696.8841,-86.0001 706.884,-82.5 696.884,-79.0001 696.8841,-86.0001"/>
</g>
<!-- Node9&#45;&gt;Node9 -->
<g id="edge10" class="edge">
<title>Node9&#45;&gt;Node9</title>
<path fill="none" stroke="#191970" d="M738.5109,-97.659C732.1234,-107.0566 740.9531,-116 765,-116 779.6536,-116 788.6564,-112.679 792.0086,-107.9579"/>
<polygon fill="#191970" stroke="#191970" points="795.4885,-107.47 791.4891,-97.659 788.4974,-107.8226 795.4885,-107.47"/>
</g>
<!-- Node10&#45;&gt;Node10 -->
<g id="edge12" class="edge">
<title>Node10&#45;&gt;Node10</title>
<path fill="none" stroke="#191970" d="M586.0109,-30.659C579.6234,-40.0566 588.4531,-49 612.5,-49 627.1536,-49 636.1564,-45.679 639.5086,-40.9579"/>
<polygon fill="#191970" stroke="#191970" points="642.9885,-40.47 638.9891,-30.659 635.9974,-40.8226 642.9885,-40.47"/>
</g>
</g>
</svg>
