<?xml version="1.0" encoding="UTF-8" standalone="no"?>
<!DOCTYPE svg PUBLIC "-//W3C//DTD SVG 1.1//EN"
 "http://www.w3.org/Graphics/SVG/1.1/DTD/svg11.dtd">
<!-- Generated by graphviz version 2.40.1 (20161225.0304)
 -->
<!-- Title: org.cobbzilla.util.system.CommandShell.exec Pages: 1 -->
<svg width="705pt" height="382pt"
 viewBox="0.00 0.00 705.00 382.00" xmlns="http://www.w3.org/2000/svg" xmlns:xlink="http://www.w3.org/1999/xlink">
<g id="graph0" class="graph" transform="scale(1 1) rotate(0) translate(4 378)">
<title>org.cobbzilla.util.system.CommandShell.exec</title>
<!-- Node3 -->
<g id="node1" class="node">
<title>Node3</title>
<polygon fill="#bfbfbf" stroke="#000000" points="0,-196.5 0,-226.5 125,-226.5 125,-196.5 0,-196.5"/>
<text text-anchor="start" x="8" y="-214.5" font-family="Helvetica,sans-Serif" font-size="10.00" fill="#000000">org.cobbzilla.util.system.</text>
<text text-anchor="middle" x="62.5" y="-203.5" font-family="Helvetica,sans-Serif" font-size="10.00" fill="#000000">CommandShell.exec</text>
</g>
<!-- Node4 -->
<g id="node2" class="node">
<title>Node4</title>
<g id="a_node2"><a xlink:href="../../df/ded/classorg_1_1cobbzilla_1_1util_1_1system_1_1CommandShell_a856a8d31d6d8b934c5f5a1ae84f5f6ff.html#a856a8d31d6d8b934c5f5a1ae84f5f6ff" target="_top" xlink:title="org.cobbzilla.util.system.\lCommandShell.exec">
<polygon fill="none" stroke="#000000" points="197,-343.5 197,-373.5 322,-373.5 322,-343.5 197,-343.5"/>
<text text-anchor="start" x="205" y="-361.5" font-family="Helvetica,sans-Serif" font-size="10.00" fill="#000000">org.cobbzilla.util.system.</text>
<text text-anchor="middle" x="259.5" y="-350.5" font-family="Helvetica,sans-Serif" font-size="10.00" fill="#000000">CommandShell.exec</text>
</a>
</g>
</g>
<!-- Node3&#45;&gt;Node4 -->
<g id="edge1" class="edge">
<title>Node3&#45;&gt;Node4</title>
<path fill="none" stroke="#191970" d="M75.1558,-235.453C91.2808,-263.5749 121.822,-309.5383 161,-334.5 171.762,-341.3568 184.3284,-346.2548 196.814,-349.7535"/>
<polygon fill="#191970" stroke="#191970" points="78.1768,-233.6839 70.2484,-226.656 72.0637,-237.0942 78.1768,-233.6839"/>
</g>
<!-- Node5 -->
<g id="node3" class="node">
<title>Node5</title>
<g id="a_node3"><a xlink:href="../../d9/d6b/classorg_1_1cobbzilla_1_1util_1_1http_1_1HttpUtil_a39f8ec957b9281635ac9a6f3d6df3c96.html#a39f8ec957b9281635ac9a6f3d6df3c96" target="_top" xlink:title="org.cobbzilla.util.http.\lHttpUtil.isOk">
<polygon fill="none" stroke="#000000" points="204.5,-294.5 204.5,-324.5 314.5,-324.5 314.5,-294.5 204.5,-294.5"/>
<text text-anchor="start" x="212.5" y="-312.5" font-family="Helvetica,sans-Serif" font-size="10.00" fill="#000000">org.cobbzilla.util.http.</text>
<text text-anchor="middle" x="259.5" y="-301.5" font-family="Helvetica,sans-Serif" font-size="10.00" fill="#000000">HttpUtil.isOk</text>
</a>
</g>
</g>
<!-- Node3&#45;&gt;Node5 -->
<g id="edge2" class="edge">
<title>Node3&#45;&gt;Node5</title>
<path fill="none" stroke="#191970" d="M85.7441,-233.3108C104.6529,-249.9222 132.7445,-272.1407 161,-285.5 174.5253,-291.8948 189.928,-296.6889 204.4704,-300.2403"/>
<polygon fill="#191970" stroke="#191970" points="88.0122,-230.6436 78.2288,-226.5771 83.341,-235.857 88.0122,-230.6436"/>
</g>
<!-- Node6 -->
<g id="node4" class="node">
<title>Node6</title>
<g id="a_node4"><a xlink:href="../../d7/deb/classorg_1_1cobbzilla_1_1util_1_1io_1_1main_1_1FilesystemWatcherMain_a4c5e96bac952e792820ecb038f4c234d.html#a4c5e96bac952e792820ecb038f4c234d" target="_top" xlink:title="org.cobbzilla.util.io.main.\lFilesystemWatcherMain.run">
<polygon fill="none" stroke="#000000" points="190,-245.5 190,-275.5 329,-275.5 329,-245.5 190,-245.5"/>
<text text-anchor="start" x="198" y="-263.5" font-family="Helvetica,sans-Serif" font-size="10.00" fill="#000000">org.cobbzilla.util.io.main.</text>
<text text-anchor="middle" x="259.5" y="-252.5" font-family="Helvetica,sans-Serif" font-size="10.00" fill="#000000">FilesystemWatcherMain.run</text>
</a>
</g>
</g>
<!-- Node3&#45;&gt;Node6 -->
<g id="edge3" class="edge">
<title>Node3&#45;&gt;Node6</title>
<path fill="none" stroke="#191970" d="M131.2329,-229.0343C141.2153,-231.5549 151.3693,-234.1046 161,-236.5 172.7856,-239.4314 185.3738,-242.5261 197.4757,-245.4831"/>
<polygon fill="#191970" stroke="#191970" points="131.8864,-225.5894 121.3334,-226.5302 130.1698,-232.3757 131.8864,-225.5894"/>
</g>
<!-- Node7 -->
<g id="node5" class="node">
<title>Node7</title>
<g id="a_node5"><a xlink:href="../../df/ded/classorg_1_1cobbzilla_1_1util_1_1system_1_1CommandShell_a2b1b58f19b56a6d27b9b48f601443aec.html#a2b1b58f19b56a6d27b9b48f601443aec" target="_top" xlink:title="org.cobbzilla.util.system.\lCommandShell.scriptResult">
<polygon fill="none" stroke="#000000" points="190,-196.5 190,-226.5 329,-226.5 329,-196.5 190,-196.5"/>
<text text-anchor="start" x="198" y="-214.5" font-family="Helvetica,sans-Serif" font-size="10.00" fill="#000000">org.cobbzilla.util.system.</text>
<text text-anchor="middle" x="259.5" y="-203.5" font-family="Helvetica,sans-Serif" font-size="10.00" fill="#000000">CommandShell.scriptResult</text>
</a>
</g>
</g>
<!-- Node3&#45;&gt;Node7 -->
<g id="edge4" class="edge">
<title>Node3&#45;&gt;Node7</title>
<path fill="none" stroke="#191970" d="M135.4275,-211.5C153.231,-211.5 172.232,-211.5 189.8768,-211.5"/>
<polygon fill="#191970" stroke="#191970" points="135.1027,-208.0001 125.1027,-211.5 135.1027,-215.0001 135.1027,-208.0001"/>
</g>
<!-- Node8 -->
<g id="node6" class="node">
<title>Node8</title>
<g id="a_node6"><a xlink:href="../../d9/dae/classorg_1_1cobbzilla_1_1util_1_1system_1_1CommandShellTest_ac7b087beaa2b7f6c815558964deb15fb.html#ac7b087beaa2b7f6c815558964deb15fb" target="_top" xlink:title="org.cobbzilla.util.system.\lCommandShellTest.testProgressFilter">
<polygon fill="none" stroke="#000000" points="168,-147.5 168,-177.5 351,-177.5 351,-147.5 168,-147.5"/>
<text text-anchor="start" x="176" y="-165.5" font-family="Helvetica,sans-Serif" font-size="10.00" fill="#000000">org.cobbzilla.util.system.</text>
<text text-anchor="middle" x="259.5" y="-154.5" font-family="Helvetica,sans-Serif" font-size="10.00" fill="#000000">CommandShellTest.testProgressFilter</text>
</a>
</g>
</g>
<!-- Node3&#45;&gt;Node8 -->
<g id="edge5" class="edge">
<title>Node3&#45;&gt;Node8</title>
<path fill="none" stroke="#191970" d="M132.7638,-194.0232C154.4769,-188.6225 178.1894,-182.7245 199.169,-177.5062"/>
<polygon fill="#191970" stroke="#191970" points="131.8048,-190.655 122.9453,-196.4654 133.4945,-197.4481 131.8048,-190.655"/>
</g>
<!-- Node9 -->
<g id="node7" class="node">
<title>Node9</title>
<g id="a_node7"><a xlink:href="../../d9/dae/classorg_1_1cobbzilla_1_1util_1_1system_1_1CommandShellTest_a3356ca7b357cc90e8708c236d0b8fc5f.html#a3356ca7b357cc90e8708c236d0b8fc5f" target="_top" xlink:title="org.cobbzilla.util.system.\lCommandShellTest.testStreamCallbacks">
<polygon fill="none" stroke="#000000" points="161,-98.5 161,-128.5 358,-128.5 358,-98.5 161,-98.5"/>
<text text-anchor="start" x="169" y="-116.5" font-family="Helvetica,sans-Serif" font-size="10.00" fill="#000000">org.cobbzilla.util.system.</text>
<text text-anchor="middle" x="259.5" y="-105.5" font-family="Helvetica,sans-Serif" font-size="10.00" fill="#000000">CommandShellTest.testStreamCallbacks</text>
</a>
</g>
</g>
<!-- Node3&#45;&gt;Node9 -->
<g id="edge6" class="edge">
<title>Node3&#45;&gt;Node9</title>
<path fill="none" stroke="#191970" d="M86.1726,-189.7774C105.1247,-173.4711 133.0701,-151.7573 161,-138.5 169.0489,-134.6794 177.7553,-131.3934 186.5466,-128.5796"/>
<polygon fill="#191970" stroke="#191970" points="83.838,-187.1695 78.6272,-196.3943 88.4534,-192.4324 83.838,-187.1695"/>
</g>
<!-- Node10 -->
<g id="node8" class="node">
<title>Node10</title>
<g id="a_node8"><a xlink:href="../../df/ded/classorg_1_1cobbzilla_1_1util_1_1system_1_1CommandShell_aaacae4bcb630654d95f303d3adedfd35.html#aaacae4bcb630654d95f303d3adedfd35" target="_top" xlink:title="org.cobbzilla.util.system.\lCommandShell.toString">
<polygon fill="none" stroke="#000000" points="197,-49.5 197,-79.5 322,-79.5 322,-49.5 197,-49.5"/>
<text text-anchor="start" x="205" y="-67.5" font-family="Helvetica,sans-Serif" font-size="10.00" fill="#000000">org.cobbzilla.util.system.</text>
<text text-anchor="middle" x="259.5" y="-56.5" font-family="Helvetica,sans-Serif" font-size="10.00" fill="#000000">CommandShell.toString</text>
</a>
</g>
</g>
<!-- Node3&#45;&gt;Node10 -->
<g id="edge7" class="edge">
<title>Node3&#45;&gt;Node10</title>
<path fill="none" stroke="#191970" d="M75.5039,-187.3625C91.7823,-159.4939 122.291,-114.3149 161,-89.5 171.7684,-82.5968 184.3376,-77.5985 196.8239,-73.9799"/>
<polygon fill="#191970" stroke="#191970" points="72.4386,-185.6726 70.5376,-196.0955 78.5235,-189.133 72.4386,-185.6726"/>
</g>
<!-- Node11 -->
<g id="node9" class="node">
<title>Node11</title>
<g id="a_node9"><a xlink:href="../../df/ded/classorg_1_1cobbzilla_1_1util_1_1system_1_1CommandShell_a85457af0db04ef61c9911dde95b30f01.html#a85457af0db04ef61c9911dde95b30f01" target="_top" xlink:title="org.cobbzilla.util.system.\lCommandShell.domainname">
<polygon fill="none" stroke="#000000" points="394,-98.5 394,-128.5 536,-128.5 536,-98.5 394,-98.5"/>
<text text-anchor="start" x="402" y="-116.5" font-family="Helvetica,sans-Serif" font-size="10.00" fill="#000000">org.cobbzilla.util.system.</text>
<text text-anchor="middle" x="465" y="-105.5" font-family="Helvetica,sans-Serif" font-size="10.00" fill="#000000">CommandShell.domainname</text>
</a>
</g>
</g>
<!-- Node10&#45;&gt;Node11 -->
<g id="edge8" class="edge">
<title>Node10&#45;&gt;Node11</title>
<path fill="none" stroke="#191970" d="M332.2158,-81.8386C354.9666,-87.2633 379.8713,-93.2017 401.9029,-98.4549"/>
<polygon fill="#191970" stroke="#191970" points="332.8125,-78.3828 322.2734,-79.4679 331.1889,-85.1919 332.8125,-78.3828"/>
</g>
<!-- Node12 -->
<g id="node10" class="node">
<title>Node12</title>
<g id="a_node10"><a xlink:href="../../df/ded/classorg_1_1cobbzilla_1_1util_1_1system_1_1CommandShell_a4951a272fb6d4964d2d8c4d86670f6c6.html#a4951a272fb6d4964d2d8c4d86670f6c6" target="_top" xlink:title="org.cobbzilla.util.system.\lCommandShell.hostname">
<polygon fill="none" stroke="#000000" points="400.5,-49.5 400.5,-79.5 529.5,-79.5 529.5,-49.5 400.5,-49.5"/>
<text text-anchor="start" x="408.5" y="-67.5" font-family="Helvetica,sans-Serif" font-size="10.00" fill="#000000">org.cobbzilla.util.system.</text>
<text text-anchor="middle" x="465" y="-56.5" font-family="Helvetica,sans-Serif" font-size="10.00" fill="#000000">CommandShell.hostname</text>
</a>
</g>
</g>
<!-- Node10&#45;&gt;Node12 -->
<g id="edge9" class="edge">
<title>Node10&#45;&gt;Node12</title>
<path fill="none" stroke="#191970" d="M332.3273,-64.5C354.5597,-64.5 378.8397,-64.5 400.4807,-64.5"/>
<polygon fill="#191970" stroke="#191970" points="332.2734,-61.0001 322.2734,-64.5 332.2734,-68.0001 332.2734,-61.0001"/>
</g>
<!-- Node13 -->
<g id="node11" class="node">
<title>Node13</title>
<g id="a_node11"><a xlink:href="../../df/ded/classorg_1_1cobbzilla_1_1util_1_1system_1_1CommandShell_a5d319c1d133f079fc42e036687cba998.html#a5d319c1d133f079fc42e036687cba998" target="_top" xlink:title="org.cobbzilla.util.system.\lCommandShell.whoami">
<polygon fill="none" stroke="#000000" points="402.5,-.5 402.5,-30.5 527.5,-30.5 527.5,-.5 402.5,-.5"/>
<text text-anchor="start" x="410.5" y="-18.5" font-family="Helvetica,sans-Serif" font-size="10.00" fill="#000000">org.cobbzilla.util.system.</text>
<text text-anchor="middle" x="465" y="-7.5" font-family="Helvetica,sans-Serif" font-size="10.00" fill="#000000">CommandShell.whoami</text>
</a>
</g>
</g>
<!-- Node10&#45;&gt;Node13 -->
<g id="edge10" class="edge">
<title>Node10&#45;&gt;Node13</title>
<path fill="none" stroke="#191970" d="M332.263,-47.1502C355.1231,-41.6994 380.1537,-35.731 402.2572,-30.4606"/>
<polygon fill="#191970" stroke="#191970" points="331.1889,-43.8081 322.2734,-49.5321 332.8125,-50.6172 331.1889,-43.8081"/>
</g>
<!-- Node14 -->
<g id="node12" class="node">
<title>Node14</title>
<g id="a_node12"><a xlink:href="../../df/ded/classorg_1_1cobbzilla_1_1util_1_1system_1_1CommandShell_a327beb579a560b71b752bf9f1cbba1c3.html#a327beb579a560b71b752bf9f1cbba1c3" target="_top" xlink:title="org.cobbzilla.util.system.\lCommandShell.isRoot">
<polygon fill="none" stroke="#000000" points="572,-.5 572,-30.5 697,-30.5 697,-.5 572,-.5"/>
<text text-anchor="start" x="580" y="-18.5" font-family="Helvetica,sans-Serif" font-size="10.00" fill="#000000">org.cobbzilla.util.system.</text>
<text text-anchor="middle" x="634.5" y="-7.5" font-family="Helvetica,sans-Serif" font-size="10.00" fill="#000000">CommandShell.isRoot</text>
</a>
</g>
</g>
<!-- Node13&#45;&gt;Node14 -->
<g id="edge11" class="edge">
<title>Node13&#45;&gt;Node14</title>
<path fill="none" stroke="#191970" d="M537.907,-15.5C549.2067,-15.5 560.7929,-15.5 571.8407,-15.5"/>
<polygon fill="#191970" stroke="#191970" points="537.634,-12.0001 527.634,-15.5 537.6339,-19.0001 537.634,-12.0001"/>
</g>
</g>
</svg>
