<?xml version="1.0" encoding="UTF-8" standalone="no"?>
<!DOCTYPE svg PUBLIC "-//W3C//DTD SVG 1.1//EN"
 "http://www.w3.org/Graphics/SVG/1.1/DTD/svg11.dtd">
<!-- Generated by graphviz version 2.40.1 (20161225.0304)
 -->
<!-- Title: org.cobbzilla.util.system.CommandShell.scriptResult Pages: 1 -->
<svg width="322pt" height="57pt"
 viewBox="0.00 0.00 322.00 57.00" xmlns="http://www.w3.org/2000/svg" xmlns:xlink="http://www.w3.org/1999/xlink">
<g id="graph0" class="graph" transform="scale(1 1) rotate(0) translate(4 53)">
<title>org.cobbzilla.util.system.CommandShell.scriptResult</title>
<!-- Node0 -->
<g id="node1" class="node">
<title>Node0</title>
<polygon fill="#bfbfbf" stroke="#000000" points="0,-.5 0,-30.5 139,-30.5 139,-.5 0,-.5"/>
<text text-anchor="start" x="8" y="-18.5" font-family="Helvetica,sans-Serif" font-size="10.00" fill="#000000">org.cobbzilla.util.system.</text>
<text text-anchor="middle" x="69.5" y="-7.5" font-family="Helvetica,sans-Serif" font-size="10.00" fill="#000000">CommandShell.scriptResult</text>
</g>
<!-- Node1 -->
<g id="node2" class="node">
<title>Node1</title>
<g id="a_node2"><a xlink:href="../../df/ded/classorg_1_1cobbzilla_1_1util_1_1system_1_1CommandShell_a3b1486c6142283a40a578ec94981d168.html#a3b1486c6142283a40a578ec94981d168" target="_top" xlink:title="org.cobbzilla.util.system.\lCommandShell.scriptResult">
<polygon fill="none" stroke="#000000" points="175,-.5 175,-30.5 314,-30.5 314,-.5 175,-.5"/>
<text text-anchor="start" x="183" y="-18.5" font-family="Helvetica,sans-Serif" font-size="10.00" fill="#000000">org.cobbzilla.util.system.</text>
<text text-anchor="middle" x="244.5" y="-7.5" font-family="Helvetica,sans-Serif" font-size="10.00" fill="#000000">CommandShell.scriptResult</text>
</a>
</g>
</g>
<!-- Node0&#45;&gt;Node1 -->
<g id="edge1" class="edge">
<title>Node0&#45;&gt;Node1</title>
<path fill="none" stroke="#191970" d="M139.1675,-15.5C147.5024,-15.5 156.0628,-15.5 164.5285,-15.5"/>
<polygon fill="#191970" stroke="#191970" points="164.7864,-19.0001 174.7863,-15.5 164.7863,-12.0001 164.7864,-19.0001"/>
</g>
<!-- Node1&#45;&gt;Node1 -->
<g id="edge2" class="edge">
<title>Node1&#45;&gt;Node1</title>
<path fill="none" stroke="#191970" d="M214.1769,-30.659C206.865,-40.0566 216.9727,-49 244.5,-49 261.2745,-49 271.5804,-45.679 275.4177,-40.9579"/>
<polygon fill="#191970" stroke="#191970" points="278.8938,-40.4406 274.8231,-30.659 271.9054,-40.8441 278.8938,-40.4406"/>
</g>
</g>
</svg>
