<?xml version="1.0" encoding="UTF-8" standalone="no"?>
<!DOCTYPE svg PUBLIC "-//W3C//DTD SVG 1.1//EN"
 "http://www.w3.org/Graphics/SVG/1.1/DTD/svg11.dtd">
<!-- Generated by graphviz version 2.40.1 (20161225.0304)
 -->
<!-- Title: org.cobbzilla.util.system.CommandShell.hostname Pages: 1 -->
<svg width="668pt" height="88pt"
 viewBox="0.00 0.00 668.00 88.00" xmlns="http://www.w3.org/2000/svg" xmlns:xlink="http://www.w3.org/1999/xlink">
<g id="graph0" class="graph" transform="scale(1 1) rotate(0) translate(4 84)">
<title>org.cobbzilla.util.system.CommandShell.hostname</title>
<!-- Node0 -->
<g id="node1" class="node">
<title>Node0</title>
<polygon fill="#bfbfbf" stroke="#000000" points="0,-24.5 0,-54.5 129,-54.5 129,-24.5 0,-24.5"/>
<text text-anchor="start" x="8" y="-42.5" font-family="Helvetica,sans-Serif" font-size="10.00" fill="#000000">org.cobbzilla.util.system.</text>
<text text-anchor="middle" x="64.5" y="-31.5" font-family="Helvetica,sans-Serif" font-size="10.00" fill="#000000">CommandShell.hostname</text>
</g>
<!-- Node1 -->
<g id="node2" class="node">
<title>Node1</title>
<g id="a_node2"><a xlink:href="../../df/ded/classorg_1_1cobbzilla_1_1util_1_1system_1_1CommandShell_aaacae4bcb630654d95f303d3adedfd35.html#aaacae4bcb630654d95f303d3adedfd35" target="_top" xlink:title="org.cobbzilla.util.system.\lCommandShell.toString">
<polygon fill="none" stroke="#000000" points="165,-24.5 165,-54.5 290,-54.5 290,-24.5 165,-24.5"/>
<text text-anchor="start" x="173" y="-42.5" font-family="Helvetica,sans-Serif" font-size="10.00" fill="#000000">org.cobbzilla.util.system.</text>
<text text-anchor="middle" x="227.5" y="-31.5" font-family="Helvetica,sans-Serif" font-size="10.00" fill="#000000">CommandShell.toString</text>
</a>
</g>
</g>
<!-- Node0&#45;&gt;Node1 -->
<g id="edge1" class="edge">
<title>Node0&#45;&gt;Node1</title>
<path fill="none" stroke="#191970" d="M129.3903,-39.5C137.7217,-39.5 146.295,-39.5 154.7416,-39.5"/>
<polygon fill="#191970" stroke="#191970" points="154.9571,-43.0001 164.957,-39.5 154.957,-36.0001 154.9571,-43.0001"/>
</g>
<!-- Node2 -->
<g id="node3" class="node">
<title>Node2</title>
<g id="a_node3"><a xlink:href="../../df/ded/classorg_1_1cobbzilla_1_1util_1_1system_1_1CommandShell_a3bf65e24823a4dbf204b9af10afd9d07.html#a3bf65e24823a4dbf204b9af10afd9d07" target="_top" xlink:title="org.cobbzilla.util.system.\lCommandShell.exec">
<polygon fill="none" stroke="#000000" points="326,-24.5 326,-54.5 451,-54.5 451,-24.5 326,-24.5"/>
<text text-anchor="start" x="334" y="-42.5" font-family="Helvetica,sans-Serif" font-size="10.00" fill="#000000">org.cobbzilla.util.system.</text>
<text text-anchor="middle" x="388.5" y="-31.5" font-family="Helvetica,sans-Serif" font-size="10.00" fill="#000000">CommandShell.exec</text>
</a>
</g>
</g>
<!-- Node1&#45;&gt;Node2 -->
<g id="edge2" class="edge">
<title>Node1&#45;&gt;Node2</title>
<path fill="none" stroke="#191970" d="M290.2078,-39.5C298.6481,-39.5 307.3631,-39.5 315.9559,-39.5"/>
<polygon fill="#191970" stroke="#191970" points="315.9634,-43.0001 325.9633,-39.5 315.9633,-36.0001 315.9634,-43.0001"/>
</g>
<!-- Node3 -->
<g id="node4" class="node">
<title>Node3</title>
<g id="a_node4"><a xlink:href="../../dc/df7/classorg_1_1cobbzilla_1_1util_1_1system_1_1MultiCommandResult_ac2690cae3ffa9e178ad4dd87b0c37b69.html#ac2690cae3ffa9e178ad4dd87b0c37b69" target="_top" xlink:title="org.cobbzilla.util.system.\lMultiCommandResult.add">
<polygon fill="none" stroke="#000000" points="508.5,-49.5 508.5,-79.5 638.5,-79.5 638.5,-49.5 508.5,-49.5"/>
<text text-anchor="start" x="516.5" y="-67.5" font-family="Helvetica,sans-Serif" font-size="10.00" fill="#000000">org.cobbzilla.util.system.</text>
<text text-anchor="middle" x="573.5" y="-56.5" font-family="Helvetica,sans-Serif" font-size="10.00" fill="#000000">MultiCommandResult.add</text>
</a>
</g>
</g>
<!-- Node2&#45;&gt;Node3 -->
<g id="edge3" class="edge">
<title>Node2&#45;&gt;Node3</title>
<path fill="none" stroke="#191970" d="M451.1326,-47.9639C466.2665,-50.009 482.5954,-52.2156 498.242,-54.33"/>
<polygon fill="#191970" stroke="#191970" points="498.0273,-57.8327 508.406,-55.7035 498.9648,-50.8958 498.0273,-57.8327"/>
</g>
<!-- Node4 -->
<g id="node5" class="node">
<title>Node4</title>
<g id="a_node5"><a xlink:href="../../dc/df7/classorg_1_1cobbzilla_1_1util_1_1system_1_1MultiCommandResult_adeb9e510ac60b715f83f640a65248af2.html#adeb9e510ac60b715f83f640a65248af2" target="_top" xlink:title="org.cobbzilla.util.system.\lMultiCommandResult.hasException">
<polygon fill="none" stroke="#000000" points="487,-.5 487,-30.5 660,-30.5 660,-.5 487,-.5"/>
<text text-anchor="start" x="495" y="-18.5" font-family="Helvetica,sans-Serif" font-size="10.00" fill="#000000">org.cobbzilla.util.system.</text>
<text text-anchor="middle" x="573.5" y="-7.5" font-family="Helvetica,sans-Serif" font-size="10.00" fill="#000000">MultiCommandResult.hasException</text>
</a>
</g>
</g>
<!-- Node2&#45;&gt;Node4 -->
<g id="edge4" class="edge">
<title>Node2&#45;&gt;Node4</title>
<path fill="none" stroke="#191970" d="M451.1326,-31.3747C459.5103,-30.2879 468.2542,-29.1535 477.0458,-28.013"/>
<polygon fill="#191970" stroke="#191970" points="477.5086,-31.4824 486.9752,-26.7248 476.6079,-24.5405 477.5086,-31.4824"/>
</g>
</g>
</svg>
