<?xml version="1.0" encoding="UTF-8" standalone="no"?>
<!DOCTYPE svg PUBLIC "-//W3C//DTD SVG 1.1//EN"
 "http://www.w3.org/Graphics/SVG/1.1/DTD/svg11.dtd">
<!-- Generated by graphviz version 2.40.1 (20161225.0304)
 -->
<!-- Title: org.cobbzilla.util.system.CommandShell.loadShellExportsOrDie Pages: 1 -->
<svg width="550pt" height="39pt"
 viewBox="0.00 0.00 550.00 39.00" xmlns="http://www.w3.org/2000/svg" xmlns:xlink="http://www.w3.org/1999/xlink">
<g id="graph0" class="graph" transform="scale(1 1) rotate(0) translate(4 35)">
<title>org.cobbzilla.util.system.CommandShell.loadShellExportsOrDie</title>
<!-- Node0 -->
<g id="node1" class="node">
<title>Node0</title>
<polygon fill="#bfbfbf" stroke="#000000" points="0,-.5 0,-30.5 185,-30.5 185,-.5 0,-.5"/>
<text text-anchor="start" x="8" y="-18.5" font-family="Helvetica,sans-Serif" font-size="10.00" fill="#000000">org.cobbzilla.util.system.</text>
<text text-anchor="middle" x="92.5" y="-7.5" font-family="Helvetica,sans-Serif" font-size="10.00" fill="#000000">CommandShell.loadShellExportsOrDie</text>
</g>
<!-- Node1 -->
<g id="node2" class="node">
<title>Node1</title>
<g id="a_node2"><a xlink:href="../../df/ded/classorg_1_1cobbzilla_1_1util_1_1system_1_1CommandShell_a4029c09a86857a7be61b25add6af1948.html#a4029c09a86857a7be61b25add6af1948" target="_top" xlink:title="org.cobbzilla.util.system.\lCommandShell.loadShellExports">
<polygon fill="none" stroke="#000000" points="221,-.5 221,-30.5 381,-30.5 381,-.5 221,-.5"/>
<text text-anchor="start" x="229" y="-18.5" font-family="Helvetica,sans-Serif" font-size="10.00" fill="#000000">org.cobbzilla.util.system.</text>
<text text-anchor="middle" x="301" y="-7.5" font-family="Helvetica,sans-Serif" font-size="10.00" fill="#000000">CommandShell.loadShellExports</text>
</a>
</g>
</g>
<!-- Node0&#45;&gt;Node1 -->
<g id="edge1" class="edge">
<title>Node0&#45;&gt;Node1</title>
<path fill="none" stroke="#191970" d="M185.1654,-15.5C193.5934,-15.5 202.1237,-15.5 210.5323,-15.5"/>
<polygon fill="#191970" stroke="#191970" points="210.7135,-19.0001 220.7135,-15.5 210.7134,-12.0001 210.7135,-19.0001"/>
</g>
<!-- Node2 -->
<g id="node3" class="node">
<title>Node2</title>
<g id="a_node3"><a xlink:href="../../df/ded/classorg_1_1cobbzilla_1_1util_1_1system_1_1CommandShell_ad8ff84f817a2f4097baf74d51a9125df.html#ad8ff84f817a2f4097baf74d51a9125df" target="_top" xlink:title="org.cobbzilla.util.system.\lCommandShell.userFile">
<polygon fill="none" stroke="#000000" points="417,-.5 417,-30.5 542,-30.5 542,-.5 417,-.5"/>
<text text-anchor="start" x="425" y="-18.5" font-family="Helvetica,sans-Serif" font-size="10.00" fill="#000000">org.cobbzilla.util.system.</text>
<text text-anchor="middle" x="479.5" y="-7.5" font-family="Helvetica,sans-Serif" font-size="10.00" fill="#000000">CommandShell.userFile</text>
</a>
</g>
</g>
<!-- Node1&#45;&gt;Node2 -->
<g id="edge2" class="edge">
<title>Node1&#45;&gt;Node2</title>
<path fill="none" stroke="#191970" d="M381.1126,-15.5C389.6125,-15.5 398.2241,-15.5 406.6347,-15.5"/>
<polygon fill="#191970" stroke="#191970" points="406.773,-19.0001 416.773,-15.5 406.773,-12.0001 406.773,-19.0001"/>
</g>
</g>
</svg>
