<?xml version="1.0" encoding="UTF-8" standalone="no"?>
<!DOCTYPE svg PUBLIC "-//W3C//DTD SVG 1.1//EN"
 "http://www.w3.org/Graphics/SVG/1.1/DTD/svg11.dtd">
<!-- Generated by graphviz version 2.40.1 (20161225.0304)
 -->
<!-- Title: org.cobbzilla.util.system.CommandShell.toString Pages: 1 -->
<svg width="472pt" height="137pt"
 viewBox="0.00 0.00 472.00 137.00" xmlns="http://www.w3.org/2000/svg" xmlns:xlink="http://www.w3.org/1999/xlink">
<g id="graph0" class="graph" transform="scale(1 1) rotate(0) translate(4 133)">
<title>org.cobbzilla.util.system.CommandShell.toString</title>
<!-- Node4 -->
<g id="node1" class="node">
<title>Node4</title>
<polygon fill="#bfbfbf" stroke="#000000" points="0,-49.5 0,-79.5 125,-79.5 125,-49.5 0,-49.5"/>
<text text-anchor="start" x="8" y="-67.5" font-family="Helvetica,sans-Serif" font-size="10.00" fill="#000000">org.cobbzilla.util.system.</text>
<text text-anchor="middle" x="62.5" y="-56.5" font-family="Helvetica,sans-Serif" font-size="10.00" fill="#000000">CommandShell.toString</text>
</g>
<!-- Node5 -->
<g id="node2" class="node">
<title>Node5</title>
<g id="a_node2"><a xlink:href="../../df/ded/classorg_1_1cobbzilla_1_1util_1_1system_1_1CommandShell_a85457af0db04ef61c9911dde95b30f01.html#a85457af0db04ef61c9911dde95b30f01" target="_top" xlink:title="org.cobbzilla.util.system.\lCommandShell.domainname">
<polygon fill="none" stroke="#000000" points="161,-98.5 161,-128.5 303,-128.5 303,-98.5 161,-98.5"/>
<text text-anchor="start" x="169" y="-116.5" font-family="Helvetica,sans-Serif" font-size="10.00" fill="#000000">org.cobbzilla.util.system.</text>
<text text-anchor="middle" x="232" y="-105.5" font-family="Helvetica,sans-Serif" font-size="10.00" fill="#000000">CommandShell.domainname</text>
</a>
</g>
</g>
<!-- Node4&#45;&gt;Node5 -->
<g id="edge1" class="edge">
<title>Node4&#45;&gt;Node5</title>
<path fill="none" stroke="#191970" d="M124.3989,-82.3941C142.63,-87.6644 162.3858,-93.3755 179.9338,-98.4484"/>
<polygon fill="#191970" stroke="#191970" points="125.3173,-79.0163 114.7387,-79.6014 123.3733,-85.741 125.3173,-79.0163"/>
</g>
<!-- Node6 -->
<g id="node3" class="node">
<title>Node6</title>
<g id="a_node3"><a xlink:href="../../df/ded/classorg_1_1cobbzilla_1_1util_1_1system_1_1CommandShell_a4951a272fb6d4964d2d8c4d86670f6c6.html#a4951a272fb6d4964d2d8c4d86670f6c6" target="_top" xlink:title="org.cobbzilla.util.system.\lCommandShell.hostname">
<polygon fill="none" stroke="#000000" points="167.5,-49.5 167.5,-79.5 296.5,-79.5 296.5,-49.5 167.5,-49.5"/>
<text text-anchor="start" x="175.5" y="-67.5" font-family="Helvetica,sans-Serif" font-size="10.00" fill="#000000">org.cobbzilla.util.system.</text>
<text text-anchor="middle" x="232" y="-56.5" font-family="Helvetica,sans-Serif" font-size="10.00" fill="#000000">CommandShell.hostname</text>
</a>
</g>
</g>
<!-- Node4&#45;&gt;Node6 -->
<g id="edge2" class="edge">
<title>Node4&#45;&gt;Node6</title>
<path fill="none" stroke="#191970" d="M135.2623,-64.5C145.9327,-64.5 156.8618,-64.5 167.3545,-64.5"/>
<polygon fill="#191970" stroke="#191970" points="135.134,-61.0001 125.134,-64.5 135.1339,-68.0001 135.134,-61.0001"/>
</g>
<!-- Node7 -->
<g id="node4" class="node">
<title>Node7</title>
<g id="a_node4"><a xlink:href="../../df/ded/classorg_1_1cobbzilla_1_1util_1_1system_1_1CommandShell_a5d319c1d133f079fc42e036687cba998.html#a5d319c1d133f079fc42e036687cba998" target="_top" xlink:title="org.cobbzilla.util.system.\lCommandShell.whoami">
<polygon fill="none" stroke="#000000" points="169.5,-.5 169.5,-30.5 294.5,-30.5 294.5,-.5 169.5,-.5"/>
<text text-anchor="start" x="177.5" y="-18.5" font-family="Helvetica,sans-Serif" font-size="10.00" fill="#000000">org.cobbzilla.util.system.</text>
<text text-anchor="middle" x="232" y="-7.5" font-family="Helvetica,sans-Serif" font-size="10.00" fill="#000000">CommandShell.whoami</text>
</a>
</g>
</g>
<!-- Node4&#45;&gt;Node7 -->
<g id="edge3" class="edge">
<title>Node4&#45;&gt;Node7</title>
<path fill="none" stroke="#191970" d="M124.3989,-46.6059C142.63,-41.3356 162.3858,-35.6245 179.9338,-30.5516"/>
<polygon fill="#191970" stroke="#191970" points="123.3733,-43.259 114.7387,-49.3986 125.3173,-49.9837 123.3733,-43.259"/>
</g>
<!-- Node8 -->
<g id="node5" class="node">
<title>Node8</title>
<g id="a_node5"><a xlink:href="../../df/ded/classorg_1_1cobbzilla_1_1util_1_1system_1_1CommandShell_a327beb579a560b71b752bf9f1cbba1c3.html#a327beb579a560b71b752bf9f1cbba1c3" target="_top" xlink:title="org.cobbzilla.util.system.\lCommandShell.isRoot">
<polygon fill="none" stroke="#000000" points="339,-.5 339,-30.5 464,-30.5 464,-.5 339,-.5"/>
<text text-anchor="start" x="347" y="-18.5" font-family="Helvetica,sans-Serif" font-size="10.00" fill="#000000">org.cobbzilla.util.system.</text>
<text text-anchor="middle" x="401.5" y="-7.5" font-family="Helvetica,sans-Serif" font-size="10.00" fill="#000000">CommandShell.isRoot</text>
</a>
</g>
</g>
<!-- Node7&#45;&gt;Node8 -->
<g id="edge4" class="edge">
<title>Node7&#45;&gt;Node8</title>
<path fill="none" stroke="#191970" d="M304.907,-15.5C316.2067,-15.5 327.7929,-15.5 338.8407,-15.5"/>
<polygon fill="#191970" stroke="#191970" points="304.634,-12.0001 294.634,-15.5 304.6339,-19.0001 304.634,-12.0001"/>
</g>
</g>
</svg>
