<?xml version="1.0" encoding="UTF-8" standalone="no"?>
<!DOCTYPE svg PUBLIC "-//W3C//DTD SVG 1.1//EN"
 "http://www.w3.org/Graphics/SVG/1.1/DTD/svg11.dtd">
<!-- Generated by graphviz version 2.40.1 (20161225.0304)
 -->
<!-- Title: org.cobbzilla.util.collection.MapUtil Pages: 1 -->
<svg width="372pt" height="331pt"
 viewBox="0.00 0.00 372.00 331.00" xmlns="http://www.w3.org/2000/svg" xmlns:xlink="http://www.w3.org/1999/xlink">
<g id="graph0" class="graph" transform="scale(1 1) rotate(0) translate(4 327)">
<title>org.cobbzilla.util.collection.MapUtil</title>
<!-- Node1 -->
<g id="node1" class="node">
<title>Node1</title>
<polygon fill="#bfbfbf" stroke="#000000" points="76,-.5 76,-90.5 210,-90.5 210,-.5 76,-.5"/>
<text text-anchor="start" x="84" y="-78.5" font-family="Helvetica,sans-Serif" font-size="10.00" fill="#000000">org.cobbzilla.util.collection.</text>
<text text-anchor="middle" x="143" y="-67.5" font-family="Helvetica,sans-Serif" font-size="10.00" fill="#000000">MapUtil</text>
<polyline fill="none" stroke="#000000" points="76,-60.5 210,-60.5 "/>
<text text-anchor="middle" x="143" y="-48.5" font-family="Helvetica,sans-Serif" font-size="10.00" fill="#000000"> </text>
<polyline fill="none" stroke="#000000" points="76,-41.5 210,-41.5 "/>
<text text-anchor="start" x="84" y="-29.5" font-family="Helvetica,sans-Serif" font-size="10.00" fill="#000000">+ toMap()</text>
<text text-anchor="start" x="84" y="-18.5" font-family="Helvetica,sans-Serif" font-size="10.00" fill="#000000">+ deepEquals()</text>
<text text-anchor="start" x="84" y="-7.5" font-family="Helvetica,sans-Serif" font-size="10.00" fill="#000000">+ deepHash()</text>
</g>
<!-- Node2 -->
<g id="node2" class="node">
<title>Node2</title>
<polygon fill="none" stroke="#bfbfbf" points="0,-138.5 0,-206.5 134,-206.5 134,-138.5 0,-138.5"/>
<text text-anchor="start" x="8" y="-194.5" font-family="Helvetica,sans-Serif" font-size="10.00" fill="#000000">TypeReference&lt; HashMap</text>
<text text-anchor="middle" x="67" y="-183.5" font-family="Helvetica,sans-Serif" font-size="10.00" fill="#000000">&lt; String, Object &gt; &gt;</text>
<polyline fill="none" stroke="#bfbfbf" points="0,-176.5 134,-176.5 "/>
<text text-anchor="middle" x="67" y="-164.5" font-family="Helvetica,sans-Serif" font-size="10.00" fill="#000000"> </text>
<polyline fill="none" stroke="#bfbfbf" points="0,-157.5 134,-157.5 "/>
<text text-anchor="middle" x="67" y="-145.5" font-family="Helvetica,sans-Serif" font-size="10.00" fill="#000000"> </text>
</g>
<!-- Node2&#45;&gt;Node1 -->
<g id="edge1" class="edge">
<title>Node2&#45;&gt;Node1</title>
<path fill="none" stroke="#404040" d="M54.1304,-138.3377C52.367,-128.4773 52.4745,-117.9669 57,-109 59.8026,-103.4468 63.3455,-98.2593 67.3866,-93.4368"/>
<polygon fill="none" stroke="#404040" points="67.4754,-93.3427 68.6821,-86.2333 75.7088,-84.6128 74.5021,-91.7222 67.4754,-93.3427"/>
<text text-anchor="middle" x="133" y="-112" font-family="Helvetica,sans-Serif" font-size="10.00" fill="#000000"> +JSON_STRING_OBJECT_MAP</text>
</g>
<!-- Node3 -->
<g id="node3" class="node">
<title>Node3</title>
<polygon fill="none" stroke="#bfbfbf" points="100.5,-265.5 100.5,-322.5 183.5,-322.5 183.5,-265.5 100.5,-265.5"/>
<text text-anchor="middle" x="142" y="-310.5" font-family="Helvetica,sans-Serif" font-size="10.00" fill="#000000">TypeReference</text>
<polyline fill="none" stroke="#bfbfbf" points="100.5,-303.5 183.5,-303.5 "/>
<text text-anchor="middle" x="142" y="-291.5" font-family="Helvetica,sans-Serif" font-size="10.00" fill="#000000"> </text>
<polyline fill="none" stroke="#bfbfbf" points="100.5,-284.5 183.5,-284.5 "/>
<text text-anchor="middle" x="142" y="-272.5" font-family="Helvetica,sans-Serif" font-size="10.00" fill="#000000"> </text>
</g>
<!-- Node3&#45;&gt;Node2 -->
<g id="edge2" class="edge">
<title>Node3&#45;&gt;Node2</title>
<path fill="none" stroke="#ffa500" d="M102.7678,-257.5757C99.9567,-254.1462 97.3207,-250.6011 95,-247 87.0661,-234.6886 80.9019,-219.7997 76.4022,-206.5786"/>
<polygon fill="#ffa500" stroke="#ffa500" points="100.3533,-260.1308 109.5788,-265.3405 105.6157,-255.5147 100.3533,-260.1308"/>
<text text-anchor="start" x="95" y="-239" font-family="Helvetica,sans-Serif" font-size="10.00" fill="#000000"> &lt; HashMap&lt; String,</text>
<text text-anchor="middle" x="141" y="-228" font-family="Helvetica,sans-Serif" font-size="10.00" fill="#000000"> Object &gt; &gt;</text>
</g>
<!-- Node4 -->
<g id="node4" class="node">
<title>Node4</title>
<polygon fill="none" stroke="#bfbfbf" points="158,-138.5 158,-206.5 292,-206.5 292,-138.5 158,-138.5"/>
<text text-anchor="start" x="166" y="-194.5" font-family="Helvetica,sans-Serif" font-size="10.00" fill="#000000">TypeReference&lt; HashMap</text>
<text text-anchor="middle" x="225" y="-183.5" font-family="Helvetica,sans-Serif" font-size="10.00" fill="#000000">&lt; String, String &gt; &gt;</text>
<polyline fill="none" stroke="#bfbfbf" points="158,-176.5 292,-176.5 "/>
<text text-anchor="middle" x="225" y="-164.5" font-family="Helvetica,sans-Serif" font-size="10.00" fill="#000000"> </text>
<polyline fill="none" stroke="#bfbfbf" points="158,-157.5 292,-157.5 "/>
<text text-anchor="middle" x="225" y="-145.5" font-family="Helvetica,sans-Serif" font-size="10.00" fill="#000000"> </text>
</g>
<!-- Node3&#45;&gt;Node4 -->
<g id="edge4" class="edge">
<title>Node3&#45;&gt;Node4</title>
<path fill="none" stroke="#ffa500" d="M178.6143,-257.7664C181.5848,-254.2373 184.4281,-250.6205 187,-247 195.8291,-234.5715 203.8082,-219.8052 210.1494,-206.7098"/>
<polygon fill="#ffa500" stroke="#ffa500" points="175.9457,-255.5008 171.9638,-265.3189 181.1993,-260.1269 175.9457,-255.5008"/>
<text text-anchor="start" x="200" y="-239" font-family="Helvetica,sans-Serif" font-size="10.00" fill="#000000"> &lt; HashMap&lt; String,</text>
<text text-anchor="middle" x="246" y="-228" font-family="Helvetica,sans-Serif" font-size="10.00" fill="#000000"> String &gt; &gt;</text>
</g>
<!-- Node4&#45;&gt;Node1 -->
<g id="edge3" class="edge">
<title>Node4&#45;&gt;Node1</title>
<path fill="none" stroke="#404040" d="M220.0198,-138.1903C217.6372,-128.3258 214.1352,-117.8501 209,-109 207.3366,-106.1333 205.5066,-103.3125 203.5481,-100.5491"/>
<polygon fill="none" stroke="#404040" points="203.3385,-100.2801 196.4953,-98.0061 195.9624,-90.8147 202.8056,-93.0887 203.3385,-100.2801"/>
<text text-anchor="middle" x="288.5" y="-112" font-family="Helvetica,sans-Serif" font-size="10.00" fill="#000000"> +JSON_STRING_STRING_MAP</text>
</g>
</g>
</svg>
