<?xml version="1.0" encoding="UTF-8" standalone="no"?>
<!DOCTYPE svg PUBLIC "-//W3C//DTD SVG 1.1//EN"
 "http://www.w3.org/Graphics/SVG/1.1/DTD/svg11.dtd">
<!-- Generated by graphviz version 2.40.1 (20161225.0304)
 -->
<!-- Title: org.cobbzilla.util.xml.TidyHandlebarsSpanMerger.append Pages: 1 -->
<svg width="584pt" height="88pt"
 viewBox="0.00 0.00 584.00 88.00" xmlns="http://www.w3.org/2000/svg" xmlns:xlink="http://www.w3.org/1999/xlink">
<g id="graph0" class="graph" transform="scale(1 1) rotate(0) translate(4 84)">
<title>org.cobbzilla.util.xml.TidyHandlebarsSpanMerger.append</title>
<!-- Node1 -->
<g id="node1" class="node">
<title>Node1</title>
<polygon fill="#bfbfbf" stroke="#000000" points="0,-24.5 0,-54.5 153,-54.5 153,-24.5 0,-24.5"/>
<text text-anchor="start" x="8" y="-42.5" font-family="Helvetica,sans-Serif" font-size="10.00" fill="#000000">org.cobbzilla.util.xml.Tidy</text>
<text text-anchor="middle" x="76.5" y="-31.5" font-family="Helvetica,sans-Serif" font-size="10.00" fill="#000000">HandlebarsSpanMerger.append</text>
</g>
<!-- Node2 -->
<g id="node2" class="node">
<title>Node2</title>
<g id="a_node2"><a xlink:href="../../db/dd4/classorg_1_1cobbzilla_1_1util_1_1xml_1_1TidyHandlebarsSpanMerger_a958ca0c5e73d8c7f601124bc78f78f6d.html#a958ca0c5e73d8c7f601124bc78f78f6d" target="_top" xlink:title="org.cobbzilla.util.xml.Tidy\lHandlebarsSpanMerger.mergeSpans">
<polygon fill="none" stroke="#000000" points="198.5,-49.5 198.5,-79.5 374.5,-79.5 374.5,-49.5 198.5,-49.5"/>
<text text-anchor="start" x="206.5" y="-67.5" font-family="Helvetica,sans-Serif" font-size="10.00" fill="#000000">org.cobbzilla.util.xml.Tidy</text>
<text text-anchor="middle" x="286.5" y="-56.5" font-family="Helvetica,sans-Serif" font-size="10.00" fill="#000000">HandlebarsSpanMerger.mergeSpans</text>
</a>
</g>
</g>
<!-- Node1&#45;&gt;Node2 -->
<g id="edge1" class="edge">
<title>Node1&#45;&gt;Node2</title>
<path fill="none" stroke="#191970" d="M163.2684,-49.8296C174.8241,-51.2053 186.6838,-52.6171 198.2642,-53.9957"/>
<polygon fill="#191970" stroke="#191970" points="163.5499,-46.3385 153.2062,-48.6317 162.7223,-53.2894 163.5499,-46.3385"/>
</g>
<!-- Node4 -->
<g id="node4" class="node">
<title>Node4</title>
<g id="a_node4"><a xlink:href="../../db/dd4/classorg_1_1cobbzilla_1_1util_1_1xml_1_1TidyHandlebarsSpanMerger_a39d3f52fea602d93ca7d2d8b4423bf17.html#a39d3f52fea602d93ca7d2d8b4423bf17" target="_top" xlink:title="org.cobbzilla.util.xml.Tidy\lHandlebarsSpanMerger.scrubHandlebars">
<polygon fill="none" stroke="#000000" points="189,-.5 189,-30.5 384,-30.5 384,-.5 189,-.5"/>
<text text-anchor="start" x="197" y="-18.5" font-family="Helvetica,sans-Serif" font-size="10.00" fill="#000000">org.cobbzilla.util.xml.Tidy</text>
<text text-anchor="middle" x="286.5" y="-7.5" font-family="Helvetica,sans-Serif" font-size="10.00" fill="#000000">HandlebarsSpanMerger.scrubHandlebars</text>
</a>
</g>
</g>
<!-- Node1&#45;&gt;Node4 -->
<g id="edge3" class="edge">
<title>Node1&#45;&gt;Node4</title>
<path fill="none" stroke="#191970" d="M163.3748,-29.5714C171.7888,-28.6099 180.3628,-27.63 188.872,-26.6575"/>
<polygon fill="#191970" stroke="#191970" points="162.7441,-26.1207 153.2062,-30.7336 163.539,-33.0754 162.7441,-26.1207"/>
</g>
<!-- Node3 -->
<g id="node3" class="node">
<title>Node3</title>
<g id="a_node3"><a xlink:href="../../db/dd4/classorg_1_1cobbzilla_1_1util_1_1xml_1_1TidyHandlebarsSpanMerger_a4c6b9d401179911ce0ec58d89ea74be7.html#a4c6b9d401179911ce0ec58d89ea74be7" target="_top" xlink:title="org.cobbzilla.util.xml.Tidy\lHandlebarsSpanMerger.process">
<polygon fill="none" stroke="#000000" points="420,-49.5 420,-79.5 576,-79.5 576,-49.5 420,-49.5"/>
<text text-anchor="start" x="428" y="-67.5" font-family="Helvetica,sans-Serif" font-size="10.00" fill="#000000">org.cobbzilla.util.xml.Tidy</text>
<text text-anchor="middle" x="498" y="-56.5" font-family="Helvetica,sans-Serif" font-size="10.00" fill="#000000">HandlebarsSpanMerger.process</text>
</a>
</g>
</g>
<!-- Node2&#45;&gt;Node3 -->
<g id="edge2" class="edge">
<title>Node2&#45;&gt;Node3</title>
<path fill="none" stroke="#191970" d="M384.8928,-64.5C396.5847,-64.5 408.3971,-64.5 419.7546,-64.5"/>
<polygon fill="#191970" stroke="#191970" points="384.6636,-61.0001 374.6635,-64.5 384.6635,-68.0001 384.6636,-61.0001"/>
</g>
<!-- Node5 -->
<g id="node5" class="node">
<title>Node5</title>
<g id="a_node5"><a xlink:href="../../d5/d0e/classorg_1_1cobbzilla_1_1util_1_1handlebars_1_1WordDocxMerger_abe8ac577d3579b4c26f2cee1183bea7a.html#abe8ac577d3579b4c26f2cee1183bea7a" target="_top" xlink:title="org.cobbzilla.util.handlebars.\lWordDocxMerger.merge">
<polygon fill="none" stroke="#000000" points="428,-.5 428,-30.5 568,-30.5 568,-.5 428,-.5"/>
<text text-anchor="start" x="436" y="-18.5" font-family="Helvetica,sans-Serif" font-size="10.00" fill="#000000">org.cobbzilla.util.handlebars.</text>
<text text-anchor="middle" x="498" y="-7.5" font-family="Helvetica,sans-Serif" font-size="10.00" fill="#000000">WordDocxMerger.merge</text>
</a>
</g>
</g>
<!-- Node4&#45;&gt;Node5 -->
<g id="edge4" class="edge">
<title>Node4&#45;&gt;Node5</title>
<path fill="none" stroke="#191970" d="M394.2256,-15.5C405.6384,-15.5 417.0204,-15.5 427.8398,-15.5"/>
<polygon fill="#191970" stroke="#191970" points="394.2018,-12.0001 384.2017,-15.5 394.2017,-19.0001 394.2018,-12.0001"/>
</g>
</g>
</svg>
