<?xml version="1.0" encoding="UTF-8" standalone="no"?>
<!DOCTYPE svg PUBLIC "-//W3C//DTD SVG 1.1//EN"
 "http://www.w3.org/Graphics/SVG/1.1/DTD/svg11.dtd">
<!-- Generated by graphviz version 2.40.1 (20161225.0304)
 -->
<!-- Title: org.cobbzilla.util.xml.TidyHandlebarsSpanMerger.process Pages: 1 -->
<!--zoomable 235 -->
<svg id="main" version="1.1" xmlns="http://www.w3.org/2000/svg" xmlns:xlink="http://www.w3.org/1999/xlink" xml:space="preserve" onload="init(evt)">
<style type="text/css"><![CDATA[
.edge:hover path { stroke: red; }
.edge:hover polygon { stroke: red; fill: red; }
]]></style>
<script type="text/javascript"><![CDATA[
var edges = document.getElementsByTagName('g');
if (edges && edges.length) {
  for (var i=0;i<edges.length;i++) {
    if (edges[i].id.substr(0,4)=='edge') {
      edges[i].setAttribute('class','edge');
    }
  }
}
]]></script>
        <defs>
                <circle id="rim" cx="0" cy="0" r="7"/>
                <circle id="rim2" cx="0" cy="0" r="3.5"/>
                <g id="zoomPlus">
                        <use xlink:href="#rim" fill="#404040">
                                <set attributeName="fill" to="#808080" begin="zoomplus.mouseover" end="zoomplus.mouseout"/>
                        </use>
                        <path d="M-4,0h8M0,-4v8" fill="none" stroke="white" stroke-width="1.5" pointer-events="none"/>
                </g>
                <g id="zoomMin">
                        <use xlink:href="#rim" fill="#404040">
                                <set attributeName="fill" to="#808080" begin="zoomminus.mouseover" end="zoomminus.mouseout"/>
                        </use>
                        <path d="M-4,0h8" fill="none" stroke="white" stroke-width="1.5" pointer-events="none"/>
                </g>
                <g id="dirArrow">
                        <path fill="none" stroke="white" stroke-width="1.5" d="M0,-3.0v7 M-2.5,-0.5L0,-3.0L2.5,-0.5"/>
                </g>
               <g id="resetDef">
                       <use xlink:href="#rim2" fill="#404040">
                               <set attributeName="fill" to="#808080" begin="reset.mouseover" end="reset.mouseout"/>
                       </use>
               </g>
        </defs>

<script type="text/javascript">
var viewWidth = 782;
var viewHeight = 235;
var sectionId = 'dynsection-0';
</script>
<script xlink:href="../../svgpan.js"/>
<svg id="graph" class="graph">
<g id="viewport">
<title>org.cobbzilla.util.xml.TidyHandlebarsSpanMerger.process</title>
<!-- Node0 -->
<g id="node1" class="node">
<title>Node0</title>
<polygon fill="#bfbfbf" stroke="#000000" points="0,-122.5 0,-152.5 156,-152.5 156,-122.5 0,-122.5"/>
<text text-anchor="start" x="8" y="-140.5" font-family="Helvetica,sans-Serif" font-size="10.00" fill="#000000">org.cobbzilla.util.xml.Tidy</text>
<text text-anchor="middle" x="78" y="-129.5" font-family="Helvetica,sans-Serif" font-size="10.00" fill="#000000">HandlebarsSpanMerger.process</text>
</g>
<!-- Node1 -->
<g id="node2" class="node">
<title>Node1</title>
<g id="a_node2"><a xlink:href="../../d0/d68/classorg_1_1cobbzilla_1_1util_1_1collection_1_1mappy_1_1Mappy_ade88a89041a4e8a20ba22465284bae7e.html#ade88a89041a4e8a20ba22465284bae7e" target="_top" xlink:title="org.cobbzilla.util.collection.mappy.\lMappy\&lt; K, V, List\&lt; V \&gt; \&gt;::entrySet">
<polygon fill="none" stroke="#000000" points="193.5,-147.5 193.5,-177.5 366.5,-177.5 366.5,-147.5 193.5,-147.5"/>
<text text-anchor="start" x="201.5" y="-165.5" font-family="Helvetica,sans-Serif" font-size="10.00" fill="#000000">org.cobbzilla.util.collection.mappy.</text>
<text text-anchor="middle" x="280" y="-154.5" font-family="Helvetica,sans-Serif" font-size="10.00" fill="#000000">Mappy&lt; K, V, List&lt; V &gt; &gt;::entrySet</text>
</a>
</g>
</g>
<!-- Node0&#45;&gt;Node1 -->
<g id="edge1" class="edge">
<title>Node0&#45;&gt;Node1</title>
<path fill="none" stroke="#191970" d="M156.0985,-147.1657C164.9715,-148.2638 174.0934,-149.3928 183.1704,-150.5161"/>
<polygon fill="#191970" stroke="#191970" points="183.0295,-154.0253 193.3837,-151.7802 183.8894,-147.0783 183.0295,-154.0253"/>
</g>
<!-- Node2 -->
<g id="node3" class="node">
<title>Node2</title>
<g id="a_node3"><a xlink:href="../../db/dd4/classorg_1_1cobbzilla_1_1util_1_1xml_1_1TidyHandlebarsSpanMerger_a958ca0c5e73d8c7f601124bc78f78f6d.html#a958ca0c5e73d8c7f601124bc78f78f6d" target="_top" xlink:title="org.cobbzilla.util.xml.Tidy\lHandlebarsSpanMerger.mergeSpans">
<polygon fill="none" stroke="#000000" points="192,-98.5 192,-128.5 368,-128.5 368,-98.5 192,-98.5"/>
<text text-anchor="start" x="200" y="-116.5" font-family="Helvetica,sans-Serif" font-size="10.00" fill="#000000">org.cobbzilla.util.xml.Tidy</text>
<text text-anchor="middle" x="280" y="-105.5" font-family="Helvetica,sans-Serif" font-size="10.00" fill="#000000">HandlebarsSpanMerger.mergeSpans</text>
</a>
</g>
</g>
<!-- Node0&#45;&gt;Node2 -->
<g id="edge2" class="edge">
<title>Node0&#45;&gt;Node2</title>
<path fill="none" stroke="#191970" d="M156.0985,-128.221C164.4771,-127.2255 173.0777,-126.2036 181.6527,-125.1848"/>
<polygon fill="#191970" stroke="#191970" points="182.1754,-128.6474 191.6926,-123.992 181.3494,-121.6963 182.1754,-128.6474"/>
</g>
<!-- Node3 -->
<g id="node4" class="node">
<title>Node3</title>
<g id="a_node4"><a xlink:href="../../db/dd4/classorg_1_1cobbzilla_1_1util_1_1xml_1_1TidyHandlebarsSpanMerger_a164345e18c56a9955a43c9a699c7109d.html#a164345e18c56a9955a43c9a699c7109d" target="_top" xlink:title="org.cobbzilla.util.xml.Tidy\lHandlebarsSpanMerger.append">
<polygon fill="none" stroke="#000000" points="412.5,-196.5 412.5,-226.5 565.5,-226.5 565.5,-196.5 412.5,-196.5"/>
<text text-anchor="start" x="420.5" y="-214.5" font-family="Helvetica,sans-Serif" font-size="10.00" fill="#000000">org.cobbzilla.util.xml.Tidy</text>
<text text-anchor="middle" x="489" y="-203.5" font-family="Helvetica,sans-Serif" font-size="10.00" fill="#000000">HandlebarsSpanMerger.append</text>
</a>
</g>
</g>
<!-- Node2&#45;&gt;Node3 -->
<g id="edge3" class="edge">
<title>Node2&#45;&gt;Node3</title>
<path fill="none" stroke="#191970" d="M349.7357,-128.5308C356.1827,-131.3124 362.3905,-134.6046 368,-138.5 390.1964,-153.914 381.7912,-172.1039 404,-187.5 406.1502,-188.9906 408.3914,-190.3891 410.7018,-191.7012"/>
<polygon fill="#191970" stroke="#191970" points="409.4063,-194.9677 419.9112,-196.3455 412.5583,-188.7175 409.4063,-194.9677"/>
</g>
<!-- Node4 -->
<g id="node5" class="node">
<title>Node4</title>
<g id="a_node5"><a xlink:href="../../db/dd4/classorg_1_1cobbzilla_1_1util_1_1xml_1_1TidyHandlebarsSpanMerger_acb44967a7a5bab8dd3477ac9186011b4.html#acb44967a7a5bab8dd3477ac9186011b4" target="_top" xlink:title="org.cobbzilla.util.xml.Tidy\lHandlebarsSpanMerger.collectText">
<polygon fill="none" stroke="#000000" points="404,-147.5 404,-177.5 574,-177.5 574,-147.5 404,-147.5"/>
<text text-anchor="start" x="412" y="-165.5" font-family="Helvetica,sans-Serif" font-size="10.00" fill="#000000">org.cobbzilla.util.xml.Tidy</text>
<text text-anchor="middle" x="489" y="-154.5" font-family="Helvetica,sans-Serif" font-size="10.00" fill="#000000">HandlebarsSpanMerger.collectText</text>
</a>
</g>
</g>
<!-- Node2&#45;&gt;Node4 -->
<g id="edge4" class="edge">
<title>Node2&#45;&gt;Node4</title>
<path fill="none" stroke="#191970" d="M344.1272,-128.5346C366.596,-133.8024 392.0072,-139.7601 415.2034,-145.1984"/>
<polygon fill="#191970" stroke="#191970" points="414.4591,-148.6187 424.994,-147.4938 416.057,-141.8035 414.4591,-148.6187"/>
</g>
<!-- Node5 -->
<g id="node6" class="node">
<title>Node5</title>
<g id="a_node6"><a xlink:href="../../d0/d68/classorg_1_1cobbzilla_1_1util_1_1collection_1_1mappy_1_1Mappy_a09659b26577a98d1e6ce1d0a1479867e.html#a09659b26577a98d1e6ce1d0a1479867e" target="_top" xlink:title="Add a mapping. ">
<polygon fill="none" stroke="#000000" points="405.5,-98.5 405.5,-128.5 572.5,-128.5 572.5,-98.5 405.5,-98.5"/>
<text text-anchor="start" x="413.5" y="-116.5" font-family="Helvetica,sans-Serif" font-size="10.00" fill="#000000">org.cobbzilla.util.collection.mappy.</text>
<text text-anchor="middle" x="489" y="-105.5" font-family="Helvetica,sans-Serif" font-size="10.00" fill="#000000">Mappy&lt; K, V, List&lt; V &gt; &gt;::put</text>
</a>
</g>
</g>
<!-- Node2&#45;&gt;Node5 -->
<g id="edge5" class="edge">
<title>Node2&#45;&gt;Node5</title>
<path fill="none" stroke="#191970" d="M368.0291,-113.5C377.0261,-113.5 386.1903,-113.5 395.2457,-113.5"/>
<polygon fill="#191970" stroke="#191970" points="395.4086,-117.0001 405.4086,-113.5 395.4085,-110.0001 395.4086,-117.0001"/>
</g>
<!-- Node6 -->
<g id="node7" class="node">
<title>Node6</title>
<g id="a_node7"><a xlink:href="../../db/dd4/classorg_1_1cobbzilla_1_1util_1_1xml_1_1TidyHandlebarsSpanMerger_a6046546174be89d7469aaf1bcbce660d.html#a6046546174be89d7469aaf1bcbce660d" target="_top" xlink:title="org.cobbzilla.util.xml.Tidy\lHandlebarsSpanMerger.sameAttrs">
<polygon fill="none" stroke="#000000" points="405.5,-49.5 405.5,-79.5 572.5,-79.5 572.5,-49.5 405.5,-49.5"/>
<text text-anchor="start" x="413.5" y="-67.5" font-family="Helvetica,sans-Serif" font-size="10.00" fill="#000000">org.cobbzilla.util.xml.Tidy</text>
<text text-anchor="middle" x="489" y="-56.5" font-family="Helvetica,sans-Serif" font-size="10.00" fill="#000000">HandlebarsSpanMerger.sameAttrs</text>
</a>
</g>
</g>
<!-- Node2&#45;&gt;Node6 -->
<g id="edge6" class="edge">
<title>Node2&#45;&gt;Node6</title>
<path fill="none" stroke="#191970" d="M344.1272,-98.4654C366.596,-93.1976 392.0072,-87.2399 415.2034,-81.8016"/>
<polygon fill="#191970" stroke="#191970" points="416.057,-85.1965 424.994,-79.5062 414.4591,-78.3813 416.057,-85.1965"/>
</g>
<!-- Node8 -->
<g id="node9" class="node">
<title>Node8</title>
<g id="a_node9"><a xlink:href="../../db/dd4/classorg_1_1cobbzilla_1_1util_1_1xml_1_1TidyHandlebarsSpanMerger_a2f57f49f74745911c33141bdfd0d4e35.html#a2f57f49f74745911c33141bdfd0d4e35" target="_top" xlink:title="org.cobbzilla.util.xml.Tidy\lHandlebarsSpanMerger.setSpan">
<polygon fill="none" stroke="#000000" points="410,-.5 410,-30.5 568,-30.5 568,-.5 410,-.5"/>
<text text-anchor="start" x="418" y="-18.5" font-family="Helvetica,sans-Serif" font-size="10.00" fill="#000000">org.cobbzilla.util.xml.Tidy</text>
<text text-anchor="middle" x="489" y="-7.5" font-family="Helvetica,sans-Serif" font-size="10.00" fill="#000000">HandlebarsSpanMerger.setSpan</text>
</a>
</g>
</g>
<!-- Node2&#45;&gt;Node8 -->
<g id="edge8" class="edge">
<title>Node2&#45;&gt;Node8</title>
<path fill="none" stroke="#191970" d="M301.9695,-98.3062C326.0932,-82.1717 366.4109,-56.7956 404,-40.5 409.4246,-38.1483 415.1365,-35.9392 420.9271,-33.8829"/>
<polygon fill="#191970" stroke="#191970" points="422.3618,-37.0924 430.7098,-30.5684 420.1154,-30.4626 422.3618,-37.0924"/>
</g>
<!-- Node7 -->
<g id="node8" class="node">
<title>Node7</title>
<g id="a_node8"><a xlink:href="../../db/dd4/classorg_1_1cobbzilla_1_1util_1_1xml_1_1TidyHandlebarsSpanMerger_aec4181b12d7b02dcb1bff29493ebea93.html#aec4181b12d7b02dcb1bff29493ebea93" target="_top" xlink:title="org.cobbzilla.util.xml.Tidy\lHandlebarsSpanMerger.isGoBack">
<polygon fill="none" stroke="#000000" points="610,-49.5 610,-79.5 774,-79.5 774,-49.5 610,-49.5"/>
<text text-anchor="start" x="618" y="-67.5" font-family="Helvetica,sans-Serif" font-size="10.00" fill="#000000">org.cobbzilla.util.xml.Tidy</text>
<text text-anchor="middle" x="692" y="-56.5" font-family="Helvetica,sans-Serif" font-size="10.00" fill="#000000">HandlebarsSpanMerger.isGoBack</text>
</a>
</g>
</g>
<!-- Node6&#45;&gt;Node7 -->
<g id="edge7" class="edge">
<title>Node6&#45;&gt;Node7</title>
<path fill="none" stroke="#191970" d="M572.7399,-64.5C581.6273,-64.5 590.7023,-64.5 599.6807,-64.5"/>
<polygon fill="#191970" stroke="#191970" points="599.7614,-68.0001 609.7613,-64.5 599.7613,-61.0001 599.7614,-68.0001"/>
</g>
</g>
</svg>
        <g id="navigator" transform="translate(0 0)" fill="#404254">
                <rect fill="#f2f5e9" fill-opacity="0.5" stroke="#606060" stroke-width=".5" x="0" y="0" width="60" height="60"/>
                <use id="zoomplus" xlink:href="#zoomPlus" x="17" y="9" onmousedown="handleZoom(evt,'in')"/>
                <use id="zoomminus" xlink:href="#zoomMin" x="42" y="9" onmousedown="handleZoom(evt,'out')"/>
                <use id="reset" xlink:href="#resetDef" x="30" y="36" onmousedown="handleReset()"/>
                <g id="arrowUp" xlink:href="#dirArrow" transform="translate(30 24)" onmousedown="handlePan(0,-1)">
                  <use xlink:href="#rim" fill="#404040">
                        <set attributeName="fill" to="#808080" begin="arrowUp.mouseover" end="arrowUp.mouseout"/>
                  </use>
                  <path fill="none" stroke="white" stroke-width="1.5" d="M0,-3.0v7 M-2.5,-0.5L0,-3.0L2.5,-0.5"/>
                </g>
                <g id="arrowRight" xlink:href="#dirArrow" transform="rotate(90) translate(36 -43)" onmousedown="handlePan(1,0)">
                  <use xlink:href="#rim" fill="#404040">
                        <set attributeName="fill" to="#808080" begin="arrowRight.mouseover" end="arrowRight.mouseout"/>
                  </use>
                  <path fill="none" stroke="white" stroke-width="1.5" d="M0,-3.0v7 M-2.5,-0.5L0,-3.0L2.5,-0.5"/>
                </g>
                <g id="arrowDown" xlink:href="#dirArrow" transform="rotate(180) translate(-30 -48)" onmousedown="handlePan(0,1)">
                  <use xlink:href="#rim" fill="#404040">
                        <set attributeName="fill" to="#808080" begin="arrowDown.mouseover" end="arrowDown.mouseout"/>
                  </use>
                  <path fill="none" stroke="white" stroke-width="1.5" d="M0,-3.0v7 M-2.5,-0.5L0,-3.0L2.5,-0.5"/>
                </g>
                <g id="arrowLeft" xlink:href="#dirArrow" transform="rotate(270) translate(-36 17)" onmousedown="handlePan(-1,0)">
                  <use xlink:href="#rim" fill="#404040">
                        <set attributeName="fill" to="#808080" begin="arrowLeft.mouseover" end="arrowLeft.mouseout"/>
                  </use>
                  <path fill="none" stroke="white" stroke-width="1.5" d="M0,-3.0v7 M-2.5,-0.5L0,-3.0L2.5,-0.5"/>
                </g>
        </g>
        <svg viewBox="0 0 15 15" width="100%" height="30px" preserveAspectRatio="xMaxYMin meet">
         <g id="arrow_out" transform="scale(0.3 0.3)">
          <a xlink:href="classorg_1_1cobbzilla_1_1util_1_1xml_1_1TidyHandlebarsSpanMerger_a4c6b9d401179911ce0ec58d89ea74be7_a4c6b9d401179911ce0ec58d89ea74be7_cgraph_org.svg" target="_base">
           <rect id="button" ry="5" rx="5" y="6" x="6" height="38" width="38"
                fill="#f2f5e9" fill-opacity="0.5" stroke="#606060" stroke-width="1.0"/>
           <path id="arrow"
             d="M 11.500037,31.436501 C 11.940474,20.09759 22.043105,11.32322 32.158766,21.979434 L 37.068811,17.246167 C 37.068811,17.246167 37.088388,32 37.088388,32 L 22.160133,31.978069 C 22.160133,31.978069 26.997745,27.140456 26.997745,27.140456 C 18.528582,18.264221 13.291696,25.230495 11.500037,31.436501 z"
             style="fill:#404040;"/>
          </a>
         </g>
        </svg>
</svg>
