<?xml version="1.0" encoding="UTF-8" standalone="no"?>
<!DOCTYPE svg PUBLIC "-//W3C//DTD SVG 1.1//EN"
 "http://www.w3.org/Graphics/SVG/1.1/DTD/svg11.dtd">
<!-- Generated by graphviz version 2.40.1 (20161225.0304)
 -->
<!-- Title: org.cobbzilla.util.xml.TidyHandlebarsSpanMerger.mergeSpans Pages: 1 -->
<!--zoomable 235 -->
<svg id="main" version="1.1" xmlns="http://www.w3.org/2000/svg" xmlns:xlink="http://www.w3.org/1999/xlink" xml:space="preserve" onload="init(evt)">
<style type="text/css"><![CDATA[
.edge:hover path { stroke: red; }
.edge:hover polygon { stroke: red; fill: red; }
]]></style>
<script type="text/javascript"><![CDATA[
var edges = document.getElementsByTagName('g');
if (edges && edges.length) {
  for (var i=0;i<edges.length;i++) {
    if (edges[i].id.substr(0,4)=='edge') {
      edges[i].setAttribute('class','edge');
    }
  }
}
]]></script>
        <defs>
                <circle id="rim" cx="0" cy="0" r="7"/>
                <circle id="rim2" cx="0" cy="0" r="3.5"/>
                <g id="zoomPlus">
                        <use xlink:href="#rim" fill="#404040">
                                <set attributeName="fill" to="#808080" begin="zoomplus.mouseover" end="zoomplus.mouseout"/>
                        </use>
                        <path d="M-4,0h8M0,-4v8" fill="none" stroke="white" stroke-width="1.5" pointer-events="none"/>
                </g>
                <g id="zoomMin">
                        <use xlink:href="#rim" fill="#404040">
                                <set attributeName="fill" to="#808080" begin="zoomminus.mouseover" end="zoomminus.mouseout"/>
                        </use>
                        <path d="M-4,0h8" fill="none" stroke="white" stroke-width="1.5" pointer-events="none"/>
                </g>
                <g id="dirArrow">
                        <path fill="none" stroke="white" stroke-width="1.5" d="M0,-3.0v7 M-2.5,-0.5L0,-3.0L2.5,-0.5"/>
                </g>
               <g id="resetDef">
                       <use xlink:href="#rim2" fill="#404040">
                               <set attributeName="fill" to="#808080" begin="reset.mouseover" end="reset.mouseout"/>
                       </use>
               </g>
        </defs>

<script type="text/javascript">
var viewWidth = 590;
var viewHeight = 235;
var sectionId = 'dynsection-0';
</script>
<script xlink:href="../../svgpan.js"/>
<svg id="graph" class="graph">
<g id="viewport">
<title>org.cobbzilla.util.xml.TidyHandlebarsSpanMerger.mergeSpans</title>
<!-- Node0 -->
<g id="node1" class="node">
<title>Node0</title>
<polygon fill="#bfbfbf" stroke="#000000" points="0,-98.5 0,-128.5 176,-128.5 176,-98.5 0,-98.5"/>
<text text-anchor="start" x="8" y="-116.5" font-family="Helvetica,sans-Serif" font-size="10.00" fill="#000000">org.cobbzilla.util.xml.Tidy</text>
<text text-anchor="middle" x="88" y="-105.5" font-family="Helvetica,sans-Serif" font-size="10.00" fill="#000000">HandlebarsSpanMerger.mergeSpans</text>
</g>
<!-- Node1 -->
<g id="node2" class="node">
<title>Node1</title>
<g id="a_node2"><a xlink:href="../../db/dd4/classorg_1_1cobbzilla_1_1util_1_1xml_1_1TidyHandlebarsSpanMerger_a164345e18c56a9955a43c9a699c7109d.html#a164345e18c56a9955a43c9a699c7109d" target="_top" xlink:title="org.cobbzilla.util.xml.Tidy\lHandlebarsSpanMerger.append">
<polygon fill="none" stroke="#000000" points="220.5,-196.5 220.5,-226.5 373.5,-226.5 373.5,-196.5 220.5,-196.5"/>
<text text-anchor="start" x="228.5" y="-214.5" font-family="Helvetica,sans-Serif" font-size="10.00" fill="#000000">org.cobbzilla.util.xml.Tidy</text>
<text text-anchor="middle" x="297" y="-203.5" font-family="Helvetica,sans-Serif" font-size="10.00" fill="#000000">HandlebarsSpanMerger.append</text>
</a>
</g>
</g>
<!-- Node0&#45;&gt;Node1 -->
<g id="edge1" class="edge">
<title>Node0&#45;&gt;Node1</title>
<path fill="none" stroke="#191970" d="M109.464,-128.7022C133.4776,-145.1279 174.0075,-171.1399 212,-187.5 216.6344,-189.4956 221.4818,-191.3748 226.4109,-193.1344"/>
<polygon fill="#191970" stroke="#191970" points="225.3616,-196.4743 235.956,-196.3701 227.609,-189.8449 225.3616,-196.4743"/>
</g>
<!-- Node2 -->
<g id="node3" class="node">
<title>Node2</title>
<g id="a_node3"><a xlink:href="../../db/dd4/classorg_1_1cobbzilla_1_1util_1_1xml_1_1TidyHandlebarsSpanMerger_acb44967a7a5bab8dd3477ac9186011b4.html#acb44967a7a5bab8dd3477ac9186011b4" target="_top" xlink:title="org.cobbzilla.util.xml.Tidy\lHandlebarsSpanMerger.collectText">
<polygon fill="none" stroke="#000000" points="212,-147.5 212,-177.5 382,-177.5 382,-147.5 212,-147.5"/>
<text text-anchor="start" x="220" y="-165.5" font-family="Helvetica,sans-Serif" font-size="10.00" fill="#000000">org.cobbzilla.util.xml.Tidy</text>
<text text-anchor="middle" x="297" y="-154.5" font-family="Helvetica,sans-Serif" font-size="10.00" fill="#000000">HandlebarsSpanMerger.collectText</text>
</a>
</g>
</g>
<!-- Node0&#45;&gt;Node2 -->
<g id="edge2" class="edge">
<title>Node0&#45;&gt;Node2</title>
<path fill="none" stroke="#191970" d="M152.1272,-128.5346C174.596,-133.8024 200.0072,-139.7601 223.2034,-145.1984"/>
<polygon fill="#191970" stroke="#191970" points="222.4591,-148.6187 232.994,-147.4938 224.057,-141.8035 222.4591,-148.6187"/>
</g>
<!-- Node3 -->
<g id="node4" class="node">
<title>Node3</title>
<g id="a_node4"><a xlink:href="../../d0/d68/classorg_1_1cobbzilla_1_1util_1_1collection_1_1mappy_1_1Mappy_a09659b26577a98d1e6ce1d0a1479867e.html#a09659b26577a98d1e6ce1d0a1479867e" target="_top" xlink:title="Add a mapping. ">
<polygon fill="none" stroke="#000000" points="213.5,-98.5 213.5,-128.5 380.5,-128.5 380.5,-98.5 213.5,-98.5"/>
<text text-anchor="start" x="221.5" y="-116.5" font-family="Helvetica,sans-Serif" font-size="10.00" fill="#000000">org.cobbzilla.util.collection.mappy.</text>
<text text-anchor="middle" x="297" y="-105.5" font-family="Helvetica,sans-Serif" font-size="10.00" fill="#000000">Mappy&lt; K, V, List&lt; V &gt; &gt;::put</text>
</a>
</g>
</g>
<!-- Node0&#45;&gt;Node3 -->
<g id="edge3" class="edge">
<title>Node0&#45;&gt;Node3</title>
<path fill="none" stroke="#191970" d="M176.0291,-113.5C185.0261,-113.5 194.1903,-113.5 203.2457,-113.5"/>
<polygon fill="#191970" stroke="#191970" points="203.4086,-117.0001 213.4086,-113.5 203.4085,-110.0001 203.4086,-117.0001"/>
</g>
<!-- Node4 -->
<g id="node5" class="node">
<title>Node4</title>
<g id="a_node5"><a xlink:href="../../db/dd4/classorg_1_1cobbzilla_1_1util_1_1xml_1_1TidyHandlebarsSpanMerger_a6046546174be89d7469aaf1bcbce660d.html#a6046546174be89d7469aaf1bcbce660d" target="_top" xlink:title="org.cobbzilla.util.xml.Tidy\lHandlebarsSpanMerger.sameAttrs">
<polygon fill="none" stroke="#000000" points="213.5,-49.5 213.5,-79.5 380.5,-79.5 380.5,-49.5 213.5,-49.5"/>
<text text-anchor="start" x="221.5" y="-67.5" font-family="Helvetica,sans-Serif" font-size="10.00" fill="#000000">org.cobbzilla.util.xml.Tidy</text>
<text text-anchor="middle" x="297" y="-56.5" font-family="Helvetica,sans-Serif" font-size="10.00" fill="#000000">HandlebarsSpanMerger.sameAttrs</text>
</a>
</g>
</g>
<!-- Node0&#45;&gt;Node4 -->
<g id="edge4" class="edge">
<title>Node0&#45;&gt;Node4</title>
<path fill="none" stroke="#191970" d="M152.1272,-98.4654C174.596,-93.1976 200.0072,-87.2399 223.2034,-81.8016"/>
<polygon fill="#191970" stroke="#191970" points="224.057,-85.1965 232.994,-79.5062 222.4591,-78.3813 224.057,-85.1965"/>
</g>
<!-- Node6 -->
<g id="node7" class="node">
<title>Node6</title>
<g id="a_node7"><a xlink:href="../../db/dd4/classorg_1_1cobbzilla_1_1util_1_1xml_1_1TidyHandlebarsSpanMerger_a2f57f49f74745911c33141bdfd0d4e35.html#a2f57f49f74745911c33141bdfd0d4e35" target="_top" xlink:title="org.cobbzilla.util.xml.Tidy\lHandlebarsSpanMerger.setSpan">
<polygon fill="none" stroke="#000000" points="218,-.5 218,-30.5 376,-30.5 376,-.5 218,-.5"/>
<text text-anchor="start" x="226" y="-18.5" font-family="Helvetica,sans-Serif" font-size="10.00" fill="#000000">org.cobbzilla.util.xml.Tidy</text>
<text text-anchor="middle" x="297" y="-7.5" font-family="Helvetica,sans-Serif" font-size="10.00" fill="#000000">HandlebarsSpanMerger.setSpan</text>
</a>
</g>
</g>
<!-- Node0&#45;&gt;Node6 -->
<g id="edge6" class="edge">
<title>Node0&#45;&gt;Node6</title>
<path fill="none" stroke="#191970" d="M109.9695,-98.3062C134.0932,-82.1717 174.4109,-56.7956 212,-40.5 217.4246,-38.1483 223.1365,-35.9392 228.9271,-33.8829"/>
<polygon fill="#191970" stroke="#191970" points="230.3618,-37.0924 238.7098,-30.5684 228.1154,-30.4626 230.3618,-37.0924"/>
</g>
<!-- Node5 -->
<g id="node6" class="node">
<title>Node5</title>
<g id="a_node6"><a xlink:href="../../db/dd4/classorg_1_1cobbzilla_1_1util_1_1xml_1_1TidyHandlebarsSpanMerger_aec4181b12d7b02dcb1bff29493ebea93.html#aec4181b12d7b02dcb1bff29493ebea93" target="_top" xlink:title="org.cobbzilla.util.xml.Tidy\lHandlebarsSpanMerger.isGoBack">
<polygon fill="none" stroke="#000000" points="418,-49.5 418,-79.5 582,-79.5 582,-49.5 418,-49.5"/>
<text text-anchor="start" x="426" y="-67.5" font-family="Helvetica,sans-Serif" font-size="10.00" fill="#000000">org.cobbzilla.util.xml.Tidy</text>
<text text-anchor="middle" x="500" y="-56.5" font-family="Helvetica,sans-Serif" font-size="10.00" fill="#000000">HandlebarsSpanMerger.isGoBack</text>
</a>
</g>
</g>
<!-- Node4&#45;&gt;Node5 -->
<g id="edge5" class="edge">
<title>Node4&#45;&gt;Node5</title>
<path fill="none" stroke="#191970" d="M380.7399,-64.5C389.6273,-64.5 398.7023,-64.5 407.6807,-64.5"/>
<polygon fill="#191970" stroke="#191970" points="407.7614,-68.0001 417.7613,-64.5 407.7613,-61.0001 407.7614,-68.0001"/>
</g>
</g>
</svg>
        <g id="navigator" transform="translate(0 0)" fill="#404254">
                <rect fill="#f2f5e9" fill-opacity="0.5" stroke="#606060" stroke-width=".5" x="0" y="0" width="60" height="60"/>
                <use id="zoomplus" xlink:href="#zoomPlus" x="17" y="9" onmousedown="handleZoom(evt,'in')"/>
                <use id="zoomminus" xlink:href="#zoomMin" x="42" y="9" onmousedown="handleZoom(evt,'out')"/>
                <use id="reset" xlink:href="#resetDef" x="30" y="36" onmousedown="handleReset()"/>
                <g id="arrowUp" xlink:href="#dirArrow" transform="translate(30 24)" onmousedown="handlePan(0,-1)">
                  <use xlink:href="#rim" fill="#404040">
                        <set attributeName="fill" to="#808080" begin="arrowUp.mouseover" end="arrowUp.mouseout"/>
                  </use>
                  <path fill="none" stroke="white" stroke-width="1.5" d="M0,-3.0v7 M-2.5,-0.5L0,-3.0L2.5,-0.5"/>
                </g>
                <g id="arrowRight" xlink:href="#dirArrow" transform="rotate(90) translate(36 -43)" onmousedown="handlePan(1,0)">
                  <use xlink:href="#rim" fill="#404040">
                        <set attributeName="fill" to="#808080" begin="arrowRight.mouseover" end="arrowRight.mouseout"/>
                  </use>
                  <path fill="none" stroke="white" stroke-width="1.5" d="M0,-3.0v7 M-2.5,-0.5L0,-3.0L2.5,-0.5"/>
                </g>
                <g id="arrowDown" xlink:href="#dirArrow" transform="rotate(180) translate(-30 -48)" onmousedown="handlePan(0,1)">
                  <use xlink:href="#rim" fill="#404040">
                        <set attributeName="fill" to="#808080" begin="arrowDown.mouseover" end="arrowDown.mouseout"/>
                  </use>
                  <path fill="none" stroke="white" stroke-width="1.5" d="M0,-3.0v7 M-2.5,-0.5L0,-3.0L2.5,-0.5"/>
                </g>
                <g id="arrowLeft" xlink:href="#dirArrow" transform="rotate(270) translate(-36 17)" onmousedown="handlePan(-1,0)">
                  <use xlink:href="#rim" fill="#404040">
                        <set attributeName="fill" to="#808080" begin="arrowLeft.mouseover" end="arrowLeft.mouseout"/>
                  </use>
                  <path fill="none" stroke="white" stroke-width="1.5" d="M0,-3.0v7 M-2.5,-0.5L0,-3.0L2.5,-0.5"/>
                </g>
        </g>
        <svg viewBox="0 0 15 15" width="100%" height="30px" preserveAspectRatio="xMaxYMin meet">
         <g id="arrow_out" transform="scale(0.3 0.3)">
          <a xlink:href="classorg_1_1cobbzilla_1_1util_1_1xml_1_1TidyHandlebarsSpanMerger_a958ca0c5e73d8c7f601124bc78f78f6d_a958ca0c5e73d8c7f601124bc78f78f6d_cgraph_org.svg" target="_base">
           <rect id="button" ry="5" rx="5" y="6" x="6" height="38" width="38"
                fill="#f2f5e9" fill-opacity="0.5" stroke="#606060" stroke-width="1.0"/>
           <path id="arrow"
             d="M 11.500037,31.436501 C 11.940474,20.09759 22.043105,11.32322 32.158766,21.979434 L 37.068811,17.246167 C 37.068811,17.246167 37.088388,32 37.088388,32 L 22.160133,31.978069 C 22.160133,31.978069 26.997745,27.140456 26.997745,27.140456 C 18.528582,18.264221 13.291696,25.230495 11.500037,31.436501 z"
             style="fill:#404040;"/>
          </a>
         </g>
        </svg>
</svg>
