<?xml version="1.0" encoding="UTF-8" standalone="no"?>
<!DOCTYPE svg PUBLIC "-//W3C//DTD SVG 1.1//EN"
 "http://www.w3.org/Graphics/SVG/1.1/DTD/svg11.dtd">
<!-- Generated by graphviz version 2.40.1 (20161225.0304)
 -->
<!-- Title: org.cobbzilla.util.xml.TidyHandlebarsSpanMerger.collectText Pages: 1 -->
<svg width="582pt" height="39pt"
 viewBox="0.00 0.00 582.00 39.00" xmlns="http://www.w3.org/2000/svg" xmlns:xlink="http://www.w3.org/1999/xlink">
<g id="graph0" class="graph" transform="scale(1 1) rotate(0) translate(4 35)">
<title>org.cobbzilla.util.xml.TidyHandlebarsSpanMerger.collectText</title>
<!-- Node1 -->
<g id="node1" class="node">
<title>Node1</title>
<polygon fill="#bfbfbf" stroke="#000000" points="0,-.5 0,-30.5 170,-30.5 170,-.5 0,-.5"/>
<text text-anchor="start" x="8" y="-18.5" font-family="Helvetica,sans-Serif" font-size="10.00" fill="#000000">org.cobbzilla.util.xml.Tidy</text>
<text text-anchor="middle" x="85" y="-7.5" font-family="Helvetica,sans-Serif" font-size="10.00" fill="#000000">HandlebarsSpanMerger.collectText</text>
</g>
<!-- Node2 -->
<g id="node2" class="node">
<title>Node2</title>
<g id="a_node2"><a xlink:href="../../db/dd4/classorg_1_1cobbzilla_1_1util_1_1xml_1_1TidyHandlebarsSpanMerger_a958ca0c5e73d8c7f601124bc78f78f6d.html#a958ca0c5e73d8c7f601124bc78f78f6d" target="_top" xlink:title="org.cobbzilla.util.xml.Tidy\lHandlebarsSpanMerger.mergeSpans">
<polygon fill="none" stroke="#000000" points="206,-.5 206,-30.5 382,-30.5 382,-.5 206,-.5"/>
<text text-anchor="start" x="214" y="-18.5" font-family="Helvetica,sans-Serif" font-size="10.00" fill="#000000">org.cobbzilla.util.xml.Tidy</text>
<text text-anchor="middle" x="294" y="-7.5" font-family="Helvetica,sans-Serif" font-size="10.00" fill="#000000">HandlebarsSpanMerger.mergeSpans</text>
</a>
</g>
</g>
<!-- Node1&#45;&gt;Node2 -->
<g id="edge1" class="edge">
<title>Node1&#45;&gt;Node2</title>
<path fill="none" stroke="#191970" d="M180.2711,-15.5C188.7302,-15.5 197.2705,-15.5 205.6681,-15.5"/>
<polygon fill="#191970" stroke="#191970" points="180.0083,-12.0001 170.0083,-15.5 180.0083,-19.0001 180.0083,-12.0001"/>
</g>
<!-- Node3 -->
<g id="node3" class="node">
<title>Node3</title>
<g id="a_node3"><a xlink:href="../../db/dd4/classorg_1_1cobbzilla_1_1util_1_1xml_1_1TidyHandlebarsSpanMerger_a4c6b9d401179911ce0ec58d89ea74be7.html#a4c6b9d401179911ce0ec58d89ea74be7" target="_top" xlink:title="org.cobbzilla.util.xml.Tidy\lHandlebarsSpanMerger.process">
<polygon fill="none" stroke="#000000" points="418,-.5 418,-30.5 574,-30.5 574,-.5 418,-.5"/>
<text text-anchor="start" x="426" y="-18.5" font-family="Helvetica,sans-Serif" font-size="10.00" fill="#000000">org.cobbzilla.util.xml.Tidy</text>
<text text-anchor="middle" x="496" y="-7.5" font-family="Helvetica,sans-Serif" font-size="10.00" fill="#000000">HandlebarsSpanMerger.process</text>
</a>
</g>
</g>
<!-- Node2&#45;&gt;Node3 -->
<g id="edge2" class="edge">
<title>Node2&#45;&gt;Node3</title>
<path fill="none" stroke="#191970" d="M392.1026,-15.5C400.7218,-15.5 409.369,-15.5 417.7931,-15.5"/>
<polygon fill="#191970" stroke="#191970" points="392.0126,-12.0001 382.0125,-15.5 392.0125,-19.0001 392.0126,-12.0001"/>
</g>
</g>
</svg>
