<?xml version="1.0" encoding="UTF-8" standalone="no"?>
<!DOCTYPE svg PUBLIC "-//W3C//DTD SVG 1.1//EN"
 "http://www.w3.org/Graphics/SVG/1.1/DTD/svg11.dtd">
<!-- Generated by graphviz version 2.40.1 (20161225.0304)
 -->
<!-- Title: org.cobbzilla.util.time.TimeUtil.startOfYearMillis Pages: 1 -->
<svg width="285pt" height="57pt"
 viewBox="0.00 0.00 285.00 57.00" xmlns="http://www.w3.org/2000/svg" xmlns:xlink="http://www.w3.org/1999/xlink">
<g id="graph0" class="graph" transform="scale(1 1) rotate(0) translate(4 53)">
<title>org.cobbzilla.util.time.TimeUtil.startOfYearMillis</title>
<!-- Node0 -->
<g id="node1" class="node">
<title>Node0</title>
<polygon fill="#bfbfbf" stroke="#000000" points="0,-.5 0,-30.5 129,-30.5 129,-.5 0,-.5"/>
<text text-anchor="start" x="8" y="-18.5" font-family="Helvetica,sans-Serif" font-size="10.00" fill="#000000">org.cobbzilla.util.time.</text>
<text text-anchor="middle" x="64.5" y="-7.5" font-family="Helvetica,sans-Serif" font-size="10.00" fill="#000000">TimeUtil.startOfYearMillis</text>
</g>
<!-- Node1 -->
<g id="node2" class="node">
<title>Node1</title>
<g id="a_node2"><a xlink:href="../../d2/dea/classorg_1_1cobbzilla_1_1util_1_1time_1_1TimeUtil_aadd7a1751bf7e6956a61738653a24544.html#aadd7a1751bf7e6956a61738653a24544" target="_top" xlink:title="org.cobbzilla.util.time.\lTimeUtil.startOfYear">
<polygon fill="none" stroke="#000000" points="165,-.5 165,-30.5 277,-30.5 277,-.5 165,-.5"/>
<text text-anchor="start" x="173" y="-18.5" font-family="Helvetica,sans-Serif" font-size="10.00" fill="#000000">org.cobbzilla.util.time.</text>
<text text-anchor="middle" x="221" y="-7.5" font-family="Helvetica,sans-Serif" font-size="10.00" fill="#000000">TimeUtil.startOfYear</text>
</a>
</g>
</g>
<!-- Node0&#45;&gt;Node1 -->
<g id="edge1" class="edge">
<title>Node0&#45;&gt;Node1</title>
<path fill="none" stroke="#191970" d="M129.0581,-15.5C137.4385,-15.5 146.0351,-15.5 154.4473,-15.5"/>
<polygon fill="#191970" stroke="#191970" points="154.5898,-19.0001 164.5898,-15.5 154.5897,-12.0001 154.5898,-19.0001"/>
</g>
<!-- Node1&#45;&gt;Node1 -->
<g id="edge2" class="edge">
<title>Node1&#45;&gt;Node1</title>
<path fill="none" stroke="#191970" d="M193.8138,-30.659C187.2582,-40.0566 196.3203,-49 221,-49 236.0392,-49 245.279,-45.679 248.7193,-40.9579"/>
<polygon fill="#191970" stroke="#191970" points="252.1986,-40.4647 248.1862,-30.659 245.2079,-40.8266 252.1986,-40.4647"/>
</g>
</g>
</svg>
