<?xml version="1.0" encoding="UTF-8" standalone="no"?>
<!DOCTYPE svg PUBLIC "-//W3C//DTD SVG 1.1//EN"
 "http://www.w3.org/Graphics/SVG/1.1/DTD/svg11.dtd">
<!-- Generated by graphviz version 2.40.1 (20161225.0304)
 -->
<!-- Title: org.cobbzilla.util.time.TimeUtil.yesterdayMillis Pages: 1 -->
<svg width="278pt" height="57pt"
 viewBox="0.00 0.00 278.00 57.00" xmlns="http://www.w3.org/2000/svg" xmlns:xlink="http://www.w3.org/1999/xlink">
<g id="graph0" class="graph" transform="scale(1 1) rotate(0) translate(4 53)">
<title>org.cobbzilla.util.time.TimeUtil.yesterdayMillis</title>
<!-- Node0 -->
<g id="node1" class="node">
<title>Node0</title>
<polygon fill="#bfbfbf" stroke="#000000" points="0,-.5 0,-30.5 122,-30.5 122,-.5 0,-.5"/>
<text text-anchor="start" x="8" y="-18.5" font-family="Helvetica,sans-Serif" font-size="10.00" fill="#000000">org.cobbzilla.util.time.</text>
<text text-anchor="middle" x="61" y="-7.5" font-family="Helvetica,sans-Serif" font-size="10.00" fill="#000000">TimeUtil.yesterdayMillis</text>
</g>
<!-- Node1 -->
<g id="node2" class="node">
<title>Node1</title>
<g id="a_node2"><a xlink:href="../../d2/dea/classorg_1_1cobbzilla_1_1util_1_1time_1_1TimeUtil_a7f05cd877602ed0d766ba678ae749f68.html#a7f05cd877602ed0d766ba678ae749f68" target="_top" xlink:title="org.cobbzilla.util.time.\lTimeUtil.yesterday">
<polygon fill="none" stroke="#000000" points="158,-.5 158,-30.5 270,-30.5 270,-.5 158,-.5"/>
<text text-anchor="start" x="166" y="-18.5" font-family="Helvetica,sans-Serif" font-size="10.00" fill="#000000">org.cobbzilla.util.time.</text>
<text text-anchor="middle" x="214" y="-7.5" font-family="Helvetica,sans-Serif" font-size="10.00" fill="#000000">TimeUtil.yesterday</text>
</a>
</g>
</g>
<!-- Node0&#45;&gt;Node1 -->
<g id="edge1" class="edge">
<title>Node0&#45;&gt;Node1</title>
<path fill="none" stroke="#191970" d="M122.3494,-15.5C130.624,-15.5 139.145,-15.5 147.5039,-15.5"/>
<polygon fill="#191970" stroke="#191970" points="147.5921,-19.0001 157.5921,-15.5 147.592,-12.0001 147.5921,-19.0001"/>
</g>
<!-- Node1&#45;&gt;Node1 -->
<g id="edge2" class="edge">
<title>Node1&#45;&gt;Node1</title>
<path fill="none" stroke="#191970" d="M187.5109,-30.659C181.1234,-40.0566 189.9531,-49 214,-49 228.6536,-49 237.6564,-45.679 241.0086,-40.9579"/>
<polygon fill="#191970" stroke="#191970" points="244.4885,-40.47 240.4891,-30.659 237.4974,-40.8226 244.4885,-40.47"/>
</g>
</g>
</svg>
