<?xml version="1.0" encoding="UTF-8" standalone="no"?>
<!DOCTYPE svg PUBLIC "-//W3C//DTD SVG 1.1//EN"
 "http://www.w3.org/Graphics/SVG/1.1/DTD/svg11.dtd">
<!-- Generated by graphviz version 2.40.1 (20161225.0304)
 -->
<!-- Title: org.cobbzilla.util.time.TimeUtil.lastYear Pages: 1 -->
<svg width="271pt" height="57pt"
 viewBox="0.00 0.00 271.00 57.00" xmlns="http://www.w3.org/2000/svg" xmlns:xlink="http://www.w3.org/1999/xlink">
<g id="graph0" class="graph" transform="scale(1 1) rotate(0) translate(4 53)">
<title>org.cobbzilla.util.time.TimeUtil.lastYear</title>
<!-- Node1 -->
<g id="node1" class="node">
<title>Node1</title>
<polygon fill="#bfbfbf" stroke="#000000" points="0,-.5 0,-30.5 112,-30.5 112,-.5 0,-.5"/>
<text text-anchor="start" x="8" y="-18.5" font-family="Helvetica,sans-Serif" font-size="10.00" fill="#000000">org.cobbzilla.util.time.</text>
<text text-anchor="middle" x="56" y="-7.5" font-family="Helvetica,sans-Serif" font-size="10.00" fill="#000000">TimeUtil.lastYear</text>
</g>
<!-- Node1&#45;&gt;Node1 -->
<g id="edge1" class="edge">
<title>Node1&#45;&gt;Node1</title>
<path fill="none" stroke="#191970" d="M29.7022,-40.9579C32.9661,-45.679 41.7321,-49 56,-49 79.4141,-49 88.0114,-40.0566 81.7921,-30.659"/>
<polygon fill="#191970" stroke="#191970" points="33.2132,-40.8187 30.2079,-30.659 26.2216,-40.4753 33.2132,-40.8187"/>
</g>
<!-- Node2 -->
<g id="node2" class="node">
<title>Node2</title>
<g id="a_node2"><a xlink:href="../../d2/dea/classorg_1_1cobbzilla_1_1util_1_1time_1_1TimeUtil_a05dbdcb054d7093468de4ab77eff6256.html#a05dbdcb054d7093468de4ab77eff6256" target="_top" xlink:title="org.cobbzilla.util.time.\lTimeUtil.lastYearMillis">
<polygon fill="none" stroke="#000000" points="148,-.5 148,-30.5 263,-30.5 263,-.5 148,-.5"/>
<text text-anchor="start" x="156" y="-18.5" font-family="Helvetica,sans-Serif" font-size="10.00" fill="#000000">org.cobbzilla.util.time.</text>
<text text-anchor="middle" x="205.5" y="-7.5" font-family="Helvetica,sans-Serif" font-size="10.00" fill="#000000">TimeUtil.lastYearMillis</text>
</a>
</g>
</g>
<!-- Node1&#45;&gt;Node2 -->
<g id="edge2" class="edge">
<title>Node1&#45;&gt;Node2</title>
<path fill="none" stroke="#191970" d="M122.2837,-15.5C130.7211,-15.5 139.3043,-15.5 147.5958,-15.5"/>
<polygon fill="#191970" stroke="#191970" points="122.0937,-12.0001 112.0936,-15.5 122.0936,-19.0001 122.0937,-12.0001"/>
</g>
</g>
</svg>
