<?xml version="1.0" encoding="UTF-8" standalone="no"?>
<!DOCTYPE svg PUBLIC "-//W3C//DTD SVG 1.1//EN"
 "http://www.w3.org/Graphics/SVG/1.1/DTD/svg11.dtd">
<!-- Generated by graphviz version 2.40.1 (20161225.0304)
 -->
<!-- Title: org.cobbzilla.util.time.TimeUtil.startOfWeekMillis Pages: 1 -->
<svg width="290pt" height="57pt"
 viewBox="0.00 0.00 290.00 57.00" xmlns="http://www.w3.org/2000/svg" xmlns:xlink="http://www.w3.org/1999/xlink">
<g id="graph0" class="graph" transform="scale(1 1) rotate(0) translate(4 53)">
<title>org.cobbzilla.util.time.TimeUtil.startOfWeekMillis</title>
<!-- Node0 -->
<g id="node1" class="node">
<title>Node0</title>
<polygon fill="#bfbfbf" stroke="#000000" points="0,-.5 0,-30.5 134,-30.5 134,-.5 0,-.5"/>
<text text-anchor="start" x="8" y="-18.5" font-family="Helvetica,sans-Serif" font-size="10.00" fill="#000000">org.cobbzilla.util.time.</text>
<text text-anchor="middle" x="67" y="-7.5" font-family="Helvetica,sans-Serif" font-size="10.00" fill="#000000">TimeUtil.startOfWeekMillis</text>
</g>
<!-- Node1 -->
<g id="node2" class="node">
<title>Node1</title>
<g id="a_node2"><a xlink:href="../../d2/dea/classorg_1_1cobbzilla_1_1util_1_1time_1_1TimeUtil_a85b4585c15e9736966f378f238120e15.html#a85b4585c15e9736966f378f238120e15" target="_top" xlink:title="org.cobbzilla.util.time.\lTimeUtil.startOfWeek">
<polygon fill="none" stroke="#000000" points="170,-.5 170,-30.5 282,-30.5 282,-.5 170,-.5"/>
<text text-anchor="start" x="178" y="-18.5" font-family="Helvetica,sans-Serif" font-size="10.00" fill="#000000">org.cobbzilla.util.time.</text>
<text text-anchor="middle" x="226" y="-7.5" font-family="Helvetica,sans-Serif" font-size="10.00" fill="#000000">TimeUtil.startOfWeek</text>
</a>
</g>
</g>
<!-- Node0&#45;&gt;Node1 -->
<g id="edge1" class="edge">
<title>Node0&#45;&gt;Node1</title>
<path fill="none" stroke="#191970" d="M134.4303,-15.5C142.8546,-15.5 151.464,-15.5 159.8682,-15.5"/>
<polygon fill="#191970" stroke="#191970" points="159.9915,-19.0001 169.9915,-15.5 159.9914,-12.0001 159.9915,-19.0001"/>
</g>
<!-- Node1&#45;&gt;Node1 -->
<g id="edge2" class="edge">
<title>Node1&#45;&gt;Node1</title>
<path fill="none" stroke="#191970" d="M198.4652,-30.659C191.8257,-40.0566 201.0039,-49 226,-49 241.232,-49 250.5902,-45.679 254.0747,-40.9579"/>
<polygon fill="#191970" stroke="#191970" points="257.5536,-40.462 253.5348,-30.659 250.5632,-40.8286 257.5536,-40.462"/>
</g>
</g>
</svg>
