<?xml version="1.0" encoding="UTF-8" standalone="no"?>
<!DOCTYPE svg PUBLIC "-//W3C//DTD SVG 1.1//EN"
 "http://www.w3.org/Graphics/SVG/1.1/DTD/svg11.dtd">
<!-- Generated by graphviz version 2.40.1 (20161225.0304)
 -->
<!-- Title: org.cobbzilla.util.time.TimeUtil.lastYearMillis Pages: 1 -->
<svg width="271pt" height="57pt"
 viewBox="0.00 0.00 271.00 57.00" xmlns="http://www.w3.org/2000/svg" xmlns:xlink="http://www.w3.org/1999/xlink">
<g id="graph0" class="graph" transform="scale(1 1) rotate(0) translate(4 53)">
<title>org.cobbzilla.util.time.TimeUtil.lastYearMillis</title>
<!-- Node0 -->
<g id="node1" class="node">
<title>Node0</title>
<polygon fill="#bfbfbf" stroke="#000000" points="0,-.5 0,-30.5 115,-30.5 115,-.5 0,-.5"/>
<text text-anchor="start" x="8" y="-18.5" font-family="Helvetica,sans-Serif" font-size="10.00" fill="#000000">org.cobbzilla.util.time.</text>
<text text-anchor="middle" x="57.5" y="-7.5" font-family="Helvetica,sans-Serif" font-size="10.00" fill="#000000">TimeUtil.lastYearMillis</text>
</g>
<!-- Node1 -->
<g id="node2" class="node">
<title>Node1</title>
<g id="a_node2"><a xlink:href="../../d2/dea/classorg_1_1cobbzilla_1_1util_1_1time_1_1TimeUtil_a3c4267a2ffa6bcb315e00c1505252d28.html#a3c4267a2ffa6bcb315e00c1505252d28" target="_top" xlink:title="org.cobbzilla.util.time.\lTimeUtil.lastYear">
<polygon fill="none" stroke="#000000" points="151,-.5 151,-30.5 263,-30.5 263,-.5 151,-.5"/>
<text text-anchor="start" x="159" y="-18.5" font-family="Helvetica,sans-Serif" font-size="10.00" fill="#000000">org.cobbzilla.util.time.</text>
<text text-anchor="middle" x="207" y="-7.5" font-family="Helvetica,sans-Serif" font-size="10.00" fill="#000000">TimeUtil.lastYear</text>
</a>
</g>
</g>
<!-- Node0&#45;&gt;Node1 -->
<g id="edge1" class="edge">
<title>Node0&#45;&gt;Node1</title>
<path fill="none" stroke="#191970" d="M115.3006,-15.5C123.5956,-15.5 132.1845,-15.5 140.629,-15.5"/>
<polygon fill="#191970" stroke="#191970" points="140.8283,-19.0001 150.8282,-15.5 140.8282,-12.0001 140.8283,-19.0001"/>
</g>
<!-- Node1&#45;&gt;Node1 -->
<g id="edge2" class="edge">
<title>Node1&#45;&gt;Node1</title>
<path fill="none" stroke="#191970" d="M181.2079,-30.659C174.9886,-40.0566 183.5859,-49 207,-49 221.2679,-49 230.0339,-45.679 233.2978,-40.9579"/>
<polygon fill="#191970" stroke="#191970" points="236.7784,-40.4753 232.7921,-30.659 229.7868,-40.8187 236.7784,-40.4753"/>
</g>
</g>
</svg>
