<?xml version="1.0" encoding="UTF-8" standalone="no"?>
<!DOCTYPE svg PUBLIC "-//W3C//DTD SVG 1.1//EN"
 "http://www.w3.org/Graphics/SVG/1.1/DTD/svg11.dtd">
<!-- Generated by graphviz version 2.40.1 (20161225.0304)
 -->
<!-- Title: org.cobbzilla.util.time.TimeUtil.startOfMonthMillis Pages: 1 -->
<svg width="293pt" height="57pt"
 viewBox="0.00 0.00 293.00 57.00" xmlns="http://www.w3.org/2000/svg" xmlns:xlink="http://www.w3.org/1999/xlink">
<g id="graph0" class="graph" transform="scale(1 1) rotate(0) translate(4 53)">
<title>org.cobbzilla.util.time.TimeUtil.startOfMonthMillis</title>
<!-- Node0 -->
<g id="node1" class="node">
<title>Node0</title>
<polygon fill="#bfbfbf" stroke="#000000" points="0,-.5 0,-30.5 136,-30.5 136,-.5 0,-.5"/>
<text text-anchor="start" x="8" y="-18.5" font-family="Helvetica,sans-Serif" font-size="10.00" fill="#000000">org.cobbzilla.util.time.</text>
<text text-anchor="middle" x="68" y="-7.5" font-family="Helvetica,sans-Serif" font-size="10.00" fill="#000000">TimeUtil.startOfMonthMillis</text>
</g>
<!-- Node1 -->
<g id="node2" class="node">
<title>Node1</title>
<g id="a_node2"><a xlink:href="../../d2/dea/classorg_1_1cobbzilla_1_1util_1_1time_1_1TimeUtil_a355284d58e5265fb15b314a3d120357f.html#a355284d58e5265fb15b314a3d120357f" target="_top" xlink:title="org.cobbzilla.util.time.\lTimeUtil.startOfMonth">
<polygon fill="none" stroke="#000000" points="172,-.5 172,-30.5 285,-30.5 285,-.5 172,-.5"/>
<text text-anchor="start" x="180" y="-18.5" font-family="Helvetica,sans-Serif" font-size="10.00" fill="#000000">org.cobbzilla.util.time.</text>
<text text-anchor="middle" x="228.5" y="-7.5" font-family="Helvetica,sans-Serif" font-size="10.00" fill="#000000">TimeUtil.startOfMonth</text>
</a>
</g>
</g>
<!-- Node0&#45;&gt;Node1 -->
<g id="edge1" class="edge">
<title>Node0&#45;&gt;Node1</title>
<path fill="none" stroke="#191970" d="M136.0664,-15.5C144.5702,-15.5 153.2608,-15.5 161.7443,-15.5"/>
<polygon fill="#191970" stroke="#191970" points="161.9631,-19.0001 171.9631,-15.5 161.9631,-12.0001 161.9631,-19.0001"/>
</g>
<!-- Node1&#45;&gt;Node1 -->
<g id="edge2" class="edge">
<title>Node1&#45;&gt;Node1</title>
<path fill="none" stroke="#191970" d="M200.6167,-30.659C193.8931,-40.0566 203.1875,-49 228.5,-49 243.9248,-49 253.4015,-45.679 256.9301,-40.9579"/>
<polygon fill="#191970" stroke="#191970" points="260.4086,-40.4594 256.3833,-30.659 253.4185,-40.8305 260.4086,-40.4594"/>
</g>
</g>
</svg>
