<?xml version="1.0" encoding="UTF-8" standalone="no"?>
<!DOCTYPE svg PUBLIC "-//W3C//DTD SVG 1.1//EN"
 "http://www.w3.org/Graphics/SVG/1.1/DTD/svg11.dtd">
<!-- Generated by graphviz version 2.40.1 (20161225.0304)
 -->
<!-- Title: org.cobbzilla.util.time.TimeUtil.startOfQuarter Pages: 1 -->
<svg width="304pt" height="88pt"
 viewBox="0.00 0.00 304.00 88.00" xmlns="http://www.w3.org/2000/svg" xmlns:xlink="http://www.w3.org/1999/xlink">
<g id="graph0" class="graph" transform="scale(1 1) rotate(0) translate(4 84)">
<title>org.cobbzilla.util.time.TimeUtil.startOfQuarter</title>
<!-- Node1 -->
<g id="node1" class="node">
<title>Node1</title>
<polygon fill="#bfbfbf" stroke="#000000" points="0,-24.5 0,-54.5 119,-54.5 119,-24.5 0,-24.5"/>
<text text-anchor="start" x="8" y="-42.5" font-family="Helvetica,sans-Serif" font-size="10.00" fill="#000000">org.cobbzilla.util.time.</text>
<text text-anchor="middle" x="59.5" y="-31.5" font-family="Helvetica,sans-Serif" font-size="10.00" fill="#000000">TimeUtil.startOfQuarter</text>
</g>
<!-- Node1&#45;&gt;Node1 -->
<g id="edge2" class="edge">
<title>Node1&#45;&gt;Node1</title>
<path fill="none" stroke="#191970" d="M30.0038,-64.9579C33.6647,-69.679 43.4968,-73 59.5,-73 85.7617,-73 95.4047,-64.0566 88.4289,-54.659"/>
<polygon fill="#191970" stroke="#191970" points="33.5157,-64.8364 30.5711,-54.659 26.5263,-64.4513 33.5157,-64.8364"/>
</g>
<!-- Node2 -->
<g id="node2" class="node">
<title>Node2</title>
<g id="a_node2"><a xlink:href="../../d2/dea/classorg_1_1cobbzilla_1_1util_1_1time_1_1TimeUtil_a72317ffb67af05199a513a7505b0d965.html#a72317ffb67af05199a513a7505b0d965" target="_top" xlink:title="org.cobbzilla.util.time.\lTimeUtil.lastQuarter">
<polygon fill="none" stroke="#000000" points="169.5,-49.5 169.5,-79.5 281.5,-79.5 281.5,-49.5 169.5,-49.5"/>
<text text-anchor="start" x="177.5" y="-67.5" font-family="Helvetica,sans-Serif" font-size="10.00" fill="#000000">org.cobbzilla.util.time.</text>
<text text-anchor="middle" x="225.5" y="-56.5" font-family="Helvetica,sans-Serif" font-size="10.00" fill="#000000">TimeUtil.lastQuarter</text>
</a>
</g>
</g>
<!-- Node1&#45;&gt;Node2 -->
<g id="edge1" class="edge">
<title>Node1&#45;&gt;Node2</title>
<path fill="none" stroke="#191970" d="M129.4688,-50.0375C142.7434,-52.0366 156.474,-54.1045 169.2566,-56.0296"/>
<polygon fill="#191970" stroke="#191970" points="129.8396,-46.5539 119.4298,-48.5256 128.797,-53.4759 129.8396,-46.5539"/>
</g>
<!-- Node3 -->
<g id="node3" class="node">
<title>Node3</title>
<g id="a_node3"><a xlink:href="../../d2/dea/classorg_1_1cobbzilla_1_1util_1_1time_1_1TimeUtil_acbfab128aa7639892418678a31405e20.html#acbfab128aa7639892418678a31405e20" target="_top" xlink:title="org.cobbzilla.util.time.\lTimeUtil.startOfQuarterMillis">
<polygon fill="none" stroke="#000000" points="155,-.5 155,-30.5 296,-30.5 296,-.5 155,-.5"/>
<text text-anchor="start" x="163" y="-18.5" font-family="Helvetica,sans-Serif" font-size="10.00" fill="#000000">org.cobbzilla.util.time.</text>
<text text-anchor="middle" x="225.5" y="-7.5" font-family="Helvetica,sans-Serif" font-size="10.00" fill="#000000">TimeUtil.startOfQuarterMillis</text>
</a>
</g>
</g>
<!-- Node1&#45;&gt;Node3 -->
<g id="edge3" class="edge">
<title>Node1&#45;&gt;Node3</title>
<path fill="none" stroke="#191970" d="M129.5536,-29.3718C137.9464,-28.1584 146.5203,-26.9188 154.9205,-25.7043"/>
<polygon fill="#191970" stroke="#191970" points="128.8261,-25.9405 119.4298,-30.8354 129.8278,-32.8684 128.8261,-25.9405"/>
</g>
</g>
</svg>
