<?xml version="1.0" encoding="UTF-8" standalone="no"?>
<!DOCTYPE svg PUBLIC "-//W3C//DTD SVG 1.1//EN"
 "http://www.w3.org/Graphics/SVG/1.1/DTD/svg11.dtd">
<!-- Generated by graphviz version 2.40.1 (20161225.0304)
 -->
<!-- Title: org.cobbzilla.util.time.TimeUtil.startOfYear Pages: 1 -->
<svg width="285pt" height="57pt"
 viewBox="0.00 0.00 285.00 57.00" xmlns="http://www.w3.org/2000/svg" xmlns:xlink="http://www.w3.org/1999/xlink">
<g id="graph0" class="graph" transform="scale(1 1) rotate(0) translate(4 53)">
<title>org.cobbzilla.util.time.TimeUtil.startOfYear</title>
<!-- Node1 -->
<g id="node1" class="node">
<title>Node1</title>
<polygon fill="#bfbfbf" stroke="#000000" points="0,-.5 0,-30.5 112,-30.5 112,-.5 0,-.5"/>
<text text-anchor="start" x="8" y="-18.5" font-family="Helvetica,sans-Serif" font-size="10.00" fill="#000000">org.cobbzilla.util.time.</text>
<text text-anchor="middle" x="56" y="-7.5" font-family="Helvetica,sans-Serif" font-size="10.00" fill="#000000">TimeUtil.startOfYear</text>
</g>
<!-- Node1&#45;&gt;Node1 -->
<g id="edge1" class="edge">
<title>Node1&#45;&gt;Node1</title>
<path fill="none" stroke="#191970" d="M28.2807,-40.9579C31.721,-45.679 40.9608,-49 56,-49 80.6797,-49 89.7418,-40.0566 83.1862,-30.659"/>
<polygon fill="#191970" stroke="#191970" points="31.7921,-40.8266 28.8138,-30.659 24.8014,-40.4647 31.7921,-40.8266"/>
</g>
<!-- Node2 -->
<g id="node2" class="node">
<title>Node2</title>
<g id="a_node2"><a xlink:href="../../d2/dea/classorg_1_1cobbzilla_1_1util_1_1time_1_1TimeUtil_a0efb0c75e00dff553ac707b8ff10be59.html#a0efb0c75e00dff553ac707b8ff10be59" target="_top" xlink:title="org.cobbzilla.util.time.\lTimeUtil.startOfYearMillis">
<polygon fill="none" stroke="#000000" points="148,-.5 148,-30.5 277,-30.5 277,-.5 148,-.5"/>
<text text-anchor="start" x="156" y="-18.5" font-family="Helvetica,sans-Serif" font-size="10.00" fill="#000000">org.cobbzilla.util.time.</text>
<text text-anchor="middle" x="212.5" y="-7.5" font-family="Helvetica,sans-Serif" font-size="10.00" fill="#000000">TimeUtil.startOfYearMillis</text>
</a>
</g>
</g>
<!-- Node1&#45;&gt;Node2 -->
<g id="edge2" class="edge">
<title>Node1&#45;&gt;Node2</title>
<path fill="none" stroke="#191970" d="M122.2475,-15.5C130.7013,-15.5 139.3466,-15.5 147.7758,-15.5"/>
<polygon fill="#191970" stroke="#191970" points="122.0581,-12.0001 112.0581,-15.5 122.058,-19.0001 122.0581,-12.0001"/>
</g>
</g>
</svg>
