<?xml version="1.0" encoding="UTF-8" standalone="no"?>
<!DOCTYPE svg PUBLIC "-//W3C//DTD SVG 1.1//EN"
 "http://www.w3.org/Graphics/SVG/1.1/DTD/svg11.dtd">
<!-- Generated by graphviz version 2.40.1 (20161225.0304)
 -->
<!-- Title: org.cobbzilla.util.time.TimeUtil.lastQuarterMillis Pages: 1 -->
<svg width="283pt" height="57pt"
 viewBox="0.00 0.00 283.00 57.00" xmlns="http://www.w3.org/2000/svg" xmlns:xlink="http://www.w3.org/1999/xlink">
<g id="graph0" class="graph" transform="scale(1 1) rotate(0) translate(4 53)">
<title>org.cobbzilla.util.time.TimeUtil.lastQuarterMillis</title>
<!-- Node0 -->
<g id="node1" class="node">
<title>Node0</title>
<polygon fill="#bfbfbf" stroke="#000000" points="0,-.5 0,-30.5 127,-30.5 127,-.5 0,-.5"/>
<text text-anchor="start" x="8" y="-18.5" font-family="Helvetica,sans-Serif" font-size="10.00" fill="#000000">org.cobbzilla.util.time.</text>
<text text-anchor="middle" x="63.5" y="-7.5" font-family="Helvetica,sans-Serif" font-size="10.00" fill="#000000">TimeUtil.lastQuarterMillis</text>
</g>
<!-- Node1 -->
<g id="node2" class="node">
<title>Node1</title>
<g id="a_node2"><a xlink:href="../../d2/dea/classorg_1_1cobbzilla_1_1util_1_1time_1_1TimeUtil_a79e6207be5818a5187d188788bc9cac0.html#a79e6207be5818a5187d188788bc9cac0" target="_top" xlink:title="org.cobbzilla.util.time.\lTimeUtil.lastQuarter">
<polygon fill="none" stroke="#000000" points="163,-.5 163,-30.5 275,-30.5 275,-.5 163,-.5"/>
<text text-anchor="start" x="171" y="-18.5" font-family="Helvetica,sans-Serif" font-size="10.00" fill="#000000">org.cobbzilla.util.time.</text>
<text text-anchor="middle" x="219" y="-7.5" font-family="Helvetica,sans-Serif" font-size="10.00" fill="#000000">TimeUtil.lastQuarter</text>
</a>
</g>
</g>
<!-- Node0&#45;&gt;Node1 -->
<g id="edge1" class="edge">
<title>Node0&#45;&gt;Node1</title>
<path fill="none" stroke="#191970" d="M127.1965,-15.5C135.5445,-15.5 144.1162,-15.5 152.5091,-15.5"/>
<polygon fill="#191970" stroke="#191970" points="152.6308,-19.0001 162.6308,-15.5 152.6307,-12.0001 152.6308,-19.0001"/>
</g>
<!-- Node1&#45;&gt;Node1 -->
<g id="edge2" class="edge">
<title>Node1&#45;&gt;Node1</title>
<path fill="none" stroke="#191970" d="M192.1623,-30.659C185.6908,-40.0566 194.6367,-49 219,-49 233.8464,-49 242.9677,-45.679 246.3639,-40.9579"/>
<polygon fill="#191970" stroke="#191970" points="249.8435,-40.4673 245.8377,-30.659 242.8527,-40.8246 249.8435,-40.4673"/>
</g>
</g>
</svg>
