<?xml version="1.0" encoding="UTF-8" standalone="no"?>
<!DOCTYPE svg PUBLIC "-//W3C//DTD SVG 1.1//EN"
 "http://www.w3.org/Graphics/SVG/1.1/DTD/svg11.dtd">
<!-- Generated by graphviz version 2.40.1 (20161225.0304)
 -->
<!-- Title: org.cobbzilla.util.time.TimeUtil.lastWeek Pages: 1 -->
<svg width="276pt" height="57pt"
 viewBox="0.00 0.00 276.00 57.00" xmlns="http://www.w3.org/2000/svg" xmlns:xlink="http://www.w3.org/1999/xlink">
<g id="graph0" class="graph" transform="scale(1 1) rotate(0) translate(4 53)">
<title>org.cobbzilla.util.time.TimeUtil.lastWeek</title>
<!-- Node1 -->
<g id="node1" class="node">
<title>Node1</title>
<polygon fill="#bfbfbf" stroke="#000000" points="0,-.5 0,-30.5 112,-30.5 112,-.5 0,-.5"/>
<text text-anchor="start" x="8" y="-18.5" font-family="Helvetica,sans-Serif" font-size="10.00" fill="#000000">org.cobbzilla.util.time.</text>
<text text-anchor="middle" x="56" y="-7.5" font-family="Helvetica,sans-Serif" font-size="10.00" fill="#000000">TimeUtil.lastWeek</text>
</g>
<!-- Node1&#45;&gt;Node1 -->
<g id="edge1" class="edge">
<title>Node1&#45;&gt;Node1</title>
<path fill="none" stroke="#191970" d="M28.9914,-40.9579C32.3436,-45.679 41.3464,-49 56,-49 80.0469,-49 88.8766,-40.0566 82.4891,-30.659"/>
<polygon fill="#191970" stroke="#191970" points="32.5026,-40.8226 29.5109,-30.659 25.5115,-40.47 32.5026,-40.8226"/>
</g>
<!-- Node2 -->
<g id="node2" class="node">
<title>Node2</title>
<g id="a_node2"><a xlink:href="../../d2/dea/classorg_1_1cobbzilla_1_1util_1_1time_1_1TimeUtil_a143def5f7a090413783ff46ea2558c06.html#a143def5f7a090413783ff46ea2558c06" target="_top" xlink:title="org.cobbzilla.util.time.\lTimeUtil.lastWeekMillis">
<polygon fill="none" stroke="#000000" points="148,-.5 148,-30.5 268,-30.5 268,-.5 148,-.5"/>
<text text-anchor="start" x="156" y="-18.5" font-family="Helvetica,sans-Serif" font-size="10.00" fill="#000000">org.cobbzilla.util.time.</text>
<text text-anchor="middle" x="208" y="-7.5" font-family="Helvetica,sans-Serif" font-size="10.00" fill="#000000">TimeUtil.lastWeekMillis</text>
</a>
</g>
</g>
<!-- Node1&#45;&gt;Node2 -->
<g id="edge2" class="edge">
<title>Node1&#45;&gt;Node2</title>
<path fill="none" stroke="#191970" d="M122.4268,-15.5C130.9276,-15.5 139.5908,-15.5 147.9818,-15.5"/>
<polygon fill="#191970" stroke="#191970" points="122.1674,-12.0001 112.1673,-15.5 122.1673,-19.0001 122.1674,-12.0001"/>
</g>
</g>
</svg>
