<?xml version="1.0" encoding="UTF-8" standalone="no"?>
<!DOCTYPE svg PUBLIC "-//W3C//DTD SVG 1.1//EN"
 "http://www.w3.org/Graphics/SVG/1.1/DTD/svg11.dtd">
<!-- Generated by graphviz version 2.40.1 (20161225.0304)
 -->
<!-- Title: org.cobbzilla.util.time.TimeUtil.startOfQuarterMillis Pages: 1 -->
<svg width="304pt" height="57pt"
 viewBox="0.00 0.00 304.00 57.00" xmlns="http://www.w3.org/2000/svg" xmlns:xlink="http://www.w3.org/1999/xlink">
<g id="graph0" class="graph" transform="scale(1 1) rotate(0) translate(4 53)">
<title>org.cobbzilla.util.time.TimeUtil.startOfQuarterMillis</title>
<!-- Node0 -->
<g id="node1" class="node">
<title>Node0</title>
<polygon fill="#bfbfbf" stroke="#000000" points="0,-.5 0,-30.5 141,-30.5 141,-.5 0,-.5"/>
<text text-anchor="start" x="8" y="-18.5" font-family="Helvetica,sans-Serif" font-size="10.00" fill="#000000">org.cobbzilla.util.time.</text>
<text text-anchor="middle" x="70.5" y="-7.5" font-family="Helvetica,sans-Serif" font-size="10.00" fill="#000000">TimeUtil.startOfQuarterMillis</text>
</g>
<!-- Node1 -->
<g id="node2" class="node">
<title>Node1</title>
<g id="a_node2"><a xlink:href="../../d2/dea/classorg_1_1cobbzilla_1_1util_1_1time_1_1TimeUtil_a34ed8b8e1544b5d14d3f223b1aa2024b.html#a34ed8b8e1544b5d14d3f223b1aa2024b" target="_top" xlink:title="org.cobbzilla.util.time.\lTimeUtil.startOfQuarter">
<polygon fill="none" stroke="#000000" points="177,-.5 177,-30.5 296,-30.5 296,-.5 177,-.5"/>
<text text-anchor="start" x="185" y="-18.5" font-family="Helvetica,sans-Serif" font-size="10.00" fill="#000000">org.cobbzilla.util.time.</text>
<text text-anchor="middle" x="236.5" y="-7.5" font-family="Helvetica,sans-Serif" font-size="10.00" fill="#000000">TimeUtil.startOfQuarter</text>
</a>
</g>
</g>
<!-- Node0&#45;&gt;Node1 -->
<g id="edge1" class="edge">
<title>Node0&#45;&gt;Node1</title>
<path fill="none" stroke="#191970" d="M141.3804,-15.5C149.7754,-15.5 158.3394,-15.5 166.719,-15.5"/>
<polygon fill="#191970" stroke="#191970" points="166.8249,-19.0001 176.8249,-15.5 166.8248,-12.0001 166.8249,-19.0001"/>
</g>
<!-- Node1&#45;&gt;Node1 -->
<g id="edge2" class="edge">
<title>Node1&#45;&gt;Node1</title>
<path fill="none" stroke="#191970" d="M207.5711,-30.659C200.5953,-40.0566 210.2383,-49 236.5,-49 252.5032,-49 262.3353,-45.679 265.9962,-40.9579"/>
<polygon fill="#191970" stroke="#191970" points="269.4737,-40.4513 265.4289,-30.659 262.4843,-40.8364 269.4737,-40.4513"/>
</g>
</g>
</svg>
