<?xml version="1.0" encoding="UTF-8" standalone="no"?>
<!DOCTYPE svg PUBLIC "-//W3C//DTD SVG 1.1//EN"
 "http://www.w3.org/Graphics/SVG/1.1/DTD/svg11.dtd">
<!-- Generated by graphviz version 2.40.1 (20161225.0304)
 -->
<!-- Title: org.cobbzilla.util.string.StringUtil.formatDateTime Pages: 1 -->
<svg width="312pt" height="137pt"
 viewBox="0.00 0.00 312.00 137.00" xmlns="http://www.w3.org/2000/svg" xmlns:xlink="http://www.w3.org/1999/xlink">
<g id="graph0" class="graph" transform="scale(1 1) rotate(0) translate(4 133)">
<title>org.cobbzilla.util.string.StringUtil.formatDateTime</title>
<!-- Node2 -->
<g id="node1" class="node">
<title>Node2</title>
<polygon fill="#bfbfbf" stroke="#000000" points="0,-49.5 0,-79.5 131,-79.5 131,-49.5 0,-49.5"/>
<text text-anchor="start" x="8" y="-67.5" font-family="Helvetica,sans-Serif" font-size="10.00" fill="#000000">org.cobbzilla.util.string.</text>
<text text-anchor="middle" x="65.5" y="-56.5" font-family="Helvetica,sans-Serif" font-size="10.00" fill="#000000">StringUtil.formatDateTime</text>
</g>
<!-- Node3 -->
<g id="node2" class="node">
<title>Node3</title>
<g id="a_node2"><a xlink:href="../../db/d9f/classorg_1_1cobbzilla_1_1util_1_1string_1_1StringUtil_a18c12bd4d859e559230a2e76bc11b576.html#a18c12bd4d859e559230a2e76bc11b576" target="_top" xlink:title="org.cobbzilla.util.string.\lStringUtil.fullDateTime">
<polygon fill="none" stroke="#000000" points="177,-98.5 177,-128.5 294,-128.5 294,-98.5 177,-98.5"/>
<text text-anchor="start" x="185" y="-116.5" font-family="Helvetica,sans-Serif" font-size="10.00" fill="#000000">org.cobbzilla.util.string.</text>
<text text-anchor="middle" x="235.5" y="-105.5" font-family="Helvetica,sans-Serif" font-size="10.00" fill="#000000">StringUtil.fullDateTime</text>
</a>
</g>
</g>
<!-- Node2&#45;&gt;Node3 -->
<g id="edge1" class="edge">
<title>Node2&#45;&gt;Node3</title>
<path fill="none" stroke="#191970" d="M127.5815,-82.3941C145.8664,-87.6644 165.6804,-93.3755 183.2802,-98.4484"/>
<polygon fill="#191970" stroke="#191970" points="128.471,-79.008 117.8928,-79.6014 126.5322,-85.7342 128.471,-79.008"/>
</g>
<!-- Node4 -->
<g id="node3" class="node">
<title>Node4</title>
<g id="a_node3"><a xlink:href="../../db/d9f/classorg_1_1cobbzilla_1_1util_1_1string_1_1StringUtil_ae6f9cec642d0909f45a38315127112b0.html#ae6f9cec642d0909f45a38315127112b0" target="_top" xlink:title="org.cobbzilla.util.string.\lStringUtil.mediumDateTime">
<polygon fill="none" stroke="#000000" points="167,-49.5 167,-79.5 304,-79.5 304,-49.5 167,-49.5"/>
<text text-anchor="start" x="175" y="-67.5" font-family="Helvetica,sans-Serif" font-size="10.00" fill="#000000">org.cobbzilla.util.string.</text>
<text text-anchor="middle" x="235.5" y="-56.5" font-family="Helvetica,sans-Serif" font-size="10.00" fill="#000000">StringUtil.mediumDateTime</text>
</a>
</g>
</g>
<!-- Node2&#45;&gt;Node4 -->
<g id="edge2" class="edge">
<title>Node2&#45;&gt;Node4</title>
<path fill="none" stroke="#191970" d="M141.4601,-64.5C149.9177,-64.5 158.496,-64.5 166.855,-64.5"/>
<polygon fill="#191970" stroke="#191970" points="141.2265,-61.0001 131.2264,-64.5 141.2264,-68.0001 141.2265,-61.0001"/>
</g>
<!-- Node5 -->
<g id="node4" class="node">
<title>Node5</title>
<g id="a_node4"><a xlink:href="../../db/d9f/classorg_1_1cobbzilla_1_1util_1_1string_1_1StringUtil_a6a1a6200e32a188da5fa815e70fb661e.html#a6a1a6200e32a188da5fa815e70fb661e" target="_top" xlink:title="org.cobbzilla.util.string.\lStringUtil.shortDateTime">
<polygon fill="none" stroke="#000000" points="173,-.5 173,-30.5 298,-30.5 298,-.5 173,-.5"/>
<text text-anchor="start" x="181" y="-18.5" font-family="Helvetica,sans-Serif" font-size="10.00" fill="#000000">org.cobbzilla.util.string.</text>
<text text-anchor="middle" x="235.5" y="-7.5" font-family="Helvetica,sans-Serif" font-size="10.00" fill="#000000">StringUtil.shortDateTime</text>
</a>
</g>
</g>
<!-- Node2&#45;&gt;Node5 -->
<g id="edge3" class="edge">
<title>Node2&#45;&gt;Node5</title>
<path fill="none" stroke="#191970" d="M127.5815,-46.6059C145.8664,-41.3356 165.6804,-35.6245 183.2802,-30.5516"/>
<polygon fill="#191970" stroke="#191970" points="126.5322,-43.2658 117.8928,-49.3986 128.471,-49.992 126.5322,-43.2658"/>
</g>
</g>
</svg>
