<?xml version="1.0" encoding="UTF-8" standalone="no"?>
<!DOCTYPE svg PUBLIC "-//W3C//DTD SVG 1.1//EN"
 "http://www.w3.org/Graphics/SVG/1.1/DTD/svg11.dtd">
<!-- Generated by graphviz version 2.40.1 (20161225.0304)
 -->
<!-- Title: org.cobbzilla.util.string.StringUtil.split Pages: 1 -->
<svg width="522pt" height="137pt"
 viewBox="0.00 0.00 522.00 137.00" xmlns="http://www.w3.org/2000/svg" xmlns:xlink="http://www.w3.org/1999/xlink">
<g id="graph0" class="graph" transform="scale(1 1) rotate(0) translate(4 133)">
<title>org.cobbzilla.util.string.StringUtil.split</title>
<!-- Node1 -->
<g id="node1" class="node">
<title>Node1</title>
<polygon fill="#bfbfbf" stroke="#000000" points="0,-49.5 0,-79.5 117,-79.5 117,-49.5 0,-49.5"/>
<text text-anchor="start" x="8" y="-67.5" font-family="Helvetica,sans-Serif" font-size="10.00" fill="#000000">org.cobbzilla.util.string.</text>
<text text-anchor="middle" x="58.5" y="-56.5" font-family="Helvetica,sans-Serif" font-size="10.00" fill="#000000">StringUtil.split</text>
</g>
<!-- Node2 -->
<g id="node2" class="node">
<title>Node2</title>
<g id="a_node2"><a xlink:href="../../d0/d1b/classorg_1_1cobbzilla_1_1util_1_1handlebars_1_1HandlebarsUtil_a6a356277e4c72467b4ea71f7a9af3311.html#a6a356277e4c72467b4ea71f7a9af3311" target="_top" xlink:title="org.cobbzilla.util.handlebars.\lHandlebarsUtil.compare">
<polygon fill="none" stroke="#000000" points="157.5,-98.5 157.5,-128.5 297.5,-128.5 297.5,-98.5 157.5,-98.5"/>
<text text-anchor="start" x="165.5" y="-116.5" font-family="Helvetica,sans-Serif" font-size="10.00" fill="#000000">org.cobbzilla.util.handlebars.</text>
<text text-anchor="middle" x="227.5" y="-105.5" font-family="Helvetica,sans-Serif" font-size="10.00" fill="#000000">HandlebarsUtil.compare</text>
</a>
</g>
</g>
<!-- Node1&#45;&gt;Node2 -->
<g id="edge1" class="edge">
<title>Node1&#45;&gt;Node2</title>
<path fill="none" stroke="#191970" d="M120.2163,-82.3941C138.3936,-87.6644 158.0911,-93.3755 175.5874,-98.4484"/>
<polygon fill="#191970" stroke="#191970" points="121.1637,-79.0247 110.5846,-79.6014 119.2143,-85.7478 121.1637,-79.0247"/>
</g>
<!-- Node4 -->
<g id="node4" class="node">
<title>Node4</title>
<g id="a_node4"><a xlink:href="../../dc/d34/classorg_1_1cobbzilla_1_1util_1_1handlebars_1_1ImageInsertion_a7a4f18c4442130e836e6dc1ceb8b5526.html#a7a4f18c4442130e836e6dc1ceb8b5526" target="_top" xlink:title="org.cobbzilla.util.handlebars.\lImageInsertion.ImageInsertion">
<polygon fill="none" stroke="#000000" points="153,-49.5 153,-79.5 302,-79.5 302,-49.5 153,-49.5"/>
<text text-anchor="start" x="161" y="-67.5" font-family="Helvetica,sans-Serif" font-size="10.00" fill="#000000">org.cobbzilla.util.handlebars.</text>
<text text-anchor="middle" x="227.5" y="-56.5" font-family="Helvetica,sans-Serif" font-size="10.00" fill="#000000">ImageInsertion.ImageInsertion</text>
</a>
</g>
</g>
<!-- Node1&#45;&gt;Node4 -->
<g id="edge3" class="edge">
<title>Node1&#45;&gt;Node4</title>
<path fill="none" stroke="#191970" d="M127.2918,-64.5C135.7271,-64.5 144.3789,-64.5 152.8947,-64.5"/>
<polygon fill="#191970" stroke="#191970" points="127.1337,-61.0001 117.1337,-64.5 127.1337,-68.0001 127.1337,-61.0001"/>
</g>
<!-- Node5 -->
<g id="node5" class="node">
<title>Node5</title>
<g id="a_node5"><a xlink:href="../../db/d9f/classorg_1_1cobbzilla_1_1util_1_1string_1_1StringUtil_a5d262332f16bb85b40fb003e4f12196e.html#a5d262332f16bb85b40fb003e4f12196e" target="_top" xlink:title="org.cobbzilla.util.string.\lStringUtil.split2array">
<polygon fill="none" stroke="#000000" points="169,-.5 169,-30.5 286,-30.5 286,-.5 169,-.5"/>
<text text-anchor="start" x="177" y="-18.5" font-family="Helvetica,sans-Serif" font-size="10.00" fill="#000000">org.cobbzilla.util.string.</text>
<text text-anchor="middle" x="227.5" y="-7.5" font-family="Helvetica,sans-Serif" font-size="10.00" fill="#000000">StringUtil.split2array</text>
</a>
</g>
</g>
<!-- Node1&#45;&gt;Node5 -->
<g id="edge4" class="edge">
<title>Node1&#45;&gt;Node5</title>
<path fill="none" stroke="#191970" d="M120.2163,-46.6059C138.3936,-41.3356 158.0911,-35.6245 175.5874,-30.5516"/>
<polygon fill="#191970" stroke="#191970" points="119.2143,-43.2522 110.5846,-49.3986 121.1637,-49.9753 119.2143,-43.2522"/>
</g>
<!-- Node3 -->
<g id="node3" class="node">
<title>Node3</title>
<g id="a_node3"><a xlink:href="../../d0/d1b/classorg_1_1cobbzilla_1_1util_1_1handlebars_1_1HandlebarsUtil_af8f3012d152b38e5472c15975a8921e2.html#af8f3012d152b38e5472c15975a8921e2" target="_top" xlink:title="org.cobbzilla.util.handlebars.\lHandlebarsUtil.registerUtilityHelpers">
<polygon fill="none" stroke="#000000" points="338,-98.5 338,-128.5 514,-128.5 514,-98.5 338,-98.5"/>
<text text-anchor="start" x="346" y="-116.5" font-family="Helvetica,sans-Serif" font-size="10.00" fill="#000000">org.cobbzilla.util.handlebars.</text>
<text text-anchor="middle" x="426" y="-105.5" font-family="Helvetica,sans-Serif" font-size="10.00" fill="#000000">HandlebarsUtil.registerUtilityHelpers</text>
</a>
</g>
</g>
<!-- Node2&#45;&gt;Node3 -->
<g id="edge2" class="edge">
<title>Node2&#45;&gt;Node3</title>
<path fill="none" stroke="#191970" d="M307.8958,-113.5C317.7245,-113.5 327.8092,-113.5 337.7451,-113.5"/>
<polygon fill="#191970" stroke="#191970" points="307.7631,-110.0001 297.763,-113.5 307.763,-117.0001 307.7631,-110.0001"/>
</g>
</g>
</svg>
