<?xml version="1.0" encoding="UTF-8" standalone="no"?>
<!DOCTYPE svg PUBLIC "-//W3C//DTD SVG 1.1//EN"
 "http://www.w3.org/Graphics/SVG/1.1/DTD/svg11.dtd">
<!-- Generated by graphviz version 2.40.1 (20161225.0304)
 -->
<!-- Title: org.cobbzilla.util.string.StringUtil.shortDateTime Pages: 1 -->
<svg width="516pt" height="39pt"
 viewBox="0.00 0.00 516.00 39.00" xmlns="http://www.w3.org/2000/svg" xmlns:xlink="http://www.w3.org/1999/xlink">
<g id="graph0" class="graph" transform="scale(1 1) rotate(0) translate(4 35)">
<title>org.cobbzilla.util.string.StringUtil.shortDateTime</title>
<!-- Node0 -->
<g id="node1" class="node">
<title>Node0</title>
<polygon fill="#bfbfbf" stroke="#000000" points="0,-.5 0,-30.5 125,-30.5 125,-.5 0,-.5"/>
<text text-anchor="start" x="8" y="-18.5" font-family="Helvetica,sans-Serif" font-size="10.00" fill="#000000">org.cobbzilla.util.string.</text>
<text text-anchor="middle" x="62.5" y="-7.5" font-family="Helvetica,sans-Serif" font-size="10.00" fill="#000000">StringUtil.shortDateTime</text>
</g>
<!-- Node1 -->
<g id="node2" class="node">
<title>Node1</title>
<g id="a_node2"><a xlink:href="../../db/d9f/classorg_1_1cobbzilla_1_1util_1_1string_1_1StringUtil_adf3a11e83f3bb4cfdba9a4b2934a3e51.html#adf3a11e83f3bb4cfdba9a4b2934a3e51" target="_top" xlink:title="org.cobbzilla.util.string.\lStringUtil.formatDateTime">
<polygon fill="none" stroke="#000000" points="161,-.5 161,-30.5 292,-30.5 292,-.5 161,-.5"/>
<text text-anchor="start" x="169" y="-18.5" font-family="Helvetica,sans-Serif" font-size="10.00" fill="#000000">org.cobbzilla.util.string.</text>
<text text-anchor="middle" x="226.5" y="-7.5" font-family="Helvetica,sans-Serif" font-size="10.00" fill="#000000">StringUtil.formatDateTime</text>
</a>
</g>
</g>
<!-- Node0&#45;&gt;Node1 -->
<g id="edge1" class="edge">
<title>Node0&#45;&gt;Node1</title>
<path fill="none" stroke="#191970" d="M125.4377,-15.5C133.6577,-15.5 142.1482,-15.5 150.5535,-15.5"/>
<polygon fill="#191970" stroke="#191970" points="150.7399,-19.0001 160.7399,-15.5 150.7399,-12.0001 150.7399,-19.0001"/>
</g>
<!-- Node2 -->
<g id="node3" class="node">
<title>Node2</title>
<g id="a_node3"><a xlink:href="../../d2/db5/classorg_1_1cobbzilla_1_1util_1_1time_1_1ImprovedTimezone_a5d4a0e1217324f9eb19420a79f783d26.html#a5d4a0e1217324f9eb19420a79f783d26" target="_top" xlink:title="org.cobbzilla.util.time.\lImprovedTimezone.getTimeZoneById">
<polygon fill="none" stroke="#000000" points="328,-.5 328,-30.5 508,-30.5 508,-.5 328,-.5"/>
<text text-anchor="start" x="336" y="-18.5" font-family="Helvetica,sans-Serif" font-size="10.00" fill="#000000">org.cobbzilla.util.time.</text>
<text text-anchor="middle" x="418" y="-7.5" font-family="Helvetica,sans-Serif" font-size="10.00" fill="#000000">ImprovedTimezone.getTimeZoneById</text>
</a>
</g>
</g>
<!-- Node1&#45;&gt;Node2 -->
<g id="edge2" class="edge">
<title>Node1&#45;&gt;Node2</title>
<path fill="none" stroke="#191970" d="M292.1355,-15.5C300.3845,-15.5 308.9655,-15.5 317.597,-15.5"/>
<polygon fill="#191970" stroke="#191970" points="317.7361,-19.0001 327.736,-15.5 317.736,-12.0001 317.7361,-19.0001"/>
</g>
</g>
</svg>
