<?xml version="1.0" encoding="UTF-8" standalone="no"?>
<!DOCTYPE svg PUBLIC "-//W3C//DTD SVG 1.1//EN"
 "http://www.w3.org/Graphics/SVG/1.1/DTD/svg11.dtd">
<!-- Generated by graphviz version 2.40.1 (20161225.0304)
 -->
<!-- Title: org.cobbzilla.util.string.StringUtil.diff Pages: 1 -->
<svg width="467pt" height="106pt"
 viewBox="0.00 0.00 467.00 106.00" xmlns="http://www.w3.org/2000/svg" xmlns:xlink="http://www.w3.org/1999/xlink">
<g id="graph0" class="graph" transform="scale(1 1) rotate(0) translate(4 102)">
<title>org.cobbzilla.util.string.StringUtil.diff</title>
<!-- Node0 -->
<g id="node1" class="node">
<title>Node0</title>
<polygon fill="#bfbfbf" stroke="#000000" points="0,-33.5 0,-63.5 117,-63.5 117,-33.5 0,-33.5"/>
<text text-anchor="start" x="8" y="-51.5" font-family="Helvetica,sans-Serif" font-size="10.00" fill="#000000">org.cobbzilla.util.string.</text>
<text text-anchor="middle" x="58.5" y="-40.5" font-family="Helvetica,sans-Serif" font-size="10.00" fill="#000000">StringUtil.diff</text>
</g>
<!-- Node1 -->
<g id="node2" class="node">
<title>Node1</title>
<g id="a_node2"><a xlink:href="../../db/d96/classorg_1_1cobbzilla_1_1util_1_1javascript_1_1JsEngine_a60bba769760a2df3a1b2c8ab5c4dee8c.html#a60bba769760a2df3a1b2c8ab5c4dee8c" target="_top" xlink:title="org.cobbzilla.util.javascript.\lJsEngine.evaluate">
<polygon fill="none" stroke="#000000" points="153,-33.5 153,-63.5 288,-63.5 288,-33.5 153,-33.5"/>
<text text-anchor="start" x="161" y="-51.5" font-family="Helvetica,sans-Serif" font-size="10.00" fill="#000000">org.cobbzilla.util.javascript.</text>
<text text-anchor="middle" x="220.5" y="-40.5" font-family="Helvetica,sans-Serif" font-size="10.00" fill="#000000">JsEngine.evaluate</text>
</a>
</g>
</g>
<!-- Node0&#45;&gt;Node1 -->
<g id="edge1" class="edge">
<title>Node0&#45;&gt;Node1</title>
<path fill="none" stroke="#191970" d="M117.444,-48.5C125.6123,-48.5 134.1045,-48.5 142.5524,-48.5"/>
<polygon fill="#191970" stroke="#191970" points="142.8103,-52.0001 152.8103,-48.5 142.8102,-45.0001 142.8103,-52.0001"/>
</g>
<!-- Node2 -->
<g id="node3" class="node">
<title>Node2</title>
<g id="a_node3"><a xlink:href="../../db/d96/classorg_1_1cobbzilla_1_1util_1_1javascript_1_1JsEngine_a4f5dc618811183ac05be1a06c8f2973a.html#a4f5dc618811183ac05be1a06c8f2973a" target="_top" xlink:title="org.cobbzilla.util.javascript.\lJsEngine.getDefaultScript">
<polygon fill="none" stroke="#000000" points="324,-67.5 324,-97.5 459,-97.5 459,-67.5 324,-67.5"/>
<text text-anchor="start" x="332" y="-85.5" font-family="Helvetica,sans-Serif" font-size="10.00" fill="#000000">org.cobbzilla.util.javascript.</text>
<text text-anchor="middle" x="391.5" y="-74.5" font-family="Helvetica,sans-Serif" font-size="10.00" fill="#000000">JsEngine.getDefaultScript</text>
</a>
</g>
</g>
<!-- Node1&#45;&gt;Node2 -->
<g id="edge2" class="edge">
<title>Node1&#45;&gt;Node2</title>
<path fill="none" stroke="#191970" d="M288.0837,-61.9377C296.5381,-63.6187 305.2372,-65.3483 313.83,-67.0568"/>
<polygon fill="#191970" stroke="#191970" points="313.3566,-70.5312 323.8472,-69.0486 314.7218,-63.6656 313.3566,-70.5312"/>
</g>
<!-- Node3 -->
<g id="node4" class="node">
<title>Node3</title>
<g id="a_node4"><a xlink:href="../../db/d96/classorg_1_1cobbzilla_1_1util_1_1javascript_1_1JsEngine_a910dcb21061881b153a71b6ff849d8da.html#a910dcb21061881b153a71b6ff849d8da" target="_top" xlink:title="org.cobbzilla.util.javascript.\lJsEngine.getNashorn">
<polygon fill="none" stroke="#000000" points="324,-.5 324,-30.5 459,-30.5 459,-.5 324,-.5"/>
<text text-anchor="start" x="332" y="-18.5" font-family="Helvetica,sans-Serif" font-size="10.00" fill="#000000">org.cobbzilla.util.javascript.</text>
<text text-anchor="middle" x="391.5" y="-7.5" font-family="Helvetica,sans-Serif" font-size="10.00" fill="#000000">JsEngine.getNashorn</text>
</a>
</g>
</g>
<!-- Node1&#45;&gt;Node3 -->
<g id="edge3" class="edge">
<title>Node1&#45;&gt;Node3</title>
<path fill="none" stroke="#191970" d="M288.0837,-35.4575C296.5381,-33.826 305.2372,-32.1472 313.83,-30.489"/>
<polygon fill="#191970" stroke="#191970" points="314.6916,-33.8873 323.8472,-28.5558 313.3651,-27.0142 314.6916,-33.8873"/>
</g>
<!-- Node3&#45;&gt;Node3 -->
<g id="edge4" class="edge">
<title>Node3&#45;&gt;Node3</title>
<path fill="none" stroke="#191970" d="M361.874,-30.659C354.7301,-40.0566 364.6055,-49 391.5,-49 407.8889,-49 417.9578,-45.679 421.7069,-40.9579"/>
<polygon fill="#191970" stroke="#191970" points="425.1837,-40.446 421.126,-30.659 418.1948,-40.8403 425.1837,-40.446"/>
</g>
</g>
</svg>
