<?xml version="1.0" encoding="UTF-8" standalone="no"?>
<!DOCTYPE svg PUBLIC "-//W3C//DTD SVG 1.1//EN"
 "http://www.w3.org/Graphics/SVG/1.1/DTD/svg11.dtd">
<!-- Generated by graphviz version 2.40.1 (20161225.0304)
 -->
<!-- Title: org.cobbzilla.util.string.StringUtil.formatDollars Pages: 1 -->
<svg width="321pt" height="88pt"
 viewBox="0.00 0.00 321.00 88.00" xmlns="http://www.w3.org/2000/svg" xmlns:xlink="http://www.w3.org/1999/xlink">
<g id="graph0" class="graph" transform="scale(1 1) rotate(0) translate(4 84)">
<title>org.cobbzilla.util.string.StringUtil.formatDollars</title>
<!-- Node1 -->
<g id="node1" class="node">
<title>Node1</title>
<polygon fill="#bfbfbf" stroke="#000000" points="0,-24.5 0,-54.5 119,-54.5 119,-24.5 0,-24.5"/>
<text text-anchor="start" x="8" y="-42.5" font-family="Helvetica,sans-Serif" font-size="10.00" fill="#000000">org.cobbzilla.util.string.</text>
<text text-anchor="middle" x="59.5" y="-31.5" font-family="Helvetica,sans-Serif" font-size="10.00" fill="#000000">StringUtil.formatDollars</text>
</g>
<!-- Node2 -->
<g id="node2" class="node">
<title>Node2</title>
<g id="a_node2"><a xlink:href="../../db/d9f/classorg_1_1cobbzilla_1_1util_1_1string_1_1StringUtil_aafe742ff372193468328cdbf8b2816bf.html#aafe742ff372193468328cdbf8b2816bf" target="_top" xlink:title="org.cobbzilla.util.string.\lStringUtil.formatDollarsNoSign">
<polygon fill="none" stroke="#000000" points="158.5,-49.5 158.5,-79.5 309.5,-79.5 309.5,-49.5 158.5,-49.5"/>
<text text-anchor="start" x="166.5" y="-67.5" font-family="Helvetica,sans-Serif" font-size="10.00" fill="#000000">org.cobbzilla.util.string.</text>
<text text-anchor="middle" x="234" y="-56.5" font-family="Helvetica,sans-Serif" font-size="10.00" fill="#000000">StringUtil.formatDollarsNoSign</text>
</a>
</g>
</g>
<!-- Node1&#45;&gt;Node2 -->
<g id="edge1" class="edge">
<title>Node1&#45;&gt;Node2</title>
<path fill="none" stroke="#191970" d="M128.991,-49.4557C138.6412,-50.8383 148.594,-52.2642 158.3499,-53.6619"/>
<polygon fill="#191970" stroke="#191970" points="129.4603,-45.9873 119.0649,-48.0337 128.4675,-52.9166 129.4603,-45.9873"/>
</g>
<!-- Node3 -->
<g id="node3" class="node">
<title>Node3</title>
<g id="a_node3"><a xlink:href="../../db/d9f/classorg_1_1cobbzilla_1_1util_1_1string_1_1StringUtil_a47d5557850d4f838e6b306b5c079d6bd.html#a47d5557850d4f838e6b306b5c079d6bd" target="_top" xlink:title="org.cobbzilla.util.string.\lStringUtil.formatDollarsWithSign">
<polygon fill="none" stroke="#000000" points="155,-.5 155,-30.5 313,-30.5 313,-.5 155,-.5"/>
<text text-anchor="start" x="163" y="-18.5" font-family="Helvetica,sans-Serif" font-size="10.00" fill="#000000">org.cobbzilla.util.string.</text>
<text text-anchor="middle" x="234" y="-7.5" font-family="Helvetica,sans-Serif" font-size="10.00" fill="#000000">StringUtil.formatDollarsWithSign</text>
</a>
</g>
</g>
<!-- Node1&#45;&gt;Node3 -->
<g id="edge2" class="edge">
<title>Node1&#45;&gt;Node3</title>
<path fill="none" stroke="#191970" d="M129.241,-29.9081C137.695,-28.7454 146.3778,-27.5512 154.9538,-26.3717"/>
<polygon fill="#191970" stroke="#191970" points="128.4948,-26.4777 119.0649,-31.3077 129.4486,-33.4124 128.4948,-26.4777"/>
</g>
</g>
</svg>
