<?xml version="1.0" encoding="UTF-8" standalone="no"?>
<!DOCTYPE svg PUBLIC "-//W3C//DTD SVG 1.1//EN"
 "http://www.w3.org/Graphics/SVG/1.1/DTD/svg11.dtd">
<!-- Generated by graphviz version 2.40.1 (20161225.0304)
 -->
<!-- Title: org.cobbzilla.util.string.StringUtil.toString Pages: 1 -->
<svg width="708pt" height="542pt"
 viewBox="0.00 0.00 708.00 542.00" xmlns="http://www.w3.org/2000/svg" xmlns:xlink="http://www.w3.org/1999/xlink">
<g id="graph0" class="graph" transform="scale(1 1) rotate(0) translate(4 538)">
<title>org.cobbzilla.util.string.StringUtil.toString</title>
<!-- Node1 -->
<g id="node1" class="node">
<title>Node1</title>
<polygon fill="#bfbfbf" stroke="#000000" points="0,-268.5 0,-298.5 117,-298.5 117,-268.5 0,-268.5"/>
<text text-anchor="start" x="8" y="-286.5" font-family="Helvetica,sans-Serif" font-size="10.00" fill="#000000">org.cobbzilla.util.string.</text>
<text text-anchor="middle" x="58.5" y="-275.5" font-family="Helvetica,sans-Serif" font-size="10.00" fill="#000000">StringUtil.toString</text>
</g>
<!-- Node1&#45;&gt;Node1 -->
<g id="edge13" class="edge">
<title>Node1&#45;&gt;Node1</title>
<path fill="none" stroke="#191970" d="M24.3839,-308.9579C28.6182,-313.679 39.9902,-317 58.5,-317 88.875,-317 100.0283,-308.0566 91.96,-298.659"/>
<polygon fill="#191970" stroke="#191970" points="27.8971,-308.8613 25.04,-298.659 20.9112,-308.4162 27.8971,-308.8613"/>
</g>
<!-- Node2 -->
<g id="node2" class="node">
<title>Node2</title>
<g id="a_node2"><a xlink:href="../../d5/df3/classorg_1_1cobbzilla_1_1util_1_1collection_1_1ArrayUtil_a3c8d71258caeb88c5790dc85e0a45734.html#a3c8d71258caeb88c5790dc85e0a45734" target="_top" xlink:title="Produce a delimited string from an array. ">
<polygon fill="none" stroke="#000000" points="183.5,-503.5 183.5,-533.5 317.5,-533.5 317.5,-503.5 183.5,-503.5"/>
<text text-anchor="start" x="191.5" y="-521.5" font-family="Helvetica,sans-Serif" font-size="10.00" fill="#000000">org.cobbzilla.util.collection.</text>
<text text-anchor="middle" x="250.5" y="-510.5" font-family="Helvetica,sans-Serif" font-size="10.00" fill="#000000">ArrayUtil.arrayToString</text>
</a>
</g>
</g>
<!-- Node1&#45;&gt;Node2 -->
<g id="edge1" class="edge">
<title>Node1&#45;&gt;Node2</title>
<path fill="none" stroke="#191970" d="M62.4505,-308.7056C70.7952,-353.2237 94.4999,-445.6707 153,-494.5 161.7659,-501.8168 172.4288,-506.9605 183.4442,-510.5643"/>
<polygon fill="#191970" stroke="#191970" points="65.8735,-307.9621 60.6887,-298.7226 58.98,-309.1787 65.8735,-307.9621"/>
</g>
<!-- Node3 -->
<g id="node3" class="node">
<title>Node3</title>
<g id="a_node3"><a xlink:href="../../de/de0/classorg_1_1cobbzilla_1_1util_1_1io_1_1FilesystemWalker_ae03d4f7ba6b303af5ee4bf3157d1433e.html#ae03d4f7ba6b303af5ee4bf3157d1433e" target="_top" xlink:title="org.cobbzilla.util.io.Filesystem\lWalker.awaitFutures">
<polygon fill="none" stroke="#000000" points="176,-454.5 176,-484.5 325,-484.5 325,-454.5 176,-454.5"/>
<text text-anchor="start" x="184" y="-472.5" font-family="Helvetica,sans-Serif" font-size="10.00" fill="#000000">org.cobbzilla.util.io.Filesystem</text>
<text text-anchor="middle" x="250.5" y="-461.5" font-family="Helvetica,sans-Serif" font-size="10.00" fill="#000000">Walker.awaitFutures</text>
</a>
</g>
</g>
<!-- Node1&#45;&gt;Node3 -->
<g id="edge2" class="edge">
<title>Node1&#45;&gt;Node3</title>
<path fill="none" stroke="#191970" d="M67.1773,-308.6866C80.3479,-343.2195 108.6471,-404.9122 153,-439.5 160.8906,-445.6534 170.0475,-450.5519 179.5273,-454.4497"/>
<polygon fill="#191970" stroke="#191970" points="70.3142,-307.0764 63.5746,-298.9016 63.7453,-309.4951 70.3142,-307.0764"/>
</g>
<!-- Node5 -->
<g id="node5" class="node">
<title>Node5</title>
<g id="a_node5"><a xlink:href="../../d7/d80/classorg_1_1cobbzilla_1_1util_1_1io_1_1main_1_1UniqueFileWalkerMain_a0631df940d30f8c03bda018c05004042.html#a0631df940d30f8c03bda018c05004042" target="_top" xlink:title="org.cobbzilla.util.io.main.\lUniqueFileWalkerMain.run">
<polygon fill="none" stroke="#000000" points="569,-432.5 569,-462.5 700,-462.5 700,-432.5 569,-432.5"/>
<text text-anchor="start" x="577" y="-450.5" font-family="Helvetica,sans-Serif" font-size="10.00" fill="#000000">org.cobbzilla.util.io.main.</text>
<text text-anchor="middle" x="634.5" y="-439.5" font-family="Helvetica,sans-Serif" font-size="10.00" fill="#000000">UniqueFileWalkerMain.run</text>
</a>
</g>
</g>
<!-- Node1&#45;&gt;Node5 -->
<g id="edge8" class="edge">
<title>Node1&#45;&gt;Node5</title>
<path fill="none" stroke="#191970" d="M69.6105,-307.8124C84.2276,-336.6603 112.8511,-383.5991 153,-405.5 188.635,-424.9386 445.4921,-438.9871 568.7866,-444.6881"/>
<polygon fill="#191970" stroke="#191970" points="72.7326,-306.2295 65.194,-298.7851 66.4448,-309.3058 72.7326,-306.2295"/>
</g>
<!-- Node6 -->
<g id="node6" class="node">
<title>Node6</title>
<g id="a_node6"><a xlink:href="../../df/d15/interfaceorg_1_1cobbzilla_1_1util_1_1error_1_1GeneralErrorHandler_a1fe30fca1003b9f96d79194bbc981f0c.html#a1fe30fca1003b9f96d79194bbc981f0c" target="_top" xlink:title="org.cobbzilla.util.error.\lGeneralErrorHandler.handleError">
<polygon fill="none" stroke="#000000" points="171.5,-366.5 171.5,-396.5 329.5,-396.5 329.5,-366.5 171.5,-366.5"/>
<text text-anchor="start" x="179.5" y="-384.5" font-family="Helvetica,sans-Serif" font-size="10.00" fill="#000000">org.cobbzilla.util.error.</text>
<text text-anchor="middle" x="250.5" y="-373.5" font-family="Helvetica,sans-Serif" font-size="10.00" fill="#000000">GeneralErrorHandler.handleError</text>
</a>
</g>
</g>
<!-- Node1&#45;&gt;Node6 -->
<g id="edge5" class="edge">
<title>Node1&#45;&gt;Node6</title>
<path fill="none" stroke="#191970" d="M81.5516,-305.6841C99.6458,-321.9517 126.1847,-343.4019 153,-356.5 160.8508,-360.3348 169.3543,-363.6253 177.9559,-366.4378"/>
<polygon fill="#191970" stroke="#191970" points="83.5947,-302.8085 73.8615,-298.6232 78.8603,-307.9647 83.5947,-302.8085"/>
</g>
<!-- Node7 -->
<g id="node7" class="node">
<title>Node7</title>
<g id="a_node7"><a xlink:href="../../d4/de3/classorg_1_1cobbzilla_1_1util_1_1daemon_1_1ZillaRuntime_a49dedf15467db0f9aee946bd04ff74f4.html#a49dedf15467db0f9aee946bd04ff74f4" target="_top" xlink:title="org.cobbzilla.util.daemon.\lZillaRuntime.javaOptions">
<polygon fill="none" stroke="#000000" points="186.5,-317.5 186.5,-347.5 314.5,-347.5 314.5,-317.5 186.5,-317.5"/>
<text text-anchor="start" x="194.5" y="-335.5" font-family="Helvetica,sans-Serif" font-size="10.00" fill="#000000">org.cobbzilla.util.daemon.</text>
<text text-anchor="middle" x="250.5" y="-324.5" font-family="Helvetica,sans-Serif" font-size="10.00" fill="#000000">ZillaRuntime.javaOptions</text>
</a>
</g>
</g>
<!-- Node1&#45;&gt;Node7 -->
<g id="edge6" class="edge">
<title>Node1&#45;&gt;Node7</title>
<path fill="none" stroke="#191970" d="M127.0112,-300.9846C148.1123,-306.3698 171.1483,-312.2488 191.548,-317.4549"/>
<polygon fill="#191970" stroke="#191970" points="127.7045,-297.5495 117.1496,-298.4679 125.9735,-304.3321 127.7045,-297.5495"/>
</g>
<!-- Node8 -->
<g id="node8" class="node">
<title>Node8</title>
<g id="a_node8"><a xlink:href="../../da/d75/classorg_1_1cobbzilla_1_1util_1_1main_1_1IndexMain_a3d454843a662c7ee1c868da48b785b77.html#a3d454843a662c7ee1c868da48b785b77" target="_top" xlink:title="org.cobbzilla.util.main.\lIndexMain.main">
<polygon fill="none" stroke="#000000" points="193.5,-268.5 193.5,-298.5 307.5,-298.5 307.5,-268.5 193.5,-268.5"/>
<text text-anchor="start" x="201.5" y="-286.5" font-family="Helvetica,sans-Serif" font-size="10.00" fill="#000000">org.cobbzilla.util.main.</text>
<text text-anchor="middle" x="250.5" y="-275.5" font-family="Helvetica,sans-Serif" font-size="10.00" fill="#000000">IndexMain.main</text>
</a>
</g>
</g>
<!-- Node1&#45;&gt;Node8 -->
<g id="edge7" class="edge">
<title>Node1&#45;&gt;Node8</title>
<path fill="none" stroke="#191970" d="M127.2455,-283.5C148.8542,-283.5 172.4716,-283.5 193.1984,-283.5"/>
<polygon fill="#191970" stroke="#191970" points="127.1496,-280.0001 117.1496,-283.5 127.1496,-287.0001 127.1496,-280.0001"/>
</g>
<!-- Node9 -->
<g id="node9" class="node">
<title>Node9</title>
<g id="a_node9"><a xlink:href="../../d9/d75/classorg_1_1cobbzilla_1_1util_1_1handlebars_1_1main_1_1PdfMergeMain_a125fc1d1e7f706476767dcc2fdb0b34d.html#a125fc1d1e7f706476767dcc2fdb0b34d" target="_top" xlink:title="org.cobbzilla.util.handlebars.main.\lPdfMergeMain.run">
<polygon fill="none" stroke="#000000" points="168.5,-219.5 168.5,-249.5 332.5,-249.5 332.5,-219.5 168.5,-219.5"/>
<text text-anchor="start" x="176.5" y="-237.5" font-family="Helvetica,sans-Serif" font-size="10.00" fill="#000000">org.cobbzilla.util.handlebars.main.</text>
<text text-anchor="middle" x="250.5" y="-226.5" font-family="Helvetica,sans-Serif" font-size="10.00" fill="#000000">PdfMergeMain.run</text>
</a>
</g>
</g>
<!-- Node1&#45;&gt;Node9 -->
<g id="edge9" class="edge">
<title>Node1&#45;&gt;Node9</title>
<path fill="none" stroke="#191970" d="M124.5339,-265.8753C134.0781,-263.3731 143.7861,-260.8526 153,-258.5 164.57,-255.5458 176.929,-252.4542 188.8265,-249.5103"/>
<polygon fill="#191970" stroke="#191970" points="123.4554,-262.5398 114.6746,-268.4683 125.236,-269.3096 123.4554,-262.5398"/>
</g>
<!-- Node10 -->
<g id="node10" class="node">
<title>Node10</title>
<g id="a_node10"><a xlink:href="../../db/d9f/classorg_1_1cobbzilla_1_1util_1_1string_1_1StringUtil_ac6fd27cc703c9c7ec33ff599f79659c4.html#ac6fd27cc703c9c7ec33ff599f79659c4" target="_top" xlink:title="org.cobbzilla.util.string.\lStringUtil.sqlIn">
<polygon fill="none" stroke="#000000" points="192,-170.5 192,-200.5 309,-200.5 309,-170.5 192,-170.5"/>
<text text-anchor="start" x="200" y="-188.5" font-family="Helvetica,sans-Serif" font-size="10.00" fill="#000000">org.cobbzilla.util.string.</text>
<text text-anchor="middle" x="250.5" y="-177.5" font-family="Helvetica,sans-Serif" font-size="10.00" fill="#000000">StringUtil.sqlIn</text>
</a>
</g>
</g>
<!-- Node1&#45;&gt;Node10 -->
<g id="edge10" class="edge">
<title>Node1&#45;&gt;Node10</title>
<path fill="none" stroke="#191970" d="M81.1356,-261.2222C99.1881,-244.6499 125.8642,-222.7034 153,-209.5 165.07,-203.6271 178.6999,-199.1159 191.8593,-195.6785"/>
<polygon fill="#191970" stroke="#191970" points="78.3751,-259.0128 73.4773,-268.4076 83.1648,-264.1176 78.3751,-259.0128"/>
</g>
<!-- Node11 -->
<g id="node11" class="node">
<title>Node11</title>
<g id="a_node11"><a xlink:href="../../dd/de6/classorg_1_1cobbzilla_1_1util_1_1collection_1_1SetSourceBase_a294664f505b1ac06c15c5a52bb66a6b7.html#a294664f505b1ac06c15c5a52bb66a6b7" target="_top" xlink:title="org.cobbzilla.util.collection.\lSetSourceBase\&lt; String \&gt;::\ltoString">
<polygon fill="none" stroke="#000000" points="183.5,-110 183.5,-151 317.5,-151 317.5,-110 183.5,-110"/>
<text text-anchor="start" x="191.5" y="-139" font-family="Helvetica,sans-Serif" font-size="10.00" fill="#000000">org.cobbzilla.util.collection.</text>
<text text-anchor="start" x="191.5" y="-128" font-family="Helvetica,sans-Serif" font-size="10.00" fill="#000000">SetSourceBase&lt; String &gt;::</text>
<text text-anchor="middle" x="250.5" y="-117" font-family="Helvetica,sans-Serif" font-size="10.00" fill="#000000">toString</text>
</a>
</g>
</g>
<!-- Node1&#45;&gt;Node11 -->
<g id="edge11" class="edge">
<title>Node1&#45;&gt;Node11</title>
<path fill="none" stroke="#191970" d="M71.103,-259.1241C86.6977,-231.3073 115.8055,-186.3354 153,-160.5 162.1637,-154.1349 172.722,-149.0857 183.4334,-145.0903"/>
<polygon fill="#191970" stroke="#191970" points="67.8749,-257.7333 66.1594,-268.1884 74.0203,-261.085 67.8749,-257.7333"/>
</g>
<!-- Node12 -->
<g id="node12" class="node">
<title>Node12</title>
<g id="a_node12"><a xlink:href="../../db/dd9/classorg_1_1cobbzilla_1_1util_1_1io_1_1CompositeFilesystemWatcher_adcfd8248354b61d85d7afe330c470673.html#adcfd8248354b61d85d7afe330c470673" target="_top" xlink:title="org.cobbzilla.util.io.Composite\lFilesystemWatcher\&lt; BufferedFilesystem\lWatcher \&gt;::toString">
<polygon fill="none" stroke="#000000" points="153,-50 153,-91 348,-91 348,-50 153,-50"/>
<text text-anchor="start" x="161" y="-79" font-family="Helvetica,sans-Serif" font-size="10.00" fill="#000000">org.cobbzilla.util.io.Composite</text>
<text text-anchor="start" x="161" y="-68" font-family="Helvetica,sans-Serif" font-size="10.00" fill="#000000">FilesystemWatcher&lt; BufferedFilesystem</text>
<text text-anchor="middle" x="250.5" y="-57" font-family="Helvetica,sans-Serif" font-size="10.00" fill="#000000">Watcher &gt;::toString</text>
</a>
</g>
</g>
<!-- Node1&#45;&gt;Node12 -->
<g id="edge12" class="edge">
<title>Node1&#45;&gt;Node12</title>
<path fill="none" stroke="#191970" d="M64.6386,-258.5999C75.6204,-219.2525 102.3647,-142.8311 153,-100.5 157.2121,-96.9787 161.8339,-93.8702 166.7042,-91.1263"/>
<polygon fill="#191970" stroke="#191970" points="61.2114,-257.868 62.0093,-268.4328 67.9739,-259.6763 61.2114,-257.868"/>
</g>
<!-- Node13 -->
<g id="node13" class="node">
<title>Node13</title>
<g id="a_node13"><a xlink:href="../../d0/d68/classorg_1_1cobbzilla_1_1util_1_1collection_1_1mappy_1_1Mappy_a8363207e3a62d7e74c5e745c072768a3.html#a8363207e3a62d7e74c5e745c072768a3" target="_top" xlink:title="org.cobbzilla.util.collection.mappy.\lMappy\&lt; K, V, Set\&lt; V \&gt; \&gt;::toString">
<polygon fill="none" stroke="#000000" points="166,-.5 166,-30.5 335,-30.5 335,-.5 166,-.5"/>
<text text-anchor="start" x="174" y="-18.5" font-family="Helvetica,sans-Serif" font-size="10.00" fill="#000000">org.cobbzilla.util.collection.mappy.</text>
<text text-anchor="middle" x="250.5" y="-7.5" font-family="Helvetica,sans-Serif" font-size="10.00" fill="#000000">Mappy&lt; K, V, Set&lt; V &gt; &gt;::toString</text>
</a>
</g>
</g>
<!-- Node1&#45;&gt;Node13 -->
<g id="edge14" class="edge">
<title>Node1&#45;&gt;Node13</title>
<path fill="none" stroke="#191970" d="M60.8542,-258.1301C66.8418,-208.6152 87.194,-98.8544 153,-40.5 157.3146,-36.674 162.137,-33.4189 167.2645,-30.6512"/>
<polygon fill="#191970" stroke="#191970" points="57.3519,-257.9577 59.7287,-268.2824 64.3093,-258.729 57.3519,-257.9577"/>
</g>
<!-- Node4 -->
<g id="node4" class="node">
<title>Node4</title>
<g id="a_node4"><a xlink:href="../../de/de0/classorg_1_1cobbzilla_1_1util_1_1io_1_1FilesystemWalker_a02cf20505bb0ea4e3109763788ef3d79.html#a02cf20505bb0ea4e3109763788ef3d79" target="_top" xlink:title="org.cobbzilla.util.io.Filesystem\lWalker.walk">
<polygon fill="none" stroke="#000000" points="384,-454.5 384,-484.5 533,-484.5 533,-454.5 384,-454.5"/>
<text text-anchor="start" x="392" y="-472.5" font-family="Helvetica,sans-Serif" font-size="10.00" fill="#000000">org.cobbzilla.util.io.Filesystem</text>
<text text-anchor="middle" x="458.5" y="-461.5" font-family="Helvetica,sans-Serif" font-size="10.00" fill="#000000">Walker.walk</text>
</a>
</g>
</g>
<!-- Node3&#45;&gt;Node4 -->
<g id="edge3" class="edge">
<title>Node3&#45;&gt;Node4</title>
<path fill="none" stroke="#191970" d="M335.4343,-469.5C351.4673,-469.5 368.1262,-469.5 383.8158,-469.5"/>
<polygon fill="#191970" stroke="#191970" points="335.0053,-466.0001 325.0053,-469.5 335.0052,-473.0001 335.0053,-466.0001"/>
</g>
<!-- Node4&#45;&gt;Node5 -->
<g id="edge4" class="edge">
<title>Node4&#45;&gt;Node5</title>
<path fill="none" stroke="#191970" d="M543.2384,-458.9077C551.8743,-457.8282 560.5522,-456.7435 568.9387,-455.6952"/>
<polygon fill="#191970" stroke="#191970" points="542.6285,-455.4566 533.1398,-460.17 543.4968,-462.4026 542.6285,-455.4566"/>
</g>
</g>
</svg>
