<?xml version="1.0" encoding="UTF-8" standalone="no"?>
<!DOCTYPE svg PUBLIC "-//W3C//DTD SVG 1.1//EN"
 "http://www.w3.org/Graphics/SVG/1.1/DTD/svg11.dtd">
<!-- Generated by graphviz version 2.40.1 (20161225.0304)
 -->
<!-- Title: org.cobbzilla.util.string.StringUtil.removeWhitespace Pages: 1 -->
<svg width="306pt" height="88pt"
 viewBox="0.00 0.00 306.00 88.00" xmlns="http://www.w3.org/2000/svg" xmlns:xlink="http://www.w3.org/1999/xlink">
<g id="graph0" class="graph" transform="scale(1 1) rotate(0) translate(4 84)">
<title>org.cobbzilla.util.string.StringUtil.removeWhitespace</title>
<!-- Node1 -->
<g id="node1" class="node">
<title>Node1</title>
<polygon fill="#bfbfbf" stroke="#000000" points="0,-24.5 0,-54.5 144,-54.5 144,-24.5 0,-24.5"/>
<text text-anchor="start" x="8" y="-42.5" font-family="Helvetica,sans-Serif" font-size="10.00" fill="#000000">org.cobbzilla.util.string.</text>
<text text-anchor="middle" x="72" y="-31.5" font-family="Helvetica,sans-Serif" font-size="10.00" fill="#000000">StringUtil.removeWhitespace</text>
</g>
<!-- Node2 -->
<g id="node2" class="node">
<title>Node2</title>
<g id="a_node2"><a xlink:href="../../db/d9f/classorg_1_1cobbzilla_1_1util_1_1string_1_1StringUtil_a3953c4584d43cdad7365d985bf9e5478.html#a3953c4584d43cdad7365d985bf9e5478" target="_top" xlink:title="org.cobbzilla.util.string.\lStringUtil.hasScripting">
<polygon fill="none" stroke="#000000" points="180.5,-49.5 180.5,-79.5 297.5,-79.5 297.5,-49.5 180.5,-49.5"/>
<text text-anchor="start" x="188.5" y="-67.5" font-family="Helvetica,sans-Serif" font-size="10.00" fill="#000000">org.cobbzilla.util.string.</text>
<text text-anchor="middle" x="239" y="-56.5" font-family="Helvetica,sans-Serif" font-size="10.00" fill="#000000">StringUtil.hasScripting</text>
</a>
</g>
</g>
<!-- Node1&#45;&gt;Node2 -->
<g id="edge1" class="edge">
<title>Node1&#45;&gt;Node2</title>
<path fill="none" stroke="#191970" d="M154.2345,-51.8105C163.0795,-53.1347 171.9435,-54.4616 180.4293,-55.7319"/>
<polygon fill="#191970" stroke="#191970" points="154.6854,-48.3391 144.2773,-50.32 153.6489,-55.262 154.6854,-48.3391"/>
</g>
<!-- Node3 -->
<g id="node3" class="node">
<title>Node3</title>
<g id="a_node3"><a xlink:href="../../db/d9f/classorg_1_1cobbzilla_1_1util_1_1string_1_1StringUtil_ab1b7eb7d798911ee84e3f19fa4bcbe0a.html#ab1b7eb7d798911ee84e3f19fa4bcbe0a" target="_top" xlink:title="org.cobbzilla.util.string.\lStringUtil.parsePercent">
<polygon fill="none" stroke="#000000" points="180,-.5 180,-30.5 298,-30.5 298,-.5 180,-.5"/>
<text text-anchor="start" x="188" y="-18.5" font-family="Helvetica,sans-Serif" font-size="10.00" fill="#000000">org.cobbzilla.util.string.</text>
<text text-anchor="middle" x="239" y="-7.5" font-family="Helvetica,sans-Serif" font-size="10.00" fill="#000000">StringUtil.parsePercent</text>
</a>
</g>
</g>
<!-- Node1&#45;&gt;Node3 -->
<g id="edge2" class="edge">
<title>Node1&#45;&gt;Node3</title>
<path fill="none" stroke="#191970" d="M154.3698,-27.6624C162.9922,-26.4233 171.6307,-25.1818 179.9173,-23.9909"/>
<polygon fill="#191970" stroke="#191970" points="153.6777,-24.2258 144.2773,-29.1128 154.6736,-31.1546 153.6777,-24.2258"/>
</g>
</g>
</svg>
