<?xml version="1.0" encoding="UTF-8" standalone="no"?>
<!DOCTYPE svg PUBLIC "-//W3C//DTD SVG 1.1//EN"
 "http://www.w3.org/Graphics/SVG/1.1/DTD/svg11.dtd">
<!-- Generated by graphviz version 2.40.1 (20161225.0304)
 -->
<!-- Title: org.cobbzilla.util.string.StringUtil.stream Pages: 1 -->
<svg width="449pt" height="39pt"
 viewBox="0.00 0.00 449.00 39.00" xmlns="http://www.w3.org/2000/svg" xmlns:xlink="http://www.w3.org/1999/xlink">
<g id="graph0" class="graph" transform="scale(1 1) rotate(0) translate(4 35)">
<title>org.cobbzilla.util.string.StringUtil.stream</title>
<!-- Node1 -->
<g id="node1" class="node">
<title>Node1</title>
<polygon fill="#bfbfbf" stroke="#000000" points="0,-.5 0,-30.5 117,-30.5 117,-.5 0,-.5"/>
<text text-anchor="start" x="8" y="-18.5" font-family="Helvetica,sans-Serif" font-size="10.00" fill="#000000">org.cobbzilla.util.string.</text>
<text text-anchor="middle" x="58.5" y="-7.5" font-family="Helvetica,sans-Serif" font-size="10.00" fill="#000000">StringUtil.stream</text>
</g>
<!-- Node2 -->
<g id="node2" class="node">
<title>Node2</title>
<g id="a_node2"><a xlink:href="../../d1/d5b/classorg_1_1cobbzilla_1_1util_1_1xml_1_1XmlUtil_ad5ab2c49e0920ae4879d44a010395e27.html#ad5ab2c49e0920ae4879d44a010395e27" target="_top" xlink:title="org.cobbzilla.util.xml.Xml\lUtil.merge">
<polygon fill="none" stroke="#000000" points="153,-.5 153,-30.5 279,-30.5 279,-.5 153,-.5"/>
<text text-anchor="start" x="161" y="-18.5" font-family="Helvetica,sans-Serif" font-size="10.00" fill="#000000">org.cobbzilla.util.xml.Xml</text>
<text text-anchor="middle" x="216" y="-7.5" font-family="Helvetica,sans-Serif" font-size="10.00" fill="#000000">Util.merge</text>
</a>
</g>
</g>
<!-- Node1&#45;&gt;Node2 -->
<g id="edge1" class="edge">
<title>Node1&#45;&gt;Node2</title>
<path fill="none" stroke="#191970" d="M127.3648,-15.5C135.8264,-15.5 144.4426,-15.5 152.8144,-15.5"/>
<polygon fill="#191970" stroke="#191970" points="127.1472,-12.0001 117.1472,-15.5 127.1472,-19.0001 127.1472,-12.0001"/>
</g>
<!-- Node3 -->
<g id="node3" class="node">
<title>Node3</title>
<g id="a_node3"><a xlink:href="../../d1/d5b/classorg_1_1cobbzilla_1_1util_1_1xml_1_1XmlUtil_a59f92071fe08adf583ea8b0d9d8f078b.html#a59f92071fe08adf583ea8b0d9d8f078b" target="_top" xlink:title="org.cobbzilla.util.xml.Xml\lUtil.merge">
<polygon fill="none" stroke="#000000" points="315,-.5 315,-30.5 441,-30.5 441,-.5 315,-.5"/>
<text text-anchor="start" x="323" y="-18.5" font-family="Helvetica,sans-Serif" font-size="10.00" fill="#000000">org.cobbzilla.util.xml.Xml</text>
<text text-anchor="middle" x="378" y="-7.5" font-family="Helvetica,sans-Serif" font-size="10.00" fill="#000000">Util.merge</text>
</a>
</g>
</g>
<!-- Node2&#45;&gt;Node3 -->
<g id="edge2" class="edge">
<title>Node2&#45;&gt;Node3</title>
<path fill="none" stroke="#191970" d="M289.3736,-15.5C297.865,-15.5 306.4692,-15.5 314.8084,-15.5"/>
<polygon fill="#191970" stroke="#191970" points="289.0973,-12.0001 279.0973,-15.5 289.0973,-19.0001 289.0973,-12.0001"/>
</g>
</g>
</svg>
