<?xml version="1.0" encoding="UTF-8" standalone="no"?>
<!DOCTYPE svg PUBLIC "-//W3C//DTD SVG 1.1//EN"
 "http://www.w3.org/Graphics/SVG/1.1/DTD/svg11.dtd">
<!-- Generated by graphviz version 2.40.1 (20161225.0304)
 -->
<!-- Title: org.cobbzilla.util.string.StringUtil.fullDateTime Pages: 1 -->
<svg width="508pt" height="39pt"
 viewBox="0.00 0.00 508.00 39.00" xmlns="http://www.w3.org/2000/svg" xmlns:xlink="http://www.w3.org/1999/xlink">
<g id="graph0" class="graph" transform="scale(1 1) rotate(0) translate(4 35)">
<title>org.cobbzilla.util.string.StringUtil.fullDateTime</title>
<!-- Node0 -->
<g id="node1" class="node">
<title>Node0</title>
<polygon fill="#bfbfbf" stroke="#000000" points="0,-.5 0,-30.5 117,-30.5 117,-.5 0,-.5"/>
<text text-anchor="start" x="8" y="-18.5" font-family="Helvetica,sans-Serif" font-size="10.00" fill="#000000">org.cobbzilla.util.string.</text>
<text text-anchor="middle" x="58.5" y="-7.5" font-family="Helvetica,sans-Serif" font-size="10.00" fill="#000000">StringUtil.fullDateTime</text>
</g>
<!-- Node1 -->
<g id="node2" class="node">
<title>Node1</title>
<g id="a_node2"><a xlink:href="../../db/d9f/classorg_1_1cobbzilla_1_1util_1_1string_1_1StringUtil_adf3a11e83f3bb4cfdba9a4b2934a3e51.html#adf3a11e83f3bb4cfdba9a4b2934a3e51" target="_top" xlink:title="org.cobbzilla.util.string.\lStringUtil.formatDateTime">
<polygon fill="none" stroke="#000000" points="153,-.5 153,-30.5 284,-30.5 284,-.5 153,-.5"/>
<text text-anchor="start" x="161" y="-18.5" font-family="Helvetica,sans-Serif" font-size="10.00" fill="#000000">org.cobbzilla.util.string.</text>
<text text-anchor="middle" x="218.5" y="-7.5" font-family="Helvetica,sans-Serif" font-size="10.00" fill="#000000">StringUtil.formatDateTime</text>
</a>
</g>
</g>
<!-- Node0&#45;&gt;Node1 -->
<g id="edge1" class="edge">
<title>Node0&#45;&gt;Node1</title>
<path fill="none" stroke="#191970" d="M117.1696,-15.5C125.503,-15.5 134.1696,-15.5 142.7702,-15.5"/>
<polygon fill="#191970" stroke="#191970" points="142.8123,-19.0001 152.8123,-15.5 142.8122,-12.0001 142.8123,-19.0001"/>
</g>
<!-- Node2 -->
<g id="node3" class="node">
<title>Node2</title>
<g id="a_node3"><a xlink:href="../../d2/db5/classorg_1_1cobbzilla_1_1util_1_1time_1_1ImprovedTimezone_a5d4a0e1217324f9eb19420a79f783d26.html#a5d4a0e1217324f9eb19420a79f783d26" target="_top" xlink:title="org.cobbzilla.util.time.\lImprovedTimezone.getTimeZoneById">
<polygon fill="none" stroke="#000000" points="320,-.5 320,-30.5 500,-30.5 500,-.5 320,-.5"/>
<text text-anchor="start" x="328" y="-18.5" font-family="Helvetica,sans-Serif" font-size="10.00" fill="#000000">org.cobbzilla.util.time.</text>
<text text-anchor="middle" x="410" y="-7.5" font-family="Helvetica,sans-Serif" font-size="10.00" fill="#000000">ImprovedTimezone.getTimeZoneById</text>
</a>
</g>
</g>
<!-- Node1&#45;&gt;Node2 -->
<g id="edge2" class="edge">
<title>Node1&#45;&gt;Node2</title>
<path fill="none" stroke="#191970" d="M284.1355,-15.5C292.3845,-15.5 300.9655,-15.5 309.597,-15.5"/>
<polygon fill="#191970" stroke="#191970" points="309.7361,-19.0001 319.736,-15.5 309.736,-12.0001 309.7361,-19.0001"/>
</g>
</g>
</svg>
