<?xml version="1.0" encoding="UTF-8" standalone="no"?>
<!DOCTYPE svg PUBLIC "-//W3C//DTD SVG 1.1//EN"
 "http://www.w3.org/Graphics/SVG/1.1/DTD/svg11.dtd">
<!-- Generated by graphviz version 2.40.1 (20161225.0304)
 -->
<!-- Title: org.cobbzilla.util.string.StringUtil.formatDollarsAndCents Pages: 1 -->
<svg width="368pt" height="110pt"
 viewBox="0.00 0.00 368.00 110.00" xmlns="http://www.w3.org/2000/svg" xmlns:xlink="http://www.w3.org/1999/xlink">
<g id="graph0" class="graph" transform="scale(1 1) rotate(0) translate(4 106)">
<title>org.cobbzilla.util.string.StringUtil.formatDollarsAndCents</title>
<!-- Node1 -->
<g id="node1" class="node">
<title>Node1</title>
<polygon fill="#bfbfbf" stroke="#000000" points="0,-36 0,-66 162,-66 162,-36 0,-36"/>
<text text-anchor="start" x="8" y="-54" font-family="Helvetica,sans-Serif" font-size="10.00" fill="#000000">org.cobbzilla.util.string.</text>
<text text-anchor="middle" x="81" y="-43" font-family="Helvetica,sans-Serif" font-size="10.00" fill="#000000">StringUtil.formatDollarsAndCents</text>
</g>
<!-- Node1&#45;&gt;Node1 -->
<g id="edge1" class="edge">
<title>Node1&#45;&gt;Node1</title>
<path fill="none" stroke="#191970" d="M45.8178,-76.4579C50.1844,-81.179 61.9118,-84.5 81,-84.5 112.3242,-84.5 123.8261,-75.5566 115.5056,-66.159"/>
<polygon fill="#191970" stroke="#191970" points="49.3312,-76.367 46.4944,-66.159 42.3463,-75.908 49.3312,-76.367"/>
</g>
<!-- Node2 -->
<g id="node2" class="node">
<title>Node2</title>
<g id="a_node2"><a xlink:href="../../db/d9f/classorg_1_1cobbzilla_1_1util_1_1string_1_1StringUtil_a05da5a65dc549328e178b26efd5bfd2f.html#a05da5a65dc549328e178b26efd5bfd2f" target="_top" xlink:title="org.cobbzilla.util.string.\lStringUtil.formatDollarsAndCents\lNoSign">
<polygon fill="none" stroke="#000000" points="198,-60.5 198,-101.5 360,-101.5 360,-60.5 198,-60.5"/>
<text text-anchor="start" x="206" y="-89.5" font-family="Helvetica,sans-Serif" font-size="10.00" fill="#000000">org.cobbzilla.util.string.</text>
<text text-anchor="start" x="206" y="-78.5" font-family="Helvetica,sans-Serif" font-size="10.00" fill="#000000">StringUtil.formatDollarsAndCents</text>
<text text-anchor="middle" x="279" y="-67.5" font-family="Helvetica,sans-Serif" font-size="10.00" fill="#000000">NoSign</text>
</a>
</g>
</g>
<!-- Node1&#45;&gt;Node2 -->
<g id="edge2" class="edge">
<title>Node1&#45;&gt;Node2</title>
<path fill="none" stroke="#191970" d="M172.0848,-64.8007C180.6297,-66.0954 189.2538,-67.4021 197.7002,-68.6819"/>
<polygon fill="#191970" stroke="#191970" points="172.517,-61.3263 162.1055,-63.2887 171.4683,-68.2474 172.517,-61.3263"/>
</g>
<!-- Node3 -->
<g id="node3" class="node">
<title>Node3</title>
<g id="a_node3"><a xlink:href="../../db/d9f/classorg_1_1cobbzilla_1_1util_1_1string_1_1StringUtil_a32be128a17f9de41b9027f500c28b0f4.html#a32be128a17f9de41b9027f500c28b0f4" target="_top" xlink:title="org.cobbzilla.util.string.\lStringUtil.formatDollarsAndCents\lWithSign">
<polygon fill="none" stroke="#000000" points="198,-.5 198,-41.5 360,-41.5 360,-.5 198,-.5"/>
<text text-anchor="start" x="206" y="-29.5" font-family="Helvetica,sans-Serif" font-size="10.00" fill="#000000">org.cobbzilla.util.string.</text>
<text text-anchor="start" x="206" y="-18.5" font-family="Helvetica,sans-Serif" font-size="10.00" fill="#000000">StringUtil.formatDollarsAndCents</text>
<text text-anchor="middle" x="279" y="-7.5" font-family="Helvetica,sans-Serif" font-size="10.00" fill="#000000">WithSign</text>
</a>
</g>
</g>
<!-- Node1&#45;&gt;Node3 -->
<g id="edge3" class="edge">
<title>Node1&#45;&gt;Node3</title>
<path fill="none" stroke="#191970" d="M172.0848,-37.1993C180.6297,-35.9046 189.2538,-34.5979 197.7002,-33.3181"/>
<polygon fill="#191970" stroke="#191970" points="171.4683,-33.7526 162.1055,-38.7113 172.517,-40.6737 171.4683,-33.7526"/>
</g>
</g>
</svg>
