<?xml version="1.0" encoding="UTF-8" standalone="no"?>
<!DOCTYPE svg PUBLIC "-//W3C//DTD SVG 1.1//EN"
 "http://www.w3.org/Graphics/SVG/1.1/DTD/svg11.dtd">
<!-- Generated by graphviz version 2.40.1 (20161225.0304)
 -->
<!-- Title: org.cobbzilla.util.io.FileResolver.resolve Pages: 1 -->
<svg width="344pt" height="88pt"
 viewBox="0.00 0.00 344.00 88.00" xmlns="http://www.w3.org/2000/svg" xmlns:xlink="http://www.w3.org/1999/xlink">
<g id="graph0" class="graph" transform="scale(1 1) rotate(0) translate(4 84)">
<title>org.cobbzilla.util.io.FileResolver.resolve</title>
<!-- Node1 -->
<g id="node1" class="node">
<title>Node1</title>
<polygon fill="#bfbfbf" stroke="#000000" points="0,-24.5 0,-54.5 116,-54.5 116,-24.5 0,-24.5"/>
<text text-anchor="start" x="8" y="-42.5" font-family="Helvetica,sans-Serif" font-size="10.00" fill="#000000">org.cobbzilla.util.io.File</text>
<text text-anchor="middle" x="58" y="-31.5" font-family="Helvetica,sans-Serif" font-size="10.00" fill="#000000">Resolver.resolve</text>
</g>
<!-- Node2 -->
<g id="node2" class="node">
<title>Node2</title>
<g id="a_node2"><a xlink:href="../../d7/d5c/classorg_1_1cobbzilla_1_1util_1_1handlebars_1_1HandlebarsUtil_1_1FileLoaderHelper_ab4317625c7a5d8a214c72f4d30c1b1d8.html#ab4317625c7a5d8a214c72f4d30c1b1d8" target="_top" xlink:title="org.cobbzilla.util.handlebars.\lHandlebarsUtil.FileLoaderHelper.apply">
<polygon fill="none" stroke="#000000" points="152,-49.5 152,-79.5 336,-79.5 336,-49.5 152,-49.5"/>
<text text-anchor="start" x="160" y="-67.5" font-family="Helvetica,sans-Serif" font-size="10.00" fill="#000000">org.cobbzilla.util.handlebars.</text>
<text text-anchor="middle" x="244" y="-56.5" font-family="Helvetica,sans-Serif" font-size="10.00" fill="#000000">HandlebarsUtil.FileLoaderHelper.apply</text>
</a>
</g>
</g>
<!-- Node1&#45;&gt;Node2 -->
<g id="edge1" class="edge">
<title>Node1&#45;&gt;Node2</title>
<path fill="none" stroke="#191970" d="M126.1621,-48.6616C134.5574,-49.79 143.2441,-50.9575 151.9201,-52.1237"/>
<polygon fill="#191970" stroke="#191970" points="126.4636,-45.1707 116.0865,-47.3073 125.5311,-52.1083 126.4636,-45.1707"/>
</g>
<!-- Node3 -->
<g id="node3" class="node">
<title>Node3</title>
<g id="a_node3"><a xlink:href="../../d0/d1b/classorg_1_1cobbzilla_1_1util_1_1handlebars_1_1HandlebarsUtil_afc123354fa94c49eb4265ed52d3831c5.html#afc123354fa94c49eb4265ed52d3831c5" target="_top" xlink:title="org.cobbzilla.util.handlebars.\lHandlebarsUtil.registerFileHelpers">
<polygon fill="none" stroke="#000000" points="161,-.5 161,-30.5 327,-30.5 327,-.5 161,-.5"/>
<text text-anchor="start" x="169" y="-18.5" font-family="Helvetica,sans-Serif" font-size="10.00" fill="#000000">org.cobbzilla.util.handlebars.</text>
<text text-anchor="middle" x="244" y="-7.5" font-family="Helvetica,sans-Serif" font-size="10.00" fill="#000000">HandlebarsUtil.registerFileHelpers</text>
</a>
</g>
</g>
<!-- Node1&#45;&gt;Node3 -->
<g id="edge2" class="edge">
<title>Node1&#45;&gt;Node3</title>
<path fill="none" stroke="#191970" d="M126.2423,-30.6945C137.4827,-29.2442 149.2436,-27.7266 160.8004,-26.2354"/>
<polygon fill="#191970" stroke="#191970" points="125.5563,-27.2539 116.0865,-32.005 126.4522,-34.1964 125.5563,-27.2539"/>
</g>
</g>
</svg>
