<?xml version="1.0" encoding="UTF-8" standalone="no"?>
<!DOCTYPE svg PUBLIC "-//W3C//DTD SVG 1.1//EN"
 "http://www.w3.org/Graphics/SVG/1.1/DTD/svg11.dtd">
<!-- Generated by graphviz version 2.40.1 (20161225.0304)
 -->
<!-- Title: org.cobbzilla.util.jdbc.DebugConnection Pages: 1 -->
<svg width="119pt" height="193pt"
 viewBox="0.00 0.00 119.00 193.00" xmlns="http://www.w3.org/2000/svg" xmlns:xlink="http://www.w3.org/1999/xlink">
<g id="graph0" class="graph" transform="scale(1 1) rotate(0) translate(4 189)">
<title>org.cobbzilla.util.jdbc.DebugConnection</title>
<!-- Node0 -->
<g id="node1" class="node">
<title>Node0</title>
<polygon fill="#bfbfbf" stroke="#000000" points="0,-.5 0,-90.5 111,-90.5 111,-.5 0,-.5"/>
<text text-anchor="start" x="8" y="-78.5" font-family="Helvetica,sans-Serif" font-size="10.00" fill="#000000">org.cobbzilla.util.jdbc.</text>
<text text-anchor="middle" x="55.5" y="-67.5" font-family="Helvetica,sans-Serif" font-size="10.00" fill="#000000">DebugConnection</text>
<polyline fill="none" stroke="#000000" points="0,-60.5 111,-60.5 "/>
<text text-anchor="start" x="8" y="-48.5" font-family="Helvetica,sans-Serif" font-size="10.00" fill="#000000">&#45; id</text>
<text text-anchor="start" x="8" y="-37.5" font-family="Helvetica,sans-Serif" font-size="10.00" fill="#000000">&#45; delegate</text>
<text text-anchor="start" x="8" y="-26.5" font-family="Helvetica,sans-Serif" font-size="10.00" fill="#000000">&#45; counter</text>
<polyline fill="none" stroke="#000000" points="0,-19.5 111,-19.5 "/>
<text text-anchor="start" x="8" y="-7.5" font-family="Helvetica,sans-Serif" font-size="10.00" fill="#000000">+ DebugConnection()</text>
</g>
<!-- Node1 -->
<g id="node2" class="node">
<title>Node1</title>
<polygon fill="none" stroke="#bfbfbf" points="22.5,-127.5 22.5,-184.5 88.5,-184.5 88.5,-127.5 22.5,-127.5"/>
<text text-anchor="middle" x="55.5" y="-172.5" font-family="Helvetica,sans-Serif" font-size="10.00" fill="#000000">Connection</text>
<polyline fill="none" stroke="#bfbfbf" points="22.5,-165.5 88.5,-165.5 "/>
<text text-anchor="middle" x="55.5" y="-153.5" font-family="Helvetica,sans-Serif" font-size="10.00" fill="#000000"> </text>
<polyline fill="none" stroke="#bfbfbf" points="22.5,-146.5 88.5,-146.5 "/>
<text text-anchor="middle" x="55.5" y="-134.5" font-family="Helvetica,sans-Serif" font-size="10.00" fill="#000000"> </text>
</g>
<!-- Node1&#45;&gt;Node0 -->
<g id="edge1" class="edge">
<title>Node1&#45;&gt;Node0</title>
<path fill="none" stroke="#191970" d="M55.5,-117.1977C55.5,-108.667 55.5,-99.5607 55.5,-90.7995"/>
<polygon fill="none" stroke="#191970" points="52.0001,-117.2559 55.5,-127.2559 59.0001,-117.2559 52.0001,-117.2559"/>
</g>
</g>
</svg>
