<?xml version="1.0" encoding="UTF-8" standalone="no"?>
<!DOCTYPE svg PUBLIC "-//W3C//DTD SVG 1.1//EN"
 "http://www.w3.org/Graphics/SVG/1.1/DTD/svg11.dtd">
<!-- Generated by graphviz version 2.40.1 (20161225.0304)
 -->
<!-- Title: org.cobbzilla.util.http.HttpContentTypes.escape Pages: 1 -->
<svg width="477pt" height="88pt"
 viewBox="0.00 0.00 477.00 88.00" xmlns="http://www.w3.org/2000/svg" xmlns:xlink="http://www.w3.org/1999/xlink">
<g id="graph0" class="graph" transform="scale(1 1) rotate(0) translate(4 84)">
<title>org.cobbzilla.util.http.HttpContentTypes.escape</title>
<!-- Node1 -->
<g id="node1" class="node">
<title>Node1</title>
<polygon fill="#bfbfbf" stroke="#000000" points="0,-24.5 0,-54.5 131,-54.5 131,-24.5 0,-24.5"/>
<text text-anchor="start" x="8" y="-42.5" font-family="Helvetica,sans-Serif" font-size="10.00" fill="#000000">org.cobbzilla.util.http.</text>
<text text-anchor="middle" x="65.5" y="-31.5" font-family="Helvetica,sans-Serif" font-size="10.00" fill="#000000">HttpContentTypes.escape</text>
</g>
<!-- Node2 -->
<g id="node2" class="node">
<title>Node2</title>
<g id="a_node2"><a xlink:href="../../d3/d9f/classorg_1_1cobbzilla_1_1util_1_1http_1_1HttpResponseBean_a94b14f3f7e3093e70c2c74c94ac7bf7e.html#a94b14f3f7e3093e70c2c74c94ac7bf7e" target="_top" xlink:title="org.cobbzilla.util.http.\lHttpResponseBean.toMap">
<polygon fill="none" stroke="#000000" points="167,-49.5 167,-79.5 299,-79.5 299,-49.5 167,-49.5"/>
<text text-anchor="start" x="175" y="-67.5" font-family="Helvetica,sans-Serif" font-size="10.00" fill="#000000">org.cobbzilla.util.http.</text>
<text text-anchor="middle" x="233" y="-56.5" font-family="Helvetica,sans-Serif" font-size="10.00" fill="#000000">HttpResponseBean.toMap</text>
</a>
</g>
</g>
<!-- Node1&#45;&gt;Node2 -->
<g id="edge1" class="edge">
<title>Node1&#45;&gt;Node2</title>
<path fill="none" stroke="#191970" d="M141.2139,-50.8006C149.7905,-52.0807 158.4806,-53.3777 166.9198,-54.6373"/>
<polygon fill="#191970" stroke="#191970" points="141.6268,-47.3235 131.2197,-49.3089 140.5934,-54.2468 141.6268,-47.3235"/>
</g>
<!-- Node4 -->
<g id="node4" class="node">
<title>Node4</title>
<g id="a_node4"><a xlink:href="../../df/dcc/classorg_1_1cobbzilla_1_1util_1_1http_1_1HttpRequestBean_a7d8d0ef6cc3dee8b65ff58f9ad0c035d.html#a7d8d0ef6cc3dee8b65ff58f9ad0c035d" target="_top" xlink:title="org.cobbzilla.util.http.\lHttpRequestBean.toMap">
<polygon fill="none" stroke="#000000" points="170.5,-.5 170.5,-30.5 295.5,-30.5 295.5,-.5 170.5,-.5"/>
<text text-anchor="start" x="178.5" y="-18.5" font-family="Helvetica,sans-Serif" font-size="10.00" fill="#000000">org.cobbzilla.util.http.</text>
<text text-anchor="middle" x="233" y="-7.5" font-family="Helvetica,sans-Serif" font-size="10.00" fill="#000000">HttpRequestBean.toMap</text>
</a>
</g>
</g>
<!-- Node1&#45;&gt;Node4 -->
<g id="edge3" class="edge">
<title>Node1&#45;&gt;Node4</title>
<path fill="none" stroke="#191970" d="M141.3122,-28.6373C151.069,-27.2394 160.9707,-25.8206 170.4813,-24.4579"/>
<polygon fill="#191970" stroke="#191970" points="140.6221,-25.2004 131.2197,-30.0834 141.615,-32.1296 140.6221,-25.2004"/>
</g>
<!-- Node3 -->
<g id="node3" class="node">
<title>Node3</title>
<g id="a_node3"><a xlink:href="../../d7/d34/classorg_1_1cobbzilla_1_1util_1_1http_1_1main_1_1HttpMain_ab61ecaa37677987a1f5ae1ce50fcd517.html#ab61ecaa37677987a1f5ae1ce50fcd517" target="_top" xlink:title="org.cobbzilla.util.http.main.\lHttpMain.run">
<polygon fill="none" stroke="#000000" points="335,-49.5 335,-79.5 469,-79.5 469,-49.5 335,-49.5"/>
<text text-anchor="start" x="343" y="-67.5" font-family="Helvetica,sans-Serif" font-size="10.00" fill="#000000">org.cobbzilla.util.http.main.</text>
<text text-anchor="middle" x="402" y="-56.5" font-family="Helvetica,sans-Serif" font-size="10.00" fill="#000000">HttpMain.run</text>
</a>
</g>
</g>
<!-- Node2&#45;&gt;Node3 -->
<g id="edge2" class="edge">
<title>Node2&#45;&gt;Node3</title>
<path fill="none" stroke="#191970" d="M309.511,-64.5C317.9376,-64.5 326.4712,-64.5 334.7724,-64.5"/>
<polygon fill="#191970" stroke="#191970" points="309.3083,-61.0001 299.3082,-64.5 309.3082,-68.0001 309.3083,-61.0001"/>
</g>
</g>
</svg>
