<?xml version="1.0" encoding="UTF-8" standalone="no"?>
<!DOCTYPE svg PUBLIC "-//W3C//DTD SVG 1.1//EN"
 "http://www.w3.org/Graphics/SVG/1.1/DTD/svg11.dtd">
<!-- Generated by graphviz version 2.40.1 (20161225.0304)
 -->
<!-- Title: org.cobbzilla.util.handlebars.HandlebarsUtil.FileLoaderHelper Pages: 1 -->
<svg width="166pt" height="193pt"
 viewBox="0.00 0.00 166.00 193.00" xmlns="http://www.w3.org/2000/svg" xmlns:xlink="http://www.w3.org/1999/xlink">
<g id="graph0" class="graph" transform="scale(1 1) rotate(0) translate(4 189)">
<title>org.cobbzilla.util.handlebars.HandlebarsUtil.FileLoaderHelper</title>
<!-- Node0 -->
<g id="node1" class="node">
<title>Node0</title>
<polygon fill="#bfbfbf" stroke="#000000" points="0,-.5 0,-68.5 158,-68.5 158,-.5 0,-.5"/>
<text text-anchor="start" x="8" y="-56.5" font-family="Helvetica,sans-Serif" font-size="10.00" fill="#000000">org.cobbzilla.util.handlebars.</text>
<text text-anchor="middle" x="79" y="-45.5" font-family="Helvetica,sans-Serif" font-size="10.00" fill="#000000">HandlebarsUtil.FileLoaderHelper</text>
<polyline fill="none" stroke="#000000" points="0,-38.5 158,-38.5 "/>
<text text-anchor="start" x="8" y="-26.5" font-family="Helvetica,sans-Serif" font-size="10.00" fill="#000000">&#45; isBase64EncoderOn</text>
<polyline fill="none" stroke="#000000" points="0,-19.5 158,-19.5 "/>
<text text-anchor="start" x="8" y="-7.5" font-family="Helvetica,sans-Serif" font-size="10.00" fill="#000000">+ apply()</text>
</g>
<!-- Node1 -->
<g id="node2" class="node">
<title>Node1</title>
<polygon fill="none" stroke="#bfbfbf" points="27,-105.5 27,-184.5 131,-184.5 131,-105.5 27,-105.5"/>
<text text-anchor="start" x="35" y="-172.5" font-family="Helvetica,sans-Serif" font-size="10.00" fill="#000000">com::github::jknack</text>
<text text-anchor="start" x="35" y="-161.5" font-family="Helvetica,sans-Serif" font-size="10.00" fill="#000000">::handlebars::Helper</text>
<text text-anchor="middle" x="79" y="-150.5" font-family="Helvetica,sans-Serif" font-size="10.00" fill="#000000">&lt; String &gt;</text>
<polyline fill="none" stroke="#bfbfbf" points="27,-143.5 131,-143.5 "/>
<text text-anchor="middle" x="79" y="-131.5" font-family="Helvetica,sans-Serif" font-size="10.00" fill="#000000"> </text>
<polyline fill="none" stroke="#bfbfbf" points="27,-124.5 131,-124.5 "/>
<text text-anchor="middle" x="79" y="-112.5" font-family="Helvetica,sans-Serif" font-size="10.00" fill="#000000"> </text>
</g>
<!-- Node1&#45;&gt;Node0 -->
<g id="edge1" class="edge">
<title>Node1&#45;&gt;Node0</title>
<path fill="none" stroke="#191970" d="M79,-95.3742C79,-86.3552 79,-77.1343 79,-68.6861"/>
<polygon fill="none" stroke="#191970" points="75.5001,-95.419 79,-105.4191 82.5001,-95.4191 75.5001,-95.419"/>
</g>
</g>
</svg>
