<?xml version="1.0" encoding="UTF-8" standalone="no"?>
<!DOCTYPE svg PUBLIC "-//W3C//DTD SVG 1.1//EN"
 "http://www.w3.org/Graphics/SVG/1.1/DTD/svg11.dtd">
<!-- Generated by graphviz version 2.40.1 (20161225.0304)
 -->
<!-- Title: org.cobbzilla.util.security.CryptoUtil.decrypt Pages: 1 -->
<svg width="517pt" height="88pt"
 viewBox="0.00 0.00 517.00 88.00" xmlns="http://www.w3.org/2000/svg" xmlns:xlink="http://www.w3.org/1999/xlink">
<g id="graph0" class="graph" transform="scale(1 1) rotate(0) translate(4 84)">
<title>org.cobbzilla.util.security.CryptoUtil.decrypt</title>
<!-- Node2 -->
<g id="node1" class="node">
<title>Node2</title>
<polygon fill="#bfbfbf" stroke="#000000" points="0,-24.5 0,-54.5 128,-54.5 128,-24.5 0,-24.5"/>
<text text-anchor="start" x="8" y="-42.5" font-family="Helvetica,sans-Serif" font-size="10.00" fill="#000000">org.cobbzilla.util.security.</text>
<text text-anchor="middle" x="64" y="-31.5" font-family="Helvetica,sans-Serif" font-size="10.00" fill="#000000">CryptoUtil.decrypt</text>
</g>
<!-- Node3 -->
<g id="node2" class="node">
<title>Node3</title>
<g id="a_node2"><a xlink:href="../../d5/d5e/classorg_1_1cobbzilla_1_1util_1_1security_1_1CryptoSimple_ac1de80b64ecfda6d5d51bee10ef4bfcf.html#ac1de80b64ecfda6d5d51bee10ef4bfcf" target="_top" xlink:title="org.cobbzilla.util.security.\lCryptoSimple.decryptBytes">
<polygon fill="none" stroke="#000000" points="164,-49.5 164,-79.5 301,-79.5 301,-49.5 164,-49.5"/>
<text text-anchor="start" x="172" y="-67.5" font-family="Helvetica,sans-Serif" font-size="10.00" fill="#000000">org.cobbzilla.util.security.</text>
<text text-anchor="middle" x="232.5" y="-56.5" font-family="Helvetica,sans-Serif" font-size="10.00" fill="#000000">CryptoSimple.decryptBytes</text>
</a>
</g>
</g>
<!-- Node2&#45;&gt;Node3 -->
<g id="edge1" class="edge">
<title>Node2&#45;&gt;Node3</title>
<path fill="none" stroke="#191970" d="M138.0995,-50.494C146.6197,-51.7581 155.2804,-53.0431 163.7263,-54.2962"/>
<polygon fill="#191970" stroke="#191970" points="138.5887,-47.0283 128.1833,-49.0227 137.5613,-53.9525 138.5887,-47.0283"/>
</g>
<!-- Node4 -->
<g id="node3" class="node">
<title>Node4</title>
<g id="a_node3"><a xlink:href="../../d4/d79/classorg_1_1cobbzilla_1_1util_1_1security_1_1CryptoUtil_aff92a69c1906791656e1b7d0bdc78c53.html#aff92a69c1906791656e1b7d0bdc78c53" target="_top" xlink:title="org.cobbzilla.util.security.\lCryptoUtil.string_decrypt">
<polygon fill="none" stroke="#000000" points="168.5,-.5 168.5,-30.5 296.5,-30.5 296.5,-.5 168.5,-.5"/>
<text text-anchor="start" x="176.5" y="-18.5" font-family="Helvetica,sans-Serif" font-size="10.00" fill="#000000">org.cobbzilla.util.security.</text>
<text text-anchor="middle" x="232.5" y="-7.5" font-family="Helvetica,sans-Serif" font-size="10.00" fill="#000000">CryptoUtil.string_decrypt</text>
</a>
</g>
</g>
<!-- Node2&#45;&gt;Node4 -->
<g id="edge2" class="edge">
<title>Node2&#45;&gt;Node4</title>
<path fill="none" stroke="#191970" d="M138.1973,-28.9318C148.2983,-27.4931 158.595,-26.0265 168.4951,-24.6164"/>
<polygon fill="#191970" stroke="#191970" points="137.5898,-25.4829 128.1833,-30.3582 138.577,-32.413 137.5898,-25.4829"/>
</g>
<!-- Node5 -->
<g id="node4" class="node">
<title>Node5</title>
<g id="a_node4"><a xlink:href="../../d5/d86/classorg_1_1cobbzilla_1_1util_1_1security_1_1CryptoUtilTest_ae837f104c4898cea00b8565e0b1a5022.html#ae837f104c4898cea00b8565e0b1a5022" target="_top" xlink:title="org.cobbzilla.util.security.\lCryptoUtilTest.testStringEncryption">
<polygon fill="none" stroke="#000000" points="337,-.5 337,-30.5 509,-30.5 509,-.5 337,-.5"/>
<text text-anchor="start" x="345" y="-18.5" font-family="Helvetica,sans-Serif" font-size="10.00" fill="#000000">org.cobbzilla.util.security.</text>
<text text-anchor="middle" x="423" y="-7.5" font-family="Helvetica,sans-Serif" font-size="10.00" fill="#000000">CryptoUtilTest.testStringEncryption</text>
</a>
</g>
</g>
<!-- Node4&#45;&gt;Node5 -->
<g id="edge3" class="edge">
<title>Node4&#45;&gt;Node5</title>
<path fill="none" stroke="#191970" d="M306.8208,-15.5C316.6309,-15.5 326.7527,-15.5 336.7413,-15.5"/>
<polygon fill="#191970" stroke="#191970" points="306.7291,-12.0001 296.729,-15.5 306.729,-19.0001 306.7291,-12.0001"/>
</g>
</g>
</svg>
