<?xml version="1.0" encoding="UTF-8" standalone="no"?>
<!DOCTYPE svg PUBLIC "-//W3C//DTD SVG 1.1//EN"
 "http://www.w3.org/Graphics/SVG/1.1/DTD/svg11.dtd">
<!-- Generated by graphviz version 2.40.1 (20161225.0304)
 -->
<!-- Title: org.cobbzilla.util.security.CryptoUtil.sha256 Pages: 1 -->
<svg width="479pt" height="137pt"
 viewBox="0.00 0.00 479.00 137.00" xmlns="http://www.w3.org/2000/svg" xmlns:xlink="http://www.w3.org/1999/xlink">
<g id="graph0" class="graph" transform="scale(1 1) rotate(0) translate(4 133)">
<title>org.cobbzilla.util.security.CryptoUtil.sha256</title>
<!-- Node2 -->
<g id="node1" class="node">
<title>Node2</title>
<polygon fill="#bfbfbf" stroke="#000000" points="0,-49.5 0,-79.5 128,-79.5 128,-49.5 0,-49.5"/>
<text text-anchor="start" x="8" y="-67.5" font-family="Helvetica,sans-Serif" font-size="10.00" fill="#000000">org.cobbzilla.util.security.</text>
<text text-anchor="middle" x="64" y="-56.5" font-family="Helvetica,sans-Serif" font-size="10.00" fill="#000000">CryptoUtil.sha256</text>
</g>
<!-- Node3 -->
<g id="node2" class="node">
<title>Node3</title>
<g id="a_node2"><a xlink:href="../../d4/d79/classorg_1_1cobbzilla_1_1util_1_1security_1_1CryptoUtil_a24b4baeae069a07460da14c0e4c66bd8.html#a24b4baeae069a07460da14c0e4c66bd8" target="_top" xlink:title="org.cobbzilla.util.security.\lCryptoUtil.decrypt">
<polygon fill="none" stroke="#000000" points="164,-98.5 164,-128.5 292,-128.5 292,-98.5 164,-98.5"/>
<text text-anchor="start" x="172" y="-116.5" font-family="Helvetica,sans-Serif" font-size="10.00" fill="#000000">org.cobbzilla.util.security.</text>
<text text-anchor="middle" x="228" y="-105.5" font-family="Helvetica,sans-Serif" font-size="10.00" fill="#000000">CryptoUtil.decrypt</text>
</a>
</g>
</g>
<!-- Node2&#45;&gt;Node3 -->
<g id="edge1" class="edge">
<title>Node2&#45;&gt;Node3</title>
<path fill="none" stroke="#191970" d="M124.1343,-82.467C141.706,-87.717 160.7229,-93.3989 177.6233,-98.4484"/>
<polygon fill="#191970" stroke="#191970" points="125.1271,-79.1108 114.5436,-79.6014 123.1231,-85.8178 125.1271,-79.1108"/>
</g>
<!-- Node4 -->
<g id="node3" class="node">
<title>Node4</title>
<g id="a_node3"><a xlink:href="../../d4/d79/classorg_1_1cobbzilla_1_1util_1_1security_1_1CryptoUtil_aaba98ccc6061232ad4bfa476aa553e65.html#aaba98ccc6061232ad4bfa476aa553e65" target="_top" xlink:title="org.cobbzilla.util.security.\lCryptoUtil.decryptStream">
<polygon fill="none" stroke="#000000" points="164,-49.5 164,-79.5 292,-79.5 292,-49.5 164,-49.5"/>
<text text-anchor="start" x="172" y="-67.5" font-family="Helvetica,sans-Serif" font-size="10.00" fill="#000000">org.cobbzilla.util.security.</text>
<text text-anchor="middle" x="228" y="-56.5" font-family="Helvetica,sans-Serif" font-size="10.00" fill="#000000">CryptoUtil.decryptStream</text>
</a>
</g>
</g>
<!-- Node2&#45;&gt;Node4 -->
<g id="edge2" class="edge">
<title>Node2&#45;&gt;Node4</title>
<path fill="none" stroke="#191970" d="M138.5641,-64.5C147.0037,-64.5 155.5492,-64.5 163.8391,-64.5"/>
<polygon fill="#191970" stroke="#191970" points="138.3465,-61.0001 128.3464,-64.5 138.3464,-68.0001 138.3465,-61.0001"/>
</g>
<!-- Node6 -->
<g id="node5" class="node">
<title>Node6</title>
<g id="a_node5"><a xlink:href="../../d4/d79/classorg_1_1cobbzilla_1_1util_1_1security_1_1CryptoUtil_a021fa6b40610f149b10d7078b0e68b2a.html#a021fa6b40610f149b10d7078b0e68b2a" target="_top" xlink:title="org.cobbzilla.util.security.\lCryptoUtil.encrypt">
<polygon fill="none" stroke="#000000" points="164,-.5 164,-30.5 292,-30.5 292,-.5 164,-.5"/>
<text text-anchor="start" x="172" y="-18.5" font-family="Helvetica,sans-Serif" font-size="10.00" fill="#000000">org.cobbzilla.util.security.</text>
<text text-anchor="middle" x="228" y="-7.5" font-family="Helvetica,sans-Serif" font-size="10.00" fill="#000000">CryptoUtil.encrypt</text>
</a>
</g>
</g>
<!-- Node2&#45;&gt;Node6 -->
<g id="edge4" class="edge">
<title>Node2&#45;&gt;Node6</title>
<path fill="none" stroke="#191970" d="M124.1343,-46.533C141.706,-41.283 160.7229,-35.6011 177.6233,-30.5516"/>
<polygon fill="#191970" stroke="#191970" points="123.1231,-43.1822 114.5436,-49.3986 125.1271,-49.8892 123.1231,-43.1822"/>
</g>
<!-- Node5 -->
<g id="node4" class="node">
<title>Node5</title>
<g id="a_node4"><a xlink:href="../../d5/d5e/classorg_1_1cobbzilla_1_1util_1_1security_1_1CryptoSimple_a3bdd277dfa9febba9572ef89ee364e4a.html#a3bdd277dfa9febba9572ef89ee364e4a" target="_top" xlink:title="org.cobbzilla.util.security.\lCryptoSimple.decryptStream">
<polygon fill="none" stroke="#000000" points="328,-49.5 328,-79.5 471,-79.5 471,-49.5 328,-49.5"/>
<text text-anchor="start" x="336" y="-67.5" font-family="Helvetica,sans-Serif" font-size="10.00" fill="#000000">org.cobbzilla.util.security.</text>
<text text-anchor="middle" x="399.5" y="-56.5" font-family="Helvetica,sans-Serif" font-size="10.00" fill="#000000">CryptoSimple.decryptStream</text>
</a>
</g>
</g>
<!-- Node4&#45;&gt;Node5 -->
<g id="edge3" class="edge">
<title>Node4&#45;&gt;Node5</title>
<path fill="none" stroke="#191970" d="M302.5213,-64.5C310.9395,-64.5 319.5045,-64.5 327.8844,-64.5"/>
<polygon fill="#191970" stroke="#191970" points="302.3482,-61.0001 292.3482,-64.5 302.3482,-68.0001 302.3482,-61.0001"/>
</g>
</g>
</svg>
