<?xml version="1.0" encoding="UTF-8" standalone="no"?>
<!DOCTYPE svg PUBLIC "-//W3C//DTD SVG 1.1//EN"
 "http://www.w3.org/Graphics/SVG/1.1/DTD/svg11.dtd">
<!-- Generated by graphviz version 2.40.1 (20161225.0304)
 -->
<!-- Title: org.cobbzilla.util.security.CryptoUtil.encrypt Pages: 1 -->
<svg width="672pt" height="88pt"
 viewBox="0.00 0.00 672.00 88.00" xmlns="http://www.w3.org/2000/svg" xmlns:xlink="http://www.w3.org/1999/xlink">
<g id="graph0" class="graph" transform="scale(1 1) rotate(0) translate(4 84)">
<title>org.cobbzilla.util.security.CryptoUtil.encrypt</title>
<!-- Node2 -->
<g id="node1" class="node">
<title>Node2</title>
<polygon fill="#bfbfbf" stroke="#000000" points="0,-24.5 0,-54.5 128,-54.5 128,-24.5 0,-24.5"/>
<text text-anchor="start" x="8" y="-42.5" font-family="Helvetica,sans-Serif" font-size="10.00" fill="#000000">org.cobbzilla.util.security.</text>
<text text-anchor="middle" x="64" y="-31.5" font-family="Helvetica,sans-Serif" font-size="10.00" fill="#000000">CryptoUtil.encrypt</text>
</g>
<!-- Node3 -->
<g id="node2" class="node">
<title>Node3</title>
<g id="a_node2"><a xlink:href="../../d5/d5e/classorg_1_1cobbzilla_1_1util_1_1security_1_1CryptoSimple_afcbdb036d3438bf471b4c3f746a9b6ef.html#afcbdb036d3438bf471b4c3f746a9b6ef" target="_top" xlink:title="org.cobbzilla.util.security.\lCryptoSimple.encrypt">
<polygon fill="none" stroke="#000000" points="164,-49.5 164,-79.5 292,-79.5 292,-49.5 164,-49.5"/>
<text text-anchor="start" x="172" y="-67.5" font-family="Helvetica,sans-Serif" font-size="10.00" fill="#000000">org.cobbzilla.util.security.</text>
<text text-anchor="middle" x="228" y="-56.5" font-family="Helvetica,sans-Serif" font-size="10.00" fill="#000000">CryptoSimple.encrypt</text>
</a>
</g>
</g>
<!-- Node2&#45;&gt;Node3 -->
<g id="edge1" class="edge">
<title>Node2&#45;&gt;Node3</title>
<path fill="none" stroke="#191970" d="M138.2859,-50.8241C146.8158,-52.1244 155.4581,-53.4418 163.8391,-54.7194"/>
<polygon fill="#191970" stroke="#191970" points="138.7597,-47.3559 128.3464,-49.3089 137.7048,-54.276 138.7597,-47.3559"/>
</g>
<!-- Node4 -->
<g id="node3" class="node">
<title>Node4</title>
<g id="a_node3"><a xlink:href="../../d4/d79/classorg_1_1cobbzilla_1_1util_1_1security_1_1CryptoUtil_a7b7ec904d493c64b678f6ddce81fc79b.html#a7b7ec904d493c64b678f6ddce81fc79b" target="_top" xlink:title="org.cobbzilla.util.security.\lCryptoUtil.encryptOrDie">
<polygon fill="none" stroke="#000000" points="164,-.5 164,-30.5 292,-30.5 292,-.5 164,-.5"/>
<text text-anchor="start" x="172" y="-18.5" font-family="Helvetica,sans-Serif" font-size="10.00" fill="#000000">org.cobbzilla.util.security.</text>
<text text-anchor="middle" x="228" y="-7.5" font-family="Helvetica,sans-Serif" font-size="10.00" fill="#000000">CryptoUtil.encryptOrDie</text>
</a>
</g>
</g>
<!-- Node2&#45;&gt;Node4 -->
<g id="edge2" class="edge">
<title>Node2&#45;&gt;Node4</title>
<path fill="none" stroke="#191970" d="M138.2859,-28.6289C146.8158,-27.3806 155.4581,-26.1159 163.8391,-24.8894"/>
<polygon fill="#191970" stroke="#191970" points="137.7342,-25.1723 128.3464,-30.0834 138.7479,-32.0985 137.7342,-25.1723"/>
</g>
<!-- Node5 -->
<g id="node4" class="node">
<title>Node5</title>
<g id="a_node4"><a xlink:href="../../d4/d79/classorg_1_1cobbzilla_1_1util_1_1security_1_1CryptoUtil_a02e1787e0e185ff4bc04c89d9cd17dba.html#a02e1787e0e185ff4bc04c89d9cd17dba" target="_top" xlink:title="org.cobbzilla.util.security.\lCryptoUtil.string_encrypt">
<polygon fill="none" stroke="#000000" points="328,-.5 328,-30.5 456,-30.5 456,-.5 328,-.5"/>
<text text-anchor="start" x="336" y="-18.5" font-family="Helvetica,sans-Serif" font-size="10.00" fill="#000000">org.cobbzilla.util.security.</text>
<text text-anchor="middle" x="392" y="-7.5" font-family="Helvetica,sans-Serif" font-size="10.00" fill="#000000">CryptoUtil.string_encrypt</text>
</a>
</g>
</g>
<!-- Node4&#45;&gt;Node5 -->
<g id="edge3" class="edge">
<title>Node4&#45;&gt;Node5</title>
<path fill="none" stroke="#191970" d="M302.5641,-15.5C311.0037,-15.5 319.5492,-15.5 327.8391,-15.5"/>
<polygon fill="#191970" stroke="#191970" points="302.3465,-12.0001 292.3464,-15.5 302.3464,-19.0001 302.3465,-12.0001"/>
</g>
<!-- Node6 -->
<g id="node5" class="node">
<title>Node6</title>
<g id="a_node5"><a xlink:href="../../d5/d86/classorg_1_1cobbzilla_1_1util_1_1security_1_1CryptoUtilTest_ae837f104c4898cea00b8565e0b1a5022.html#ae837f104c4898cea00b8565e0b1a5022" target="_top" xlink:title="org.cobbzilla.util.security.\lCryptoUtilTest.testStringEncryption">
<polygon fill="none" stroke="#000000" points="492,-.5 492,-30.5 664,-30.5 664,-.5 492,-.5"/>
<text text-anchor="start" x="500" y="-18.5" font-family="Helvetica,sans-Serif" font-size="10.00" fill="#000000">org.cobbzilla.util.security.</text>
<text text-anchor="middle" x="578" y="-7.5" font-family="Helvetica,sans-Serif" font-size="10.00" fill="#000000">CryptoUtilTest.testStringEncryption</text>
</a>
</g>
</g>
<!-- Node5&#45;&gt;Node6 -->
<g id="edge4" class="edge">
<title>Node5&#45;&gt;Node6</title>
<path fill="none" stroke="#191970" d="M466.1813,-15.5C474.6235,-15.5 483.2816,-15.5 491.8613,-15.5"/>
<polygon fill="#191970" stroke="#191970" points="466.0107,-12.0001 456.0106,-15.5 466.0106,-19.0001 466.0107,-12.0001"/>
</g>
</g>
</svg>
