<?xml version="1.0" encoding="UTF-8" standalone="no"?>
<!DOCTYPE svg PUBLIC "-//W3C//DTD SVG 1.1//EN"
 "http://www.w3.org/Graphics/SVG/1.1/DTD/svg11.dtd">
<!-- Generated by graphviz version 2.40.1 (20161225.0304)
 -->
<!-- Title: org.cobbzilla.util.security.CryptoUtil.encryptOrDie Pages: 1 -->
<svg width="508pt" height="39pt"
 viewBox="0.00 0.00 508.00 39.00" xmlns="http://www.w3.org/2000/svg" xmlns:xlink="http://www.w3.org/1999/xlink">
<g id="graph0" class="graph" transform="scale(1 1) rotate(0) translate(4 35)">
<title>org.cobbzilla.util.security.CryptoUtil.encryptOrDie</title>
<!-- Node3 -->
<g id="node1" class="node">
<title>Node3</title>
<polygon fill="#bfbfbf" stroke="#000000" points="0,-.5 0,-30.5 128,-30.5 128,-.5 0,-.5"/>
<text text-anchor="start" x="8" y="-18.5" font-family="Helvetica,sans-Serif" font-size="10.00" fill="#000000">org.cobbzilla.util.security.</text>
<text text-anchor="middle" x="64" y="-7.5" font-family="Helvetica,sans-Serif" font-size="10.00" fill="#000000">CryptoUtil.encryptOrDie</text>
</g>
<!-- Node4 -->
<g id="node2" class="node">
<title>Node4</title>
<g id="a_node2"><a xlink:href="../../d4/d79/classorg_1_1cobbzilla_1_1util_1_1security_1_1CryptoUtil_a02e1787e0e185ff4bc04c89d9cd17dba.html#a02e1787e0e185ff4bc04c89d9cd17dba" target="_top" xlink:title="org.cobbzilla.util.security.\lCryptoUtil.string_encrypt">
<polygon fill="none" stroke="#000000" points="164,-.5 164,-30.5 292,-30.5 292,-.5 164,-.5"/>
<text text-anchor="start" x="172" y="-18.5" font-family="Helvetica,sans-Serif" font-size="10.00" fill="#000000">org.cobbzilla.util.security.</text>
<text text-anchor="middle" x="228" y="-7.5" font-family="Helvetica,sans-Serif" font-size="10.00" fill="#000000">CryptoUtil.string_encrypt</text>
</a>
</g>
</g>
<!-- Node3&#45;&gt;Node4 -->
<g id="edge1" class="edge">
<title>Node3&#45;&gt;Node4</title>
<path fill="none" stroke="#191970" d="M138.5641,-15.5C147.0037,-15.5 155.5492,-15.5 163.8391,-15.5"/>
<polygon fill="#191970" stroke="#191970" points="138.3465,-12.0001 128.3464,-15.5 138.3464,-19.0001 138.3465,-12.0001"/>
</g>
<!-- Node5 -->
<g id="node3" class="node">
<title>Node5</title>
<g id="a_node3"><a xlink:href="../../d5/d86/classorg_1_1cobbzilla_1_1util_1_1security_1_1CryptoUtilTest_ae837f104c4898cea00b8565e0b1a5022.html#ae837f104c4898cea00b8565e0b1a5022" target="_top" xlink:title="org.cobbzilla.util.security.\lCryptoUtilTest.testStringEncryption">
<polygon fill="none" stroke="#000000" points="328,-.5 328,-30.5 500,-30.5 500,-.5 328,-.5"/>
<text text-anchor="start" x="336" y="-18.5" font-family="Helvetica,sans-Serif" font-size="10.00" fill="#000000">org.cobbzilla.util.security.</text>
<text text-anchor="middle" x="414" y="-7.5" font-family="Helvetica,sans-Serif" font-size="10.00" fill="#000000">CryptoUtilTest.testStringEncryption</text>
</a>
</g>
</g>
<!-- Node4&#45;&gt;Node5 -->
<g id="edge2" class="edge">
<title>Node4&#45;&gt;Node5</title>
<path fill="none" stroke="#191970" d="M302.1813,-15.5C310.6235,-15.5 319.2816,-15.5 327.8613,-15.5"/>
<polygon fill="#191970" stroke="#191970" points="302.0107,-12.0001 292.0106,-15.5 302.0106,-19.0001 302.0107,-12.0001"/>
</g>
</g>
</svg>
