<?xml version="1.0" encoding="UTF-8" standalone="no"?>
<!DOCTYPE svg PUBLIC "-//W3C//DTD SVG 1.1//EN"
 "http://www.w3.org/Graphics/SVG/1.1/DTD/svg11.dtd">
<!-- Generated by graphviz version 2.40.1 (20161225.0304)
 -->
<!-- Title: org.cobbzilla.util.http.HtmlScreenCapture.capture Pages: 1 -->
<svg width="457pt" height="39pt"
 viewBox="0.00 0.00 457.00 39.00" xmlns="http://www.w3.org/2000/svg" xmlns:xlink="http://www.w3.org/1999/xlink">
<g id="graph0" class="graph" transform="scale(1 1) rotate(0) translate(4 35)">
<title>org.cobbzilla.util.http.HtmlScreenCapture.capture</title>
<!-- Node0 -->
<g id="node1" class="node">
<title>Node0</title>
<polygon fill="#bfbfbf" stroke="#000000" points="0,-.5 0,-30.5 138,-30.5 138,-.5 0,-.5"/>
<text text-anchor="start" x="8" y="-18.5" font-family="Helvetica,sans-Serif" font-size="10.00" fill="#000000">org.cobbzilla.util.http.</text>
<text text-anchor="middle" x="69" y="-7.5" font-family="Helvetica,sans-Serif" font-size="10.00" fill="#000000">HtmlScreenCapture.capture</text>
</g>
<!-- Node1 -->
<g id="node2" class="node">
<title>Node1</title>
<g id="a_node2"><a xlink:href="../../de/d08/classorg_1_1cobbzilla_1_1util_1_1http_1_1PhantomUtil_a740553cce76b2a14be2d7defb4f55bef.html#a740553cce76b2a14be2d7defb4f55bef" target="_top" xlink:title="org.cobbzilla.util.http.\lPhantomUtil.execJs">
<polygon fill="none" stroke="#000000" points="174,-.5 174,-30.5 284,-30.5 284,-.5 174,-.5"/>
<text text-anchor="start" x="182" y="-18.5" font-family="Helvetica,sans-Serif" font-size="10.00" fill="#000000">org.cobbzilla.util.http.</text>
<text text-anchor="middle" x="229" y="-7.5" font-family="Helvetica,sans-Serif" font-size="10.00" fill="#000000">PhantomUtil.execJs</text>
</a>
</g>
</g>
<!-- Node0&#45;&gt;Node1 -->
<g id="edge1" class="edge">
<title>Node0&#45;&gt;Node1</title>
<path fill="none" stroke="#191970" d="M138.2478,-15.5C146.6538,-15.5 155.2212,-15.5 163.5696,-15.5"/>
<polygon fill="#191970" stroke="#191970" points="163.6185,-19.0001 173.6185,-15.5 163.6184,-12.0001 163.6185,-19.0001"/>
</g>
<!-- Node2 -->
<g id="node3" class="node">
<title>Node2</title>
<g id="a_node3"><a xlink:href="../../de/d08/classorg_1_1cobbzilla_1_1util_1_1http_1_1PhantomUtil_a551e60120a427571d2dc8e597927ddaf.html#a551e60120a427571d2dc8e597927ddaf" target="_top" xlink:title="org.cobbzilla.util.http.\lPhantomUtil.defaultDriver">
<polygon fill="none" stroke="#000000" points="320,-.5 320,-30.5 449,-30.5 449,-.5 320,-.5"/>
<text text-anchor="start" x="328" y="-18.5" font-family="Helvetica,sans-Serif" font-size="10.00" fill="#000000">org.cobbzilla.util.http.</text>
<text text-anchor="middle" x="384.5" y="-7.5" font-family="Helvetica,sans-Serif" font-size="10.00" fill="#000000">PhantomUtil.defaultDriver</text>
</a>
</g>
</g>
<!-- Node1&#45;&gt;Node2 -->
<g id="edge2" class="edge">
<title>Node1&#45;&gt;Node2</title>
<path fill="none" stroke="#191970" d="M284.2613,-15.5C292.5435,-15.5 301.1981,-15.5 309.8028,-15.5"/>
<polygon fill="#191970" stroke="#191970" points="309.8558,-19.0001 319.8557,-15.5 309.8557,-12.0001 309.8558,-19.0001"/>
</g>
</g>
</svg>
