<?xml version="1.0" encoding="UTF-8" standalone="no"?>
<!DOCTYPE svg PUBLIC "-//W3C//DTD SVG 1.1//EN"
 "http://www.w3.org/Graphics/SVG/1.1/DTD/svg11.dtd">
<!-- Generated by graphviz version 2.40.1 (20161225.0304)
 -->
<!-- Title: org.cobbzilla.util.http.HtmlScreenCapture.capture Pages: 1 -->
<svg width="320pt" height="57pt"
 viewBox="0.00 0.00 320.00 57.00" xmlns="http://www.w3.org/2000/svg" xmlns:xlink="http://www.w3.org/1999/xlink">
<g id="graph0" class="graph" transform="scale(1 1) rotate(0) translate(4 53)">
<title>org.cobbzilla.util.http.HtmlScreenCapture.capture</title>
<!-- Node0 -->
<g id="node1" class="node">
<title>Node0</title>
<polygon fill="#bfbfbf" stroke="#000000" points="0,-.5 0,-30.5 138,-30.5 138,-.5 0,-.5"/>
<text text-anchor="start" x="8" y="-18.5" font-family="Helvetica,sans-Serif" font-size="10.00" fill="#000000">org.cobbzilla.util.http.</text>
<text text-anchor="middle" x="69" y="-7.5" font-family="Helvetica,sans-Serif" font-size="10.00" fill="#000000">HtmlScreenCapture.capture</text>
</g>
<!-- Node1 -->
<g id="node2" class="node">
<title>Node1</title>
<g id="a_node2"><a xlink:href="../../db/dfe/classorg_1_1cobbzilla_1_1util_1_1http_1_1HtmlScreenCapture_a73b858d4391a4689b7ba6326e016ec24.html#a73b858d4391a4689b7ba6326e016ec24" target="_top" xlink:title="org.cobbzilla.util.http.\lHtmlScreenCapture.capture">
<polygon fill="none" stroke="#000000" points="174,-.5 174,-30.5 312,-30.5 312,-.5 174,-.5"/>
<text text-anchor="start" x="182" y="-18.5" font-family="Helvetica,sans-Serif" font-size="10.00" fill="#000000">org.cobbzilla.util.http.</text>
<text text-anchor="middle" x="243" y="-7.5" font-family="Helvetica,sans-Serif" font-size="10.00" fill="#000000">HtmlScreenCapture.capture</text>
</a>
</g>
</g>
<!-- Node0&#45;&gt;Node1 -->
<g id="edge1" class="edge">
<title>Node0&#45;&gt;Node1</title>
<path fill="none" stroke="#191970" d="M138.0193,-15.5C146.4757,-15.5 155.1691,-15.5 163.7607,-15.5"/>
<polygon fill="#191970" stroke="#191970" points="163.7795,-19.0001 173.7795,-15.5 163.7794,-12.0001 163.7795,-19.0001"/>
</g>
<!-- Node1&#45;&gt;Node1 -->
<g id="edge2" class="edge">
<title>Node1&#45;&gt;Node1</title>
<path fill="none" stroke="#191970" d="M212.6769,-30.659C205.365,-40.0566 215.4727,-49 243,-49 259.7745,-49 270.0804,-45.679 273.9177,-40.9579"/>
<polygon fill="#191970" stroke="#191970" points="277.3938,-40.4406 273.3231,-30.659 270.4054,-40.8441 277.3938,-40.4406"/>
</g>
</g>
</svg>
