<?xml version="1.0" encoding="UTF-8" standalone="no"?>
<!DOCTYPE svg PUBLIC "-//W3C//DTD SVG 1.1//EN"
 "http://www.w3.org/Graphics/SVG/1.1/DTD/svg11.dtd">
<!-- Generated by graphviz version 2.40.1 (20161225.0304)
 -->
<!-- Title: org.cobbzilla.util.cron.quartz.QuartzMaster.addJob Pages: 1 -->
<svg width="298pt" height="88pt"
 viewBox="0.00 0.00 298.00 88.00" xmlns="http://www.w3.org/2000/svg" xmlns:xlink="http://www.w3.org/1999/xlink">
<g id="graph0" class="graph" transform="scale(1 1) rotate(0) translate(4 84)">
<title>org.cobbzilla.util.cron.quartz.QuartzMaster.addJob</title>
<!-- Node0 -->
<g id="node1" class="node">
<title>Node0</title>
<polygon fill="#bfbfbf" stroke="#000000" points="0,-24.5 0,-54.5 142,-54.5 142,-24.5 0,-24.5"/>
<text text-anchor="start" x="8" y="-42.5" font-family="Helvetica,sans-Serif" font-size="10.00" fill="#000000">org.cobbzilla.util.cron.quartz.</text>
<text text-anchor="middle" x="71" y="-31.5" font-family="Helvetica,sans-Serif" font-size="10.00" fill="#000000">QuartzMaster.addJob</text>
</g>
<!-- Node1 -->
<g id="node2" class="node">
<title>Node1</title>
<g id="a_node2"><a xlink:href="../../db/d63/interfaceorg_1_1cobbzilla_1_1util_1_1cron_1_1CronCommand_a7d3d927f61ed15b37479d6a6b725b7a6.html#a7d3d927f61ed15b37479d6a6b725b7a6" target="_top" xlink:title="org.cobbzilla.util.cron.\lCronCommand.exec">
<polygon fill="none" stroke="#000000" points="178,-49.5 178,-79.5 290,-79.5 290,-49.5 178,-49.5"/>
<text text-anchor="start" x="186" y="-67.5" font-family="Helvetica,sans-Serif" font-size="10.00" fill="#000000">org.cobbzilla.util.cron.</text>
<text text-anchor="middle" x="234" y="-56.5" font-family="Helvetica,sans-Serif" font-size="10.00" fill="#000000">CronCommand.exec</text>
</a>
</g>
</g>
<!-- Node0&#45;&gt;Node1 -->
<g id="edge1" class="edge">
<title>Node0&#45;&gt;Node1</title>
<path fill="none" stroke="#191970" d="M142.02,-50.3926C150.6528,-51.7167 159.445,-53.0652 168.0006,-54.3774"/>
<polygon fill="#191970" stroke="#191970" points="167.4967,-57.841 177.9118,-55.8975 168.558,-50.9219 167.4967,-57.841"/>
</g>
<!-- Node2 -->
<g id="node3" class="node">
<title>Node2</title>
<g id="a_node3"><a xlink:href="../../db/d63/interfaceorg_1_1cobbzilla_1_1util_1_1cron_1_1CronCommand_a5da20ade0e586da54eaed7d3756c38ed.html#a5da20ade0e586da54eaed7d3756c38ed" target="_top" xlink:title="org.cobbzilla.util.cron.\lCronCommand.init">
<polygon fill="none" stroke="#000000" points="178,-.5 178,-30.5 290,-30.5 290,-.5 178,-.5"/>
<text text-anchor="start" x="186" y="-18.5" font-family="Helvetica,sans-Serif" font-size="10.00" fill="#000000">org.cobbzilla.util.cron.</text>
<text text-anchor="middle" x="234" y="-7.5" font-family="Helvetica,sans-Serif" font-size="10.00" fill="#000000">CronCommand.init</text>
</a>
</g>
</g>
<!-- Node0&#45;&gt;Node2 -->
<g id="edge2" class="edge">
<title>Node0&#45;&gt;Node2</title>
<path fill="none" stroke="#191970" d="M142.02,-29.0431C150.6528,-27.772 159.445,-26.4774 168.0006,-25.2177"/>
<polygon fill="#191970" stroke="#191970" points="168.5283,-28.6778 177.9118,-23.7584 167.5086,-21.7525 168.5283,-28.6778"/>
</g>
</g>
</svg>
