<?xml version="1.0" encoding="UTF-8" standalone="no"?>
<!DOCTYPE svg PUBLIC "-//W3C//DTD SVG 1.1//EN"
 "http://www.w3.org/Graphics/SVG/1.1/DTD/svg11.dtd">
<!-- Generated by graphviz version 2.40.1 (20161225.0304)
 -->
<!-- Title: org.cobbzilla.util.mustache.LocaleAwareMustacheFactory Pages: 1 -->
<!--zoomable 463 -->
<svg id="main" version="1.1" xmlns="http://www.w3.org/2000/svg" xmlns:xlink="http://www.w3.org/1999/xlink" xml:space="preserve" onload="init(evt)">
<style type="text/css"><![CDATA[
.edge:hover path { stroke: red; }
.edge:hover polygon { stroke: red; fill: red; }
]]></style>
<script type="text/javascript"><![CDATA[
var edges = document.getElementsByTagName('g');
if (edges && edges.length) {
  for (var i=0;i<edges.length;i++) {
    if (edges[i].id.substr(0,4)=='edge') {
      edges[i].setAttribute('class','edge');
    }
  }
}
]]></script>
        <defs>
                <circle id="rim" cx="0" cy="0" r="7"/>
                <circle id="rim2" cx="0" cy="0" r="3.5"/>
                <g id="zoomPlus">
                        <use xlink:href="#rim" fill="#404040">
                                <set attributeName="fill" to="#808080" begin="zoomplus.mouseover" end="zoomplus.mouseout"/>
                        </use>
                        <path d="M-4,0h8M0,-4v8" fill="none" stroke="white" stroke-width="1.5" pointer-events="none"/>
                </g>
                <g id="zoomMin">
                        <use xlink:href="#rim" fill="#404040">
                                <set attributeName="fill" to="#808080" begin="zoomminus.mouseover" end="zoomminus.mouseout"/>
                        </use>
                        <path d="M-4,0h8" fill="none" stroke="white" stroke-width="1.5" pointer-events="none"/>
                </g>
                <g id="dirArrow">
                        <path fill="none" stroke="white" stroke-width="1.5" d="M0,-3.0v7 M-2.5,-0.5L0,-3.0L2.5,-0.5"/>
                </g>
               <g id="resetDef">
                       <use xlink:href="#rim2" fill="#404040">
                               <set attributeName="fill" to="#808080" begin="reset.mouseover" end="reset.mouseout"/>
                       </use>
               </g>
        </defs>

<script type="text/javascript">
var viewWidth = 664;
var viewHeight = 463;
var sectionId = 'dynsection-1';
</script>
<script xlink:href="../../svgpan.js"/>
<svg id="graph" class="graph">
<g id="viewport">
<title>org.cobbzilla.util.mustache.LocaleAwareMustacheFactory</title>
<!-- Node2 -->
<g id="node1" class="node">
<title>Node2</title>
<polygon fill="#bfbfbf" stroke="#000000" points="177,-.5 177,-189.5 341,-189.5 341,-.5 177,-.5"/>
<text text-anchor="start" x="185" y="-177.5" font-family="Helvetica,sans-Serif" font-size="10.00" fill="#000000">org.cobbzilla.util.mustache.</text>
<text text-anchor="middle" x="259" y="-166.5" font-family="Helvetica,sans-Serif" font-size="10.00" fill="#000000">LocaleAwareMustacheFactory</text>
<polyline fill="none" stroke="#000000" points="177,-159.5 341,-159.5 "/>
<text text-anchor="start" x="185" y="-147.5" font-family="Helvetica,sans-Serif" font-size="10.00" fill="#000000">+ TEMPLATE_SUFFIX</text>
<text text-anchor="start" x="185" y="-136.5" font-family="Helvetica,sans-Serif" font-size="10.00" fill="#000000">&#45; skipClasspath</text>
<text text-anchor="start" x="185" y="-125.5" font-family="Helvetica,sans-Serif" font-size="10.00" fill="#000000">&#45; REFRESH_INTERVAL</text>
<polyline fill="none" stroke="#000000" points="177,-118.5 341,-118.5 "/>
<text text-anchor="start" x="185" y="-106.5" font-family="Helvetica,sans-Serif" font-size="10.00" fill="#000000">+ LocaleAwareMustacheFactory()</text>
<text text-anchor="start" x="185" y="-95.5" font-family="Helvetica,sans-Serif" font-size="10.00" fill="#000000">+ LocaleAwareMustacheFactory()</text>
<text text-anchor="start" x="185" y="-84.5" font-family="Helvetica,sans-Serif" font-size="10.00" fill="#000000">+ getReader()</text>
<text text-anchor="start" x="185" y="-73.5" font-family="Helvetica,sans-Serif" font-size="10.00" fill="#000000">+ render()</text>
<text text-anchor="start" x="185" y="-62.5" font-family="Helvetica,sans-Serif" font-size="10.00" fill="#000000">+ render()</text>
<text text-anchor="start" x="185" y="-51.5" font-family="Helvetica,sans-Serif" font-size="10.00" fill="#000000">+ getFactory()</text>
<text text-anchor="start" x="185" y="-40.5" font-family="Helvetica,sans-Serif" font-size="10.00" fill="#000000">+ getFactory()</text>
<text text-anchor="start" x="185" y="-29.5" font-family="Helvetica,sans-Serif" font-size="10.00" fill="#000000">+ flushCache()</text>
<text text-anchor="start" x="185" y="-18.5" font-family="Helvetica,sans-Serif" font-size="10.00" fill="#000000"># createMustacheCache()</text>
<text text-anchor="start" x="185" y="-7.5" font-family="Helvetica,sans-Serif" font-size="10.00" fill="#000000">&#45; getReader_internal()</text>
</g>
<!-- Node3 -->
<g id="node2" class="node">
<title>Node3</title>
<polygon fill="none" stroke="#bfbfbf" points="0,-248.5 0,-305.5 124,-305.5 124,-248.5 0,-248.5"/>
<text text-anchor="middle" x="62" y="-293.5" font-family="Helvetica,sans-Serif" font-size="10.00" fill="#000000">DefaultMustacheFactory</text>
<polyline fill="none" stroke="#bfbfbf" points="0,-286.5 124,-286.5 "/>
<text text-anchor="middle" x="62" y="-274.5" font-family="Helvetica,sans-Serif" font-size="10.00" fill="#000000"> </text>
<polyline fill="none" stroke="#bfbfbf" points="0,-267.5 124,-267.5 "/>
<text text-anchor="middle" x="62" y="-255.5" font-family="Helvetica,sans-Serif" font-size="10.00" fill="#000000"> </text>
</g>
<!-- Node3&#45;&gt;Node2 -->
<g id="edge1" class="edge">
<title>Node3&#45;&gt;Node2</title>
<path fill="none" stroke="#191970" d="M100.6437,-241.2987C122.4233,-221.1775 150.4918,-195.2462 176.9342,-170.8171"/>
<polygon fill="none" stroke="#191970" points="98.1854,-238.8048 93.2152,-248.1616 102.9355,-243.9464 98.1854,-238.8048"/>
</g>
<!-- Node4 -->
<g id="node3" class="node">
<title>Node4</title>
<polygon fill="none" stroke="#bfbfbf" points="142,-248.5 142,-305.5 218,-305.5 218,-248.5 142,-248.5"/>
<text text-anchor="middle" x="180" y="-293.5" font-family="Helvetica,sans-Serif" font-size="10.00" fill="#000000">List&lt; String &gt;</text>
<polyline fill="none" stroke="#bfbfbf" points="142,-286.5 218,-286.5 "/>
<text text-anchor="middle" x="180" y="-274.5" font-family="Helvetica,sans-Serif" font-size="10.00" fill="#000000"> </text>
<polyline fill="none" stroke="#bfbfbf" points="142,-267.5 218,-267.5 "/>
<text text-anchor="middle" x="180" y="-255.5" font-family="Helvetica,sans-Serif" font-size="10.00" fill="#000000"> </text>
</g>
<!-- Node4&#45;&gt;Node2 -->
<g id="edge2" class="edge">
<title>Node4&#45;&gt;Node2</title>
<path fill="none" stroke="#404040" d="M182.105,-248.1797C183.6549,-235.5652 186.3426,-220.7628 191,-208 191.8738,-205.6055 192.8002,-203.2055 193.773,-200.8051"/>
<polygon fill="none" stroke="#404040" points="193.864,-200.5953 192.5828,-193.4989 198.6406,-189.5869 199.9217,-196.6833 193.864,-200.5953"/>
<text text-anchor="middle" x="223" y="-211" font-family="Helvetica,sans-Serif" font-size="10.00" fill="#000000"> &#45;suffixChecks</text>
</g>
<!-- Node5 -->
<g id="node4" class="node">
<title>Node5</title>
<polygon fill="none" stroke="#bfbfbf" points="164,-397.5 164,-454.5 196,-454.5 196,-397.5 164,-397.5"/>
<text text-anchor="middle" x="180" y="-442.5" font-family="Helvetica,sans-Serif" font-size="10.00" fill="#000000">List</text>
<polyline fill="none" stroke="#bfbfbf" points="164,-435.5 196,-435.5 "/>
<text text-anchor="middle" x="180" y="-423.5" font-family="Helvetica,sans-Serif" font-size="10.00" fill="#000000"> </text>
<polyline fill="none" stroke="#bfbfbf" points="164,-416.5 196,-416.5 "/>
<text text-anchor="middle" x="180" y="-404.5" font-family="Helvetica,sans-Serif" font-size="10.00" fill="#000000"> </text>
</g>
<!-- Node5&#45;&gt;Node4 -->
<g id="edge3" class="edge">
<title>Node5&#45;&gt;Node4</title>
<path fill="none" stroke="#ffa500" d="M180,-387.1806C180,-361.652 180,-328.8055 180,-305.6405"/>
<polygon fill="#ffa500" stroke="#ffa500" points="176.5001,-387.2713 180,-397.2713 183.5001,-387.2713 176.5001,-387.2713"/>
<text text-anchor="middle" x="203.5" y="-354.5" font-family="Helvetica,sans-Serif" font-size="10.00" fill="#000000"> &lt; String &gt;</text>
</g>
<!-- Node6 -->
<g id="node5" class="node">
<title>Node6</title>
<polygon fill="none" stroke="#bfbfbf" points="243,-248.5 243,-305.5 275,-305.5 275,-248.5 243,-248.5"/>
<text text-anchor="middle" x="259" y="-293.5" font-family="Helvetica,sans-Serif" font-size="10.00" fill="#000000">File</text>
<polyline fill="none" stroke="#bfbfbf" points="243,-286.5 275,-286.5 "/>
<text text-anchor="middle" x="259" y="-274.5" font-family="Helvetica,sans-Serif" font-size="10.00" fill="#000000"> </text>
<polyline fill="none" stroke="#bfbfbf" points="243,-267.5 275,-267.5 "/>
<text text-anchor="middle" x="259" y="-255.5" font-family="Helvetica,sans-Serif" font-size="10.00" fill="#000000"> </text>
</g>
<!-- Node6&#45;&gt;Node2 -->
<g id="edge4" class="edge">
<title>Node6&#45;&gt;Node2</title>
<path fill="none" stroke="#404040" d="M259,-248.1616C259,-235.2566 259,-219.1568 259,-202.2851"/>
<polygon fill="none" stroke="#404040" points="259.0001,-201.898 255,-195.898 259,-189.898 263,-195.898 259.0001,-201.898"/>
<text text-anchor="middle" x="292.5" y="-211" font-family="Helvetica,sans-Serif" font-size="10.00" fill="#000000"> &#45;superFileRoot</text>
</g>
<!-- Node7 -->
<g id="node6" class="node">
<title>Node7</title>
<polygon fill="none" stroke="#bfbfbf" points="315,-248.5 315,-305.5 383,-305.5 383,-248.5 315,-248.5"/>
<text text-anchor="middle" x="349" y="-293.5" font-family="Helvetica,sans-Serif" font-size="10.00" fill="#000000">AtomicLong</text>
<polyline fill="none" stroke="#bfbfbf" points="315,-286.5 383,-286.5 "/>
<text text-anchor="middle" x="349" y="-274.5" font-family="Helvetica,sans-Serif" font-size="10.00" fill="#000000"> </text>
<polyline fill="none" stroke="#bfbfbf" points="315,-267.5 383,-267.5 "/>
<text text-anchor="middle" x="349" y="-255.5" font-family="Helvetica,sans-Serif" font-size="10.00" fill="#000000"> </text>
</g>
<!-- Node7&#45;&gt;Node2 -->
<g id="edge5" class="edge">
<title>Node7&#45;&gt;Node2</title>
<path fill="none" stroke="#404040" d="M341.462,-248.2418C337.7458,-235.6389 332.8087,-220.8283 327,-208 325.8873,-205.5427 324.733,-203.0723 323.5433,-200.5951"/>
<polygon fill="none" stroke="#404040" points="323.4715,-200.4508 317.2153,-196.8647 318.1193,-189.7105 324.3755,-193.2966 323.4715,-200.4508"/>
<text text-anchor="middle" x="360.5" y="-211" font-family="Helvetica,sans-Serif" font-size="10.00" fill="#000000"> &#45;lastRefresh</text>
</g>
<!-- Node8 -->
<g id="node7" class="node">
<title>Node8</title>
<polygon fill="none" stroke="#bfbfbf" points="401,-237.5 401,-316.5 615,-316.5 615,-237.5 401,-237.5"/>
<text text-anchor="start" x="409" y="-304.5" font-family="Helvetica,sans-Serif" font-size="10.00" fill="#000000">LoadingCache&lt; org.cobbzilla.util.mustache.</text>
<text text-anchor="start" x="409" y="-293.5" font-family="Helvetica,sans-Serif" font-size="10.00" fill="#000000">LAMFCacheKey, org.cobbzilla.util.mustache.</text>
<text text-anchor="middle" x="508" y="-282.5" font-family="Helvetica,sans-Serif" font-size="10.00" fill="#000000">LocaleAwareMustacheFactory &gt;</text>
<polyline fill="none" stroke="#bfbfbf" points="401,-275.5 615,-275.5 "/>
<text text-anchor="middle" x="508" y="-263.5" font-family="Helvetica,sans-Serif" font-size="10.00" fill="#000000"> </text>
<polyline fill="none" stroke="#bfbfbf" points="401,-256.5 615,-256.5 "/>
<text text-anchor="middle" x="508" y="-244.5" font-family="Helvetica,sans-Serif" font-size="10.00" fill="#000000"> </text>
</g>
<!-- Node8&#45;&gt;Node2 -->
<g id="edge6" class="edge">
<title>Node8&#45;&gt;Node2</title>
<path fill="none" stroke="#404040" d="M453.6636,-237.2842C423.7083,-215.3892 385.7069,-187.613 351.2463,-162.425"/>
<polygon fill="none" stroke="#404040" points="350.8439,-162.1309 343.6395,-161.8196 341.1559,-155.0497 348.3603,-155.361 350.8439,-162.1309"/>
<text text-anchor="middle" x="478.5" y="-211" font-family="Helvetica,sans-Serif" font-size="10.00" fill="#000000"> #factoryLoadingCache</text>
</g>
<!-- Node9 -->
<g id="node8" class="node">
<title>Node9</title>
<polygon fill="none" stroke="#bfbfbf" points="468.5,-397.5 468.5,-454.5 547.5,-454.5 547.5,-397.5 468.5,-397.5"/>
<text text-anchor="middle" x="508" y="-442.5" font-family="Helvetica,sans-Serif" font-size="10.00" fill="#000000">LoadingCache</text>
<polyline fill="none" stroke="#bfbfbf" points="468.5,-435.5 547.5,-435.5 "/>
<text text-anchor="middle" x="508" y="-423.5" font-family="Helvetica,sans-Serif" font-size="10.00" fill="#000000"> </text>
<polyline fill="none" stroke="#bfbfbf" points="468.5,-416.5 547.5,-416.5 "/>
<text text-anchor="middle" x="508" y="-404.5" font-family="Helvetica,sans-Serif" font-size="10.00" fill="#000000"> </text>
</g>
<!-- Node9&#45;&gt;Node8 -->
<g id="edge7" class="edge">
<title>Node9&#45;&gt;Node8</title>
<path fill="none" stroke="#ffa500" d="M508,-387.089C508,-365.3929 508,-338.4333 508,-316.6236"/>
<polygon fill="#ffa500" stroke="#ffa500" points="504.5001,-387.2713 508,-397.2713 511.5001,-387.2713 504.5001,-387.2713"/>
<text text-anchor="start" x="508" y="-371" font-family="Helvetica,sans-Serif" font-size="10.00" fill="#000000"> &lt; org::cobbzilla::util</text>
<text text-anchor="start" x="508" y="-360" font-family="Helvetica,sans-Serif" font-size="10.00" fill="#000000">::mustache::LAMFCacheKey,</text>
<text text-anchor="start" x="508" y="-349" font-family="Helvetica,sans-Serif" font-size="10.00" fill="#000000"> org::cobbzilla::util::mustache</text>
<text text-anchor="middle" x="582" y="-338" font-family="Helvetica,sans-Serif" font-size="10.00" fill="#000000">::LocaleAwareMustacheFactory &gt;</text>
</g>
</g>
</svg>
        <g id="navigator" transform="translate(0 0)" fill="#404254">
                <rect fill="#f2f5e9" fill-opacity="0.5" stroke="#606060" stroke-width=".5" x="0" y="0" width="60" height="60"/>
                <use id="zoomplus" xlink:href="#zoomPlus" x="17" y="9" onmousedown="handleZoom(evt,'in')"/>
                <use id="zoomminus" xlink:href="#zoomMin" x="42" y="9" onmousedown="handleZoom(evt,'out')"/>
                <use id="reset" xlink:href="#resetDef" x="30" y="36" onmousedown="handleReset()"/>
                <g id="arrowUp" xlink:href="#dirArrow" transform="translate(30 24)" onmousedown="handlePan(0,-1)">
                  <use xlink:href="#rim" fill="#404040">
                        <set attributeName="fill" to="#808080" begin="arrowUp.mouseover" end="arrowUp.mouseout"/>
                  </use>
                  <path fill="none" stroke="white" stroke-width="1.5" d="M0,-3.0v7 M-2.5,-0.5L0,-3.0L2.5,-0.5"/>
                </g>
                <g id="arrowRight" xlink:href="#dirArrow" transform="rotate(90) translate(36 -43)" onmousedown="handlePan(1,0)">
                  <use xlink:href="#rim" fill="#404040">
                        <set attributeName="fill" to="#808080" begin="arrowRight.mouseover" end="arrowRight.mouseout"/>
                  </use>
                  <path fill="none" stroke="white" stroke-width="1.5" d="M0,-3.0v7 M-2.5,-0.5L0,-3.0L2.5,-0.5"/>
                </g>
                <g id="arrowDown" xlink:href="#dirArrow" transform="rotate(180) translate(-30 -48)" onmousedown="handlePan(0,1)">
                  <use xlink:href="#rim" fill="#404040">
                        <set attributeName="fill" to="#808080" begin="arrowDown.mouseover" end="arrowDown.mouseout"/>
                  </use>
                  <path fill="none" stroke="white" stroke-width="1.5" d="M0,-3.0v7 M-2.5,-0.5L0,-3.0L2.5,-0.5"/>
                </g>
                <g id="arrowLeft" xlink:href="#dirArrow" transform="rotate(270) translate(-36 17)" onmousedown="handlePan(-1,0)">
                  <use xlink:href="#rim" fill="#404040">
                        <set attributeName="fill" to="#808080" begin="arrowLeft.mouseover" end="arrowLeft.mouseout"/>
                  </use>
                  <path fill="none" stroke="white" stroke-width="1.5" d="M0,-3.0v7 M-2.5,-0.5L0,-3.0L2.5,-0.5"/>
                </g>
        </g>
        <svg viewBox="0 0 15 15" width="100%" height="30px" preserveAspectRatio="xMaxYMin meet">
         <g id="arrow_out" transform="scale(0.3 0.3)">
          <a xlink:href="classorg_1_1cobbzilla_1_1util_1_1mustache_1_1LocaleAwareMustacheFactory__coll__graph_org.svg" target="_base">
           <rect id="button" ry="5" rx="5" y="6" x="6" height="38" width="38"
                fill="#f2f5e9" fill-opacity="0.5" stroke="#606060" stroke-width="1.0"/>
           <path id="arrow"
             d="M 11.500037,31.436501 C 11.940474,20.09759 22.043105,11.32322 32.158766,21.979434 L 37.068811,17.246167 C 37.068811,17.246167 37.088388,32 37.088388,32 L 22.160133,31.978069 C 22.160133,31.978069 26.997745,27.140456 26.997745,27.140456 C 18.528582,18.264221 13.291696,25.230495 11.500037,31.436501 z"
             style="fill:#404040;"/>
          </a>
         </g>
        </svg>
</svg>
