<?xml version="1.0" encoding="UTF-8" standalone="no"?>
<!DOCTYPE svg PUBLIC "-//W3C//DTD SVG 1.1//EN"
 "http://www.w3.org/Graphics/SVG/1.1/DTD/svg11.dtd">
<!-- Generated by graphviz version 2.40.1 (20161225.0304)
 -->
<!-- Title: org.cobbzilla.util.reflect.ReflectionUtil.CallerInspector Pages: 1 -->
<svg width="153pt" height="182pt"
 viewBox="0.00 0.00 153.00 182.00" xmlns="http://www.w3.org/2000/svg" xmlns:xlink="http://www.w3.org/1999/xlink">
<g id="graph0" class="graph" transform="scale(1 1) rotate(0) translate(4 178)">
<title>org.cobbzilla.util.reflect.ReflectionUtil.CallerInspector</title>
<!-- Node0 -->
<g id="node1" class="node">
<title>Node0</title>
<polygon fill="#bfbfbf" stroke="#000000" points="0,-.5 0,-79.5 145,-79.5 145,-.5 0,-.5"/>
<text text-anchor="start" x="8" y="-67.5" font-family="Helvetica,sans-Serif" font-size="10.00" fill="#000000">org.cobbzilla.util.reflect.</text>
<text text-anchor="middle" x="72.5" y="-56.5" font-family="Helvetica,sans-Serif" font-size="10.00" fill="#000000">ReflectionUtil.CallerInspector</text>
<polyline fill="none" stroke="#000000" points="0,-49.5 145,-49.5 "/>
<text text-anchor="middle" x="72.5" y="-37.5" font-family="Helvetica,sans-Serif" font-size="10.00" fill="#000000"> </text>
<polyline fill="none" stroke="#000000" points="0,-30.5 145,-30.5 "/>
<text text-anchor="start" x="8" y="-18.5" font-family="Helvetica,sans-Serif" font-size="10.00" fill="#000000">+ getCallerClassName()</text>
<text text-anchor="start" x="8" y="-7.5" font-family="Helvetica,sans-Serif" font-size="10.00" fill="#000000">+ getCallerClassName()</text>
</g>
<!-- Node1 -->
<g id="node2" class="node">
<title>Node1</title>
<polygon fill="none" stroke="#bfbfbf" points="27.5,-116.5 27.5,-173.5 117.5,-173.5 117.5,-116.5 27.5,-116.5"/>
<text text-anchor="middle" x="72.5" y="-161.5" font-family="Helvetica,sans-Serif" font-size="10.00" fill="#000000">SecurityManager</text>
<polyline fill="none" stroke="#bfbfbf" points="27.5,-154.5 117.5,-154.5 "/>
<text text-anchor="middle" x="72.5" y="-142.5" font-family="Helvetica,sans-Serif" font-size="10.00" fill="#000000"> </text>
<polyline fill="none" stroke="#bfbfbf" points="27.5,-135.5 117.5,-135.5 "/>
<text text-anchor="middle" x="72.5" y="-123.5" font-family="Helvetica,sans-Serif" font-size="10.00" fill="#000000"> </text>
</g>
<!-- Node1&#45;&gt;Node0 -->
<g id="edge1" class="edge">
<title>Node1&#45;&gt;Node0</title>
<path fill="none" stroke="#191970" d="M72.5,-106.1156C72.5,-97.4889 72.5,-88.3353 72.5,-79.6773"/>
<polygon fill="none" stroke="#191970" points="69.0001,-106.3083 72.5,-116.3083 76.0001,-106.3083 69.0001,-106.3083"/>
</g>
</g>
</svg>
