<?xml version="1.0" encoding="UTF-8" standalone="no"?>
<!DOCTYPE svg PUBLIC "-//W3C//DTD SVG 1.1//EN"
 "http://www.w3.org/Graphics/SVG/1.1/DTD/svg11.dtd">
<!-- Generated by graphviz version 2.40.1 (20161225.0304)
 -->
<!-- Title: org.cobbzilla.util.error.GeneralErrorHandler Pages: 1 -->
<svg width="136pt" height="204pt"
 viewBox="0.00 0.00 136.00 204.00" xmlns="http://www.w3.org/2000/svg" xmlns:xlink="http://www.w3.org/1999/xlink">
<g id="graph0" class="graph" transform="scale(1 1) rotate(0) translate(4 200)">
<title>org.cobbzilla.util.error.GeneralErrorHandler</title>
<!-- Node0 -->
<g id="node1" class="node">
<title>Node0</title>
<polygon fill="#bfbfbf" stroke="#000000" points="7.5,-105.5 7.5,-195.5 120.5,-195.5 120.5,-105.5 7.5,-105.5"/>
<text text-anchor="start" x="15.5" y="-183.5" font-family="Helvetica,sans-Serif" font-size="10.00" fill="#000000">org.cobbzilla.util.error.</text>
<text text-anchor="middle" x="64" y="-172.5" font-family="Helvetica,sans-Serif" font-size="10.00" fill="#000000">GeneralErrorHandler</text>
<polyline fill="none" stroke="#000000" points="7.5,-165.5 120.5,-165.5 "/>
<text text-anchor="middle" x="64" y="-153.5" font-family="Helvetica,sans-Serif" font-size="10.00" fill="#000000"> </text>
<polyline fill="none" stroke="#000000" points="7.5,-146.5 120.5,-146.5 "/>
<text text-anchor="start" x="15.5" y="-134.5" font-family="Helvetica,sans-Serif" font-size="10.00" fill="#000000">+ handleError()</text>
<text text-anchor="start" x="15.5" y="-123.5" font-family="Helvetica,sans-Serif" font-size="10.00" fill="#000000">+ handleError()</text>
<text text-anchor="start" x="15.5" y="-112.5" font-family="Helvetica,sans-Serif" font-size="10.00" fill="#000000">+ handleError()</text>
</g>
<!-- Node1 -->
<g id="node2" class="node">
<title>Node1</title>
<g id="a_node2"><a xlink:href="../../d4/de7/classorg_1_1cobbzilla_1_1util_1_1error_1_1GeneralErrorHandlerBase.html" target="_top" xlink:title="{org.cobbzilla.util.error.\lGeneralErrorHandlerBase\n|+ instance\l|+ defaultErrorHandler()\l}">
<polygon fill="none" stroke="#000000" points="0,-.5 0,-68.5 128,-68.5 128,-.5 0,-.5"/>
<text text-anchor="start" x="8" y="-56.5" font-family="Helvetica,sans-Serif" font-size="10.00" fill="#000000">org.cobbzilla.util.error.</text>
<text text-anchor="middle" x="64" y="-45.5" font-family="Helvetica,sans-Serif" font-size="10.00" fill="#000000">GeneralErrorHandlerBase</text>
<polyline fill="none" stroke="#000000" points="0,-38.5 128,-38.5 "/>
<text text-anchor="start" x="8" y="-26.5" font-family="Helvetica,sans-Serif" font-size="10.00" fill="#000000">+ instance</text>
<polyline fill="none" stroke="#000000" points="0,-19.5 128,-19.5 "/>
<text text-anchor="start" x="8" y="-7.5" font-family="Helvetica,sans-Serif" font-size="10.00" fill="#000000">+ defaultErrorHandler()</text>
</a>
</g>
</g>
<!-- Node0&#45;&gt;Node1 -->
<g id="edge1" class="edge">
<title>Node0&#45;&gt;Node1</title>
<path fill="none" stroke="#191970" d="M64,-95.1681C64,-86.1024 64,-76.9497 64,-68.5982"/>
<polygon fill="none" stroke="#191970" points="60.5001,-95.3192 64,-105.3192 67.5001,-95.3192 60.5001,-95.3192"/>
</g>
</g>
</svg>
