<?xml version="1.0" encoding="UTF-8" standalone="no"?>
<!DOCTYPE svg PUBLIC "-//W3C//DTD SVG 1.1//EN"
 "http://www.w3.org/Graphics/SVG/1.1/DTD/svg11.dtd">
<!-- Generated by graphviz version 2.40.1 (20161225.0304)
 -->
<!-- Title: org.cobbzilla.util.io.handlers.ConfigurableStreamHandlerFactory Pages: 1 -->
<svg width="178pt" height="248pt"
 viewBox="0.00 0.00 178.00 248.00" xmlns="http://www.w3.org/2000/svg" xmlns:xlink="http://www.w3.org/1999/xlink">
<g id="graph0" class="graph" transform="scale(1 1) rotate(0) translate(4 244)">
<title>org.cobbzilla.util.io.handlers.ConfigurableStreamHandlerFactory</title>
<!-- Node0 -->
<g id="node1" class="node">
<title>Node0</title>
<polygon fill="#bfbfbf" stroke="#000000" points="0,-.5 0,-145.5 170,-145.5 170,-.5 0,-.5"/>
<text text-anchor="start" x="8" y="-133.5" font-family="Helvetica,sans-Serif" font-size="10.00" fill="#000000">org.cobbzilla.util.io.handlers.</text>
<text text-anchor="middle" x="85" y="-122.5" font-family="Helvetica,sans-Serif" font-size="10.00" fill="#000000">ConfigurableStreamHandlerFactory</text>
<polyline fill="none" stroke="#000000" points="0,-115.5 170,-115.5 "/>
<text text-anchor="start" x="8" y="-103.5" font-family="Helvetica,sans-Serif" font-size="10.00" fill="#000000">+ INSTANCE</text>
<text text-anchor="start" x="8" y="-92.5" font-family="Helvetica,sans-Serif" font-size="10.00" fill="#000000">&#45; protocolHandlers</text>
<polyline fill="none" stroke="#000000" points="0,-85.5 170,-85.5 "/>
<text text-anchor="start" x="8" y="-73.5" font-family="Helvetica,sans-Serif" font-size="10.00" fill="#000000">+ ConfigurableStreamHandler</text>
<text text-anchor="start" x="8" y="-62.5" font-family="Helvetica,sans-Serif" font-size="10.00" fill="#000000">Factory()</text>
<text text-anchor="start" x="8" y="-51.5" font-family="Helvetica,sans-Serif" font-size="10.00" fill="#000000">+ ConfigurableStreamHandler</text>
<text text-anchor="start" x="8" y="-40.5" font-family="Helvetica,sans-Serif" font-size="10.00" fill="#000000">Factory()</text>
<text text-anchor="start" x="8" y="-29.5" font-family="Helvetica,sans-Serif" font-size="10.00" fill="#000000">+ addAll()</text>
<text text-anchor="start" x="8" y="-18.5" font-family="Helvetica,sans-Serif" font-size="10.00" fill="#000000">+ addHandler()</text>
<text text-anchor="start" x="8" y="-7.5" font-family="Helvetica,sans-Serif" font-size="10.00" fill="#000000">+ createURLStreamHandler()</text>
</g>
<!-- Node1 -->
<g id="node2" class="node">
<title>Node1</title>
<polygon fill="none" stroke="#bfbfbf" points="17.5,-182.5 17.5,-239.5 152.5,-239.5 152.5,-182.5 17.5,-182.5"/>
<text text-anchor="middle" x="85" y="-227.5" font-family="Helvetica,sans-Serif" font-size="10.00" fill="#000000">URLStreamHandlerFactory</text>
<polyline fill="none" stroke="#bfbfbf" points="17.5,-220.5 152.5,-220.5 "/>
<text text-anchor="middle" x="85" y="-208.5" font-family="Helvetica,sans-Serif" font-size="10.00" fill="#000000"> </text>
<polyline fill="none" stroke="#bfbfbf" points="17.5,-201.5 152.5,-201.5 "/>
<text text-anchor="middle" x="85" y="-189.5" font-family="Helvetica,sans-Serif" font-size="10.00" fill="#000000"> </text>
</g>
<!-- Node1&#45;&gt;Node0 -->
<g id="edge1" class="edge">
<title>Node1&#45;&gt;Node0</title>
<path fill="none" stroke="#191970" d="M85,-172.2817C85,-163.9388 85,-154.8592 85,-145.6924"/>
<polygon fill="none" stroke="#191970" points="81.5001,-172.4063 85,-182.4063 88.5001,-172.4063 81.5001,-172.4063"/>
</g>
</g>
</svg>
