<?xml version="1.0" encoding="UTF-8" standalone="no"?>
<!DOCTYPE svg PUBLIC "-//W3C//DTD SVG 1.1//EN"
 "http://www.w3.org/Graphics/SVG/1.1/DTD/svg11.dtd">
<!-- Generated by graphviz version 2.40.1 (20161225.0304)
 -->
<!-- Title: org.cobbzilla.util.handlebars.main.PdfConcatOptions Pages: 1 -->
<svg width="338pt" height="595pt"
 viewBox="0.00 0.00 337.50 595.00" xmlns="http://www.w3.org/2000/svg" xmlns:xlink="http://www.w3.org/1999/xlink">
<g id="graph0" class="graph" transform="scale(1 1) rotate(0) translate(4 591)">
<title>org.cobbzilla.util.handlebars.main.PdfConcatOptions</title>
<!-- Node2 -->
<g id="node1" class="node">
<title>Node2</title>
<polygon fill="#bfbfbf" stroke="#000000" points="159.5,-.5 159.5,-189.5 323.5,-189.5 323.5,-.5 159.5,-.5"/>
<text text-anchor="start" x="167.5" y="-177.5" font-family="Helvetica,sans-Serif" font-size="10.00" fill="#000000">org.cobbzilla.util.handlebars.main.</text>
<text text-anchor="middle" x="241.5" y="-166.5" font-family="Helvetica,sans-Serif" font-size="10.00" fill="#000000">PdfConcatOptions</text>
<polyline fill="none" stroke="#000000" points="159.5,-159.5 323.5,-159.5 "/>
<text text-anchor="start" x="167.5" y="-147.5" font-family="Helvetica,sans-Serif" font-size="10.00" fill="#000000">+ USAGE_OUTFILE</text>
<text text-anchor="start" x="167.5" y="-136.5" font-family="Helvetica,sans-Serif" font-size="10.00" fill="#000000">+ OPT_OUTFILE</text>
<text text-anchor="start" x="167.5" y="-125.5" font-family="Helvetica,sans-Serif" font-size="10.00" fill="#000000">+ LONGOPT_OUTFILE</text>
<text text-anchor="start" x="167.5" y="-114.5" font-family="Helvetica,sans-Serif" font-size="10.00" fill="#000000">+ USAGE_INFILES</text>
<text text-anchor="start" x="167.5" y="-103.5" font-family="Helvetica,sans-Serif" font-size="10.00" fill="#000000">+ USAGE_MAX_MEMORY</text>
<text text-anchor="start" x="167.5" y="-92.5" font-family="Helvetica,sans-Serif" font-size="10.00" fill="#000000">+ OPT_MAX_MEMORY</text>
<text text-anchor="start" x="167.5" y="-81.5" font-family="Helvetica,sans-Serif" font-size="10.00" fill="#000000">+ LONGOPT_MAX_MEMORY</text>
<text text-anchor="start" x="167.5" y="-70.5" font-family="Helvetica,sans-Serif" font-size="10.00" fill="#000000">+ USAGE_MAX_DISK</text>
<text text-anchor="start" x="167.5" y="-59.5" font-family="Helvetica,sans-Serif" font-size="10.00" fill="#000000">+ OPT_MAX_DISK</text>
<text text-anchor="start" x="167.5" y="-48.5" font-family="Helvetica,sans-Serif" font-size="10.00" fill="#000000">+ LONGOPT_MAX_DISK</text>
<text text-anchor="start" x="167.5" y="-37.5" font-family="Helvetica,sans-Serif" font-size="10.00" fill="#000000">&#45; maxMemory</text>
<text text-anchor="start" x="167.5" y="-26.5" font-family="Helvetica,sans-Serif" font-size="10.00" fill="#000000">&#45; maxDisk</text>
<polyline fill="none" stroke="#000000" points="159.5,-19.5 323.5,-19.5 "/>
<text text-anchor="start" x="167.5" y="-7.5" font-family="Helvetica,sans-Serif" font-size="10.00" fill="#000000">+ getOut()</text>
</g>
<!-- Node3 -->
<g id="node2" class="node">
<title>Node3</title>
<g id="a_node2"><a xlink:href="../../d7/d90/classorg_1_1cobbzilla_1_1util_1_1main_1_1BaseMainOptions.html" target="_top" xlink:title="{org.cobbzilla.util.main.\lBaseMainOptions\n|+ USAGE_HELP\l+ OPT_HELP\l+ LONGOPT_HELP\l+ USAGE_VERBOSE_FATAL\l_ERRORS\l+ OPT_VERBOSE_FATAL_ERRORS\l+ LONGOPT_VERBOSE_FATAL\l_ERRORS\l&#45; help\l&#45; verboseFatalErrors\l|+ out()\l+ err()\l+ required()\l+ requiredAndDie()\l+ inStream()\l+ outStream()\l+ reader()\l+ writer()\l}">
<polygon fill="none" stroke="#000000" points="0,-237.5 0,-481.5 185,-481.5 185,-237.5 0,-237.5"/>
<text text-anchor="start" x="8" y="-469.5" font-family="Helvetica,sans-Serif" font-size="10.00" fill="#000000">org.cobbzilla.util.main.</text>
<text text-anchor="middle" x="92.5" y="-458.5" font-family="Helvetica,sans-Serif" font-size="10.00" fill="#000000">BaseMainOptions</text>
<polyline fill="none" stroke="#000000" points="0,-451.5 185,-451.5 "/>
<text text-anchor="start" x="8" y="-439.5" font-family="Helvetica,sans-Serif" font-size="10.00" fill="#000000">+ USAGE_HELP</text>
<text text-anchor="start" x="8" y="-428.5" font-family="Helvetica,sans-Serif" font-size="10.00" fill="#000000">+ OPT_HELP</text>
<text text-anchor="start" x="8" y="-417.5" font-family="Helvetica,sans-Serif" font-size="10.00" fill="#000000">+ LONGOPT_HELP</text>
<text text-anchor="start" x="8" y="-406.5" font-family="Helvetica,sans-Serif" font-size="10.00" fill="#000000">+ USAGE_VERBOSE_FATAL</text>
<text text-anchor="start" x="8" y="-395.5" font-family="Helvetica,sans-Serif" font-size="10.00" fill="#000000">_ERRORS</text>
<text text-anchor="start" x="8" y="-384.5" font-family="Helvetica,sans-Serif" font-size="10.00" fill="#000000">+ OPT_VERBOSE_FATAL_ERRORS</text>
<text text-anchor="start" x="8" y="-373.5" font-family="Helvetica,sans-Serif" font-size="10.00" fill="#000000">+ LONGOPT_VERBOSE_FATAL</text>
<text text-anchor="start" x="8" y="-362.5" font-family="Helvetica,sans-Serif" font-size="10.00" fill="#000000">_ERRORS</text>
<text text-anchor="start" x="8" y="-351.5" font-family="Helvetica,sans-Serif" font-size="10.00" fill="#000000">&#45; help</text>
<text text-anchor="start" x="8" y="-340.5" font-family="Helvetica,sans-Serif" font-size="10.00" fill="#000000">&#45; verboseFatalErrors</text>
<polyline fill="none" stroke="#000000" points="0,-333.5 185,-333.5 "/>
<text text-anchor="start" x="8" y="-321.5" font-family="Helvetica,sans-Serif" font-size="10.00" fill="#000000">+ out()</text>
<text text-anchor="start" x="8" y="-310.5" font-family="Helvetica,sans-Serif" font-size="10.00" fill="#000000">+ err()</text>
<text text-anchor="start" x="8" y="-299.5" font-family="Helvetica,sans-Serif" font-size="10.00" fill="#000000">+ required()</text>
<text text-anchor="start" x="8" y="-288.5" font-family="Helvetica,sans-Serif" font-size="10.00" fill="#000000">+ requiredAndDie()</text>
<text text-anchor="start" x="8" y="-277.5" font-family="Helvetica,sans-Serif" font-size="10.00" fill="#000000">+ inStream()</text>
<text text-anchor="start" x="8" y="-266.5" font-family="Helvetica,sans-Serif" font-size="10.00" fill="#000000">+ outStream()</text>
<text text-anchor="start" x="8" y="-255.5" font-family="Helvetica,sans-Serif" font-size="10.00" fill="#000000">+ reader()</text>
<text text-anchor="start" x="8" y="-244.5" font-family="Helvetica,sans-Serif" font-size="10.00" fill="#000000">+ writer()</text>
</a>
</g>
</g>
<!-- Node3&#45;&gt;Node2 -->
<g id="edge1" class="edge">
<title>Node3&#45;&gt;Node2</title>
<path fill="none" stroke="#191970" d="M166.3995,-228.316C173.7287,-215.3053 181.0658,-202.2809 188.1268,-189.7464"/>
<polygon fill="none" stroke="#191970" points="163.1888,-226.8845 161.3301,-237.3151 169.2876,-230.3202 163.1888,-226.8845"/>
</g>
<!-- Node4 -->
<g id="node3" class="node">
<title>Node4</title>
<polygon fill="none" stroke="#bfbfbf" points="203.5,-331 203.5,-388 279.5,-388 279.5,-331 203.5,-331"/>
<text text-anchor="middle" x="241.5" y="-376" font-family="Helvetica,sans-Serif" font-size="10.00" fill="#000000">List&lt; String &gt;</text>
<polyline fill="none" stroke="#bfbfbf" points="203.5,-369 279.5,-369 "/>
<text text-anchor="middle" x="241.5" y="-357" font-family="Helvetica,sans-Serif" font-size="10.00" fill="#000000"> </text>
<polyline fill="none" stroke="#bfbfbf" points="203.5,-350 279.5,-350 "/>
<text text-anchor="middle" x="241.5" y="-338" font-family="Helvetica,sans-Serif" font-size="10.00" fill="#000000"> </text>
</g>
<!-- Node4&#45;&gt;Node2 -->
<g id="edge2" class="edge">
<title>Node4&#45;&gt;Node2</title>
<path fill="none" stroke="#404040" d="M241.5,-330.9426C241.5,-299.9756 241.5,-248.6814 241.5,-201.8157"/>
<polygon fill="none" stroke="#404040" points="241.5001,-201.6939 237.5,-195.6939 241.5,-189.6939 245.5,-195.6939 241.5001,-201.6939"/>
<text text-anchor="middle" x="257.5" y="-211" font-family="Helvetica,sans-Serif" font-size="10.00" fill="#000000"> &#45;infiles</text>
</g>
<!-- Node5 -->
<g id="node4" class="node">
<title>Node5</title>
<polygon fill="none" stroke="#bfbfbf" points="225.5,-529.5 225.5,-586.5 257.5,-586.5 257.5,-529.5 225.5,-529.5"/>
<text text-anchor="middle" x="241.5" y="-574.5" font-family="Helvetica,sans-Serif" font-size="10.00" fill="#000000">List</text>
<polyline fill="none" stroke="#bfbfbf" points="225.5,-567.5 257.5,-567.5 "/>
<text text-anchor="middle" x="241.5" y="-555.5" font-family="Helvetica,sans-Serif" font-size="10.00" fill="#000000"> </text>
<polyline fill="none" stroke="#bfbfbf" points="225.5,-548.5 257.5,-548.5 "/>
<text text-anchor="middle" x="241.5" y="-536.5" font-family="Helvetica,sans-Serif" font-size="10.00" fill="#000000"> </text>
</g>
<!-- Node5&#45;&gt;Node4 -->
<g id="edge3" class="edge">
<title>Node5&#45;&gt;Node4</title>
<path fill="none" stroke="#ffa500" d="M241.5,-518.8218C241.5,-480.3069 241.5,-422.4444 241.5,-388.0764"/>
<polygon fill="#ffa500" stroke="#ffa500" points="238.0001,-519.1364 241.5,-529.1364 245.0001,-519.1364 238.0001,-519.1364"/>
<text text-anchor="middle" x="265" y="-503" font-family="Helvetica,sans-Serif" font-size="10.00" fill="#000000"> &lt; String &gt;</text>
</g>
<!-- Node6 -->
<g id="node5" class="node">
<title>Node6</title>
<polygon fill="none" stroke="#bfbfbf" points="297.5,-331 297.5,-388 329.5,-388 329.5,-331 297.5,-331"/>
<text text-anchor="middle" x="313.5" y="-376" font-family="Helvetica,sans-Serif" font-size="10.00" fill="#000000">File</text>
<polyline fill="none" stroke="#bfbfbf" points="297.5,-369 329.5,-369 "/>
<text text-anchor="middle" x="313.5" y="-357" font-family="Helvetica,sans-Serif" font-size="10.00" fill="#000000"> </text>
<polyline fill="none" stroke="#bfbfbf" points="297.5,-350 329.5,-350 "/>
<text text-anchor="middle" x="313.5" y="-338" font-family="Helvetica,sans-Serif" font-size="10.00" fill="#000000"> </text>
</g>
<!-- Node6&#45;&gt;Node2 -->
<g id="edge4" class="edge">
<title>Node6&#45;&gt;Node2</title>
<path fill="none" stroke="#404040" d="M308.593,-330.5645C304.1222,-305.599 296.9411,-268.67 288.5,-237 285.3831,-225.3057 281.8433,-213.163 278.138,-201.1228"/>
<polygon fill="none" stroke="#404040" points="278.1251,-201.0815 272.5165,-196.549 274.5431,-189.6285 280.1518,-194.161 278.1251,-201.0815"/>
<text text-anchor="middle" x="299" y="-211" font-family="Helvetica,sans-Serif" font-size="10.00" fill="#000000"> &#45;outfile</text>
</g>
</g>
</svg>
