<?xml version="1.0" encoding="UTF-8" standalone="no"?>
<!DOCTYPE svg PUBLIC "-//W3C//DTD SVG 1.1//EN"
 "http://www.w3.org/Graphics/SVG/1.1/DTD/svg11.dtd">
<!-- Generated by graphviz version 2.40.1 (20161225.0304)
 -->
<!-- Title: org.cobbzilla.util.io.PathListFileResolver Pages: 1 -->
<svg width="293pt" height="610pt"
 viewBox="0.00 0.00 293.00 610.00" xmlns="http://www.w3.org/2000/svg" xmlns:xlink="http://www.w3.org/1999/xlink">
<g id="graph0" class="graph" transform="scale(1 1) rotate(0) translate(4 606)">
<title>org.cobbzilla.util.io.PathListFileResolver</title>
<!-- Node0 -->
<g id="node1" class="node">
<title>Node0</title>
<polygon fill="#bfbfbf" stroke="#000000" points="130,-.5 130,-79.5 252,-79.5 252,-.5 130,-.5"/>
<text text-anchor="start" x="138" y="-67.5" font-family="Helvetica,sans-Serif" font-size="10.00" fill="#000000">org.cobbzilla.util.io.Path</text>
<text text-anchor="middle" x="191" y="-56.5" font-family="Helvetica,sans-Serif" font-size="10.00" fill="#000000">ListFileResolver</text>
<polyline fill="none" stroke="#000000" points="130,-49.5 252,-49.5 "/>
<text text-anchor="middle" x="191" y="-37.5" font-family="Helvetica,sans-Serif" font-size="10.00" fill="#000000"> </text>
<polyline fill="none" stroke="#000000" points="130,-30.5 252,-30.5 "/>
<text text-anchor="start" x="138" y="-18.5" font-family="Helvetica,sans-Serif" font-size="10.00" fill="#000000">+ PathListFileResolver()</text>
<text text-anchor="start" x="138" y="-7.5" font-family="Helvetica,sans-Serif" font-size="10.00" fill="#000000">+ resolve()</text>
</g>
<!-- Node1 -->
<g id="node2" class="node">
<title>Node1</title>
<g id="a_node2"><a xlink:href="../../d5/df5/classorg_1_1cobbzilla_1_1util_1_1collection_1_1StringSetSource.html" target="_top" xlink:title="{org.cobbzilla.util.collection.\lStringSetSource\n||}">
<polygon fill="none" stroke="#000000" points="17,-117.5 17,-185.5 151,-185.5 151,-117.5 17,-117.5"/>
<text text-anchor="start" x="25" y="-173.5" font-family="Helvetica,sans-Serif" font-size="10.00" fill="#000000">org.cobbzilla.util.collection.</text>
<text text-anchor="middle" x="84" y="-162.5" font-family="Helvetica,sans-Serif" font-size="10.00" fill="#000000">StringSetSource</text>
<polyline fill="none" stroke="#000000" points="17,-155.5 151,-155.5 "/>
<text text-anchor="middle" x="84" y="-143.5" font-family="Helvetica,sans-Serif" font-size="10.00" fill="#000000"> </text>
<polyline fill="none" stroke="#000000" points="17,-136.5 151,-136.5 "/>
<text text-anchor="middle" x="84" y="-124.5" font-family="Helvetica,sans-Serif" font-size="10.00" fill="#000000"> </text>
</a>
</g>
</g>
<!-- Node1&#45;&gt;Node0 -->
<g id="edge1" class="edge">
<title>Node1&#45;&gt;Node0</title>
<path fill="none" stroke="#191970" d="M123.815,-110.0105C133.3251,-100.1005 143.4536,-89.546 152.885,-79.718"/>
<polygon fill="none" stroke="#191970" points="121.0836,-107.8019 116.6849,-117.4405 126.1343,-112.6487 121.0836,-107.8019"/>
</g>
<!-- Node2 -->
<g id="node3" class="node">
<title>Node2</title>
<g id="a_node3"><a xlink:href="../../dd/de6/classorg_1_1cobbzilla_1_1util_1_1collection_1_1SetSourceBase.html" target="_top" xlink:title="{org.cobbzilla.util.collection.\lSetSourceBase\&lt; String \&gt;\n|&#45; values\l|+ getValues()\l+ addValue()\l+ addValues()\l+ toString()\l}">
<polygon fill="none" stroke="#000000" points="17,-223.5 17,-324.5 151,-324.5 151,-223.5 17,-223.5"/>
<text text-anchor="start" x="25" y="-312.5" font-family="Helvetica,sans-Serif" font-size="10.00" fill="#000000">org.cobbzilla.util.collection.</text>
<text text-anchor="middle" x="84" y="-301.5" font-family="Helvetica,sans-Serif" font-size="10.00" fill="#000000">SetSourceBase&lt; String &gt;</text>
<polyline fill="none" stroke="#000000" points="17,-294.5 151,-294.5 "/>
<text text-anchor="start" x="25" y="-282.5" font-family="Helvetica,sans-Serif" font-size="10.00" fill="#000000">&#45; values</text>
<polyline fill="none" stroke="#000000" points="17,-275.5 151,-275.5 "/>
<text text-anchor="start" x="25" y="-263.5" font-family="Helvetica,sans-Serif" font-size="10.00" fill="#000000">+ getValues()</text>
<text text-anchor="start" x="25" y="-252.5" font-family="Helvetica,sans-Serif" font-size="10.00" fill="#000000">+ addValue()</text>
<text text-anchor="start" x="25" y="-241.5" font-family="Helvetica,sans-Serif" font-size="10.00" fill="#000000">+ addValues()</text>
<text text-anchor="start" x="25" y="-230.5" font-family="Helvetica,sans-Serif" font-size="10.00" fill="#000000">+ toString()</text>
</a>
</g>
</g>
<!-- Node2&#45;&gt;Node1 -->
<g id="edge2" class="edge">
<title>Node2&#45;&gt;Node1</title>
<path fill="none" stroke="#191970" d="M84,-213.186C84,-203.6659 84,-194.1318 84,-185.5036"/>
<polygon fill="none" stroke="#191970" points="80.5001,-213.4673 84,-223.4673 87.5001,-213.4674 80.5001,-213.4673"/>
</g>
<!-- Node3 -->
<g id="node4" class="node">
<title>Node3</title>
<g id="a_node4"><a xlink:href="../../dd/de6/classorg_1_1cobbzilla_1_1util_1_1collection_1_1SetSourceBase.html" target="_top" xlink:title="{org.cobbzilla.util.collection.\lSetSourceBase\&lt; T \&gt;\n|&#45; values\l|+ getValues()\l+ addValue()\l+ addValues()\l+ toString()\l}">
<polygon fill="none" stroke="#000000" points="17,-372.5 17,-473.5 151,-473.5 151,-372.5 17,-372.5"/>
<text text-anchor="start" x="25" y="-461.5" font-family="Helvetica,sans-Serif" font-size="10.00" fill="#000000">org.cobbzilla.util.collection.</text>
<text text-anchor="middle" x="84" y="-450.5" font-family="Helvetica,sans-Serif" font-size="10.00" fill="#000000">SetSourceBase&lt; T &gt;</text>
<polyline fill="none" stroke="#000000" points="17,-443.5 151,-443.5 "/>
<text text-anchor="start" x="25" y="-431.5" font-family="Helvetica,sans-Serif" font-size="10.00" fill="#000000">&#45; values</text>
<polyline fill="none" stroke="#000000" points="17,-424.5 151,-424.5 "/>
<text text-anchor="start" x="25" y="-412.5" font-family="Helvetica,sans-Serif" font-size="10.00" fill="#000000">+ getValues()</text>
<text text-anchor="start" x="25" y="-401.5" font-family="Helvetica,sans-Serif" font-size="10.00" fill="#000000">+ addValue()</text>
<text text-anchor="start" x="25" y="-390.5" font-family="Helvetica,sans-Serif" font-size="10.00" fill="#000000">+ addValues()</text>
<text text-anchor="start" x="25" y="-379.5" font-family="Helvetica,sans-Serif" font-size="10.00" fill="#000000">+ toString()</text>
</a>
</g>
</g>
<!-- Node3&#45;&gt;Node2 -->
<g id="edge3" class="edge">
<title>Node3&#45;&gt;Node2</title>
<path fill="none" stroke="#ffa500" d="M84,-361.8874C84,-349.5023 84,-336.6068 84,-324.6314"/>
<polygon fill="#ffa500" stroke="#ffa500" points="80.5001,-362.1394 84,-372.1394 87.5001,-362.1394 80.5001,-362.1394"/>
<text text-anchor="middle" x="107.5" y="-346" font-family="Helvetica,sans-Serif" font-size="10.00" fill="#000000"> &lt; String &gt;</text>
</g>
<!-- Node4 -->
<g id="node5" class="node">
<title>Node4</title>
<g id="a_node5"><a xlink:href="../../d9/df4/interfaceorg_1_1cobbzilla_1_1util_1_1collection_1_1CollectionSource.html" target="_top" xlink:title="{org::cobbzilla::util\l::collection::CollectionSource\&lt; T \&gt;\n||+ addValue()\l+ addValues()\l+ getValues()\l}">
<polygon fill="none" stroke="#000000" points="0,-511.5 0,-601.5 168,-601.5 168,-511.5 0,-511.5"/>
<text text-anchor="start" x="8" y="-589.5" font-family="Helvetica,sans-Serif" font-size="10.00" fill="#000000">org::cobbzilla::util</text>
<text text-anchor="middle" x="84" y="-578.5" font-family="Helvetica,sans-Serif" font-size="10.00" fill="#000000">::collection::CollectionSource&lt; T &gt;</text>
<polyline fill="none" stroke="#000000" points="0,-571.5 168,-571.5 "/>
<text text-anchor="middle" x="84" y="-559.5" font-family="Helvetica,sans-Serif" font-size="10.00" fill="#000000"> </text>
<polyline fill="none" stroke="#000000" points="0,-552.5 168,-552.5 "/>
<text text-anchor="start" x="8" y="-540.5" font-family="Helvetica,sans-Serif" font-size="10.00" fill="#000000">+ addValue()</text>
<text text-anchor="start" x="8" y="-529.5" font-family="Helvetica,sans-Serif" font-size="10.00" fill="#000000">+ addValues()</text>
<text text-anchor="start" x="8" y="-518.5" font-family="Helvetica,sans-Serif" font-size="10.00" fill="#000000">+ getValues()</text>
</a>
</g>
</g>
<!-- Node4&#45;&gt;Node3 -->
<g id="edge4" class="edge">
<title>Node4&#45;&gt;Node3</title>
<path fill="none" stroke="#191970" d="M84,-501.175C84,-492.0608 84,-482.6537 84,-473.661"/>
<polygon fill="none" stroke="#191970" points="80.5001,-501.303 84,-511.303 87.5001,-501.303 80.5001,-501.303"/>
</g>
<!-- Node5 -->
<g id="node6" class="node">
<title>Node5</title>
<g id="a_node6"><a xlink:href="../../d0/df1/interfaceorg_1_1cobbzilla_1_1util_1_1io_1_1FileResolver.html" target="_top" xlink:title="{org.cobbzilla.util.io.File\lResolver\n||+ resolve()\l}">
<polygon fill="none" stroke="#000000" points="169,-117.5 169,-185.5 285,-185.5 285,-117.5 169,-117.5"/>
<text text-anchor="start" x="177" y="-173.5" font-family="Helvetica,sans-Serif" font-size="10.00" fill="#000000">org.cobbzilla.util.io.File</text>
<text text-anchor="middle" x="227" y="-162.5" font-family="Helvetica,sans-Serif" font-size="10.00" fill="#000000">Resolver</text>
<polyline fill="none" stroke="#000000" points="169,-155.5 285,-155.5 "/>
<text text-anchor="middle" x="227" y="-143.5" font-family="Helvetica,sans-Serif" font-size="10.00" fill="#000000"> </text>
<polyline fill="none" stroke="#000000" points="169,-136.5 285,-136.5 "/>
<text text-anchor="start" x="177" y="-124.5" font-family="Helvetica,sans-Serif" font-size="10.00" fill="#000000">+ resolve()</text>
</a>
</g>
</g>
<!-- Node5&#45;&gt;Node0 -->
<g id="edge5" class="edge">
<title>Node5&#45;&gt;Node0</title>
<path fill="none" stroke="#191970" d="M212.8478,-107.6675C209.8715,-98.4494 206.748,-88.7752 203.8237,-79.718"/>
<polygon fill="none" stroke="#191970" points="209.5999,-108.9996 216.0032,-117.4405 216.2613,-106.8488 209.5999,-108.9996"/>
</g>
</g>
</svg>
