<?xml version="1.0" encoding="UTF-8" standalone="no"?>
<!DOCTYPE svg PUBLIC "-//W3C//DTD SVG 1.1//EN"
 "http://www.w3.org/Graphics/SVG/1.1/DTD/svg11.dtd">
<!-- Generated by graphviz version 2.40.1 (20161225.0304)
 -->
<!-- Title: org.cobbzilla.util.io.DeleteOnExit Pages: 1 -->
<svg width="162pt" height="320pt"
 viewBox="0.00 0.00 161.50 320.00" xmlns="http://www.w3.org/2000/svg" xmlns:xlink="http://www.w3.org/1999/xlink">
<g id="graph0" class="graph" transform="scale(1 1) rotate(0) translate(4 316)">
<title>org.cobbzilla.util.io.DeleteOnExit</title>
<!-- Node2 -->
<g id="node1" class="node">
<title>Node2</title>
<polygon fill="#bfbfbf" stroke="#000000" points="0,-.5 0,-101.5 129,-101.5 129,-.5 0,-.5"/>
<text text-anchor="start" x="8" y="-89.5" font-family="Helvetica,sans-Serif" font-size="10.00" fill="#000000">org.cobbzilla.util.io.Delete</text>
<text text-anchor="middle" x="64.5" y="-78.5" font-family="Helvetica,sans-Serif" font-size="10.00" fill="#000000">OnExit</text>
<polyline fill="none" stroke="#000000" points="0,-71.5 129,-71.5 "/>
<text text-anchor="middle" x="64.5" y="-59.5" font-family="Helvetica,sans-Serif" font-size="10.00" fill="#000000"> </text>
<polyline fill="none" stroke="#000000" points="0,-52.5 129,-52.5 "/>
<text text-anchor="start" x="8" y="-40.5" font-family="Helvetica,sans-Serif" font-size="10.00" fill="#000000">+ run()</text>
<text text-anchor="start" x="8" y="-29.5" font-family="Helvetica,sans-Serif" font-size="10.00" fill="#000000">+ add()</text>
<text text-anchor="start" x="8" y="-18.5" font-family="Helvetica,sans-Serif" font-size="10.00" fill="#000000">~ [static initializer]()</text>
<text text-anchor="start" x="8" y="-7.5" font-family="Helvetica,sans-Serif" font-size="10.00" fill="#000000">&#45; DeleteOnExit()</text>
</g>
<!-- Node3 -->
<g id="node2" class="node">
<title>Node3</title>
<polygon fill="none" stroke="#bfbfbf" points="7.5,-149.5 7.5,-206.5 65.5,-206.5 65.5,-149.5 7.5,-149.5"/>
<text text-anchor="middle" x="36.5" y="-194.5" font-family="Helvetica,sans-Serif" font-size="10.00" fill="#000000">Runnable</text>
<polyline fill="none" stroke="#bfbfbf" points="7.5,-187.5 65.5,-187.5 "/>
<text text-anchor="middle" x="36.5" y="-175.5" font-family="Helvetica,sans-Serif" font-size="10.00" fill="#000000"> </text>
<polyline fill="none" stroke="#bfbfbf" points="7.5,-168.5 65.5,-168.5 "/>
<text text-anchor="middle" x="36.5" y="-156.5" font-family="Helvetica,sans-Serif" font-size="10.00" fill="#000000"> </text>
</g>
<!-- Node3&#45;&gt;Node2 -->
<g id="edge1" class="edge">
<title>Node3&#45;&gt;Node2</title>
<path fill="none" stroke="#191970" d="M45.0011,-139.4413C47.6275,-127.5288 50.5609,-114.224 53.3386,-101.625"/>
<polygon fill="none" stroke="#191970" points="41.5189,-138.9797 42.7837,-149.4987 48.3548,-140.4868 41.5189,-138.9797"/>
</g>
<!-- Node4 -->
<g id="node3" class="node">
<title>Node4</title>
<polygon fill="none" stroke="#bfbfbf" points="83.5,-149.5 83.5,-206.5 149.5,-206.5 149.5,-149.5 83.5,-149.5"/>
<text text-anchor="middle" x="116.5" y="-194.5" font-family="Helvetica,sans-Serif" font-size="10.00" fill="#000000">List&lt; File &gt;</text>
<polyline fill="none" stroke="#bfbfbf" points="83.5,-187.5 149.5,-187.5 "/>
<text text-anchor="middle" x="116.5" y="-175.5" font-family="Helvetica,sans-Serif" font-size="10.00" fill="#000000"> </text>
<polyline fill="none" stroke="#bfbfbf" points="83.5,-168.5 149.5,-168.5 "/>
<text text-anchor="middle" x="116.5" y="-156.5" font-family="Helvetica,sans-Serif" font-size="10.00" fill="#000000"> </text>
</g>
<!-- Node4&#45;&gt;Node2 -->
<g id="edge2" class="edge">
<title>Node4&#45;&gt;Node2</title>
<path fill="none" stroke="#404040" d="M104.8302,-149.4987C100.3603,-138.582 95.0687,-125.6583 89.8145,-112.8258"/>
<polygon fill="none" stroke="#404040" points="89.7754,-112.7302 83.8002,-108.6933 85.2283,-101.625 91.2036,-105.6619 89.7754,-112.7302"/>
<text text-anchor="middle" x="112" y="-123" font-family="Helvetica,sans-Serif" font-size="10.00" fill="#000000"> &#45;paths</text>
</g>
<!-- Node5 -->
<g id="node4" class="node">
<title>Node5</title>
<polygon fill="none" stroke="#bfbfbf" points="100.5,-254.5 100.5,-311.5 132.5,-311.5 132.5,-254.5 100.5,-254.5"/>
<text text-anchor="middle" x="116.5" y="-299.5" font-family="Helvetica,sans-Serif" font-size="10.00" fill="#000000">List</text>
<polyline fill="none" stroke="#bfbfbf" points="100.5,-292.5 132.5,-292.5 "/>
<text text-anchor="middle" x="116.5" y="-280.5" font-family="Helvetica,sans-Serif" font-size="10.00" fill="#000000"> </text>
<polyline fill="none" stroke="#bfbfbf" points="100.5,-273.5 132.5,-273.5 "/>
<text text-anchor="middle" x="116.5" y="-261.5" font-family="Helvetica,sans-Serif" font-size="10.00" fill="#000000"> </text>
</g>
<!-- Node5&#45;&gt;Node4 -->
<g id="edge3" class="edge">
<title>Node5&#45;&gt;Node4</title>
<path fill="none" stroke="#ffa500" d="M116.5,-244.192C116.5,-231.7605 116.5,-218.2278 116.5,-206.657"/>
<polygon fill="#ffa500" stroke="#ffa500" points="113.0001,-244.3083 116.5,-254.3083 120.0001,-244.3083 113.0001,-244.3083"/>
<text text-anchor="middle" x="135" y="-228" font-family="Helvetica,sans-Serif" font-size="10.00" fill="#000000"> &lt; File &gt;</text>
</g>
</g>
</svg>
