<?xml version="1.0" encoding="UTF-8" standalone="no"?>
<!DOCTYPE svg PUBLIC "-//W3C//DTD SVG 1.1//EN"
 "http://www.w3.org/Graphics/SVG/1.1/DTD/svg11.dtd">
<!-- Generated by graphviz version 2.40.1 (20161225.0304)
 -->
<!-- Title: org.cobbzilla.util.daemon.AwaitResult.allSucceeded Pages: 1 -->
<svg width="676pt" height="39pt"
 viewBox="0.00 0.00 676.00 39.00" xmlns="http://www.w3.org/2000/svg" xmlns:xlink="http://www.w3.org/1999/xlink">
<g id="graph0" class="graph" transform="scale(1 1) rotate(0) translate(4 35)">
<title>org.cobbzilla.util.daemon.AwaitResult.allSucceeded</title>
<!-- Node1 -->
<g id="node1" class="node">
<title>Node1</title>
<polygon fill="#bfbfbf" stroke="#000000" points="0,-.5 0,-30.5 131,-30.5 131,-.5 0,-.5"/>
<text text-anchor="start" x="8" y="-18.5" font-family="Helvetica,sans-Serif" font-size="10.00" fill="#000000">org.cobbzilla.util.daemon.</text>
<text text-anchor="middle" x="65.5" y="-7.5" font-family="Helvetica,sans-Serif" font-size="10.00" fill="#000000">AwaitResult.allSucceeded</text>
</g>
<!-- Node2 -->
<g id="node2" class="node">
<title>Node2</title>
<g id="a_node2"><a xlink:href="../../de/de0/classorg_1_1cobbzilla_1_1util_1_1io_1_1FilesystemWalker_ae03d4f7ba6b303af5ee4bf3157d1433e.html#ae03d4f7ba6b303af5ee4bf3157d1433e" target="_top" xlink:title="org.cobbzilla.util.io.Filesystem\lWalker.awaitFutures">
<polygon fill="none" stroke="#000000" points="167,-.5 167,-30.5 316,-30.5 316,-.5 167,-.5"/>
<text text-anchor="start" x="175" y="-18.5" font-family="Helvetica,sans-Serif" font-size="10.00" fill="#000000">org.cobbzilla.util.io.Filesystem</text>
<text text-anchor="middle" x="241.5" y="-7.5" font-family="Helvetica,sans-Serif" font-size="10.00" fill="#000000">Walker.awaitFutures</text>
</a>
</g>
</g>
<!-- Node1&#45;&gt;Node2 -->
<g id="edge1" class="edge">
<title>Node1&#45;&gt;Node2</title>
<path fill="none" stroke="#191970" d="M141.2406,-15.5C149.6868,-15.5 158.2866,-15.5 166.7206,-15.5"/>
<polygon fill="#191970" stroke="#191970" points="141.0359,-12.0001 131.0359,-15.5 141.0359,-19.0001 141.0359,-12.0001"/>
</g>
<!-- Node3 -->
<g id="node3" class="node">
<title>Node3</title>
<g id="a_node3"><a xlink:href="../../de/de0/classorg_1_1cobbzilla_1_1util_1_1io_1_1FilesystemWalker_a02cf20505bb0ea4e3109763788ef3d79.html#a02cf20505bb0ea4e3109763788ef3d79" target="_top" xlink:title="org.cobbzilla.util.io.Filesystem\lWalker.walk">
<polygon fill="none" stroke="#000000" points="352,-.5 352,-30.5 501,-30.5 501,-.5 352,-.5"/>
<text text-anchor="start" x="360" y="-18.5" font-family="Helvetica,sans-Serif" font-size="10.00" fill="#000000">org.cobbzilla.util.io.Filesystem</text>
<text text-anchor="middle" x="426.5" y="-7.5" font-family="Helvetica,sans-Serif" font-size="10.00" fill="#000000">Walker.walk</text>
</a>
</g>
</g>
<!-- Node2&#45;&gt;Node3 -->
<g id="edge2" class="edge">
<title>Node2&#45;&gt;Node3</title>
<path fill="none" stroke="#191970" d="M326.4683,-15.5C334.9256,-15.5 343.4675,-15.5 351.8085,-15.5"/>
<polygon fill="#191970" stroke="#191970" points="326.2134,-12.0001 316.2133,-15.5 326.2133,-19.0001 326.2134,-12.0001"/>
</g>
<!-- Node4 -->
<g id="node4" class="node">
<title>Node4</title>
<g id="a_node4"><a xlink:href="../../d7/d80/classorg_1_1cobbzilla_1_1util_1_1io_1_1main_1_1UniqueFileWalkerMain_a0631df940d30f8c03bda018c05004042.html#a0631df940d30f8c03bda018c05004042" target="_top" xlink:title="org.cobbzilla.util.io.main.\lUniqueFileWalkerMain.run">
<polygon fill="none" stroke="#000000" points="537,-.5 537,-30.5 668,-30.5 668,-.5 537,-.5"/>
<text text-anchor="start" x="545" y="-18.5" font-family="Helvetica,sans-Serif" font-size="10.00" fill="#000000">org.cobbzilla.util.io.main.</text>
<text text-anchor="middle" x="602.5" y="-7.5" font-family="Helvetica,sans-Serif" font-size="10.00" fill="#000000">UniqueFileWalkerMain.run</text>
</a>
</g>
</g>
<!-- Node3&#45;&gt;Node4 -->
<g id="edge3" class="edge">
<title>Node3&#45;&gt;Node4</title>
<path fill="none" stroke="#191970" d="M511.2384,-15.5C519.8743,-15.5 528.5522,-15.5 536.9387,-15.5"/>
<polygon fill="#191970" stroke="#191970" points="511.1399,-12.0001 501.1398,-15.5 511.1398,-19.0001 511.1399,-12.0001"/>
</g>
</g>
</svg>
