<?xml version="1.0" encoding="UTF-8" standalone="no"?>
<!DOCTYPE svg PUBLIC "-//W3C//DTD SVG 1.1//EN"
 "http://www.w3.org/Graphics/SVG/1.1/DTD/svg11.dtd">
<!-- Generated by graphviz version 2.40.1 (20161225.0304)
 -->
<!-- Title: org.cobbzilla.util.cron.CronCommand.init Pages: 1 -->
<svg width="486pt" height="88pt"
 viewBox="0.00 0.00 486.00 88.00" xmlns="http://www.w3.org/2000/svg" xmlns:xlink="http://www.w3.org/1999/xlink">
<g id="graph0" class="graph" transform="scale(1 1) rotate(0) translate(4 84)">
<title>org.cobbzilla.util.cron.CronCommand.init</title>
<!-- Node1 -->
<g id="node1" class="node">
<title>Node1</title>
<polygon fill="#bfbfbf" stroke="#000000" points="0,-24.5 0,-54.5 112,-54.5 112,-24.5 0,-24.5"/>
<text text-anchor="start" x="8" y="-42.5" font-family="Helvetica,sans-Serif" font-size="10.00" fill="#000000">org.cobbzilla.util.cron.</text>
<text text-anchor="middle" x="56" y="-31.5" font-family="Helvetica,sans-Serif" font-size="10.00" fill="#000000">CronCommand.init</text>
</g>
<!-- Node2 -->
<g id="node2" class="node">
<title>Node2</title>
<g id="a_node2"><a xlink:href="../../d2/daf/classorg_1_1cobbzilla_1_1util_1_1cron_1_1quartz_1_1QuartzMaster_addaa9a7a397ee1967fd723e44e376260.html#addaa9a7a397ee1967fd723e44e376260" target="_top" xlink:title="org.cobbzilla.util.cron.quartz.\lQuartzMaster.addJob">
<polygon fill="none" stroke="#000000" points="153,-49.5 153,-79.5 295,-79.5 295,-49.5 153,-49.5"/>
<text text-anchor="start" x="161" y="-67.5" font-family="Helvetica,sans-Serif" font-size="10.00" fill="#000000">org.cobbzilla.util.cron.quartz.</text>
<text text-anchor="middle" x="224" y="-56.5" font-family="Helvetica,sans-Serif" font-size="10.00" fill="#000000">QuartzMaster.addJob</text>
</a>
</g>
</g>
<!-- Node1&#45;&gt;Node2 -->
<g id="edge1" class="edge">
<title>Node1&#45;&gt;Node2</title>
<path fill="none" stroke="#191970" d="M122.6078,-49.4119C132.5361,-50.8893 142.8033,-52.4172 152.8214,-53.9079"/>
<polygon fill="#191970" stroke="#191970" points="122.8152,-45.9043 112.4089,-47.8942 121.7848,-52.828 122.8152,-45.9043"/>
</g>
<!-- Node4 -->
<g id="node4" class="node">
<title>Node4</title>
<g id="a_node4"><a xlink:href="../../d4/dbe/classorg_1_1cobbzilla_1_1util_1_1cron_1_1CronJob_a693e4b01c82f8786ea579d31e5244560.html#a693e4b01c82f8786ea579d31e5244560" target="_top" xlink:title="org.cobbzilla.util.cron.\lCronJob.getCommandInstance">
<polygon fill="none" stroke="#000000" points="148,-.5 148,-30.5 300,-30.5 300,-.5 148,-.5"/>
<text text-anchor="start" x="156" y="-18.5" font-family="Helvetica,sans-Serif" font-size="10.00" fill="#000000">org.cobbzilla.util.cron.</text>
<text text-anchor="middle" x="224" y="-7.5" font-family="Helvetica,sans-Serif" font-size="10.00" fill="#000000">CronJob.getCommandInstance</text>
</a>
</g>
</g>
<!-- Node1&#45;&gt;Node4 -->
<g id="edge3" class="edge">
<title>Node1&#45;&gt;Node4</title>
<path fill="none" stroke="#191970" d="M122.4119,-30.0126C130.7296,-28.8243 139.2881,-27.6017 147.7412,-26.3941"/>
<polygon fill="#191970" stroke="#191970" points="121.8134,-26.5625 112.4089,-31.4416 122.8034,-33.4921 121.8134,-26.5625"/>
</g>
<!-- Node3 -->
<g id="node3" class="node">
<title>Node3</title>
<g id="a_node3"><a xlink:href="../../d2/daf/classorg_1_1cobbzilla_1_1util_1_1cron_1_1quartz_1_1QuartzMaster_af299e3ca882a1ee7d3f029d2104be88d.html#af299e3ca882a1ee7d3f029d2104be88d" target="_top" xlink:title="org.cobbzilla.util.cron.quartz.\lQuartzMaster.start">
<polygon fill="none" stroke="#000000" points="336,-49.5 336,-79.5 478,-79.5 478,-49.5 336,-49.5"/>
<text text-anchor="start" x="344" y="-67.5" font-family="Helvetica,sans-Serif" font-size="10.00" fill="#000000">org.cobbzilla.util.cron.quartz.</text>
<text text-anchor="middle" x="407" y="-56.5" font-family="Helvetica,sans-Serif" font-size="10.00" fill="#000000">QuartzMaster.start</text>
</a>
</g>
</g>
<!-- Node2&#45;&gt;Node3 -->
<g id="edge2" class="edge">
<title>Node2&#45;&gt;Node3</title>
<path fill="none" stroke="#191970" d="M305.1324,-64.5C315.3273,-64.5 325.6962,-64.5 335.7239,-64.5"/>
<polygon fill="#191970" stroke="#191970" points="305.0145,-61.0001 295.0145,-64.5 305.0145,-68.0001 305.0145,-61.0001"/>
</g>
</g>
</svg>
