<?xml version="1.0" encoding="UTF-8" standalone="no"?>
<!DOCTYPE svg PUBLIC "-//W3C//DTD SVG 1.1//EN"
 "http://www.w3.org/Graphics/SVG/1.1/DTD/svg11.dtd">
<!-- Generated by graphviz version 2.40.1 (20161225.0304)
 -->
<!-- Title: org.cobbzilla.util.cron.CronCommand.exec Pages: 1 -->
<svg width="476pt" height="39pt"
 viewBox="0.00 0.00 476.00 39.00" xmlns="http://www.w3.org/2000/svg" xmlns:xlink="http://www.w3.org/1999/xlink">
<g id="graph0" class="graph" transform="scale(1 1) rotate(0) translate(4 35)">
<title>org.cobbzilla.util.cron.CronCommand.exec</title>
<!-- Node1 -->
<g id="node1" class="node">
<title>Node1</title>
<polygon fill="#bfbfbf" stroke="#000000" points="0,-.5 0,-30.5 112,-30.5 112,-.5 0,-.5"/>
<text text-anchor="start" x="8" y="-18.5" font-family="Helvetica,sans-Serif" font-size="10.00" fill="#000000">org.cobbzilla.util.cron.</text>
<text text-anchor="middle" x="56" y="-7.5" font-family="Helvetica,sans-Serif" font-size="10.00" fill="#000000">CronCommand.exec</text>
</g>
<!-- Node2 -->
<g id="node2" class="node">
<title>Node2</title>
<g id="a_node2"><a xlink:href="../../d2/daf/classorg_1_1cobbzilla_1_1util_1_1cron_1_1quartz_1_1QuartzMaster_addaa9a7a397ee1967fd723e44e376260.html#addaa9a7a397ee1967fd723e44e376260" target="_top" xlink:title="org.cobbzilla.util.cron.quartz.\lQuartzMaster.addJob">
<polygon fill="none" stroke="#000000" points="148,-.5 148,-30.5 290,-30.5 290,-.5 148,-.5"/>
<text text-anchor="start" x="156" y="-18.5" font-family="Helvetica,sans-Serif" font-size="10.00" fill="#000000">org.cobbzilla.util.cron.quartz.</text>
<text text-anchor="middle" x="219" y="-7.5" font-family="Helvetica,sans-Serif" font-size="10.00" fill="#000000">QuartzMaster.addJob</text>
</a>
</g>
</g>
<!-- Node1&#45;&gt;Node2 -->
<g id="edge1" class="edge">
<title>Node1&#45;&gt;Node2</title>
<path fill="none" stroke="#191970" d="M122.2407,-15.5C130.6707,-15.5 139.3266,-15.5 147.83,-15.5"/>
<polygon fill="#191970" stroke="#191970" points="122.0954,-12.0001 112.0954,-15.5 122.0953,-19.0001 122.0954,-12.0001"/>
</g>
<!-- Node3 -->
<g id="node3" class="node">
<title>Node3</title>
<g id="a_node3"><a xlink:href="../../d2/daf/classorg_1_1cobbzilla_1_1util_1_1cron_1_1quartz_1_1QuartzMaster_af299e3ca882a1ee7d3f029d2104be88d.html#af299e3ca882a1ee7d3f029d2104be88d" target="_top" xlink:title="org.cobbzilla.util.cron.quartz.\lQuartzMaster.start">
<polygon fill="none" stroke="#000000" points="326,-.5 326,-30.5 468,-30.5 468,-.5 326,-.5"/>
<text text-anchor="start" x="334" y="-18.5" font-family="Helvetica,sans-Serif" font-size="10.00" fill="#000000">org.cobbzilla.util.cron.quartz.</text>
<text text-anchor="middle" x="397" y="-7.5" font-family="Helvetica,sans-Serif" font-size="10.00" fill="#000000">QuartzMaster.start</text>
</a>
</g>
</g>
<!-- Node2&#45;&gt;Node3 -->
<g id="edge2" class="edge">
<title>Node2&#45;&gt;Node3</title>
<path fill="none" stroke="#191970" d="M300.1702,-15.5C308.7888,-15.5 317.506,-15.5 325.9953,-15.5"/>
<polygon fill="#191970" stroke="#191970" points="300.1177,-12.0001 290.1177,-15.5 300.1177,-19.0001 300.1177,-12.0001"/>
</g>
</g>
</svg>
