<?xml version="1.0" encoding="UTF-8" standalone="no"?>
<!DOCTYPE svg PUBLIC "-//W3C//DTD SVG 1.1//EN"
 "http://www.w3.org/Graphics/SVG/1.1/DTD/svg11.dtd">
<!-- Generated by graphviz version 2.40.1 (20161225.0304)
 -->
<!-- Title: org.cobbzilla.util.system.CommandShellTest.testProgressFilter Pages: 1 -->
<svg width="615pt" height="112pt"
 viewBox="0.00 0.00 615.00 112.00" xmlns="http://www.w3.org/2000/svg" xmlns:xlink="http://www.w3.org/1999/xlink">
<g id="graph0" class="graph" transform="scale(1 1) rotate(0) translate(4 108)">
<title>org.cobbzilla.util.system.CommandShellTest.testProgressFilter</title>
<!-- Node0 -->
<g id="node1" class="node">
<title>Node0</title>
<polygon fill="#bfbfbf" stroke="#000000" points="0,-48.5 0,-78.5 183,-78.5 183,-48.5 0,-48.5"/>
<text text-anchor="start" x="8" y="-66.5" font-family="Helvetica,sans-Serif" font-size="10.00" fill="#000000">org.cobbzilla.util.system.</text>
<text text-anchor="middle" x="91.5" y="-55.5" font-family="Helvetica,sans-Serif" font-size="10.00" fill="#000000">CommandShellTest.testProgressFilter</text>
</g>
<!-- Node1 -->
<g id="node2" class="node">
<title>Node1</title>
<g id="a_node2"><a xlink:href="../../dc/de1/classorg_1_1cobbzilla_1_1util_1_1system_1_1CommandProgressFilter_af60ebd177dde5da4959b24b079c74046.html#af60ebd177dde5da4959b24b079c74046" target="_top" xlink:title="org.cobbzilla.util.system.\lCommandProgressFilter.addIndicator">
<polygon fill="none" stroke="#000000" points="219,-73.5 219,-103.5 398,-103.5 398,-73.5 219,-73.5"/>
<text text-anchor="start" x="227" y="-91.5" font-family="Helvetica,sans-Serif" font-size="10.00" fill="#000000">org.cobbzilla.util.system.</text>
<text text-anchor="middle" x="308.5" y="-80.5" font-family="Helvetica,sans-Serif" font-size="10.00" fill="#000000">CommandProgressFilter.addIndicator</text>
</a>
</g>
</g>
<!-- Node0&#45;&gt;Node1 -->
<g id="edge1" class="edge">
<title>Node0&#45;&gt;Node1</title>
<path fill="none" stroke="#191970" d="M183.213,-74.066C191.6932,-75.043 200.3137,-76.0361 208.8603,-77.0208"/>
<polygon fill="#191970" stroke="#191970" points="208.5117,-80.5037 218.8466,-78.1713 209.3129,-73.5497 208.5117,-80.5037"/>
</g>
<!-- Node2 -->
<g id="node3" class="node">
<title>Node2</title>
<g id="a_node3"><a xlink:href="../../df/ded/classorg_1_1cobbzilla_1_1util_1_1system_1_1CommandShell_a3bf65e24823a4dbf204b9af10afd9d07.html#a3bf65e24823a4dbf204b9af10afd9d07" target="_top" xlink:title="org.cobbzilla.util.system.\lCommandShell.exec">
<polygon fill="none" stroke="#000000" points="246,-24.5 246,-54.5 371,-54.5 371,-24.5 246,-24.5"/>
<text text-anchor="start" x="254" y="-42.5" font-family="Helvetica,sans-Serif" font-size="10.00" fill="#000000">org.cobbzilla.util.system.</text>
<text text-anchor="middle" x="308.5" y="-31.5" font-family="Helvetica,sans-Serif" font-size="10.00" fill="#000000">CommandShell.exec</text>
</a>
</g>
</g>
<!-- Node0&#45;&gt;Node2 -->
<g id="edge2" class="edge">
<title>Node0&#45;&gt;Node2</title>
<path fill="none" stroke="#191970" d="M183.213,-53.3566C200.647,-51.4284 218.6736,-49.4347 235.4331,-47.5811"/>
<polygon fill="#191970" stroke="#191970" points="236.1333,-51.0251 245.6879,-46.447 235.3638,-44.0675 236.1333,-51.0251"/>
</g>
<!-- Node3 -->
<g id="node4" class="node">
<title>Node3</title>
<g id="a_node4"><a xlink:href="../../dc/df7/classorg_1_1cobbzilla_1_1util_1_1system_1_1MultiCommandResult_ac2690cae3ffa9e178ad4dd87b0c37b69.html#ac2690cae3ffa9e178ad4dd87b0c37b69" target="_top" xlink:title="org.cobbzilla.util.system.\lMultiCommandResult.add">
<polygon fill="none" stroke="#000000" points="455.5,-49.5 455.5,-79.5 585.5,-79.5 585.5,-49.5 455.5,-49.5"/>
<text text-anchor="start" x="463.5" y="-67.5" font-family="Helvetica,sans-Serif" font-size="10.00" fill="#000000">org.cobbzilla.util.system.</text>
<text text-anchor="middle" x="520.5" y="-56.5" font-family="Helvetica,sans-Serif" font-size="10.00" fill="#000000">MultiCommandResult.add</text>
</a>
</g>
</g>
<!-- Node2&#45;&gt;Node3 -->
<g id="edge3" class="edge">
<title>Node2&#45;&gt;Node3</title>
<path fill="none" stroke="#191970" d="M371.2465,-46.8994C394.4297,-49.6332 420.9447,-52.76 445.1319,-55.6122"/>
<polygon fill="#191970" stroke="#191970" points="444.9977,-59.1206 455.3388,-56.8159 445.8175,-52.1688 444.9977,-59.1206"/>
</g>
<!-- Node4 -->
<g id="node5" class="node">
<title>Node4</title>
<g id="a_node5"><a xlink:href="../../dc/df7/classorg_1_1cobbzilla_1_1util_1_1system_1_1MultiCommandResult_adeb9e510ac60b715f83f640a65248af2.html#adeb9e510ac60b715f83f640a65248af2" target="_top" xlink:title="org.cobbzilla.util.system.\lMultiCommandResult.hasException">
<polygon fill="none" stroke="#000000" points="434,-.5 434,-30.5 607,-30.5 607,-.5 434,-.5"/>
<text text-anchor="start" x="442" y="-18.5" font-family="Helvetica,sans-Serif" font-size="10.00" fill="#000000">org.cobbzilla.util.system.</text>
<text text-anchor="middle" x="520.5" y="-7.5" font-family="Helvetica,sans-Serif" font-size="10.00" fill="#000000">MultiCommandResult.hasException</text>
</a>
</g>
</g>
<!-- Node2&#45;&gt;Node4 -->
<g id="edge4" class="edge">
<title>Node2&#45;&gt;Node4</title>
<path fill="none" stroke="#191970" d="M371.2465,-32.3966C387.679,-30.5363 405.7855,-28.4865 423.5505,-26.4754"/>
<polygon fill="#191970" stroke="#191970" points="424.4128,-29.9002 433.9556,-25.2975 423.6253,-22.9447 424.4128,-29.9002"/>
</g>
</g>
</svg>
