<?xml version="1.0" encoding="UTF-8" standalone="no"?>
<!DOCTYPE svg PUBLIC "-//W3C//DTD SVG 1.1//EN"
 "http://www.w3.org/Graphics/SVG/1.1/DTD/svg11.dtd">
<!-- Generated by graphviz version 2.40.1 (20161225.0304)
 -->
<!-- Title: org.cobbzilla.util.string.StringUtil Pages: 1 -->
<!--zoomable 810 -->
<svg id="main" version="1.1" xmlns="http://www.w3.org/2000/svg" xmlns:xlink="http://www.w3.org/1999/xlink" xml:space="preserve" onload="init(evt)">
<style type="text/css"><![CDATA[
.edge:hover path { stroke: red; }
.edge:hover polygon { stroke: red; fill: red; }
]]></style>
<script type="text/javascript"><![CDATA[
var edges = document.getElementsByTagName('g');
if (edges && edges.length) {
  for (var i=0;i<edges.length;i++) {
    if (edges[i].id.substr(0,4)=='edge') {
      edges[i].setAttribute('class','edge');
    }
  }
}
]]></script>
        <defs>
                <circle id="rim" cx="0" cy="0" r="7"/>
                <circle id="rim2" cx="0" cy="0" r="3.5"/>
                <g id="zoomPlus">
                        <use xlink:href="#rim" fill="#404040">
                                <set attributeName="fill" to="#808080" begin="zoomplus.mouseover" end="zoomplus.mouseout"/>
                        </use>
                        <path d="M-4,0h8M0,-4v8" fill="none" stroke="white" stroke-width="1.5" pointer-events="none"/>
                </g>
                <g id="zoomMin">
                        <use xlink:href="#rim" fill="#404040">
                                <set attributeName="fill" to="#808080" begin="zoomminus.mouseover" end="zoomminus.mouseout"/>
                        </use>
                        <path d="M-4,0h8" fill="none" stroke="white" stroke-width="1.5" pointer-events="none"/>
                </g>
                <g id="dirArrow">
                        <path fill="none" stroke="white" stroke-width="1.5" d="M0,-3.0v7 M-2.5,-0.5L0,-3.0L2.5,-0.5"/>
                </g>
               <g id="resetDef">
                       <use xlink:href="#rim2" fill="#404040">
                               <set attributeName="fill" to="#808080" begin="reset.mouseover" end="reset.mouseout"/>
                       </use>
               </g>
        </defs>

<script type="text/javascript">
var viewWidth = 613;
var viewHeight = 810;
var sectionId = 'dynsection-0';
</script>
<script xlink:href="../../svgpan.js"/>
<svg id="graph" class="graph">
<g id="viewport">
<title>org.cobbzilla.util.string.StringUtil</title>
<!-- Node1 -->
<g id="node1" class="node">
<title>Node1</title>
<polygon fill="#bfbfbf" stroke="#000000" points="237.5,-.5 237.5,-310.5 354.5,-310.5 354.5,-.5 237.5,-.5"/>
<text text-anchor="start" x="245.5" y="-298.5" font-family="Helvetica,sans-Serif" font-size="10.00" fill="#000000">org.cobbzilla.util.string.</text>
<text text-anchor="middle" x="296" y="-287.5" font-family="Helvetica,sans-Serif" font-size="10.00" fill="#000000">StringUtil</text>
<polyline fill="none" stroke="#000000" points="237.5,-280.5 354.5,-280.5 "/>
<text text-anchor="start" x="245.5" y="-268.5" font-family="Helvetica,sans-Serif" font-size="10.00" fill="#000000">+ UTF8</text>
<text text-anchor="start" x="245.5" y="-257.5" font-family="Helvetica,sans-Serif" font-size="10.00" fill="#000000">+ EMPTY</text>
<text text-anchor="start" x="245.5" y="-246.5" font-family="Helvetica,sans-Serif" font-size="10.00" fill="#000000">+ EMPTY_ARRAY</text>
<text text-anchor="start" x="245.5" y="-235.5" font-family="Helvetica,sans-Serif" font-size="10.00" fill="#000000">+ DEFAULT_LOCALE</text>
<text text-anchor="start" x="245.5" y="-224.5" font-family="Helvetica,sans-Serif" font-size="10.00" fill="#000000">+ BYTES_PATTERN</text>
<text text-anchor="start" x="245.5" y="-213.5" font-family="Helvetica,sans-Serif" font-size="10.00" fill="#000000">+ CRLF</text>
<text text-anchor="start" x="245.5" y="-202.5" font-family="Helvetica,sans-Serif" font-size="10.00" fill="#000000">+ VOWELS</text>
<text text-anchor="start" x="245.5" y="-191.5" font-family="Helvetica,sans-Serif" font-size="10.00" fill="#000000">+ HOUR</text>
<text text-anchor="start" x="245.5" y="-180.5" font-family="Helvetica,sans-Serif" font-size="10.00" fill="#000000">+ MINUTE</text>
<text text-anchor="start" x="245.5" y="-169.5" font-family="Helvetica,sans-Serif" font-size="10.00" fill="#000000">+ SECOND</text>
<text text-anchor="start" x="245.5" y="-158.5" font-family="Helvetica,sans-Serif" font-size="10.00" fill="#000000">+ PCT</text>
<text text-anchor="start" x="245.5" y="-147.5" font-family="Helvetica,sans-Serif" font-size="10.00" fill="#000000">+ ESC_PCT</text>
<text text-anchor="start" x="245.5" y="-136.5" font-family="Helvetica,sans-Serif" font-size="10.00" fill="#000000">&#45; DIFF_JS</text>
<polyline fill="none" stroke="#000000" points="237.5,-129.5 354.5,-129.5 "/>
<text text-anchor="start" x="245.5" y="-117.5" font-family="Helvetica,sans-Serif" font-size="10.00" fill="#000000">+ isVowel()</text>
<text text-anchor="start" x="245.5" y="-106.5" font-family="Helvetica,sans-Serif" font-size="10.00" fill="#000000">+ toStringCollection()</text>
<text text-anchor="start" x="245.5" y="-95.5" font-family="Helvetica,sans-Serif" font-size="10.00" fill="#000000">+ prefix()</text>
<text text-anchor="start" x="245.5" y="-84.5" font-family="Helvetica,sans-Serif" font-size="10.00" fill="#000000">+ packagePath()</text>
<text text-anchor="start" x="245.5" y="-73.5" font-family="Helvetica,sans-Serif" font-size="10.00" fill="#000000">+ packagePath()</text>
<text text-anchor="start" x="245.5" y="-62.5" font-family="Helvetica,sans-Serif" font-size="10.00" fill="#000000">+ split()</text>
<text text-anchor="start" x="245.5" y="-51.5" font-family="Helvetica,sans-Serif" font-size="10.00" fill="#000000">+ split2array()</text>
<text text-anchor="start" x="245.5" y="-40.5" font-family="Helvetica,sans-Serif" font-size="10.00" fill="#000000">+ splitLongs()</text>
<text text-anchor="start" x="245.5" y="-29.5" font-family="Helvetica,sans-Serif" font-size="10.00" fill="#000000">+ splitAndTrim()</text>
<text text-anchor="start" x="245.5" y="-18.5" font-family="Helvetica,sans-Serif" font-size="10.00" fill="#000000">+ replaceLast()</text>
<text text-anchor="start" x="245.5" y="-7.5" font-family="Helvetica,sans-Serif" font-size="10.00" fill="#000000">and 67 more...</text>
</g>
<!-- Node2 -->
<g id="node2" class="node">
<title>Node2</title>
<polygon fill="none" stroke="#bfbfbf" points="0,-441 0,-498 82,-498 82,-441 0,-441"/>
<text text-anchor="middle" x="41" y="-486" font-family="Helvetica,sans-Serif" font-size="10.00" fill="#000000">NumberFormat</text>
<polyline fill="none" stroke="#bfbfbf" points="0,-479 82,-479 "/>
<text text-anchor="middle" x="41" y="-467" font-family="Helvetica,sans-Serif" font-size="10.00" fill="#000000"> </text>
<polyline fill="none" stroke="#bfbfbf" points="0,-460 82,-460 "/>
<text text-anchor="middle" x="41" y="-448" font-family="Helvetica,sans-Serif" font-size="10.00" fill="#000000"> </text>
</g>
<!-- Node2&#45;&gt;Node1 -->
<g id="edge1" class="edge">
<title>Node2&#45;&gt;Node1</title>
<path fill="none" stroke="#404040" d="M42.698,-440.9718C45.6558,-410.9664 53.7653,-363.4172 76,-329 113.7036,-270.6383 177.8247,-223.3891 227.1448,-193.0211"/>
<polygon fill="none" stroke="#404040" points="227.1622,-193.0106 230.2255,-186.4825 237.4296,-186.7993 234.3664,-193.3274 227.1622,-193.0106"/>
<text text-anchor="middle" x="126.5" y="-332" font-family="Helvetica,sans-Serif" font-size="10.00" fill="#000000"> +NUMBER_FORMAT</text>
</g>
<!-- Node3 -->
<g id="node3" class="node">
<title>Node3</title>
<polygon fill="none" stroke="#bfbfbf" points="130.5,-441 130.5,-498 199.5,-498 199.5,-441 130.5,-441"/>
<text text-anchor="middle" x="165" y="-486" font-family="Helvetica,sans-Serif" font-size="10.00" fill="#000000">Transformer</text>
<polyline fill="none" stroke="#bfbfbf" points="130.5,-479 199.5,-479 "/>
<text text-anchor="middle" x="165" y="-467" font-family="Helvetica,sans-Serif" font-size="10.00" fill="#000000"> </text>
<polyline fill="none" stroke="#bfbfbf" points="130.5,-460 199.5,-460 "/>
<text text-anchor="middle" x="165" y="-448" font-family="Helvetica,sans-Serif" font-size="10.00" fill="#000000"> </text>
</g>
<!-- Node3&#45;&gt;Node1 -->
<g id="edge2" class="edge">
<title>Node3&#45;&gt;Node1</title>
<path fill="none" stroke="#404040" d="M165.2448,-440.9022C166.3189,-411.8758 170.3117,-366.0589 184,-329 195.2905,-298.4328 212.6815,-267.7008 230.418,-240.7741"/>
<polygon fill="none" stroke="#404040" points="230.5286,-240.6095 230.5543,-233.3985 237.2206,-230.6488 237.1949,-237.8599 230.5286,-240.6095"/>
<text text-anchor="middle" x="238" y="-332" font-family="Helvetica,sans-Serif" font-size="10.00" fill="#000000"> +XFORM_TO_STRING</text>
</g>
<!-- Node4 -->
<g id="node4" class="node">
<title>Node4</title>
<g id="a_node4"><a xlink:href="../../db/d96/classorg_1_1cobbzilla_1_1util_1_1javascript_1_1JsEngine.html" target="_top" xlink:title="{org.cobbzilla.util.javascript.\lJsEngine\n|&#45; scriptEngineManager\l&#45; maxEngines\l&#45; defaultScript\l|+ getDefaultScript()\l+ JsEngine()\l+ JsEngine()\l+ evaluateBoolean()\l+ evaluateBoolean()\l+ evaluateInt()\l+ evaluateLong()\l+ evaluateLong()\l+ evaluateString()\l+ functionOfX()\l~ evaluate()\l# getNashorn()\l# getNashorn()\l}">
<polygon fill="none" stroke="#000000" points="228.5,-358.5 228.5,-580.5 363.5,-580.5 363.5,-358.5 228.5,-358.5"/>
<text text-anchor="start" x="236.5" y="-568.5" font-family="Helvetica,sans-Serif" font-size="10.00" fill="#000000">org.cobbzilla.util.javascript.</text>
<text text-anchor="middle" x="296" y="-557.5" font-family="Helvetica,sans-Serif" font-size="10.00" fill="#000000">JsEngine</text>
<polyline fill="none" stroke="#000000" points="228.5,-550.5 363.5,-550.5 "/>
<text text-anchor="start" x="236.5" y="-538.5" font-family="Helvetica,sans-Serif" font-size="10.00" fill="#000000">&#45; scriptEngineManager</text>
<text text-anchor="start" x="236.5" y="-527.5" font-family="Helvetica,sans-Serif" font-size="10.00" fill="#000000">&#45; maxEngines</text>
<text text-anchor="start" x="236.5" y="-516.5" font-family="Helvetica,sans-Serif" font-size="10.00" fill="#000000">&#45; defaultScript</text>
<polyline fill="none" stroke="#000000" points="228.5,-509.5 363.5,-509.5 "/>
<text text-anchor="start" x="236.5" y="-497.5" font-family="Helvetica,sans-Serif" font-size="10.00" fill="#000000">+ getDefaultScript()</text>
<text text-anchor="start" x="236.5" y="-486.5" font-family="Helvetica,sans-Serif" font-size="10.00" fill="#000000">+ JsEngine()</text>
<text text-anchor="start" x="236.5" y="-475.5" font-family="Helvetica,sans-Serif" font-size="10.00" fill="#000000">+ JsEngine()</text>
<text text-anchor="start" x="236.5" y="-464.5" font-family="Helvetica,sans-Serif" font-size="10.00" fill="#000000">+ evaluateBoolean()</text>
<text text-anchor="start" x="236.5" y="-453.5" font-family="Helvetica,sans-Serif" font-size="10.00" fill="#000000">+ evaluateBoolean()</text>
<text text-anchor="start" x="236.5" y="-442.5" font-family="Helvetica,sans-Serif" font-size="10.00" fill="#000000">+ evaluateInt()</text>
<text text-anchor="start" x="236.5" y="-431.5" font-family="Helvetica,sans-Serif" font-size="10.00" fill="#000000">+ evaluateLong()</text>
<text text-anchor="start" x="236.5" y="-420.5" font-family="Helvetica,sans-Serif" font-size="10.00" fill="#000000">+ evaluateLong()</text>
<text text-anchor="start" x="236.5" y="-409.5" font-family="Helvetica,sans-Serif" font-size="10.00" fill="#000000">+ evaluateString()</text>
<text text-anchor="start" x="236.5" y="-398.5" font-family="Helvetica,sans-Serif" font-size="10.00" fill="#000000">+ functionOfX()</text>
<text text-anchor="start" x="236.5" y="-387.5" font-family="Helvetica,sans-Serif" font-size="10.00" fill="#000000">~ evaluate()</text>
<text text-anchor="start" x="236.5" y="-376.5" font-family="Helvetica,sans-Serif" font-size="10.00" fill="#000000"># getNashorn()</text>
<text text-anchor="start" x="236.5" y="-365.5" font-family="Helvetica,sans-Serif" font-size="10.00" fill="#000000"># getNashorn()</text>
</a>
</g>
</g>
<!-- Node4&#45;&gt;Node1 -->
<g id="edge3" class="edge">
<title>Node4&#45;&gt;Node1</title>
<path fill="none" stroke="#404040" d="M296,-358.3535C296,-346.7758 296,-334.8334 296,-322.8101"/>
<polygon fill="none" stroke="#404040" points="296.0001,-322.7702 292,-316.7703 296,-310.7702 300,-316.7702 296.0001,-322.7702"/>
<text text-anchor="middle" x="343" y="-332" font-family="Helvetica,sans-Serif" font-size="10.00" fill="#000000"> +DIFF_JS_ENGINE</text>
</g>
<!-- Node5 -->
<g id="node5" class="node">
<title>Node5</title>
<polygon fill="none" stroke="#bfbfbf" points="208.5,-639.5 208.5,-696.5 285.5,-696.5 285.5,-639.5 208.5,-639.5"/>
<text text-anchor="middle" x="247" y="-684.5" font-family="Helvetica,sans-Serif" font-size="10.00" fill="#000000">AtomicInteger</text>
<polyline fill="none" stroke="#bfbfbf" points="208.5,-677.5 285.5,-677.5 "/>
<text text-anchor="middle" x="247" y="-665.5" font-family="Helvetica,sans-Serif" font-size="10.00" fill="#000000"> </text>
<polyline fill="none" stroke="#bfbfbf" points="208.5,-658.5 285.5,-658.5 "/>
<text text-anchor="middle" x="247" y="-646.5" font-family="Helvetica,sans-Serif" font-size="10.00" fill="#000000"> </text>
</g>
<!-- Node5&#45;&gt;Node4 -->
<g id="edge4" class="edge">
<title>Node5&#45;&gt;Node4</title>
<path fill="none" stroke="#404040" d="M251.8351,-639.351C254.0812,-626.9011 256.9326,-612.1785 260,-599 260.5038,-596.8355 261.0199,-594.6529 261.5468,-592.4564"/>
<polygon fill="none" stroke="#404040" points="261.5957,-592.2568 259.1419,-585.476 264.4573,-580.6029 266.9111,-587.3837 261.5957,-592.2568"/>
<text text-anchor="middle" x="291" y="-613" font-family="Helvetica,sans-Serif" font-size="10.00" fill="#000000"> &#45;nashCounter</text>
<text text-anchor="middle" x="291" y="-602" font-family="Helvetica,sans-Serif" font-size="10.00" fill="#000000">&#45;inUse</text>
</g>
<!-- Node6 -->
<g id="node6" class="node">
<title>Node6</title>
<polygon fill="none" stroke="#bfbfbf" points="304,-639.5 304,-696.5 410,-696.5 410,-639.5 304,-639.5"/>
<text text-anchor="middle" x="357" y="-684.5" font-family="Helvetica,sans-Serif" font-size="10.00" fill="#000000">List&lt; ScriptEngine &gt;</text>
<polyline fill="none" stroke="#bfbfbf" points="304,-677.5 410,-677.5 "/>
<text text-anchor="middle" x="357" y="-665.5" font-family="Helvetica,sans-Serif" font-size="10.00" fill="#000000"> </text>
<polyline fill="none" stroke="#bfbfbf" points="304,-658.5 410,-658.5 "/>
<text text-anchor="middle" x="357" y="-646.5" font-family="Helvetica,sans-Serif" font-size="10.00" fill="#000000"> </text>
</g>
<!-- Node6&#45;&gt;Node4 -->
<g id="edge5" class="edge">
<title>Node6&#45;&gt;Node4</title>
<path fill="none" stroke="#404040" d="M348.1301,-639.1364C344.1184,-626.082 339.0781,-609.6805 333.7227,-592.2532"/>
<polygon fill="none" stroke="#404040" points="333.6905,-592.1483 328.1044,-587.5881 330.1655,-580.6777 335.7515,-585.238 333.6905,-592.1483"/>
<text text-anchor="middle" x="396" y="-607.5" font-family="Helvetica,sans-Serif" font-size="10.00" fill="#000000"> &#45;availableScriptEngines</text>
</g>
<!-- Node7 -->
<g id="node7" class="node">
<title>Node7</title>
<polygon fill="none" stroke="#bfbfbf" points="341,-744.5 341,-801.5 373,-801.5 373,-744.5 341,-744.5"/>
<text text-anchor="middle" x="357" y="-789.5" font-family="Helvetica,sans-Serif" font-size="10.00" fill="#000000">List</text>
<polyline fill="none" stroke="#bfbfbf" points="341,-782.5 373,-782.5 "/>
<text text-anchor="middle" x="357" y="-770.5" font-family="Helvetica,sans-Serif" font-size="10.00" fill="#000000"> </text>
<polyline fill="none" stroke="#bfbfbf" points="341,-763.5 373,-763.5 "/>
<text text-anchor="middle" x="357" y="-751.5" font-family="Helvetica,sans-Serif" font-size="10.00" fill="#000000"> </text>
</g>
<!-- Node7&#45;&gt;Node6 -->
<g id="edge6" class="edge">
<title>Node7&#45;&gt;Node6</title>
<path fill="none" stroke="#ffa500" d="M357,-734.192C357,-721.7605 357,-708.2278 357,-696.657"/>
<polygon fill="#ffa500" stroke="#ffa500" points="353.5001,-734.3083 357,-744.3083 360.5001,-734.3083 353.5001,-734.3083"/>
<text text-anchor="middle" x="395.5" y="-718" font-family="Helvetica,sans-Serif" font-size="10.00" fill="#000000"> &lt; ScriptEngine &gt;</text>
</g>
<!-- Node8 -->
<g id="node8" class="node">
<title>Node8</title>
<polygon fill="none" stroke="#bfbfbf" points="387.5,-441 387.5,-498 438.5,-498 438.5,-441 387.5,-441"/>
<text text-anchor="middle" x="413" y="-486" font-family="Helvetica,sans-Serif" font-size="10.00" fill="#000000">Charset</text>
<polyline fill="none" stroke="#bfbfbf" points="387.5,-479 438.5,-479 "/>
<text text-anchor="middle" x="413" y="-467" font-family="Helvetica,sans-Serif" font-size="10.00" fill="#000000"> </text>
<polyline fill="none" stroke="#bfbfbf" points="387.5,-460 438.5,-460 "/>
<text text-anchor="middle" x="413" y="-448" font-family="Helvetica,sans-Serif" font-size="10.00" fill="#000000"> </text>
</g>
<!-- Node8&#45;&gt;Node1 -->
<g id="edge7" class="edge">
<title>Node8&#45;&gt;Node1</title>
<path fill="none" stroke="#404040" d="M411.4101,-440.8212C409.1422,-411.9295 403.7313,-366.3955 391,-329 383.0581,-305.6723 372.1043,-281.7903 360.4511,-259.4977"/>
<polygon fill="none" stroke="#404040" points="360.3339,-259.278 353.9802,-255.8677 354.6844,-248.6911 361.0381,-252.1014 360.3339,-259.278"/>
<text text-anchor="middle" x="417.5" y="-332" font-family="Helvetica,sans-Serif" font-size="10.00" fill="#000000"> +UTF8cs</text>
</g>
<!-- Node9 -->
<g id="node9" class="node">
<title>Node9</title>
<polygon fill="none" stroke="#bfbfbf" points="457,-441 457,-498 589,-498 589,-441 457,-441"/>
<text text-anchor="middle" x="523" y="-486" font-family="Helvetica,sans-Serif" font-size="10.00" fill="#000000">Function&lt; Object, String &gt;</text>
<polyline fill="none" stroke="#bfbfbf" points="457,-479 589,-479 "/>
<text text-anchor="middle" x="523" y="-467" font-family="Helvetica,sans-Serif" font-size="10.00" fill="#000000"> </text>
<polyline fill="none" stroke="#bfbfbf" points="457,-460 589,-460 "/>
<text text-anchor="middle" x="523" y="-448" font-family="Helvetica,sans-Serif" font-size="10.00" fill="#000000"> </text>
</g>
<!-- Node9&#45;&gt;Node1 -->
<g id="edge8" class="edge">
<title>Node9&#45;&gt;Node1</title>
<path fill="none" stroke="#404040" d="M508.9509,-440.8081C494.2284,-411.7076 469.7016,-365.8334 444,-329 419.5669,-293.9845 389.4548,-257.6806 362.7843,-227.3878"/>
<polygon fill="none" stroke="#404040" points="362.5886,-227.167 355.6151,-225.3309 354.6279,-218.1877 361.6013,-220.0238 362.5886,-227.167"/>
<text text-anchor="middle" x="490" y="-332" font-family="Helvetica,sans-Serif" font-size="10.00" fill="#000000"> +ESCAPE_SQL</text>
</g>
<!-- Node10 -->
<g id="node10" class="node">
<title>Node10</title>
<polygon fill="none" stroke="#bfbfbf" points="496,-639.5 496,-696.5 550,-696.5 550,-639.5 496,-639.5"/>
<text text-anchor="middle" x="523" y="-684.5" font-family="Helvetica,sans-Serif" font-size="10.00" fill="#000000">Function</text>
<polyline fill="none" stroke="#bfbfbf" points="496,-677.5 550,-677.5 "/>
<text text-anchor="middle" x="523" y="-665.5" font-family="Helvetica,sans-Serif" font-size="10.00" fill="#000000"> </text>
<polyline fill="none" stroke="#bfbfbf" points="496,-658.5 550,-658.5 "/>
<text text-anchor="middle" x="523" y="-646.5" font-family="Helvetica,sans-Serif" font-size="10.00" fill="#000000"> </text>
</g>
<!-- Node10&#45;&gt;Node9 -->
<g id="edge9" class="edge">
<title>Node10&#45;&gt;Node9</title>
<path fill="none" stroke="#ffa500" d="M523,-628.8218C523,-590.3069 523,-532.4444 523,-498.0764"/>
<polygon fill="#ffa500" stroke="#ffa500" points="519.5001,-629.1364 523,-639.1364 526.5001,-629.1364 519.5001,-629.1364"/>
<text text-anchor="middle" x="564" y="-607.5" font-family="Helvetica,sans-Serif" font-size="10.00" fill="#000000"> &lt; Object, String &gt;</text>
</g>
</g>
</svg>
        <g id="navigator" transform="translate(0 0)" fill="#404254">
                <rect fill="#f2f5e9" fill-opacity="0.5" stroke="#606060" stroke-width=".5" x="0" y="0" width="60" height="60"/>
                <use id="zoomplus" xlink:href="#zoomPlus" x="17" y="9" onmousedown="handleZoom(evt,'in')"/>
                <use id="zoomminus" xlink:href="#zoomMin" x="42" y="9" onmousedown="handleZoom(evt,'out')"/>
                <use id="reset" xlink:href="#resetDef" x="30" y="36" onmousedown="handleReset()"/>
                <g id="arrowUp" xlink:href="#dirArrow" transform="translate(30 24)" onmousedown="handlePan(0,-1)">
                  <use xlink:href="#rim" fill="#404040">
                        <set attributeName="fill" to="#808080" begin="arrowUp.mouseover" end="arrowUp.mouseout"/>
                  </use>
                  <path fill="none" stroke="white" stroke-width="1.5" d="M0,-3.0v7 M-2.5,-0.5L0,-3.0L2.5,-0.5"/>
                </g>
                <g id="arrowRight" xlink:href="#dirArrow" transform="rotate(90) translate(36 -43)" onmousedown="handlePan(1,0)">
                  <use xlink:href="#rim" fill="#404040">
                        <set attributeName="fill" to="#808080" begin="arrowRight.mouseover" end="arrowRight.mouseout"/>
                  </use>
                  <path fill="none" stroke="white" stroke-width="1.5" d="M0,-3.0v7 M-2.5,-0.5L0,-3.0L2.5,-0.5"/>
                </g>
                <g id="arrowDown" xlink:href="#dirArrow" transform="rotate(180) translate(-30 -48)" onmousedown="handlePan(0,1)">
                  <use xlink:href="#rim" fill="#404040">
                        <set attributeName="fill" to="#808080" begin="arrowDown.mouseover" end="arrowDown.mouseout"/>
                  </use>
                  <path fill="none" stroke="white" stroke-width="1.5" d="M0,-3.0v7 M-2.5,-0.5L0,-3.0L2.5,-0.5"/>
                </g>
                <g id="arrowLeft" xlink:href="#dirArrow" transform="rotate(270) translate(-36 17)" onmousedown="handlePan(-1,0)">
                  <use xlink:href="#rim" fill="#404040">
                        <set attributeName="fill" to="#808080" begin="arrowLeft.mouseover" end="arrowLeft.mouseout"/>
                  </use>
                  <path fill="none" stroke="white" stroke-width="1.5" d="M0,-3.0v7 M-2.5,-0.5L0,-3.0L2.5,-0.5"/>
                </g>
        </g>
        <svg viewBox="0 0 15 15" width="100%" height="30px" preserveAspectRatio="xMaxYMin meet">
         <g id="arrow_out" transform="scale(0.3 0.3)">
          <a xlink:href="classorg_1_1cobbzilla_1_1util_1_1string_1_1StringUtil__coll__graph_org.svg" target="_base">
           <rect id="button" ry="5" rx="5" y="6" x="6" height="38" width="38"
                fill="#f2f5e9" fill-opacity="0.5" stroke="#606060" stroke-width="1.0"/>
           <path id="arrow"
             d="M 11.500037,31.436501 C 11.940474,20.09759 22.043105,11.32322 32.158766,21.979434 L 37.068811,17.246167 C 37.068811,17.246167 37.088388,32 37.088388,32 L 22.160133,31.978069 C 22.160133,31.978069 26.997745,27.140456 26.997745,27.140456 C 18.528582,18.264221 13.291696,25.230495 11.500037,31.436501 z"
             style="fill:#404040;"/>
          </a>
         </g>
        </svg>
</svg>
