<?xml version="1.0" encoding="UTF-8" standalone="no"?>
<!DOCTYPE svg PUBLIC "-//W3C//DTD SVG 1.1//EN"
 "http://www.w3.org/Graphics/SVG/1.1/DTD/svg11.dtd">
<!-- Generated by graphviz version 2.40.1 (20161225.0304)
 -->
<!-- Title: org.cobbzilla.util.security.bcrypt.BCryptUtil.main Pages: 1 -->
<svg width="1136pt" height="252pt"
 viewBox="0.00 0.00 1136.00 252.00" xmlns="http://www.w3.org/2000/svg" xmlns:xlink="http://www.w3.org/1999/xlink">
<g id="graph0" class="graph" transform="scale(1 1) rotate(0) translate(4 248)">
<title>org.cobbzilla.util.security.bcrypt.BCryptUtil.main</title>
<!-- Node0 -->
<g id="node1" class="node">
<title>Node0</title>
<polygon fill="#bfbfbf" stroke="#000000" points="0,-139.5 0,-169.5 158,-169.5 158,-139.5 0,-139.5"/>
<text text-anchor="start" x="8" y="-157.5" font-family="Helvetica,sans-Serif" font-size="10.00" fill="#000000">org.cobbzilla.util.security.bcrypt.</text>
<text text-anchor="middle" x="79" y="-146.5" font-family="Helvetica,sans-Serif" font-size="10.00" fill="#000000">BCryptUtil.main</text>
</g>
<!-- Node1 -->
<g id="node2" class="node">
<title>Node1</title>
<g id="a_node2"><a xlink:href="../../d3/d0c/classorg_1_1cobbzilla_1_1util_1_1security_1_1bcrypt_1_1BCryptUtil_abd3383887214e2a289636cd17af4092d.html#abd3383887214e2a289636cd17af4092d" target="_top" xlink:title="org.cobbzilla.util.security.bcrypt.\lBCryptUtil.hash">
<polygon fill="none" stroke="#000000" points="194,-164.5 194,-194.5 352,-194.5 352,-164.5 194,-164.5"/>
<text text-anchor="start" x="202" y="-182.5" font-family="Helvetica,sans-Serif" font-size="10.00" fill="#000000">org.cobbzilla.util.security.bcrypt.</text>
<text text-anchor="middle" x="273" y="-171.5" font-family="Helvetica,sans-Serif" font-size="10.00" fill="#000000">BCryptUtil.hash</text>
</a>
</g>
</g>
<!-- Node0&#45;&gt;Node1 -->
<g id="edge1" class="edge">
<title>Node0&#45;&gt;Node1</title>
<path fill="none" stroke="#191970" d="M158.187,-164.7045C166.6212,-165.7914 175.2413,-166.9022 183.7806,-168.0027"/>
<polygon fill="#191970" stroke="#191970" points="183.3864,-171.4807 193.7517,-169.2876 184.2811,-164.5381 183.3864,-171.4807"/>
</g>
<!-- Node14 -->
<g id="node15" class="node">
<title>Node14</title>
<g id="a_node15"><a xlink:href="../../d3/d0c/classorg_1_1cobbzilla_1_1util_1_1security_1_1bcrypt_1_1BCryptUtil_a3d05bda120a50dc62ec3c4dc1dad83fe.html#a3d05bda120a50dc62ec3c4dc1dad83fe" target="_top" xlink:title="org.cobbzilla.util.security.bcrypt.\lBCryptUtil.setBcryptRounds">
<polygon fill="none" stroke="#000000" points="194,-115.5 194,-145.5 352,-145.5 352,-115.5 194,-115.5"/>
<text text-anchor="start" x="202" y="-133.5" font-family="Helvetica,sans-Serif" font-size="10.00" fill="#000000">org.cobbzilla.util.security.bcrypt.</text>
<text text-anchor="middle" x="273" y="-122.5" font-family="Helvetica,sans-Serif" font-size="10.00" fill="#000000">BCryptUtil.setBcryptRounds</text>
</a>
</g>
</g>
<!-- Node0&#45;&gt;Node14 -->
<g id="edge18" class="edge">
<title>Node0&#45;&gt;Node14</title>
<path fill="none" stroke="#191970" d="M158.187,-144.7037C166.6212,-143.6603 175.2413,-142.5939 183.7806,-141.5375"/>
<polygon fill="#191970" stroke="#191970" points="184.2571,-145.0053 193.7517,-140.3039 183.3976,-138.0582 184.2571,-145.0053"/>
</g>
<!-- Node2 -->
<g id="node3" class="node">
<title>Node2</title>
<g id="a_node3"><a xlink:href="../../d9/db7/classorg_1_1cobbzilla_1_1util_1_1security_1_1bcrypt_1_1BCrypt_ad8a191eb9f52aea40a76a418977dfff0.html#ad8a191eb9f52aea40a76a418977dfff0" target="_top" xlink:title="Generate a salt for use with the BCrypt.hashpw() method. ">
<polygon fill="none" stroke="#000000" points="388,-213.5 388,-243.5 546,-243.5 546,-213.5 388,-213.5"/>
<text text-anchor="start" x="396" y="-231.5" font-family="Helvetica,sans-Serif" font-size="10.00" fill="#000000">org.cobbzilla.util.security.bcrypt.</text>
<text text-anchor="middle" x="467" y="-220.5" font-family="Helvetica,sans-Serif" font-size="10.00" fill="#000000">BCrypt.gensalt</text>
</a>
</g>
</g>
<!-- Node1&#45;&gt;Node2 -->
<g id="edge2" class="edge">
<title>Node1&#45;&gt;Node2</title>
<path fill="none" stroke="#191970" d="M332.5248,-194.5346C353.1016,-199.7318 376.3371,-205.6006 397.6336,-210.9796"/>
<polygon fill="#191970" stroke="#191970" points="397.0351,-214.4383 407.5878,-213.4938 398.7494,-207.6514 397.0351,-214.4383"/>
</g>
<!-- Node4 -->
<g id="node5" class="node">
<title>Node4</title>
<g id="a_node5"><a xlink:href="../../d3/d0c/classorg_1_1cobbzilla_1_1util_1_1security_1_1bcrypt_1_1BCryptUtil_a045e91b506f29ce6f629f0bdc3dc71d2.html#a045e91b506f29ce6f629f0bdc3dc71d2" target="_top" xlink:title="org.cobbzilla.util.security.bcrypt.\lBCryptUtil.getBcryptRounds">
<polygon fill="none" stroke="#000000" points="388,-115.5 388,-145.5 546,-145.5 546,-115.5 388,-115.5"/>
<text text-anchor="start" x="396" y="-133.5" font-family="Helvetica,sans-Serif" font-size="10.00" fill="#000000">org.cobbzilla.util.security.bcrypt.</text>
<text text-anchor="middle" x="467" y="-122.5" font-family="Helvetica,sans-Serif" font-size="10.00" fill="#000000">BCryptUtil.getBcryptRounds</text>
</a>
</g>
</g>
<!-- Node1&#45;&gt;Node4 -->
<g id="edge4" class="edge">
<title>Node1&#45;&gt;Node4</title>
<path fill="none" stroke="#191970" d="M332.5248,-164.4654C353.1016,-159.2682 376.3371,-153.3994 397.6336,-148.0204"/>
<polygon fill="#191970" stroke="#191970" points="398.7494,-151.3486 407.5878,-145.5062 397.0351,-144.5617 398.7494,-151.3486"/>
</g>
<!-- Node5 -->
<g id="node6" class="node">
<title>Node5</title>
<g id="a_node6"><a xlink:href="../../d9/db7/classorg_1_1cobbzilla_1_1util_1_1security_1_1bcrypt_1_1BCrypt_ac8243963914ea2d7141d648c9b9431b5.html#ac8243963914ea2d7141d648c9b9431b5" target="_top" xlink:title="Hash a password using the OpenBSD bcrypt scheme. ">
<polygon fill="none" stroke="#000000" points="388,-164.5 388,-194.5 546,-194.5 546,-164.5 388,-164.5"/>
<text text-anchor="start" x="396" y="-182.5" font-family="Helvetica,sans-Serif" font-size="10.00" fill="#000000">org.cobbzilla.util.security.bcrypt.</text>
<text text-anchor="middle" x="467" y="-171.5" font-family="Helvetica,sans-Serif" font-size="10.00" fill="#000000">BCrypt.hashpw</text>
</a>
</g>
</g>
<!-- Node1&#45;&gt;Node5 -->
<g id="edge5" class="edge">
<title>Node1&#45;&gt;Node5</title>
<path fill="none" stroke="#191970" d="M352.187,-179.5C360.5295,-179.5 369.054,-179.5 377.5021,-179.5"/>
<polygon fill="#191970" stroke="#191970" points="377.7518,-183.0001 387.7517,-179.5 377.7517,-176.0001 377.7518,-183.0001"/>
</g>
<!-- Node3 -->
<g id="node4" class="node">
<title>Node3</title>
<g id="a_node4"><a xlink:href="../../d9/db7/classorg_1_1cobbzilla_1_1util_1_1security_1_1bcrypt_1_1BCrypt_a599ca7bbbbe90c75a952cea21ecd2c72.html#a599ca7bbbbe90c75a952cea21ecd2c72" target="_top" xlink:title="Encode a byte array using bcrypt&#39;s slightly&#45;modified base64 encoding scheme. ">
<polygon fill="none" stroke="#000000" points="582,-213.5 582,-243.5 740,-243.5 740,-213.5 582,-213.5"/>
<text text-anchor="start" x="590" y="-231.5" font-family="Helvetica,sans-Serif" font-size="10.00" fill="#000000">org.cobbzilla.util.security.bcrypt.</text>
<text text-anchor="middle" x="661" y="-220.5" font-family="Helvetica,sans-Serif" font-size="10.00" fill="#000000">BCrypt.encode_base64</text>
</a>
</g>
</g>
<!-- Node2&#45;&gt;Node3 -->
<g id="edge3" class="edge">
<title>Node2&#45;&gt;Node3</title>
<path fill="none" stroke="#191970" d="M546.187,-228.5C554.5295,-228.5 563.054,-228.5 571.5021,-228.5"/>
<polygon fill="#191970" stroke="#191970" points="571.7518,-232.0001 581.7517,-228.5 571.7517,-225.0001 571.7518,-232.0001"/>
</g>
<!-- Node5&#45;&gt;Node3 -->
<g id="edge17" class="edge">
<title>Node5&#45;&gt;Node3</title>
<path fill="none" stroke="#191970" d="M526.5248,-194.5346C547.1016,-199.7318 570.3371,-205.6006 591.6336,-210.9796"/>
<polygon fill="#191970" stroke="#191970" points="591.0351,-214.4383 601.5878,-213.4938 592.7494,-207.6514 591.0351,-214.4383"/>
</g>
<!-- Node6 -->
<g id="node7" class="node">
<title>Node6</title>
<g id="a_node7"><a xlink:href="../../d9/db7/classorg_1_1cobbzilla_1_1util_1_1security_1_1bcrypt_1_1BCrypt_a6085fce4e137e5fd132f8574ebb12418.html#a6085fce4e137e5fd132f8574ebb12418" target="_top" xlink:title="Perform the central password hashing step in the bcrypt scheme. ">
<polygon fill="none" stroke="#000000" points="582,-93.5 582,-123.5 740,-123.5 740,-93.5 582,-93.5"/>
<text text-anchor="start" x="590" y="-111.5" font-family="Helvetica,sans-Serif" font-size="10.00" fill="#000000">org.cobbzilla.util.security.bcrypt.</text>
<text text-anchor="middle" x="661" y="-100.5" font-family="Helvetica,sans-Serif" font-size="10.00" fill="#000000">BCrypt.crypt_raw</text>
</a>
</g>
</g>
<!-- Node5&#45;&gt;Node6 -->
<g id="edge6" class="edge">
<title>Node5&#45;&gt;Node6</title>
<path fill="none" stroke="#191970" d="M519.069,-164.434C528.0961,-161.608 537.3557,-158.572 546,-155.5 569.7924,-147.0447 595.8738,-136.4937 617.1749,-127.5319"/>
<polygon fill="#191970" stroke="#191970" points="618.7574,-130.6627 626.6002,-123.5394 616.027,-124.2172 618.7574,-130.6627"/>
</g>
<!-- Node12 -->
<g id="node13" class="node">
<title>Node12</title>
<g id="a_node13"><a xlink:href="../../d9/db7/classorg_1_1cobbzilla_1_1util_1_1security_1_1bcrypt_1_1BCrypt_ae87809a1ce9c7483b50c133b5bab3b42.html#ae87809a1ce9c7483b50c133b5bab3b42" target="_top" xlink:title="Decode a string encoded using bcrypt&#39;s base64 scheme to a byte array. ">
<polygon fill="none" stroke="#000000" points="582,-164.5 582,-194.5 740,-194.5 740,-164.5 582,-164.5"/>
<text text-anchor="start" x="590" y="-182.5" font-family="Helvetica,sans-Serif" font-size="10.00" fill="#000000">org.cobbzilla.util.security.bcrypt.</text>
<text text-anchor="middle" x="661" y="-171.5" font-family="Helvetica,sans-Serif" font-size="10.00" fill="#000000">BCrypt.decode_base64</text>
</a>
</g>
</g>
<!-- Node5&#45;&gt;Node12 -->
<g id="edge15" class="edge">
<title>Node5&#45;&gt;Node12</title>
<path fill="none" stroke="#191970" d="M546.187,-179.5C554.5295,-179.5 563.054,-179.5 571.5021,-179.5"/>
<polygon fill="#191970" stroke="#191970" points="571.7518,-183.0001 581.7517,-179.5 571.7517,-176.0001 571.7518,-183.0001"/>
</g>
<!-- Node7 -->
<g id="node8" class="node">
<title>Node7</title>
<g id="a_node8"><a xlink:href="../../d9/db7/classorg_1_1cobbzilla_1_1util_1_1security_1_1bcrypt_1_1BCrypt_abe00a97f10b618ea0cd68c5dbb8e9d00.html#abe00a97f10b618ea0cd68c5dbb8e9d00" target="_top" xlink:title="Perform the &quot;enhanced key schedule&quot; step described by Provos and Mazieres in &quot;A Future&#45;Adaptable Pass...">
<polygon fill="none" stroke="#000000" points="776,-.5 776,-30.5 934,-30.5 934,-.5 776,-.5"/>
<text text-anchor="start" x="784" y="-18.5" font-family="Helvetica,sans-Serif" font-size="10.00" fill="#000000">org.cobbzilla.util.security.bcrypt.</text>
<text text-anchor="middle" x="855" y="-7.5" font-family="Helvetica,sans-Serif" font-size="10.00" fill="#000000">BCrypt.ekskey</text>
</a>
</g>
</g>
<!-- Node6&#45;&gt;Node7 -->
<g id="edge7" class="edge">
<title>Node6&#45;&gt;Node7</title>
<path fill="none" stroke="#191970" d="M682.601,-93.3282C705.0849,-78.0767 741.7364,-54.7059 776,-39.5 780.3564,-37.5667 784.9139,-35.7307 789.5466,-33.9994"/>
<polygon fill="#191970" stroke="#191970" points="790.872,-37.2429 799.1216,-30.595 788.5269,-30.6474 790.872,-37.2429"/>
</g>
<!-- Node8 -->
<g id="node9" class="node">
<title>Node8</title>
<g id="a_node9"><a xlink:href="../../d9/db7/classorg_1_1cobbzilla_1_1util_1_1security_1_1bcrypt_1_1BCrypt_aed58f4b8bc28d9969d417ad3d9e64e35.html#aed58f4b8bc28d9969d417ad3d9e64e35" target="_top" xlink:title="Blowfish encipher a single 64&#45;bit block encoded as two 32&#45;bit halves. ">
<polygon fill="none" stroke="#000000" points="970,-49.5 970,-79.5 1128,-79.5 1128,-49.5 970,-49.5"/>
<text text-anchor="start" x="978" y="-67.5" font-family="Helvetica,sans-Serif" font-size="10.00" fill="#000000">org.cobbzilla.util.security.bcrypt.</text>
<text text-anchor="middle" x="1049" y="-56.5" font-family="Helvetica,sans-Serif" font-size="10.00" fill="#000000">BCrypt.encipher</text>
</a>
</g>
</g>
<!-- Node6&#45;&gt;Node8 -->
<g id="edge10" class="edge">
<title>Node6&#45;&gt;Node8</title>
<path fill="none" stroke="#191970" d="M740.1411,-105.4792C794.7982,-102.7145 869.055,-97.6148 934,-88.5 947.1173,-86.659 960.9805,-84.2075 974.3669,-81.5737"/>
<polygon fill="#191970" stroke="#191970" points="975.3801,-84.9399 984.4903,-79.5312 973.9956,-78.0781 975.3801,-84.9399"/>
</g>
<!-- Node10 -->
<g id="node11" class="node">
<title>Node10</title>
<g id="a_node11"><a xlink:href="../../d9/db7/classorg_1_1cobbzilla_1_1util_1_1security_1_1bcrypt_1_1BCrypt_a35d6f4fb0839e3cb090f71f51bda834b.html#a35d6f4fb0839e3cb090f71f51bda834b" target="_top" xlink:title="Initialise the Blowfish key schedule. ">
<polygon fill="none" stroke="#000000" points="776,-137.5 776,-167.5 934,-167.5 934,-137.5 776,-137.5"/>
<text text-anchor="start" x="784" y="-155.5" font-family="Helvetica,sans-Serif" font-size="10.00" fill="#000000">org.cobbzilla.util.security.bcrypt.</text>
<text text-anchor="middle" x="855" y="-144.5" font-family="Helvetica,sans-Serif" font-size="10.00" fill="#000000">BCrypt.init_key</text>
</a>
</g>
</g>
<!-- Node6&#45;&gt;Node10 -->
<g id="edge11" class="edge">
<title>Node6&#45;&gt;Node10</title>
<path fill="none" stroke="#191970" d="M727.2212,-123.5192C743.8293,-127.286 761.7805,-131.3574 778.8304,-135.2244"/>
<polygon fill="#191970" stroke="#191970" points="778.2216,-138.6752 788.7481,-137.4738 779.77,-131.8485 778.2216,-138.6752"/>
</g>
<!-- Node11 -->
<g id="node12" class="node">
<title>Node11</title>
<g id="a_node12"><a xlink:href="../../d9/db7/classorg_1_1cobbzilla_1_1util_1_1security_1_1bcrypt_1_1BCrypt_a8ebb0a8bc8d36e78a9e0d8c955dd3ec0.html#a8ebb0a8bc8d36e78a9e0d8c955dd3ec0" target="_top" xlink:title="Key the Blowfish cipher. ">
<polygon fill="none" stroke="#000000" points="776,-49.5 776,-79.5 934,-79.5 934,-49.5 776,-49.5"/>
<text text-anchor="start" x="784" y="-67.5" font-family="Helvetica,sans-Serif" font-size="10.00" fill="#000000">org.cobbzilla.util.security.bcrypt.</text>
<text text-anchor="middle" x="855" y="-56.5" font-family="Helvetica,sans-Serif" font-size="10.00" fill="#000000">BCrypt.key</text>
</a>
</g>
</g>
<!-- Node6&#45;&gt;Node11 -->
<g id="edge12" class="edge">
<title>Node6&#45;&gt;Node11</title>
<path fill="none" stroke="#191970" d="M727.2212,-93.4808C743.8293,-89.714 761.7805,-85.6426 778.8304,-81.7756"/>
<polygon fill="#191970" stroke="#191970" points="779.77,-85.1515 788.7481,-79.5262 778.2216,-78.3248 779.77,-85.1515"/>
</g>
<!-- Node7&#45;&gt;Node8 -->
<g id="edge8" class="edge">
<title>Node7&#45;&gt;Node8</title>
<path fill="none" stroke="#191970" d="M914.5248,-30.5346C935.1016,-35.7318 958.3371,-41.6006 979.6336,-46.9796"/>
<polygon fill="#191970" stroke="#191970" points="979.0351,-50.4383 989.5878,-49.4938 980.7494,-43.6514 979.0351,-50.4383"/>
</g>
<!-- Node9 -->
<g id="node10" class="node">
<title>Node9</title>
<g id="a_node10"><a xlink:href="../../d9/db7/classorg_1_1cobbzilla_1_1util_1_1security_1_1bcrypt_1_1BCrypt_a4006dd6eb953c3636fff5d818987ce99.html#a4006dd6eb953c3636fff5d818987ce99" target="_top" xlink:title="Cycically extract a word of key material. ">
<polygon fill="none" stroke="#000000" points="970,-.5 970,-30.5 1128,-30.5 1128,-.5 970,-.5"/>
<text text-anchor="start" x="978" y="-18.5" font-family="Helvetica,sans-Serif" font-size="10.00" fill="#000000">org.cobbzilla.util.security.bcrypt.</text>
<text text-anchor="middle" x="1049" y="-7.5" font-family="Helvetica,sans-Serif" font-size="10.00" fill="#000000">BCrypt.streamtoword</text>
</a>
</g>
</g>
<!-- Node7&#45;&gt;Node9 -->
<g id="edge9" class="edge">
<title>Node7&#45;&gt;Node9</title>
<path fill="none" stroke="#191970" d="M934.187,-15.5C942.5295,-15.5 951.054,-15.5 959.5021,-15.5"/>
<polygon fill="#191970" stroke="#191970" points="959.7518,-19.0001 969.7517,-15.5 959.7517,-12.0001 959.7518,-19.0001"/>
</g>
<!-- Node11&#45;&gt;Node8 -->
<g id="edge13" class="edge">
<title>Node11&#45;&gt;Node8</title>
<path fill="none" stroke="#191970" d="M934.187,-64.5C942.5295,-64.5 951.054,-64.5 959.5021,-64.5"/>
<polygon fill="#191970" stroke="#191970" points="959.7518,-68.0001 969.7517,-64.5 959.7517,-61.0001 959.7518,-68.0001"/>
</g>
<!-- Node11&#45;&gt;Node9 -->
<g id="edge14" class="edge">
<title>Node11&#45;&gt;Node9</title>
<path fill="none" stroke="#191970" d="M914.5248,-49.4654C935.1016,-44.2682 958.3371,-38.3994 979.6336,-33.0204"/>
<polygon fill="#191970" stroke="#191970" points="980.7494,-36.3486 989.5878,-30.5062 979.0351,-29.5617 980.7494,-36.3486"/>
</g>
<!-- Node13 -->
<g id="node14" class="node">
<title>Node13</title>
<g id="a_node14"><a xlink:href="../../d9/db7/classorg_1_1cobbzilla_1_1util_1_1security_1_1bcrypt_1_1BCrypt_aff2db1112971f3411b0baaf1243c1428.html#aff2db1112971f3411b0baaf1243c1428" target="_top" xlink:title="Look up the 3 bits base64&#45;encoded by the specified character, range&#45;checking againt conversion table...">
<polygon fill="none" stroke="#000000" points="776,-186.5 776,-216.5 934,-216.5 934,-186.5 776,-186.5"/>
<text text-anchor="start" x="784" y="-204.5" font-family="Helvetica,sans-Serif" font-size="10.00" fill="#000000">org.cobbzilla.util.security.bcrypt.</text>
<text text-anchor="middle" x="855" y="-193.5" font-family="Helvetica,sans-Serif" font-size="10.00" fill="#000000">BCrypt.char64</text>
</a>
</g>
</g>
<!-- Node12&#45;&gt;Node13 -->
<g id="edge16" class="edge">
<title>Node12&#45;&gt;Node13</title>
<path fill="none" stroke="#191970" d="M740.187,-188.48C748.6212,-189.4364 757.2413,-190.414 765.7806,-191.3823"/>
<polygon fill="#191970" stroke="#191970" points="765.421,-194.8639 775.7517,-192.5131 766.2098,-187.9085 765.421,-194.8639"/>
</g>
</g>
</svg>
