<?xml version="1.0" encoding="UTF-8" standalone="no"?>
<!DOCTYPE svg PUBLIC "-//W3C//DTD SVG 1.1//EN"
 "http://www.w3.org/Graphics/SVG/1.1/DTD/svg11.dtd">
<!-- Generated by graphviz version 2.40.1 (20161225.0304)
 -->
<!-- Title: org.cobbzilla.util.system.Sleep.sleep Pages: 1 -->
<svg width="337pt" height="198pt"
 viewBox="0.00 0.00 337.00 198.00" xmlns="http://www.w3.org/2000/svg" xmlns:xlink="http://www.w3.org/1999/xlink">
<g id="graph0" class="graph" transform="scale(1 1) rotate(0) translate(4 194)">
<title>org.cobbzilla.util.system.Sleep.sleep</title>
<!-- Node1 -->
<g id="node1" class="node">
<title>Node1</title>
<polygon fill="#bfbfbf" stroke="#000000" points="0,-76.5 0,-106.5 125,-106.5 125,-76.5 0,-76.5"/>
<text text-anchor="start" x="8" y="-94.5" font-family="Helvetica,sans-Serif" font-size="10.00" fill="#000000">org.cobbzilla.util.system.</text>
<text text-anchor="middle" x="62.5" y="-83.5" font-family="Helvetica,sans-Serif" font-size="10.00" fill="#000000">Sleep.sleep</text>
</g>
<!-- Node1&#45;&gt;Node1 -->
<g id="edge5" class="edge">
<title>Node1&#45;&gt;Node1</title>
<path fill="none" stroke="#191970" d="M30.1608,-116.9579C34.1746,-121.679 44.9543,-125 62.5,-125 91.293,-125 101.8654,-116.0566 94.2173,-106.659"/>
<polygon fill="#191970" stroke="#191970" points="33.6735,-116.8518 30.7827,-106.659 26.6862,-116.4298 33.6735,-116.8518"/>
</g>
<!-- Node2 -->
<g id="node2" class="node">
<title>Node2</title>
<g id="a_node2"><a xlink:href="../../d9/d6b/classorg_1_1cobbzilla_1_1util_1_1http_1_1HttpUtil_a502dd28985cc1bb9d1ed81f8bf88a057.html#a502dd28985cc1bb9d1ed81f8bf88a057" target="_top" xlink:title="org.cobbzilla.util.http.\lHttpUtil.isOk">
<polygon fill="none" stroke="#000000" points="190,-159.5 190,-189.5 300,-189.5 300,-159.5 190,-159.5"/>
<text text-anchor="start" x="198" y="-177.5" font-family="Helvetica,sans-Serif" font-size="10.00" fill="#000000">org.cobbzilla.util.http.</text>
<text text-anchor="middle" x="245" y="-166.5" font-family="Helvetica,sans-Serif" font-size="10.00" fill="#000000">HttpUtil.isOk</text>
</a>
</g>
</g>
<!-- Node1&#45;&gt;Node2 -->
<g id="edge1" class="edge">
<title>Node1&#45;&gt;Node2</title>
<path fill="none" stroke="#191970" d="M93.2511,-112.2355C112.1791,-124.3227 137.2823,-139.1713 161,-149.5 170.0676,-153.4488 179.9458,-157.0041 189.6386,-160.1111"/>
<polygon fill="#191970" stroke="#191970" points="95.0484,-109.2296 84.7528,-106.7294 91.2421,-115.1044 95.0484,-109.2296"/>
</g>
<!-- Node3 -->
<g id="node3" class="node">
<title>Node3</title>
<g id="a_node3"><a xlink:href="../../d7/d7d/classorg_1_1cobbzilla_1_1util_1_1cache_1_1BackgroundRefreshingReference_1_1Refresher_abad21c21177f3668f6ed482f29bec688.html#abad21c21177f3668f6ed482f29bec688" target="_top" xlink:title="org.cobbzilla.util.cache.\lBackgroundRefreshingReference.\lRefresher.run">
<polygon fill="none" stroke="#000000" points="163,-99 163,-140 327,-140 327,-99 163,-99"/>
<text text-anchor="start" x="171" y="-128" font-family="Helvetica,sans-Serif" font-size="10.00" fill="#000000">org.cobbzilla.util.cache.</text>
<text text-anchor="start" x="171" y="-117" font-family="Helvetica,sans-Serif" font-size="10.00" fill="#000000">BackgroundRefreshingReference.</text>
<text text-anchor="middle" x="245" y="-106" font-family="Helvetica,sans-Serif" font-size="10.00" fill="#000000">Refresher.run</text>
</a>
</g>
</g>
<!-- Node1&#45;&gt;Node3 -->
<g id="edge2" class="edge">
<title>Node1&#45;&gt;Node3</title>
<path fill="none" stroke="#191970" d="M135.1885,-102.6522C144.2824,-104.0474 153.633,-105.4821 162.8582,-106.8974"/>
<polygon fill="#191970" stroke="#191970" points="135.466,-99.1539 125.0508,-101.0968 134.4044,-106.0729 135.466,-99.1539"/>
</g>
<!-- Node4 -->
<g id="node4" class="node">
<title>Node4</title>
<g id="a_node4"><a xlink:href="../../d3/d80/classorg_1_1cobbzilla_1_1util_1_1io_1_1BufferedFilesystemWatcher_1_1BfsMonitor_af01c3e7a150892abe57d1a4e04548c13.html#af01c3e7a150892abe57d1a4e04548c13" target="_top" xlink:title="org.cobbzilla.util.io.Buffered\lFilesystemWatcher.BfsMonitor.run">
<polygon fill="none" stroke="#000000" points="161,-49.5 161,-79.5 329,-79.5 329,-49.5 161,-49.5"/>
<text text-anchor="start" x="169" y="-67.5" font-family="Helvetica,sans-Serif" font-size="10.00" fill="#000000">org.cobbzilla.util.io.Buffered</text>
<text text-anchor="middle" x="245" y="-56.5" font-family="Helvetica,sans-Serif" font-size="10.00" fill="#000000">FilesystemWatcher.BfsMonitor.run</text>
</a>
</g>
</g>
<!-- Node1&#45;&gt;Node4 -->
<g id="edge3" class="edge">
<title>Node1&#45;&gt;Node4</title>
<path fill="none" stroke="#191970" d="M134.945,-80.7821C143.4793,-79.5195 152.243,-78.223 160.9197,-76.9393"/>
<polygon fill="#191970" stroke="#191970" points="134.4309,-77.32 125.0508,-82.2459 135.4554,-84.2446 134.4309,-77.32"/>
</g>
<!-- Node5 -->
<g id="node5" class="node">
<title>Node5</title>
<g id="a_node5"><a xlink:href="../../d3/d98/classorg_1_1cobbzilla_1_1util_1_1io_1_1FilesystemWatcher_ab69f6b1a34e768f3b30e5d63016bb59c.html#ab69f6b1a34e768f3b30e5d63016bb59c" target="_top" xlink:title="org.cobbzilla.util.io.Filesystem\lWatcher.run">
<polygon fill="none" stroke="#000000" points="170.5,-.5 170.5,-30.5 319.5,-30.5 319.5,-.5 170.5,-.5"/>
<text text-anchor="start" x="178.5" y="-18.5" font-family="Helvetica,sans-Serif" font-size="10.00" fill="#000000">org.cobbzilla.util.io.Filesystem</text>
<text text-anchor="middle" x="245" y="-7.5" font-family="Helvetica,sans-Serif" font-size="10.00" fill="#000000">Watcher.run</text>
</a>
</g>
</g>
<!-- Node1&#45;&gt;Node5 -->
<g id="edge4" class="edge">
<title>Node1&#45;&gt;Node5</title>
<path fill="none" stroke="#191970" d="M97.1514,-71.5169C115.6941,-61.3509 139.1539,-49.3148 161,-40.5 169.8894,-36.9132 179.4908,-33.5777 188.9153,-30.5871"/>
<polygon fill="#191970" stroke="#191970" points="95.2487,-68.57 88.2056,-76.4848 98.6472,-74.6897 95.2487,-68.57"/>
</g>
</g>
</svg>
