<?xml version="1.0" encoding="UTF-8" standalone="no"?>
<!DOCTYPE svg PUBLIC "-//W3C//DTD SVG 1.1//EN"
 "http://www.w3.org/Graphics/SVG/1.1/DTD/svg11.dtd">
<!-- Generated by graphviz version 2.40.1 (20161225.0304)
 -->
<!-- Title: org.cobbzilla.util.http.HttpContentTypes Pages: 1 -->
<svg width="457pt" height="639pt"
 viewBox="0.00 0.00 457.00 639.00" xmlns="http://www.w3.org/2000/svg" xmlns:xlink="http://www.w3.org/1999/xlink">
<g id="graph0" class="graph" transform="scale(1 1) rotate(0) translate(4 635)">
<title>org.cobbzilla.util.http.HttpContentTypes</title>
<!-- Node1 -->
<g id="node1" class="node">
<title>Node1</title>
<polygon fill="#bfbfbf" stroke="#000000" points="98.5,-.5 98.5,-277.5 277.5,-277.5 277.5,-.5 98.5,-.5"/>
<text text-anchor="start" x="106.5" y="-265.5" font-family="Helvetica,sans-Serif" font-size="10.00" fill="#000000">org.cobbzilla.util.http.</text>
<text text-anchor="middle" x="188" y="-254.5" font-family="Helvetica,sans-Serif" font-size="10.00" fill="#000000">HttpContentTypes</text>
<polyline fill="none" stroke="#000000" points="98.5,-247.5 277.5,-247.5 "/>
<text text-anchor="start" x="106.5" y="-235.5" font-family="Helvetica,sans-Serif" font-size="10.00" fill="#000000">+ TEXT_HTML</text>
<text text-anchor="start" x="106.5" y="-224.5" font-family="Helvetica,sans-Serif" font-size="10.00" fill="#000000">+ TEXT_PLAIN</text>
<text text-anchor="start" x="106.5" y="-213.5" font-family="Helvetica,sans-Serif" font-size="10.00" fill="#000000">+ TEXT_CSV</text>
<text text-anchor="start" x="106.5" y="-202.5" font-family="Helvetica,sans-Serif" font-size="10.00" fill="#000000">+ APPLICATION_JSON</text>
<text text-anchor="start" x="106.5" y="-191.5" font-family="Helvetica,sans-Serif" font-size="10.00" fill="#000000">+ APPLICATION_XML</text>
<text text-anchor="start" x="106.5" y="-180.5" font-family="Helvetica,sans-Serif" font-size="10.00" fill="#000000">+ APPLICATION_PDF</text>
<text text-anchor="start" x="106.5" y="-169.5" font-family="Helvetica,sans-Serif" font-size="10.00" fill="#000000">+ IMAGE_PNG</text>
<text text-anchor="start" x="106.5" y="-158.5" font-family="Helvetica,sans-Serif" font-size="10.00" fill="#000000">+ IMAGE_JPEG</text>
<text text-anchor="start" x="106.5" y="-147.5" font-family="Helvetica,sans-Serif" font-size="10.00" fill="#000000">+ IMAGE_GIF</text>
<text text-anchor="start" x="106.5" y="-136.5" font-family="Helvetica,sans-Serif" font-size="10.00" fill="#000000">+ APPLICATION_OCTET_STREAM</text>
<text text-anchor="start" x="106.5" y="-125.5" font-family="Helvetica,sans-Serif" font-size="10.00" fill="#000000">+ UNKNOWN</text>
<text text-anchor="start" x="106.5" y="-114.5" font-family="Helvetica,sans-Serif" font-size="10.00" fill="#000000">+ APPLICATION_ZIP</text>
<text text-anchor="start" x="106.5" y="-103.5" font-family="Helvetica,sans-Serif" font-size="10.00" fill="#000000">+ APPLICATION_JAR</text>
<text text-anchor="start" x="106.5" y="-92.5" font-family="Helvetica,sans-Serif" font-size="10.00" fill="#000000">+ APPLICATION_GZIP</text>
<polyline fill="none" stroke="#000000" points="98.5,-85.5 277.5,-85.5 "/>
<text text-anchor="start" x="106.5" y="-73.5" font-family="Helvetica,sans-Serif" font-size="10.00" fill="#000000">+ contentType()</text>
<text text-anchor="start" x="106.5" y="-62.5" font-family="Helvetica,sans-Serif" font-size="10.00" fill="#000000">+ fileExt()</text>
<text text-anchor="start" x="106.5" y="-51.5" font-family="Helvetica,sans-Serif" font-size="10.00" fill="#000000">+ fileExtNoDot()</text>
<text text-anchor="start" x="106.5" y="-40.5" font-family="Helvetica,sans-Serif" font-size="10.00" fill="#000000">+ escape()</text>
<text text-anchor="start" x="106.5" y="-29.5" font-family="Helvetica,sans-Serif" font-size="10.00" fill="#000000">+ unescape()</text>
<text text-anchor="start" x="106.5" y="-18.5" font-family="Helvetica,sans-Serif" font-size="10.00" fill="#000000">+ multipartWithBoundary()</text>
<text text-anchor="start" x="106.5" y="-7.5" font-family="Helvetica,sans-Serif" font-size="10.00" fill="#000000">&#45; nvHttp()</text>
</g>
<!-- Node2 -->
<g id="node2" class="node">
<title>Node2</title>
<polygon fill="none" stroke="#bfbfbf" points="0,-391.5 0,-459.5 194,-459.5 194,-391.5 0,-391.5"/>
<text text-anchor="start" x="8" y="-447.5" font-family="Helvetica,sans-Serif" font-size="10.00" fill="#000000">Map&lt; String, org.cobbzilla.util.collection.</text>
<text text-anchor="middle" x="97" y="-436.5" font-family="Helvetica,sans-Serif" font-size="10.00" fill="#000000">NameAndValue[]&gt;</text>
<polyline fill="none" stroke="#bfbfbf" points="0,-429.5 194,-429.5 "/>
<text text-anchor="middle" x="97" y="-417.5" font-family="Helvetica,sans-Serif" font-size="10.00" fill="#000000"> </text>
<polyline fill="none" stroke="#bfbfbf" points="0,-410.5 194,-410.5 "/>
<text text-anchor="middle" x="97" y="-398.5" font-family="Helvetica,sans-Serif" font-size="10.00" fill="#000000"> </text>
</g>
<!-- Node2&#45;&gt;Node1 -->
<g id="edge1" class="edge">
<title>Node2&#45;&gt;Node1</title>
<path fill="none" stroke="#404040" d="M101.2171,-391.4747C104.9879,-365.0694 111.4144,-327.7391 121,-296 121.6908,-293.7127 122.4045,-291.4138 123.1391,-289.1062"/>
<polygon fill="none" stroke="#404040" points="123.2063,-288.9027 121.2933,-281.95 126.9754,-277.51 128.8884,-284.4627 123.2063,-288.9027"/>
<text text-anchor="middle" x="185" y="-304.5" font-family="Helvetica,sans-Serif" font-size="10.00" fill="#000000"> +HTTP_CONTENT_TYPES</text>
</g>
<!-- Node3 -->
<g id="node3" class="node">
<title>Node3</title>
<polygon fill="none" stroke="#bfbfbf" points="79.5,-573.5 79.5,-630.5 114.5,-630.5 114.5,-573.5 79.5,-573.5"/>
<text text-anchor="middle" x="97" y="-618.5" font-family="Helvetica,sans-Serif" font-size="10.00" fill="#000000">Map</text>
<polyline fill="none" stroke="#bfbfbf" points="79.5,-611.5 114.5,-611.5 "/>
<text text-anchor="middle" x="97" y="-599.5" font-family="Helvetica,sans-Serif" font-size="10.00" fill="#000000"> </text>
<polyline fill="none" stroke="#bfbfbf" points="79.5,-592.5 114.5,-592.5 "/>
<text text-anchor="middle" x="97" y="-580.5" font-family="Helvetica,sans-Serif" font-size="10.00" fill="#000000"> </text>
</g>
<!-- Node3&#45;&gt;Node2 -->
<g id="edge2" class="edge">
<title>Node3&#45;&gt;Node2</title>
<path fill="none" stroke="#ffa500" d="M97,-562.8474C97,-531.9337 97,-489.2303 97,-459.683"/>
<polygon fill="#ffa500" stroke="#ffa500" points="93.5001,-563.2494 97,-573.2494 100.5001,-563.2494 93.5001,-563.2494"/>
<text text-anchor="start" x="97" y="-547" font-family="Helvetica,sans-Serif" font-size="10.00" fill="#000000"> &lt; String, org::cobbzilla</text>
<text text-anchor="middle" x="173.5" y="-536" font-family="Helvetica,sans-Serif" font-size="10.00" fill="#000000">::util::collection::NameAndValue[]&gt;</text>
</g>
<!-- Node4 -->
<g id="node4" class="node">
<title>Node4</title>
<g id="a_node4"><a xlink:href="../../d4/d69/classorg_1_1cobbzilla_1_1util_1_1collection_1_1NameAndValue.html" target="_top" xlink:title="{org.cobbzilla.util.collection.\lNameAndValue\n|&#45; name\l&#45; value\l|+ hasName()\l+ getHasName()\l+ hasValue()\l+ getHasValue()\l+ toString()\l+ map2list()\l+ find()\l+ evaluate()\l+ evaluate()\l+ toMap()\l}">
<polygon fill="none" stroke="#000000" points="212,-336.5 212,-514.5 346,-514.5 346,-336.5 212,-336.5"/>
<text text-anchor="start" x="220" y="-502.5" font-family="Helvetica,sans-Serif" font-size="10.00" fill="#000000">org.cobbzilla.util.collection.</text>
<text text-anchor="middle" x="279" y="-491.5" font-family="Helvetica,sans-Serif" font-size="10.00" fill="#000000">NameAndValue</text>
<polyline fill="none" stroke="#000000" points="212,-484.5 346,-484.5 "/>
<text text-anchor="start" x="220" y="-472.5" font-family="Helvetica,sans-Serif" font-size="10.00" fill="#000000">&#45; name</text>
<text text-anchor="start" x="220" y="-461.5" font-family="Helvetica,sans-Serif" font-size="10.00" fill="#000000">&#45; value</text>
<polyline fill="none" stroke="#000000" points="212,-454.5 346,-454.5 "/>
<text text-anchor="start" x="220" y="-442.5" font-family="Helvetica,sans-Serif" font-size="10.00" fill="#000000">+ hasName()</text>
<text text-anchor="start" x="220" y="-431.5" font-family="Helvetica,sans-Serif" font-size="10.00" fill="#000000">+ getHasName()</text>
<text text-anchor="start" x="220" y="-420.5" font-family="Helvetica,sans-Serif" font-size="10.00" fill="#000000">+ hasValue()</text>
<text text-anchor="start" x="220" y="-409.5" font-family="Helvetica,sans-Serif" font-size="10.00" fill="#000000">+ getHasValue()</text>
<text text-anchor="start" x="220" y="-398.5" font-family="Helvetica,sans-Serif" font-size="10.00" fill="#000000">+ toString()</text>
<text text-anchor="start" x="220" y="-387.5" font-family="Helvetica,sans-Serif" font-size="10.00" fill="#000000">+ map2list()</text>
<text text-anchor="start" x="220" y="-376.5" font-family="Helvetica,sans-Serif" font-size="10.00" fill="#000000">+ find()</text>
<text text-anchor="start" x="220" y="-365.5" font-family="Helvetica,sans-Serif" font-size="10.00" fill="#000000">+ evaluate()</text>
<text text-anchor="start" x="220" y="-354.5" font-family="Helvetica,sans-Serif" font-size="10.00" fill="#000000">+ evaluate()</text>
<text text-anchor="start" x="220" y="-343.5" font-family="Helvetica,sans-Serif" font-size="10.00" fill="#000000">+ toMap()</text>
</a>
</g>
</g>
<!-- Node4&#45;&gt;Node1 -->
<g id="edge3" class="edge">
<title>Node4&#45;&gt;Node1</title>
<path fill="none" stroke="#404040" d="M260.0873,-336.2325C256.705,-322.6686 252.9783,-308.9012 249,-296 248.3053,-293.747 247.5938,-291.4803 246.8673,-289.2028"/>
<polygon fill="none" stroke="#404040" points="246.8488,-289.1459 241.1816,-284.6868 243.118,-277.7405 248.7851,-282.1996 246.8488,-289.1459"/>
<text text-anchor="middle" x="299" y="-310" font-family="Helvetica,sans-Serif" font-size="10.00" fill="#000000"> +NV_HTTP_JSON</text>
<text text-anchor="middle" x="299" y="-299" font-family="Helvetica,sans-Serif" font-size="10.00" fill="#000000">+NV_HTTP_XML</text>
</g>
<!-- Node4&#45;&gt;Node4 -->
<g id="edge4" class="edge">
<title>Node4&#45;&gt;Node4</title>
<path fill="none" stroke="#404040" d="M346.337,-445.7763C356.8397,-442.7451 364,-435.9863 364,-425.5 364,-419.2737 361.4757,-414.3616 357.2263,-410.7636"/>
<polygon fill="none" stroke="#404040" points="357.0325,-410.665 349.871,-411.5095 346.337,-405.2237 353.4985,-404.3792 357.0325,-410.665"/>
<text text-anchor="middle" x="406.5" y="-423" font-family="Helvetica,sans-Serif" font-size="10.00" fill="#000000"> +EMPTY_ARRAY</text>
</g>
</g>
</svg>
