<?xml version="1.0" encoding="UTF-8" standalone="no"?>
<!DOCTYPE svg PUBLIC "-//W3C//DTD SVG 1.1//EN"
 "http://www.w3.org/Graphics/SVG/1.1/DTD/svg11.dtd">
<!-- Generated by graphviz version 2.40.1 (20161225.0304)
 -->
<!-- Title: org.cobbzilla.util.cron.CronCommandBase Pages: 1 -->
<svg width="200pt" height="204pt"
 viewBox="0.00 0.00 199.50 204.00" xmlns="http://www.w3.org/2000/svg" xmlns:xlink="http://www.w3.org/1999/xlink">
<g id="graph0" class="graph" transform="scale(1 1) rotate(0) translate(4 200)">
<title>org.cobbzilla.util.cron.CronCommandBase</title>
<!-- Node2 -->
<g id="node1" class="node">
<title>Node2</title>
<polygon fill="#bfbfbf" stroke="#000000" points="52,-.5 52,-68.5 164,-68.5 164,-.5 52,-.5"/>
<text text-anchor="start" x="60" y="-56.5" font-family="Helvetica,sans-Serif" font-size="10.00" fill="#000000">org.cobbzilla.util.cron.</text>
<text text-anchor="middle" x="108" y="-45.5" font-family="Helvetica,sans-Serif" font-size="10.00" fill="#000000">CronCommandBase</text>
<polyline fill="none" stroke="#000000" points="52,-38.5 164,-38.5 "/>
<text text-anchor="middle" x="108" y="-26.5" font-family="Helvetica,sans-Serif" font-size="10.00" fill="#000000"> </text>
<polyline fill="none" stroke="#000000" points="52,-19.5 164,-19.5 "/>
<text text-anchor="start" x="60" y="-7.5" font-family="Helvetica,sans-Serif" font-size="10.00" fill="#000000">+ init()</text>
</g>
<!-- Node3 -->
<g id="node2" class="node">
<title>Node3</title>
<g id="a_node2"><a xlink:href="../../db/d63/interfaceorg_1_1cobbzilla_1_1util_1_1cron_1_1CronCommand.html" target="_top" xlink:title="{org.cobbzilla.util.cron.\lCronCommand\n||+ init()\l+ exec()\l}">
<polygon fill="none" stroke="#000000" points="0,-116.5 0,-195.5 112,-195.5 112,-116.5 0,-116.5"/>
<text text-anchor="start" x="8" y="-183.5" font-family="Helvetica,sans-Serif" font-size="10.00" fill="#000000">org.cobbzilla.util.cron.</text>
<text text-anchor="middle" x="56" y="-172.5" font-family="Helvetica,sans-Serif" font-size="10.00" fill="#000000">CronCommand</text>
<polyline fill="none" stroke="#000000" points="0,-165.5 112,-165.5 "/>
<text text-anchor="middle" x="56" y="-153.5" font-family="Helvetica,sans-Serif" font-size="10.00" fill="#000000"> </text>
<polyline fill="none" stroke="#000000" points="0,-146.5 112,-146.5 "/>
<text text-anchor="start" x="8" y="-134.5" font-family="Helvetica,sans-Serif" font-size="10.00" fill="#000000">+ init()</text>
<text text-anchor="start" x="8" y="-123.5" font-family="Helvetica,sans-Serif" font-size="10.00" fill="#000000">+ exec()</text>
</a>
</g>
</g>
<!-- Node3&#45;&gt;Node2 -->
<g id="edge1" class="edge">
<title>Node3&#45;&gt;Node2</title>
<path fill="none" stroke="#191970" d="M76.9647,-107.0152C82.4692,-94.1538 88.2867,-80.5608 93.3789,-68.6628"/>
<polygon fill="none" stroke="#191970" points="73.7437,-105.6458 73.0267,-116.2164 80.1791,-108.4001 73.7437,-105.6458"/>
</g>
<!-- Node4 -->
<g id="node3" class="node">
<title>Node4</title>
<polygon fill="none" stroke="#bfbfbf" points="130.5,-127.5 130.5,-184.5 191.5,-184.5 191.5,-127.5 130.5,-127.5"/>
<text text-anchor="middle" x="161" y="-172.5" font-family="Helvetica,sans-Serif" font-size="10.00" fill="#000000">Properties</text>
<polyline fill="none" stroke="#bfbfbf" points="130.5,-165.5 191.5,-165.5 "/>
<text text-anchor="middle" x="161" y="-153.5" font-family="Helvetica,sans-Serif" font-size="10.00" fill="#000000"> </text>
<polyline fill="none" stroke="#bfbfbf" points="130.5,-146.5 191.5,-146.5 "/>
<text text-anchor="middle" x="161" y="-134.5" font-family="Helvetica,sans-Serif" font-size="10.00" fill="#000000"> </text>
</g>
<!-- Node4&#45;&gt;Node2 -->
<g id="edge2" class="edge">
<title>Node4&#45;&gt;Node2</title>
<path fill="none" stroke="#404040" d="M148.4397,-127.2062C142.2817,-113.0891 134.7196,-95.7535 127.8076,-79.908"/>
<polygon fill="none" stroke="#404040" points="127.7169,-79.6998 121.6515,-75.7996 122.9188,-68.7007 128.9842,-72.6009 127.7169,-79.6998"/>
<text text-anchor="middle" x="160" y="-90" font-family="Helvetica,sans-Serif" font-size="10.00" fill="#000000"> #properties</text>
</g>
</g>
</svg>
