<?xml version="1.0" encoding="UTF-8" standalone="no"?>
<!DOCTYPE svg PUBLIC "-//W3C//DTD SVG 1.1//EN"
 "http://www.w3.org/Graphics/SVG/1.1/DTD/svg11.dtd">
<!-- Generated by graphviz version 2.40.1 (20161225.0304)
 -->
<!-- Title: org.cobbzilla.util.system.Command Pages: 1 -->
<svg width="569pt" height="441pt"
 viewBox="0.00 0.00 569.00 441.00" xmlns="http://www.w3.org/2000/svg" xmlns:xlink="http://www.w3.org/1999/xlink">
<g id="graph0" class="graph" transform="scale(1 1) rotate(0) translate(4 437)">
<title>org.cobbzilla.util.system.Command</title>
<!-- Node1 -->
<g id="node1" class="node">
<title>Node1</title>
<polygon fill="#bfbfbf" stroke="#000000" points="178,-.5 178,-211.5 344,-211.5 344,-.5 178,-.5"/>
<text text-anchor="start" x="186" y="-199.5" font-family="Helvetica,sans-Serif" font-size="10.00" fill="#000000">org.cobbzilla.util.system.</text>
<text text-anchor="middle" x="261" y="-188.5" font-family="Helvetica,sans-Serif" font-size="10.00" fill="#000000">Command</text>
<polyline fill="none" stroke="#000000" points="178,-181.5 344,-181.5 "/>
<text text-anchor="start" x="186" y="-169.5" font-family="Helvetica,sans-Serif" font-size="10.00" fill="#000000">+ DEFAULT_EXIT_VALUES_INT</text>
<text text-anchor="start" x="186" y="-158.5" font-family="Helvetica,sans-Serif" font-size="10.00" fill="#000000">&#45; input</text>
<text text-anchor="start" x="186" y="-147.5" font-family="Helvetica,sans-Serif" font-size="10.00" fill="#000000">&#45; rawInput</text>
<text text-anchor="start" x="186" y="-136.5" font-family="Helvetica,sans-Serif" font-size="10.00" fill="#000000">&#45; copyToStandard</text>
<polyline fill="none" stroke="#000000" points="178,-129.5 344,-129.5 "/>
<text text-anchor="start" x="186" y="-117.5" font-family="Helvetica,sans-Serif" font-size="10.00" fill="#000000">+ hasOut()</text>
<text text-anchor="start" x="186" y="-106.5" font-family="Helvetica,sans-Serif" font-size="10.00" fill="#000000">+ hasErr()</text>
<text text-anchor="start" x="186" y="-95.5" font-family="Helvetica,sans-Serif" font-size="10.00" fill="#000000">+ Command()</text>
<text text-anchor="start" x="186" y="-84.5" font-family="Helvetica,sans-Serif" font-size="10.00" fill="#000000">+ Command()</text>
<text text-anchor="start" x="186" y="-73.5" font-family="Helvetica,sans-Serif" font-size="10.00" fill="#000000">+ Command()</text>
<text text-anchor="start" x="186" y="-62.5" font-family="Helvetica,sans-Serif" font-size="10.00" fill="#000000">+ hasDir()</text>
<text text-anchor="start" x="186" y="-51.5" font-family="Helvetica,sans-Serif" font-size="10.00" fill="#000000">+ hasInput()</text>
<text text-anchor="start" x="186" y="-40.5" font-family="Helvetica,sans-Serif" font-size="10.00" fill="#000000">+ getInputStream()</text>
<text text-anchor="start" x="186" y="-29.5" font-family="Helvetica,sans-Serif" font-size="10.00" fill="#000000">+ getExitValues()</text>
<text text-anchor="start" x="186" y="-18.5" font-family="Helvetica,sans-Serif" font-size="10.00" fill="#000000">+ setExitValues()</text>
<text text-anchor="start" x="186" y="-7.5" font-family="Helvetica,sans-Serif" font-size="10.00" fill="#000000">+ setExitValues()</text>
</g>
<!-- Node2 -->
<g id="node2" class="node">
<title>Node2</title>
<polygon fill="none" stroke="#bfbfbf" points="0,-270.5 0,-327.5 80,-327.5 80,-270.5 0,-270.5"/>
<text text-anchor="middle" x="40" y="-315.5" font-family="Helvetica,sans-Serif" font-size="10.00" fill="#000000">CommandLine</text>
<polyline fill="none" stroke="#bfbfbf" points="0,-308.5 80,-308.5 "/>
<text text-anchor="middle" x="40" y="-296.5" font-family="Helvetica,sans-Serif" font-size="10.00" fill="#000000"> </text>
<polyline fill="none" stroke="#bfbfbf" points="0,-289.5 80,-289.5 "/>
<text text-anchor="middle" x="40" y="-277.5" font-family="Helvetica,sans-Serif" font-size="10.00" fill="#000000"> </text>
</g>
<!-- Node2&#45;&gt;Node1 -->
<g id="edge1" class="edge">
<title>Node2&#45;&gt;Node1</title>
<path fill="none" stroke="#404040" d="M61.3498,-270.172C71.5057,-257.2757 84.2081,-242.2527 97,-230 118.7497,-209.1671 143.9777,-188.5968 168.0285,-170.379"/>
<polygon fill="none" stroke="#404040" points="168.2875,-170.1849 170.6901,-163.3858 177.8902,-162.9884 175.4877,-169.7876 168.2875,-170.1849"/>
<text text-anchor="middle" x="130.5" y="-238.5" font-family="Helvetica,sans-Serif" font-size="10.00" fill="#000000"> &#45;commandLine</text>
</g>
<!-- Node3 -->
<g id="node3" class="node">
<title>Node3</title>
<polygon fill="none" stroke="#bfbfbf" points="98,-270.5 98,-327.5 168,-327.5 168,-270.5 98,-270.5"/>
<text text-anchor="middle" x="133" y="-315.5" font-family="Helvetica,sans-Serif" font-size="10.00" fill="#000000">InputStream</text>
<polyline fill="none" stroke="#bfbfbf" points="98,-308.5 168,-308.5 "/>
<text text-anchor="middle" x="133" y="-296.5" font-family="Helvetica,sans-Serif" font-size="10.00" fill="#000000"> </text>
<polyline fill="none" stroke="#bfbfbf" points="98,-289.5 168,-289.5 "/>
<text text-anchor="middle" x="133" y="-277.5" font-family="Helvetica,sans-Serif" font-size="10.00" fill="#000000"> </text>
</g>
<!-- Node3&#45;&gt;Node1 -->
<g id="edge2" class="edge">
<title>Node3&#45;&gt;Node1</title>
<path fill="none" stroke="#404040" d="M152.1629,-270.1059C161.1073,-256.6195 172.3996,-239.5928 184.3025,-221.6455"/>
<polygon fill="none" stroke="#404040" points="184.3344,-221.5972 184.3172,-214.3861 190.967,-211.5967 190.9842,-218.8078 184.3344,-221.5972"/>
<text text-anchor="middle" x="193" y="-238.5" font-family="Helvetica,sans-Serif" font-size="10.00" fill="#000000"> &#45;stdin</text>
</g>
<!-- Node4 -->
<g id="node4" class="node">
<title>Node4</title>
<polygon fill="none" stroke="#bfbfbf" points="186.5,-270.5 186.5,-327.5 263.5,-327.5 263.5,-270.5 186.5,-270.5"/>
<text text-anchor="middle" x="225" y="-315.5" font-family="Helvetica,sans-Serif" font-size="10.00" fill="#000000">OutputStream</text>
<polyline fill="none" stroke="#bfbfbf" points="186.5,-308.5 263.5,-308.5 "/>
<text text-anchor="middle" x="225" y="-296.5" font-family="Helvetica,sans-Serif" font-size="10.00" fill="#000000"> </text>
<polyline fill="none" stroke="#bfbfbf" points="186.5,-289.5 263.5,-289.5 "/>
<text text-anchor="middle" x="225" y="-277.5" font-family="Helvetica,sans-Serif" font-size="10.00" fill="#000000"> </text>
</g>
<!-- Node4&#45;&gt;Node1 -->
<g id="edge3" class="edge">
<title>Node4&#45;&gt;Node1</title>
<path fill="none" stroke="#404040" d="M230.3896,-270.1059C232.812,-257.119 235.8468,-240.8491 239.0576,-223.6357"/>
<polygon fill="none" stroke="#404040" points="239.1027,-223.3932 236.2708,-216.7615 241.3032,-211.5967 244.1352,-218.2285 239.1027,-223.3932"/>
<text text-anchor="middle" x="247" y="-244" font-family="Helvetica,sans-Serif" font-size="10.00" fill="#000000"> &#45;err</text>
<text text-anchor="middle" x="247" y="-233" font-family="Helvetica,sans-Serif" font-size="10.00" fill="#000000">&#45;out</text>
</g>
<!-- Node5 -->
<g id="node5" class="node">
<title>Node5</title>
<polygon fill="none" stroke="#bfbfbf" points="282,-270.5 282,-327.5 314,-327.5 314,-270.5 282,-270.5"/>
<text text-anchor="middle" x="298" y="-315.5" font-family="Helvetica,sans-Serif" font-size="10.00" fill="#000000">File</text>
<polyline fill="none" stroke="#bfbfbf" points="282,-308.5 314,-308.5 "/>
<text text-anchor="middle" x="298" y="-296.5" font-family="Helvetica,sans-Serif" font-size="10.00" fill="#000000"> </text>
<polyline fill="none" stroke="#bfbfbf" points="282,-289.5 314,-289.5 "/>
<text text-anchor="middle" x="298" y="-277.5" font-family="Helvetica,sans-Serif" font-size="10.00" fill="#000000"> </text>
</g>
<!-- Node5&#45;&gt;Node1 -->
<g id="edge4" class="edge">
<title>Node5&#45;&gt;Node1</title>
<path fill="none" stroke="#404040" d="M292.4607,-270.1059C289.971,-257.119 286.8519,-240.8491 283.5519,-223.6357"/>
<polygon fill="none" stroke="#404040" points="283.5034,-223.3821 278.4452,-218.2425 281.2439,-211.5967 286.3021,-216.7362 283.5034,-223.3821"/>
<text text-anchor="middle" x="297.5" y="-238.5" font-family="Helvetica,sans-Serif" font-size="10.00" fill="#000000"> &#45;dir</text>
</g>
<!-- Node6 -->
<g id="node6" class="node">
<title>Node6</title>
<polygon fill="none" stroke="#bfbfbf" points="332,-270.5 332,-327.5 442,-327.5 442,-270.5 332,-270.5"/>
<text text-anchor="middle" x="387" y="-315.5" font-family="Helvetica,sans-Serif" font-size="10.00" fill="#000000">Map&lt; String, String &gt;</text>
<polyline fill="none" stroke="#bfbfbf" points="332,-308.5 442,-308.5 "/>
<text text-anchor="middle" x="387" y="-296.5" font-family="Helvetica,sans-Serif" font-size="10.00" fill="#000000"> </text>
<polyline fill="none" stroke="#bfbfbf" points="332,-289.5 442,-289.5 "/>
<text text-anchor="middle" x="387" y="-277.5" font-family="Helvetica,sans-Serif" font-size="10.00" fill="#000000"> </text>
</g>
<!-- Node6&#45;&gt;Node1 -->
<g id="edge5" class="edge">
<title>Node6&#45;&gt;Node1</title>
<path fill="none" stroke="#404040" d="M368.1365,-270.1059C359.3319,-256.6195 348.216,-239.5928 336.4991,-221.6455"/>
<polygon fill="none" stroke="#404040" points="336.4988,-221.6449 329.8694,-218.8075 329.9388,-211.5967 336.5682,-214.4341 336.4988,-221.6449"/>
<text text-anchor="middle" x="365" y="-238.5" font-family="Helvetica,sans-Serif" font-size="10.00" fill="#000000"> &#45;env</text>
</g>
<!-- Node7 -->
<g id="node7" class="node">
<title>Node7</title>
<polygon fill="none" stroke="#bfbfbf" points="369.5,-375.5 369.5,-432.5 404.5,-432.5 404.5,-375.5 369.5,-375.5"/>
<text text-anchor="middle" x="387" y="-420.5" font-family="Helvetica,sans-Serif" font-size="10.00" fill="#000000">Map</text>
<polyline fill="none" stroke="#bfbfbf" points="369.5,-413.5 404.5,-413.5 "/>
<text text-anchor="middle" x="387" y="-401.5" font-family="Helvetica,sans-Serif" font-size="10.00" fill="#000000"> </text>
<polyline fill="none" stroke="#bfbfbf" points="369.5,-394.5 404.5,-394.5 "/>
<text text-anchor="middle" x="387" y="-382.5" font-family="Helvetica,sans-Serif" font-size="10.00" fill="#000000"> </text>
</g>
<!-- Node7&#45;&gt;Node6 -->
<g id="edge6" class="edge">
<title>Node7&#45;&gt;Node6</title>
<path fill="none" stroke="#ffa500" d="M387,-365.192C387,-352.7605 387,-339.2278 387,-327.657"/>
<polygon fill="#ffa500" stroke="#ffa500" points="383.5001,-365.3083 387,-375.3083 390.5001,-365.3083 383.5001,-365.3083"/>
<text text-anchor="middle" x="426.5" y="-349" font-family="Helvetica,sans-Serif" font-size="10.00" fill="#000000"> &lt; String, String &gt;</text>
</g>
<!-- Node8 -->
<g id="node8" class="node">
<title>Node8</title>
<polygon fill="none" stroke="#bfbfbf" points="460,-270.5 460,-327.5 540,-327.5 540,-270.5 460,-270.5"/>
<text text-anchor="middle" x="500" y="-315.5" font-family="Helvetica,sans-Serif" font-size="10.00" fill="#000000">List&lt; Integer &gt;</text>
<polyline fill="none" stroke="#bfbfbf" points="460,-308.5 540,-308.5 "/>
<text text-anchor="middle" x="500" y="-296.5" font-family="Helvetica,sans-Serif" font-size="10.00" fill="#000000"> </text>
<polyline fill="none" stroke="#bfbfbf" points="460,-289.5 540,-289.5 "/>
<text text-anchor="middle" x="500" y="-277.5" font-family="Helvetica,sans-Serif" font-size="10.00" fill="#000000"> </text>
</g>
<!-- Node8&#45;&gt;Node1 -->
<g id="edge7" class="edge">
<title>Node8&#45;&gt;Node1</title>
<path fill="none" stroke="#404040" d="M464.4774,-270.3144C435.2875,-246.7426 392.5804,-212.2553 353.8197,-180.9548"/>
<polygon fill="none" stroke="#404040" points="353.397,-180.6135 346.2159,-179.9559 344.0609,-173.0743 351.242,-173.7319 353.397,-180.6135"/>
<text text-anchor="middle" x="498.5" y="-244" font-family="Helvetica,sans-Serif" font-size="10.00" fill="#000000"> &#45;exitValues</text>
<text text-anchor="middle" x="498.5" y="-233" font-family="Helvetica,sans-Serif" font-size="10.00" fill="#000000">+DEFAULT_EXIT_VALUES</text>
</g>
<!-- Node9 -->
<g id="node9" class="node">
<title>Node9</title>
<polygon fill="none" stroke="#bfbfbf" points="484,-375.5 484,-432.5 516,-432.5 516,-375.5 484,-375.5"/>
<text text-anchor="middle" x="500" y="-420.5" font-family="Helvetica,sans-Serif" font-size="10.00" fill="#000000">List</text>
<polyline fill="none" stroke="#bfbfbf" points="484,-413.5 516,-413.5 "/>
<text text-anchor="middle" x="500" y="-401.5" font-family="Helvetica,sans-Serif" font-size="10.00" fill="#000000"> </text>
<polyline fill="none" stroke="#bfbfbf" points="484,-394.5 516,-394.5 "/>
<text text-anchor="middle" x="500" y="-382.5" font-family="Helvetica,sans-Serif" font-size="10.00" fill="#000000"> </text>
</g>
<!-- Node9&#45;&gt;Node8 -->
<g id="edge8" class="edge">
<title>Node9&#45;&gt;Node8</title>
<path fill="none" stroke="#ffa500" d="M500,-365.192C500,-352.7605 500,-339.2278 500,-327.657"/>
<polygon fill="#ffa500" stroke="#ffa500" points="496.5001,-365.3083 500,-375.3083 503.5001,-365.3083 496.5001,-365.3083"/>
<text text-anchor="middle" x="526" y="-349" font-family="Helvetica,sans-Serif" font-size="10.00" fill="#000000"> &lt; Integer &gt;</text>
</g>
</g>
</svg>
