<?xml version="1.0" encoding="UTF-8" standalone="no"?>
<!DOCTYPE svg PUBLIC "-//W3C//DTD SVG 1.1//EN"
 "http://www.w3.org/Graphics/SVG/1.1/DTD/svg11.dtd">
<!-- Generated by graphviz version 2.40.1 (20161225.0304)
 -->
<!-- Title: org.cobbzilla.util.reflect.ClassReLoader Pages: 1 -->
<svg width="203pt" height="309pt"
 viewBox="0.00 0.00 203.00 309.00" xmlns="http://www.w3.org/2000/svg" xmlns:xlink="http://www.w3.org/1999/xlink">
<g id="graph0" class="graph" transform="scale(1 1) rotate(0) translate(4 305)">
<title>org.cobbzilla.util.reflect.ClassReLoader</title>
<!-- Node2 -->
<g id="node1" class="node">
<title>Node2</title>
<polygon fill="#bfbfbf" stroke="#000000" points="2,-.5 2,-90.5 122,-90.5 122,-.5 2,-.5"/>
<text text-anchor="start" x="10" y="-78.5" font-family="Helvetica,sans-Serif" font-size="10.00" fill="#000000">org.cobbzilla.util.reflect.</text>
<text text-anchor="middle" x="62" y="-67.5" font-family="Helvetica,sans-Serif" font-size="10.00" fill="#000000">ClassReLoader</text>
<polyline fill="none" stroke="#000000" points="2,-60.5 122,-60.5 "/>
<text text-anchor="middle" x="62" y="-48.5" font-family="Helvetica,sans-Serif" font-size="10.00" fill="#000000"> </text>
<polyline fill="none" stroke="#000000" points="2,-41.5 122,-41.5 "/>
<text text-anchor="start" x="10" y="-29.5" font-family="Helvetica,sans-Serif" font-size="10.00" fill="#000000">+ doReloadFor()</text>
<text text-anchor="start" x="10" y="-18.5" font-family="Helvetica,sans-Serif" font-size="10.00" fill="#000000">+ ClassReLoader()</text>
<text text-anchor="start" x="10" y="-7.5" font-family="Helvetica,sans-Serif" font-size="10.00" fill="#000000">+ loadClass()</text>
</g>
<!-- Node3 -->
<g id="node2" class="node">
<title>Node3</title>
<polygon fill="none" stroke="#bfbfbf" points="0,-138.5 0,-195.5 92,-195.5 92,-138.5 0,-138.5"/>
<text text-anchor="middle" x="46" y="-183.5" font-family="Helvetica,sans-Serif" font-size="10.00" fill="#000000">URLClassLoader</text>
<polyline fill="none" stroke="#bfbfbf" points="0,-176.5 92,-176.5 "/>
<text text-anchor="middle" x="46" y="-164.5" font-family="Helvetica,sans-Serif" font-size="10.00" fill="#000000"> </text>
<polyline fill="none" stroke="#bfbfbf" points="0,-157.5 92,-157.5 "/>
<text text-anchor="middle" x="46" y="-145.5" font-family="Helvetica,sans-Serif" font-size="10.00" fill="#000000"> </text>
</g>
<!-- Node3&#45;&gt;Node2 -->
<g id="edge1" class="edge">
<title>Node3&#45;&gt;Node2</title>
<path fill="none" stroke="#191970" d="M51.119,-128.1272C52.6877,-116.2156 54.4268,-103.0088 56.0461,-90.7124"/>
<polygon fill="none" stroke="#191970" points="47.6274,-127.8348 49.7918,-138.2062 54.5675,-128.7488 47.6274,-127.8348"/>
</g>
<!-- Node4 -->
<g id="node3" class="node">
<title>Node4</title>
<polygon fill="none" stroke="#bfbfbf" points="110.5,-138.5 110.5,-195.5 185.5,-195.5 185.5,-138.5 110.5,-138.5"/>
<text text-anchor="middle" x="148" y="-183.5" font-family="Helvetica,sans-Serif" font-size="10.00" fill="#000000">Set&lt; String &gt;</text>
<polyline fill="none" stroke="#bfbfbf" points="110.5,-176.5 185.5,-176.5 "/>
<text text-anchor="middle" x="148" y="-164.5" font-family="Helvetica,sans-Serif" font-size="10.00" fill="#000000"> </text>
<polyline fill="none" stroke="#bfbfbf" points="110.5,-157.5 185.5,-157.5 "/>
<text text-anchor="middle" x="148" y="-145.5" font-family="Helvetica,sans-Serif" font-size="10.00" fill="#000000"> </text>
</g>
<!-- Node4&#45;&gt;Node2 -->
<g id="edge2" class="edge">
<title>Node4&#45;&gt;Node2</title>
<path fill="none" stroke="#404040" d="M127.6192,-138.2062C119.6238,-126.9103 110.1698,-113.5538 100.9647,-100.5489"/>
<polygon fill="none" stroke="#404040" points="100.9351,-100.5071 94.2038,-97.9207 94.0022,-90.7124 100.7336,-93.2988 100.9351,-100.5071"/>
<text text-anchor="middle" x="128.5" y="-112" font-family="Helvetica,sans-Serif" font-size="10.00" fill="#000000"> &#45;reload</text>
</g>
<!-- Node5 -->
<g id="node4" class="node">
<title>Node5</title>
<polygon fill="none" stroke="#bfbfbf" points="132,-243.5 132,-300.5 164,-300.5 164,-243.5 132,-243.5"/>
<text text-anchor="middle" x="148" y="-288.5" font-family="Helvetica,sans-Serif" font-size="10.00" fill="#000000">Set</text>
<polyline fill="none" stroke="#bfbfbf" points="132,-281.5 164,-281.5 "/>
<text text-anchor="middle" x="148" y="-269.5" font-family="Helvetica,sans-Serif" font-size="10.00" fill="#000000"> </text>
<polyline fill="none" stroke="#bfbfbf" points="132,-262.5 164,-262.5 "/>
<text text-anchor="middle" x="148" y="-250.5" font-family="Helvetica,sans-Serif" font-size="10.00" fill="#000000"> </text>
</g>
<!-- Node5&#45;&gt;Node4 -->
<g id="edge3" class="edge">
<title>Node5&#45;&gt;Node4</title>
<path fill="none" stroke="#ffa500" d="M148,-233.192C148,-220.7605 148,-207.2278 148,-195.657"/>
<polygon fill="#ffa500" stroke="#ffa500" points="144.5001,-233.3083 148,-243.3083 151.5001,-233.3083 144.5001,-233.3083"/>
<text text-anchor="middle" x="171.5" y="-217" font-family="Helvetica,sans-Serif" font-size="10.00" fill="#000000"> &lt; String &gt;</text>
</g>
</g>
</svg>
