<?xml version="1.0" encoding="UTF-8" standalone="no"?>
<!DOCTYPE svg PUBLIC "-//W3C//DTD SVG 1.1//EN"
 "http://www.w3.org/Graphics/SVG/1.1/DTD/svg11.dtd">
<!-- Generated by graphviz version 2.40.1 (20161225.0304)
 -->
<!-- Title: org.cobbzilla.util.cache.AutoRefreshingReference&lt; T &gt; Pages: 1 -->
<svg width="225pt" height="353pt"
 viewBox="0.00 0.00 224.50 353.00" xmlns="http://www.w3.org/2000/svg" xmlns:xlink="http://www.w3.org/1999/xlink">
<g id="graph0" class="graph" transform="scale(1 1) rotate(0) translate(4 349)">
<title>org.cobbzilla.util.cache.AutoRefreshingReference&lt; T &gt;</title>
<!-- Node2 -->
<g id="node1" class="node">
<title>Node2</title>
<polygon fill="#bfbfbf" stroke="#000000" points="63.5,-.5 63.5,-134.5 216.5,-134.5 216.5,-.5 63.5,-.5"/>
<text text-anchor="start" x="71.5" y="-122.5" font-family="Helvetica,sans-Serif" font-size="10.00" fill="#000000">org.cobbzilla.util.cache.</text>
<text text-anchor="middle" x="140" y="-111.5" font-family="Helvetica,sans-Serif" font-size="10.00" fill="#000000">AutoRefreshingReference&lt; T &gt;</text>
<polyline fill="none" stroke="#000000" points="63.5,-104.5 216.5,-104.5 "/>
<text text-anchor="middle" x="140" y="-92.5" font-family="Helvetica,sans-Serif" font-size="10.00" fill="#000000"> </text>
<polyline fill="none" stroke="#000000" points="63.5,-85.5 216.5,-85.5 "/>
<text text-anchor="start" x="71.5" y="-73.5" font-family="Helvetica,sans-Serif" font-size="10.00" fill="#000000">+ refresh()</text>
<text text-anchor="start" x="71.5" y="-62.5" font-family="Helvetica,sans-Serif" font-size="10.00" fill="#000000">+ getTimeout()</text>
<text text-anchor="start" x="71.5" y="-51.5" font-family="Helvetica,sans-Serif" font-size="10.00" fill="#000000">+ get()</text>
<text text-anchor="start" x="71.5" y="-40.5" font-family="Helvetica,sans-Serif" font-size="10.00" fill="#000000">+ isEmpty()</text>
<text text-anchor="start" x="71.5" y="-29.5" font-family="Helvetica,sans-Serif" font-size="10.00" fill="#000000">+ update()</text>
<text text-anchor="start" x="71.5" y="-18.5" font-family="Helvetica,sans-Serif" font-size="10.00" fill="#000000">+ flush()</text>
<text text-anchor="start" x="71.5" y="-7.5" font-family="Helvetica,sans-Serif" font-size="10.00" fill="#000000">+ set()</text>
</g>
<!-- Node3 -->
<g id="node2" class="node">
<title>Node3</title>
<polygon fill="none" stroke="#bfbfbf" points="0,-182.5 0,-239.5 116,-239.5 116,-182.5 0,-182.5"/>
<text text-anchor="middle" x="58" y="-227.5" font-family="Helvetica,sans-Serif" font-size="10.00" fill="#000000">AtomicReference&lt; T &gt;</text>
<polyline fill="none" stroke="#bfbfbf" points="0,-220.5 116,-220.5 "/>
<text text-anchor="middle" x="58" y="-208.5" font-family="Helvetica,sans-Serif" font-size="10.00" fill="#000000"> </text>
<polyline fill="none" stroke="#bfbfbf" points="0,-201.5 116,-201.5 "/>
<text text-anchor="middle" x="58" y="-189.5" font-family="Helvetica,sans-Serif" font-size="10.00" fill="#000000"> </text>
</g>
<!-- Node3&#45;&gt;Node2 -->
<g id="edge1" class="edge">
<title>Node3&#45;&gt;Node2</title>
<path fill="none" stroke="#404040" d="M74.3968,-182.3055C80.5925,-171.4631 87.9776,-158.5392 95.5209,-145.3384"/>
<polygon fill="none" stroke="#404040" points="95.631,-145.1456 95.1349,-137.9516 101.5847,-134.7267 102.0809,-141.9207 95.631,-145.1456"/>
<text text-anchor="middle" x="106.5" y="-156" font-family="Helvetica,sans-Serif" font-size="10.00" fill="#000000"> &#45;object</text>
</g>
<!-- Node4 -->
<g id="node3" class="node">
<title>Node4</title>
<polygon fill="none" stroke="#bfbfbf" points="12,-287.5 12,-344.5 104,-344.5 104,-287.5 12,-287.5"/>
<text text-anchor="middle" x="58" y="-332.5" font-family="Helvetica,sans-Serif" font-size="10.00" fill="#000000">AtomicReference</text>
<polyline fill="none" stroke="#bfbfbf" points="12,-325.5 104,-325.5 "/>
<text text-anchor="middle" x="58" y="-313.5" font-family="Helvetica,sans-Serif" font-size="10.00" fill="#000000"> </text>
<polyline fill="none" stroke="#bfbfbf" points="12,-306.5 104,-306.5 "/>
<text text-anchor="middle" x="58" y="-294.5" font-family="Helvetica,sans-Serif" font-size="10.00" fill="#000000"> </text>
</g>
<!-- Node4&#45;&gt;Node3 -->
<g id="edge2" class="edge">
<title>Node4&#45;&gt;Node3</title>
<path fill="none" stroke="#ffa500" d="M58,-277.192C58,-264.7605 58,-251.2278 58,-239.657"/>
<polygon fill="#ffa500" stroke="#ffa500" points="54.5001,-277.3083 58,-287.3083 61.5001,-277.3083 54.5001,-277.3083"/>
<text text-anchor="middle" x="72" y="-261" font-family="Helvetica,sans-Serif" font-size="10.00" fill="#000000"> &lt; T &gt;</text>
</g>
<!-- Node5 -->
<g id="node4" class="node">
<title>Node5</title>
<polygon fill="none" stroke="#bfbfbf" points="134,-182.5 134,-239.5 202,-239.5 202,-182.5 134,-182.5"/>
<text text-anchor="middle" x="168" y="-227.5" font-family="Helvetica,sans-Serif" font-size="10.00" fill="#000000">AtomicLong</text>
<polyline fill="none" stroke="#bfbfbf" points="134,-220.5 202,-220.5 "/>
<text text-anchor="middle" x="168" y="-208.5" font-family="Helvetica,sans-Serif" font-size="10.00" fill="#000000"> </text>
<polyline fill="none" stroke="#bfbfbf" points="134,-201.5 202,-201.5 "/>
<text text-anchor="middle" x="168" y="-189.5" font-family="Helvetica,sans-Serif" font-size="10.00" fill="#000000"> </text>
</g>
<!-- Node5&#45;&gt;Node2 -->
<g id="edge3" class="edge">
<title>Node5&#45;&gt;Node2</title>
<path fill="none" stroke="#404040" d="M162.4011,-182.3055C160.3483,-171.7852 157.9132,-159.3051 155.4173,-146.5139"/>
<polygon fill="none" stroke="#404040" points="155.4156,-146.5046 150.3405,-141.3817 153.1174,-134.7267 158.1925,-139.8496 155.4156,-146.5046"/>
<text text-anchor="middle" x="176.5" y="-156" font-family="Helvetica,sans-Serif" font-size="10.00" fill="#000000"> &#45;lastSet</text>
</g>
</g>
</svg>
