<?xml version="1.0" encoding="UTF-8" standalone="no"?>
<!DOCTYPE svg PUBLIC "-//W3C//DTD SVG 1.1//EN"
 "http://www.w3.org/Graphics/SVG/1.1/DTD/svg11.dtd">
<!-- Generated by graphviz version 2.40.1 (20161225.0304)
 -->
<!-- Title: org.cobbzilla.util.mustache.MustacheUtil.renderBoolean Pages: 1 -->
<svg width="492pt" height="39pt"
 viewBox="0.00 0.00 492.00 39.00" xmlns="http://www.w3.org/2000/svg" xmlns:xlink="http://www.w3.org/1999/xlink">
<g id="graph0" class="graph" transform="scale(1 1) rotate(0) translate(4 35)">
<title>org.cobbzilla.util.mustache.MustacheUtil.renderBoolean</title>
<!-- Node0 -->
<g id="node1" class="node">
<title>Node0</title>
<polygon fill="#bfbfbf" stroke="#000000" points="0,-.5 0,-30.5 140,-30.5 140,-.5 0,-.5"/>
<text text-anchor="start" x="8" y="-18.5" font-family="Helvetica,sans-Serif" font-size="10.00" fill="#000000">org.cobbzilla.util.mustache.</text>
<text text-anchor="middle" x="70" y="-7.5" font-family="Helvetica,sans-Serif" font-size="10.00" fill="#000000">MustacheUtil.renderBoolean</text>
</g>
<!-- Node1 -->
<g id="node2" class="node">
<title>Node1</title>
<g id="a_node2"><a xlink:href="../../dd/d69/classorg_1_1cobbzilla_1_1util_1_1mustache_1_1MustacheUtil_a24247ea80bbac35511f7bf3b9648e355.html#a24247ea80bbac35511f7bf3b9648e355" target="_top" xlink:title="org.cobbzilla.util.mustache.\lMustacheUtil.render">
<polygon fill="none" stroke="#000000" points="176,-.5 176,-30.5 312,-30.5 312,-.5 176,-.5"/>
<text text-anchor="start" x="184" y="-18.5" font-family="Helvetica,sans-Serif" font-size="10.00" fill="#000000">org.cobbzilla.util.mustache.</text>
<text text-anchor="middle" x="244" y="-7.5" font-family="Helvetica,sans-Serif" font-size="10.00" fill="#000000">MustacheUtil.render</text>
</a>
</g>
</g>
<!-- Node0&#45;&gt;Node1 -->
<g id="edge1" class="edge">
<title>Node0&#45;&gt;Node1</title>
<path fill="none" stroke="#191970" d="M140.0203,-15.5C148.5046,-15.5 157.213,-15.5 165.8057,-15.5"/>
<polygon fill="#191970" stroke="#191970" points="165.8192,-19.0001 175.8192,-15.5 165.8191,-12.0001 165.8192,-19.0001"/>
</g>
<!-- Node2 -->
<g id="node3" class="node">
<title>Node2</title>
<g id="a_node3"><a xlink:href="../../dd/d69/classorg_1_1cobbzilla_1_1util_1_1mustache_1_1MustacheUtil_ac96789901a763251629180203948fa0c.html#ac96789901a763251629180203948fa0c" target="_top" xlink:title="org.cobbzilla.util.mustache.\lMustacheUtil.getMustache">
<polygon fill="none" stroke="#000000" points="348,-.5 348,-30.5 484,-30.5 484,-.5 348,-.5"/>
<text text-anchor="start" x="356" y="-18.5" font-family="Helvetica,sans-Serif" font-size="10.00" fill="#000000">org.cobbzilla.util.mustache.</text>
<text text-anchor="middle" x="416" y="-7.5" font-family="Helvetica,sans-Serif" font-size="10.00" fill="#000000">MustacheUtil.getMustache</text>
</a>
</g>
</g>
<!-- Node1&#45;&gt;Node2 -->
<g id="edge2" class="edge">
<title>Node1&#45;&gt;Node2</title>
<path fill="none" stroke="#191970" d="M312.4732,-15.5C320.7318,-15.5 329.2157,-15.5 337.6024,-15.5"/>
<polygon fill="#191970" stroke="#191970" points="337.7625,-19.0001 347.7624,-15.5 337.7624,-12.0001 337.7625,-19.0001"/>
</g>
</g>
</svg>
