<?xml version="1.0" encoding="UTF-8" standalone="no"?>
<!DOCTYPE svg PUBLIC "-//W3C//DTD SVG 1.1//EN"
 "http://www.w3.org/Graphics/SVG/1.1/DTD/svg11.dtd">
<!-- Generated by graphviz version 2.40.1 (20161225.0304)
 -->
<!-- Title: org.cobbzilla.util.mustache.MustacheUtil.getMustache Pages: 1 -->
<svg width="492pt" height="39pt"
 viewBox="0.00 0.00 492.00 39.00" xmlns="http://www.w3.org/2000/svg" xmlns:xlink="http://www.w3.org/1999/xlink">
<g id="graph0" class="graph" transform="scale(1 1) rotate(0) translate(4 35)">
<title>org.cobbzilla.util.mustache.MustacheUtil.getMustache</title>
<!-- Node1 -->
<g id="node1" class="node">
<title>Node1</title>
<polygon fill="#bfbfbf" stroke="#000000" points="0,-.5 0,-30.5 136,-30.5 136,-.5 0,-.5"/>
<text text-anchor="start" x="8" y="-18.5" font-family="Helvetica,sans-Serif" font-size="10.00" fill="#000000">org.cobbzilla.util.mustache.</text>
<text text-anchor="middle" x="68" y="-7.5" font-family="Helvetica,sans-Serif" font-size="10.00" fill="#000000">MustacheUtil.getMustache</text>
</g>
<!-- Node2 -->
<g id="node2" class="node">
<title>Node2</title>
<g id="a_node2"><a xlink:href="../../dd/d69/classorg_1_1cobbzilla_1_1util_1_1mustache_1_1MustacheUtil_a24247ea80bbac35511f7bf3b9648e355.html#a24247ea80bbac35511f7bf3b9648e355" target="_top" xlink:title="org.cobbzilla.util.mustache.\lMustacheUtil.render">
<polygon fill="none" stroke="#000000" points="172,-.5 172,-30.5 308,-30.5 308,-.5 172,-.5"/>
<text text-anchor="start" x="180" y="-18.5" font-family="Helvetica,sans-Serif" font-size="10.00" fill="#000000">org.cobbzilla.util.mustache.</text>
<text text-anchor="middle" x="240" y="-7.5" font-family="Helvetica,sans-Serif" font-size="10.00" fill="#000000">MustacheUtil.render</text>
</a>
</g>
</g>
<!-- Node1&#45;&gt;Node2 -->
<g id="edge1" class="edge">
<title>Node1&#45;&gt;Node2</title>
<path fill="none" stroke="#191970" d="M146.6369,-15.5C155.0254,-15.5 163.5081,-15.5 171.7624,-15.5"/>
<polygon fill="#191970" stroke="#191970" points="146.4732,-12.0001 136.4732,-15.5 146.4731,-19.0001 146.4732,-12.0001"/>
</g>
<!-- Node3 -->
<g id="node3" class="node">
<title>Node3</title>
<g id="a_node3"><a xlink:href="../../dd/d69/classorg_1_1cobbzilla_1_1util_1_1mustache_1_1MustacheUtil_af53c700fd38e7249f418ebb668e8042c.html#af53c700fd38e7249f418ebb668e8042c" target="_top" xlink:title="org.cobbzilla.util.mustache.\lMustacheUtil.renderBoolean">
<polygon fill="none" stroke="#000000" points="344,-.5 344,-30.5 484,-30.5 484,-.5 344,-.5"/>
<text text-anchor="start" x="352" y="-18.5" font-family="Helvetica,sans-Serif" font-size="10.00" fill="#000000">org.cobbzilla.util.mustache.</text>
<text text-anchor="middle" x="414" y="-7.5" font-family="Helvetica,sans-Serif" font-size="10.00" fill="#000000">MustacheUtil.renderBoolean</text>
</a>
</g>
</g>
<!-- Node2&#45;&gt;Node3 -->
<g id="edge2" class="edge">
<title>Node2&#45;&gt;Node3</title>
<path fill="none" stroke="#191970" d="M318.5227,-15.5C326.9899,-15.5 335.5653,-15.5 343.9239,-15.5"/>
<polygon fill="#191970" stroke="#191970" points="318.27,-12.0001 308.27,-15.5 318.27,-19.0001 318.27,-12.0001"/>
</g>
</g>
</svg>
