<?xml version="1.0" encoding="UTF-8" standalone="no"?>
<!DOCTYPE svg PUBLIC "-//W3C//DTD SVG 1.1//EN"
 "http://www.w3.org/Graphics/SVG/1.1/DTD/svg11.dtd">
<!-- Generated by graphviz version 2.40.1 (20161225.0304)
 -->
<!-- Title: org.cobbzilla.util.graphics.ColorUtil.randomColor Pages: 1 -->
<svg width="304pt" height="57pt"
 viewBox="0.00 0.00 304.00 57.00" xmlns="http://www.w3.org/2000/svg" xmlns:xlink="http://www.w3.org/1999/xlink">
<g id="graph0" class="graph" transform="scale(1 1) rotate(0) translate(4 53)">
<title>org.cobbzilla.util.graphics.ColorUtil.randomColor</title>
<!-- Node0 -->
<g id="node1" class="node">
<title>Node0</title>
<polygon fill="#bfbfbf" stroke="#000000" points="0,-.5 0,-30.5 130,-30.5 130,-.5 0,-.5"/>
<text text-anchor="start" x="8" y="-18.5" font-family="Helvetica,sans-Serif" font-size="10.00" fill="#000000">org.cobbzilla.util.graphics.</text>
<text text-anchor="middle" x="65" y="-7.5" font-family="Helvetica,sans-Serif" font-size="10.00" fill="#000000">ColorUtil.randomColor</text>
</g>
<!-- Node1 -->
<g id="node2" class="node">
<title>Node1</title>
<g id="a_node2"><a xlink:href="../../d8/d03/classorg_1_1cobbzilla_1_1util_1_1graphics_1_1ColorUtil_a16e7dfe895d508589165fadf0ff0a5c2.html#a16e7dfe895d508589165fadf0ff0a5c2" target="_top" xlink:title="org.cobbzilla.util.graphics.\lColorUtil.rgb2ansi">
<polygon fill="none" stroke="#000000" points="166,-.5 166,-30.5 296,-30.5 296,-.5 166,-.5"/>
<text text-anchor="start" x="174" y="-18.5" font-family="Helvetica,sans-Serif" font-size="10.00" fill="#000000">org.cobbzilla.util.graphics.</text>
<text text-anchor="middle" x="231" y="-7.5" font-family="Helvetica,sans-Serif" font-size="10.00" fill="#000000">ColorUtil.rgb2ansi</text>
</a>
</g>
</g>
<!-- Node0&#45;&gt;Node1 -->
<g id="edge1" class="edge">
<title>Node0&#45;&gt;Node1</title>
<path fill="none" stroke="#191970" d="M130.1312,-15.5C138.4614,-15.5 147.0438,-15.5 155.5206,-15.5"/>
<polygon fill="#191970" stroke="#191970" points="155.7842,-19.0001 165.7842,-15.5 155.7842,-12.0001 155.7842,-19.0001"/>
</g>
<!-- Node1&#45;&gt;Node1 -->
<g id="edge2" class="edge">
<title>Node1&#45;&gt;Node1</title>
<path fill="none" stroke="#191970" d="M202.0711,-30.659C195.0953,-40.0566 204.7383,-49 231,-49 247.0032,-49 256.8353,-45.679 260.4962,-40.9579"/>
<polygon fill="#191970" stroke="#191970" points="263.9737,-40.4513 259.9289,-30.659 256.9843,-40.8364 263.9737,-40.4513"/>
</g>
</g>
</svg>
