<?xml version="1.0" encoding="UTF-8" standalone="no"?>
<!DOCTYPE svg PUBLIC "-//W3C//DTD SVG 1.1//EN"
 "http://www.w3.org/Graphics/SVG/1.1/DTD/svg11.dtd">
<!-- Generated by graphviz version 2.40.1 (20161225.0304)
 -->
<!-- Title: org.cobbzilla.util.string.Base64.OutputStream.write Pages: 1 -->
<svg width="327pt" height="137pt"
 viewBox="0.00 0.00 327.00 137.00" xmlns="http://www.w3.org/2000/svg" xmlns:xlink="http://www.w3.org/1999/xlink">
<g id="graph0" class="graph" transform="scale(1 1) rotate(0) translate(4 133)">
<title>org.cobbzilla.util.string.Base64.OutputStream.write</title>
<!-- Node4 -->
<g id="node1" class="node">
<title>Node4</title>
<polygon fill="#bfbfbf" stroke="#000000" points="0,-49.5 0,-79.5 137,-79.5 137,-49.5 0,-49.5"/>
<text text-anchor="start" x="8" y="-67.5" font-family="Helvetica,sans-Serif" font-size="10.00" fill="#000000">org.cobbzilla.util.string.</text>
<text text-anchor="middle" x="68.5" y="-56.5" font-family="Helvetica,sans-Serif" font-size="10.00" fill="#000000">Base64.OutputStream.write</text>
</g>
<!-- Node5 -->
<g id="node2" class="node">
<title>Node5</title>
<g id="a_node2"><a xlink:href="../../df/da0/classorg_1_1cobbzilla_1_1util_1_1string_1_1Base64_ab9263de69fedb1401b877e7168c7550b.html#ab9263de69fedb1401b877e7168c7550b" target="_top" xlink:title="Convenience method for decoding data to a file. ">
<polygon fill="none" stroke="#000000" points="187.5,-98.5 187.5,-128.5 304.5,-128.5 304.5,-98.5 187.5,-98.5"/>
<text text-anchor="start" x="195.5" y="-116.5" font-family="Helvetica,sans-Serif" font-size="10.00" fill="#000000">org.cobbzilla.util.string.</text>
<text text-anchor="middle" x="246" y="-105.5" font-family="Helvetica,sans-Serif" font-size="10.00" fill="#000000">Base64.decodeToFile</text>
</a>
</g>
</g>
<!-- Node4&#45;&gt;Node5 -->
<g id="edge1" class="edge">
<title>Node4&#45;&gt;Node5</title>
<path fill="none" stroke="#191970" d="M133.0566,-82.3212C152.2212,-87.6118 173.0155,-93.3522 191.4764,-98.4484"/>
<polygon fill="#191970" stroke="#191970" points="133.775,-78.8887 123.2042,-79.6014 131.9123,-85.6363 133.775,-78.8887"/>
</g>
<!-- Node6 -->
<g id="node3" class="node">
<title>Node6</title>
<g id="a_node3"><a xlink:href="../../df/da0/classorg_1_1cobbzilla_1_1util_1_1string_1_1Base64_a916d490d7018d3d96f58bf898c8215ab.html#a916d490d7018d3d96f58bf898c8215ab" target="_top" xlink:title="Similar to encodeBytes(byte[], int, int, int) but returns a byte array instead of instantiating a Str...">
<polygon fill="none" stroke="#000000" points="173,-49.5 173,-79.5 319,-79.5 319,-49.5 173,-49.5"/>
<text text-anchor="start" x="181" y="-67.5" font-family="Helvetica,sans-Serif" font-size="10.00" fill="#000000">org.cobbzilla.util.string.</text>
<text text-anchor="middle" x="246" y="-56.5" font-family="Helvetica,sans-Serif" font-size="10.00" fill="#000000">Base64.encodeBytesToBytes</text>
</a>
</g>
</g>
<!-- Node4&#45;&gt;Node6 -->
<g id="edge2" class="edge">
<title>Node4&#45;&gt;Node6</title>
<path fill="none" stroke="#191970" d="M147.3805,-64.5C155.854,-64.5 164.4489,-64.5 172.8513,-64.5"/>
<polygon fill="#191970" stroke="#191970" points="147.1262,-61.0001 137.1261,-64.5 147.1261,-68.0001 147.1262,-61.0001"/>
</g>
<!-- Node7 -->
<g id="node4" class="node">
<title>Node7</title>
<g id="a_node4"><a xlink:href="../../df/da0/classorg_1_1cobbzilla_1_1util_1_1string_1_1Base64_a53b5c3d9bdf6febdebfab346a00aa844.html#a53b5c3d9bdf6febdebfab346a00aa844" target="_top" xlink:title="Convenience method for encoding data to a file. ">
<polygon fill="none" stroke="#000000" points="187.5,-.5 187.5,-30.5 304.5,-30.5 304.5,-.5 187.5,-.5"/>
<text text-anchor="start" x="195.5" y="-18.5" font-family="Helvetica,sans-Serif" font-size="10.00" fill="#000000">org.cobbzilla.util.string.</text>
<text text-anchor="middle" x="246" y="-7.5" font-family="Helvetica,sans-Serif" font-size="10.00" fill="#000000">Base64.encodeToFile</text>
</a>
</g>
</g>
<!-- Node4&#45;&gt;Node7 -->
<g id="edge3" class="edge">
<title>Node4&#45;&gt;Node7</title>
<path fill="none" stroke="#191970" d="M133.0566,-46.6788C152.2212,-41.3882 173.0155,-35.6478 191.4764,-30.5516"/>
<polygon fill="#191970" stroke="#191970" points="131.9123,-43.3637 123.2042,-49.3986 133.775,-50.1113 131.9123,-43.3637"/>
</g>
</g>
</svg>
