<?xml version="1.0" encoding="UTF-8" standalone="no"?>
<!DOCTYPE svg PUBLIC "-//W3C//DTD SVG 1.1//EN"
 "http://www.w3.org/Graphics/SVG/1.1/DTD/svg11.dtd">
<!-- Generated by graphviz version 2.40.1 (20161225.0304)
 -->
<!-- Title: org.cobbzilla.util.string.Base64.OutputStream.write Pages: 1 -->
<svg width="451pt" height="88pt"
 viewBox="0.00 0.00 451.00 88.00" xmlns="http://www.w3.org/2000/svg" xmlns:xlink="http://www.w3.org/1999/xlink">
<g id="graph0" class="graph" transform="scale(1 1) rotate(0) translate(4 84)">
<title>org.cobbzilla.util.string.Base64.OutputStream.write</title>
<!-- Node0 -->
<g id="node1" class="node">
<title>Node0</title>
<polygon fill="#bfbfbf" stroke="#000000" points="0,-24.5 0,-54.5 137,-54.5 137,-24.5 0,-24.5"/>
<text text-anchor="start" x="8" y="-42.5" font-family="Helvetica,sans-Serif" font-size="10.00" fill="#000000">org.cobbzilla.util.string.</text>
<text text-anchor="middle" x="68.5" y="-31.5" font-family="Helvetica,sans-Serif" font-size="10.00" fill="#000000">Base64.OutputStream.write</text>
</g>
<!-- Node1 -->
<g id="node2" class="node">
<title>Node1</title>
<g id="a_node2"><a xlink:href="../../df/da0/classorg_1_1cobbzilla_1_1util_1_1string_1_1Base64_ac381dcac205c5ff0ae28dada8c04505b.html#ac381dcac205c5ff0ae28dada8c04505b" target="_top" xlink:title="Decodes four bytes from array source and writes the resulting bytes (up to three of them) to destinat...">
<polygon fill="none" stroke="#000000" points="173,-49.5 173,-79.5 290,-79.5 290,-49.5 173,-49.5"/>
<text text-anchor="start" x="181" y="-67.5" font-family="Helvetica,sans-Serif" font-size="10.00" fill="#000000">org.cobbzilla.util.string.</text>
<text text-anchor="middle" x="231.5" y="-56.5" font-family="Helvetica,sans-Serif" font-size="10.00" fill="#000000">Base64.decode4to3</text>
</a>
</g>
</g>
<!-- Node0&#45;&gt;Node1 -->
<g id="edge1" class="edge">
<title>Node0&#45;&gt;Node1</title>
<path fill="none" stroke="#191970" d="M137.1543,-50.0298C145.7216,-51.3438 154.4831,-52.6876 163.0474,-54.0011"/>
<polygon fill="#191970" stroke="#191970" points="162.5719,-57.4691 172.9869,-55.5256 163.6332,-50.55 162.5719,-57.4691"/>
</g>
<!-- Node3 -->
<g id="node4" class="node">
<title>Node3</title>
<g id="a_node4"><a xlink:href="../../df/da0/classorg_1_1cobbzilla_1_1util_1_1string_1_1Base64_a65d2008e80f41c490a035b77f4628348.html#a65d2008e80f41c490a035b77f4628348" target="_top" xlink:title="Encodes up to the first three bytes of array threeBytes and returns a four&#45;byte array in Base64 notat...">
<polygon fill="none" stroke="#000000" points="173,-.5 173,-30.5 290,-30.5 290,-.5 173,-.5"/>
<text text-anchor="start" x="181" y="-18.5" font-family="Helvetica,sans-Serif" font-size="10.00" fill="#000000">org.cobbzilla.util.string.</text>
<text text-anchor="middle" x="231.5" y="-7.5" font-family="Helvetica,sans-Serif" font-size="10.00" fill="#000000">Base64.encode3to4</text>
</a>
</g>
</g>
<!-- Node0&#45;&gt;Node3 -->
<g id="edge3" class="edge">
<title>Node0&#45;&gt;Node3</title>
<path fill="none" stroke="#191970" d="M137.1543,-29.3914C145.7216,-28.13 154.4831,-26.8399 163.0474,-25.5789"/>
<polygon fill="#191970" stroke="#191970" points="163.6035,-29.0349 172.9869,-24.1154 162.5837,-22.1095 163.6035,-29.0349"/>
</g>
<!-- Node2 -->
<g id="node3" class="node">
<title>Node2</title>
<g id="a_node3"><a xlink:href="../../df/da0/classorg_1_1cobbzilla_1_1util_1_1string_1_1Base64_aac1f79f712d42154ced1cddbc3f037dc.html#aac1f79f712d42154ced1cddbc3f037dc" target="_top" xlink:title="Returns one of the _SOMETHING_DECODABET byte arrays depending on the options specified. ">
<polygon fill="none" stroke="#000000" points="326,-49.5 326,-79.5 443,-79.5 443,-49.5 326,-49.5"/>
<text text-anchor="start" x="334" y="-67.5" font-family="Helvetica,sans-Serif" font-size="10.00" fill="#000000">org.cobbzilla.util.string.</text>
<text text-anchor="middle" x="384.5" y="-56.5" font-family="Helvetica,sans-Serif" font-size="10.00" fill="#000000">Base64.getDecodabet</text>
</a>
</g>
</g>
<!-- Node1&#45;&gt;Node2 -->
<g id="edge2" class="edge">
<title>Node1&#45;&gt;Node2</title>
<path fill="none" stroke="#191970" d="M290.2162,-64.5C298.5439,-64.5 307.1693,-64.5 315.6671,-64.5"/>
<polygon fill="#191970" stroke="#191970" points="315.9409,-68.0001 325.9409,-64.5 315.9409,-61.0001 315.9409,-68.0001"/>
</g>
</g>
</svg>
