<?xml version="1.0" encoding="UTF-8" standalone="no"?>
<!DOCTYPE svg PUBLIC "-//W3C//DTD SVG 1.1//EN"
 "http://www.w3.org/Graphics/SVG/1.1/DTD/svg11.dtd">
<!-- Generated by graphviz version 2.40.1 (20161225.0304)
 -->
<!-- Title: org.cobbzilla.util.string.Base64.getDecodabet Pages: 1 -->
<svg width="693pt" height="222pt"
 viewBox="0.00 0.00 693.00 222.00" xmlns="http://www.w3.org/2000/svg" xmlns:xlink="http://www.w3.org/1999/xlink">
<g id="graph0" class="graph" transform="scale(1 1) rotate(0) translate(4 218)">
<title>org.cobbzilla.util.string.Base64.getDecodabet</title>
<!-- Node1 -->
<g id="node1" class="node">
<title>Node1</title>
<polygon fill="#bfbfbf" stroke="#000000" points="0,-110.5 0,-140.5 117,-140.5 117,-110.5 0,-110.5"/>
<text text-anchor="start" x="8" y="-128.5" font-family="Helvetica,sans-Serif" font-size="10.00" fill="#000000">org.cobbzilla.util.string.</text>
<text text-anchor="middle" x="58.5" y="-117.5" font-family="Helvetica,sans-Serif" font-size="10.00" fill="#000000">Base64.getDecodabet</text>
</g>
<!-- Node2 -->
<g id="node2" class="node">
<title>Node2</title>
<g id="a_node2"><a xlink:href="../../df/da0/classorg_1_1cobbzilla_1_1util_1_1string_1_1Base64_a1d6682fa198beeea320b83297f3f05e7.html#a1d6682fa198beeea320b83297f3f05e7" target="_top" xlink:title="Low&#45;level access to decoding ASCII characters in the form of a byte array. ">
<polygon fill="none" stroke="#000000" points="376,-183.5 376,-213.5 493,-213.5 493,-183.5 376,-183.5"/>
<text text-anchor="start" x="384" y="-201.5" font-family="Helvetica,sans-Serif" font-size="10.00" fill="#000000">org.cobbzilla.util.string.</text>
<text text-anchor="middle" x="434.5" y="-190.5" font-family="Helvetica,sans-Serif" font-size="10.00" fill="#000000">Base64.decode</text>
</a>
</g>
</g>
<!-- Node1&#45;&gt;Node2 -->
<g id="edge1" class="edge">
<title>Node1&#45;&gt;Node2</title>
<path fill="none" stroke="#191970" d="M89.4766,-146.0068C107.2956,-156.7241 130.5448,-168.9433 153,-175.5 227.7219,-197.3179 318.0207,-200.921 375.8434,-200.51"/>
<polygon fill="#191970" stroke="#191970" points="91.0335,-142.8547 80.6863,-140.5772 87.3549,-148.8102 91.0335,-142.8547"/>
</g>
<!-- Node3 -->
<g id="node3" class="node">
<title>Node3</title>
<g id="a_node3"><a xlink:href="../../df/da0/classorg_1_1cobbzilla_1_1util_1_1string_1_1Base64_ac381dcac205c5ff0ae28dada8c04505b.html#ac381dcac205c5ff0ae28dada8c04505b" target="_top" xlink:title="Decodes four bytes from array source and writes the resulting bytes (up to three of them) to destinat...">
<polygon fill="none" stroke="#000000" points="183,-135.5 183,-165.5 300,-165.5 300,-135.5 183,-135.5"/>
<text text-anchor="start" x="191" y="-153.5" font-family="Helvetica,sans-Serif" font-size="10.00" fill="#000000">org.cobbzilla.util.string.</text>
<text text-anchor="middle" x="241.5" y="-142.5" font-family="Helvetica,sans-Serif" font-size="10.00" fill="#000000">Base64.decode4to3</text>
</a>
</g>
</g>
<!-- Node1&#45;&gt;Node3 -->
<g id="edge2" class="edge">
<title>Node1&#45;&gt;Node3</title>
<path fill="none" stroke="#191970" d="M127.1823,-134.8828C145.5052,-137.386 165.132,-140.0672 182.8608,-142.4892"/>
<polygon fill="#191970" stroke="#191970" points="127.5392,-131.3992 117.1574,-133.5133 126.5917,-138.3347 127.5392,-131.3992"/>
</g>
<!-- Node10 -->
<g id="node10" class="node">
<title>Node10</title>
<g id="a_node10"><a xlink:href="../../dd/de6/classorg_1_1cobbzilla_1_1util_1_1string_1_1Base64_1_1InputStream_a7a2e9e4cfeb25d2f042e05c46d02586a.html#a7a2e9e4cfeb25d2f042e05c46d02586a" target="_top" xlink:title="Constructs a Base64.InputStream in either ENCODE or DECODE mode. ">
<polygon fill="none" stroke="#000000" points="160.5,-86.5 160.5,-116.5 322.5,-116.5 322.5,-86.5 160.5,-86.5"/>
<text text-anchor="start" x="168.5" y="-104.5" font-family="Helvetica,sans-Serif" font-size="10.00" fill="#000000">org.cobbzilla.util.string.</text>
<text text-anchor="middle" x="241.5" y="-93.5" font-family="Helvetica,sans-Serif" font-size="10.00" fill="#000000">Base64.InputStream.InputStream</text>
</a>
</g>
</g>
<!-- Node1&#45;&gt;Node10 -->
<g id="edge10" class="edge">
<title>Node1&#45;&gt;Node10</title>
<path fill="none" stroke="#191970" d="M127.3647,-116.4686C138.1771,-115.0505 149.4395,-113.5735 160.4947,-112.1236"/>
<polygon fill="#191970" stroke="#191970" points="126.6174,-113.0365 117.1574,-117.8072 127.5277,-119.9771 126.6174,-113.0365"/>
</g>
<!-- Node11 -->
<g id="node11" class="node">
<title>Node11</title>
<g id="a_node11"><a xlink:href="../../db/d5e/classorg_1_1cobbzilla_1_1util_1_1string_1_1Base64_1_1OutputStream_ae6f4b917340212948bda3a57e471ba19.html#ae6f4b917340212948bda3a57e471ba19" target="_top" xlink:title="Constructs a Base64.OutputStream in either ENCODE or DECODE mode. ">
<polygon fill="none" stroke="#000000" points="153,-37.5 153,-67.5 330,-67.5 330,-37.5 153,-37.5"/>
<text text-anchor="start" x="161" y="-55.5" font-family="Helvetica,sans-Serif" font-size="10.00" fill="#000000">org.cobbzilla.util.string.</text>
<text text-anchor="middle" x="241.5" y="-44.5" font-family="Helvetica,sans-Serif" font-size="10.00" fill="#000000">Base64.OutputStream.OutputStream</text>
</a>
</g>
</g>
<!-- Node1&#45;&gt;Node11 -->
<g id="edge11" class="edge">
<title>Node1&#45;&gt;Node11</title>
<path fill="none" stroke="#191970" d="M93.9656,-105.4137C111.3827,-96.0897 132.8998,-85.3573 153,-77.5 162.2194,-73.896 172.1642,-70.5714 181.9421,-67.6021"/>
<polygon fill="#191970" stroke="#191970" points="91.8629,-102.5728 84.7463,-110.4216 95.2042,-108.7239 91.8629,-102.5728"/>
</g>
<!-- Node3&#45;&gt;Node2 -->
<g id="edge3" class="edge">
<title>Node3&#45;&gt;Node2</title>
<path fill="none" stroke="#191970" d="M309.915,-167.5151C331.4259,-172.865 354.9762,-178.7221 375.7542,-183.8897"/>
<polygon fill="#191970" stroke="#191970" points="310.7416,-164.1142 300.1924,-165.0971 309.0521,-170.9072 310.7416,-164.1142"/>
</g>
<!-- Node4 -->
<g id="node4" class="node">
<title>Node4</title>
<g id="a_node4"><a xlink:href="../../dd/de6/classorg_1_1cobbzilla_1_1util_1_1string_1_1Base64_1_1InputStream_a676c8fb04978d792fd4a45327be8ba84.html#a676c8fb04978d792fd4a45327be8ba84" target="_top" xlink:title="Reads enough of the input stream to convert to/from Base64 and returns the next byte. ">
<polygon fill="none" stroke="#000000" points="370.5,-134.5 370.5,-164.5 498.5,-164.5 498.5,-134.5 370.5,-134.5"/>
<text text-anchor="start" x="378.5" y="-152.5" font-family="Helvetica,sans-Serif" font-size="10.00" fill="#000000">org.cobbzilla.util.string.</text>
<text text-anchor="middle" x="434.5" y="-141.5" font-family="Helvetica,sans-Serif" font-size="10.00" fill="#000000">Base64.InputStream.read</text>
</a>
</g>
</g>
<!-- Node3&#45;&gt;Node4 -->
<g id="edge4" class="edge">
<title>Node3&#45;&gt;Node4</title>
<path fill="none" stroke="#191970" d="M310.2597,-150.1437C329.838,-150.0423 351.0811,-149.9322 370.3721,-149.8323"/>
<polygon fill="#191970" stroke="#191970" points="310.1741,-146.644 300.1924,-150.1959 310.2105,-153.6439 310.1741,-146.644"/>
</g>
<!-- Node6 -->
<g id="node6" class="node">
<title>Node6</title>
<g id="a_node6"><a xlink:href="../../db/d5e/classorg_1_1cobbzilla_1_1util_1_1string_1_1Base64_1_1OutputStream_a33e8e63bbc4ae6bf75678eaaefa57b87.html#a33e8e63bbc4ae6bf75678eaaefa57b87" target="_top" xlink:title="Writes the byte to the output stream after converting to/from Base64 notation. ">
<polygon fill="none" stroke="#000000" points="366,-73.5 366,-103.5 503,-103.5 503,-73.5 366,-73.5"/>
<text text-anchor="start" x="374" y="-91.5" font-family="Helvetica,sans-Serif" font-size="10.00" fill="#000000">org.cobbzilla.util.string.</text>
<text text-anchor="middle" x="434.5" y="-80.5" font-family="Helvetica,sans-Serif" font-size="10.00" fill="#000000">Base64.OutputStream.write</text>
</a>
</g>
</g>
<!-- Node3&#45;&gt;Node6 -->
<g id="edge6" class="edge">
<title>Node3&#45;&gt;Node6</title>
<path fill="none" stroke="#191970" d="M309.7952,-132.5974C316.6438,-130.6173 323.4742,-128.5673 330,-126.5 351.8998,-119.5622 376.02,-110.8634 395.5642,-103.5398"/>
<polygon fill="#191970" stroke="#191970" points="308.4443,-129.3426 299.7816,-135.4424 310.3574,-136.0761 308.4443,-129.3426"/>
</g>
<!-- Node5 -->
<g id="node5" class="node">
<title>Node5</title>
<g id="a_node5"><a xlink:href="../../dd/de6/classorg_1_1cobbzilla_1_1util_1_1string_1_1Base64_1_1InputStream_a946245877feaf35380c340d739626d8c.html#a946245877feaf35380c340d739626d8c" target="_top" xlink:title="Calls read() repeatedly until the end of stream is reached or len bytes are read. ...">
<polygon fill="none" stroke="#000000" points="548,-147.5 548,-177.5 676,-177.5 676,-147.5 548,-147.5"/>
<text text-anchor="start" x="556" y="-165.5" font-family="Helvetica,sans-Serif" font-size="10.00" fill="#000000">org.cobbzilla.util.string.</text>
<text text-anchor="middle" x="612" y="-154.5" font-family="Helvetica,sans-Serif" font-size="10.00" fill="#000000">Base64.InputStream.read</text>
</a>
</g>
</g>
<!-- Node4&#45;&gt;Node5 -->
<g id="edge5" class="edge">
<title>Node4&#45;&gt;Node5</title>
<path fill="none" stroke="#191970" d="M508.8319,-154.944C521.7523,-155.8903 535.0915,-156.8673 547.7145,-157.7918"/>
<polygon fill="#191970" stroke="#191970" points="508.8105,-151.4332 498.5816,-154.1933 508.2992,-158.4145 508.8105,-151.4332"/>
</g>
<!-- Node7 -->
<g id="node7" class="node">
<title>Node7</title>
<g id="a_node7"><a xlink:href="../../df/da0/classorg_1_1cobbzilla_1_1util_1_1string_1_1Base64_a916d490d7018d3d96f58bf898c8215ab.html#a916d490d7018d3d96f58bf898c8215ab" target="_top" xlink:title="Similar to encodeBytes(byte[], int, int, int) but returns a byte array instead of instantiating a Str...">
<polygon fill="none" stroke="#000000" points="539,-98.5 539,-128.5 685,-128.5 685,-98.5 539,-98.5"/>
<text text-anchor="start" x="547" y="-116.5" font-family="Helvetica,sans-Serif" font-size="10.00" fill="#000000">org.cobbzilla.util.string.</text>
<text text-anchor="middle" x="612" y="-105.5" font-family="Helvetica,sans-Serif" font-size="10.00" fill="#000000">Base64.encodeBytesToBytes</text>
</a>
</g>
</g>
<!-- Node6&#45;&gt;Node7 -->
<g id="edge7" class="edge">
<title>Node6&#45;&gt;Node7</title>
<path fill="none" stroke="#191970" d="M513.1012,-99.5706C521.665,-100.7768 530.3566,-102.0009 538.8513,-103.1974"/>
<polygon fill="#191970" stroke="#191970" points="513.5166,-96.0946 503.1261,-98.1657 512.5402,-103.0262 513.5166,-96.0946"/>
</g>
<!-- Node8 -->
<g id="node8" class="node">
<title>Node8</title>
<g id="a_node8"><a xlink:href="../../df/da0/classorg_1_1cobbzilla_1_1util_1_1string_1_1Base64_a53b5c3d9bdf6febdebfab346a00aa844.html#a53b5c3d9bdf6febdebfab346a00aa844" target="_top" xlink:title="Convenience method for encoding data to a file. ">
<polygon fill="none" stroke="#000000" points="553.5,-49.5 553.5,-79.5 670.5,-79.5 670.5,-49.5 553.5,-49.5"/>
<text text-anchor="start" x="561.5" y="-67.5" font-family="Helvetica,sans-Serif" font-size="10.00" fill="#000000">org.cobbzilla.util.string.</text>
<text text-anchor="middle" x="612" y="-56.5" font-family="Helvetica,sans-Serif" font-size="10.00" fill="#000000">Base64.encodeToFile</text>
</a>
</g>
</g>
<!-- Node6&#45;&gt;Node8 -->
<g id="edge8" class="edge">
<title>Node6&#45;&gt;Node8</title>
<path fill="none" stroke="#191970" d="M513.334,-77.8408C526.7884,-76.0216 540.5506,-74.1608 553.3629,-72.4284"/>
<polygon fill="#191970" stroke="#191970" points="512.567,-74.4125 503.1261,-79.221 513.505,-81.3494 512.567,-74.4125"/>
</g>
<!-- Node9 -->
<g id="node9" class="node">
<title>Node9</title>
<g id="a_node9"><a xlink:href="../../df/da0/classorg_1_1cobbzilla_1_1util_1_1string_1_1Base64_ab9263de69fedb1401b877e7168c7550b.html#ab9263de69fedb1401b877e7168c7550b" target="_top" xlink:title="Convenience method for decoding data to a file. ">
<polygon fill="none" stroke="#000000" points="553.5,-.5 553.5,-30.5 670.5,-30.5 670.5,-.5 553.5,-.5"/>
<text text-anchor="start" x="561.5" y="-18.5" font-family="Helvetica,sans-Serif" font-size="10.00" fill="#000000">org.cobbzilla.util.string.</text>
<text text-anchor="middle" x="612" y="-7.5" font-family="Helvetica,sans-Serif" font-size="10.00" fill="#000000">Base64.decodeToFile</text>
</a>
</g>
</g>
<!-- Node6&#45;&gt;Node9 -->
<g id="edge9" class="edge">
<title>Node6&#45;&gt;Node9</title>
<path fill="none" stroke="#191970" d="M473.411,-68.8851C492.865,-59.4316 516.9144,-48.2713 539,-39.5 546.8113,-36.3977 555.199,-33.3689 563.4064,-30.5652"/>
<polygon fill="#191970" stroke="#191970" points="471.6978,-65.8269 464.2588,-73.3708 474.7786,-72.1125 471.6978,-65.8269"/>
</g>
</g>
</svg>
