<?xml version="1.0" encoding="UTF-8" standalone="no"?>
<!DOCTYPE svg PUBLIC "-//W3C//DTD SVG 1.1//EN"
 "http://www.w3.org/Graphics/SVG/1.1/DTD/svg11.dtd">
<!-- Generated by graphviz version 2.40.1 (20161225.0304)
 -->
<!-- Title: org.cobbzilla.util.string.Base64.decode Pages: 1 -->
<svg width="497pt" height="137pt"
 viewBox="0.00 0.00 497.00 137.00" xmlns="http://www.w3.org/2000/svg" xmlns:xlink="http://www.w3.org/1999/xlink">
<g id="graph0" class="graph" transform="scale(1 1) rotate(0) translate(4 133)">
<title>org.cobbzilla.util.string.Base64.decode</title>
<!-- Node1 -->
<g id="node1" class="node">
<title>Node1</title>
<polygon fill="#bfbfbf" stroke="#000000" points="0,-49.5 0,-79.5 117,-79.5 117,-49.5 0,-49.5"/>
<text text-anchor="start" x="8" y="-67.5" font-family="Helvetica,sans-Serif" font-size="10.00" fill="#000000">org.cobbzilla.util.string.</text>
<text text-anchor="middle" x="58.5" y="-56.5" font-family="Helvetica,sans-Serif" font-size="10.00" fill="#000000">Base64.decode</text>
</g>
<!-- Node2 -->
<g id="node2" class="node">
<title>Node2</title>
<g id="a_node2"><a xlink:href="../../df/da0/classorg_1_1cobbzilla_1_1util_1_1string_1_1Base64_a9dfab509c12aebc17b9cb38fd147775b.html#a9dfab509c12aebc17b9cb38fd147775b" target="_top" xlink:title="Decodes data from Base64 notation, automatically detecting gzip&#45;compressed data and decompressing it...">
<polygon fill="none" stroke="#000000" points="158.5,-98.5 158.5,-128.5 275.5,-128.5 275.5,-98.5 158.5,-98.5"/>
<text text-anchor="start" x="166.5" y="-116.5" font-family="Helvetica,sans-Serif" font-size="10.00" fill="#000000">org.cobbzilla.util.string.</text>
<text text-anchor="middle" x="217" y="-105.5" font-family="Helvetica,sans-Serif" font-size="10.00" fill="#000000">Base64.decode</text>
</a>
</g>
</g>
<!-- Node1&#45;&gt;Node2 -->
<g id="edge1" class="edge">
<title>Node1&#45;&gt;Node2</title>
<path fill="none" stroke="#191970" d="M117.0897,-82.6129C133.9402,-87.8222 152.1304,-93.4457 168.3128,-98.4484"/>
<polygon fill="#191970" stroke="#191970" points="117.9362,-79.2112 107.3485,-79.6014 115.8686,-85.8989 117.9362,-79.2112"/>
</g>
<!-- Node3 -->
<g id="node3" class="node">
<title>Node3</title>
<g id="a_node3"><a xlink:href="../../df/da0/classorg_1_1cobbzilla_1_1util_1_1string_1_1Base64_a7ae2c0304678a6d18882c7aeb2f1babf.html#a7ae2c0304678a6d18882c7aeb2f1babf" target="_top" xlink:title="Attempts to decode Base64 data and deserialize a Java Object within. ">
<polygon fill="none" stroke="#000000" points="155,-49.5 155,-79.5 279,-79.5 279,-49.5 155,-49.5"/>
<text text-anchor="start" x="163" y="-67.5" font-family="Helvetica,sans-Serif" font-size="10.00" fill="#000000">org.cobbzilla.util.string.</text>
<text text-anchor="middle" x="217" y="-56.5" font-family="Helvetica,sans-Serif" font-size="10.00" fill="#000000">Base64.decodeToObject</text>
</a>
</g>
</g>
<!-- Node1&#45;&gt;Node3 -->
<g id="edge2" class="edge">
<title>Node1&#45;&gt;Node3</title>
<path fill="none" stroke="#191970" d="M127.3313,-64.5C136.5159,-64.5 145.8905,-64.5 154.95,-64.5"/>
<polygon fill="#191970" stroke="#191970" points="127.0693,-61.0001 117.0692,-64.5 127.0692,-68.0001 127.0693,-61.0001"/>
</g>
<!-- Node4 -->
<g id="node4" class="node">
<title>Node4</title>
<g id="a_node4"><a xlink:href="../../d4/d79/classorg_1_1cobbzilla_1_1util_1_1security_1_1CryptoUtil_aff92a69c1906791656e1b7d0bdc78c53.html#aff92a69c1906791656e1b7d0bdc78c53" target="_top" xlink:title="org.cobbzilla.util.security.\lCryptoUtil.string_decrypt">
<polygon fill="none" stroke="#000000" points="153,-.5 153,-30.5 281,-30.5 281,-.5 153,-.5"/>
<text text-anchor="start" x="161" y="-18.5" font-family="Helvetica,sans-Serif" font-size="10.00" fill="#000000">org.cobbzilla.util.security.</text>
<text text-anchor="middle" x="217" y="-7.5" font-family="Helvetica,sans-Serif" font-size="10.00" fill="#000000">CryptoUtil.string_decrypt</text>
</a>
</g>
</g>
<!-- Node1&#45;&gt;Node4 -->
<g id="edge3" class="edge">
<title>Node1&#45;&gt;Node4</title>
<path fill="none" stroke="#191970" d="M117.0897,-46.3871C133.9402,-41.1778 152.1304,-35.5543 168.3128,-30.5516"/>
<polygon fill="#191970" stroke="#191970" points="115.8686,-43.1011 107.3485,-49.3986 117.9362,-49.7888 115.8686,-43.1011"/>
</g>
<!-- Node5 -->
<g id="node5" class="node">
<title>Node5</title>
<g id="a_node5"><a xlink:href="../../d5/d86/classorg_1_1cobbzilla_1_1util_1_1security_1_1CryptoUtilTest_ae837f104c4898cea00b8565e0b1a5022.html#ae837f104c4898cea00b8565e0b1a5022" target="_top" xlink:title="org.cobbzilla.util.security.\lCryptoUtilTest.testStringEncryption">
<polygon fill="none" stroke="#000000" points="317,-.5 317,-30.5 489,-30.5 489,-.5 317,-.5"/>
<text text-anchor="start" x="325" y="-18.5" font-family="Helvetica,sans-Serif" font-size="10.00" fill="#000000">org.cobbzilla.util.security.</text>
<text text-anchor="middle" x="403" y="-7.5" font-family="Helvetica,sans-Serif" font-size="10.00" fill="#000000">CryptoUtilTest.testStringEncryption</text>
</a>
</g>
</g>
<!-- Node4&#45;&gt;Node5 -->
<g id="edge4" class="edge">
<title>Node4&#45;&gt;Node5</title>
<path fill="none" stroke="#191970" d="M291.1813,-15.5C299.6235,-15.5 308.2816,-15.5 316.8613,-15.5"/>
<polygon fill="#191970" stroke="#191970" points="291.0107,-12.0001 281.0106,-15.5 291.0106,-19.0001 291.0107,-12.0001"/>
</g>
</g>
</svg>
