<?xml version="1.0" encoding="UTF-8" standalone="no"?>
<!DOCTYPE svg PUBLIC "-//W3C//DTD SVG 1.1//EN"
 "http://www.w3.org/Graphics/SVG/1.1/DTD/svg11.dtd">
<!-- Generated by graphviz version 2.40.1 (20161225.0304)
 -->
<!-- Title: org.cobbzilla.util.string.Base64.encodeBytesToBytes Pages: 1 -->
<svg width="633pt" height="88pt"
 viewBox="0.00 0.00 633.00 88.00" xmlns="http://www.w3.org/2000/svg" xmlns:xlink="http://www.w3.org/1999/xlink">
<g id="graph0" class="graph" transform="scale(1 1) rotate(0) translate(4 84)">
<title>org.cobbzilla.util.string.Base64.encodeBytesToBytes</title>
<!-- Node0 -->
<g id="node1" class="node">
<title>Node0</title>
<polygon fill="#bfbfbf" stroke="#000000" points="0,-27.5 0,-57.5 146,-57.5 146,-27.5 0,-27.5"/>
<text text-anchor="start" x="8" y="-45.5" font-family="Helvetica,sans-Serif" font-size="10.00" fill="#000000">org.cobbzilla.util.string.</text>
<text text-anchor="middle" x="73" y="-34.5" font-family="Helvetica,sans-Serif" font-size="10.00" fill="#000000">Base64.encodeBytesToBytes</text>
</g>
<!-- Node1 -->
<g id="node2" class="node">
<title>Node1</title>
<g id="a_node2"><a xlink:href="../../df/da0/classorg_1_1cobbzilla_1_1util_1_1string_1_1Base64_a65d2008e80f41c490a035b77f4628348.html#a65d2008e80f41c490a035b77f4628348" target="_top" xlink:title="Encodes up to the first three bytes of array threeBytes and returns a four&#45;byte array in Base64 notat...">
<polygon fill="none" stroke="#000000" points="355,-49.5 355,-79.5 472,-79.5 472,-49.5 355,-49.5"/>
<text text-anchor="start" x="363" y="-67.5" font-family="Helvetica,sans-Serif" font-size="10.00" fill="#000000">org.cobbzilla.util.string.</text>
<text text-anchor="middle" x="413.5" y="-56.5" font-family="Helvetica,sans-Serif" font-size="10.00" fill="#000000">Base64.encode3to4</text>
</a>
</g>
</g>
<!-- Node0&#45;&gt;Node1 -->
<g id="edge1" class="edge">
<title>Node0&#45;&gt;Node1</title>
<path fill="none" stroke="#191970" d="M146.0458,-47.2196C204.9431,-51.025 287.1815,-56.3384 344.8697,-60.0657"/>
<polygon fill="#191970" stroke="#191970" points="344.78,-63.5671 354.9849,-60.7193 345.2314,-56.5817 344.78,-63.5671"/>
</g>
<!-- Node2 -->
<g id="node3" class="node">
<title>Node2</title>
<g id="a_node3"><a xlink:href="../../db/d5e/classorg_1_1cobbzilla_1_1util_1_1string_1_1Base64_1_1OutputStream_a33e8e63bbc4ae6bf75678eaaefa57b87.html#a33e8e63bbc4ae6bf75678eaaefa57b87" target="_top" xlink:title="Writes the byte to the output stream after converting to/from Base64 notation. ">
<polygon fill="none" stroke="#000000" points="182,-5.5 182,-35.5 319,-35.5 319,-5.5 182,-5.5"/>
<text text-anchor="start" x="190" y="-23.5" font-family="Helvetica,sans-Serif" font-size="10.00" fill="#000000">org.cobbzilla.util.string.</text>
<text text-anchor="middle" x="250.5" y="-12.5" font-family="Helvetica,sans-Serif" font-size="10.00" fill="#000000">Base64.OutputStream.write</text>
</a>
</g>
</g>
<!-- Node0&#45;&gt;Node2 -->
<g id="edge2" class="edge">
<title>Node0&#45;&gt;Node2</title>
<path fill="none" stroke="#191970" d="M146.2208,-33.4247C154.5716,-32.3897 163.1117,-31.3312 171.5328,-30.2875"/>
<polygon fill="#191970" stroke="#191970" points="172.2315,-33.7278 181.725,-29.0242 171.3704,-26.7809 172.2315,-33.7278"/>
</g>
<!-- Node2&#45;&gt;Node1 -->
<g id="edge3" class="edge">
<title>Node2&#45;&gt;Node1</title>
<path fill="none" stroke="#191970" d="M306.1395,-35.5192C319.5721,-39.1452 334.0503,-43.0534 347.8922,-46.7899"/>
<polygon fill="#191970" stroke="#191970" points="347.2681,-50.2467 357.8347,-49.4738 349.0925,-43.4886 347.2681,-50.2467"/>
</g>
<!-- Node3 -->
<g id="node4" class="node">
<title>Node3</title>
<g id="a_node4"><a xlink:href="../../df/da0/classorg_1_1cobbzilla_1_1util_1_1string_1_1Base64_ac381dcac205c5ff0ae28dada8c04505b.html#ac381dcac205c5ff0ae28dada8c04505b" target="_top" xlink:title="Decodes four bytes from array source and writes the resulting bytes (up to three of them) to destinat...">
<polygon fill="none" stroke="#000000" points="355,-.5 355,-30.5 472,-30.5 472,-.5 355,-.5"/>
<text text-anchor="start" x="363" y="-18.5" font-family="Helvetica,sans-Serif" font-size="10.00" fill="#000000">org.cobbzilla.util.string.</text>
<text text-anchor="middle" x="413.5" y="-7.5" font-family="Helvetica,sans-Serif" font-size="10.00" fill="#000000">Base64.decode4to3</text>
</a>
</g>
</g>
<!-- Node2&#45;&gt;Node3 -->
<g id="edge4" class="edge">
<title>Node2&#45;&gt;Node3</title>
<path fill="none" stroke="#191970" d="M319.1543,-18.394C327.6284,-18.1341 336.2927,-17.8683 344.768,-17.6083"/>
<polygon fill="#191970" stroke="#191970" points="345.099,-21.0999 354.9869,-17.2949 344.8843,-14.1032 345.099,-21.0999"/>
</g>
<!-- Node4 -->
<g id="node5" class="node">
<title>Node4</title>
<g id="a_node5"><a xlink:href="../../df/da0/classorg_1_1cobbzilla_1_1util_1_1string_1_1Base64_aac1f79f712d42154ced1cddbc3f037dc.html#aac1f79f712d42154ced1cddbc3f037dc" target="_top" xlink:title="Returns one of the _SOMETHING_DECODABET byte arrays depending on the options specified. ">
<polygon fill="none" stroke="#000000" points="508,-.5 508,-30.5 625,-30.5 625,-.5 508,-.5"/>
<text text-anchor="start" x="516" y="-18.5" font-family="Helvetica,sans-Serif" font-size="10.00" fill="#000000">org.cobbzilla.util.string.</text>
<text text-anchor="middle" x="566.5" y="-7.5" font-family="Helvetica,sans-Serif" font-size="10.00" fill="#000000">Base64.getDecodabet</text>
</a>
</g>
</g>
<!-- Node3&#45;&gt;Node4 -->
<g id="edge5" class="edge">
<title>Node3&#45;&gt;Node4</title>
<path fill="none" stroke="#191970" d="M472.2162,-15.5C480.5439,-15.5 489.1693,-15.5 497.6671,-15.5"/>
<polygon fill="#191970" stroke="#191970" points="497.9409,-19.0001 507.9409,-15.5 497.9409,-12.0001 497.9409,-19.0001"/>
</g>
</g>
</svg>
