<?xml version="1.0" encoding="UTF-8" standalone="no"?>
<!DOCTYPE svg PUBLIC "-//W3C//DTD SVG 1.1//EN"
 "http://www.w3.org/Graphics/SVG/1.1/DTD/svg11.dtd">
<!-- Generated by graphviz version 2.40.1 (20161225.0304)
 -->
<!-- Title: org.cobbzilla.util.string.Base64.decode Pages: 1 -->
<svg width="431pt" height="61pt"
 viewBox="0.00 0.00 431.00 61.00" xmlns="http://www.w3.org/2000/svg" xmlns:xlink="http://www.w3.org/1999/xlink">
<g id="graph0" class="graph" transform="scale(1 1) rotate(0) translate(4 57)">
<title>org.cobbzilla.util.string.Base64.decode</title>
<!-- Node0 -->
<g id="node1" class="node">
<title>Node0</title>
<polygon fill="#bfbfbf" stroke="#000000" points="0,-.5 0,-30.5 117,-30.5 117,-.5 0,-.5"/>
<text text-anchor="start" x="8" y="-18.5" font-family="Helvetica,sans-Serif" font-size="10.00" fill="#000000">org.cobbzilla.util.string.</text>
<text text-anchor="middle" x="58.5" y="-7.5" font-family="Helvetica,sans-Serif" font-size="10.00" fill="#000000">Base64.decode</text>
</g>
<!-- Node1 -->
<g id="node2" class="node">
<title>Node1</title>
<g id="a_node2"><a xlink:href="../../df/da0/classorg_1_1cobbzilla_1_1util_1_1string_1_1Base64_ac381dcac205c5ff0ae28dada8c04505b.html#ac381dcac205c5ff0ae28dada8c04505b" target="_top" xlink:title="Decodes four bytes from array source and writes the resulting bytes (up to three of them) to destinat...">
<polygon fill="none" stroke="#000000" points="153,-22.5 153,-52.5 270,-52.5 270,-22.5 153,-22.5"/>
<text text-anchor="start" x="161" y="-40.5" font-family="Helvetica,sans-Serif" font-size="10.00" fill="#000000">org.cobbzilla.util.string.</text>
<text text-anchor="middle" x="211.5" y="-29.5" font-family="Helvetica,sans-Serif" font-size="10.00" fill="#000000">Base64.decode4to3</text>
</a>
</g>
</g>
<!-- Node0&#45;&gt;Node1 -->
<g id="edge1" class="edge">
<title>Node0&#45;&gt;Node1</title>
<path fill="none" stroke="#191970" d="M117.2162,-23.9429C125.6354,-25.1535 134.3589,-26.4078 142.9473,-27.6427"/>
<polygon fill="#191970" stroke="#191970" points="142.5445,-31.1208 152.9409,-29.0797 143.5409,-24.192 142.5445,-31.1208"/>
</g>
<!-- Node2 -->
<g id="node3" class="node">
<title>Node2</title>
<g id="a_node3"><a xlink:href="../../df/da0/classorg_1_1cobbzilla_1_1util_1_1string_1_1Base64_aac1f79f712d42154ced1cddbc3f037dc.html#aac1f79f712d42154ced1cddbc3f037dc" target="_top" xlink:title="Returns one of the _SOMETHING_DECODABET byte arrays depending on the options specified. ">
<polygon fill="none" stroke="#000000" points="306,-.5 306,-30.5 423,-30.5 423,-.5 306,-.5"/>
<text text-anchor="start" x="314" y="-18.5" font-family="Helvetica,sans-Serif" font-size="10.00" fill="#000000">org.cobbzilla.util.string.</text>
<text text-anchor="middle" x="364.5" y="-7.5" font-family="Helvetica,sans-Serif" font-size="10.00" fill="#000000">Base64.getDecodabet</text>
</a>
</g>
</g>
<!-- Node0&#45;&gt;Node2 -->
<g id="edge3" class="edge">
<title>Node0&#45;&gt;Node2</title>
<path fill="none" stroke="#191970" d="M117.2246,-14.0643C129.0681,-13.8291 141.4317,-13.6224 153,-13.5 204.9971,-12.9498 218.0029,-12.9498 270,-13.5 278.3148,-13.588 287.0403,-13.7195 295.6883,-13.8738"/>
<polygon fill="#191970" stroke="#191970" points="295.7111,-17.3748 305.7754,-14.0643 295.8433,-10.376 295.7111,-17.3748"/>
</g>
<!-- Node1&#45;&gt;Node2 -->
<g id="edge2" class="edge">
<title>Node1&#45;&gt;Node2</title>
<path fill="none" stroke="#191970" d="M270.2162,-29.0571C278.6354,-27.8465 287.3589,-26.5922 295.9473,-25.3573"/>
<polygon fill="#191970" stroke="#191970" points="296.5409,-28.808 305.9409,-23.9203 295.5445,-21.8792 296.5409,-28.808"/>
</g>
</g>
</svg>
