<?xml version="1.0" encoding="UTF-8" standalone="no"?>
<!DOCTYPE svg PUBLIC "-//W3C//DTD SVG 1.1//EN"
 "http://www.w3.org/Graphics/SVG/1.1/DTD/svg11.dtd">
<!-- Generated by graphviz version 2.40.1 (20161225.0304)
 -->
<!-- Title: org.cobbzilla.util.string.Base64.encodeBytes Pages: 1 -->
<svg width="497pt" height="186pt"
 viewBox="0.00 0.00 497.00 186.00" xmlns="http://www.w3.org/2000/svg" xmlns:xlink="http://www.w3.org/1999/xlink">
<g id="graph0" class="graph" transform="scale(1 1) rotate(0) translate(4 182)">
<title>org.cobbzilla.util.string.Base64.encodeBytes</title>
<!-- Node1 -->
<g id="node1" class="node">
<title>Node1</title>
<polygon fill="#bfbfbf" stroke="#000000" points="0,-73.5 0,-103.5 117,-103.5 117,-73.5 0,-73.5"/>
<text text-anchor="start" x="8" y="-91.5" font-family="Helvetica,sans-Serif" font-size="10.00" fill="#000000">org.cobbzilla.util.string.</text>
<text text-anchor="middle" x="58.5" y="-80.5" font-family="Helvetica,sans-Serif" font-size="10.00" fill="#000000">Base64.encodeBytes</text>
</g>
<!-- Node2 -->
<g id="node2" class="node">
<title>Node2</title>
<g id="a_node2"><a xlink:href="../../df/da0/classorg_1_1cobbzilla_1_1util_1_1string_1_1Base64_accf3f9643a1970b2febc8e9e2c07cd7d.html#accf3f9643a1970b2febc8e9e2c07cd7d" target="_top" xlink:title="Encodes a byte array into Base64 notation. ">
<polygon fill="none" stroke="#000000" points="158.5,-147.5 158.5,-177.5 275.5,-177.5 275.5,-147.5 158.5,-147.5"/>
<text text-anchor="start" x="166.5" y="-165.5" font-family="Helvetica,sans-Serif" font-size="10.00" fill="#000000">org.cobbzilla.util.string.</text>
<text text-anchor="middle" x="217" y="-154.5" font-family="Helvetica,sans-Serif" font-size="10.00" fill="#000000">Base64.encodeBytes</text>
</a>
</g>
</g>
<!-- Node1&#45;&gt;Node2 -->
<g id="edge1" class="edge">
<title>Node1&#45;&gt;Node2</title>
<path fill="none" stroke="#191970" d="M93.6994,-108.5013C111.2527,-118.1193 132.9635,-129.487 153,-138.5 159.818,-141.5669 167.1562,-144.5778 174.3457,-147.3746"/>
<polygon fill="#191970" stroke="#191970" points="95.3751,-105.4284 84.9301,-103.6529 91.9881,-111.5545 95.3751,-105.4284"/>
</g>
<!-- Node3 -->
<g id="node3" class="node">
<title>Node3</title>
<g id="a_node3"><a xlink:href="../../d6/dbf/classorg_1_1cobbzilla_1_1util_1_1security_1_1ShaUtil_aea138aa42746f3c338ecb68f3acdda64.html#aea138aa42746f3c338ecb68f3acdda64" target="_top" xlink:title="org.cobbzilla.util.security.\lShaUtil.sha256_base64">
<polygon fill="none" stroke="#000000" points="153,-98.5 153,-128.5 281,-128.5 281,-98.5 153,-98.5"/>
<text text-anchor="start" x="161" y="-116.5" font-family="Helvetica,sans-Serif" font-size="10.00" fill="#000000">org.cobbzilla.util.security.</text>
<text text-anchor="middle" x="217" y="-105.5" font-family="Helvetica,sans-Serif" font-size="10.00" fill="#000000">ShaUtil.sha256_base64</text>
</a>
</g>
</g>
<!-- Node1&#45;&gt;Node3 -->
<g id="edge2" class="edge">
<title>Node1&#45;&gt;Node3</title>
<path fill="none" stroke="#191970" d="M127.0182,-99.3073C135.5807,-100.6578 144.3136,-102.0353 152.8069,-103.3749"/>
<polygon fill="#191970" stroke="#191970" points="127.4924,-95.8389 117.0692,-97.738 126.4018,-102.7534 127.4924,-95.8389"/>
</g>
<!-- Node4 -->
<g id="node4" class="node">
<title>Node4</title>
<g id="a_node4"><a xlink:href="../../d6/dbf/classorg_1_1cobbzilla_1_1util_1_1security_1_1ShaUtil_ad313f48f05610163c5b22d5c3bcde0a9.html#ad313f48f05610163c5b22d5c3bcde0a9" target="_top" xlink:title="org.cobbzilla.util.security.\lShaUtil.sha256_filename">
<polygon fill="none" stroke="#000000" points="153,-49.5 153,-79.5 281,-79.5 281,-49.5 153,-49.5"/>
<text text-anchor="start" x="161" y="-67.5" font-family="Helvetica,sans-Serif" font-size="10.00" fill="#000000">org.cobbzilla.util.security.</text>
<text text-anchor="middle" x="217" y="-56.5" font-family="Helvetica,sans-Serif" font-size="10.00" fill="#000000">ShaUtil.sha256_filename</text>
</a>
</g>
</g>
<!-- Node1&#45;&gt;Node4 -->
<g id="edge3" class="edge">
<title>Node1&#45;&gt;Node4</title>
<path fill="none" stroke="#191970" d="M127.0182,-78.125C135.5807,-76.8285 144.3136,-75.5061 152.8069,-74.2201"/>
<polygon fill="#191970" stroke="#191970" points="126.4325,-74.6737 117.0692,-79.6315 127.4805,-81.5948 126.4325,-74.6737"/>
</g>
<!-- Node5 -->
<g id="node5" class="node">
<title>Node5</title>
<g id="a_node5"><a xlink:href="../../d4/d79/classorg_1_1cobbzilla_1_1util_1_1security_1_1CryptoUtil_a02e1787e0e185ff4bc04c89d9cd17dba.html#a02e1787e0e185ff4bc04c89d9cd17dba" target="_top" xlink:title="org.cobbzilla.util.security.\lCryptoUtil.string_encrypt">
<polygon fill="none" stroke="#000000" points="153,-.5 153,-30.5 281,-30.5 281,-.5 153,-.5"/>
<text text-anchor="start" x="161" y="-18.5" font-family="Helvetica,sans-Serif" font-size="10.00" fill="#000000">org.cobbzilla.util.security.</text>
<text text-anchor="middle" x="217" y="-7.5" font-family="Helvetica,sans-Serif" font-size="10.00" fill="#000000">CryptoUtil.string_encrypt</text>
</a>
</g>
</g>
<!-- Node1&#45;&gt;Node5 -->
<g id="edge4" class="edge">
<title>Node1&#45;&gt;Node5</title>
<path fill="none" stroke="#191970" d="M95.4609,-68.6713C112.7481,-59.6708 133.7299,-49.133 153,-40.5 160.6204,-37.0861 168.8585,-33.67 176.8068,-30.5081"/>
<polygon fill="#191970" stroke="#191970" points="93.5012,-65.7469 86.2713,-73.4916 96.7528,-71.9459 93.5012,-65.7469"/>
</g>
<!-- Node6 -->
<g id="node6" class="node">
<title>Node6</title>
<g id="a_node6"><a xlink:href="../../d5/d86/classorg_1_1cobbzilla_1_1util_1_1security_1_1CryptoUtilTest_ae837f104c4898cea00b8565e0b1a5022.html#ae837f104c4898cea00b8565e0b1a5022" target="_top" xlink:title="org.cobbzilla.util.security.\lCryptoUtilTest.testStringEncryption">
<polygon fill="none" stroke="#000000" points="317,-.5 317,-30.5 489,-30.5 489,-.5 317,-.5"/>
<text text-anchor="start" x="325" y="-18.5" font-family="Helvetica,sans-Serif" font-size="10.00" fill="#000000">org.cobbzilla.util.security.</text>
<text text-anchor="middle" x="403" y="-7.5" font-family="Helvetica,sans-Serif" font-size="10.00" fill="#000000">CryptoUtilTest.testStringEncryption</text>
</a>
</g>
</g>
<!-- Node5&#45;&gt;Node6 -->
<g id="edge5" class="edge">
<title>Node5&#45;&gt;Node6</title>
<path fill="none" stroke="#191970" d="M291.1813,-15.5C299.6235,-15.5 308.2816,-15.5 316.8613,-15.5"/>
<polygon fill="#191970" stroke="#191970" points="291.0107,-12.0001 281.0106,-15.5 291.0106,-19.0001 291.0107,-12.0001"/>
</g>
</g>
</svg>
