<?xml version="1.0" encoding="UTF-8" standalone="no"?>
<!DOCTYPE svg PUBLIC "-//W3C//DTD SVG 1.1//EN"
 "http://www.w3.org/Graphics/SVG/1.1/DTD/svg11.dtd">
<!-- Generated by graphviz version 2.40.1 (20161225.0304)
 -->
<!-- Title: org.cobbzilla.util.string.Base64.encode3to4 Pages: 1 -->
<svg width="513pt" height="277pt"
 viewBox="0.00 0.00 513.00 277.00" xmlns="http://www.w3.org/2000/svg" xmlns:xlink="http://www.w3.org/1999/xlink">
<g id="graph0" class="graph" transform="scale(1 1) rotate(0) translate(4 273)">
<title>org.cobbzilla.util.string.Base64.encode3to4</title>
<!-- Node1 -->
<g id="node1" class="node">
<title>Node1</title>
<polygon fill="#bfbfbf" stroke="#000000" points="0,-140.5 0,-170.5 117,-170.5 117,-140.5 0,-140.5"/>
<text text-anchor="start" x="8" y="-158.5" font-family="Helvetica,sans-Serif" font-size="10.00" fill="#000000">org.cobbzilla.util.string.</text>
<text text-anchor="middle" x="58.5" y="-147.5" font-family="Helvetica,sans-Serif" font-size="10.00" fill="#000000">Base64.encode3to4</text>
</g>
<!-- Node2 -->
<g id="node2" class="node">
<title>Node2</title>
<g id="a_node2"><a xlink:href="../../df/da0/classorg_1_1cobbzilla_1_1util_1_1string_1_1Base64_a7dc0ba09b68ce811a4f14e6fa5911a63.html#a7dc0ba09b68ce811a4f14e6fa5911a63" target="_top" xlink:title="Performs Base64 encoding on the raw ByteBuffer, writing it to the encoded ByteBuffer. ">
<polygon fill="none" stroke="#000000" points="179.5,-238.5 179.5,-268.5 296.5,-268.5 296.5,-238.5 179.5,-238.5"/>
<text text-anchor="start" x="187.5" y="-256.5" font-family="Helvetica,sans-Serif" font-size="10.00" fill="#000000">org.cobbzilla.util.string.</text>
<text text-anchor="middle" x="238" y="-245.5" font-family="Helvetica,sans-Serif" font-size="10.00" fill="#000000">Base64.encode</text>
</a>
</g>
</g>
<!-- Node1&#45;&gt;Node2 -->
<g id="edge1" class="edge">
<title>Node1&#45;&gt;Node2</title>
<path fill="none" stroke="#191970" d="M81.5906,-177.815C99.7053,-194.2148 126.2526,-215.9213 153,-229.5 161.2037,-233.6647 170.2312,-237.1956 179.2455,-240.161"/>
<polygon fill="#191970" stroke="#191970" points="83.611,-174.9165 73.8906,-170.7016 78.8609,-180.0582 83.611,-174.9165"/>
</g>
<!-- Node3 -->
<g id="node3" class="node">
<title>Node3</title>
<g id="a_node3"><a xlink:href="../../df/da0/classorg_1_1cobbzilla_1_1util_1_1string_1_1Base64_a916d490d7018d3d96f58bf898c8215ab.html#a916d490d7018d3d96f58bf898c8215ab" target="_top" xlink:title="Similar to encodeBytes(byte[], int, int, int) but returns a byte array instead of instantiating a Str...">
<polygon fill="none" stroke="#000000" points="359,-98.5 359,-128.5 505,-128.5 505,-98.5 359,-98.5"/>
<text text-anchor="start" x="367" y="-116.5" font-family="Helvetica,sans-Serif" font-size="10.00" fill="#000000">org.cobbzilla.util.string.</text>
<text text-anchor="middle" x="432" y="-105.5" font-family="Helvetica,sans-Serif" font-size="10.00" fill="#000000">Base64.encodeBytesToBytes</text>
</a>
</g>
</g>
<!-- Node1&#45;&gt;Node3 -->
<g id="edge2" class="edge">
<title>Node1&#45;&gt;Node3</title>
<path fill="none" stroke="#191970" d="M120.4076,-138.0461C131.2019,-135.5007 142.3749,-133.1773 153,-131.5 222.2798,-120.5635 302.2406,-116.2383 358.7516,-114.5454"/>
<polygon fill="#191970" stroke="#191970" points="119.512,-134.6619 110.6275,-140.434 121.1724,-141.4621 119.512,-134.6619"/>
</g>
<!-- Node4 -->
<g id="node4" class="node">
<title>Node4</title>
<g id="a_node4"><a xlink:href="../../db/d5e/classorg_1_1cobbzilla_1_1util_1_1string_1_1Base64_1_1OutputStream_a113ba9464758e66b828d8c1412d81803.html#a113ba9464758e66b828d8c1412d81803" target="_top" xlink:title="Method added by PHIL. ">
<polygon fill="none" stroke="#000000" points="153,-140.5 153,-170.5 323,-170.5 323,-140.5 153,-140.5"/>
<text text-anchor="start" x="161" y="-158.5" font-family="Helvetica,sans-Serif" font-size="10.00" fill="#000000">org.cobbzilla.util.string.</text>
<text text-anchor="middle" x="238" y="-147.5" font-family="Helvetica,sans-Serif" font-size="10.00" fill="#000000">Base64.OutputStream.flushBase64</text>
</a>
</g>
</g>
<!-- Node1&#45;&gt;Node4 -->
<g id="edge3" class="edge">
<title>Node1&#45;&gt;Node4</title>
<path fill="none" stroke="#191970" d="M127.285,-155.5C135.6121,-155.5 144.1943,-155.5 152.7224,-155.5"/>
<polygon fill="#191970" stroke="#191970" points="127.275,-152.0001 117.275,-155.5 127.275,-159.0001 127.275,-152.0001"/>
</g>
<!-- Node5 -->
<g id="node5" class="node">
<title>Node5</title>
<g id="a_node5"><a xlink:href="../../dd/de6/classorg_1_1cobbzilla_1_1util_1_1string_1_1Base64_1_1InputStream_a676c8fb04978d792fd4a45327be8ba84.html#a676c8fb04978d792fd4a45327be8ba84" target="_top" xlink:title="Reads enough of the input stream to convert to/from Base64 and returns the next byte. ">
<polygon fill="none" stroke="#000000" points="174,-189.5 174,-219.5 302,-219.5 302,-189.5 174,-189.5"/>
<text text-anchor="start" x="182" y="-207.5" font-family="Helvetica,sans-Serif" font-size="10.00" fill="#000000">org.cobbzilla.util.string.</text>
<text text-anchor="middle" x="238" y="-196.5" font-family="Helvetica,sans-Serif" font-size="10.00" fill="#000000">Base64.InputStream.read</text>
</a>
</g>
</g>
<!-- Node1&#45;&gt;Node5 -->
<g id="edge4" class="edge">
<title>Node1&#45;&gt;Node5</title>
<path fill="none" stroke="#191970" d="M123.5174,-173.2485C142.9716,-178.5591 164.1075,-184.3288 182.8621,-189.4484"/>
<polygon fill="#191970" stroke="#191970" points="124.3893,-169.8585 113.8206,-170.6014 122.5459,-176.6114 124.3893,-169.8585"/>
</g>
<!-- Node7 -->
<g id="node7" class="node">
<title>Node7</title>
<g id="a_node7"><a xlink:href="../../db/d5e/classorg_1_1cobbzilla_1_1util_1_1string_1_1Base64_1_1OutputStream_a33e8e63bbc4ae6bf75678eaaefa57b87.html#a33e8e63bbc4ae6bf75678eaaefa57b87" target="_top" xlink:title="Writes the byte to the output stream after converting to/from Base64 notation. ">
<polygon fill="none" stroke="#000000" points="169.5,-51.5 169.5,-81.5 306.5,-81.5 306.5,-51.5 169.5,-51.5"/>
<text text-anchor="start" x="177.5" y="-69.5" font-family="Helvetica,sans-Serif" font-size="10.00" fill="#000000">org.cobbzilla.util.string.</text>
<text text-anchor="middle" x="238" y="-58.5" font-family="Helvetica,sans-Serif" font-size="10.00" fill="#000000">Base64.OutputStream.write</text>
</a>
</g>
</g>
<!-- Node1&#45;&gt;Node7 -->
<g id="edge6" class="edge">
<title>Node1&#45;&gt;Node7</title>
<path fill="none" stroke="#191970" d="M88.7274,-134.7903C106.8545,-122.9251 130.657,-108.2955 153,-97.5 165.1633,-91.6231 178.7469,-86.1962 191.424,-81.5803"/>
<polygon fill="#191970" stroke="#191970" points="86.7185,-131.9228 80.3159,-140.3641 90.5852,-137.758 86.7185,-131.9228"/>
</g>
<!-- Node6 -->
<g id="node6" class="node">
<title>Node6</title>
<g id="a_node6"><a xlink:href="../../dd/de6/classorg_1_1cobbzilla_1_1util_1_1string_1_1Base64_1_1InputStream_a946245877feaf35380c340d739626d8c.html#a946245877feaf35380c340d739626d8c" target="_top" xlink:title="Calls read() repeatedly until the end of stream is reached or len bytes are read. ...">
<polygon fill="none" stroke="#000000" points="368,-189.5 368,-219.5 496,-219.5 496,-189.5 368,-189.5"/>
<text text-anchor="start" x="376" y="-207.5" font-family="Helvetica,sans-Serif" font-size="10.00" fill="#000000">org.cobbzilla.util.string.</text>
<text text-anchor="middle" x="432" y="-196.5" font-family="Helvetica,sans-Serif" font-size="10.00" fill="#000000">Base64.InputStream.read</text>
</a>
</g>
</g>
<!-- Node5&#45;&gt;Node6 -->
<g id="edge5" class="edge">
<title>Node5&#45;&gt;Node6</title>
<path fill="none" stroke="#191970" d="M312.0964,-204.5C330.4071,-204.5 349.8727,-204.5 367.6755,-204.5"/>
<polygon fill="#191970" stroke="#191970" points="312.0605,-201.0001 302.0605,-204.5 312.0605,-208.0001 312.0605,-201.0001"/>
</g>
<!-- Node7&#45;&gt;Node3 -->
<g id="edge7" class="edge">
<title>Node7&#45;&gt;Node3</title>
<path fill="none" stroke="#191970" d="M309.7919,-83.8929C329.5645,-88.6832 350.8387,-93.8372 370.0066,-98.481"/>
<polygon fill="#191970" stroke="#191970" points="310.4592,-80.4534 299.9162,-81.5003 308.8109,-87.2566 310.4592,-80.4534"/>
</g>
<!-- Node8 -->
<g id="node8" class="node">
<title>Node8</title>
<g id="a_node8"><a xlink:href="../../df/da0/classorg_1_1cobbzilla_1_1util_1_1string_1_1Base64_a53b5c3d9bdf6febdebfab346a00aa844.html#a53b5c3d9bdf6febdebfab346a00aa844" target="_top" xlink:title="Convenience method for encoding data to a file. ">
<polygon fill="none" stroke="#000000" points="373.5,-49.5 373.5,-79.5 490.5,-79.5 490.5,-49.5 373.5,-49.5"/>
<text text-anchor="start" x="381.5" y="-67.5" font-family="Helvetica,sans-Serif" font-size="10.00" fill="#000000">org.cobbzilla.util.string.</text>
<text text-anchor="middle" x="432" y="-56.5" font-family="Helvetica,sans-Serif" font-size="10.00" fill="#000000">Base64.encodeToFile</text>
</a>
</g>
</g>
<!-- Node7&#45;&gt;Node8 -->
<g id="edge8" class="edge">
<title>Node7&#45;&gt;Node8</title>
<path fill="none" stroke="#191970" d="M316.7616,-65.688C335.6832,-65.493 355.5655,-65.288 373.3865,-65.1043"/>
<polygon fill="#191970" stroke="#191970" points="316.6335,-62.1891 306.6702,-65.7921 316.7057,-69.1887 316.6335,-62.1891"/>
</g>
<!-- Node9 -->
<g id="node9" class="node">
<title>Node9</title>
<g id="a_node9"><a xlink:href="../../df/da0/classorg_1_1cobbzilla_1_1util_1_1string_1_1Base64_ab9263de69fedb1401b877e7168c7550b.html#ab9263de69fedb1401b877e7168c7550b" target="_top" xlink:title="Convenience method for decoding data to a file. ">
<polygon fill="none" stroke="#000000" points="373.5,-.5 373.5,-30.5 490.5,-30.5 490.5,-.5 373.5,-.5"/>
<text text-anchor="start" x="381.5" y="-18.5" font-family="Helvetica,sans-Serif" font-size="10.00" fill="#000000">org.cobbzilla.util.string.</text>
<text text-anchor="middle" x="432" y="-7.5" font-family="Helvetica,sans-Serif" font-size="10.00" fill="#000000">Base64.decodeToFile</text>
</a>
</g>
</g>
<!-- Node7&#45;&gt;Node9 -->
<g id="edge9" class="edge">
<title>Node7&#45;&gt;Node9</title>
<path fill="none" stroke="#191970" d="M305.0793,-48.8658C327.8312,-42.8846 353.0177,-36.2634 374.9165,-30.5065"/>
<polygon fill="#191970" stroke="#191970" points="303.9386,-45.5466 295.1571,-51.4742 305.7184,-52.3166 303.9386,-45.5466"/>
</g>
</g>
</svg>
