<?xml version="1.0" encoding="UTF-8" standalone="no"?>
<!DOCTYPE svg PUBLIC "-//W3C//DTD SVG 1.1//EN"
 "http://www.w3.org/Graphics/SVG/1.1/DTD/svg11.dtd">
<!-- Generated by graphviz version 2.40.1 (20161225.0304)
 -->
<!-- Title: org.cobbzilla.util.string.Base64.decode4to3 Pages: 1 -->
<svg width="480pt" height="222pt"
 viewBox="0.00 0.00 480.00 222.00" xmlns="http://www.w3.org/2000/svg" xmlns:xlink="http://www.w3.org/1999/xlink">
<g id="graph0" class="graph" transform="scale(1 1) rotate(0) translate(4 218)">
<title>org.cobbzilla.util.string.Base64.decode4to3</title>
<!-- Node2 -->
<g id="node1" class="node">
<title>Node2</title>
<polygon fill="#bfbfbf" stroke="#000000" points="0,-134.5 0,-164.5 117,-164.5 117,-134.5 0,-134.5"/>
<text text-anchor="start" x="8" y="-152.5" font-family="Helvetica,sans-Serif" font-size="10.00" fill="#000000">org.cobbzilla.util.string.</text>
<text text-anchor="middle" x="58.5" y="-141.5" font-family="Helvetica,sans-Serif" font-size="10.00" fill="#000000">Base64.decode4to3</text>
</g>
<!-- Node3 -->
<g id="node2" class="node">
<title>Node3</title>
<g id="a_node2"><a xlink:href="../../df/da0/classorg_1_1cobbzilla_1_1util_1_1string_1_1Base64_a1d6682fa198beeea320b83297f3f05e7.html#a1d6682fa198beeea320b83297f3f05e7" target="_top" xlink:title="Low&#45;level access to decoding ASCII characters in the form of a byte array. ">
<polygon fill="none" stroke="#000000" points="163,-183.5 163,-213.5 280,-213.5 280,-183.5 163,-183.5"/>
<text text-anchor="start" x="171" y="-201.5" font-family="Helvetica,sans-Serif" font-size="10.00" fill="#000000">org.cobbzilla.util.string.</text>
<text text-anchor="middle" x="221.5" y="-190.5" font-family="Helvetica,sans-Serif" font-size="10.00" fill="#000000">Base64.decode</text>
</a>
</g>
</g>
<!-- Node2&#45;&gt;Node3 -->
<g id="edge1" class="edge">
<title>Node2&#45;&gt;Node3</title>
<path fill="none" stroke="#191970" d="M118.7532,-167.6129C136.0821,-172.8222 154.7886,-178.4457 171.4305,-183.4484"/>
<polygon fill="#191970" stroke="#191970" points="119.3197,-164.1285 108.7354,-164.6014 117.3044,-170.8322 119.3197,-164.1285"/>
</g>
<!-- Node4 -->
<g id="node3" class="node">
<title>Node4</title>
<g id="a_node3"><a xlink:href="../../dd/de6/classorg_1_1cobbzilla_1_1util_1_1string_1_1Base64_1_1InputStream_a676c8fb04978d792fd4a45327be8ba84.html#a676c8fb04978d792fd4a45327be8ba84" target="_top" xlink:title="Reads enough of the input stream to convert to/from Base64 and returns the next byte. ">
<polygon fill="none" stroke="#000000" points="157.5,-134.5 157.5,-164.5 285.5,-164.5 285.5,-134.5 157.5,-134.5"/>
<text text-anchor="start" x="165.5" y="-152.5" font-family="Helvetica,sans-Serif" font-size="10.00" fill="#000000">org.cobbzilla.util.string.</text>
<text text-anchor="middle" x="221.5" y="-141.5" font-family="Helvetica,sans-Serif" font-size="10.00" fill="#000000">Base64.InputStream.read</text>
</a>
</g>
</g>
<!-- Node2&#45;&gt;Node4 -->
<g id="edge2" class="edge">
<title>Node2&#45;&gt;Node4</title>
<path fill="none" stroke="#191970" d="M127.5023,-149.5C137.3582,-149.5 147.464,-149.5 157.2243,-149.5"/>
<polygon fill="#191970" stroke="#191970" points="127.3468,-146.0001 117.3467,-149.5 127.3467,-153.0001 127.3468,-146.0001"/>
</g>
<!-- Node6 -->
<g id="node5" class="node">
<title>Node6</title>
<g id="a_node5"><a xlink:href="../../db/d5e/classorg_1_1cobbzilla_1_1util_1_1string_1_1Base64_1_1OutputStream_a33e8e63bbc4ae6bf75678eaaefa57b87.html#a33e8e63bbc4ae6bf75678eaaefa57b87" target="_top" xlink:title="Writes the byte to the output stream after converting to/from Base64 notation. ">
<polygon fill="none" stroke="#000000" points="153,-73.5 153,-103.5 290,-103.5 290,-73.5 153,-73.5"/>
<text text-anchor="start" x="161" y="-91.5" font-family="Helvetica,sans-Serif" font-size="10.00" fill="#000000">org.cobbzilla.util.string.</text>
<text text-anchor="middle" x="221.5" y="-80.5" font-family="Helvetica,sans-Serif" font-size="10.00" fill="#000000">Base64.OutputStream.write</text>
</a>
</g>
</g>
<!-- Node2&#45;&gt;Node6 -->
<g id="edge4" class="edge">
<title>Node2&#45;&gt;Node6</title>
<path fill="none" stroke="#191970" d="M108.2242,-130.8915C131.6786,-122.1141 159.2959,-111.7788 181.3892,-103.5108"/>
<polygon fill="#191970" stroke="#191970" points="106.9311,-127.6384 98.7921,-134.4213 109.3846,-134.1943 106.9311,-127.6384"/>
</g>
<!-- Node5 -->
<g id="node4" class="node">
<title>Node5</title>
<g id="a_node4"><a xlink:href="../../dd/de6/classorg_1_1cobbzilla_1_1util_1_1string_1_1Base64_1_1InputStream_a946245877feaf35380c340d739626d8c.html#a946245877feaf35380c340d739626d8c" target="_top" xlink:title="Calls read() repeatedly until the end of stream is reached or len bytes are read. ...">
<polygon fill="none" stroke="#000000" points="335,-147.5 335,-177.5 463,-177.5 463,-147.5 335,-147.5"/>
<text text-anchor="start" x="343" y="-165.5" font-family="Helvetica,sans-Serif" font-size="10.00" fill="#000000">org.cobbzilla.util.string.</text>
<text text-anchor="middle" x="399" y="-154.5" font-family="Helvetica,sans-Serif" font-size="10.00" fill="#000000">Base64.InputStream.read</text>
</a>
</g>
</g>
<!-- Node4&#45;&gt;Node5 -->
<g id="edge3" class="edge">
<title>Node4&#45;&gt;Node5</title>
<path fill="none" stroke="#191970" d="M295.8319,-154.944C308.7523,-155.8903 322.0915,-156.8673 334.7145,-157.7918"/>
<polygon fill="#191970" stroke="#191970" points="295.8105,-151.4332 285.5816,-154.1933 295.2992,-158.4145 295.8105,-151.4332"/>
</g>
<!-- Node7 -->
<g id="node6" class="node">
<title>Node7</title>
<g id="a_node6"><a xlink:href="../../df/da0/classorg_1_1cobbzilla_1_1util_1_1string_1_1Base64_a916d490d7018d3d96f58bf898c8215ab.html#a916d490d7018d3d96f58bf898c8215ab" target="_top" xlink:title="Similar to encodeBytes(byte[], int, int, int) but returns a byte array instead of instantiating a Str...">
<polygon fill="none" stroke="#000000" points="326,-98.5 326,-128.5 472,-128.5 472,-98.5 326,-98.5"/>
<text text-anchor="start" x="334" y="-116.5" font-family="Helvetica,sans-Serif" font-size="10.00" fill="#000000">org.cobbzilla.util.string.</text>
<text text-anchor="middle" x="399" y="-105.5" font-family="Helvetica,sans-Serif" font-size="10.00" fill="#000000">Base64.encodeBytesToBytes</text>
</a>
</g>
</g>
<!-- Node6&#45;&gt;Node7 -->
<g id="edge5" class="edge">
<title>Node6&#45;&gt;Node7</title>
<path fill="none" stroke="#191970" d="M300.1012,-99.5706C308.665,-100.7768 317.3566,-102.0009 325.8513,-103.1974"/>
<polygon fill="#191970" stroke="#191970" points="300.5166,-96.0946 290.1261,-98.1657 299.5402,-103.0262 300.5166,-96.0946"/>
</g>
<!-- Node8 -->
<g id="node7" class="node">
<title>Node8</title>
<g id="a_node7"><a xlink:href="../../df/da0/classorg_1_1cobbzilla_1_1util_1_1string_1_1Base64_a53b5c3d9bdf6febdebfab346a00aa844.html#a53b5c3d9bdf6febdebfab346a00aa844" target="_top" xlink:title="Convenience method for encoding data to a file. ">
<polygon fill="none" stroke="#000000" points="340.5,-49.5 340.5,-79.5 457.5,-79.5 457.5,-49.5 340.5,-49.5"/>
<text text-anchor="start" x="348.5" y="-67.5" font-family="Helvetica,sans-Serif" font-size="10.00" fill="#000000">org.cobbzilla.util.string.</text>
<text text-anchor="middle" x="399" y="-56.5" font-family="Helvetica,sans-Serif" font-size="10.00" fill="#000000">Base64.encodeToFile</text>
</a>
</g>
</g>
<!-- Node6&#45;&gt;Node8 -->
<g id="edge6" class="edge">
<title>Node6&#45;&gt;Node8</title>
<path fill="none" stroke="#191970" d="M300.334,-77.8408C313.7884,-76.0216 327.5506,-74.1608 340.3629,-72.4284"/>
<polygon fill="#191970" stroke="#191970" points="299.567,-74.4125 290.1261,-79.221 300.505,-81.3494 299.567,-74.4125"/>
</g>
<!-- Node9 -->
<g id="node8" class="node">
<title>Node9</title>
<g id="a_node8"><a xlink:href="../../df/da0/classorg_1_1cobbzilla_1_1util_1_1string_1_1Base64_ab9263de69fedb1401b877e7168c7550b.html#ab9263de69fedb1401b877e7168c7550b" target="_top" xlink:title="Convenience method for decoding data to a file. ">
<polygon fill="none" stroke="#000000" points="340.5,-.5 340.5,-30.5 457.5,-30.5 457.5,-.5 340.5,-.5"/>
<text text-anchor="start" x="348.5" y="-18.5" font-family="Helvetica,sans-Serif" font-size="10.00" fill="#000000">org.cobbzilla.util.string.</text>
<text text-anchor="middle" x="399" y="-7.5" font-family="Helvetica,sans-Serif" font-size="10.00" fill="#000000">Base64.decodeToFile</text>
</a>
</g>
</g>
<!-- Node6&#45;&gt;Node9 -->
<g id="edge7" class="edge">
<title>Node6&#45;&gt;Node9</title>
<path fill="none" stroke="#191970" d="M261.347,-69.0527C280.6688,-59.9182 304.3331,-49.1607 326,-40.5 334.5831,-37.0692 343.8426,-33.6716 352.7904,-30.5386"/>
<polygon fill="#191970" stroke="#191970" points="259.7622,-65.9308 252.2384,-73.3903 262.7718,-72.2508 259.7622,-65.9308"/>
</g>
</g>
</svg>
