<?xml version="1.0" encoding="UTF-8" standalone="no"?>
<!DOCTYPE svg PUBLIC "-//W3C//DTD SVG 1.1//EN"
 "http://www.w3.org/Graphics/SVG/1.1/DTD/svg11.dtd">
<!-- Generated by graphviz version 2.40.1 (20161225.0304)
 -->
<!-- Title: org.cobbzilla.util.xml.XmlUtil.MatchNodeName Pages: 1 -->
<svg width="253pt" height="437pt"
 viewBox="0.00 0.00 253.00 437.00" xmlns="http://www.w3.org/2000/svg" xmlns:xlink="http://www.w3.org/1999/xlink">
<g id="graph0" class="graph" transform="scale(1 1) rotate(0) translate(4 433)">
<title>org.cobbzilla.util.xml.XmlUtil.MatchNodeName</title>
<!-- Node5 -->
<g id="node1" class="node">
<title>Node5</title>
<polygon fill="#bfbfbf" stroke="#000000" points="39,-.5 39,-79.5 165,-79.5 165,-.5 39,-.5"/>
<text text-anchor="start" x="47" y="-67.5" font-family="Helvetica,sans-Serif" font-size="10.00" fill="#000000">org.cobbzilla.util.xml.Xml</text>
<text text-anchor="middle" x="102" y="-56.5" font-family="Helvetica,sans-Serif" font-size="10.00" fill="#000000">Util.MatchNodeName</text>
<polyline fill="none" stroke="#000000" points="39,-49.5 165,-49.5 "/>
<text text-anchor="middle" x="102" y="-37.5" font-family="Helvetica,sans-Serif" font-size="10.00" fill="#000000"> </text>
<polyline fill="none" stroke="#000000" points="39,-30.5 165,-30.5 "/>
<text text-anchor="start" x="47" y="-18.5" font-family="Helvetica,sans-Serif" font-size="10.00" fill="#000000">+ MatchNodeName()</text>
<text text-anchor="start" x="47" y="-7.5" font-family="Helvetica,sans-Serif" font-size="10.00" fill="#000000"># check()</text>
</g>
<!-- Node6 -->
<g id="node2" class="node">
<title>Node6</title>
<g id="a_node2"><a xlink:href="../../de/dc6/classorg_1_1cobbzilla_1_1util_1_1xml_1_1XmlUtil_1_1MatchNodeXMLFunction.html" target="_top" xlink:title="{org.cobbzilla.util.xml.Xml\lUtil.MatchNodeXMLFunction\n|# value\l|+ MatchNodeXMLFunction()\l+ apply()\l# check()\l}">
<polygon fill="none" stroke="#000000" points="30.5,-117.5 30.5,-207.5 173.5,-207.5 173.5,-117.5 30.5,-117.5"/>
<text text-anchor="start" x="38.5" y="-195.5" font-family="Helvetica,sans-Serif" font-size="10.00" fill="#000000">org.cobbzilla.util.xml.Xml</text>
<text text-anchor="middle" x="102" y="-184.5" font-family="Helvetica,sans-Serif" font-size="10.00" fill="#000000">Util.MatchNodeXMLFunction</text>
<polyline fill="none" stroke="#000000" points="30.5,-177.5 173.5,-177.5 "/>
<text text-anchor="start" x="38.5" y="-165.5" font-family="Helvetica,sans-Serif" font-size="10.00" fill="#000000"># value</text>
<polyline fill="none" stroke="#000000" points="30.5,-158.5 173.5,-158.5 "/>
<text text-anchor="start" x="38.5" y="-146.5" font-family="Helvetica,sans-Serif" font-size="10.00" fill="#000000">+ MatchNodeXMLFunction()</text>
<text text-anchor="start" x="38.5" y="-135.5" font-family="Helvetica,sans-Serif" font-size="10.00" fill="#000000">+ apply()</text>
<text text-anchor="start" x="38.5" y="-124.5" font-family="Helvetica,sans-Serif" font-size="10.00" fill="#000000"># check()</text>
</a>
</g>
</g>
<!-- Node6&#45;&gt;Node5 -->
<g id="edge1" class="edge">
<title>Node6&#45;&gt;Node5</title>
<path fill="none" stroke="#191970" d="M102,-107.0079C102,-97.8464 102,-88.5116 102,-79.8331"/>
<polygon fill="none" stroke="#191970" points="98.5001,-107.2335 102,-117.2336 105.5001,-107.2336 98.5001,-107.2335"/>
</g>
<!-- Node7 -->
<g id="node3" class="node">
<title>Node7</title>
<g id="a_node3"><a xlink:href="../../d8/dba/interfaceorg_1_1cobbzilla_1_1util_1_1xml_1_1XmlElementFunction.html" target="_top" xlink:title="{org.cobbzilla.util.xml.Xml\lElementFunction\n||+ apply()\l}">
<polygon fill="none" stroke="#000000" points="0,-255.5 0,-323.5 126,-323.5 126,-255.5 0,-255.5"/>
<text text-anchor="start" x="8" y="-311.5" font-family="Helvetica,sans-Serif" font-size="10.00" fill="#000000">org.cobbzilla.util.xml.Xml</text>
<text text-anchor="middle" x="63" y="-300.5" font-family="Helvetica,sans-Serif" font-size="10.00" fill="#000000">ElementFunction</text>
<polyline fill="none" stroke="#000000" points="0,-293.5 126,-293.5 "/>
<text text-anchor="middle" x="63" y="-281.5" font-family="Helvetica,sans-Serif" font-size="10.00" fill="#000000"> </text>
<polyline fill="none" stroke="#000000" points="0,-274.5 126,-274.5 "/>
<text text-anchor="start" x="8" y="-262.5" font-family="Helvetica,sans-Serif" font-size="10.00" fill="#000000">+ apply()</text>
</a>
</g>
</g>
<!-- Node7&#45;&gt;Node6 -->
<g id="edge2" class="edge">
<title>Node7&#45;&gt;Node6</title>
<path fill="none" stroke="#191970" d="M76.4053,-245.847C80.1956,-233.5042 84.3274,-220.0492 88.1437,-207.6219"/>
<polygon fill="none" stroke="#191970" points="73.0411,-244.8794 73.4513,-255.4663 79.7327,-246.9344 73.0411,-244.8794"/>
</g>
<!-- Node8 -->
<g id="node4" class="node">
<title>Node8</title>
<polygon fill="none" stroke="#bfbfbf" points="144,-261 144,-318 230,-318 230,-261 144,-261"/>
<text text-anchor="middle" x="187" y="-306" font-family="Helvetica,sans-Serif" font-size="10.00" fill="#000000">List&lt; Element &gt;</text>
<polyline fill="none" stroke="#bfbfbf" points="144,-299 230,-299 "/>
<text text-anchor="middle" x="187" y="-287" font-family="Helvetica,sans-Serif" font-size="10.00" fill="#000000"> </text>
<polyline fill="none" stroke="#bfbfbf" points="144,-280 230,-280 "/>
<text text-anchor="middle" x="187" y="-268" font-family="Helvetica,sans-Serif" font-size="10.00" fill="#000000"> </text>
</g>
<!-- Node8&#45;&gt;Node6 -->
<g id="edge3" class="edge">
<title>Node8&#45;&gt;Node6</title>
<path fill="none" stroke="#404040" d="M167.9243,-260.9987C159.4137,-248.2828 149.0806,-232.8439 139.1443,-217.9979"/>
<polygon fill="none" stroke="#404040" points="139.0305,-217.8279 132.3691,-215.0665 132.356,-207.8554 139.0174,-210.6168 139.0305,-217.8279"/>
<text text-anchor="middle" x="165.5" y="-229" font-family="Helvetica,sans-Serif" font-size="10.00" fill="#000000"> #found</text>
</g>
<!-- Node9 -->
<g id="node5" class="node">
<title>Node9</title>
<polygon fill="none" stroke="#bfbfbf" points="171,-371.5 171,-428.5 203,-428.5 203,-371.5 171,-371.5"/>
<text text-anchor="middle" x="187" y="-416.5" font-family="Helvetica,sans-Serif" font-size="10.00" fill="#000000">List</text>
<polyline fill="none" stroke="#bfbfbf" points="171,-409.5 203,-409.5 "/>
<text text-anchor="middle" x="187" y="-397.5" font-family="Helvetica,sans-Serif" font-size="10.00" fill="#000000"> </text>
<polyline fill="none" stroke="#bfbfbf" points="171,-390.5 203,-390.5 "/>
<text text-anchor="middle" x="187" y="-378.5" font-family="Helvetica,sans-Serif" font-size="10.00" fill="#000000"> </text>
</g>
<!-- Node9&#45;&gt;Node8 -->
<g id="edge4" class="edge">
<title>Node9&#45;&gt;Node8</title>
<path fill="none" stroke="#ffa500" d="M187,-360.845C187,-346.7511 187,-331.1262 187,-318.1002"/>
<polygon fill="#ffa500" stroke="#ffa500" points="183.5001,-361.2559 187,-371.2559 190.5001,-361.2559 183.5001,-361.2559"/>
<text text-anchor="middle" x="216" y="-345" font-family="Helvetica,sans-Serif" font-size="10.00" fill="#000000"> &lt; Element &gt;</text>
</g>
</g>
</svg>
