<?xml version="1.0" encoding="UTF-8" standalone="no"?>
<!DOCTYPE svg PUBLIC "-//W3C//DTD SVG 1.1//EN"
 "http://www.w3.org/Graphics/SVG/1.1/DTD/svg11.dtd">
<!-- Generated by graphviz version 2.40.1 (20161225.0304)
 -->
<!-- Title: org.cobbzilla.util.system.CommandShellTest.TestProgressCallback Pages: 1 -->
<svg width="211pt" height="193pt"
 viewBox="0.00 0.00 211.00 193.00" xmlns="http://www.w3.org/2000/svg" xmlns:xlink="http://www.w3.org/1999/xlink">
<g id="graph0" class="graph" transform="scale(1 1) rotate(0) translate(4 189)">
<title>org.cobbzilla.util.system.CommandShellTest.TestProgressCallback</title>
<!-- Node0 -->
<g id="node1" class="node">
<title>Node0</title>
<polygon fill="#bfbfbf" stroke="#000000" points="0,-.5 0,-79.5 203,-79.5 203,-.5 0,-.5"/>
<text text-anchor="start" x="8" y="-67.5" font-family="Helvetica,sans-Serif" font-size="10.00" fill="#000000">org.cobbzilla.util.system.</text>
<text text-anchor="middle" x="101.5" y="-56.5" font-family="Helvetica,sans-Serif" font-size="10.00" fill="#000000">CommandShellTest.TestProgressCallback</text>
<polyline fill="none" stroke="#000000" points="0,-49.5 203,-49.5 "/>
<text text-anchor="start" x="8" y="-37.5" font-family="Helvetica,sans-Serif" font-size="10.00" fill="#000000">+ patternsFound</text>
<text text-anchor="start" x="8" y="-26.5" font-family="Helvetica,sans-Serif" font-size="10.00" fill="#000000">+ count</text>
<polyline fill="none" stroke="#000000" points="0,-19.5 203,-19.5 "/>
<text text-anchor="start" x="8" y="-7.5" font-family="Helvetica,sans-Serif" font-size="10.00" fill="#000000">+ updateProgress()</text>
</g>
<!-- Node1 -->
<g id="node2" class="node">
<title>Node1</title>
<g id="a_node2"><a xlink:href="../../df/dd0/interfaceorg_1_1cobbzilla_1_1util_1_1system_1_1CommandProgressCallback.html" target="_top" xlink:title="{org.cobbzilla.util.system.\lCommandProgressCallback\n||+ updateProgress()\l}">
<polygon fill="none" stroke="#000000" points="32,-116.5 32,-184.5 171,-184.5 171,-116.5 32,-116.5"/>
<text text-anchor="start" x="40" y="-172.5" font-family="Helvetica,sans-Serif" font-size="10.00" fill="#000000">org.cobbzilla.util.system.</text>
<text text-anchor="middle" x="101.5" y="-161.5" font-family="Helvetica,sans-Serif" font-size="10.00" fill="#000000">CommandProgressCallback</text>
<polyline fill="none" stroke="#000000" points="32,-154.5 171,-154.5 "/>
<text text-anchor="middle" x="101.5" y="-142.5" font-family="Helvetica,sans-Serif" font-size="10.00" fill="#000000"> </text>
<polyline fill="none" stroke="#000000" points="32,-135.5 171,-135.5 "/>
<text text-anchor="start" x="40" y="-123.5" font-family="Helvetica,sans-Serif" font-size="10.00" fill="#000000">+ updateProgress()</text>
</a>
</g>
</g>
<!-- Node1&#45;&gt;Node0 -->
<g id="edge1" class="edge">
<title>Node1&#45;&gt;Node0</title>
<path fill="none" stroke="#191970" d="M101.5,-106.3044C101.5,-97.4634 101.5,-88.2287 101.5,-79.5566"/>
<polygon fill="none" stroke="#191970" points="98.0001,-106.4447 101.5,-116.4447 105.0001,-106.4447 98.0001,-106.4447"/>
</g>
</g>
</svg>
