<?xml version="1.0" encoding="UTF-8" standalone="no"?>
<!DOCTYPE svg PUBLIC "-//W3C//DTD SVG 1.1//EN"
 "http://www.w3.org/Graphics/SVG/1.1/DTD/svg11.dtd">
<!-- Generated by graphviz version 2.40.1 (20161225.0304)
 -->
<!-- Title: org.cobbzilla.util.time.TimeSpecifier.get Pages: 1 -->
<svg width="268pt" height="88pt"
 viewBox="0.00 0.00 268.00 88.00" xmlns="http://www.w3.org/2000/svg" xmlns:xlink="http://www.w3.org/1999/xlink">
<g id="graph0" class="graph" transform="scale(1 1) rotate(0) translate(4 84)">
<title>org.cobbzilla.util.time.TimeSpecifier.get</title>
<!-- Node1 -->
<g id="node1" class="node">
<title>Node1</title>
<polygon fill="#bfbfbf" stroke="#000000" points="0,-24.5 0,-54.5 112,-54.5 112,-24.5 0,-24.5"/>
<text text-anchor="start" x="8" y="-42.5" font-family="Helvetica,sans-Serif" font-size="10.00" fill="#000000">org.cobbzilla.util.time.</text>
<text text-anchor="middle" x="56" y="-31.5" font-family="Helvetica,sans-Serif" font-size="10.00" fill="#000000">TimeSpecifier.get</text>
</g>
<!-- Node2 -->
<g id="node2" class="node">
<title>Node2</title>
<g id="a_node2"><a xlink:href="../../d3/d7f/enumorg_1_1cobbzilla_1_1util_1_1time_1_1TimePeriodType_ac8ccfcca19ed2dae9445736c92352a35.html#ac8ccfcca19ed2dae9445736c92352a35" target="_top" xlink:title="org.cobbzilla.util.time.\lTimePeriodType.end">
<polygon fill="none" stroke="#000000" points="148,-49.5 148,-79.5 260,-79.5 260,-49.5 148,-49.5"/>
<text text-anchor="start" x="156" y="-67.5" font-family="Helvetica,sans-Serif" font-size="10.00" fill="#000000">org.cobbzilla.util.time.</text>
<text text-anchor="middle" x="204" y="-56.5" font-family="Helvetica,sans-Serif" font-size="10.00" fill="#000000">TimePeriodType.end</text>
</a>
</g>
</g>
<!-- Node1&#45;&gt;Node2 -->
<g id="edge1" class="edge">
<title>Node1&#45;&gt;Node2</title>
<path fill="none" stroke="#191970" d="M122.2802,-50.696C130.7955,-52.1344 139.4487,-53.5961 147.7821,-55.0037"/>
<polygon fill="#191970" stroke="#191970" points="122.818,-47.2373 112.3747,-49.0227 121.652,-54.1395 122.818,-47.2373"/>
</g>
<!-- Node3 -->
<g id="node3" class="node">
<title>Node3</title>
<g id="a_node3"><a xlink:href="../../d3/d7f/enumorg_1_1cobbzilla_1_1util_1_1time_1_1TimePeriodType_a28cb4531bf1b226c35c81e212c345fd9.html#a28cb4531bf1b226c35c81e212c345fd9" target="_top" xlink:title="org.cobbzilla.util.time.\lTimePeriodType.start">
<polygon fill="none" stroke="#000000" points="148,-.5 148,-30.5 260,-30.5 260,-.5 148,-.5"/>
<text text-anchor="start" x="156" y="-18.5" font-family="Helvetica,sans-Serif" font-size="10.00" fill="#000000">org.cobbzilla.util.time.</text>
<text text-anchor="middle" x="204" y="-7.5" font-family="Helvetica,sans-Serif" font-size="10.00" fill="#000000">TimePeriodType.start</text>
</a>
</g>
</g>
<!-- Node1&#45;&gt;Node3 -->
<g id="edge2" class="edge">
<title>Node1&#45;&gt;Node3</title>
<path fill="none" stroke="#191970" d="M122.2802,-28.7519C130.7955,-27.371 139.4487,-25.9678 147.7821,-24.6164"/>
<polygon fill="#191970" stroke="#191970" points="121.6854,-25.3025 112.3747,-30.3582 122.806,-32.2122 121.6854,-25.3025"/>
</g>
</g>
</svg>
