<?xml version="1.0" encoding="UTF-8" standalone="no"?>
<!DOCTYPE svg PUBLIC "-//W3C//DTD SVG 1.1//EN"
 "http://www.w3.org/Graphics/SVG/1.1/DTD/svg11.dtd">
<!-- Generated by graphviz version 2.40.1 (20161225.0304)
 -->
<!-- Title: org.cobbzilla.util.io.DirFilter Pages: 1 -->
<svg width="190pt" height="193pt"
 viewBox="0.00 0.00 189.50 193.00" xmlns="http://www.w3.org/2000/svg" xmlns:xlink="http://www.w3.org/1999/xlink">
<g id="graph0" class="graph" transform="scale(1 1) rotate(0) translate(4 189)">
<title>org.cobbzilla.util.io.DirFilter</title>
<!-- Node2 -->
<g id="node1" class="node">
<title>Node2</title>
<polygon fill="#bfbfbf" stroke="#000000" points="4.5,-.5 4.5,-79.5 117.5,-79.5 117.5,-.5 4.5,-.5"/>
<text text-anchor="start" x="12.5" y="-67.5" font-family="Helvetica,sans-Serif" font-size="10.00" fill="#000000">org.cobbzilla.util.io.Dir</text>
<text text-anchor="middle" x="61" y="-56.5" font-family="Helvetica,sans-Serif" font-size="10.00" fill="#000000">Filter</text>
<polyline fill="none" stroke="#000000" points="4.5,-49.5 117.5,-49.5 "/>
<text text-anchor="start" x="12.5" y="-37.5" font-family="Helvetica,sans-Serif" font-size="10.00" fill="#000000">&#45; regex</text>
<polyline fill="none" stroke="#000000" points="4.5,-30.5 117.5,-30.5 "/>
<text text-anchor="start" x="12.5" y="-18.5" font-family="Helvetica,sans-Serif" font-size="10.00" fill="#000000">+ accept()</text>
<text text-anchor="start" x="12.5" y="-7.5" font-family="Helvetica,sans-Serif" font-size="10.00" fill="#000000">&#45; initPattern()</text>
</g>
<!-- Node2&#45;&gt;Node2 -->
<g id="edge2" class="edge">
<title>Node2&#45;&gt;Node2</title>
<path fill="none" stroke="#404040" d="M117.5255,-51.0283C128.0723,-49.6702 135.5,-45.9941 135.5,-40 135.5,-36.6283 133.1498,-33.99 129.2163,-32.0852"/>
<polygon fill="none" stroke="#404040" points="129.1213,-32.06 122.294,-34.3811 117.5255,-28.9717 124.3528,-26.6506 129.1213,-32.06"/>
<text text-anchor="middle" x="158.5" y="-37.5" font-family="Helvetica,sans-Serif" font-size="10.00" fill="#000000"> +instance</text>
</g>
<!-- Node3 -->
<g id="node2" class="node">
<title>Node3</title>
<polygon fill="none" stroke="#bfbfbf" points="0,-127.5 0,-184.5 54,-184.5 54,-127.5 0,-127.5"/>
<text text-anchor="middle" x="27" y="-172.5" font-family="Helvetica,sans-Serif" font-size="10.00" fill="#000000">FileFilter</text>
<polyline fill="none" stroke="#bfbfbf" points="0,-165.5 54,-165.5 "/>
<text text-anchor="middle" x="27" y="-153.5" font-family="Helvetica,sans-Serif" font-size="10.00" fill="#000000"> </text>
<polyline fill="none" stroke="#bfbfbf" points="0,-146.5 54,-146.5 "/>
<text text-anchor="middle" x="27" y="-134.5" font-family="Helvetica,sans-Serif" font-size="10.00" fill="#000000"> </text>
</g>
<!-- Node3&#45;&gt;Node2 -->
<g id="edge1" class="edge">
<title>Node3&#45;&gt;Node2</title>
<path fill="none" stroke="#191970" d="M38.287,-117.4913C41.8434,-105.3578 45.7772,-91.9365 49.3578,-79.7203"/>
<polygon fill="none" stroke="#191970" points="34.8586,-116.7451 35.4045,-127.3258 41.576,-118.714 34.8586,-116.7451"/>
</g>
<!-- Node4 -->
<g id="node3" class="node">
<title>Node4</title>
<polygon fill="none" stroke="#bfbfbf" points="72,-127.5 72,-184.5 120,-184.5 120,-127.5 72,-127.5"/>
<text text-anchor="middle" x="96" y="-172.5" font-family="Helvetica,sans-Serif" font-size="10.00" fill="#000000">Pattern</text>
<polyline fill="none" stroke="#bfbfbf" points="72,-165.5 120,-165.5 "/>
<text text-anchor="middle" x="96" y="-153.5" font-family="Helvetica,sans-Serif" font-size="10.00" fill="#000000"> </text>
<polyline fill="none" stroke="#bfbfbf" points="72,-146.5 120,-146.5 "/>
<text text-anchor="middle" x="96" y="-134.5" font-family="Helvetica,sans-Serif" font-size="10.00" fill="#000000"> </text>
</g>
<!-- Node4&#45;&gt;Node2 -->
<g id="edge3" class="edge">
<title>Node4&#45;&gt;Node2</title>
<path fill="none" stroke="#404040" d="M87.3483,-127.3258C84.0654,-116.4455 80.2188,-103.6966 76.4949,-91.3545"/>
<polygon fill="none" stroke="#404040" points="76.451,-91.2088 70.8883,-86.62 72.9846,-79.7203 78.5473,-84.3091 76.451,-91.2088"/>
<text text-anchor="middle" x="99.5" y="-101" font-family="Helvetica,sans-Serif" font-size="10.00" fill="#000000"> &#45;pattern</text>
</g>
</g>
</svg>
