<?xml version="1.0" encoding="UTF-8" standalone="no"?>
<!DOCTYPE svg PUBLIC "-//W3C//DTD SVG 1.1//EN"
 "http://www.w3.org/Graphics/SVG/1.1/DTD/svg11.dtd">
<!-- Generated by graphviz version 2.40.1 (20161225.0304)
 -->
<!-- Title: org.cobbzilla.util.collection.SingletonList.unsupported Pages: 1 -->
<svg width="315pt" height="382pt"
 viewBox="0.00 0.00 315.00 382.00" xmlns="http://www.w3.org/2000/svg" xmlns:xlink="http://www.w3.org/1999/xlink">
<g id="graph0" class="graph" transform="scale(1 1) rotate(0) translate(4 378)">
<title>org.cobbzilla.util.collection.SingletonList.unsupported</title>
<!-- Node1 -->
<g id="node1" class="node">
<title>Node1</title>
<polygon fill="#bfbfbf" stroke="#000000" points="0,-171.5 0,-201.5 134,-201.5 134,-171.5 0,-171.5"/>
<text text-anchor="start" x="8" y="-189.5" font-family="Helvetica,sans-Serif" font-size="10.00" fill="#000000">org.cobbzilla.util.collection.</text>
<text text-anchor="middle" x="67" y="-178.5" font-family="Helvetica,sans-Serif" font-size="10.00" fill="#000000">SingletonList.unsupported</text>
</g>
<!-- Node2 -->
<g id="node2" class="node">
<title>Node2</title>
<g id="a_node2"><a xlink:href="../../dd/dda/classorg_1_1cobbzilla_1_1util_1_1collection_1_1SingletonList_a53d594971ddf09a3f54d924169099c46.html#a53d594971ddf09a3f54d924169099c46" target="_top" xlink:title="org.cobbzilla.util.collection.\lSingletonList.add">
<polygon fill="none" stroke="#000000" points="171.5,-343.5 171.5,-373.5 305.5,-373.5 305.5,-343.5 171.5,-343.5"/>
<text text-anchor="start" x="179.5" y="-361.5" font-family="Helvetica,sans-Serif" font-size="10.00" fill="#000000">org.cobbzilla.util.collection.</text>
<text text-anchor="middle" x="238.5" y="-350.5" font-family="Helvetica,sans-Serif" font-size="10.00" fill="#000000">SingletonList.add</text>
</a>
</g>
</g>
<!-- Node1&#45;&gt;Node2 -->
<g id="edge1" class="edge">
<title>Node1&#45;&gt;Node2</title>
<path fill="none" stroke="#191970" d="M78.089,-211.1634C93.9699,-243.8325 126.1824,-301.1967 170,-334.5 174.5146,-337.9313 179.5586,-340.8978 184.8064,-343.457"/>
<polygon fill="#191970" stroke="#191970" points="81.1324,-209.4122 73.6901,-201.8715 74.8056,-212.4074 81.1324,-209.4122"/>
</g>
<!-- Node3 -->
<g id="node3" class="node">
<title>Node3</title>
<g id="a_node3"><a xlink:href="../../dd/dda/classorg_1_1cobbzilla_1_1util_1_1collection_1_1SingletonList_aa740e6059857cd64d6805576e058daa6.html#aa740e6059857cd64d6805576e058daa6" target="_top" xlink:title="org.cobbzilla.util.collection.\lSingletonList.addAll">
<polygon fill="none" stroke="#000000" points="171.5,-294.5 171.5,-324.5 305.5,-324.5 305.5,-294.5 171.5,-294.5"/>
<text text-anchor="start" x="179.5" y="-312.5" font-family="Helvetica,sans-Serif" font-size="10.00" fill="#000000">org.cobbzilla.util.collection.</text>
<text text-anchor="middle" x="238.5" y="-301.5" font-family="Helvetica,sans-Serif" font-size="10.00" fill="#000000">SingletonList.addAll</text>
</a>
</g>
</g>
<!-- Node1&#45;&gt;Node3 -->
<g id="edge2" class="edge">
<title>Node1&#45;&gt;Node3</title>
<path fill="none" stroke="#191970" d="M85.7879,-209.5884C104.9196,-231.772 136.465,-264.8795 170,-285.5 175.4745,-288.8662 181.4863,-291.8437 187.6042,-294.4538"/>
<polygon fill="#191970" stroke="#191970" points="88.2174,-207.0413 79.085,-201.67 82.8746,-211.5639 88.2174,-207.0413"/>
</g>
<!-- Node4 -->
<g id="node4" class="node">
<title>Node4</title>
<g id="a_node4"><a xlink:href="../../dd/dda/classorg_1_1cobbzilla_1_1util_1_1collection_1_1SingletonList_a47237eb147dc75d2118bf9e058448d41.html#a47237eb147dc75d2118bf9e058448d41" target="_top" xlink:title="org.cobbzilla.util.collection.\lSingletonList.clear">
<polygon fill="none" stroke="#000000" points="171.5,-245.5 171.5,-275.5 305.5,-275.5 305.5,-245.5 171.5,-245.5"/>
<text text-anchor="start" x="179.5" y="-263.5" font-family="Helvetica,sans-Serif" font-size="10.00" fill="#000000">org.cobbzilla.util.collection.</text>
<text text-anchor="middle" x="238.5" y="-252.5" font-family="Helvetica,sans-Serif" font-size="10.00" fill="#000000">SingletonList.clear</text>
</a>
</g>
</g>
<!-- Node1&#45;&gt;Node4 -->
<g id="edge3" class="edge">
<title>Node1&#45;&gt;Node4</title>
<path fill="none" stroke="#191970" d="M104.941,-206.2118C124.1894,-215.879 148.0792,-227.3747 170,-236.5 177.4454,-239.5994 185.4493,-242.6491 193.2672,-245.4802"/>
<polygon fill="#191970" stroke="#191970" points="106.3963,-203.0256 95.8936,-201.6314 103.2345,-209.2709 106.3963,-203.0256"/>
</g>
<!-- Node5 -->
<g id="node5" class="node">
<title>Node5</title>
<g id="a_node5"><a xlink:href="../../dd/dda/classorg_1_1cobbzilla_1_1util_1_1collection_1_1SingletonList_abce413bc22cfca9c0e2367fc75039ff5.html#abce413bc22cfca9c0e2367fc75039ff5" target="_top" xlink:title="org.cobbzilla.util.collection.\lSingletonList.remove">
<polygon fill="none" stroke="#000000" points="171.5,-196.5 171.5,-226.5 305.5,-226.5 305.5,-196.5 171.5,-196.5"/>
<text text-anchor="start" x="179.5" y="-214.5" font-family="Helvetica,sans-Serif" font-size="10.00" fill="#000000">org.cobbzilla.util.collection.</text>
<text text-anchor="middle" x="238.5" y="-203.5" font-family="Helvetica,sans-Serif" font-size="10.00" fill="#000000">SingletonList.remove</text>
</a>
</g>
</g>
<!-- Node1&#45;&gt;Node5 -->
<g id="edge4" class="edge">
<title>Node1&#45;&gt;Node5</title>
<path fill="none" stroke="#191970" d="M144.3923,-197.7817C153.4066,-199.0957 162.5454,-200.4279 171.4049,-201.7194"/>
<polygon fill="#191970" stroke="#191970" points="144.6894,-194.2881 134.2891,-196.3089 143.6796,-201.2149 144.6894,-194.2881"/>
</g>
<!-- Node6 -->
<g id="node6" class="node">
<title>Node6</title>
<g id="a_node6"><a xlink:href="../../dd/dda/classorg_1_1cobbzilla_1_1util_1_1collection_1_1SingletonList_aa7203c41a1f16d184831150840d78cb6.html#aa7203c41a1f16d184831150840d78cb6" target="_top" xlink:title="org.cobbzilla.util.collection.\lSingletonList.removeAll">
<polygon fill="none" stroke="#000000" points="171.5,-147.5 171.5,-177.5 305.5,-177.5 305.5,-147.5 171.5,-147.5"/>
<text text-anchor="start" x="179.5" y="-165.5" font-family="Helvetica,sans-Serif" font-size="10.00" fill="#000000">org.cobbzilla.util.collection.</text>
<text text-anchor="middle" x="238.5" y="-154.5" font-family="Helvetica,sans-Serif" font-size="10.00" fill="#000000">SingletonList.removeAll</text>
</a>
</g>
</g>
<!-- Node1&#45;&gt;Node6 -->
<g id="edge5" class="edge">
<title>Node1&#45;&gt;Node6</title>
<path fill="none" stroke="#191970" d="M144.3923,-175.6696C153.4066,-174.4081 162.5454,-173.1292 171.4049,-171.8894"/>
<polygon fill="#191970" stroke="#191970" points="143.7075,-172.2312 134.2891,-177.0834 144.6777,-179.1637 143.7075,-172.2312"/>
</g>
<!-- Node7 -->
<g id="node7" class="node">
<title>Node7</title>
<g id="a_node7"><a xlink:href="../../dd/dda/classorg_1_1cobbzilla_1_1util_1_1collection_1_1SingletonList_afe8d2b02f5fc55e80ad268fabdc51ead.html#afe8d2b02f5fc55e80ad268fabdc51ead" target="_top" xlink:title="org.cobbzilla.util.collection.\lSingletonList.removeRange">
<polygon fill="none" stroke="#000000" points="170,-98.5 170,-128.5 307,-128.5 307,-98.5 170,-98.5"/>
<text text-anchor="start" x="178" y="-116.5" font-family="Helvetica,sans-Serif" font-size="10.00" fill="#000000">org.cobbzilla.util.collection.</text>
<text text-anchor="middle" x="238.5" y="-105.5" font-family="Helvetica,sans-Serif" font-size="10.00" fill="#000000">SingletonList.removeRange</text>
</a>
</g>
</g>
<!-- Node1&#45;&gt;Node7 -->
<g id="edge6" class="edge">
<title>Node1&#45;&gt;Node7</title>
<path fill="none" stroke="#191970" d="M107.0051,-166.8785C125.9339,-157.8474 148.9532,-147.2258 170,-138.5 178.1861,-135.1061 187.017,-131.6991 195.5281,-128.5398"/>
<polygon fill="#191970" stroke="#191970" points="105.2903,-163.8193 97.7906,-171.3029 108.3203,-170.1296 105.2903,-163.8193"/>
</g>
<!-- Node8 -->
<g id="node8" class="node">
<title>Node8</title>
<g id="a_node8"><a xlink:href="../../dd/dda/classorg_1_1cobbzilla_1_1util_1_1collection_1_1SingletonList_a41bb1c014e96d5c9d9b008db75263d52.html#a41bb1c014e96d5c9d9b008db75263d52" target="_top" xlink:title="org.cobbzilla.util.collection.\lSingletonList.retainAll">
<polygon fill="none" stroke="#000000" points="171.5,-49.5 171.5,-79.5 305.5,-79.5 305.5,-49.5 171.5,-49.5"/>
<text text-anchor="start" x="179.5" y="-67.5" font-family="Helvetica,sans-Serif" font-size="10.00" fill="#000000">org.cobbzilla.util.collection.</text>
<text text-anchor="middle" x="238.5" y="-56.5" font-family="Helvetica,sans-Serif" font-size="10.00" fill="#000000">SingletonList.retainAll</text>
</a>
</g>
</g>
<!-- Node1&#45;&gt;Node8 -->
<g id="edge7" class="edge">
<title>Node1&#45;&gt;Node8</title>
<path fill="none" stroke="#191970" d="M86.264,-163.6282C105.5403,-141.9813 137.0021,-109.8528 170,-89.5 176.0339,-85.7783 182.7059,-82.4886 189.4479,-79.6199"/>
<polygon fill="#191970" stroke="#191970" points="83.4455,-161.5343 79.495,-171.365 88.7138,-166.1436 83.4455,-161.5343"/>
</g>
<!-- Node9 -->
<g id="node9" class="node">
<title>Node9</title>
<g id="a_node9"><a xlink:href="../../dd/dda/classorg_1_1cobbzilla_1_1util_1_1collection_1_1SingletonList_a55cee8683eca47bdc3d2043afcb61291.html#a55cee8683eca47bdc3d2043afcb61291" target="_top" xlink:title="org.cobbzilla.util.collection.\lSingletonList.set">
<polygon fill="none" stroke="#000000" points="171.5,-.5 171.5,-30.5 305.5,-30.5 305.5,-.5 171.5,-.5"/>
<text text-anchor="start" x="179.5" y="-18.5" font-family="Helvetica,sans-Serif" font-size="10.00" fill="#000000">org.cobbzilla.util.collection.</text>
<text text-anchor="middle" x="238.5" y="-7.5" font-family="Helvetica,sans-Serif" font-size="10.00" fill="#000000">SingletonList.set</text>
</a>
</g>
</g>
<!-- Node1&#45;&gt;Node9 -->
<g id="edge8" class="edge">
<title>Node1&#45;&gt;Node9</title>
<path fill="none" stroke="#191970" d="M78.2381,-162.2551C94.2871,-130.1236 126.6888,-73.6427 170,-40.5 175.0269,-36.6533 180.7032,-33.3556 186.5835,-30.5391"/>
<polygon fill="#191970" stroke="#191970" points="75.02,-160.8694 73.7884,-171.3924 81.3134,-163.9342 75.02,-160.8694"/>
</g>
</g>
</svg>
