<?xml version="1.0" encoding="UTF-8" standalone="no"?>
<!DOCTYPE svg PUBLIC "-//W3C//DTD SVG 1.1//EN"
 "http://www.w3.org/Graphics/SVG/1.1/DTD/svg11.dtd">
<!-- Generated by graphviz version 2.40.1 (20161225.0304)
 -->
<!-- Title: org.cobbzilla.util.http.HttpRequestBean Pages: 1 -->
<!--zoomable 617 -->
<svg id="main" version="1.1" xmlns="http://www.w3.org/2000/svg" xmlns:xlink="http://www.w3.org/1999/xlink" xml:space="preserve" onload="init(evt)">
<style type="text/css"><![CDATA[
.edge:hover path { stroke: red; }
.edge:hover polygon { stroke: red; fill: red; }
]]></style>
<script type="text/javascript"><![CDATA[
var edges = document.getElementsByTagName('g');
if (edges && edges.length) {
  for (var i=0;i<edges.length;i++) {
    if (edges[i].id.substr(0,4)=='edge') {
      edges[i].setAttribute('class','edge');
    }
  }
}
]]></script>
        <defs>
                <circle id="rim" cx="0" cy="0" r="7"/>
                <circle id="rim2" cx="0" cy="0" r="3.5"/>
                <g id="zoomPlus">
                        <use xlink:href="#rim" fill="#404040">
                                <set attributeName="fill" to="#808080" begin="zoomplus.mouseover" end="zoomplus.mouseout"/>
                        </use>
                        <path d="M-4,0h8M0,-4v8" fill="none" stroke="white" stroke-width="1.5" pointer-events="none"/>
                </g>
                <g id="zoomMin">
                        <use xlink:href="#rim" fill="#404040">
                                <set attributeName="fill" to="#808080" begin="zoomminus.mouseover" end="zoomminus.mouseout"/>
                        </use>
                        <path d="M-4,0h8" fill="none" stroke="white" stroke-width="1.5" pointer-events="none"/>
                </g>
                <g id="dirArrow">
                        <path fill="none" stroke="white" stroke-width="1.5" d="M0,-3.0v7 M-2.5,-0.5L0,-3.0L2.5,-0.5"/>
                </g>
               <g id="resetDef">
                       <use xlink:href="#rim2" fill="#404040">
                               <set attributeName="fill" to="#808080" begin="reset.mouseover" end="reset.mouseout"/>
                       </use>
               </g>
        </defs>

<script type="text/javascript">
var viewWidth = 538;
var viewHeight = 617;
var sectionId = 'dynsection-0';
</script>
<script xlink:href="../../svgpan.js"/>
<svg id="graph" class="graph">
<g id="viewport">
<title>org.cobbzilla.util.http.HttpRequestBean</title>
<!-- Node1 -->
<g id="node1" class="node">
<title>Node1</title>
<polygon fill="#bfbfbf" stroke="#000000" points="150,-.5 150,-321.5 268,-321.5 268,-.5 150,-.5"/>
<text text-anchor="start" x="158" y="-309.5" font-family="Helvetica,sans-Serif" font-size="10.00" fill="#000000">org.cobbzilla.util.http.</text>
<text text-anchor="middle" x="209" y="-298.5" font-family="Helvetica,sans-Serif" font-size="10.00" fill="#000000">HttpRequestBean</text>
<polyline fill="none" stroke="#000000" points="150,-291.5 268,-291.5 "/>
<text text-anchor="start" x="158" y="-279.5" font-family="Helvetica,sans-Serif" font-size="10.00" fill="#000000">&#45; method</text>
<text text-anchor="start" x="158" y="-268.5" font-family="Helvetica,sans-Serif" font-size="10.00" fill="#000000">&#45; uri</text>
<text text-anchor="start" x="158" y="-257.5" font-family="Helvetica,sans-Serif" font-size="10.00" fill="#000000">&#45; entity</text>
<text text-anchor="start" x="158" y="-246.5" font-family="Helvetica,sans-Serif" font-size="10.00" fill="#000000">&#45; authUsername</text>
<text text-anchor="start" x="158" y="-235.5" font-family="Helvetica,sans-Serif" font-size="10.00" fill="#000000">&#45; authPassword</text>
<polyline fill="none" stroke="#000000" points="150,-228.5 268,-228.5 "/>
<text text-anchor="start" x="158" y="-216.5" font-family="Helvetica,sans-Serif" font-size="10.00" fill="#000000">+ hasData()</text>
<text text-anchor="start" x="158" y="-205.5" font-family="Helvetica,sans-Serif" font-size="10.00" fill="#000000">+ hasStream()</text>
<text text-anchor="start" x="158" y="-194.5" font-family="Helvetica,sans-Serif" font-size="10.00" fill="#000000">+ withHeader()</text>
<text text-anchor="start" x="158" y="-183.5" font-family="Helvetica,sans-Serif" font-size="10.00" fill="#000000">+ setHeader()</text>
<text text-anchor="start" x="158" y="-172.5" font-family="Helvetica,sans-Serif" font-size="10.00" fill="#000000">+ hasHeaders()</text>
<text text-anchor="start" x="158" y="-161.5" font-family="Helvetica,sans-Serif" font-size="10.00" fill="#000000">+ HttpRequestBean()</text>
<text text-anchor="start" x="158" y="-150.5" font-family="Helvetica,sans-Serif" font-size="10.00" fill="#000000">+ HttpRequestBean()</text>
<text text-anchor="start" x="158" y="-139.5" font-family="Helvetica,sans-Serif" font-size="10.00" fill="#000000">+ HttpRequestBean()</text>
<text text-anchor="start" x="158" y="-128.5" font-family="Helvetica,sans-Serif" font-size="10.00" fill="#000000">+ HttpRequestBean()</text>
<text text-anchor="start" x="158" y="-117.5" font-family="Helvetica,sans-Serif" font-size="10.00" fill="#000000">+ HttpRequestBean()</text>
<text text-anchor="start" x="158" y="-106.5" font-family="Helvetica,sans-Serif" font-size="10.00" fill="#000000">and 11 more...</text>
<text text-anchor="start" x="158" y="-95.5" font-family="Helvetica,sans-Serif" font-size="10.00" fill="#000000">+ get()</text>
<text text-anchor="start" x="158" y="-84.5" font-family="Helvetica,sans-Serif" font-size="10.00" fill="#000000">+ put()</text>
<text text-anchor="start" x="158" y="-73.5" font-family="Helvetica,sans-Serif" font-size="10.00" fill="#000000">+ post()</text>
<text text-anchor="start" x="158" y="-62.5" font-family="Helvetica,sans-Serif" font-size="10.00" fill="#000000">+ delete()</text>
<text text-anchor="start" x="158" y="-51.5" font-family="Helvetica,sans-Serif" font-size="10.00" fill="#000000">+ putJson()</text>
<text text-anchor="start" x="158" y="-40.5" font-family="Helvetica,sans-Serif" font-size="10.00" fill="#000000">+ postJson()</text>
<text text-anchor="start" x="158" y="-29.5" font-family="Helvetica,sans-Serif" font-size="10.00" fill="#000000">&#45; initURI()</text>
<text text-anchor="start" x="158" y="-18.5" font-family="Helvetica,sans-Serif" font-size="10.00" fill="#000000">&#45; initHttpHost()</text>
<text text-anchor="start" x="158" y="-7.5" font-family="Helvetica,sans-Serif" font-size="10.00" fill="#000000">&#45; getFirstHeaderValue()</text>
</g>
<!-- Node2 -->
<g id="node2" class="node">
<title>Node2</title>
<polygon fill="none" stroke="#bfbfbf" points="0,-402.5 0,-459.5 70,-459.5 70,-402.5 0,-402.5"/>
<text text-anchor="middle" x="35" y="-447.5" font-family="Helvetica,sans-Serif" font-size="10.00" fill="#000000">InputStream</text>
<polyline fill="none" stroke="#bfbfbf" points="0,-440.5 70,-440.5 "/>
<text text-anchor="middle" x="35" y="-428.5" font-family="Helvetica,sans-Serif" font-size="10.00" fill="#000000"> </text>
<polyline fill="none" stroke="#bfbfbf" points="0,-421.5 70,-421.5 "/>
<text text-anchor="middle" x="35" y="-409.5" font-family="Helvetica,sans-Serif" font-size="10.00" fill="#000000"> </text>
</g>
<!-- Node2&#45;&gt;Node1 -->
<g id="edge1" class="edge">
<title>Node2&#45;&gt;Node1</title>
<path fill="none" stroke="#404040" d="M43.2799,-402.1303C49.1567,-383.725 57.9545,-359.7164 69,-340 89.4454,-303.5047 116.9713,-266.5338 142.205,-235.7419"/>
<polygon fill="none" stroke="#404040" points="142.2961,-235.6319 143.044,-228.4597 149.9522,-226.3915 149.2043,-233.5638 142.2961,-235.6319"/>
<text text-anchor="middle" x="111" y="-343" font-family="Helvetica,sans-Serif" font-size="10.00" fill="#000000"> &#45;entityInputStream</text>
</g>
<!-- Node3 -->
<g id="node3" class="node">
<title>Node3</title>
<polygon fill="none" stroke="#bfbfbf" points="114,-402.5 114,-459.5 170,-459.5 170,-402.5 114,-402.5"/>
<text text-anchor="middle" x="142" y="-447.5" font-family="Helvetica,sans-Serif" font-size="10.00" fill="#000000">HttpHost</text>
<polyline fill="none" stroke="#bfbfbf" points="114,-440.5 170,-440.5 "/>
<text text-anchor="middle" x="142" y="-428.5" font-family="Helvetica,sans-Serif" font-size="10.00" fill="#000000"> </text>
<polyline fill="none" stroke="#bfbfbf" points="114,-421.5 170,-421.5 "/>
<text text-anchor="middle" x="142" y="-409.5" font-family="Helvetica,sans-Serif" font-size="10.00" fill="#000000"> </text>
</g>
<!-- Node3&#45;&gt;Node1 -->
<g id="edge2" class="edge">
<title>Node3&#45;&gt;Node1</title>
<path fill="none" stroke="#404040" d="M146.7188,-402.1762C149.8241,-384.2117 154.1937,-360.6633 159,-340 159.4991,-337.8541 160.0072,-335.6954 160.5234,-333.526"/>
<polygon fill="none" stroke="#404040" points="160.5302,-333.4977 158.0559,-326.7244 163.3565,-321.8353 165.8308,-328.6086 160.5302,-333.4977"/>
<text text-anchor="middle" x="181" y="-343" font-family="Helvetica,sans-Serif" font-size="10.00" fill="#000000"> &#45;httpHost</text>
</g>
<!-- Node4 -->
<g id="node4" class="node">
<title>Node4</title>
<polygon fill="none" stroke="#bfbfbf" points="189.5,-402.5 189.5,-459.5 224.5,-459.5 224.5,-402.5 189.5,-402.5"/>
<text text-anchor="middle" x="207" y="-447.5" font-family="Helvetica,sans-Serif" font-size="10.00" fill="#000000">URI</text>
<polyline fill="none" stroke="#bfbfbf" points="189.5,-440.5 224.5,-440.5 "/>
<text text-anchor="middle" x="207" y="-428.5" font-family="Helvetica,sans-Serif" font-size="10.00" fill="#000000"> </text>
<polyline fill="none" stroke="#bfbfbf" points="189.5,-421.5 224.5,-421.5 "/>
<text text-anchor="middle" x="207" y="-409.5" font-family="Helvetica,sans-Serif" font-size="10.00" fill="#000000"> </text>
</g>
<!-- Node4&#45;&gt;Node1 -->
<g id="edge3" class="edge">
<title>Node4&#45;&gt;Node1</title>
<path fill="none" stroke="#404040" d="M207.2121,-402.3609C207.3433,-384.6481 207.5238,-360.2825 207.7199,-333.8069"/>
<polygon fill="none" stroke="#404040" points="207.7221,-333.5099 203.7667,-327.4804 207.811,-321.5102 211.7664,-327.5397 207.7221,-333.5099"/>
<text text-anchor="middle" x="218" y="-343" font-family="Helvetica,sans-Serif" font-size="10.00" fill="#000000"> &#45;_uri</text>
</g>
<!-- Node5 -->
<g id="node5" class="node">
<title>Node5</title>
<polygon fill="none" stroke="#bfbfbf" points="242.5,-397 242.5,-465 401.5,-465 401.5,-397 242.5,-397"/>
<text text-anchor="start" x="250.5" y="-453" font-family="Helvetica,sans-Serif" font-size="10.00" fill="#000000">List&lt; org.cobbzilla.util.collection.</text>
<text text-anchor="middle" x="322" y="-442" font-family="Helvetica,sans-Serif" font-size="10.00" fill="#000000">NameAndValue &gt;</text>
<polyline fill="none" stroke="#bfbfbf" points="242.5,-435 401.5,-435 "/>
<text text-anchor="middle" x="322" y="-423" font-family="Helvetica,sans-Serif" font-size="10.00" fill="#000000"> </text>
<polyline fill="none" stroke="#bfbfbf" points="242.5,-416 401.5,-416 "/>
<text text-anchor="middle" x="322" y="-404" font-family="Helvetica,sans-Serif" font-size="10.00" fill="#000000"> </text>
</g>
<!-- Node5&#45;&gt;Node1 -->
<g id="edge4" class="edge">
<title>Node5&#45;&gt;Node1</title>
<path fill="none" stroke="#404040" d="M307.6885,-396.8043C298.5245,-374.9081 285.9203,-344.7919 272.7819,-313.3993"/>
<polygon fill="none" stroke="#404040" points="272.7501,-313.3232 266.7438,-309.3326 268.1172,-302.2535 274.1235,-306.244 272.7501,-313.3232"/>
<text text-anchor="middle" x="305.5" y="-343" font-family="Helvetica,sans-Serif" font-size="10.00" fill="#000000"> &#45;headers</text>
</g>
<!-- Node6 -->
<g id="node6" class="node">
<title>Node6</title>
<polygon fill="none" stroke="#bfbfbf" points="306,-551.5 306,-608.5 338,-608.5 338,-551.5 306,-551.5"/>
<text text-anchor="middle" x="322" y="-596.5" font-family="Helvetica,sans-Serif" font-size="10.00" fill="#000000">List</text>
<polyline fill="none" stroke="#bfbfbf" points="306,-589.5 338,-589.5 "/>
<text text-anchor="middle" x="322" y="-577.5" font-family="Helvetica,sans-Serif" font-size="10.00" fill="#000000"> </text>
<polyline fill="none" stroke="#bfbfbf" points="306,-570.5 338,-570.5 "/>
<text text-anchor="middle" x="322" y="-558.5" font-family="Helvetica,sans-Serif" font-size="10.00" fill="#000000"> </text>
</g>
<!-- Node6&#45;&gt;Node5 -->
<g id="edge5" class="edge">
<title>Node6&#45;&gt;Node5</title>
<path fill="none" stroke="#ffa500" d="M322,-541.2559C322,-517.6705 322,-487.8175 322,-465.1252"/>
<polygon fill="#ffa500" stroke="#ffa500" points="318.5001,-541.2713 322,-551.2713 325.5001,-541.2713 318.5001,-541.2713"/>
<text text-anchor="start" x="322" y="-525" font-family="Helvetica,sans-Serif" font-size="10.00" fill="#000000"> &lt; org::cobbzilla::util</text>
<text text-anchor="middle" x="387.5" y="-514" font-family="Helvetica,sans-Serif" font-size="10.00" fill="#000000">::collection::NameAndValue &gt;</text>
</g>
<!-- Node7 -->
<g id="node7" class="node">
<title>Node7</title>
<g id="a_node7"><a xlink:href="../../d0/dae/enumorg_1_1cobbzilla_1_1util_1_1http_1_1HttpAuthType.html" target="_top" xlink:title="{org.cobbzilla.util.http.\lHttpAuthType\n|+ basic\l+ digest\l+ kerberos\l&#45; scheme\l|+ HttpAuthType()\l+ newScheme()\l+ create()\l}">
<polygon fill="none" stroke="#000000" points="420,-369.5 420,-492.5 530,-492.5 530,-369.5 420,-369.5"/>
<text text-anchor="start" x="428" y="-480.5" font-family="Helvetica,sans-Serif" font-size="10.00" fill="#000000">org.cobbzilla.util.http.</text>
<text text-anchor="middle" x="475" y="-469.5" font-family="Helvetica,sans-Serif" font-size="10.00" fill="#000000">HttpAuthType</text>
<polyline fill="none" stroke="#000000" points="420,-462.5 530,-462.5 "/>
<text text-anchor="start" x="428" y="-450.5" font-family="Helvetica,sans-Serif" font-size="10.00" fill="#000000">+ basic</text>
<text text-anchor="start" x="428" y="-439.5" font-family="Helvetica,sans-Serif" font-size="10.00" fill="#000000">+ digest</text>
<text text-anchor="start" x="428" y="-428.5" font-family="Helvetica,sans-Serif" font-size="10.00" fill="#000000">+ kerberos</text>
<text text-anchor="start" x="428" y="-417.5" font-family="Helvetica,sans-Serif" font-size="10.00" fill="#000000">&#45; scheme</text>
<polyline fill="none" stroke="#000000" points="420,-410.5 530,-410.5 "/>
<text text-anchor="start" x="428" y="-398.5" font-family="Helvetica,sans-Serif" font-size="10.00" fill="#000000">+ HttpAuthType()</text>
<text text-anchor="start" x="428" y="-387.5" font-family="Helvetica,sans-Serif" font-size="10.00" fill="#000000">+ newScheme()</text>
<text text-anchor="start" x="428" y="-376.5" font-family="Helvetica,sans-Serif" font-size="10.00" fill="#000000">+ create()</text>
</a>
</g>
</g>
<!-- Node7&#45;&gt;Node1 -->
<g id="edge6" class="edge">
<title>Node7&#45;&gt;Node1</title>
<path fill="none" stroke="#404040" d="M419.8846,-375.0558C378.3697,-332.9166 321.2228,-274.9103 276.8892,-229.9101"/>
<polygon fill="none" stroke="#404040" points="276.6235,-229.6404 269.5632,-228.1735 268.2018,-221.092 275.2621,-222.559 276.6235,-229.6404"/>
<text text-anchor="middle" x="411.5" y="-343" font-family="Helvetica,sans-Serif" font-size="10.00" fill="#000000"> &#45;authType</text>
</g>
</g>
</svg>
        <g id="navigator" transform="translate(0 0)" fill="#404254">
                <rect fill="#f2f5e9" fill-opacity="0.5" stroke="#606060" stroke-width=".5" x="0" y="0" width="60" height="60"/>
                <use id="zoomplus" xlink:href="#zoomPlus" x="17" y="9" onmousedown="handleZoom(evt,'in')"/>
                <use id="zoomminus" xlink:href="#zoomMin" x="42" y="9" onmousedown="handleZoom(evt,'out')"/>
                <use id="reset" xlink:href="#resetDef" x="30" y="36" onmousedown="handleReset()"/>
                <g id="arrowUp" xlink:href="#dirArrow" transform="translate(30 24)" onmousedown="handlePan(0,-1)">
                  <use xlink:href="#rim" fill="#404040">
                        <set attributeName="fill" to="#808080" begin="arrowUp.mouseover" end="arrowUp.mouseout"/>
                  </use>
                  <path fill="none" stroke="white" stroke-width="1.5" d="M0,-3.0v7 M-2.5,-0.5L0,-3.0L2.5,-0.5"/>
                </g>
                <g id="arrowRight" xlink:href="#dirArrow" transform="rotate(90) translate(36 -43)" onmousedown="handlePan(1,0)">
                  <use xlink:href="#rim" fill="#404040">
                        <set attributeName="fill" to="#808080" begin="arrowRight.mouseover" end="arrowRight.mouseout"/>
                  </use>
                  <path fill="none" stroke="white" stroke-width="1.5" d="M0,-3.0v7 M-2.5,-0.5L0,-3.0L2.5,-0.5"/>
                </g>
                <g id="arrowDown" xlink:href="#dirArrow" transform="rotate(180) translate(-30 -48)" onmousedown="handlePan(0,1)">
                  <use xlink:href="#rim" fill="#404040">
                        <set attributeName="fill" to="#808080" begin="arrowDown.mouseover" end="arrowDown.mouseout"/>
                  </use>
                  <path fill="none" stroke="white" stroke-width="1.5" d="M0,-3.0v7 M-2.5,-0.5L0,-3.0L2.5,-0.5"/>
                </g>
                <g id="arrowLeft" xlink:href="#dirArrow" transform="rotate(270) translate(-36 17)" onmousedown="handlePan(-1,0)">
                  <use xlink:href="#rim" fill="#404040">
                        <set attributeName="fill" to="#808080" begin="arrowLeft.mouseover" end="arrowLeft.mouseout"/>
                  </use>
                  <path fill="none" stroke="white" stroke-width="1.5" d="M0,-3.0v7 M-2.5,-0.5L0,-3.0L2.5,-0.5"/>
                </g>
        </g>
        <svg viewBox="0 0 15 15" width="100%" height="30px" preserveAspectRatio="xMaxYMin meet">
         <g id="arrow_out" transform="scale(0.3 0.3)">
          <a xlink:href="classorg_1_1cobbzilla_1_1util_1_1http_1_1HttpRequestBean__coll__graph_org.svg" target="_base">
           <rect id="button" ry="5" rx="5" y="6" x="6" height="38" width="38"
                fill="#f2f5e9" fill-opacity="0.5" stroke="#606060" stroke-width="1.0"/>
           <path id="arrow"
             d="M 11.500037,31.436501 C 11.940474,20.09759 22.043105,11.32322 32.158766,21.979434 L 37.068811,17.246167 C 37.068811,17.246167 37.088388,32 37.088388,32 L 22.160133,31.978069 C 22.160133,31.978069 26.997745,27.140456 26.997745,27.140456 C 18.528582,18.264221 13.291696,25.230495 11.500037,31.436501 z"
             style="fill:#404040;"/>
          </a>
         </g>
        </svg>
</svg>
