<?xml version="1.0" encoding="UTF-8" standalone="no"?>
<!DOCTYPE svg PUBLIC "-//W3C//DTD SVG 1.1//EN"
 "http://www.w3.org/Graphics/SVG/1.1/DTD/svg11.dtd">
<!-- Generated by graphviz version 2.40.1 (20161225.0304)
 -->
<!-- Title: org.cobbzilla.util.json.JsonEdit.edit Pages: 1 -->
<svg width="290pt" height="88pt"
 viewBox="0.00 0.00 290.00 88.00" xmlns="http://www.w3.org/2000/svg" xmlns:xlink="http://www.w3.org/1999/xlink">
<g id="graph0" class="graph" transform="scale(1 1) rotate(0) translate(4 84)">
<title>org.cobbzilla.util.json.JsonEdit.edit</title>
<!-- Node2 -->
<g id="node1" class="node">
<title>Node2</title>
<polygon fill="#bfbfbf" stroke="#000000" points="0,-24.5 0,-54.5 111,-54.5 111,-24.5 0,-24.5"/>
<text text-anchor="start" x="8" y="-42.5" font-family="Helvetica,sans-Serif" font-size="10.00" fill="#000000">org.cobbzilla.util.json.</text>
<text text-anchor="middle" x="55.5" y="-31.5" font-family="Helvetica,sans-Serif" font-size="10.00" fill="#000000">JsonEdit.edit</text>
</g>
<!-- Node3 -->
<g id="node2" class="node">
<title>Node3</title>
<g id="a_node2"><a xlink:href="../../d3/d75/classorg_1_1cobbzilla_1_1util_1_1json_1_1main_1_1JsonEditor_ad06ae51ad03acf41df4ddca3500bc086.html#ad06ae51ad03acf41df4ddca3500bc086" target="_top" xlink:title="org.cobbzilla.util.json.main.\lJsonEditor.run">
<polygon fill="none" stroke="#000000" points="147,-49.5 147,-79.5 282,-79.5 282,-49.5 147,-49.5"/>
<text text-anchor="start" x="155" y="-67.5" font-family="Helvetica,sans-Serif" font-size="10.00" fill="#000000">org.cobbzilla.util.json.main.</text>
<text text-anchor="middle" x="214.5" y="-56.5" font-family="Helvetica,sans-Serif" font-size="10.00" fill="#000000">JsonEditor.run</text>
</a>
</g>
</g>
<!-- Node2&#45;&gt;Node3 -->
<g id="edge1" class="edge">
<title>Node2&#45;&gt;Node3</title>
<path fill="none" stroke="#191970" d="M121.0092,-49.8002C129.5494,-51.143 138.312,-52.5208 146.886,-53.8689"/>
<polygon fill="#191970" stroke="#191970" points="121.5328,-46.3396 111.1105,-48.2438 120.4455,-53.2546 121.5328,-46.3396"/>
</g>
<!-- Node4 -->
<g id="node3" class="node">
<title>Node4</title>
<g id="a_node3"><a xlink:href="../../d1/d68/classorg_1_1cobbzilla_1_1util_1_1json_1_1JsonEditTest_ab3fb98ec8772451e27673ba5d5368cd7.html#ab3fb98ec8772451e27673ba5d5368cd7" target="_top" xlink:title="org.cobbzilla.util.json.\lJsonEditTest.testEditJson">
<polygon fill="none" stroke="#000000" points="148.5,-.5 148.5,-30.5 280.5,-30.5 280.5,-.5 148.5,-.5"/>
<text text-anchor="start" x="156.5" y="-18.5" font-family="Helvetica,sans-Serif" font-size="10.00" fill="#000000">org.cobbzilla.util.json.</text>
<text text-anchor="middle" x="214.5" y="-7.5" font-family="Helvetica,sans-Serif" font-size="10.00" fill="#000000">JsonEditTest.testEditJson</text>
</a>
</g>
</g>
<!-- Node2&#45;&gt;Node4 -->
<g id="edge2" class="edge">
<title>Node2&#45;&gt;Node4</title>
<path fill="none" stroke="#191970" d="M121.1085,-29.5968C130.078,-28.2429 139.2909,-26.8523 148.2713,-25.4968"/>
<polygon fill="#191970" stroke="#191970" points="120.4761,-26.1526 111.1105,-31.106 121.5209,-33.0742 120.4761,-26.1526"/>
</g>
</g>
</svg>
