<?xml version="1.0" encoding="UTF-8" standalone="no"?>
<!DOCTYPE svg PUBLIC "-//W3C//DTD SVG 1.1//EN"
 "http://www.w3.org/Graphics/SVG/1.1/DTD/svg11.dtd">
<!-- Generated by graphviz version 2.40.1 (20161225.0304)
 -->
<!-- Title: org.cobbzilla.util.xml.XmlUtil.MatchNodeNameAndText Pages: 1 -->
<svg width="253pt" height="554pt"
 viewBox="0.00 0.00 253.00 554.00" xmlns="http://www.w3.org/2000/svg" xmlns:xlink="http://www.w3.org/1999/xlink">
<g id="graph0" class="graph" transform="scale(1 1) rotate(0) translate(4 550)">
<title>org.cobbzilla.util.xml.XmlUtil.MatchNodeNameAndText</title>
<!-- Node4 -->
<g id="node1" class="node">
<title>Node4</title>
<polygon fill="#bfbfbf" stroke="#000000" points="28,-.5 28,-79.5 176,-79.5 176,-.5 28,-.5"/>
<text text-anchor="start" x="36" y="-67.5" font-family="Helvetica,sans-Serif" font-size="10.00" fill="#000000">org.cobbzilla.util.xml.Xml</text>
<text text-anchor="middle" x="102" y="-56.5" font-family="Helvetica,sans-Serif" font-size="10.00" fill="#000000">Util.MatchNodeNameAndText</text>
<polyline fill="none" stroke="#000000" points="28,-49.5 176,-49.5 "/>
<text text-anchor="start" x="36" y="-37.5" font-family="Helvetica,sans-Serif" font-size="10.00" fill="#000000">&#45; text</text>
<polyline fill="none" stroke="#000000" points="28,-30.5 176,-30.5 "/>
<text text-anchor="start" x="36" y="-18.5" font-family="Helvetica,sans-Serif" font-size="10.00" fill="#000000">+ MatchNodeNameAndText()</text>
<text text-anchor="start" x="36" y="-7.5" font-family="Helvetica,sans-Serif" font-size="10.00" fill="#000000"># check()</text>
</g>
<!-- Node5 -->
<g id="node2" class="node">
<title>Node5</title>
<g id="a_node2"><a xlink:href="../../df/d83/classorg_1_1cobbzilla_1_1util_1_1xml_1_1XmlUtil_1_1MatchNodeName.html" target="_top" xlink:title="{org.cobbzilla.util.xml.Xml\lUtil.MatchNodeName\n||+ MatchNodeName()\l# check()\l}">
<polygon fill="none" stroke="#000000" points="39,-117.5 39,-196.5 165,-196.5 165,-117.5 39,-117.5"/>
<text text-anchor="start" x="47" y="-184.5" font-family="Helvetica,sans-Serif" font-size="10.00" fill="#000000">org.cobbzilla.util.xml.Xml</text>
<text text-anchor="middle" x="102" y="-173.5" font-family="Helvetica,sans-Serif" font-size="10.00" fill="#000000">Util.MatchNodeName</text>
<polyline fill="none" stroke="#000000" points="39,-166.5 165,-166.5 "/>
<text text-anchor="middle" x="102" y="-154.5" font-family="Helvetica,sans-Serif" font-size="10.00" fill="#000000"> </text>
<polyline fill="none" stroke="#000000" points="39,-147.5 165,-147.5 "/>
<text text-anchor="start" x="47" y="-135.5" font-family="Helvetica,sans-Serif" font-size="10.00" fill="#000000">+ MatchNodeName()</text>
<text text-anchor="start" x="47" y="-124.5" font-family="Helvetica,sans-Serif" font-size="10.00" fill="#000000"># check()</text>
</a>
</g>
</g>
<!-- Node5&#45;&gt;Node4 -->
<g id="edge1" class="edge">
<title>Node5&#45;&gt;Node4</title>
<path fill="none" stroke="#191970" d="M102,-107.1578C102,-97.9409 102,-88.4308 102,-79.5701"/>
<polygon fill="none" stroke="#191970" points="98.5001,-107.3891 102,-117.3891 105.5001,-107.3892 98.5001,-107.3891"/>
</g>
<!-- Node6 -->
<g id="node3" class="node">
<title>Node6</title>
<g id="a_node3"><a xlink:href="../../de/dc6/classorg_1_1cobbzilla_1_1util_1_1xml_1_1XmlUtil_1_1MatchNodeXMLFunction.html" target="_top" xlink:title="{org.cobbzilla.util.xml.Xml\lUtil.MatchNodeXMLFunction\n|# value\l|+ MatchNodeXMLFunction()\l+ apply()\l# check()\l}">
<polygon fill="none" stroke="#000000" points="30.5,-234.5 30.5,-324.5 173.5,-324.5 173.5,-234.5 30.5,-234.5"/>
<text text-anchor="start" x="38.5" y="-312.5" font-family="Helvetica,sans-Serif" font-size="10.00" fill="#000000">org.cobbzilla.util.xml.Xml</text>
<text text-anchor="middle" x="102" y="-301.5" font-family="Helvetica,sans-Serif" font-size="10.00" fill="#000000">Util.MatchNodeXMLFunction</text>
<polyline fill="none" stroke="#000000" points="30.5,-294.5 173.5,-294.5 "/>
<text text-anchor="start" x="38.5" y="-282.5" font-family="Helvetica,sans-Serif" font-size="10.00" fill="#000000"># value</text>
<polyline fill="none" stroke="#000000" points="30.5,-275.5 173.5,-275.5 "/>
<text text-anchor="start" x="38.5" y="-263.5" font-family="Helvetica,sans-Serif" font-size="10.00" fill="#000000">+ MatchNodeXMLFunction()</text>
<text text-anchor="start" x="38.5" y="-252.5" font-family="Helvetica,sans-Serif" font-size="10.00" fill="#000000">+ apply()</text>
<text text-anchor="start" x="38.5" y="-241.5" font-family="Helvetica,sans-Serif" font-size="10.00" fill="#000000"># check()</text>
</a>
</g>
</g>
<!-- Node6&#45;&gt;Node5 -->
<g id="edge2" class="edge">
<title>Node6&#45;&gt;Node5</title>
<path fill="none" stroke="#191970" d="M102,-224.0079C102,-214.8464 102,-205.5116 102,-196.8331"/>
<polygon fill="none" stroke="#191970" points="98.5001,-224.2335 102,-234.2336 105.5001,-224.2336 98.5001,-224.2335"/>
</g>
<!-- Node7 -->
<g id="node4" class="node">
<title>Node7</title>
<g id="a_node4"><a xlink:href="../../d8/dba/interfaceorg_1_1cobbzilla_1_1util_1_1xml_1_1XmlElementFunction.html" target="_top" xlink:title="{org.cobbzilla.util.xml.Xml\lElementFunction\n||+ apply()\l}">
<polygon fill="none" stroke="#000000" points="0,-372.5 0,-440.5 126,-440.5 126,-372.5 0,-372.5"/>
<text text-anchor="start" x="8" y="-428.5" font-family="Helvetica,sans-Serif" font-size="10.00" fill="#000000">org.cobbzilla.util.xml.Xml</text>
<text text-anchor="middle" x="63" y="-417.5" font-family="Helvetica,sans-Serif" font-size="10.00" fill="#000000">ElementFunction</text>
<polyline fill="none" stroke="#000000" points="0,-410.5 126,-410.5 "/>
<text text-anchor="middle" x="63" y="-398.5" font-family="Helvetica,sans-Serif" font-size="10.00" fill="#000000"> </text>
<polyline fill="none" stroke="#000000" points="0,-391.5 126,-391.5 "/>
<text text-anchor="start" x="8" y="-379.5" font-family="Helvetica,sans-Serif" font-size="10.00" fill="#000000">+ apply()</text>
</a>
</g>
</g>
<!-- Node7&#45;&gt;Node6 -->
<g id="edge3" class="edge">
<title>Node7&#45;&gt;Node6</title>
<path fill="none" stroke="#191970" d="M76.4053,-362.847C80.1956,-350.5042 84.3274,-337.0492 88.1437,-324.6219"/>
<polygon fill="none" stroke="#191970" points="73.0411,-361.8794 73.4513,-372.4663 79.7327,-363.9344 73.0411,-361.8794"/>
</g>
<!-- Node8 -->
<g id="node5" class="node">
<title>Node8</title>
<polygon fill="none" stroke="#bfbfbf" points="144,-378 144,-435 230,-435 230,-378 144,-378"/>
<text text-anchor="middle" x="187" y="-423" font-family="Helvetica,sans-Serif" font-size="10.00" fill="#000000">List&lt; Element &gt;</text>
<polyline fill="none" stroke="#bfbfbf" points="144,-416 230,-416 "/>
<text text-anchor="middle" x="187" y="-404" font-family="Helvetica,sans-Serif" font-size="10.00" fill="#000000"> </text>
<polyline fill="none" stroke="#bfbfbf" points="144,-397 230,-397 "/>
<text text-anchor="middle" x="187" y="-385" font-family="Helvetica,sans-Serif" font-size="10.00" fill="#000000"> </text>
</g>
<!-- Node8&#45;&gt;Node6 -->
<g id="edge4" class="edge">
<title>Node8&#45;&gt;Node6</title>
<path fill="none" stroke="#404040" d="M167.9243,-377.9987C159.4137,-365.2828 149.0806,-349.8439 139.1443,-334.9979"/>
<polygon fill="none" stroke="#404040" points="139.0305,-334.8279 132.3691,-332.0665 132.356,-324.8554 139.0174,-327.6168 139.0305,-334.8279"/>
<text text-anchor="middle" x="165.5" y="-346" font-family="Helvetica,sans-Serif" font-size="10.00" fill="#000000"> #found</text>
</g>
<!-- Node9 -->
<g id="node6" class="node">
<title>Node9</title>
<polygon fill="none" stroke="#bfbfbf" points="171,-488.5 171,-545.5 203,-545.5 203,-488.5 171,-488.5"/>
<text text-anchor="middle" x="187" y="-533.5" font-family="Helvetica,sans-Serif" font-size="10.00" fill="#000000">List</text>
<polyline fill="none" stroke="#bfbfbf" points="171,-526.5 203,-526.5 "/>
<text text-anchor="middle" x="187" y="-514.5" font-family="Helvetica,sans-Serif" font-size="10.00" fill="#000000"> </text>
<polyline fill="none" stroke="#bfbfbf" points="171,-507.5 203,-507.5 "/>
<text text-anchor="middle" x="187" y="-495.5" font-family="Helvetica,sans-Serif" font-size="10.00" fill="#000000"> </text>
</g>
<!-- Node9&#45;&gt;Node8 -->
<g id="edge5" class="edge">
<title>Node9&#45;&gt;Node8</title>
<path fill="none" stroke="#ffa500" d="M187,-477.845C187,-463.7511 187,-448.1262 187,-435.1002"/>
<polygon fill="#ffa500" stroke="#ffa500" points="183.5001,-478.2559 187,-488.2559 190.5001,-478.2559 183.5001,-478.2559"/>
<text text-anchor="middle" x="216" y="-462" font-family="Helvetica,sans-Serif" font-size="10.00" fill="#000000"> &lt; Element &gt;</text>
</g>
</g>
</svg>
