<?xml version="1.0" encoding="UTF-8" standalone="no"?>
<!DOCTYPE svg PUBLIC "-//W3C//DTD SVG 1.1//EN"
 "http://www.w3.org/Graphics/SVG/1.1/DTD/svg11.dtd">
<!-- Generated by graphviz version 2.40.1 (20161225.0304)
 -->
<!-- Title: org.cobbzilla.util.collection.FieldTransformer Pages: 1 -->
<svg width="218pt" height="205pt"
 viewBox="0.00 0.00 218.00 205.00" xmlns="http://www.w3.org/2000/svg" xmlns:xlink="http://www.w3.org/1999/xlink">
<g id="graph0" class="graph" transform="scale(1 1) rotate(0) translate(4 201)">
<title>org.cobbzilla.util.collection.FieldTransformer</title>
<!-- Node2 -->
<g id="node1" class="node">
<title>Node2</title>
<polygon fill="#bfbfbf" stroke="#000000" points="0,-.5 0,-101.5 134,-101.5 134,-.5 0,-.5"/>
<text text-anchor="start" x="8" y="-89.5" font-family="Helvetica,sans-Serif" font-size="10.00" fill="#000000">org.cobbzilla.util.collection.</text>
<text text-anchor="middle" x="67" y="-78.5" font-family="Helvetica,sans-Serif" font-size="10.00" fill="#000000">FieldTransformer</text>
<polyline fill="none" stroke="#000000" points="0,-71.5 134,-71.5 "/>
<text text-anchor="start" x="8" y="-59.5" font-family="Helvetica,sans-Serif" font-size="10.00" fill="#000000">&#45; field</text>
<polyline fill="none" stroke="#000000" points="0,-52.5 134,-52.5 "/>
<text text-anchor="start" x="8" y="-40.5" font-family="Helvetica,sans-Serif" font-size="10.00" fill="#000000">+ transform()</text>
<text text-anchor="start" x="8" y="-29.5" font-family="Helvetica,sans-Serif" font-size="10.00" fill="#000000">~ collect()</text>
<text text-anchor="start" x="8" y="-18.5" font-family="Helvetica,sans-Serif" font-size="10.00" fill="#000000">~ collectSet()</text>
<text text-anchor="start" x="8" y="-7.5" font-family="Helvetica,sans-Serif" font-size="10.00" fill="#000000">~ array()</text>
</g>
<!-- Node2&#45;&gt;Node2 -->
<g id="edge2" class="edge">
<title>Node2&#45;&gt;Node2</title>
<path fill="none" stroke="#404040" d="M134.337,-62.6846C144.8397,-60.9379 152,-57.043 152,-51 152,-47.6008 149.7344,-44.8813 145.8828,-42.8415"/>
<polygon fill="none" stroke="#404040" points="145.8137,-42.8205 138.907,-44.8935 134.337,-39.3154 141.2437,-37.2423 145.8137,-42.8205"/>
<text text-anchor="middle" x="181" y="-59.5" font-family="Helvetica,sans-Serif" font-size="10.00" fill="#000000"> +TO_NAME</text>
<text text-anchor="middle" x="181" y="-48.5" font-family="Helvetica,sans-Serif" font-size="10.00" fill="#000000">+TO_ID</text>
<text text-anchor="middle" x="181" y="-37.5" font-family="Helvetica,sans-Serif" font-size="10.00" fill="#000000">+TO_UUID</text>
</g>
<!-- Node3 -->
<g id="node2" class="node">
<title>Node3</title>
<polygon fill="none" stroke="#bfbfbf" points="32.5,-139.5 32.5,-196.5 101.5,-196.5 101.5,-139.5 32.5,-139.5"/>
<text text-anchor="middle" x="67" y="-184.5" font-family="Helvetica,sans-Serif" font-size="10.00" fill="#000000">Transformer</text>
<polyline fill="none" stroke="#bfbfbf" points="32.5,-177.5 101.5,-177.5 "/>
<text text-anchor="middle" x="67" y="-165.5" font-family="Helvetica,sans-Serif" font-size="10.00" fill="#000000"> </text>
<polyline fill="none" stroke="#bfbfbf" points="32.5,-158.5 101.5,-158.5 "/>
<text text-anchor="middle" x="67" y="-146.5" font-family="Helvetica,sans-Serif" font-size="10.00" fill="#000000"> </text>
</g>
<!-- Node3&#45;&gt;Node2 -->
<g id="edge1" class="edge">
<title>Node3&#45;&gt;Node2</title>
<path fill="none" stroke="#191970" d="M67,-129.3581C67,-120.5039 67,-110.9611 67,-101.6852"/>
<polygon fill="none" stroke="#191970" points="63.5001,-129.3785 67,-139.3786 70.5001,-129.3786 63.5001,-129.3785"/>
</g>
</g>
</svg>
