<?xml version="1.0" encoding="UTF-8" standalone="no"?>
<!DOCTYPE svg PUBLIC "-//W3C//DTD SVG 1.1//EN"
 "http://www.w3.org/Graphics/SVG/1.1/DTD/svg11.dtd">
<!-- Generated by graphviz version 2.40.1 (20161225.0304)
 -->
<!-- Title: org.cobbzilla.util.chef.VendorDatabag Pages: 1 -->
<svg width="216pt" height="353pt"
 viewBox="0.00 0.00 215.50 353.00" xmlns="http://www.w3.org/2000/svg" xmlns:xlink="http://www.w3.org/1999/xlink">
<g id="graph0" class="graph" transform="scale(1 1) rotate(0) translate(4 349)">
<title>org.cobbzilla.util.chef.VendorDatabag</title>
<!-- Node1 -->
<g id="node1" class="node">
<title>Node1</title>
<polygon fill="#bfbfbf" stroke="#000000" points="10,-.5 10,-112.5 127,-112.5 127,-.5 10,-.5"/>
<text text-anchor="start" x="18" y="-100.5" font-family="Helvetica,sans-Serif" font-size="10.00" fill="#000000">org.cobbzilla.util.chef.</text>
<text text-anchor="middle" x="68.5" y="-89.5" font-family="Helvetica,sans-Serif" font-size="10.00" fill="#000000">VendorDatabag</text>
<polyline fill="none" stroke="#000000" points="10,-82.5 127,-82.5 "/>
<text text-anchor="start" x="18" y="-70.5" font-family="Helvetica,sans-Serif" font-size="10.00" fill="#000000">&#45; service_key_endpoint</text>
<text text-anchor="start" x="18" y="-59.5" font-family="Helvetica,sans-Serif" font-size="10.00" fill="#000000">&#45; ssl_key_sha</text>
<polyline fill="none" stroke="#000000" points="10,-52.5 127,-52.5 "/>
<text text-anchor="start" x="18" y="-40.5" font-family="Helvetica,sans-Serif" font-size="10.00" fill="#000000">+ addSetting()</text>
<text text-anchor="start" x="18" y="-29.5" font-family="Helvetica,sans-Serif" font-size="10.00" fill="#000000">+ getSetting()</text>
<text text-anchor="start" x="18" y="-18.5" font-family="Helvetica,sans-Serif" font-size="10.00" fill="#000000">+ containsSetting()</text>
<text text-anchor="start" x="18" y="-7.5" font-family="Helvetica,sans-Serif" font-size="10.00" fill="#000000">+ isDefault()</text>
</g>
<!-- Node1&#45;&gt;Node1 -->
<g id="edge1" class="edge">
<title>Node1&#45;&gt;Node1</title>
<path fill="none" stroke="#404040" d="M127.1954,-70.6202C137.6779,-68.7849 145,-64.0781 145,-56.5 145,-52.2373 142.6833,-48.8831 138.7904,-46.4375"/>
<polygon fill="none" stroke="#404040" points="138.5219,-46.3436 131.5374,-48.1372 127.1954,-42.3798 134.1799,-40.5862 138.5219,-46.3436"/>
<text text-anchor="middle" x="162.5" y="-54" font-family="Helvetica,sans-Serif" font-size="10.00" fill="#000000"> +NULL</text>
</g>
<!-- Node2 -->
<g id="node2" class="node">
<title>Node2</title>
<polygon fill="none" stroke="#bfbfbf" points="0,-160.5 0,-228.5 137,-228.5 137,-160.5 0,-160.5"/>
<text text-anchor="start" x="8" y="-216.5" font-family="Helvetica,sans-Serif" font-size="10.00" fill="#000000">List&lt; org.cobbzilla.util.chef.</text>
<text text-anchor="middle" x="68.5" y="-205.5" font-family="Helvetica,sans-Serif" font-size="10.00" fill="#000000">VendorDatabagSetting &gt;</text>
<polyline fill="none" stroke="#bfbfbf" points="0,-198.5 137,-198.5 "/>
<text text-anchor="middle" x="68.5" y="-186.5" font-family="Helvetica,sans-Serif" font-size="10.00" fill="#000000"> </text>
<polyline fill="none" stroke="#bfbfbf" points="0,-179.5 137,-179.5 "/>
<text text-anchor="middle" x="68.5" y="-167.5" font-family="Helvetica,sans-Serif" font-size="10.00" fill="#000000"> </text>
</g>
<!-- Node2&#45;&gt;Node1 -->
<g id="edge2" class="edge">
<title>Node2&#45;&gt;Node1</title>
<path fill="none" stroke="#404040" d="M68.5,-160.3876C68.5,-149.5526 68.5,-137.1601 68.5,-124.7976"/>
<polygon fill="none" stroke="#404040" points="68.5001,-124.504 64.5,-118.504 68.5,-112.504 72.5,-118.5039 68.5001,-124.504"/>
<text text-anchor="middle" x="89" y="-134" font-family="Helvetica,sans-Serif" font-size="10.00" fill="#000000"> &#45;settings</text>
</g>
<!-- Node3 -->
<g id="node3" class="node">
<title>Node3</title>
<polygon fill="none" stroke="#bfbfbf" points="52.5,-287.5 52.5,-344.5 84.5,-344.5 84.5,-287.5 52.5,-287.5"/>
<text text-anchor="middle" x="68.5" y="-332.5" font-family="Helvetica,sans-Serif" font-size="10.00" fill="#000000">List</text>
<polyline fill="none" stroke="#bfbfbf" points="52.5,-325.5 84.5,-325.5 "/>
<text text-anchor="middle" x="68.5" y="-313.5" font-family="Helvetica,sans-Serif" font-size="10.00" fill="#000000"> </text>
<polyline fill="none" stroke="#bfbfbf" points="52.5,-306.5 84.5,-306.5 "/>
<text text-anchor="middle" x="68.5" y="-294.5" font-family="Helvetica,sans-Serif" font-size="10.00" fill="#000000"> </text>
</g>
<!-- Node3&#45;&gt;Node2 -->
<g id="edge3" class="edge">
<title>Node3&#45;&gt;Node2</title>
<path fill="none" stroke="#ffa500" d="M68.5,-276.8733C68.5,-261.3628 68.5,-243.6896 68.5,-228.7007"/>
<polygon fill="#ffa500" stroke="#ffa500" points="65.0001,-277.2062 68.5,-287.2062 72.0001,-277.2062 65.0001,-277.2062"/>
<text text-anchor="start" x="68.5" y="-261" font-family="Helvetica,sans-Serif" font-size="10.00" fill="#000000"> &lt; org::cobbzilla::util</text>
<text text-anchor="middle" x="138" y="-250" font-family="Helvetica,sans-Serif" font-size="10.00" fill="#000000">::chef::VendorDatabagSetting &gt;</text>
</g>
</g>
</svg>
