<?xml version="1.0" encoding="UTF-8" standalone="no"?>
<!DOCTYPE svg PUBLIC "-//W3C//DTD SVG 1.1//EN"
 "http://www.w3.org/Graphics/SVG/1.1/DTD/svg11.dtd">
<!-- Generated by graphviz version 2.40.1 (20161225.0304)
 -->
<!-- Title: org.cobbzilla.util.main.BaseMain.err Pages: 1 -->
<svg width="322pt" height="209pt"
 viewBox="0.00 0.00 322.00 209.00" xmlns="http://www.w3.org/2000/svg" xmlns:xlink="http://www.w3.org/1999/xlink">
<g id="graph0" class="graph" transform="scale(1 1) rotate(0) translate(4 205)">
<title>org.cobbzilla.util.main.BaseMain.err</title>
<!-- Node1 -->
<g id="node1" class="node">
<title>Node1</title>
<polygon fill="#bfbfbf" stroke="#000000" points="0,-85 0,-115 114,-115 114,-85 0,-85"/>
<text text-anchor="start" x="8" y="-103" font-family="Helvetica,sans-Serif" font-size="10.00" fill="#000000">org.cobbzilla.util.main.</text>
<text text-anchor="middle" x="57" y="-92" font-family="Helvetica,sans-Serif" font-size="10.00" fill="#000000">BaseMain.err</text>
</g>
<!-- Node2 -->
<g id="node2" class="node">
<title>Node2</title>
<g id="a_node2"><a xlink:href="../../d6/dee/classorg_1_1cobbzilla_1_1util_1_1main_1_1BaseMain_ac04f5a8f9a427c4c40f26cd0605c414f.html#ac04f5a8f9a427c4c40f26cd0605c414f" target="_top" xlink:title="org.cobbzilla.util.main.\lBaseMain\&lt; HttpMainOptions\l \&gt;::die">
<polygon fill="none" stroke="#000000" points="160.5,-159.5 160.5,-200.5 303.5,-200.5 303.5,-159.5 160.5,-159.5"/>
<text text-anchor="start" x="168.5" y="-188.5" font-family="Helvetica,sans-Serif" font-size="10.00" fill="#000000">org.cobbzilla.util.main.</text>
<text text-anchor="start" x="168.5" y="-177.5" font-family="Helvetica,sans-Serif" font-size="10.00" fill="#000000">BaseMain&lt; HttpMainOptions</text>
<text text-anchor="middle" x="232" y="-166.5" font-family="Helvetica,sans-Serif" font-size="10.00" fill="#000000"> &gt;::die</text>
</a>
</g>
</g>
<!-- Node1&#45;&gt;Node2 -->
<g id="edge1" class="edge">
<title>Node1&#45;&gt;Node2</title>
<path fill="none" stroke="#191970" d="M91.6806,-120.1693C108.9209,-129.8006 130.2458,-141.1306 150,-150 157.1911,-153.2287 164.8441,-156.3836 172.4746,-159.3613"/>
<polygon fill="#191970" stroke="#191970" points="92.9877,-116.888 82.5589,-115.0197 89.5464,-122.9837 92.9877,-116.888"/>
</g>
<!-- Node3 -->
<g id="node3" class="node">
<title>Node3</title>
<g id="a_node3"><a xlink:href="../../d7/d34/classorg_1_1cobbzilla_1_1util_1_1http_1_1main_1_1HttpMain_ab61ecaa37677987a1f5ae1ce50fcd517.html#ab61ecaa37677987a1f5ae1ce50fcd517" target="_top" xlink:title="org.cobbzilla.util.http.main.\lHttpMain.run">
<polygon fill="none" stroke="#000000" points="165,-110 165,-140 299,-140 299,-110 165,-110"/>
<text text-anchor="start" x="173" y="-128" font-family="Helvetica,sans-Serif" font-size="10.00" fill="#000000">org.cobbzilla.util.http.main.</text>
<text text-anchor="middle" x="232" y="-117" font-family="Helvetica,sans-Serif" font-size="10.00" fill="#000000">HttpMain.run</text>
</a>
</g>
</g>
<!-- Node1&#45;&gt;Node3 -->
<g id="edge2" class="edge">
<title>Node1&#45;&gt;Node3</title>
<path fill="none" stroke="#191970" d="M124.3138,-109.6163C137.6029,-111.5147 151.5489,-113.507 164.8331,-115.4047"/>
<polygon fill="#191970" stroke="#191970" points="124.696,-106.1354 114.3015,-108.1859 123.706,-113.0651 124.696,-106.1354"/>
</g>
<!-- Node4 -->
<g id="node4" class="node">
<title>Node4</title>
<g id="a_node4"><a xlink:href="../../d9/d75/classorg_1_1cobbzilla_1_1util_1_1handlebars_1_1main_1_1PdfMergeMain_a125fc1d1e7f706476767dcc2fdb0b34d.html#a125fc1d1e7f706476767dcc2fdb0b34d" target="_top" xlink:title="org.cobbzilla.util.handlebars.main.\lPdfMergeMain.run">
<polygon fill="none" stroke="#000000" points="150,-61 150,-91 314,-91 314,-61 150,-61"/>
<text text-anchor="start" x="158" y="-79" font-family="Helvetica,sans-Serif" font-size="10.00" fill="#000000">org.cobbzilla.util.handlebars.main.</text>
<text text-anchor="middle" x="232" y="-68" font-family="Helvetica,sans-Serif" font-size="10.00" fill="#000000">PdfMergeMain.run</text>
</a>
</g>
</g>
<!-- Node1&#45;&gt;Node4 -->
<g id="edge3" class="edge">
<title>Node1&#45;&gt;Node4</title>
<path fill="none" stroke="#191970" d="M124.3283,-90.7664C132.6716,-89.6222 141.2738,-88.4425 149.8083,-87.272"/>
<polygon fill="#191970" stroke="#191970" points="123.7332,-87.3152 114.3015,-92.1415 124.6844,-94.2502 123.7332,-87.3152"/>
</g>
<!-- Node5 -->
<g id="node5" class="node">
<title>Node5</title>
<g id="a_node5"><a xlink:href="../../d6/dee/classorg_1_1cobbzilla_1_1util_1_1main_1_1BaseMain_a6cfff8486b5efb682f31db95604c443b.html#a6cfff8486b5efb682f31db95604c443b" target="_top" xlink:title="org.cobbzilla.util.main.\lBaseMain\&lt; HttpMainOptions\l \&gt;::showHelpAndExit">
<polygon fill="none" stroke="#000000" points="160.5,-.5 160.5,-41.5 303.5,-41.5 303.5,-.5 160.5,-.5"/>
<text text-anchor="start" x="168.5" y="-29.5" font-family="Helvetica,sans-Serif" font-size="10.00" fill="#000000">org.cobbzilla.util.main.</text>
<text text-anchor="start" x="168.5" y="-18.5" font-family="Helvetica,sans-Serif" font-size="10.00" fill="#000000">BaseMain&lt; HttpMainOptions</text>
<text text-anchor="middle" x="232" y="-7.5" font-family="Helvetica,sans-Serif" font-size="10.00" fill="#000000"> &gt;::showHelpAndExit</text>
</a>
</g>
</g>
<!-- Node1&#45;&gt;Node5 -->
<g id="edge4" class="edge">
<title>Node1&#45;&gt;Node5</title>
<path fill="none" stroke="#191970" d="M93.2992,-80.0332C110.2964,-71.0039 130.9536,-60.4817 150,-52 158.0639,-48.409 166.6829,-44.8539 175.1916,-41.5028"/>
<polygon fill="#191970" stroke="#191970" points="91.4275,-77.0652 84.2663,-84.8734 94.7338,-83.2352 91.4275,-77.0652"/>
</g>
</g>
</svg>
