<?xml version="1.0" encoding="UTF-8" standalone="no"?>
<!DOCTYPE svg PUBLIC "-//W3C//DTD SVG 1.1//EN"
 "http://www.w3.org/Graphics/SVG/1.1/DTD/svg11.dtd">
<!-- Generated by graphviz version 2.40.1 (20161225.0304)
 -->
<!-- Title: org.cobbzilla.util.main.BaseMain.out Pages: 1 -->
<svg width="322pt" height="235pt"
 viewBox="0.00 0.00 322.00 235.00" xmlns="http://www.w3.org/2000/svg" xmlns:xlink="http://www.w3.org/1999/xlink">
<g id="graph0" class="graph" transform="scale(1 1) rotate(0) translate(4 231)">
<title>org.cobbzilla.util.main.BaseMain.out</title>
<!-- Node1 -->
<g id="node1" class="node">
<title>Node1</title>
<polygon fill="#bfbfbf" stroke="#000000" points="0,-98.5 0,-128.5 114,-128.5 114,-98.5 0,-98.5"/>
<text text-anchor="start" x="8" y="-116.5" font-family="Helvetica,sans-Serif" font-size="10.00" fill="#000000">org.cobbzilla.util.main.</text>
<text text-anchor="middle" x="57" y="-105.5" font-family="Helvetica,sans-Serif" font-size="10.00" fill="#000000">BaseMain.out</text>
</g>
<!-- Node2 -->
<g id="node2" class="node">
<title>Node2</title>
<g id="a_node2"><a xlink:href="../../d8/de4/classorg_1_1cobbzilla_1_1util_1_1io_1_1main_1_1UnrollMain_a27b9eb6dd72485b32035fd0155059601.html#a27b9eb6dd72485b32035fd0155059601" target="_top" xlink:title="org.cobbzilla.util.io.main.\lUnrollMain.run">
<polygon fill="none" stroke="#000000" points="169.5,-196.5 169.5,-226.5 294.5,-226.5 294.5,-196.5 169.5,-196.5"/>
<text text-anchor="start" x="177.5" y="-214.5" font-family="Helvetica,sans-Serif" font-size="10.00" fill="#000000">org.cobbzilla.util.io.main.</text>
<text text-anchor="middle" x="232" y="-203.5" font-family="Helvetica,sans-Serif" font-size="10.00" fill="#000000">UnrollMain.run</text>
</a>
</g>
</g>
<!-- Node1&#45;&gt;Node2 -->
<g id="edge1" class="edge">
<title>Node1&#45;&gt;Node2</title>
<path fill="none" stroke="#191970" d="M79.6984,-135.76C97.5121,-152.1311 123.6324,-173.8256 150,-187.5 156.4523,-190.8462 163.4387,-193.7907 170.5184,-196.3647"/>
<polygon fill="#191970" stroke="#191970" points="81.816,-132.9476 72.1272,-128.6606 77.0279,-138.0539 81.816,-132.9476"/>
</g>
<!-- Node3 -->
<g id="node3" class="node">
<title>Node3</title>
<g id="a_node3"><a xlink:href="../../d5/d66/classorg_1_1cobbzilla_1_1util_1_1handlebars_1_1main_1_1PdfConcatMain_a30671154df3bc2383e6445df23ffacec.html#a30671154df3bc2383e6445df23ffacec" target="_top" xlink:title="org.cobbzilla.util.handlebars.main.\lPdfConcatMain.run">
<polygon fill="none" stroke="#000000" points="150,-147.5 150,-177.5 314,-177.5 314,-147.5 150,-147.5"/>
<text text-anchor="start" x="158" y="-165.5" font-family="Helvetica,sans-Serif" font-size="10.00" fill="#000000">org.cobbzilla.util.handlebars.main.</text>
<text text-anchor="middle" x="232" y="-154.5" font-family="Helvetica,sans-Serif" font-size="10.00" fill="#000000">PdfConcatMain.run</text>
</a>
</g>
</g>
<!-- Node1&#45;&gt;Node3 -->
<g id="edge2" class="edge">
<title>Node1&#45;&gt;Node3</title>
<path fill="none" stroke="#191970" d="M120.6473,-131.3212C139.542,-136.6118 160.0434,-142.3522 178.2444,-147.4484"/>
<polygon fill="#191970" stroke="#191970" points="121.5071,-127.9274 110.9337,-128.6014 119.6196,-134.6682 121.5071,-127.9274"/>
</g>
<!-- Node4 -->
<g id="node4" class="node">
<title>Node4</title>
<g id="a_node4"><a xlink:href="../../d7/d34/classorg_1_1cobbzilla_1_1util_1_1http_1_1main_1_1HttpMain_ab61ecaa37677987a1f5ae1ce50fcd517.html#ab61ecaa37677987a1f5ae1ce50fcd517" target="_top" xlink:title="org.cobbzilla.util.http.main.\lHttpMain.run">
<polygon fill="none" stroke="#000000" points="165,-98.5 165,-128.5 299,-128.5 299,-98.5 165,-98.5"/>
<text text-anchor="start" x="173" y="-116.5" font-family="Helvetica,sans-Serif" font-size="10.00" fill="#000000">org.cobbzilla.util.http.main.</text>
<text text-anchor="middle" x="232" y="-105.5" font-family="Helvetica,sans-Serif" font-size="10.00" fill="#000000">HttpMain.run</text>
</a>
</g>
</g>
<!-- Node1&#45;&gt;Node4 -->
<g id="edge3" class="edge">
<title>Node1&#45;&gt;Node4</title>
<path fill="none" stroke="#191970" d="M124.3138,-113.5C137.6029,-113.5 151.5489,-113.5 164.8331,-113.5"/>
<polygon fill="#191970" stroke="#191970" points="124.3016,-110.0001 114.3015,-113.5 124.3015,-117.0001 124.3016,-110.0001"/>
</g>
<!-- Node5 -->
<g id="node5" class="node">
<title>Node5</title>
<g id="a_node5"><a xlink:href="../../d7/d80/classorg_1_1cobbzilla_1_1util_1_1io_1_1main_1_1UniqueFileWalkerMain_a0631df940d30f8c03bda018c05004042.html#a0631df940d30f8c03bda018c05004042" target="_top" xlink:title="org.cobbzilla.util.io.main.\lUniqueFileWalkerMain.run">
<polygon fill="none" stroke="#000000" points="166.5,-49.5 166.5,-79.5 297.5,-79.5 297.5,-49.5 166.5,-49.5"/>
<text text-anchor="start" x="174.5" y="-67.5" font-family="Helvetica,sans-Serif" font-size="10.00" fill="#000000">org.cobbzilla.util.io.main.</text>
<text text-anchor="middle" x="232" y="-56.5" font-family="Helvetica,sans-Serif" font-size="10.00" fill="#000000">UniqueFileWalkerMain.run</text>
</a>
</g>
</g>
<!-- Node1&#45;&gt;Node5 -->
<g id="edge4" class="edge">
<title>Node1&#45;&gt;Node5</title>
<path fill="none" stroke="#191970" d="M120.6473,-95.6788C139.542,-90.3882 160.0434,-84.6478 178.2444,-79.5516"/>
<polygon fill="#191970" stroke="#191970" points="119.6196,-92.3318 110.9337,-98.3986 121.5071,-99.0726 119.6196,-92.3318"/>
</g>
<!-- Node6 -->
<g id="node6" class="node">
<title>Node6</title>
<g id="a_node6"><a xlink:href="../../d9/d75/classorg_1_1cobbzilla_1_1util_1_1handlebars_1_1main_1_1PdfMergeMain_a125fc1d1e7f706476767dcc2fdb0b34d.html#a125fc1d1e7f706476767dcc2fdb0b34d" target="_top" xlink:title="org.cobbzilla.util.handlebars.main.\lPdfMergeMain.run">
<polygon fill="none" stroke="#000000" points="150,-.5 150,-30.5 314,-30.5 314,-.5 150,-.5"/>
<text text-anchor="start" x="158" y="-18.5" font-family="Helvetica,sans-Serif" font-size="10.00" fill="#000000">org.cobbzilla.util.handlebars.main.</text>
<text text-anchor="middle" x="232" y="-7.5" font-family="Helvetica,sans-Serif" font-size="10.00" fill="#000000">PdfMergeMain.run</text>
</a>
</g>
</g>
<!-- Node1&#45;&gt;Node6 -->
<g id="edge5" class="edge">
<title>Node1&#45;&gt;Node6</title>
<path fill="none" stroke="#191970" d="M80.1191,-91.349C97.9748,-75.2855 123.959,-54.0807 150,-40.5 157.258,-36.7149 165.1822,-33.4022 173.1514,-30.5337"/>
<polygon fill="#191970" stroke="#191970" points="77.5203,-88.9833 72.5161,-98.3219 82.2517,-94.1422 77.5203,-88.9833"/>
</g>
</g>
</svg>
