<?xml version="1.0" encoding="UTF-8" standalone="no"?>
<!DOCTYPE svg PUBLIC "-//W3C//DTD SVG 1.1//EN"
 "http://www.w3.org/Graphics/SVG/1.1/DTD/svg11.dtd">
<!-- Generated by graphviz version 2.40.1 (20161225.0304)
 -->
<!-- Title: org.cobbzilla.util.main.BaseMain.die Pages: 1 -->
<svg width="301pt" height="100pt"
 viewBox="0.00 0.00 301.00 99.50" xmlns="http://www.w3.org/2000/svg" xmlns:xlink="http://www.w3.org/1999/xlink">
<g id="graph0" class="graph" transform="scale(1 1) rotate(0) translate(4 95.5)">
<title>org.cobbzilla.util.main.BaseMain.die</title>
<!-- Node1 -->
<g id="node1" class="node">
<title>Node1</title>
<polygon fill="#bfbfbf" stroke="#000000" points="0,-33 0,-63 114,-63 114,-33 0,-33"/>
<text text-anchor="start" x="8" y="-51" font-family="Helvetica,sans-Serif" font-size="10.00" fill="#000000">org.cobbzilla.util.main.</text>
<text text-anchor="middle" x="57" y="-40" font-family="Helvetica,sans-Serif" font-size="10.00" fill="#000000">BaseMain.die</text>
</g>
<!-- Node2 -->
<g id="node2" class="node">
<title>Node2</title>
<g id="a_node2"><a xlink:href="../../d7/d34/classorg_1_1cobbzilla_1_1util_1_1http_1_1main_1_1HttpMain_ab61ecaa37677987a1f5ae1ce50fcd517.html#ab61ecaa37677987a1f5ae1ce50fcd517" target="_top" xlink:title="org.cobbzilla.util.http.main.\lHttpMain.run">
<polygon fill="none" stroke="#000000" points="154.5,-61 154.5,-91 288.5,-91 288.5,-61 154.5,-61"/>
<text text-anchor="start" x="162.5" y="-79" font-family="Helvetica,sans-Serif" font-size="10.00" fill="#000000">org.cobbzilla.util.http.main.</text>
<text text-anchor="middle" x="221.5" y="-68" font-family="Helvetica,sans-Serif" font-size="10.00" fill="#000000">HttpMain.run</text>
</a>
</g>
</g>
<!-- Node1&#45;&gt;Node2 -->
<g id="edge1" class="edge">
<title>Node1&#45;&gt;Node2</title>
<path fill="none" stroke="#191970" d="M123.9668,-59.3986C133.9889,-61.1045 144.3247,-62.8638 154.3506,-64.5703"/>
<polygon fill="#191970" stroke="#191970" points="124.518,-55.9422 114.0725,-57.7145 123.3433,-62.8429 124.518,-55.9422"/>
</g>
<!-- Node3 -->
<g id="node3" class="node">
<title>Node3</title>
<g id="a_node3"><a xlink:href="../../d6/dee/classorg_1_1cobbzilla_1_1util_1_1main_1_1BaseMain_a598b05cdf9bfd4db4f7f96d50e531bf3.html#a598b05cdf9bfd4db4f7f96d50e531bf3" target="_top" xlink:title="org.cobbzilla.util.main.\lBaseMain\&lt; HttpMainOptions\l \&gt;::runOrDie">
<polygon fill="none" stroke="#000000" points="150,-.5 150,-41.5 293,-41.5 293,-.5 150,-.5"/>
<text text-anchor="start" x="158" y="-29.5" font-family="Helvetica,sans-Serif" font-size="10.00" fill="#000000">org.cobbzilla.util.main.</text>
<text text-anchor="start" x="158" y="-18.5" font-family="Helvetica,sans-Serif" font-size="10.00" fill="#000000">BaseMain&lt; HttpMainOptions</text>
<text text-anchor="middle" x="221.5" y="-7.5" font-family="Helvetica,sans-Serif" font-size="10.00" fill="#000000"> &gt;::runOrDie</text>
</a>
</g>
</g>
<!-- Node1&#45;&gt;Node3 -->
<g id="edge2" class="edge">
<title>Node1&#45;&gt;Node3</title>
<path fill="none" stroke="#191970" d="M124.2085,-36.9688C132.627,-35.587 141.2633,-34.1696 149.748,-32.7769"/>
<polygon fill="#191970" stroke="#191970" points="123.3735,-33.559 114.0725,-38.6325 124.5073,-40.4665 123.3735,-33.559"/>
</g>
</g>
</svg>
