<?xml version="1.0" encoding="UTF-8" standalone="no"?>
<!DOCTYPE svg PUBLIC "-//W3C//DTD SVG 1.1//EN"
 "http://www.w3.org/Graphics/SVG/1.1/DTD/svg11.dtd">
<!-- Generated by graphviz version 2.40.1 (20161225.0304)
 -->
<!-- Title: org.cobbzilla.util.io.TempDir.QuickTempReaper.add Pages: 1 -->
<svg width="302pt" height="57pt"
 viewBox="0.00 0.00 302.00 57.00" xmlns="http://www.w3.org/2000/svg" xmlns:xlink="http://www.w3.org/1999/xlink">
<g id="graph0" class="graph" transform="scale(1 1) rotate(0) translate(4 53)">
<title>org.cobbzilla.util.io.TempDir.QuickTempReaper.add</title>
<!-- Node1 -->
<g id="node1" class="node">
<title>Node1</title>
<polygon fill="#bfbfbf" stroke="#000000" points="0,-.5 0,-30.5 133,-30.5 133,-.5 0,-.5"/>
<text text-anchor="start" x="8" y="-18.5" font-family="Helvetica,sans-Serif" font-size="10.00" fill="#000000">org.cobbzilla.util.io.Temp</text>
<text text-anchor="middle" x="66.5" y="-7.5" font-family="Helvetica,sans-Serif" font-size="10.00" fill="#000000">Dir.QuickTempReaper.add</text>
</g>
<!-- Node1&#45;&gt;Node1 -->
<g id="edge1" class="edge">
<title>Node1&#45;&gt;Node1</title>
<path fill="none" stroke="#191970" d="M37.3592,-40.9579C40.976,-45.679 50.6896,-49 66.5,-49 92.4453,-49 101.9721,-40.0566 95.0804,-30.659"/>
<polygon fill="#191970" stroke="#191970" points="40.871,-40.8344 37.9196,-30.659 33.8813,-40.454 40.871,-40.8344"/>
</g>
<!-- Node2 -->
<g id="node2" class="node">
<title>Node2</title>
<g id="a_node2"><a xlink:href="../../d1/df8/classorg_1_1cobbzilla_1_1util_1_1io_1_1TempDir_a41166a851e19156ab29c420a890508be.html#a41166a851e19156ab29c420a890508be" target="_top" xlink:title="org.cobbzilla.util.io.Temp\lDir.quickTemp">
<polygon fill="none" stroke="#000000" points="169,-.5 169,-30.5 294,-30.5 294,-.5 169,-.5"/>
<text text-anchor="start" x="177" y="-18.5" font-family="Helvetica,sans-Serif" font-size="10.00" fill="#000000">org.cobbzilla.util.io.Temp</text>
<text text-anchor="middle" x="231.5" y="-7.5" font-family="Helvetica,sans-Serif" font-size="10.00" fill="#000000">Dir.quickTemp</text>
</a>
</g>
</g>
<!-- Node1&#45;&gt;Node2 -->
<g id="edge2" class="edge">
<title>Node1&#45;&gt;Node2</title>
<path fill="none" stroke="#191970" d="M143.1819,-15.5C151.7919,-15.5 160.4868,-15.5 168.889,-15.5"/>
<polygon fill="#191970" stroke="#191970" points="143.1362,-12.0001 133.1362,-15.5 143.1362,-19.0001 143.1362,-12.0001"/>
</g>
</g>
</svg>
