<?xml version="1.0" encoding="UTF-8" standalone="no"?>
<!DOCTYPE svg PUBLIC "-//W3C//DTD SVG 1.1//EN"
 "http://www.w3.org/Graphics/SVG/1.1/DTD/svg11.dtd">
<!-- Generated by graphviz version 2.40.1 (20161225.0304)
 -->
<!-- Title: org.cobbzilla.util.main.IndexMain Pages: 1 -->
<svg width="168pt" height="320pt"
 viewBox="0.00 0.00 168.00 320.00" xmlns="http://www.w3.org/2000/svg" xmlns:xlink="http://www.w3.org/1999/xlink">
<g id="graph0" class="graph" transform="scale(1 1) rotate(0) translate(4 316)">
<title>org.cobbzilla.util.main.IndexMain</title>
<!-- Node1 -->
<g id="node1" class="node">
<title>Node1</title>
<polygon fill="#bfbfbf" stroke="#000000" points="7,-.5 7,-101.5 121,-101.5 121,-.5 7,-.5"/>
<text text-anchor="start" x="15" y="-89.5" font-family="Helvetica,sans-Serif" font-size="10.00" fill="#000000">org.cobbzilla.util.main.</text>
<text text-anchor="middle" x="64" y="-78.5" font-family="Helvetica,sans-Serif" font-size="10.00" fill="#000000">IndexMain</text>
<polyline fill="none" stroke="#000000" points="7,-71.5 121,-71.5 "/>
<text text-anchor="middle" x="64" y="-59.5" font-family="Helvetica,sans-Serif" font-size="10.00" fill="#000000"> </text>
<polyline fill="none" stroke="#000000" points="7,-52.5 121,-52.5 "/>
<text text-anchor="start" x="15" y="-40.5" font-family="Helvetica,sans-Serif" font-size="10.00" fill="#000000">+ getHandlers()</text>
<text text-anchor="start" x="15" y="-29.5" font-family="Helvetica,sans-Serif" font-size="10.00" fill="#000000">+ main()</text>
<text text-anchor="start" x="15" y="-18.5" font-family="Helvetica,sans-Serif" font-size="10.00" fill="#000000"># main()</text>
<text text-anchor="start" x="15" y="-7.5" font-family="Helvetica,sans-Serif" font-size="10.00" fill="#000000"># die()</text>
</g>
<!-- Node2 -->
<g id="node2" class="node">
<title>Node2</title>
<polygon fill="none" stroke="#bfbfbf" points="0,-149.5 0,-206.5 128,-206.5 128,-149.5 0,-149.5"/>
<text text-anchor="middle" x="64" y="-194.5" font-family="Helvetica,sans-Serif" font-size="10.00" fill="#000000">Map&lt; String, Class&lt;?&gt; &gt;</text>
<polyline fill="none" stroke="#bfbfbf" points="0,-187.5 128,-187.5 "/>
<text text-anchor="middle" x="64" y="-175.5" font-family="Helvetica,sans-Serif" font-size="10.00" fill="#000000"> </text>
<polyline fill="none" stroke="#bfbfbf" points="0,-168.5 128,-168.5 "/>
<text text-anchor="middle" x="64" y="-156.5" font-family="Helvetica,sans-Serif" font-size="10.00" fill="#000000"> </text>
</g>
<!-- Node2&#45;&gt;Node1 -->
<g id="edge1" class="edge">
<title>Node2&#45;&gt;Node1</title>
<path fill="none" stroke="#404040" d="M64,-149.4987C64,-138.9128 64,-126.4397 64,-113.9926"/>
<polygon fill="none" stroke="#404040" points="64.0001,-113.625 60,-107.625 64,-101.625 68,-107.625 64.0001,-113.625"/>
<text text-anchor="middle" x="87" y="-123" font-family="Helvetica,sans-Serif" font-size="10.00" fill="#000000"> +handlers</text>
</g>
<!-- Node3 -->
<g id="node3" class="node">
<title>Node3</title>
<polygon fill="none" stroke="#bfbfbf" points="46.5,-254.5 46.5,-311.5 81.5,-311.5 81.5,-254.5 46.5,-254.5"/>
<text text-anchor="middle" x="64" y="-299.5" font-family="Helvetica,sans-Serif" font-size="10.00" fill="#000000">Map</text>
<polyline fill="none" stroke="#bfbfbf" points="46.5,-292.5 81.5,-292.5 "/>
<text text-anchor="middle" x="64" y="-280.5" font-family="Helvetica,sans-Serif" font-size="10.00" fill="#000000"> </text>
<polyline fill="none" stroke="#bfbfbf" points="46.5,-273.5 81.5,-273.5 "/>
<text text-anchor="middle" x="64" y="-261.5" font-family="Helvetica,sans-Serif" font-size="10.00" fill="#000000"> </text>
</g>
<!-- Node3&#45;&gt;Node2 -->
<g id="edge2" class="edge">
<title>Node3&#45;&gt;Node2</title>
<path fill="none" stroke="#ffa500" d="M64,-244.192C64,-231.7605 64,-218.2278 64,-206.657"/>
<polygon fill="#ffa500" stroke="#ffa500" points="60.5001,-244.3083 64,-254.3083 67.5001,-244.3083 60.5001,-244.3083"/>
<text text-anchor="middle" x="112" y="-228" font-family="Helvetica,sans-Serif" font-size="10.00" fill="#000000"> &lt; String, Class&lt;?&gt; &gt;</text>
</g>
</g>
</svg>
