<?xml version="1.0" encoding="UTF-8" standalone="no"?>
<!DOCTYPE svg PUBLIC "-//W3C//DTD SVG 1.1//EN"
 "http://www.w3.org/Graphics/SVG/1.1/DTD/svg11.dtd">
<!-- Generated by graphviz version 2.40.1 (20161225.0304)
 -->
<!-- Title: org.cobbzilla.util.handlebars.ContextMessageSender.send Pages: 1 -->
<svg width="542pt" height="39pt"
 viewBox="0.00 0.00 542.00 39.00" xmlns="http://www.w3.org/2000/svg" xmlns:xlink="http://www.w3.org/1999/xlink">
<g id="graph0" class="graph" transform="scale(1 1) rotate(0) translate(4 35)">
<title>org.cobbzilla.util.handlebars.ContextMessageSender.send</title>
<!-- Node1 -->
<g id="node1" class="node">
<title>Node1</title>
<polygon fill="#bfbfbf" stroke="#000000" points="0,-.5 0,-30.5 146,-30.5 146,-.5 0,-.5"/>
<text text-anchor="start" x="8" y="-18.5" font-family="Helvetica,sans-Serif" font-size="10.00" fill="#000000">org.cobbzilla.util.handlebars.</text>
<text text-anchor="middle" x="73" y="-7.5" font-family="Helvetica,sans-Serif" font-size="10.00" fill="#000000">ContextMessageSender.send</text>
</g>
<!-- Node2 -->
<g id="node2" class="node">
<title>Node2</title>
<g id="a_node2"><a xlink:href="../../d0/d1b/classorg_1_1cobbzilla_1_1util_1_1handlebars_1_1HandlebarsUtil_a78f4d1a6e7b34cb35b98e6d22eceb926.html#a78f4d1a6e7b34cb35b98e6d22eceb926" target="_top" xlink:title="org.cobbzilla.util.handlebars.\lHandlebarsUtil.sendContext">
<polygon fill="none" stroke="#000000" points="182,-.5 182,-30.5 322,-30.5 322,-.5 182,-.5"/>
<text text-anchor="start" x="190" y="-18.5" font-family="Helvetica,sans-Serif" font-size="10.00" fill="#000000">org.cobbzilla.util.handlebars.</text>
<text text-anchor="middle" x="252" y="-7.5" font-family="Helvetica,sans-Serif" font-size="10.00" fill="#000000">HandlebarsUtil.sendContext</text>
</a>
</g>
</g>
<!-- Node1&#45;&gt;Node2 -->
<g id="edge1" class="edge">
<title>Node1&#45;&gt;Node2</title>
<path fill="none" stroke="#191970" d="M156.0899,-15.5C164.6774,-15.5 173.3439,-15.5 181.7712,-15.5"/>
<polygon fill="#191970" stroke="#191970" points="156.0644,-12.0001 146.0643,-15.5 156.0643,-19.0001 156.0644,-12.0001"/>
</g>
<!-- Node3 -->
<g id="node3" class="node">
<title>Node3</title>
<g id="a_node3"><a xlink:href="../../d0/d1b/classorg_1_1cobbzilla_1_1util_1_1handlebars_1_1HandlebarsUtil_af8f3012d152b38e5472c15975a8921e2.html#af8f3012d152b38e5472c15975a8921e2" target="_top" xlink:title="org.cobbzilla.util.handlebars.\lHandlebarsUtil.registerUtilityHelpers">
<polygon fill="none" stroke="#000000" points="358,-.5 358,-30.5 534,-30.5 534,-.5 358,-.5"/>
<text text-anchor="start" x="366" y="-18.5" font-family="Helvetica,sans-Serif" font-size="10.00" fill="#000000">org.cobbzilla.util.handlebars.</text>
<text text-anchor="middle" x="446" y="-7.5" font-family="Helvetica,sans-Serif" font-size="10.00" fill="#000000">HandlebarsUtil.registerUtilityHelpers</text>
</a>
</g>
</g>
<!-- Node2&#45;&gt;Node3 -->
<g id="edge2" class="edge">
<title>Node2&#45;&gt;Node3</title>
<path fill="none" stroke="#191970" d="M332.2316,-15.5C340.6739,-15.5 349.291,-15.5 357.8165,-15.5"/>
<polygon fill="#191970" stroke="#191970" points="332.0385,-12.0001 322.0385,-15.5 332.0384,-19.0001 332.0385,-12.0001"/>
</g>
</g>
</svg>
