<?xml version="1.0" encoding="UTF-8" standalone="no"?>
<!DOCTYPE svg PUBLIC "-//W3C//DTD SVG 1.1//EN"
 "http://www.w3.org/Graphics/SVG/1.1/DTD/svg11.dtd">
<!-- Generated by graphviz version 2.40.1 (20161225.0304)
 -->
<!-- Title: org.cobbzilla.util.xml.ElementIdGenerator.text Pages: 1 -->
<svg width="515pt" height="39pt"
 viewBox="0.00 0.00 515.00 39.00" xmlns="http://www.w3.org/2000/svg" xmlns:xlink="http://www.w3.org/1999/xlink">
<g id="graph0" class="graph" transform="scale(1 1) rotate(0) translate(4 35)">
<title>org.cobbzilla.util.xml.ElementIdGenerator.text</title>
<!-- Node0 -->
<g id="node1" class="node">
<title>Node0</title>
<polygon fill="#bfbfbf" stroke="#000000" points="0,-.5 0,-30.5 145,-30.5 145,-.5 0,-.5"/>
<text text-anchor="start" x="8" y="-18.5" font-family="Helvetica,sans-Serif" font-size="10.00" fill="#000000">org.cobbzilla.util.xml.Element</text>
<text text-anchor="middle" x="72.5" y="-7.5" font-family="Helvetica,sans-Serif" font-size="10.00" fill="#000000">IdGenerator.text</text>
</g>
<!-- Node1 -->
<g id="node2" class="node">
<title>Node1</title>
<g id="a_node2"><a xlink:href="../../d5/d23/classorg_1_1cobbzilla_1_1util_1_1xml_1_1ElementIdGenerator_a63e11689dd80abc12397f3728b05e2b4.html#a63e11689dd80abc12397f3728b05e2b4" target="_top" xlink:title="org.cobbzilla.util.xml.Element\lIdGenerator.create">
<polygon fill="none" stroke="#000000" points="181,-.5 181,-30.5 326,-30.5 326,-.5 181,-.5"/>
<text text-anchor="start" x="189" y="-18.5" font-family="Helvetica,sans-Serif" font-size="10.00" fill="#000000">org.cobbzilla.util.xml.Element</text>
<text text-anchor="middle" x="253.5" y="-7.5" font-family="Helvetica,sans-Serif" font-size="10.00" fill="#000000">IdGenerator.create</text>
</a>
</g>
</g>
<!-- Node0&#45;&gt;Node1 -->
<g id="edge1" class="edge">
<title>Node0&#45;&gt;Node1</title>
<path fill="none" stroke="#191970" d="M145.0767,-15.5C153.5595,-15.5 162.2611,-15.5 170.8671,-15.5"/>
<polygon fill="#191970" stroke="#191970" points="170.907,-19.0001 180.907,-15.5 170.907,-12.0001 170.907,-19.0001"/>
</g>
<!-- Node2 -->
<g id="node3" class="node">
<title>Node2</title>
<g id="a_node3"><a xlink:href="../../d5/d23/classorg_1_1cobbzilla_1_1util_1_1xml_1_1ElementIdGenerator_a39cf3446cbcee6ac16ee40be5102ba99.html#a39cf3446cbcee6ac16ee40be5102ba99" target="_top" xlink:title="org.cobbzilla.util.xml.Element\lIdGenerator.id">
<polygon fill="none" stroke="#000000" points="362,-.5 362,-30.5 507,-30.5 507,-.5 362,-.5"/>
<text text-anchor="start" x="370" y="-18.5" font-family="Helvetica,sans-Serif" font-size="10.00" fill="#000000">org.cobbzilla.util.xml.Element</text>
<text text-anchor="middle" x="434.5" y="-7.5" font-family="Helvetica,sans-Serif" font-size="10.00" fill="#000000">IdGenerator.id</text>
</a>
</g>
</g>
<!-- Node1&#45;&gt;Node2 -->
<g id="edge2" class="edge">
<title>Node1&#45;&gt;Node2</title>
<path fill="none" stroke="#191970" d="M326.0767,-15.5C334.5595,-15.5 343.2611,-15.5 351.8671,-15.5"/>
<polygon fill="#191970" stroke="#191970" points="351.907,-19.0001 361.907,-15.5 351.907,-12.0001 351.907,-19.0001"/>
</g>
</g>
</svg>
