<?xml version="1.0" encoding="UTF-8" standalone="no"?>
<!DOCTYPE svg PUBLIC "-//W3C//DTD SVG 1.1//EN"
 "http://www.w3.org/Graphics/SVG/1.1/DTD/svg11.dtd">
<!-- Generated by graphviz version 2.40.1 (20161225.0304)
 -->
<!-- Title: org.cobbzilla.util.http.PhantomJSHandle Pages: 1 -->
<svg width="270pt" height="182pt"
 viewBox="0.00 0.00 269.50 182.00" xmlns="http://www.w3.org/2000/svg" xmlns:xlink="http://www.w3.org/1999/xlink">
<g id="graph0" class="graph" transform="scale(1 1) rotate(0) translate(4 178)">
<title>org.cobbzilla.util.http.PhantomJSHandle</title>
<!-- Node3 -->
<g id="node1" class="node">
<title>Node3</title>
<polygon fill="#bfbfbf" stroke="#000000" points="64.5,-.5 64.5,-68.5 174.5,-68.5 174.5,-.5 64.5,-.5"/>
<text text-anchor="start" x="72.5" y="-56.5" font-family="Helvetica,sans-Serif" font-size="10.00" fill="#000000">org.cobbzilla.util.http.</text>
<text text-anchor="middle" x="119.5" y="-45.5" font-family="Helvetica,sans-Serif" font-size="10.00" fill="#000000">PhantomJSHandle</text>
<polyline fill="none" stroke="#000000" points="64.5,-38.5 174.5,-38.5 "/>
<text text-anchor="middle" x="119.5" y="-26.5" font-family="Helvetica,sans-Serif" font-size="10.00" fill="#000000"> </text>
<polyline fill="none" stroke="#000000" points="64.5,-19.5 174.5,-19.5 "/>
<text text-anchor="start" x="72.5" y="-7.5" font-family="Helvetica,sans-Serif" font-size="10.00" fill="#000000">+ close()</text>
</g>
<!-- Node4 -->
<g id="node2" class="node">
<title>Node4</title>
<polygon fill="none" stroke="#bfbfbf" points="0,-116.5 0,-173.5 71,-173.5 71,-116.5 0,-116.5"/>
<text text-anchor="middle" x="35.5" y="-161.5" font-family="Helvetica,sans-Serif" font-size="10.00" fill="#000000">ErrorHandler</text>
<polyline fill="none" stroke="#bfbfbf" points="0,-154.5 71,-154.5 "/>
<text text-anchor="middle" x="35.5" y="-142.5" font-family="Helvetica,sans-Serif" font-size="10.00" fill="#000000"> </text>
<polyline fill="none" stroke="#bfbfbf" points="0,-135.5 71,-135.5 "/>
<text text-anchor="middle" x="35.5" y="-123.5" font-family="Helvetica,sans-Serif" font-size="10.00" fill="#000000"> </text>
</g>
<!-- Node4&#45;&gt;Node3 -->
<g id="edge1" class="edge">
<title>Node4&#45;&gt;Node3</title>
<path fill="none" stroke="#191970" d="M63.5375,-108.1173C73.2365,-95.3586 84.0563,-81.1253 93.5778,-68.6001"/>
<polygon fill="none" stroke="#191970" points="60.6162,-106.1768 57.3507,-116.2559 66.1888,-110.4131 60.6162,-106.1768"/>
</g>
<!-- Node5 -->
<g id="node3" class="node">
<title>Node5</title>
<polygon fill="none" stroke="#bfbfbf" points="89.5,-116.5 89.5,-173.5 149.5,-173.5 149.5,-116.5 89.5,-116.5"/>
<text text-anchor="middle" x="119.5" y="-161.5" font-family="Helvetica,sans-Serif" font-size="10.00" fill="#000000">Closeable</text>
<polyline fill="none" stroke="#bfbfbf" points="89.5,-154.5 149.5,-154.5 "/>
<text text-anchor="middle" x="119.5" y="-142.5" font-family="Helvetica,sans-Serif" font-size="10.00" fill="#000000"> </text>
<polyline fill="none" stroke="#bfbfbf" points="89.5,-135.5 149.5,-135.5 "/>
<text text-anchor="middle" x="119.5" y="-123.5" font-family="Helvetica,sans-Serif" font-size="10.00" fill="#000000"> </text>
</g>
<!-- Node5&#45;&gt;Node3 -->
<g id="edge2" class="edge">
<title>Node5&#45;&gt;Node3</title>
<path fill="none" stroke="#191970" d="M119.5,-105.9162C119.5,-93.7375 119.5,-80.4096 119.5,-68.6001"/>
<polygon fill="none" stroke="#191970" points="116.0001,-106.2559 119.5,-116.2559 123.0001,-106.2559 116.0001,-106.2559"/>
</g>
<!-- Node6 -->
<g id="node4" class="node">
<title>Node6</title>
<polygon fill="none" stroke="#bfbfbf" points="167.5,-116.5 167.5,-173.5 261.5,-173.5 261.5,-116.5 167.5,-116.5"/>
<text text-anchor="middle" x="214.5" y="-161.5" font-family="Helvetica,sans-Serif" font-size="10.00" fill="#000000">PhantomJSDriver</text>
<polyline fill="none" stroke="#bfbfbf" points="167.5,-154.5 261.5,-154.5 "/>
<text text-anchor="middle" x="214.5" y="-142.5" font-family="Helvetica,sans-Serif" font-size="10.00" fill="#000000"> </text>
<polyline fill="none" stroke="#bfbfbf" points="167.5,-135.5 261.5,-135.5 "/>
<text text-anchor="middle" x="214.5" y="-123.5" font-family="Helvetica,sans-Serif" font-size="10.00" fill="#000000"> </text>
</g>
<!-- Node6&#45;&gt;Node3 -->
<g id="edge3" class="edge">
<title>Node6&#45;&gt;Node3</title>
<path fill="none" stroke="#404040" d="M189.7879,-116.2559C179.7014,-104.5237 167.8182,-90.7017 156.7213,-77.7942"/>
<polygon fill="none" stroke="#404040" points="156.6399,-77.6995 149.6952,-75.7575 148.8168,-68.6001 155.7615,-70.5421 156.6399,-77.6995"/>
<text text-anchor="middle" x="189.5" y="-90" font-family="Helvetica,sans-Serif" font-size="10.00" fill="#000000"> ~driver</text>
</g>
</g>
</svg>
