<?xml version="1.0" encoding="UTF-8" standalone="no"?>
<!DOCTYPE svg PUBLIC "-//W3C//DTD SVG 1.1//EN"
 "http://www.w3.org/Graphics/SVG/1.1/DTD/svg11.dtd">
<!-- Generated by graphviz version 2.40.1 (20161225.0304)
 -->
<!-- Title: org.cobbzilla.util.cron.quartz.QuartzMaster Pages: 1 -->
<svg width="396pt" height="408pt"
 viewBox="0.00 0.00 396.00 408.00" xmlns="http://www.w3.org/2000/svg" xmlns:xlink="http://www.w3.org/1999/xlink">
<g id="graph0" class="graph" transform="scale(1 1) rotate(0) translate(4 404)">
<title>org.cobbzilla.util.cron.quartz.QuartzMaster</title>
<!-- Node2 -->
<g id="node1" class="node">
<title>Node2</title>
<polygon fill="#bfbfbf" stroke="#000000" points="149,-.5 149,-134.5 291,-134.5 291,-.5 149,-.5"/>
<text text-anchor="start" x="157" y="-122.5" font-family="Helvetica,sans-Serif" font-size="10.00" fill="#000000">org.cobbzilla.util.cron.quartz.</text>
<text text-anchor="middle" x="220" y="-111.5" font-family="Helvetica,sans-Serif" font-size="10.00" fill="#000000">QuartzMaster</text>
<polyline fill="none" stroke="#000000" points="149,-104.5 291,-104.5 "/>
<text text-anchor="start" x="157" y="-92.5" font-family="Helvetica,sans-Serif" font-size="10.00" fill="#000000">&#45; scheduler</text>
<text text-anchor="start" x="157" y="-81.5" font-family="Helvetica,sans-Serif" font-size="10.00" fill="#000000">&#45; CAL_SUFFIX</text>
<text text-anchor="start" x="157" y="-70.5" font-family="Helvetica,sans-Serif" font-size="10.00" fill="#000000">&#45; JOB_SUFFIX</text>
<text text-anchor="start" x="157" y="-59.5" font-family="Helvetica,sans-Serif" font-size="10.00" fill="#000000">&#45; TRIGGER_SUFFIX</text>
<polyline fill="none" stroke="#000000" points="149,-52.5 291,-52.5 "/>
<text text-anchor="start" x="157" y="-40.5" font-family="Helvetica,sans-Serif" font-size="10.00" fill="#000000">+ start()</text>
<text text-anchor="start" x="157" y="-29.5" font-family="Helvetica,sans-Serif" font-size="10.00" fill="#000000">+ addJob()</text>
<text text-anchor="start" x="157" y="-18.5" font-family="Helvetica,sans-Serif" font-size="10.00" fill="#000000">+ removeJob()</text>
<text text-anchor="start" x="157" y="-7.5" font-family="Helvetica,sans-Serif" font-size="10.00" fill="#000000">+ stop()</text>
</g>
<!-- Node3 -->
<g id="node2" class="node">
<title>Node3</title>
<g id="a_node2"><a xlink:href="../../dd/d6c/interfaceorg_1_1cobbzilla_1_1util_1_1cron_1_1CronDaemon.html" target="_top" xlink:title="{org.cobbzilla.util.cron.\lCronDaemon\n||+ start()\l+ stop()\l+ addJob()\l+ removeJob()\l}">
<polygon fill="none" stroke="#000000" points="0,-182.5 0,-283.5 112,-283.5 112,-182.5 0,-182.5"/>
<text text-anchor="start" x="8" y="-271.5" font-family="Helvetica,sans-Serif" font-size="10.00" fill="#000000">org.cobbzilla.util.cron.</text>
<text text-anchor="middle" x="56" y="-260.5" font-family="Helvetica,sans-Serif" font-size="10.00" fill="#000000">CronDaemon</text>
<polyline fill="none" stroke="#000000" points="0,-253.5 112,-253.5 "/>
<text text-anchor="middle" x="56" y="-241.5" font-family="Helvetica,sans-Serif" font-size="10.00" fill="#000000"> </text>
<polyline fill="none" stroke="#000000" points="0,-234.5 112,-234.5 "/>
<text text-anchor="start" x="8" y="-222.5" font-family="Helvetica,sans-Serif" font-size="10.00" fill="#000000">+ start()</text>
<text text-anchor="start" x="8" y="-211.5" font-family="Helvetica,sans-Serif" font-size="10.00" fill="#000000">+ stop()</text>
<text text-anchor="start" x="8" y="-200.5" font-family="Helvetica,sans-Serif" font-size="10.00" fill="#000000">+ addJob()</text>
<text text-anchor="start" x="8" y="-189.5" font-family="Helvetica,sans-Serif" font-size="10.00" fill="#000000">+ removeJob()</text>
</a>
</g>
</g>
<!-- Node3&#45;&gt;Node2 -->
<g id="edge1" class="edge">
<title>Node3&#45;&gt;Node2</title>
<path fill="none" stroke="#191970" d="M113.231,-175.2456C126.2605,-162.0969 140.2109,-148.0189 153.5867,-134.5207"/>
<polygon fill="none" stroke="#191970" points="110.6492,-172.8785 106.0965,-182.4453 115.6215,-177.8056 110.6492,-172.8785"/>
</g>
<!-- Node4 -->
<g id="node3" class="node">
<title>Node4</title>
<polygon fill="none" stroke="#bfbfbf" points="130.5,-199 130.5,-267 309.5,-267 309.5,-199 130.5,-199"/>
<text text-anchor="start" x="138.5" y="-255" font-family="Helvetica,sans-Serif" font-size="10.00" fill="#000000">List&lt;? extends org.cobbzilla.util.cron.</text>
<text text-anchor="middle" x="220" y="-244" font-family="Helvetica,sans-Serif" font-size="10.00" fill="#000000">CronJob &gt;</text>
<polyline fill="none" stroke="#bfbfbf" points="130.5,-237 309.5,-237 "/>
<text text-anchor="middle" x="220" y="-225" font-family="Helvetica,sans-Serif" font-size="10.00" fill="#000000"> </text>
<polyline fill="none" stroke="#bfbfbf" points="130.5,-218 309.5,-218 "/>
<text text-anchor="middle" x="220" y="-206" font-family="Helvetica,sans-Serif" font-size="10.00" fill="#000000"> </text>
</g>
<!-- Node4&#45;&gt;Node2 -->
<g id="edge2" class="edge">
<title>Node4&#45;&gt;Node2</title>
<path fill="none" stroke="#404040" d="M220,-198.7083C220,-183.5581 220,-165.0619 220,-146.7909"/>
<polygon fill="none" stroke="#404040" points="220.0001,-146.5393 216,-140.5394 220,-134.5393 224,-140.5393 220.0001,-146.5393"/>
<text text-anchor="middle" x="232.5" y="-156" font-family="Helvetica,sans-Serif" font-size="10.00" fill="#000000"> &#45;jobs</text>
</g>
<!-- Node5 -->
<g id="node4" class="node">
<title>Node5</title>
<polygon fill="none" stroke="#bfbfbf" points="204,-342.5 204,-399.5 236,-399.5 236,-342.5 204,-342.5"/>
<text text-anchor="middle" x="220" y="-387.5" font-family="Helvetica,sans-Serif" font-size="10.00" fill="#000000">List</text>
<polyline fill="none" stroke="#bfbfbf" points="204,-380.5 236,-380.5 "/>
<text text-anchor="middle" x="220" y="-368.5" font-family="Helvetica,sans-Serif" font-size="10.00" fill="#000000"> </text>
<polyline fill="none" stroke="#bfbfbf" points="204,-361.5 236,-361.5 "/>
<text text-anchor="middle" x="220" y="-349.5" font-family="Helvetica,sans-Serif" font-size="10.00" fill="#000000"> </text>
</g>
<!-- Node5&#45;&gt;Node4 -->
<g id="edge3" class="edge">
<title>Node5&#45;&gt;Node4</title>
<path fill="none" stroke="#ffa500" d="M220,-332.1659C220,-311.7198 220,-286.8736 220,-267.1664"/>
<polygon fill="#ffa500" stroke="#ffa500" points="216.5001,-332.4063 220,-342.4063 223.5001,-332.4063 216.5001,-332.4063"/>
<text text-anchor="start" x="220" y="-316" font-family="Helvetica,sans-Serif" font-size="10.00" fill="#000000"> &lt;? extends org::cobbzilla</text>
<text text-anchor="middle" x="276.5" y="-305" font-family="Helvetica,sans-Serif" font-size="10.00" fill="#000000">::util::cron::CronJob &gt;</text>
</g>
<!-- Node6 -->
<g id="node5" class="node">
<title>Node6</title>
<polygon fill="none" stroke="#bfbfbf" points="328,-204.5 328,-261.5 388,-261.5 388,-204.5 328,-204.5"/>
<text text-anchor="middle" x="358" y="-249.5" font-family="Helvetica,sans-Serif" font-size="10.00" fill="#000000">TimeZone</text>
<polyline fill="none" stroke="#bfbfbf" points="328,-242.5 388,-242.5 "/>
<text text-anchor="middle" x="358" y="-230.5" font-family="Helvetica,sans-Serif" font-size="10.00" fill="#000000"> </text>
<polyline fill="none" stroke="#bfbfbf" points="328,-223.5 388,-223.5 "/>
<text text-anchor="middle" x="358" y="-211.5" font-family="Helvetica,sans-Serif" font-size="10.00" fill="#000000"> </text>
</g>
<!-- Node6&#45;&gt;Node2 -->
<g id="edge4" class="edge">
<title>Node6&#45;&gt;Node2</title>
<path fill="none" stroke="#404040" d="M336.6387,-204.4393C330.99,-197.061 324.838,-189.1769 319,-182 308.8586,-169.5329 297.9128,-156.4879 287.1256,-143.8526"/>
<polygon fill="none" stroke="#404040" points="287.1228,-143.8493 280.1809,-141.8974 279.3127,-134.7388 286.2546,-136.6907 287.1228,-143.8493"/>
<text text-anchor="middle" x="326.5" y="-156" font-family="Helvetica,sans-Serif" font-size="10.00" fill="#000000"> &#45;timeZone</text>
</g>
</g>
</svg>
