<?xml version="1.0" encoding="UTF-8" standalone="no"?>
<!DOCTYPE svg PUBLIC "-//W3C//DTD SVG 1.1//EN"
 "http://www.w3.org/Graphics/SVG/1.1/DTD/svg11.dtd">
<!-- Generated by graphviz version 2.40.1 (20161225.0304)
 -->
<!-- Title: org.cobbzilla.util.cache.AutoRefreshingReference.refresh Pages: 1 -->
<svg width="552pt" height="100pt"
 viewBox="0.00 0.00 552.00 99.50" xmlns="http://www.w3.org/2000/svg" xmlns:xlink="http://www.w3.org/1999/xlink">
<g id="graph0" class="graph" transform="scale(1 1) rotate(0) translate(4 95.5)">
<title>org.cobbzilla.util.cache.AutoRefreshingReference.refresh</title>
<!-- Node1 -->
<g id="node1" class="node">
<title>Node1</title>
<polygon fill="#bfbfbf" stroke="#000000" points="0,-27.5 0,-57.5 162,-57.5 162,-27.5 0,-27.5"/>
<text text-anchor="start" x="8" y="-45.5" font-family="Helvetica,sans-Serif" font-size="10.00" fill="#000000">org.cobbzilla.util.cache.</text>
<text text-anchor="middle" x="81" y="-34.5" font-family="Helvetica,sans-Serif" font-size="10.00" fill="#000000">AutoRefreshingReference.refresh</text>
</g>
<!-- Node2 -->
<g id="node2" class="node">
<title>Node2</title>
<g id="a_node2"><a xlink:href="../../d7/d7d/classorg_1_1cobbzilla_1_1util_1_1cache_1_1BackgroundRefreshingReference_1_1Refresher_abad21c21177f3668f6ed482f29bec688.html#abad21c21177f3668f6ed482f29bec688" target="_top" xlink:title="org.cobbzilla.util.cache.\lBackgroundRefreshingReference.\lRefresher.run">
<polygon fill="none" stroke="#000000" points="198,-50 198,-91 362,-91 362,-50 198,-50"/>
<text text-anchor="start" x="206" y="-79" font-family="Helvetica,sans-Serif" font-size="10.00" fill="#000000">org.cobbzilla.util.cache.</text>
<text text-anchor="start" x="206" y="-68" font-family="Helvetica,sans-Serif" font-size="10.00" fill="#000000">BackgroundRefreshingReference.</text>
<text text-anchor="middle" x="280" y="-57" font-family="Helvetica,sans-Serif" font-size="10.00" fill="#000000">Refresher.run</text>
</a>
</g>
</g>
<!-- Node1&#45;&gt;Node2 -->
<g id="edge1" class="edge">
<title>Node1&#45;&gt;Node2</title>
<path fill="none" stroke="#191970" d="M172.1799,-55.3293C180.7025,-56.5285 189.307,-57.7392 197.7411,-58.9259"/>
<polygon fill="#191970" stroke="#191970" points="172.6181,-51.8566 162.2279,-53.9291 171.6427,-58.7883 172.6181,-51.8566"/>
</g>
<!-- Node3 -->
<g id="node3" class="node">
<title>Node3</title>
<g id="a_node3"><a xlink:href="../../d3/d3f/classorg_1_1cobbzilla_1_1util_1_1cache_1_1AutoRefreshingReference_a5ad03a26850e8799442c8ca2e89515bb.html#a5ad03a26850e8799442c8ca2e89515bb" target="_top" xlink:title="org.cobbzilla.util.cache.\lAutoRefreshingReference.update">
<polygon fill="none" stroke="#000000" points="199.5,-.5 199.5,-30.5 360.5,-30.5 360.5,-.5 199.5,-.5"/>
<text text-anchor="start" x="207.5" y="-18.5" font-family="Helvetica,sans-Serif" font-size="10.00" fill="#000000">org.cobbzilla.util.cache.</text>
<text text-anchor="middle" x="280" y="-7.5" font-family="Helvetica,sans-Serif" font-size="10.00" fill="#000000">AutoRefreshingReference.update</text>
</a>
</g>
</g>
<!-- Node1&#45;&gt;Node3 -->
<g id="edge2" class="edge">
<title>Node1&#45;&gt;Node3</title>
<path fill="none" stroke="#191970" d="M172.3482,-30.106C181.3597,-28.8834 190.461,-27.6485 199.3538,-26.4419"/>
<polygon fill="#191970" stroke="#191970" points="171.6666,-26.6664 162.2279,-31.4791 172.6077,-33.6028 171.6666,-26.6664"/>
</g>
<!-- Node4 -->
<g id="node4" class="node">
<title>Node4</title>
<g id="a_node4"><a xlink:href="../../d3/d3f/classorg_1_1cobbzilla_1_1util_1_1cache_1_1AutoRefreshingReference_a325926baaf263ae2ef2cb20c6a1f20b8.html#a325926baaf263ae2ef2cb20c6a1f20b8" target="_top" xlink:title="org.cobbzilla.util.cache.\lAutoRefreshingReference.get">
<polygon fill="none" stroke="#000000" points="398,-.5 398,-30.5 544,-30.5 544,-.5 398,-.5"/>
<text text-anchor="start" x="406" y="-18.5" font-family="Helvetica,sans-Serif" font-size="10.00" fill="#000000">org.cobbzilla.util.cache.</text>
<text text-anchor="middle" x="471" y="-7.5" font-family="Helvetica,sans-Serif" font-size="10.00" fill="#000000">AutoRefreshingReference.get</text>
</a>
</g>
</g>
<!-- Node3&#45;&gt;Node4 -->
<g id="edge3" class="edge">
<title>Node3&#45;&gt;Node4</title>
<path fill="none" stroke="#191970" d="M370.8882,-15.5C379.9265,-15.5 389.0201,-15.5 397.844,-15.5"/>
<polygon fill="#191970" stroke="#191970" points="370.7244,-12.0001 360.7244,-15.5 370.7243,-19.0001 370.7244,-12.0001"/>
</g>
</g>
</svg>
