<?xml version="1.0" encoding="UTF-8" standalone="no"?>
<!DOCTYPE svg PUBLIC "-//W3C//DTD SVG 1.1//EN"
 "http://www.w3.org/Graphics/SVG/1.1/DTD/svg11.dtd">
<!-- Generated by graphviz version 2.40.1 (20161225.0304)
 -->
<!-- Title: org.cobbzilla.util.daemon.Await.awaitAll Pages: 1 -->
<svg width="464pt" height="186pt"
 viewBox="0.00 0.00 464.00 186.00" xmlns="http://www.w3.org/2000/svg" xmlns:xlink="http://www.w3.org/1999/xlink">
<g id="graph0" class="graph" transform="scale(1 1) rotate(0) translate(4 182)">
<title>org.cobbzilla.util.daemon.Await.awaitAll</title>
<!-- Node0 -->
<g id="node1" class="node">
<title>Node0</title>
<polygon fill="#bfbfbf" stroke="#000000" points="0,-73.5 0,-103.5 128,-103.5 128,-73.5 0,-73.5"/>
<text text-anchor="start" x="8" y="-91.5" font-family="Helvetica,sans-Serif" font-size="10.00" fill="#000000">org.cobbzilla.util.daemon.</text>
<text text-anchor="middle" x="64" y="-80.5" font-family="Helvetica,sans-Serif" font-size="10.00" fill="#000000">Await.awaitAll</text>
</g>
<!-- Node1 -->
<g id="node2" class="node">
<title>Node1</title>
<g id="a_node2"><a xlink:href="../../d4/d54/classorg_1_1cobbzilla_1_1util_1_1daemon_1_1AwaitResult_aaad726a35658a2e0f41b07b3fe75e7e0.html#aaad726a35658a2e0f41b07b3fe75e7e0" target="_top" xlink:title="org.cobbzilla.util.daemon.\lAwaitResult.fail">
<polygon fill="none" stroke="#000000" points="164,-147.5 164,-177.5 292,-177.5 292,-147.5 164,-147.5"/>
<text text-anchor="start" x="172" y="-165.5" font-family="Helvetica,sans-Serif" font-size="10.00" fill="#000000">org.cobbzilla.util.daemon.</text>
<text text-anchor="middle" x="228" y="-154.5" font-family="Helvetica,sans-Serif" font-size="10.00" fill="#000000">AwaitResult.fail</text>
</a>
</g>
</g>
<!-- Node0&#45;&gt;Node1 -->
<g id="edge1" class="edge">
<title>Node0&#45;&gt;Node1</title>
<path fill="none" stroke="#191970" d="M92.0732,-103.5273C111.9126,-113.9015 139.2688,-127.7155 164,-138.5 167.9159,-140.2076 171.996,-141.9095 176.1168,-143.5737"/>
<polygon fill="#191970" stroke="#191970" points="175.1609,-146.959 185.7476,-147.3728 177.7296,-140.4473 175.1609,-146.959"/>
</g>
<!-- Node2 -->
<g id="node3" class="node">
<title>Node2</title>
<g id="a_node3"><a xlink:href="../../d5/d7f/interfaceorg_1_1cobbzilla_1_1util_1_1time_1_1ClockProvider_a74aa22a448bd9e33c80b570ccb701682.html#a74aa22a448bd9e33c80b570ccb701682" target="_top" xlink:title="org.cobbzilla.util.time.\lClockProvider.now">
<polygon fill="none" stroke="#000000" points="172,-98.5 172,-128.5 284,-128.5 284,-98.5 172,-98.5"/>
<text text-anchor="start" x="180" y="-116.5" font-family="Helvetica,sans-Serif" font-size="10.00" fill="#000000">org.cobbzilla.util.time.</text>
<text text-anchor="middle" x="228" y="-105.5" font-family="Helvetica,sans-Serif" font-size="10.00" fill="#000000">ClockProvider.now</text>
</a>
</g>
</g>
<!-- Node0&#45;&gt;Node2 -->
<g id="edge2" class="edge">
<title>Node0&#45;&gt;Node2</title>
<path fill="none" stroke="#191970" d="M128.3464,-98.3089C139.3393,-99.9846 150.7765,-101.7281 161.8161,-103.411"/>
<polygon fill="#191970" stroke="#191970" points="161.4053,-106.8887 171.8186,-104.9358 162.4603,-99.9687 161.4053,-106.8887"/>
</g>
<!-- Node3 -->
<g id="node4" class="node">
<title>Node3</title>
<g id="a_node4"><a xlink:href="../../d4/d54/classorg_1_1cobbzilla_1_1util_1_1daemon_1_1AwaitResult_ade929a6a2048ec86a1c87f990d164399.html#ade929a6a2048ec86a1c87f990d164399" target="_top" xlink:title="org.cobbzilla.util.daemon.\lAwaitResult.success">
<polygon fill="none" stroke="#000000" points="164,-49.5 164,-79.5 292,-79.5 292,-49.5 164,-49.5"/>
<text text-anchor="start" x="172" y="-67.5" font-family="Helvetica,sans-Serif" font-size="10.00" fill="#000000">org.cobbzilla.util.daemon.</text>
<text text-anchor="middle" x="228" y="-56.5" font-family="Helvetica,sans-Serif" font-size="10.00" fill="#000000">AwaitResult.success</text>
</a>
</g>
</g>
<!-- Node0&#45;&gt;Node3 -->
<g id="edge3" class="edge">
<title>Node0&#45;&gt;Node3</title>
<path fill="none" stroke="#191970" d="M128.3464,-79.0834C136.7313,-77.8564 145.3746,-76.5915 153.9029,-75.3435"/>
<polygon fill="#191970" stroke="#191970" points="154.4513,-78.8006 163.8391,-73.8894 153.4377,-71.8744 154.4513,-78.8006"/>
</g>
<!-- Node4 -->
<g id="node5" class="node">
<title>Node4</title>
<g id="a_node5"><a xlink:href="../../d4/d54/classorg_1_1cobbzilla_1_1util_1_1daemon_1_1AwaitResult_a04eb314b90e93a8df116f6027218456a.html#a04eb314b90e93a8df116f6027218456a" target="_top" xlink:title="org.cobbzilla.util.daemon.\lAwaitResult.timeout">
<polygon fill="none" stroke="#000000" points="164,-.5 164,-30.5 292,-30.5 292,-.5 164,-.5"/>
<text text-anchor="start" x="172" y="-18.5" font-family="Helvetica,sans-Serif" font-size="10.00" fill="#000000">org.cobbzilla.util.daemon.</text>
<text text-anchor="middle" x="228" y="-7.5" font-family="Helvetica,sans-Serif" font-size="10.00" fill="#000000">AwaitResult.timeout</text>
</a>
</g>
</g>
<!-- Node0&#45;&gt;Node4 -->
<g id="edge4" class="edge">
<title>Node0&#45;&gt;Node4</title>
<path fill="none" stroke="#191970" d="M93.9224,-73.4115C113.6514,-63.6437 140.1566,-50.8619 164,-40.5 168.7334,-38.443 173.6949,-36.3671 178.6721,-34.3376"/>
<polygon fill="#191970" stroke="#191970" points="180.2316,-37.4831 188.2074,-30.509 177.6233,-30.9872 180.2316,-37.4831"/>
</g>
<!-- Node5 -->
<g id="node6" class="node">
<title>Node5</title>
<g id="a_node6"><a xlink:href="../../d4/d54/classorg_1_1cobbzilla_1_1util_1_1daemon_1_1AwaitResult_a5f9aae52339e58b19827d1d6939d2b4b.html#a5f9aae52339e58b19827d1d6939d2b4b" target="_top" xlink:title="org.cobbzilla.util.daemon.\lAwaitResult.timedOut">
<polygon fill="none" stroke="#000000" points="328,-.5 328,-30.5 456,-30.5 456,-.5 328,-.5"/>
<text text-anchor="start" x="336" y="-18.5" font-family="Helvetica,sans-Serif" font-size="10.00" fill="#000000">org.cobbzilla.util.daemon.</text>
<text text-anchor="middle" x="392" y="-7.5" font-family="Helvetica,sans-Serif" font-size="10.00" fill="#000000">AwaitResult.timedOut</text>
</a>
</g>
</g>
<!-- Node4&#45;&gt;Node5 -->
<g id="edge5" class="edge">
<title>Node4&#45;&gt;Node5</title>
<path fill="none" stroke="#191970" d="M292.3464,-15.5C300.6401,-15.5 309.1868,-15.5 317.6248,-15.5"/>
<polygon fill="#191970" stroke="#191970" points="317.8392,-19.0001 327.8391,-15.5 317.8391,-12.0001 317.8392,-19.0001"/>
</g>
</g>
</svg>
