<?xml version="1.0" encoding="UTF-8" standalone="no"?>
<!DOCTYPE svg PUBLIC "-//W3C//DTD SVG 1.1//EN"
 "http://www.w3.org/Graphics/SVG/1.1/DTD/svg11.dtd">
<!-- Generated by graphviz version 2.40.1 (20161225.0304)
 -->
<!-- Title: org.cobbzilla.util.bean.BeanMerger.CopyEvaluator.shouldCopy Pages: 1 -->
<svg width="561pt" height="88pt"
 viewBox="0.00 0.00 561.00 88.00" xmlns="http://www.w3.org/2000/svg" xmlns:xlink="http://www.w3.org/1999/xlink">
<g id="graph0" class="graph" transform="scale(1 1) rotate(0) translate(4 84)">
<title>org.cobbzilla.util.bean.BeanMerger.CopyEvaluator.shouldCopy</title>
<!-- Node1 -->
<g id="node1" class="node">
<title>Node1</title>
<polygon fill="#bfbfbf" stroke="#000000" points="0,-24.5 0,-54.5 191,-54.5 191,-24.5 0,-24.5"/>
<text text-anchor="start" x="8" y="-42.5" font-family="Helvetica,sans-Serif" font-size="10.00" fill="#000000">org.cobbzilla.util.bean.</text>
<text text-anchor="middle" x="95.5" y="-31.5" font-family="Helvetica,sans-Serif" font-size="10.00" fill="#000000">BeanMerger.CopyEvaluator.shouldCopy</text>
</g>
<!-- Node2 -->
<g id="node2" class="node">
<title>Node2</title>
<g id="a_node2"><a xlink:href="../../dd/d78/classorg_1_1cobbzilla_1_1util_1_1bean_1_1BeanMerger_a4f64124d4a08c8196592167a51ff590f.html#a4f64124d4a08c8196592167a51ff590f" target="_top" xlink:title="org.cobbzilla.util.bean.\lBeanMerger.merge">
<polygon fill="none" stroke="#000000" points="227,-24.5 227,-54.5 341,-54.5 341,-24.5 227,-24.5"/>
<text text-anchor="start" x="235" y="-42.5" font-family="Helvetica,sans-Serif" font-size="10.00" fill="#000000">org.cobbzilla.util.bean.</text>
<text text-anchor="middle" x="284" y="-31.5" font-family="Helvetica,sans-Serif" font-size="10.00" fill="#000000">BeanMerger.merge</text>
</a>
</g>
</g>
<!-- Node1&#45;&gt;Node2 -->
<g id="edge1" class="edge">
<title>Node1&#45;&gt;Node2</title>
<path fill="none" stroke="#191970" d="M201.4088,-39.5C210.1269,-39.5 218.7099,-39.5 226.8532,-39.5"/>
<polygon fill="#191970" stroke="#191970" points="201.1306,-36.0001 191.1306,-39.5 201.1305,-43.0001 201.1306,-36.0001"/>
</g>
<!-- Node3 -->
<g id="node3" class="node">
<title>Node3</title>
<g id="a_node3"><a xlink:href="../../dd/d78/classorg_1_1cobbzilla_1_1util_1_1bean_1_1BeanMerger_af852704654c6e58c3b4cd89334346bcb.html#af852704654c6e58c3b4cd89334346bcb" target="_top" xlink:title="org.cobbzilla.util.bean.\lBeanMerger.mergeNotNullProperties">
<polygon fill="none" stroke="#000000" points="377,-49.5 377,-79.5 553,-79.5 553,-49.5 377,-49.5"/>
<text text-anchor="start" x="385" y="-67.5" font-family="Helvetica,sans-Serif" font-size="10.00" fill="#000000">org.cobbzilla.util.bean.</text>
<text text-anchor="middle" x="465" y="-56.5" font-family="Helvetica,sans-Serif" font-size="10.00" fill="#000000">BeanMerger.mergeNotNullProperties</text>
</a>
</g>
</g>
<!-- Node2&#45;&gt;Node3 -->
<g id="edge2" class="edge">
<title>Node2&#45;&gt;Node3</title>
<path fill="none" stroke="#191970" d="M351.2395,-48.7872C359.5438,-49.9342 368.1286,-51.12 376.6872,-52.3021"/>
<polygon fill="#191970" stroke="#191970" points="351.6544,-45.3114 341.2695,-47.4102 350.6966,-52.2456 351.6544,-45.3114"/>
</g>
<!-- Node4 -->
<g id="node4" class="node">
<title>Node4</title>
<g id="a_node4"><a xlink:href="../../dd/d78/classorg_1_1cobbzilla_1_1util_1_1bean_1_1BeanMerger_a626b038d7e2756cdcce1aa67976ff079.html#a626b038d7e2756cdcce1aa67976ff079" target="_top" xlink:title="org.cobbzilla.util.bean.\lBeanMerger.mergeProperties">
<polygon fill="none" stroke="#000000" points="393.5,-.5 393.5,-30.5 536.5,-30.5 536.5,-.5 393.5,-.5"/>
<text text-anchor="start" x="401.5" y="-18.5" font-family="Helvetica,sans-Serif" font-size="10.00" fill="#000000">org.cobbzilla.util.bean.</text>
<text text-anchor="middle" x="465" y="-7.5" font-family="Helvetica,sans-Serif" font-size="10.00" fill="#000000">BeanMerger.mergeProperties</text>
</a>
</g>
</g>
<!-- Node2&#45;&gt;Node4 -->
<g id="edge3" class="edge">
<title>Node2&#45;&gt;Node4</title>
<path fill="none" stroke="#191970" d="M351.5586,-30.542C365.2338,-28.7287 379.6572,-26.8162 393.464,-24.9854"/>
<polygon fill="#191970" stroke="#191970" points="350.7227,-27.1221 341.2695,-31.9063 351.6429,-34.0613 350.7227,-27.1221"/>
</g>
</g>
</svg>
