<?xml version="1.0" encoding="UTF-8" standalone="no"?>
<!DOCTYPE svg PUBLIC "-//W3C//DTD SVG 1.1//EN"
 "http://www.w3.org/Graphics/SVG/1.1/DTD/svg11.dtd">
<!-- Generated by graphviz version 2.40.1 (20161225.0304)
 -->
<!-- Title: org.cobbzilla.util.io.FilesystemWalker Pages: 1 -->
<svg width="511pt" height="463pt"
 viewBox="0.00 0.00 510.50 463.00" xmlns="http://www.w3.org/2000/svg" xmlns:xlink="http://www.w3.org/1999/xlink">
<g id="graph0" class="graph" transform="scale(1 1) rotate(0) translate(4 459)">
<title>org.cobbzilla.util.io.FilesystemWalker</title>
<!-- Node1 -->
<g id="node1" class="node">
<title>Node1</title>
<polygon fill="#bfbfbf" stroke="#000000" points="173.5,-.5 173.5,-222.5 322.5,-222.5 322.5,-.5 173.5,-.5"/>
<text text-anchor="start" x="181.5" y="-210.5" font-family="Helvetica,sans-Serif" font-size="10.00" fill="#000000">org.cobbzilla.util.io.Filesystem</text>
<text text-anchor="middle" x="248" y="-199.5" font-family="Helvetica,sans-Serif" font-size="10.00" fill="#000000">Walker</text>
<polyline fill="none" stroke="#000000" points="173.5,-192.5 322.5,-192.5 "/>
<text text-anchor="start" x="181.5" y="-180.5" font-family="Helvetica,sans-Serif" font-size="10.00" fill="#000000">&#45; includeSymlinks</text>
<text text-anchor="start" x="181.5" y="-169.5" font-family="Helvetica,sans-Serif" font-size="10.00" fill="#000000">&#45; visitDirs</text>
<text text-anchor="start" x="181.5" y="-158.5" font-family="Helvetica,sans-Serif" font-size="10.00" fill="#000000">&#45; threads</text>
<text text-anchor="start" x="181.5" y="-147.5" font-family="Helvetica,sans-Serif" font-size="10.00" fill="#000000">&#45; size</text>
<text text-anchor="start" x="181.5" y="-136.5" font-family="Helvetica,sans-Serif" font-size="10.00" fill="#000000">&#45; timeout</text>
<text text-anchor="start" x="181.5" y="-125.5" font-family="Helvetica,sans-Serif" font-size="10.00" fill="#000000">&#45; sleepTime</text>
<polyline fill="none" stroke="#000000" points="173.5,-118.5 322.5,-118.5 "/>
<text text-anchor="start" x="181.5" y="-106.5" font-family="Helvetica,sans-Serif" font-size="10.00" fill="#000000">+ hasFilter()</text>
<text text-anchor="start" x="181.5" y="-95.5" font-family="Helvetica,sans-Serif" font-size="10.00" fill="#000000">+ withDir()</text>
<text text-anchor="start" x="181.5" y="-84.5" font-family="Helvetica,sans-Serif" font-size="10.00" fill="#000000">+ withDirs()</text>
<text text-anchor="start" x="181.5" y="-73.5" font-family="Helvetica,sans-Serif" font-size="10.00" fill="#000000">+ withDirs()</text>
<text text-anchor="start" x="181.5" y="-62.5" font-family="Helvetica,sans-Serif" font-size="10.00" fill="#000000">+ withVisitor()</text>
<text text-anchor="start" x="181.5" y="-51.5" font-family="Helvetica,sans-Serif" font-size="10.00" fill="#000000">+ withTimeoutDuration()</text>
<text text-anchor="start" x="181.5" y="-40.5" font-family="Helvetica,sans-Serif" font-size="10.00" fill="#000000">+ walk()</text>
<text text-anchor="start" x="181.5" y="-29.5" font-family="Helvetica,sans-Serif" font-size="10.00" fill="#000000">&#45; awaitFutures()</text>
<text text-anchor="start" x="181.5" y="-18.5" font-family="Helvetica,sans-Serif" font-size="10.00" fill="#000000">&#45; numFutures()</text>
<text text-anchor="start" x="181.5" y="-7.5" font-family="Helvetica,sans-Serif" font-size="10.00" fill="#000000">&#45; fileJob()</text>
</g>
<!-- Node2 -->
<g id="node2" class="node">
<title>Node2</title>
<polygon fill="none" stroke="#bfbfbf" points="0,-276 0,-333 54,-333 54,-276 0,-276"/>
<text text-anchor="middle" x="27" y="-321" font-family="Helvetica,sans-Serif" font-size="10.00" fill="#000000">FileFilter</text>
<polyline fill="none" stroke="#bfbfbf" points="0,-314 54,-314 "/>
<text text-anchor="middle" x="27" y="-302" font-family="Helvetica,sans-Serif" font-size="10.00" fill="#000000"> </text>
<polyline fill="none" stroke="#bfbfbf" points="0,-295 54,-295 "/>
<text text-anchor="middle" x="27" y="-283" font-family="Helvetica,sans-Serif" font-size="10.00" fill="#000000"> </text>
</g>
<!-- Node2&#45;&gt;Node1 -->
<g id="edge1" class="edge">
<title>Node2&#45;&gt;Node1</title>
<path fill="none" stroke="#404040" d="M54.3685,-277.9695C57.262,-275.2555 60.1777,-272.5578 63,-270 95.5167,-240.5313 132.0653,-208.9132 164.0359,-181.7288"/>
<polygon fill="none" stroke="#404040" points="164.2122,-181.5792 166.1986,-174.6471 173.3615,-173.8145 171.3751,-180.7466 164.2122,-181.5792"/>
<text text-anchor="middle" x="105.5" y="-244" font-family="Helvetica,sans-Serif" font-size="10.00" fill="#000000"> &#45;filter</text>
</g>
<!-- Node3 -->
<g id="node3" class="node">
<title>Node3</title>
<polygon fill="none" stroke="#bfbfbf" points="72.5,-276 72.5,-333 167.5,-333 167.5,-276 72.5,-276"/>
<text text-anchor="middle" x="120" y="-321" font-family="Helvetica,sans-Serif" font-size="10.00" fill="#000000">List&lt; Future&lt;?&gt; &gt;</text>
<polyline fill="none" stroke="#bfbfbf" points="72.5,-314 167.5,-314 "/>
<text text-anchor="middle" x="120" y="-302" font-family="Helvetica,sans-Serif" font-size="10.00" fill="#000000"> </text>
<polyline fill="none" stroke="#bfbfbf" points="72.5,-295 167.5,-295 "/>
<text text-anchor="middle" x="120" y="-283" font-family="Helvetica,sans-Serif" font-size="10.00" fill="#000000"> </text>
</g>
<!-- Node3&#45;&gt;Node1 -->
<g id="edge2" class="edge">
<title>Node3&#45;&gt;Node1</title>
<path fill="none" stroke="#404040" d="M139.1629,-275.6059C147.1908,-263.5014 157.1102,-248.5448 167.6648,-232.6304"/>
<polygon fill="none" stroke="#404040" points="167.6749,-232.6151 167.6577,-225.404 174.3074,-222.6146 174.3247,-229.8257 167.6749,-232.6151"/>
<text text-anchor="middle" x="180.5" y="-244" font-family="Helvetica,sans-Serif" font-size="10.00" fill="#000000"> &#45;futures</text>
</g>
<!-- Node4 -->
<g id="node4" class="node">
<title>Node4</title>
<polygon fill="none" stroke="#bfbfbf" points="218,-397.5 218,-454.5 250,-454.5 250,-397.5 218,-397.5"/>
<text text-anchor="middle" x="234" y="-442.5" font-family="Helvetica,sans-Serif" font-size="10.00" fill="#000000">List</text>
<polyline fill="none" stroke="#bfbfbf" points="218,-435.5 250,-435.5 "/>
<text text-anchor="middle" x="234" y="-423.5" font-family="Helvetica,sans-Serif" font-size="10.00" fill="#000000"> </text>
<polyline fill="none" stroke="#bfbfbf" points="218,-416.5 250,-416.5 "/>
<text text-anchor="middle" x="234" y="-404.5" font-family="Helvetica,sans-Serif" font-size="10.00" fill="#000000"> </text>
</g>
<!-- Node4&#45;&gt;Node3 -->
<g id="edge3" class="edge">
<title>Node4&#45;&gt;Node3</title>
<path fill="none" stroke="#ffa500" d="M208.7683,-413.1489C194.1605,-404.8283 176.1264,-392.9564 163,-379 150.4154,-365.6197 139.9972,-347.8986 132.5689,-333.0969"/>
<polygon fill="#ffa500" stroke="#ffa500" points="207.3352,-416.3546 217.7869,-418.0902 210.6987,-410.2156 207.3352,-416.3546"/>
<text text-anchor="middle" x="196.5" y="-365.5" font-family="Helvetica,sans-Serif" font-size="10.00" fill="#000000"> &lt; Future&lt;?&gt; &gt;</text>
</g>
<!-- Node6 -->
<g id="node6" class="node">
<title>Node6</title>
<polygon fill="none" stroke="#bfbfbf" points="185.5,-270.5 185.5,-338.5 310.5,-338.5 310.5,-270.5 185.5,-270.5"/>
<text text-anchor="start" x="193.5" y="-326.5" font-family="Helvetica,sans-Serif" font-size="10.00" fill="#000000">List&lt; org.cobbzilla.util.io.</text>
<text text-anchor="middle" x="248" y="-315.5" font-family="Helvetica,sans-Serif" font-size="10.00" fill="#000000">FilesystemVisitor &gt;</text>
<polyline fill="none" stroke="#bfbfbf" points="185.5,-308.5 310.5,-308.5 "/>
<text text-anchor="middle" x="248" y="-296.5" font-family="Helvetica,sans-Serif" font-size="10.00" fill="#000000"> </text>
<polyline fill="none" stroke="#bfbfbf" points="185.5,-289.5 310.5,-289.5 "/>
<text text-anchor="middle" x="248" y="-277.5" font-family="Helvetica,sans-Serif" font-size="10.00" fill="#000000"> </text>
</g>
<!-- Node4&#45;&gt;Node6 -->
<g id="edge6" class="edge">
<title>Node4&#45;&gt;Node6</title>
<path fill="none" stroke="#ffa500" d="M233.0092,-387.3441C233.1794,-377.4223 233.7341,-366.7883 235,-357 235.7708,-351.0401 236.9687,-344.7789 238.3319,-338.7396"/>
<polygon fill="#ffa500" stroke="#ffa500" points="229.5093,-387.3425 232.9574,-397.3605 236.5092,-387.3788 229.5093,-387.3425"/>
<text text-anchor="start" x="235" y="-371" font-family="Helvetica,sans-Serif" font-size="10.00" fill="#000000"> &lt; org::cobbzilla::util</text>
<text text-anchor="middle" x="287.5" y="-360" font-family="Helvetica,sans-Serif" font-size="10.00" fill="#000000">::io::FilesystemVisitor &gt;</text>
</g>
<!-- Node7 -->
<g id="node7" class="node">
<title>Node7</title>
<polygon fill="none" stroke="#bfbfbf" points="329,-276 329,-333 395,-333 395,-276 329,-276"/>
<text text-anchor="middle" x="362" y="-321" font-family="Helvetica,sans-Serif" font-size="10.00" fill="#000000">List&lt; File &gt;</text>
<polyline fill="none" stroke="#bfbfbf" points="329,-314 395,-314 "/>
<text text-anchor="middle" x="362" y="-302" font-family="Helvetica,sans-Serif" font-size="10.00" fill="#000000"> </text>
<polyline fill="none" stroke="#bfbfbf" points="329,-295 395,-295 "/>
<text text-anchor="middle" x="362" y="-283" font-family="Helvetica,sans-Serif" font-size="10.00" fill="#000000"> </text>
</g>
<!-- Node4&#45;&gt;Node7 -->
<g id="edge8" class="edge">
<title>Node4&#45;&gt;Node7</title>
<path fill="none" stroke="#ffa500" d="M260.0369,-420.9842C284.099,-415.0184 319.18,-402.724 340,-379 351.1195,-366.3295 356.6253,-348.2704 359.3484,-333.1058"/>
<polygon fill="#ffa500" stroke="#ffa500" points="259.1335,-417.6002 250.1604,-423.2335 260.6879,-424.4255 259.1335,-417.6002"/>
<text text-anchor="middle" x="370.5" y="-365.5" font-family="Helvetica,sans-Serif" font-size="10.00" fill="#000000"> &lt; File &gt;</text>
</g>
<!-- Node5 -->
<g id="node5" class="node">
<title>Node5</title>
<polygon fill="none" stroke="#bfbfbf" points="413.5,-276 413.5,-333 502.5,-333 502.5,-276 413.5,-276"/>
<text text-anchor="middle" x="458" y="-321" font-family="Helvetica,sans-Serif" font-size="10.00" fill="#000000">ExecutorService</text>
<polyline fill="none" stroke="#bfbfbf" points="413.5,-314 502.5,-314 "/>
<text text-anchor="middle" x="458" y="-302" font-family="Helvetica,sans-Serif" font-size="10.00" fill="#000000"> </text>
<polyline fill="none" stroke="#bfbfbf" points="413.5,-295 502.5,-295 "/>
<text text-anchor="middle" x="458" y="-283" font-family="Helvetica,sans-Serif" font-size="10.00" fill="#000000"> </text>
</g>
<!-- Node5&#45;&gt;Node1 -->
<g id="edge4" class="edge">
<title>Node5&#45;&gt;Node1</title>
<path fill="none" stroke="#404040" d="M426.5609,-275.6059C401.4578,-252.535 365.0816,-219.1035 331.7028,-188.4268"/>
<polygon fill="none" stroke="#404040" points="331.6718,-188.3983 324.5474,-187.2834 322.8364,-180.2782 329.9608,-181.3931 331.6718,-188.3983"/>
<text text-anchor="middle" x="407.5" y="-244" font-family="Helvetica,sans-Serif" font-size="10.00" fill="#000000"> &#45;pool</text>
</g>
<!-- Node6&#45;&gt;Node1 -->
<g id="edge5" class="edge">
<title>Node6&#45;&gt;Node1</title>
<path fill="none" stroke="#404040" d="M248,-270.4397C248,-259.9175 248,-247.6594 248,-234.7044"/>
<polygon fill="none" stroke="#404040" points="248.0001,-234.6408 244,-228.6408 248,-222.6408 252,-228.6408 248.0001,-234.6408"/>
<text text-anchor="middle" x="267" y="-244" font-family="Helvetica,sans-Serif" font-size="10.00" fill="#000000"> &#45;visitors</text>
</g>
<!-- Node7&#45;&gt;Node1 -->
<g id="edge7" class="edge">
<title>Node7&#45;&gt;Node1</title>
<path fill="none" stroke="#404040" d="M344.933,-275.6059C337.8506,-263.6156 329.1153,-248.8267 319.8144,-233.0805"/>
<polygon fill="none" stroke="#404040" points="319.7354,-232.9468 313.2399,-229.815 313.6324,-222.6146 320.128,-225.7463 319.7354,-232.9468"/>
<text text-anchor="middle" x="339" y="-244" font-family="Helvetica,sans-Serif" font-size="10.00" fill="#000000"> &#45;dirs</text>
</g>
</g>
</svg>
