<?xml version="1.0" encoding="UTF-8" standalone="no"?>
<!DOCTYPE svg PUBLIC "-//W3C//DTD SVG 1.1//EN"
 "http://www.w3.org/Graphics/SVG/1.1/DTD/svg11.dtd">
<!-- Generated by graphviz version 2.40.1 (20161225.0304)
 -->
<!-- Title: org.cobbzilla.util.jdbc.ResultSetBean.isEmpty Pages: 1 -->
<svg width="306pt" height="137pt"
 viewBox="0.00 0.00 306.00 137.00" xmlns="http://www.w3.org/2000/svg" xmlns:xlink="http://www.w3.org/1999/xlink">
<g id="graph0" class="graph" transform="scale(1 1) rotate(0) translate(4 133)">
<title>org.cobbzilla.util.jdbc.ResultSetBean.isEmpty</title>
<!-- Node1 -->
<g id="node1" class="node">
<title>Node1</title>
<polygon fill="#bfbfbf" stroke="#000000" points="0,-49.5 0,-79.5 122,-79.5 122,-49.5 0,-49.5"/>
<text text-anchor="start" x="8" y="-67.5" font-family="Helvetica,sans-Serif" font-size="10.00" fill="#000000">org.cobbzilla.util.jdbc.</text>
<text text-anchor="middle" x="61" y="-56.5" font-family="Helvetica,sans-Serif" font-size="10.00" fill="#000000">ResultSetBean.isEmpty</text>
</g>
<!-- Node2 -->
<g id="node2" class="node">
<title>Node2</title>
<g id="a_node2"><a xlink:href="../../de/dfa/classorg_1_1cobbzilla_1_1util_1_1jdbc_1_1ResultSetBean_ae7d29d42316d4768d4f4475c7a1a850b.html#ae7d29d42316d4768d4f4475c7a1a850b" target="_top" xlink:title="org.cobbzilla.util.jdbc.\lResultSetBean.count">
<polygon fill="none" stroke="#000000" points="172.5,-98.5 172.5,-128.5 283.5,-128.5 283.5,-98.5 172.5,-98.5"/>
<text text-anchor="start" x="180.5" y="-116.5" font-family="Helvetica,sans-Serif" font-size="10.00" fill="#000000">org.cobbzilla.util.jdbc.</text>
<text text-anchor="middle" x="228" y="-105.5" font-family="Helvetica,sans-Serif" font-size="10.00" fill="#000000">ResultSetBean.count</text>
</a>
</g>
</g>
<!-- Node1&#45;&gt;Node2 -->
<g id="edge1" class="edge">
<title>Node1&#45;&gt;Node2</title>
<path fill="none" stroke="#191970" d="M122.2344,-82.467C140.1275,-87.717 159.4922,-93.3989 176.7018,-98.4484"/>
<polygon fill="#191970" stroke="#191970" points="123.0491,-79.0585 112.4682,-79.6014 121.0782,-85.7754 123.0491,-79.0585"/>
</g>
<!-- Node3 -->
<g id="node3" class="node">
<title>Node3</title>
<g id="a_node3"><a xlink:href="../../de/dfa/classorg_1_1cobbzilla_1_1util_1_1jdbc_1_1ResultSetBean_a765006fff59e972d47fca26d22e8e028.html#a765006fff59e972d47fca26d22e8e028" target="_top" xlink:title="org.cobbzilla.util.jdbc.\lResultSetBean.countOrZero">
<polygon fill="none" stroke="#000000" points="158,-49.5 158,-79.5 298,-79.5 298,-49.5 158,-49.5"/>
<text text-anchor="start" x="166" y="-67.5" font-family="Helvetica,sans-Serif" font-size="10.00" fill="#000000">org.cobbzilla.util.jdbc.</text>
<text text-anchor="middle" x="228" y="-56.5" font-family="Helvetica,sans-Serif" font-size="10.00" fill="#000000">ResultSetBean.countOrZero</text>
</a>
</g>
</g>
<!-- Node1&#45;&gt;Node3 -->
<g id="edge2" class="edge">
<title>Node1&#45;&gt;Node3</title>
<path fill="none" stroke="#191970" d="M132.3764,-64.5C140.7766,-64.5 149.3441,-64.5 157.729,-64.5"/>
<polygon fill="#191970" stroke="#191970" points="132.2364,-61.0001 122.2364,-64.5 132.2363,-68.0001 132.2364,-61.0001"/>
</g>
<!-- Node4 -->
<g id="node4" class="node">
<title>Node4</title>
<g id="a_node4"><a xlink:href="../../de/dfa/classorg_1_1cobbzilla_1_1util_1_1jdbc_1_1ResultSetBean_abe2f44797da330f09c4f7732a561ec4a.html#abe2f44797da330f09c4f7732a561ec4a" target="_top" xlink:title="org.cobbzilla.util.jdbc.\lResultSetBean.rowCount">
<polygon fill="none" stroke="#000000" points="164,-.5 164,-30.5 292,-30.5 292,-.5 164,-.5"/>
<text text-anchor="start" x="172" y="-18.5" font-family="Helvetica,sans-Serif" font-size="10.00" fill="#000000">org.cobbzilla.util.jdbc.</text>
<text text-anchor="middle" x="228" y="-7.5" font-family="Helvetica,sans-Serif" font-size="10.00" fill="#000000">ResultSetBean.rowCount</text>
</a>
</g>
</g>
<!-- Node1&#45;&gt;Node4 -->
<g id="edge3" class="edge">
<title>Node1&#45;&gt;Node4</title>
<path fill="none" stroke="#191970" d="M122.2344,-46.533C140.1275,-41.283 159.4922,-35.6011 176.7018,-30.5516"/>
<polygon fill="#191970" stroke="#191970" points="121.0782,-43.2246 112.4682,-49.3986 123.0491,-49.9415 121.0782,-43.2246"/>
</g>
</g>
</svg>
