<?xml version="1.0" encoding="UTF-8" standalone="no"?>
<!DOCTYPE svg PUBLIC "-//W3C//DTD SVG 1.1//EN"
 "http://www.w3.org/Graphics/SVG/1.1/DTD/svg11.dtd">
<!-- Generated by graphviz version 2.40.1 (20161225.0304)
 -->
<!-- Title: org.cobbzilla.util.jdbc.ResultSetBean.read Pages: 1 -->
<svg width="310pt" height="88pt"
 viewBox="0.00 0.00 310.00 88.00" xmlns="http://www.w3.org/2000/svg" xmlns:xlink="http://www.w3.org/1999/xlink">
<g id="graph0" class="graph" transform="scale(1 1) rotate(0) translate(4 84)">
<title>org.cobbzilla.util.jdbc.ResultSetBean.read</title>
<!-- Node0 -->
<g id="node1" class="node">
<title>Node0</title>
<polygon fill="#bfbfbf" stroke="#000000" points="0,-24.5 0,-54.5 111,-54.5 111,-24.5 0,-24.5"/>
<text text-anchor="start" x="8" y="-42.5" font-family="Helvetica,sans-Serif" font-size="10.00" fill="#000000">org.cobbzilla.util.jdbc.</text>
<text text-anchor="middle" x="55.5" y="-31.5" font-family="Helvetica,sans-Serif" font-size="10.00" fill="#000000">ResultSetBean.read</text>
</g>
<!-- Node1 -->
<g id="node2" class="node">
<title>Node1</title>
<g id="a_node2"><a xlink:href="../../de/dfa/classorg_1_1cobbzilla_1_1util_1_1jdbc_1_1ResultSetBean_a85c9056a621cafcec0decb63459616dc.html#a85c9056a621cafcec0decb63459616dc" target="_top" xlink:title="org.cobbzilla.util.jdbc.\lResultSetBean.getRsMetaData">
<polygon fill="none" stroke="#000000" points="147,-49.5 147,-79.5 302,-79.5 302,-49.5 147,-49.5"/>
<text text-anchor="start" x="155" y="-67.5" font-family="Helvetica,sans-Serif" font-size="10.00" fill="#000000">org.cobbzilla.util.jdbc.</text>
<text text-anchor="middle" x="224.5" y="-56.5" font-family="Helvetica,sans-Serif" font-size="10.00" fill="#000000">ResultSetBean.getRsMetaData</text>
</a>
</g>
</g>
<!-- Node0&#45;&gt;Node1 -->
<g id="edge1" class="edge">
<title>Node0&#45;&gt;Node1</title>
<path fill="none" stroke="#191970" d="M111.3053,-47.7552C119.4595,-48.9615 128.0183,-50.2276 136.6239,-51.5006"/>
<polygon fill="#191970" stroke="#191970" points="136.3215,-54.9939 146.7261,-52.995 137.346,-48.0692 136.3215,-54.9939"/>
</g>
<!-- Node2 -->
<g id="node3" class="node">
<title>Node2</title>
<g id="a_node3"><a xlink:href="../../de/dfa/classorg_1_1cobbzilla_1_1util_1_1jdbc_1_1ResultSetBean_a41220b8063e1f87e4f34f57fc8fc602c.html#a41220b8063e1f87e4f34f57fc8fc602c" target="_top" xlink:title="org.cobbzilla.util.jdbc.\lResultSetBean.row2map">
<polygon fill="none" stroke="#000000" points="162,-.5 162,-30.5 287,-30.5 287,-.5 162,-.5"/>
<text text-anchor="start" x="170" y="-18.5" font-family="Helvetica,sans-Serif" font-size="10.00" fill="#000000">org.cobbzilla.util.jdbc.</text>
<text text-anchor="middle" x="224.5" y="-7.5" font-family="Helvetica,sans-Serif" font-size="10.00" fill="#000000">ResultSetBean.row2map</text>
</a>
</g>
</g>
<!-- Node0&#45;&gt;Node2 -->
<g id="edge2" class="edge">
<title>Node0&#45;&gt;Node2</title>
<path fill="none" stroke="#191970" d="M111.3053,-31.575C124.1766,-29.7471 138.0559,-27.7761 151.536,-25.8617"/>
<polygon fill="#191970" stroke="#191970" points="152.3347,-29.2835 161.7433,-24.4122 151.3505,-22.3531 152.3347,-29.2835"/>
</g>
</g>
</svg>
