<?xml version="1.0" encoding="UTF-8" standalone="no"?>
<!DOCTYPE svg PUBLIC "-//W3C//DTD SVG 1.1//EN"
 "http://www.w3.org/Graphics/SVG/1.1/DTD/svg11.dtd">
<!-- Generated by graphviz version 2.40.1 (20161225.0304)
 -->
<!-- Title: org.cobbzilla.util.reflect.ReflectionUtil.get Pages: 1 -->
<svg width="340pt" height="235pt"
 viewBox="0.00 0.00 340.00 235.00" xmlns="http://www.w3.org/2000/svg" xmlns:xlink="http://www.w3.org/1999/xlink">
<g id="graph0" class="graph" transform="scale(1 1) rotate(0) translate(4 231)">
<title>org.cobbzilla.util.reflect.ReflectionUtil.get</title>
<!-- Node3 -->
<g id="node1" class="node">
<title>Node3</title>
<polygon fill="#bfbfbf" stroke="#000000" points="0,-98.5 0,-128.5 120,-128.5 120,-98.5 0,-98.5"/>
<text text-anchor="start" x="8" y="-116.5" font-family="Helvetica,sans-Serif" font-size="10.00" fill="#000000">org.cobbzilla.util.reflect.</text>
<text text-anchor="middle" x="60" y="-105.5" font-family="Helvetica,sans-Serif" font-size="10.00" fill="#000000">ReflectionUtil.get</text>
</g>
<!-- Node4 -->
<g id="node2" class="node">
<title>Node4</title>
<g id="a_node2"><a xlink:href="../../d9/dd8/classorg_1_1cobbzilla_1_1util_1_1reflect_1_1FieldComparator_ace72ccf2e89d1c082f921f440796e111.html#ace72ccf2e89d1c082f921f440796e111" target="_top" xlink:title="org.cobbzilla.util.reflect.\lFieldComparator.compare">
<polygon fill="none" stroke="#000000" points="179.5,-196.5 179.5,-226.5 308.5,-226.5 308.5,-196.5 179.5,-196.5"/>
<text text-anchor="start" x="187.5" y="-214.5" font-family="Helvetica,sans-Serif" font-size="10.00" fill="#000000">org.cobbzilla.util.reflect.</text>
<text text-anchor="middle" x="244" y="-203.5" font-family="Helvetica,sans-Serif" font-size="10.00" fill="#000000">FieldComparator.compare</text>
</a>
</g>
</g>
<!-- Node3&#45;&gt;Node4 -->
<g id="edge1" class="edge">
<title>Node3&#45;&gt;Node4</title>
<path fill="none" stroke="#191970" d="M83.4847,-135.8668C101.9013,-152.2938 128.876,-174.0115 156,-187.5 163.3732,-191.1666 171.3819,-194.3339 179.4638,-197.0535"/>
<polygon fill="#191970" stroke="#191970" points="85.4065,-132.8833 75.6554,-128.7401 80.6945,-138.0599 85.4065,-132.8833"/>
</g>
<!-- Node5 -->
<g id="node3" class="node">
<title>Node5</title>
<g id="a_node3"><a xlink:href="../../d1/dbd/classorg_1_1cobbzilla_1_1util_1_1jdbc_1_1TypedResultSetBean_ac37bfcab24b605aa67730ad92c6bcab5.html#ac37bfcab24b605aa67730ad92c6bcab5" target="_top" xlink:title="org.cobbzilla.util.jdbc.\lTypedResultSetBean.map">
<polygon fill="none" stroke="#000000" points="178.5,-147.5 178.5,-177.5 309.5,-177.5 309.5,-147.5 178.5,-147.5"/>
<text text-anchor="start" x="186.5" y="-165.5" font-family="Helvetica,sans-Serif" font-size="10.00" fill="#000000">org.cobbzilla.util.jdbc.</text>
<text text-anchor="middle" x="244" y="-154.5" font-family="Helvetica,sans-Serif" font-size="10.00" fill="#000000">TypedResultSetBean.map</text>
</a>
</g>
</g>
<!-- Node3&#45;&gt;Node5 -->
<g id="edge2" class="edge">
<title>Node3&#45;&gt;Node5</title>
<path fill="none" stroke="#191970" d="M126.1757,-131.1229C146.3062,-136.4837 168.2316,-142.3225 187.6502,-147.4938"/>
<polygon fill="#191970" stroke="#191970" points="127.0204,-127.7259 116.4565,-128.5346 125.219,-134.4902 127.0204,-127.7259"/>
</g>
<!-- Node6 -->
<g id="node4" class="node">
<title>Node6</title>
<g id="a_node4"><a xlink:href="../../d0/d1b/classorg_1_1cobbzilla_1_1util_1_1handlebars_1_1HandlebarsUtil_af8f3012d152b38e5472c15975a8921e2.html#af8f3012d152b38e5472c15975a8921e2" target="_top" xlink:title="org.cobbzilla.util.handlebars.\lHandlebarsUtil.registerUtilityHelpers">
<polygon fill="none" stroke="#000000" points="156,-98.5 156,-128.5 332,-128.5 332,-98.5 156,-98.5"/>
<text text-anchor="start" x="164" y="-116.5" font-family="Helvetica,sans-Serif" font-size="10.00" fill="#000000">org.cobbzilla.util.handlebars.</text>
<text text-anchor="middle" x="244" y="-105.5" font-family="Helvetica,sans-Serif" font-size="10.00" fill="#000000">HandlebarsUtil.registerUtilityHelpers</text>
</a>
</g>
</g>
<!-- Node3&#45;&gt;Node6 -->
<g id="edge3" class="edge">
<title>Node3&#45;&gt;Node6</title>
<path fill="none" stroke="#191970" d="M130.3218,-113.5C138.7001,-113.5 147.3328,-113.5 155.9198,-113.5"/>
<polygon fill="#191970" stroke="#191970" points="130.2485,-110.0001 120.2485,-113.5 130.2484,-117.0001 130.2485,-110.0001"/>
</g>
<!-- Node7 -->
<g id="node5" class="node">
<title>Node7</title>
<g id="a_node5"><a xlink:href="../../d9/d53/classorg_1_1cobbzilla_1_1util_1_1reflect_1_1ReflectionUtilTest_a118873a54a51f1d753c779570548305d.html#a118873a54a51f1d753c779570548305d" target="_top" xlink:title="org.cobbzilla.util.reflect.\lReflectionUtilTest.testGetSet">
<polygon fill="none" stroke="#000000" points="171,-49.5 171,-79.5 317,-79.5 317,-49.5 171,-49.5"/>
<text text-anchor="start" x="179" y="-67.5" font-family="Helvetica,sans-Serif" font-size="10.00" fill="#000000">org.cobbzilla.util.reflect.</text>
<text text-anchor="middle" x="244" y="-56.5" font-family="Helvetica,sans-Serif" font-size="10.00" fill="#000000">ReflectionUtilTest.testGetSet</text>
</a>
</g>
</g>
<!-- Node3&#45;&gt;Node7 -->
<g id="edge4" class="edge">
<title>Node3&#45;&gt;Node7</title>
<path fill="none" stroke="#191970" d="M126.1757,-95.8771C146.3062,-90.5163 168.2316,-84.6775 187.6502,-79.5062"/>
<polygon fill="#191970" stroke="#191970" points="125.219,-92.5098 116.4565,-98.4654 127.0204,-99.2741 125.219,-92.5098"/>
</g>
<!-- Node8 -->
<g id="node6" class="node">
<title>Node8</title>
<g id="a_node6"><a xlink:href="../../d9/dc3/classorg_1_1cobbzilla_1_1util_1_1collection_1_1FieldTransformer_a6e91983e06bf4432f0978ddb2b95dd73.html#a6e91983e06bf4432f0978ddb2b95dd73" target="_top" xlink:title="org.cobbzilla.util.collection.\lFieldTransformer.transform">
<polygon fill="none" stroke="#000000" points="177,-.5 177,-30.5 311,-30.5 311,-.5 177,-.5"/>
<text text-anchor="start" x="185" y="-18.5" font-family="Helvetica,sans-Serif" font-size="10.00" fill="#000000">org.cobbzilla.util.collection.</text>
<text text-anchor="middle" x="244" y="-7.5" font-family="Helvetica,sans-Serif" font-size="10.00" fill="#000000">FieldTransformer.transform</text>
</a>
</g>
</g>
<!-- Node3&#45;&gt;Node8 -->
<g id="edge5" class="edge">
<title>Node3&#45;&gt;Node8</title>
<path fill="none" stroke="#191970" d="M83.664,-91.4572C102.1273,-75.3116 129.0805,-53.9537 156,-40.5 163.5296,-36.7369 171.7134,-33.4604 179.9577,-30.6303"/>
<polygon fill="#191970" stroke="#191970" points="81.1898,-88.9739 76.0526,-98.24 85.8469,-94.1999 81.1898,-88.9739"/>
</g>
</g>
</svg>
