<?xml version="1.0" encoding="UTF-8" standalone="no"?>
<!DOCTYPE svg PUBLIC "-//W3C//DTD SVG 1.1//EN"
 "http://www.w3.org/Graphics/SVG/1.1/DTD/svg11.dtd">
<!-- Generated by graphviz version 2.40.1 (20161225.0304)
 -->
<!-- Title: org.cobbzilla.util.reflect.ReflectionUtil.callFactoryMethod Pages: 1 -->
<svg width="344pt" height="88pt"
 viewBox="0.00 0.00 344.00 88.00" xmlns="http://www.w3.org/2000/svg" xmlns:xlink="http://www.w3.org/1999/xlink">
<g id="graph0" class="graph" transform="scale(1 1) rotate(0) translate(4 84)">
<title>org.cobbzilla.util.reflect.ReflectionUtil.callFactoryMethod</title>
<!-- Node0 -->
<g id="node1" class="node">
<title>Node0</title>
<polygon fill="#bfbfbf" stroke="#000000" points="0,-24.5 0,-54.5 159,-54.5 159,-24.5 0,-24.5"/>
<text text-anchor="start" x="8" y="-42.5" font-family="Helvetica,sans-Serif" font-size="10.00" fill="#000000">org.cobbzilla.util.reflect.</text>
<text text-anchor="middle" x="79.5" y="-31.5" font-family="Helvetica,sans-Serif" font-size="10.00" fill="#000000">ReflectionUtil.callFactoryMethod</text>
</g>
<!-- Node1 -->
<g id="node2" class="node">
<title>Node1</title>
<g id="a_node2"><a xlink:href="../../de/d45/classorg_1_1cobbzilla_1_1util_1_1reflect_1_1ReflectionUtil_afa9be6e682e0b9989c170152e50fd345.html#afa9be6e682e0b9989c170152e50fd345" target="_top" xlink:title="org.cobbzilla.util.reflect.\lReflectionUtil.factoryMethod">
<polygon fill="none" stroke="#000000" points="195,-49.5 195,-79.5 336,-79.5 336,-49.5 195,-49.5"/>
<text text-anchor="start" x="203" y="-67.5" font-family="Helvetica,sans-Serif" font-size="10.00" fill="#000000">org.cobbzilla.util.reflect.</text>
<text text-anchor="middle" x="265.5" y="-56.5" font-family="Helvetica,sans-Serif" font-size="10.00" fill="#000000">ReflectionUtil.factoryMethod</text>
</a>
</g>
</g>
<!-- Node0&#45;&gt;Node1 -->
<g id="edge1" class="edge">
<title>Node0&#45;&gt;Node1</title>
<path fill="none" stroke="#191970" d="M159.1902,-50.211C167.6945,-51.3541 176.3504,-52.5175 184.8655,-53.662"/>
<polygon fill="#191970" stroke="#191970" points="184.4022,-57.1311 194.7793,-54.9945 185.3347,-50.1935 184.4022,-57.1311"/>
</g>
<!-- Node2 -->
<g id="node3" class="node">
<title>Node2</title>
<g id="a_node3"><a xlink:href="../../de/d45/classorg_1_1cobbzilla_1_1util_1_1reflect_1_1ReflectionUtil_a185223414f2f5c5c2bda092b4eb18491.html#a185223414f2f5c5c2bda092b4eb18491" target="_top" xlink:title="org.cobbzilla.util.reflect.\lReflectionUtil.invokeStatic">
<polygon fill="none" stroke="#000000" points="199,-.5 199,-30.5 332,-30.5 332,-.5 199,-.5"/>
<text text-anchor="start" x="207" y="-18.5" font-family="Helvetica,sans-Serif" font-size="10.00" fill="#000000">org.cobbzilla.util.reflect.</text>
<text text-anchor="middle" x="265.5" y="-7.5" font-family="Helvetica,sans-Serif" font-size="10.00" fill="#000000">ReflectionUtil.invokeStatic</text>
</a>
</g>
</g>
<!-- Node0&#45;&gt;Node2 -->
<g id="edge2" class="edge">
<title>Node0&#45;&gt;Node2</title>
<path fill="none" stroke="#191970" d="M159.1902,-29.2174C168.9963,-27.9521 179.004,-26.6608 188.7651,-25.4013"/>
<polygon fill="#191970" stroke="#191970" points="189.3591,-28.8537 198.829,-24.1027 188.4632,-21.9113 189.3591,-28.8537"/>
</g>
</g>
</svg>
