<?xml version="1.0" encoding="UTF-8" standalone="no"?>
<!DOCTYPE svg PUBLIC "-//W3C//DTD SVG 1.1//EN"
 "http://www.w3.org/Graphics/SVG/1.1/DTD/svg11.dtd">
<!-- Generated by graphviz version 2.40.1 (20161225.0304)
 -->
<!-- Title: org.cobbzilla.util.reflect.ReflectionUtil.copy Pages: 1 -->
<svg width="459pt" height="235pt"
 viewBox="0.00 0.00 459.00 235.00" xmlns="http://www.w3.org/2000/svg" xmlns:xlink="http://www.w3.org/1999/xlink">
<g id="graph0" class="graph" transform="scale(1 1) rotate(0) translate(4 231)">
<title>org.cobbzilla.util.reflect.ReflectionUtil.copy</title>
<!-- Node2 -->
<g id="node1" class="node">
<title>Node2</title>
<polygon fill="#bfbfbf" stroke="#000000" points="0,-98.5 0,-128.5 120,-128.5 120,-98.5 0,-98.5"/>
<text text-anchor="start" x="8" y="-116.5" font-family="Helvetica,sans-Serif" font-size="10.00" fill="#000000">org.cobbzilla.util.reflect.</text>
<text text-anchor="middle" x="60" y="-105.5" font-family="Helvetica,sans-Serif" font-size="10.00" fill="#000000">ReflectionUtil.copy</text>
</g>
<!-- Node3 -->
<g id="node2" class="node">
<title>Node3</title>
<g id="a_node2"><a xlink:href="../../de/d45/classorg_1_1cobbzilla_1_1util_1_1reflect_1_1ReflectionUtil_aab9896ebc9230b8092154769e41c5e00.html#aab9896ebc9230b8092154769e41c5e00" target="_top" xlink:title="Copies fields from src to dest. ">
<polygon fill="none" stroke="#000000" points="163,-196.5 163,-226.5 283,-226.5 283,-196.5 163,-196.5"/>
<text text-anchor="start" x="171" y="-214.5" font-family="Helvetica,sans-Serif" font-size="10.00" fill="#000000">org.cobbzilla.util.reflect.</text>
<text text-anchor="middle" x="223" y="-203.5" font-family="Helvetica,sans-Serif" font-size="10.00" fill="#000000">ReflectionUtil.copy</text>
</a>
</g>
</g>
<!-- Node2&#45;&gt;Node3 -->
<g id="edge1" class="edge">
<title>Node2&#45;&gt;Node3</title>
<path fill="none" stroke="#191970" d="M83.8839,-135.3419C102.4616,-151.4471 129.4616,-172.9904 156,-187.5 161.9626,-190.76 168.4558,-193.727 174.9762,-196.3764"/>
<polygon fill="#191970" stroke="#191970" points="86.0359,-132.5733 76.2184,-128.5897 81.4089,-137.8261 86.0359,-132.5733"/>
</g>
<!-- Node4 -->
<g id="node3" class="node">
<title>Node4</title>
<g id="a_node3"><a xlink:href="../../d2/dd1/classorg_1_1cobbzilla_1_1util_1_1collection_1_1ListUtil_af5013777d90a96ef3b38c1fcde606677.html#af5013777d90a96ef3b38c1fcde606677" target="_top" xlink:title="org.cobbzilla.util.collection.\lListUtil.deepCopy">
<polygon fill="none" stroke="#000000" points="156,-147.5 156,-177.5 290,-177.5 290,-147.5 156,-147.5"/>
<text text-anchor="start" x="164" y="-165.5" font-family="Helvetica,sans-Serif" font-size="10.00" fill="#000000">org.cobbzilla.util.collection.</text>
<text text-anchor="middle" x="223" y="-154.5" font-family="Helvetica,sans-Serif" font-size="10.00" fill="#000000">ListUtil.deepCopy</text>
</a>
</g>
</g>
<!-- Node2&#45;&gt;Node4 -->
<g id="edge2" class="edge">
<title>Node2&#45;&gt;Node4</title>
<path fill="none" stroke="#191970" d="M120.2532,-131.6129C137.5821,-136.8222 156.2886,-142.4457 172.9305,-147.4484"/>
<polygon fill="#191970" stroke="#191970" points="120.8197,-128.1285 110.2354,-128.6014 118.8044,-134.8322 120.8197,-128.1285"/>
</g>
<!-- Node5 -->
<g id="node4" class="node">
<title>Node5</title>
<g id="a_node4"><a xlink:href="../../de/d45/classorg_1_1cobbzilla_1_1util_1_1reflect_1_1ReflectionUtil_a06a1f9ddda88967bb1513aaedea72c04.html#a06a1f9ddda88967bb1513aaedea72c04" target="_top" xlink:title="Mirror the object. ">
<polygon fill="none" stroke="#000000" points="163,-98.5 163,-128.5 283,-128.5 283,-98.5 163,-98.5"/>
<text text-anchor="start" x="171" y="-116.5" font-family="Helvetica,sans-Serif" font-size="10.00" fill="#000000">org.cobbzilla.util.reflect.</text>
<text text-anchor="middle" x="223" y="-105.5" font-family="Helvetica,sans-Serif" font-size="10.00" fill="#000000">ReflectionUtil.mirror</text>
</a>
</g>
</g>
<!-- Node2&#45;&gt;Node5 -->
<g id="edge3" class="edge">
<title>Node2&#45;&gt;Node5</title>
<path fill="none" stroke="#191970" d="M130.4439,-113.5C141.2049,-113.5 152.2278,-113.5 162.7435,-113.5"/>
<polygon fill="#191970" stroke="#191970" points="130.2321,-110.0001 120.2321,-113.5 130.232,-117.0001 130.2321,-110.0001"/>
</g>
<!-- Node6 -->
<g id="node5" class="node">
<title>Node6</title>
<g id="a_node5"><a xlink:href="../../de/d45/classorg_1_1cobbzilla_1_1util_1_1reflect_1_1ReflectionUtil_a87863b6335a62cb9eaa28caf4af7c7bc.html#a87863b6335a62cb9eaa28caf4af7c7bc" target="_top" xlink:title="org.cobbzilla.util.reflect.\lReflectionUtil.toMap">
<polygon fill="none" stroke="#000000" points="163,-49.5 163,-79.5 283,-79.5 283,-49.5 163,-49.5"/>
<text text-anchor="start" x="171" y="-67.5" font-family="Helvetica,sans-Serif" font-size="10.00" fill="#000000">org.cobbzilla.util.reflect.</text>
<text text-anchor="middle" x="223" y="-56.5" font-family="Helvetica,sans-Serif" font-size="10.00" fill="#000000">ReflectionUtil.toMap</text>
</a>
</g>
</g>
<!-- Node2&#45;&gt;Node6 -->
<g id="edge4" class="edge">
<title>Node2&#45;&gt;Node6</title>
<path fill="none" stroke="#191970" d="M120.2532,-95.3871C137.5821,-90.1778 156.2886,-84.5543 172.9305,-79.5516"/>
<polygon fill="#191970" stroke="#191970" points="118.8044,-92.1678 110.2354,-98.3986 120.8197,-98.8715 118.8044,-92.1678"/>
</g>
<!-- Node7 -->
<g id="node6" class="node">
<title>Node7</title>
<g id="a_node6"><a xlink:href="../../d5/dc2/classorg_1_1cobbzilla_1_1util_1_1io_1_1JarTrimmer_af3d4171c0e315e009d3436a293f5d9b1.html#af3d4171c0e315e009d3436a293f5d9b1" target="_top" xlink:title="org.cobbzilla.util.io.Jar\lTrimmer.trim">
<polygon fill="none" stroke="#000000" points="166,-.5 166,-30.5 280,-30.5 280,-.5 166,-.5"/>
<text text-anchor="start" x="174" y="-18.5" font-family="Helvetica,sans-Serif" font-size="10.00" fill="#000000">org.cobbzilla.util.io.Jar</text>
<text text-anchor="middle" x="223" y="-7.5" font-family="Helvetica,sans-Serif" font-size="10.00" fill="#000000">Trimmer.trim</text>
</a>
</g>
</g>
<!-- Node2&#45;&gt;Node7 -->
<g id="edge5" class="edge">
<title>Node2&#45;&gt;Node7</title>
<path fill="none" stroke="#191970" d="M84.3279,-91.7863C102.9478,-75.9932 129.8022,-54.9358 156,-40.5 162.633,-36.845 169.9091,-33.5124 177.1452,-30.5561"/>
<polygon fill="#191970" stroke="#191970" points="81.9257,-89.236 76.6315,-98.4133 86.4932,-94.5406 81.9257,-89.236"/>
</g>
<!-- Node8 -->
<g id="node7" class="node">
<title>Node8</title>
<g id="a_node7"><a xlink:href="../../d1/dcf/classorg_1_1cobbzilla_1_1util_1_1io_1_1main_1_1JarTrimmerMain_a0d79049130f7976bee1c1f8eb13c1538.html#a0d79049130f7976bee1c1f8eb13c1538" target="_top" xlink:title="org.cobbzilla.util.io.main.\lJarTrimmerMain.run">
<polygon fill="none" stroke="#000000" points="326,-.5 326,-30.5 451,-30.5 451,-.5 326,-.5"/>
<text text-anchor="start" x="334" y="-18.5" font-family="Helvetica,sans-Serif" font-size="10.00" fill="#000000">org.cobbzilla.util.io.main.</text>
<text text-anchor="middle" x="388.5" y="-7.5" font-family="Helvetica,sans-Serif" font-size="10.00" fill="#000000">JarTrimmerMain.run</text>
</a>
</g>
</g>
<!-- Node7&#45;&gt;Node8 -->
<g id="edge6" class="edge">
<title>Node7&#45;&gt;Node8</title>
<path fill="none" stroke="#191970" d="M290.5382,-15.5C302.2029,-15.5 314.2852,-15.5 325.8145,-15.5"/>
<polygon fill="#191970" stroke="#191970" points="290.4194,-12.0001 280.4194,-15.5 290.4194,-19.0001 290.4194,-12.0001"/>
</g>
</g>
</svg>
