<?xml version="1.0" encoding="UTF-8" standalone="no"?>
<!DOCTYPE svg PUBLIC "-//W3C//DTD SVG 1.1//EN"
 "http://www.w3.org/Graphics/SVG/1.1/DTD/svg11.dtd">
<!-- Generated by graphviz version 2.40.1 (20161225.0304)
 -->
<!-- Title: org.cobbzilla.util.reflect.ReflectionUtil.invoke_set_null Pages: 1 -->
<svg width="382pt" height="88pt"
 viewBox="0.00 0.00 382.00 88.00" xmlns="http://www.w3.org/2000/svg" xmlns:xlink="http://www.w3.org/1999/xlink">
<g id="graph0" class="graph" transform="scale(1 1) rotate(0) translate(4 84)">
<title>org.cobbzilla.util.reflect.ReflectionUtil.invoke_set_null</title>
<!-- Node0 -->
<g id="node1" class="node">
<title>Node0</title>
<polygon fill="#bfbfbf" stroke="#000000" points="0,-24.5 0,-54.5 146,-54.5 146,-24.5 0,-24.5"/>
<text text-anchor="start" x="8" y="-42.5" font-family="Helvetica,sans-Serif" font-size="10.00" fill="#000000">org.cobbzilla.util.reflect.</text>
<text text-anchor="middle" x="73" y="-31.5" font-family="Helvetica,sans-Serif" font-size="10.00" fill="#000000">ReflectionUtil.invoke_set_null</text>
</g>
<!-- Node1 -->
<g id="node2" class="node">
<title>Node1</title>
<g id="a_node2"><a xlink:href="../../de/d45/classorg_1_1cobbzilla_1_1util_1_1reflect_1_1ReflectionUtil_ad1861d10610bdbfd08ec4c2fc5abb667.html#ad1861d10610bdbfd08ec4c2fc5abb667" target="_top" xlink:title="org.cobbzilla.util.reflect.\lReflectionUtil.getAccessorMethodName">
<polygon fill="none" stroke="#000000" points="182,-49.5 182,-79.5 374,-79.5 374,-49.5 182,-49.5"/>
<text text-anchor="start" x="190" y="-67.5" font-family="Helvetica,sans-Serif" font-size="10.00" fill="#000000">org.cobbzilla.util.reflect.</text>
<text text-anchor="middle" x="278" y="-56.5" font-family="Helvetica,sans-Serif" font-size="10.00" fill="#000000">ReflectionUtil.getAccessorMethodName</text>
</a>
</g>
</g>
<!-- Node0&#45;&gt;Node1 -->
<g id="edge1" class="edge">
<title>Node0&#45;&gt;Node1</title>
<path fill="none" stroke="#191970" d="M146.1415,-48.4197C154.4888,-49.4377 163.1198,-50.4902 171.7862,-51.5471"/>
<polygon fill="#191970" stroke="#191970" points="171.6111,-55.0516 181.9613,-52.788 172.4585,-48.1031 171.6111,-55.0516"/>
</g>
<!-- Node2 -->
<g id="node3" class="node">
<title>Node2</title>
<g id="a_node3"><a xlink:href="../../de/d45/classorg_1_1cobbzilla_1_1util_1_1reflect_1_1ReflectionUtil_aefc5753ae0cd37dee8673a6f09f00455.html#aefc5753ae0cd37dee8673a6f09f00455" target="_top" xlink:title="org.cobbzilla.util.reflect.\lReflectionUtil.getNullArgument">
<polygon fill="none" stroke="#000000" points="202,-.5 202,-30.5 354,-30.5 354,-.5 202,-.5"/>
<text text-anchor="start" x="210" y="-18.5" font-family="Helvetica,sans-Serif" font-size="10.00" fill="#000000">org.cobbzilla.util.reflect.</text>
<text text-anchor="middle" x="278" y="-7.5" font-family="Helvetica,sans-Serif" font-size="10.00" fill="#000000">ReflectionUtil.getNullArgument</text>
</a>
</g>
</g>
<!-- Node0&#45;&gt;Node2 -->
<g id="edge2" class="edge">
<title>Node0&#45;&gt;Node2</title>
<path fill="none" stroke="#191970" d="M146.1415,-30.9371C160.8095,-29.2199 176.3534,-27.4001 191.4264,-25.6354"/>
<polygon fill="#191970" stroke="#191970" points="192.2446,-29.0637 201.7697,-24.4245 191.4305,-22.1111 192.2446,-29.0637"/>
</g>
</g>
</svg>
