<?xml version="1.0" encoding="UTF-8" standalone="no"?>
<!DOCTYPE svg PUBLIC "-//W3C//DTD SVG 1.1//EN"
 "http://www.w3.org/Graphics/SVG/1.1/DTD/svg11.dtd">
<!-- Generated by graphviz version 2.40.1 (20161225.0304)
 -->
<!-- Title: org.cobbzilla.util.reflect.ReflectionUtil.getNullArgument Pages: 1 -->
<svg width="686pt" height="137pt"
 viewBox="0.00 0.00 686.00 137.00" xmlns="http://www.w3.org/2000/svg" xmlns:xlink="http://www.w3.org/1999/xlink">
<g id="graph0" class="graph" transform="scale(1 1) rotate(0) translate(4 133)">
<title>org.cobbzilla.util.reflect.ReflectionUtil.getNullArgument</title>
<!-- Node1 -->
<g id="node1" class="node">
<title>Node1</title>
<polygon fill="#bfbfbf" stroke="#000000" points="0,-73.5 0,-103.5 152,-103.5 152,-73.5 0,-73.5"/>
<text text-anchor="start" x="8" y="-91.5" font-family="Helvetica,sans-Serif" font-size="10.00" fill="#000000">org.cobbzilla.util.reflect.</text>
<text text-anchor="middle" x="76" y="-80.5" font-family="Helvetica,sans-Serif" font-size="10.00" fill="#000000">ReflectionUtil.getNullArgument</text>
</g>
<!-- Node2 -->
<g id="node2" class="node">
<title>Node2</title>
<g id="a_node2"><a xlink:href="../../de/d45/classorg_1_1cobbzilla_1_1util_1_1reflect_1_1ReflectionUtil_ae27be10faa7ad9ba9bdc4ccbd12f6bb9.html#ae27be10faa7ad9ba9bdc4ccbd12f6bb9" target="_top" xlink:title="org.cobbzilla.util.reflect.\lReflectionUtil.invoke_set">
<polygon fill="none" stroke="#000000" points="370,-98.5 370,-128.5 496,-128.5 496,-98.5 370,-98.5"/>
<text text-anchor="start" x="378" y="-116.5" font-family="Helvetica,sans-Serif" font-size="10.00" fill="#000000">org.cobbzilla.util.reflect.</text>
<text text-anchor="middle" x="433" y="-105.5" font-family="Helvetica,sans-Serif" font-size="10.00" fill="#000000">ReflectionUtil.invoke_set</text>
</a>
</g>
</g>
<!-- Node1&#45;&gt;Node2 -->
<g id="edge1" class="edge">
<title>Node1&#45;&gt;Node2</title>
<path fill="none" stroke="#191970" d="M162.2241,-94.5381C226.224,-99.0199 312.0525,-105.0303 369.7758,-109.0725"/>
<polygon fill="#191970" stroke="#191970" points="162.3677,-91.0397 152.1476,-93.8325 161.8786,-98.0226 162.3677,-91.0397"/>
</g>
<!-- Node4 -->
<g id="node4" class="node">
<title>Node4</title>
<g id="a_node4"><a xlink:href="../../de/d45/classorg_1_1cobbzilla_1_1util_1_1reflect_1_1ReflectionUtil_a69508b2f18c3a99ed406ef02cccbefe1.html#a69508b2f18c3a99ed406ef02cccbefe1" target="_top" xlink:title="org.cobbzilla.util.reflect.\lReflectionUtil.invoke_set_null">
<polygon fill="none" stroke="#000000" points="188,-51.5 188,-81.5 334,-81.5 334,-51.5 188,-51.5"/>
<text text-anchor="start" x="196" y="-69.5" font-family="Helvetica,sans-Serif" font-size="10.00" fill="#000000">org.cobbzilla.util.reflect.</text>
<text text-anchor="middle" x="261" y="-58.5" font-family="Helvetica,sans-Serif" font-size="10.00" fill="#000000">ReflectionUtil.invoke_set_null</text>
</a>
</g>
</g>
<!-- Node1&#45;&gt;Node4 -->
<g id="edge3" class="edge">
<title>Node1&#45;&gt;Node4</title>
<path fill="none" stroke="#191970" d="M162.1242,-78.2582C170.7527,-77.2321 179.4554,-76.1972 187.9303,-75.1894"/>
<polygon fill="#191970" stroke="#191970" points="161.5642,-74.8001 152.0475,-79.4565 162.3908,-81.7511 161.5642,-74.8001"/>
</g>
<!-- Node3 -->
<g id="node3" class="node">
<title>Node3</title>
<g id="a_node3"><a xlink:href="../../de/d45/classorg_1_1cobbzilla_1_1util_1_1reflect_1_1ReflectionUtil_a84d2273bd96944773694999afac67e0f.html#a84d2273bd96944773694999afac67e0f" target="_top" xlink:title="Call a setter with a hint as to what the type should be. ">
<polygon fill="none" stroke="#000000" points="545,-98.5 545,-128.5 665,-128.5 665,-98.5 545,-98.5"/>
<text text-anchor="start" x="553" y="-116.5" font-family="Helvetica,sans-Serif" font-size="10.00" fill="#000000">org.cobbzilla.util.reflect.</text>
<text text-anchor="middle" x="605" y="-105.5" font-family="Helvetica,sans-Serif" font-size="10.00" fill="#000000">ReflectionUtil.set</text>
</a>
</g>
</g>
<!-- Node2&#45;&gt;Node3 -->
<g id="edge2" class="edge">
<title>Node2&#45;&gt;Node3</title>
<path fill="none" stroke="#191970" d="M506.2696,-113.5C519.1197,-113.5 532.3576,-113.5 544.8012,-113.5"/>
<polygon fill="#191970" stroke="#191970" points="506.0698,-110.0001 496.0698,-113.5 506.0698,-117.0001 506.0698,-110.0001"/>
</g>
<!-- Node5 -->
<g id="node5" class="node">
<title>Node5</title>
<g id="a_node5"><a xlink:href="../../de/d45/classorg_1_1cobbzilla_1_1util_1_1reflect_1_1ReflectionUtil_a87f8ef4046a1b11a6ec353b0231e8409.html#a87f8ef4046a1b11a6ec353b0231e8409" target="_top" xlink:title="org.cobbzilla.util.reflect.\lReflectionUtil.setNull">
<polygon fill="none" stroke="#000000" points="373,-49.5 373,-79.5 493,-79.5 493,-49.5 373,-49.5"/>
<text text-anchor="start" x="381" y="-67.5" font-family="Helvetica,sans-Serif" font-size="10.00" fill="#000000">org.cobbzilla.util.reflect.</text>
<text text-anchor="middle" x="433" y="-56.5" font-family="Helvetica,sans-Serif" font-size="10.00" fill="#000000">ReflectionUtil.setNull</text>
</a>
</g>
</g>
<!-- Node4&#45;&gt;Node5 -->
<g id="edge4" class="edge">
<title>Node4&#45;&gt;Node5</title>
<path fill="none" stroke="#191970" d="M344.6871,-65.5269C354.1619,-65.4167 363.6742,-65.3061 372.7635,-65.2004"/>
<polygon fill="#191970" stroke="#191970" points="344.401,-62.0299 334.4424,-65.646 344.4824,-69.0294 344.401,-62.0299"/>
</g>
<!-- Node5&#45;&gt;Node3 -->
<g id="edge6" class="edge">
<title>Node5&#45;&gt;Node3</title>
<path fill="none" stroke="#191970" d="M495.8119,-82.3941C514.3119,-87.6644 534.359,-93.3755 552.1659,-98.4484"/>
<polygon fill="#191970" stroke="#191970" points="496.5855,-78.9753 486.0091,-79.6014 494.6675,-85.7074 496.5855,-78.9753"/>
</g>
<!-- Node6 -->
<g id="node6" class="node">
<title>Node6</title>
<g id="a_node6"><a xlink:href="../../de/d45/classorg_1_1cobbzilla_1_1util_1_1reflect_1_1ReflectionUtil_a95dbce7eb7134748d3b5e840d5c12e76.html#a95dbce7eb7134748d3b5e840d5c12e76" target="_top" xlink:title="org.cobbzilla.util.reflect.\lReflectionUtil.scrubStrings">
<polygon fill="none" stroke="#000000" points="538,-49.5 538,-79.5 672,-79.5 672,-49.5 538,-49.5"/>
<text text-anchor="start" x="546" y="-67.5" font-family="Helvetica,sans-Serif" font-size="10.00" fill="#000000">org.cobbzilla.util.reflect.</text>
<text text-anchor="middle" x="605" y="-56.5" font-family="Helvetica,sans-Serif" font-size="10.00" fill="#000000">ReflectionUtil.scrubStrings</text>
</a>
</g>
</g>
<!-- Node5&#45;&gt;Node6 -->
<g id="edge5" class="edge">
<title>Node5&#45;&gt;Node6</title>
<path fill="none" stroke="#191970" d="M503.4591,-64.5C514.817,-64.5 526.549,-64.5 537.8268,-64.5"/>
<polygon fill="#191970" stroke="#191970" points="503.1573,-61.0001 493.1573,-64.5 503.1572,-68.0001 503.1573,-61.0001"/>
</g>
<!-- Node7 -->
<g id="node7" class="node">
<title>Node7</title>
<g id="a_node7"><a xlink:href="../../d9/d53/classorg_1_1cobbzilla_1_1util_1_1reflect_1_1ReflectionUtilTest_a118873a54a51f1d753c779570548305d.html#a118873a54a51f1d753c779570548305d" target="_top" xlink:title="org.cobbzilla.util.reflect.\lReflectionUtilTest.testGetSet">
<polygon fill="none" stroke="#000000" points="532,-.5 532,-30.5 678,-30.5 678,-.5 532,-.5"/>
<text text-anchor="start" x="540" y="-18.5" font-family="Helvetica,sans-Serif" font-size="10.00" fill="#000000">org.cobbzilla.util.reflect.</text>
<text text-anchor="middle" x="605" y="-7.5" font-family="Helvetica,sans-Serif" font-size="10.00" fill="#000000">ReflectionUtilTest.testGetSet</text>
</a>
</g>
</g>
<!-- Node5&#45;&gt;Node7 -->
<g id="edge7" class="edge">
<title>Node5&#45;&gt;Node7</title>
<path fill="none" stroke="#191970" d="M495.8119,-46.6059C514.3119,-41.3356 534.359,-35.6245 552.1659,-30.5516"/>
<polygon fill="#191970" stroke="#191970" points="494.6675,-43.2926 486.0091,-49.3986 496.5855,-50.0247 494.6675,-43.2926"/>
</g>
</g>
</svg>
