<?xml version="1.0" encoding="UTF-8" standalone="no"?>
<!DOCTYPE svg PUBLIC "-//W3C//DTD SVG 1.1//EN"
 "http://www.w3.org/Graphics/SVG/1.1/DTD/svg11.dtd">
<!-- Generated by graphviz version 2.40.1 (20161225.0304)
 -->
<!-- Title: org.cobbzilla.util.reflect.ReflectionUtil.invoke_set Pages: 1 -->
<svg width="362pt" height="88pt"
 viewBox="0.00 0.00 362.00 88.00" xmlns="http://www.w3.org/2000/svg" xmlns:xlink="http://www.w3.org/1999/xlink">
<g id="graph0" class="graph" transform="scale(1 1) rotate(0) translate(4 84)">
<title>org.cobbzilla.util.reflect.ReflectionUtil.invoke_set</title>
<!-- Node0 -->
<g id="node1" class="node">
<title>Node0</title>
<polygon fill="#bfbfbf" stroke="#000000" points="0,-24.5 0,-54.5 126,-54.5 126,-24.5 0,-24.5"/>
<text text-anchor="start" x="8" y="-42.5" font-family="Helvetica,sans-Serif" font-size="10.00" fill="#000000">org.cobbzilla.util.reflect.</text>
<text text-anchor="middle" x="63" y="-31.5" font-family="Helvetica,sans-Serif" font-size="10.00" fill="#000000">ReflectionUtil.invoke_set</text>
</g>
<!-- Node1 -->
<g id="node2" class="node">
<title>Node1</title>
<g id="a_node2"><a xlink:href="../../de/d45/classorg_1_1cobbzilla_1_1util_1_1reflect_1_1ReflectionUtil_ad1861d10610bdbfd08ec4c2fc5abb667.html#ad1861d10610bdbfd08ec4c2fc5abb667" target="_top" xlink:title="org.cobbzilla.util.reflect.\lReflectionUtil.getAccessorMethodName">
<polygon fill="none" stroke="#000000" points="162,-49.5 162,-79.5 354,-79.5 354,-49.5 162,-49.5"/>
<text text-anchor="start" x="170" y="-67.5" font-family="Helvetica,sans-Serif" font-size="10.00" fill="#000000">org.cobbzilla.util.reflect.</text>
<text text-anchor="middle" x="258" y="-56.5" font-family="Helvetica,sans-Serif" font-size="10.00" fill="#000000">ReflectionUtil.getAccessorMethodName</text>
</a>
</g>
</g>
<!-- Node0&#45;&gt;Node1 -->
<g id="edge1" class="edge">
<title>Node0&#45;&gt;Node1</title>
<path fill="none" stroke="#191970" d="M126.0416,-47.5823C134.3689,-48.6499 143.081,-49.7668 151.8876,-50.8958"/>
<polygon fill="#191970" stroke="#191970" points="151.4912,-54.3736 161.8551,-52.1737 152.3814,-47.4304 151.4912,-54.3736"/>
</g>
<!-- Node2 -->
<g id="node3" class="node">
<title>Node2</title>
<g id="a_node3"><a xlink:href="../../de/d45/classorg_1_1cobbzilla_1_1util_1_1reflect_1_1ReflectionUtil_aefc5753ae0cd37dee8673a6f09f00455.html#aefc5753ae0cd37dee8673a6f09f00455" target="_top" xlink:title="org.cobbzilla.util.reflect.\lReflectionUtil.getNullArgument">
<polygon fill="none" stroke="#000000" points="182,-.5 182,-30.5 334,-30.5 334,-.5 182,-.5"/>
<text text-anchor="start" x="190" y="-18.5" font-family="Helvetica,sans-Serif" font-size="10.00" fill="#000000">org.cobbzilla.util.reflect.</text>
<text text-anchor="middle" x="258" y="-7.5" font-family="Helvetica,sans-Serif" font-size="10.00" fill="#000000">ReflectionUtil.getNullArgument</text>
</a>
</g>
</g>
<!-- Node0&#45;&gt;Node2 -->
<g id="edge2" class="edge">
<title>Node0&#45;&gt;Node2</title>
<path fill="none" stroke="#191970" d="M126.0416,-31.741C140.6463,-29.9435 156.4347,-28.0003 171.8403,-26.1043"/>
<polygon fill="#191970" stroke="#191970" points="172.3948,-29.5625 181.8924,-24.8671 171.5397,-22.6149 172.3948,-29.5625"/>
</g>
</g>
</svg>
