<?xml version="1.0" encoding="UTF-8" standalone="no"?>
<!DOCTYPE svg PUBLIC "-//W3C//DTD SVG 1.1//EN"
 "http://www.w3.org/Graphics/SVG/1.1/DTD/svg11.dtd">
<!-- Generated by graphviz version 2.40.1 (20161225.0304)
 -->
<!-- Title: org.cobbzilla.util.reflect.ReflectionUtil.toMap Pages: 1 -->
<svg width="298pt" height="57pt"
 viewBox="0.00 0.00 298.00 57.00" xmlns="http://www.w3.org/2000/svg" xmlns:xlink="http://www.w3.org/1999/xlink">
<g id="graph0" class="graph" transform="scale(1 1) rotate(0) translate(4 53)">
<title>org.cobbzilla.util.reflect.ReflectionUtil.toMap</title>
<!-- Node1 -->
<g id="node1" class="node">
<title>Node1</title>
<polygon fill="#bfbfbf" stroke="#000000" points="0,-.5 0,-30.5 120,-30.5 120,-.5 0,-.5"/>
<text text-anchor="start" x="8" y="-18.5" font-family="Helvetica,sans-Serif" font-size="10.00" fill="#000000">org.cobbzilla.util.reflect.</text>
<text text-anchor="middle" x="60" y="-7.5" font-family="Helvetica,sans-Serif" font-size="10.00" fill="#000000">ReflectionUtil.toMap</text>
</g>
<!-- Node1&#45;&gt;Node1 -->
<g id="edge2" class="edge">
<title>Node1&#45;&gt;Node1</title>
<path fill="none" stroke="#191970" d="M31.2146,-40.9579C34.7872,-45.679 44.3824,-49 60,-49 85.6289,-49 95.0395,-40.0566 88.2318,-30.659"/>
<polygon fill="#191970" stroke="#191970" points="34.7263,-40.8325 31.7682,-30.659 27.7364,-40.4567 34.7263,-40.8325"/>
</g>
<!-- Node2 -->
<g id="node2" class="node">
<title>Node2</title>
<g id="a_node2"><a xlink:href="../../de/d45/classorg_1_1cobbzilla_1_1util_1_1reflect_1_1ReflectionUtil_a95dbce7eb7134748d3b5e840d5c12e76.html#a95dbce7eb7134748d3b5e840d5c12e76" target="_top" xlink:title="org.cobbzilla.util.reflect.\lReflectionUtil.scrubStrings">
<polygon fill="none" stroke="#000000" points="156,-.5 156,-30.5 290,-30.5 290,-.5 156,-.5"/>
<text text-anchor="start" x="164" y="-18.5" font-family="Helvetica,sans-Serif" font-size="10.00" fill="#000000">org.cobbzilla.util.reflect.</text>
<text text-anchor="middle" x="223" y="-7.5" font-family="Helvetica,sans-Serif" font-size="10.00" fill="#000000">ReflectionUtil.scrubStrings</text>
</a>
</g>
</g>
<!-- Node1&#45;&gt;Node2 -->
<g id="edge1" class="edge">
<title>Node1&#45;&gt;Node2</title>
<path fill="none" stroke="#191970" d="M130.4287,-15.5C138.8742,-15.5 147.4814,-15.5 155.8783,-15.5"/>
<polygon fill="#191970" stroke="#191970" points="130.2321,-12.0001 120.2321,-15.5 130.232,-19.0001 130.2321,-12.0001"/>
</g>
</g>
</svg>
