<?xml version="1.0" encoding="UTF-8" standalone="no"?>
<!DOCTYPE svg PUBLIC "-//W3C//DTD SVG 1.1//EN"
 "http://www.w3.org/Graphics/SVG/1.1/DTD/svg11.dtd">
<!-- Generated by graphviz version 2.40.1 (20161225.0304)
 -->
<!-- Title: org.cobbzilla.util.reflect.ReflectionUtil.arrayClass Pages: 1 -->
<svg width="720pt" height="186pt"
 viewBox="0.00 0.00 720.00 186.00" xmlns="http://www.w3.org/2000/svg" xmlns:xlink="http://www.w3.org/1999/xlink">
<g id="graph0" class="graph" transform="scale(1 1) rotate(0) translate(4 182)">
<title>org.cobbzilla.util.reflect.ReflectionUtil.arrayClass</title>
<!-- Node2 -->
<g id="node1" class="node">
<title>Node2</title>
<polygon fill="#bfbfbf" stroke="#000000" points="0,-85.5 0,-115.5 126,-115.5 126,-85.5 0,-85.5"/>
<text text-anchor="start" x="8" y="-103.5" font-family="Helvetica,sans-Serif" font-size="10.00" fill="#000000">org.cobbzilla.util.reflect.</text>
<text text-anchor="middle" x="63" y="-92.5" font-family="Helvetica,sans-Serif" font-size="10.00" fill="#000000">ReflectionUtil.arrayClass</text>
</g>
<!-- Node3 -->
<g id="node2" class="node">
<title>Node3</title>
<g id="a_node2"><a xlink:href="../../de/d45/classorg_1_1cobbzilla_1_1util_1_1reflect_1_1ReflectionUtil_a338547db6a57a9c5f0a658cbc73b0079.html#a338547db6a57a9c5f0a658cbc73b0079" target="_top" xlink:title="Do a Class.forName and only throw unchecked exceptions. ">
<polygon fill="none" stroke="#000000" points="180,-85.5 180,-115.5 300,-115.5 300,-85.5 180,-85.5"/>
<text text-anchor="start" x="188" y="-103.5" font-family="Helvetica,sans-Serif" font-size="10.00" fill="#000000">org.cobbzilla.util.reflect.</text>
<text text-anchor="middle" x="240" y="-92.5" font-family="Helvetica,sans-Serif" font-size="10.00" fill="#000000">ReflectionUtil.forName</text>
</a>
</g>
</g>
<!-- Node2&#45;&gt;Node3 -->
<g id="edge1" class="edge">
<title>Node2&#45;&gt;Node3</title>
<path fill="none" stroke="#191970" d="M136.7706,-93.8338C151.1725,-93.6686 166.1098,-93.7477 179.9987,-94.0712"/>
<polygon fill="#191970" stroke="#191970" points="136.3447,-90.34 126.4011,-93.9973 136.4551,-97.3391 136.3447,-90.34"/>
</g>
<!-- Node9 -->
<g id="node8" class="node">
<title>Node9</title>
<g id="a_node8"><a xlink:href="../../de/d45/classorg_1_1cobbzilla_1_1util_1_1reflect_1_1ReflectionUtil_ad444cb470d5751c36b89014a3a7450e8.html#ad444cb470d5751c36b89014a3a7450e8" target="_top" xlink:title="org.cobbzilla.util.reflect.\lReflectionUtil.getPrimitiveClass">
<polygon fill="none" stroke="#000000" points="162,-24.5 162,-54.5 318,-54.5 318,-24.5 162,-24.5"/>
<text text-anchor="start" x="170" y="-42.5" font-family="Helvetica,sans-Serif" font-size="10.00" fill="#000000">org.cobbzilla.util.reflect.</text>
<text text-anchor="middle" x="240" y="-31.5" font-family="Helvetica,sans-Serif" font-size="10.00" fill="#000000">ReflectionUtil.getPrimitiveClass</text>
</a>
</g>
</g>
<!-- Node2&#45;&gt;Node9 -->
<g id="edge8" class="edge">
<title>Node2&#45;&gt;Node9</title>
<path fill="none" stroke="#191970" d="M116.3169,-82.1252C141.9303,-73.298 172.24,-62.8523 196.4441,-54.5108"/>
<polygon fill="#191970" stroke="#191970" points="115.0667,-78.854 106.7528,-85.4213 117.3475,-85.472 115.0667,-78.854"/>
</g>
<!-- Node3&#45;&gt;Node2 -->
<g id="edge2" class="edge">
<title>Node3&#45;&gt;Node2</title>
<path fill="none" stroke="#191970" d="M169.7228,-107.1212C155.4182,-107.3261 140.4497,-107.2866 126.4011,-107.0027"/>
<polygon fill="#191970" stroke="#191970" points="170.066,-110.6155 179.9987,-106.9288 169.9349,-103.6167 170.066,-110.6155"/>
</g>
<!-- Node4 -->
<g id="node3" class="node">
<title>Node4</title>
<g id="a_node3"><a xlink:href="../../de/d45/classorg_1_1cobbzilla_1_1util_1_1reflect_1_1ReflectionUtil_a13fd5b4e016157e7d12ea996fa3a72ff.html#a13fd5b4e016157e7d12ea996fa3a72ff" target="_top" xlink:title="org.cobbzilla.util.reflect.\lReflectionUtil.forNames">
<polygon fill="none" stroke="#000000" points="367,-147.5 367,-177.5 489,-177.5 489,-147.5 367,-147.5"/>
<text text-anchor="start" x="375" y="-165.5" font-family="Helvetica,sans-Serif" font-size="10.00" fill="#000000">org.cobbzilla.util.reflect.</text>
<text text-anchor="middle" x="428" y="-154.5" font-family="Helvetica,sans-Serif" font-size="10.00" fill="#000000">ReflectionUtil.forNames</text>
</a>
</g>
</g>
<!-- Node3&#45;&gt;Node4 -->
<g id="edge3" class="edge">
<title>Node3&#45;&gt;Node4</title>
<path fill="none" stroke="#191970" d="M294.518,-118.7728C313.3504,-125.0582 334.592,-132.1182 354,-138.5 362.8528,-141.411 372.3093,-144.4963 381.4009,-147.4505"/>
<polygon fill="#191970" stroke="#191970" points="295.5058,-115.4127 284.912,-115.5642 293.2881,-122.0521 295.5058,-115.4127"/>
</g>
<!-- Node5 -->
<g id="node4" class="node">
<title>Node5</title>
<g id="a_node4"><a xlink:href="../../de/d45/classorg_1_1cobbzilla_1_1util_1_1reflect_1_1ReflectionUtil_af5159cae006c5cad32a7c0e8e215b5c0.html#af5159cae006c5cad32a7c0e8e215b5c0" target="_top" xlink:title="org.cobbzilla.util.reflect.\lReflectionUtil.getSimpleClass">
<polygon fill="none" stroke="#000000" points="354,-98.5 354,-128.5 502,-128.5 502,-98.5 354,-98.5"/>
<text text-anchor="start" x="362" y="-116.5" font-family="Helvetica,sans-Serif" font-size="10.00" fill="#000000">org.cobbzilla.util.reflect.</text>
<text text-anchor="middle" x="428" y="-105.5" font-family="Helvetica,sans-Serif" font-size="10.00" fill="#000000">ReflectionUtil.getSimpleClass</text>
</a>
</g>
</g>
<!-- Node3&#45;&gt;Node5 -->
<g id="edge4" class="edge">
<title>Node3&#45;&gt;Node5</title>
<path fill="none" stroke="#191970" d="M310.1906,-105.3536C324.4004,-106.3362 339.3873,-107.3725 353.7322,-108.3645"/>
<polygon fill="#191970" stroke="#191970" points="310.2189,-101.8473 300.0013,-104.649 309.736,-108.8306 310.2189,-101.8473"/>
</g>
<!-- Node8 -->
<g id="node7" class="node">
<title>Node8</title>
<g id="a_node7"><a xlink:href="../../de/d45/classorg_1_1cobbzilla_1_1util_1_1reflect_1_1ReflectionUtil_a41289a828e5eda6307669961a7f61617.html#a41289a828e5eda6307669961a7f61617" target="_top" xlink:title="Create an instance of a class based on a class name, only throwing unchecked exceptions. ">
<polygon fill="none" stroke="#000000" points="366,-49.5 366,-79.5 490,-79.5 490,-49.5 366,-49.5"/>
<text text-anchor="start" x="374" y="-67.5" font-family="Helvetica,sans-Serif" font-size="10.00" fill="#000000">org.cobbzilla.util.reflect.</text>
<text text-anchor="middle" x="428" y="-56.5" font-family="Helvetica,sans-Serif" font-size="10.00" fill="#000000">ReflectionUtil.instantiate</text>
</a>
</g>
</g>
<!-- Node3&#45;&gt;Node8 -->
<g id="edge7" class="edge">
<title>Node3&#45;&gt;Node8</title>
<path fill="none" stroke="#191970" d="M310.0475,-87.0867C328.4075,-83.5709 348.0738,-79.805 365.9819,-76.3758"/>
<polygon fill="#191970" stroke="#191970" points="309.1645,-83.692 300.0013,-89.0104 310.4811,-90.5671 309.1645,-83.692"/>
</g>
<!-- Node6 -->
<g id="node5" class="node">
<title>Node6</title>
<g id="a_node5"><a xlink:href="../../de/d45/classorg_1_1cobbzilla_1_1util_1_1reflect_1_1ReflectionUtil_a887a7de5b852b81fc3574f3ffceed50b.html#a887a7de5b852b81fc3574f3ffceed50b" target="_top" xlink:title="org.cobbzilla.util.reflect.\lReflectionUtil.getSimpleClassName">
<polygon fill="none" stroke="#000000" points="538,-122.5 538,-152.5 712,-152.5 712,-122.5 538,-122.5"/>
<text text-anchor="start" x="546" y="-140.5" font-family="Helvetica,sans-Serif" font-size="10.00" fill="#000000">org.cobbzilla.util.reflect.</text>
<text text-anchor="middle" x="625" y="-129.5" font-family="Helvetica,sans-Serif" font-size="10.00" fill="#000000">ReflectionUtil.getSimpleClassName</text>
</a>
</g>
</g>
<!-- Node5&#45;&gt;Node6 -->
<g id="edge5" class="edge">
<title>Node5&#45;&gt;Node6</title>
<path fill="none" stroke="#191970" d="M512.1428,-123.7509C520.6867,-124.7918 529.3779,-125.8506 537.9517,-126.8951"/>
<polygon fill="#191970" stroke="#191970" points="512.5464,-120.2743 502.1965,-122.5392 511.6998,-127.2229 512.5464,-120.2743"/>
</g>
<!-- Node7 -->
<g id="node6" class="node">
<title>Node7</title>
<g id="a_node6"><a xlink:href="../../de/d45/classorg_1_1cobbzilla_1_1util_1_1reflect_1_1ReflectionUtil_a0da1d995d2dd67a3eafe794725c009ae.html#a0da1d995d2dd67a3eafe794725c009ae" target="_top" xlink:title="Create an instance of a class using the supplied argument to a matching single&#45;argument constructor...">
<polygon fill="none" stroke="#000000" points="563,-73.5 563,-103.5 687,-103.5 687,-73.5 563,-73.5"/>
<text text-anchor="start" x="571" y="-91.5" font-family="Helvetica,sans-Serif" font-size="10.00" fill="#000000">org.cobbzilla.util.reflect.</text>
<text text-anchor="middle" x="625" y="-80.5" font-family="Helvetica,sans-Serif" font-size="10.00" fill="#000000">ReflectionUtil.instantiate</text>
</a>
</g>
</g>
<!-- Node5&#45;&gt;Node7 -->
<g id="edge6" class="edge">
<title>Node5&#45;&gt;Node7</title>
<path fill="none" stroke="#191970" d="M512.1194,-102.825C529.1138,-100.6683 546.6918,-98.4376 562.771,-96.3971"/>
<polygon fill="#191970" stroke="#191970" points="511.6763,-99.353 502.1965,-104.0842 512.5576,-106.2973 511.6763,-99.353"/>
</g>
<!-- Node10 -->
<g id="node9" class="node">
<title>Node10</title>
<g id="a_node9"><a xlink:href="../../de/d45/classorg_1_1cobbzilla_1_1util_1_1reflect_1_1ReflectionUtil_ae7514d13fa5eba034a4270ffcd54fb5c.html#ae7514d13fa5eba034a4270ffcd54fb5c" target="_top" xlink:title="org.cobbzilla.util.reflect.\lReflectionUtil.copyFromMap">
<polygon fill="none" stroke="#000000" points="357.5,-.5 357.5,-30.5 498.5,-30.5 498.5,-.5 357.5,-.5"/>
<text text-anchor="start" x="365.5" y="-18.5" font-family="Helvetica,sans-Serif" font-size="10.00" fill="#000000">org.cobbzilla.util.reflect.</text>
<text text-anchor="middle" x="428" y="-7.5" font-family="Helvetica,sans-Serif" font-size="10.00" fill="#000000">ReflectionUtil.copyFromMap</text>
</a>
</g>
</g>
<!-- Node9&#45;&gt;Node10 -->
<g id="edge9" class="edge">
<title>Node9&#45;&gt;Node10</title>
<path fill="none" stroke="#191970" d="M328.227,-28.237C337.995,-26.99 347.8465,-25.7324 357.3574,-24.5182"/>
<polygon fill="#191970" stroke="#191970" points="327.5719,-24.7921 318.0957,-29.5303 328.4584,-31.7358 327.5719,-24.7921"/>
</g>
</g>
</svg>
