<?xml version="1.0" encoding="UTF-8" standalone="no"?>
<!DOCTYPE svg PUBLIC "-//W3C//DTD SVG 1.1//EN"
 "http://www.w3.org/Graphics/SVG/1.1/DTD/svg11.dtd">
<!-- Generated by graphviz version 2.40.1 (20161225.0304)
 -->
<!-- Title: org.cobbzilla.util.reflect.ReflectionUtil.copyFromMap Pages: 1 -->
<svg width="326pt" height="88pt"
 viewBox="0.00 0.00 326.00 88.00" xmlns="http://www.w3.org/2000/svg" xmlns:xlink="http://www.w3.org/1999/xlink">
<g id="graph0" class="graph" transform="scale(1 1) rotate(0) translate(4 84)">
<title>org.cobbzilla.util.reflect.ReflectionUtil.copyFromMap</title>
<!-- Node1 -->
<g id="node1" class="node">
<title>Node1</title>
<polygon fill="#bfbfbf" stroke="#000000" points="0,-24.5 0,-54.5 141,-54.5 141,-24.5 0,-24.5"/>
<text text-anchor="start" x="8" y="-42.5" font-family="Helvetica,sans-Serif" font-size="10.00" fill="#000000">org.cobbzilla.util.reflect.</text>
<text text-anchor="middle" x="70.5" y="-31.5" font-family="Helvetica,sans-Serif" font-size="10.00" fill="#000000">ReflectionUtil.copyFromMap</text>
</g>
<!-- Node2 -->
<g id="node2" class="node">
<title>Node2</title>
<g id="a_node2"><a xlink:href="../../de/d45/classorg_1_1cobbzilla_1_1util_1_1reflect_1_1ReflectionUtil_ad540c2c1dcf194d39d7c82ee8103910a.html#ad540c2c1dcf194d39d7c82ee8103910a" target="_top" xlink:title="Same as copy(dest, src) but only named fields are copied. ">
<polygon fill="none" stroke="#000000" points="187.5,-49.5 187.5,-79.5 307.5,-79.5 307.5,-49.5 187.5,-49.5"/>
<text text-anchor="start" x="195.5" y="-67.5" font-family="Helvetica,sans-Serif" font-size="10.00" fill="#000000">org.cobbzilla.util.reflect.</text>
<text text-anchor="middle" x="247.5" y="-56.5" font-family="Helvetica,sans-Serif" font-size="10.00" fill="#000000">ReflectionUtil.copy</text>
</a>
</g>
</g>
<!-- Node1&#45;&gt;Node2 -->
<g id="edge1" class="edge">
<title>Node1&#45;&gt;Node2</title>
<path fill="none" stroke="#191970" d="M151.3517,-50.9197C163.4936,-52.6347 175.8291,-54.377 187.4346,-56.0162"/>
<polygon fill="#191970" stroke="#191970" points="151.6094,-47.4215 141.2182,-49.4884 150.6304,-54.3527 151.6094,-47.4215"/>
</g>
<!-- Node3 -->
<g id="node3" class="node">
<title>Node3</title>
<g id="a_node3"><a xlink:href="../../de/d45/classorg_1_1cobbzilla_1_1util_1_1reflect_1_1ReflectionUtil_ae7514d13fa5eba034a4270ffcd54fb5c.html#ae7514d13fa5eba034a4270ffcd54fb5c" target="_top" xlink:title="org.cobbzilla.util.reflect.\lReflectionUtil.copyFromMap">
<polygon fill="none" stroke="#000000" points="177,-.5 177,-30.5 318,-30.5 318,-.5 177,-.5"/>
<text text-anchor="start" x="185" y="-18.5" font-family="Helvetica,sans-Serif" font-size="10.00" fill="#000000">org.cobbzilla.util.reflect.</text>
<text text-anchor="middle" x="247.5" y="-7.5" font-family="Helvetica,sans-Serif" font-size="10.00" fill="#000000">ReflectionUtil.copyFromMap</text>
</a>
</g>
</g>
<!-- Node1&#45;&gt;Node3 -->
<g id="edge2" class="edge">
<title>Node1&#45;&gt;Node3</title>
<path fill="none" stroke="#191970" d="M151.2142,-28.5557C159.7843,-27.3936 168.4526,-26.2183 176.8942,-25.0737"/>
<polygon fill="#191970" stroke="#191970" points="150.6572,-25.0991 141.2182,-29.9111 151.5978,-32.0356 150.6572,-25.0991"/>
</g>
</g>
</svg>
