<?xml version="1.0" encoding="UTF-8" standalone="no"?>
<!DOCTYPE svg PUBLIC "-//W3C//DTD SVG 1.1//EN"
 "http://www.w3.org/Graphics/SVG/1.1/DTD/svg11.dtd">
<!-- Generated by graphviz version 2.40.1 (20161225.0304)
 -->
<!-- Title: org.cobbzilla.util.reflect.ReflectionUtil.forName Pages: 1 -->
<svg width="699pt" height="186pt"
 viewBox="0.00 0.00 699.00 186.00" xmlns="http://www.w3.org/2000/svg" xmlns:xlink="http://www.w3.org/1999/xlink">
<g id="graph0" class="graph" transform="scale(1 1) rotate(0) translate(4 182)">
<title>org.cobbzilla.util.reflect.ReflectionUtil.forName</title>
<!-- Node2 -->
<g id="node1" class="node">
<title>Node2</title>
<polygon fill="#bfbfbf" stroke="#000000" points="0,-98.5 0,-128.5 120,-128.5 120,-98.5 0,-98.5"/>
<text text-anchor="start" x="8" y="-116.5" font-family="Helvetica,sans-Serif" font-size="10.00" fill="#000000">org.cobbzilla.util.reflect.</text>
<text text-anchor="middle" x="60" y="-105.5" font-family="Helvetica,sans-Serif" font-size="10.00" fill="#000000">ReflectionUtil.forName</text>
</g>
<!-- Node3 -->
<g id="node2" class="node">
<title>Node3</title>
<g id="a_node2"><a xlink:href="../../de/d45/classorg_1_1cobbzilla_1_1util_1_1reflect_1_1ReflectionUtil_a8bed16b678e7540a780cca7b25366cf2.html#a8bed16b678e7540a780cca7b25366cf2" target="_top" xlink:title="org.cobbzilla.util.reflect.\lReflectionUtil.arrayClass">
<polygon fill="none" stroke="#000000" points="167,-147.5 167,-177.5 293,-177.5 293,-147.5 167,-147.5"/>
<text text-anchor="start" x="175" y="-165.5" font-family="Helvetica,sans-Serif" font-size="10.00" fill="#000000">org.cobbzilla.util.reflect.</text>
<text text-anchor="middle" x="230" y="-154.5" font-family="Helvetica,sans-Serif" font-size="10.00" fill="#000000">ReflectionUtil.arrayClass</text>
</a>
</g>
</g>
<!-- Node2&#45;&gt;Node3 -->
<g id="edge1" class="edge">
<title>Node2&#45;&gt;Node3</title>
<path fill="none" stroke="#191970" d="M130.1375,-127.0587C153.0856,-133.3846 177.5254,-140.8149 196.4832,-147.3394"/>
<polygon fill="#191970" stroke="#191970" points="130.9819,-123.6613 120.4143,-124.421 129.1491,-130.4171 130.9819,-123.6613"/>
</g>
<!-- Node6 -->
<g id="node5" class="node">
<title>Node6</title>
<g id="a_node5"><a xlink:href="../../de/d45/classorg_1_1cobbzilla_1_1util_1_1reflect_1_1ReflectionUtil_a13fd5b4e016157e7d12ea996fa3a72ff.html#a13fd5b4e016157e7d12ea996fa3a72ff" target="_top" xlink:title="org.cobbzilla.util.reflect.\lReflectionUtil.forNames">
<polygon fill="none" stroke="#000000" points="169,-98.5 169,-128.5 291,-128.5 291,-98.5 169,-98.5"/>
<text text-anchor="start" x="177" y="-116.5" font-family="Helvetica,sans-Serif" font-size="10.00" fill="#000000">org.cobbzilla.util.reflect.</text>
<text text-anchor="middle" x="230" y="-105.5" font-family="Helvetica,sans-Serif" font-size="10.00" fill="#000000">ReflectionUtil.forNames</text>
</a>
</g>
</g>
<!-- Node2&#45;&gt;Node6 -->
<g id="edge5" class="edge">
<title>Node2&#45;&gt;Node6</title>
<path fill="none" stroke="#191970" d="M130.5207,-113.5C143.2707,-113.5 156.4685,-113.5 168.9207,-113.5"/>
<polygon fill="#191970" stroke="#191970" points="130.4143,-110.0001 120.4143,-113.5 130.4143,-117.0001 130.4143,-110.0001"/>
</g>
<!-- Node7 -->
<g id="node6" class="node">
<title>Node7</title>
<g id="a_node6"><a xlink:href="../../de/d45/classorg_1_1cobbzilla_1_1util_1_1reflect_1_1ReflectionUtil_af5159cae006c5cad32a7c0e8e215b5c0.html#af5159cae006c5cad32a7c0e8e215b5c0" target="_top" xlink:title="org.cobbzilla.util.reflect.\lReflectionUtil.getSimpleClass">
<polygon fill="none" stroke="#000000" points="156,-49.5 156,-79.5 304,-79.5 304,-49.5 156,-49.5"/>
<text text-anchor="start" x="164" y="-67.5" font-family="Helvetica,sans-Serif" font-size="10.00" fill="#000000">org.cobbzilla.util.reflect.</text>
<text text-anchor="middle" x="230" y="-56.5" font-family="Helvetica,sans-Serif" font-size="10.00" fill="#000000">ReflectionUtil.getSimpleClass</text>
</a>
</g>
</g>
<!-- Node2&#45;&gt;Node7 -->
<g id="edge6" class="edge">
<title>Node2&#45;&gt;Node7</title>
<path fill="none" stroke="#191970" d="M122.0815,-95.6059C140.3664,-90.3356 160.1804,-84.6245 177.7802,-79.5516"/>
<polygon fill="#191970" stroke="#191970" points="121.0322,-92.2658 112.3928,-98.3986 122.971,-98.992 121.0322,-92.2658"/>
</g>
<!-- Node10 -->
<g id="node9" class="node">
<title>Node10</title>
<g id="a_node9"><a xlink:href="../../de/d45/classorg_1_1cobbzilla_1_1util_1_1reflect_1_1ReflectionUtil_a41289a828e5eda6307669961a7f61617.html#a41289a828e5eda6307669961a7f61617" target="_top" xlink:title="Create an instance of a class based on a class name, only throwing unchecked exceptions. ">
<polygon fill="none" stroke="#000000" points="168,-.5 168,-30.5 292,-30.5 292,-.5 168,-.5"/>
<text text-anchor="start" x="176" y="-18.5" font-family="Helvetica,sans-Serif" font-size="10.00" fill="#000000">org.cobbzilla.util.reflect.</text>
<text text-anchor="middle" x="230" y="-7.5" font-family="Helvetica,sans-Serif" font-size="10.00" fill="#000000">ReflectionUtil.instantiate</text>
</a>
</g>
</g>
<!-- Node2&#45;&gt;Node10 -->
<g id="edge9" class="edge">
<title>Node2&#45;&gt;Node10</title>
<path fill="none" stroke="#191970" d="M83.7586,-91.4248C102.2712,-75.1983 129.2445,-53.6052 156,-39.5 162.3321,-36.1618 169.2141,-33.1771 176.1469,-30.5427"/>
<polygon fill="#191970" stroke="#191970" points="81.2571,-88.966 76.124,-98.2343 85.9165,-94.19 81.2571,-88.966"/>
</g>
<!-- Node3&#45;&gt;Node2 -->
<g id="edge2" class="edge">
<title>Node3&#45;&gt;Node2</title>
<path fill="none" stroke="#191970" d="M157.162,-148.1937C134.8738,-141.9974 111.4465,-134.8424 93.1813,-128.545"/>
<polygon fill="#191970" stroke="#191970" points="156.3923,-151.6117 166.9616,-150.8757 158.2402,-144.86 156.3923,-151.6117"/>
</g>
<!-- Node4 -->
<g id="node3" class="node">
<title>Node4</title>
<g id="a_node3"><a xlink:href="../../de/d45/classorg_1_1cobbzilla_1_1util_1_1reflect_1_1ReflectionUtil_ad444cb470d5751c36b89014a3a7450e8.html#ad444cb470d5751c36b89014a3a7450e8" target="_top" xlink:title="org.cobbzilla.util.reflect.\lReflectionUtil.getPrimitiveClass">
<polygon fill="none" stroke="#000000" points="349,-147.5 349,-177.5 505,-177.5 505,-147.5 349,-147.5"/>
<text text-anchor="start" x="357" y="-165.5" font-family="Helvetica,sans-Serif" font-size="10.00" fill="#000000">org.cobbzilla.util.reflect.</text>
<text text-anchor="middle" x="427" y="-154.5" font-family="Helvetica,sans-Serif" font-size="10.00" fill="#000000">ReflectionUtil.getPrimitiveClass</text>
</a>
</g>
</g>
<!-- Node3&#45;&gt;Node4 -->
<g id="edge3" class="edge">
<title>Node3&#45;&gt;Node4</title>
<path fill="none" stroke="#191970" d="M303.2504,-162.5C318.0616,-162.5 333.6897,-162.5 348.6678,-162.5"/>
<polygon fill="#191970" stroke="#191970" points="303.1449,-159.0001 293.1449,-162.5 303.1449,-166.0001 303.1449,-159.0001"/>
</g>
<!-- Node5 -->
<g id="node4" class="node">
<title>Node5</title>
<g id="a_node4"><a xlink:href="../../de/d45/classorg_1_1cobbzilla_1_1util_1_1reflect_1_1ReflectionUtil_ae7514d13fa5eba034a4270ffcd54fb5c.html#ae7514d13fa5eba034a4270ffcd54fb5c" target="_top" xlink:title="org.cobbzilla.util.reflect.\lReflectionUtil.copyFromMap">
<polygon fill="none" stroke="#000000" points="550,-147.5 550,-177.5 691,-177.5 691,-147.5 550,-147.5"/>
<text text-anchor="start" x="558" y="-165.5" font-family="Helvetica,sans-Serif" font-size="10.00" fill="#000000">org.cobbzilla.util.reflect.</text>
<text text-anchor="middle" x="620.5" y="-154.5" font-family="Helvetica,sans-Serif" font-size="10.00" fill="#000000">ReflectionUtil.copyFromMap</text>
</a>
</g>
</g>
<!-- Node4&#45;&gt;Node5 -->
<g id="edge4" class="edge">
<title>Node4&#45;&gt;Node5</title>
<path fill="none" stroke="#191970" d="M515.2742,-162.5C526.8664,-162.5 538.6221,-162.5 549.8689,-162.5"/>
<polygon fill="#191970" stroke="#191970" points="515.1461,-159.0001 505.1461,-162.5 515.1461,-166.0001 515.1461,-159.0001"/>
</g>
<!-- Node8 -->
<g id="node7" class="node">
<title>Node8</title>
<g id="a_node7"><a xlink:href="../../de/d45/classorg_1_1cobbzilla_1_1util_1_1reflect_1_1ReflectionUtil_a887a7de5b852b81fc3574f3ffceed50b.html#a887a7de5b852b81fc3574f3ffceed50b" target="_top" xlink:title="org.cobbzilla.util.reflect.\lReflectionUtil.getSimpleClassName">
<polygon fill="none" stroke="#000000" points="340,-74.5 340,-104.5 514,-104.5 514,-74.5 340,-74.5"/>
<text text-anchor="start" x="348" y="-92.5" font-family="Helvetica,sans-Serif" font-size="10.00" fill="#000000">org.cobbzilla.util.reflect.</text>
<text text-anchor="middle" x="427" y="-81.5" font-family="Helvetica,sans-Serif" font-size="10.00" fill="#000000">ReflectionUtil.getSimpleClassName</text>
</a>
</g>
</g>
<!-- Node7&#45;&gt;Node8 -->
<g id="edge7" class="edge">
<title>Node7&#45;&gt;Node8</title>
<path fill="none" stroke="#191970" d="M314.1428,-75.178C322.6867,-76.2623 331.3779,-77.3652 339.9517,-78.4533"/>
<polygon fill="#191970" stroke="#191970" points="314.5576,-71.7027 304.1965,-73.9158 313.6763,-78.647 314.5576,-71.7027"/>
</g>
<!-- Node9 -->
<g id="node8" class="node">
<title>Node9</title>
<g id="a_node8"><a xlink:href="../../de/d45/classorg_1_1cobbzilla_1_1util_1_1reflect_1_1ReflectionUtil_a0da1d995d2dd67a3eafe794725c009ae.html#a0da1d995d2dd67a3eafe794725c009ae" target="_top" xlink:title="Create an instance of a class using the supplied argument to a matching single&#45;argument constructor...">
<polygon fill="none" stroke="#000000" points="365,-25.5 365,-55.5 489,-55.5 489,-25.5 365,-25.5"/>
<text text-anchor="start" x="373" y="-43.5" font-family="Helvetica,sans-Serif" font-size="10.00" fill="#000000">org.cobbzilla.util.reflect.</text>
<text text-anchor="middle" x="427" y="-32.5" font-family="Helvetica,sans-Serif" font-size="10.00" fill="#000000">ReflectionUtil.instantiate</text>
</a>
</g>
</g>
<!-- Node7&#45;&gt;Node9 -->
<g id="edge8" class="edge">
<title>Node7&#45;&gt;Node9</title>
<path fill="none" stroke="#191970" d="M314.596,-54.1939C331.4422,-52.1416 348.8421,-50.0218 364.771,-48.0812"/>
<polygon fill="#191970" stroke="#191970" points="313.6999,-50.7771 304.1965,-55.4608 314.5464,-57.7257 313.6999,-50.7771"/>
</g>
</g>
</svg>
