<?xml version="1.0" encoding="UTF-8" standalone="no"?>
<!DOCTYPE svg PUBLIC "-//W3C//DTD SVG 1.1//EN"
 "http://www.w3.org/Graphics/SVG/1.1/DTD/svg11.dtd">
<!-- Generated by graphviz version 2.40.1 (20161225.0304)
 -->
<!-- Title: org.cobbzilla.util.reflect.ReflectionUtil.instantiate Pages: 1 -->
<!--zoomable 363 -->
<svg id="main" version="1.1" xmlns="http://www.w3.org/2000/svg" xmlns:xlink="http://www.w3.org/1999/xlink" xml:space="preserve" onload="init(evt)">
<style type="text/css"><![CDATA[
.edge:hover path { stroke: red; }
.edge:hover polygon { stroke: red; fill: red; }
]]></style>
<script type="text/javascript"><![CDATA[
var edges = document.getElementsByTagName('g');
if (edges && edges.length) {
  for (var i=0;i<edges.length;i++) {
    if (edges[i].id.substr(0,4)=='edge') {
      edges[i].setAttribute('class','edge');
    }
  }
}
]]></script>
        <defs>
                <circle id="rim" cx="0" cy="0" r="7"/>
                <circle id="rim2" cx="0" cy="0" r="3.5"/>
                <g id="zoomPlus">
                        <use xlink:href="#rim" fill="#404040">
                                <set attributeName="fill" to="#808080" begin="zoomplus.mouseover" end="zoomplus.mouseout"/>
                        </use>
                        <path d="M-4,0h8M0,-4v8" fill="none" stroke="white" stroke-width="1.5" pointer-events="none"/>
                </g>
                <g id="zoomMin">
                        <use xlink:href="#rim" fill="#404040">
                                <set attributeName="fill" to="#808080" begin="zoomminus.mouseover" end="zoomminus.mouseout"/>
                        </use>
                        <path d="M-4,0h8" fill="none" stroke="white" stroke-width="1.5" pointer-events="none"/>
                </g>
                <g id="dirArrow">
                        <path fill="none" stroke="white" stroke-width="1.5" d="M0,-3.0v7 M-2.5,-0.5L0,-3.0L2.5,-0.5"/>
                </g>
               <g id="resetDef">
                       <use xlink:href="#rim2" fill="#404040">
                               <set attributeName="fill" to="#808080" begin="reset.mouseover" end="reset.mouseout"/>
                       </use>
               </g>
        </defs>

<script type="text/javascript">
var viewWidth = 651;
var viewHeight = 363;
var sectionId = 'dynsection-0';
</script>
<script xlink:href="../../svgpan.js"/>
<svg id="graph" class="graph">
<g id="viewport">
<title>org.cobbzilla.util.reflect.ReflectionUtil.instantiate</title>
<!-- Node1 -->
<g id="node1" class="node">
<title>Node1</title>
<polygon fill="#bfbfbf" stroke="#000000" points="0,-98.5 0,-128.5 124,-128.5 124,-98.5 0,-98.5"/>
<text text-anchor="start" x="8" y="-116.5" font-family="Helvetica,sans-Serif" font-size="10.00" fill="#000000">org.cobbzilla.util.reflect.</text>
<text text-anchor="middle" x="62" y="-105.5" font-family="Helvetica,sans-Serif" font-size="10.00" fill="#000000">ReflectionUtil.instantiate</text>
</g>
<!-- Node2 -->
<g id="node2" class="node">
<title>Node2</title>
<g id="a_node2"><a xlink:href="../../de/d45/classorg_1_1cobbzilla_1_1util_1_1reflect_1_1ReflectionUtil_a70bf98d7d211bdca858059b322006685.html#a70bf98d7d211bdca858059b322006685" target="_top" xlink:title="Make a copy of the object, assuming its class has a copy constructor. ">
<polygon fill="none" stroke="#000000" points="176,-213.5 176,-243.5 296,-243.5 296,-213.5 176,-213.5"/>
<text text-anchor="start" x="184" y="-231.5" font-family="Helvetica,sans-Serif" font-size="10.00" fill="#000000">org.cobbzilla.util.reflect.</text>
<text text-anchor="middle" x="236" y="-220.5" font-family="Helvetica,sans-Serif" font-size="10.00" fill="#000000">ReflectionUtil.copy</text>
</a>
</g>
</g>
<!-- Node1&#45;&gt;Node2 -->
<g id="edge1" class="edge">
<title>Node1&#45;&gt;Node2</title>
<path fill="none" stroke="#191970" d="M93.497,-134.317C128.0424,-157.1487 182.6326,-193.2284 213.247,-213.4621"/>
<polygon fill="#191970" stroke="#191970" points="95.0199,-131.1281 84.7475,-128.5342 91.1602,-136.968 95.0199,-131.1281"/>
</g>
<!-- Node5 -->
<g id="node5" class="node">
<title>Node5</title>
<g id="a_node5"><a xlink:href="../../de/d45/classorg_1_1cobbzilla_1_1util_1_1reflect_1_1ReflectionUtil_a06a1f9ddda88967bb1513aaedea72c04.html#a06a1f9ddda88967bb1513aaedea72c04" target="_top" xlink:title="Mirror the object. ">
<polygon fill="none" stroke="#000000" points="355,-128.5 355,-158.5 475,-158.5 475,-128.5 355,-128.5"/>
<text text-anchor="start" x="363" y="-146.5" font-family="Helvetica,sans-Serif" font-size="10.00" fill="#000000">org.cobbzilla.util.reflect.</text>
<text text-anchor="middle" x="415" y="-135.5" font-family="Helvetica,sans-Serif" font-size="10.00" fill="#000000">ReflectionUtil.mirror</text>
</a>
</g>
</g>
<!-- Node1&#45;&gt;Node5 -->
<g id="edge10" class="edge">
<title>Node1&#45;&gt;Node5</title>
<path fill="none" stroke="#191970" d="M124.0473,-130.8366C135.897,-133.5368 148.2653,-135.9438 160,-137.5 226.2871,-146.2908 303.0946,-146.7987 354.9494,-145.7365"/>
<polygon fill="#191970" stroke="#191970" points="124.7785,-127.413 114.2408,-128.5117 123.1636,-134.2242 124.7785,-127.413"/>
</g>
<!-- Node9 -->
<g id="node9" class="node">
<title>Node9</title>
<g id="a_node9"><a xlink:href="../../d4/dbe/classorg_1_1cobbzilla_1_1util_1_1cron_1_1CronJob_a693e4b01c82f8786ea579d31e5244560.html#a693e4b01c82f8786ea579d31e5244560" target="_top" xlink:title="org.cobbzilla.util.cron.\lCronJob.getCommandInstance">
<polygon fill="none" stroke="#000000" points="160,-98.5 160,-128.5 312,-128.5 312,-98.5 160,-98.5"/>
<text text-anchor="start" x="168" y="-116.5" font-family="Helvetica,sans-Serif" font-size="10.00" fill="#000000">org.cobbzilla.util.cron.</text>
<text text-anchor="middle" x="236" y="-105.5" font-family="Helvetica,sans-Serif" font-size="10.00" fill="#000000">CronJob.getCommandInstance</text>
</a>
</g>
</g>
<!-- Node1&#45;&gt;Node9 -->
<g id="edge8" class="edge">
<title>Node1&#45;&gt;Node9</title>
<path fill="none" stroke="#191970" d="M134.4406,-113.5C142.8257,-113.5 151.3965,-113.5 159.8294,-113.5"/>
<polygon fill="#191970" stroke="#191970" points="134.3266,-110.0001 124.3265,-113.5 134.3265,-117.0001 134.3266,-110.0001"/>
</g>
<!-- Node10 -->
<g id="node10" class="node">
<title>Node10</title>
<g id="a_node10"><a xlink:href="../../de/d45/classorg_1_1cobbzilla_1_1util_1_1reflect_1_1ReflectionUtil_a41289a828e5eda6307669961a7f61617.html#a41289a828e5eda6307669961a7f61617" target="_top" xlink:title="Create an instance of a class based on a class name, only throwing unchecked exceptions. ">
<polygon fill="none" stroke="#000000" points="174,-49.5 174,-79.5 298,-79.5 298,-49.5 174,-49.5"/>
<text text-anchor="start" x="182" y="-67.5" font-family="Helvetica,sans-Serif" font-size="10.00" fill="#000000">org.cobbzilla.util.reflect.</text>
<text text-anchor="middle" x="236" y="-56.5" font-family="Helvetica,sans-Serif" font-size="10.00" fill="#000000">ReflectionUtil.instantiate</text>
</a>
</g>
</g>
<!-- Node1&#45;&gt;Node10 -->
<g id="edge9" class="edge">
<title>Node1&#45;&gt;Node10</title>
<path fill="none" stroke="#191970" d="M125.2836,-95.6788C144.0704,-90.3882 164.4546,-84.6478 182.5515,-79.5516"/>
<polygon fill="#191970" stroke="#191970" points="124.3024,-92.3189 115.6255,-98.3986 126.1999,-99.0568 124.3024,-92.3189"/>
</g>
<!-- Node11 -->
<g id="node11" class="node">
<title>Node11</title>
<g id="a_node11"><a xlink:href="../../de/d45/classorg_1_1cobbzilla_1_1util_1_1reflect_1_1ReflectionUtil_a84d2273bd96944773694999afac67e0f.html#a84d2273bd96944773694999afac67e0f" target="_top" xlink:title="Call a setter with a hint as to what the type should be. ">
<polygon fill="none" stroke="#000000" points="176,-.5 176,-30.5 296,-30.5 296,-.5 176,-.5"/>
<text text-anchor="start" x="184" y="-18.5" font-family="Helvetica,sans-Serif" font-size="10.00" fill="#000000">org.cobbzilla.util.reflect.</text>
<text text-anchor="middle" x="236" y="-7.5" font-family="Helvetica,sans-Serif" font-size="10.00" fill="#000000">ReflectionUtil.set</text>
</a>
</g>
</g>
<!-- Node1&#45;&gt;Node11 -->
<g id="edge11" class="edge">
<title>Node1&#45;&gt;Node11</title>
<path fill="none" stroke="#191970" d="M86.0463,-91.6111C104.9759,-75.3437 132.6461,-53.613 160,-39.5 166.3942,-36.201 173.3265,-33.2519 180.3145,-30.6468"/>
<polygon fill="#191970" stroke="#191970" points="83.7218,-88.9944 78.4952,-98.2103 88.3282,-94.2652 83.7218,-88.9944"/>
</g>
<!-- Node3 -->
<g id="node3" class="node">
<title>Node3</title>
<g id="a_node3"><a xlink:href="../../de/d45/classorg_1_1cobbzilla_1_1util_1_1reflect_1_1ReflectionUtil_aab9896ebc9230b8092154769e41c5e00.html#aab9896ebc9230b8092154769e41c5e00" target="_top" xlink:title="Copies fields from src to dest. ">
<polygon fill="none" stroke="#000000" points="355,-324.5 355,-354.5 475,-354.5 475,-324.5 355,-324.5"/>
<text text-anchor="start" x="363" y="-342.5" font-family="Helvetica,sans-Serif" font-size="10.00" fill="#000000">org.cobbzilla.util.reflect.</text>
<text text-anchor="middle" x="415" y="-331.5" font-family="Helvetica,sans-Serif" font-size="10.00" fill="#000000">ReflectionUtil.copy</text>
</a>
</g>
</g>
<!-- Node2&#45;&gt;Node3 -->
<g id="edge2" class="edge">
<title>Node2&#45;&gt;Node3</title>
<path fill="none" stroke="#191970" d="M259.596,-250.4603C281.2474,-269.6879 314.8935,-297.3193 348,-315.5 353.9566,-318.7711 360.4462,-321.7444 366.965,-324.397"/>
<polygon fill="#191970" stroke="#191970" points="261.6845,-247.631 251.9114,-243.5398 257.0001,-252.8326 261.6845,-247.631"/>
</g>
<!-- Node4 -->
<g id="node4" class="node">
<title>Node4</title>
<g id="a_node4"><a xlink:href="../../d2/dd1/classorg_1_1cobbzilla_1_1util_1_1collection_1_1ListUtil_af5013777d90a96ef3b38c1fcde606677.html#af5013777d90a96ef3b38c1fcde606677" target="_top" xlink:title="org.cobbzilla.util.collection.\lListUtil.deepCopy">
<polygon fill="none" stroke="#000000" points="348,-275.5 348,-305.5 482,-305.5 482,-275.5 348,-275.5"/>
<text text-anchor="start" x="356" y="-293.5" font-family="Helvetica,sans-Serif" font-size="10.00" fill="#000000">org.cobbzilla.util.collection.</text>
<text text-anchor="middle" x="415" y="-282.5" font-family="Helvetica,sans-Serif" font-size="10.00" fill="#000000">ListUtil.deepCopy</text>
</a>
</g>
</g>
<!-- Node2&#45;&gt;Node4 -->
<g id="edge3" class="edge">
<title>Node2&#45;&gt;Node4</title>
<path fill="none" stroke="#191970" d="M289.1191,-246.8988C315.3634,-255.989 346.6375,-266.8214 371.4477,-275.4149"/>
<polygon fill="#191970" stroke="#191970" points="289.9257,-243.4742 279.3309,-243.5085 287.6346,-250.0887 289.9257,-243.4742"/>
</g>
<!-- Node2&#45;&gt;Node5 -->
<g id="edge4" class="edge">
<title>Node2&#45;&gt;Node5</title>
<path fill="none" stroke="#191970" d="M270.638,-208.3812C292.4633,-196.0987 321.4412,-180.5032 348,-168.5 355.6932,-165.0231 364.0267,-161.6294 372.1175,-158.52"/>
<polygon fill="#191970" stroke="#191970" points="268.7217,-205.4442 261.75,-213.4221 272.1751,-211.5331 268.7217,-205.4442"/>
</g>
<!-- Node6 -->
<g id="node6" class="node">
<title>Node6</title>
<g id="a_node6"><a xlink:href="../../de/d45/classorg_1_1cobbzilla_1_1util_1_1reflect_1_1ReflectionUtil_a87863b6335a62cb9eaa28caf4af7c7bc.html#a87863b6335a62cb9eaa28caf4af7c7bc" target="_top" xlink:title="org.cobbzilla.util.reflect.\lReflectionUtil.toMap">
<polygon fill="none" stroke="#000000" points="355,-226.5 355,-256.5 475,-256.5 475,-226.5 355,-226.5"/>
<text text-anchor="start" x="363" y="-244.5" font-family="Helvetica,sans-Serif" font-size="10.00" fill="#000000">org.cobbzilla.util.reflect.</text>
<text text-anchor="middle" x="415" y="-233.5" font-family="Helvetica,sans-Serif" font-size="10.00" fill="#000000">ReflectionUtil.toMap</text>
</a>
</g>
</g>
<!-- Node2&#45;&gt;Node6 -->
<g id="edge5" class="edge">
<title>Node2&#45;&gt;Node6</title>
<path fill="none" stroke="#191970" d="M306.4535,-233.6167C322.4258,-234.7767 339.2467,-235.9984 354.7516,-237.1244"/>
<polygon fill="#191970" stroke="#191970" points="306.3297,-230.0986 296.1024,-232.865 305.8225,-237.0802 306.3297,-230.0986"/>
</g>
<!-- Node7 -->
<g id="node7" class="node">
<title>Node7</title>
<g id="a_node7"><a xlink:href="../../d5/dc2/classorg_1_1cobbzilla_1_1util_1_1io_1_1JarTrimmer_af3d4171c0e315e009d3436a293f5d9b1.html#af3d4171c0e315e009d3436a293f5d9b1" target="_top" xlink:title="org.cobbzilla.util.io.Jar\lTrimmer.trim">
<polygon fill="none" stroke="#000000" points="358,-177.5 358,-207.5 472,-207.5 472,-177.5 358,-177.5"/>
<text text-anchor="start" x="366" y="-195.5" font-family="Helvetica,sans-Serif" font-size="10.00" fill="#000000">org.cobbzilla.util.io.Jar</text>
<text text-anchor="middle" x="415" y="-184.5" font-family="Helvetica,sans-Serif" font-size="10.00" fill="#000000">Trimmer.trim</text>
</a>
</g>
</g>
<!-- Node2&#45;&gt;Node7 -->
<g id="edge6" class="edge">
<title>Node2&#45;&gt;Node7</title>
<path fill="none" stroke="#191970" d="M306.0562,-214.4105C323.1925,-210.9641 341.3281,-207.3167 357.7826,-204.0074"/>
<polygon fill="#191970" stroke="#191970" points="305.2159,-211.0093 296.1024,-216.4124 306.5962,-217.8719 305.2159,-211.0093"/>
</g>
<!-- Node8 -->
<g id="node8" class="node">
<title>Node8</title>
<g id="a_node8"><a xlink:href="../../d1/dcf/classorg_1_1cobbzilla_1_1util_1_1io_1_1main_1_1JarTrimmerMain_a0d79049130f7976bee1c1f8eb13c1538.html#a0d79049130f7976bee1c1f8eb13c1538" target="_top" xlink:title="org.cobbzilla.util.io.main.\lJarTrimmerMain.run">
<polygon fill="none" stroke="#000000" points="518,-177.5 518,-207.5 643,-207.5 643,-177.5 518,-177.5"/>
<text text-anchor="start" x="526" y="-195.5" font-family="Helvetica,sans-Serif" font-size="10.00" fill="#000000">org.cobbzilla.util.io.main.</text>
<text text-anchor="middle" x="580.5" y="-184.5" font-family="Helvetica,sans-Serif" font-size="10.00" fill="#000000">JarTrimmerMain.run</text>
</a>
</g>
</g>
<!-- Node7&#45;&gt;Node8 -->
<g id="edge7" class="edge">
<title>Node7&#45;&gt;Node8</title>
<path fill="none" stroke="#191970" d="M482.5382,-192.5C494.2029,-192.5 506.2852,-192.5 517.8145,-192.5"/>
<polygon fill="#191970" stroke="#191970" points="482.4194,-189.0001 472.4194,-192.5 482.4194,-196.0001 482.4194,-189.0001"/>
</g>
</g>
</svg>
        <g id="navigator" transform="translate(0 0)" fill="#404254">
                <rect fill="#f2f5e9" fill-opacity="0.5" stroke="#606060" stroke-width=".5" x="0" y="0" width="60" height="60"/>
                <use id="zoomplus" xlink:href="#zoomPlus" x="17" y="9" onmousedown="handleZoom(evt,'in')"/>
                <use id="zoomminus" xlink:href="#zoomMin" x="42" y="9" onmousedown="handleZoom(evt,'out')"/>
                <use id="reset" xlink:href="#resetDef" x="30" y="36" onmousedown="handleReset()"/>
                <g id="arrowUp" xlink:href="#dirArrow" transform="translate(30 24)" onmousedown="handlePan(0,-1)">
                  <use xlink:href="#rim" fill="#404040">
                        <set attributeName="fill" to="#808080" begin="arrowUp.mouseover" end="arrowUp.mouseout"/>
                  </use>
                  <path fill="none" stroke="white" stroke-width="1.5" d="M0,-3.0v7 M-2.5,-0.5L0,-3.0L2.5,-0.5"/>
                </g>
                <g id="arrowRight" xlink:href="#dirArrow" transform="rotate(90) translate(36 -43)" onmousedown="handlePan(1,0)">
                  <use xlink:href="#rim" fill="#404040">
                        <set attributeName="fill" to="#808080" begin="arrowRight.mouseover" end="arrowRight.mouseout"/>
                  </use>
                  <path fill="none" stroke="white" stroke-width="1.5" d="M0,-3.0v7 M-2.5,-0.5L0,-3.0L2.5,-0.5"/>
                </g>
                <g id="arrowDown" xlink:href="#dirArrow" transform="rotate(180) translate(-30 -48)" onmousedown="handlePan(0,1)">
                  <use xlink:href="#rim" fill="#404040">
                        <set attributeName="fill" to="#808080" begin="arrowDown.mouseover" end="arrowDown.mouseout"/>
                  </use>
                  <path fill="none" stroke="white" stroke-width="1.5" d="M0,-3.0v7 M-2.5,-0.5L0,-3.0L2.5,-0.5"/>
                </g>
                <g id="arrowLeft" xlink:href="#dirArrow" transform="rotate(270) translate(-36 17)" onmousedown="handlePan(-1,0)">
                  <use xlink:href="#rim" fill="#404040">
                        <set attributeName="fill" to="#808080" begin="arrowLeft.mouseover" end="arrowLeft.mouseout"/>
                  </use>
                  <path fill="none" stroke="white" stroke-width="1.5" d="M0,-3.0v7 M-2.5,-0.5L0,-3.0L2.5,-0.5"/>
                </g>
        </g>
        <svg viewBox="0 0 15 15" width="100%" height="30px" preserveAspectRatio="xMaxYMin meet">
         <g id="arrow_out" transform="scale(0.3 0.3)">
          <a xlink:href="classorg_1_1cobbzilla_1_1util_1_1reflect_1_1ReflectionUtil_af6f8b7bb888cb263ced2fda7d1e06007_af6f8b7bb888cb263ced2fda7d1e06007_icgraph_org.svg" target="_base">
           <rect id="button" ry="5" rx="5" y="6" x="6" height="38" width="38"
                fill="#f2f5e9" fill-opacity="0.5" stroke="#606060" stroke-width="1.0"/>
           <path id="arrow"
             d="M 11.500037,31.436501 C 11.940474,20.09759 22.043105,11.32322 32.158766,21.979434 L 37.068811,17.246167 C 37.068811,17.246167 37.088388,32 37.088388,32 L 22.160133,31.978069 C 22.160133,31.978069 26.997745,27.140456 26.997745,27.140456 C 18.528582,18.264221 13.291696,25.230495 11.500037,31.436501 z"
             style="fill:#404040;"/>
          </a>
         </g>
        </svg>
</svg>
