<?xml version="1.0" encoding="UTF-8" standalone="no"?>
<!DOCTYPE svg PUBLIC "-//W3C//DTD SVG 1.1//EN"
 "http://www.w3.org/Graphics/SVG/1.1/DTD/svg11.dtd">
<!-- Generated by graphviz version 2.40.1 (20161225.0304)
 -->
<!-- Title: org.cobbzilla.util.reflect.ReflectionUtil.copyFromMap Pages: 1 -->
<!--zoomable 186 -->
<svg id="main" version="1.1" xmlns="http://www.w3.org/2000/svg" xmlns:xlink="http://www.w3.org/1999/xlink" xml:space="preserve" onload="init(evt)">
<style type="text/css"><![CDATA[
.edge:hover path { stroke: red; }
.edge:hover polygon { stroke: red; fill: red; }
]]></style>
<script type="text/javascript"><![CDATA[
var edges = document.getElementsByTagName('g');
if (edges && edges.length) {
  for (var i=0;i<edges.length;i++) {
    if (edges[i].id.substr(0,4)=='edge') {
      edges[i].setAttribute('class','edge');
    }
  }
}
]]></script>
        <defs>
                <circle id="rim" cx="0" cy="0" r="7"/>
                <circle id="rim2" cx="0" cy="0" r="3.5"/>
                <g id="zoomPlus">
                        <use xlink:href="#rim" fill="#404040">
                                <set attributeName="fill" to="#808080" begin="zoomplus.mouseover" end="zoomplus.mouseout"/>
                        </use>
                        <path d="M-4,0h8M0,-4v8" fill="none" stroke="white" stroke-width="1.5" pointer-events="none"/>
                </g>
                <g id="zoomMin">
                        <use xlink:href="#rim" fill="#404040">
                                <set attributeName="fill" to="#808080" begin="zoomminus.mouseover" end="zoomminus.mouseout"/>
                        </use>
                        <path d="M-4,0h8" fill="none" stroke="white" stroke-width="1.5" pointer-events="none"/>
                </g>
                <g id="dirArrow">
                        <path fill="none" stroke="white" stroke-width="1.5" d="M0,-3.0v7 M-2.5,-0.5L0,-3.0L2.5,-0.5"/>
                </g>
               <g id="resetDef">
                       <use xlink:href="#rim2" fill="#404040">
                               <set attributeName="fill" to="#808080" begin="reset.mouseover" end="reset.mouseout"/>
                       </use>
               </g>
        </defs>

<script type="text/javascript">
var viewWidth = 725;
var viewHeight = 186;
var sectionId = 'dynsection-0';
</script>
<script xlink:href="../../svgpan.js"/>
<svg id="graph" class="graph">
<g id="viewport">
<title>org.cobbzilla.util.reflect.ReflectionUtil.copyFromMap</title>
<!-- Node0 -->
<g id="node1" class="node">
<title>Node0</title>
<polygon fill="#bfbfbf" stroke="#000000" points="0,-73.5 0,-103.5 141,-103.5 141,-73.5 0,-73.5"/>
<text text-anchor="start" x="8" y="-91.5" font-family="Helvetica,sans-Serif" font-size="10.00" fill="#000000">org.cobbzilla.util.reflect.</text>
<text text-anchor="middle" x="70.5" y="-80.5" font-family="Helvetica,sans-Serif" font-size="10.00" fill="#000000">ReflectionUtil.copyFromMap</text>
</g>
<!-- Node1 -->
<g id="node2" class="node">
<title>Node1</title>
<g id="a_node2"><a xlink:href="../../de/d45/classorg_1_1cobbzilla_1_1util_1_1reflect_1_1ReflectionUtil_a9e164a3a571e48e299d23723cd9a5521.html#a9e164a3a571e48e299d23723cd9a5521" target="_top" xlink:title="Call setters on an object based on keys and values in a Map. ">
<polygon fill="none" stroke="#000000" points="184.5,-147.5 184.5,-177.5 325.5,-177.5 325.5,-147.5 184.5,-147.5"/>
<text text-anchor="start" x="192.5" y="-165.5" font-family="Helvetica,sans-Serif" font-size="10.00" fill="#000000">org.cobbzilla.util.reflect.</text>
<text text-anchor="middle" x="255" y="-154.5" font-family="Helvetica,sans-Serif" font-size="10.00" fill="#000000">ReflectionUtil.copyFromMap</text>
</a>
</g>
</g>
<!-- Node0&#45;&gt;Node1 -->
<g id="edge1" class="edge">
<title>Node0&#45;&gt;Node1</title>
<path fill="none" stroke="#191970" d="M99.8532,-103.6461C120.9752,-114.206 150.3257,-128.1933 177,-138.5 182.1212,-140.4788 187.4791,-142.4084 192.8849,-144.2584"/>
<polygon fill="#191970" stroke="#191970" points="192.0324,-147.6633 202.6259,-147.4958 194.2402,-141.0205 192.0324,-147.6633"/>
</g>
<!-- Node2 -->
<g id="node3" class="node">
<title>Node2</title>
<g id="a_node3"><a xlink:href="../../de/d45/classorg_1_1cobbzilla_1_1util_1_1reflect_1_1ReflectionUtil_ad444cb470d5751c36b89014a3a7450e8.html#ad444cb470d5751c36b89014a3a7450e8" target="_top" xlink:title="org.cobbzilla.util.reflect.\lReflectionUtil.getPrimitiveClass">
<polygon fill="none" stroke="#000000" points="177,-98.5 177,-128.5 333,-128.5 333,-98.5 177,-98.5"/>
<text text-anchor="start" x="185" y="-116.5" font-family="Helvetica,sans-Serif" font-size="10.00" fill="#000000">org.cobbzilla.util.reflect.</text>
<text text-anchor="middle" x="255" y="-105.5" font-family="Helvetica,sans-Serif" font-size="10.00" fill="#000000">ReflectionUtil.getPrimitiveClass</text>
</a>
</g>
</g>
<!-- Node0&#45;&gt;Node2 -->
<g id="edge2" class="edge">
<title>Node0&#45;&gt;Node2</title>
<path fill="none" stroke="#191970" d="M141.0413,-98.0584C149.4498,-99.1978 158.1134,-100.3717 166.7306,-101.5394"/>
<polygon fill="#191970" stroke="#191970" points="166.4277,-105.0302 176.8071,-102.9048 167.3677,-98.0936 166.4277,-105.0302"/>
</g>
<!-- Node5 -->
<g id="node6" class="node">
<title>Node5</title>
<g id="a_node6"><a xlink:href="../../de/d45/classorg_1_1cobbzilla_1_1util_1_1reflect_1_1ReflectionUtil_a58b570c9d70d2de8ba29f3adba81a8e6.html#a58b570c9d70d2de8ba29f3adba81a8e6" target="_top" xlink:title="org.cobbzilla.util.reflect.\lReflectionUtil.hasGetter">
<polygon fill="none" stroke="#000000" points="194,-49.5 194,-79.5 316,-79.5 316,-49.5 194,-49.5"/>
<text text-anchor="start" x="202" y="-67.5" font-family="Helvetica,sans-Serif" font-size="10.00" fill="#000000">org.cobbzilla.util.reflect.</text>
<text text-anchor="middle" x="255" y="-56.5" font-family="Helvetica,sans-Serif" font-size="10.00" fill="#000000">ReflectionUtil.hasGetter</text>
</a>
</g>
</g>
<!-- Node0&#45;&gt;Node5 -->
<g id="edge6" class="edge">
<title>Node0&#45;&gt;Node5</title>
<path fill="none" stroke="#191970" d="M141.0413,-79.3239C155.0393,-77.503 169.7443,-75.5902 183.7653,-73.7663"/>
<polygon fill="#191970" stroke="#191970" points="184.369,-77.2173 193.834,-72.4566 183.466,-70.2758 184.369,-77.2173"/>
</g>
<!-- Node7 -->
<g id="node8" class="node">
<title>Node7</title>
<g id="a_node8"><a xlink:href="../../de/d45/classorg_1_1cobbzilla_1_1util_1_1reflect_1_1ReflectionUtil_a430893f9007455dfda877e18348f2076.html#a430893f9007455dfda877e18348f2076" target="_top" xlink:title="org.cobbzilla.util.reflect.\lReflectionUtil.hasSetter">
<polygon fill="none" stroke="#000000" points="194.5,-.5 194.5,-30.5 315.5,-30.5 315.5,-.5 194.5,-.5"/>
<text text-anchor="start" x="202.5" y="-18.5" font-family="Helvetica,sans-Serif" font-size="10.00" fill="#000000">org.cobbzilla.util.reflect.</text>
<text text-anchor="middle" x="255" y="-7.5" font-family="Helvetica,sans-Serif" font-size="10.00" fill="#000000">ReflectionUtil.hasSetter</text>
</a>
</g>
</g>
<!-- Node0&#45;&gt;Node7 -->
<g id="edge8" class="edge">
<title>Node0&#45;&gt;Node7</title>
<path fill="none" stroke="#191970" d="M100.342,-73.4759C121.4453,-63.1729 150.572,-49.5944 177,-39.5 182.1288,-37.541 187.492,-35.6252 192.9013,-33.7844"/>
<polygon fill="#191970" stroke="#191970" points="194.2532,-37.0237 202.6469,-30.5587 192.0536,-30.3783 194.2532,-37.0237"/>
</g>
<!-- Node3 -->
<g id="node4" class="node">
<title>Node3</title>
<g id="a_node4"><a xlink:href="../../de/d45/classorg_1_1cobbzilla_1_1util_1_1reflect_1_1ReflectionUtil_a8bed16b678e7540a780cca7b25366cf2.html#a8bed16b678e7540a780cca7b25366cf2" target="_top" xlink:title="org.cobbzilla.util.reflect.\lReflectionUtil.arrayClass">
<polygon fill="none" stroke="#000000" points="402,-98.5 402,-128.5 528,-128.5 528,-98.5 402,-98.5"/>
<text text-anchor="start" x="410" y="-116.5" font-family="Helvetica,sans-Serif" font-size="10.00" fill="#000000">org.cobbzilla.util.reflect.</text>
<text text-anchor="middle" x="465" y="-105.5" font-family="Helvetica,sans-Serif" font-size="10.00" fill="#000000">ReflectionUtil.arrayClass</text>
</a>
</g>
</g>
<!-- Node2&#45;&gt;Node3 -->
<g id="edge3" class="edge">
<title>Node2&#45;&gt;Node3</title>
<path fill="none" stroke="#191970" d="M333.1962,-113.5C352.3727,-113.5 372.8276,-113.5 391.7613,-113.5"/>
<polygon fill="#191970" stroke="#191970" points="391.8063,-117.0001 401.8062,-113.5 391.8062,-110.0001 391.8063,-117.0001"/>
</g>
<!-- Node4 -->
<g id="node5" class="node">
<title>Node4</title>
<g id="a_node5"><a xlink:href="../../de/d45/classorg_1_1cobbzilla_1_1util_1_1reflect_1_1ReflectionUtil_a338547db6a57a9c5f0a658cbc73b0079.html#a338547db6a57a9c5f0a658cbc73b0079" target="_top" xlink:title="Do a Class.forName and only throw unchecked exceptions. ">
<polygon fill="none" stroke="#000000" points="597,-98.5 597,-128.5 717,-128.5 717,-98.5 597,-98.5"/>
<text text-anchor="start" x="605" y="-116.5" font-family="Helvetica,sans-Serif" font-size="10.00" fill="#000000">org.cobbzilla.util.reflect.</text>
<text text-anchor="middle" x="657" y="-105.5" font-family="Helvetica,sans-Serif" font-size="10.00" fill="#000000">ReflectionUtil.forName</text>
</a>
</g>
</g>
<!-- Node3&#45;&gt;Node4 -->
<g id="edge4" class="edge">
<title>Node3&#45;&gt;Node4</title>
<path fill="none" stroke="#191970" d="M528.1339,-107.1146C546.8486,-106.6836 567.4585,-106.6347 586.6029,-106.9681"/>
<polygon fill="#191970" stroke="#191970" points="586.691,-110.4706 596.7634,-107.1848 586.8404,-103.4722 586.691,-110.4706"/>
</g>
<!-- Node4&#45;&gt;Node3 -->
<g id="edge5" class="edge">
<title>Node4&#45;&gt;Node3</title>
<path fill="none" stroke="#191970" d="M596.7634,-119.8152C578.2544,-120.2859 557.6759,-120.3744 538.3885,-120.0808"/>
<polygon fill="#191970" stroke="#191970" points="538.1988,-116.5766 528.1339,-119.8854 538.0654,-123.5753 538.1988,-116.5766"/>
</g>
<!-- Node6 -->
<g id="node7" class="node">
<title>Node6</title>
<g id="a_node7"><a xlink:href="../../de/d45/classorg_1_1cobbzilla_1_1util_1_1reflect_1_1ReflectionUtil_ad1861d10610bdbfd08ec4c2fc5abb667.html#ad1861d10610bdbfd08ec4c2fc5abb667" target="_top" xlink:title="org.cobbzilla.util.reflect.\lReflectionUtil.getAccessorMethodName">
<polygon fill="none" stroke="#000000" points="369,-25.5 369,-55.5 561,-55.5 561,-25.5 369,-25.5"/>
<text text-anchor="start" x="377" y="-43.5" font-family="Helvetica,sans-Serif" font-size="10.00" fill="#000000">org.cobbzilla.util.reflect.</text>
<text text-anchor="middle" x="465" y="-32.5" font-family="Helvetica,sans-Serif" font-size="10.00" fill="#000000">ReflectionUtil.getAccessorMethodName</text>
</a>
</g>
</g>
<!-- Node5&#45;&gt;Node6 -->
<g id="edge7" class="edge">
<title>Node5&#45;&gt;Node6</title>
<path fill="none" stroke="#191970" d="M316.0228,-57.526C329.4043,-55.9967 343.9489,-54.3344 358.5314,-52.6678"/>
<polygon fill="#191970" stroke="#191970" points="359.0812,-56.1279 368.6191,-51.515 358.2863,-49.1732 359.0812,-56.1279"/>
</g>
<!-- Node7&#45;&gt;Node6 -->
<g id="edge9" class="edge">
<title>Node7&#45;&gt;Node6</title>
<path fill="none" stroke="#191970" d="M315.7407,-22.731C329.2245,-24.3363 343.9002,-26.0834 358.6123,-27.8348"/>
<polygon fill="#191970" stroke="#191970" points="358.4455,-31.3396 368.7892,-29.0463 359.2731,-24.3887 358.4455,-31.3396"/>
</g>
</g>
</svg>
        <g id="navigator" transform="translate(0 0)" fill="#404254">
                <rect fill="#f2f5e9" fill-opacity="0.5" stroke="#606060" stroke-width=".5" x="0" y="0" width="60" height="60"/>
                <use id="zoomplus" xlink:href="#zoomPlus" x="17" y="9" onmousedown="handleZoom(evt,'in')"/>
                <use id="zoomminus" xlink:href="#zoomMin" x="42" y="9" onmousedown="handleZoom(evt,'out')"/>
                <use id="reset" xlink:href="#resetDef" x="30" y="36" onmousedown="handleReset()"/>
                <g id="arrowUp" xlink:href="#dirArrow" transform="translate(30 24)" onmousedown="handlePan(0,-1)">
                  <use xlink:href="#rim" fill="#404040">
                        <set attributeName="fill" to="#808080" begin="arrowUp.mouseover" end="arrowUp.mouseout"/>
                  </use>
                  <path fill="none" stroke="white" stroke-width="1.5" d="M0,-3.0v7 M-2.5,-0.5L0,-3.0L2.5,-0.5"/>
                </g>
                <g id="arrowRight" xlink:href="#dirArrow" transform="rotate(90) translate(36 -43)" onmousedown="handlePan(1,0)">
                  <use xlink:href="#rim" fill="#404040">
                        <set attributeName="fill" to="#808080" begin="arrowRight.mouseover" end="arrowRight.mouseout"/>
                  </use>
                  <path fill="none" stroke="white" stroke-width="1.5" d="M0,-3.0v7 M-2.5,-0.5L0,-3.0L2.5,-0.5"/>
                </g>
                <g id="arrowDown" xlink:href="#dirArrow" transform="rotate(180) translate(-30 -48)" onmousedown="handlePan(0,1)">
                  <use xlink:href="#rim" fill="#404040">
                        <set attributeName="fill" to="#808080" begin="arrowDown.mouseover" end="arrowDown.mouseout"/>
                  </use>
                  <path fill="none" stroke="white" stroke-width="1.5" d="M0,-3.0v7 M-2.5,-0.5L0,-3.0L2.5,-0.5"/>
                </g>
                <g id="arrowLeft" xlink:href="#dirArrow" transform="rotate(270) translate(-36 17)" onmousedown="handlePan(-1,0)">
                  <use xlink:href="#rim" fill="#404040">
                        <set attributeName="fill" to="#808080" begin="arrowLeft.mouseover" end="arrowLeft.mouseout"/>
                  </use>
                  <path fill="none" stroke="white" stroke-width="1.5" d="M0,-3.0v7 M-2.5,-0.5L0,-3.0L2.5,-0.5"/>
                </g>
        </g>
        <svg viewBox="0 0 15 15" width="100%" height="30px" preserveAspectRatio="xMaxYMin meet">
         <g id="arrow_out" transform="scale(0.3 0.3)">
          <a xlink:href="classorg_1_1cobbzilla_1_1util_1_1reflect_1_1ReflectionUtil_ae7514d13fa5eba034a4270ffcd54fb5c_ae7514d13fa5eba034a4270ffcd54fb5c_cgraph_org.svg" target="_base">
           <rect id="button" ry="5" rx="5" y="6" x="6" height="38" width="38"
                fill="#f2f5e9" fill-opacity="0.5" stroke="#606060" stroke-width="1.0"/>
           <path id="arrow"
             d="M 11.500037,31.436501 C 11.940474,20.09759 22.043105,11.32322 32.158766,21.979434 L 37.068811,17.246167 C 37.068811,17.246167 37.088388,32 37.088388,32 L 22.160133,31.978069 C 22.160133,31.978069 26.997745,27.140456 26.997745,27.140456 C 18.528582,18.264221 13.291696,25.230495 11.500037,31.436501 z"
             style="fill:#404040;"/>
          </a>
         </g>
        </svg>
</svg>
