<?xml version="1.0" encoding="UTF-8" standalone="no"?>
<!DOCTYPE svg PUBLIC "-//W3C//DTD SVG 1.1//EN"
 "http://www.w3.org/Graphics/SVG/1.1/DTD/svg11.dtd">
<!-- Generated by graphviz version 2.40.1 (20161225.0304)
 -->
<!-- Title: org.cobbzilla.util.reflect.ReflectionUtil.invoke_get Pages: 1 -->
<svg width="684pt" height="309pt"
 viewBox="0.00 0.00 684.00 309.02" xmlns="http://www.w3.org/2000/svg" xmlns:xlink="http://www.w3.org/1999/xlink">
<g id="graph0" class="graph" transform="scale(1 1) rotate(0) translate(4 305.0211)">
<title>org.cobbzilla.util.reflect.ReflectionUtil.invoke_get</title>
<!-- Node2 -->
<g id="node1" class="node">
<title>Node2</title>
<polygon fill="#bfbfbf" stroke="#000000" points="0,-93.5 0,-123.5 126,-123.5 126,-93.5 0,-93.5"/>
<text text-anchor="start" x="8" y="-111.5" font-family="Helvetica,sans-Serif" font-size="10.00" fill="#000000">org.cobbzilla.util.reflect.</text>
<text text-anchor="middle" x="63" y="-100.5" font-family="Helvetica,sans-Serif" font-size="10.00" fill="#000000">ReflectionUtil.invoke_get</text>
</g>
<!-- Node3 -->
<g id="node2" class="node">
<title>Node3</title>
<g id="a_node2"><a xlink:href="../../de/d45/classorg_1_1cobbzilla_1_1util_1_1reflect_1_1ReflectionUtil_a875bf838f367197bc1b9c5d46e5122bd.html#a875bf838f367197bc1b9c5d46e5122bd" target="_top" xlink:title="Call a getter. ">
<polygon fill="none" stroke="#000000" points="162,-166.5 162,-196.5 282,-196.5 282,-166.5 162,-166.5"/>
<text text-anchor="start" x="170" y="-184.5" font-family="Helvetica,sans-Serif" font-size="10.00" fill="#000000">org.cobbzilla.util.reflect.</text>
<text text-anchor="middle" x="222" y="-173.5" font-family="Helvetica,sans-Serif" font-size="10.00" fill="#000000">ReflectionUtil.get</text>
</a>
</g>
</g>
<!-- Node2&#45;&gt;Node3 -->
<g id="edge1" class="edge">
<title>Node2&#45;&gt;Node3</title>
<path fill="none" stroke="#191970" d="M105.2748,-127.9092C131.5389,-139.9676 164.804,-155.2402 189.0973,-166.3937"/>
<polygon fill="#191970" stroke="#191970" points="106.4932,-124.6174 95.9449,-123.6256 103.5725,-130.9789 106.4932,-124.6174"/>
</g>
<!-- Node9 -->
<g id="node8" class="node">
<title>Node9</title>
<g id="a_node8"><a xlink:href="../../de/d45/classorg_1_1cobbzilla_1_1util_1_1reflect_1_1ReflectionUtil_adf3aadf0c5ba71fa48a1c2d9511fd91a.html#adf3aadf0c5ba71fa48a1c2d9511fd91a" target="_top" xlink:title="org.cobbzilla.util.reflect.\lReflectionUtil.getTarget">
<polygon fill="none" stroke="#000000" points="162,-44.5 162,-74.5 282,-74.5 282,-44.5 162,-44.5"/>
<text text-anchor="start" x="170" y="-62.5" font-family="Helvetica,sans-Serif" font-size="10.00" fill="#000000">org.cobbzilla.util.reflect.</text>
<text text-anchor="middle" x="222" y="-51.5" font-family="Helvetica,sans-Serif" font-size="10.00" fill="#000000">ReflectionUtil.getTarget</text>
</a>
</g>
</g>
<!-- Node2&#45;&gt;Node9 -->
<g id="edge7" class="edge">
<title>Node2&#45;&gt;Node9</title>
<path fill="none" stroke="#191970" d="M121.7746,-90.3871C138.6782,-85.1778 156.9257,-79.5543 173.1592,-74.5516"/>
<polygon fill="#191970" stroke="#191970" points="120.5283,-87.1086 112.0026,-93.3986 122.5899,-93.7982 120.5283,-87.1086"/>
</g>
<!-- Node4 -->
<g id="node3" class="node">
<title>Node4</title>
<g id="a_node3"><a xlink:href="../../d9/dd8/classorg_1_1cobbzilla_1_1util_1_1reflect_1_1FieldComparator_ace72ccf2e89d1c082f921f440796e111.html#ace72ccf2e89d1c082f921f440796e111" target="_top" xlink:title="org.cobbzilla.util.reflect.\lFieldComparator.compare">
<polygon fill="none" stroke="#000000" points="341.5,-191.5 341.5,-221.5 470.5,-221.5 470.5,-191.5 341.5,-191.5"/>
<text text-anchor="start" x="349.5" y="-209.5" font-family="Helvetica,sans-Serif" font-size="10.00" fill="#000000">org.cobbzilla.util.reflect.</text>
<text text-anchor="middle" x="406" y="-198.5" font-family="Helvetica,sans-Serif" font-size="10.00" fill="#000000">FieldComparator.compare</text>
</a>
</g>
</g>
<!-- Node3&#45;&gt;Node4 -->
<g id="edge2" class="edge">
<title>Node3&#45;&gt;Node4</title>
<path fill="none" stroke="#191970" d="M292.1926,-191.037C308.3934,-193.2382 325.5516,-195.5695 341.4963,-197.7359"/>
<polygon fill="#191970" stroke="#191970" points="292.6287,-187.5642 282.2485,-189.6859 291.6862,-194.5005 292.6287,-187.5642"/>
</g>
<!-- Node5 -->
<g id="node4" class="node">
<title>Node5</title>
<g id="a_node4"><a xlink:href="../../d1/dbd/classorg_1_1cobbzilla_1_1util_1_1jdbc_1_1TypedResultSetBean_ac37bfcab24b605aa67730ad92c6bcab5.html#ac37bfcab24b605aa67730ad92c6bcab5" target="_top" xlink:title="org.cobbzilla.util.jdbc.\lTypedResultSetBean.map">
<polygon fill="none" stroke="#000000" points="340.5,-142.5 340.5,-172.5 471.5,-172.5 471.5,-142.5 340.5,-142.5"/>
<text text-anchor="start" x="348.5" y="-160.5" font-family="Helvetica,sans-Serif" font-size="10.00" fill="#000000">org.cobbzilla.util.jdbc.</text>
<text text-anchor="middle" x="406" y="-149.5" font-family="Helvetica,sans-Serif" font-size="10.00" fill="#000000">TypedResultSetBean.map</text>
</a>
</g>
</g>
<!-- Node3&#45;&gt;Node5 -->
<g id="edge3" class="edge">
<title>Node3&#45;&gt;Node5</title>
<path fill="none" stroke="#191970" d="M292.4182,-172.315C308.12,-170.267 324.7107,-168.1029 340.2172,-166.0804"/>
<polygon fill="#191970" stroke="#191970" points="291.7118,-168.8774 282.2485,-173.6415 292.6172,-175.8186 291.7118,-168.8774"/>
</g>
<!-- Node6 -->
<g id="node5" class="node">
<title>Node6</title>
<g id="a_node5"><a xlink:href="../../d0/d1b/classorg_1_1cobbzilla_1_1util_1_1handlebars_1_1HandlebarsUtil_af8f3012d152b38e5472c15975a8921e2.html#af8f3012d152b38e5472c15975a8921e2" target="_top" xlink:title="org.cobbzilla.util.handlebars.\lHandlebarsUtil.registerUtilityHelpers">
<polygon fill="none" stroke="#000000" points="318,-93.5 318,-123.5 494,-123.5 494,-93.5 318,-93.5"/>
<text text-anchor="start" x="326" y="-111.5" font-family="Helvetica,sans-Serif" font-size="10.00" fill="#000000">org.cobbzilla.util.handlebars.</text>
<text text-anchor="middle" x="406" y="-100.5" font-family="Helvetica,sans-Serif" font-size="10.00" fill="#000000">HandlebarsUtil.registerUtilityHelpers</text>
</a>
</g>
</g>
<!-- Node3&#45;&gt;Node6 -->
<g id="edge4" class="edge">
<title>Node3&#45;&gt;Node6</title>
<path fill="none" stroke="#191970" d="M257.5782,-161.7161C275.3669,-152.3429 297.438,-141.4805 318,-133.5 327.3279,-129.8796 337.3943,-126.5271 347.2706,-123.5299"/>
<polygon fill="#191970" stroke="#191970" points="255.8693,-158.6608 248.6969,-166.4587 259.1667,-164.8356 255.8693,-158.6608"/>
</g>
<!-- Node7 -->
<g id="node6" class="node">
<title>Node7</title>
<g id="a_node6"><a xlink:href="../../d9/d53/classorg_1_1cobbzilla_1_1util_1_1reflect_1_1ReflectionUtilTest_a118873a54a51f1d753c779570548305d.html#a118873a54a51f1d753c779570548305d" target="_top" xlink:title="org.cobbzilla.util.reflect.\lReflectionUtilTest.testGetSet">
<polygon fill="none" stroke="#000000" points="530,-191.5 530,-221.5 676,-221.5 676,-191.5 530,-191.5"/>
<text text-anchor="start" x="538" y="-209.5" font-family="Helvetica,sans-Serif" font-size="10.00" fill="#000000">org.cobbzilla.util.reflect.</text>
<text text-anchor="middle" x="603" y="-198.5" font-family="Helvetica,sans-Serif" font-size="10.00" fill="#000000">ReflectionUtilTest.testGetSet</text>
</a>
</g>
</g>
<!-- Node3&#45;&gt;Node7 -->
<g id="edge5" class="edge">
<title>Node3&#45;&gt;Node7</title>
<path fill="none" stroke="#191970" d="M236.5275,-205.1116C252.9137,-229.2437 282.0276,-265.2746 318,-280.5 390.0355,-310.9893 419.2302,-303.4826 494,-280.5 531.3858,-269.0084 567.4604,-239.8514 587.2946,-221.7562"/>
<polygon fill="#191970" stroke="#191970" points="239.2968,-202.9522 230.8828,-196.5135 233.4451,-206.7939 239.2968,-202.9522"/>
</g>
<!-- Node8 -->
<g id="node7" class="node">
<title>Node8</title>
<g id="a_node7"><a xlink:href="../../d9/dc3/classorg_1_1cobbzilla_1_1util_1_1collection_1_1FieldTransformer_a6e91983e06bf4432f0978ddb2b95dd73.html#a6e91983e06bf4432f0978ddb2b95dd73" target="_top" xlink:title="org.cobbzilla.util.collection.\lFieldTransformer.transform">
<polygon fill="none" stroke="#000000" points="339,-240.5 339,-270.5 473,-270.5 473,-240.5 339,-240.5"/>
<text text-anchor="start" x="347" y="-258.5" font-family="Helvetica,sans-Serif" font-size="10.00" fill="#000000">org.cobbzilla.util.collection.</text>
<text text-anchor="middle" x="406" y="-247.5" font-family="Helvetica,sans-Serif" font-size="10.00" fill="#000000">FieldTransformer.transform</text>
</a>
</g>
</g>
<!-- Node3&#45;&gt;Node8 -->
<g id="edge6" class="edge">
<title>Node3&#45;&gt;Node8</title>
<path fill="none" stroke="#191970" d="M256.3045,-201.6515C274.2518,-211.6009 296.8409,-223.2149 318,-231.5 326.2576,-234.7334 335.1134,-237.7006 343.9106,-240.3633"/>
<polygon fill="#191970" stroke="#191970" points="257.8059,-198.4803 247.3745,-196.6267 254.3732,-204.5809 257.8059,-198.4803"/>
</g>
<!-- Node10 -->
<g id="node9" class="node">
<title>Node10</title>
<g id="a_node9"><a xlink:href="../../de/d45/classorg_1_1cobbzilla_1_1util_1_1reflect_1_1ReflectionUtil_a84d2273bd96944773694999afac67e0f.html#a84d2273bd96944773694999afac67e0f" target="_top" xlink:title="Call a setter with a hint as to what the type should be. ">
<polygon fill="none" stroke="#000000" points="543,-.5 543,-30.5 663,-30.5 663,-.5 543,-.5"/>
<text text-anchor="start" x="551" y="-18.5" font-family="Helvetica,sans-Serif" font-size="10.00" fill="#000000">org.cobbzilla.util.reflect.</text>
<text text-anchor="middle" x="603" y="-7.5" font-family="Helvetica,sans-Serif" font-size="10.00" fill="#000000">ReflectionUtil.set</text>
</a>
</g>
</g>
<!-- Node9&#45;&gt;Node10 -->
<g id="edge8" class="edge">
<title>Node9&#45;&gt;Node10</title>
<path fill="none" stroke="#191970" d="M282.1881,-41.9809C293.9781,-39.074 306.312,-36.3942 318,-34.5 394.9744,-22.0255 484.9187,-17.7072 542.8557,-16.2318"/>
<polygon fill="#191970" stroke="#191970" points="281.2654,-38.6041 272.4385,-44.4638 282.993,-45.3875 281.2654,-38.6041"/>
</g>
<!-- Node11 -->
<g id="node10" class="node">
<title>Node11</title>
<g id="a_node10"><a xlink:href="../../de/d45/classorg_1_1cobbzilla_1_1util_1_1reflect_1_1ReflectionUtil_a87f8ef4046a1b11a6ec353b0231e8409.html#a87f8ef4046a1b11a6ec353b0231e8409" target="_top" xlink:title="org.cobbzilla.util.reflect.\lReflectionUtil.setNull">
<polygon fill="none" stroke="#000000" points="346,-44.5 346,-74.5 466,-74.5 466,-44.5 346,-44.5"/>
<text text-anchor="start" x="354" y="-62.5" font-family="Helvetica,sans-Serif" font-size="10.00" fill="#000000">org.cobbzilla.util.reflect.</text>
<text text-anchor="middle" x="406" y="-51.5" font-family="Helvetica,sans-Serif" font-size="10.00" fill="#000000">ReflectionUtil.setNull</text>
</a>
</g>
</g>
<!-- Node9&#45;&gt;Node11 -->
<g id="edge9" class="edge">
<title>Node9&#45;&gt;Node11</title>
<path fill="none" stroke="#191970" d="M292.479,-59.5C310.1097,-59.5 328.8576,-59.5 345.9306,-59.5"/>
<polygon fill="#191970" stroke="#191970" points="292.2485,-56.0001 282.2485,-59.5 292.2484,-63.0001 292.2485,-56.0001"/>
</g>
<!-- Node11&#45;&gt;Node7 -->
<g id="edge12" class="edge">
<title>Node11&#45;&gt;Node7</title>
<path fill="none" stroke="#191970" d="M475.6791,-74.3552C482.09,-76.9386 488.3065,-79.9624 494,-83.5 539.8048,-111.9602 577.3874,-165.4394 593.9221,-191.483"/>
<polygon fill="#191970" stroke="#191970" points="476.7792,-71.0308 466.1855,-70.8771 474.3711,-77.6036 476.7792,-71.0308"/>
</g>
<!-- Node11&#45;&gt;Node10 -->
<g id="edge11" class="edge">
<title>Node11&#45;&gt;Node10</title>
<path fill="none" stroke="#191970" d="M476.0482,-43.8547C497.8831,-38.9779 521.7582,-33.6454 542.8524,-28.934"/>
<polygon fill="#191970" stroke="#191970" points="475.1735,-40.4638 466.1769,-46.0595 476.6994,-47.2954 475.1735,-40.4638"/>
</g>
<!-- Node12 -->
<g id="node11" class="node">
<title>Node12</title>
<g id="a_node11"><a xlink:href="../../de/d45/classorg_1_1cobbzilla_1_1util_1_1reflect_1_1ReflectionUtil_a95dbce7eb7134748d3b5e840d5c12e76.html#a95dbce7eb7134748d3b5e840d5c12e76" target="_top" xlink:title="org.cobbzilla.util.reflect.\lReflectionUtil.scrubStrings">
<polygon fill="none" stroke="#000000" points="536,-49.5 536,-79.5 670,-79.5 670,-49.5 536,-49.5"/>
<text text-anchor="start" x="544" y="-67.5" font-family="Helvetica,sans-Serif" font-size="10.00" fill="#000000">org.cobbzilla.util.reflect.</text>
<text text-anchor="middle" x="603" y="-56.5" font-family="Helvetica,sans-Serif" font-size="10.00" fill="#000000">ReflectionUtil.scrubStrings</text>
</a>
</g>
</g>
<!-- Node11&#45;&gt;Node12 -->
<g id="edge10" class="edge">
<title>Node11&#45;&gt;Node12</title>
<path fill="none" stroke="#191970" d="M476.1855,-61.2814C495.64,-61.7751 516.7049,-62.3098 535.974,-62.7988"/>
<polygon fill="#191970" stroke="#191970" points="476.2625,-57.7823 466.1769,-61.0273 476.0849,-64.78 476.2625,-57.7823"/>
</g>
</g>
</svg>
