<?xml version="1.0" encoding="UTF-8" standalone="no"?>
<!DOCTYPE svg PUBLIC "-//W3C//DTD SVG 1.1//EN"
 "http://www.w3.org/Graphics/SVG/1.1/DTD/svg11.dtd">
<!-- Generated by graphviz version 2.40.1 (20161225.0304)
 -->
<!-- Title: org.cobbzilla.util.reflect.ReflectionUtil.caller Pages: 1 -->
<svg width="450pt" height="61pt"
 viewBox="0.00 0.00 450.00 61.00" xmlns="http://www.w3.org/2000/svg" xmlns:xlink="http://www.w3.org/1999/xlink">
<g id="graph0" class="graph" transform="scale(1 1) rotate(0) translate(4 57)">
<title>org.cobbzilla.util.reflect.ReflectionUtil.caller</title>
<!-- Node0 -->
<g id="node1" class="node">
<title>Node0</title>
<polygon fill="#bfbfbf" stroke="#000000" points="0,-22.5 0,-52.5 120,-52.5 120,-22.5 0,-22.5"/>
<text text-anchor="start" x="8" y="-40.5" font-family="Helvetica,sans-Serif" font-size="10.00" fill="#000000">org.cobbzilla.util.reflect.</text>
<text text-anchor="middle" x="60" y="-29.5" font-family="Helvetica,sans-Serif" font-size="10.00" fill="#000000">ReflectionUtil.caller</text>
</g>
<!-- Node1 -->
<g id="node2" class="node">
<title>Node1</title>
<g id="a_node2"><a xlink:href="../../de/d45/classorg_1_1cobbzilla_1_1util_1_1reflect_1_1ReflectionUtil_a8a7a830de491f62dd3560333e5823264.html#a8a7a830de491f62dd3560333e5823264" target="_top" xlink:title="org.cobbzilla.util.reflect.\lReflectionUtil.caller">
<polygon fill="none" stroke="#000000" points="322,-22.5 322,-52.5 442,-52.5 442,-22.5 322,-22.5"/>
<text text-anchor="start" x="330" y="-40.5" font-family="Helvetica,sans-Serif" font-size="10.00" fill="#000000">org.cobbzilla.util.reflect.</text>
<text text-anchor="middle" x="382" y="-29.5" font-family="Helvetica,sans-Serif" font-size="10.00" fill="#000000">ReflectionUtil.caller</text>
</a>
</g>
</g>
<!-- Node0&#45;&gt;Node1 -->
<g id="edge1" class="edge">
<title>Node0&#45;&gt;Node1</title>
<path fill="none" stroke="#191970" d="M120.1653,-39.6685C132.041,-40.0151 144.4124,-40.319 156,-40.5 213.7707,-41.4024 228.2293,-41.4024 286,-40.5 294.3286,-40.3699 303.0621,-40.1763 311.7254,-39.9491"/>
<polygon fill="#191970" stroke="#191970" points="311.9356,-43.4447 321.8347,-39.6685 311.7414,-36.4474 311.9356,-43.4447"/>
</g>
<!-- Node2 -->
<g id="node3" class="node">
<title>Node2</title>
<g id="a_node3"><a xlink:href="../../de/d45/classorg_1_1cobbzilla_1_1util_1_1reflect_1_1ReflectionUtil_acf220570496f23c35990dd4507df2da8.html#acf220570496f23c35990dd4507df2da8" target="_top" xlink:title="org.cobbzilla.util.reflect.\lReflectionUtil.callerFrame">
<polygon fill="none" stroke="#000000" points="156,-.5 156,-30.5 286,-30.5 286,-.5 156,-.5"/>
<text text-anchor="start" x="164" y="-18.5" font-family="Helvetica,sans-Serif" font-size="10.00" fill="#000000">org.cobbzilla.util.reflect.</text>
<text text-anchor="middle" x="221" y="-7.5" font-family="Helvetica,sans-Serif" font-size="10.00" fill="#000000">ReflectionUtil.callerFrame</text>
</a>
</g>
</g>
<!-- Node0&#45;&gt;Node2 -->
<g id="edge2" class="edge">
<title>Node0&#45;&gt;Node2</title>
<path fill="none" stroke="#191970" d="M120.4085,-29.2454C128.7457,-28.1062 137.39,-26.925 145.9518,-25.755"/>
<polygon fill="#191970" stroke="#191970" points="146.5071,-29.2118 155.9412,-24.39 145.5593,-22.2762 146.5071,-29.2118"/>
</g>
<!-- Node2&#45;&gt;Node1 -->
<g id="edge3" class="edge">
<title>Node2&#45;&gt;Node1</title>
<path fill="none" stroke="#191970" d="M286.0208,-24.3848C294.5517,-25.5505 303.3235,-26.7492 311.9335,-27.9257"/>
<polygon fill="#191970" stroke="#191970" points="311.5604,-31.4072 321.9422,-29.2933 312.5082,-24.4716 311.5604,-31.4072"/>
</g>
</g>
</svg>
