<?xml version="1.0" encoding="UTF-8" standalone="no"?>
<!DOCTYPE svg PUBLIC "-//W3C//DTD SVG 1.1//EN"
 "http://www.w3.org/Graphics/SVG/1.1/DTD/svg11.dtd">
<!-- Generated by graphviz version 2.40.1 (20161225.0304)
 -->
<!-- Title: org.cobbzilla.util.reflect.ReflectionUtil.setNull Pages: 1 -->
<svg width="310pt" height="137pt"
 viewBox="0.00 0.00 310.00 137.00" xmlns="http://www.w3.org/2000/svg" xmlns:xlink="http://www.w3.org/1999/xlink">
<g id="graph0" class="graph" transform="scale(1 1) rotate(0) translate(4 133)">
<title>org.cobbzilla.util.reflect.ReflectionUtil.setNull</title>
<!-- Node6 -->
<g id="node1" class="node">
<title>Node6</title>
<polygon fill="#bfbfbf" stroke="#000000" points="0,-49.5 0,-79.5 120,-79.5 120,-49.5 0,-49.5"/>
<text text-anchor="start" x="8" y="-67.5" font-family="Helvetica,sans-Serif" font-size="10.00" fill="#000000">org.cobbzilla.util.reflect.</text>
<text text-anchor="middle" x="60" y="-56.5" font-family="Helvetica,sans-Serif" font-size="10.00" fill="#000000">ReflectionUtil.setNull</text>
</g>
<!-- Node7 -->
<g id="node2" class="node">
<title>Node7</title>
<g id="a_node2"><a xlink:href="../../de/d45/classorg_1_1cobbzilla_1_1util_1_1reflect_1_1ReflectionUtil_a95dbce7eb7134748d3b5e840d5c12e76.html#a95dbce7eb7134748d3b5e840d5c12e76" target="_top" xlink:title="org.cobbzilla.util.reflect.\lReflectionUtil.scrubStrings">
<polygon fill="none" stroke="#000000" points="162,-98.5 162,-128.5 296,-128.5 296,-98.5 162,-98.5"/>
<text text-anchor="start" x="170" y="-116.5" font-family="Helvetica,sans-Serif" font-size="10.00" fill="#000000">org.cobbzilla.util.reflect.</text>
<text text-anchor="middle" x="229" y="-105.5" font-family="Helvetica,sans-Serif" font-size="10.00" fill="#000000">ReflectionUtil.scrubStrings</text>
</a>
</g>
</g>
<!-- Node6&#45;&gt;Node7 -->
<g id="edge1" class="edge">
<title>Node6&#45;&gt;Node7</title>
<path fill="none" stroke="#191970" d="M121.7163,-82.3941C139.8936,-87.6644 159.5911,-93.3755 177.0874,-98.4484"/>
<polygon fill="#191970" stroke="#191970" points="122.6637,-79.0247 112.0846,-79.6014 120.7143,-85.7478 122.6637,-79.0247"/>
</g>
<!-- Node8 -->
<g id="node3" class="node">
<title>Node8</title>
<g id="a_node3"><a xlink:href="../../de/d45/classorg_1_1cobbzilla_1_1util_1_1reflect_1_1ReflectionUtil_a84d2273bd96944773694999afac67e0f.html#a84d2273bd96944773694999afac67e0f" target="_top" xlink:title="Call a setter with a hint as to what the type should be. ">
<polygon fill="none" stroke="#000000" points="169,-49.5 169,-79.5 289,-79.5 289,-49.5 169,-49.5"/>
<text text-anchor="start" x="177" y="-67.5" font-family="Helvetica,sans-Serif" font-size="10.00" fill="#000000">org.cobbzilla.util.reflect.</text>
<text text-anchor="middle" x="229" y="-56.5" font-family="Helvetica,sans-Serif" font-size="10.00" fill="#000000">ReflectionUtil.set</text>
</a>
</g>
</g>
<!-- Node6&#45;&gt;Node8 -->
<g id="edge2" class="edge">
<title>Node6&#45;&gt;Node8</title>
<path fill="none" stroke="#191970" d="M130.2291,-64.5C143.0606,-64.5 156.3443,-64.5 168.8499,-64.5"/>
<polygon fill="#191970" stroke="#191970" points="130.059,-61.0001 120.0589,-64.5 130.0589,-68.0001 130.059,-61.0001"/>
</g>
<!-- Node9 -->
<g id="node4" class="node">
<title>Node9</title>
<g id="a_node4"><a xlink:href="../../d9/d53/classorg_1_1cobbzilla_1_1util_1_1reflect_1_1ReflectionUtilTest_a118873a54a51f1d753c779570548305d.html#a118873a54a51f1d753c779570548305d" target="_top" xlink:title="org.cobbzilla.util.reflect.\lReflectionUtilTest.testGetSet">
<polygon fill="none" stroke="#000000" points="156,-.5 156,-30.5 302,-30.5 302,-.5 156,-.5"/>
<text text-anchor="start" x="164" y="-18.5" font-family="Helvetica,sans-Serif" font-size="10.00" fill="#000000">org.cobbzilla.util.reflect.</text>
<text text-anchor="middle" x="229" y="-7.5" font-family="Helvetica,sans-Serif" font-size="10.00" fill="#000000">ReflectionUtilTest.testGetSet</text>
</a>
</g>
</g>
<!-- Node6&#45;&gt;Node9 -->
<g id="edge3" class="edge">
<title>Node6&#45;&gt;Node9</title>
<path fill="none" stroke="#191970" d="M121.7163,-46.6059C139.8936,-41.3356 159.5911,-35.6245 177.0874,-30.5516"/>
<polygon fill="#191970" stroke="#191970" points="120.7143,-43.2522 112.0846,-49.3986 122.6637,-49.9753 120.7143,-43.2522"/>
</g>
</g>
</svg>
