<?xml version="1.0" encoding="UTF-8" standalone="no"?>
<!DOCTYPE svg PUBLIC "-//W3C//DTD SVG 1.1//EN"
 "http://www.w3.org/Graphics/SVG/1.1/DTD/svg11.dtd">
<!-- Generated by graphviz version 2.40.1 (20161225.0304)
 -->
<!-- Title: org.cobbzilla.util.reflect.ReflectionUtil.getTarget Pages: 1 -->
<svg width="466pt" height="137pt"
 viewBox="0.00 0.00 466.00 137.00" xmlns="http://www.w3.org/2000/svg" xmlns:xlink="http://www.w3.org/1999/xlink">
<g id="graph0" class="graph" transform="scale(1 1) rotate(0) translate(4 133)">
<title>org.cobbzilla.util.reflect.ReflectionUtil.getTarget</title>
<!-- Node3 -->
<g id="node1" class="node">
<title>Node3</title>
<polygon fill="#bfbfbf" stroke="#000000" points="0,-73.5 0,-103.5 120,-103.5 120,-73.5 0,-73.5"/>
<text text-anchor="start" x="8" y="-91.5" font-family="Helvetica,sans-Serif" font-size="10.00" fill="#000000">org.cobbzilla.util.reflect.</text>
<text text-anchor="middle" x="60" y="-80.5" font-family="Helvetica,sans-Serif" font-size="10.00" fill="#000000">ReflectionUtil.getTarget</text>
</g>
<!-- Node4 -->
<g id="node2" class="node">
<title>Node4</title>
<g id="a_node2"><a xlink:href="../../de/d45/classorg_1_1cobbzilla_1_1util_1_1reflect_1_1ReflectionUtil_a84d2273bd96944773694999afac67e0f.html#a84d2273bd96944773694999afac67e0f" target="_top" xlink:title="Call a setter with a hint as to what the type should be. ">
<polygon fill="none" stroke="#000000" points="325,-98.5 325,-128.5 445,-128.5 445,-98.5 325,-98.5"/>
<text text-anchor="start" x="333" y="-116.5" font-family="Helvetica,sans-Serif" font-size="10.00" fill="#000000">org.cobbzilla.util.reflect.</text>
<text text-anchor="middle" x="385" y="-105.5" font-family="Helvetica,sans-Serif" font-size="10.00" fill="#000000">ReflectionUtil.set</text>
</a>
</g>
</g>
<!-- Node3&#45;&gt;Node4 -->
<g id="edge1" class="edge">
<title>Node3&#45;&gt;Node4</title>
<path fill="none" stroke="#191970" d="M130.5614,-93.9278C188.6108,-98.3931 269.9895,-104.653 324.955,-108.8812"/>
<polygon fill="#191970" stroke="#191970" points="130.6074,-90.4211 120.3683,-93.1437 130.0704,-97.4005 130.6074,-90.4211"/>
</g>
<!-- Node5 -->
<g id="node3" class="node">
<title>Node5</title>
<g id="a_node3"><a xlink:href="../../de/d45/classorg_1_1cobbzilla_1_1util_1_1reflect_1_1ReflectionUtil_a87f8ef4046a1b11a6ec353b0231e8409.html#a87f8ef4046a1b11a6ec353b0231e8409" target="_top" xlink:title="org.cobbzilla.util.reflect.\lReflectionUtil.setNull">
<polygon fill="none" stroke="#000000" points="156,-51.5 156,-81.5 276,-81.5 276,-51.5 156,-51.5"/>
<text text-anchor="start" x="164" y="-69.5" font-family="Helvetica,sans-Serif" font-size="10.00" fill="#000000">org.cobbzilla.util.reflect.</text>
<text text-anchor="middle" x="216" y="-58.5" font-family="Helvetica,sans-Serif" font-size="10.00" fill="#000000">ReflectionUtil.setNull</text>
</a>
</g>
</g>
<!-- Node3&#45;&gt;Node5 -->
<g id="edge2" class="edge">
<title>Node3&#45;&gt;Node5</title>
<path fill="none" stroke="#191970" d="M130.2594,-78.5916C138.8019,-77.3869 147.4694,-76.1646 155.8467,-74.9832"/>
<polygon fill="#191970" stroke="#191970" points="129.7269,-75.132 120.3137,-79.9942 130.7045,-82.0634 129.7269,-75.132"/>
</g>
<!-- Node5&#45;&gt;Node4 -->
<g id="edge4" class="edge">
<title>Node5&#45;&gt;Node4</title>
<path fill="none" stroke="#191970" d="M279.7222,-84.2216C296.6103,-88.9182 314.6789,-93.9432 330.9955,-98.481"/>
<polygon fill="#191970" stroke="#191970" points="280.5095,-80.8077 269.9373,-81.5003 278.6339,-87.5518 280.5095,-80.8077"/>
</g>
<!-- Node6 -->
<g id="node4" class="node">
<title>Node6</title>
<g id="a_node4"><a xlink:href="../../de/d45/classorg_1_1cobbzilla_1_1util_1_1reflect_1_1ReflectionUtil_a95dbce7eb7134748d3b5e840d5c12e76.html#a95dbce7eb7134748d3b5e840d5c12e76" target="_top" xlink:title="org.cobbzilla.util.reflect.\lReflectionUtil.scrubStrings">
<polygon fill="none" stroke="#000000" points="318,-49.5 318,-79.5 452,-79.5 452,-49.5 318,-49.5"/>
<text text-anchor="start" x="326" y="-67.5" font-family="Helvetica,sans-Serif" font-size="10.00" fill="#000000">org.cobbzilla.util.reflect.</text>
<text text-anchor="middle" x="385" y="-56.5" font-family="Helvetica,sans-Serif" font-size="10.00" fill="#000000">ReflectionUtil.scrubStrings</text>
</a>
</g>
</g>
<!-- Node5&#45;&gt;Node6 -->
<g id="edge3" class="edge">
<title>Node5&#45;&gt;Node6</title>
<path fill="none" stroke="#191970" d="M286.382,-65.6671C296.8285,-65.5435 307.5712,-65.4163 317.9469,-65.2935"/>
<polygon fill="#191970" stroke="#191970" points="286.0168,-62.1711 276.0589,-65.7892 286.0997,-69.1706 286.0168,-62.1711"/>
</g>
<!-- Node7 -->
<g id="node5" class="node">
<title>Node7</title>
<g id="a_node5"><a xlink:href="../../d9/d53/classorg_1_1cobbzilla_1_1util_1_1reflect_1_1ReflectionUtilTest_a118873a54a51f1d753c779570548305d.html#a118873a54a51f1d753c779570548305d" target="_top" xlink:title="org.cobbzilla.util.reflect.\lReflectionUtilTest.testGetSet">
<polygon fill="none" stroke="#000000" points="312,-.5 312,-30.5 458,-30.5 458,-.5 312,-.5"/>
<text text-anchor="start" x="320" y="-18.5" font-family="Helvetica,sans-Serif" font-size="10.00" fill="#000000">org.cobbzilla.util.reflect.</text>
<text text-anchor="middle" x="385" y="-7.5" font-family="Helvetica,sans-Serif" font-size="10.00" fill="#000000">ReflectionUtilTest.testGetSet</text>
</a>
</g>
</g>
<!-- Node5&#45;&gt;Node7 -->
<g id="edge5" class="edge">
<title>Node5&#45;&gt;Node7</title>
<path fill="none" stroke="#191970" d="M275.5036,-48.5433C295.0412,-42.6473 316.5381,-36.1601 335.2726,-30.5065"/>
<polygon fill="#191970" stroke="#191970" points="274.3539,-45.2343 265.7915,-51.4742 276.3763,-51.9358 274.3539,-45.2343"/>
</g>
</g>
</svg>
