<?xml version="1.0" encoding="UTF-8" standalone="no"?>
<!DOCTYPE svg PUBLIC "-//W3C//DTD SVG 1.1//EN"
 "http://www.w3.org/Graphics/SVG/1.1/DTD/svg11.dtd">
<!-- Generated by graphviz version 2.40.1 (20161225.0304)
 -->
<!-- Title: org.cobbzilla.util.reflect.ReflectionUtil.callerFrame Pages: 1 -->
<svg width="335pt" height="137pt"
 viewBox="0.00 0.00 335.00 137.00" xmlns="http://www.w3.org/2000/svg" xmlns:xlink="http://www.w3.org/1999/xlink">
<g id="graph0" class="graph" transform="scale(1 1) rotate(0) translate(4 133)">
<title>org.cobbzilla.util.reflect.ReflectionUtil.callerFrame</title>
<!-- Node2 -->
<g id="node1" class="node">
<title>Node2</title>
<polygon fill="#bfbfbf" stroke="#000000" points="0,-49.5 0,-79.5 130,-79.5 130,-49.5 0,-49.5"/>
<text text-anchor="start" x="8" y="-67.5" font-family="Helvetica,sans-Serif" font-size="10.00" fill="#000000">org.cobbzilla.util.reflect.</text>
<text text-anchor="middle" x="65" y="-56.5" font-family="Helvetica,sans-Serif" font-size="10.00" fill="#000000">ReflectionUtil.callerFrame</text>
</g>
<!-- Node3 -->
<g id="node2" class="node">
<title>Node3</title>
<g id="a_node2"><a xlink:href="../../de/d45/classorg_1_1cobbzilla_1_1util_1_1reflect_1_1ReflectionUtil_af0dbb3b4cad5a359c9814945b550eb78.html#af0dbb3b4cad5a359c9814945b550eb78" target="_top" xlink:title="org.cobbzilla.util.reflect.\lReflectionUtil.caller">
<polygon fill="none" stroke="#000000" points="186.5,-98.5 186.5,-128.5 306.5,-128.5 306.5,-98.5 186.5,-98.5"/>
<text text-anchor="start" x="194.5" y="-116.5" font-family="Helvetica,sans-Serif" font-size="10.00" fill="#000000">org.cobbzilla.util.reflect.</text>
<text text-anchor="middle" x="246.5" y="-105.5" font-family="Helvetica,sans-Serif" font-size="10.00" fill="#000000">ReflectionUtil.caller</text>
</a>
</g>
</g>
<!-- Node2&#45;&gt;Node3 -->
<g id="edge1" class="edge">
<title>Node2&#45;&gt;Node3</title>
<path fill="none" stroke="#191970" d="M130.7418,-82.2485C150.4128,-87.5591 171.7841,-93.3288 190.7477,-98.4484"/>
<polygon fill="#191970" stroke="#191970" points="131.5036,-78.8289 120.937,-79.6014 129.6791,-85.5869 131.5036,-78.8289"/>
</g>
<!-- Node4 -->
<g id="node3" class="node">
<title>Node4</title>
<g id="a_node3"><a xlink:href="../../de/d45/classorg_1_1cobbzilla_1_1util_1_1reflect_1_1ReflectionUtil_a7a151abed9c8a9a1f2329a62adf6658b.html#a7a151abed9c8a9a1f2329a62adf6658b" target="_top" xlink:title="org.cobbzilla.util.reflect.\lReflectionUtil.callerClassName">
<polygon fill="none" stroke="#000000" points="169.5,-49.5 169.5,-79.5 323.5,-79.5 323.5,-49.5 169.5,-49.5"/>
<text text-anchor="start" x="177.5" y="-67.5" font-family="Helvetica,sans-Serif" font-size="10.00" fill="#000000">org.cobbzilla.util.reflect.</text>
<text text-anchor="middle" x="246.5" y="-56.5" font-family="Helvetica,sans-Serif" font-size="10.00" fill="#000000">ReflectionUtil.callerClassName</text>
</a>
</g>
</g>
<!-- Node2&#45;&gt;Node4 -->
<g id="edge2" class="edge">
<title>Node2&#45;&gt;Node4</title>
<path fill="none" stroke="#191970" d="M140.2797,-64.5C149.8459,-64.5 159.6484,-64.5 169.2449,-64.5"/>
<polygon fill="#191970" stroke="#191970" points="140.013,-61.0001 130.013,-64.5 140.013,-68.0001 140.013,-61.0001"/>
</g>
<!-- Node5 -->
<g id="node4" class="node">
<title>Node5</title>
<g id="a_node4"><a xlink:href="../../de/d45/classorg_1_1cobbzilla_1_1util_1_1reflect_1_1ReflectionUtil_a28dda748869c5d1b6da800c167dd5fb1.html#a28dda748869c5d1b6da800c167dd5fb1" target="_top" xlink:title="org.cobbzilla.util.reflect.\lReflectionUtil.callerMethodName">
<polygon fill="none" stroke="#000000" points="166,-.5 166,-30.5 327,-30.5 327,-.5 166,-.5"/>
<text text-anchor="start" x="174" y="-18.5" font-family="Helvetica,sans-Serif" font-size="10.00" fill="#000000">org.cobbzilla.util.reflect.</text>
<text text-anchor="middle" x="246.5" y="-7.5" font-family="Helvetica,sans-Serif" font-size="10.00" fill="#000000">ReflectionUtil.callerMethodName</text>
</a>
</g>
</g>
<!-- Node2&#45;&gt;Node5 -->
<g id="edge3" class="edge">
<title>Node2&#45;&gt;Node5</title>
<path fill="none" stroke="#191970" d="M130.7418,-46.7515C150.4128,-41.4409 171.7841,-35.6712 190.7477,-30.5516"/>
<polygon fill="#191970" stroke="#191970" points="129.6791,-43.4131 120.937,-49.3986 131.5036,-50.1711 129.6791,-43.4131"/>
</g>
</g>
</svg>
