<?xml version="1.0" encoding="UTF-8" standalone="no"?>
<!DOCTYPE svg PUBLIC "-//W3C//DTD SVG 1.1//EN"
 "http://www.w3.org/Graphics/SVG/1.1/DTD/svg11.dtd">
<!-- Generated by graphviz version 2.40.1 (20161225.0304)
 -->
<!-- Title: org.cobbzilla.util.reflect.ReflectionUtil.getSimpleClassName Pages: 1 -->
<svg width="684pt" height="39pt"
 viewBox="0.00 0.00 684.00 39.00" xmlns="http://www.w3.org/2000/svg" xmlns:xlink="http://www.w3.org/1999/xlink">
<g id="graph0" class="graph" transform="scale(1 1) rotate(0) translate(4 35)">
<title>org.cobbzilla.util.reflect.ReflectionUtil.getSimpleClassName</title>
<!-- Node0 -->
<g id="node1" class="node">
<title>Node0</title>
<polygon fill="#bfbfbf" stroke="#000000" points="0,-.5 0,-30.5 174,-30.5 174,-.5 0,-.5"/>
<text text-anchor="start" x="8" y="-18.5" font-family="Helvetica,sans-Serif" font-size="10.00" fill="#000000">org.cobbzilla.util.reflect.</text>
<text text-anchor="middle" x="87" y="-7.5" font-family="Helvetica,sans-Serif" font-size="10.00" fill="#000000">ReflectionUtil.getSimpleClassName</text>
</g>
<!-- Node1 -->
<g id="node2" class="node">
<title>Node1</title>
<g id="a_node2"><a xlink:href="../../de/d45/classorg_1_1cobbzilla_1_1util_1_1reflect_1_1ReflectionUtil_af5159cae006c5cad32a7c0e8e215b5c0.html#af5159cae006c5cad32a7c0e8e215b5c0" target="_top" xlink:title="org.cobbzilla.util.reflect.\lReflectionUtil.getSimpleClass">
<polygon fill="none" stroke="#000000" points="210,-.5 210,-30.5 358,-30.5 358,-.5 210,-.5"/>
<text text-anchor="start" x="218" y="-18.5" font-family="Helvetica,sans-Serif" font-size="10.00" fill="#000000">org.cobbzilla.util.reflect.</text>
<text text-anchor="middle" x="284" y="-7.5" font-family="Helvetica,sans-Serif" font-size="10.00" fill="#000000">ReflectionUtil.getSimpleClass</text>
</a>
</g>
</g>
<!-- Node0&#45;&gt;Node1 -->
<g id="edge1" class="edge">
<title>Node0&#45;&gt;Node1</title>
<path fill="none" stroke="#191970" d="M174.2674,-15.5C182.6817,-15.5 191.2068,-15.5 199.5928,-15.5"/>
<polygon fill="#191970" stroke="#191970" points="199.7361,-19.0001 209.736,-15.5 199.736,-12.0001 199.7361,-19.0001"/>
</g>
<!-- Node2 -->
<g id="node3" class="node">
<title>Node2</title>
<g id="a_node3"><a xlink:href="../../de/d45/classorg_1_1cobbzilla_1_1util_1_1reflect_1_1ReflectionUtil_a338547db6a57a9c5f0a658cbc73b0079.html#a338547db6a57a9c5f0a658cbc73b0079" target="_top" xlink:title="Do a Class.forName and only throw unchecked exceptions. ">
<polygon fill="none" stroke="#000000" points="394,-.5 394,-30.5 514,-30.5 514,-.5 394,-.5"/>
<text text-anchor="start" x="402" y="-18.5" font-family="Helvetica,sans-Serif" font-size="10.00" fill="#000000">org.cobbzilla.util.reflect.</text>
<text text-anchor="middle" x="454" y="-7.5" font-family="Helvetica,sans-Serif" font-size="10.00" fill="#000000">ReflectionUtil.forName</text>
</a>
</g>
</g>
<!-- Node1&#45;&gt;Node2 -->
<g id="edge2" class="edge">
<title>Node1&#45;&gt;Node2</title>
<path fill="none" stroke="#191970" d="M358.0699,-15.5C366.5939,-15.5 375.2669,-15.5 383.7385,-15.5"/>
<polygon fill="#191970" stroke="#191970" points="383.9485,-19.0001 393.9485,-15.5 383.9485,-12.0001 383.9485,-19.0001"/>
</g>
<!-- Node3 -->
<g id="node4" class="node">
<title>Node3</title>
<g id="a_node4"><a xlink:href="../../de/d45/classorg_1_1cobbzilla_1_1util_1_1reflect_1_1ReflectionUtil_a8bed16b678e7540a780cca7b25366cf2.html#a8bed16b678e7540a780cca7b25366cf2" target="_top" xlink:title="org.cobbzilla.util.reflect.\lReflectionUtil.arrayClass">
<polygon fill="none" stroke="#000000" points="550,-.5 550,-30.5 676,-30.5 676,-.5 550,-.5"/>
<text text-anchor="start" x="558" y="-18.5" font-family="Helvetica,sans-Serif" font-size="10.00" fill="#000000">org.cobbzilla.util.reflect.</text>
<text text-anchor="middle" x="613" y="-7.5" font-family="Helvetica,sans-Serif" font-size="10.00" fill="#000000">ReflectionUtil.arrayClass</text>
</a>
</g>
</g>
<!-- Node2&#45;&gt;Node3 -->
<g id="edge3" class="edge">
<title>Node2&#45;&gt;Node3</title>
<path fill="none" stroke="#191970" d="M514.1111,-8.9317C522.5177,-8.7712 531.2324,-8.7171 539.8471,-8.7692"/>
<polygon fill="#191970" stroke="#191970" points="539.8518,-12.2693 549.8896,-8.8791 539.9285,-5.2697 539.8518,-12.2693"/>
</g>
<!-- Node3&#45;&gt;Node2 -->
<g id="edge4" class="edge">
<title>Node3&#45;&gt;Node2</title>
<path fill="none" stroke="#191970" d="M549.8896,-22.1209C541.5078,-22.2547 532.8719,-22.2845 524.3768,-22.2103"/>
<polygon fill="#191970" stroke="#191970" points="524.1586,-18.7071 514.1111,-22.0683 524.0617,-25.7064 524.1586,-18.7071"/>
</g>
</g>
</svg>
