<?xml version="1.0" encoding="UTF-8" standalone="no"?>
<!DOCTYPE svg PUBLIC "-//W3C//DTD SVG 1.1//EN"
 "http://www.w3.org/Graphics/SVG/1.1/DTD/svg11.dtd">
<!-- Generated by graphviz version 2.40.1 (20161225.0304)
 -->
<!-- Title: org.cobbzilla.util.reflect.ReflectionUtil.caller Pages: 1 -->
<svg width="491pt" height="137pt"
 viewBox="0.00 0.00 491.00 137.00" xmlns="http://www.w3.org/2000/svg" xmlns:xlink="http://www.w3.org/1999/xlink">
<g id="graph0" class="graph" transform="scale(1 1) rotate(0) translate(4 133)">
<title>org.cobbzilla.util.reflect.ReflectionUtil.caller</title>
<!-- Node1 -->
<g id="node1" class="node">
<title>Node1</title>
<polygon fill="#bfbfbf" stroke="#000000" points="0,-73.5 0,-103.5 120,-103.5 120,-73.5 0,-73.5"/>
<text text-anchor="start" x="8" y="-91.5" font-family="Helvetica,sans-Serif" font-size="10.00" fill="#000000">org.cobbzilla.util.reflect.</text>
<text text-anchor="middle" x="60" y="-80.5" font-family="Helvetica,sans-Serif" font-size="10.00" fill="#000000">ReflectionUtil.caller</text>
</g>
<!-- Node2 -->
<g id="node2" class="node">
<title>Node2</title>
<g id="a_node2"><a xlink:href="../../de/d45/classorg_1_1cobbzilla_1_1util_1_1reflect_1_1ReflectionUtil_aa715dca05ecea8fe1c8e449cd88b9b11.html#aa715dca05ecea8fe1c8e449cd88b9b11" target="_top" xlink:title="org.cobbzilla.util.reflect.\lReflectionUtil.caller">
<polygon fill="none" stroke="#000000" points="161,-98.5 161,-128.5 281,-128.5 281,-98.5 161,-98.5"/>
<text text-anchor="start" x="169" y="-116.5" font-family="Helvetica,sans-Serif" font-size="10.00" fill="#000000">org.cobbzilla.util.reflect.</text>
<text text-anchor="middle" x="221" y="-105.5" font-family="Helvetica,sans-Serif" font-size="10.00" fill="#000000">ReflectionUtil.caller</text>
</a>
</g>
</g>
<!-- Node1&#45;&gt;Node2 -->
<g id="edge1" class="edge">
<title>Node1&#45;&gt;Node2</title>
<path fill="none" stroke="#191970" d="M130.433,-99.4368C140.5537,-101.0083 150.8899,-102.6133 160.7884,-104.1504"/>
<polygon fill="#191970" stroke="#191970" points="130.8272,-95.9561 120.4085,-97.8802 129.753,-102.8732 130.8272,-95.9561"/>
</g>
<!-- Node3 -->
<g id="node3" class="node">
<title>Node3</title>
<g id="a_node3"><a xlink:href="../../de/d45/classorg_1_1cobbzilla_1_1util_1_1reflect_1_1ReflectionUtil_acf220570496f23c35990dd4507df2da8.html#acf220570496f23c35990dd4507df2da8" target="_top" xlink:title="org.cobbzilla.util.reflect.\lReflectionUtil.callerFrame">
<polygon fill="none" stroke="#000000" points="156,-49.5 156,-79.5 286,-79.5 286,-49.5 156,-49.5"/>
<text text-anchor="start" x="164" y="-67.5" font-family="Helvetica,sans-Serif" font-size="10.00" fill="#000000">org.cobbzilla.util.reflect.</text>
<text text-anchor="middle" x="221" y="-56.5" font-family="Helvetica,sans-Serif" font-size="10.00" fill="#000000">ReflectionUtil.callerFrame</text>
</a>
</g>
</g>
<!-- Node1&#45;&gt;Node3 -->
<g id="edge2" class="edge">
<title>Node1&#45;&gt;Node3</title>
<path fill="none" stroke="#191970" d="M130.3134,-78.0185C138.8313,-76.7488 147.5038,-75.456 155.9412,-74.1982"/>
<polygon fill="#191970" stroke="#191970" points="129.7832,-74.5588 120.4085,-79.495 130.8153,-81.4823 129.7832,-74.5588"/>
</g>
<!-- Node4 -->
<g id="node4" class="node">
<title>Node4</title>
<g id="a_node4"><a xlink:href="../../de/d45/classorg_1_1cobbzilla_1_1util_1_1reflect_1_1ReflectionUtil_af0dbb3b4cad5a359c9814945b550eb78.html#af0dbb3b4cad5a359c9814945b550eb78" target="_top" xlink:title="org.cobbzilla.util.reflect.\lReflectionUtil.caller">
<polygon fill="none" stroke="#000000" points="342.5,-98.5 342.5,-128.5 462.5,-128.5 462.5,-98.5 342.5,-98.5"/>
<text text-anchor="start" x="350.5" y="-116.5" font-family="Helvetica,sans-Serif" font-size="10.00" fill="#000000">org.cobbzilla.util.reflect.</text>
<text text-anchor="middle" x="402.5" y="-105.5" font-family="Helvetica,sans-Serif" font-size="10.00" fill="#000000">ReflectionUtil.caller</text>
</a>
</g>
</g>
<!-- Node3&#45;&gt;Node4 -->
<g id="edge3" class="edge">
<title>Node3&#45;&gt;Node4</title>
<path fill="none" stroke="#191970" d="M286.7418,-82.2485C306.4128,-87.5591 327.7841,-93.3288 346.7477,-98.4484"/>
<polygon fill="#191970" stroke="#191970" points="287.5036,-78.8289 276.937,-79.6014 285.6791,-85.5869 287.5036,-78.8289"/>
</g>
<!-- Node5 -->
<g id="node5" class="node">
<title>Node5</title>
<g id="a_node5"><a xlink:href="../../de/d45/classorg_1_1cobbzilla_1_1util_1_1reflect_1_1ReflectionUtil_a7a151abed9c8a9a1f2329a62adf6658b.html#a7a151abed9c8a9a1f2329a62adf6658b" target="_top" xlink:title="org.cobbzilla.util.reflect.\lReflectionUtil.callerClassName">
<polygon fill="none" stroke="#000000" points="325.5,-49.5 325.5,-79.5 479.5,-79.5 479.5,-49.5 325.5,-49.5"/>
<text text-anchor="start" x="333.5" y="-67.5" font-family="Helvetica,sans-Serif" font-size="10.00" fill="#000000">org.cobbzilla.util.reflect.</text>
<text text-anchor="middle" x="402.5" y="-56.5" font-family="Helvetica,sans-Serif" font-size="10.00" fill="#000000">ReflectionUtil.callerClassName</text>
</a>
</g>
</g>
<!-- Node3&#45;&gt;Node5 -->
<g id="edge4" class="edge">
<title>Node3&#45;&gt;Node5</title>
<path fill="none" stroke="#191970" d="M296.2797,-64.5C305.8459,-64.5 315.6484,-64.5 325.2449,-64.5"/>
<polygon fill="#191970" stroke="#191970" points="296.013,-61.0001 286.013,-64.5 296.013,-68.0001 296.013,-61.0001"/>
</g>
<!-- Node6 -->
<g id="node6" class="node">
<title>Node6</title>
<g id="a_node6"><a xlink:href="../../de/d45/classorg_1_1cobbzilla_1_1util_1_1reflect_1_1ReflectionUtil_a28dda748869c5d1b6da800c167dd5fb1.html#a28dda748869c5d1b6da800c167dd5fb1" target="_top" xlink:title="org.cobbzilla.util.reflect.\lReflectionUtil.callerMethodName">
<polygon fill="none" stroke="#000000" points="322,-.5 322,-30.5 483,-30.5 483,-.5 322,-.5"/>
<text text-anchor="start" x="330" y="-18.5" font-family="Helvetica,sans-Serif" font-size="10.00" fill="#000000">org.cobbzilla.util.reflect.</text>
<text text-anchor="middle" x="402.5" y="-7.5" font-family="Helvetica,sans-Serif" font-size="10.00" fill="#000000">ReflectionUtil.callerMethodName</text>
</a>
</g>
</g>
<!-- Node3&#45;&gt;Node6 -->
<g id="edge5" class="edge">
<title>Node3&#45;&gt;Node6</title>
<path fill="none" stroke="#191970" d="M286.7418,-46.7515C306.4128,-41.4409 327.7841,-35.6712 346.7477,-30.5516"/>
<polygon fill="#191970" stroke="#191970" points="285.6791,-43.4131 276.937,-49.3986 287.5036,-50.1711 285.6791,-43.4131"/>
</g>
</g>
</svg>
