<?xml version="1.0" encoding="UTF-8" standalone="no"?>
<!DOCTYPE svg PUBLIC "-//W3C//DTD SVG 1.1//EN"
 "http://www.w3.org/Graphics/SVG/1.1/DTD/svg11.dtd">
<!-- Generated by graphviz version 2.40.1 (20161225.0304)
 -->
<!-- Title: org.cobbzilla.util.system.CommandShellTest.TestProgressCallback Pages: 1 -->
<svg width="250pt" height="298pt"
 viewBox="0.00 0.00 249.50 298.00" xmlns="http://www.w3.org/2000/svg" xmlns:xlink="http://www.w3.org/1999/xlink">
<g id="graph0" class="graph" transform="scale(1 1) rotate(0) translate(4 294)">
<title>org.cobbzilla.util.system.CommandShellTest.TestProgressCallback</title>
<!-- Node2 -->
<g id="node1" class="node">
<title>Node2</title>
<polygon fill="#bfbfbf" stroke="#000000" points="7,-.5 7,-68.5 210,-68.5 210,-.5 7,-.5"/>
<text text-anchor="start" x="15" y="-56.5" font-family="Helvetica,sans-Serif" font-size="10.00" fill="#000000">org.cobbzilla.util.system.</text>
<text text-anchor="middle" x="108.5" y="-45.5" font-family="Helvetica,sans-Serif" font-size="10.00" fill="#000000">CommandShellTest.TestProgressCallback</text>
<polyline fill="none" stroke="#000000" points="7,-38.5 210,-38.5 "/>
<text text-anchor="start" x="15" y="-26.5" font-family="Helvetica,sans-Serif" font-size="10.00" fill="#000000">+ count</text>
<polyline fill="none" stroke="#000000" points="7,-19.5 210,-19.5 "/>
<text text-anchor="start" x="15" y="-7.5" font-family="Helvetica,sans-Serif" font-size="10.00" fill="#000000">+ updateProgress()</text>
</g>
<!-- Node3 -->
<g id="node2" class="node">
<title>Node3</title>
<g id="a_node2"><a xlink:href="../../df/dd0/interfaceorg_1_1cobbzilla_1_1util_1_1system_1_1CommandProgressCallback.html" target="_top" xlink:title="{org.cobbzilla.util.system.\lCommandProgressCallback\n||+ updateProgress()\l}">
<polygon fill="none" stroke="#000000" points="0,-116.5 0,-184.5 139,-184.5 139,-116.5 0,-116.5"/>
<text text-anchor="start" x="8" y="-172.5" font-family="Helvetica,sans-Serif" font-size="10.00" fill="#000000">org.cobbzilla.util.system.</text>
<text text-anchor="middle" x="69.5" y="-161.5" font-family="Helvetica,sans-Serif" font-size="10.00" fill="#000000">CommandProgressCallback</text>
<polyline fill="none" stroke="#000000" points="0,-154.5 139,-154.5 "/>
<text text-anchor="middle" x="69.5" y="-142.5" font-family="Helvetica,sans-Serif" font-size="10.00" fill="#000000"> </text>
<polyline fill="none" stroke="#000000" points="0,-135.5 139,-135.5 "/>
<text text-anchor="start" x="8" y="-123.5" font-family="Helvetica,sans-Serif" font-size="10.00" fill="#000000">+ updateProgress()</text>
</a>
</g>
</g>
<!-- Node3&#45;&gt;Node2 -->
<g id="edge1" class="edge">
<title>Node3&#45;&gt;Node2</title>
<path fill="none" stroke="#191970" d="M84.2742,-106.5562C88.4721,-94.0702 92.9809,-80.6593 96.957,-68.833"/>
<polygon fill="none" stroke="#191970" points="80.8597,-105.7295 80.9903,-116.3236 87.4947,-107.9603 80.8597,-105.7295"/>
</g>
<!-- Node4 -->
<g id="node3" class="node">
<title>Node4</title>
<polygon fill="none" stroke="#bfbfbf" points="157,-122 157,-179 232,-179 232,-122 157,-122"/>
<text text-anchor="middle" x="194.5" y="-167" font-family="Helvetica,sans-Serif" font-size="10.00" fill="#000000">Set&lt; String &gt;</text>
<polyline fill="none" stroke="#bfbfbf" points="157,-160 232,-160 "/>
<text text-anchor="middle" x="194.5" y="-148" font-family="Helvetica,sans-Serif" font-size="10.00" fill="#000000"> </text>
<polyline fill="none" stroke="#bfbfbf" points="157,-141 232,-141 "/>
<text text-anchor="middle" x="194.5" y="-129" font-family="Helvetica,sans-Serif" font-size="10.00" fill="#000000"> </text>
</g>
<!-- Node4&#45;&gt;Node2 -->
<g id="edge2" class="edge">
<title>Node4&#45;&gt;Node2</title>
<path fill="none" stroke="#404040" d="M173.2416,-121.8258C163.5422,-108.743 151.84,-92.9586 141.0675,-78.4283"/>
<polygon fill="none" stroke="#404040" points="140.9409,-78.2575 134.1543,-75.8199 133.7942,-68.6178 140.5808,-71.0554 140.9409,-78.2575"/>
<text text-anchor="middle" x="189.5" y="-90" font-family="Helvetica,sans-Serif" font-size="10.00" fill="#000000"> +patternsFound</text>
</g>
<!-- Node5 -->
<g id="node4" class="node">
<title>Node5</title>
<polygon fill="none" stroke="#bfbfbf" points="178.5,-232.5 178.5,-289.5 210.5,-289.5 210.5,-232.5 178.5,-232.5"/>
<text text-anchor="middle" x="194.5" y="-277.5" font-family="Helvetica,sans-Serif" font-size="10.00" fill="#000000">Set</text>
<polyline fill="none" stroke="#bfbfbf" points="178.5,-270.5 210.5,-270.5 "/>
<text text-anchor="middle" x="194.5" y="-258.5" font-family="Helvetica,sans-Serif" font-size="10.00" fill="#000000"> </text>
<polyline fill="none" stroke="#bfbfbf" points="178.5,-251.5 210.5,-251.5 "/>
<text text-anchor="middle" x="194.5" y="-239.5" font-family="Helvetica,sans-Serif" font-size="10.00" fill="#000000"> </text>
</g>
<!-- Node5&#45;&gt;Node4 -->
<g id="edge3" class="edge">
<title>Node5&#45;&gt;Node4</title>
<path fill="none" stroke="#ffa500" d="M194.5,-221.845C194.5,-207.7511 194.5,-192.1262 194.5,-179.1002"/>
<polygon fill="#ffa500" stroke="#ffa500" points="191.0001,-222.2559 194.5,-232.2559 198.0001,-222.2559 191.0001,-222.2559"/>
<text text-anchor="middle" x="218" y="-206" font-family="Helvetica,sans-Serif" font-size="10.00" fill="#000000"> &lt; String &gt;</text>
</g>
</g>
</svg>
