<?xml version="1.0" encoding="UTF-8" standalone="no"?>
<!DOCTYPE svg PUBLIC "-//W3C//DTD SVG 1.1//EN"
 "http://www.w3.org/Graphics/SVG/1.1/DTD/svg11.dtd">
<!-- Generated by graphviz version 2.40.1 (20161225.0304)
 -->
<!-- Title: org.cobbzilla.util.http.PhantomJSHandle Pages: 1 -->
<svg width="158pt" height="171pt"
 viewBox="0.00 0.00 157.50 171.00" xmlns="http://www.w3.org/2000/svg" xmlns:xlink="http://www.w3.org/1999/xlink">
<g id="graph0" class="graph" transform="scale(1 1) rotate(0) translate(4 167)">
<title>org.cobbzilla.util.http.PhantomJSHandle</title>
<!-- Node0 -->
<g id="node1" class="node">
<title>Node0</title>
<polygon fill="#bfbfbf" stroke="#000000" points="22.5,-.5 22.5,-68.5 132.5,-68.5 132.5,-.5 22.5,-.5"/>
<text text-anchor="start" x="30.5" y="-56.5" font-family="Helvetica,sans-Serif" font-size="10.00" fill="#000000">org.cobbzilla.util.http.</text>
<text text-anchor="middle" x="77.5" y="-45.5" font-family="Helvetica,sans-Serif" font-size="10.00" fill="#000000">PhantomJSHandle</text>
<polyline fill="none" stroke="#000000" points="22.5,-38.5 132.5,-38.5 "/>
<text text-anchor="start" x="30.5" y="-26.5" font-family="Helvetica,sans-Serif" font-size="10.00" fill="#000000">~ driver</text>
<polyline fill="none" stroke="#000000" points="22.5,-19.5 132.5,-19.5 "/>
<text text-anchor="start" x="30.5" y="-7.5" font-family="Helvetica,sans-Serif" font-size="10.00" fill="#000000">+ close()</text>
</g>
<!-- Node1 -->
<g id="node2" class="node">
<title>Node1</title>
<polygon fill="none" stroke="#bfbfbf" points="0,-105.5 0,-162.5 71,-162.5 71,-105.5 0,-105.5"/>
<text text-anchor="middle" x="35.5" y="-150.5" font-family="Helvetica,sans-Serif" font-size="10.00" fill="#000000">ErrorHandler</text>
<polyline fill="none" stroke="#bfbfbf" points="0,-143.5 71,-143.5 "/>
<text text-anchor="middle" x="35.5" y="-131.5" font-family="Helvetica,sans-Serif" font-size="10.00" fill="#000000"> </text>
<polyline fill="none" stroke="#bfbfbf" points="0,-124.5 71,-124.5 "/>
<text text-anchor="middle" x="35.5" y="-112.5" font-family="Helvetica,sans-Serif" font-size="10.00" fill="#000000"> </text>
</g>
<!-- Node1&#45;&gt;Node0 -->
<g id="edge1" class="edge">
<title>Node1&#45;&gt;Node0</title>
<path fill="none" stroke="#191970" d="M51.5395,-96.0016C55.3358,-87.008 59.3615,-77.4709 63.0809,-68.6596"/>
<polygon fill="none" stroke="#191970" points="48.1999,-94.9133 47.5355,-105.4873 54.6489,-97.6355 48.1999,-94.9133"/>
</g>
<!-- Node2 -->
<g id="node3" class="node">
<title>Node2</title>
<polygon fill="none" stroke="#bfbfbf" points="89.5,-105.5 89.5,-162.5 149.5,-162.5 149.5,-105.5 89.5,-105.5"/>
<text text-anchor="middle" x="119.5" y="-150.5" font-family="Helvetica,sans-Serif" font-size="10.00" fill="#000000">Closeable</text>
<polyline fill="none" stroke="#bfbfbf" points="89.5,-143.5 149.5,-143.5 "/>
<text text-anchor="middle" x="119.5" y="-131.5" font-family="Helvetica,sans-Serif" font-size="10.00" fill="#000000"> </text>
<polyline fill="none" stroke="#bfbfbf" points="89.5,-124.5 149.5,-124.5 "/>
<text text-anchor="middle" x="119.5" y="-112.5" font-family="Helvetica,sans-Serif" font-size="10.00" fill="#000000"> </text>
</g>
<!-- Node2&#45;&gt;Node0 -->
<g id="edge2" class="edge">
<title>Node2&#45;&gt;Node0</title>
<path fill="none" stroke="#191970" d="M103.4605,-96.0016C99.6642,-87.008 95.6385,-77.4709 91.9191,-68.6596"/>
<polygon fill="none" stroke="#191970" points="100.3511,-97.6355 107.4645,-105.4873 106.8001,-94.9133 100.3511,-97.6355"/>
</g>
</g>
</svg>
