<?xml version="1.0" encoding="UTF-8" standalone="no"?>
<!DOCTYPE svg PUBLIC "-//W3C//DTD SVG 1.1//EN"
 "http://www.w3.org/Graphics/SVG/1.1/DTD/svg11.dtd">
<!-- Generated by graphviz version 2.40.1 (20161225.0304)
 -->
<!-- Title: org.cobbzilla.util.time.ClockProvider Pages: 1 -->
<svg width="186pt" height="77pt"
 viewBox="0.00 0.00 186.00 77.00" xmlns="http://www.w3.org/2000/svg" xmlns:xlink="http://www.w3.org/1999/xlink">
<g id="graph0" class="graph" transform="scale(1 1) rotate(0) translate(4 73)">
<title>org.cobbzilla.util.time.ClockProvider</title>
<!-- Node1 -->
<g id="node1" class="node">
<title>Node1</title>
<polygon fill="#bfbfbf" stroke="#000000" points="0,-.5 0,-68.5 112,-68.5 112,-.5 0,-.5"/>
<text text-anchor="start" x="8" y="-56.5" font-family="Helvetica,sans-Serif" font-size="10.00" fill="#000000">org.cobbzilla.util.time.</text>
<text text-anchor="middle" x="56" y="-45.5" font-family="Helvetica,sans-Serif" font-size="10.00" fill="#000000">ClockProvider</text>
<polyline fill="none" stroke="#000000" points="0,-38.5 112,-38.5 "/>
<text text-anchor="middle" x="56" y="-26.5" font-family="Helvetica,sans-Serif" font-size="10.00" fill="#000000"> </text>
<polyline fill="none" stroke="#000000" points="0,-19.5 112,-19.5 "/>
<text text-anchor="start" x="8" y="-7.5" font-family="Helvetica,sans-Serif" font-size="10.00" fill="#000000">+ now()</text>
</g>
<!-- Node1&#45;&gt;Node1 -->
<g id="edge1" class="edge">
<title>Node1&#45;&gt;Node1</title>
<path fill="none" stroke="#404040" d="M112.1461,-46.5955C122.6221,-45.1061 130,-41.0742 130,-34.5 130,-30.802 127.6656,-27.9084 123.7585,-25.8193"/>
<polygon fill="none" stroke="#404040" points="123.6587,-25.79 116.7739,-27.9347 112.1461,-22.4045 119.0309,-20.2597 123.6587,-25.79"/>
<text text-anchor="middle" x="154" y="-37.5" font-family="Helvetica,sans-Serif" font-size="10.00" fill="#000000"> +ZILLA</text>
<text text-anchor="middle" x="154" y="-26.5" font-family="Helvetica,sans-Serif" font-size="10.00" fill="#000000">+SYSTEM</text>
</g>
</g>
</svg>
