<?xml version="1.0" encoding="UTF-8" standalone="no"?>
<!DOCTYPE svg PUBLIC "-//W3C//DTD SVG 1.1//EN"
 "http://www.w3.org/Graphics/SVG/1.1/DTD/svg11.dtd">
<!-- Generated by graphviz version 2.40.1 (20161225.0304)
 -->
<!-- Title: org.cobbzilla.util.io.JarTrimmer.IncludeCount Pages: 1 -->
<svg width="190pt" height="364pt"
 viewBox="0.00 0.00 190.00 364.00" xmlns="http://www.w3.org/2000/svg" xmlns:xlink="http://www.w3.org/1999/xlink">
<g id="graph0" class="graph" transform="scale(1 1) rotate(0) translate(4 360)">
<title>org.cobbzilla.util.io.JarTrimmer.IncludeCount</title>
<!-- Node1 -->
<g id="node1" class="node">
<title>Node1</title>
<polygon fill="#bfbfbf" stroke="#000000" points="23,-.5 23,-112.5 137,-112.5 137,-.5 23,-.5"/>
<text text-anchor="start" x="31" y="-100.5" font-family="Helvetica,sans-Serif" font-size="10.00" fill="#000000">org.cobbzilla.util.io.Jar</text>
<text text-anchor="middle" x="80" y="-89.5" font-family="Helvetica,sans-Serif" font-size="10.00" fill="#000000">Trimmer.IncludeCount</text>
<polyline fill="none" stroke="#000000" points="23,-82.5 137,-82.5 "/>
<text text-anchor="start" x="31" y="-70.5" font-family="Helvetica,sans-Serif" font-size="10.00" fill="#000000">&#45; count</text>
<text text-anchor="start" x="31" y="-59.5" font-family="Helvetica,sans-Serif" font-size="10.00" fill="#000000">&#45; path</text>
<polyline fill="none" stroke="#000000" points="23,-52.5 137,-52.5 "/>
<text text-anchor="start" x="31" y="-40.5" font-family="Helvetica,sans-Serif" font-size="10.00" fill="#000000">+ getTotalCount()</text>
<text text-anchor="start" x="31" y="-29.5" font-family="Helvetica,sans-Serif" font-size="10.00" fill="#000000">+ IncludeCount()</text>
<text text-anchor="start" x="31" y="-18.5" font-family="Helvetica,sans-Serif" font-size="10.00" fill="#000000">+ incr()</text>
<text text-anchor="start" x="31" y="-7.5" font-family="Helvetica,sans-Serif" font-size="10.00" fill="#000000">+ getCounter()</text>
</g>
<!-- Node2 -->
<g id="node2" class="node">
<title>Node2</title>
<polygon fill="none" stroke="#bfbfbf" points="0,-160.5 0,-228.5 160,-228.5 160,-160.5 0,-160.5"/>
<text text-anchor="start" x="8" y="-216.5" font-family="Helvetica,sans-Serif" font-size="10.00" fill="#000000">Map&lt; String, org.cobbzilla.util.io.</text>
<text text-anchor="middle" x="80" y="-205.5" font-family="Helvetica,sans-Serif" font-size="10.00" fill="#000000">JarTrimmer.IncludeCount &gt;</text>
<polyline fill="none" stroke="#bfbfbf" points="0,-198.5 160,-198.5 "/>
<text text-anchor="middle" x="80" y="-186.5" font-family="Helvetica,sans-Serif" font-size="10.00" fill="#000000"> </text>
<polyline fill="none" stroke="#bfbfbf" points="0,-179.5 160,-179.5 "/>
<text text-anchor="middle" x="80" y="-167.5" font-family="Helvetica,sans-Serif" font-size="10.00" fill="#000000"> </text>
</g>
<!-- Node2&#45;&gt;Node1 -->
<g id="edge1" class="edge">
<title>Node2&#45;&gt;Node1</title>
<path fill="none" stroke="#404040" d="M80,-160.3876C80,-149.5526 80,-137.1601 80,-124.7976"/>
<polygon fill="none" stroke="#404040" points="80.0001,-124.504 76,-118.504 80,-112.504 84,-118.5039 80.0001,-124.504"/>
<text text-anchor="middle" x="104" y="-134" font-family="Helvetica,sans-Serif" font-size="10.00" fill="#000000"> &#45;subPaths</text>
</g>
<!-- Node3 -->
<g id="node3" class="node">
<title>Node3</title>
<polygon fill="none" stroke="#bfbfbf" points="62.5,-298.5 62.5,-355.5 97.5,-355.5 97.5,-298.5 62.5,-298.5"/>
<text text-anchor="middle" x="80" y="-343.5" font-family="Helvetica,sans-Serif" font-size="10.00" fill="#000000">Map</text>
<polyline fill="none" stroke="#bfbfbf" points="62.5,-336.5 97.5,-336.5 "/>
<text text-anchor="middle" x="80" y="-324.5" font-family="Helvetica,sans-Serif" font-size="10.00" fill="#000000"> </text>
<polyline fill="none" stroke="#bfbfbf" points="62.5,-317.5 97.5,-317.5 "/>
<text text-anchor="middle" x="80" y="-305.5" font-family="Helvetica,sans-Serif" font-size="10.00" fill="#000000"> </text>
</g>
<!-- Node3&#45;&gt;Node2 -->
<g id="edge2" class="edge">
<title>Node3&#45;&gt;Node2</title>
<path fill="none" stroke="#ffa500" d="M80,-288.2195C80,-269.4117 80,-247.0145 80,-228.8321"/>
<polygon fill="#ffa500" stroke="#ffa500" points="76.5001,-288.2494 80,-298.2495 83.5001,-288.2495 76.5001,-288.2494"/>
<text text-anchor="start" x="80" y="-272" font-family="Helvetica,sans-Serif" font-size="10.00" fill="#000000"> &lt; String, org::cobbzilla</text>
<text text-anchor="start" x="80" y="-261" font-family="Helvetica,sans-Serif" font-size="10.00" fill="#000000">::util::io::JarTrimmer</text>
<text text-anchor="middle" x="131" y="-250" font-family="Helvetica,sans-Serif" font-size="10.00" fill="#000000">::IncludeCount &gt;</text>
</g>
</g>
</svg>
