<?xml version="1.0" encoding="UTF-8" standalone="no"?>
<!DOCTYPE svg PUBLIC "-//W3C//DTD SVG 1.1//EN"
 "http://www.w3.org/Graphics/SVG/1.1/DTD/svg11.dtd">
<!-- Generated by graphviz version 2.40.1 (20161225.0304)
 -->
<!-- Title: org.cobbzilla.util.io.TempDir.FileKillOrder Pages: 1 -->
<svg width="198pt" height="193pt"
 viewBox="0.00 0.00 198.00 193.00" xmlns="http://www.w3.org/2000/svg" xmlns:xlink="http://www.w3.org/1999/xlink">
<g id="graph0" class="graph" transform="scale(1 1) rotate(0) translate(4 189)">
<title>org.cobbzilla.util.io.TempDir.FileKillOrder</title>
<!-- Node2 -->
<g id="node1" class="node">
<title>Node2</title>
<polygon fill="#bfbfbf" stroke="#000000" points="59.5,-.5 59.5,-79.5 184.5,-79.5 184.5,-.5 59.5,-.5"/>
<text text-anchor="start" x="67.5" y="-67.5" font-family="Helvetica,sans-Serif" font-size="10.00" fill="#000000">org.cobbzilla.util.io.Temp</text>
<text text-anchor="middle" x="122" y="-56.5" font-family="Helvetica,sans-Serif" font-size="10.00" fill="#000000">Dir.FileKillOrder</text>
<polyline fill="none" stroke="#000000" points="59.5,-49.5 184.5,-49.5 "/>
<text text-anchor="start" x="67.5" y="-37.5" font-family="Helvetica,sans-Serif" font-size="10.00" fill="#000000">&#45; killTime</text>
<polyline fill="none" stroke="#000000" points="59.5,-30.5 184.5,-30.5 "/>
<text text-anchor="start" x="67.5" y="-18.5" font-family="Helvetica,sans-Serif" font-size="10.00" fill="#000000">+ compareTo()</text>
<text text-anchor="start" x="67.5" y="-7.5" font-family="Helvetica,sans-Serif" font-size="10.00" fill="#000000">+ shouldKill()</text>
</g>
<!-- Node3 -->
<g id="node2" class="node">
<title>Node3</title>
<polygon fill="none" stroke="#bfbfbf" points="0,-127.5 0,-184.5 140,-184.5 140,-127.5 0,-127.5"/>
<text text-anchor="middle" x="70" y="-172.5" font-family="Helvetica,sans-Serif" font-size="10.00" fill="#000000">Comparable&lt; FileKillOrder &gt;</text>
<polyline fill="none" stroke="#bfbfbf" points="0,-165.5 140,-165.5 "/>
<text text-anchor="middle" x="70" y="-153.5" font-family="Helvetica,sans-Serif" font-size="10.00" fill="#000000"> </text>
<polyline fill="none" stroke="#bfbfbf" points="0,-146.5 140,-146.5 "/>
<text text-anchor="middle" x="70" y="-134.5" font-family="Helvetica,sans-Serif" font-size="10.00" fill="#000000"> </text>
</g>
<!-- Node3&#45;&gt;Node2 -->
<g id="edge1" class="edge">
<title>Node3&#45;&gt;Node2</title>
<path fill="none" stroke="#191970" d="M87.0995,-117.8549C92.5813,-105.6264 98.6634,-92.0587 104.1943,-79.7203"/>
<polygon fill="none" stroke="#191970" points="83.7508,-116.769 82.8539,-127.3258 90.1383,-119.6324 83.7508,-116.769"/>
</g>
<!-- Node4 -->
<g id="node3" class="node">
<title>Node4</title>
<polygon fill="none" stroke="#bfbfbf" points="158,-127.5 158,-184.5 190,-184.5 190,-127.5 158,-127.5"/>
<text text-anchor="middle" x="174" y="-172.5" font-family="Helvetica,sans-Serif" font-size="10.00" fill="#000000">File</text>
<polyline fill="none" stroke="#bfbfbf" points="158,-165.5 190,-165.5 "/>
<text text-anchor="middle" x="174" y="-153.5" font-family="Helvetica,sans-Serif" font-size="10.00" fill="#000000"> </text>
<polyline fill="none" stroke="#bfbfbf" points="158,-146.5 190,-146.5 "/>
<text text-anchor="middle" x="174" y="-134.5" font-family="Helvetica,sans-Serif" font-size="10.00" fill="#000000"> </text>
</g>
<!-- Node4&#45;&gt;Node2 -->
<g id="edge2" class="edge">
<title>Node4&#45;&gt;Node2</title>
<path fill="none" stroke="#404040" d="M161.1461,-127.3258C156.2184,-116.3333 150.4357,-103.4336 144.8499,-90.973"/>
<polygon fill="none" stroke="#404040" points="144.7144,-90.6704 138.61,-86.8316 139.8057,-79.7203 145.9101,-83.5591 144.7144,-90.6704"/>
<text text-anchor="middle" x="161.5" y="-101" font-family="Helvetica,sans-Serif" font-size="10.00" fill="#000000"> &#45;file</text>
</g>
</g>
</svg>
