<?xml version="1.0" encoding="UTF-8" standalone="no"?>
<!DOCTYPE svg PUBLIC "-//W3C//DTD SVG 1.1//EN"
 "http://www.w3.org/Graphics/SVG/1.1/DTD/svg11.dtd">
<!-- Generated by graphviz version 2.40.1 (20161225.0304)
 -->
<!-- Title: org.cobbzilla.util.security.ShaUtil.sha256_file Pages: 1 -->
<svg width="700pt" height="181pt"
 viewBox="0.00 0.00 700.00 181.00" xmlns="http://www.w3.org/2000/svg" xmlns:xlink="http://www.w3.org/1999/xlink">
<g id="graph0" class="graph" transform="scale(1 1) rotate(0) translate(4 177)">
<title>org.cobbzilla.util.security.ShaUtil.sha256_file</title>
<!-- Node0 -->
<g id="node1" class="node">
<title>Node0</title>
<polygon fill="#bfbfbf" stroke="#000000" points="0,-93.5 0,-123.5 128,-123.5 128,-93.5 0,-93.5"/>
<text text-anchor="start" x="8" y="-111.5" font-family="Helvetica,sans-Serif" font-size="10.00" fill="#000000">org.cobbzilla.util.security.</text>
<text text-anchor="middle" x="64" y="-100.5" font-family="Helvetica,sans-Serif" font-size="10.00" fill="#000000">ShaUtil.sha256_file</text>
</g>
<!-- Node1 -->
<g id="node2" class="node">
<title>Node1</title>
<g id="a_node2"><a xlink:href="../../d0/de1/classorg_1_1cobbzilla_1_1util_1_1system_1_1CommandResult_ace8f1a4844470e27cd5fd36bd1b37949.html#ace8f1a4844470e27cd5fd36bd1b37949" target="_top" xlink:title="org.cobbzilla.util.system.\lCommandResult.getExceptionString">
<polygon fill="none" stroke="#000000" points="164,-142.5 164,-172.5 340,-172.5 340,-142.5 164,-142.5"/>
<text text-anchor="start" x="172" y="-160.5" font-family="Helvetica,sans-Serif" font-size="10.00" fill="#000000">org.cobbzilla.util.system.</text>
<text text-anchor="middle" x="252" y="-149.5" font-family="Helvetica,sans-Serif" font-size="10.00" fill="#000000">CommandResult.getExceptionString</text>
</a>
</g>
</g>
<!-- Node0&#45;&gt;Node1 -->
<g id="edge1" class="edge">
<title>Node0&#45;&gt;Node1</title>
<path fill="none" stroke="#191970" d="M121.6838,-123.5346C141.534,-128.7083 163.9374,-134.5475 184.4987,-139.9066"/>
<polygon fill="#191970" stroke="#191970" points="183.8658,-143.3585 194.4252,-142.4938 185.6313,-136.5848 183.8658,-143.3585"/>
</g>
<!-- Node3 -->
<g id="node4" class="node">
<title>Node3</title>
<g id="a_node4"><a xlink:href="../../d0/de1/classorg_1_1cobbzilla_1_1util_1_1system_1_1CommandResult_af08d664d99fa95d986eef960b6e1d527.html#af08d664d99fa95d986eef960b6e1d527" target="_top" xlink:title="org.cobbzilla.util.system.\lCommandResult.isZeroExitStatus">
<polygon fill="none" stroke="#000000" points="169,-93.5 169,-123.5 335,-123.5 335,-93.5 169,-93.5"/>
<text text-anchor="start" x="177" y="-111.5" font-family="Helvetica,sans-Serif" font-size="10.00" fill="#000000">org.cobbzilla.util.system.</text>
<text text-anchor="middle" x="252" y="-100.5" font-family="Helvetica,sans-Serif" font-size="10.00" fill="#000000">CommandResult.isZeroExitStatus</text>
</a>
</g>
</g>
<!-- Node0&#45;&gt;Node3 -->
<g id="edge3" class="edge">
<title>Node0&#45;&gt;Node3</title>
<path fill="none" stroke="#191970" d="M128.1731,-108.5C137.9859,-108.5 148.2824,-108.5 158.5699,-108.5"/>
<polygon fill="#191970" stroke="#191970" points="158.8361,-112.0001 168.836,-108.5 158.836,-105.0001 158.8361,-112.0001"/>
</g>
<!-- Node4 -->
<g id="node5" class="node">
<title>Node4</title>
<g id="a_node5"><a xlink:href="../../d6/dbf/classorg_1_1cobbzilla_1_1util_1_1security_1_1ShaUtil_ad1113ed6018d6941253a27ec8ead85d3.html#ad1113ed6018d6941253a27ec8ead85d3" target="_top" xlink:title="org.cobbzilla.util.security.\lShaUtil.sha256_file_java">
<polygon fill="none" stroke="#000000" points="188,-44.5 188,-74.5 316,-74.5 316,-44.5 188,-44.5"/>
<text text-anchor="start" x="196" y="-62.5" font-family="Helvetica,sans-Serif" font-size="10.00" fill="#000000">org.cobbzilla.util.security.</text>
<text text-anchor="middle" x="252" y="-51.5" font-family="Helvetica,sans-Serif" font-size="10.00" fill="#000000">ShaUtil.sha256_file_java</text>
</a>
</g>
</g>
<!-- Node0&#45;&gt;Node4 -->
<g id="edge4" class="edge">
<title>Node0&#45;&gt;Node4</title>
<path fill="none" stroke="#191970" d="M121.6838,-93.4654C141.534,-88.2917 163.9374,-82.4525 184.4987,-77.0934"/>
<polygon fill="#191970" stroke="#191970" points="185.6313,-80.4152 194.4252,-74.5062 183.8658,-73.6415 185.6313,-80.4152"/>
</g>
<!-- Node2 -->
<g id="node3" class="node">
<title>Node2</title>
<g id="a_node3"><a xlink:href="../../d0/de1/classorg_1_1cobbzilla_1_1util_1_1system_1_1CommandResult_a61fa9c6e0472c83bac93947d960036da.html#a61fa9c6e0472c83bac93947d960036da" target="_top" xlink:title="org.cobbzilla.util.system.\lCommandResult.hasException">
<polygon fill="none" stroke="#000000" points="376,-142.5 376,-172.5 528,-172.5 528,-142.5 376,-142.5"/>
<text text-anchor="start" x="384" y="-160.5" font-family="Helvetica,sans-Serif" font-size="10.00" fill="#000000">org.cobbzilla.util.system.</text>
<text text-anchor="middle" x="452" y="-149.5" font-family="Helvetica,sans-Serif" font-size="10.00" fill="#000000">CommandResult.hasException</text>
</a>
</g>
</g>
<!-- Node1&#45;&gt;Node2 -->
<g id="edge2" class="edge">
<title>Node1&#45;&gt;Node2</title>
<path fill="none" stroke="#191970" d="M340.014,-157.5C348.5077,-157.5 357.1184,-157.5 365.5963,-157.5"/>
<polygon fill="#191970" stroke="#191970" points="365.8549,-161.0001 375.8548,-157.5 365.8548,-154.0001 365.8549,-161.0001"/>
</g>
<!-- Node5 -->
<g id="node6" class="node">
<title>Node5</title>
<g id="a_node6"><a xlink:href="../../d6/dbf/classorg_1_1cobbzilla_1_1util_1_1security_1_1ShaUtil_aa13d4a46008825f0c930ad381e121877.html#aa13d4a46008825f0c930ad381e121877" target="_top" xlink:title="org.cobbzilla.util.security.\lShaUtil.getMessageDigest">
<polygon fill="none" stroke="#000000" points="385,-88.5 385,-118.5 519,-118.5 519,-88.5 385,-88.5"/>
<text text-anchor="start" x="393" y="-106.5" font-family="Helvetica,sans-Serif" font-size="10.00" fill="#000000">org.cobbzilla.util.security.</text>
<text text-anchor="middle" x="452" y="-95.5" font-family="Helvetica,sans-Serif" font-size="10.00" fill="#000000">ShaUtil.getMessageDigest</text>
</a>
</g>
</g>
<!-- Node4&#45;&gt;Node5 -->
<g id="edge5" class="edge">
<title>Node4&#45;&gt;Node5</title>
<path fill="none" stroke="#191970" d="M316.1065,-73.6034C334.7874,-77.7132 355.3951,-82.2469 374.7941,-86.5147"/>
<polygon fill="#191970" stroke="#191970" points="374.2932,-89.9881 384.8117,-88.7186 375.7973,-83.1516 374.2932,-89.9881"/>
</g>
<!-- Node6 -->
<g id="node7" class="node">
<title>Node6</title>
<g id="a_node7"><a xlink:href="../../d6/dbf/classorg_1_1cobbzilla_1_1util_1_1security_1_1ShaUtil_a7b008435187dff00bc4e2685c3f0299b.html#a7b008435187dff00bc4e2685c3f0299b" target="_top" xlink:title="org.cobbzilla.util.security.\lShaUtil.md">
<polygon fill="none" stroke="#000000" points="564,-66.5 564,-96.5 692,-96.5 692,-66.5 564,-66.5"/>
<text text-anchor="start" x="572" y="-84.5" font-family="Helvetica,sans-Serif" font-size="10.00" fill="#000000">org.cobbzilla.util.security.</text>
<text text-anchor="middle" x="628" y="-73.5" font-family="Helvetica,sans-Serif" font-size="10.00" fill="#000000">ShaUtil.md</text>
</a>
</g>
</g>
<!-- Node4&#45;&gt;Node6 -->
<g id="edge7" class="edge">
<title>Node4&#45;&gt;Node6</title>
<path fill="none" stroke="#191970" d="M316.2095,-63.2569C381.9463,-67.1032 484.0333,-73.0764 553.3365,-77.1314"/>
<polygon fill="#191970" stroke="#191970" points="553.5535,-80.65 563.7409,-77.7402 553.9625,-73.6619 553.5535,-80.65"/>
</g>
<!-- Node7 -->
<g id="node8" class="node">
<title>Node7</title>
<g id="a_node8"><a xlink:href="../../db/d9f/classorg_1_1cobbzilla_1_1util_1_1string_1_1StringUtil_afa3e20cacadb59529d8a3f5a104365b4.html#afa3e20cacadb59529d8a3f5a104365b4" target="_top" xlink:title="org.cobbzilla.util.string.\lStringUtil.tohex">
<polygon fill="none" stroke="#000000" points="393.5,-.5 393.5,-30.5 510.5,-30.5 510.5,-.5 393.5,-.5"/>
<text text-anchor="start" x="401.5" y="-18.5" font-family="Helvetica,sans-Serif" font-size="10.00" fill="#000000">org.cobbzilla.util.string.</text>
<text text-anchor="middle" x="452" y="-7.5" font-family="Helvetica,sans-Serif" font-size="10.00" fill="#000000">StringUtil.tohex</text>
</a>
</g>
</g>
<!-- Node4&#45;&gt;Node7 -->
<g id="edge8" class="edge">
<title>Node4&#45;&gt;Node7</title>
<path fill="none" stroke="#191970" d="M316.1065,-45.3966C337.6072,-40.6664 361.6603,-35.3747 383.4853,-30.5732"/>
<polygon fill="#191970" stroke="#191970" points="384.3246,-33.9724 393.339,-28.4054 382.8205,-27.1359 384.3246,-33.9724"/>
</g>
<!-- Node5&#45;&gt;Node6 -->
<g id="edge6" class="edge">
<title>Node5&#45;&gt;Node6</title>
<path fill="none" stroke="#191970" d="M519.0401,-95.12C530.3854,-93.7018 542.2243,-92.222 553.7411,-90.7824"/>
<polygon fill="#191970" stroke="#191970" points="554.27,-94.2436 563.7586,-89.5302 553.4017,-87.2976 554.27,-94.2436"/>
</g>
</g>
</svg>
