<?xml version="1.0" encoding="UTF-8" standalone="no"?>
<!DOCTYPE svg PUBLIC "-//W3C//DTD SVG 1.1//EN"
 "http://www.w3.org/Graphics/SVG/1.1/DTD/svg11.dtd">
<!-- Generated by graphviz version 2.40.1 (20161225.0304)
 -->
<!-- Title: org.cobbzilla.util.security.ShaUtil.sha256 Pages: 1 -->
<!--zoomable 284 -->
<svg id="main" version="1.1" xmlns="http://www.w3.org/2000/svg" xmlns:xlink="http://www.w3.org/1999/xlink" xml:space="preserve" onload="init(evt)">
<style type="text/css"><![CDATA[
.edge:hover path { stroke: red; }
.edge:hover polygon { stroke: red; fill: red; }
]]></style>
<script type="text/javascript"><![CDATA[
var edges = document.getElementsByTagName('g');
if (edges && edges.length) {
  for (var i=0;i<edges.length;i++) {
    if (edges[i].id.substr(0,4)=='edge') {
      edges[i].setAttribute('class','edge');
    }
  }
}
]]></script>
        <defs>
                <circle id="rim" cx="0" cy="0" r="7"/>
                <circle id="rim2" cx="0" cy="0" r="3.5"/>
                <g id="zoomPlus">
                        <use xlink:href="#rim" fill="#404040">
                                <set attributeName="fill" to="#808080" begin="zoomplus.mouseover" end="zoomplus.mouseout"/>
                        </use>
                        <path d="M-4,0h8M0,-4v8" fill="none" stroke="white" stroke-width="1.5" pointer-events="none"/>
                </g>
                <g id="zoomMin">
                        <use xlink:href="#rim" fill="#404040">
                                <set attributeName="fill" to="#808080" begin="zoomminus.mouseover" end="zoomminus.mouseout"/>
                        </use>
                        <path d="M-4,0h8" fill="none" stroke="white" stroke-width="1.5" pointer-events="none"/>
                </g>
                <g id="dirArrow">
                        <path fill="none" stroke="white" stroke-width="1.5" d="M0,-3.0v7 M-2.5,-0.5L0,-3.0L2.5,-0.5"/>
                </g>
               <g id="resetDef">
                       <use xlink:href="#rim2" fill="#404040">
                               <set attributeName="fill" to="#808080" begin="reset.mouseover" end="reset.mouseout"/>
                       </use>
               </g>
        </defs>

<script type="text/javascript">
var viewWidth = 655;
var viewHeight = 284;
var sectionId = 'dynsection-0';
</script>
<script xlink:href="../../svgpan.js"/>
<svg id="graph" class="graph">
<g id="viewport">
<title>org.cobbzilla.util.security.ShaUtil.sha256</title>
<!-- Node1 -->
<g id="node1" class="node">
<title>Node1</title>
<polygon fill="#bfbfbf" stroke="#000000" points="0,-98.5 0,-128.5 128,-128.5 128,-98.5 0,-98.5"/>
<text text-anchor="start" x="8" y="-116.5" font-family="Helvetica,sans-Serif" font-size="10.00" fill="#000000">org.cobbzilla.util.security.</text>
<text text-anchor="middle" x="64" y="-105.5" font-family="Helvetica,sans-Serif" font-size="10.00" fill="#000000">ShaUtil.sha256</text>
</g>
<!-- Node2 -->
<g id="node2" class="node">
<title>Node2</title>
<g id="a_node2"><a xlink:href="../../d4/d79/classorg_1_1cobbzilla_1_1util_1_1security_1_1CryptoUtil_ab6264fbf9a223c98c52fe0293b17e824.html#ab6264fbf9a223c98c52fe0293b17e824" target="_top" xlink:title="org.cobbzilla.util.security.\lCryptoUtil.sha256">
<polygon fill="none" stroke="#000000" points="169,-196.5 169,-226.5 297,-226.5 297,-196.5 169,-196.5"/>
<text text-anchor="start" x="177" y="-214.5" font-family="Helvetica,sans-Serif" font-size="10.00" fill="#000000">org.cobbzilla.util.security.</text>
<text text-anchor="middle" x="233" y="-203.5" font-family="Helvetica,sans-Serif" font-size="10.00" fill="#000000">CryptoUtil.sha256</text>
</a>
</g>
</g>
<!-- Node1&#45;&gt;Node2 -->
<g id="edge1" class="edge">
<title>Node1&#45;&gt;Node2</title>
<path fill="none" stroke="#191970" d="M88.7308,-135.1327C108.1492,-151.2647 136.4275,-172.9379 164,-187.5 170.1683,-190.7577 176.871,-193.7234 183.5939,-196.3722"/>
<polygon fill="#191970" stroke="#191970" points="90.8799,-132.3666 80.979,-128.5952 86.367,-137.7177 90.8799,-132.3666"/>
</g>
<!-- Node7 -->
<g id="node7" class="node">
<title>Node7</title>
<g id="a_node7"><a xlink:href="../../d6/dbf/classorg_1_1cobbzilla_1_1util_1_1security_1_1ShaUtil_aea138aa42746f3c338ecb68f3acdda64.html#aea138aa42746f3c338ecb68f3acdda64" target="_top" xlink:title="org.cobbzilla.util.security.\lShaUtil.sha256_base64">
<polygon fill="none" stroke="#000000" points="169,-147.5 169,-177.5 297,-177.5 297,-147.5 169,-147.5"/>
<text text-anchor="start" x="177" y="-165.5" font-family="Helvetica,sans-Serif" font-size="10.00" fill="#000000">org.cobbzilla.util.security.</text>
<text text-anchor="middle" x="233" y="-154.5" font-family="Helvetica,sans-Serif" font-size="10.00" fill="#000000">ShaUtil.sha256_base64</text>
</a>
</g>
</g>
<!-- Node1&#45;&gt;Node7 -->
<g id="edge6" class="edge">
<title>Node1&#45;&gt;Node7</title>
<path fill="none" stroke="#191970" d="M125.7163,-131.3941C143.8936,-136.6644 163.5911,-142.3755 181.0874,-147.4484"/>
<polygon fill="#191970" stroke="#191970" points="126.6637,-128.0247 116.0846,-128.6014 124.7143,-134.7478 126.6637,-128.0247"/>
</g>
<!-- Node8 -->
<g id="node8" class="node">
<title>Node8</title>
<g id="a_node8"><a xlink:href="../../d6/dbf/classorg_1_1cobbzilla_1_1util_1_1security_1_1ShaUtil_ad313f48f05610163c5b22d5c3bcde0a9.html#ad313f48f05610163c5b22d5c3bcde0a9" target="_top" xlink:title="org.cobbzilla.util.security.\lShaUtil.sha256_filename">
<polygon fill="none" stroke="#000000" points="169,-98.5 169,-128.5 297,-128.5 297,-98.5 169,-98.5"/>
<text text-anchor="start" x="177" y="-116.5" font-family="Helvetica,sans-Serif" font-size="10.00" fill="#000000">org.cobbzilla.util.security.</text>
<text text-anchor="middle" x="233" y="-105.5" font-family="Helvetica,sans-Serif" font-size="10.00" fill="#000000">ShaUtil.sha256_filename</text>
</a>
</g>
</g>
<!-- Node1&#45;&gt;Node8 -->
<g id="edge7" class="edge">
<title>Node1&#45;&gt;Node8</title>
<path fill="none" stroke="#191970" d="M138.4174,-113.5C148.5485,-113.5 158.8757,-113.5 168.8052,-113.5"/>
<polygon fill="#191970" stroke="#191970" points="138.3738,-110.0001 128.3738,-113.5 138.3737,-117.0001 138.3738,-110.0001"/>
</g>
<!-- Node9 -->
<g id="node9" class="node">
<title>Node9</title>
<g id="a_node9"><a xlink:href="../../d6/dbf/classorg_1_1cobbzilla_1_1util_1_1security_1_1ShaUtil_a36156b8bd14a480cac3fc2b98c2dad46.html#a36156b8bd14a480cac3fc2b98c2dad46" target="_top" xlink:title="org.cobbzilla.util.security.\lShaUtil.sha256_hex">
<polygon fill="none" stroke="#000000" points="169,-49.5 169,-79.5 297,-79.5 297,-49.5 169,-49.5"/>
<text text-anchor="start" x="177" y="-67.5" font-family="Helvetica,sans-Serif" font-size="10.00" fill="#000000">org.cobbzilla.util.security.</text>
<text text-anchor="middle" x="233" y="-56.5" font-family="Helvetica,sans-Serif" font-size="10.00" fill="#000000">ShaUtil.sha256_hex</text>
</a>
</g>
</g>
<!-- Node1&#45;&gt;Node9 -->
<g id="edge8" class="edge">
<title>Node1&#45;&gt;Node9</title>
<path fill="none" stroke="#191970" d="M125.7163,-95.6059C143.8936,-90.3356 163.5911,-84.6245 181.0874,-79.5516"/>
<polygon fill="#191970" stroke="#191970" points="124.7143,-92.2522 116.0846,-98.3986 126.6637,-98.9753 124.7143,-92.2522"/>
</g>
<!-- Node11 -->
<g id="node11" class="node">
<title>Node11</title>
<g id="a_node11"><a xlink:href="../../db/df2/classorg_1_1cobbzilla_1_1util_1_1io_1_1TarballTest_a50ce445e783e753505f31400584a94c8.html#a50ce445e783e753505f31400584a94c8" target="_top" xlink:title="org.cobbzilla.util.io.Tarball\lTest.validateUnrolledTarball">
<polygon fill="none" stroke="#000000" points="164,-.5 164,-30.5 302,-30.5 302,-.5 164,-.5"/>
<text text-anchor="start" x="172" y="-18.5" font-family="Helvetica,sans-Serif" font-size="10.00" fill="#000000">org.cobbzilla.util.io.Tarball</text>
<text text-anchor="middle" x="233" y="-7.5" font-family="Helvetica,sans-Serif" font-size="10.00" fill="#000000">Test.validateUnrolledTarball</text>
</a>
</g>
</g>
<!-- Node1&#45;&gt;Node11 -->
<g id="edge10" class="edge">
<title>Node1&#45;&gt;Node11</title>
<path fill="none" stroke="#191970" d="M88.7308,-91.8673C108.1492,-75.7353 136.4275,-54.0621 164,-39.5 170.1683,-36.2423 176.871,-33.2766 183.5939,-30.6278"/>
<polygon fill="#191970" stroke="#191970" points="86.367,-89.2823 80.979,-98.4048 90.8799,-94.6334 86.367,-89.2823"/>
</g>
<!-- Node3 -->
<g id="node3" class="node">
<title>Node3</title>
<g id="a_node3"><a xlink:href="../../d4/d79/classorg_1_1cobbzilla_1_1util_1_1security_1_1CryptoUtil_a24b4baeae069a07460da14c0e4c66bd8.html#a24b4baeae069a07460da14c0e4c66bd8" target="_top" xlink:title="org.cobbzilla.util.security.\lCryptoUtil.decrypt">
<polygon fill="none" stroke="#000000" points="339,-245.5 339,-275.5 467,-275.5 467,-245.5 339,-245.5"/>
<text text-anchor="start" x="347" y="-263.5" font-family="Helvetica,sans-Serif" font-size="10.00" fill="#000000">org.cobbzilla.util.security.</text>
<text text-anchor="middle" x="403" y="-252.5" font-family="Helvetica,sans-Serif" font-size="10.00" fill="#000000">CryptoUtil.decrypt</text>
</a>
</g>
</g>
<!-- Node2&#45;&gt;Node3 -->
<g id="edge2" class="edge">
<title>Node2&#45;&gt;Node3</title>
<path fill="none" stroke="#191970" d="M295.0815,-229.3941C313.3664,-234.6644 333.1804,-240.3755 350.7802,-245.4484"/>
<polygon fill="#191970" stroke="#191970" points="295.971,-226.008 285.3928,-226.6014 294.0322,-232.7342 295.971,-226.008"/>
</g>
<!-- Node4 -->
<g id="node4" class="node">
<title>Node4</title>
<g id="a_node4"><a xlink:href="../../d4/d79/classorg_1_1cobbzilla_1_1util_1_1security_1_1CryptoUtil_aaba98ccc6061232ad4bfa476aa553e65.html#aaba98ccc6061232ad4bfa476aa553e65" target="_top" xlink:title="org.cobbzilla.util.security.\lCryptoUtil.decryptStream">
<polygon fill="none" stroke="#000000" points="339,-196.5 339,-226.5 467,-226.5 467,-196.5 339,-196.5"/>
<text text-anchor="start" x="347" y="-214.5" font-family="Helvetica,sans-Serif" font-size="10.00" fill="#000000">org.cobbzilla.util.security.</text>
<text text-anchor="middle" x="403" y="-203.5" font-family="Helvetica,sans-Serif" font-size="10.00" fill="#000000">CryptoUtil.decryptStream</text>
</a>
</g>
</g>
<!-- Node2&#45;&gt;Node4 -->
<g id="edge3" class="edge">
<title>Node2&#45;&gt;Node4</title>
<path fill="none" stroke="#191970" d="M307.2872,-211.5C317.8294,-211.5 328.5951,-211.5 338.9214,-211.5"/>
<polygon fill="#191970" stroke="#191970" points="307.2697,-208.0001 297.2697,-211.5 307.2697,-215.0001 307.2697,-208.0001"/>
</g>
<!-- Node6 -->
<g id="node6" class="node">
<title>Node6</title>
<g id="a_node6"><a xlink:href="../../d4/d79/classorg_1_1cobbzilla_1_1util_1_1security_1_1CryptoUtil_a021fa6b40610f149b10d7078b0e68b2a.html#a021fa6b40610f149b10d7078b0e68b2a" target="_top" xlink:title="org.cobbzilla.util.security.\lCryptoUtil.encrypt">
<polygon fill="none" stroke="#000000" points="339,-147.5 339,-177.5 467,-177.5 467,-147.5 339,-147.5"/>
<text text-anchor="start" x="347" y="-165.5" font-family="Helvetica,sans-Serif" font-size="10.00" fill="#000000">org.cobbzilla.util.security.</text>
<text text-anchor="middle" x="403" y="-154.5" font-family="Helvetica,sans-Serif" font-size="10.00" fill="#000000">CryptoUtil.encrypt</text>
</a>
</g>
</g>
<!-- Node2&#45;&gt;Node6 -->
<g id="edge5" class="edge">
<title>Node2&#45;&gt;Node6</title>
<path fill="none" stroke="#191970" d="M295.0815,-193.6059C313.3664,-188.3356 333.1804,-182.6245 350.7802,-177.5516"/>
<polygon fill="#191970" stroke="#191970" points="294.0322,-190.2658 285.3928,-196.3986 295.971,-196.992 294.0322,-190.2658"/>
</g>
<!-- Node5 -->
<g id="node5" class="node">
<title>Node5</title>
<g id="a_node5"><a xlink:href="../../d5/d5e/classorg_1_1cobbzilla_1_1util_1_1security_1_1CryptoSimple_a3bdd277dfa9febba9572ef89ee364e4a.html#a3bdd277dfa9febba9572ef89ee364e4a" target="_top" xlink:title="org.cobbzilla.util.security.\lCryptoSimple.decryptStream">
<polygon fill="none" stroke="#000000" points="504,-196.5 504,-226.5 647,-226.5 647,-196.5 504,-196.5"/>
<text text-anchor="start" x="512" y="-214.5" font-family="Helvetica,sans-Serif" font-size="10.00" fill="#000000">org.cobbzilla.util.security.</text>
<text text-anchor="middle" x="575.5" y="-203.5" font-family="Helvetica,sans-Serif" font-size="10.00" fill="#000000">CryptoSimple.decryptStream</text>
</a>
</g>
</g>
<!-- Node4&#45;&gt;Node5 -->
<g id="edge4" class="edge">
<title>Node4&#45;&gt;Node5</title>
<path fill="none" stroke="#191970" d="M477.4569,-211.5C486.2509,-211.5 495.2115,-211.5 503.9639,-211.5"/>
<polygon fill="#191970" stroke="#191970" points="477.2327,-208.0001 467.2326,-211.5 477.2326,-215.0001 477.2327,-208.0001"/>
</g>
<!-- Node10 -->
<g id="node10" class="node">
<title>Node10</title>
<g id="a_node10"><a xlink:href="../../d7/d00/classorg_1_1cobbzilla_1_1util_1_1chef_1_1VendorDatabag_a225375fe59cf589ea3a2793f4da81af8.html#a225375fe59cf589ea3a2793f4da81af8" target="_top" xlink:title="org.cobbzilla.util.chef.\lVendorDatabag.isDefault">
<polygon fill="none" stroke="#000000" points="340,-49.5 340,-79.5 466,-79.5 466,-49.5 340,-49.5"/>
<text text-anchor="start" x="348" y="-67.5" font-family="Helvetica,sans-Serif" font-size="10.00" fill="#000000">org.cobbzilla.util.chef.</text>
<text text-anchor="middle" x="403" y="-56.5" font-family="Helvetica,sans-Serif" font-size="10.00" fill="#000000">VendorDatabag.isDefault</text>
</a>
</g>
</g>
<!-- Node9&#45;&gt;Node10 -->
<g id="edge9" class="edge">
<title>Node9&#45;&gt;Node10</title>
<path fill="none" stroke="#191970" d="M307.4963,-64.5C318.2597,-64.5 329.2512,-64.5 339.7662,-64.5"/>
<polygon fill="#191970" stroke="#191970" points="307.2697,-61.0001 297.2697,-64.5 307.2697,-68.0001 307.2697,-61.0001"/>
</g>
<!-- Node12 -->
<g id="node12" class="node">
<title>Node12</title>
<g id="a_node12"><a xlink:href="../../db/df2/classorg_1_1cobbzilla_1_1util_1_1io_1_1TarballTest_a2291fc7c46504058afb866982146cc43.html#a2291fc7c46504058afb866982146cc43" target="_top" xlink:title="org.cobbzilla.util.io.Tarball\lTest.testUnrollAndReroll">
<polygon fill="none" stroke="#000000" points="338,-.5 338,-30.5 468,-30.5 468,-.5 338,-.5"/>
<text text-anchor="start" x="346" y="-18.5" font-family="Helvetica,sans-Serif" font-size="10.00" fill="#000000">org.cobbzilla.util.io.Tarball</text>
<text text-anchor="middle" x="403" y="-7.5" font-family="Helvetica,sans-Serif" font-size="10.00" fill="#000000">Test.testUnrollAndReroll</text>
</a>
</g>
</g>
<!-- Node11&#45;&gt;Node12 -->
<g id="edge11" class="edge">
<title>Node11&#45;&gt;Node12</title>
<path fill="none" stroke="#191970" d="M312.1521,-15.5C320.7253,-15.5 329.3782,-15.5 337.7598,-15.5"/>
<polygon fill="#191970" stroke="#191970" points="312.1455,-12.0001 302.1455,-15.5 312.1455,-19.0001 312.1455,-12.0001"/>
</g>
</g>
</svg>
        <g id="navigator" transform="translate(0 0)" fill="#404254">
                <rect fill="#f2f5e9" fill-opacity="0.5" stroke="#606060" stroke-width=".5" x="0" y="0" width="60" height="60"/>
                <use id="zoomplus" xlink:href="#zoomPlus" x="17" y="9" onmousedown="handleZoom(evt,'in')"/>
                <use id="zoomminus" xlink:href="#zoomMin" x="42" y="9" onmousedown="handleZoom(evt,'out')"/>
                <use id="reset" xlink:href="#resetDef" x="30" y="36" onmousedown="handleReset()"/>
                <g id="arrowUp" xlink:href="#dirArrow" transform="translate(30 24)" onmousedown="handlePan(0,-1)">
                  <use xlink:href="#rim" fill="#404040">
                        <set attributeName="fill" to="#808080" begin="arrowUp.mouseover" end="arrowUp.mouseout"/>
                  </use>
                  <path fill="none" stroke="white" stroke-width="1.5" d="M0,-3.0v7 M-2.5,-0.5L0,-3.0L2.5,-0.5"/>
                </g>
                <g id="arrowRight" xlink:href="#dirArrow" transform="rotate(90) translate(36 -43)" onmousedown="handlePan(1,0)">
                  <use xlink:href="#rim" fill="#404040">
                        <set attributeName="fill" to="#808080" begin="arrowRight.mouseover" end="arrowRight.mouseout"/>
                  </use>
                  <path fill="none" stroke="white" stroke-width="1.5" d="M0,-3.0v7 M-2.5,-0.5L0,-3.0L2.5,-0.5"/>
                </g>
                <g id="arrowDown" xlink:href="#dirArrow" transform="rotate(180) translate(-30 -48)" onmousedown="handlePan(0,1)">
                  <use xlink:href="#rim" fill="#404040">
                        <set attributeName="fill" to="#808080" begin="arrowDown.mouseover" end="arrowDown.mouseout"/>
                  </use>
                  <path fill="none" stroke="white" stroke-width="1.5" d="M0,-3.0v7 M-2.5,-0.5L0,-3.0L2.5,-0.5"/>
                </g>
                <g id="arrowLeft" xlink:href="#dirArrow" transform="rotate(270) translate(-36 17)" onmousedown="handlePan(-1,0)">
                  <use xlink:href="#rim" fill="#404040">
                        <set attributeName="fill" to="#808080" begin="arrowLeft.mouseover" end="arrowLeft.mouseout"/>
                  </use>
                  <path fill="none" stroke="white" stroke-width="1.5" d="M0,-3.0v7 M-2.5,-0.5L0,-3.0L2.5,-0.5"/>
                </g>
        </g>
        <svg viewBox="0 0 15 15" width="100%" height="30px" preserveAspectRatio="xMaxYMin meet">
         <g id="arrow_out" transform="scale(0.3 0.3)">
          <a xlink:href="classorg_1_1cobbzilla_1_1util_1_1security_1_1ShaUtil_a03b7cc0a3af72faadda992c8f324dadc_a03b7cc0a3af72faadda992c8f324dadc_icgraph_org.svg" target="_base">
           <rect id="button" ry="5" rx="5" y="6" x="6" height="38" width="38"
                fill="#f2f5e9" fill-opacity="0.5" stroke="#606060" stroke-width="1.0"/>
           <path id="arrow"
             d="M 11.500037,31.436501 C 11.940474,20.09759 22.043105,11.32322 32.158766,21.979434 L 37.068811,17.246167 C 37.068811,17.246167 37.088388,32 37.088388,32 L 22.160133,31.978069 C 22.160133,31.978069 26.997745,27.140456 26.997745,27.140456 C 18.528582,18.264221 13.291696,25.230495 11.500037,31.436501 z"
             style="fill:#404040;"/>
          </a>
         </g>
        </svg>
</svg>
