<?xml version="1.0" encoding="UTF-8" standalone="no"?>
<!DOCTYPE svg PUBLIC "-//W3C//DTD SVG 1.1//EN"
 "http://www.w3.org/Graphics/SVG/1.1/DTD/svg11.dtd">
<!-- Generated by graphviz version 2.40.1 (20161225.0304)
 -->
<!-- Title: org.cobbzilla.util.security.ShaUtil.sha256_url Pages: 1 -->
<svg width="470pt" height="127pt"
 viewBox="0.00 0.00 470.00 127.00" xmlns="http://www.w3.org/2000/svg" xmlns:xlink="http://www.w3.org/1999/xlink">
<g id="graph0" class="graph" transform="scale(1 1) rotate(0) translate(4 123)">
<title>org.cobbzilla.util.security.ShaUtil.sha256_url</title>
<!-- Node0 -->
<g id="node1" class="node">
<title>Node0</title>
<polygon fill="#bfbfbf" stroke="#000000" points="0,-44.5 0,-74.5 128,-74.5 128,-44.5 0,-44.5"/>
<text text-anchor="start" x="8" y="-62.5" font-family="Helvetica,sans-Serif" font-size="10.00" fill="#000000">org.cobbzilla.util.security.</text>
<text text-anchor="middle" x="64" y="-51.5" font-family="Helvetica,sans-Serif" font-size="10.00" fill="#000000">ShaUtil.sha256_url</text>
</g>
<!-- Node1 -->
<g id="node2" class="node">
<title>Node1</title>
<g id="a_node2"><a xlink:href="../../d6/dbf/classorg_1_1cobbzilla_1_1util_1_1security_1_1ShaUtil_aa13d4a46008825f0c930ad381e121877.html#aa13d4a46008825f0c930ad381e121877" target="_top" xlink:title="org.cobbzilla.util.security.\lShaUtil.getMessageDigest">
<polygon fill="none" stroke="#000000" points="164,-88.5 164,-118.5 298,-118.5 298,-88.5 164,-88.5"/>
<text text-anchor="start" x="172" y="-106.5" font-family="Helvetica,sans-Serif" font-size="10.00" fill="#000000">org.cobbzilla.util.security.</text>
<text text-anchor="middle" x="231" y="-95.5" font-family="Helvetica,sans-Serif" font-size="10.00" fill="#000000">ShaUtil.getMessageDigest</text>
</a>
</g>
</g>
<!-- Node0&#45;&gt;Node1 -->
<g id="edge1" class="edge">
<title>Node0&#45;&gt;Node1</title>
<path fill="none" stroke="#191970" d="M121.0048,-74.5192C134.9007,-78.1804 149.8887,-82.1294 164.195,-85.8987"/>
<polygon fill="#191970" stroke="#191970" points="163.407,-89.3104 173.9687,-88.4738 165.1905,-82.5414 163.407,-89.3104"/>
</g>
<!-- Node2 -->
<g id="node3" class="node">
<title>Node2</title>
<g id="a_node3"><a xlink:href="../../d6/dbf/classorg_1_1cobbzilla_1_1util_1_1security_1_1ShaUtil_a7b008435187dff00bc4e2685c3f0299b.html#a7b008435187dff00bc4e2685c3f0299b" target="_top" xlink:title="org.cobbzilla.util.security.\lShaUtil.md">
<polygon fill="none" stroke="#000000" points="334,-66.5 334,-96.5 462,-96.5 462,-66.5 334,-66.5"/>
<text text-anchor="start" x="342" y="-84.5" font-family="Helvetica,sans-Serif" font-size="10.00" fill="#000000">org.cobbzilla.util.security.</text>
<text text-anchor="middle" x="398" y="-73.5" font-family="Helvetica,sans-Serif" font-size="10.00" fill="#000000">ShaUtil.md</text>
</a>
</g>
</g>
<!-- Node0&#45;&gt;Node2 -->
<g id="edge3" class="edge">
<title>Node0&#45;&gt;Node2</title>
<path fill="none" stroke="#191970" d="M128.0034,-63.7158C183.844,-67.3939 264.891,-72.7323 323.6051,-76.5997"/>
<polygon fill="#191970" stroke="#191970" points="323.7207,-80.1148 333.9292,-77.2798 324.1808,-73.13 323.7207,-80.1148"/>
</g>
<!-- Node3 -->
<g id="node4" class="node">
<title>Node3</title>
<g id="a_node4"><a xlink:href="../../db/d9f/classorg_1_1cobbzilla_1_1util_1_1string_1_1StringUtil_afa3e20cacadb59529d8a3f5a104365b4.html#afa3e20cacadb59529d8a3f5a104365b4" target="_top" xlink:title="org.cobbzilla.util.string.\lStringUtil.tohex">
<polygon fill="none" stroke="#000000" points="172.5,-.5 172.5,-30.5 289.5,-30.5 289.5,-.5 172.5,-.5"/>
<text text-anchor="start" x="180.5" y="-18.5" font-family="Helvetica,sans-Serif" font-size="10.00" fill="#000000">org.cobbzilla.util.string.</text>
<text text-anchor="middle" x="231" y="-7.5" font-family="Helvetica,sans-Serif" font-size="10.00" fill="#000000">StringUtil.tohex</text>
</a>
</g>
</g>
<!-- Node0&#45;&gt;Node3 -->
<g id="edge4" class="edge">
<title>Node0&#45;&gt;Node3</title>
<path fill="none" stroke="#191970" d="M121.0048,-44.4808C134.9007,-40.8196 149.8887,-36.8706 164.195,-33.1013"/>
<polygon fill="#191970" stroke="#191970" points="165.1905,-36.4586 173.9687,-30.5262 163.407,-29.6896 165.1905,-36.4586"/>
</g>
<!-- Node1&#45;&gt;Node2 -->
<g id="edge2" class="edge">
<title>Node1&#45;&gt;Node2</title>
<path fill="none" stroke="#191970" d="M298.4439,-94.6152C306.746,-93.5215 315.2682,-92.3988 323.6652,-91.2926"/>
<polygon fill="#191970" stroke="#191970" points="324.3653,-94.7307 333.8225,-89.9545 323.451,-87.7907 324.3653,-94.7307"/>
</g>
</g>
</svg>
