<?xml version="1.0" encoding="UTF-8" standalone="no"?>
<!DOCTYPE svg PUBLIC "-//W3C//DTD SVG 1.1//EN"
 "http://www.w3.org/Graphics/SVG/1.1/DTD/svg11.dtd">
<!-- Generated by graphviz version 2.40.1 (20161225.0304)
 -->
<!-- Title: org.cobbzilla.util.security.ShaUtil.md Pages: 1 -->
<svg width="634pt" height="161pt"
 viewBox="0.00 0.00 634.00 161.00" xmlns="http://www.w3.org/2000/svg" xmlns:xlink="http://www.w3.org/1999/xlink">
<g id="graph0" class="graph" transform="scale(1 1) rotate(0) translate(4 157)">
<title>org.cobbzilla.util.security.ShaUtil.md</title>
<!-- Node1 -->
<g id="node1" class="node">
<title>Node1</title>
<polygon fill="#bfbfbf" stroke="#000000" points="0,-66.5 0,-96.5 128,-96.5 128,-66.5 0,-66.5"/>
<text text-anchor="start" x="8" y="-84.5" font-family="Helvetica,sans-Serif" font-size="10.00" fill="#000000">org.cobbzilla.util.security.</text>
<text text-anchor="middle" x="64" y="-73.5" font-family="Helvetica,sans-Serif" font-size="10.00" fill="#000000">ShaUtil.md</text>
</g>
<!-- Node2 -->
<g id="node2" class="node">
<title>Node2</title>
<g id="a_node2"><a xlink:href="../../d6/dbf/classorg_1_1cobbzilla_1_1util_1_1security_1_1ShaUtil_aa13d4a46008825f0c930ad381e121877.html#aa13d4a46008825f0c930ad381e121877" target="_top" xlink:title="org.cobbzilla.util.security.\lShaUtil.getMessageDigest">
<polygon fill="none" stroke="#000000" points="164,-88.5 164,-118.5 298,-118.5 298,-88.5 164,-88.5"/>
<text text-anchor="start" x="172" y="-106.5" font-family="Helvetica,sans-Serif" font-size="10.00" fill="#000000">org.cobbzilla.util.security.</text>
<text text-anchor="middle" x="231" y="-95.5" font-family="Helvetica,sans-Serif" font-size="10.00" fill="#000000">ShaUtil.getMessageDigest</text>
</a>
</g>
</g>
<!-- Node1&#45;&gt;Node2 -->
<g id="edge1" class="edge">
<title>Node1&#45;&gt;Node2</title>
<path fill="none" stroke="#191970" d="M138.0508,-91.2552C146.608,-92.3825 155.2993,-93.5275 163.759,-94.6419"/>
<polygon fill="#191970" stroke="#191970" points="138.4605,-87.779 128.089,-89.9429 137.5461,-94.719 138.4605,-87.779"/>
</g>
<!-- Node3 -->
<g id="node3" class="node">
<title>Node3</title>
<g id="a_node3"><a xlink:href="../../d6/dbf/classorg_1_1cobbzilla_1_1util_1_1security_1_1ShaUtil_ad1113ed6018d6941253a27ec8ead85d3.html#ad1113ed6018d6941253a27ec8ead85d3" target="_top" xlink:title="org.cobbzilla.util.security.\lShaUtil.sha256_file_java">
<polygon fill="none" stroke="#000000" points="334,-122.5 334,-152.5 462,-152.5 462,-122.5 334,-122.5"/>
<text text-anchor="start" x="342" y="-140.5" font-family="Helvetica,sans-Serif" font-size="10.00" fill="#000000">org.cobbzilla.util.security.</text>
<text text-anchor="middle" x="398" y="-129.5" font-family="Helvetica,sans-Serif" font-size="10.00" fill="#000000">ShaUtil.sha256_file_java</text>
</a>
</g>
</g>
<!-- Node1&#45;&gt;Node3 -->
<g id="edge6" class="edge">
<title>Node1&#45;&gt;Node3</title>
<path fill="none" stroke="#191970" d="M97.6325,-101.4634C116.4667,-111.5579 140.775,-122.8435 164,-128.5 220.288,-142.2091 286.4163,-143.4448 333.989,-141.8457"/>
<polygon fill="#191970" stroke="#191970" points="99.3036,-98.3881 88.855,-96.6335 95.9289,-104.5209 99.3036,-98.3881"/>
</g>
<!-- Node5 -->
<g id="node5" class="node">
<title>Node5</title>
<g id="a_node5"><a xlink:href="../../d6/dbf/classorg_1_1cobbzilla_1_1util_1_1security_1_1ShaUtil_a01851dd493de6de4bd3dfec299326090.html#a01851dd493de6de4bd3dfec299326090" target="_top" xlink:title="org.cobbzilla.util.security.\lShaUtil.sha256_url">
<polygon fill="none" stroke="#000000" points="334,-63.5 334,-93.5 462,-93.5 462,-63.5 334,-63.5"/>
<text text-anchor="start" x="342" y="-81.5" font-family="Helvetica,sans-Serif" font-size="10.00" fill="#000000">org.cobbzilla.util.security.</text>
<text text-anchor="middle" x="398" y="-70.5" font-family="Helvetica,sans-Serif" font-size="10.00" fill="#000000">ShaUtil.sha256_url</text>
</a>
</g>
</g>
<!-- Node1&#45;&gt;Node5 -->
<g id="edge7" class="edge">
<title>Node1&#45;&gt;Node5</title>
<path fill="none" stroke="#191970" d="M138.1773,-79.0266C146.8813,-78.8098 155.6367,-78.6254 164,-78.5 221.4779,-77.638 286.9064,-77.7289 333.9359,-77.9827"/>
<polygon fill="#191970" stroke="#191970" points="137.914,-75.5322 128.0097,-79.2942 138.0983,-82.5297 137.914,-75.5322"/>
</g>
<!-- Node6 -->
<g id="node6" class="node">
<title>Node6</title>
<g id="a_node6"><a xlink:href="../../d6/dbf/classorg_1_1cobbzilla_1_1util_1_1security_1_1ShaUtil_a6c2461470a0851c791e1d1944d8d5886.html#a6c2461470a0851c791e1d1944d8d5886" target="_top" xlink:title="org.cobbzilla.util.security.\lShaUtil.sha256">
<polygon fill="none" stroke="#000000" points="167,-.5 167,-30.5 295,-30.5 295,-.5 167,-.5"/>
<text text-anchor="start" x="175" y="-18.5" font-family="Helvetica,sans-Serif" font-size="10.00" fill="#000000">org.cobbzilla.util.security.</text>
<text text-anchor="middle" x="231" y="-7.5" font-family="Helvetica,sans-Serif" font-size="10.00" fill="#000000">ShaUtil.sha256</text>
</a>
</g>
</g>
<!-- Node1&#45;&gt;Node6 -->
<g id="edge5" class="edge">
<title>Node1&#45;&gt;Node6</title>
<path fill="none" stroke="#191970" d="M111.8666,-62.5827C137.5711,-52.424 168.8211,-40.0737 192.8651,-30.5713"/>
<polygon fill="#191970" stroke="#191970" points="110.3268,-59.4277 102.3132,-66.3583 112.8997,-65.9378 110.3268,-59.4277"/>
</g>
<!-- Node2&#45;&gt;Node3 -->
<g id="edge2" class="edge">
<title>Node2&#45;&gt;Node3</title>
<path fill="none" stroke="#191970" d="M308.3789,-119.2538C316.8937,-120.9873 325.4938,-122.7383 333.8225,-124.4339"/>
<polygon fill="#191970" stroke="#191970" points="308.9412,-115.7965 298.4439,-117.2311 307.5446,-122.6558 308.9412,-115.7965"/>
</g>
<!-- Node2&#45;&gt;Node5 -->
<g id="edge4" class="edge">
<title>Node2&#45;&gt;Node5</title>
<path fill="none" stroke="#191970" d="M308.3789,-91.9163C316.8937,-90.6417 325.4938,-89.3542 333.8225,-88.1074"/>
<polygon fill="#191970" stroke="#191970" points="307.8155,-88.4616 298.4439,-93.4036 308.8519,-95.3844 307.8155,-88.4616"/>
</g>
<!-- Node4 -->
<g id="node4" class="node">
<title>Node4</title>
<g id="a_node4"><a xlink:href="../../d6/dbf/classorg_1_1cobbzilla_1_1util_1_1security_1_1ShaUtil_aa74201a78df200c56dd062c4573828d4.html#aa74201a78df200c56dd062c4573828d4" target="_top" xlink:title="org.cobbzilla.util.security.\lShaUtil.sha256_file">
<polygon fill="none" stroke="#000000" points="498,-122.5 498,-152.5 626,-152.5 626,-122.5 498,-122.5"/>
<text text-anchor="start" x="506" y="-140.5" font-family="Helvetica,sans-Serif" font-size="10.00" fill="#000000">org.cobbzilla.util.security.</text>
<text text-anchor="middle" x="562" y="-129.5" font-family="Helvetica,sans-Serif" font-size="10.00" fill="#000000">ShaUtil.sha256_file</text>
</a>
</g>
</g>
<!-- Node3&#45;&gt;Node4 -->
<g id="edge3" class="edge">
<title>Node3&#45;&gt;Node4</title>
<path fill="none" stroke="#191970" d="M472.5641,-137.5C481.0037,-137.5 489.5492,-137.5 497.8391,-137.5"/>
<polygon fill="#191970" stroke="#191970" points="472.3465,-134.0001 462.3464,-137.5 472.3464,-141.0001 472.3465,-134.0001"/>
</g>
</g>
</svg>
