<?xml version="1.0" encoding="UTF-8" standalone="no"?>
<!DOCTYPE svg PUBLIC "-//W3C//DTD SVG 1.1//EN"
 "http://www.w3.org/Graphics/SVG/1.1/DTD/svg11.dtd">
<!-- Generated by graphviz version 2.40.1 (20161225.0304)
 -->
<!-- Title: org.cobbzilla.util.security.ShaUtil.getMessageDigest Pages: 1 -->
<svg width="470pt" height="88pt"
 viewBox="0.00 0.00 470.00 88.00" xmlns="http://www.w3.org/2000/svg" xmlns:xlink="http://www.w3.org/1999/xlink">
<g id="graph0" class="graph" transform="scale(1 1) rotate(0) translate(4 84)">
<title>org.cobbzilla.util.security.ShaUtil.getMessageDigest</title>
<!-- Node2 -->
<g id="node1" class="node">
<title>Node2</title>
<polygon fill="#bfbfbf" stroke="#000000" points="0,-24.5 0,-54.5 134,-54.5 134,-24.5 0,-24.5"/>
<text text-anchor="start" x="8" y="-42.5" font-family="Helvetica,sans-Serif" font-size="10.00" fill="#000000">org.cobbzilla.util.security.</text>
<text text-anchor="middle" x="67" y="-31.5" font-family="Helvetica,sans-Serif" font-size="10.00" fill="#000000">ShaUtil.getMessageDigest</text>
</g>
<!-- Node3 -->
<g id="node2" class="node">
<title>Node3</title>
<g id="a_node2"><a xlink:href="../../d6/dbf/classorg_1_1cobbzilla_1_1util_1_1security_1_1ShaUtil_ad1113ed6018d6941253a27ec8ead85d3.html#ad1113ed6018d6941253a27ec8ead85d3" target="_top" xlink:title="org.cobbzilla.util.security.\lShaUtil.sha256_file_java">
<polygon fill="none" stroke="#000000" points="170,-49.5 170,-79.5 298,-79.5 298,-49.5 170,-49.5"/>
<text text-anchor="start" x="178" y="-67.5" font-family="Helvetica,sans-Serif" font-size="10.00" fill="#000000">org.cobbzilla.util.security.</text>
<text text-anchor="middle" x="234" y="-56.5" font-family="Helvetica,sans-Serif" font-size="10.00" fill="#000000">ShaUtil.sha256_file_java</text>
</a>
</g>
</g>
<!-- Node2&#45;&gt;Node3 -->
<g id="edge1" class="edge">
<title>Node2&#45;&gt;Node3</title>
<path fill="none" stroke="#191970" d="M144.3789,-51.0837C152.8937,-52.3583 161.4938,-53.6458 169.8225,-54.8926"/>
<polygon fill="#191970" stroke="#191970" points="144.8519,-47.6156 134.4439,-49.5964 143.8155,-54.5384 144.8519,-47.6156"/>
</g>
<!-- Node5 -->
<g id="node4" class="node">
<title>Node5</title>
<g id="a_node4"><a xlink:href="../../d6/dbf/classorg_1_1cobbzilla_1_1util_1_1security_1_1ShaUtil_a01851dd493de6de4bd3dfec299326090.html#a01851dd493de6de4bd3dfec299326090" target="_top" xlink:title="org.cobbzilla.util.security.\lShaUtil.sha256_url">
<polygon fill="none" stroke="#000000" points="170,-.5 170,-30.5 298,-30.5 298,-.5 170,-.5"/>
<text text-anchor="start" x="178" y="-18.5" font-family="Helvetica,sans-Serif" font-size="10.00" fill="#000000">org.cobbzilla.util.security.</text>
<text text-anchor="middle" x="234" y="-7.5" font-family="Helvetica,sans-Serif" font-size="10.00" fill="#000000">ShaUtil.sha256_url</text>
</a>
</g>
</g>
<!-- Node2&#45;&gt;Node5 -->
<g id="edge3" class="edge">
<title>Node2&#45;&gt;Node5</title>
<path fill="none" stroke="#191970" d="M144.3789,-28.3797C152.8937,-27.156 161.4938,-25.9201 169.8225,-24.7231"/>
<polygon fill="#191970" stroke="#191970" points="143.8443,-24.9205 134.4439,-29.8075 144.8401,-31.8493 143.8443,-24.9205"/>
</g>
<!-- Node4 -->
<g id="node3" class="node">
<title>Node4</title>
<g id="a_node3"><a xlink:href="../../d6/dbf/classorg_1_1cobbzilla_1_1util_1_1security_1_1ShaUtil_aa74201a78df200c56dd062c4573828d4.html#aa74201a78df200c56dd062c4573828d4" target="_top" xlink:title="org.cobbzilla.util.security.\lShaUtil.sha256_file">
<polygon fill="none" stroke="#000000" points="334,-49.5 334,-79.5 462,-79.5 462,-49.5 334,-49.5"/>
<text text-anchor="start" x="342" y="-67.5" font-family="Helvetica,sans-Serif" font-size="10.00" fill="#000000">org.cobbzilla.util.security.</text>
<text text-anchor="middle" x="398" y="-56.5" font-family="Helvetica,sans-Serif" font-size="10.00" fill="#000000">ShaUtil.sha256_file</text>
</a>
</g>
</g>
<!-- Node3&#45;&gt;Node4 -->
<g id="edge2" class="edge">
<title>Node3&#45;&gt;Node4</title>
<path fill="none" stroke="#191970" d="M308.5641,-64.5C317.0037,-64.5 325.5492,-64.5 333.8391,-64.5"/>
<polygon fill="#191970" stroke="#191970" points="308.3465,-61.0001 298.3464,-64.5 308.3464,-68.0001 308.3465,-61.0001"/>
</g>
</g>
</svg>
