<?xml version="1.0" encoding="UTF-8" standalone="no"?>
<!DOCTYPE svg PUBLIC "-//W3C//DTD SVG 1.1//EN"
 "http://www.w3.org/Graphics/SVG/1.1/DTD/svg11.dtd">
<!-- Generated by graphviz version 2.40.1 (20161225.0304)
 -->
<!-- Title: org.cobbzilla.util.security.ShaUtil.sha256_file Pages: 1 -->
<!--zoomable 181 -->
<svg id="main" version="1.1" xmlns="http://www.w3.org/2000/svg" xmlns:xlink="http://www.w3.org/1999/xlink" xml:space="preserve" onload="init(evt)">
<style type="text/css"><![CDATA[
.edge:hover path { stroke: red; }
.edge:hover polygon { stroke: red; fill: red; }
]]></style>
<script type="text/javascript"><![CDATA[
var edges = document.getElementsByTagName('g');
if (edges && edges.length) {
  for (var i=0;i<edges.length;i++) {
    if (edges[i].id.substr(0,4)=='edge') {
      edges[i].setAttribute('class','edge');
    }
  }
}
]]></script>
        <defs>
                <circle id="rim" cx="0" cy="0" r="7"/>
                <circle id="rim2" cx="0" cy="0" r="3.5"/>
                <g id="zoomPlus">
                        <use xlink:href="#rim" fill="#404040">
                                <set attributeName="fill" to="#808080" begin="zoomplus.mouseover" end="zoomplus.mouseout"/>
                        </use>
                        <path d="M-4,0h8M0,-4v8" fill="none" stroke="white" stroke-width="1.5" pointer-events="none"/>
                </g>
                <g id="zoomMin">
                        <use xlink:href="#rim" fill="#404040">
                                <set attributeName="fill" to="#808080" begin="zoomminus.mouseover" end="zoomminus.mouseout"/>
                        </use>
                        <path d="M-4,0h8" fill="none" stroke="white" stroke-width="1.5" pointer-events="none"/>
                </g>
                <g id="dirArrow">
                        <path fill="none" stroke="white" stroke-width="1.5" d="M0,-3.0v7 M-2.5,-0.5L0,-3.0L2.5,-0.5"/>
                </g>
               <g id="resetDef">
                       <use xlink:href="#rim2" fill="#404040">
                               <set attributeName="fill" to="#808080" begin="reset.mouseover" end="reset.mouseout"/>
                       </use>
               </g>
        </defs>

<script type="text/javascript">
var viewWidth = 700;
var viewHeight = 181;
var sectionId = 'dynsection-0';
</script>
<script xlink:href="../../svgpan.js"/>
<svg id="graph" class="graph">
<g id="viewport">
<title>org.cobbzilla.util.security.ShaUtil.sha256_file</title>
<!-- Node0 -->
<g id="node1" class="node">
<title>Node0</title>
<polygon fill="#bfbfbf" stroke="#000000" points="0,-93.5 0,-123.5 128,-123.5 128,-93.5 0,-93.5"/>
<text text-anchor="start" x="8" y="-111.5" font-family="Helvetica,sans-Serif" font-size="10.00" fill="#000000">org.cobbzilla.util.security.</text>
<text text-anchor="middle" x="64" y="-100.5" font-family="Helvetica,sans-Serif" font-size="10.00" fill="#000000">ShaUtil.sha256_file</text>
</g>
<!-- Node1 -->
<g id="node2" class="node">
<title>Node1</title>
<g id="a_node2"><a xlink:href="../../d0/de1/classorg_1_1cobbzilla_1_1util_1_1system_1_1CommandResult_ace8f1a4844470e27cd5fd36bd1b37949.html#ace8f1a4844470e27cd5fd36bd1b37949" target="_top" xlink:title="org.cobbzilla.util.system.\lCommandResult.getExceptionString">
<polygon fill="none" stroke="#000000" points="164,-142.5 164,-172.5 340,-172.5 340,-142.5 164,-142.5"/>
<text text-anchor="start" x="172" y="-160.5" font-family="Helvetica,sans-Serif" font-size="10.00" fill="#000000">org.cobbzilla.util.system.</text>
<text text-anchor="middle" x="252" y="-149.5" font-family="Helvetica,sans-Serif" font-size="10.00" fill="#000000">CommandResult.getExceptionString</text>
</a>
</g>
</g>
<!-- Node0&#45;&gt;Node1 -->
<g id="edge1" class="edge">
<title>Node0&#45;&gt;Node1</title>
<path fill="none" stroke="#191970" d="M121.6838,-123.5346C141.534,-128.7083 163.9374,-134.5475 184.4987,-139.9066"/>
<polygon fill="#191970" stroke="#191970" points="183.8658,-143.3585 194.4252,-142.4938 185.6313,-136.5848 183.8658,-143.3585"/>
</g>
<!-- Node3 -->
<g id="node4" class="node">
<title>Node3</title>
<g id="a_node4"><a xlink:href="../../d0/de1/classorg_1_1cobbzilla_1_1util_1_1system_1_1CommandResult_af08d664d99fa95d986eef960b6e1d527.html#af08d664d99fa95d986eef960b6e1d527" target="_top" xlink:title="org.cobbzilla.util.system.\lCommandResult.isZeroExitStatus">
<polygon fill="none" stroke="#000000" points="169,-93.5 169,-123.5 335,-123.5 335,-93.5 169,-93.5"/>
<text text-anchor="start" x="177" y="-111.5" font-family="Helvetica,sans-Serif" font-size="10.00" fill="#000000">org.cobbzilla.util.system.</text>
<text text-anchor="middle" x="252" y="-100.5" font-family="Helvetica,sans-Serif" font-size="10.00" fill="#000000">CommandResult.isZeroExitStatus</text>
</a>
</g>
</g>
<!-- Node0&#45;&gt;Node3 -->
<g id="edge3" class="edge">
<title>Node0&#45;&gt;Node3</title>
<path fill="none" stroke="#191970" d="M128.1731,-108.5C137.9859,-108.5 148.2824,-108.5 158.5699,-108.5"/>
<polygon fill="#191970" stroke="#191970" points="158.8361,-112.0001 168.836,-108.5 158.836,-105.0001 158.8361,-112.0001"/>
</g>
<!-- Node4 -->
<g id="node5" class="node">
<title>Node4</title>
<g id="a_node5"><a xlink:href="../../d6/dbf/classorg_1_1cobbzilla_1_1util_1_1security_1_1ShaUtil_ad1113ed6018d6941253a27ec8ead85d3.html#ad1113ed6018d6941253a27ec8ead85d3" target="_top" xlink:title="org.cobbzilla.util.security.\lShaUtil.sha256_file_java">
<polygon fill="none" stroke="#000000" points="188,-44.5 188,-74.5 316,-74.5 316,-44.5 188,-44.5"/>
<text text-anchor="start" x="196" y="-62.5" font-family="Helvetica,sans-Serif" font-size="10.00" fill="#000000">org.cobbzilla.util.security.</text>
<text text-anchor="middle" x="252" y="-51.5" font-family="Helvetica,sans-Serif" font-size="10.00" fill="#000000">ShaUtil.sha256_file_java</text>
</a>
</g>
</g>
<!-- Node0&#45;&gt;Node4 -->
<g id="edge4" class="edge">
<title>Node0&#45;&gt;Node4</title>
<path fill="none" stroke="#191970" d="M121.6838,-93.4654C141.534,-88.2917 163.9374,-82.4525 184.4987,-77.0934"/>
<polygon fill="#191970" stroke="#191970" points="185.6313,-80.4152 194.4252,-74.5062 183.8658,-73.6415 185.6313,-80.4152"/>
</g>
<!-- Node2 -->
<g id="node3" class="node">
<title>Node2</title>
<g id="a_node3"><a xlink:href="../../d0/de1/classorg_1_1cobbzilla_1_1util_1_1system_1_1CommandResult_a61fa9c6e0472c83bac93947d960036da.html#a61fa9c6e0472c83bac93947d960036da" target="_top" xlink:title="org.cobbzilla.util.system.\lCommandResult.hasException">
<polygon fill="none" stroke="#000000" points="376,-142.5 376,-172.5 528,-172.5 528,-142.5 376,-142.5"/>
<text text-anchor="start" x="384" y="-160.5" font-family="Helvetica,sans-Serif" font-size="10.00" fill="#000000">org.cobbzilla.util.system.</text>
<text text-anchor="middle" x="452" y="-149.5" font-family="Helvetica,sans-Serif" font-size="10.00" fill="#000000">CommandResult.hasException</text>
</a>
</g>
</g>
<!-- Node1&#45;&gt;Node2 -->
<g id="edge2" class="edge">
<title>Node1&#45;&gt;Node2</title>
<path fill="none" stroke="#191970" d="M340.014,-157.5C348.5077,-157.5 357.1184,-157.5 365.5963,-157.5"/>
<polygon fill="#191970" stroke="#191970" points="365.8549,-161.0001 375.8548,-157.5 365.8548,-154.0001 365.8549,-161.0001"/>
</g>
<!-- Node5 -->
<g id="node6" class="node">
<title>Node5</title>
<g id="a_node6"><a xlink:href="../../d6/dbf/classorg_1_1cobbzilla_1_1util_1_1security_1_1ShaUtil_aa13d4a46008825f0c930ad381e121877.html#aa13d4a46008825f0c930ad381e121877" target="_top" xlink:title="org.cobbzilla.util.security.\lShaUtil.getMessageDigest">
<polygon fill="none" stroke="#000000" points="385,-88.5 385,-118.5 519,-118.5 519,-88.5 385,-88.5"/>
<text text-anchor="start" x="393" y="-106.5" font-family="Helvetica,sans-Serif" font-size="10.00" fill="#000000">org.cobbzilla.util.security.</text>
<text text-anchor="middle" x="452" y="-95.5" font-family="Helvetica,sans-Serif" font-size="10.00" fill="#000000">ShaUtil.getMessageDigest</text>
</a>
</g>
</g>
<!-- Node4&#45;&gt;Node5 -->
<g id="edge5" class="edge">
<title>Node4&#45;&gt;Node5</title>
<path fill="none" stroke="#191970" d="M316.1065,-73.6034C334.7874,-77.7132 355.3951,-82.2469 374.7941,-86.5147"/>
<polygon fill="#191970" stroke="#191970" points="374.2932,-89.9881 384.8117,-88.7186 375.7973,-83.1516 374.2932,-89.9881"/>
</g>
<!-- Node6 -->
<g id="node7" class="node">
<title>Node6</title>
<g id="a_node7"><a xlink:href="../../d6/dbf/classorg_1_1cobbzilla_1_1util_1_1security_1_1ShaUtil_a7b008435187dff00bc4e2685c3f0299b.html#a7b008435187dff00bc4e2685c3f0299b" target="_top" xlink:title="org.cobbzilla.util.security.\lShaUtil.md">
<polygon fill="none" stroke="#000000" points="564,-66.5 564,-96.5 692,-96.5 692,-66.5 564,-66.5"/>
<text text-anchor="start" x="572" y="-84.5" font-family="Helvetica,sans-Serif" font-size="10.00" fill="#000000">org.cobbzilla.util.security.</text>
<text text-anchor="middle" x="628" y="-73.5" font-family="Helvetica,sans-Serif" font-size="10.00" fill="#000000">ShaUtil.md</text>
</a>
</g>
</g>
<!-- Node4&#45;&gt;Node6 -->
<g id="edge7" class="edge">
<title>Node4&#45;&gt;Node6</title>
<path fill="none" stroke="#191970" d="M316.2095,-63.2569C381.9463,-67.1032 484.0333,-73.0764 553.3365,-77.1314"/>
<polygon fill="#191970" stroke="#191970" points="553.5535,-80.65 563.7409,-77.7402 553.9625,-73.6619 553.5535,-80.65"/>
</g>
<!-- Node7 -->
<g id="node8" class="node">
<title>Node7</title>
<g id="a_node8"><a xlink:href="../../db/d9f/classorg_1_1cobbzilla_1_1util_1_1string_1_1StringUtil_afa3e20cacadb59529d8a3f5a104365b4.html#afa3e20cacadb59529d8a3f5a104365b4" target="_top" xlink:title="org.cobbzilla.util.string.\lStringUtil.tohex">
<polygon fill="none" stroke="#000000" points="393.5,-.5 393.5,-30.5 510.5,-30.5 510.5,-.5 393.5,-.5"/>
<text text-anchor="start" x="401.5" y="-18.5" font-family="Helvetica,sans-Serif" font-size="10.00" fill="#000000">org.cobbzilla.util.string.</text>
<text text-anchor="middle" x="452" y="-7.5" font-family="Helvetica,sans-Serif" font-size="10.00" fill="#000000">StringUtil.tohex</text>
</a>
</g>
</g>
<!-- Node4&#45;&gt;Node7 -->
<g id="edge8" class="edge">
<title>Node4&#45;&gt;Node7</title>
<path fill="none" stroke="#191970" d="M316.1065,-45.3966C337.6072,-40.6664 361.6603,-35.3747 383.4853,-30.5732"/>
<polygon fill="#191970" stroke="#191970" points="384.3246,-33.9724 393.339,-28.4054 382.8205,-27.1359 384.3246,-33.9724"/>
</g>
<!-- Node5&#45;&gt;Node6 -->
<g id="edge6" class="edge">
<title>Node5&#45;&gt;Node6</title>
<path fill="none" stroke="#191970" d="M519.0401,-95.12C530.3854,-93.7018 542.2243,-92.222 553.7411,-90.7824"/>
<polygon fill="#191970" stroke="#191970" points="554.27,-94.2436 563.7586,-89.5302 553.4017,-87.2976 554.27,-94.2436"/>
</g>
</g>
</svg>
        <g id="navigator" transform="translate(0 0)" fill="#404254">
                <rect fill="#f2f5e9" fill-opacity="0.5" stroke="#606060" stroke-width=".5" x="0" y="0" width="60" height="60"/>
                <use id="zoomplus" xlink:href="#zoomPlus" x="17" y="9" onmousedown="handleZoom(evt,'in')"/>
                <use id="zoomminus" xlink:href="#zoomMin" x="42" y="9" onmousedown="handleZoom(evt,'out')"/>
                <use id="reset" xlink:href="#resetDef" x="30" y="36" onmousedown="handleReset()"/>
                <g id="arrowUp" xlink:href="#dirArrow" transform="translate(30 24)" onmousedown="handlePan(0,-1)">
                  <use xlink:href="#rim" fill="#404040">
                        <set attributeName="fill" to="#808080" begin="arrowUp.mouseover" end="arrowUp.mouseout"/>
                  </use>
                  <path fill="none" stroke="white" stroke-width="1.5" d="M0,-3.0v7 M-2.5,-0.5L0,-3.0L2.5,-0.5"/>
                </g>
                <g id="arrowRight" xlink:href="#dirArrow" transform="rotate(90) translate(36 -43)" onmousedown="handlePan(1,0)">
                  <use xlink:href="#rim" fill="#404040">
                        <set attributeName="fill" to="#808080" begin="arrowRight.mouseover" end="arrowRight.mouseout"/>
                  </use>
                  <path fill="none" stroke="white" stroke-width="1.5" d="M0,-3.0v7 M-2.5,-0.5L0,-3.0L2.5,-0.5"/>
                </g>
                <g id="arrowDown" xlink:href="#dirArrow" transform="rotate(180) translate(-30 -48)" onmousedown="handlePan(0,1)">
                  <use xlink:href="#rim" fill="#404040">
                        <set attributeName="fill" to="#808080" begin="arrowDown.mouseover" end="arrowDown.mouseout"/>
                  </use>
                  <path fill="none" stroke="white" stroke-width="1.5" d="M0,-3.0v7 M-2.5,-0.5L0,-3.0L2.5,-0.5"/>
                </g>
                <g id="arrowLeft" xlink:href="#dirArrow" transform="rotate(270) translate(-36 17)" onmousedown="handlePan(-1,0)">
                  <use xlink:href="#rim" fill="#404040">
                        <set attributeName="fill" to="#808080" begin="arrowLeft.mouseover" end="arrowLeft.mouseout"/>
                  </use>
                  <path fill="none" stroke="white" stroke-width="1.5" d="M0,-3.0v7 M-2.5,-0.5L0,-3.0L2.5,-0.5"/>
                </g>
        </g>
        <svg viewBox="0 0 15 15" width="100%" height="30px" preserveAspectRatio="xMaxYMin meet">
         <g id="arrow_out" transform="scale(0.3 0.3)">
          <a xlink:href="classorg_1_1cobbzilla_1_1util_1_1security_1_1ShaUtil_aa74201a78df200c56dd062c4573828d4_aa74201a78df200c56dd062c4573828d4_cgraph_org.svg" target="_base">
           <rect id="button" ry="5" rx="5" y="6" x="6" height="38" width="38"
                fill="#f2f5e9" fill-opacity="0.5" stroke="#606060" stroke-width="1.0"/>
           <path id="arrow"
             d="M 11.500037,31.436501 C 11.940474,20.09759 22.043105,11.32322 32.158766,21.979434 L 37.068811,17.246167 C 37.068811,17.246167 37.088388,32 37.088388,32 L 22.160133,31.978069 C 22.160133,31.978069 26.997745,27.140456 26.997745,27.140456 C 18.528582,18.264221 13.291696,25.230495 11.500037,31.436501 z"
             style="fill:#404040;"/>
          </a>
         </g>
        </svg>
</svg>
