<?xml version="1.0" encoding="UTF-8" standalone="no"?>
<!DOCTYPE svg PUBLIC "-//W3C//DTD SVG 1.1//EN"
 "http://www.w3.org/Graphics/SVG/1.1/DTD/svg11.dtd">
<!-- Generated by graphviz version 2.40.1 (20161225.0304)
 -->
<!-- Title: org.cobbzilla.util.json.JsonEditOperation Pages: 1 -->
<svg width="222pt" height="441pt"
 viewBox="0.00 0.00 221.50 441.00" xmlns="http://www.w3.org/2000/svg" xmlns:xlink="http://www.w3.org/1999/xlink">
<g id="graph0" class="graph" transform="scale(1 1) rotate(0) translate(4 437)">
<title>org.cobbzilla.util.json.JsonEditOperation</title>
<!-- Node1 -->
<g id="node1" class="node">
<title>Node1</title>
<polygon fill="#bfbfbf" stroke="#000000" points="23,-.5 23,-189.5 169,-189.5 169,-.5 23,-.5"/>
<text text-anchor="start" x="31" y="-177.5" font-family="Helvetica,sans-Serif" font-size="10.00" fill="#000000">org.cobbzilla.util.json.</text>
<text text-anchor="middle" x="96" y="-166.5" font-family="Helvetica,sans-Serif" font-size="10.00" fill="#000000">JsonEditOperation</text>
<polyline fill="none" stroke="#000000" points="23,-159.5 169,-159.5 "/>
<text text-anchor="start" x="31" y="-147.5" font-family="Helvetica,sans-Serif" font-size="10.00" fill="#000000">&#45; path</text>
<text text-anchor="start" x="31" y="-136.5" font-family="Helvetica,sans-Serif" font-size="10.00" fill="#000000">&#45; json</text>
<polyline fill="none" stroke="#000000" points="23,-129.5 169,-129.5 "/>
<text text-anchor="start" x="31" y="-117.5" font-family="Helvetica,sans-Serif" font-size="10.00" fill="#000000">+ isRead()</text>
<text text-anchor="start" x="31" y="-106.5" font-family="Helvetica,sans-Serif" font-size="10.00" fill="#000000">+ getNode()</text>
<text text-anchor="start" x="31" y="-95.5" font-family="Helvetica,sans-Serif" font-size="10.00" fill="#000000">+ hasIndex()</text>
<text text-anchor="start" x="31" y="-84.5" font-family="Helvetica,sans-Serif" font-size="10.00" fill="#000000">+ isEmptyBrackets()</text>
<text text-anchor="start" x="31" y="-73.5" font-family="Helvetica,sans-Serif" font-size="10.00" fill="#000000">+ getIndex()</text>
<text text-anchor="start" x="31" y="-62.5" font-family="Helvetica,sans-Serif" font-size="10.00" fill="#000000">+ getName()</text>
<text text-anchor="start" x="31" y="-51.5" font-family="Helvetica,sans-Serif" font-size="10.00" fill="#000000">+ getNumPathSegments()</text>
<text text-anchor="start" x="31" y="-40.5" font-family="Helvetica,sans-Serif" font-size="10.00" fill="#000000">+ getName()</text>
<text text-anchor="start" x="31" y="-29.5" font-family="Helvetica,sans-Serif" font-size="10.00" fill="#000000">&#45; initTokens()</text>
<text text-anchor="start" x="31" y="-18.5" font-family="Helvetica,sans-Serif" font-size="10.00" fill="#000000">&#45; index()</text>
<text text-anchor="start" x="31" y="-7.5" font-family="Helvetica,sans-Serif" font-size="10.00" fill="#000000">&#45; stripEmptyTrailingBrackets()</text>
</g>
<!-- Node2 -->
<g id="node2" class="node">
<title>Node2</title>
<polygon fill="none" stroke="#bfbfbf" points="0,-254 0,-311 76,-311 76,-254 0,-254"/>
<text text-anchor="middle" x="38" y="-299" font-family="Helvetica,sans-Serif" font-size="10.00" fill="#000000">List&lt; String &gt;</text>
<polyline fill="none" stroke="#bfbfbf" points="0,-292 76,-292 "/>
<text text-anchor="middle" x="38" y="-280" font-family="Helvetica,sans-Serif" font-size="10.00" fill="#000000"> </text>
<polyline fill="none" stroke="#bfbfbf" points="0,-273 76,-273 "/>
<text text-anchor="middle" x="38" y="-261" font-family="Helvetica,sans-Serif" font-size="10.00" fill="#000000"> </text>
</g>
<!-- Node2&#45;&gt;Node1 -->
<g id="edge1" class="edge">
<title>Node2&#45;&gt;Node1</title>
<path fill="none" stroke="#404040" d="M46.9354,-253.614C51.4036,-239.1695 57.1182,-220.6956 63.0576,-201.4949"/>
<polygon fill="none" stroke="#404040" points="63.1275,-201.2687 61.0793,-194.3546 66.6738,-189.8046 68.722,-196.7187 63.1275,-201.2687"/>
<text text-anchor="middle" x="79" y="-211" font-family="Helvetica,sans-Serif" font-size="10.00" fill="#000000"> &#45;tokens</text>
</g>
<!-- Node3 -->
<g id="node3" class="node">
<title>Node3</title>
<polygon fill="none" stroke="#bfbfbf" points="22,-375.5 22,-432.5 54,-432.5 54,-375.5 22,-375.5"/>
<text text-anchor="middle" x="38" y="-420.5" font-family="Helvetica,sans-Serif" font-size="10.00" fill="#000000">List</text>
<polyline fill="none" stroke="#bfbfbf" points="22,-413.5 54,-413.5 "/>
<text text-anchor="middle" x="38" y="-401.5" font-family="Helvetica,sans-Serif" font-size="10.00" fill="#000000"> </text>
<polyline fill="none" stroke="#bfbfbf" points="22,-394.5 54,-394.5 "/>
<text text-anchor="middle" x="38" y="-382.5" font-family="Helvetica,sans-Serif" font-size="10.00" fill="#000000"> </text>
</g>
<!-- Node3&#45;&gt;Node2 -->
<g id="edge2" class="edge">
<title>Node3&#45;&gt;Node2</title>
<path fill="none" stroke="#ffa500" d="M38,-364.7444C38,-347.2781 38,-327.0905 38,-311.0871"/>
<polygon fill="#ffa500" stroke="#ffa500" points="34.5001,-365.2062 38,-375.2062 41.5001,-365.2062 34.5001,-365.2062"/>
<text text-anchor="middle" x="61.5" y="-349" font-family="Helvetica,sans-Serif" font-size="10.00" fill="#000000"> &lt; String &gt;</text>
</g>
<!-- Node4 -->
<g id="node4" class="node">
<title>Node4</title>
<g id="a_node4"><a xlink:href="../../db/d5c/enumorg_1_1cobbzilla_1_1util_1_1json_1_1JsonEditOperationType.html" target="_top" xlink:title="{org.cobbzilla.util.json.\lJsonEditOperationType\n|+ read\l+ write\l+ delete\l|+ create()\l}">
<polygon fill="none" stroke="#000000" points="94.5,-237.5 94.5,-327.5 213.5,-327.5 213.5,-237.5 94.5,-237.5"/>
<text text-anchor="start" x="102.5" y="-315.5" font-family="Helvetica,sans-Serif" font-size="10.00" fill="#000000">org.cobbzilla.util.json.</text>
<text text-anchor="middle" x="154" y="-304.5" font-family="Helvetica,sans-Serif" font-size="10.00" fill="#000000">JsonEditOperationType</text>
<polyline fill="none" stroke="#000000" points="94.5,-297.5 213.5,-297.5 "/>
<text text-anchor="start" x="102.5" y="-285.5" font-family="Helvetica,sans-Serif" font-size="10.00" fill="#000000">+ read</text>
<text text-anchor="start" x="102.5" y="-274.5" font-family="Helvetica,sans-Serif" font-size="10.00" fill="#000000">+ write</text>
<text text-anchor="start" x="102.5" y="-263.5" font-family="Helvetica,sans-Serif" font-size="10.00" fill="#000000">+ delete</text>
<polyline fill="none" stroke="#000000" points="94.5,-256.5 213.5,-256.5 "/>
<text text-anchor="start" x="102.5" y="-244.5" font-family="Helvetica,sans-Serif" font-size="10.00" fill="#000000">+ create()</text>
</a>
</g>
</g>
<!-- Node4&#45;&gt;Node1 -->
<g id="edge3" class="edge">
<title>Node4&#45;&gt;Node1</title>
<path fill="none" stroke="#404040" d="M139.9598,-237.1115C136.5459,-226.0752 132.7512,-213.8077 128.8621,-201.2351"/>
<polygon fill="none" stroke="#404040" points="128.8184,-201.0938 123.2239,-196.5439 125.2721,-189.6298 130.8666,-194.1797 128.8184,-201.0938"/>
<text text-anchor="middle" x="145.5" y="-211" font-family="Helvetica,sans-Serif" font-size="10.00" fill="#000000"> &#45;type</text>
</g>
</g>
</svg>
