<?xml version="1.0" encoding="UTF-8" standalone="no"?>
<!DOCTYPE svg PUBLIC "-//W3C//DTD SVG 1.1//EN"
 "http://www.w3.org/Graphics/SVG/1.1/DTD/svg11.dtd">
<!-- Generated by graphviz version 2.40.1 (20161225.0304)
 -->
<!-- Title: org.cobbzilla.util.handlebars.HandlebarsUtil.FileLoaderHelper.apply Pages: 1 -->
<svg width="344pt" height="88pt"
 viewBox="0.00 0.00 344.00 88.00" xmlns="http://www.w3.org/2000/svg" xmlns:xlink="http://www.w3.org/1999/xlink">
<g id="graph0" class="graph" transform="scale(1 1) rotate(0) translate(4 84)">
<title>org.cobbzilla.util.handlebars.HandlebarsUtil.FileLoaderHelper.apply</title>
<!-- Node0 -->
<g id="node1" class="node">
<title>Node0</title>
<polygon fill="#bfbfbf" stroke="#000000" points="0,-24.5 0,-54.5 184,-54.5 184,-24.5 0,-24.5"/>
<text text-anchor="start" x="8" y="-42.5" font-family="Helvetica,sans-Serif" font-size="10.00" fill="#000000">org.cobbzilla.util.handlebars.</text>
<text text-anchor="middle" x="92" y="-31.5" font-family="Helvetica,sans-Serif" font-size="10.00" fill="#000000">HandlebarsUtil.FileLoaderHelper.apply</text>
</g>
<!-- Node1 -->
<g id="node2" class="node">
<title>Node1</title>
<g id="a_node2"><a xlink:href="../../d0/df1/interfaceorg_1_1cobbzilla_1_1util_1_1io_1_1FileResolver_a1190814e05b31fe137ba3bb42f192e36.html#a1190814e05b31fe137ba3bb42f192e36" target="_top" xlink:title="org.cobbzilla.util.io.File\lResolver.resolve">
<polygon fill="none" stroke="#000000" points="220,-49.5 220,-79.5 336,-79.5 336,-49.5 220,-49.5"/>
<text text-anchor="start" x="228" y="-67.5" font-family="Helvetica,sans-Serif" font-size="10.00" fill="#000000">org.cobbzilla.util.io.File</text>
<text text-anchor="middle" x="278" y="-56.5" font-family="Helvetica,sans-Serif" font-size="10.00" fill="#000000">Resolver.resolve</text>
</a>
</g>
</g>
<!-- Node0&#45;&gt;Node1 -->
<g id="edge1" class="edge">
<title>Node0&#45;&gt;Node1</title>
<path fill="none" stroke="#191970" d="M184.1826,-51.8901C192.8201,-53.0511 201.467,-54.2133 209.8253,-55.3367"/>
<polygon fill="#191970" stroke="#191970" points="209.4802,-58.8217 219.8573,-56.6851 210.4127,-51.8841 209.4802,-58.8217"/>
</g>
<!-- Node2 -->
<g id="node3" class="node">
<title>Node2</title>
<g id="a_node3"><a xlink:href="../../df/dac/classorg_1_1cobbzilla_1_1util_1_1io_1_1FileUtil_a68ba3562aff4d6bb1e737600420c3a0a.html#a68ba3562aff4d6bb1e737600420c3a0a" target="_top" xlink:title="org.cobbzilla.util.io.File\lUtil.toString">
<polygon fill="none" stroke="#000000" points="220,-.5 220,-30.5 336,-30.5 336,-.5 220,-.5"/>
<text text-anchor="start" x="228" y="-18.5" font-family="Helvetica,sans-Serif" font-size="10.00" fill="#000000">org.cobbzilla.util.io.File</text>
<text text-anchor="middle" x="278" y="-7.5" font-family="Helvetica,sans-Serif" font-size="10.00" fill="#000000">Util.toString</text>
</a>
</g>
</g>
<!-- Node0&#45;&gt;Node2 -->
<g id="edge2" class="edge">
<title>Node0&#45;&gt;Node2</title>
<path fill="none" stroke="#191970" d="M184.1826,-27.6055C192.8201,-26.491 201.467,-25.3752 209.8253,-24.2967"/>
<polygon fill="#191970" stroke="#191970" points="210.3875,-27.7533 219.8573,-23.0023 209.4916,-20.8109 210.3875,-27.7533"/>
</g>
</g>
</svg>
