<?xml version="1.0" encoding="UTF-8" standalone="no"?>
<!DOCTYPE svg PUBLIC "-//W3C//DTD SVG 1.1//EN"
 "http://www.w3.org/Graphics/SVG/1.1/DTD/svg11.dtd">
<!-- Generated by graphviz version 2.40.1 (20161225.0304)
 -->
<!-- Title: org.cobbzilla.util.http.main.HttpMain.run Pages: 1 -->
<svg width="515pt" height="333pt"
 viewBox="0.00 0.00 515.00 333.00" xmlns="http://www.w3.org/2000/svg" xmlns:xlink="http://www.w3.org/1999/xlink">
<g id="graph0" class="graph" transform="scale(1 1) rotate(0) translate(4 329)">
<title>org.cobbzilla.util.http.main.HttpMain.run</title>
<!-- Node0 -->
<g id="node1" class="node">
<title>Node0</title>
<polygon fill="#bfbfbf" stroke="#000000" points="0,-147.5 0,-177.5 134,-177.5 134,-147.5 0,-147.5"/>
<text text-anchor="start" x="8" y="-165.5" font-family="Helvetica,sans-Serif" font-size="10.00" fill="#000000">org.cobbzilla.util.http.main.</text>
<text text-anchor="middle" x="67" y="-154.5" font-family="Helvetica,sans-Serif" font-size="10.00" fill="#000000">HttpMain.run</text>
</g>
<!-- Node1 -->
<g id="node2" class="node">
<title>Node1</title>
<g id="a_node2"><a xlink:href="../../d6/dee/classorg_1_1cobbzilla_1_1util_1_1main_1_1BaseMain_ac04f5a8f9a427c4c40f26cd0605c414f.html#ac04f5a8f9a427c4c40f26cd0605c414f" target="_top" xlink:title="org.cobbzilla.util.main.\lBaseMain.die">
<polygon fill="none" stroke="#000000" points="198,-294.5 198,-324.5 312,-324.5 312,-294.5 198,-294.5"/>
<text text-anchor="start" x="206" y="-312.5" font-family="Helvetica,sans-Serif" font-size="10.00" fill="#000000">org.cobbzilla.util.main.</text>
<text text-anchor="middle" x="255" y="-301.5" font-family="Helvetica,sans-Serif" font-size="10.00" fill="#000000">BaseMain.die</text>
</a>
</g>
</g>
<!-- Node0&#45;&gt;Node1 -->
<g id="edge1" class="edge">
<title>Node0&#45;&gt;Node1</title>
<path fill="none" stroke="#191970" d="M75.6365,-177.9026C91.0983,-204.0504 126.0412,-257.0485 170,-285.5 175.6218,-289.1386 181.7992,-292.2342 188.1791,-294.8662"/>
<polygon fill="#191970" stroke="#191970" points="187.0375,-298.176 197.63,-298.3999 189.4891,-291.6193 187.0375,-298.176"/>
</g>
<!-- Node2 -->
<g id="node3" class="node">
<title>Node2</title>
<g id="a_node3"><a xlink:href="../../d6/dee/classorg_1_1cobbzilla_1_1util_1_1main_1_1BaseMain_a6aa1d55711f9630416e15f4f8c80a511.html#a6aa1d55711f9630416e15f4f8c80a511" target="_top" xlink:title="org.cobbzilla.util.main.\lBaseMain.err">
<polygon fill="none" stroke="#000000" points="198,-245.5 198,-275.5 312,-275.5 312,-245.5 198,-245.5"/>
<text text-anchor="start" x="206" y="-263.5" font-family="Helvetica,sans-Serif" font-size="10.00" fill="#000000">org.cobbzilla.util.main.</text>
<text text-anchor="middle" x="255" y="-252.5" font-family="Helvetica,sans-Serif" font-size="10.00" fill="#000000">BaseMain.err</text>
</a>
</g>
</g>
<!-- Node0&#45;&gt;Node2 -->
<g id="edge2" class="edge">
<title>Node0&#45;&gt;Node2</title>
<path fill="none" stroke="#191970" d="M84.0314,-177.6236C103.5401,-194.2276 137.0736,-220.6315 170,-236.5 175.711,-239.2523 181.7943,-241.7416 187.9807,-243.9811"/>
<polygon fill="#191970" stroke="#191970" points="187.1541,-247.3966 197.7484,-247.2964 189.404,-240.768 187.1541,-247.3966"/>
</g>
<!-- Node3 -->
<g id="node4" class="node">
<title>Node3</title>
<g id="a_node4"><a xlink:href="../../d3/d9f/classorg_1_1cobbzilla_1_1util_1_1http_1_1HttpResponseBean_abc5b66bd66e741fad49dd74ed41e2197.html#abc5b66bd66e741fad49dd74ed41e2197" target="_top" xlink:title="org.cobbzilla.util.http.\lHttpResponseBean.getEntityString">
<polygon fill="none" stroke="#000000" points="170,-196.5 170,-226.5 340,-226.5 340,-196.5 170,-196.5"/>
<text text-anchor="start" x="178" y="-214.5" font-family="Helvetica,sans-Serif" font-size="10.00" fill="#000000">org.cobbzilla.util.http.</text>
<text text-anchor="middle" x="255" y="-203.5" font-family="Helvetica,sans-Serif" font-size="10.00" fill="#000000">HttpResponseBean.getEntityString</text>
</a>
</g>
</g>
<!-- Node0&#45;&gt;Node3 -->
<g id="edge3" class="edge">
<title>Node0&#45;&gt;Node3</title>
<path fill="none" stroke="#191970" d="M124.6838,-177.5346C144.534,-182.7083 166.9374,-188.5475 187.4987,-193.9066"/>
<polygon fill="#191970" stroke="#191970" points="186.8658,-197.3585 197.4252,-196.4938 188.6313,-190.5848 186.8658,-197.3585"/>
</g>
<!-- Node4 -->
<g id="node5" class="node">
<title>Node4</title>
<g id="a_node5"><a xlink:href="../../d9/d6b/classorg_1_1cobbzilla_1_1util_1_1http_1_1HttpUtil_aa2860b0bbff13b0d2306e2febf27eea7.html#aa2860b0bbff13b0d2306e2febf27eea7" target="_top" xlink:title="org.cobbzilla.util.http.\lHttpUtil.getResponse">
<polygon fill="none" stroke="#000000" points="199.5,-147.5 199.5,-177.5 310.5,-177.5 310.5,-147.5 199.5,-147.5"/>
<text text-anchor="start" x="207.5" y="-165.5" font-family="Helvetica,sans-Serif" font-size="10.00" fill="#000000">org.cobbzilla.util.http.</text>
<text text-anchor="middle" x="255" y="-154.5" font-family="Helvetica,sans-Serif" font-size="10.00" fill="#000000">HttpUtil.getResponse</text>
</a>
</g>
</g>
<!-- Node0&#45;&gt;Node4 -->
<g id="edge4" class="edge">
<title>Node0&#45;&gt;Node4</title>
<path fill="none" stroke="#191970" d="M134.0761,-162.5C152.0543,-162.5 171.4674,-162.5 189.3665,-162.5"/>
<polygon fill="#191970" stroke="#191970" points="189.4209,-166.0001 199.4208,-162.5 189.4208,-159.0001 189.4209,-166.0001"/>
</g>
<!-- Node5 -->
<g id="node6" class="node">
<title>Node5</title>
<g id="a_node6"><a xlink:href="../../d3/d9f/classorg_1_1cobbzilla_1_1util_1_1http_1_1HttpResponseBean_a6f2b3a2a27e25e9e78a20ec3f0dadc86.html#a6f2b3a2a27e25e9e78a20ec3f0dadc86" target="_top" xlink:title="org.cobbzilla.util.http.\lHttpResponseBean.isOk">
<polygon fill="none" stroke="#000000" points="192.5,-98.5 192.5,-128.5 317.5,-128.5 317.5,-98.5 192.5,-98.5"/>
<text text-anchor="start" x="200.5" y="-116.5" font-family="Helvetica,sans-Serif" font-size="10.00" fill="#000000">org.cobbzilla.util.http.</text>
<text text-anchor="middle" x="255" y="-105.5" font-family="Helvetica,sans-Serif" font-size="10.00" fill="#000000">HttpResponseBean.isOk</text>
</a>
</g>
</g>
<!-- Node0&#45;&gt;Node5 -->
<g id="edge5" class="edge">
<title>Node0&#45;&gt;Node5</title>
<path fill="none" stroke="#191970" d="M124.6838,-147.4654C144.534,-142.2917 166.9374,-136.4525 187.4987,-131.0934"/>
<polygon fill="#191970" stroke="#191970" points="188.6313,-134.4152 197.4252,-128.5062 186.8658,-127.6415 188.6313,-134.4152"/>
</g>
<!-- Node6 -->
<g id="node7" class="node">
<title>Node6</title>
<g id="a_node7"><a xlink:href="../../d6/dee/classorg_1_1cobbzilla_1_1util_1_1main_1_1BaseMain_aa16e0a2ec971a230dedb15fdb76d063f.html#aa16e0a2ec971a230dedb15fdb76d063f" target="_top" xlink:title="org.cobbzilla.util.main.\lBaseMain.out">
<polygon fill="none" stroke="#000000" points="198,-49.5 198,-79.5 312,-79.5 312,-49.5 198,-49.5"/>
<text text-anchor="start" x="206" y="-67.5" font-family="Helvetica,sans-Serif" font-size="10.00" fill="#000000">org.cobbzilla.util.main.</text>
<text text-anchor="middle" x="255" y="-56.5" font-family="Helvetica,sans-Serif" font-size="10.00" fill="#000000">BaseMain.out</text>
</a>
</g>
</g>
<!-- Node0&#45;&gt;Node6 -->
<g id="edge6" class="edge">
<title>Node0&#45;&gt;Node6</title>
<path fill="none" stroke="#191970" d="M84.4555,-147.3644C104.0754,-131.0392 137.4567,-105.2728 170,-89.5 175.7228,-86.7263 181.814,-84.1965 188.0056,-81.9041"/>
<polygon fill="#191970" stroke="#191970" points="189.4889,-85.0936 197.779,-78.4963 187.1842,-78.4839 189.4889,-85.0936"/>
</g>
<!-- Node7 -->
<g id="node8" class="node">
<title>Node7</title>
<g id="a_node8"><a xlink:href="../../d3/d9f/classorg_1_1cobbzilla_1_1util_1_1http_1_1HttpResponseBean_a94b14f3f7e3093e70c2c74c94ac7bf7e.html#a94b14f3f7e3093e70c2c74c94ac7bf7e" target="_top" xlink:title="org.cobbzilla.util.http.\lHttpResponseBean.toMap">
<polygon fill="none" stroke="#000000" points="189,-.5 189,-30.5 321,-30.5 321,-.5 189,-.5"/>
<text text-anchor="start" x="197" y="-18.5" font-family="Helvetica,sans-Serif" font-size="10.00" fill="#000000">org.cobbzilla.util.http.</text>
<text text-anchor="middle" x="255" y="-7.5" font-family="Helvetica,sans-Serif" font-size="10.00" fill="#000000">HttpResponseBean.toMap</text>
</a>
</g>
</g>
<!-- Node0&#45;&gt;Node7 -->
<g id="edge7" class="edge">
<title>Node0&#45;&gt;Node7</title>
<path fill="none" stroke="#191970" d="M75.7014,-147.2745C91.2613,-121.4176 126.3481,-68.9652 170,-40.5 173.1487,-38.4468 176.4708,-36.5577 179.9045,-34.8202"/>
<polygon fill="#191970" stroke="#191970" points="181.5718,-37.9065 189.2119,-30.5663 178.6619,-31.5399 181.5718,-37.9065"/>
</g>
<!-- Node8 -->
<g id="node9" class="node">
<title>Node8</title>
<g id="a_node9"><a xlink:href="../../de/d2b/classorg_1_1cobbzilla_1_1util_1_1http_1_1HttpContentTypes_a56de636136220307a283a6c5f56b7729.html#a56de636136220307a283a6c5f56b7729" target="_top" xlink:title="org.cobbzilla.util.http.\lHttpContentTypes.escape">
<polygon fill="none" stroke="#000000" points="376,-.5 376,-30.5 507,-30.5 507,-.5 376,-.5"/>
<text text-anchor="start" x="384" y="-18.5" font-family="Helvetica,sans-Serif" font-size="10.00" fill="#000000">org.cobbzilla.util.http.</text>
<text text-anchor="middle" x="441.5" y="-7.5" font-family="Helvetica,sans-Serif" font-size="10.00" fill="#000000">HttpContentTypes.escape</text>
</a>
</g>
</g>
<!-- Node7&#45;&gt;Node8 -->
<g id="edge8" class="edge">
<title>Node7&#45;&gt;Node8</title>
<path fill="none" stroke="#191970" d="M321.0154,-15.5C335.4889,-15.5 350.9219,-15.5 365.7434,-15.5"/>
<polygon fill="#191970" stroke="#191970" points="365.8875,-19.0001 375.8874,-15.5 365.8874,-12.0001 365.8875,-19.0001"/>
</g>
</g>
</svg>
