<?xml version="1.0" encoding="UTF-8" standalone="no"?>
<!DOCTYPE svg PUBLIC "-//W3C//DTD SVG 1.1//EN"
 "http://www.w3.org/Graphics/SVG/1.1/DTD/svg11.dtd">
<!-- Generated by graphviz version 2.40.1 (20161225.0304)
 -->
<!-- Title: org.cobbzilla.util.bean.BeanMerger.AlwaysCopy Pages: 1 -->
<svg width="220pt" height="183pt"
 viewBox="0.00 0.00 219.50 183.00" xmlns="http://www.w3.org/2000/svg" xmlns:xlink="http://www.w3.org/1999/xlink">
<g id="graph0" class="graph" transform="scale(1 1) rotate(0) translate(4 179)">
<title>org.cobbzilla.util.bean.BeanMerger.AlwaysCopy</title>
<!-- Node2 -->
<g id="node1" class="node">
<title>Node2</title>
<polygon fill="#bfbfbf" stroke="#000000" points="4.5,-.5 4.5,-68.5 132.5,-68.5 132.5,-.5 4.5,-.5"/>
<text text-anchor="start" x="12.5" y="-56.5" font-family="Helvetica,sans-Serif" font-size="10.00" fill="#000000">org.cobbzilla.util.bean.</text>
<text text-anchor="middle" x="68.5" y="-45.5" font-family="Helvetica,sans-Serif" font-size="10.00" fill="#000000">BeanMerger.AlwaysCopy</text>
<polyline fill="none" stroke="#000000" points="4.5,-38.5 132.5,-38.5 "/>
<text text-anchor="middle" x="68.5" y="-26.5" font-family="Helvetica,sans-Serif" font-size="10.00" fill="#000000"> </text>
<polyline fill="none" stroke="#000000" points="4.5,-19.5 132.5,-19.5 "/>
<text text-anchor="start" x="12.5" y="-7.5" font-family="Helvetica,sans-Serif" font-size="10.00" fill="#000000">+ shouldCopy()</text>
</g>
<!-- Node2&#45;&gt;Node2 -->
<g id="edge2" class="edge">
<title>Node2&#45;&gt;Node2</title>
<path fill="none" stroke="#404040" d="M132.7877,-43.521C143.2855,-42.2297 150.5,-39.2227 150.5,-34.5 150.5,-31.9173 148.3423,-29.8477 144.67,-28.2912"/>
<polygon fill="none" stroke="#404040" points="144.4652,-28.2428 137.7052,-30.7534 132.7877,-25.479 139.5477,-22.9684 144.4652,-28.2428"/>
<text text-anchor="middle" x="181" y="-32" font-family="Helvetica,sans-Serif" font-size="10.00" fill="#000000"> ~INSTANCE</text>
</g>
<!-- Node3 -->
<g id="node2" class="node">
<title>Node3</title>
<g id="a_node2"><a xlink:href="../../d7/d8b/interfaceorg_1_1cobbzilla_1_1util_1_1bean_1_1BeanMerger_1_1CopyEvaluator.html" target="_top" xlink:title="{org.cobbzilla.util.bean.\lBeanMerger.CopyEvaluator\n||+ shouldCopy()\l}">
<polygon fill="none" stroke="#000000" points="0,-106.5 0,-174.5 137,-174.5 137,-106.5 0,-106.5"/>
<text text-anchor="start" x="8" y="-162.5" font-family="Helvetica,sans-Serif" font-size="10.00" fill="#000000">org.cobbzilla.util.bean.</text>
<text text-anchor="middle" x="68.5" y="-151.5" font-family="Helvetica,sans-Serif" font-size="10.00" fill="#000000">BeanMerger.CopyEvaluator</text>
<polyline fill="none" stroke="#000000" points="0,-144.5 137,-144.5 "/>
<text text-anchor="middle" x="68.5" y="-132.5" font-family="Helvetica,sans-Serif" font-size="10.00" fill="#000000"> </text>
<polyline fill="none" stroke="#000000" points="0,-125.5 137,-125.5 "/>
<text text-anchor="start" x="8" y="-113.5" font-family="Helvetica,sans-Serif" font-size="10.00" fill="#000000">+ shouldCopy()</text>
</a>
</g>
</g>
<!-- Node3&#45;&gt;Node2 -->
<g id="edge1" class="edge">
<title>Node3&#45;&gt;Node2</title>
<path fill="none" stroke="#191970" d="M68.5,-96.1711C68.5,-86.9405 68.5,-77.3493 68.5,-68.5586"/>
<polygon fill="none" stroke="#191970" points="65.0001,-96.3774 68.5,-106.3775 72.0001,-96.3775 65.0001,-96.3774"/>
</g>
</g>
</svg>
