<?xml version="1.0" encoding="UTF-8" standalone="no"?>
<!DOCTYPE svg PUBLIC "-//W3C//DTD SVG 1.1//EN"
 "http://www.w3.org/Graphics/SVG/1.1/DTD/svg11.dtd">
<!-- Generated by graphviz version 2.40.1 (20161225.0304)
 -->
<!-- Title: org.cobbzilla.util.xml.XmlElementFunction.apply Pages: 1 -->
<svg width="829pt" height="210pt"
 viewBox="0.00 0.00 829.00 210.00" xmlns="http://www.w3.org/2000/svg" xmlns:xlink="http://www.w3.org/1999/xlink">
<g id="graph0" class="graph" transform="scale(1 1) rotate(0) translate(4 206)">
<title>org.cobbzilla.util.xml.XmlElementFunction.apply</title>
<!-- Node1 -->
<g id="node1" class="node">
<title>Node1</title>
<polygon fill="#bfbfbf" stroke="#000000" points="0,-49.5 0,-79.5 126,-79.5 126,-49.5 0,-49.5"/>
<text text-anchor="start" x="8" y="-67.5" font-family="Helvetica,sans-Serif" font-size="10.00" fill="#000000">org.cobbzilla.util.xml.Xml</text>
<text text-anchor="middle" x="63" y="-56.5" font-family="Helvetica,sans-Serif" font-size="10.00" fill="#000000">ElementFunction.apply</text>
</g>
<!-- Node2 -->
<g id="node2" class="node">
<title>Node2</title>
<g id="a_node2"><a xlink:href="../../d1/d5b/classorg_1_1cobbzilla_1_1util_1_1xml_1_1XmlUtil_aab50858331cbf0e74d3058e0f5bcefe3.html#aab50858331cbf0e74d3058e0f5bcefe3" target="_top" xlink:title="org.cobbzilla.util.xml.Xml\lUtil.applyRecursively">
<polygon fill="none" stroke="#000000" points="162,-49.5 162,-79.5 288,-79.5 288,-49.5 162,-49.5"/>
<text text-anchor="start" x="170" y="-67.5" font-family="Helvetica,sans-Serif" font-size="10.00" fill="#000000">org.cobbzilla.util.xml.Xml</text>
<text text-anchor="middle" x="225" y="-56.5" font-family="Helvetica,sans-Serif" font-size="10.00" fill="#000000">Util.applyRecursively</text>
</a>
</g>
</g>
<!-- Node1&#45;&gt;Node2 -->
<g id="edge1" class="edge">
<title>Node1&#45;&gt;Node2</title>
<path fill="none" stroke="#191970" d="M136.3736,-64.5C144.865,-64.5 153.4692,-64.5 161.8084,-64.5"/>
<polygon fill="#191970" stroke="#191970" points="136.0973,-61.0001 126.0973,-64.5 136.0973,-68.0001 136.0973,-61.0001"/>
</g>
<!-- Node3 -->
<g id="node3" class="node">
<title>Node3</title>
<g id="a_node3"><a xlink:href="../../d1/d5b/classorg_1_1cobbzilla_1_1util_1_1xml_1_1XmlUtil_a48cac09d760c523f207beb93812b70a2.html#a48cac09d760c523f207beb93812b70a2" target="_top" xlink:title="org.cobbzilla.util.xml.Xml\lUtil.findElements">
<polygon fill="none" stroke="#000000" points="324,-98.5 324,-128.5 450,-128.5 450,-98.5 324,-98.5"/>
<text text-anchor="start" x="332" y="-116.5" font-family="Helvetica,sans-Serif" font-size="10.00" fill="#000000">org.cobbzilla.util.xml.Xml</text>
<text text-anchor="middle" x="387" y="-105.5" font-family="Helvetica,sans-Serif" font-size="10.00" fill="#000000">Util.findElements</text>
</a>
</g>
</g>
<!-- Node2&#45;&gt;Node3 -->
<g id="edge2" class="edge">
<title>Node2&#45;&gt;Node3</title>
<path fill="none" stroke="#191970" d="M284.8835,-82.6129C302.1061,-87.8222 320.6979,-93.4457 337.2376,-98.4484"/>
<polygon fill="#191970" stroke="#191970" points="285.5123,-79.1466 274.9272,-79.6014 283.4856,-85.8468 285.5123,-79.1466"/>
</g>
<!-- Node9 -->
<g id="node9" class="node">
<title>Node9</title>
<g id="a_node9"><a xlink:href="../../d1/d5b/classorg_1_1cobbzilla_1_1util_1_1xml_1_1XmlUtil_a66ec541aae188d0a56e46455097a4475.html#a66ec541aae188d0a56e46455097a4475" target="_top" xlink:title="org.cobbzilla.util.xml.Xml\lUtil.findLargest">
<polygon fill="none" stroke="#000000" points="324,-49.5 324,-79.5 450,-79.5 450,-49.5 324,-49.5"/>
<text text-anchor="start" x="332" y="-67.5" font-family="Helvetica,sans-Serif" font-size="10.00" fill="#000000">org.cobbzilla.util.xml.Xml</text>
<text text-anchor="middle" x="387" y="-56.5" font-family="Helvetica,sans-Serif" font-size="10.00" fill="#000000">Util.findLargest</text>
</a>
</g>
</g>
<!-- Node2&#45;&gt;Node9 -->
<g id="edge8" class="edge">
<title>Node2&#45;&gt;Node9</title>
<path fill="none" stroke="#191970" d="M298.3736,-64.5C306.865,-64.5 315.4692,-64.5 323.8084,-64.5"/>
<polygon fill="#191970" stroke="#191970" points="298.0973,-61.0001 288.0973,-64.5 298.0973,-68.0001 298.0973,-61.0001"/>
</g>
<!-- Node10 -->
<g id="node10" class="node">
<title>Node10</title>
<g id="a_node10"><a xlink:href="../../d1/d5b/classorg_1_1cobbzilla_1_1util_1_1xml_1_1XmlUtil_a534ed17fcba8c9e7b247fc081ce9eecb.html#a534ed17fcba8c9e7b247fc081ce9eecb" target="_top" xlink:title="org.cobbzilla.util.xml.Xml\lUtil.getElementById">
<polygon fill="none" stroke="#000000" points="324,-.5 324,-30.5 450,-30.5 450,-.5 324,-.5"/>
<text text-anchor="start" x="332" y="-18.5" font-family="Helvetica,sans-Serif" font-size="10.00" fill="#000000">org.cobbzilla.util.xml.Xml</text>
<text text-anchor="middle" x="387" y="-7.5" font-family="Helvetica,sans-Serif" font-size="10.00" fill="#000000">Util.getElementById</text>
</a>
</g>
</g>
<!-- Node2&#45;&gt;Node10 -->
<g id="edge9" class="edge">
<title>Node2&#45;&gt;Node10</title>
<path fill="none" stroke="#191970" d="M284.8835,-46.3871C302.1061,-41.1778 320.6979,-35.5543 337.2376,-30.5516"/>
<polygon fill="#191970" stroke="#191970" points="283.4856,-43.1532 274.9272,-49.3986 285.5123,-49.8534 283.4856,-43.1532"/>
</g>
<!-- Node4 -->
<g id="node4" class="node">
<title>Node4</title>
<g id="a_node4"><a xlink:href="../../d1/d5b/classorg_1_1cobbzilla_1_1util_1_1xml_1_1XmlUtil_adab56074e07263e38585a83a2dabffa1.html#adab56074e07263e38585a83a2dabffa1" target="_top" xlink:title="org.cobbzilla.util.xml.Xml\lUtil.findElements">
<polygon fill="none" stroke="#000000" points="486,-171.5 486,-201.5 612,-201.5 612,-171.5 486,-171.5"/>
<text text-anchor="start" x="494" y="-189.5" font-family="Helvetica,sans-Serif" font-size="10.00" fill="#000000">org.cobbzilla.util.xml.Xml</text>
<text text-anchor="middle" x="549" y="-178.5" font-family="Helvetica,sans-Serif" font-size="10.00" fill="#000000">Util.findElements</text>
</a>
</g>
</g>
<!-- Node3&#45;&gt;Node4 -->
<g id="edge3" class="edge">
<title>Node3&#45;&gt;Node4</title>
<path fill="none" stroke="#191970" d="M424.5856,-133.16C442.9155,-142.475 465.4029,-153.504 486,-162.5 492.9718,-165.545 500.4648,-168.591 507.7647,-171.4411"/>
<polygon fill="#191970" stroke="#191970" points="426.1769,-130.0427 415.6803,-128.6035 422.9884,-136.2744 426.1769,-130.0427"/>
</g>
<!-- Node5 -->
<g id="node5" class="node">
<title>Node5</title>
<g id="a_node5"><a xlink:href="../../d1/d5b/classorg_1_1cobbzilla_1_1util_1_1xml_1_1XmlUtil_a8b1fef0acaf9c03be7055635b3ed9f5a.html#a8b1fef0acaf9c03be7055635b3ed9f5a" target="_top" xlink:title="org.cobbzilla.util.xml.Xml\lUtil.findUniqueElement">
<polygon fill="none" stroke="#000000" points="486,-122.5 486,-152.5 612,-152.5 612,-122.5 486,-122.5"/>
<text text-anchor="start" x="494" y="-140.5" font-family="Helvetica,sans-Serif" font-size="10.00" fill="#000000">org.cobbzilla.util.xml.Xml</text>
<text text-anchor="middle" x="549" y="-129.5" font-family="Helvetica,sans-Serif" font-size="10.00" fill="#000000">Util.findUniqueElement</text>
</a>
</g>
</g>
<!-- Node3&#45;&gt;Node5 -->
<g id="edge4" class="edge">
<title>Node3&#45;&gt;Node5</title>
<path fill="none" stroke="#191970" d="M460.0937,-124.3287C468.6759,-125.6001 477.3775,-126.8893 485.8084,-128.1383"/>
<polygon fill="#191970" stroke="#191970" points="460.5023,-120.8511 450.0973,-122.8477 459.4764,-127.7755 460.5023,-120.8511"/>
</g>
<!-- Node6 -->
<g id="node6" class="node">
<title>Node6</title>
<g id="a_node6"><a xlink:href="../../d1/d5b/classorg_1_1cobbzilla_1_1util_1_1xml_1_1XmlUtil_a0fcdcada33c057b72487de1466df1d12.html#a0fcdcada33c057b72487de1466df1d12" target="_top" xlink:title="org.cobbzilla.util.xml.Xml\lUtil.findFirstElement">
<polygon fill="none" stroke="#000000" points="486,-73.5 486,-103.5 612,-103.5 612,-73.5 486,-73.5"/>
<text text-anchor="start" x="494" y="-91.5" font-family="Helvetica,sans-Serif" font-size="10.00" fill="#000000">org.cobbzilla.util.xml.Xml</text>
<text text-anchor="middle" x="549" y="-80.5" font-family="Helvetica,sans-Serif" font-size="10.00" fill="#000000">Util.findFirstElement</text>
</a>
</g>
</g>
<!-- Node3&#45;&gt;Node6 -->
<g id="edge5" class="edge">
<title>Node3&#45;&gt;Node6</title>
<path fill="none" stroke="#191970" d="M460.0937,-102.2201C468.6759,-100.8957 477.3775,-99.5528 485.8084,-98.2518"/>
<polygon fill="#191970" stroke="#191970" points="459.4465,-98.7785 450.0973,-103.7628 460.5141,-105.6966 459.4465,-98.7785"/>
</g>
<!-- Node8 -->
<g id="node8" class="node">
<title>Node8</title>
<g id="a_node8"><a xlink:href="../../d1/d5b/classorg_1_1cobbzilla_1_1util_1_1xml_1_1XmlUtil_a47042adfa151ae5a063b77940961745d.html#a47042adfa151ae5a063b77940961745d" target="_top" xlink:title="org.cobbzilla.util.xml.Xml\lUtil.removeElements">
<polygon fill="none" stroke="#000000" points="486,-24.5 486,-54.5 612,-54.5 612,-24.5 486,-24.5"/>
<text text-anchor="start" x="494" y="-42.5" font-family="Helvetica,sans-Serif" font-size="10.00" fill="#000000">org.cobbzilla.util.xml.Xml</text>
<text text-anchor="middle" x="549" y="-31.5" font-family="Helvetica,sans-Serif" font-size="10.00" fill="#000000">Util.removeElements</text>
</a>
</g>
</g>
<!-- Node3&#45;&gt;Node8 -->
<g id="edge7" class="edge">
<title>Node3&#45;&gt;Node8</title>
<path fill="none" stroke="#191970" d="M439.9017,-94.4463C443.3608,-92.8643 446.7553,-91.2119 450,-89.5 467.2288,-80.4101 468.8343,-73.7085 486,-64.5 492.6364,-60.9399 499.8921,-57.5974 507.0427,-54.5861"/>
<polygon fill="#191970" stroke="#191970" points="438.4323,-91.2686 430.6532,-98.4614 441.2199,-97.6896 438.4323,-91.2686"/>
</g>
<!-- Node7 -->
<g id="node7" class="node">
<title>Node7</title>
<g id="a_node7"><a xlink:href="../../d2/dfa/classorg_1_1cobbzilla_1_1util_1_1xml_1_1XmlUtil_1_1MatchNodeSubElements_a96fc2adbc0eccd50df644034876b766e.html#a96fc2adbc0eccd50df644034876b766e" target="_top" xlink:title="org.cobbzilla.util.xml.Xml\lUtil.MatchNodeSubElements.check">
<polygon fill="none" stroke="#000000" points="648,-73.5 648,-103.5 821,-103.5 821,-73.5 648,-73.5"/>
<text text-anchor="start" x="656" y="-91.5" font-family="Helvetica,sans-Serif" font-size="10.00" fill="#000000">org.cobbzilla.util.xml.Xml</text>
<text text-anchor="middle" x="734.5" y="-80.5" font-family="Helvetica,sans-Serif" font-size="10.00" fill="#000000">Util.MatchNodeSubElements.check</text>
</a>
</g>
</g>
<!-- Node6&#45;&gt;Node7 -->
<g id="edge6" class="edge">
<title>Node6&#45;&gt;Node7</title>
<path fill="none" stroke="#191970" d="M622.232,-88.5C630.6791,-88.5 639.3524,-88.5 647.9542,-88.5"/>
<polygon fill="#191970" stroke="#191970" points="622.0607,-85.0001 612.0607,-88.5 622.0606,-92.0001 622.0607,-85.0001"/>
</g>
</g>
</svg>
