<?xml version="1.0" encoding="UTF-8" standalone="no"?>
<!DOCTYPE svg PUBLIC "-//W3C//DTD SVG 1.1//EN"
 "http://www.w3.org/Graphics/SVG/1.1/DTD/svg11.dtd">
<!-- Generated by graphviz version 2.40.1 (20161225.0304)
 -->
<!-- Title: org.cobbzilla.util.xml.XmlUtil.MatchNodeXMLFunction Pages: 1 -->
<svg width="253pt" height="320pt"
 viewBox="0.00 0.00 253.00 320.00" xmlns="http://www.w3.org/2000/svg" xmlns:xlink="http://www.w3.org/1999/xlink">
<g id="graph0" class="graph" transform="scale(1 1) rotate(0) translate(4 316)">
<title>org.cobbzilla.util.xml.XmlUtil.MatchNodeXMLFunction</title>
<!-- Node5 -->
<g id="node1" class="node">
<title>Node5</title>
<polygon fill="#bfbfbf" stroke="#000000" points="30.5,-.5 30.5,-90.5 173.5,-90.5 173.5,-.5 30.5,-.5"/>
<text text-anchor="start" x="38.5" y="-78.5" font-family="Helvetica,sans-Serif" font-size="10.00" fill="#000000">org.cobbzilla.util.xml.Xml</text>
<text text-anchor="middle" x="102" y="-67.5" font-family="Helvetica,sans-Serif" font-size="10.00" fill="#000000">Util.MatchNodeXMLFunction</text>
<polyline fill="none" stroke="#000000" points="30.5,-60.5 173.5,-60.5 "/>
<text text-anchor="start" x="38.5" y="-48.5" font-family="Helvetica,sans-Serif" font-size="10.00" fill="#000000"># value</text>
<polyline fill="none" stroke="#000000" points="30.5,-41.5 173.5,-41.5 "/>
<text text-anchor="start" x="38.5" y="-29.5" font-family="Helvetica,sans-Serif" font-size="10.00" fill="#000000">+ MatchNodeXMLFunction()</text>
<text text-anchor="start" x="38.5" y="-18.5" font-family="Helvetica,sans-Serif" font-size="10.00" fill="#000000">+ apply()</text>
<text text-anchor="start" x="38.5" y="-7.5" font-family="Helvetica,sans-Serif" font-size="10.00" fill="#000000"># check()</text>
</g>
<!-- Node6 -->
<g id="node2" class="node">
<title>Node6</title>
<g id="a_node2"><a xlink:href="../../d8/dba/interfaceorg_1_1cobbzilla_1_1util_1_1xml_1_1XmlElementFunction.html" target="_top" xlink:title="{org.cobbzilla.util.xml.Xml\lElementFunction\n||+ apply()\l}">
<polygon fill="none" stroke="#000000" points="0,-138.5 0,-206.5 126,-206.5 126,-138.5 0,-138.5"/>
<text text-anchor="start" x="8" y="-194.5" font-family="Helvetica,sans-Serif" font-size="10.00" fill="#000000">org.cobbzilla.util.xml.Xml</text>
<text text-anchor="middle" x="63" y="-183.5" font-family="Helvetica,sans-Serif" font-size="10.00" fill="#000000">ElementFunction</text>
<polyline fill="none" stroke="#000000" points="0,-176.5 126,-176.5 "/>
<text text-anchor="middle" x="63" y="-164.5" font-family="Helvetica,sans-Serif" font-size="10.00" fill="#000000"> </text>
<polyline fill="none" stroke="#000000" points="0,-157.5 126,-157.5 "/>
<text text-anchor="start" x="8" y="-145.5" font-family="Helvetica,sans-Serif" font-size="10.00" fill="#000000">+ apply()</text>
</a>
</g>
</g>
<!-- Node6&#45;&gt;Node5 -->
<g id="edge1" class="edge">
<title>Node6&#45;&gt;Node5</title>
<path fill="none" stroke="#191970" d="M76.4053,-128.847C80.1956,-116.5042 84.3274,-103.0492 88.1437,-90.6219"/>
<polygon fill="none" stroke="#191970" points="73.0411,-127.8794 73.4513,-138.4663 79.7327,-129.9344 73.0411,-127.8794"/>
</g>
<!-- Node7 -->
<g id="node3" class="node">
<title>Node7</title>
<polygon fill="none" stroke="#bfbfbf" points="144,-144 144,-201 230,-201 230,-144 144,-144"/>
<text text-anchor="middle" x="187" y="-189" font-family="Helvetica,sans-Serif" font-size="10.00" fill="#000000">List&lt; Element &gt;</text>
<polyline fill="none" stroke="#bfbfbf" points="144,-182 230,-182 "/>
<text text-anchor="middle" x="187" y="-170" font-family="Helvetica,sans-Serif" font-size="10.00" fill="#000000"> </text>
<polyline fill="none" stroke="#bfbfbf" points="144,-163 230,-163 "/>
<text text-anchor="middle" x="187" y="-151" font-family="Helvetica,sans-Serif" font-size="10.00" fill="#000000"> </text>
</g>
<!-- Node7&#45;&gt;Node5 -->
<g id="edge2" class="edge">
<title>Node7&#45;&gt;Node5</title>
<path fill="none" stroke="#404040" d="M167.9243,-143.9987C159.4137,-131.2828 149.0806,-115.8439 139.1443,-100.9979"/>
<polygon fill="none" stroke="#404040" points="139.0305,-100.8279 132.3691,-98.0665 132.356,-90.8554 139.0174,-93.6168 139.0305,-100.8279"/>
<text text-anchor="middle" x="165.5" y="-112" font-family="Helvetica,sans-Serif" font-size="10.00" fill="#000000"> #found</text>
</g>
<!-- Node8 -->
<g id="node4" class="node">
<title>Node8</title>
<polygon fill="none" stroke="#bfbfbf" points="171,-254.5 171,-311.5 203,-311.5 203,-254.5 171,-254.5"/>
<text text-anchor="middle" x="187" y="-299.5" font-family="Helvetica,sans-Serif" font-size="10.00" fill="#000000">List</text>
<polyline fill="none" stroke="#bfbfbf" points="171,-292.5 203,-292.5 "/>
<text text-anchor="middle" x="187" y="-280.5" font-family="Helvetica,sans-Serif" font-size="10.00" fill="#000000"> </text>
<polyline fill="none" stroke="#bfbfbf" points="171,-273.5 203,-273.5 "/>
<text text-anchor="middle" x="187" y="-261.5" font-family="Helvetica,sans-Serif" font-size="10.00" fill="#000000"> </text>
</g>
<!-- Node8&#45;&gt;Node7 -->
<g id="edge3" class="edge">
<title>Node8&#45;&gt;Node7</title>
<path fill="none" stroke="#ffa500" d="M187,-243.845C187,-229.7511 187,-214.1262 187,-201.1002"/>
<polygon fill="#ffa500" stroke="#ffa500" points="183.5001,-244.2559 187,-254.2559 190.5001,-244.2559 183.5001,-244.2559"/>
<text text-anchor="middle" x="216" y="-228" font-family="Helvetica,sans-Serif" font-size="10.00" fill="#000000"> &lt; Element &gt;</text>
</g>
</g>
</svg>
