<?xml version="1.0" encoding="UTF-8" standalone="no"?>
<!DOCTYPE svg PUBLIC "-//W3C//DTD SVG 1.1//EN"
 "http://www.w3.org/Graphics/SVG/1.1/DTD/svg11.dtd">
<!-- Generated by graphviz version 2.40.1 (20161225.0304)
 -->
<!-- Title: org.cobbzilla.util.json.JsonEditTest.testEditJson Pages: 1 -->
<svg width="760pt" height="222pt"
 viewBox="0.00 0.00 760.00 222.00" xmlns="http://www.w3.org/2000/svg" xmlns:xlink="http://www.w3.org/1999/xlink">
<g id="graph0" class="graph" transform="scale(1 1) rotate(0) translate(4 218)">
<title>org.cobbzilla.util.json.JsonEditTest.testEditJson</title>
<!-- Node0 -->
<g id="node1" class="node">
<title>Node0</title>
<polygon fill="#bfbfbf" stroke="#000000" points="0,-109.5 0,-139.5 132,-139.5 132,-109.5 0,-109.5"/>
<text text-anchor="start" x="8" y="-127.5" font-family="Helvetica,sans-Serif" font-size="10.00" fill="#000000">org.cobbzilla.util.json.</text>
<text text-anchor="middle" x="66" y="-116.5" font-family="Helvetica,sans-Serif" font-size="10.00" fill="#000000">JsonEditTest.testEditJson</text>
</g>
<!-- Node1 -->
<g id="node2" class="node">
<title>Node1</title>
<g id="a_node2"><a xlink:href="../../d0/d44/classorg_1_1cobbzilla_1_1util_1_1json_1_1JsonEdit_acba55a9d770ceb27940eefce6e60d17f.html#acba55a9d770ceb27940eefce6e60d17f" target="_top" xlink:title="org.cobbzilla.util.json.\lJsonEdit.addOperation">
<polygon fill="none" stroke="#000000" points="168,-183.5 168,-213.5 284,-213.5 284,-183.5 168,-183.5"/>
<text text-anchor="start" x="176" y="-201.5" font-family="Helvetica,sans-Serif" font-size="10.00" fill="#000000">org.cobbzilla.util.json.</text>
<text text-anchor="middle" x="226" y="-190.5" font-family="Helvetica,sans-Serif" font-size="10.00" fill="#000000">JsonEdit.addOperation</text>
</a>
</g>
</g>
<!-- Node0&#45;&gt;Node1 -->
<g id="edge1" class="edge">
<title>Node0&#45;&gt;Node1</title>
<path fill="none" stroke="#191970" d="M95.6668,-139.6611C115.8941,-149.845 143.3747,-163.383 168,-174.5 171.6392,-176.1429 175.4249,-177.8072 179.2405,-179.4531"/>
<polygon fill="#191970" stroke="#191970" points="178.1481,-182.7918 188.7204,-183.4837 180.8871,-176.3499 178.1481,-182.7918"/>
</g>
<!-- Node2 -->
<g id="node3" class="node">
<title>Node2</title>
<g id="a_node3"><a xlink:href="../../d0/d44/classorg_1_1cobbzilla_1_1util_1_1json_1_1JsonEdit_a89997f01f59da2657d094cff40f28ba4.html#a89997f01f59da2657d094cff40f28ba4" target="_top" xlink:title="org.cobbzilla.util.json.\lJsonEdit.edit">
<polygon fill="none" stroke="#000000" points="170.5,-134.5 170.5,-164.5 281.5,-164.5 281.5,-134.5 170.5,-134.5"/>
<text text-anchor="start" x="178.5" y="-152.5" font-family="Helvetica,sans-Serif" font-size="10.00" fill="#000000">org.cobbzilla.util.json.</text>
<text text-anchor="middle" x="226" y="-141.5" font-family="Helvetica,sans-Serif" font-size="10.00" fill="#000000">JsonEdit.edit</text>
</a>
</g>
</g>
<!-- Node0&#45;&gt;Node2 -->
<g id="edge2" class="edge">
<title>Node0&#45;&gt;Node2</title>
<path fill="none" stroke="#191970" d="M132.0019,-134.8128C141.3579,-136.2747 150.9775,-137.7777 160.3273,-139.2386"/>
<polygon fill="#191970" stroke="#191970" points="159.9211,-142.7176 170.3415,-140.8034 161.0018,-135.8015 159.9211,-142.7176"/>
</g>
<!-- Node4 -->
<g id="node5" class="node">
<title>Node4</title>
<g id="a_node5"><a xlink:href="../../dc/d2c/classorg_1_1cobbzilla_1_1util_1_1json_1_1JsonUtil_a012540ca836ef7dea8ae971437fb82c7.html#a012540ca836ef7dea8ae971437fb82c7" target="_top" xlink:title="org.cobbzilla.util.json.\lJsonUtil.fromJson">
<polygon fill="none" stroke="#000000" points="170.5,-85.5 170.5,-115.5 281.5,-115.5 281.5,-85.5 170.5,-85.5"/>
<text text-anchor="start" x="178.5" y="-103.5" font-family="Helvetica,sans-Serif" font-size="10.00" fill="#000000">org.cobbzilla.util.json.</text>
<text text-anchor="middle" x="226" y="-92.5" font-family="Helvetica,sans-Serif" font-size="10.00" fill="#000000">JsonUtil.fromJson</text>
</a>
</g>
</g>
<!-- Node0&#45;&gt;Node4 -->
<g id="edge4" class="edge">
<title>Node0&#45;&gt;Node4</title>
<path fill="none" stroke="#191970" d="M132.0019,-114.5997C141.3579,-113.1963 150.9775,-111.7534 160.3273,-110.3509"/>
<polygon fill="#191970" stroke="#191970" points="160.9714,-113.7935 170.3415,-108.8488 159.933,-106.871 160.9714,-113.7935"/>
</g>
<!-- Node9 -->
<g id="node10" class="node">
<title>Node9</title>
<g id="a_node10"><a xlink:href="../../d1/d68/classorg_1_1cobbzilla_1_1util_1_1json_1_1JsonEditTest_ab9c8a124d8697e658569d2d5c7597499.html#ab9c8a124d8697e658569d2d5c7597499" target="_top" xlink:title="org.cobbzilla.util.json.\lJsonEditTest.testJson">
<polygon fill="none" stroke="#000000" points="168.5,-24.5 168.5,-54.5 283.5,-54.5 283.5,-24.5 168.5,-24.5"/>
<text text-anchor="start" x="176.5" y="-42.5" font-family="Helvetica,sans-Serif" font-size="10.00" fill="#000000">org.cobbzilla.util.json.</text>
<text text-anchor="middle" x="226" y="-31.5" font-family="Helvetica,sans-Serif" font-size="10.00" fill="#000000">JsonEditTest.testJson</text>
</a>
</g>
</g>
<!-- Node0&#45;&gt;Node9 -->
<g id="edge10" class="edge">
<title>Node0&#45;&gt;Node9</title>
<path fill="none" stroke="#191970" d="M94.2365,-109.4994C120.4648,-95.5656 159.7021,-74.7208 188.5398,-59.4007"/>
<polygon fill="#191970" stroke="#191970" points="190.3185,-62.4191 197.5076,-54.6366 187.0344,-56.2373 190.3185,-62.4191"/>
</g>
<!-- Node3 -->
<g id="node4" class="node">
<title>Node3</title>
<g id="a_node4"><a xlink:href="../../dc/d2c/classorg_1_1cobbzilla_1_1util_1_1json_1_1JsonUtil_a584c0d348fcc2caa471f4f69a9085353.html#a584c0d348fcc2caa471f4f69a9085353" target="_top" xlink:title="org.cobbzilla.util.json.\lJsonUtil.toString">
<polygon fill="none" stroke="#000000" points="333.5,-147.5 333.5,-177.5 444.5,-177.5 444.5,-147.5 333.5,-147.5"/>
<text text-anchor="start" x="341.5" y="-165.5" font-family="Helvetica,sans-Serif" font-size="10.00" fill="#000000">org.cobbzilla.util.json.</text>
<text text-anchor="middle" x="389" y="-154.5" font-family="Helvetica,sans-Serif" font-size="10.00" fill="#000000">JsonUtil.toString</text>
</a>
</g>
</g>
<!-- Node2&#45;&gt;Node3 -->
<g id="edge3" class="edge">
<title>Node2&#45;&gt;Node3</title>
<path fill="none" stroke="#191970" d="M281.6395,-153.9375C294.9417,-154.9984 309.2692,-156.1411 322.9888,-157.2353"/>
<polygon fill="#191970" stroke="#191970" points="323.0881,-160.7543 333.3347,-158.0604 323.6447,-153.7764 323.0881,-160.7543"/>
</g>
<!-- Node5 -->
<g id="node6" class="node">
<title>Node5</title>
<g id="a_node6"><a xlink:href="../../dc/d81/classorg_1_1cobbzilla_1_1util_1_1io_1_1StreamUtil_a242c4cb3ac88a027891f05b372294875.html#a242c4cb3ac88a027891f05b372294875" target="_top" xlink:title="org.cobbzilla.util.io.Stream\lUtil.toString">
<polygon fill="none" stroke="#000000" points="323,-98.5 323,-128.5 455,-128.5 455,-98.5 323,-98.5"/>
<text text-anchor="start" x="331" y="-116.5" font-family="Helvetica,sans-Serif" font-size="10.00" fill="#000000">org.cobbzilla.util.io.Stream</text>
<text text-anchor="middle" x="389" y="-105.5" font-family="Helvetica,sans-Serif" font-size="10.00" fill="#000000">Util.toString</text>
</a>
</g>
</g>
<!-- Node4&#45;&gt;Node5 -->
<g id="edge5" class="edge">
<title>Node4&#45;&gt;Node5</title>
<path fill="none" stroke="#191970" d="M281.6395,-104.9375C291.7036,-105.7402 302.3548,-106.5896 312.8855,-107.4295"/>
<polygon fill="#191970" stroke="#191970" points="312.6753,-110.9238 322.922,-108.23 313.2319,-103.9459 312.6753,-110.9238"/>
</g>
<!-- Node6 -->
<g id="node7" class="node">
<title>Node6</title>
<g id="a_node7"><a xlink:href="../../dc/d2c/classorg_1_1cobbzilla_1_1util_1_1json_1_1JsonUtil_a4181f7525f80c694d58881fca5fe097f.html#a4181f7525f80c694d58881fca5fe097f" target="_top" xlink:title="org.cobbzilla.util.json.\lJsonUtil.json">
<polygon fill="none" stroke="#000000" points="333.5,-49.5 333.5,-79.5 444.5,-79.5 444.5,-49.5 333.5,-49.5"/>
<text text-anchor="start" x="341.5" y="-67.5" font-family="Helvetica,sans-Serif" font-size="10.00" fill="#000000">org.cobbzilla.util.json.</text>
<text text-anchor="middle" x="389" y="-56.5" font-family="Helvetica,sans-Serif" font-size="10.00" fill="#000000">JsonUtil.json</text>
</a>
</g>
</g>
<!-- Node4&#45;&gt;Node6 -->
<g id="edge6" class="edge">
<title>Node4&#45;&gt;Node6</title>
<path fill="none" stroke="#191970" d="M281.6395,-88.2115C295.0721,-85.2448 309.5503,-82.0472 323.3922,-78.9901"/>
<polygon fill="#191970" stroke="#191970" points="324.3249,-82.3685 333.3347,-76.7942 322.8152,-75.5332 324.3249,-82.3685"/>
</g>
<!-- Node7 -->
<g id="node8" class="node">
<title>Node7</title>
<g id="a_node8"><a xlink:href="../../dc/d2c/classorg_1_1cobbzilla_1_1util_1_1json_1_1JsonUtil_ae4b0ddbe1c463c41b05503ea67eb8f10.html#ae4b0ddbe1c463c41b05503ea67eb8f10" target="_top" xlink:title="org.cobbzilla.util.json.\lJsonUtil.toJsonOrDie">
<polygon fill="none" stroke="#000000" points="494,-49.5 494,-79.5 605,-79.5 605,-49.5 494,-49.5"/>
<text text-anchor="start" x="502" y="-67.5" font-family="Helvetica,sans-Serif" font-size="10.00" fill="#000000">org.cobbzilla.util.json.</text>
<text text-anchor="middle" x="549.5" y="-56.5" font-family="Helvetica,sans-Serif" font-size="10.00" fill="#000000">JsonUtil.toJsonOrDie</text>
</a>
</g>
</g>
<!-- Node6&#45;&gt;Node7 -->
<g id="edge7" class="edge">
<title>Node6&#45;&gt;Node7</title>
<path fill="none" stroke="#191970" d="M444.6847,-64.5C457.2583,-64.5 470.7224,-64.5 483.6689,-64.5"/>
<polygon fill="#191970" stroke="#191970" points="483.9138,-68.0001 493.9138,-64.5 483.9137,-61.0001 483.9138,-68.0001"/>
</g>
<!-- Node8 -->
<g id="node9" class="node">
<title>Node8</title>
<g id="a_node9"><a xlink:href="../../dc/d2c/classorg_1_1cobbzilla_1_1util_1_1json_1_1JsonUtil_aa10cd1ef91d278b645230ab79181d51e.html#aa10cd1ef91d278b645230ab79181d51e" target="_top" xlink:title="org.cobbzilla.util.json.\lJsonUtil.toJson">
<polygon fill="none" stroke="#000000" points="641,-49.5 641,-79.5 752,-79.5 752,-49.5 641,-49.5"/>
<text text-anchor="start" x="649" y="-67.5" font-family="Helvetica,sans-Serif" font-size="10.00" fill="#000000">org.cobbzilla.util.json.</text>
<text text-anchor="middle" x="696.5" y="-56.5" font-family="Helvetica,sans-Serif" font-size="10.00" fill="#000000">JsonUtil.toJson</text>
</a>
</g>
</g>
<!-- Node7&#45;&gt;Node8 -->
<g id="edge8" class="edge">
<title>Node7&#45;&gt;Node8</title>
<path fill="none" stroke="#191970" d="M605.0744,-64.5C613.4894,-64.5 622.2383,-64.5 630.8421,-64.5"/>
<polygon fill="#191970" stroke="#191970" points="630.8471,-68.0001 640.847,-64.5 630.847,-61.0001 630.8471,-68.0001"/>
</g>
<!-- Node8&#45;&gt;Node8 -->
<g id="edge9" class="edge">
<title>Node8&#45;&gt;Node8</title>
<path fill="none" stroke="#191970" d="M671.0565,-79.659C664.9212,-89.0566 673.4023,-98 696.5,-98 710.5751,-98 719.2226,-94.679 722.4424,-89.9579"/>
<polygon fill="#191970" stroke="#191970" points="725.9234,-89.4779 721.9435,-79.659 718.9316,-89.8167 725.9234,-89.4779"/>
</g>
<!-- Node10 -->
<g id="node11" class="node">
<title>Node10</title>
<g id="a_node11"><a xlink:href="../../dc/d81/classorg_1_1cobbzilla_1_1util_1_1io_1_1StreamUtil_aa82a9bc20749f971c1ec04a4025ef34d.html#aa82a9bc20749f971c1ec04a4025ef34d" target="_top" xlink:title="org.cobbzilla.util.io.Stream\lUtil.loadResourceAsStream">
<polygon fill="none" stroke="#000000" points="320,-.5 320,-30.5 458,-30.5 458,-.5 320,-.5"/>
<text text-anchor="start" x="328" y="-18.5" font-family="Helvetica,sans-Serif" font-size="10.00" fill="#000000">org.cobbzilla.util.io.Stream</text>
<text text-anchor="middle" x="389" y="-7.5" font-family="Helvetica,sans-Serif" font-size="10.00" fill="#000000">Util.loadResourceAsStream</text>
</a>
</g>
</g>
<!-- Node9&#45;&gt;Node10 -->
<g id="edge11" class="edge">
<title>Node9&#45;&gt;Node10</title>
<path fill="none" stroke="#191970" d="M283.9267,-30.9709C292.2794,-29.7411 300.9936,-28.458 309.6749,-27.1798"/>
<polygon fill="#191970" stroke="#191970" points="310.4437,-30.6044 319.8272,-25.685 309.424,-23.6791 310.4437,-30.6044"/>
</g>
</g>
</svg>
