<?xml version="1.0" encoding="UTF-8" standalone="no"?>
<!DOCTYPE svg PUBLIC "-//W3C//DTD SVG 1.1//EN"
 "http://www.w3.org/Graphics/SVG/1.1/DTD/svg11.dtd">
<!-- Generated by graphviz version 2.40.1 (20161225.0304)
 -->
<!-- Title: org.cobbzilla.util.reflect.PoisonProxy.PoisonedInvocationHandler Pages: 1 -->
<svg width="289pt" height="193pt"
 viewBox="0.00 0.00 288.50 193.00" xmlns="http://www.w3.org/2000/svg" xmlns:xlink="http://www.w3.org/1999/xlink">
<g id="graph0" class="graph" transform="scale(1 1) rotate(0) translate(4 189)">
<title>org.cobbzilla.util.reflect.PoisonProxy.PoisonedInvocationHandler</title>
<!-- Node2 -->
<g id="node1" class="node">
<title>Node2</title>
<polygon fill="#bfbfbf" stroke="#000000" points="22.5,-.5 22.5,-68.5 216.5,-68.5 216.5,-.5 22.5,-.5"/>
<text text-anchor="start" x="30.5" y="-56.5" font-family="Helvetica,sans-Serif" font-size="10.00" fill="#000000">org.cobbzilla.util.reflect.</text>
<text text-anchor="middle" x="119.5" y="-45.5" font-family="Helvetica,sans-Serif" font-size="10.00" fill="#000000">PoisonProxy.PoisonedInvocationHandler</text>
<polyline fill="none" stroke="#000000" points="22.5,-38.5 216.5,-38.5 "/>
<text text-anchor="middle" x="119.5" y="-26.5" font-family="Helvetica,sans-Serif" font-size="10.00" fill="#000000"> </text>
<polyline fill="none" stroke="#000000" points="22.5,-19.5 216.5,-19.5 "/>
<text text-anchor="start" x="30.5" y="-7.5" font-family="Helvetica,sans-Serif" font-size="10.00" fill="#000000">+ invoke()</text>
</g>
<!-- Node2&#45;&gt;Node2 -->
<g id="edge3" class="edge">
<title>Node2&#45;&gt;Node2</title>
<path fill="none" stroke="#404040" d="M216.8214,-43.6486C227.564,-41.9109 234.5,-38.8613 234.5,-34.5 234.5,-32.0468 232.3054,-30.0086 228.4732,-28.3854"/>
<polygon fill="none" stroke="#404040" points="228.4341,-28.3754 221.6198,-30.7343 216.8214,-25.3514 223.6357,-22.9925 228.4341,-28.3754"/>
<text text-anchor="middle" x="257.5" y="-32" font-family="Helvetica,sans-Serif" font-size="10.00" fill="#000000"> +instance</text>
</g>
<!-- Node3 -->
<g id="node2" class="node">
<title>Node3</title>
<polygon fill="none" stroke="#bfbfbf" points="0,-122 0,-179 95,-179 95,-122 0,-122"/>
<text text-anchor="middle" x="47.5" y="-167" font-family="Helvetica,sans-Serif" font-size="10.00" fill="#000000">InvocationHandler</text>
<polyline fill="none" stroke="#bfbfbf" points="0,-160 95,-160 "/>
<text text-anchor="middle" x="47.5" y="-148" font-family="Helvetica,sans-Serif" font-size="10.00" fill="#000000"> </text>
<polyline fill="none" stroke="#bfbfbf" points="0,-141 95,-141 "/>
<text text-anchor="middle" x="47.5" y="-129" font-family="Helvetica,sans-Serif" font-size="10.00" fill="#000000"> </text>
</g>
<!-- Node3&#45;&gt;Node2 -->
<g id="edge1" class="edge">
<title>Node3&#45;&gt;Node2</title>
<path fill="none" stroke="#191970" d="M70.6529,-113.198C79.5406,-98.8791 89.6306,-82.6229 98.3235,-68.6178"/>
<polygon fill="none" stroke="#191970" points="67.5977,-111.4836 65.2978,-121.8258 73.5452,-115.1752 67.5977,-111.4836"/>
</g>
<!-- Node4 -->
<g id="node3" class="node">
<title>Node4</title>
<g id="a_node3"><a xlink:href="../../d7/d26/interfaceorg_1_1cobbzilla_1_1util_1_1reflect_1_1PoisonProxy_1_1PoisonProxyThrow.html" target="_top" xlink:title="{org.cobbzilla.util.reflect.\lPoisonProxy.PoisonProxyThrow\n||+ getThrowable()\l}">
<polygon fill="none" stroke="#000000" points="113.5,-116.5 113.5,-184.5 271.5,-184.5 271.5,-116.5 113.5,-116.5"/>
<text text-anchor="start" x="121.5" y="-172.5" font-family="Helvetica,sans-Serif" font-size="10.00" fill="#000000">org.cobbzilla.util.reflect.</text>
<text text-anchor="middle" x="192.5" y="-161.5" font-family="Helvetica,sans-Serif" font-size="10.00" fill="#000000">PoisonProxy.PoisonProxyThrow</text>
<polyline fill="none" stroke="#000000" points="113.5,-154.5 271.5,-154.5 "/>
<text text-anchor="middle" x="192.5" y="-142.5" font-family="Helvetica,sans-Serif" font-size="10.00" fill="#000000"> </text>
<polyline fill="none" stroke="#000000" points="113.5,-135.5 271.5,-135.5 "/>
<text text-anchor="start" x="121.5" y="-123.5" font-family="Helvetica,sans-Serif" font-size="10.00" fill="#000000">+ getThrowable()</text>
</a>
</g>
</g>
<!-- Node4&#45;&gt;Node2 -->
<g id="edge2" class="edge">
<title>Node4&#45;&gt;Node2</title>
<path fill="none" stroke="#404040" d="M170.9924,-116.3236C163.706,-104.7452 155.4549,-91.6338 147.7262,-79.3525"/>
<polygon fill="none" stroke="#404040" points="147.4976,-78.9893 140.9164,-76.0416 141.1061,-68.833 147.6873,-71.7806 147.4976,-78.9893"/>
<text text-anchor="middle" x="178" y="-90" font-family="Helvetica,sans-Serif" font-size="10.00" fill="#000000"> &#45;thrower</text>
</g>
</g>
</svg>
