<?xml version="1.0" encoding="UTF-8" standalone="no"?>
<!DOCTYPE svg PUBLIC "-//W3C//DTD SVG 1.1//EN"
 "http://www.w3.org/Graphics/SVG/1.1/DTD/svg11.dtd">
<!-- Generated by graphviz version 2.40.1 (20161225.0304)
 -->
<!-- Title: org.cobbzilla.util.io.ByteLimitedInputStream Pages: 1 -->
<svg width="145pt" height="237pt"
 viewBox="0.00 0.00 145.00 237.00" xmlns="http://www.w3.org/2000/svg" xmlns:xlink="http://www.w3.org/1999/xlink">
<g id="graph0" class="graph" transform="scale(1 1) rotate(0) translate(4 233)">
<title>org.cobbzilla.util.io.ByteLimitedInputStream</title>
<!-- Node2 -->
<g id="node1" class="node">
<title>Node2</title>
<polygon fill="#bfbfbf" stroke="#000000" points="0,-.5 0,-123.5 137,-123.5 137,-.5 0,-.5"/>
<text text-anchor="start" x="8" y="-111.5" font-family="Helvetica,sans-Serif" font-size="10.00" fill="#000000">org.cobbzilla.util.io.Byte</text>
<text text-anchor="middle" x="68.5" y="-100.5" font-family="Helvetica,sans-Serif" font-size="10.00" fill="#000000">LimitedInputStream</text>
<polyline fill="none" stroke="#000000" points="0,-93.5 137,-93.5 "/>
<text text-anchor="start" x="8" y="-81.5" font-family="Helvetica,sans-Serif" font-size="10.00" fill="#000000">&#45; count</text>
<text text-anchor="start" x="8" y="-70.5" font-family="Helvetica,sans-Serif" font-size="10.00" fill="#000000">&#45; limit</text>
<polyline fill="none" stroke="#000000" points="0,-63.5 137,-63.5 "/>
<text text-anchor="start" x="8" y="-51.5" font-family="Helvetica,sans-Serif" font-size="10.00" fill="#000000">+ getPercentDone()</text>
<text text-anchor="start" x="8" y="-40.5" font-family="Helvetica,sans-Serif" font-size="10.00" fill="#000000">+ ByteLimitedInputStream()</text>
<text text-anchor="start" x="8" y="-29.5" font-family="Helvetica,sans-Serif" font-size="10.00" fill="#000000">+ read()</text>
<text text-anchor="start" x="8" y="-18.5" font-family="Helvetica,sans-Serif" font-size="10.00" fill="#000000">+ read()</text>
<text text-anchor="start" x="8" y="-7.5" font-family="Helvetica,sans-Serif" font-size="10.00" fill="#000000">+ read()</text>
</g>
<!-- Node3 -->
<g id="node2" class="node">
<title>Node3</title>
<polygon fill="none" stroke="#bfbfbf" points="33.5,-171.5 33.5,-228.5 103.5,-228.5 103.5,-171.5 33.5,-171.5"/>
<text text-anchor="middle" x="68.5" y="-216.5" font-family="Helvetica,sans-Serif" font-size="10.00" fill="#000000">InputStream</text>
<polyline fill="none" stroke="#bfbfbf" points="33.5,-209.5 103.5,-209.5 "/>
<text text-anchor="middle" x="68.5" y="-197.5" font-family="Helvetica,sans-Serif" font-size="10.00" fill="#000000"> </text>
<polyline fill="none" stroke="#bfbfbf" points="33.5,-190.5 103.5,-190.5 "/>
<text text-anchor="middle" x="68.5" y="-178.5" font-family="Helvetica,sans-Serif" font-size="10.00" fill="#000000"> </text>
</g>
<!-- Node3&#45;&gt;Node2 -->
<g id="edge1" class="edge">
<title>Node3&#45;&gt;Node2</title>
<path fill="none" stroke="#191970" d="M66.7096,-160.8938C66.6262,-158.2228 66.5547,-155.5721 66.5,-153 66.2984,-143.5207 66.3012,-133.486 66.4236,-123.677"/>
<polygon fill="none" stroke="#191970" points="63.222,-161.3057 67.0794,-171.1734 70.2175,-161.054 63.222,-161.3057"/>
</g>
<!-- Node3&#45;&gt;Node2 -->
<g id="edge2" class="edge">
<title>Node3&#45;&gt;Node2</title>
<path fill="none" stroke="#404040" d="M68.5,-171.4063C68.5,-160.8767 68.5,-148.4088 68.5,-135.7269"/>
<polygon fill="none" stroke="#404040" points="68.5001,-135.5587 64.5,-129.5587 68.5,-123.5587 72.5,-129.5586 68.5001,-135.5587"/>
<text text-anchor="middle" x="90" y="-145" font-family="Helvetica,sans-Serif" font-size="10.00" fill="#000000"> &#45;delegate</text>
</g>
</g>
</svg>
