<?xml version="1.0" encoding="UTF-8" standalone="no"?>
<!DOCTYPE svg PUBLIC "-//W3C//DTD SVG 1.1//EN"
 "http://www.w3.org/Graphics/SVG/1.1/DTD/svg11.dtd">
<!-- Generated by graphviz version 2.40.1 (20161225.0304)
 -->
<!-- Title: org.cobbzilla.util.daemon.AwaitResult&lt; T &gt; Pages: 1 -->
<svg width="353pt" height="386pt"
 viewBox="0.00 0.00 353.00 386.00" xmlns="http://www.w3.org/2000/svg" xmlns:xlink="http://www.w3.org/1999/xlink">
<g id="graph0" class="graph" transform="scale(1 1) rotate(0) translate(4 382)">
<title>org.cobbzilla.util.daemon.AwaitResult&lt; T &gt;</title>
<!-- Node1 -->
<g id="node1" class="node">
<title>Node1</title>
<polygon fill="#bfbfbf" stroke="#000000" points="79,-.5 79,-167.5 207,-167.5 207,-.5 79,-.5"/>
<text text-anchor="start" x="87" y="-155.5" font-family="Helvetica,sans-Serif" font-size="10.00" fill="#000000">org.cobbzilla.util.daemon.</text>
<text text-anchor="middle" x="143" y="-144.5" font-family="Helvetica,sans-Serif" font-size="10.00" fill="#000000">AwaitResult&lt; T &gt;</text>
<polyline fill="none" stroke="#000000" points="79,-137.5 207,-137.5 "/>
<text text-anchor="middle" x="143" y="-125.5" font-family="Helvetica,sans-Serif" font-size="10.00" fill="#000000"> </text>
<polyline fill="none" stroke="#000000" points="79,-118.5 207,-118.5 "/>
<text text-anchor="start" x="87" y="-106.5" font-family="Helvetica,sans-Serif" font-size="10.00" fill="#000000">+ success()</text>
<text text-anchor="start" x="87" y="-95.5" font-family="Helvetica,sans-Serif" font-size="10.00" fill="#000000">+ numSuccesses()</text>
<text text-anchor="start" x="87" y="-84.5" font-family="Helvetica,sans-Serif" font-size="10.00" fill="#000000">+ fail()</text>
<text text-anchor="start" x="87" y="-73.5" font-family="Helvetica,sans-Serif" font-size="10.00" fill="#000000">+ numFails()</text>
<text text-anchor="start" x="87" y="-62.5" font-family="Helvetica,sans-Serif" font-size="10.00" fill="#000000">+ timeout()</text>
<text text-anchor="start" x="87" y="-51.5" font-family="Helvetica,sans-Serif" font-size="10.00" fill="#000000">+ timedOut()</text>
<text text-anchor="start" x="87" y="-40.5" font-family="Helvetica,sans-Serif" font-size="10.00" fill="#000000">+ numTimeouts()</text>
<text text-anchor="start" x="87" y="-29.5" font-family="Helvetica,sans-Serif" font-size="10.00" fill="#000000">+ allSucceeded()</text>
<text text-anchor="start" x="87" y="-18.5" font-family="Helvetica,sans-Serif" font-size="10.00" fill="#000000">+ getNotNullSuccesses()</text>
<text text-anchor="start" x="87" y="-7.5" font-family="Helvetica,sans-Serif" font-size="10.00" fill="#000000">+ toString()</text>
</g>
<!-- Node2 -->
<g id="node2" class="node">
<title>Node2</title>
<polygon fill="none" stroke="#bfbfbf" points="0,-215.5 0,-272.5 78,-272.5 78,-215.5 0,-215.5"/>
<text text-anchor="middle" x="39" y="-260.5" font-family="Helvetica,sans-Serif" font-size="10.00" fill="#000000">List&lt; Future &gt;</text>
<polyline fill="none" stroke="#bfbfbf" points="0,-253.5 78,-253.5 "/>
<text text-anchor="middle" x="39" y="-241.5" font-family="Helvetica,sans-Serif" font-size="10.00" fill="#000000"> </text>
<polyline fill="none" stroke="#bfbfbf" points="0,-234.5 78,-234.5 "/>
<text text-anchor="middle" x="39" y="-222.5" font-family="Helvetica,sans-Serif" font-size="10.00" fill="#000000"> </text>
</g>
<!-- Node2&#45;&gt;Node1 -->
<g id="edge1" class="edge">
<title>Node2&#45;&gt;Node1</title>
<path fill="none" stroke="#404040" d="M57.5931,-215.3952C64.6234,-204.5794 73.0665,-191.5901 81.8699,-178.0462"/>
<polygon fill="none" stroke="#404040" points="82.1149,-177.6693 82.0311,-170.4586 88.6549,-167.6079 88.7387,-174.8186 82.1149,-177.6693"/>
<text text-anchor="middle" x="98" y="-189" font-family="Helvetica,sans-Serif" font-size="10.00" fill="#000000"> &#45;timeouts</text>
</g>
<!-- Node3 -->
<g id="node3" class="node">
<title>Node3</title>
<polygon fill="none" stroke="#bfbfbf" points="23,-320.5 23,-377.5 55,-377.5 55,-320.5 23,-320.5"/>
<text text-anchor="middle" x="39" y="-365.5" font-family="Helvetica,sans-Serif" font-size="10.00" fill="#000000">List</text>
<polyline fill="none" stroke="#bfbfbf" points="23,-358.5 55,-358.5 "/>
<text text-anchor="middle" x="39" y="-346.5" font-family="Helvetica,sans-Serif" font-size="10.00" fill="#000000"> </text>
<polyline fill="none" stroke="#bfbfbf" points="23,-339.5 55,-339.5 "/>
<text text-anchor="middle" x="39" y="-327.5" font-family="Helvetica,sans-Serif" font-size="10.00" fill="#000000"> </text>
</g>
<!-- Node3&#45;&gt;Node2 -->
<g id="edge2" class="edge">
<title>Node3&#45;&gt;Node2</title>
<path fill="none" stroke="#ffa500" d="M39,-310.192C39,-297.7605 39,-284.2278 39,-272.657"/>
<polygon fill="#ffa500" stroke="#ffa500" points="35.5001,-310.3083 39,-320.3083 42.5001,-310.3083 35.5001,-310.3083"/>
<text text-anchor="middle" x="63.5" y="-294" font-family="Helvetica,sans-Serif" font-size="10.00" fill="#000000"> &lt; Future &gt;</text>
</g>
<!-- Node4 -->
<g id="node4" class="node">
<title>Node4</title>
<polygon fill="none" stroke="#bfbfbf" points="96.5,-215.5 96.5,-272.5 189.5,-272.5 189.5,-215.5 96.5,-215.5"/>
<text text-anchor="middle" x="143" y="-260.5" font-family="Helvetica,sans-Serif" font-size="10.00" fill="#000000">Map&lt; Future, T &gt;</text>
<polyline fill="none" stroke="#bfbfbf" points="96.5,-253.5 189.5,-253.5 "/>
<text text-anchor="middle" x="143" y="-241.5" font-family="Helvetica,sans-Serif" font-size="10.00" fill="#000000"> </text>
<polyline fill="none" stroke="#bfbfbf" points="96.5,-234.5 189.5,-234.5 "/>
<text text-anchor="middle" x="143" y="-222.5" font-family="Helvetica,sans-Serif" font-size="10.00" fill="#000000"> </text>
</g>
<!-- Node4&#45;&gt;Node1 -->
<g id="edge3" class="edge">
<title>Node4&#45;&gt;Node1</title>
<path fill="none" stroke="#404040" d="M143,-215.3952C143,-205.0035 143,-192.6055 143,-179.637"/>
<polygon fill="none" stroke="#404040" points="143.0001,-179.6079 139,-173.608 143,-167.6079 147,-173.6079 143.0001,-179.6079"/>
<text text-anchor="middle" x="170" y="-189" font-family="Helvetica,sans-Serif" font-size="10.00" fill="#000000"> &#45;successes</text>
</g>
<!-- Node5 -->
<g id="node5" class="node">
<title>Node5</title>
<polygon fill="none" stroke="#bfbfbf" points="189.5,-320.5 189.5,-377.5 224.5,-377.5 224.5,-320.5 189.5,-320.5"/>
<text text-anchor="middle" x="207" y="-365.5" font-family="Helvetica,sans-Serif" font-size="10.00" fill="#000000">Map</text>
<polyline fill="none" stroke="#bfbfbf" points="189.5,-358.5 224.5,-358.5 "/>
<text text-anchor="middle" x="207" y="-346.5" font-family="Helvetica,sans-Serif" font-size="10.00" fill="#000000"> </text>
<polyline fill="none" stroke="#bfbfbf" points="189.5,-339.5 224.5,-339.5 "/>
<text text-anchor="middle" x="207" y="-327.5" font-family="Helvetica,sans-Serif" font-size="10.00" fill="#000000"> </text>
</g>
<!-- Node5&#45;&gt;Node4 -->
<g id="edge4" class="edge">
<title>Node5&#45;&gt;Node4</title>
<path fill="none" stroke="#ffa500" d="M184.0616,-311.9003C182.0076,-308.5552 179.9634,-305.2175 178,-302 172.1802,-292.4627 165.8599,-282.0166 160.212,-272.6497"/>
<polygon fill="#ffa500" stroke="#ffa500" points="181.2512,-314.0117 189.4725,-320.6947 187.2132,-310.3435 181.2512,-314.0117"/>
<text text-anchor="middle" x="208.5" y="-294" font-family="Helvetica,sans-Serif" font-size="10.00" fill="#000000"> &lt; Future, T &gt;</text>
</g>
<!-- Node6 -->
<g id="node6" class="node">
<title>Node6</title>
<polygon fill="none" stroke="#bfbfbf" points="207.5,-215.5 207.5,-272.5 338.5,-272.5 338.5,-215.5 207.5,-215.5"/>
<text text-anchor="middle" x="273" y="-260.5" font-family="Helvetica,sans-Serif" font-size="10.00" fill="#000000">Map&lt; Future, Exception &gt;</text>
<polyline fill="none" stroke="#bfbfbf" points="207.5,-253.5 338.5,-253.5 "/>
<text text-anchor="middle" x="273" y="-241.5" font-family="Helvetica,sans-Serif" font-size="10.00" fill="#000000"> </text>
<polyline fill="none" stroke="#bfbfbf" points="207.5,-234.5 338.5,-234.5 "/>
<text text-anchor="middle" x="273" y="-222.5" font-family="Helvetica,sans-Serif" font-size="10.00" fill="#000000"> </text>
</g>
<!-- Node5&#45;&gt;Node6 -->
<g id="edge6" class="edge">
<title>Node5&#45;&gt;Node6</title>
<path fill="none" stroke="#ffa500" d="M230.2787,-315.3983C233.2604,-310.9237 236.2346,-306.3721 239,-302 244.9898,-292.5302 251.2685,-282.0065 256.7771,-272.551"/>
<polygon fill="#ffa500" stroke="#ffa500" points="227.2755,-313.5918 224.5887,-323.8403 233.0802,-317.5042 227.2755,-313.5918"/>
<text text-anchor="middle" x="295.5" y="-294" font-family="Helvetica,sans-Serif" font-size="10.00" fill="#000000"> &lt; Future, Exception &gt;</text>
</g>
<!-- Node6&#45;&gt;Node1 -->
<g id="edge5" class="edge">
<title>Node6&#45;&gt;Node1</title>
<path fill="none" stroke="#404040" d="M249.7586,-215.3952C239.7794,-203.1131 227.523,-188.0283 214.9155,-172.5114"/>
<polygon fill="none" stroke="#404040" points="214.6046,-172.1287 207.7166,-169.9944 207.0375,-162.8153 213.9255,-164.9497 214.6046,-172.1287"/>
<text text-anchor="middle" x="254" y="-189" font-family="Helvetica,sans-Serif" font-size="10.00" fill="#000000"> &#45;failures</text>
</g>
</g>
</svg>
