<?xml version="1.0" encoding="UTF-8" standalone="no"?>
<!DOCTYPE svg PUBLIC "-//W3C//DTD SVG 1.1//EN"
 "http://www.w3.org/Graphics/SVG/1.1/DTD/svg11.dtd">
<!-- Generated by graphviz version 2.40.1 (20161225.0304)
 -->
<!-- Title: org.cobbzilla.util.jdbc.TypedResultSetBean.getTypedRows Pages: 1 -->
<svg width="531pt" height="39pt"
 viewBox="0.00 0.00 531.00 39.00" xmlns="http://www.w3.org/2000/svg" xmlns:xlink="http://www.w3.org/1999/xlink">
<g id="graph0" class="graph" transform="scale(1 1) rotate(0) translate(4 35)">
<title>org.cobbzilla.util.jdbc.TypedResultSetBean.getTypedRows</title>
<!-- Node0 -->
<g id="node1" class="node">
<title>Node0</title>
<polygon fill="#bfbfbf" stroke="#000000" points="0,-.5 0,-30.5 179,-30.5 179,-.5 0,-.5"/>
<text text-anchor="start" x="8" y="-18.5" font-family="Helvetica,sans-Serif" font-size="10.00" fill="#000000">org.cobbzilla.util.jdbc.</text>
<text text-anchor="middle" x="89.5" y="-7.5" font-family="Helvetica,sans-Serif" font-size="10.00" fill="#000000">TypedResultSetBean.getTypedRows</text>
</g>
<!-- Node1 -->
<g id="node2" class="node">
<title>Node1</title>
<g id="a_node2"><a xlink:href="../../d1/dbd/classorg_1_1cobbzilla_1_1util_1_1jdbc_1_1TypedResultSetBean_a990a701158b38ca612092ac8d79c92c4.html#a990a701158b38ca612092ac8d79c92c4" target="_top" xlink:title="org.cobbzilla.util.jdbc.\lTypedResultSetBean.readField">
<polygon fill="none" stroke="#000000" points="215,-.5 215,-30.5 367,-30.5 367,-.5 215,-.5"/>
<text text-anchor="start" x="223" y="-18.5" font-family="Helvetica,sans-Serif" font-size="10.00" fill="#000000">org.cobbzilla.util.jdbc.</text>
<text text-anchor="middle" x="291" y="-7.5" font-family="Helvetica,sans-Serif" font-size="10.00" fill="#000000">TypedResultSetBean.readField</text>
</a>
</g>
</g>
<!-- Node0&#45;&gt;Node1 -->
<g id="edge1" class="edge">
<title>Node0&#45;&gt;Node1</title>
<path fill="none" stroke="#191970" d="M179.0543,-15.5C187.573,-15.5 196.1999,-15.5 204.6871,-15.5"/>
<polygon fill="#191970" stroke="#191970" points="204.9539,-19.0001 214.9539,-15.5 204.9538,-12.0001 204.9539,-19.0001"/>
</g>
<!-- Node2 -->
<g id="node3" class="node">
<title>Node2</title>
<g id="a_node3"><a xlink:href="../../de/d45/classorg_1_1cobbzilla_1_1util_1_1reflect_1_1ReflectionUtil_af1f90dab8ddbc70b2248d649e823cf0c.html#af1f90dab8ddbc70b2248d649e823cf0c" target="_top" xlink:title="Call a setter. ">
<polygon fill="none" stroke="#000000" points="403,-.5 403,-30.5 523,-30.5 523,-.5 403,-.5"/>
<text text-anchor="start" x="411" y="-18.5" font-family="Helvetica,sans-Serif" font-size="10.00" fill="#000000">org.cobbzilla.util.reflect.</text>
<text text-anchor="middle" x="463" y="-7.5" font-family="Helvetica,sans-Serif" font-size="10.00" fill="#000000">ReflectionUtil.set</text>
</a>
</g>
</g>
<!-- Node1&#45;&gt;Node2 -->
<g id="edge2" class="edge">
<title>Node1&#45;&gt;Node2</title>
<path fill="none" stroke="#191970" d="M367.1928,-15.5C375.6893,-15.5 384.315,-15.5 392.7327,-15.5"/>
<polygon fill="#191970" stroke="#191970" points="392.8744,-19.0001 402.8744,-15.5 392.8743,-12.0001 392.8744,-19.0001"/>
</g>
</g>
</svg>
