<?xml version="1.0" encoding="UTF-8" standalone="no"?>
<!DOCTYPE svg PUBLIC "-//W3C//DTD SVG 1.1//EN"
 "http://www.w3.org/Graphics/SVG/1.1/DTD/svg11.dtd">
<!-- Generated by graphviz version 2.40.1 (20161225.0304)
 -->
<!-- Title: org.cobbzilla.util.jdbc.TypedResultSetBean.iterator Pages: 1 -->
<svg width="345pt" height="57pt"
 viewBox="0.00 0.00 345.00 57.00" xmlns="http://www.w3.org/2000/svg" xmlns:xlink="http://www.w3.org/1999/xlink">
<g id="graph0" class="graph" transform="scale(1 1) rotate(0) translate(4 53)">
<title>org.cobbzilla.util.jdbc.TypedResultSetBean.iterator</title>
<!-- Node4 -->
<g id="node1" class="node">
<title>Node4</title>
<polygon fill="#bfbfbf" stroke="#000000" points="0,-.5 0,-30.5 143,-30.5 143,-.5 0,-.5"/>
<text text-anchor="start" x="8" y="-18.5" font-family="Helvetica,sans-Serif" font-size="10.00" fill="#000000">org.cobbzilla.util.jdbc.</text>
<text text-anchor="middle" x="71.5" y="-7.5" font-family="Helvetica,sans-Serif" font-size="10.00" fill="#000000">TypedResultSetBean.iterator</text>
</g>
<!-- Node4&#45;&gt;Node4 -->
<g id="edge2" class="edge">
<title>Node4&#45;&gt;Node4</title>
<path fill="none" stroke="#191970" d="M38.45,-40.9579C42.552,-45.679 53.5687,-49 71.5,-49 100.9258,-49 111.7306,-40.0566 103.9143,-30.659"/>
<polygon fill="#191970" stroke="#191970" points="41.9629,-40.8556 39.0857,-30.659 34.9762,-40.4244 41.9629,-40.8556"/>
</g>
<!-- Node5 -->
<g id="node2" class="node">
<title>Node5</title>
<g id="a_node2"><a xlink:href="../../d1/dbd/classorg_1_1cobbzilla_1_1util_1_1jdbc_1_1TypedResultSetBean_a6bcf01577ec28a217e155b9db08e1b02.html#a6bcf01577ec28a217e155b9db08e1b02" target="_top" xlink:title="org.cobbzilla.util.jdbc.\lTypedResultSetBean.firstObject">
<polygon fill="none" stroke="#000000" points="179,-.5 179,-30.5 337,-30.5 337,-.5 179,-.5"/>
<text text-anchor="start" x="187" y="-18.5" font-family="Helvetica,sans-Serif" font-size="10.00" fill="#000000">org.cobbzilla.util.jdbc.</text>
<text text-anchor="middle" x="258" y="-7.5" font-family="Helvetica,sans-Serif" font-size="10.00" fill="#000000">TypedResultSetBean.firstObject</text>
</a>
</g>
</g>
<!-- Node4&#45;&gt;Node5 -->
<g id="edge1" class="edge">
<title>Node4&#45;&gt;Node5</title>
<path fill="none" stroke="#191970" d="M153.3293,-15.5C161.8059,-15.5 170.4102,-15.5 178.8565,-15.5"/>
<polygon fill="#191970" stroke="#191970" points="153.0724,-12.0001 143.0724,-15.5 153.0724,-19.0001 153.0724,-12.0001"/>
</g>
</g>
</svg>
