<?xml version="1.0" encoding="UTF-8" standalone="no"?>
<!DOCTYPE svg PUBLIC "-//W3C//DTD SVG 1.1//EN"
 "http://www.w3.org/Graphics/SVG/1.1/DTD/svg11.dtd">
<!-- Generated by graphviz version 2.40.1 (20161225.0304)
 -->
<!-- Title: org.cobbzilla.util.jdbc.TypedResultSetBean.getTypedRows Pages: 1 -->
<svg width="560pt" height="57pt"
 viewBox="0.00 0.00 560.00 57.00" xmlns="http://www.w3.org/2000/svg" xmlns:xlink="http://www.w3.org/1999/xlink">
<g id="graph0" class="graph" transform="scale(1 1) rotate(0) translate(4 53)">
<title>org.cobbzilla.util.jdbc.TypedResultSetBean.getTypedRows</title>
<!-- Node3 -->
<g id="node1" class="node">
<title>Node3</title>
<polygon fill="#bfbfbf" stroke="#000000" points="0,-.5 0,-30.5 179,-30.5 179,-.5 0,-.5"/>
<text text-anchor="start" x="8" y="-18.5" font-family="Helvetica,sans-Serif" font-size="10.00" fill="#000000">org.cobbzilla.util.jdbc.</text>
<text text-anchor="middle" x="89.5" y="-7.5" font-family="Helvetica,sans-Serif" font-size="10.00" fill="#000000">TypedResultSetBean.getTypedRows</text>
</g>
<!-- Node4 -->
<g id="node2" class="node">
<title>Node4</title>
<g id="a_node2"><a xlink:href="../../d1/dbd/classorg_1_1cobbzilla_1_1util_1_1jdbc_1_1TypedResultSetBean_af510c3c82174c0abde278b4ffb81097e.html#af510c3c82174c0abde278b4ffb81097e" target="_top" xlink:title="org.cobbzilla.util.jdbc.\lTypedResultSetBean.iterator">
<polygon fill="none" stroke="#000000" points="215,-.5 215,-30.5 358,-30.5 358,-.5 215,-.5"/>
<text text-anchor="start" x="223" y="-18.5" font-family="Helvetica,sans-Serif" font-size="10.00" fill="#000000">org.cobbzilla.util.jdbc.</text>
<text text-anchor="middle" x="286.5" y="-7.5" font-family="Helvetica,sans-Serif" font-size="10.00" fill="#000000">TypedResultSetBean.iterator</text>
</a>
</g>
</g>
<!-- Node3&#45;&gt;Node4 -->
<g id="edge1" class="edge">
<title>Node3&#45;&gt;Node4</title>
<path fill="none" stroke="#191970" d="M189.2111,-15.5C197.8627,-15.5 206.5018,-15.5 214.8615,-15.5"/>
<polygon fill="#191970" stroke="#191970" points="189.0652,-12.0001 179.0651,-15.5 189.0651,-19.0001 189.0652,-12.0001"/>
</g>
<!-- Node4&#45;&gt;Node4 -->
<g id="edge3" class="edge">
<title>Node4&#45;&gt;Node4</title>
<path fill="none" stroke="#191970" d="M253.45,-40.9579C257.552,-45.679 268.5687,-49 286.5,-49 315.9258,-49 326.7306,-40.0566 318.9143,-30.659"/>
<polygon fill="#191970" stroke="#191970" points="256.9629,-40.8556 254.0857,-30.659 249.9762,-40.4244 256.9629,-40.8556"/>
</g>
<!-- Node5 -->
<g id="node3" class="node">
<title>Node5</title>
<g id="a_node3"><a xlink:href="../../d1/dbd/classorg_1_1cobbzilla_1_1util_1_1jdbc_1_1TypedResultSetBean_a6bcf01577ec28a217e155b9db08e1b02.html#a6bcf01577ec28a217e155b9db08e1b02" target="_top" xlink:title="org.cobbzilla.util.jdbc.\lTypedResultSetBean.firstObject">
<polygon fill="none" stroke="#000000" points="394,-.5 394,-30.5 552,-30.5 552,-.5 394,-.5"/>
<text text-anchor="start" x="402" y="-18.5" font-family="Helvetica,sans-Serif" font-size="10.00" fill="#000000">org.cobbzilla.util.jdbc.</text>
<text text-anchor="middle" x="473" y="-7.5" font-family="Helvetica,sans-Serif" font-size="10.00" fill="#000000">TypedResultSetBean.firstObject</text>
</a>
</g>
</g>
<!-- Node4&#45;&gt;Node5 -->
<g id="edge2" class="edge">
<title>Node4&#45;&gt;Node5</title>
<path fill="none" stroke="#191970" d="M368.3293,-15.5C376.8059,-15.5 385.4102,-15.5 393.8565,-15.5"/>
<polygon fill="#191970" stroke="#191970" points="368.0724,-12.0001 358.0724,-15.5 368.0724,-19.0001 368.0724,-12.0001"/>
</g>
</g>
</svg>
