<?xml version="1.0" encoding="UTF-8" standalone="no"?>
<!DOCTYPE svg PUBLIC "-//W3C//DTD SVG 1.1//EN"
 "http://www.w3.org/Graphics/SVG/1.1/DTD/svg11.dtd">
<!-- Generated by graphviz version 2.40.1 (20161225.0304)
 -->
<!-- Title: org.cobbzilla.util.jdbc.TypedResultSetBean.firstObject Pages: 1 -->
<svg width="904pt" height="57pt"
 viewBox="0.00 0.00 904.00 57.00" xmlns="http://www.w3.org/2000/svg" xmlns:xlink="http://www.w3.org/1999/xlink">
<g id="graph0" class="graph" transform="scale(1 1) rotate(0) translate(4 53)">
<title>org.cobbzilla.util.jdbc.TypedResultSetBean.firstObject</title>
<!-- Node0 -->
<g id="node1" class="node">
<title>Node0</title>
<polygon fill="#bfbfbf" stroke="#000000" points="0,-.5 0,-30.5 158,-30.5 158,-.5 0,-.5"/>
<text text-anchor="start" x="8" y="-18.5" font-family="Helvetica,sans-Serif" font-size="10.00" fill="#000000">org.cobbzilla.util.jdbc.</text>
<text text-anchor="middle" x="79" y="-7.5" font-family="Helvetica,sans-Serif" font-size="10.00" fill="#000000">TypedResultSetBean.firstObject</text>
</g>
<!-- Node1 -->
<g id="node2" class="node">
<title>Node1</title>
<g id="a_node2"><a xlink:href="../../d1/dbd/classorg_1_1cobbzilla_1_1util_1_1jdbc_1_1TypedResultSetBean_af510c3c82174c0abde278b4ffb81097e.html#af510c3c82174c0abde278b4ffb81097e" target="_top" xlink:title="org.cobbzilla.util.jdbc.\lTypedResultSetBean.iterator">
<polygon fill="none" stroke="#000000" points="194,-.5 194,-30.5 337,-30.5 337,-.5 194,-.5"/>
<text text-anchor="start" x="202" y="-18.5" font-family="Helvetica,sans-Serif" font-size="10.00" fill="#000000">org.cobbzilla.util.jdbc.</text>
<text text-anchor="middle" x="265.5" y="-7.5" font-family="Helvetica,sans-Serif" font-size="10.00" fill="#000000">TypedResultSetBean.iterator</text>
</a>
</g>
</g>
<!-- Node0&#45;&gt;Node1 -->
<g id="edge1" class="edge">
<title>Node0&#45;&gt;Node1</title>
<path fill="none" stroke="#191970" d="M158.0928,-15.5C166.6556,-15.5 175.3814,-15.5 183.9723,-15.5"/>
<polygon fill="#191970" stroke="#191970" points="183.9776,-19.0001 193.9776,-15.5 183.9775,-12.0001 183.9776,-19.0001"/>
</g>
<!-- Node1&#45;&gt;Node1 -->
<g id="edge5" class="edge">
<title>Node1&#45;&gt;Node1</title>
<path fill="none" stroke="#191970" d="M233.0857,-30.659C225.2694,-40.0566 236.0742,-49 265.5,-49 283.4313,-49 294.448,-45.679 298.55,-40.9579"/>
<polygon fill="#191970" stroke="#191970" points="302.0238,-40.4244 297.9143,-30.659 295.0371,-40.8556 302.0238,-40.4244"/>
</g>
<!-- Node2 -->
<g id="node3" class="node">
<title>Node2</title>
<g id="a_node3"><a xlink:href="../../d1/dbd/classorg_1_1cobbzilla_1_1util_1_1jdbc_1_1TypedResultSetBean_a5e2ba8fb1e9e9c5764c5b3c1c9afb8bc.html#a5e2ba8fb1e9e9c5764c5b3c1c9afb8bc" target="_top" xlink:title="org.cobbzilla.util.jdbc.\lTypedResultSetBean.getTypedRows">
<polygon fill="none" stroke="#000000" points="373,-.5 373,-30.5 552,-30.5 552,-.5 373,-.5"/>
<text text-anchor="start" x="381" y="-18.5" font-family="Helvetica,sans-Serif" font-size="10.00" fill="#000000">org.cobbzilla.util.jdbc.</text>
<text text-anchor="middle" x="462.5" y="-7.5" font-family="Helvetica,sans-Serif" font-size="10.00" fill="#000000">TypedResultSetBean.getTypedRows</text>
</a>
</g>
</g>
<!-- Node1&#45;&gt;Node2 -->
<g id="edge2" class="edge">
<title>Node1&#45;&gt;Node2</title>
<path fill="none" stroke="#191970" d="M337.1788,-15.5C345.4814,-15.5 354.0592,-15.5 362.6508,-15.5"/>
<polygon fill="#191970" stroke="#191970" points="362.7271,-19.0001 372.7271,-15.5 362.727,-12.0001 362.7271,-19.0001"/>
</g>
<!-- Node3 -->
<g id="node4" class="node">
<title>Node3</title>
<g id="a_node4"><a xlink:href="../../d1/dbd/classorg_1_1cobbzilla_1_1util_1_1jdbc_1_1TypedResultSetBean_a990a701158b38ca612092ac8d79c92c4.html#a990a701158b38ca612092ac8d79c92c4" target="_top" xlink:title="org.cobbzilla.util.jdbc.\lTypedResultSetBean.readField">
<polygon fill="none" stroke="#000000" points="588,-.5 588,-30.5 740,-30.5 740,-.5 588,-.5"/>
<text text-anchor="start" x="596" y="-18.5" font-family="Helvetica,sans-Serif" font-size="10.00" fill="#000000">org.cobbzilla.util.jdbc.</text>
<text text-anchor="middle" x="664" y="-7.5" font-family="Helvetica,sans-Serif" font-size="10.00" fill="#000000">TypedResultSetBean.readField</text>
</a>
</g>
</g>
<!-- Node2&#45;&gt;Node3 -->
<g id="edge3" class="edge">
<title>Node2&#45;&gt;Node3</title>
<path fill="none" stroke="#191970" d="M552.0543,-15.5C560.573,-15.5 569.1999,-15.5 577.6871,-15.5"/>
<polygon fill="#191970" stroke="#191970" points="577.9539,-19.0001 587.9539,-15.5 577.9538,-12.0001 577.9539,-19.0001"/>
</g>
<!-- Node4 -->
<g id="node5" class="node">
<title>Node4</title>
<g id="a_node5"><a xlink:href="../../de/d45/classorg_1_1cobbzilla_1_1util_1_1reflect_1_1ReflectionUtil_af1f90dab8ddbc70b2248d649e823cf0c.html#af1f90dab8ddbc70b2248d649e823cf0c" target="_top" xlink:title="Call a setter. ">
<polygon fill="none" stroke="#000000" points="776,-.5 776,-30.5 896,-30.5 896,-.5 776,-.5"/>
<text text-anchor="start" x="784" y="-18.5" font-family="Helvetica,sans-Serif" font-size="10.00" fill="#000000">org.cobbzilla.util.reflect.</text>
<text text-anchor="middle" x="836" y="-7.5" font-family="Helvetica,sans-Serif" font-size="10.00" fill="#000000">ReflectionUtil.set</text>
</a>
</g>
</g>
<!-- Node3&#45;&gt;Node4 -->
<g id="edge4" class="edge">
<title>Node3&#45;&gt;Node4</title>
<path fill="none" stroke="#191970" d="M740.1928,-15.5C748.6893,-15.5 757.315,-15.5 765.7327,-15.5"/>
<polygon fill="#191970" stroke="#191970" points="765.8744,-19.0001 775.8744,-15.5 765.8743,-12.0001 765.8744,-19.0001"/>
</g>
</g>
</svg>
