<?xml version="1.0" encoding="UTF-8" standalone="no"?>
<!DOCTYPE svg PUBLIC "-//W3C//DTD SVG 1.1//EN"
 "http://www.w3.org/Graphics/SVG/1.1/DTD/svg11.dtd">
<!-- Generated by graphviz version 2.40.1 (20161225.0304)
 -->
<!-- Title: org.cobbzilla.util.io.UniqueFileFsWalker Pages: 1 -->
<svg width="157pt" height="193pt"
 viewBox="0.00 0.00 157.00 193.00" xmlns="http://www.w3.org/2000/svg" xmlns:xlink="http://www.w3.org/1999/xlink">
<g id="graph0" class="graph" transform="scale(1 1) rotate(0) translate(4 189)">
<title>org.cobbzilla.util.io.UniqueFileFsWalker</title>
<!-- Node0 -->
<g id="node1" class="node">
<title>Node0</title>
<polygon fill="#bfbfbf" stroke="#000000" points="9,-.5 9,-79.5 140,-79.5 140,-.5 9,-.5"/>
<text text-anchor="start" x="17" y="-67.5" font-family="Helvetica,sans-Serif" font-size="10.00" fill="#000000">org.cobbzilla.util.io.Unique</text>
<text text-anchor="middle" x="74.5" y="-56.5" font-family="Helvetica,sans-Serif" font-size="10.00" fill="#000000">FileFsWalker</text>
<polyline fill="none" stroke="#000000" points="9,-49.5 140,-49.5 "/>
<text text-anchor="start" x="17" y="-37.5" font-family="Helvetica,sans-Serif" font-size="10.00" fill="#000000">&#45; hash</text>
<polyline fill="none" stroke="#000000" points="9,-30.5 140,-30.5 "/>
<text text-anchor="start" x="17" y="-18.5" font-family="Helvetica,sans-Serif" font-size="10.00" fill="#000000">+ UniqueFileFsWalker()</text>
<text text-anchor="start" x="17" y="-7.5" font-family="Helvetica,sans-Serif" font-size="10.00" fill="#000000">+ visit()</text>
</g>
<!-- Node1 -->
<g id="node2" class="node">
<title>Node1</title>
<g id="a_node2"><a xlink:href="../../d4/d04/interfaceorg_1_1cobbzilla_1_1util_1_1io_1_1FilesystemVisitor.html" target="_top" xlink:title="{org.cobbzilla.util.io.Filesystem\lVisitor\n||+ visit()\l}">
<polygon fill="none" stroke="#000000" points="0,-116.5 0,-184.5 149,-184.5 149,-116.5 0,-116.5"/>
<text text-anchor="start" x="8" y="-172.5" font-family="Helvetica,sans-Serif" font-size="10.00" fill="#000000">org.cobbzilla.util.io.Filesystem</text>
<text text-anchor="middle" x="74.5" y="-161.5" font-family="Helvetica,sans-Serif" font-size="10.00" fill="#000000">Visitor</text>
<polyline fill="none" stroke="#000000" points="0,-154.5 149,-154.5 "/>
<text text-anchor="middle" x="74.5" y="-142.5" font-family="Helvetica,sans-Serif" font-size="10.00" fill="#000000"> </text>
<polyline fill="none" stroke="#000000" points="0,-135.5 149,-135.5 "/>
<text text-anchor="start" x="8" y="-123.5" font-family="Helvetica,sans-Serif" font-size="10.00" fill="#000000">+ visit()</text>
</a>
</g>
</g>
<!-- Node1&#45;&gt;Node0 -->
<g id="edge1" class="edge">
<title>Node1&#45;&gt;Node0</title>
<path fill="none" stroke="#191970" d="M74.5,-106.3044C74.5,-97.4634 74.5,-88.2287 74.5,-79.5566"/>
<polygon fill="none" stroke="#191970" points="71.0001,-106.4447 74.5,-116.4447 78.0001,-106.4447 71.0001,-106.4447"/>
</g>
</g>
</svg>
