<?xml version="1.0" encoding="UTF-8" standalone="no"?>
<!DOCTYPE svg PUBLIC "-//W3C//DTD SVG 1.1//EN"
 "http://www.w3.org/Graphics/SVG/1.1/DTD/svg11.dtd">
<!-- Generated by graphviz version 2.40.1 (20161225.0304)
 -->
<!-- Title: org.cobbzilla.util.xml.XPathUtil.applyXPaths Pages: 1 -->
<svg width="660pt" height="186pt"
 viewBox="0.00 0.00 660.00 186.00" xmlns="http://www.w3.org/2000/svg" xmlns:xlink="http://www.w3.org/1999/xlink">
<g id="graph0" class="graph" transform="scale(1 1) rotate(0) translate(4 182)">
<title>org.cobbzilla.util.xml.XPathUtil.applyXPaths</title>
<!-- Node1 -->
<g id="node1" class="node">
<title>Node1</title>
<polygon fill="#bfbfbf" stroke="#000000" points="0,-73.5 0,-103.5 136,-103.5 136,-73.5 0,-73.5"/>
<text text-anchor="start" x="8" y="-91.5" font-family="Helvetica,sans-Serif" font-size="10.00" fill="#000000">org.cobbzilla.util.xml.XPath</text>
<text text-anchor="middle" x="68" y="-80.5" font-family="Helvetica,sans-Serif" font-size="10.00" fill="#000000">Util.applyXPaths</text>
</g>
<!-- Node2 -->
<g id="node2" class="node">
<title>Node2</title>
<g id="a_node2"><a xlink:href="../../dd/d36/classorg_1_1cobbzilla_1_1util_1_1xml_1_1XPathUtil_a800926e2c928e5fbc8a65de1441d8cba.html#a800926e2c928e5fbc8a65de1441d8cba" target="_top" xlink:title="org.cobbzilla.util.xml.XPath\lUtil.applyXPaths">
<polygon fill="none" stroke="#000000" points="172,-147.5 172,-177.5 308,-177.5 308,-147.5 172,-147.5"/>
<text text-anchor="start" x="180" y="-165.5" font-family="Helvetica,sans-Serif" font-size="10.00" fill="#000000">org.cobbzilla.util.xml.XPath</text>
<text text-anchor="middle" x="240" y="-154.5" font-family="Helvetica,sans-Serif" font-size="10.00" fill="#000000">Util.applyXPaths</text>
</a>
</g>
</g>
<!-- Node1&#45;&gt;Node2 -->
<g id="edge1" class="edge">
<title>Node1&#45;&gt;Node2</title>
<path fill="none" stroke="#191970" d="M106.338,-108.1646C125.7805,-117.82 149.8999,-129.3194 172,-138.5 179.3993,-141.5737 187.349,-144.6106 195.1113,-147.4369"/>
<polygon fill="#191970" stroke="#191970" points="107.7077,-104.9363 97.1986,-103.5911 104.5751,-111.1962 107.7077,-104.9363"/>
</g>
<!-- Node3 -->
<g id="node3" class="node">
<title>Node3</title>
<g id="a_node3"><a xlink:href="../../dd/d36/classorg_1_1cobbzilla_1_1util_1_1xml_1_1XPathUtil_a007e5e25caa693a3ffa7b23b5f56643a.html#a007e5e25caa693a3ffa7b23b5f56643a" target="_top" xlink:title="org.cobbzilla.util.xml.XPath\lUtil.getFirstMatchList">
<polygon fill="none" stroke="#000000" points="172,-98.5 172,-128.5 308,-128.5 308,-98.5 172,-98.5"/>
<text text-anchor="start" x="180" y="-116.5" font-family="Helvetica,sans-Serif" font-size="10.00" fill="#000000">org.cobbzilla.util.xml.XPath</text>
<text text-anchor="middle" x="240" y="-105.5" font-family="Helvetica,sans-Serif" font-size="10.00" fill="#000000">Util.getFirstMatchList</text>
</a>
</g>
</g>
<!-- Node1&#45;&gt;Node3 -->
<g id="edge2" class="edge">
<title>Node1&#45;&gt;Node3</title>
<path fill="none" stroke="#191970" d="M146.6369,-99.9298C155.0254,-101.149 163.5081,-102.382 171.7624,-103.5817"/>
<polygon fill="#191970" stroke="#191970" points="146.8726,-96.4273 136.4732,-98.4525 145.8657,-103.3546 146.8726,-96.4273"/>
</g>
<!-- Node6 -->
<g id="node6" class="node">
<title>Node6</title>
<g id="a_node6"><a xlink:href="../../dd/d36/classorg_1_1cobbzilla_1_1util_1_1xml_1_1XPathUtil_a528fd830b0a378b4eb6ecd678ef7082a.html#a528fd830b0a378b4eb6ecd678ef7082a" target="_top" xlink:title="org.cobbzilla.util.xml.XPath\lUtil.getFirstMatchMap">
<polygon fill="none" stroke="#000000" points="172,-49.5 172,-79.5 308,-79.5 308,-49.5 172,-49.5"/>
<text text-anchor="start" x="180" y="-67.5" font-family="Helvetica,sans-Serif" font-size="10.00" fill="#000000">org.cobbzilla.util.xml.XPath</text>
<text text-anchor="middle" x="240" y="-56.5" font-family="Helvetica,sans-Serif" font-size="10.00" fill="#000000">Util.getFirstMatchMap</text>
</a>
</g>
</g>
<!-- Node1&#45;&gt;Node6 -->
<g id="edge5" class="edge">
<title>Node1&#45;&gt;Node6</title>
<path fill="none" stroke="#191970" d="M146.6369,-77.5274C155.0254,-76.3569 163.5081,-75.1733 171.7624,-74.0215"/>
<polygon fill="#191970" stroke="#191970" points="145.8935,-74.0971 136.4732,-78.9456 146.8609,-81.03 145.8935,-74.0971"/>
</g>
<!-- Node7 -->
<g id="node7" class="node">
<title>Node7</title>
<g id="a_node7"><a xlink:href="../../d5/d65/classorg_1_1cobbzilla_1_1util_1_1xml_1_1main_1_1XPath_a0a6a15e822ad06d0a3ef18d8c8d2b2f8.html#a0a6a15e822ad06d0a3ef18d8c8d2b2f8" target="_top" xlink:title="org.cobbzilla.util.xml.main.\lXPath.main">
<polygon fill="none" stroke="#000000" points="173.5,-.5 173.5,-30.5 306.5,-30.5 306.5,-.5 173.5,-.5"/>
<text text-anchor="start" x="181.5" y="-18.5" font-family="Helvetica,sans-Serif" font-size="10.00" fill="#000000">org.cobbzilla.util.xml.main.</text>
<text text-anchor="middle" x="240" y="-7.5" font-family="Helvetica,sans-Serif" font-size="10.00" fill="#000000">XPath.main</text>
</a>
</g>
</g>
<!-- Node1&#45;&gt;Node7 -->
<g id="edge6" class="edge">
<title>Node1&#45;&gt;Node7</title>
<path fill="none" stroke="#191970" d="M108.1594,-69.0523C127.3272,-60.0056 150.6824,-49.3215 172,-40.5 180.1356,-37.1334 188.9063,-33.7387 197.3565,-30.5829"/>
<polygon fill="#191970" stroke="#191970" points="106.6462,-65.8962 99.1134,-73.3465 109.6482,-72.2199 106.6462,-65.8962"/>
</g>
<!-- Node4 -->
<g id="node4" class="node">
<title>Node4</title>
<g id="a_node4"><a xlink:href="../../dd/d36/classorg_1_1cobbzilla_1_1util_1_1xml_1_1XPathUtil_aa383fbd117e1851b87e98e30e02a6936.html#aa383fbd117e1851b87e98e30e02a6936" target="_top" xlink:title="org.cobbzilla.util.xml.XPath\lUtil.getFirstMatch">
<polygon fill="none" stroke="#000000" points="344,-98.5 344,-128.5 480,-128.5 480,-98.5 344,-98.5"/>
<text text-anchor="start" x="352" y="-116.5" font-family="Helvetica,sans-Serif" font-size="10.00" fill="#000000">org.cobbzilla.util.xml.XPath</text>
<text text-anchor="middle" x="412" y="-105.5" font-family="Helvetica,sans-Serif" font-size="10.00" fill="#000000">Util.getFirstMatch</text>
</a>
</g>
</g>
<!-- Node3&#45;&gt;Node4 -->
<g id="edge3" class="edge">
<title>Node3&#45;&gt;Node4</title>
<path fill="none" stroke="#191970" d="M318.6369,-113.5C327.0254,-113.5 335.5081,-113.5 343.7624,-113.5"/>
<polygon fill="#191970" stroke="#191970" points="318.4732,-110.0001 308.4732,-113.5 318.4731,-117.0001 318.4732,-110.0001"/>
</g>
<!-- Node5 -->
<g id="node5" class="node">
<title>Node5</title>
<g id="a_node5"><a xlink:href="../../dd/d36/classorg_1_1cobbzilla_1_1util_1_1xml_1_1XPathUtil_aabe7a39f5eb2e65014b99cc65e31caff.html#aabe7a39f5eb2e65014b99cc65e31caff" target="_top" xlink:title="org.cobbzilla.util.xml.XPath\lUtil.getFirstMatchText">
<polygon fill="none" stroke="#000000" points="516,-98.5 516,-128.5 652,-128.5 652,-98.5 516,-98.5"/>
<text text-anchor="start" x="524" y="-116.5" font-family="Helvetica,sans-Serif" font-size="10.00" fill="#000000">org.cobbzilla.util.xml.XPath</text>
<text text-anchor="middle" x="584" y="-105.5" font-family="Helvetica,sans-Serif" font-size="10.00" fill="#000000">Util.getFirstMatchText</text>
</a>
</g>
</g>
<!-- Node4&#45;&gt;Node5 -->
<g id="edge4" class="edge">
<title>Node4&#45;&gt;Node5</title>
<path fill="none" stroke="#191970" d="M490.6369,-113.5C499.0254,-113.5 507.5081,-113.5 515.7624,-113.5"/>
<polygon fill="#191970" stroke="#191970" points="490.4732,-110.0001 480.4732,-113.5 490.4731,-117.0001 490.4732,-110.0001"/>
</g>
</g>
</svg>
