<?xml version="1.0" encoding="UTF-8" standalone="no"?>
<!DOCTYPE svg PUBLIC "-//W3C//DTD SVG 1.1//EN"
 "http://www.w3.org/Graphics/SVG/1.1/DTD/svg11.dtd">
<!-- Generated by graphviz version 2.40.1 (20161225.0304)
 -->
<!-- Title: org.cobbzilla.util.xml.XPathUtil.getDocument Pages: 1 -->
<svg width="316pt" height="88pt"
 viewBox="0.00 0.00 316.00 88.00" xmlns="http://www.w3.org/2000/svg" xmlns:xlink="http://www.w3.org/1999/xlink">
<g id="graph0" class="graph" transform="scale(1 1) rotate(0) translate(4 84)">
<title>org.cobbzilla.util.xml.XPathUtil.getDocument</title>
<!-- Node1 -->
<g id="node1" class="node">
<title>Node1</title>
<polygon fill="#bfbfbf" stroke="#000000" points="0,-24.5 0,-54.5 136,-54.5 136,-24.5 0,-24.5"/>
<text text-anchor="start" x="8" y="-42.5" font-family="Helvetica,sans-Serif" font-size="10.00" fill="#000000">org.cobbzilla.util.xml.XPath</text>
<text text-anchor="middle" x="68" y="-31.5" font-family="Helvetica,sans-Serif" font-size="10.00" fill="#000000">Util.getDocument</text>
</g>
<!-- Node2 -->
<g id="node2" class="node">
<title>Node2</title>
<g id="a_node2"><a xlink:href="../../dd/d36/classorg_1_1cobbzilla_1_1util_1_1xml_1_1XPathUtil_a800926e2c928e5fbc8a65de1441d8cba.html#a800926e2c928e5fbc8a65de1441d8cba" target="_top" xlink:title="org.cobbzilla.util.xml.XPath\lUtil.applyXPaths">
<polygon fill="none" stroke="#000000" points="172,-49.5 172,-79.5 308,-79.5 308,-49.5 172,-49.5"/>
<text text-anchor="start" x="180" y="-67.5" font-family="Helvetica,sans-Serif" font-size="10.00" fill="#000000">org.cobbzilla.util.xml.XPath</text>
<text text-anchor="middle" x="240" y="-56.5" font-family="Helvetica,sans-Serif" font-size="10.00" fill="#000000">Util.applyXPaths</text>
</a>
</g>
</g>
<!-- Node1&#45;&gt;Node2 -->
<g id="edge1" class="edge">
<title>Node1&#45;&gt;Node2</title>
<path fill="none" stroke="#191970" d="M146.6369,-50.9298C155.0254,-52.149 163.5081,-53.382 171.7624,-54.5817"/>
<polygon fill="#191970" stroke="#191970" points="146.8726,-47.4273 136.4732,-49.4525 145.8657,-54.3546 146.8726,-47.4273"/>
</g>
<!-- Node3 -->
<g id="node3" class="node">
<title>Node3</title>
<g id="a_node3"><a xlink:href="../../dd/d36/classorg_1_1cobbzilla_1_1util_1_1xml_1_1XPathUtil_a1fd8f0b638eb162502c9ccb7e71e204d.html#a1fd8f0b638eb162502c9ccb7e71e204d" target="_top" xlink:title="org.cobbzilla.util.xml.XPath\lUtil.getStrings">
<polygon fill="none" stroke="#000000" points="172,-.5 172,-30.5 308,-30.5 308,-.5 172,-.5"/>
<text text-anchor="start" x="180" y="-18.5" font-family="Helvetica,sans-Serif" font-size="10.00" fill="#000000">org.cobbzilla.util.xml.XPath</text>
<text text-anchor="middle" x="240" y="-7.5" font-family="Helvetica,sans-Serif" font-size="10.00" fill="#000000">Util.getStrings</text>
</a>
</g>
</g>
<!-- Node1&#45;&gt;Node3 -->
<g id="edge2" class="edge">
<title>Node1&#45;&gt;Node3</title>
<path fill="none" stroke="#191970" d="M146.6369,-28.5274C155.0254,-27.3569 163.5081,-26.1733 171.7624,-25.0215"/>
<polygon fill="#191970" stroke="#191970" points="145.8935,-25.0971 136.4732,-29.9456 146.8609,-32.03 145.8935,-25.0971"/>
</g>
</g>
</svg>
