<?xml version="1.0" encoding="UTF-8" standalone="no"?>
<!DOCTYPE svg PUBLIC "-//W3C//DTD SVG 1.1//EN"
 "http://www.w3.org/Graphics/SVG/1.1/DTD/svg11.dtd">
<!-- Generated by graphviz version 2.40.1 (20161225.0304)
 -->
<!-- Title: org.cobbzilla.util.security.bcrypt.BCrypt.streamtoword Pages: 1 -->
<!--zoomable 88 -->
<svg id="main" version="1.1" xmlns="http://www.w3.org/2000/svg" xmlns:xlink="http://www.w3.org/1999/xlink" xml:space="preserve" onload="init(evt)">
<style type="text/css"><![CDATA[
.edge:hover path { stroke: red; }
.edge:hover polygon { stroke: red; fill: red; }
]]></style>
<script type="text/javascript"><![CDATA[
var edges = document.getElementsByTagName('g');
if (edges && edges.length) {
  for (var i=0;i<edges.length;i++) {
    if (edges[i].id.substr(0,4)=='edge') {
      edges[i].setAttribute('class','edge');
    }
  }
}
]]></script>
        <defs>
                <circle id="rim" cx="0" cy="0" r="7"/>
                <circle id="rim2" cx="0" cy="0" r="3.5"/>
                <g id="zoomPlus">
                        <use xlink:href="#rim" fill="#404040">
                                <set attributeName="fill" to="#808080" begin="zoomplus.mouseover" end="zoomplus.mouseout"/>
                        </use>
                        <path d="M-4,0h8M0,-4v8" fill="none" stroke="white" stroke-width="1.5" pointer-events="none"/>
                </g>
                <g id="zoomMin">
                        <use xlink:href="#rim" fill="#404040">
                                <set attributeName="fill" to="#808080" begin="zoomminus.mouseover" end="zoomminus.mouseout"/>
                        </use>
                        <path d="M-4,0h8" fill="none" stroke="white" stroke-width="1.5" pointer-events="none"/>
                </g>
                <g id="dirArrow">
                        <path fill="none" stroke="white" stroke-width="1.5" d="M0,-3.0v7 M-2.5,-0.5L0,-3.0L2.5,-0.5"/>
                </g>
               <g id="resetDef">
                       <use xlink:href="#rim2" fill="#404040">
                               <set attributeName="fill" to="#808080" begin="reset.mouseover" end="reset.mouseout"/>
                       </use>
               </g>
        </defs>

<script type="text/javascript">
var viewWidth = 1136;
var viewHeight = 88;
var sectionId = 'dynsection-0';
</script>
<script xlink:href="../../svgpan.js"/>
<svg id="graph" class="graph">
<g id="viewport">
<title>org.cobbzilla.util.security.bcrypt.BCrypt.streamtoword</title>
<!-- Node1 -->
<g id="node1" class="node">
<title>Node1</title>
<polygon fill="#bfbfbf" stroke="#000000" points="0,-24.5 0,-54.5 158,-54.5 158,-24.5 0,-24.5"/>
<text text-anchor="start" x="8" y="-42.5" font-family="Helvetica,sans-Serif" font-size="10.00" fill="#000000">org.cobbzilla.util.security.bcrypt.</text>
<text text-anchor="middle" x="79" y="-31.5" font-family="Helvetica,sans-Serif" font-size="10.00" fill="#000000">BCrypt.streamtoword</text>
</g>
<!-- Node2 -->
<g id="node2" class="node">
<title>Node2</title>
<g id="a_node2"><a xlink:href="../../d9/db7/classorg_1_1cobbzilla_1_1util_1_1security_1_1bcrypt_1_1BCrypt_abe00a97f10b618ea0cd68c5dbb8e9d00.html#abe00a97f10b618ea0cd68c5dbb8e9d00" target="_top" xlink:title="Perform the &quot;enhanced key schedule&quot; step described by Provos and Mazieres in &quot;A Future&#45;Adaptable Pass...">
<polygon fill="none" stroke="#000000" points="194,-49.5 194,-79.5 352,-79.5 352,-49.5 194,-49.5"/>
<text text-anchor="start" x="202" y="-67.5" font-family="Helvetica,sans-Serif" font-size="10.00" fill="#000000">org.cobbzilla.util.security.bcrypt.</text>
<text text-anchor="middle" x="273" y="-56.5" font-family="Helvetica,sans-Serif" font-size="10.00" fill="#000000">BCrypt.ekskey</text>
</a>
</g>
</g>
<!-- Node1&#45;&gt;Node2 -->
<g id="edge1" class="edge">
<title>Node1&#45;&gt;Node2</title>
<path fill="none" stroke="#191970" d="M168.1574,-50.9894C176.6963,-52.0897 185.3167,-53.2006 193.7517,-54.2876"/>
<polygon fill="#191970" stroke="#191970" points="168.5524,-47.5114 158.187,-49.7045 167.6577,-54.454 168.5524,-47.5114"/>
</g>
<!-- Node8 -->
<g id="node8" class="node">
<title>Node8</title>
<g id="a_node8"><a xlink:href="../../d9/db7/classorg_1_1cobbzilla_1_1util_1_1security_1_1bcrypt_1_1BCrypt_a8ebb0a8bc8d36e78a9e0d8c955dd3ec0.html#a8ebb0a8bc8d36e78a9e0d8c955dd3ec0" target="_top" xlink:title="Key the Blowfish cipher. ">
<polygon fill="none" stroke="#000000" points="194,-.5 194,-30.5 352,-30.5 352,-.5 194,-.5"/>
<text text-anchor="start" x="202" y="-18.5" font-family="Helvetica,sans-Serif" font-size="10.00" fill="#000000">org.cobbzilla.util.security.bcrypt.</text>
<text text-anchor="middle" x="273" y="-7.5" font-family="Helvetica,sans-Serif" font-size="10.00" fill="#000000">BCrypt.key</text>
</a>
</g>
</g>
<!-- Node1&#45;&gt;Node8 -->
<g id="edge7" class="edge">
<title>Node1&#45;&gt;Node8</title>
<path fill="none" stroke="#191970" d="M168.1574,-28.4702C176.6963,-27.4139 185.3167,-26.3474 193.7517,-25.3039"/>
<polygon fill="#191970" stroke="#191970" points="167.6816,-25.0023 158.187,-29.7037 168.5411,-31.9493 167.6816,-25.0023"/>
</g>
<!-- Node3 -->
<g id="node3" class="node">
<title>Node3</title>
<g id="a_node3"><a xlink:href="../../d9/db7/classorg_1_1cobbzilla_1_1util_1_1security_1_1bcrypt_1_1BCrypt_a6085fce4e137e5fd132f8574ebb12418.html#a6085fce4e137e5fd132f8574ebb12418" target="_top" xlink:title="Perform the central password hashing step in the bcrypt scheme. ">
<polygon fill="none" stroke="#000000" points="388,-24.5 388,-54.5 546,-54.5 546,-24.5 388,-24.5"/>
<text text-anchor="start" x="396" y="-42.5" font-family="Helvetica,sans-Serif" font-size="10.00" fill="#000000">org.cobbzilla.util.security.bcrypt.</text>
<text text-anchor="middle" x="467" y="-31.5" font-family="Helvetica,sans-Serif" font-size="10.00" fill="#000000">BCrypt.crypt_raw</text>
</a>
</g>
</g>
<!-- Node2&#45;&gt;Node3 -->
<g id="edge2" class="edge">
<title>Node2&#45;&gt;Node3</title>
<path fill="none" stroke="#191970" d="M362.1574,-53.0106C370.6963,-51.9103 379.3167,-50.7994 387.7517,-49.7124"/>
<polygon fill="#191970" stroke="#191970" points="361.6577,-49.546 352.187,-54.2955 362.5524,-56.4886 361.6577,-49.546"/>
</g>
<!-- Node4 -->
<g id="node4" class="node">
<title>Node4</title>
<g id="a_node4"><a xlink:href="../../d9/db7/classorg_1_1cobbzilla_1_1util_1_1security_1_1bcrypt_1_1BCrypt_ac8243963914ea2d7141d648c9b9431b5.html#ac8243963914ea2d7141d648c9b9431b5" target="_top" xlink:title="Hash a password using the OpenBSD bcrypt scheme. ">
<polygon fill="none" stroke="#000000" points="582,-24.5 582,-54.5 740,-54.5 740,-24.5 582,-24.5"/>
<text text-anchor="start" x="590" y="-42.5" font-family="Helvetica,sans-Serif" font-size="10.00" fill="#000000">org.cobbzilla.util.security.bcrypt.</text>
<text text-anchor="middle" x="661" y="-31.5" font-family="Helvetica,sans-Serif" font-size="10.00" fill="#000000">BCrypt.hashpw</text>
</a>
</g>
</g>
<!-- Node3&#45;&gt;Node4 -->
<g id="edge3" class="edge">
<title>Node3&#45;&gt;Node4</title>
<path fill="none" stroke="#191970" d="M556.4359,-39.5C564.8837,-39.5 573.4084,-39.5 581.7517,-39.5"/>
<polygon fill="#191970" stroke="#191970" points="556.1871,-36.0001 546.187,-39.5 556.187,-43.0001 556.1871,-36.0001"/>
</g>
<!-- Node5 -->
<g id="node5" class="node">
<title>Node5</title>
<g id="a_node5"><a xlink:href="../../d9/db7/classorg_1_1cobbzilla_1_1util_1_1security_1_1bcrypt_1_1BCrypt_a3f22d13c1977d22d82c532fdf48a3aef.html#a3f22d13c1977d22d82c532fdf48a3aef" target="_top" xlink:title="Check that a plaintext password matches a previously hashed one. ">
<polygon fill="none" stroke="#000000" points="776,-49.5 776,-79.5 934,-79.5 934,-49.5 776,-49.5"/>
<text text-anchor="start" x="784" y="-67.5" font-family="Helvetica,sans-Serif" font-size="10.00" fill="#000000">org.cobbzilla.util.security.bcrypt.</text>
<text text-anchor="middle" x="855" y="-56.5" font-family="Helvetica,sans-Serif" font-size="10.00" fill="#000000">BCrypt.checkpw</text>
</a>
</g>
</g>
<!-- Node4&#45;&gt;Node5 -->
<g id="edge4" class="edge">
<title>Node4&#45;&gt;Node5</title>
<path fill="none" stroke="#191970" d="M750.1574,-50.9894C758.6963,-52.0897 767.3167,-53.2006 775.7517,-54.2876"/>
<polygon fill="#191970" stroke="#191970" points="750.5524,-47.5114 740.187,-49.7045 749.6577,-54.454 750.5524,-47.5114"/>
</g>
<!-- Node6 -->
<g id="node6" class="node">
<title>Node6</title>
<g id="a_node6"><a xlink:href="../../d3/d0c/classorg_1_1cobbzilla_1_1util_1_1security_1_1bcrypt_1_1BCryptUtil_abd3383887214e2a289636cd17af4092d.html#abd3383887214e2a289636cd17af4092d" target="_top" xlink:title="org.cobbzilla.util.security.bcrypt.\lBCryptUtil.hash">
<polygon fill="none" stroke="#000000" points="776,-.5 776,-30.5 934,-30.5 934,-.5 776,-.5"/>
<text text-anchor="start" x="784" y="-18.5" font-family="Helvetica,sans-Serif" font-size="10.00" fill="#000000">org.cobbzilla.util.security.bcrypt.</text>
<text text-anchor="middle" x="855" y="-7.5" font-family="Helvetica,sans-Serif" font-size="10.00" fill="#000000">BCryptUtil.hash</text>
</a>
</g>
</g>
<!-- Node4&#45;&gt;Node6 -->
<g id="edge5" class="edge">
<title>Node4&#45;&gt;Node6</title>
<path fill="none" stroke="#191970" d="M750.1574,-28.4702C758.6963,-27.4139 767.3167,-26.3474 775.7517,-25.3039"/>
<polygon fill="#191970" stroke="#191970" points="749.6816,-25.0023 740.187,-29.7037 750.5411,-31.9493 749.6816,-25.0023"/>
</g>
<!-- Node7 -->
<g id="node7" class="node">
<title>Node7</title>
<g id="a_node7"><a xlink:href="../../d3/d0c/classorg_1_1cobbzilla_1_1util_1_1security_1_1bcrypt_1_1BCryptUtil_a18b3b25ba3500e1318057b91a180fb7b.html#a18b3b25ba3500e1318057b91a180fb7b" target="_top" xlink:title="org.cobbzilla.util.security.bcrypt.\lBCryptUtil.main">
<polygon fill="none" stroke="#000000" points="970,-.5 970,-30.5 1128,-30.5 1128,-.5 970,-.5"/>
<text text-anchor="start" x="978" y="-18.5" font-family="Helvetica,sans-Serif" font-size="10.00" fill="#000000">org.cobbzilla.util.security.bcrypt.</text>
<text text-anchor="middle" x="1049" y="-7.5" font-family="Helvetica,sans-Serif" font-size="10.00" fill="#000000">BCryptUtil.main</text>
</a>
</g>
</g>
<!-- Node6&#45;&gt;Node7 -->
<g id="edge6" class="edge">
<title>Node6&#45;&gt;Node7</title>
<path fill="none" stroke="#191970" d="M944.4359,-15.5C952.8837,-15.5 961.4084,-15.5 969.7517,-15.5"/>
<polygon fill="#191970" stroke="#191970" points="944.1871,-12.0001 934.187,-15.5 944.187,-19.0001 944.1871,-12.0001"/>
</g>
<!-- Node8&#45;&gt;Node3 -->
<g id="edge8" class="edge">
<title>Node8&#45;&gt;Node3</title>
<path fill="none" stroke="#191970" d="M362.1574,-26.5298C370.6963,-27.5861 379.3167,-28.6526 387.7517,-29.6961"/>
<polygon fill="#191970" stroke="#191970" points="362.5411,-23.0507 352.187,-25.2963 361.6816,-29.9977 362.5411,-23.0507"/>
</g>
</g>
</svg>
        <g id="navigator" transform="translate(0 0)" fill="#404254">
                <rect fill="#f2f5e9" fill-opacity="0.5" stroke="#606060" stroke-width=".5" x="0" y="0" width="60" height="60"/>
                <use id="zoomplus" xlink:href="#zoomPlus" x="17" y="9" onmousedown="handleZoom(evt,'in')"/>
                <use id="zoomminus" xlink:href="#zoomMin" x="42" y="9" onmousedown="handleZoom(evt,'out')"/>
                <use id="reset" xlink:href="#resetDef" x="30" y="36" onmousedown="handleReset()"/>
                <g id="arrowUp" xlink:href="#dirArrow" transform="translate(30 24)" onmousedown="handlePan(0,-1)">
                  <use xlink:href="#rim" fill="#404040">
                        <set attributeName="fill" to="#808080" begin="arrowUp.mouseover" end="arrowUp.mouseout"/>
                  </use>
                  <path fill="none" stroke="white" stroke-width="1.5" d="M0,-3.0v7 M-2.5,-0.5L0,-3.0L2.5,-0.5"/>
                </g>
                <g id="arrowRight" xlink:href="#dirArrow" transform="rotate(90) translate(36 -43)" onmousedown="handlePan(1,0)">
                  <use xlink:href="#rim" fill="#404040">
                        <set attributeName="fill" to="#808080" begin="arrowRight.mouseover" end="arrowRight.mouseout"/>
                  </use>
                  <path fill="none" stroke="white" stroke-width="1.5" d="M0,-3.0v7 M-2.5,-0.5L0,-3.0L2.5,-0.5"/>
                </g>
                <g id="arrowDown" xlink:href="#dirArrow" transform="rotate(180) translate(-30 -48)" onmousedown="handlePan(0,1)">
                  <use xlink:href="#rim" fill="#404040">
                        <set attributeName="fill" to="#808080" begin="arrowDown.mouseover" end="arrowDown.mouseout"/>
                  </use>
                  <path fill="none" stroke="white" stroke-width="1.5" d="M0,-3.0v7 M-2.5,-0.5L0,-3.0L2.5,-0.5"/>
                </g>
                <g id="arrowLeft" xlink:href="#dirArrow" transform="rotate(270) translate(-36 17)" onmousedown="handlePan(-1,0)">
                  <use xlink:href="#rim" fill="#404040">
                        <set attributeName="fill" to="#808080" begin="arrowLeft.mouseover" end="arrowLeft.mouseout"/>
                  </use>
                  <path fill="none" stroke="white" stroke-width="1.5" d="M0,-3.0v7 M-2.5,-0.5L0,-3.0L2.5,-0.5"/>
                </g>
        </g>
        <svg viewBox="0 0 15 15" width="100%" height="30px" preserveAspectRatio="xMaxYMin meet">
         <g id="arrow_out" transform="scale(0.3 0.3)">
          <a xlink:href="classorg_1_1cobbzilla_1_1util_1_1security_1_1bcrypt_1_1BCrypt_a4006dd6eb953c3636fff5d818987ce99_a4006dd6eb953c3636fff5d818987ce99_icgraph_org.svg" target="_base">
           <rect id="button" ry="5" rx="5" y="6" x="6" height="38" width="38"
                fill="#f2f5e9" fill-opacity="0.5" stroke="#606060" stroke-width="1.0"/>
           <path id="arrow"
             d="M 11.500037,31.436501 C 11.940474,20.09759 22.043105,11.32322 32.158766,21.979434 L 37.068811,17.246167 C 37.068811,17.246167 37.088388,32 37.088388,32 L 22.160133,31.978069 C 22.160133,31.978069 26.997745,27.140456 26.997745,27.140456 C 18.528582,18.264221 13.291696,25.230495 11.500037,31.436501 z"
             style="fill:#404040;"/>
          </a>
         </g>
        </svg>
</svg>
