<?xml version="1.0" encoding="UTF-8" standalone="no"?>
<!DOCTYPE svg PUBLIC "-//W3C//DTD SVG 1.1//EN"
 "http://www.w3.org/Graphics/SVG/1.1/DTD/svg11.dtd">
<!-- Generated by graphviz version 2.40.1 (20161225.0304)
 -->
<!-- Title: org.cobbzilla.util.security.bcrypt.BCrypt.hashpw Pages: 1 -->
<svg width="554pt" height="88pt"
 viewBox="0.00 0.00 554.00 88.00" xmlns="http://www.w3.org/2000/svg" xmlns:xlink="http://www.w3.org/1999/xlink">
<g id="graph0" class="graph" transform="scale(1 1) rotate(0) translate(4 84)">
<title>org.cobbzilla.util.security.bcrypt.BCrypt.hashpw</title>
<!-- Node10 -->
<g id="node1" class="node">
<title>Node10</title>
<polygon fill="#bfbfbf" stroke="#000000" points="0,-24.5 0,-54.5 158,-54.5 158,-24.5 0,-24.5"/>
<text text-anchor="start" x="8" y="-42.5" font-family="Helvetica,sans-Serif" font-size="10.00" fill="#000000">org.cobbzilla.util.security.bcrypt.</text>
<text text-anchor="middle" x="79" y="-31.5" font-family="Helvetica,sans-Serif" font-size="10.00" fill="#000000">BCrypt.hashpw</text>
</g>
<!-- Node11 -->
<g id="node2" class="node">
<title>Node11</title>
<g id="a_node2"><a xlink:href="../../d9/db7/classorg_1_1cobbzilla_1_1util_1_1security_1_1bcrypt_1_1BCrypt_a3f22d13c1977d22d82c532fdf48a3aef.html#a3f22d13c1977d22d82c532fdf48a3aef" target="_top" xlink:title="Check that a plaintext password matches a previously hashed one. ">
<polygon fill="none" stroke="#000000" points="194,-49.5 194,-79.5 352,-79.5 352,-49.5 194,-49.5"/>
<text text-anchor="start" x="202" y="-67.5" font-family="Helvetica,sans-Serif" font-size="10.00" fill="#000000">org.cobbzilla.util.security.bcrypt.</text>
<text text-anchor="middle" x="273" y="-56.5" font-family="Helvetica,sans-Serif" font-size="10.00" fill="#000000">BCrypt.checkpw</text>
</a>
</g>
</g>
<!-- Node10&#45;&gt;Node11 -->
<g id="edge1" class="edge">
<title>Node10&#45;&gt;Node11</title>
<path fill="none" stroke="#191970" d="M168.1574,-50.9894C176.6963,-52.0897 185.3167,-53.2006 193.7517,-54.2876"/>
<polygon fill="#191970" stroke="#191970" points="168.5524,-47.5114 158.187,-49.7045 167.6577,-54.454 168.5524,-47.5114"/>
</g>
<!-- Node12 -->
<g id="node3" class="node">
<title>Node12</title>
<g id="a_node3"><a xlink:href="../../d3/d0c/classorg_1_1cobbzilla_1_1util_1_1security_1_1bcrypt_1_1BCryptUtil_abd3383887214e2a289636cd17af4092d.html#abd3383887214e2a289636cd17af4092d" target="_top" xlink:title="org.cobbzilla.util.security.bcrypt.\lBCryptUtil.hash">
<polygon fill="none" stroke="#000000" points="194,-.5 194,-30.5 352,-30.5 352,-.5 194,-.5"/>
<text text-anchor="start" x="202" y="-18.5" font-family="Helvetica,sans-Serif" font-size="10.00" fill="#000000">org.cobbzilla.util.security.bcrypt.</text>
<text text-anchor="middle" x="273" y="-7.5" font-family="Helvetica,sans-Serif" font-size="10.00" fill="#000000">BCryptUtil.hash</text>
</a>
</g>
</g>
<!-- Node10&#45;&gt;Node12 -->
<g id="edge2" class="edge">
<title>Node10&#45;&gt;Node12</title>
<path fill="none" stroke="#191970" d="M168.1574,-28.4702C176.6963,-27.4139 185.3167,-26.3474 193.7517,-25.3039"/>
<polygon fill="#191970" stroke="#191970" points="167.6816,-25.0023 158.187,-29.7037 168.5411,-31.9493 167.6816,-25.0023"/>
</g>
<!-- Node13 -->
<g id="node4" class="node">
<title>Node13</title>
<g id="a_node4"><a xlink:href="../../d3/d0c/classorg_1_1cobbzilla_1_1util_1_1security_1_1bcrypt_1_1BCryptUtil_a18b3b25ba3500e1318057b91a180fb7b.html#a18b3b25ba3500e1318057b91a180fb7b" target="_top" xlink:title="org.cobbzilla.util.security.bcrypt.\lBCryptUtil.main">
<polygon fill="none" stroke="#000000" points="388,-.5 388,-30.5 546,-30.5 546,-.5 388,-.5"/>
<text text-anchor="start" x="396" y="-18.5" font-family="Helvetica,sans-Serif" font-size="10.00" fill="#000000">org.cobbzilla.util.security.bcrypt.</text>
<text text-anchor="middle" x="467" y="-7.5" font-family="Helvetica,sans-Serif" font-size="10.00" fill="#000000">BCryptUtil.main</text>
</a>
</g>
</g>
<!-- Node12&#45;&gt;Node13 -->
<g id="edge3" class="edge">
<title>Node12&#45;&gt;Node13</title>
<path fill="none" stroke="#191970" d="M362.4359,-15.5C370.8837,-15.5 379.4084,-15.5 387.7517,-15.5"/>
<polygon fill="#191970" stroke="#191970" points="362.1871,-12.0001 352.187,-15.5 362.187,-19.0001 362.1871,-12.0001"/>
</g>
</g>
</svg>
