<?xml version="1.0" encoding="UTF-8" standalone="no"?>
<!DOCTYPE svg PUBLIC "-//W3C//DTD SVG 1.1//EN"
 "http://www.w3.org/Graphics/SVG/1.1/DTD/svg11.dtd">
<!-- Generated by graphviz version 2.40.1 (20161225.0304)
 -->
<!-- Title: org.cobbzilla.util.security.bcrypt.BCrypt.init_key Pages: 1 -->
<svg width="942pt" height="88pt"
 viewBox="0.00 0.00 942.00 88.00" xmlns="http://www.w3.org/2000/svg" xmlns:xlink="http://www.w3.org/1999/xlink">
<g id="graph0" class="graph" transform="scale(1 1) rotate(0) translate(4 84)">
<title>org.cobbzilla.util.security.bcrypt.BCrypt.init_key</title>
<!-- Node1 -->
<g id="node1" class="node">
<title>Node1</title>
<polygon fill="#bfbfbf" stroke="#000000" points="0,-24.5 0,-54.5 158,-54.5 158,-24.5 0,-24.5"/>
<text text-anchor="start" x="8" y="-42.5" font-family="Helvetica,sans-Serif" font-size="10.00" fill="#000000">org.cobbzilla.util.security.bcrypt.</text>
<text text-anchor="middle" x="79" y="-31.5" font-family="Helvetica,sans-Serif" font-size="10.00" fill="#000000">BCrypt.init_key</text>
</g>
<!-- Node2 -->
<g id="node2" class="node">
<title>Node2</title>
<g id="a_node2"><a xlink:href="../../d9/db7/classorg_1_1cobbzilla_1_1util_1_1security_1_1bcrypt_1_1BCrypt_a6085fce4e137e5fd132f8574ebb12418.html#a6085fce4e137e5fd132f8574ebb12418" target="_top" xlink:title="Perform the central password hashing step in the bcrypt scheme. ">
<polygon fill="none" stroke="#000000" points="194,-24.5 194,-54.5 352,-54.5 352,-24.5 194,-24.5"/>
<text text-anchor="start" x="202" y="-42.5" font-family="Helvetica,sans-Serif" font-size="10.00" fill="#000000">org.cobbzilla.util.security.bcrypt.</text>
<text text-anchor="middle" x="273" y="-31.5" font-family="Helvetica,sans-Serif" font-size="10.00" fill="#000000">BCrypt.crypt_raw</text>
</a>
</g>
</g>
<!-- Node1&#45;&gt;Node2 -->
<g id="edge1" class="edge">
<title>Node1&#45;&gt;Node2</title>
<path fill="none" stroke="#191970" d="M168.4359,-39.5C176.8837,-39.5 185.4084,-39.5 193.7517,-39.5"/>
<polygon fill="#191970" stroke="#191970" points="168.1871,-36.0001 158.187,-39.5 168.187,-43.0001 168.1871,-36.0001"/>
</g>
<!-- Node3 -->
<g id="node3" class="node">
<title>Node3</title>
<g id="a_node3"><a xlink:href="../../d9/db7/classorg_1_1cobbzilla_1_1util_1_1security_1_1bcrypt_1_1BCrypt_ac8243963914ea2d7141d648c9b9431b5.html#ac8243963914ea2d7141d648c9b9431b5" target="_top" xlink:title="Hash a password using the OpenBSD bcrypt scheme. ">
<polygon fill="none" stroke="#000000" points="388,-24.5 388,-54.5 546,-54.5 546,-24.5 388,-24.5"/>
<text text-anchor="start" x="396" y="-42.5" font-family="Helvetica,sans-Serif" font-size="10.00" fill="#000000">org.cobbzilla.util.security.bcrypt.</text>
<text text-anchor="middle" x="467" y="-31.5" font-family="Helvetica,sans-Serif" font-size="10.00" fill="#000000">BCrypt.hashpw</text>
</a>
</g>
</g>
<!-- Node2&#45;&gt;Node3 -->
<g id="edge2" class="edge">
<title>Node2&#45;&gt;Node3</title>
<path fill="none" stroke="#191970" d="M362.4359,-39.5C370.8837,-39.5 379.4084,-39.5 387.7517,-39.5"/>
<polygon fill="#191970" stroke="#191970" points="362.1871,-36.0001 352.187,-39.5 362.187,-43.0001 362.1871,-36.0001"/>
</g>
<!-- Node4 -->
<g id="node4" class="node">
<title>Node4</title>
<g id="a_node4"><a xlink:href="../../d9/db7/classorg_1_1cobbzilla_1_1util_1_1security_1_1bcrypt_1_1BCrypt_a3f22d13c1977d22d82c532fdf48a3aef.html#a3f22d13c1977d22d82c532fdf48a3aef" target="_top" xlink:title="Check that a plaintext password matches a previously hashed one. ">
<polygon fill="none" stroke="#000000" points="582,-49.5 582,-79.5 740,-79.5 740,-49.5 582,-49.5"/>
<text text-anchor="start" x="590" y="-67.5" font-family="Helvetica,sans-Serif" font-size="10.00" fill="#000000">org.cobbzilla.util.security.bcrypt.</text>
<text text-anchor="middle" x="661" y="-56.5" font-family="Helvetica,sans-Serif" font-size="10.00" fill="#000000">BCrypt.checkpw</text>
</a>
</g>
</g>
<!-- Node3&#45;&gt;Node4 -->
<g id="edge3" class="edge">
<title>Node3&#45;&gt;Node4</title>
<path fill="none" stroke="#191970" d="M556.1574,-50.9894C564.6963,-52.0897 573.3167,-53.2006 581.7517,-54.2876"/>
<polygon fill="#191970" stroke="#191970" points="556.5524,-47.5114 546.187,-49.7045 555.6577,-54.454 556.5524,-47.5114"/>
</g>
<!-- Node5 -->
<g id="node5" class="node">
<title>Node5</title>
<g id="a_node5"><a xlink:href="../../d3/d0c/classorg_1_1cobbzilla_1_1util_1_1security_1_1bcrypt_1_1BCryptUtil_abd3383887214e2a289636cd17af4092d.html#abd3383887214e2a289636cd17af4092d" target="_top" xlink:title="org.cobbzilla.util.security.bcrypt.\lBCryptUtil.hash">
<polygon fill="none" stroke="#000000" points="582,-.5 582,-30.5 740,-30.5 740,-.5 582,-.5"/>
<text text-anchor="start" x="590" y="-18.5" font-family="Helvetica,sans-Serif" font-size="10.00" fill="#000000">org.cobbzilla.util.security.bcrypt.</text>
<text text-anchor="middle" x="661" y="-7.5" font-family="Helvetica,sans-Serif" font-size="10.00" fill="#000000">BCryptUtil.hash</text>
</a>
</g>
</g>
<!-- Node3&#45;&gt;Node5 -->
<g id="edge4" class="edge">
<title>Node3&#45;&gt;Node5</title>
<path fill="none" stroke="#191970" d="M556.1574,-28.4702C564.6963,-27.4139 573.3167,-26.3474 581.7517,-25.3039"/>
<polygon fill="#191970" stroke="#191970" points="555.6816,-25.0023 546.187,-29.7037 556.5411,-31.9493 555.6816,-25.0023"/>
</g>
<!-- Node6 -->
<g id="node6" class="node">
<title>Node6</title>
<g id="a_node6"><a xlink:href="../../d3/d0c/classorg_1_1cobbzilla_1_1util_1_1security_1_1bcrypt_1_1BCryptUtil_a18b3b25ba3500e1318057b91a180fb7b.html#a18b3b25ba3500e1318057b91a180fb7b" target="_top" xlink:title="org.cobbzilla.util.security.bcrypt.\lBCryptUtil.main">
<polygon fill="none" stroke="#000000" points="776,-.5 776,-30.5 934,-30.5 934,-.5 776,-.5"/>
<text text-anchor="start" x="784" y="-18.5" font-family="Helvetica,sans-Serif" font-size="10.00" fill="#000000">org.cobbzilla.util.security.bcrypt.</text>
<text text-anchor="middle" x="855" y="-7.5" font-family="Helvetica,sans-Serif" font-size="10.00" fill="#000000">BCryptUtil.main</text>
</a>
</g>
</g>
<!-- Node5&#45;&gt;Node6 -->
<g id="edge5" class="edge">
<title>Node5&#45;&gt;Node6</title>
<path fill="none" stroke="#191970" d="M750.4359,-15.5C758.8837,-15.5 767.4084,-15.5 775.7517,-15.5"/>
<polygon fill="#191970" stroke="#191970" points="750.1871,-12.0001 740.187,-15.5 750.187,-19.0001 750.1871,-12.0001"/>
</g>
</g>
</svg>
