<?xml version="1.0" encoding="UTF-8" standalone="no"?>
<!DOCTYPE svg PUBLIC "-//W3C//DTD SVG 1.1//EN"
 "http://www.w3.org/Graphics/SVG/1.1/DTD/svg11.dtd">
<!-- Generated by graphviz version 2.40.1 (20161225.0304)
 -->
<!-- Title: org.cobbzilla.util.security.bcrypt.BCrypt.checkpw Pages: 1 -->
<svg width="942pt" height="232pt"
 viewBox="0.00 0.00 942.00 231.67" xmlns="http://www.w3.org/2000/svg" xmlns:xlink="http://www.w3.org/1999/xlink">
<g id="graph0" class="graph" transform="scale(1 1) rotate(0) translate(4 227.6685)">
<title>org.cobbzilla.util.security.bcrypt.BCrypt.checkpw</title>
<!-- Node0 -->
<g id="node1" class="node">
<title>Node0</title>
<polygon fill="#bfbfbf" stroke="#000000" points="0,-49.5 0,-79.5 158,-79.5 158,-49.5 0,-49.5"/>
<text text-anchor="start" x="8" y="-67.5" font-family="Helvetica,sans-Serif" font-size="10.00" fill="#000000">org.cobbzilla.util.security.bcrypt.</text>
<text text-anchor="middle" x="79" y="-56.5" font-family="Helvetica,sans-Serif" font-size="10.00" fill="#000000">BCrypt.checkpw</text>
</g>
<!-- Node1 -->
<g id="node2" class="node">
<title>Node1</title>
<g id="a_node2"><a xlink:href="../../d9/db7/classorg_1_1cobbzilla_1_1util_1_1security_1_1bcrypt_1_1BCrypt_ac8243963914ea2d7141d648c9b9431b5.html#ac8243963914ea2d7141d648c9b9431b5" target="_top" xlink:title="Hash a password using the OpenBSD bcrypt scheme. ">
<polygon fill="none" stroke="#000000" points="194,-49.5 194,-79.5 352,-79.5 352,-49.5 194,-49.5"/>
<text text-anchor="start" x="202" y="-67.5" font-family="Helvetica,sans-Serif" font-size="10.00" fill="#000000">org.cobbzilla.util.security.bcrypt.</text>
<text text-anchor="middle" x="273" y="-56.5" font-family="Helvetica,sans-Serif" font-size="10.00" fill="#000000">BCrypt.hashpw</text>
</a>
</g>
</g>
<!-- Node0&#45;&gt;Node1 -->
<g id="edge1" class="edge">
<title>Node0&#45;&gt;Node1</title>
<path fill="none" stroke="#191970" d="M158.187,-64.5C166.5295,-64.5 175.054,-64.5 183.5021,-64.5"/>
<polygon fill="#191970" stroke="#191970" points="183.7518,-68.0001 193.7517,-64.5 183.7517,-61.0001 183.7518,-68.0001"/>
</g>
<!-- Node2 -->
<g id="node3" class="node">
<title>Node2</title>
<g id="a_node3"><a xlink:href="../../d9/db7/classorg_1_1cobbzilla_1_1util_1_1security_1_1bcrypt_1_1BCrypt_a6085fce4e137e5fd132f8574ebb12418.html#a6085fce4e137e5fd132f8574ebb12418" target="_top" xlink:title="Perform the central password hashing step in the bcrypt scheme. ">
<polygon fill="none" stroke="#000000" points="388,-123.5 388,-153.5 546,-153.5 546,-123.5 388,-123.5"/>
<text text-anchor="start" x="396" y="-141.5" font-family="Helvetica,sans-Serif" font-size="10.00" fill="#000000">org.cobbzilla.util.security.bcrypt.</text>
<text text-anchor="middle" x="467" y="-130.5" font-family="Helvetica,sans-Serif" font-size="10.00" fill="#000000">BCrypt.crypt_raw</text>
</a>
</g>
</g>
<!-- Node1&#45;&gt;Node2 -->
<g id="edge2" class="edge">
<title>Node1&#45;&gt;Node2</title>
<path fill="none" stroke="#191970" d="M312.7269,-79.6536C343.298,-91.3147 385.6938,-107.4863 418.3069,-119.9264"/>
<polygon fill="#191970" stroke="#191970" points="417.0674,-123.1995 427.6581,-123.4933 419.5622,-116.6591 417.0674,-123.1995"/>
</g>
<!-- Node8 -->
<g id="node9" class="node">
<title>Node8</title>
<g id="a_node9"><a xlink:href="../../d9/db7/classorg_1_1cobbzilla_1_1util_1_1security_1_1bcrypt_1_1BCrypt_ae87809a1ce9c7483b50c133b5bab3b42.html#ae87809a1ce9c7483b50c133b5bab3b42" target="_top" xlink:title="Decode a string encoded using bcrypt&#39;s base64 scheme to a byte array. ">
<polygon fill="none" stroke="#000000" points="388,-49.5 388,-79.5 546,-79.5 546,-49.5 388,-49.5"/>
<text text-anchor="start" x="396" y="-67.5" font-family="Helvetica,sans-Serif" font-size="10.00" fill="#000000">org.cobbzilla.util.security.bcrypt.</text>
<text text-anchor="middle" x="467" y="-56.5" font-family="Helvetica,sans-Serif" font-size="10.00" fill="#000000">BCrypt.decode_base64</text>
</a>
</g>
</g>
<!-- Node1&#45;&gt;Node8 -->
<g id="edge11" class="edge">
<title>Node1&#45;&gt;Node8</title>
<path fill="none" stroke="#191970" d="M352.187,-64.5C360.5295,-64.5 369.054,-64.5 377.5021,-64.5"/>
<polygon fill="#191970" stroke="#191970" points="377.7518,-68.0001 387.7517,-64.5 377.7517,-61.0001 377.7518,-68.0001"/>
</g>
<!-- Node10 -->
<g id="node11" class="node">
<title>Node10</title>
<g id="a_node11"><a xlink:href="../../d9/db7/classorg_1_1cobbzilla_1_1util_1_1security_1_1bcrypt_1_1BCrypt_a599ca7bbbbe90c75a952cea21ecd2c72.html#a599ca7bbbbe90c75a952cea21ecd2c72" target="_top" xlink:title="Encode a byte array using bcrypt&#39;s slightly&#45;modified base64 encoding scheme. ">
<polygon fill="none" stroke="#000000" points="388,-.5 388,-30.5 546,-30.5 546,-.5 388,-.5"/>
<text text-anchor="start" x="396" y="-18.5" font-family="Helvetica,sans-Serif" font-size="10.00" fill="#000000">org.cobbzilla.util.security.bcrypt.</text>
<text text-anchor="middle" x="467" y="-7.5" font-family="Helvetica,sans-Serif" font-size="10.00" fill="#000000">BCrypt.encode_base64</text>
</a>
</g>
</g>
<!-- Node1&#45;&gt;Node10 -->
<g id="edge13" class="edge">
<title>Node1&#45;&gt;Node10</title>
<path fill="none" stroke="#191970" d="M332.5248,-49.4654C353.1016,-44.2682 376.3371,-38.3994 397.6336,-33.0204"/>
<polygon fill="#191970" stroke="#191970" points="398.7494,-36.3486 407.5878,-30.5062 397.0351,-29.5617 398.7494,-36.3486"/>
</g>
<!-- Node3 -->
<g id="node4" class="node">
<title>Node3</title>
<g id="a_node4"><a xlink:href="../../d9/db7/classorg_1_1cobbzilla_1_1util_1_1security_1_1bcrypt_1_1BCrypt_abe00a97f10b618ea0cd68c5dbb8e9d00.html#abe00a97f10b618ea0cd68c5dbb8e9d00" target="_top" xlink:title="Perform the &quot;enhanced key schedule&quot; step described by Provos and Mazieres in &quot;A Future&#45;Adaptable Pass...">
<polygon fill="none" stroke="#000000" points="582,-172.5 582,-202.5 740,-202.5 740,-172.5 582,-172.5"/>
<text text-anchor="start" x="590" y="-190.5" font-family="Helvetica,sans-Serif" font-size="10.00" fill="#000000">org.cobbzilla.util.security.bcrypt.</text>
<text text-anchor="middle" x="661" y="-179.5" font-family="Helvetica,sans-Serif" font-size="10.00" fill="#000000">BCrypt.ekskey</text>
</a>
</g>
</g>
<!-- Node2&#45;&gt;Node3 -->
<g id="edge3" class="edge">
<title>Node2&#45;&gt;Node3</title>
<path fill="none" stroke="#191970" d="M526.5248,-153.5346C547.1016,-158.7318 570.3371,-164.6006 591.6336,-169.9796"/>
<polygon fill="#191970" stroke="#191970" points="591.0351,-173.4383 601.5878,-172.4938 592.7494,-166.6514 591.0351,-173.4383"/>
</g>
<!-- Node4 -->
<g id="node5" class="node">
<title>Node4</title>
<g id="a_node5"><a xlink:href="../../d9/db7/classorg_1_1cobbzilla_1_1util_1_1security_1_1bcrypt_1_1BCrypt_aed58f4b8bc28d9969d417ad3d9e64e35.html#aed58f4b8bc28d9969d417ad3d9e64e35" target="_top" xlink:title="Blowfish encipher a single 64&#45;bit block encoded as two 32&#45;bit halves. ">
<polygon fill="none" stroke="#000000" points="776,-172.5 776,-202.5 934,-202.5 934,-172.5 776,-172.5"/>
<text text-anchor="start" x="784" y="-190.5" font-family="Helvetica,sans-Serif" font-size="10.00" fill="#000000">org.cobbzilla.util.security.bcrypt.</text>
<text text-anchor="middle" x="855" y="-179.5" font-family="Helvetica,sans-Serif" font-size="10.00" fill="#000000">BCrypt.encipher</text>
</a>
</g>
</g>
<!-- Node2&#45;&gt;Node4 -->
<g id="edge6" class="edge">
<title>Node2&#45;&gt;Node4</title>
<path fill="none" stroke="#191970" d="M483.7332,-153.7702C504.8236,-171.8796 543.0497,-201.0509 582,-212.5 653.937,-233.6452 740.7227,-219.2973 796.8381,-205.133"/>
<polygon fill="#191970" stroke="#191970" points="797.8082,-208.4972 806.6044,-202.5914 796.0452,-201.7229 797.8082,-208.4972"/>
</g>
<!-- Node6 -->
<g id="node7" class="node">
<title>Node6</title>
<g id="a_node7"><a xlink:href="../../d9/db7/classorg_1_1cobbzilla_1_1util_1_1security_1_1bcrypt_1_1BCrypt_a35d6f4fb0839e3cb090f71f51bda834b.html#a35d6f4fb0839e3cb090f71f51bda834b" target="_top" xlink:title="Initialise the Blowfish key schedule. ">
<polygon fill="none" stroke="#000000" points="582,-123.5 582,-153.5 740,-153.5 740,-123.5 582,-123.5"/>
<text text-anchor="start" x="590" y="-141.5" font-family="Helvetica,sans-Serif" font-size="10.00" fill="#000000">org.cobbzilla.util.security.bcrypt.</text>
<text text-anchor="middle" x="661" y="-130.5" font-family="Helvetica,sans-Serif" font-size="10.00" fill="#000000">BCrypt.init_key</text>
</a>
</g>
</g>
<!-- Node2&#45;&gt;Node6 -->
<g id="edge7" class="edge">
<title>Node2&#45;&gt;Node6</title>
<path fill="none" stroke="#191970" d="M546.187,-138.5C554.5295,-138.5 563.054,-138.5 571.5021,-138.5"/>
<polygon fill="#191970" stroke="#191970" points="571.7518,-142.0001 581.7517,-138.5 571.7517,-135.0001 571.7518,-142.0001"/>
</g>
<!-- Node7 -->
<g id="node8" class="node">
<title>Node7</title>
<g id="a_node8"><a xlink:href="../../d9/db7/classorg_1_1cobbzilla_1_1util_1_1security_1_1bcrypt_1_1BCrypt_a8ebb0a8bc8d36e78a9e0d8c955dd3ec0.html#a8ebb0a8bc8d36e78a9e0d8c955dd3ec0" target="_top" xlink:title="Key the Blowfish cipher. ">
<polygon fill="none" stroke="#000000" points="582,-74.5 582,-104.5 740,-104.5 740,-74.5 582,-74.5"/>
<text text-anchor="start" x="590" y="-92.5" font-family="Helvetica,sans-Serif" font-size="10.00" fill="#000000">org.cobbzilla.util.security.bcrypt.</text>
<text text-anchor="middle" x="661" y="-81.5" font-family="Helvetica,sans-Serif" font-size="10.00" fill="#000000">BCrypt.key</text>
</a>
</g>
</g>
<!-- Node2&#45;&gt;Node7 -->
<g id="edge8" class="edge">
<title>Node2&#45;&gt;Node7</title>
<path fill="none" stroke="#191970" d="M526.5248,-123.4654C547.1016,-118.2682 570.3371,-112.3994 591.6336,-107.0204"/>
<polygon fill="#191970" stroke="#191970" points="592.7494,-110.3486 601.5878,-104.5062 591.0351,-103.5617 592.7494,-110.3486"/>
</g>
<!-- Node3&#45;&gt;Node4 -->
<g id="edge4" class="edge">
<title>Node3&#45;&gt;Node4</title>
<path fill="none" stroke="#191970" d="M740.187,-187.5C748.5295,-187.5 757.054,-187.5 765.5021,-187.5"/>
<polygon fill="#191970" stroke="#191970" points="765.7518,-191.0001 775.7517,-187.5 765.7517,-184.0001 765.7518,-191.0001"/>
</g>
<!-- Node5 -->
<g id="node6" class="node">
<title>Node5</title>
<g id="a_node6"><a xlink:href="../../d9/db7/classorg_1_1cobbzilla_1_1util_1_1security_1_1bcrypt_1_1BCrypt_a4006dd6eb953c3636fff5d818987ce99.html#a4006dd6eb953c3636fff5d818987ce99" target="_top" xlink:title="Cycically extract a word of key material. ">
<polygon fill="none" stroke="#000000" points="776,-99.5 776,-129.5 934,-129.5 934,-99.5 776,-99.5"/>
<text text-anchor="start" x="784" y="-117.5" font-family="Helvetica,sans-Serif" font-size="10.00" fill="#000000">org.cobbzilla.util.security.bcrypt.</text>
<text text-anchor="middle" x="855" y="-106.5" font-family="Helvetica,sans-Serif" font-size="10.00" fill="#000000">BCrypt.streamtoword</text>
</a>
</g>
</g>
<!-- Node3&#45;&gt;Node5 -->
<g id="edge5" class="edge">
<title>Node3&#45;&gt;Node5</title>
<path fill="none" stroke="#191970" d="M713.5309,-172.4087C722.4194,-169.608 731.5134,-166.5869 740,-163.5 764.5168,-154.5822 791.3661,-143.2351 812.9515,-133.7065"/>
<polygon fill="#191970" stroke="#191970" points="814.4489,-136.8711 822.1638,-129.6095 811.6044,-130.4751 814.4489,-136.8711"/>
</g>
<!-- Node7&#45;&gt;Node4 -->
<g id="edge9" class="edge">
<title>Node7&#45;&gt;Node4</title>
<path fill="none" stroke="#191970" d="M716.2333,-104.628C724.3612,-107.5246 732.5116,-110.8203 740,-114.5 757.4829,-123.0909 759.6686,-128.882 776,-139.5 790.3482,-148.8286 806.4511,-158.7146 820.357,-167.0747"/>
<polygon fill="#191970" stroke="#191970" points="818.7588,-170.1971 829.1374,-172.327 822.3523,-164.1898 818.7588,-170.1971"/>
</g>
<!-- Node7&#45;&gt;Node5 -->
<g id="edge10" class="edge">
<title>Node7&#45;&gt;Node5</title>
<path fill="none" stroke="#191970" d="M740.187,-99.7045C748.6212,-100.7914 757.2413,-101.9022 765.7806,-103.0027"/>
<polygon fill="#191970" stroke="#191970" points="765.3864,-106.4807 775.7517,-104.2876 766.2811,-99.5381 765.3864,-106.4807"/>
</g>
<!-- Node9 -->
<g id="node10" class="node">
<title>Node9</title>
<g id="a_node10"><a xlink:href="../../d9/db7/classorg_1_1cobbzilla_1_1util_1_1security_1_1bcrypt_1_1BCrypt_aff2db1112971f3411b0baaf1243c1428.html#aff2db1112971f3411b0baaf1243c1428" target="_top" xlink:title="Look up the 3 bits base64&#45;encoded by the specified character, range&#45;checking againt conversion table...">
<polygon fill="none" stroke="#000000" points="582,-25.5 582,-55.5 740,-55.5 740,-25.5 582,-25.5"/>
<text text-anchor="start" x="590" y="-43.5" font-family="Helvetica,sans-Serif" font-size="10.00" fill="#000000">org.cobbzilla.util.security.bcrypt.</text>
<text text-anchor="middle" x="661" y="-32.5" font-family="Helvetica,sans-Serif" font-size="10.00" fill="#000000">BCrypt.char64</text>
</a>
</g>
</g>
<!-- Node8&#45;&gt;Node9 -->
<g id="edge12" class="edge">
<title>Node8&#45;&gt;Node9</title>
<path fill="none" stroke="#191970" d="M546.187,-54.7037C554.6212,-53.6603 563.2413,-52.5939 571.7806,-51.5375"/>
<polygon fill="#191970" stroke="#191970" points="572.2571,-55.0053 581.7517,-50.3039 571.3976,-48.0582 572.2571,-55.0053"/>
</g>
</g>
</svg>
