<?xml version="1.0" encoding="UTF-8" standalone="no"?>
<!DOCTYPE svg PUBLIC "-//W3C//DTD SVG 1.1//EN"
 "http://www.w3.org/Graphics/SVG/1.1/DTD/svg11.dtd">
<!-- Generated by graphviz version 2.40.1 (20161225.0304)
 -->
<!-- Title: org.cobbzilla.util.collection.NumberComparator Pages: 1 -->
<svg width="221pt" height="183pt"
 viewBox="0.00 0.00 221.00 183.00" xmlns="http://www.w3.org/2000/svg" xmlns:xlink="http://www.w3.org/1999/xlink">
<g id="graph0" class="graph" transform="scale(1 1) rotate(0) translate(4 179)">
<title>org.cobbzilla.util.collection.NumberComparator</title>
<!-- Node2 -->
<g id="node1" class="node">
<title>Node2</title>
<polygon fill="#bfbfbf" stroke="#000000" points="0,-.5 0,-68.5 134,-68.5 134,-.5 0,-.5"/>
<text text-anchor="start" x="8" y="-56.5" font-family="Helvetica,sans-Serif" font-size="10.00" fill="#000000">org.cobbzilla.util.collection.</text>
<text text-anchor="middle" x="67" y="-45.5" font-family="Helvetica,sans-Serif" font-size="10.00" fill="#000000">NumberComparator</text>
<polyline fill="none" stroke="#000000" points="0,-38.5 134,-38.5 "/>
<text text-anchor="middle" x="67" y="-26.5" font-family="Helvetica,sans-Serif" font-size="10.00" fill="#000000"> </text>
<polyline fill="none" stroke="#000000" points="0,-19.5 134,-19.5 "/>
<text text-anchor="start" x="8" y="-7.5" font-family="Helvetica,sans-Serif" font-size="10.00" fill="#000000">+ compare()</text>
</g>
<!-- Node2&#45;&gt;Node2 -->
<g id="edge2" class="edge">
<title>Node2&#45;&gt;Node2</title>
<path fill="none" stroke="#404040" d="M134.337,-43.4353C144.8397,-42.0995 152,-39.1211 152,-34.5 152,-31.9728 149.8586,-29.937 146.2001,-28.3923"/>
<polygon fill="none" stroke="#404040" points="146.01,-28.3471 139.246,-30.8469 134.337,-25.5647 141.101,-23.0649 146.01,-28.3471"/>
<text text-anchor="middle" x="182.5" y="-32" font-family="Helvetica,sans-Serif" font-size="10.00" fill="#000000"> +INSTANCE</text>
</g>
<!-- Node3 -->
<g id="node2" class="node">
<title>Node3</title>
<polygon fill="none" stroke="#bfbfbf" points="12,-106.5 12,-174.5 122,-174.5 122,-106.5 12,-106.5"/>
<text text-anchor="start" x="20" y="-162.5" font-family="Helvetica,sans-Serif" font-size="10.00" fill="#000000">java::util::Comparator</text>
<text text-anchor="middle" x="67" y="-151.5" font-family="Helvetica,sans-Serif" font-size="10.00" fill="#000000">&lt; Number &gt;</text>
<polyline fill="none" stroke="#bfbfbf" points="12,-144.5 122,-144.5 "/>
<text text-anchor="middle" x="67" y="-132.5" font-family="Helvetica,sans-Serif" font-size="10.00" fill="#000000"> </text>
<polyline fill="none" stroke="#bfbfbf" points="12,-125.5 122,-125.5 "/>
<text text-anchor="middle" x="67" y="-113.5" font-family="Helvetica,sans-Serif" font-size="10.00" fill="#000000"> </text>
</g>
<!-- Node3&#45;&gt;Node2 -->
<g id="edge1" class="edge">
<title>Node3&#45;&gt;Node2</title>
<path fill="none" stroke="#191970" d="M67,-96.1711C67,-86.9405 67,-77.3493 67,-68.5586"/>
<polygon fill="none" stroke="#191970" points="63.5001,-96.3774 67,-106.3775 70.5001,-96.3775 63.5001,-96.3774"/>
</g>
</g>
</svg>
