<?xml version="1.0" encoding="UTF-8" standalone="no"?>
<!DOCTYPE svg PUBLIC "-//W3C//DTD SVG 1.1//EN"
 "http://www.w3.org/Graphics/SVG/1.1/DTD/svg11.dtd">
<!-- Generated by graphviz version 2.40.1 (20161225.0304)
 -->
<!-- Title: org.cobbzilla.util.security.MD5Util.md5hex Pages: 1 -->
<svg width="339pt" height="88pt"
 viewBox="0.00 0.00 339.00 88.00" xmlns="http://www.w3.org/2000/svg" xmlns:xlink="http://www.w3.org/1999/xlink">
<g id="graph0" class="graph" transform="scale(1 1) rotate(0) translate(4 84)">
<title>org.cobbzilla.util.security.MD5Util.md5hex</title>
<!-- Node2 -->
<g id="node1" class="node">
<title>Node2</title>
<polygon fill="#bfbfbf" stroke="#000000" points="0,-24.5 0,-54.5 128,-54.5 128,-24.5 0,-24.5"/>
<text text-anchor="start" x="8" y="-42.5" font-family="Helvetica,sans-Serif" font-size="10.00" fill="#000000">org.cobbzilla.util.security.</text>
<text text-anchor="middle" x="64" y="-31.5" font-family="Helvetica,sans-Serif" font-size="10.00" fill="#000000">MD5Util.md5hex</text>
</g>
<!-- Node3 -->
<g id="node2" class="node">
<title>Node3</title>
<g id="a_node2"><a xlink:href="../../d9/d69/classorg_1_1cobbzilla_1_1util_1_1security_1_1MD5Util_a452a1f4e28ad03af1209d359b286395d.html#a452a1f4e28ad03af1209d359b286395d" target="_top" xlink:title="org.cobbzilla.util.security.\lMD5Util.md5hex">
<polygon fill="none" stroke="#000000" points="183.5,-49.5 183.5,-79.5 311.5,-79.5 311.5,-49.5 183.5,-49.5"/>
<text text-anchor="start" x="191.5" y="-67.5" font-family="Helvetica,sans-Serif" font-size="10.00" fill="#000000">org.cobbzilla.util.security.</text>
<text text-anchor="middle" x="247.5" y="-56.5" font-family="Helvetica,sans-Serif" font-size="10.00" fill="#000000">MD5Util.md5hex</text>
</a>
</g>
</g>
<!-- Node2&#45;&gt;Node3 -->
<g id="edge1" class="edge">
<title>Node2&#45;&gt;Node3</title>
<path fill="none" stroke="#191970" d="M138.3789,-49.6334C153.2875,-51.6645 168.8312,-53.7822 183.3568,-55.7612"/>
<polygon fill="#191970" stroke="#191970" points="138.5604,-46.1258 128.1794,-48.2438 137.6154,-53.0618 138.5604,-46.1258"/>
</g>
<!-- Node4 -->
<g id="node3" class="node">
<title>Node4</title>
<g id="a_node3"><a xlink:href="../../d5/d1a/classorg_1_1cobbzilla_1_1util_1_1security_1_1MD5Util_1_1MD5InputStream_a5a52c51257ba69e3336a358f7020f13e.html#a5a52c51257ba69e3336a358f7020f13e" target="_top" xlink:title="org.cobbzilla.util.security.\lMD5Util.MD5InputStream.md5hex">
<polygon fill="none" stroke="#000000" points="164,-.5 164,-30.5 331,-30.5 331,-.5 164,-.5"/>
<text text-anchor="start" x="172" y="-18.5" font-family="Helvetica,sans-Serif" font-size="10.00" fill="#000000">org.cobbzilla.util.security.</text>
<text text-anchor="middle" x="247.5" y="-7.5" font-family="Helvetica,sans-Serif" font-size="10.00" fill="#000000">MD5Util.MD5InputStream.md5hex</text>
</a>
</g>
</g>
<!-- Node2&#45;&gt;Node4 -->
<g id="edge2" class="edge">
<title>Node2&#45;&gt;Node4</title>
<path fill="none" stroke="#191970" d="M138.2671,-29.7866C146.6352,-28.6921 155.2048,-27.5713 163.6833,-26.4624"/>
<polygon fill="#191970" stroke="#191970" points="137.641,-26.3386 128.1794,-31.106 138.5489,-33.2795 137.641,-26.3386"/>
</g>
</g>
</svg>
