<?xml version="1.0" encoding="UTF-8" standalone="no"?>
<!DOCTYPE svg PUBLIC "-//W3C//DTD SVG 1.1//EN"
 "http://www.w3.org/Graphics/SVG/1.1/DTD/svg11.dtd">
<!-- Generated by graphviz version 2.40.1 (20161225.0304)
 -->
<!-- Title: org.cobbzilla.util.io.FilesystemWatcher.run Pages: 1 -->
<svg width="318pt" height="57pt"
 viewBox="0.00 0.00 318.00 57.00" xmlns="http://www.w3.org/2000/svg" xmlns:xlink="http://www.w3.org/1999/xlink">
<g id="graph0" class="graph" transform="scale(1 1) rotate(0) translate(4 53)">
<title>org.cobbzilla.util.io.FilesystemWatcher.run</title>
<!-- Node0 -->
<g id="node1" class="node">
<title>Node0</title>
<polygon fill="#bfbfbf" stroke="#000000" points="0,-.5 0,-30.5 149,-30.5 149,-.5 0,-.5"/>
<text text-anchor="start" x="8" y="-18.5" font-family="Helvetica,sans-Serif" font-size="10.00" fill="#000000">org.cobbzilla.util.io.Filesystem</text>
<text text-anchor="middle" x="74.5" y="-7.5" font-family="Helvetica,sans-Serif" font-size="10.00" fill="#000000">Watcher.run</text>
</g>
<!-- Node1 -->
<g id="node2" class="node">
<title>Node1</title>
<g id="a_node2"><a xlink:href="../../dd/d5e/classorg_1_1cobbzilla_1_1util_1_1system_1_1Sleep_a7a160ebe6f2659f9eb9d80d6554ca9a8.html#a7a160ebe6f2659f9eb9d80d6554ca9a8" target="_top" xlink:title="sleep for 100ms and throw an exception if interrupted ">
<polygon fill="none" stroke="#000000" points="185,-.5 185,-30.5 310,-30.5 310,-.5 185,-.5"/>
<text text-anchor="start" x="193" y="-18.5" font-family="Helvetica,sans-Serif" font-size="10.00" fill="#000000">org.cobbzilla.util.system.</text>
<text text-anchor="middle" x="247.5" y="-7.5" font-family="Helvetica,sans-Serif" font-size="10.00" fill="#000000">Sleep.sleep</text>
</a>
</g>
</g>
<!-- Node0&#45;&gt;Node1 -->
<g id="edge1" class="edge">
<title>Node0&#45;&gt;Node1</title>
<path fill="none" stroke="#191970" d="M149.1228,-15.5C157.5748,-15.5 166.1809,-15.5 174.6103,-15.5"/>
<polygon fill="#191970" stroke="#191970" points="174.7822,-19.0001 184.7822,-15.5 174.7821,-12.0001 174.7822,-19.0001"/>
</g>
<!-- Node1&#45;&gt;Node1 -->
<g id="edge2" class="edge">
<title>Node1&#45;&gt;Node1</title>
<path fill="none" stroke="#191970" d="M217.5255,-30.659C210.2975,-40.0566 220.2891,-49 247.5,-49 264.0817,-49 274.2691,-45.679 278.0623,-40.9579"/>
<polygon fill="#191970" stroke="#191970" points="281.5387,-40.4433 277.4745,-30.659 274.5501,-40.8422 281.5387,-40.4433"/>
</g>
</g>
</svg>
