<?xml version="1.0" encoding="UTF-8" standalone="no"?>
<!DOCTYPE svg PUBLIC "-//W3C//DTD SVG 1.1//EN"
 "http://www.w3.org/Graphics/SVG/1.1/DTD/svg11.dtd">
<!-- Generated by graphviz version 2.40.1 (20161225.0304)
 -->
<!-- Title: org.cobbzilla.util.io.main.UniqueFileWalkerMain.run Pages: 1 -->
<!--zoomable 274 -->
<svg id="main" version="1.1" xmlns="http://www.w3.org/2000/svg" xmlns:xlink="http://www.w3.org/1999/xlink" xml:space="preserve" onload="init(evt)">
<style type="text/css"><![CDATA[
.edge:hover path { stroke: red; }
.edge:hover polygon { stroke: red; fill: red; }
]]></style>
<script type="text/javascript"><![CDATA[
var edges = document.getElementsByTagName('g');
if (edges && edges.length) {
  for (var i=0;i<edges.length;i++) {
    if (edges[i].id.substr(0,4)=='edge') {
      edges[i].setAttribute('class','edge');
    }
  }
}
]]></script>
        <defs>
                <circle id="rim" cx="0" cy="0" r="7"/>
                <circle id="rim2" cx="0" cy="0" r="3.5"/>
                <g id="zoomPlus">
                        <use xlink:href="#rim" fill="#404040">
                                <set attributeName="fill" to="#808080" begin="zoomplus.mouseover" end="zoomplus.mouseout"/>
                        </use>
                        <path d="M-4,0h8M0,-4v8" fill="none" stroke="white" stroke-width="1.5" pointer-events="none"/>
                </g>
                <g id="zoomMin">
                        <use xlink:href="#rim" fill="#404040">
                                <set attributeName="fill" to="#808080" begin="zoomminus.mouseover" end="zoomminus.mouseout"/>
                        </use>
                        <path d="M-4,0h8" fill="none" stroke="white" stroke-width="1.5" pointer-events="none"/>
                </g>
                <g id="dirArrow">
                        <path fill="none" stroke="white" stroke-width="1.5" d="M0,-3.0v7 M-2.5,-0.5L0,-3.0L2.5,-0.5"/>
                </g>
               <g id="resetDef">
                       <use xlink:href="#rim2" fill="#404040">
                               <set attributeName="fill" to="#808080" begin="reset.mouseover" end="reset.mouseout"/>
                       </use>
               </g>
        </defs>

<script type="text/javascript">
var viewWidth = 702;
var viewHeight = 274;
var sectionId = 'dynsection-0';
</script>
<script xlink:href="../../svgpan.js"/>
<svg id="graph" class="graph">
<g id="viewport">
<title>org.cobbzilla.util.io.main.UniqueFileWalkerMain.run</title>
<!-- Node0 -->
<g id="node1" class="node">
<title>Node0</title>
<polygon fill="#bfbfbf" stroke="#000000" points="0,-164.5 0,-194.5 131,-194.5 131,-164.5 0,-164.5"/>
<text text-anchor="start" x="8" y="-182.5" font-family="Helvetica,sans-Serif" font-size="10.00" fill="#000000">org.cobbzilla.util.io.main.</text>
<text text-anchor="middle" x="65.5" y="-171.5" font-family="Helvetica,sans-Serif" font-size="10.00" fill="#000000">UniqueFileWalkerMain.run</text>
</g>
<!-- Node1 -->
<g id="node2" class="node">
<title>Node1</title>
<g id="a_node2"><a xlink:href="../../d9/d84/classorg_1_1cobbzilla_1_1util_1_1io_1_1main_1_1UniqueFileWalkerOptions_a865ae38db6cbd50aa44f6c5a329bad15.html#a865ae38db6cbd50aa44f6c5a329bad15" target="_top" xlink:title="org.cobbzilla.util.io.main.\lUniqueFileWalkerOptions.hasOutfile">
<polygon fill="none" stroke="#000000" points="167,-235.5 167,-265.5 342,-265.5 342,-235.5 167,-235.5"/>
<text text-anchor="start" x="175" y="-253.5" font-family="Helvetica,sans-Serif" font-size="10.00" fill="#000000">org.cobbzilla.util.io.main.</text>
<text text-anchor="middle" x="254.5" y="-242.5" font-family="Helvetica,sans-Serif" font-size="10.00" fill="#000000">UniqueFileWalkerOptions.hasOutfile</text>
</a>
</g>
</g>
<!-- Node0&#45;&gt;Node1 -->
<g id="edge1" class="edge">
<title>Node0&#45;&gt;Node1</title>
<path fill="none" stroke="#191970" d="M94.7101,-194.601C114.703,-204.5427 142.015,-217.3605 167,-226.5 172.5914,-228.5453 178.4392,-230.5099 184.3456,-232.3729"/>
<polygon fill="#191970" stroke="#191970" points="183.7204,-235.8412 194.3064,-235.4087 185.7612,-229.1453 183.7204,-235.8412"/>
</g>
<!-- Node2 -->
<g id="node3" class="node">
<title>Node2</title>
<g id="a_node3"><a xlink:href="../../d6/dee/classorg_1_1cobbzilla_1_1util_1_1main_1_1BaseMain_aa16e0a2ec971a230dedb15fdb76d063f.html#aa16e0a2ec971a230dedb15fdb76d063f" target="_top" xlink:title="org.cobbzilla.util.main.\lBaseMain.out">
<polygon fill="none" stroke="#000000" points="197.5,-186.5 197.5,-216.5 311.5,-216.5 311.5,-186.5 197.5,-186.5"/>
<text text-anchor="start" x="205.5" y="-204.5" font-family="Helvetica,sans-Serif" font-size="10.00" fill="#000000">org.cobbzilla.util.main.</text>
<text text-anchor="middle" x="254.5" y="-193.5" font-family="Helvetica,sans-Serif" font-size="10.00" fill="#000000">BaseMain.out</text>
</a>
</g>
</g>
<!-- Node0&#45;&gt;Node2 -->
<g id="edge2" class="edge">
<title>Node0&#45;&gt;Node2</title>
<path fill="none" stroke="#191970" d="M131.0726,-187.1328C149.2441,-189.248 168.9949,-191.547 187.2598,-193.6731"/>
<polygon fill="#191970" stroke="#191970" points="186.8971,-197.1544 197.2347,-194.8342 187.7065,-190.2014 186.8971,-197.1544"/>
</g>
<!-- Node3 -->
<g id="node4" class="node">
<title>Node3</title>
<g id="a_node4"><a xlink:href="../../db/d9f/classorg_1_1cobbzilla_1_1util_1_1string_1_1StringUtil_a7241ffa301b092ebc9118059204827b0.html#a7241ffa301b092ebc9118059204827b0" target="_top" xlink:title="org.cobbzilla.util.string.\lStringUtil.toString">
<polygon fill="none" stroke="#000000" points="570,-142.5 570,-172.5 687,-172.5 687,-142.5 570,-142.5"/>
<text text-anchor="start" x="578" y="-160.5" font-family="Helvetica,sans-Serif" font-size="10.00" fill="#000000">org.cobbzilla.util.string.</text>
<text text-anchor="middle" x="628.5" y="-149.5" font-family="Helvetica,sans-Serif" font-size="10.00" fill="#000000">StringUtil.toString</text>
</a>
</g>
</g>
<!-- Node0&#45;&gt;Node3 -->
<g id="edge3" class="edge">
<title>Node0&#45;&gt;Node3</title>
<path fill="none" stroke="#191970" d="M131.1851,-176.9333C238.3867,-172.7442 449.947,-164.4772 559.3506,-160.2021"/>
<polygon fill="#191970" stroke="#191970" points="559.7565,-163.689 569.6122,-159.8011 559.4831,-156.6944 559.7565,-163.689"/>
</g>
<!-- Node4 -->
<g id="node5" class="node">
<title>Node4</title>
<g id="a_node5"><a xlink:href="../../de/de0/classorg_1_1cobbzilla_1_1util_1_1io_1_1FilesystemWalker_a02cf20505bb0ea4e3109763788ef3d79.html#a02cf20505bb0ea4e3109763788ef3d79" target="_top" xlink:title="org.cobbzilla.util.io.Filesystem\lWalker.walk">
<polygon fill="none" stroke="#000000" points="180,-74.5 180,-104.5 329,-104.5 329,-74.5 180,-74.5"/>
<text text-anchor="start" x="188" y="-92.5" font-family="Helvetica,sans-Serif" font-size="10.00" fill="#000000">org.cobbzilla.util.io.Filesystem</text>
<text text-anchor="middle" x="254.5" y="-81.5" font-family="Helvetica,sans-Serif" font-size="10.00" fill="#000000">Walker.walk</text>
</a>
</g>
</g>
<!-- Node0&#45;&gt;Node4 -->
<g id="edge5" class="edge">
<title>Node0&#45;&gt;Node4</title>
<path fill="none" stroke="#191970" d="M97.1344,-164.436C129.0245,-149.2503 178.3951,-125.7405 213.3211,-109.109"/>
<polygon fill="#191970" stroke="#191970" points="215.2386,-112.0725 222.7624,-104.6131 212.229,-105.7525 215.2386,-112.0725"/>
</g>
<!-- Node3&#45;&gt;Node3 -->
<g id="edge4" class="edge">
<title>Node3&#45;&gt;Node3</title>
<path fill="none" stroke="#191970" d="M597.8284,-172.659C590.4324,-182.0566 600.6563,-191 628.5,-191 645.4673,-191 655.8916,-187.679 659.7731,-182.9579"/>
<polygon fill="#191970" stroke="#191970" points="663.2488,-182.4379 659.1716,-172.659 656.2607,-182.8461 663.2488,-182.4379"/>
</g>
<!-- Node5 -->
<g id="node6" class="node">
<title>Node5</title>
<g id="a_node6"><a xlink:href="../../de/de0/classorg_1_1cobbzilla_1_1util_1_1io_1_1FilesystemWalker_ae03d4f7ba6b303af5ee4bf3157d1433e.html#ae03d4f7ba6b303af5ee4bf3157d1433e" target="_top" xlink:title="org.cobbzilla.util.io.Filesystem\lWalker.awaitFutures">
<polygon fill="none" stroke="#000000" points="378,-98.5 378,-128.5 527,-128.5 527,-98.5 378,-98.5"/>
<text text-anchor="start" x="386" y="-116.5" font-family="Helvetica,sans-Serif" font-size="10.00" fill="#000000">org.cobbzilla.util.io.Filesystem</text>
<text text-anchor="middle" x="452.5" y="-105.5" font-family="Helvetica,sans-Serif" font-size="10.00" fill="#000000">Walker.awaitFutures</text>
</a>
</g>
</g>
<!-- Node4&#45;&gt;Node5 -->
<g id="edge6" class="edge">
<title>Node4&#45;&gt;Node5</title>
<path fill="none" stroke="#191970" d="M329.0732,-98.5392C341.7021,-100.07 354.8967,-101.6693 367.763,-103.2288"/>
<polygon fill="#191970" stroke="#191970" points="367.6455,-106.7401 377.994,-104.469 368.4879,-99.791 367.6455,-106.7401"/>
</g>
<!-- Node7 -->
<g id="node8" class="node">
<title>Node7</title>
<g id="a_node8"><a xlink:href="../../de/de0/classorg_1_1cobbzilla_1_1util_1_1io_1_1FilesystemWalker_a11c5f116bc3b7619e956fcfc3a4d0c61.html#a11c5f116bc3b7619e956fcfc3a4d0c61" target="_top" xlink:title="org.cobbzilla.util.io.Filesystem\lWalker.fileJob">
<polygon fill="none" stroke="#000000" points="378,-49.5 378,-79.5 527,-79.5 527,-49.5 378,-49.5"/>
<text text-anchor="start" x="386" y="-67.5" font-family="Helvetica,sans-Serif" font-size="10.00" fill="#000000">org.cobbzilla.util.io.Filesystem</text>
<text text-anchor="middle" x="452.5" y="-56.5" font-family="Helvetica,sans-Serif" font-size="10.00" fill="#000000">Walker.fileJob</text>
</a>
</g>
</g>
<!-- Node4&#45;&gt;Node7 -->
<g id="edge9" class="edge">
<title>Node4&#45;&gt;Node7</title>
<path fill="none" stroke="#191970" d="M329.0732,-80.0842C341.7021,-78.4896 354.8967,-76.8237 367.763,-75.1991"/>
<polygon fill="#191970" stroke="#191970" points="368.5113,-78.6325 377.994,-73.9073 367.6343,-71.6877 368.5113,-78.6325"/>
</g>
<!-- Node8 -->
<g id="node9" class="node">
<title>Node8</title>
<g id="a_node9"><a xlink:href="../../de/de0/classorg_1_1cobbzilla_1_1util_1_1io_1_1FilesystemWalker_aa78aa25f5e3e8f92fcaab5e9202a0a39.html#aa78aa25f5e3e8f92fcaab5e9202a0a39" target="_top" xlink:title="org.cobbzilla.util.io.Filesystem\lWalker.numFutures">
<polygon fill="none" stroke="#000000" points="378,-.5 378,-30.5 527,-30.5 527,-.5 378,-.5"/>
<text text-anchor="start" x="386" y="-18.5" font-family="Helvetica,sans-Serif" font-size="10.00" fill="#000000">org.cobbzilla.util.io.Filesystem</text>
<text text-anchor="middle" x="452.5" y="-7.5" font-family="Helvetica,sans-Serif" font-size="10.00" fill="#000000">Walker.numFutures</text>
</a>
</g>
</g>
<!-- Node4&#45;&gt;Node8 -->
<g id="edge10" class="edge">
<title>Node4&#45;&gt;Node8</title>
<path fill="none" stroke="#191970" d="M289.6363,-74.4772C314.2073,-64.1686 347.8851,-50.4303 378,-39.5 383.1891,-37.6166 388.6075,-35.7265 394.0516,-33.8794"/>
<polygon fill="#191970" stroke="#191970" points="395.4588,-37.0995 403.8348,-30.6116 393.2411,-30.4601 395.4588,-37.0995"/>
</g>
<!-- Node5&#45;&gt;Node3 -->
<g id="edge8" class="edge">
<title>Node5&#45;&gt;Node3</title>
<path fill="none" stroke="#191970" d="M512.577,-128.5192C527.771,-132.3177 544.2039,-136.426 559.7881,-140.322"/>
<polygon fill="#191970" stroke="#191970" points="559.3347,-143.8163 569.885,-142.8462 561.0325,-137.0253 559.3347,-143.8163"/>
</g>
<!-- Node6 -->
<g id="node7" class="node">
<title>Node6</title>
<g id="a_node7"><a xlink:href="../../d4/d54/classorg_1_1cobbzilla_1_1util_1_1daemon_1_1AwaitResult_a378c0f070e729dc8791107a3201f85a3.html#a378c0f070e729dc8791107a3201f85a3" target="_top" xlink:title="org.cobbzilla.util.daemon.\lAwaitResult.allSucceeded">
<polygon fill="none" stroke="#000000" points="563,-93.5 563,-123.5 694,-123.5 694,-93.5 563,-93.5"/>
<text text-anchor="start" x="571" y="-111.5" font-family="Helvetica,sans-Serif" font-size="10.00" fill="#000000">org.cobbzilla.util.daemon.</text>
<text text-anchor="middle" x="628.5" y="-100.5" font-family="Helvetica,sans-Serif" font-size="10.00" fill="#000000">AwaitResult.allSucceeded</text>
</a>
</g>
</g>
<!-- Node5&#45;&gt;Node6 -->
<g id="edge7" class="edge">
<title>Node5&#45;&gt;Node6</title>
<path fill="none" stroke="#191970" d="M527.1398,-111.3795C535.5989,-111.1392 544.2267,-110.8941 552.7005,-110.6534"/>
<polygon fill="#191970" stroke="#191970" points="553.0421,-114.1452 562.9387,-110.3625 552.8433,-107.148 553.0421,-114.1452"/>
</g>
</g>
</svg>
        <g id="navigator" transform="translate(0 0)" fill="#404254">
                <rect fill="#f2f5e9" fill-opacity="0.5" stroke="#606060" stroke-width=".5" x="0" y="0" width="60" height="60"/>
                <use id="zoomplus" xlink:href="#zoomPlus" x="17" y="9" onmousedown="handleZoom(evt,'in')"/>
                <use id="zoomminus" xlink:href="#zoomMin" x="42" y="9" onmousedown="handleZoom(evt,'out')"/>
                <use id="reset" xlink:href="#resetDef" x="30" y="36" onmousedown="handleReset()"/>
                <g id="arrowUp" xlink:href="#dirArrow" transform="translate(30 24)" onmousedown="handlePan(0,-1)">
                  <use xlink:href="#rim" fill="#404040">
                        <set attributeName="fill" to="#808080" begin="arrowUp.mouseover" end="arrowUp.mouseout"/>
                  </use>
                  <path fill="none" stroke="white" stroke-width="1.5" d="M0,-3.0v7 M-2.5,-0.5L0,-3.0L2.5,-0.5"/>
                </g>
                <g id="arrowRight" xlink:href="#dirArrow" transform="rotate(90) translate(36 -43)" onmousedown="handlePan(1,0)">
                  <use xlink:href="#rim" fill="#404040">
                        <set attributeName="fill" to="#808080" begin="arrowRight.mouseover" end="arrowRight.mouseout"/>
                  </use>
                  <path fill="none" stroke="white" stroke-width="1.5" d="M0,-3.0v7 M-2.5,-0.5L0,-3.0L2.5,-0.5"/>
                </g>
                <g id="arrowDown" xlink:href="#dirArrow" transform="rotate(180) translate(-30 -48)" onmousedown="handlePan(0,1)">
                  <use xlink:href="#rim" fill="#404040">
                        <set attributeName="fill" to="#808080" begin="arrowDown.mouseover" end="arrowDown.mouseout"/>
                  </use>
                  <path fill="none" stroke="white" stroke-width="1.5" d="M0,-3.0v7 M-2.5,-0.5L0,-3.0L2.5,-0.5"/>
                </g>
                <g id="arrowLeft" xlink:href="#dirArrow" transform="rotate(270) translate(-36 17)" onmousedown="handlePan(-1,0)">
                  <use xlink:href="#rim" fill="#404040">
                        <set attributeName="fill" to="#808080" begin="arrowLeft.mouseover" end="arrowLeft.mouseout"/>
                  </use>
                  <path fill="none" stroke="white" stroke-width="1.5" d="M0,-3.0v7 M-2.5,-0.5L0,-3.0L2.5,-0.5"/>
                </g>
        </g>
        <svg viewBox="0 0 15 15" width="100%" height="30px" preserveAspectRatio="xMaxYMin meet">
         <g id="arrow_out" transform="scale(0.3 0.3)">
          <a xlink:href="classorg_1_1cobbzilla_1_1util_1_1io_1_1main_1_1UniqueFileWalkerMain_a0631df940d30f8c03bda018c05004042_a0631df940d30f8c03bda018c05004042_cgraph_org.svg" target="_base">
           <rect id="button" ry="5" rx="5" y="6" x="6" height="38" width="38"
                fill="#f2f5e9" fill-opacity="0.5" stroke="#606060" stroke-width="1.0"/>
           <path id="arrow"
             d="M 11.500037,31.436501 C 11.940474,20.09759 22.043105,11.32322 32.158766,21.979434 L 37.068811,17.246167 C 37.068811,17.246167 37.088388,32 37.088388,32 L 22.160133,31.978069 C 22.160133,31.978069 26.997745,27.140456 26.997745,27.140456 C 18.528582,18.264221 13.291696,25.230495 11.500037,31.436501 z"
             style="fill:#404040;"/>
          </a>
         </g>
        </svg>
</svg>
