<?xml version="1.0" encoding="UTF-8" standalone="no"?>
<!DOCTYPE svg PUBLIC "-//W3C//DTD SVG 1.1//EN"
 "http://www.w3.org/Graphics/SVG/1.1/DTD/svg11.dtd">
<!-- Generated by graphviz version 2.40.1 (20161225.0304)
 -->
<!-- Title: org.cobbzilla.util.collection.CaseInsensitiveStringSet Pages: 1 -->
<svg width="151pt" height="193pt"
 viewBox="0.00 0.00 151.00 193.00" xmlns="http://www.w3.org/2000/svg" xmlns:xlink="http://www.w3.org/1999/xlink">
<g id="graph0" class="graph" transform="scale(1 1) rotate(0) translate(4 189)">
<title>org.cobbzilla.util.collection.CaseInsensitiveStringSet</title>
<!-- Node2 -->
<g id="node1" class="node">
<title>Node2</title>
<polygon fill="#bfbfbf" stroke="#000000" points="0,-.5 0,-79.5 143,-79.5 143,-.5 0,-.5"/>
<text text-anchor="start" x="8" y="-67.5" font-family="Helvetica,sans-Serif" font-size="10.00" fill="#000000">org.cobbzilla.util.collection.</text>
<text text-anchor="middle" x="71.5" y="-56.5" font-family="Helvetica,sans-Serif" font-size="10.00" fill="#000000">CaseInsensitiveStringSet</text>
<polyline fill="none" stroke="#000000" points="0,-49.5 143,-49.5 "/>
<text text-anchor="middle" x="71.5" y="-37.5" font-family="Helvetica,sans-Serif" font-size="10.00" fill="#000000"> </text>
<polyline fill="none" stroke="#000000" points="0,-30.5 143,-30.5 "/>
<text text-anchor="start" x="8" y="-18.5" font-family="Helvetica,sans-Serif" font-size="10.00" fill="#000000">+ CaseInsensitiveStringSet()</text>
<text text-anchor="start" x="8" y="-7.5" font-family="Helvetica,sans-Serif" font-size="10.00" fill="#000000">+ CaseInsensitiveStringSet()</text>
</g>
<!-- Node3 -->
<g id="node2" class="node">
<title>Node3</title>
<polygon fill="none" stroke="#bfbfbf" points="24.5,-116.5 24.5,-184.5 118.5,-184.5 118.5,-116.5 24.5,-116.5"/>
<text text-anchor="start" x="32.5" y="-172.5" font-family="Helvetica,sans-Serif" font-size="10.00" fill="#000000">java::util::TreeSet</text>
<text text-anchor="middle" x="71.5" y="-161.5" font-family="Helvetica,sans-Serif" font-size="10.00" fill="#000000">&lt; String &gt;</text>
<polyline fill="none" stroke="#bfbfbf" points="24.5,-154.5 118.5,-154.5 "/>
<text text-anchor="middle" x="71.5" y="-142.5" font-family="Helvetica,sans-Serif" font-size="10.00" fill="#000000"> </text>
<polyline fill="none" stroke="#bfbfbf" points="24.5,-135.5 118.5,-135.5 "/>
<text text-anchor="middle" x="71.5" y="-123.5" font-family="Helvetica,sans-Serif" font-size="10.00" fill="#000000"> </text>
</g>
<!-- Node3&#45;&gt;Node2 -->
<g id="edge1" class="edge">
<title>Node3&#45;&gt;Node2</title>
<path fill="none" stroke="#191970" d="M71.5,-106.3044C71.5,-97.4634 71.5,-88.2287 71.5,-79.5566"/>
<polygon fill="none" stroke="#191970" points="68.0001,-106.4447 71.5,-116.4447 75.0001,-106.4447 68.0001,-106.4447"/>
</g>
</g>
</svg>
