<?xml version="1.0" encoding="UTF-8" standalone="no"?>
<!DOCTYPE svg PUBLIC "-//W3C//DTD SVG 1.1//EN"
 "http://www.w3.org/Graphics/SVG/1.1/DTD/svg11.dtd">
<!-- Generated by graphviz version 2.40.1 (20161225.0304)
 -->
<!-- Title: org.cobbzilla.util.io.Tarball.roll Pages: 1 -->
<svg width="336pt" height="78pt"
 viewBox="0.00 0.00 336.00 77.50" xmlns="http://www.w3.org/2000/svg" xmlns:xlink="http://www.w3.org/1999/xlink">
<g id="graph0" class="graph" transform="scale(1 1) rotate(0) translate(4 73.5)">
<title>org.cobbzilla.util.io.Tarball.roll</title>
<!-- Node1 -->
<g id="node1" class="node">
<title>Node1</title>
<polygon fill="#bfbfbf" stroke="#000000" points="0,-28 0,-47 146,-47 146,-28 0,-28"/>
<text text-anchor="middle" x="73" y="-35" font-family="Helvetica,sans-Serif" font-size="10.00" fill="#000000">org.cobbzilla.util.io.Tarball.roll</text>
</g>
<!-- Node2 -->
<g id="node2" class="node">
<title>Node2</title>
<g id="a_node2"><a xlink:href="../../d5/ded/classorg_1_1cobbzilla_1_1util_1_1io_1_1Tarball_a9492ff104e915f80b4541f506ba39e8c.html#a9492ff104e915f80b4541f506ba39e8c" target="_top" xlink:title="Roll a gzipped tarball. ">
<polygon fill="none" stroke="#000000" points="182,-50 182,-69 328,-69 328,-50 182,-50"/>
<text text-anchor="middle" x="255" y="-57" font-family="Helvetica,sans-Serif" font-size="10.00" fill="#000000">org.cobbzilla.util.io.Tarball.roll</text>
</a>
</g>
</g>
<!-- Node1&#45;&gt;Node2 -->
<g id="edge1" class="edge">
<title>Node1&#45;&gt;Node2</title>
<path fill="none" stroke="#191970" d="M156.2365,-47.5616C164.8043,-48.5972 173.4644,-49.6441 181.9103,-50.665"/>
<polygon fill="#191970" stroke="#191970" points="156.5874,-44.0786 146.2397,-46.3531 155.7473,-51.028 156.5874,-44.0786"/>
</g>
<!-- Node3 -->
<g id="node3" class="node">
<title>Node3</title>
<g id="a_node3"><a xlink:href="../../db/df2/classorg_1_1cobbzilla_1_1util_1_1io_1_1TarballTest_a2291fc7c46504058afb866982146cc43.html#a2291fc7c46504058afb866982146cc43" target="_top" xlink:title="org.cobbzilla.util.io.Tarball\lTest.testUnrollAndReroll">
<polygon fill="none" stroke="#000000" points="190,-.5 190,-30.5 320,-30.5 320,-.5 190,-.5"/>
<text text-anchor="start" x="198" y="-18.5" font-family="Helvetica,sans-Serif" font-size="10.00" fill="#000000">org.cobbzilla.util.io.Tarball</text>
<text text-anchor="middle" x="255" y="-7.5" font-family="Helvetica,sans-Serif" font-size="10.00" fill="#000000">Test.testUnrollAndReroll</text>
</a>
</g>
</g>
<!-- Node1&#45;&gt;Node3 -->
<g id="edge2" class="edge">
<title>Node1&#45;&gt;Node3</title>
<path fill="none" stroke="#191970" d="M156.462,-27.4112C167.6612,-26.0574 179.0138,-24.6851 189.835,-23.3771"/>
<polygon fill="#191970" stroke="#191970" points="155.7473,-23.972 146.2397,-28.6469 156.5874,-30.9214 155.7473,-23.972"/>
</g>
</g>
</svg>
