<?xml version="1.0" encoding="UTF-8" standalone="no"?>
<!DOCTYPE svg PUBLIC "-//W3C//DTD SVG 1.1//EN"
 "http://www.w3.org/Graphics/SVG/1.1/DTD/svg11.dtd">
<!-- Generated by graphviz version 2.40.1 (20161225.0304)
 -->
<!-- Title: org.cobbzilla.util.io.Decompressors.unroll Pages: 1 -->
<!--zoomable 154 -->
<svg id="main" version="1.1" xmlns="http://www.w3.org/2000/svg" xmlns:xlink="http://www.w3.org/1999/xlink" xml:space="preserve" onload="init(evt)">
<style type="text/css"><![CDATA[
.edge:hover path { stroke: red; }
.edge:hover polygon { stroke: red; fill: red; }
]]></style>
<script type="text/javascript"><![CDATA[
var edges = document.getElementsByTagName('g');
if (edges && edges.length) {
  for (var i=0;i<edges.length;i++) {
    if (edges[i].id.substr(0,4)=='edge') {
      edges[i].setAttribute('class','edge');
    }
  }
}
]]></script>
        <defs>
                <circle id="rim" cx="0" cy="0" r="7"/>
                <circle id="rim2" cx="0" cy="0" r="3.5"/>
                <g id="zoomPlus">
                        <use xlink:href="#rim" fill="#404040">
                                <set attributeName="fill" to="#808080" begin="zoomplus.mouseover" end="zoomplus.mouseout"/>
                        </use>
                        <path d="M-4,0h8M0,-4v8" fill="none" stroke="white" stroke-width="1.5" pointer-events="none"/>
                </g>
                <g id="zoomMin">
                        <use xlink:href="#rim" fill="#404040">
                                <set attributeName="fill" to="#808080" begin="zoomminus.mouseover" end="zoomminus.mouseout"/>
                        </use>
                        <path d="M-4,0h8" fill="none" stroke="white" stroke-width="1.5" pointer-events="none"/>
                </g>
                <g id="dirArrow">
                        <path fill="none" stroke="white" stroke-width="1.5" d="M0,-3.0v7 M-2.5,-0.5L0,-3.0L2.5,-0.5"/>
                </g>
               <g id="resetDef">
                       <use xlink:href="#rim2" fill="#404040">
                               <set attributeName="fill" to="#808080" begin="reset.mouseover" end="reset.mouseout"/>
                       </use>
               </g>
        </defs>

<script type="text/javascript">
var viewWidth = 865;
var viewHeight = 154;
var sectionId = 'dynsection-0';
</script>
<script xlink:href="../../svgpan.js"/>
<svg id="graph" class="graph">
<g id="viewport">
<title>org.cobbzilla.util.io.Decompressors.unroll</title>
<!-- Node0 -->
<g id="node1" class="node">
<title>Node0</title>
<polygon fill="#bfbfbf" stroke="#000000" points="0,-44.5 0,-63.5 196,-63.5 196,-44.5 0,-44.5"/>
<text text-anchor="middle" x="98" y="-51.5" font-family="Helvetica,sans-Serif" font-size="10.00" fill="#000000">org.cobbzilla.util.io.Decompressors.unroll</text>
</g>
<!-- Node1 -->
<g id="node2" class="node">
<title>Node1</title>
<g id="a_node2"><a xlink:href="../../d4/ddd/classorg_1_1cobbzilla_1_1util_1_1io_1_1Decompressors_af3a82372a05040689af04d79f621f0b1.html#af3a82372a05040689af04d79f621f0b1" target="_top" xlink:title="org.cobbzilla.util.io.Decompressors.extract">
<polygon fill="none" stroke="#000000" points="232,-88.5 232,-107.5 435,-107.5 435,-88.5 232,-88.5"/>
<text text-anchor="middle" x="333.5" y="-95.5" font-family="Helvetica,sans-Serif" font-size="10.00" fill="#000000">org.cobbzilla.util.io.Decompressors.extract</text>
</a>
</g>
</g>
<!-- Node0&#45;&gt;Node1 -->
<g id="edge1" class="edge">
<title>Node0&#45;&gt;Node1</title>
<path fill="none" stroke="#191970" d="M149.1,-63.5473C185.3609,-70.3222 234.1954,-79.4463 272.4997,-86.6029"/>
<polygon fill="#191970" stroke="#191970" points="272.027,-90.0751 282.4997,-88.4713 273.3127,-83.1942 272.027,-90.0751"/>
</g>
<!-- Node6 -->
<g id="node7" class="node">
<title>Node6</title>
<g id="a_node7"><a xlink:href="../../d4/ddd/classorg_1_1cobbzilla_1_1util_1_1io_1_1Decompressors_a7c639454455abcdbc5d772d1c410e3aa.html#a7c639454455abcdbc5d772d1c410e3aa" target="_top" xlink:title="org.cobbzilla.util.io.Decompressors.is\lZipFile">
<polygon fill="none" stroke="#000000" points="243.5,-39 243.5,-69 423.5,-69 423.5,-39 243.5,-39"/>
<text text-anchor="start" x="251.5" y="-57" font-family="Helvetica,sans-Serif" font-size="10.00" fill="#000000">org.cobbzilla.util.io.Decompressors.is</text>
<text text-anchor="middle" x="333.5" y="-46" font-family="Helvetica,sans-Serif" font-size="10.00" fill="#000000">ZipFile</text>
</a>
</g>
</g>
<!-- Node0&#45;&gt;Node6 -->
<g id="edge6" class="edge">
<title>Node0&#45;&gt;Node6</title>
<path fill="none" stroke="#191970" d="M196.1679,-54C208.3943,-54 220.9105,-54 233.1692,-54"/>
<polygon fill="#191970" stroke="#191970" points="233.3938,-57.5001 243.3938,-54 233.3938,-50.5001 233.3938,-57.5001"/>
</g>
<!-- Node7 -->
<g id="node8" class="node">
<title>Node7</title>
<g id="a_node8"><a xlink:href="../../d5/ded/classorg_1_1cobbzilla_1_1util_1_1io_1_1Tarball_af799fb49d024e226d218f60774405aab.html#af799fb49d024e226d218f60774405aab" target="_top" xlink:title="org.cobbzilla.util.io.Tarball.unroll">
<polygon fill="none" stroke="#000000" points="255.5,-.5 255.5,-19.5 411.5,-19.5 411.5,-.5 255.5,-.5"/>
<text text-anchor="middle" x="333.5" y="-7.5" font-family="Helvetica,sans-Serif" font-size="10.00" fill="#000000">org.cobbzilla.util.io.Tarball.unroll</text>
</a>
</g>
</g>
<!-- Node0&#45;&gt;Node7 -->
<g id="edge7" class="edge">
<title>Node0&#45;&gt;Node7</title>
<path fill="none" stroke="#191970" d="M149.1,-44.4527C185.3609,-37.6778 234.1954,-28.5537 272.4997,-21.3971"/>
<polygon fill="#191970" stroke="#191970" points="273.3127,-24.8058 282.4997,-19.5287 272.027,-17.9249 273.3127,-24.8058"/>
</g>
<!-- Node2 -->
<g id="node3" class="node">
<title>Node2</title>
<g id="a_node3"><a xlink:href="../../d4/ddd/classorg_1_1cobbzilla_1_1util_1_1io_1_1Decompressors_aed9bfdb03d5a26f5968605f8763e6685.html#aed9bfdb03d5a26f5968605f8763e6685" target="_top" xlink:title="org.cobbzilla.util.io.Decompressors.dirpart">
<polygon fill="none" stroke="#000000" points="480,-126.5 480,-145.5 680,-145.5 680,-126.5 480,-126.5"/>
<text text-anchor="middle" x="580" y="-133.5" font-family="Helvetica,sans-Serif" font-size="10.00" fill="#000000">org.cobbzilla.util.io.Decompressors.dirpart</text>
</a>
</g>
</g>
<!-- Node1&#45;&gt;Node2 -->
<g id="edge2" class="edge">
<title>Node1&#45;&gt;Node2</title>
<path fill="none" stroke="#191970" d="M395.3842,-107.54C429.6682,-112.8251 472.4574,-119.4214 508.2068,-124.9325"/>
<polygon fill="#191970" stroke="#191970" points="507.6738,-128.3916 518.0904,-126.4561 508.7404,-121.4733 507.6738,-128.3916"/>
</g>
<!-- Node3 -->
<g id="node4" class="node">
<title>Node3</title>
<g id="a_node4"><a xlink:href="../../d4/ddd/classorg_1_1cobbzilla_1_1util_1_1io_1_1Decompressors_a0d5a8b9e67c8f2f0e4eeb6bd36fce872.html#a0d5a8b9e67c8f2f0e4eeb6bd36fce872" target="_top" xlink:title="org.cobbzilla.util.io.Decompressors.extractFile">
<polygon fill="none" stroke="#000000" points="471,-88.5 471,-107.5 689,-107.5 689,-88.5 471,-88.5"/>
<text text-anchor="middle" x="580" y="-95.5" font-family="Helvetica,sans-Serif" font-size="10.00" fill="#000000">org.cobbzilla.util.io.Decompressors.extractFile</text>
</a>
</g>
</g>
<!-- Node1&#45;&gt;Node3 -->
<g id="edge3" class="edge">
<title>Node1&#45;&gt;Node3</title>
<path fill="none" stroke="#191970" d="M435.1841,-98C443.6676,-98 452.2918,-98 460.8892,-98"/>
<polygon fill="#191970" stroke="#191970" points="460.9593,-101.5001 470.9593,-98 460.9592,-94.5001 460.9593,-101.5001"/>
</g>
<!-- Node5 -->
<g id="node6" class="node">
<title>Node5</title>
<g id="a_node6"><a xlink:href="../../d4/ddd/classorg_1_1cobbzilla_1_1util_1_1io_1_1Decompressors_ad8b84e1094c1445219fb9663d0c4f7d7.html#ad8b84e1094c1445219fb9663d0c4f7d7" target="_top" xlink:title="org.cobbzilla.util.io.Decompressors.mkdirs">
<polygon fill="none" stroke="#000000" points="479,-50.5 479,-69.5 681,-69.5 681,-50.5 479,-50.5"/>
<text text-anchor="middle" x="580" y="-57.5" font-family="Helvetica,sans-Serif" font-size="10.00" fill="#000000">org.cobbzilla.util.io.Decompressors.mkdirs</text>
</a>
</g>
</g>
<!-- Node1&#45;&gt;Node5 -->
<g id="edge5" class="edge">
<title>Node1&#45;&gt;Node5</title>
<path fill="none" stroke="#191970" d="M395.3842,-88.46C429.6682,-83.1749 472.4574,-76.5786 508.2068,-71.0675"/>
<polygon fill="#191970" stroke="#191970" points="508.7404,-74.5267 518.0904,-69.5439 507.6738,-67.6084 508.7404,-74.5267"/>
</g>
<!-- Node4 -->
<g id="node5" class="node">
<title>Node4</title>
<g id="a_node5"><a xlink:href="../../dc/d81/classorg_1_1cobbzilla_1_1util_1_1io_1_1StreamUtil_aaa09d565dbd09da743edd3448d109478.html#aaa09d565dbd09da743edd3448d109478" target="_top" xlink:title="org.cobbzilla.util.io.Stream\lUtil.copyLarge">
<polygon fill="none" stroke="#000000" points="725,-83 725,-113 857,-113 857,-83 725,-83"/>
<text text-anchor="start" x="733" y="-101" font-family="Helvetica,sans-Serif" font-size="10.00" fill="#000000">org.cobbzilla.util.io.Stream</text>
<text text-anchor="middle" x="791" y="-90" font-family="Helvetica,sans-Serif" font-size="10.00" fill="#000000">Util.copyLarge</text>
</a>
</g>
</g>
<!-- Node3&#45;&gt;Node4 -->
<g id="edge4" class="edge">
<title>Node3&#45;&gt;Node4</title>
<path fill="none" stroke="#191970" d="M689.2083,-98C697.8586,-98 706.4756,-98 714.8263,-98"/>
<polygon fill="#191970" stroke="#191970" points="714.8647,-101.5001 724.8646,-98 714.8646,-94.5001 714.8647,-101.5001"/>
</g>
</g>
</svg>
        <g id="navigator" transform="translate(0 0)" fill="#404254">
                <rect fill="#f2f5e9" fill-opacity="0.5" stroke="#606060" stroke-width=".5" x="0" y="0" width="60" height="60"/>
                <use id="zoomplus" xlink:href="#zoomPlus" x="17" y="9" onmousedown="handleZoom(evt,'in')"/>
                <use id="zoomminus" xlink:href="#zoomMin" x="42" y="9" onmousedown="handleZoom(evt,'out')"/>
                <use id="reset" xlink:href="#resetDef" x="30" y="36" onmousedown="handleReset()"/>
                <g id="arrowUp" xlink:href="#dirArrow" transform="translate(30 24)" onmousedown="handlePan(0,-1)">
                  <use xlink:href="#rim" fill="#404040">
                        <set attributeName="fill" to="#808080" begin="arrowUp.mouseover" end="arrowUp.mouseout"/>
                  </use>
                  <path fill="none" stroke="white" stroke-width="1.5" d="M0,-3.0v7 M-2.5,-0.5L0,-3.0L2.5,-0.5"/>
                </g>
                <g id="arrowRight" xlink:href="#dirArrow" transform="rotate(90) translate(36 -43)" onmousedown="handlePan(1,0)">
                  <use xlink:href="#rim" fill="#404040">
                        <set attributeName="fill" to="#808080" begin="arrowRight.mouseover" end="arrowRight.mouseout"/>
                  </use>
                  <path fill="none" stroke="white" stroke-width="1.5" d="M0,-3.0v7 M-2.5,-0.5L0,-3.0L2.5,-0.5"/>
                </g>
                <g id="arrowDown" xlink:href="#dirArrow" transform="rotate(180) translate(-30 -48)" onmousedown="handlePan(0,1)">
                  <use xlink:href="#rim" fill="#404040">
                        <set attributeName="fill" to="#808080" begin="arrowDown.mouseover" end="arrowDown.mouseout"/>
                  </use>
                  <path fill="none" stroke="white" stroke-width="1.5" d="M0,-3.0v7 M-2.5,-0.5L0,-3.0L2.5,-0.5"/>
                </g>
                <g id="arrowLeft" xlink:href="#dirArrow" transform="rotate(270) translate(-36 17)" onmousedown="handlePan(-1,0)">
                  <use xlink:href="#rim" fill="#404040">
                        <set attributeName="fill" to="#808080" begin="arrowLeft.mouseover" end="arrowLeft.mouseout"/>
                  </use>
                  <path fill="none" stroke="white" stroke-width="1.5" d="M0,-3.0v7 M-2.5,-0.5L0,-3.0L2.5,-0.5"/>
                </g>
        </g>
        <svg viewBox="0 0 15 15" width="100%" height="30px" preserveAspectRatio="xMaxYMin meet">
         <g id="arrow_out" transform="scale(0.3 0.3)">
          <a xlink:href="classorg_1_1cobbzilla_1_1util_1_1io_1_1Decompressors_a69131e89ec853a9d2a156313ea997a29_a69131e89ec853a9d2a156313ea997a29_cgraph_org.svg" target="_base">
           <rect id="button" ry="5" rx="5" y="6" x="6" height="38" width="38"
                fill="#f2f5e9" fill-opacity="0.5" stroke="#606060" stroke-width="1.0"/>
           <path id="arrow"
             d="M 11.500037,31.436501 C 11.940474,20.09759 22.043105,11.32322 32.158766,21.979434 L 37.068811,17.246167 C 37.068811,17.246167 37.088388,32 37.088388,32 L 22.160133,31.978069 C 22.160133,31.978069 26.997745,27.140456 26.997745,27.140456 C 18.528582,18.264221 13.291696,25.230495 11.500037,31.436501 z"
             style="fill:#404040;"/>
          </a>
         </g>
        </svg>
</svg>
