<?xml version="1.0" encoding="UTF-8" standalone="no"?>
<!DOCTYPE svg PUBLIC "-//W3C//DTD SVG 1.1//EN"
 "http://www.w3.org/Graphics/SVG/1.1/DTD/svg11.dtd">
<!-- Generated by graphviz version 2.40.1 (20161225.0304)
 -->
<!-- Title: org.cobbzilla.util.io.Decompressors.dirpart Pages: 1 -->
<svg width="679pt" height="28pt"
 viewBox="0.00 0.00 679.00 28.00" xmlns="http://www.w3.org/2000/svg" xmlns:xlink="http://www.w3.org/1999/xlink">
<g id="graph0" class="graph" transform="scale(1 1) rotate(0) translate(4 24)">
<title>org.cobbzilla.util.io.Decompressors.dirpart</title>
<!-- Node1 -->
<g id="node1" class="node">
<title>Node1</title>
<polygon fill="#bfbfbf" stroke="#000000" points="0,-.5 0,-19.5 200,-19.5 200,-.5 0,-.5"/>
<text text-anchor="middle" x="100" y="-7.5" font-family="Helvetica,sans-Serif" font-size="10.00" fill="#000000">org.cobbzilla.util.io.Decompressors.dirpart</text>
</g>
<!-- Node2 -->
<g id="node2" class="node">
<title>Node2</title>
<g id="a_node2"><a xlink:href="../../d4/ddd/classorg_1_1cobbzilla_1_1util_1_1io_1_1Decompressors_af3a82372a05040689af04d79f621f0b1.html#af3a82372a05040689af04d79f621f0b1" target="_top" xlink:title="org.cobbzilla.util.io.Decompressors.extract">
<polygon fill="none" stroke="#000000" points="236,-.5 236,-19.5 439,-19.5 439,-.5 236,-.5"/>
<text text-anchor="middle" x="337.5" y="-7.5" font-family="Helvetica,sans-Serif" font-size="10.00" fill="#000000">org.cobbzilla.util.io.Decompressors.extract</text>
</a>
</g>
</g>
<!-- Node1&#45;&gt;Node2 -->
<g id="edge1" class="edge">
<title>Node1&#45;&gt;Node2</title>
<path fill="none" stroke="#191970" d="M210.3087,-10C218.7657,-10 227.28,-10 235.6791,-10"/>
<polygon fill="#191970" stroke="#191970" points="210.0331,-6.5001 200.033,-10 210.033,-13.5001 210.0331,-6.5001"/>
</g>
<!-- Node3 -->
<g id="node3" class="node">
<title>Node3</title>
<g id="a_node3"><a xlink:href="../../d4/ddd/classorg_1_1cobbzilla_1_1util_1_1io_1_1Decompressors_a69131e89ec853a9d2a156313ea997a29.html#a69131e89ec853a9d2a156313ea997a29" target="_top" xlink:title="org.cobbzilla.util.io.Decompressors.unroll">
<polygon fill="none" stroke="#000000" points="475,-.5 475,-19.5 671,-19.5 671,-.5 475,-.5"/>
<text text-anchor="middle" x="573" y="-7.5" font-family="Helvetica,sans-Serif" font-size="10.00" fill="#000000">org.cobbzilla.util.io.Decompressors.unroll</text>
</a>
</g>
</g>
<!-- Node2&#45;&gt;Node3 -->
<g id="edge2" class="edge">
<title>Node2&#45;&gt;Node3</title>
<path fill="none" stroke="#191970" d="M449.1022,-10C457.6642,-10 466.2697,-10 474.7369,-10"/>
<polygon fill="#191970" stroke="#191970" points="449.082,-6.5001 439.0819,-10 449.0819,-13.5001 449.082,-6.5001"/>
</g>
</g>
</svg>
