<?xml version="1.0" encoding="UTF-8" standalone="no"?>
<!DOCTYPE svg PUBLIC "-//W3C//DTD SVG 1.1//EN"
 "http://www.w3.org/Graphics/SVG/1.1/DTD/svg11.dtd">
<!-- Generated by graphviz version 2.40.1 (20161225.0304)
 -->
<!-- Title: org.cobbzilla.util.json.JsonUtil Pages: 1 -->
<svg width="643pt" height="595pt"
 viewBox="0.00 0.00 643.00 595.00" xmlns="http://www.w3.org/2000/svg" xmlns:xlink="http://www.w3.org/1999/xlink">
<g id="graph0" class="graph" transform="scale(1 1) rotate(0) translate(4 591)">
<title>org.cobbzilla.util.json.JsonUtil</title>
<!-- Node1 -->
<g id="node1" class="node">
<title>Node1</title>
<polygon fill="#bfbfbf" stroke="#000000" points="211.5,-.5 211.5,-255.5 344.5,-255.5 344.5,-.5 211.5,-.5"/>
<text text-anchor="start" x="219.5" y="-243.5" font-family="Helvetica,sans-Serif" font-size="10.00" fill="#000000">org.cobbzilla.util.json.</text>
<text text-anchor="middle" x="278" y="-232.5" font-family="Helvetica,sans-Serif" font-size="10.00" fill="#000000">JsonUtil</text>
<polyline fill="none" stroke="#000000" points="211.5,-225.5 344.5,-225.5 "/>
<text text-anchor="start" x="219.5" y="-213.5" font-family="Helvetica,sans-Serif" font-size="10.00" fill="#000000">+ EMPTY_JSON</text>
<text text-anchor="start" x="219.5" y="-202.5" font-family="Helvetica,sans-Serif" font-size="10.00" fill="#000000">+ EMPTY_JSON_ARRAY</text>
<text text-anchor="start" x="219.5" y="-191.5" font-family="Helvetica,sans-Serif" font-size="10.00" fill="#000000">+ FULL_WRITER</text>
<text text-anchor="start" x="219.5" y="-180.5" font-family="Helvetica,sans-Serif" font-size="10.00" fill="#000000">+ PUBLIC_WRITER</text>
<polyline fill="none" stroke="#000000" points="211.5,-173.5 344.5,-173.5 "/>
<text text-anchor="start" x="219.5" y="-161.5" font-family="Helvetica,sans-Serif" font-size="10.00" fill="#000000">+ buildMapper()</text>
<text text-anchor="start" x="219.5" y="-150.5" font-family="Helvetica,sans-Serif" font-size="10.00" fill="#000000">+ buildWriter()</text>
<text text-anchor="start" x="219.5" y="-139.5" font-family="Helvetica,sans-Serif" font-size="10.00" fill="#000000">+ buildWriter()</text>
<text text-anchor="start" x="219.5" y="-128.5" font-family="Helvetica,sans-Serif" font-size="10.00" fill="#000000">+ newArrayNode()</text>
<text text-anchor="start" x="219.5" y="-117.5" font-family="Helvetica,sans-Serif" font-size="10.00" fill="#000000">+ newObjectNode()</text>
<text text-anchor="start" x="219.5" y="-106.5" font-family="Helvetica,sans-Serif" font-size="10.00" fill="#000000">+ find()</text>
<text text-anchor="start" x="219.5" y="-95.5" font-family="Helvetica,sans-Serif" font-size="10.00" fill="#000000">+ json_html()</text>
<text text-anchor="start" x="219.5" y="-84.5" font-family="Helvetica,sans-Serif" font-size="10.00" fill="#000000">+ json_html()</text>
<text text-anchor="start" x="219.5" y="-73.5" font-family="Helvetica,sans-Serif" font-size="10.00" fill="#000000">+ toJson()</text>
<text text-anchor="start" x="219.5" y="-62.5" font-family="Helvetica,sans-Serif" font-size="10.00" fill="#000000">+ toJson()</text>
<text text-anchor="start" x="219.5" y="-51.5" font-family="Helvetica,sans-Serif" font-size="10.00" fill="#000000">and 51 more...</text>
<text text-anchor="start" x="219.5" y="-40.5" font-family="Helvetica,sans-Serif" font-size="10.00" fill="#000000">~ [static initializer]()</text>
<text text-anchor="start" x="219.5" y="-29.5" font-family="Helvetica,sans-Serif" font-size="10.00" fill="#000000">~ [static initializer]()</text>
<text text-anchor="start" x="219.5" y="-18.5" font-family="Helvetica,sans-Serif" font-size="10.00" fill="#000000">~ [static initializer]()</text>
<text text-anchor="start" x="219.5" y="-7.5" font-family="Helvetica,sans-Serif" font-size="10.00" fill="#000000"># viewWriter()</text>
</g>
<!-- Node2 -->
<g id="node2" class="node">
<title>Node2</title>
<polygon fill="none" stroke="#bfbfbf" points="0,-424.5 0,-481.5 140,-481.5 140,-424.5 0,-424.5"/>
<text text-anchor="middle" x="70" y="-469.5" font-family="Helvetica,sans-Serif" font-size="10.00" fill="#000000">Map&lt; String, ObjectWriter &gt;</text>
<polyline fill="none" stroke="#bfbfbf" points="0,-462.5 140,-462.5 "/>
<text text-anchor="middle" x="70" y="-450.5" font-family="Helvetica,sans-Serif" font-size="10.00" fill="#000000"> </text>
<polyline fill="none" stroke="#bfbfbf" points="0,-443.5 140,-443.5 "/>
<text text-anchor="middle" x="70" y="-431.5" font-family="Helvetica,sans-Serif" font-size="10.00" fill="#000000"> </text>
</g>
<!-- Node2&#45;&gt;Node1 -->
<g id="edge1" class="edge">
<title>Node2&#45;&gt;Node1</title>
<path fill="none" stroke="#404040" d="M73.5197,-424.4393C79.1039,-387.4348 92.5391,-321.9863 122,-274 142.7525,-240.198 173.385,-209.1618 202.0235,-184.4782"/>
<polygon fill="none" stroke="#404040" points="202.0714,-184.4377 204.072,-177.5097 211.2366,-176.6917 209.236,-183.6198 202.0714,-184.4377"/>
<text text-anchor="middle" x="151" y="-337.5" font-family="Helvetica,sans-Serif" font-size="10.00" fill="#000000"> &#45;viewWriters</text>
</g>
<!-- Node3 -->
<g id="node3" class="node">
<title>Node3</title>
<polygon fill="none" stroke="#bfbfbf" points="52.5,-529.5 52.5,-586.5 87.5,-586.5 87.5,-529.5 52.5,-529.5"/>
<text text-anchor="middle" x="70" y="-574.5" font-family="Helvetica,sans-Serif" font-size="10.00" fill="#000000">Map</text>
<polyline fill="none" stroke="#bfbfbf" points="52.5,-567.5 87.5,-567.5 "/>
<text text-anchor="middle" x="70" y="-555.5" font-family="Helvetica,sans-Serif" font-size="10.00" fill="#000000"> </text>
<polyline fill="none" stroke="#bfbfbf" points="52.5,-548.5 87.5,-548.5 "/>
<text text-anchor="middle" x="70" y="-536.5" font-family="Helvetica,sans-Serif" font-size="10.00" fill="#000000"> </text>
</g>
<!-- Node3&#45;&gt;Node2 -->
<g id="edge2" class="edge">
<title>Node3&#45;&gt;Node2</title>
<path fill="none" stroke="#ffa500" d="M70,-519.192C70,-506.7605 70,-493.2278 70,-481.657"/>
<polygon fill="#ffa500" stroke="#ffa500" points="66.5001,-519.3083 70,-529.3083 73.5001,-519.3083 66.5001,-519.3083"/>
<text text-anchor="middle" x="124" y="-503" font-family="Helvetica,sans-Serif" font-size="10.00" fill="#000000"> &lt; String, ObjectWriter &gt;</text>
</g>
<!-- Node4 -->
<g id="node4" class="node">
<title>Node4</title>
<polygon fill="none" stroke="#bfbfbf" points="158,-424.5 158,-481.5 212,-481.5 212,-424.5 158,-424.5"/>
<text text-anchor="middle" x="185" y="-469.5" font-family="Helvetica,sans-Serif" font-size="10.00" fill="#000000">FileFilter</text>
<polyline fill="none" stroke="#bfbfbf" points="158,-462.5 212,-462.5 "/>
<text text-anchor="middle" x="185" y="-450.5" font-family="Helvetica,sans-Serif" font-size="10.00" fill="#000000"> </text>
<polyline fill="none" stroke="#bfbfbf" points="158,-443.5 212,-443.5 "/>
<text text-anchor="middle" x="185" y="-431.5" font-family="Helvetica,sans-Serif" font-size="10.00" fill="#000000"> </text>
</g>
<!-- Node4&#45;&gt;Node1 -->
<g id="edge3" class="edge">
<title>Node4&#45;&gt;Node1</title>
<path fill="none" stroke="#404040" d="M184.1268,-424.4541C183.8002,-388.578 185.7967,-325.4659 201,-274 202.7562,-268.0548 204.7655,-262.0718 206.9725,-256.0999"/>
<polygon fill="none" stroke="#404040" points="207.0816,-255.8202 205.5377,-248.7763 211.4459,-244.642 212.9899,-251.6858 207.0816,-255.8202"/>
<text text-anchor="middle" x="236" y="-337.5" font-family="Helvetica,sans-Serif" font-size="10.00" fill="#000000"> +JSON_FILES</text>
</g>
<!-- Node5 -->
<g id="node5" class="node">
<title>Node5</title>
<polygon fill="none" stroke="#bfbfbf" points="244.5,-424.5 244.5,-481.5 305.5,-481.5 305.5,-424.5 244.5,-424.5"/>
<text text-anchor="middle" x="275" y="-469.5" font-family="Helvetica,sans-Serif" font-size="10.00" fill="#000000">JsonNode</text>
<polyline fill="none" stroke="#bfbfbf" points="244.5,-462.5 305.5,-462.5 "/>
<text text-anchor="middle" x="275" y="-450.5" font-family="Helvetica,sans-Serif" font-size="10.00" fill="#000000"> </text>
<polyline fill="none" stroke="#bfbfbf" points="244.5,-443.5 305.5,-443.5 "/>
<text text-anchor="middle" x="275" y="-431.5" font-family="Helvetica,sans-Serif" font-size="10.00" fill="#000000"> </text>
</g>
<!-- Node5&#45;&gt;Node1 -->
<g id="edge4" class="edge">
<title>Node5&#45;&gt;Node1</title>
<path fill="none" stroke="#404040" d="M275.2636,-424.4433C275.59,-389.085 276.1693,-326.3287 276.7111,-267.6335"/>
<polygon fill="none" stroke="#404040" points="276.7116,-267.5699 272.7672,-261.5332 276.8224,-255.5704 280.7668,-261.6071 276.7116,-267.5699"/>
<text text-anchor="middle" x="302" y="-337.5" font-family="Helvetica,sans-Serif" font-size="10.00" fill="#000000"> +MISSING</text>
</g>
<!-- Node6 -->
<g id="node6" class="node">
<title>Node6</title>
<polygon fill="none" stroke="#bfbfbf" points="324,-424.5 324,-481.5 402,-481.5 402,-424.5 324,-424.5"/>
<text text-anchor="middle" x="363" y="-469.5" font-family="Helvetica,sans-Serif" font-size="10.00" fill="#000000">FilenameFilter</text>
<polyline fill="none" stroke="#bfbfbf" points="324,-462.5 402,-462.5 "/>
<text text-anchor="middle" x="363" y="-450.5" font-family="Helvetica,sans-Serif" font-size="10.00" fill="#000000"> </text>
<polyline fill="none" stroke="#bfbfbf" points="324,-443.5 402,-443.5 "/>
<text text-anchor="middle" x="363" y="-431.5" font-family="Helvetica,sans-Serif" font-size="10.00" fill="#000000"> </text>
</g>
<!-- Node6&#45;&gt;Node1 -->
<g id="edge5" class="edge">
<title>Node6&#45;&gt;Node1</title>
<path fill="none" stroke="#404040" d="M359.6912,-424.4396C355.1914,-388.8152 346.0554,-326.2313 332,-274 331.4195,-271.8429 330.8203,-269.6729 330.204,-267.4931"/>
<polygon fill="none" stroke="#404040" points="330.1394,-267.273 324.6102,-262.6439 326.7566,-255.7596 332.2858,-260.3887 330.1394,-267.273"/>
<text text-anchor="middle" x="406.5" y="-337.5" font-family="Helvetica,sans-Serif" font-size="10.00" fill="#000000"> +JSON_FILENAMES</text>
</g>
<!-- Node7 -->
<g id="node7" class="node">
<title>Node7</title>
<polygon fill="none" stroke="#bfbfbf" points="442.5,-424.5 442.5,-481.5 519.5,-481.5 519.5,-424.5 442.5,-424.5"/>
<text text-anchor="middle" x="481" y="-469.5" font-family="Helvetica,sans-Serif" font-size="10.00" fill="#000000">ObjectMapper</text>
<polyline fill="none" stroke="#bfbfbf" points="442.5,-462.5 519.5,-462.5 "/>
<text text-anchor="middle" x="481" y="-450.5" font-family="Helvetica,sans-Serif" font-size="10.00" fill="#000000"> </text>
<polyline fill="none" stroke="#bfbfbf" points="442.5,-443.5 519.5,-443.5 "/>
<text text-anchor="middle" x="481" y="-431.5" font-family="Helvetica,sans-Serif" font-size="10.00" fill="#000000"> </text>
</g>
<!-- Node7&#45;&gt;Node1 -->
<g id="edge6" class="edge">
<title>Node7&#45;&gt;Node1</title>
<path fill="none" stroke="#404040" d="M483.819,-424.3273C486.1148,-387.2016 485.4606,-321.6223 459,-274 435.0721,-230.9358 392.8299,-195.7532 355.1699,-170.7231"/>
<polygon fill="none" stroke="#404040" points="354.7604,-170.4579 347.5499,-170.5535 344.6884,-163.9345 351.8989,-163.8389 354.7604,-170.4579"/>
<text text-anchor="start" x="484" y="-398" font-family="Helvetica,sans-Serif" font-size="10.00" fill="#000000"> +FULL_MAPPER_ALLOW</text>
<text text-anchor="middle" x="559.5" y="-387" font-family="Helvetica,sans-Serif" font-size="10.00" fill="#000000">_UNKNOWN_FIELDS</text>
<text text-anchor="middle" x="559.5" y="-376" font-family="Helvetica,sans-Serif" font-size="10.00" fill="#000000">+FULL_MAPPER</text>
<text text-anchor="middle" x="559.5" y="-365" font-family="Helvetica,sans-Serif" font-size="10.00" fill="#000000">+PUBLIC_MAPPER</text>
<text text-anchor="start" x="484" y="-354" font-family="Helvetica,sans-Serif" font-size="10.00" fill="#000000">+NOTNULL_MAPPER_ALLOW</text>
<text text-anchor="middle" x="559.5" y="-343" font-family="Helvetica,sans-Serif" font-size="10.00" fill="#000000">_EMPTY</text>
<text text-anchor="middle" x="559.5" y="-332" font-family="Helvetica,sans-Serif" font-size="10.00" fill="#000000">+NOTNULL_MAPPER</text>
<text text-anchor="start" x="484" y="-321" font-family="Helvetica,sans-Serif" font-size="10.00" fill="#000000">+FULL_MAPPER_ALLOW</text>
<text text-anchor="start" x="484" y="-310" font-family="Helvetica,sans-Serif" font-size="10.00" fill="#000000">_COMMENTS_AND_UNKNOWN</text>
<text text-anchor="middle" x="559.5" y="-299" font-family="Helvetica,sans-Serif" font-size="10.00" fill="#000000">_FIELDS</text>
<text text-anchor="start" x="484" y="-288" font-family="Helvetica,sans-Serif" font-size="10.00" fill="#000000">+FULL_MAPPER_ALLOW</text>
<text text-anchor="middle" x="559.5" y="-277" font-family="Helvetica,sans-Serif" font-size="10.00" fill="#000000">_COMMENTS</text>
</g>
</g>
</svg>
