<?xml version="1.0" encoding="UTF-8" standalone="no"?>
<!DOCTYPE svg PUBLIC "-//W3C//DTD SVG 1.1//EN"
 "http://www.w3.org/Graphics/SVG/1.1/DTD/svg11.dtd">
<!-- Generated by graphviz version 2.40.1 (20161225.0304)
 -->
<!-- Title: org.cobbzilla.util.network.NetworkPort Pages: 1 -->
<svg width="282pt" height="226pt"
 viewBox="0.00 0.00 282.00 226.00" xmlns="http://www.w3.org/2000/svg" xmlns:xlink="http://www.w3.org/1999/xlink">
<g id="graph0" class="graph" transform="scale(1 1) rotate(0) translate(4 222)">
<title>org.cobbzilla.util.network.NetworkPort</title>
<!-- Node1 -->
<g id="node1" class="node">
<title>Node1</title>
<polygon fill="#bfbfbf" stroke="#000000" points="73,-.5 73,-68.5 201,-68.5 201,-.5 73,-.5"/>
<text text-anchor="start" x="81" y="-56.5" font-family="Helvetica,sans-Serif" font-size="10.00" fill="#000000">org.cobbzilla.util.network.</text>
<text text-anchor="middle" x="137" y="-45.5" font-family="Helvetica,sans-Serif" font-size="10.00" fill="#000000">NetworkPort</text>
<polyline fill="none" stroke="#000000" points="73,-38.5 201,-38.5 "/>
<text text-anchor="start" x="81" y="-26.5" font-family="Helvetica,sans-Serif" font-size="10.00" fill="#000000">~ port</text>
<polyline fill="none" stroke="#000000" points="73,-19.5 201,-19.5 "/>
<text text-anchor="middle" x="137" y="-7.5" font-family="Helvetica,sans-Serif" font-size="10.00" fill="#000000"> </text>
</g>
<!-- Node2 -->
<g id="node2" class="node">
<title>Node2</title>
<g id="a_node2"><a xlink:href="../../d1/d24/enumorg_1_1cobbzilla_1_1util_1_1network_1_1TransportProtocol.html" target="_top" xlink:title="{org.cobbzilla.util.network.\lTransportProtocol\n|+ icmp\l+ udp\l|+ create()\l}">
<polygon fill="none" stroke="#000000" points="0,-127.5 0,-206.5 128,-206.5 128,-127.5 0,-127.5"/>
<text text-anchor="start" x="8" y="-194.5" font-family="Helvetica,sans-Serif" font-size="10.00" fill="#000000">org.cobbzilla.util.network.</text>
<text text-anchor="middle" x="64" y="-183.5" font-family="Helvetica,sans-Serif" font-size="10.00" fill="#000000">TransportProtocol</text>
<polyline fill="none" stroke="#000000" points="0,-176.5 128,-176.5 "/>
<text text-anchor="start" x="8" y="-164.5" font-family="Helvetica,sans-Serif" font-size="10.00" fill="#000000">+ icmp</text>
<text text-anchor="start" x="8" y="-153.5" font-family="Helvetica,sans-Serif" font-size="10.00" fill="#000000">+ udp</text>
<polyline fill="none" stroke="#000000" points="0,-146.5 128,-146.5 "/>
<text text-anchor="start" x="8" y="-134.5" font-family="Helvetica,sans-Serif" font-size="10.00" fill="#000000">+ create()</text>
</a>
</g>
</g>
<!-- Node2&#45;&gt;Node1 -->
<g id="edge1" class="edge">
<title>Node2&#45;&gt;Node1</title>
<path fill="none" stroke="#404040" d="M85.9024,-127.2456C94.1483,-112.2788 103.5843,-95.1518 112.0849,-79.7226"/>
<polygon fill="none" stroke="#404040" points="112.2883,-79.3533 111.6802,-72.1678 118.079,-68.8429 118.6872,-76.0283 112.2883,-79.3533"/>
<text text-anchor="middle" x="130" y="-90" font-family="Helvetica,sans-Serif" font-size="10.00" fill="#000000"> ~protocol</text>
</g>
<!-- Node3 -->
<g id="node3" class="node">
<title>Node3</title>
<g id="a_node3"><a xlink:href="../../d4/dcf/enumorg_1_1cobbzilla_1_1util_1_1network_1_1NetworkInterfaceType.html" target="_top" xlink:title="{org.cobbzilla.util.network.\lNetworkInterfaceType\n|+ local\l+ world\l+ vpn\l+ vpn2\l|+ create()\l}">
<polygon fill="none" stroke="#000000" points="146,-116.5 146,-217.5 274,-217.5 274,-116.5 146,-116.5"/>
<text text-anchor="start" x="154" y="-205.5" font-family="Helvetica,sans-Serif" font-size="10.00" fill="#000000">org.cobbzilla.util.network.</text>
<text text-anchor="middle" x="210" y="-194.5" font-family="Helvetica,sans-Serif" font-size="10.00" fill="#000000">NetworkInterfaceType</text>
<polyline fill="none" stroke="#000000" points="146,-187.5 274,-187.5 "/>
<text text-anchor="start" x="154" y="-175.5" font-family="Helvetica,sans-Serif" font-size="10.00" fill="#000000">+ local</text>
<text text-anchor="start" x="154" y="-164.5" font-family="Helvetica,sans-Serif" font-size="10.00" fill="#000000">+ world</text>
<text text-anchor="start" x="154" y="-153.5" font-family="Helvetica,sans-Serif" font-size="10.00" fill="#000000">+ vpn</text>
<text text-anchor="start" x="154" y="-142.5" font-family="Helvetica,sans-Serif" font-size="10.00" fill="#000000">+ vpn2</text>
<polyline fill="none" stroke="#000000" points="146,-135.5 274,-135.5 "/>
<text text-anchor="start" x="154" y="-123.5" font-family="Helvetica,sans-Serif" font-size="10.00" fill="#000000">+ create()</text>
</a>
</g>
</g>
<!-- Node3&#45;&gt;Node1 -->
<g id="edge2" class="edge">
<title>Node3&#45;&gt;Node1</title>
<path fill="none" stroke="#404040" d="M181.9851,-116.151C175.2741,-103.9702 168.1581,-91.054 161.6142,-79.1764"/>
<polygon fill="none" stroke="#404040" points="161.5841,-79.1217 155.1853,-75.7967 155.7934,-68.6113 162.1922,-71.9363 161.5841,-79.1217"/>
<text text-anchor="middle" x="186.5" y="-90" font-family="Helvetica,sans-Serif" font-size="10.00" fill="#000000"> ~iface</text>
</g>
</g>
</svg>
