<?xml version="1.0" encoding="UTF-8" standalone="no"?>
<!DOCTYPE svg PUBLIC "-//W3C//DTD SVG 1.1//EN"
 "http://www.w3.org/Graphics/SVG/1.1/DTD/svg11.dtd">
<!-- Generated by graphviz version 2.40.1 (20161225.0304)
 -->
<!-- Title: org.cobbzilla.util.collection.StringSetSource Pages: 1 -->
<svg width="356pt" height="608pt"
 viewBox="0.00 0.00 356.00 608.00" xmlns="http://www.w3.org/2000/svg" xmlns:xlink="http://www.w3.org/1999/xlink">
<g id="graph0" class="graph" transform="scale(1 1) rotate(0) translate(4 604)">
<title>org.cobbzilla.util.collection.StringSetSource</title>
<!-- Node5 -->
<g id="node1" class="node">
<title>Node5</title>
<polygon fill="#bfbfbf" stroke="#000000" points="33,-.5 33,-68.5 167,-68.5 167,-.5 33,-.5"/>
<text text-anchor="start" x="41" y="-56.5" font-family="Helvetica,sans-Serif" font-size="10.00" fill="#000000">org.cobbzilla.util.collection.</text>
<text text-anchor="middle" x="100" y="-45.5" font-family="Helvetica,sans-Serif" font-size="10.00" fill="#000000">StringSetSource</text>
<polyline fill="none" stroke="#000000" points="33,-38.5 167,-38.5 "/>
<text text-anchor="middle" x="100" y="-26.5" font-family="Helvetica,sans-Serif" font-size="10.00" fill="#000000"> </text>
<polyline fill="none" stroke="#000000" points="33,-19.5 167,-19.5 "/>
<text text-anchor="middle" x="100" y="-7.5" font-family="Helvetica,sans-Serif" font-size="10.00" fill="#000000"> </text>
</g>
<!-- Node6 -->
<g id="node2" class="node">
<title>Node6</title>
<g id="a_node2"><a xlink:href="../../dd/de6/classorg_1_1cobbzilla_1_1util_1_1collection_1_1SetSourceBase.html" target="_top" xlink:title="{org.cobbzilla.util.collection.\lSetSourceBase\&lt; String \&gt;\n|&#45; values\l|+ getValues()\l+ addValue()\l+ addValues()\l+ toString()\l}">
<polygon fill="none" stroke="#000000" points="33,-106.5 33,-207.5 167,-207.5 167,-106.5 33,-106.5"/>
<text text-anchor="start" x="41" y="-195.5" font-family="Helvetica,sans-Serif" font-size="10.00" fill="#000000">org.cobbzilla.util.collection.</text>
<text text-anchor="middle" x="100" y="-184.5" font-family="Helvetica,sans-Serif" font-size="10.00" fill="#000000">SetSourceBase&lt; String &gt;</text>
<polyline fill="none" stroke="#000000" points="33,-177.5 167,-177.5 "/>
<text text-anchor="start" x="41" y="-165.5" font-family="Helvetica,sans-Serif" font-size="10.00" fill="#000000">&#45; values</text>
<polyline fill="none" stroke="#000000" points="33,-158.5 167,-158.5 "/>
<text text-anchor="start" x="41" y="-146.5" font-family="Helvetica,sans-Serif" font-size="10.00" fill="#000000">+ getValues()</text>
<text text-anchor="start" x="41" y="-135.5" font-family="Helvetica,sans-Serif" font-size="10.00" fill="#000000">+ addValue()</text>
<text text-anchor="start" x="41" y="-124.5" font-family="Helvetica,sans-Serif" font-size="10.00" fill="#000000">+ addValues()</text>
<text text-anchor="start" x="41" y="-113.5" font-family="Helvetica,sans-Serif" font-size="10.00" fill="#000000">+ toString()</text>
</a>
</g>
</g>
<!-- Node6&#45;&gt;Node5 -->
<g id="edge1" class="edge">
<title>Node6&#45;&gt;Node5</title>
<path fill="none" stroke="#191970" d="M100,-96.186C100,-86.6659 100,-77.1318 100,-68.5036"/>
<polygon fill="none" stroke="#191970" points="96.5001,-96.4673 100,-106.4673 103.5001,-96.4674 96.5001,-96.4673"/>
</g>
<!-- Node7 -->
<g id="node3" class="node">
<title>Node7</title>
<g id="a_node3"><a xlink:href="../../dd/de6/classorg_1_1cobbzilla_1_1util_1_1collection_1_1SetSourceBase.html" target="_top" xlink:title="{org.cobbzilla.util.collection.\lSetSourceBase\&lt; T \&gt;\n||+ getValues()\l+ addValue()\l+ addValues()\l+ toString()\l}">
<polygon fill="none" stroke="#000000" points="33,-255.5 33,-356.5 167,-356.5 167,-255.5 33,-255.5"/>
<text text-anchor="start" x="41" y="-344.5" font-family="Helvetica,sans-Serif" font-size="10.00" fill="#000000">org.cobbzilla.util.collection.</text>
<text text-anchor="middle" x="100" y="-333.5" font-family="Helvetica,sans-Serif" font-size="10.00" fill="#000000">SetSourceBase&lt; T &gt;</text>
<polyline fill="none" stroke="#000000" points="33,-326.5 167,-326.5 "/>
<text text-anchor="middle" x="100" y="-314.5" font-family="Helvetica,sans-Serif" font-size="10.00" fill="#000000"> </text>
<polyline fill="none" stroke="#000000" points="33,-307.5 167,-307.5 "/>
<text text-anchor="start" x="41" y="-295.5" font-family="Helvetica,sans-Serif" font-size="10.00" fill="#000000">+ getValues()</text>
<text text-anchor="start" x="41" y="-284.5" font-family="Helvetica,sans-Serif" font-size="10.00" fill="#000000">+ addValue()</text>
<text text-anchor="start" x="41" y="-273.5" font-family="Helvetica,sans-Serif" font-size="10.00" fill="#000000">+ addValues()</text>
<text text-anchor="start" x="41" y="-262.5" font-family="Helvetica,sans-Serif" font-size="10.00" fill="#000000">+ toString()</text>
</a>
</g>
</g>
<!-- Node7&#45;&gt;Node6 -->
<g id="edge2" class="edge">
<title>Node7&#45;&gt;Node6</title>
<path fill="none" stroke="#ffa500" d="M100,-244.8874C100,-232.5023 100,-219.6068 100,-207.6314"/>
<polygon fill="#ffa500" stroke="#ffa500" points="96.5001,-245.1394 100,-255.1394 103.5001,-245.1394 96.5001,-245.1394"/>
<text text-anchor="middle" x="123.5" y="-229" font-family="Helvetica,sans-Serif" font-size="10.00" fill="#000000"> &lt; String &gt;</text>
</g>
<!-- Node8 -->
<g id="node4" class="node">
<title>Node8</title>
<g id="a_node4"><a xlink:href="../../d9/df4/interfaceorg_1_1cobbzilla_1_1util_1_1collection_1_1CollectionSource.html" target="_top" xlink:title="{org::cobbzilla::util\l::collection::CollectionSource\&lt; T \&gt;\n||+ addValue()\l+ addValues()\l+ getValues()\l}">
<polygon fill="none" stroke="#000000" points="0,-404.5 0,-494.5 168,-494.5 168,-404.5 0,-404.5"/>
<text text-anchor="start" x="8" y="-482.5" font-family="Helvetica,sans-Serif" font-size="10.00" fill="#000000">org::cobbzilla::util</text>
<text text-anchor="middle" x="84" y="-471.5" font-family="Helvetica,sans-Serif" font-size="10.00" fill="#000000">::collection::CollectionSource&lt; T &gt;</text>
<polyline fill="none" stroke="#000000" points="0,-464.5 168,-464.5 "/>
<text text-anchor="middle" x="84" y="-452.5" font-family="Helvetica,sans-Serif" font-size="10.00" fill="#000000"> </text>
<polyline fill="none" stroke="#000000" points="0,-445.5 168,-445.5 "/>
<text text-anchor="start" x="8" y="-433.5" font-family="Helvetica,sans-Serif" font-size="10.00" fill="#000000">+ addValue()</text>
<text text-anchor="start" x="8" y="-422.5" font-family="Helvetica,sans-Serif" font-size="10.00" fill="#000000">+ addValues()</text>
<text text-anchor="start" x="8" y="-411.5" font-family="Helvetica,sans-Serif" font-size="10.00" fill="#000000">+ getValues()</text>
</a>
</g>
</g>
<!-- Node8&#45;&gt;Node7 -->
<g id="edge3" class="edge">
<title>Node8&#45;&gt;Node7</title>
<path fill="none" stroke="#191970" d="M90.1573,-394.2769C91.5392,-381.8828 92.9987,-368.7929 94.3584,-356.5983"/>
<polygon fill="none" stroke="#191970" points="86.6484,-394.1631 89.0186,-404.4894 93.6052,-394.9389 86.6484,-394.1631"/>
</g>
<!-- Node9 -->
<g id="node5" class="node">
<title>Node9</title>
<polygon fill="none" stroke="#bfbfbf" points="186.5,-415.5 186.5,-483.5 331.5,-483.5 331.5,-415.5 186.5,-415.5"/>
<text text-anchor="start" x="194.5" y="-471.5" font-family="Helvetica,sans-Serif" font-size="10.00" fill="#000000">AtomicReference&lt; Collection</text>
<text text-anchor="middle" x="259" y="-460.5" font-family="Helvetica,sans-Serif" font-size="10.00" fill="#000000">&lt; T &gt; &gt;</text>
<polyline fill="none" stroke="#bfbfbf" points="186.5,-453.5 331.5,-453.5 "/>
<text text-anchor="middle" x="259" y="-441.5" font-family="Helvetica,sans-Serif" font-size="10.00" fill="#000000"> </text>
<polyline fill="none" stroke="#bfbfbf" points="186.5,-434.5 331.5,-434.5 "/>
<text text-anchor="middle" x="259" y="-422.5" font-family="Helvetica,sans-Serif" font-size="10.00" fill="#000000"> </text>
</g>
<!-- Node9&#45;&gt;Node7 -->
<g id="edge4" class="edge">
<title>Node9&#45;&gt;Node7</title>
<path fill="none" stroke="#404040" d="M221.3192,-415.4925C204.5124,-400.324 184.2196,-382.0095 165.0804,-364.7361"/>
<polygon fill="none" stroke="#404040" points="165.0008,-364.6643 157.8666,-363.6137 156.0924,-356.6243 163.2266,-357.6748 165.0008,-364.6643"/>
<text text-anchor="middle" x="201.5" y="-378" font-family="Helvetica,sans-Serif" font-size="10.00" fill="#000000"> &#45;values</text>
</g>
<!-- Node10 -->
<g id="node6" class="node">
<title>Node10</title>
<polygon fill="none" stroke="#bfbfbf" points="213,-542.5 213,-599.5 305,-599.5 305,-542.5 213,-542.5"/>
<text text-anchor="middle" x="259" y="-587.5" font-family="Helvetica,sans-Serif" font-size="10.00" fill="#000000">AtomicReference</text>
<polyline fill="none" stroke="#bfbfbf" points="213,-580.5 305,-580.5 "/>
<text text-anchor="middle" x="259" y="-568.5" font-family="Helvetica,sans-Serif" font-size="10.00" fill="#000000"> </text>
<polyline fill="none" stroke="#bfbfbf" points="213,-561.5 305,-561.5 "/>
<text text-anchor="middle" x="259" y="-549.5" font-family="Helvetica,sans-Serif" font-size="10.00" fill="#000000"> </text>
</g>
<!-- Node10&#45;&gt;Node9 -->
<g id="edge5" class="edge">
<title>Node10&#45;&gt;Node9</title>
<path fill="none" stroke="#ffa500" d="M259,-531.8733C259,-516.3628 259,-498.6896 259,-483.7007"/>
<polygon fill="#ffa500" stroke="#ffa500" points="255.5001,-532.2062 259,-542.2062 262.5001,-532.2062 255.5001,-532.2062"/>
<text text-anchor="middle" x="303.5" y="-516" font-family="Helvetica,sans-Serif" font-size="10.00" fill="#000000"> &lt; Collection&lt; T &gt; &gt;</text>
</g>
</g>
</svg>
