<?xml version="1.0" encoding="UTF-8" standalone="no"?>
<!DOCTYPE svg PUBLIC "-//W3C//DTD SVG 1.1//EN"
 "http://www.w3.org/Graphics/SVG/1.1/DTD/svg11.dtd">
<!-- Generated by graphviz version 2.40.1 (20161225.0304)
 -->
<!-- Title: org.cobbzilla.util.io.FileUtil.createTempDir Pages: 1 -->
<svg width="357pt" height="88pt"
 viewBox="0.00 0.00 357.00 88.00" xmlns="http://www.w3.org/2000/svg" xmlns:xlink="http://www.w3.org/1999/xlink">
<g id="graph0" class="graph" transform="scale(1 1) rotate(0) translate(4 84)">
<title>org.cobbzilla.util.io.FileUtil.createTempDir</title>
<!-- Node1 -->
<g id="node1" class="node">
<title>Node1</title>
<polygon fill="#bfbfbf" stroke="#000000" points="0,-24.5 0,-54.5 116,-54.5 116,-24.5 0,-24.5"/>
<text text-anchor="start" x="8" y="-42.5" font-family="Helvetica,sans-Serif" font-size="10.00" fill="#000000">org.cobbzilla.util.io.File</text>
<text text-anchor="middle" x="58" y="-31.5" font-family="Helvetica,sans-Serif" font-size="10.00" fill="#000000">Util.createTempDir</text>
</g>
<!-- Node2 -->
<g id="node2" class="node">
<title>Node2</title>
<g id="a_node2"><a xlink:href="../../df/dac/classorg_1_1cobbzilla_1_1util_1_1io_1_1FileUtil_af51f4fa114948f6e647891a2378ce991.html#af51f4fa114948f6e647891a2378ce991" target="_top" xlink:title="org.cobbzilla.util.io.File\lUtil.createTempDirOrDie">
<polygon fill="none" stroke="#000000" points="188,-49.5 188,-79.5 313,-79.5 313,-49.5 188,-49.5"/>
<text text-anchor="start" x="196" y="-67.5" font-family="Helvetica,sans-Serif" font-size="10.00" fill="#000000">org.cobbzilla.util.io.File</text>
<text text-anchor="middle" x="250.5" y="-56.5" font-family="Helvetica,sans-Serif" font-size="10.00" fill="#000000">Util.createTempDirOrDie</text>
</a>
</g>
</g>
<!-- Node1&#45;&gt;Node2 -->
<g id="edge1" class="edge">
<title>Node1&#45;&gt;Node2</title>
<path fill="none" stroke="#191970" d="M126.0505,-48.3377C146.1886,-50.9531 168.1331,-53.803 187.9088,-56.3713"/>
<polygon fill="#191970" stroke="#191970" points="126.3849,-44.8518 116.0174,-47.0347 125.4833,-51.7936 126.3849,-44.8518"/>
</g>
<!-- Node3 -->
<g id="node3" class="node">
<title>Node3</title>
<g id="a_node3"><a xlink:href="../../df/d92/classorg_1_1cobbzilla_1_1util_1_1mustache_1_1LocaleAwareMustacheFactoryTest_aecab5c9207d5dfbcc63d503d2a106a9a.html#aecab5c9207d5dfbcc63d503d2a106a9a" target="_top" xlink:title="org.cobbzilla.util.mustache.\lLocaleAwareMustacheFactoryTest.setUp">
<polygon fill="none" stroke="#000000" points="152,-.5 152,-30.5 349,-30.5 349,-.5 152,-.5"/>
<text text-anchor="start" x="160" y="-18.5" font-family="Helvetica,sans-Serif" font-size="10.00" fill="#000000">org.cobbzilla.util.mustache.</text>
<text text-anchor="middle" x="250.5" y="-7.5" font-family="Helvetica,sans-Serif" font-size="10.00" fill="#000000">LocaleAwareMustacheFactoryTest.setUp</text>
</a>
</g>
</g>
<!-- Node1&#45;&gt;Node3 -->
<g id="edge2" class="edge">
<title>Node1&#45;&gt;Node3</title>
<path fill="none" stroke="#191970" d="M126.1003,-31.0096C134.5102,-29.9611 143.2346,-28.8734 151.9839,-27.7825"/>
<polygon fill="#191970" stroke="#191970" points="125.5075,-27.5563 116.0174,-32.2667 126.3736,-34.5025 125.5075,-27.5563"/>
</g>
</g>
</svg>
