<?xml version="1.0" encoding="UTF-8" standalone="no"?>
<!DOCTYPE svg PUBLIC "-//W3C//DTD SVG 1.1//EN"
 "http://www.w3.org/Graphics/SVG/1.1/DTD/svg11.dtd">
<!-- Generated by graphviz version 2.40.1 (20161225.0304)
 -->
<!-- Title: org.cobbzilla.util.io.FileUtil.toStringOrDie Pages: 1 -->
<!--zoomable 393 -->
<svg id="main" version="1.1" xmlns="http://www.w3.org/2000/svg" xmlns:xlink="http://www.w3.org/1999/xlink" xml:space="preserve" onload="init(evt)">
<style type="text/css"><![CDATA[
.edge:hover path { stroke: red; }
.edge:hover polygon { stroke: red; fill: red; }
]]></style>
<script type="text/javascript"><![CDATA[
var edges = document.getElementsByTagName('g');
if (edges && edges.length) {
  for (var i=0;i<edges.length;i++) {
    if (edges[i].id.substr(0,4)=='edge') {
      edges[i].setAttribute('class','edge');
    }
  }
}
]]></script>
        <defs>
                <circle id="rim" cx="0" cy="0" r="7"/>
                <circle id="rim2" cx="0" cy="0" r="3.5"/>
                <g id="zoomPlus">
                        <use xlink:href="#rim" fill="#404040">
                                <set attributeName="fill" to="#808080" begin="zoomplus.mouseover" end="zoomplus.mouseout"/>
                        </use>
                        <path d="M-4,0h8M0,-4v8" fill="none" stroke="white" stroke-width="1.5" pointer-events="none"/>
                </g>
                <g id="zoomMin">
                        <use xlink:href="#rim" fill="#404040">
                                <set attributeName="fill" to="#808080" begin="zoomminus.mouseover" end="zoomminus.mouseout"/>
                        </use>
                        <path d="M-4,0h8" fill="none" stroke="white" stroke-width="1.5" pointer-events="none"/>
                </g>
                <g id="dirArrow">
                        <path fill="none" stroke="white" stroke-width="1.5" d="M0,-3.0v7 M-2.5,-0.5L0,-3.0L2.5,-0.5"/>
                </g>
               <g id="resetDef">
                       <use xlink:href="#rim2" fill="#404040">
                               <set attributeName="fill" to="#808080" begin="reset.mouseover" end="reset.mouseout"/>
                       </use>
               </g>
        </defs>

<script type="text/javascript">
var viewWidth = 644;
var viewHeight = 393;
var sectionId = 'dynsection-0';
</script>
<script xlink:href="../../svgpan.js"/>
<svg id="graph" class="graph">
<g id="viewport">
<title>org.cobbzilla.util.io.FileUtil.toStringOrDie</title>
<!-- Node1 -->
<g id="node1" class="node">
<title>Node1</title>
<polygon fill="#bfbfbf" stroke="#000000" points="0,-111.5 0,-141.5 116,-141.5 116,-111.5 0,-111.5"/>
<text text-anchor="start" x="8" y="-129.5" font-family="Helvetica,sans-Serif" font-size="10.00" fill="#000000">org.cobbzilla.util.io.File</text>
<text text-anchor="middle" x="58" y="-118.5" font-family="Helvetica,sans-Serif" font-size="10.00" fill="#000000">Util.toStringOrDie</text>
</g>
<!-- Node2 -->
<g id="node2" class="node">
<title>Node2</title>
<g id="a_node2"><a xlink:href="../../dc/d81/classorg_1_1cobbzilla_1_1util_1_1io_1_1StreamUtil_a210eaddec694c1e14c3f0de73e6c0df4.html#a210eaddec694c1e14c3f0de73e6c0df4" target="_top" xlink:title="org.cobbzilla.util.io.Stream\lUtil.fromClasspathOrFilesystem">
<polygon fill="none" stroke="#000000" points="152,-231.5 152,-261.5 309,-261.5 309,-231.5 152,-231.5"/>
<text text-anchor="start" x="160" y="-249.5" font-family="Helvetica,sans-Serif" font-size="10.00" fill="#000000">org.cobbzilla.util.io.Stream</text>
<text text-anchor="middle" x="230.5" y="-238.5" font-family="Helvetica,sans-Serif" font-size="10.00" fill="#000000">Util.fromClasspathOrFilesystem</text>
</a>
</g>
</g>
<!-- Node1&#45;&gt;Node2 -->
<g id="edge1" class="edge">
<title>Node1&#45;&gt;Node2</title>
<path fill="none" stroke="#191970" d="M75.2155,-149.8718C92.3928,-171.6202 120.6807,-203.4564 152,-222.5 157.6013,-225.9059 163.7243,-228.8627 170.0005,-231.4218"/>
<polygon fill="#191970" stroke="#191970" points="77.8631,-147.5738 68.9812,-141.7978 72.3225,-151.8519 77.8631,-147.5738"/>
</g>
<!-- Node3 -->
<g id="node3" class="node">
<title>Node3</title>
<g id="a_node3"><a xlink:href="../../dc/d2c/classorg_1_1cobbzilla_1_1util_1_1json_1_1JsonUtil_afa60fed1f5aa26f6b3806c8d7c9cbea5.html#afa60fed1f5aa26f6b3806c8d7c9cbea5" target="_top" xlink:title="org.cobbzilla.util.json.\lJsonUtil.fromJsonOrDie">
<polygon fill="none" stroke="#000000" points="169.5,-182.5 169.5,-212.5 291.5,-212.5 291.5,-182.5 169.5,-182.5"/>
<text text-anchor="start" x="177.5" y="-200.5" font-family="Helvetica,sans-Serif" font-size="10.00" fill="#000000">org.cobbzilla.util.json.</text>
<text text-anchor="middle" x="230.5" y="-189.5" font-family="Helvetica,sans-Serif" font-size="10.00" fill="#000000">JsonUtil.fromJsonOrDie</text>
</a>
</g>
</g>
<!-- Node1&#45;&gt;Node3 -->
<g id="edge2" class="edge">
<title>Node1&#45;&gt;Node3</title>
<path fill="none" stroke="#191970" d="M103.8362,-145.3659C132.0354,-156.9725 167.6817,-171.6444 193.9699,-182.4644"/>
<polygon fill="#191970" stroke="#191970" points="105.1623,-142.1269 94.5828,-141.5573 102.498,-148.6001 105.1623,-142.1269"/>
</g>
<!-- Node10 -->
<g id="node10" class="node">
<title>Node10</title>
<g id="a_node10"><a xlink:href="../../dc/d2c/classorg_1_1cobbzilla_1_1util_1_1json_1_1JsonUtil_acf8269fbc2da4585b2735bdfdc63a360.html#acf8269fbc2da4585b2735bdfdc63a360" target="_top" xlink:title="org.cobbzilla.util.json.\lJsonUtil.toNode">
<polygon fill="none" stroke="#000000" points="361.5,-109.5 361.5,-139.5 472.5,-139.5 472.5,-109.5 361.5,-109.5"/>
<text text-anchor="start" x="369.5" y="-127.5" font-family="Helvetica,sans-Serif" font-size="10.00" fill="#000000">org.cobbzilla.util.json.</text>
<text text-anchor="middle" x="417" y="-116.5" font-family="Helvetica,sans-Serif" font-size="10.00" fill="#000000">JsonUtil.toNode</text>
</a>
</g>
</g>
<!-- Node1&#45;&gt;Node10 -->
<g id="edge14" class="edge">
<title>Node1&#45;&gt;Node10</title>
<path fill="none" stroke="#191970" d="M126.291,-126.1195C194.4842,-125.7396 298.0142,-125.1629 361.367,-124.8099"/>
<polygon fill="#191970" stroke="#191970" points="126.0589,-122.6207 116.0786,-126.1764 126.0979,-129.6206 126.0589,-122.6207"/>
</g>
<!-- Node11 -->
<g id="node11" class="node">
<title>Node11</title>
<g id="a_node11"><a xlink:href="../../db/db0/classorg_1_1cobbzilla_1_1util_1_1io_1_1main_1_1JarTrimmerOptions_a1226c0e214a397a912ed07585300d230.html#a1226c0e214a397a912ed07585300d230" target="_top" xlink:title="org.cobbzilla.util.io.main.\lJarTrimmerOptions.getConfig">
<polygon fill="none" stroke="#000000" points="158,-67.5 158,-97.5 303,-97.5 303,-67.5 158,-67.5"/>
<text text-anchor="start" x="166" y="-85.5" font-family="Helvetica,sans-Serif" font-size="10.00" fill="#000000">org.cobbzilla.util.io.main.</text>
<text text-anchor="middle" x="230.5" y="-74.5" font-family="Helvetica,sans-Serif" font-size="10.00" fill="#000000">JarTrimmerOptions.getConfig</text>
</a>
</g>
</g>
<!-- Node1&#45;&gt;Node11 -->
<g id="edge10" class="edge">
<title>Node1&#45;&gt;Node11</title>
<path fill="none" stroke="#191970" d="M126.1411,-109.1191C141.1627,-105.2875 156.9517,-101.2601 171.5726,-97.5308"/>
<polygon fill="#191970" stroke="#191970" points="125.2253,-105.7405 116.4006,-111.6036 126.9555,-112.5234 125.2253,-105.7405"/>
</g>
<!-- Node13 -->
<g id="node13" class="node">
<title>Node13</title>
<g id="a_node13"><a xlink:href="../../d2/d89/classorg_1_1cobbzilla_1_1util_1_1xml_1_1TidyUtil_a6697d68417434e943c0e7f642224f605.html#a6697d68417434e943c0e7f642224f605" target="_top" xlink:title="org.cobbzilla.util.xml.Tidy\lUtil.tidy">
<polygon fill="none" stroke="#000000" points="166.5,-.5 166.5,-30.5 294.5,-30.5 294.5,-.5 166.5,-.5"/>
<text text-anchor="start" x="174.5" y="-18.5" font-family="Helvetica,sans-Serif" font-size="10.00" fill="#000000">org.cobbzilla.util.xml.Tidy</text>
<text text-anchor="middle" x="230.5" y="-7.5" font-family="Helvetica,sans-Serif" font-size="10.00" fill="#000000">Util.tidy</text>
</a>
</g>
</g>
<!-- Node1&#45;&gt;Node13 -->
<g id="edge12" class="edge">
<title>Node1&#45;&gt;Node13</title>
<path fill="none" stroke="#191970" d="M84.8339,-105.2217C103.2582,-91.0106 128.5323,-72.2865 152,-57.5 167.3003,-47.8596 185.012,-38.2583 199.7351,-30.674"/>
<polygon fill="#191970" stroke="#191970" points="82.6289,-102.5025 76.8817,-111.4031 86.925,-108.0292 82.6289,-102.5025"/>
</g>
<!-- Node4 -->
<g id="node4" class="node">
<title>Node4</title>
<g id="a_node4"><a xlink:href="../../d3/d9f/classorg_1_1cobbzilla_1_1util_1_1http_1_1HttpResponseBean_a785b5260bd743d27696b3535a5c3a664.html#a785b5260bd743d27696b3535a5c3a664" target="_top" xlink:title="org.cobbzilla.util.http.\lHttpResponseBean.getEntity">
<polygon fill="none" stroke="#000000" points="345,-354.5 345,-384.5 489,-384.5 489,-354.5 345,-354.5"/>
<text text-anchor="start" x="353" y="-372.5" font-family="Helvetica,sans-Serif" font-size="10.00" fill="#000000">org.cobbzilla.util.http.</text>
<text text-anchor="middle" x="417" y="-361.5" font-family="Helvetica,sans-Serif" font-size="10.00" fill="#000000">HttpResponseBean.getEntity</text>
</a>
</g>
</g>
<!-- Node3&#45;&gt;Node4 -->
<g id="edge3" class="edge">
<title>Node3&#45;&gt;Node4</title>
<path fill="none" stroke="#191970" d="M300.7035,-215.5171C303.6838,-217.5963 306.475,-219.9148 309,-222.5 348.7991,-263.249 305.4756,-304.4846 345,-345.5 348.2914,-348.9156 352.081,-351.8452 356.1635,-354.3579"/>
<polygon fill="#191970" stroke="#191970" points="302.2529,-212.3666 291.8679,-210.2685 298.6779,-218.3848 302.2529,-212.3666"/>
</g>
<!-- Node6 -->
<g id="node6" class="node">
<title>Node6</title>
<g id="a_node6"><a xlink:href="../../dc/d2c/classorg_1_1cobbzilla_1_1util_1_1json_1_1JsonUtil_ac9c9842a3a7fc103b770c6f6bd9fd989.html#ac9c9842a3a7fc103b770c6f6bd9fd989" target="_top" xlink:title="org.cobbzilla.util.json.\lJsonUtil.json">
<polygon fill="none" stroke="#000000" points="361.5,-305.5 361.5,-335.5 472.5,-335.5 472.5,-305.5 361.5,-305.5"/>
<text text-anchor="start" x="369.5" y="-323.5" font-family="Helvetica,sans-Serif" font-size="10.00" fill="#000000">org.cobbzilla.util.json.</text>
<text text-anchor="middle" x="417" y="-312.5" font-family="Helvetica,sans-Serif" font-size="10.00" fill="#000000">JsonUtil.json</text>
</a>
</g>
</g>
<!-- Node3&#45;&gt;Node6 -->
<g id="edge5" class="edge">
<title>Node3&#45;&gt;Node6</title>
<path fill="none" stroke="#191970" d="M300.8467,-216.4653C303.7211,-218.2951 306.458,-220.301 309,-222.5 336.6609,-246.4281 317.5004,-272.3867 345,-296.5 349.8544,-300.7566 355.4883,-304.263 361.4254,-307.1505"/>
<polygon fill="#191970" stroke="#191970" points="302.3107,-213.275 291.8677,-211.4874 298.9166,-219.3972 302.3107,-213.275"/>
</g>
<!-- Node7 -->
<g id="node7" class="node">
<title>Node7</title>
<g id="a_node7"><a xlink:href="../../dc/d2c/classorg_1_1cobbzilla_1_1util_1_1json_1_1JsonUtil_a507e163f042dd19d61801ca0ac64b423.html#a507e163f042dd19d61801ca0ac64b423" target="_top" xlink:title="org.cobbzilla.util.json.\lJsonUtil.jsonWithComments">
<polygon fill="none" stroke="#000000" points="346,-256.5 346,-286.5 488,-286.5 488,-256.5 346,-256.5"/>
<text text-anchor="start" x="354" y="-274.5" font-family="Helvetica,sans-Serif" font-size="10.00" fill="#000000">org.cobbzilla.util.json.</text>
<text text-anchor="middle" x="417" y="-263.5" font-family="Helvetica,sans-Serif" font-size="10.00" fill="#000000">JsonUtil.jsonWithComments</text>
</a>
</g>
</g>
<!-- Node3&#45;&gt;Node7 -->
<g id="edge6" class="edge">
<title>Node3&#45;&gt;Node7</title>
<path fill="none" stroke="#191970" d="M294.5648,-216.123C299.5211,-218.1009 304.3868,-220.2279 309,-222.5 326.475,-231.1069 327.5832,-238.7759 345,-247.5 351.5973,-250.8046 358.7536,-253.8119 365.9086,-256.4938"/>
<polygon fill="#191970" stroke="#191970" points="295.5561,-212.7564 284.9642,-212.5044 293.0871,-219.3065 295.5561,-212.7564"/>
</g>
<!-- Node8 -->
<g id="node8" class="node">
<title>Node8</title>
<g id="a_node8"><a xlink:href="../../dc/d2c/classorg_1_1cobbzilla_1_1util_1_1json_1_1JsonUtil_ae4518d62d0beea29cf62cdaaef0aebb5.html#ae4518d62d0beea29cf62cdaaef0aebb5" target="_top" xlink:title="org.cobbzilla.util.json.\lJsonUtil.fromJsonOrDie">
<polygon fill="none" stroke="#000000" points="356,-207.5 356,-237.5 478,-237.5 478,-207.5 356,-207.5"/>
<text text-anchor="start" x="364" y="-225.5" font-family="Helvetica,sans-Serif" font-size="10.00" fill="#000000">org.cobbzilla.util.json.</text>
<text text-anchor="middle" x="417" y="-214.5" font-family="Helvetica,sans-Serif" font-size="10.00" fill="#000000">JsonUtil.fromJsonOrDie</text>
</a>
</g>
</g>
<!-- Node3&#45;&gt;Node8 -->
<g id="edge7" class="edge">
<title>Node3&#45;&gt;Node8</title>
<path fill="none" stroke="#191970" d="M301.8826,-207.0687C319.659,-209.4516 338.5589,-211.9851 355.7957,-214.2957"/>
<polygon fill="#191970" stroke="#191970" points="301.9435,-203.5456 291.5671,-205.6859 301.0134,-210.4836 301.9435,-203.5456"/>
</g>
<!-- Node9 -->
<g id="node9" class="node">
<title>Node9</title>
<g id="a_node9"><a xlink:href="../../dc/d2c/classorg_1_1cobbzilla_1_1util_1_1json_1_1JsonUtil_a4d7991d93b20e6e89ab14af0bae666ee.html#a4d7991d93b20e6e89ab14af0bae666ee" target="_top" xlink:title="org.cobbzilla.util.json.\lJsonUtil.nodeValue">
<polygon fill="none" stroke="#000000" points="361.5,-158.5 361.5,-188.5 472.5,-188.5 472.5,-158.5 361.5,-158.5"/>
<text text-anchor="start" x="369.5" y="-176.5" font-family="Helvetica,sans-Serif" font-size="10.00" fill="#000000">org.cobbzilla.util.json.</text>
<text text-anchor="middle" x="417" y="-165.5" font-family="Helvetica,sans-Serif" font-size="10.00" fill="#000000">JsonUtil.nodeValue</text>
</a>
</g>
</g>
<!-- Node3&#45;&gt;Node9 -->
<g id="edge8" class="edge">
<title>Node3&#45;&gt;Node9</title>
<path fill="none" stroke="#191970" d="M301.4923,-188.3643C321.3533,-185.8084 342.645,-183.0685 361.47,-180.646"/>
<polygon fill="#191970" stroke="#191970" points="301.0385,-184.8937 291.5671,-189.6415 301.932,-191.8365 301.0385,-184.8937"/>
</g>
<!-- Node3&#45;&gt;Node10 -->
<g id="edge9" class="edge">
<title>Node3&#45;&gt;Node10</title>
<path fill="none" stroke="#191970" d="M272.9289,-178.3518C294.3634,-168.9323 320.8781,-157.6639 345,-148.5 353.0062,-145.4585 361.5885,-142.4142 369.9382,-139.5647"/>
<polygon fill="#191970" stroke="#191970" points="271.5028,-175.1554 263.7711,-182.3992 274.3325,-181.558 271.5028,-175.1554"/>
</g>
<!-- Node5 -->
<g id="node5" class="node">
<title>Node5</title>
<g id="a_node5"><a xlink:href="../../d9/d6b/classorg_1_1cobbzilla_1_1util_1_1http_1_1HttpUtil_a79493a20601d122c25f84a7fc0f63e8c.html#a79493a20601d122c25f84a7fc0f63e8c" target="_top" xlink:title="org.cobbzilla.util.http.\lHttpUtil.getResponse">
<polygon fill="none" stroke="#000000" points="525,-354.5 525,-384.5 636,-384.5 636,-354.5 525,-354.5"/>
<text text-anchor="start" x="533" y="-372.5" font-family="Helvetica,sans-Serif" font-size="10.00" fill="#000000">org.cobbzilla.util.http.</text>
<text text-anchor="middle" x="580.5" y="-361.5" font-family="Helvetica,sans-Serif" font-size="10.00" fill="#000000">HttpUtil.getResponse</text>
</a>
</g>
</g>
<!-- Node4&#45;&gt;Node5 -->
<g id="edge4" class="edge">
<title>Node4&#45;&gt;Node5</title>
<path fill="none" stroke="#191970" d="M499.3371,-369.5C507.9978,-369.5 516.6497,-369.5 524.9039,-369.5"/>
<polygon fill="#191970" stroke="#191970" points="499.1894,-366.0001 489.1894,-369.5 499.1894,-373.0001 499.1894,-366.0001"/>
</g>
<!-- Node12 -->
<g id="node12" class="node">
<title>Node12</title>
<g id="a_node12"><a xlink:href="../../d1/dcf/classorg_1_1cobbzilla_1_1util_1_1io_1_1main_1_1JarTrimmerMain_a0d79049130f7976bee1c1f8eb13c1538.html#a0d79049130f7976bee1c1f8eb13c1538" target="_top" xlink:title="org.cobbzilla.util.io.main.\lJarTrimmerMain.run">
<polygon fill="none" stroke="#000000" points="354.5,-60.5 354.5,-90.5 479.5,-90.5 479.5,-60.5 354.5,-60.5"/>
<text text-anchor="start" x="362.5" y="-78.5" font-family="Helvetica,sans-Serif" font-size="10.00" fill="#000000">org.cobbzilla.util.io.main.</text>
<text text-anchor="middle" x="417" y="-67.5" font-family="Helvetica,sans-Serif" font-size="10.00" fill="#000000">JarTrimmerMain.run</text>
</a>
</g>
</g>
<!-- Node11&#45;&gt;Node12 -->
<g id="edge11" class="edge">
<title>Node11&#45;&gt;Node12</title>
<path fill="none" stroke="#191970" d="M313.521,-79.3839C327.1981,-78.8706 341.1723,-78.3461 354.2475,-77.8553"/>
<polygon fill="#191970" stroke="#191970" points="313.0015,-75.9009 303.1398,-79.7736 313.2641,-82.8959 313.0015,-75.9009"/>
</g>
<!-- Node13&#45;&gt;Node13 -->
<g id="edge13" class="edge">
<title>Node13&#45;&gt;Node13</title>
<path fill="none" stroke="#191970" d="M199.9377,-40.9579C203.7309,-45.679 213.9183,-49 230.5,-49 257.7109,-49 267.7025,-40.0566 260.4745,-30.659"/>
<polygon fill="#191970" stroke="#191970" points="203.4499,-40.8422 200.5255,-30.659 196.4613,-40.4433 203.4499,-40.8422"/>
</g>
</g>
</svg>
        <g id="navigator" transform="translate(0 0)" fill="#404254">
                <rect fill="#f2f5e9" fill-opacity="0.5" stroke="#606060" stroke-width=".5" x="0" y="0" width="60" height="60"/>
                <use id="zoomplus" xlink:href="#zoomPlus" x="17" y="9" onmousedown="handleZoom(evt,'in')"/>
                <use id="zoomminus" xlink:href="#zoomMin" x="42" y="9" onmousedown="handleZoom(evt,'out')"/>
                <use id="reset" xlink:href="#resetDef" x="30" y="36" onmousedown="handleReset()"/>
                <g id="arrowUp" xlink:href="#dirArrow" transform="translate(30 24)" onmousedown="handlePan(0,-1)">
                  <use xlink:href="#rim" fill="#404040">
                        <set attributeName="fill" to="#808080" begin="arrowUp.mouseover" end="arrowUp.mouseout"/>
                  </use>
                  <path fill="none" stroke="white" stroke-width="1.5" d="M0,-3.0v7 M-2.5,-0.5L0,-3.0L2.5,-0.5"/>
                </g>
                <g id="arrowRight" xlink:href="#dirArrow" transform="rotate(90) translate(36 -43)" onmousedown="handlePan(1,0)">
                  <use xlink:href="#rim" fill="#404040">
                        <set attributeName="fill" to="#808080" begin="arrowRight.mouseover" end="arrowRight.mouseout"/>
                  </use>
                  <path fill="none" stroke="white" stroke-width="1.5" d="M0,-3.0v7 M-2.5,-0.5L0,-3.0L2.5,-0.5"/>
                </g>
                <g id="arrowDown" xlink:href="#dirArrow" transform="rotate(180) translate(-30 -48)" onmousedown="handlePan(0,1)">
                  <use xlink:href="#rim" fill="#404040">
                        <set attributeName="fill" to="#808080" begin="arrowDown.mouseover" end="arrowDown.mouseout"/>
                  </use>
                  <path fill="none" stroke="white" stroke-width="1.5" d="M0,-3.0v7 M-2.5,-0.5L0,-3.0L2.5,-0.5"/>
                </g>
                <g id="arrowLeft" xlink:href="#dirArrow" transform="rotate(270) translate(-36 17)" onmousedown="handlePan(-1,0)">
                  <use xlink:href="#rim" fill="#404040">
                        <set attributeName="fill" to="#808080" begin="arrowLeft.mouseover" end="arrowLeft.mouseout"/>
                  </use>
                  <path fill="none" stroke="white" stroke-width="1.5" d="M0,-3.0v7 M-2.5,-0.5L0,-3.0L2.5,-0.5"/>
                </g>
        </g>
        <svg viewBox="0 0 15 15" width="100%" height="30px" preserveAspectRatio="xMaxYMin meet">
         <g id="arrow_out" transform="scale(0.3 0.3)">
          <a xlink:href="classorg_1_1cobbzilla_1_1util_1_1io_1_1FileUtil_a0f510aeca1ca214915d575181815e6ac_a0f510aeca1ca214915d575181815e6ac_icgraph_org.svg" target="_base">
           <rect id="button" ry="5" rx="5" y="6" x="6" height="38" width="38"
                fill="#f2f5e9" fill-opacity="0.5" stroke="#606060" stroke-width="1.0"/>
           <path id="arrow"
             d="M 11.500037,31.436501 C 11.940474,20.09759 22.043105,11.32322 32.158766,21.979434 L 37.068811,17.246167 C 37.068811,17.246167 37.088388,32 37.088388,32 L 22.160133,31.978069 C 22.160133,31.978069 26.997745,27.140456 26.997745,27.140456 C 18.528582,18.264221 13.291696,25.230495 11.500037,31.436501 z"
             style="fill:#404040;"/>
          </a>
         </g>
        </svg>
</svg>
