<?xml version="1.0" encoding="UTF-8" standalone="no"?>
<!DOCTYPE svg PUBLIC "-//W3C//DTD SVG 1.1//EN"
 "http://www.w3.org/Graphics/SVG/1.1/DTD/svg11.dtd">
<!-- Generated by graphviz version 2.40.1 (20161225.0304)
 -->
<!-- Title: org.cobbzilla.util.io.FileUtil.writeStringOrDie Pages: 1 -->
<svg width="276pt" height="88pt"
 viewBox="0.00 0.00 276.00 88.00" xmlns="http://www.w3.org/2000/svg" xmlns:xlink="http://www.w3.org/1999/xlink">
<g id="graph0" class="graph" transform="scale(1 1) rotate(0) translate(4 84)">
<title>org.cobbzilla.util.io.FileUtil.writeStringOrDie</title>
<!-- Node0 -->
<g id="node1" class="node">
<title>Node0</title>
<polygon fill="#bfbfbf" stroke="#000000" points="0,-24.5 0,-54.5 116,-54.5 116,-24.5 0,-24.5"/>
<text text-anchor="start" x="8" y="-42.5" font-family="Helvetica,sans-Serif" font-size="10.00" fill="#000000">org.cobbzilla.util.io.File</text>
<text text-anchor="middle" x="58" y="-31.5" font-family="Helvetica,sans-Serif" font-size="10.00" fill="#000000">Util.writeStringOrDie</text>
</g>
<!-- Node1 -->
<g id="node2" class="node">
<title>Node1</title>
<g id="a_node2"><a xlink:href="../../df/dac/classorg_1_1cobbzilla_1_1util_1_1io_1_1FileUtil_a228e7020eaecd4316d09a553a2042b24.html#a228e7020eaecd4316d09a553a2042b24" target="_top" xlink:title="org.cobbzilla.util.io.File\lUtil.abs">
<polygon fill="none" stroke="#000000" points="152,-49.5 152,-79.5 268,-79.5 268,-49.5 152,-49.5"/>
<text text-anchor="start" x="160" y="-67.5" font-family="Helvetica,sans-Serif" font-size="10.00" fill="#000000">org.cobbzilla.util.io.File</text>
<text text-anchor="middle" x="210" y="-56.5" font-family="Helvetica,sans-Serif" font-size="10.00" fill="#000000">Util.abs</text>
</a>
</g>
</g>
<!-- Node0&#45;&gt;Node1 -->
<g id="edge1" class="edge">
<title>Node0&#45;&gt;Node1</title>
<path fill="none" stroke="#191970" d="M116.3325,-49.0942C124.6966,-50.4698 133.3631,-51.8952 141.8953,-53.2986"/>
<polygon fill="#191970" stroke="#191970" points="141.3882,-56.7621 151.8236,-54.9315 142.5243,-49.8549 141.3882,-56.7621"/>
</g>
<!-- Node2 -->
<g id="node3" class="node">
<title>Node2</title>
<g id="a_node3"><a xlink:href="../../df/dac/classorg_1_1cobbzilla_1_1util_1_1io_1_1FileUtil_a92b7338cf0c6a3bf39927bac95216466.html#a92b7338cf0c6a3bf39927bac95216466" target="_top" xlink:title="org.cobbzilla.util.io.File\lUtil.writeString">
<polygon fill="none" stroke="#000000" points="152,-.5 152,-30.5 268,-30.5 268,-.5 152,-.5"/>
<text text-anchor="start" x="160" y="-18.5" font-family="Helvetica,sans-Serif" font-size="10.00" fill="#000000">org.cobbzilla.util.io.File</text>
<text text-anchor="middle" x="210" y="-7.5" font-family="Helvetica,sans-Serif" font-size="10.00" fill="#000000">Util.writeString</text>
</a>
</g>
</g>
<!-- Node0&#45;&gt;Node2 -->
<g id="edge2" class="edge">
<title>Node0&#45;&gt;Node2</title>
<path fill="none" stroke="#191970" d="M116.3325,-30.2896C124.6966,-28.969 133.3631,-27.6006 141.8953,-26.2534"/>
<polygon fill="#191970" stroke="#191970" points="142.4919,-29.7026 151.8236,-24.6857 141.4001,-22.7883 142.4919,-29.7026"/>
</g>
</g>
</svg>
