<?xml version="1.0" encoding="UTF-8" standalone="no"?>
<!DOCTYPE svg PUBLIC "-//W3C//DTD SVG 1.1//EN"
 "http://www.w3.org/Graphics/SVG/1.1/DTD/svg11.dtd">
<!-- Generated by graphviz version 2.40.1 (20161225.0304)
 -->
<!-- Title: org.cobbzilla.util.io.FileUtil.mkdirOrDie Pages: 1 -->
<svg width="858pt" height="431pt"
 viewBox="0.00 0.00 858.00 431.00" xmlns="http://www.w3.org/2000/svg" xmlns:xlink="http://www.w3.org/1999/xlink">
<g id="graph0" class="graph" transform="scale(1 1) rotate(0) translate(4 427)">
<title>org.cobbzilla.util.io.FileUtil.mkdirOrDie</title>
<!-- Node1 -->
<g id="node1" class="node">
<title>Node1</title>
<polygon fill="#bfbfbf" stroke="#000000" points="0,-196.5 0,-226.5 116,-226.5 116,-196.5 0,-196.5"/>
<text text-anchor="start" x="8" y="-214.5" font-family="Helvetica,sans-Serif" font-size="10.00" fill="#000000">org.cobbzilla.util.io.File</text>
<text text-anchor="middle" x="58" y="-203.5" font-family="Helvetica,sans-Serif" font-size="10.00" fill="#000000">Util.mkdirOrDie</text>
</g>
<!-- Node1&#45;&gt;Node1 -->
<g id="edge15" class="edge">
<title>Node1&#45;&gt;Node1</title>
<path fill="none" stroke="#191970" d="M30.9914,-236.9579C34.3436,-241.679 43.3464,-245 58,-245 82.0469,-245 90.8766,-236.0566 84.4891,-226.659"/>
<polygon fill="#191970" stroke="#191970" points="34.5026,-236.8226 31.5109,-226.659 27.5115,-236.47 34.5026,-236.8226"/>
</g>
<!-- Node2 -->
<g id="node2" class="node">
<title>Node2</title>
<g id="a_node2"><a xlink:href="../../df/dac/classorg_1_1cobbzilla_1_1util_1_1io_1_1FileUtil_a10f84be9d8fbe17dad8bf91e5e68b699.html#a10f84be9d8fbe17dad8bf91e5e68b699" target="_top" xlink:title="org.cobbzilla.util.io.File\lUtil.getDefaultTempDir">
<polygon fill="none" stroke="#000000" points="152,-221.5 152,-251.5 269,-251.5 269,-221.5 152,-221.5"/>
<text text-anchor="start" x="160" y="-239.5" font-family="Helvetica,sans-Serif" font-size="10.00" fill="#000000">org.cobbzilla.util.io.File</text>
<text text-anchor="middle" x="210.5" y="-228.5" font-family="Helvetica,sans-Serif" font-size="10.00" fill="#000000">Util.getDefaultTempDir</text>
</a>
</g>
</g>
<!-- Node1&#45;&gt;Node2 -->
<g id="edge1" class="edge">
<title>Node1&#45;&gt;Node2</title>
<path fill="none" stroke="#191970" d="M126.0779,-222.6603C134.6644,-224.0679 143.3908,-225.4985 151.8147,-226.8795"/>
<polygon fill="#191970" stroke="#191970" points="126.5233,-219.1867 116.0887,-221.0227 125.3908,-226.0945 126.5233,-219.1867"/>
</g>
<!-- Node16 -->
<g id="node16" class="node">
<title>Node16</title>
<g id="a_node16"><a xlink:href="../../df/dac/classorg_1_1cobbzilla_1_1util_1_1io_1_1FileUtil_a0ced83117d24fa05c53b28654ff52da5.html#a0ced83117d24fa05c53b28654ff52da5" target="_top" xlink:title="org.cobbzilla.util.io.File\lUtil.mkHomeDir">
<polygon fill="none" stroke="#000000" points="152.5,-172.5 152.5,-202.5 268.5,-202.5 268.5,-172.5 152.5,-172.5"/>
<text text-anchor="start" x="160.5" y="-190.5" font-family="Helvetica,sans-Serif" font-size="10.00" fill="#000000">org.cobbzilla.util.io.File</text>
<text text-anchor="middle" x="210.5" y="-179.5" font-family="Helvetica,sans-Serif" font-size="10.00" fill="#000000">Util.mkHomeDir</text>
</a>
</g>
</g>
<!-- Node1&#45;&gt;Node16 -->
<g id="edge16" class="edge">
<title>Node1&#45;&gt;Node16</title>
<path fill="none" stroke="#191970" d="M126.2229,-200.7633C134.9346,-199.3923 143.7876,-197.999 152.3203,-196.6562"/>
<polygon fill="#191970" stroke="#191970" points="125.423,-197.346 116.0887,-202.3582 126.5113,-204.2609 125.423,-197.346"/>
</g>
<!-- Node3 -->
<g id="node3" class="node">
<title>Node3</title>
<g id="a_node3"><a xlink:href="../../df/dac/classorg_1_1cobbzilla_1_1util_1_1io_1_1FileUtil_ac5a3f1dcdf2531f840036f04298237c8.html#ac5a3f1dcdf2531f840036f04298237c8" target="_top" xlink:title="org.cobbzilla.util.io.File\lUtil.temp">
<polygon fill="none" stroke="#000000" points="305,-245.5 305,-275.5 421,-275.5 421,-245.5 305,-245.5"/>
<text text-anchor="start" x="313" y="-263.5" font-family="Helvetica,sans-Serif" font-size="10.00" fill="#000000">org.cobbzilla.util.io.File</text>
<text text-anchor="middle" x="363" y="-252.5" font-family="Helvetica,sans-Serif" font-size="10.00" fill="#000000">Util.temp</text>
</a>
</g>
</g>
<!-- Node2&#45;&gt;Node3 -->
<g id="edge2" class="edge">
<title>Node2&#45;&gt;Node3</title>
<path fill="none" stroke="#191970" d="M279.0608,-247.2899C287.6851,-248.6472 296.442,-250.0253 304.884,-251.3539"/>
<polygon fill="#191970" stroke="#191970" points="279.4469,-243.8077 269.0243,-245.7104 278.3586,-250.7226 279.4469,-243.8077"/>
</g>
<!-- Node4 -->
<g id="node4" class="node">
<title>Node4</title>
<g id="a_node4"><a xlink:href="../../df/dac/classorg_1_1cobbzilla_1_1util_1_1io_1_1FileUtil_a7bd7d6a564be7a6169daa8eb5b33e9b7.html#a7bd7d6a564be7a6169daa8eb5b33e9b7" target="_top" xlink:title="org.cobbzilla.util.io.File\lUtil.toFile">
<polygon fill="none" stroke="#000000" points="305,-196.5 305,-226.5 421,-226.5 421,-196.5 305,-196.5"/>
<text text-anchor="start" x="313" y="-214.5" font-family="Helvetica,sans-Serif" font-size="10.00" fill="#000000">org.cobbzilla.util.io.File</text>
<text text-anchor="middle" x="363" y="-203.5" font-family="Helvetica,sans-Serif" font-size="10.00" fill="#000000">Util.toFile</text>
</a>
</g>
</g>
<!-- Node2&#45;&gt;Node4 -->
<g id="edge3" class="edge">
<title>Node2&#45;&gt;Node4</title>
<path fill="none" stroke="#191970" d="M279.0608,-225.2605C287.6851,-223.8467 296.442,-222.4111 304.884,-221.0272"/>
<polygon fill="#191970" stroke="#191970" points="278.3264,-221.8341 269.0243,-226.9058 279.4589,-228.7419 278.3264,-221.8341"/>
</g>
<!-- Node5 -->
<g id="node5" class="node">
<title>Node5</title>
<g id="a_node5"><a xlink:href="../../d9/d3d/classorg_1_1cobbzilla_1_1util_1_1json_1_1JsonUtilTest_a239642f3764a1c94c594d22e2629b3c1.html#a239642f3764a1c94c594d22e2629b3c1" target="_top" xlink:title="org.cobbzilla.util.json.\lJsonUtilTest.assertReplacementMade">
<polygon fill="none" stroke="#000000" points="457,-392.5 457,-422.5 641,-422.5 641,-392.5 457,-392.5"/>
<text text-anchor="start" x="465" y="-410.5" font-family="Helvetica,sans-Serif" font-size="10.00" fill="#000000">org.cobbzilla.util.json.</text>
<text text-anchor="middle" x="549" y="-399.5" font-family="Helvetica,sans-Serif" font-size="10.00" fill="#000000">JsonUtilTest.assertReplacementMade</text>
</a>
</g>
</g>
<!-- Node4&#45;&gt;Node5 -->
<g id="edge4" class="edge">
<title>Node4&#45;&gt;Node5</title>
<path fill="none" stroke="#191970" d="M417.4067,-232.7295C418.6778,-233.9204 419.8804,-235.1761 421,-236.5 464.4354,-287.8596 409.7955,-335.5815 457,-383.5 460.3594,-386.9102 464.1383,-389.8558 468.1985,-392.3982"/>
<polygon fill="#191970" stroke="#191970" points="419.53,-229.947 409.4798,-226.5938 415.2453,-235.4825 419.53,-229.947"/>
</g>
<!-- Node7 -->
<g id="node7" class="node">
<title>Node7</title>
<g id="a_node7"><a xlink:href="../../df/dac/classorg_1_1cobbzilla_1_1util_1_1io_1_1FileUtil_a68fba6790421c58f81faa26b9b7f768c.html#a68fba6790421c58f81faa26b9b7f768c" target="_top" xlink:title="org.cobbzilla.util.io.File\lUtil.bzip2">
<polygon fill="none" stroke="#000000" points="491,-343.5 491,-373.5 607,-373.5 607,-343.5 491,-343.5"/>
<text text-anchor="start" x="499" y="-361.5" font-family="Helvetica,sans-Serif" font-size="10.00" fill="#000000">org.cobbzilla.util.io.File</text>
<text text-anchor="middle" x="549" y="-350.5" font-family="Helvetica,sans-Serif" font-size="10.00" fill="#000000">Util.bzip2</text>
</a>
</g>
</g>
<!-- Node4&#45;&gt;Node7 -->
<g id="edge6" class="edge">
<title>Node4&#45;&gt;Node7</title>
<path fill="none" stroke="#191970" d="M416.662,-232.4298C418.1905,-233.7111 419.6432,-235.0666 421,-236.5 452.8974,-270.1993 422.6393,-303.3162 457,-334.5 466.412,-343.0418 478.4853,-348.6165 490.7675,-352.2361"/>
<polygon fill="#191970" stroke="#191970" points="418.6623,-229.5575 408.482,-226.6226 414.6101,-235.2654 418.6623,-229.5575"/>
</g>
<!-- Node8 -->
<g id="node8" class="node">
<title>Node8</title>
<g id="a_node8"><a xlink:href="../../d2/d2d/classorg_1_1cobbzilla_1_1util_1_1handlebars_1_1Base64ImageInsertion_a20fd8e6c0efe37bce40a84a71b7d537d.html#a20fd8e6c0efe37bce40a84a71b7d537d" target="_top" xlink:title="org.cobbzilla.util.handlebars.\lBase64ImageInsertion.getImageFile">
<polygon fill="none" stroke="#000000" points="462.5,-294.5 462.5,-324.5 635.5,-324.5 635.5,-294.5 462.5,-294.5"/>
<text text-anchor="start" x="470.5" y="-312.5" font-family="Helvetica,sans-Serif" font-size="10.00" fill="#000000">org.cobbzilla.util.handlebars.</text>
<text text-anchor="middle" x="549" y="-301.5" font-family="Helvetica,sans-Serif" font-size="10.00" fill="#000000">Base64ImageInsertion.getImageFile</text>
</a>
</g>
</g>
<!-- Node4&#45;&gt;Node8 -->
<g id="edge7" class="edge">
<title>Node4&#45;&gt;Node8</title>
<path fill="none" stroke="#191970" d="M414.4747,-231.8336C416.7463,-233.3025 418.9353,-234.8573 421,-236.5 442.1469,-253.325 434.6383,-270.3268 457,-285.5 462.0539,-288.9292 467.5687,-291.8686 473.3057,-294.3879"/>
<polygon fill="#191970" stroke="#191970" points="415.8014,-228.5582 405.391,-226.5899 412.3017,-234.6206 415.8014,-228.5582"/>
</g>
<!-- Node9 -->
<g id="node9" class="node">
<title>Node9</title>
<g id="a_node9"><a xlink:href="../../d5/d0e/classorg_1_1cobbzilla_1_1util_1_1handlebars_1_1WordDocxMerger_abe8ac577d3579b4c26f2cee1183bea7a.html#abe8ac577d3579b4c26f2cee1183bea7a" target="_top" xlink:title="org.cobbzilla.util.handlebars.\lWordDocxMerger.merge">
<polygon fill="none" stroke="#000000" points="479,-245.5 479,-275.5 619,-275.5 619,-245.5 479,-245.5"/>
<text text-anchor="start" x="487" y="-263.5" font-family="Helvetica,sans-Serif" font-size="10.00" fill="#000000">org.cobbzilla.util.handlebars.</text>
<text text-anchor="middle" x="549" y="-252.5" font-family="Helvetica,sans-Serif" font-size="10.00" fill="#000000">WordDocxMerger.merge</text>
</a>
</g>
</g>
<!-- Node4&#45;&gt;Node9 -->
<g id="edge8" class="edge">
<title>Node4&#45;&gt;Node9</title>
<path fill="none" stroke="#191970" d="M429.5713,-229.2472C438.7833,-231.6907 448.1258,-234.1624 457,-236.5 468.014,-239.4012 479.7742,-242.482 491.0784,-245.4348"/>
<polygon fill="#191970" stroke="#191970" points="430.2181,-225.7977 419.6548,-226.6144 428.4218,-232.5633 430.2181,-225.7977"/>
</g>
<!-- Node10 -->
<g id="node10" class="node">
<title>Node10</title>
<g id="a_node10"><a xlink:href="../../d3/d75/classorg_1_1cobbzilla_1_1util_1_1json_1_1main_1_1JsonEditor_ad06ae51ad03acf41df4ddca3500bc086.html#ad06ae51ad03acf41df4ddca3500bc086" target="_top" xlink:title="org.cobbzilla.util.json.main.\lJsonEditor.run">
<polygon fill="none" stroke="#000000" points="481.5,-196.5 481.5,-226.5 616.5,-226.5 616.5,-196.5 481.5,-196.5"/>
<text text-anchor="start" x="489.5" y="-214.5" font-family="Helvetica,sans-Serif" font-size="10.00" fill="#000000">org.cobbzilla.util.json.main.</text>
<text text-anchor="middle" x="549" y="-203.5" font-family="Helvetica,sans-Serif" font-size="10.00" fill="#000000">JsonEditor.run</text>
</a>
</g>
</g>
<!-- Node4&#45;&gt;Node10 -->
<g id="edge9" class="edge">
<title>Node4&#45;&gt;Node10</title>
<path fill="none" stroke="#191970" d="M431.1078,-211.5C447.4648,-211.5 464.9308,-211.5 481.2706,-211.5"/>
<polygon fill="#191970" stroke="#191970" points="431.0865,-208.0001 421.0865,-211.5 431.0864,-215.0001 431.0865,-208.0001"/>
</g>
<!-- Node11 -->
<g id="node11" class="node">
<title>Node11</title>
<g id="a_node11"><a xlink:href="../../df/dac/classorg_1_1cobbzilla_1_1util_1_1io_1_1FileUtil_a42a60ed5f4caf26fde6044bb519b7c3b.html#a42a60ed5f4caf26fde6044bb519b7c3b" target="_top" xlink:title="org.cobbzilla.util.io.File\lUtil.symlink">
<polygon fill="none" stroke="#000000" points="491,-147.5 491,-177.5 607,-177.5 607,-147.5 491,-147.5"/>
<text text-anchor="start" x="499" y="-165.5" font-family="Helvetica,sans-Serif" font-size="10.00" fill="#000000">org.cobbzilla.util.io.File</text>
<text text-anchor="middle" x="549" y="-154.5" font-family="Helvetica,sans-Serif" font-size="10.00" fill="#000000">Util.symlink</text>
</a>
</g>
</g>
<!-- Node4&#45;&gt;Node11 -->
<g id="edge10" class="edge">
<title>Node4&#45;&gt;Node11</title>
<path fill="none" stroke="#191970" d="M429.895,-193.8771C450.2443,-188.5163 472.408,-182.6775 492.0377,-177.5062"/>
<polygon fill="#191970" stroke="#191970" points="428.8486,-190.5333 420.0702,-196.4654 430.6319,-197.3023 428.8486,-190.5333"/>
</g>
<!-- Node12 -->
<g id="node12" class="node">
<title>Node12</title>
<g id="a_node12"><a xlink:href="../../df/ded/classorg_1_1cobbzilla_1_1util_1_1system_1_1CommandShell_a983ac912091b21ff646aa15081109a67.html#a983ac912091b21ff646aa15081109a67" target="_top" xlink:title="org.cobbzilla.util.system.\lCommandShell.tempScript">
<polygon fill="none" stroke="#000000" points="482,-98.5 482,-128.5 616,-128.5 616,-98.5 482,-98.5"/>
<text text-anchor="start" x="490" y="-116.5" font-family="Helvetica,sans-Serif" font-size="10.00" fill="#000000">org.cobbzilla.util.system.</text>
<text text-anchor="middle" x="549" y="-105.5" font-family="Helvetica,sans-Serif" font-size="10.00" fill="#000000">CommandShell.tempScript</text>
</a>
</g>
</g>
<!-- Node4&#45;&gt;Node12 -->
<g id="edge11" class="edge">
<title>Node4&#45;&gt;Node12</title>
<path fill="none" stroke="#191970" d="M385.963,-189.4204C403.979,-173.2076 430.3847,-151.7801 457,-138.5 464.7013,-134.6573 473.0698,-131.3442 481.5168,-128.5042"/>
<polygon fill="#191970" stroke="#191970" points="383.3021,-187.1122 378.3051,-196.4547 388.0374,-192.2674 383.3021,-187.1122"/>
</g>
<!-- Node14 -->
<g id="node14" class="node">
<title>Node14</title>
<g id="a_node14"><a xlink:href="../../df/dac/classorg_1_1cobbzilla_1_1util_1_1io_1_1FileUtil_a0ef0b92f8f6e72dcff8929de2493f63c.html#a0ef0b92f8f6e72dcff8929de2493f63c" target="_top" xlink:title="org.cobbzilla.util.io.File\lUtil.toFile">
<polygon fill="none" stroke="#000000" points="491,-49.5 491,-79.5 607,-79.5 607,-49.5 491,-49.5"/>
<text text-anchor="start" x="499" y="-67.5" font-family="Helvetica,sans-Serif" font-size="10.00" fill="#000000">org.cobbzilla.util.io.File</text>
<text text-anchor="middle" x="549" y="-56.5" font-family="Helvetica,sans-Serif" font-size="10.00" fill="#000000">Util.toFile</text>
</a>
</g>
</g>
<!-- Node4&#45;&gt;Node14 -->
<g id="edge13" class="edge">
<title>Node4&#45;&gt;Node14</title>
<path fill="none" stroke="#191970" d="M375.4052,-187.1053C390.7938,-159.31 419.6311,-114.5109 457,-89.5 467.0411,-82.7795 478.8365,-77.859 490.5693,-74.2583"/>
<polygon fill="#191970" stroke="#191970" points="372.1856,-185.7026 370.5311,-196.1675 378.3504,-189.0185 372.1856,-185.7026"/>
</g>
<!-- Node15 -->
<g id="node15" class="node">
<title>Node15</title>
<g id="a_node15"><a xlink:href="../../df/dac/classorg_1_1cobbzilla_1_1util_1_1io_1_1FileUtil_a48ad97cb0518bc01fa28e009d209b514.html#a48ad97cb0518bc01fa28e009d209b514" target="_top" xlink:title="org.cobbzilla.util.io.File\lUtil.toFileOrDie">
<polygon fill="none" stroke="#000000" points="491,-.5 491,-30.5 607,-30.5 607,-.5 491,-.5"/>
<text text-anchor="start" x="499" y="-18.5" font-family="Helvetica,sans-Serif" font-size="10.00" fill="#000000">org.cobbzilla.util.io.File</text>
<text text-anchor="middle" x="549" y="-7.5" font-family="Helvetica,sans-Serif" font-size="10.00" fill="#000000">Util.toFileOrDie</text>
</a>
</g>
</g>
<!-- Node4&#45;&gt;Node15 -->
<g id="edge14" class="edge">
<title>Node4&#45;&gt;Node15</title>
<path fill="none" stroke="#191970" d="M369.809,-186.6732C381.3725,-149.2482 408.4535,-78.7054 457,-40.5 466.755,-32.823 478.6906,-27.4984 490.6918,-23.8069"/>
<polygon fill="#191970" stroke="#191970" points="366.4429,-185.7138 366.9541,-196.2963 373.1538,-187.7048 366.4429,-185.7138"/>
</g>
<!-- Node6 -->
<g id="node6" class="node">
<title>Node6</title>
<g id="a_node6"><a xlink:href="../../d9/d3d/classorg_1_1cobbzilla_1_1util_1_1json_1_1JsonUtilTest_ab9eb80bbec6ad8d6ed24e56482d513f4.html#ab9eb80bbec6ad8d6ed24e56482d513f4" target="_top" xlink:title="org.cobbzilla.util.json.\lJsonUtilTest.testReplaceJsonValue">
<polygon fill="none" stroke="#000000" points="677,-392.5 677,-422.5 850,-422.5 850,-392.5 677,-392.5"/>
<text text-anchor="start" x="685" y="-410.5" font-family="Helvetica,sans-Serif" font-size="10.00" fill="#000000">org.cobbzilla.util.json.</text>
<text text-anchor="middle" x="763.5" y="-399.5" font-family="Helvetica,sans-Serif" font-size="10.00" fill="#000000">JsonUtilTest.testReplaceJsonValue</text>
</a>
</g>
</g>
<!-- Node5&#45;&gt;Node6 -->
<g id="edge5" class="edge">
<title>Node5&#45;&gt;Node6</title>
<path fill="none" stroke="#191970" d="M651.2218,-407.5C659.7765,-407.5 668.3739,-407.5 676.7957,-407.5"/>
<polygon fill="#191970" stroke="#191970" points="651.2122,-404.0001 641.2122,-407.5 651.2121,-411.0001 651.2122,-404.0001"/>
</g>
<!-- Node13 -->
<g id="node13" class="node">
<title>Node13</title>
<g id="a_node13"><a xlink:href="../../df/ded/classorg_1_1cobbzilla_1_1util_1_1system_1_1CommandShell_a2b1b58f19b56a6d27b9b48f601443aec.html#a2b1b58f19b56a6d27b9b48f601443aec" target="_top" xlink:title="org.cobbzilla.util.system.\lCommandShell.scriptResult">
<polygon fill="none" stroke="#000000" points="694,-98.5 694,-128.5 833,-128.5 833,-98.5 694,-98.5"/>
<text text-anchor="start" x="702" y="-116.5" font-family="Helvetica,sans-Serif" font-size="10.00" fill="#000000">org.cobbzilla.util.system.</text>
<text text-anchor="middle" x="763.5" y="-105.5" font-family="Helvetica,sans-Serif" font-size="10.00" fill="#000000">CommandShell.scriptResult</text>
</a>
</g>
</g>
<!-- Node12&#45;&gt;Node13 -->
<g id="edge12" class="edge">
<title>Node12&#45;&gt;Node13</title>
<path fill="none" stroke="#191970" d="M626.5783,-113.5C648.573,-113.5 672.3748,-113.5 693.8684,-113.5"/>
<polygon fill="#191970" stroke="#191970" points="626.2806,-110.0001 616.2806,-113.5 626.2806,-117.0001 626.2806,-110.0001"/>
</g>
</g>
</svg>
