<?xml version="1.0" encoding="UTF-8" standalone="no"?>
<!DOCTYPE svg PUBLIC "-//W3C//DTD SVG 1.1//EN"
 "http://www.w3.org/Graphics/SVG/1.1/DTD/svg11.dtd">
<!-- Generated by graphviz version 2.40.1 (20161225.0304)
 -->
<!-- Title: org.cobbzilla.util.io.FileUtil.toFile Pages: 1 -->
<!--zoomable 431 -->
<svg id="main" version="1.1" xmlns="http://www.w3.org/2000/svg" xmlns:xlink="http://www.w3.org/1999/xlink" xml:space="preserve" onload="init(evt)">
<style type="text/css"><![CDATA[
.edge:hover path { stroke: red; }
.edge:hover polygon { stroke: red; fill: red; }
]]></style>
<script type="text/javascript"><![CDATA[
var edges = document.getElementsByTagName('g');
if (edges && edges.length) {
  for (var i=0;i<edges.length;i++) {
    if (edges[i].id.substr(0,4)=='edge') {
      edges[i].setAttribute('class','edge');
    }
  }
}
]]></script>
        <defs>
                <circle id="rim" cx="0" cy="0" r="7"/>
                <circle id="rim2" cx="0" cy="0" r="3.5"/>
                <g id="zoomPlus">
                        <use xlink:href="#rim" fill="#404040">
                                <set attributeName="fill" to="#808080" begin="zoomplus.mouseover" end="zoomplus.mouseout"/>
                        </use>
                        <path d="M-4,0h8M0,-4v8" fill="none" stroke="white" stroke-width="1.5" pointer-events="none"/>
                </g>
                <g id="zoomMin">
                        <use xlink:href="#rim" fill="#404040">
                                <set attributeName="fill" to="#808080" begin="zoomminus.mouseover" end="zoomminus.mouseout"/>
                        </use>
                        <path d="M-4,0h8" fill="none" stroke="white" stroke-width="1.5" pointer-events="none"/>
                </g>
                <g id="dirArrow">
                        <path fill="none" stroke="white" stroke-width="1.5" d="M0,-3.0v7 M-2.5,-0.5L0,-3.0L2.5,-0.5"/>
                </g>
               <g id="resetDef">
                       <use xlink:href="#rim2" fill="#404040">
                               <set attributeName="fill" to="#808080" begin="reset.mouseover" end="reset.mouseout"/>
                       </use>
               </g>
        </defs>

<script type="text/javascript">
var viewWidth = 553;
var viewHeight = 431;
var sectionId = 'dynsection-1';
</script>
<script xlink:href="../../svgpan.js"/>
<svg id="graph" class="graph">
<g id="viewport">
<title>org.cobbzilla.util.io.FileUtil.toFile</title>
<!-- Node4 -->
<g id="node1" class="node">
<title>Node4</title>
<polygon fill="#bfbfbf" stroke="#000000" points="0,-196.5 0,-226.5 116,-226.5 116,-196.5 0,-196.5"/>
<text text-anchor="start" x="8" y="-214.5" font-family="Helvetica,sans-Serif" font-size="10.00" fill="#000000">org.cobbzilla.util.io.File</text>
<text text-anchor="middle" x="58" y="-203.5" font-family="Helvetica,sans-Serif" font-size="10.00" fill="#000000">Util.toFile</text>
</g>
<!-- Node5 -->
<g id="node2" class="node">
<title>Node5</title>
<g id="a_node2"><a xlink:href="../../d9/d3d/classorg_1_1cobbzilla_1_1util_1_1json_1_1JsonUtilTest_a239642f3764a1c94c594d22e2629b3c1.html#a239642f3764a1c94c594d22e2629b3c1" target="_top" xlink:title="org.cobbzilla.util.json.\lJsonUtilTest.assertReplacementMade">
<polygon fill="none" stroke="#000000" points="152,-392.5 152,-422.5 336,-422.5 336,-392.5 152,-392.5"/>
<text text-anchor="start" x="160" y="-410.5" font-family="Helvetica,sans-Serif" font-size="10.00" fill="#000000">org.cobbzilla.util.json.</text>
<text text-anchor="middle" x="244" y="-399.5" font-family="Helvetica,sans-Serif" font-size="10.00" fill="#000000">JsonUtilTest.assertReplacementMade</text>
</a>
</g>
</g>
<!-- Node4&#45;&gt;Node5 -->
<g id="edge1" class="edge">
<title>Node4&#45;&gt;Node5</title>
<path fill="none" stroke="#191970" d="M64.6325,-236.2485C76.0274,-273.8973 102.9655,-345.215 152,-383.5 156.4236,-386.9539 161.2951,-389.9137 166.4173,-392.4497"/>
<polygon fill="#191970" stroke="#191970" points="67.9744,-235.2057 61.8253,-226.5779 61.2519,-237.1572 67.9744,-235.2057"/>
</g>
<!-- Node7 -->
<g id="node4" class="node">
<title>Node7</title>
<g id="a_node4"><a xlink:href="../../df/dac/classorg_1_1cobbzilla_1_1util_1_1io_1_1FileUtil_a68fba6790421c58f81faa26b9b7f768c.html#a68fba6790421c58f81faa26b9b7f768c" target="_top" xlink:title="org.cobbzilla.util.io.File\lUtil.bzip2">
<polygon fill="none" stroke="#000000" points="186,-343.5 186,-373.5 302,-373.5 302,-343.5 186,-343.5"/>
<text text-anchor="start" x="194" y="-361.5" font-family="Helvetica,sans-Serif" font-size="10.00" fill="#000000">org.cobbzilla.util.io.File</text>
<text text-anchor="middle" x="244" y="-350.5" font-family="Helvetica,sans-Serif" font-size="10.00" fill="#000000">Util.bzip2</text>
</a>
</g>
</g>
<!-- Node4&#45;&gt;Node7 -->
<g id="edge3" class="edge">
<title>Node4&#45;&gt;Node7</title>
<path fill="none" stroke="#191970" d="M70.0668,-235.716C85.3026,-263.7685 114.1605,-309.3439 152,-334.5 162.0347,-341.1712 173.8274,-345.9893 185.5595,-349.4686"/>
<polygon fill="#191970" stroke="#191970" points="73.0133,-233.7999 65.2534,-226.5865 66.8212,-237.0647 73.0133,-233.7999"/>
</g>
<!-- Node8 -->
<g id="node5" class="node">
<title>Node8</title>
<g id="a_node5"><a xlink:href="../../d2/d2d/classorg_1_1cobbzilla_1_1util_1_1handlebars_1_1Base64ImageInsertion_a20fd8e6c0efe37bce40a84a71b7d537d.html#a20fd8e6c0efe37bce40a84a71b7d537d" target="_top" xlink:title="org.cobbzilla.util.handlebars.\lBase64ImageInsertion.getImageFile">
<polygon fill="none" stroke="#000000" points="157.5,-294.5 157.5,-324.5 330.5,-324.5 330.5,-294.5 157.5,-294.5"/>
<text text-anchor="start" x="165.5" y="-312.5" font-family="Helvetica,sans-Serif" font-size="10.00" fill="#000000">org.cobbzilla.util.handlebars.</text>
<text text-anchor="middle" x="244" y="-301.5" font-family="Helvetica,sans-Serif" font-size="10.00" fill="#000000">Base64ImageInsertion.getImageFile</text>
</a>
</g>
</g>
<!-- Node4&#45;&gt;Node8 -->
<g id="edge4" class="edge">
<title>Node4&#45;&gt;Node8</title>
<path fill="none" stroke="#191970" d="M80.5465,-233.677C98.5199,-250.1954 125.062,-272.1185 152,-285.5 158.8003,-288.8781 166.1272,-291.817 173.5719,-294.3656"/>
<polygon fill="#191970" stroke="#191970" points="82.607,-230.8107 72.9207,-226.518 77.8158,-235.9142 82.607,-230.8107"/>
</g>
<!-- Node9 -->
<g id="node6" class="node">
<title>Node9</title>
<g id="a_node6"><a xlink:href="../../d5/d0e/classorg_1_1cobbzilla_1_1util_1_1handlebars_1_1WordDocxMerger_abe8ac577d3579b4c26f2cee1183bea7a.html#abe8ac577d3579b4c26f2cee1183bea7a" target="_top" xlink:title="org.cobbzilla.util.handlebars.\lWordDocxMerger.merge">
<polygon fill="none" stroke="#000000" points="174,-245.5 174,-275.5 314,-275.5 314,-245.5 174,-245.5"/>
<text text-anchor="start" x="182" y="-263.5" font-family="Helvetica,sans-Serif" font-size="10.00" fill="#000000">org.cobbzilla.util.handlebars.</text>
<text text-anchor="middle" x="244" y="-252.5" font-family="Helvetica,sans-Serif" font-size="10.00" fill="#000000">WordDocxMerger.merge</text>
</a>
</g>
</g>
<!-- Node4&#45;&gt;Node9 -->
<g id="edge5" class="edge">
<title>Node4&#45;&gt;Node9</title>
<path fill="none" stroke="#191970" d="M124.5713,-229.2472C133.7833,-231.6907 143.1258,-234.1624 152,-236.5 163.014,-239.4012 174.7742,-242.482 186.0784,-245.4348"/>
<polygon fill="#191970" stroke="#191970" points="125.2181,-225.7977 114.6548,-226.6144 123.4218,-232.5633 125.2181,-225.7977"/>
</g>
<!-- Node10 -->
<g id="node7" class="node">
<title>Node10</title>
<g id="a_node7"><a xlink:href="../../d3/d75/classorg_1_1cobbzilla_1_1util_1_1json_1_1main_1_1JsonEditor_ad06ae51ad03acf41df4ddca3500bc086.html#ad06ae51ad03acf41df4ddca3500bc086" target="_top" xlink:title="org.cobbzilla.util.json.main.\lJsonEditor.run">
<polygon fill="none" stroke="#000000" points="176.5,-196.5 176.5,-226.5 311.5,-226.5 311.5,-196.5 176.5,-196.5"/>
<text text-anchor="start" x="184.5" y="-214.5" font-family="Helvetica,sans-Serif" font-size="10.00" fill="#000000">org.cobbzilla.util.json.main.</text>
<text text-anchor="middle" x="244" y="-203.5" font-family="Helvetica,sans-Serif" font-size="10.00" fill="#000000">JsonEditor.run</text>
</a>
</g>
</g>
<!-- Node4&#45;&gt;Node10 -->
<g id="edge6" class="edge">
<title>Node4&#45;&gt;Node10</title>
<path fill="none" stroke="#191970" d="M126.1078,-211.5C142.4648,-211.5 159.9308,-211.5 176.2706,-211.5"/>
<polygon fill="#191970" stroke="#191970" points="126.0865,-208.0001 116.0865,-211.5 126.0864,-215.0001 126.0865,-208.0001"/>
</g>
<!-- Node11 -->
<g id="node8" class="node">
<title>Node11</title>
<g id="a_node8"><a xlink:href="../../df/dac/classorg_1_1cobbzilla_1_1util_1_1io_1_1FileUtil_a42a60ed5f4caf26fde6044bb519b7c3b.html#a42a60ed5f4caf26fde6044bb519b7c3b" target="_top" xlink:title="org.cobbzilla.util.io.File\lUtil.symlink">
<polygon fill="none" stroke="#000000" points="186,-147.5 186,-177.5 302,-177.5 302,-147.5 186,-147.5"/>
<text text-anchor="start" x="194" y="-165.5" font-family="Helvetica,sans-Serif" font-size="10.00" fill="#000000">org.cobbzilla.util.io.File</text>
<text text-anchor="middle" x="244" y="-154.5" font-family="Helvetica,sans-Serif" font-size="10.00" fill="#000000">Util.symlink</text>
</a>
</g>
</g>
<!-- Node4&#45;&gt;Node11 -->
<g id="edge7" class="edge">
<title>Node4&#45;&gt;Node11</title>
<path fill="none" stroke="#191970" d="M124.895,-193.8771C145.2443,-188.5163 167.408,-182.6775 187.0377,-177.5062"/>
<polygon fill="#191970" stroke="#191970" points="123.8486,-190.5333 115.0702,-196.4654 125.6319,-197.3023 123.8486,-190.5333"/>
</g>
<!-- Node12 -->
<g id="node9" class="node">
<title>Node12</title>
<g id="a_node9"><a xlink:href="../../df/ded/classorg_1_1cobbzilla_1_1util_1_1system_1_1CommandShell_a983ac912091b21ff646aa15081109a67.html#a983ac912091b21ff646aa15081109a67" target="_top" xlink:title="org.cobbzilla.util.system.\lCommandShell.tempScript">
<polygon fill="none" stroke="#000000" points="177,-98.5 177,-128.5 311,-128.5 311,-98.5 177,-98.5"/>
<text text-anchor="start" x="185" y="-116.5" font-family="Helvetica,sans-Serif" font-size="10.00" fill="#000000">org.cobbzilla.util.system.</text>
<text text-anchor="middle" x="244" y="-105.5" font-family="Helvetica,sans-Serif" font-size="10.00" fill="#000000">CommandShell.tempScript</text>
</a>
</g>
</g>
<!-- Node4&#45;&gt;Node12 -->
<g id="edge8" class="edge">
<title>Node4&#45;&gt;Node12</title>
<path fill="none" stroke="#191970" d="M80.963,-189.4204C98.979,-173.2076 125.3847,-151.7801 152,-138.5 159.7013,-134.6573 168.0698,-131.3442 176.5168,-128.5042"/>
<polygon fill="#191970" stroke="#191970" points="78.3021,-187.1122 73.3051,-196.4547 83.0374,-192.2674 78.3021,-187.1122"/>
</g>
<!-- Node14 -->
<g id="node11" class="node">
<title>Node14</title>
<g id="a_node11"><a xlink:href="../../df/dac/classorg_1_1cobbzilla_1_1util_1_1io_1_1FileUtil_a0ef0b92f8f6e72dcff8929de2493f63c.html#a0ef0b92f8f6e72dcff8929de2493f63c" target="_top" xlink:title="org.cobbzilla.util.io.File\lUtil.toFile">
<polygon fill="none" stroke="#000000" points="186,-49.5 186,-79.5 302,-79.5 302,-49.5 186,-49.5"/>
<text text-anchor="start" x="194" y="-67.5" font-family="Helvetica,sans-Serif" font-size="10.00" fill="#000000">org.cobbzilla.util.io.File</text>
<text text-anchor="middle" x="244" y="-56.5" font-family="Helvetica,sans-Serif" font-size="10.00" fill="#000000">Util.toFile</text>
</a>
</g>
</g>
<!-- Node4&#45;&gt;Node14 -->
<g id="edge10" class="edge">
<title>Node4&#45;&gt;Node14</title>
<path fill="none" stroke="#191970" d="M70.4052,-187.1053C85.7938,-159.31 114.6311,-114.5109 152,-89.5 162.0411,-82.7795 173.8365,-77.859 185.5693,-74.2583"/>
<polygon fill="#191970" stroke="#191970" points="67.1856,-185.7026 65.5311,-196.1675 73.3504,-189.0185 67.1856,-185.7026"/>
</g>
<!-- Node15 -->
<g id="node12" class="node">
<title>Node15</title>
<g id="a_node12"><a xlink:href="../../df/dac/classorg_1_1cobbzilla_1_1util_1_1io_1_1FileUtil_a48ad97cb0518bc01fa28e009d209b514.html#a48ad97cb0518bc01fa28e009d209b514" target="_top" xlink:title="org.cobbzilla.util.io.File\lUtil.toFileOrDie">
<polygon fill="none" stroke="#000000" points="186,-.5 186,-30.5 302,-30.5 302,-.5 186,-.5"/>
<text text-anchor="start" x="194" y="-18.5" font-family="Helvetica,sans-Serif" font-size="10.00" fill="#000000">org.cobbzilla.util.io.File</text>
<text text-anchor="middle" x="244" y="-7.5" font-family="Helvetica,sans-Serif" font-size="10.00" fill="#000000">Util.toFileOrDie</text>
</a>
</g>
</g>
<!-- Node4&#45;&gt;Node15 -->
<g id="edge11" class="edge">
<title>Node4&#45;&gt;Node15</title>
<path fill="none" stroke="#191970" d="M64.809,-186.6732C76.3725,-149.2482 103.4535,-78.7054 152,-40.5 161.755,-32.823 173.6906,-27.4984 185.6918,-23.8069"/>
<polygon fill="#191970" stroke="#191970" points="61.4429,-185.7138 61.9541,-196.2963 68.1538,-187.7048 61.4429,-185.7138"/>
</g>
<!-- Node6 -->
<g id="node3" class="node">
<title>Node6</title>
<g id="a_node3"><a xlink:href="../../d9/d3d/classorg_1_1cobbzilla_1_1util_1_1json_1_1JsonUtilTest_ab9eb80bbec6ad8d6ed24e56482d513f4.html#ab9eb80bbec6ad8d6ed24e56482d513f4" target="_top" xlink:title="org.cobbzilla.util.json.\lJsonUtilTest.testReplaceJsonValue">
<polygon fill="none" stroke="#000000" points="372,-392.5 372,-422.5 545,-422.5 545,-392.5 372,-392.5"/>
<text text-anchor="start" x="380" y="-410.5" font-family="Helvetica,sans-Serif" font-size="10.00" fill="#000000">org.cobbzilla.util.json.</text>
<text text-anchor="middle" x="458.5" y="-399.5" font-family="Helvetica,sans-Serif" font-size="10.00" fill="#000000">JsonUtilTest.testReplaceJsonValue</text>
</a>
</g>
</g>
<!-- Node5&#45;&gt;Node6 -->
<g id="edge2" class="edge">
<title>Node5&#45;&gt;Node6</title>
<path fill="none" stroke="#191970" d="M346.2218,-407.5C354.7765,-407.5 363.3739,-407.5 371.7957,-407.5"/>
<polygon fill="#191970" stroke="#191970" points="346.2122,-404.0001 336.2122,-407.5 346.2121,-411.0001 346.2122,-404.0001"/>
</g>
<!-- Node13 -->
<g id="node10" class="node">
<title>Node13</title>
<g id="a_node10"><a xlink:href="../../df/ded/classorg_1_1cobbzilla_1_1util_1_1system_1_1CommandShell_a2b1b58f19b56a6d27b9b48f601443aec.html#a2b1b58f19b56a6d27b9b48f601443aec" target="_top" xlink:title="org.cobbzilla.util.system.\lCommandShell.scriptResult">
<polygon fill="none" stroke="#000000" points="389,-98.5 389,-128.5 528,-128.5 528,-98.5 389,-98.5"/>
<text text-anchor="start" x="397" y="-116.5" font-family="Helvetica,sans-Serif" font-size="10.00" fill="#000000">org.cobbzilla.util.system.</text>
<text text-anchor="middle" x="458.5" y="-105.5" font-family="Helvetica,sans-Serif" font-size="10.00" fill="#000000">CommandShell.scriptResult</text>
</a>
</g>
</g>
<!-- Node12&#45;&gt;Node13 -->
<g id="edge9" class="edge">
<title>Node12&#45;&gt;Node13</title>
<path fill="none" stroke="#191970" d="M321.5783,-113.5C343.573,-113.5 367.3748,-113.5 388.8684,-113.5"/>
<polygon fill="#191970" stroke="#191970" points="321.2806,-110.0001 311.2806,-113.5 321.2806,-117.0001 321.2806,-110.0001"/>
</g>
</g>
</svg>
        <g id="navigator" transform="translate(0 0)" fill="#404254">
                <rect fill="#f2f5e9" fill-opacity="0.5" stroke="#606060" stroke-width=".5" x="0" y="0" width="60" height="60"/>
                <use id="zoomplus" xlink:href="#zoomPlus" x="17" y="9" onmousedown="handleZoom(evt,'in')"/>
                <use id="zoomminus" xlink:href="#zoomMin" x="42" y="9" onmousedown="handleZoom(evt,'out')"/>
                <use id="reset" xlink:href="#resetDef" x="30" y="36" onmousedown="handleReset()"/>
                <g id="arrowUp" xlink:href="#dirArrow" transform="translate(30 24)" onmousedown="handlePan(0,-1)">
                  <use xlink:href="#rim" fill="#404040">
                        <set attributeName="fill" to="#808080" begin="arrowUp.mouseover" end="arrowUp.mouseout"/>
                  </use>
                  <path fill="none" stroke="white" stroke-width="1.5" d="M0,-3.0v7 M-2.5,-0.5L0,-3.0L2.5,-0.5"/>
                </g>
                <g id="arrowRight" xlink:href="#dirArrow" transform="rotate(90) translate(36 -43)" onmousedown="handlePan(1,0)">
                  <use xlink:href="#rim" fill="#404040">
                        <set attributeName="fill" to="#808080" begin="arrowRight.mouseover" end="arrowRight.mouseout"/>
                  </use>
                  <path fill="none" stroke="white" stroke-width="1.5" d="M0,-3.0v7 M-2.5,-0.5L0,-3.0L2.5,-0.5"/>
                </g>
                <g id="arrowDown" xlink:href="#dirArrow" transform="rotate(180) translate(-30 -48)" onmousedown="handlePan(0,1)">
                  <use xlink:href="#rim" fill="#404040">
                        <set attributeName="fill" to="#808080" begin="arrowDown.mouseover" end="arrowDown.mouseout"/>
                  </use>
                  <path fill="none" stroke="white" stroke-width="1.5" d="M0,-3.0v7 M-2.5,-0.5L0,-3.0L2.5,-0.5"/>
                </g>
                <g id="arrowLeft" xlink:href="#dirArrow" transform="rotate(270) translate(-36 17)" onmousedown="handlePan(-1,0)">
                  <use xlink:href="#rim" fill="#404040">
                        <set attributeName="fill" to="#808080" begin="arrowLeft.mouseover" end="arrowLeft.mouseout"/>
                  </use>
                  <path fill="none" stroke="white" stroke-width="1.5" d="M0,-3.0v7 M-2.5,-0.5L0,-3.0L2.5,-0.5"/>
                </g>
        </g>
        <svg viewBox="0 0 15 15" width="100%" height="30px" preserveAspectRatio="xMaxYMin meet">
         <g id="arrow_out" transform="scale(0.3 0.3)">
          <a xlink:href="classorg_1_1cobbzilla_1_1util_1_1io_1_1FileUtil_a7bd7d6a564be7a6169daa8eb5b33e9b7_a7bd7d6a564be7a6169daa8eb5b33e9b7_icgraph_org.svg" target="_base">
           <rect id="button" ry="5" rx="5" y="6" x="6" height="38" width="38"
                fill="#f2f5e9" fill-opacity="0.5" stroke="#606060" stroke-width="1.0"/>
           <path id="arrow"
             d="M 11.500037,31.436501 C 11.940474,20.09759 22.043105,11.32322 32.158766,21.979434 L 37.068811,17.246167 C 37.068811,17.246167 37.088388,32 37.088388,32 L 22.160133,31.978069 C 22.160133,31.978069 26.997745,27.140456 26.997745,27.140456 C 18.528582,18.264221 13.291696,25.230495 11.500037,31.436501 z"
             style="fill:#404040;"/>
          </a>
         </g>
        </svg>
</svg>
