<?xml version="1.0" encoding="UTF-8" standalone="no"?>
<!DOCTYPE svg PUBLIC "-//W3C//DTD SVG 1.1//EN"
 "http://www.w3.org/Graphics/SVG/1.1/DTD/svg11.dtd">
<!-- Generated by graphviz version 2.40.1 (20161225.0304)
 -->
<!-- Title: org.cobbzilla.util.io.FileUtil.temp Pages: 1 -->
<!--zoomable 480 -->
<svg id="main" version="1.1" xmlns="http://www.w3.org/2000/svg" xmlns:xlink="http://www.w3.org/1999/xlink" xml:space="preserve" onload="init(evt)">
<style type="text/css"><![CDATA[
.edge:hover path { stroke: red; }
.edge:hover polygon { stroke: red; fill: red; }
]]></style>
<script type="text/javascript"><![CDATA[
var edges = document.getElementsByTagName('g');
if (edges && edges.length) {
  for (var i=0;i<edges.length;i++) {
    if (edges[i].id.substr(0,4)=='edge') {
      edges[i].setAttribute('class','edge');
    }
  }
}
]]></script>
        <defs>
                <circle id="rim" cx="0" cy="0" r="7"/>
                <circle id="rim2" cx="0" cy="0" r="3.5"/>
                <g id="zoomPlus">
                        <use xlink:href="#rim" fill="#404040">
                                <set attributeName="fill" to="#808080" begin="zoomplus.mouseover" end="zoomplus.mouseout"/>
                        </use>
                        <path d="M-4,0h8M0,-4v8" fill="none" stroke="white" stroke-width="1.5" pointer-events="none"/>
                </g>
                <g id="zoomMin">
                        <use xlink:href="#rim" fill="#404040">
                                <set attributeName="fill" to="#808080" begin="zoomminus.mouseover" end="zoomminus.mouseout"/>
                        </use>
                        <path d="M-4,0h8" fill="none" stroke="white" stroke-width="1.5" pointer-events="none"/>
                </g>
                <g id="dirArrow">
                        <path fill="none" stroke="white" stroke-width="1.5" d="M0,-3.0v7 M-2.5,-0.5L0,-3.0L2.5,-0.5"/>
                </g>
               <g id="resetDef">
                       <use xlink:href="#rim2" fill="#404040">
                               <set attributeName="fill" to="#808080" begin="reset.mouseover" end="reset.mouseout"/>
                       </use>
               </g>
        </defs>

<script type="text/javascript">
var viewWidth = 705;
var viewHeight = 480;
var sectionId = 'dynsection-1';
</script>
<script xlink:href="../../svgpan.js"/>
<svg id="graph" class="graph">
<g id="viewport">
<title>org.cobbzilla.util.io.FileUtil.temp</title>
<!-- Node1 -->
<g id="node1" class="node">
<title>Node1</title>
<polygon fill="#bfbfbf" stroke="#000000" points="0,-195.5 0,-225.5 116,-225.5 116,-195.5 0,-195.5"/>
<text text-anchor="start" x="8" y="-213.5" font-family="Helvetica,sans-Serif" font-size="10.00" fill="#000000">org.cobbzilla.util.io.File</text>
<text text-anchor="middle" x="58" y="-202.5" font-family="Helvetica,sans-Serif" font-size="10.00" fill="#000000">Util.temp</text>
</g>
<!-- Node1&#45;&gt;Node1 -->
<g id="edge2" class="edge">
<title>Node1&#45;&gt;Node1</title>
<path fill="none" stroke="#191970" d="M30.9914,-235.9579C34.3436,-240.679 43.3464,-244 58,-244 82.0469,-244 90.8766,-235.0566 84.4891,-225.659"/>
<polygon fill="#191970" stroke="#191970" points="34.5026,-235.8226 31.5109,-225.659 27.5115,-235.47 34.5026,-235.8226"/>
</g>
<!-- Node2 -->
<g id="node2" class="node">
<title>Node2</title>
<g id="a_node2"><a xlink:href="../../df/dac/classorg_1_1cobbzilla_1_1util_1_1io_1_1FileUtil_aadf0497a6ff6e899d89d37bbcc11d158.html#aadf0497a6ff6e899d89d37bbcc11d158" target="_top" xlink:title="org.cobbzilla.util.io.File\lUtil.bzip2">
<polygon fill="none" stroke="#000000" points="152,-269.5 152,-299.5 268,-299.5 268,-269.5 152,-269.5"/>
<text text-anchor="start" x="160" y="-287.5" font-family="Helvetica,sans-Serif" font-size="10.00" fill="#000000">org.cobbzilla.util.io.File</text>
<text text-anchor="middle" x="210" y="-276.5" font-family="Helvetica,sans-Serif" font-size="10.00" fill="#000000">Util.bzip2</text>
</a>
</g>
</g>
<!-- Node1&#45;&gt;Node2 -->
<g id="edge1" class="edge">
<title>Node1&#45;&gt;Node2</title>
<path fill="none" stroke="#191970" d="M93.9936,-230.694C111.3279,-240.1481 132.5326,-251.3209 152,-260.5 158.4069,-263.5209 165.2994,-266.555 172.018,-269.4008"/>
<polygon fill="#191970" stroke="#191970" points="95.247,-227.3893 84.7972,-225.6422 91.8767,-233.5245 95.247,-227.3893"/>
</g>
<!-- Node3 -->
<g id="node3" class="node">
<title>Node3</title>
<g id="a_node3"><a xlink:href="../../df/dac/classorg_1_1cobbzilla_1_1util_1_1io_1_1FileUtil_a7bd7d6a564be7a6169daa8eb5b33e9b7.html#a7bd7d6a564be7a6169daa8eb5b33e9b7" target="_top" xlink:title="org.cobbzilla.util.io.File\lUtil.toFile">
<polygon fill="none" stroke="#000000" points="152,-220.5 152,-250.5 268,-250.5 268,-220.5 152,-220.5"/>
<text text-anchor="start" x="160" y="-238.5" font-family="Helvetica,sans-Serif" font-size="10.00" fill="#000000">org.cobbzilla.util.io.File</text>
<text text-anchor="middle" x="210" y="-227.5" font-family="Helvetica,sans-Serif" font-size="10.00" fill="#000000">Util.toFile</text>
</a>
</g>
</g>
<!-- Node1&#45;&gt;Node3 -->
<g id="edge3" class="edge">
<title>Node1&#45;&gt;Node3</title>
<path fill="none" stroke="#191970" d="M126.264,-221.7276C134.7979,-223.1312 143.4632,-224.5565 151.8236,-225.9315"/>
<polygon fill="#191970" stroke="#191970" points="126.7679,-218.2636 116.3325,-220.0942 125.6318,-225.1708 126.7679,-218.2636"/>
</g>
<!-- Node15 -->
<g id="node15" class="node">
<title>Node15</title>
<g id="a_node15"><a xlink:href="../../df/dac/classorg_1_1cobbzilla_1_1util_1_1io_1_1FileUtil_afd2003ddd7b084e3ecdaff935020524f.html#afd2003ddd7b084e3ecdaff935020524f" target="_top" xlink:title="org.cobbzilla.util.io.File\lUtil.toTempFile">
<polygon fill="none" stroke="#000000" points="152,-171.5 152,-201.5 268,-201.5 268,-171.5 152,-171.5"/>
<text text-anchor="start" x="160" y="-189.5" font-family="Helvetica,sans-Serif" font-size="10.00" fill="#000000">org.cobbzilla.util.io.File</text>
<text text-anchor="middle" x="210" y="-178.5" font-family="Helvetica,sans-Serif" font-size="10.00" fill="#000000">Util.toTempFile</text>
</a>
</g>
</g>
<!-- Node1&#45;&gt;Node15 -->
<g id="edge15" class="edge">
<title>Node1&#45;&gt;Node15</title>
<path fill="none" stroke="#191970" d="M126.264,-199.7215C134.7979,-198.374 143.4632,-197.0058 151.8236,-195.6857"/>
<polygon fill="#191970" stroke="#191970" points="125.6642,-196.2727 116.3325,-201.2896 126.756,-203.1871 125.6642,-196.2727"/>
</g>
<!-- Node16 -->
<g id="node16" class="node">
<title>Node16</title>
<g id="a_node16"><a xlink:href="../../d5/dc2/classorg_1_1cobbzilla_1_1util_1_1io_1_1JarTrimmer_af3d4171c0e315e009d3436a293f5d9b1.html#af3d4171c0e315e009d3436a293f5d9b1" target="_top" xlink:title="org.cobbzilla.util.io.Jar\lTrimmer.trim">
<polygon fill="none" stroke="#000000" points="153,-73.5 153,-103.5 267,-103.5 267,-73.5 153,-73.5"/>
<text text-anchor="start" x="161" y="-91.5" font-family="Helvetica,sans-Serif" font-size="10.00" fill="#000000">org.cobbzilla.util.io.Jar</text>
<text text-anchor="middle" x="210" y="-80.5" font-family="Helvetica,sans-Serif" font-size="10.00" fill="#000000">Trimmer.trim</text>
</a>
</g>
</g>
<!-- Node1&#45;&gt;Node16 -->
<g id="edge16" class="edge">
<title>Node1&#45;&gt;Node16</title>
<path fill="none" stroke="#191970" d="M85.0502,-188.7886C115.6442,-164.233 164.6586,-124.8924 191.2952,-103.5131"/>
<polygon fill="#191970" stroke="#191970" points="82.5514,-186.3063 76.9436,-195.2953 86.9331,-191.7653 82.5514,-186.3063"/>
</g>
<!-- Node4 -->
<g id="node4" class="node">
<title>Node4</title>
<g id="a_node4"><a xlink:href="../../d9/d3d/classorg_1_1cobbzilla_1_1util_1_1json_1_1JsonUtilTest_a239642f3764a1c94c594d22e2629b3c1.html#a239642f3764a1c94c594d22e2629b3c1" target="_top" xlink:title="org.cobbzilla.util.json.\lJsonUtilTest.assertReplacementMade">
<polygon fill="none" stroke="#000000" points="304,-441.5 304,-471.5 488,-471.5 488,-441.5 304,-441.5"/>
<text text-anchor="start" x="312" y="-459.5" font-family="Helvetica,sans-Serif" font-size="10.00" fill="#000000">org.cobbzilla.util.json.</text>
<text text-anchor="middle" x="396" y="-448.5" font-family="Helvetica,sans-Serif" font-size="10.00" fill="#000000">JsonUtilTest.assertReplacementMade</text>
</a>
</g>
</g>
<!-- Node3&#45;&gt;Node4 -->
<g id="edge4" class="edge">
<title>Node3&#45;&gt;Node4</title>
<path fill="none" stroke="#191970" d="M264.88,-257.0826C265.9809,-258.1676 267.0244,-259.306 268,-260.5 317.4169,-320.9791 250.1398,-375.9418 304,-432.5 307.1874,-435.847 310.7781,-438.749 314.6458,-441.2632"/>
<polygon fill="#191970" stroke="#191970" points="266.8795,-254.1994 256.8908,-250.667 262.4965,-259.6574 266.8795,-254.1994"/>
</g>
<!-- Node6 -->
<g id="node6" class="node">
<title>Node6</title>
<g id="a_node6"><a xlink:href="../../df/dac/classorg_1_1cobbzilla_1_1util_1_1io_1_1FileUtil_a68fba6790421c58f81faa26b9b7f768c.html#a68fba6790421c58f81faa26b9b7f768c" target="_top" xlink:title="org.cobbzilla.util.io.File\lUtil.bzip2">
<polygon fill="none" stroke="#000000" points="338,-392.5 338,-422.5 454,-422.5 454,-392.5 338,-392.5"/>
<text text-anchor="start" x="346" y="-410.5" font-family="Helvetica,sans-Serif" font-size="10.00" fill="#000000">org.cobbzilla.util.io.File</text>
<text text-anchor="middle" x="396" y="-399.5" font-family="Helvetica,sans-Serif" font-size="10.00" fill="#000000">Util.bzip2</text>
</a>
</g>
</g>
<!-- Node3&#45;&gt;Node6 -->
<g id="edge6" class="edge">
<title>Node3&#45;&gt;Node6</title>
<path fill="none" stroke="#191970" d="M264.2452,-256.7199C265.5695,-257.9142 266.8262,-259.1732 268,-260.5 305.7414,-303.1618 263.1325,-343.8226 304,-383.5 313.2377,-392.4687 325.3869,-398.2001 337.8159,-401.8344"/>
<polygon fill="#191970" stroke="#191970" points="266.1271,-253.7566 256.025,-250.5633 261.9308,-259.3594 266.1271,-253.7566"/>
</g>
<!-- Node7 -->
<g id="node7" class="node">
<title>Node7</title>
<g id="a_node7"><a xlink:href="../../d2/d2d/classorg_1_1cobbzilla_1_1util_1_1handlebars_1_1Base64ImageInsertion_a20fd8e6c0efe37bce40a84a71b7d537d.html#a20fd8e6c0efe37bce40a84a71b7d537d" target="_top" xlink:title="org.cobbzilla.util.handlebars.\lBase64ImageInsertion.getImageFile">
<polygon fill="none" stroke="#000000" points="309.5,-343.5 309.5,-373.5 482.5,-373.5 482.5,-343.5 309.5,-343.5"/>
<text text-anchor="start" x="317.5" y="-361.5" font-family="Helvetica,sans-Serif" font-size="10.00" fill="#000000">org.cobbzilla.util.handlebars.</text>
<text text-anchor="middle" x="396" y="-350.5" font-family="Helvetica,sans-Serif" font-size="10.00" fill="#000000">Base64ImageInsertion.getImageFile</text>
</a>
</g>
</g>
<!-- Node3&#45;&gt;Node7 -->
<g id="edge7" class="edge">
<title>Node3&#45;&gt;Node7</title>
<path fill="none" stroke="#191970" d="M263.2815,-256.4582C264.9333,-257.7337 266.5133,-259.0799 268,-260.5 294.4474,-285.7629 275.7132,-311.3151 304,-334.5 308.2129,-337.9531 312.8684,-340.9147 317.7825,-343.4542"/>
<polygon fill="#191970" stroke="#191970" points="264.7945,-253.2621 254.5254,-250.6552 260.9274,-259.097 264.7945,-253.2621"/>
</g>
<!-- Node8 -->
<g id="node8" class="node">
<title>Node8</title>
<g id="a_node8"><a xlink:href="../../d5/d0e/classorg_1_1cobbzilla_1_1util_1_1handlebars_1_1WordDocxMerger_abe8ac577d3579b4c26f2cee1183bea7a.html#abe8ac577d3579b4c26f2cee1183bea7a" target="_top" xlink:title="org.cobbzilla.util.handlebars.\lWordDocxMerger.merge">
<polygon fill="none" stroke="#000000" points="326,-294.5 326,-324.5 466,-324.5 466,-294.5 326,-294.5"/>
<text text-anchor="start" x="334" y="-312.5" font-family="Helvetica,sans-Serif" font-size="10.00" fill="#000000">org.cobbzilla.util.handlebars.</text>
<text text-anchor="middle" x="396" y="-301.5" font-family="Helvetica,sans-Serif" font-size="10.00" fill="#000000">WordDocxMerger.merge</text>
</a>
</g>
</g>
<!-- Node3&#45;&gt;Node8 -->
<g id="edge8" class="edge">
<title>Node3&#45;&gt;Node8</title>
<path fill="none" stroke="#191970" d="M257.2072,-254.8954C260.9029,-256.7017 264.5401,-258.5784 268,-260.5 285.0294,-269.9581 286.3025,-277.3603 304,-285.5 311.3483,-288.8798 319.2542,-291.845 327.2349,-294.4305"/>
<polygon fill="#191970" stroke="#191970" points="258.5078,-251.6397 247.9676,-250.5651 255.5371,-257.9781 258.5078,-251.6397"/>
</g>
<!-- Node9 -->
<g id="node9" class="node">
<title>Node9</title>
<g id="a_node9"><a xlink:href="../../d3/d75/classorg_1_1cobbzilla_1_1util_1_1json_1_1main_1_1JsonEditor_ad06ae51ad03acf41df4ddca3500bc086.html#ad06ae51ad03acf41df4ddca3500bc086" target="_top" xlink:title="org.cobbzilla.util.json.main.\lJsonEditor.run">
<polygon fill="none" stroke="#000000" points="328.5,-245.5 328.5,-275.5 463.5,-275.5 463.5,-245.5 328.5,-245.5"/>
<text text-anchor="start" x="336.5" y="-263.5" font-family="Helvetica,sans-Serif" font-size="10.00" fill="#000000">org.cobbzilla.util.json.main.</text>
<text text-anchor="middle" x="396" y="-252.5" font-family="Helvetica,sans-Serif" font-size="10.00" fill="#000000">JsonEditor.run</text>
</a>
</g>
</g>
<!-- Node3&#45;&gt;Node9 -->
<g id="edge9" class="edge">
<title>Node3&#45;&gt;Node9</title>
<path fill="none" stroke="#191970" d="M278.1078,-244.6543C294.4648,-246.8528 311.9308,-249.2004 328.2706,-251.3966"/>
<polygon fill="#191970" stroke="#191970" points="278.4636,-241.1707 268.0865,-243.3073 277.5311,-248.1083 278.4636,-241.1707"/>
</g>
<!-- Node10 -->
<g id="node10" class="node">
<title>Node10</title>
<g id="a_node10"><a xlink:href="../../df/dac/classorg_1_1cobbzilla_1_1util_1_1io_1_1FileUtil_a42a60ed5f4caf26fde6044bb519b7c3b.html#a42a60ed5f4caf26fde6044bb519b7c3b" target="_top" xlink:title="org.cobbzilla.util.io.File\lUtil.symlink">
<polygon fill="none" stroke="#000000" points="338,-196.5 338,-226.5 454,-226.5 454,-196.5 338,-196.5"/>
<text text-anchor="start" x="346" y="-214.5" font-family="Helvetica,sans-Serif" font-size="10.00" fill="#000000">org.cobbzilla.util.io.File</text>
<text text-anchor="middle" x="396" y="-203.5" font-family="Helvetica,sans-Serif" font-size="10.00" fill="#000000">Util.symlink</text>
</a>
</g>
</g>
<!-- Node3&#45;&gt;Node10 -->
<g id="edge10" class="edge">
<title>Node3&#45;&gt;Node10</title>
<path fill="none" stroke="#191970" d="M278.144,-226.7072C297.6909,-224.185 318.8189,-221.4589 337.7145,-219.0207"/>
<polygon fill="#191970" stroke="#191970" points="277.5563,-223.2539 268.0865,-228.005 278.4522,-230.1964 277.5563,-223.2539"/>
</g>
<!-- Node11 -->
<g id="node11" class="node">
<title>Node11</title>
<g id="a_node11"><a xlink:href="../../df/ded/classorg_1_1cobbzilla_1_1util_1_1system_1_1CommandShell_a983ac912091b21ff646aa15081109a67.html#a983ac912091b21ff646aa15081109a67" target="_top" xlink:title="org.cobbzilla.util.system.\lCommandShell.tempScript">
<polygon fill="none" stroke="#000000" points="329,-147.5 329,-177.5 463,-177.5 463,-147.5 329,-147.5"/>
<text text-anchor="start" x="337" y="-165.5" font-family="Helvetica,sans-Serif" font-size="10.00" fill="#000000">org.cobbzilla.util.system.</text>
<text text-anchor="middle" x="396" y="-154.5" font-family="Helvetica,sans-Serif" font-size="10.00" fill="#000000">CommandShell.tempScript</text>
</a>
</g>
</g>
<!-- Node3&#45;&gt;Node11 -->
<g id="edge11" class="edge">
<title>Node3&#45;&gt;Node11</title>
<path fill="none" stroke="#191970" d="M258.6088,-216.2223C261.8195,-214.693 264.976,-213.1136 268,-211.5 284.9654,-202.4471 286.4943,-195.458 304,-187.5 312.2872,-183.7327 321.26,-180.4302 330.2413,-177.5667"/>
<polygon fill="#191970" stroke="#191970" points="257.127,-213.0512 249.4816,-220.3859 260.0323,-219.4199 257.127,-213.0512"/>
</g>
<!-- Node13 -->
<g id="node13" class="node">
<title>Node13</title>
<g id="a_node13"><a xlink:href="../../df/dac/classorg_1_1cobbzilla_1_1util_1_1io_1_1FileUtil_a0ef0b92f8f6e72dcff8929de2493f63c.html#a0ef0b92f8f6e72dcff8929de2493f63c" target="_top" xlink:title="org.cobbzilla.util.io.File\lUtil.toFile">
<polygon fill="none" stroke="#000000" points="338,-98.5 338,-128.5 454,-128.5 454,-98.5 338,-98.5"/>
<text text-anchor="start" x="346" y="-116.5" font-family="Helvetica,sans-Serif" font-size="10.00" fill="#000000">org.cobbzilla.util.io.File</text>
<text text-anchor="middle" x="396" y="-105.5" font-family="Helvetica,sans-Serif" font-size="10.00" fill="#000000">Util.toFile</text>
</a>
</g>
</g>
<!-- Node3&#45;&gt;Node13 -->
<g id="edge13" class="edge">
<title>Node3&#45;&gt;Node13</title>
<path fill="none" stroke="#191970" d="M264.05,-214.8825C265.4243,-213.8078 266.7453,-212.6811 268,-211.5 294.6315,-186.4313 275.7132,-160.6849 304,-137.5 313.7025,-129.5475 325.7525,-124.2016 337.9011,-120.6154"/>
<polygon fill="#191970" stroke="#191970" points="262.0485,-212.0104 255.6864,-220.4824 265.9431,-217.827 262.0485,-212.0104"/>
</g>
<!-- Node14 -->
<g id="node14" class="node">
<title>Node14</title>
<g id="a_node14"><a xlink:href="../../df/dac/classorg_1_1cobbzilla_1_1util_1_1io_1_1FileUtil_a48ad97cb0518bc01fa28e009d209b514.html#a48ad97cb0518bc01fa28e009d209b514" target="_top" xlink:title="org.cobbzilla.util.io.File\lUtil.toFileOrDie">
<polygon fill="none" stroke="#000000" points="338,-49.5 338,-79.5 454,-79.5 454,-49.5 338,-49.5"/>
<text text-anchor="start" x="346" y="-67.5" font-family="Helvetica,sans-Serif" font-size="10.00" fill="#000000">org.cobbzilla.util.io.File</text>
<text text-anchor="middle" x="396" y="-56.5" font-family="Helvetica,sans-Serif" font-size="10.00" fill="#000000">Util.toFileOrDie</text>
</a>
</g>
</g>
<!-- Node3&#45;&gt;Node14 -->
<g id="edge14" class="edge">
<title>Node3&#45;&gt;Node14</title>
<path fill="none" stroke="#191970" d="M265.6063,-213.9669C266.4363,-213.1734 267.2356,-212.3514 268,-211.5 306.0525,-169.1154 263.1325,-128.1774 304,-88.5 313.2377,-79.5313 325.3869,-73.7999 337.8159,-70.1656"/>
<polygon fill="#191970" stroke="#191970" points="263.1427,-211.4501 257.4188,-220.3657 267.4532,-216.9656 263.1427,-211.4501"/>
</g>
<!-- Node5 -->
<g id="node5" class="node">
<title>Node5</title>
<g id="a_node5"><a xlink:href="../../d9/d3d/classorg_1_1cobbzilla_1_1util_1_1json_1_1JsonUtilTest_ab9eb80bbec6ad8d6ed24e56482d513f4.html#ab9eb80bbec6ad8d6ed24e56482d513f4" target="_top" xlink:title="org.cobbzilla.util.json.\lJsonUtilTest.testReplaceJsonValue">
<polygon fill="none" stroke="#000000" points="524,-441.5 524,-471.5 697,-471.5 697,-441.5 524,-441.5"/>
<text text-anchor="start" x="532" y="-459.5" font-family="Helvetica,sans-Serif" font-size="10.00" fill="#000000">org.cobbzilla.util.json.</text>
<text text-anchor="middle" x="610.5" y="-448.5" font-family="Helvetica,sans-Serif" font-size="10.00" fill="#000000">JsonUtilTest.testReplaceJsonValue</text>
</a>
</g>
</g>
<!-- Node4&#45;&gt;Node5 -->
<g id="edge5" class="edge">
<title>Node4&#45;&gt;Node5</title>
<path fill="none" stroke="#191970" d="M498.2218,-456.5C506.7765,-456.5 515.3739,-456.5 523.7957,-456.5"/>
<polygon fill="#191970" stroke="#191970" points="498.2122,-453.0001 488.2122,-456.5 498.2121,-460.0001 498.2122,-453.0001"/>
</g>
<!-- Node12 -->
<g id="node12" class="node">
<title>Node12</title>
<g id="a_node12"><a xlink:href="../../df/ded/classorg_1_1cobbzilla_1_1util_1_1system_1_1CommandShell_a2b1b58f19b56a6d27b9b48f601443aec.html#a2b1b58f19b56a6d27b9b48f601443aec" target="_top" xlink:title="org.cobbzilla.util.system.\lCommandShell.scriptResult">
<polygon fill="none" stroke="#000000" points="541,-147.5 541,-177.5 680,-177.5 680,-147.5 541,-147.5"/>
<text text-anchor="start" x="549" y="-165.5" font-family="Helvetica,sans-Serif" font-size="10.00" fill="#000000">org.cobbzilla.util.system.</text>
<text text-anchor="middle" x="610.5" y="-154.5" font-family="Helvetica,sans-Serif" font-size="10.00" fill="#000000">CommandShell.scriptResult</text>
</a>
</g>
</g>
<!-- Node11&#45;&gt;Node12 -->
<g id="edge12" class="edge">
<title>Node11&#45;&gt;Node12</title>
<path fill="none" stroke="#191970" d="M473.5783,-162.5C495.573,-162.5 519.3748,-162.5 540.8684,-162.5"/>
<polygon fill="#191970" stroke="#191970" points="473.2806,-159.0001 463.2806,-162.5 473.2806,-166.0001 473.2806,-159.0001"/>
</g>
<!-- Node17 -->
<g id="node17" class="node">
<title>Node17</title>
<g id="a_node17"><a xlink:href="../../d1/dcf/classorg_1_1cobbzilla_1_1util_1_1io_1_1main_1_1JarTrimmerMain_a0d79049130f7976bee1c1f8eb13c1538.html#a0d79049130f7976bee1c1f8eb13c1538" target="_top" xlink:title="org.cobbzilla.util.io.main.\lJarTrimmerMain.run">
<polygon fill="none" stroke="#000000" points="333.5,-.5 333.5,-30.5 458.5,-30.5 458.5,-.5 333.5,-.5"/>
<text text-anchor="start" x="341.5" y="-18.5" font-family="Helvetica,sans-Serif" font-size="10.00" fill="#000000">org.cobbzilla.util.io.main.</text>
<text text-anchor="middle" x="396" y="-7.5" font-family="Helvetica,sans-Serif" font-size="10.00" fill="#000000">JarTrimmerMain.run</text>
</a>
</g>
</g>
<!-- Node16&#45;&gt;Node17 -->
<g id="edge17" class="edge">
<title>Node16&#45;&gt;Node17</title>
<path fill="none" stroke="#191970" d="M243.9223,-68.4474C261.4251,-58.718 283.381,-47.4465 304,-39.5 313.2415,-35.9384 323.2047,-32.7279 333.0438,-29.8996"/>
<polygon fill="#191970" stroke="#191970" points="242.193,-65.4044 235.206,-73.3689 245.6347,-71.4998 242.193,-65.4044"/>
</g>
</g>
</svg>
        <g id="navigator" transform="translate(0 0)" fill="#404254">
                <rect fill="#f2f5e9" fill-opacity="0.5" stroke="#606060" stroke-width=".5" x="0" y="0" width="60" height="60"/>
                <use id="zoomplus" xlink:href="#zoomPlus" x="17" y="9" onmousedown="handleZoom(evt,'in')"/>
                <use id="zoomminus" xlink:href="#zoomMin" x="42" y="9" onmousedown="handleZoom(evt,'out')"/>
                <use id="reset" xlink:href="#resetDef" x="30" y="36" onmousedown="handleReset()"/>
                <g id="arrowUp" xlink:href="#dirArrow" transform="translate(30 24)" onmousedown="handlePan(0,-1)">
                  <use xlink:href="#rim" fill="#404040">
                        <set attributeName="fill" to="#808080" begin="arrowUp.mouseover" end="arrowUp.mouseout"/>
                  </use>
                  <path fill="none" stroke="white" stroke-width="1.5" d="M0,-3.0v7 M-2.5,-0.5L0,-3.0L2.5,-0.5"/>
                </g>
                <g id="arrowRight" xlink:href="#dirArrow" transform="rotate(90) translate(36 -43)" onmousedown="handlePan(1,0)">
                  <use xlink:href="#rim" fill="#404040">
                        <set attributeName="fill" to="#808080" begin="arrowRight.mouseover" end="arrowRight.mouseout"/>
                  </use>
                  <path fill="none" stroke="white" stroke-width="1.5" d="M0,-3.0v7 M-2.5,-0.5L0,-3.0L2.5,-0.5"/>
                </g>
                <g id="arrowDown" xlink:href="#dirArrow" transform="rotate(180) translate(-30 -48)" onmousedown="handlePan(0,1)">
                  <use xlink:href="#rim" fill="#404040">
                        <set attributeName="fill" to="#808080" begin="arrowDown.mouseover" end="arrowDown.mouseout"/>
                  </use>
                  <path fill="none" stroke="white" stroke-width="1.5" d="M0,-3.0v7 M-2.5,-0.5L0,-3.0L2.5,-0.5"/>
                </g>
                <g id="arrowLeft" xlink:href="#dirArrow" transform="rotate(270) translate(-36 17)" onmousedown="handlePan(-1,0)">
                  <use xlink:href="#rim" fill="#404040">
                        <set attributeName="fill" to="#808080" begin="arrowLeft.mouseover" end="arrowLeft.mouseout"/>
                  </use>
                  <path fill="none" stroke="white" stroke-width="1.5" d="M0,-3.0v7 M-2.5,-0.5L0,-3.0L2.5,-0.5"/>
                </g>
        </g>
        <svg viewBox="0 0 15 15" width="100%" height="30px" preserveAspectRatio="xMaxYMin meet">
         <g id="arrow_out" transform="scale(0.3 0.3)">
          <a xlink:href="classorg_1_1cobbzilla_1_1util_1_1io_1_1FileUtil_a43aac0bb53ce0212efc2e57cb1024722_a43aac0bb53ce0212efc2e57cb1024722_icgraph_org.svg" target="_base">
           <rect id="button" ry="5" rx="5" y="6" x="6" height="38" width="38"
                fill="#f2f5e9" fill-opacity="0.5" stroke="#606060" stroke-width="1.0"/>
           <path id="arrow"
             d="M 11.500037,31.436501 C 11.940474,20.09759 22.043105,11.32322 32.158766,21.979434 L 37.068811,17.246167 C 37.068811,17.246167 37.088388,32 37.088388,32 L 22.160133,31.978069 C 22.160133,31.978069 26.997745,27.140456 26.997745,27.140456 C 18.528582,18.264221 13.291696,25.230495 11.500037,31.436501 z"
             style="fill:#404040;"/>
          </a>
         </g>
        </svg>
</svg>
