<?xml version="1.0" encoding="UTF-8" standalone="no"?>
<!DOCTYPE svg PUBLIC "-//W3C//DTD SVG 1.1//EN"
 "http://www.w3.org/Graphics/SVG/1.1/DTD/svg11.dtd">
<!-- Generated by graphviz version 2.40.1 (20161225.0304)
 -->
<!-- Title: org.cobbzilla.util.io.FileUtil.firstFoundFile Pages: 1 -->
<svg width="458pt" height="88pt"
 viewBox="0.00 0.00 458.00 88.00" xmlns="http://www.w3.org/2000/svg" xmlns:xlink="http://www.w3.org/1999/xlink">
<g id="graph0" class="graph" transform="scale(1 1) rotate(0) translate(4 84)">
<title>org.cobbzilla.util.io.FileUtil.firstFoundFile</title>
<!-- Node0 -->
<g id="node1" class="node">
<title>Node0</title>
<polygon fill="#bfbfbf" stroke="#000000" points="0,-24.5 0,-54.5 116,-54.5 116,-24.5 0,-24.5"/>
<text text-anchor="start" x="8" y="-42.5" font-family="Helvetica,sans-Serif" font-size="10.00" fill="#000000">org.cobbzilla.util.io.File</text>
<text text-anchor="middle" x="58" y="-31.5" font-family="Helvetica,sans-Serif" font-size="10.00" fill="#000000">Util.firstFoundFile</text>
</g>
<!-- Node1 -->
<g id="node2" class="node">
<title>Node1</title>
<g id="a_node2"><a xlink:href="../../df/dac/classorg_1_1cobbzilla_1_1util_1_1io_1_1FileUtil_a7050767a8f34eb5762bed38cc528289b.html#a7050767a8f34eb5762bed38cc528289b" target="_top" xlink:title="org.cobbzilla.util.io.File\lUtil.isReadableNonEmptyFile">
<polygon fill="none" stroke="#000000" points="152,-49.5 152,-79.5 298,-79.5 298,-49.5 152,-49.5"/>
<text text-anchor="start" x="160" y="-67.5" font-family="Helvetica,sans-Serif" font-size="10.00" fill="#000000">org.cobbzilla.util.io.File</text>
<text text-anchor="middle" x="225" y="-56.5" font-family="Helvetica,sans-Serif" font-size="10.00" fill="#000000">Util.isReadableNonEmptyFile</text>
</a>
</g>
</g>
<!-- Node0&#45;&gt;Node1 -->
<g id="edge1" class="edge">
<title>Node0&#45;&gt;Node1</title>
<path fill="none" stroke="#191970" d="M116.4085,-48.2438C124.6563,-49.4785 133.2641,-50.7671 141.8667,-52.0549"/>
<polygon fill="#191970" stroke="#191970" points="141.5332,-55.5439 151.9412,-53.5631 142.5696,-48.621 141.5332,-55.5439"/>
</g>
<!-- Node2 -->
<g id="node3" class="node">
<title>Node2</title>
<g id="a_node3"><a xlink:href="../../df/dac/classorg_1_1cobbzilla_1_1util_1_1io_1_1FileUtil_a00b2881b17331777b1a28c62fbd83f2d.html#a00b2881b17331777b1a28c62fbd83f2d" target="_top" xlink:title="org.cobbzilla.util.io.File\lUtil.path">
<polygon fill="none" stroke="#000000" points="167,-.5 167,-30.5 283,-30.5 283,-.5 167,-.5"/>
<text text-anchor="start" x="175" y="-18.5" font-family="Helvetica,sans-Serif" font-size="10.00" fill="#000000">org.cobbzilla.util.io.File</text>
<text text-anchor="middle" x="225" y="-7.5" font-family="Helvetica,sans-Serif" font-size="10.00" fill="#000000">Util.path</text>
</a>
</g>
</g>
<!-- Node0&#45;&gt;Node2 -->
<g id="edge2" class="edge">
<title>Node0&#45;&gt;Node2</title>
<path fill="none" stroke="#191970" d="M116.4085,-31.106C129.4503,-29.2317 143.3924,-27.228 156.7907,-25.3025"/>
<polygon fill="#191970" stroke="#191970" points="157.5061,-28.7358 166.9065,-23.8488 156.5103,-21.807 157.5061,-28.7358"/>
</g>
<!-- Node3 -->
<g id="node4" class="node">
<title>Node3</title>
<g id="a_node4"><a xlink:href="../../df/dac/classorg_1_1cobbzilla_1_1util_1_1io_1_1FileUtil_a228e7020eaecd4316d09a553a2042b24.html#a228e7020eaecd4316d09a553a2042b24" target="_top" xlink:title="org.cobbzilla.util.io.File\lUtil.abs">
<polygon fill="none" stroke="#000000" points="334,-.5 334,-30.5 450,-30.5 450,-.5 334,-.5"/>
<text text-anchor="start" x="342" y="-18.5" font-family="Helvetica,sans-Serif" font-size="10.00" fill="#000000">org.cobbzilla.util.io.File</text>
<text text-anchor="middle" x="392" y="-7.5" font-family="Helvetica,sans-Serif" font-size="10.00" fill="#000000">Util.abs</text>
</a>
</g>
</g>
<!-- Node2&#45;&gt;Node3 -->
<g id="edge3" class="edge">
<title>Node2&#45;&gt;Node3</title>
<path fill="none" stroke="#191970" d="M283.4085,-15.5C296.4503,-15.5 310.3924,-15.5 323.7907,-15.5"/>
<polygon fill="#191970" stroke="#191970" points="323.9065,-19.0001 333.9065,-15.5 323.9065,-12.0001 323.9065,-19.0001"/>
</g>
</g>
</svg>
