<?xml version="1.0" encoding="UTF-8" standalone="no"?>
<!DOCTYPE svg PUBLIC "-//W3C//DTD SVG 1.1//EN"
 "http://www.w3.org/Graphics/SVG/1.1/DTD/svg11.dtd">
<!-- Generated by graphviz version 2.40.1 (20161225.0304)
 -->
<!-- Title: org.cobbzilla.util.io.FileUtil.toPropertiesOrDie Pages: 1 -->
<svg width="428pt" height="110pt"
 viewBox="0.00 0.00 428.00 110.00" xmlns="http://www.w3.org/2000/svg" xmlns:xlink="http://www.w3.org/1999/xlink">
<g id="graph0" class="graph" transform="scale(1 1) rotate(0) translate(4 106)">
<title>org.cobbzilla.util.io.FileUtil.toPropertiesOrDie</title>
<!-- Node0 -->
<g id="node1" class="node">
<title>Node0</title>
<polygon fill="#bfbfbf" stroke="#000000" points="0,-49.5 0,-79.5 116,-79.5 116,-49.5 0,-49.5"/>
<text text-anchor="start" x="8" y="-67.5" font-family="Helvetica,sans-Serif" font-size="10.00" fill="#000000">org.cobbzilla.util.io.File</text>
<text text-anchor="middle" x="58" y="-56.5" font-family="Helvetica,sans-Serif" font-size="10.00" fill="#000000">Util.toPropertiesOrDie</text>
</g>
<!-- Node1 -->
<g id="node2" class="node">
<title>Node1</title>
<g id="a_node2"><a xlink:href="../../df/dac/classorg_1_1cobbzilla_1_1util_1_1io_1_1FileUtil_a228e7020eaecd4316d09a553a2042b24.html#a228e7020eaecd4316d09a553a2042b24" target="_top" xlink:title="org.cobbzilla.util.io.File\lUtil.abs">
<polygon fill="none" stroke="#000000" points="304,-71.5 304,-101.5 420,-101.5 420,-71.5 304,-71.5"/>
<text text-anchor="start" x="312" y="-89.5" font-family="Helvetica,sans-Serif" font-size="10.00" fill="#000000">org.cobbzilla.util.io.File</text>
<text text-anchor="middle" x="362" y="-78.5" font-family="Helvetica,sans-Serif" font-size="10.00" fill="#000000">Util.abs</text>
</a>
</g>
</g>
<!-- Node0&#45;&gt;Node1 -->
<g id="edge1" class="edge">
<title>Node0&#45;&gt;Node1</title>
<path fill="none" stroke="#191970" d="M104.8575,-79.5237C119.7643,-83.6087 136.4278,-87.4646 152,-89.5 198.9952,-95.6426 252.4071,-94.7739 293.6036,-92.4303"/>
<polygon fill="#191970" stroke="#191970" points="294.0352,-95.9106 303.8027,-91.8061 293.6075,-88.9236 294.0352,-95.9106"/>
</g>
<!-- Node2 -->
<g id="node3" class="node">
<title>Node2</title>
<g id="a_node3"><a xlink:href="../../df/dac/classorg_1_1cobbzilla_1_1util_1_1io_1_1FileUtil_a00b2881b17331777b1a28c62fbd83f2d.html#a00b2881b17331777b1a28c62fbd83f2d" target="_top" xlink:title="org.cobbzilla.util.io.File\lUtil.path">
<polygon fill="none" stroke="#000000" points="152,-49.5 152,-79.5 268,-79.5 268,-49.5 152,-49.5"/>
<text text-anchor="start" x="160" y="-67.5" font-family="Helvetica,sans-Serif" font-size="10.00" fill="#000000">org.cobbzilla.util.io.File</text>
<text text-anchor="middle" x="210" y="-56.5" font-family="Helvetica,sans-Serif" font-size="10.00" fill="#000000">Util.path</text>
</a>
</g>
</g>
<!-- Node0&#45;&gt;Node2 -->
<g id="edge2" class="edge">
<title>Node0&#45;&gt;Node2</title>
<path fill="none" stroke="#191970" d="M116.3325,-64.5C124.6057,-64.5 133.1747,-64.5 141.617,-64.5"/>
<polygon fill="#191970" stroke="#191970" points="141.8237,-68.0001 151.8236,-64.5 141.8236,-61.0001 141.8237,-68.0001"/>
</g>
<!-- Node3 -->
<g id="node4" class="node">
<title>Node3</title>
<g id="a_node4"><a xlink:href="../../df/dac/classorg_1_1cobbzilla_1_1util_1_1io_1_1FileUtil_a499c6feadf91b48240fc75bebab825eb.html#a499c6feadf91b48240fc75bebab825eb" target="_top" xlink:title="org.cobbzilla.util.io.File\lUtil.toProperties">
<polygon fill="none" stroke="#000000" points="152,-.5 152,-30.5 268,-30.5 268,-.5 152,-.5"/>
<text text-anchor="start" x="160" y="-18.5" font-family="Helvetica,sans-Serif" font-size="10.00" fill="#000000">org.cobbzilla.util.io.File</text>
<text text-anchor="middle" x="210" y="-7.5" font-family="Helvetica,sans-Serif" font-size="10.00" fill="#000000">Util.toProperties</text>
</a>
</g>
</g>
<!-- Node0&#45;&gt;Node3 -->
<g id="edge4" class="edge">
<title>Node0&#45;&gt;Node3</title>
<path fill="none" stroke="#191970" d="M104.8453,-49.3986C120.2317,-44.4385 137.4971,-38.8726 153.5208,-33.7071"/>
<polygon fill="#191970" stroke="#191970" points="154.8656,-36.951 163.3094,-30.5516 152.7178,-30.2887 154.8656,-36.951"/>
</g>
<!-- Node2&#45;&gt;Node1 -->
<g id="edge3" class="edge">
<title>Node2&#45;&gt;Node1</title>
<path fill="none" stroke="#191970" d="M268.3325,-72.9429C276.6966,-74.1535 285.3631,-75.4078 293.8953,-76.6427"/>
<polygon fill="#191970" stroke="#191970" points="293.4254,-80.1111 303.8236,-78.0797 294.4281,-73.1833 293.4254,-80.1111"/>
</g>
</g>
</svg>
