<?xml version="1.0" encoding="UTF-8" standalone="no"?>
<!DOCTYPE svg PUBLIC "-//W3C//DTD SVG 1.1//EN"
 "http://www.w3.org/Graphics/SVG/1.1/DTD/svg11.dtd">
<!-- Generated by graphviz version 2.40.1 (20161225.0304)
 -->
<!-- Title: org.cobbzilla.util.io.FileUtil.toString Pages: 1 -->
<svg width="510pt" height="235pt"
 viewBox="0.00 0.00 510.00 235.00" xmlns="http://www.w3.org/2000/svg" xmlns:xlink="http://www.w3.org/1999/xlink">
<g id="graph0" class="graph" transform="scale(1 1) rotate(0) translate(4 231)">
<title>org.cobbzilla.util.io.FileUtil.toString</title>
<!-- Node1 -->
<g id="node1" class="node">
<title>Node1</title>
<polygon fill="#bfbfbf" stroke="#000000" points="0,-98.5 0,-128.5 116,-128.5 116,-98.5 0,-98.5"/>
<text text-anchor="start" x="8" y="-116.5" font-family="Helvetica,sans-Serif" font-size="10.00" fill="#000000">org.cobbzilla.util.io.File</text>
<text text-anchor="middle" x="58" y="-105.5" font-family="Helvetica,sans-Serif" font-size="10.00" fill="#000000">Util.toString</text>
</g>
<!-- Node2 -->
<g id="node2" class="node">
<title>Node2</title>
<g id="a_node2"><a xlink:href="../../d7/d5c/classorg_1_1cobbzilla_1_1util_1_1handlebars_1_1HandlebarsUtil_1_1FileLoaderHelper_ab4317625c7a5d8a214c72f4d30c1b1d8.html#ab4317625c7a5d8a214c72f4d30c1b1d8" target="_top" xlink:title="org.cobbzilla.util.handlebars.\lHandlebarsUtil.FileLoaderHelper.apply">
<polygon fill="none" stroke="#000000" points="152,-196.5 152,-226.5 336,-226.5 336,-196.5 152,-196.5"/>
<text text-anchor="start" x="160" y="-214.5" font-family="Helvetica,sans-Serif" font-size="10.00" fill="#000000">org.cobbzilla.util.handlebars.</text>
<text text-anchor="middle" x="244" y="-203.5" font-family="Helvetica,sans-Serif" font-size="10.00" fill="#000000">HandlebarsUtil.FileLoaderHelper.apply</text>
</a>
</g>
</g>
<!-- Node1&#45;&gt;Node2 -->
<g id="edge1" class="edge">
<title>Node1&#45;&gt;Node2</title>
<path fill="none" stroke="#191970" d="M80.5465,-135.677C98.5199,-152.1954 125.062,-174.1185 152,-187.5 158.8003,-190.8781 166.1272,-193.817 173.5719,-196.3656"/>
<polygon fill="#191970" stroke="#191970" points="82.607,-132.8107 72.9207,-128.518 77.8158,-137.9142 82.607,-132.8107"/>
</g>
<!-- Node3 -->
<g id="node3" class="node">
<title>Node3</title>
<g id="a_node3"><a xlink:href="../../dc/d2c/classorg_1_1cobbzilla_1_1util_1_1json_1_1JsonUtil_ae1da47683154bc07882393e713138eee.html#ae1da47683154bc07882393e713138eee" target="_top" xlink:title="org.cobbzilla.util.json.\lJsonUtil.fromJson">
<polygon fill="none" stroke="#000000" points="188.5,-147.5 188.5,-177.5 299.5,-177.5 299.5,-147.5 188.5,-147.5"/>
<text text-anchor="start" x="196.5" y="-165.5" font-family="Helvetica,sans-Serif" font-size="10.00" fill="#000000">org.cobbzilla.util.json.</text>
<text text-anchor="middle" x="244" y="-154.5" font-family="Helvetica,sans-Serif" font-size="10.00" fill="#000000">JsonUtil.fromJson</text>
</a>
</g>
</g>
<!-- Node1&#45;&gt;Node3 -->
<g id="edge2" class="edge">
<title>Node1&#45;&gt;Node3</title>
<path fill="none" stroke="#191970" d="M124.5713,-131.2472C133.7833,-133.6907 143.1258,-136.1624 152,-138.5 163.6525,-141.5694 176.1403,-144.8398 188.0395,-147.947"/>
<polygon fill="#191970" stroke="#191970" points="125.2181,-127.7977 114.6548,-128.6144 123.4218,-134.5633 125.2181,-127.7977"/>
</g>
<!-- Node4 -->
<g id="node4" class="node">
<title>Node4</title>
<g id="a_node4"><a xlink:href="../../df/ded/classorg_1_1cobbzilla_1_1util_1_1system_1_1CommandShell_a666470a21e3851280323bf742049d32a.html#a666470a21e3851280323bf742049d32a" target="_top" xlink:title="org.cobbzilla.util.system.\lCommandShell.replaceShellExports">
<polygon fill="none" stroke="#000000" points="157.5,-98.5 157.5,-128.5 330.5,-128.5 330.5,-98.5 157.5,-98.5"/>
<text text-anchor="start" x="165.5" y="-116.5" font-family="Helvetica,sans-Serif" font-size="10.00" fill="#000000">org.cobbzilla.util.system.</text>
<text text-anchor="middle" x="244" y="-105.5" font-family="Helvetica,sans-Serif" font-size="10.00" fill="#000000">CommandShell.replaceShellExports</text>
</a>
</g>
</g>
<!-- Node1&#45;&gt;Node4 -->
<g id="edge3" class="edge">
<title>Node1&#45;&gt;Node4</title>
<path fill="none" stroke="#191970" d="M126.1026,-113.5C136.2818,-113.5 146.8907,-113.5 157.3904,-113.5"/>
<polygon fill="#191970" stroke="#191970" points="126.0865,-110.0001 116.0865,-113.5 126.0864,-117.0001 126.0865,-110.0001"/>
</g>
<!-- Node5 -->
<g id="node5" class="node">
<title>Node5</title>
<g id="a_node5"><a xlink:href="../../df/dac/classorg_1_1cobbzilla_1_1util_1_1io_1_1FileUtil_a58e4aaaf6b3d8f22db18ecae95c4dbc0.html#a58e4aaaf6b3d8f22db18ecae95c4dbc0" target="_top" xlink:title="org.cobbzilla.util.io.File\lUtil.toStringOrDie">
<polygon fill="none" stroke="#000000" points="186,-49.5 186,-79.5 302,-79.5 302,-49.5 186,-49.5"/>
<text text-anchor="start" x="194" y="-67.5" font-family="Helvetica,sans-Serif" font-size="10.00" fill="#000000">org.cobbzilla.util.io.File</text>
<text text-anchor="middle" x="244" y="-56.5" font-family="Helvetica,sans-Serif" font-size="10.00" fill="#000000">Util.toStringOrDie</text>
</a>
</g>
</g>
<!-- Node1&#45;&gt;Node5 -->
<g id="edge4" class="edge">
<title>Node1&#45;&gt;Node5</title>
<path fill="none" stroke="#191970" d="M124.895,-95.8771C145.2443,-90.5163 167.408,-84.6775 187.0377,-79.5062"/>
<polygon fill="#191970" stroke="#191970" points="123.8486,-92.5333 115.0702,-98.4654 125.6319,-99.3023 123.8486,-92.5333"/>
</g>
<!-- Node6 -->
<g id="node6" class="node">
<title>Node6</title>
<g id="a_node6"><a xlink:href="../../db/df2/classorg_1_1cobbzilla_1_1util_1_1io_1_1TarballTest_a50ce445e783e753505f31400584a94c8.html#a50ce445e783e753505f31400584a94c8" target="_top" xlink:title="org.cobbzilla.util.io.Tarball\lTest.validateUnrolledTarball">
<polygon fill="none" stroke="#000000" points="175,-.5 175,-30.5 313,-30.5 313,-.5 175,-.5"/>
<text text-anchor="start" x="183" y="-18.5" font-family="Helvetica,sans-Serif" font-size="10.00" fill="#000000">org.cobbzilla.util.io.Tarball</text>
<text text-anchor="middle" x="244" y="-7.5" font-family="Helvetica,sans-Serif" font-size="10.00" fill="#000000">Test.validateUnrolledTarball</text>
</a>
</g>
</g>
<!-- Node1&#45;&gt;Node6 -->
<g id="edge5" class="edge">
<title>Node1&#45;&gt;Node6</title>
<path fill="none" stroke="#191970" d="M80.963,-91.4204C98.979,-75.2076 125.3847,-53.7801 152,-40.5 159.7013,-36.6573 168.0698,-33.3442 176.5168,-30.5042"/>
<polygon fill="#191970" stroke="#191970" points="78.3021,-89.1122 73.3051,-98.4547 83.0374,-94.2674 78.3021,-89.1122"/>
</g>
<!-- Node7 -->
<g id="node7" class="node">
<title>Node7</title>
<g id="a_node7"><a xlink:href="../../db/df2/classorg_1_1cobbzilla_1_1util_1_1io_1_1TarballTest_a2291fc7c46504058afb866982146cc43.html#a2291fc7c46504058afb866982146cc43" target="_top" xlink:title="org.cobbzilla.util.io.Tarball\lTest.testUnrollAndReroll">
<polygon fill="none" stroke="#000000" points="372,-.5 372,-30.5 502,-30.5 502,-.5 372,-.5"/>
<text text-anchor="start" x="380" y="-18.5" font-family="Helvetica,sans-Serif" font-size="10.00" fill="#000000">org.cobbzilla.util.io.Tarball</text>
<text text-anchor="middle" x="437" y="-7.5" font-family="Helvetica,sans-Serif" font-size="10.00" fill="#000000">Test.testUnrollAndReroll</text>
</a>
</g>
</g>
<!-- Node6&#45;&gt;Node7 -->
<g id="edge6" class="edge">
<title>Node6&#45;&gt;Node7</title>
<path fill="none" stroke="#191970" d="M323.5847,-15.5C339.662,-15.5 356.3859,-15.5 371.8955,-15.5"/>
<polygon fill="#191970" stroke="#191970" points="323.1323,-12.0001 313.1323,-15.5 323.1323,-19.0001 323.1323,-12.0001"/>
</g>
</g>
</svg>
