<?xml version="1.0" encoding="UTF-8" standalone="no"?>
<!DOCTYPE svg PUBLIC "-//W3C//DTD SVG 1.1//EN"
 "http://www.w3.org/Graphics/SVG/1.1/DTD/svg11.dtd">
<!-- Generated by graphviz version 2.40.1 (20161225.0304)
 -->
<!-- Title: org.cobbzilla.util.io.FileUtil.createTempDirOrDie Pages: 1 -->
<svg width="285pt" height="88pt"
 viewBox="0.00 0.00 285.00 88.00" xmlns="http://www.w3.org/2000/svg" xmlns:xlink="http://www.w3.org/1999/xlink">
<g id="graph0" class="graph" transform="scale(1 1) rotate(0) translate(4 84)">
<title>org.cobbzilla.util.io.FileUtil.createTempDirOrDie</title>
<!-- Node0 -->
<g id="node1" class="node">
<title>Node0</title>
<polygon fill="#bfbfbf" stroke="#000000" points="0,-24.5 0,-54.5 125,-54.5 125,-24.5 0,-24.5"/>
<text text-anchor="start" x="8" y="-42.5" font-family="Helvetica,sans-Serif" font-size="10.00" fill="#000000">org.cobbzilla.util.io.File</text>
<text text-anchor="middle" x="62.5" y="-31.5" font-family="Helvetica,sans-Serif" font-size="10.00" fill="#000000">Util.createTempDirOrDie</text>
</g>
<!-- Node1 -->
<g id="node2" class="node">
<title>Node1</title>
<g id="a_node2"><a xlink:href="../../df/dac/classorg_1_1cobbzilla_1_1util_1_1io_1_1FileUtil_a228e7020eaecd4316d09a553a2042b24.html#a228e7020eaecd4316d09a553a2042b24" target="_top" xlink:title="org.cobbzilla.util.io.File\lUtil.abs">
<polygon fill="none" stroke="#000000" points="161,-49.5 161,-79.5 277,-79.5 277,-49.5 161,-49.5"/>
<text text-anchor="start" x="169" y="-67.5" font-family="Helvetica,sans-Serif" font-size="10.00" fill="#000000">org.cobbzilla.util.io.File</text>
<text text-anchor="middle" x="219" y="-56.5" font-family="Helvetica,sans-Serif" font-size="10.00" fill="#000000">Util.abs</text>
</a>
</g>
</g>
<!-- Node0&#45;&gt;Node1 -->
<g id="edge1" class="edge">
<title>Node0&#45;&gt;Node1</title>
<path fill="none" stroke="#191970" d="M125.2528,-49.5244C133.6875,-50.8718 142.3725,-52.2592 150.8942,-53.6205"/>
<polygon fill="#191970" stroke="#191970" points="150.3712,-57.0812 160.7982,-55.2026 151.4755,-50.1689 150.3712,-57.0812"/>
</g>
<!-- Node2 -->
<g id="node3" class="node">
<title>Node2</title>
<g id="a_node3"><a xlink:href="../../df/dac/classorg_1_1cobbzilla_1_1util_1_1io_1_1FileUtil_ae3342a8aa5953865b770b51f7f548560.html#ae3342a8aa5953865b770b51f7f548560" target="_top" xlink:title="org.cobbzilla.util.io.File\lUtil.createTempDir">
<polygon fill="none" stroke="#000000" points="161,-.5 161,-30.5 277,-30.5 277,-.5 161,-.5"/>
<text text-anchor="start" x="169" y="-18.5" font-family="Helvetica,sans-Serif" font-size="10.00" fill="#000000">org.cobbzilla.util.io.File</text>
<text text-anchor="middle" x="219" y="-7.5" font-family="Helvetica,sans-Serif" font-size="10.00" fill="#000000">Util.createTempDir</text>
</a>
</g>
</g>
<!-- Node0&#45;&gt;Node2 -->
<g id="edge2" class="edge">
<title>Node0&#45;&gt;Node2</title>
<path fill="none" stroke="#191970" d="M125.2528,-29.8766C133.6875,-28.5831 142.3725,-27.2512 150.8942,-25.9443"/>
<polygon fill="#191970" stroke="#191970" points="151.4443,-29.401 160.7982,-24.4255 150.3832,-22.4819 151.4443,-29.401"/>
</g>
</g>
</svg>
