<?xml version="1.0" encoding="UTF-8" standalone="no"?>
<!DOCTYPE svg PUBLIC "-//W3C//DTD SVG 1.1//EN"
 "http://www.w3.org/Graphics/SVG/1.1/DTD/svg11.dtd">
<!-- Generated by graphviz version 2.40.1 (20161225.0304)
 -->
<!-- Title: org.cobbzilla.util.io.FileUtil.loadResourceAsStringList Pages: 1 -->
<svg width="504pt" height="88pt"
 viewBox="0.00 0.00 504.00 88.00" xmlns="http://www.w3.org/2000/svg" xmlns:xlink="http://www.w3.org/1999/xlink">
<g id="graph0" class="graph" transform="scale(1 1) rotate(0) translate(4 84)">
<title>org.cobbzilla.util.io.FileUtil.loadResourceAsStringList</title>
<!-- Node0 -->
<g id="node1" class="node">
<title>Node0</title>
<polygon fill="#bfbfbf" stroke="#000000" points="0,-24.5 0,-54.5 148,-54.5 148,-24.5 0,-24.5"/>
<text text-anchor="start" x="8" y="-42.5" font-family="Helvetica,sans-Serif" font-size="10.00" fill="#000000">org.cobbzilla.util.io.File</text>
<text text-anchor="middle" x="74" y="-31.5" font-family="Helvetica,sans-Serif" font-size="10.00" fill="#000000">Util.loadResourceAsStringList</text>
</g>
<!-- Node1 -->
<g id="node2" class="node">
<title>Node1</title>
<g id="a_node2"><a xlink:href="../../dc/d81/classorg_1_1cobbzilla_1_1util_1_1io_1_1StreamUtil_a94238d51b85f0dcd4d5c8fd3d0940af9.html#a94238d51b85f0dcd4d5c8fd3d0940af9" target="_top" xlink:title="org.cobbzilla.util.io.Stream\lUtil.loadResourceAsReader">
<polygon fill="none" stroke="#000000" points="184,-49.5 184,-79.5 322,-79.5 322,-49.5 184,-49.5"/>
<text text-anchor="start" x="192" y="-67.5" font-family="Helvetica,sans-Serif" font-size="10.00" fill="#000000">org.cobbzilla.util.io.Stream</text>
<text text-anchor="middle" x="253" y="-56.5" font-family="Helvetica,sans-Serif" font-size="10.00" fill="#000000">Util.loadResourceAsReader</text>
</a>
</g>
</g>
<!-- Node0&#45;&gt;Node1 -->
<g id="edge1" class="edge">
<title>Node0&#45;&gt;Node1</title>
<path fill="none" stroke="#191970" d="M148.0983,-49.8489C156.6012,-51.0365 165.2953,-52.2507 173.861,-53.4471"/>
<polygon fill="#191970" stroke="#191970" points="173.4504,-56.9236 183.8384,-54.8406 174.4187,-49.9909 173.4504,-56.9236"/>
</g>
<!-- Node3 -->
<g id="node4" class="node">
<title>Node3</title>
<g id="a_node4"><a xlink:href="../../df/dac/classorg_1_1cobbzilla_1_1util_1_1io_1_1FileUtil_a084766580b4e0fc7589b4eadc4b8d817.html#a084766580b4e0fc7589b4eadc4b8d817" target="_top" xlink:title="org.cobbzilla.util.io.File\lUtil.toStringList">
<polygon fill="none" stroke="#000000" points="195,-.5 195,-30.5 311,-30.5 311,-.5 195,-.5"/>
<text text-anchor="start" x="203" y="-18.5" font-family="Helvetica,sans-Serif" font-size="10.00" fill="#000000">org.cobbzilla.util.io.File</text>
<text text-anchor="middle" x="253" y="-7.5" font-family="Helvetica,sans-Serif" font-size="10.00" fill="#000000">Util.toStringList</text>
</a>
</g>
</g>
<!-- Node0&#45;&gt;Node3 -->
<g id="edge3" class="edge">
<title>Node0&#45;&gt;Node3</title>
<path fill="none" stroke="#191970" d="M148.0983,-29.565C160.271,-27.9329 172.8357,-26.2483 184.8547,-24.6368"/>
<polygon fill="#191970" stroke="#191970" points="185.3555,-28.1011 194.8017,-23.3031 184.4252,-21.1631 185.3555,-28.1011"/>
</g>
<!-- Node2 -->
<g id="node3" class="node">
<title>Node2</title>
<g id="a_node3"><a xlink:href="../../dc/d81/classorg_1_1cobbzilla_1_1util_1_1io_1_1StreamUtil_aa82a9bc20749f971c1ec04a4025ef34d.html#aa82a9bc20749f971c1ec04a4025ef34d" target="_top" xlink:title="org.cobbzilla.util.io.Stream\lUtil.loadResourceAsStream">
<polygon fill="none" stroke="#000000" points="358,-49.5 358,-79.5 496,-79.5 496,-49.5 358,-49.5"/>
<text text-anchor="start" x="366" y="-67.5" font-family="Helvetica,sans-Serif" font-size="10.00" fill="#000000">org.cobbzilla.util.io.Stream</text>
<text text-anchor="middle" x="427" y="-56.5" font-family="Helvetica,sans-Serif" font-size="10.00" fill="#000000">Util.loadResourceAsStream</text>
</a>
</g>
</g>
<!-- Node1&#45;&gt;Node2 -->
<g id="edge2" class="edge">
<title>Node1&#45;&gt;Node2</title>
<path fill="none" stroke="#191970" d="M322.0193,-64.5C330.4757,-64.5 339.1691,-64.5 347.7607,-64.5"/>
<polygon fill="#191970" stroke="#191970" points="347.7795,-68.0001 357.7795,-64.5 347.7794,-61.0001 347.7795,-68.0001"/>
</g>
</g>
</svg>
