<?xml version="1.0" encoding="UTF-8" standalone="no"?>
<!DOCTYPE svg PUBLIC "-//W3C//DTD SVG 1.1//EN"
 "http://www.w3.org/Graphics/SVG/1.1/DTD/svg11.dtd">
<!-- Generated by graphviz version 2.40.1 (20161225.0304)
 -->
<!-- Title: org.cobbzilla.util.io.FileUtil.path Pages: 1 -->
<svg width="477pt" height="406pt"
 viewBox="0.00 0.00 477.00 406.00" xmlns="http://www.w3.org/2000/svg" xmlns:xlink="http://www.w3.org/1999/xlink">
<g id="graph0" class="graph" transform="scale(1 1) rotate(0) translate(4 402)">
<title>org.cobbzilla.util.io.FileUtil.path</title>
<!-- Node2 -->
<g id="node1" class="node">
<title>Node2</title>
<polygon fill="#bfbfbf" stroke="#000000" points="0,-171.5 0,-201.5 116,-201.5 116,-171.5 0,-171.5"/>
<text text-anchor="start" x="8" y="-189.5" font-family="Helvetica,sans-Serif" font-size="10.00" fill="#000000">org.cobbzilla.util.io.File</text>
<text text-anchor="middle" x="58" y="-178.5" font-family="Helvetica,sans-Serif" font-size="10.00" fill="#000000">Util.path</text>
</g>
<!-- Node3 -->
<g id="node2" class="node">
<title>Node3</title>
<g id="a_node2"><a xlink:href="../../df/dac/classorg_1_1cobbzilla_1_1util_1_1io_1_1FileUtil_a003745fb3eb843ccb575f22470a8bade.html#a003745fb3eb843ccb575f22470a8bade" target="_top" xlink:title="org.cobbzilla.util.io.File\lUtil._touch">
<polygon fill="none" stroke="#000000" points="158,-343.5 158,-373.5 274,-373.5 274,-343.5 158,-343.5"/>
<text text-anchor="start" x="166" y="-361.5" font-family="Helvetica,sans-Serif" font-size="10.00" fill="#000000">org.cobbzilla.util.io.File</text>
<text text-anchor="middle" x="216" y="-350.5" font-family="Helvetica,sans-Serif" font-size="10.00" fill="#000000">Util._touch</text>
</a>
</g>
</g>
<!-- Node2&#45;&gt;Node3 -->
<g id="edge1" class="edge">
<title>Node2&#45;&gt;Node3</title>
<path fill="none" stroke="#191970" d="M67.6607,-211.0386C81.6356,-243.5669 110.4504,-300.7727 152,-334.5 156.2381,-337.9402 161.0196,-340.9191 166.0123,-343.4912"/>
<polygon fill="#191970" stroke="#191970" points="70.8826,-209.6709 63.8024,-201.7892 64.4221,-212.3659 70.8826,-209.6709"/>
</g>
<!-- Node6 -->
<g id="node5" class="node">
<title>Node6</title>
<g id="a_node5"><a xlink:href="../../df/dac/classorg_1_1cobbzilla_1_1util_1_1io_1_1FileUtil_a9883e4dd07f8adbdd6316fdcbcf12079.html#a9883e4dd07f8adbdd6316fdcbcf12079" target="_top" xlink:title="org.cobbzilla.util.io.File\lUtil.basename">
<polygon fill="none" stroke="#000000" points="158,-294.5 158,-324.5 274,-324.5 274,-294.5 158,-294.5"/>
<text text-anchor="start" x="166" y="-312.5" font-family="Helvetica,sans-Serif" font-size="10.00" fill="#000000">org.cobbzilla.util.io.File</text>
<text text-anchor="middle" x="216" y="-301.5" font-family="Helvetica,sans-Serif" font-size="10.00" fill="#000000">Util.basename</text>
</a>
</g>
</g>
<!-- Node2&#45;&gt;Node6 -->
<g id="edge4" class="edge">
<title>Node2&#45;&gt;Node6</title>
<path fill="none" stroke="#191970" d="M75.0461,-209.815C92.2824,-231.9463 120.7757,-264.8174 152,-285.5 157.0455,-288.8421 162.6207,-291.8051 168.3144,-294.4074"/>
<polygon fill="#191970" stroke="#191970" points="77.645,-207.451 68.7971,-201.6229 72.0794,-211.6966 77.645,-207.451"/>
</g>
<!-- Node7 -->
<g id="node6" class="node">
<title>Node7</title>
<g id="a_node6"><a xlink:href="../../df/dac/classorg_1_1cobbzilla_1_1util_1_1io_1_1FileUtil_a2e17822dcfa2bdfe2d618736364f3cc8.html#a2e17822dcfa2bdfe2d618736364f3cc8" target="_top" xlink:title="Iterate through given paths and return File object for the first found path and filename combination ...">
<polygon fill="none" stroke="#000000" points="158,-245.5 158,-275.5 274,-275.5 274,-245.5 158,-245.5"/>
<text text-anchor="start" x="166" y="-263.5" font-family="Helvetica,sans-Serif" font-size="10.00" fill="#000000">org.cobbzilla.util.io.File</text>
<text text-anchor="middle" x="216" y="-252.5" font-family="Helvetica,sans-Serif" font-size="10.00" fill="#000000">Util.firstFoundFile</text>
</a>
</g>
</g>
<!-- Node2&#45;&gt;Node7 -->
<g id="edge5" class="edge">
<title>Node2&#45;&gt;Node7</title>
<path fill="none" stroke="#191970" d="M93.4831,-206.7798C110.8553,-216.3441 132.2391,-227.5848 152,-236.5 158.8146,-239.5744 166.1511,-242.5891 173.3399,-245.3873"/>
<polygon fill="#191970" stroke="#191970" points="94.7213,-203.4637 84.2804,-201.6642 91.3203,-209.582 94.7213,-203.4637"/>
</g>
<!-- Node8 -->
<g id="node7" class="node">
<title>Node8</title>
<g id="a_node7"><a xlink:href="../../df/dac/classorg_1_1cobbzilla_1_1util_1_1io_1_1FileUtil_a611a14804c0fa4046d5b88f31379e399.html#a611a14804c0fa4046d5b88f31379e399" target="_top" xlink:title="org.cobbzilla.util.io.File\lUtil.isSymlink">
<polygon fill="none" stroke="#000000" points="158,-196.5 158,-226.5 274,-226.5 274,-196.5 158,-196.5"/>
<text text-anchor="start" x="166" y="-214.5" font-family="Helvetica,sans-Serif" font-size="10.00" fill="#000000">org.cobbzilla.util.io.File</text>
<text text-anchor="middle" x="216" y="-203.5" font-family="Helvetica,sans-Serif" font-size="10.00" fill="#000000">Util.isSymlink</text>
</a>
</g>
</g>
<!-- Node2&#45;&gt;Node8 -->
<g id="edge6" class="edge">
<title>Node2&#45;&gt;Node8</title>
<path fill="none" stroke="#191970" d="M126.3484,-197.3146C136.8485,-198.976 147.6043,-200.6779 157.8555,-202.2999"/>
<polygon fill="#191970" stroke="#191970" points="126.8086,-193.844 116.3845,-195.738 125.7146,-200.758 126.8086,-193.844"/>
</g>
<!-- Node9 -->
<g id="node8" class="node">
<title>Node9</title>
<g id="a_node8"><a xlink:href="../../df/dac/classorg_1_1cobbzilla_1_1util_1_1io_1_1FileUtil_a8b100ce51fe7aedf8001e878aff51f8d.html#a8b100ce51fe7aedf8001e878aff51f8d" target="_top" xlink:title="org.cobbzilla.util.io.File\lUtil.resourceToProperties">
<polygon fill="none" stroke="#000000" points="152,-147.5 152,-177.5 280,-177.5 280,-147.5 152,-147.5"/>
<text text-anchor="start" x="160" y="-165.5" font-family="Helvetica,sans-Serif" font-size="10.00" fill="#000000">org.cobbzilla.util.io.File</text>
<text text-anchor="middle" x="216" y="-154.5" font-family="Helvetica,sans-Serif" font-size="10.00" fill="#000000">Util.resourceToProperties</text>
</a>
</g>
</g>
<!-- Node2&#45;&gt;Node9 -->
<g id="edge7" class="edge">
<title>Node2&#45;&gt;Node9</title>
<path fill="none" stroke="#191970" d="M126.5024,-176.0946C134.8838,-174.8215 143.4256,-173.524 151.7416,-172.2608"/>
<polygon fill="#191970" stroke="#191970" points="125.7454,-172.6693 116.3845,-177.6315 126.7967,-179.5899 125.7454,-172.6693"/>
</g>
<!-- Node11 -->
<g id="node10" class="node">
<title>Node11</title>
<g id="a_node10"><a xlink:href="../../df/dac/classorg_1_1cobbzilla_1_1util_1_1io_1_1FileUtil_a48ad97cb0518bc01fa28e009d209b514.html#a48ad97cb0518bc01fa28e009d209b514" target="_top" xlink:title="org.cobbzilla.util.io.File\lUtil.toFileOrDie">
<polygon fill="none" stroke="#000000" points="158,-98.5 158,-128.5 274,-128.5 274,-98.5 158,-98.5"/>
<text text-anchor="start" x="166" y="-116.5" font-family="Helvetica,sans-Serif" font-size="10.00" fill="#000000">org.cobbzilla.util.io.File</text>
<text text-anchor="middle" x="216" y="-105.5" font-family="Helvetica,sans-Serif" font-size="10.00" fill="#000000">Util.toFileOrDie</text>
</a>
</g>
</g>
<!-- Node2&#45;&gt;Node11 -->
<g id="edge9" class="edge">
<title>Node2&#45;&gt;Node11</title>
<path fill="none" stroke="#191970" d="M94.7546,-166.657C111.9481,-157.6535 132.8201,-147.1173 152,-138.5 159.5079,-135.1268 167.6179,-131.7558 175.4602,-128.6309"/>
<polygon fill="#191970" stroke="#191970" points="92.8262,-163.7171 85.6152,-171.4793 96.0929,-169.9081 92.8262,-163.7171"/>
</g>
<!-- Node12 -->
<g id="node11" class="node">
<title>Node12</title>
<g id="a_node11"><a xlink:href="../../df/dac/classorg_1_1cobbzilla_1_1util_1_1io_1_1FileUtil_a60da0220507473d9c9126c89ae4b494a.html#a60da0220507473d9c9126c89ae4b494a" target="_top" xlink:title="org.cobbzilla.util.io.File\lUtil.toPropertiesOrDie">
<polygon fill="none" stroke="#000000" points="158,-49.5 158,-79.5 274,-79.5 274,-49.5 158,-49.5"/>
<text text-anchor="start" x="166" y="-67.5" font-family="Helvetica,sans-Serif" font-size="10.00" fill="#000000">org.cobbzilla.util.io.File</text>
<text text-anchor="middle" x="216" y="-56.5" font-family="Helvetica,sans-Serif" font-size="10.00" fill="#000000">Util.toPropertiesOrDie</text>
</a>
</g>
</g>
<!-- Node2&#45;&gt;Node12 -->
<g id="edge10" class="edge">
<title>Node2&#45;&gt;Node12</title>
<path fill="none" stroke="#191970" d="M75.4986,-163.4038C92.8814,-141.8059 121.3134,-109.9023 152,-89.5 157.6621,-85.7355 163.9757,-82.4079 170.3699,-79.5094"/>
<polygon fill="#191970" stroke="#191970" points="72.6286,-161.3908 69.1808,-171.4089 78.1235,-165.7274 72.6286,-161.3908"/>
</g>
<!-- Node13 -->
<g id="node12" class="node">
<title>Node13</title>
<g id="a_node12"><a xlink:href="../../df/dac/classorg_1_1cobbzilla_1_1util_1_1io_1_1FileUtil_a58e4aaaf6b3d8f22db18ecae95c4dbc0.html#a58e4aaaf6b3d8f22db18ecae95c4dbc0" target="_top" xlink:title="org.cobbzilla.util.io.File\lUtil.toStringOrDie">
<polygon fill="none" stroke="#000000" points="158,-.5 158,-30.5 274,-30.5 274,-.5 158,-.5"/>
<text text-anchor="start" x="166" y="-18.5" font-family="Helvetica,sans-Serif" font-size="10.00" fill="#000000">org.cobbzilla.util.io.File</text>
<text text-anchor="middle" x="216" y="-7.5" font-family="Helvetica,sans-Serif" font-size="10.00" fill="#000000">Util.toStringOrDie</text>
</a>
</g>
</g>
<!-- Node2&#45;&gt;Node13 -->
<g id="edge11" class="edge">
<title>Node2&#45;&gt;Node13</title>
<path fill="none" stroke="#191970" d="M67.9987,-161.9618C82.2142,-129.8976 111.1513,-73.9117 152,-40.5 156.7091,-36.6483 162.0819,-33.339 167.6671,-30.509"/>
<polygon fill="#191970" stroke="#191970" points="64.6437,-160.9037 63.9042,-171.4727 71.0732,-163.6717 64.6437,-160.9037"/>
</g>
<!-- Node4 -->
<g id="node3" class="node">
<title>Node4</title>
<g id="a_node3"><a xlink:href="../../df/dac/classorg_1_1cobbzilla_1_1util_1_1io_1_1FileUtil_a82f7d4171a5a1234bebd97bebeaa0e47.html#a82f7d4171a5a1234bebd97bebeaa0e47" target="_top" xlink:title="org.cobbzilla.util.io.File\lUtil.touch">
<polygon fill="none" stroke="#000000" points="334.5,-367.5 334.5,-397.5 450.5,-397.5 450.5,-367.5 334.5,-367.5"/>
<text text-anchor="start" x="342.5" y="-385.5" font-family="Helvetica,sans-Serif" font-size="10.00" fill="#000000">org.cobbzilla.util.io.File</text>
<text text-anchor="middle" x="392.5" y="-374.5" font-family="Helvetica,sans-Serif" font-size="10.00" fill="#000000">Util.touch</text>
</a>
</g>
</g>
<!-- Node3&#45;&gt;Node4 -->
<g id="edge2" class="edge">
<title>Node3&#45;&gt;Node4</title>
<path fill="none" stroke="#191970" d="M284.3924,-367.7998C300.8681,-370.0401 318.3178,-372.4129 334.2793,-374.5833"/>
<polygon fill="#191970" stroke="#191970" points="284.6623,-364.3044 274.2819,-366.425 283.7191,-371.2406 284.6623,-364.3044"/>
</g>
<!-- Node5 -->
<g id="node4" class="node">
<title>Node5</title>
<g id="a_node4"><a xlink:href="../../df/dac/classorg_1_1cobbzilla_1_1util_1_1io_1_1FileUtil_a05f4bb822dc2fe6e5942b8f4957a0f85.html#a05f4bb822dc2fe6e5942b8f4957a0f85" target="_top" xlink:title="org.cobbzilla.util.io.File\lUtil.truncate">
<polygon fill="none" stroke="#000000" points="334.5,-318.5 334.5,-348.5 450.5,-348.5 450.5,-318.5 334.5,-318.5"/>
<text text-anchor="start" x="342.5" y="-336.5" font-family="Helvetica,sans-Serif" font-size="10.00" fill="#000000">org.cobbzilla.util.io.File</text>
<text text-anchor="middle" x="392.5" y="-325.5" font-family="Helvetica,sans-Serif" font-size="10.00" fill="#000000">Util.truncate</text>
</a>
</g>
</g>
<!-- Node3&#45;&gt;Node5 -->
<g id="edge3" class="edge">
<title>Node3&#45;&gt;Node5</title>
<path fill="none" stroke="#191970" d="M284.3924,-348.8127C300.8681,-346.479 318.3178,-344.0074 334.2793,-341.7466"/>
<polygon fill="#191970" stroke="#191970" points="283.6921,-345.3769 274.2819,-350.2448 284.6739,-352.3077 283.6921,-345.3769"/>
</g>
<!-- Node10 -->
<g id="node9" class="node">
<title>Node10</title>
<g id="a_node9"><a xlink:href="../../df/dac/classorg_1_1cobbzilla_1_1util_1_1io_1_1FileUtil_a90fee53cf9d6174e475907548538fbf0.html#a90fee53cf9d6174e475907548538fbf0" target="_top" xlink:title="org.cobbzilla.util.io.File\lUtil.resourceToPropertiesOrDie">
<polygon fill="none" stroke="#000000" points="316,-147.5 316,-177.5 469,-177.5 469,-147.5 316,-147.5"/>
<text text-anchor="start" x="324" y="-165.5" font-family="Helvetica,sans-Serif" font-size="10.00" fill="#000000">org.cobbzilla.util.io.File</text>
<text text-anchor="middle" x="392.5" y="-154.5" font-family="Helvetica,sans-Serif" font-size="10.00" fill="#000000">Util.resourceToPropertiesOrDie</text>
</a>
</g>
</g>
<!-- Node9&#45;&gt;Node10 -->
<g id="edge8" class="edge">
<title>Node9&#45;&gt;Node10</title>
<path fill="none" stroke="#191970" d="M290.3479,-162.5C298.7383,-162.5 307.3006,-162.5 315.7213,-162.5"/>
<polygon fill="#191970" stroke="#191970" points="290.2199,-159.0001 280.2198,-162.5 290.2198,-166.0001 290.2199,-159.0001"/>
</g>
</g>
</svg>
