<?xml version="1.0" encoding="UTF-8" standalone="no"?>
<!DOCTYPE svg PUBLIC "-//W3C//DTD SVG 1.1//EN"
 "http://www.w3.org/Graphics/SVG/1.1/DTD/svg11.dtd">
<!-- Generated by graphviz version 2.40.1 (20161225.0304)
 -->
<!-- Title: org.cobbzilla.util.io.FileUtil.abs Pages: 1 -->
<!--zoomable 925 -->
<svg id="main" version="1.1" xmlns="http://www.w3.org/2000/svg" xmlns:xlink="http://www.w3.org/1999/xlink" xml:space="preserve" onload="init(evt)">
<style type="text/css"><![CDATA[
.edge:hover path { stroke: red; }
.edge:hover polygon { stroke: red; fill: red; }
]]></style>
<script type="text/javascript"><![CDATA[
var edges = document.getElementsByTagName('g');
if (edges && edges.length) {
  for (var i=0;i<edges.length;i++) {
    if (edges[i].id.substr(0,4)=='edge') {
      edges[i].setAttribute('class','edge');
    }
  }
}
]]></script>
        <defs>
                <circle id="rim" cx="0" cy="0" r="7"/>
                <circle id="rim2" cx="0" cy="0" r="3.5"/>
                <g id="zoomPlus">
                        <use xlink:href="#rim" fill="#404040">
                                <set attributeName="fill" to="#808080" begin="zoomplus.mouseover" end="zoomplus.mouseout"/>
                        </use>
                        <path d="M-4,0h8M0,-4v8" fill="none" stroke="white" stroke-width="1.5" pointer-events="none"/>
                </g>
                <g id="zoomMin">
                        <use xlink:href="#rim" fill="#404040">
                                <set attributeName="fill" to="#808080" begin="zoomminus.mouseover" end="zoomminus.mouseout"/>
                        </use>
                        <path d="M-4,0h8" fill="none" stroke="white" stroke-width="1.5" pointer-events="none"/>
                </g>
                <g id="dirArrow">
                        <path fill="none" stroke="white" stroke-width="1.5" d="M0,-3.0v7 M-2.5,-0.5L0,-3.0L2.5,-0.5"/>
                </g>
               <g id="resetDef">
                       <use xlink:href="#rim2" fill="#404040">
                               <set attributeName="fill" to="#808080" begin="reset.mouseover" end="reset.mouseout"/>
                       </use>
               </g>
        </defs>

<script type="text/javascript">
var viewWidth = 638;
var viewHeight = 925;
var sectionId = 'dynsection-0';
</script>
<script xlink:href="../../svgpan.js"/>
<svg id="graph" class="graph">
<g id="viewport">
<title>org.cobbzilla.util.io.FileUtil.abs</title>
<!-- Node1 -->
<g id="node1" class="node">
<title>Node1</title>
<polygon fill="#bfbfbf" stroke="#000000" points="0,-385.5 0,-415.5 116,-415.5 116,-385.5 0,-385.5"/>
<text text-anchor="start" x="8" y="-403.5" font-family="Helvetica,sans-Serif" font-size="10.00" fill="#000000">org.cobbzilla.util.io.File</text>
<text text-anchor="middle" x="58" y="-392.5" font-family="Helvetica,sans-Serif" font-size="10.00" fill="#000000">Util.abs</text>
</g>
<!-- Node2 -->
<g id="node2" class="node">
<title>Node2</title>
<g id="a_node2"><a xlink:href="../../df/dac/classorg_1_1cobbzilla_1_1util_1_1io_1_1FileUtil_a003745fb3eb843ccb575f22470a8bade.html#a003745fb3eb843ccb575f22470a8bade" target="_top" xlink:title="org.cobbzilla.util.io.File\lUtil._touch">
<polygon fill="none" stroke="#000000" points="319,-862.5 319,-892.5 435,-892.5 435,-862.5 319,-862.5"/>
<text text-anchor="start" x="327" y="-880.5" font-family="Helvetica,sans-Serif" font-size="10.00" fill="#000000">org.cobbzilla.util.io.File</text>
<text text-anchor="middle" x="377" y="-869.5" font-family="Helvetica,sans-Serif" font-size="10.00" fill="#000000">Util._touch</text>
</a>
</g>
</g>
<!-- Node1&#45;&gt;Node2 -->
<g id="edge1" class="edge">
<title>Node1&#45;&gt;Node2</title>
<path fill="none" stroke="#191970" d="M61.1844,-425.9074C69.0147,-480.8729 93.0366,-613.3713 152,-706.5 203.8325,-788.3659 230.3629,-802.906 313,-853.5 318.3639,-856.784 324.2499,-859.7369 330.2121,-862.355"/>
<polygon fill="#191970" stroke="#191970" points="64.6101,-425.1245 59.7905,-415.6894 57.6744,-426.0707 64.6101,-425.1245"/>
</g>
<!-- Node5 -->
<g id="node5" class="node">
<title>Node5</title>
<g id="a_node5"><a xlink:href="../../df/dac/classorg_1_1cobbzilla_1_1util_1_1io_1_1FileUtil_ad87bbac2f5af7584ab42abeb35b61f28.html#ad87bbac2f5af7584ab42abeb35b61f28" target="_top" xlink:title="org.cobbzilla.util.io.File\lUtil.assertIsDir">
<polygon fill="none" stroke="#000000" points="156.5,-459.5 156.5,-489.5 272.5,-489.5 272.5,-459.5 156.5,-459.5"/>
<text text-anchor="start" x="164.5" y="-477.5" font-family="Helvetica,sans-Serif" font-size="10.00" fill="#000000">org.cobbzilla.util.io.File</text>
<text text-anchor="middle" x="214.5" y="-466.5" font-family="Helvetica,sans-Serif" font-size="10.00" fill="#000000">Util.assertIsDir</text>
</a>
</g>
</g>
<!-- Node1&#45;&gt;Node5 -->
<g id="edge4" class="edge">
<title>Node1&#45;&gt;Node5</title>
<path fill="none" stroke="#191970" d="M93.5142,-420.7114C110.8935,-430.26 132.2743,-441.5072 152,-450.5 158.7686,-453.5858 166.0592,-456.6287 173.1877,-459.4573"/>
<polygon fill="#191970" stroke="#191970" points="94.7495,-417.3944 84.3066,-415.6065 91.3552,-423.5165 94.7495,-417.3944"/>
</g>
<!-- Node6 -->
<g id="node6" class="node">
<title>Node6</title>
<g id="a_node6"><a xlink:href="../../df/dac/classorg_1_1cobbzilla_1_1util_1_1io_1_1FileUtil_afdcb6334f67fd6abcfb19288a2e02805.html#afdcb6334f67fd6abcfb19288a2e02805" target="_top" xlink:title="org.cobbzilla.util.io.File\lUtil.mkdirOrDie">
<polygon fill="none" stroke="#000000" points="319,-464.5 319,-494.5 435,-494.5 435,-464.5 319,-464.5"/>
<text text-anchor="start" x="327" y="-482.5" font-family="Helvetica,sans-Serif" font-size="10.00" fill="#000000">org.cobbzilla.util.io.File</text>
<text text-anchor="middle" x="377" y="-471.5" font-family="Helvetica,sans-Serif" font-size="10.00" fill="#000000">Util.mkdirOrDie</text>
</a>
</g>
</g>
<!-- Node1&#45;&gt;Node6 -->
<g id="edge15" class="edge">
<title>Node1&#45;&gt;Node6</title>
<path fill="none" stroke="#191970" d="M72.1032,-424.0981C88.0459,-448.2189 116.4686,-484.2404 152,-499.5 211.9965,-525.2666 289.1275,-509.0564 335.7257,-494.5724"/>
<polygon fill="#191970" stroke="#191970" points="74.9472,-422.0487 66.6152,-415.5044 69.0476,-425.8163 74.9472,-422.0487"/>
</g>
<!-- Node7 -->
<g id="node7" class="node">
<title>Node7</title>
<g id="a_node7"><a xlink:href="../../df/dac/classorg_1_1cobbzilla_1_1util_1_1io_1_1FileUtil_a9b00965064367952a69b707ddae92c47.html#a9b00965064367952a69b707ddae92c47" target="_top" xlink:title="org.cobbzilla.util.io.File\lUtil.copyFile">
<polygon fill="none" stroke="#000000" points="156.5,-410.5 156.5,-440.5 272.5,-440.5 272.5,-410.5 156.5,-410.5"/>
<text text-anchor="start" x="164.5" y="-428.5" font-family="Helvetica,sans-Serif" font-size="10.00" fill="#000000">org.cobbzilla.util.io.File</text>
<text text-anchor="middle" x="214.5" y="-417.5" font-family="Helvetica,sans-Serif" font-size="10.00" fill="#000000">Util.copyFile</text>
</a>
</g>
</g>
<!-- Node1&#45;&gt;Node7 -->
<g id="edge6" class="edge">
<title>Node1&#45;&gt;Node7</title>
<path fill="none" stroke="#191970" d="M126.2421,-411.4013C136.3096,-413.0095 146.6017,-414.6536 156.4372,-416.2248"/>
<polygon fill="#191970" stroke="#191970" points="126.7018,-407.9304 116.2748,-409.8091 125.5975,-414.8428 126.7018,-407.9304"/>
</g>
<!-- Node8 -->
<g id="node8" class="node">
<title>Node8</title>
<g id="a_node8"><a xlink:href="../../df/dac/classorg_1_1cobbzilla_1_1util_1_1io_1_1FileUtil_a50f1b9616203348fc743073f28fa6863.html#a50f1b9616203348fc743073f28fa6863" target="_top" xlink:title="org.cobbzilla.util.io.File\lUtil.createTempDir">
<polygon fill="none" stroke="#000000" points="156.5,-361.5 156.5,-391.5 272.5,-391.5 272.5,-361.5 156.5,-361.5"/>
<text text-anchor="start" x="164.5" y="-379.5" font-family="Helvetica,sans-Serif" font-size="10.00" fill="#000000">org.cobbzilla.util.io.File</text>
<text text-anchor="middle" x="214.5" y="-368.5" font-family="Helvetica,sans-Serif" font-size="10.00" fill="#000000">Util.createTempDir</text>
</a>
</g>
</g>
<!-- Node1&#45;&gt;Node8 -->
<g id="edge7" class="edge">
<title>Node1&#45;&gt;Node8</title>
<path fill="none" stroke="#191970" d="M126.2421,-390.0348C136.3096,-388.4909 146.6017,-386.9125 156.4372,-385.4042"/>
<polygon fill="#191970" stroke="#191970" points="125.6287,-386.5878 116.2748,-391.5633 126.6898,-393.5069 125.6287,-386.5878"/>
</g>
<!-- Node9 -->
<g id="node9" class="node">
<title>Node9</title>
<g id="a_node9"><a xlink:href="../../df/dac/classorg_1_1cobbzilla_1_1util_1_1io_1_1FileUtil_af51f4fa114948f6e647891a2378ce991.html#af51f4fa114948f6e647891a2378ce991" target="_top" xlink:title="org.cobbzilla.util.io.File\lUtil.createTempDirOrDie">
<polygon fill="none" stroke="#000000" points="152,-312.5 152,-342.5 277,-342.5 277,-312.5 152,-312.5"/>
<text text-anchor="start" x="160" y="-330.5" font-family="Helvetica,sans-Serif" font-size="10.00" fill="#000000">org.cobbzilla.util.io.File</text>
<text text-anchor="middle" x="214.5" y="-319.5" font-family="Helvetica,sans-Serif" font-size="10.00" fill="#000000">Util.createTempDirOrDie</text>
</a>
</g>
</g>
<!-- Node1&#45;&gt;Node9 -->
<g id="edge8" class="edge">
<title>Node1&#45;&gt;Node9</title>
<path fill="none" stroke="#191970" d="M95.1667,-380.5294C112.2936,-371.5843 132.996,-361.131 152,-352.5 159.4484,-349.1172 167.4965,-345.7151 175.2593,-342.5573"/>
<polygon fill="#191970" stroke="#191970" points="93.2744,-377.57 86.053,-385.3226 96.5328,-383.7654 93.2744,-377.57"/>
</g>
<!-- Node10 -->
<g id="node10" class="node">
<title>Node10</title>
<g id="a_node10"><a xlink:href="../../df/dac/classorg_1_1cobbzilla_1_1util_1_1io_1_1FileUtil_ab0e9a734fdfd141168840aab92fe4286.html#ab0e9a734fdfd141168840aab92fe4286" target="_top" xlink:title="org.cobbzilla.util.io.File\lUtil.deleteOrDie">
<polygon fill="none" stroke="#000000" points="156.5,-263.5 156.5,-293.5 272.5,-293.5 272.5,-263.5 156.5,-263.5"/>
<text text-anchor="start" x="164.5" y="-281.5" font-family="Helvetica,sans-Serif" font-size="10.00" fill="#000000">org.cobbzilla.util.io.File</text>
<text text-anchor="middle" x="214.5" y="-270.5" font-family="Helvetica,sans-Serif" font-size="10.00" fill="#000000">Util.deleteOrDie</text>
</a>
</g>
</g>
<!-- Node1&#45;&gt;Node10 -->
<g id="edge9" class="edge">
<title>Node1&#45;&gt;Node10</title>
<path fill="none" stroke="#191970" d="M75.5357,-377.4594C92.9455,-355.9019 121.3963,-324.0266 152,-303.5 157.5322,-299.7894 163.6993,-296.4918 169.9444,-293.6073"/>
<polygon fill="#191970" stroke="#191970" points="72.6732,-375.4363 69.207,-385.4481 78.1601,-379.7831 72.6732,-375.4363"/>
</g>
<!-- Node11 -->
<g id="node11" class="node">
<title>Node11</title>
<g id="a_node11"><a xlink:href="../../df/dac/classorg_1_1cobbzilla_1_1util_1_1io_1_1FileUtil_ad3788aa90f61e290baa4602d3911c4d0.html#ad3788aa90f61e290baa4602d3911c4d0" target="_top" xlink:title="org.cobbzilla.util.io.File\lUtil.ensureDirExists">
<polygon fill="none" stroke="#000000" points="156.5,-214.5 156.5,-244.5 272.5,-244.5 272.5,-214.5 156.5,-214.5"/>
<text text-anchor="start" x="164.5" y="-232.5" font-family="Helvetica,sans-Serif" font-size="10.00" fill="#000000">org.cobbzilla.util.io.File</text>
<text text-anchor="middle" x="214.5" y="-221.5" font-family="Helvetica,sans-Serif" font-size="10.00" fill="#000000">Util.ensureDirExists</text>
</a>
</g>
</g>
<!-- Node1&#45;&gt;Node11 -->
<g id="edge10" class="edge">
<title>Node1&#45;&gt;Node11</title>
<path fill="none" stroke="#191970" d="M68.2612,-375.5145C82.5992,-343.4262 111.4969,-287.9039 152,-254.5 156.5981,-250.7078 161.8447,-247.4344 167.2988,-244.6235"/>
<polygon fill="#191970" stroke="#191970" points="64.8926,-374.4849 64.1213,-385.0516 71.3138,-377.2722 64.8926,-374.4849"/>
</g>
<!-- Node13 -->
<g id="node13" class="node">
<title>Node13</title>
<g id="a_node13"><a xlink:href="../../df/dac/classorg_1_1cobbzilla_1_1util_1_1io_1_1FileUtil_afb95474f95dca2a542d5e0e76e9526aa.html#afb95474f95dca2a542d5e0e76e9526aa" target="_top" xlink:title="org.cobbzilla.util.io.File\lUtil.extension">
<polygon fill="none" stroke="#000000" points="156.5,-147.5 156.5,-177.5 272.5,-177.5 272.5,-147.5 156.5,-147.5"/>
<text text-anchor="start" x="164.5" y="-165.5" font-family="Helvetica,sans-Serif" font-size="10.00" fill="#000000">org.cobbzilla.util.io.File</text>
<text text-anchor="middle" x="214.5" y="-154.5" font-family="Helvetica,sans-Serif" font-size="10.00" fill="#000000">Util.extension</text>
</a>
</g>
</g>
<!-- Node1&#45;&gt;Node13 -->
<g id="edge12" class="edge">
<title>Node1&#45;&gt;Node13</title>
<path fill="none" stroke="#191970" d="M68.0146,-375.8221C86.994,-329.7951 128.4074,-233.0219 152,-205.5 161.5148,-194.4005 174.5287,-184.8422 186.2185,-177.5754"/>
<polygon fill="#191970" stroke="#191970" points="64.6665,-374.7622 64.1108,-385.3425 71.1431,-377.418 64.6665,-374.7622"/>
</g>
<!-- Node15 -->
<g id="node15" class="node">
<title>Node15</title>
<g id="a_node15"><a xlink:href="../../df/dac/classorg_1_1cobbzilla_1_1util_1_1io_1_1FileUtil_a00b2881b17331777b1a28c62fbd83f2d.html#a00b2881b17331777b1a28c62fbd83f2d" target="_top" xlink:title="org.cobbzilla.util.io.File\lUtil.path">
<polygon fill="none" stroke="#000000" points="156.5,-666.5 156.5,-696.5 272.5,-696.5 272.5,-666.5 156.5,-666.5"/>
<text text-anchor="start" x="164.5" y="-684.5" font-family="Helvetica,sans-Serif" font-size="10.00" fill="#000000">org.cobbzilla.util.io.File</text>
<text text-anchor="middle" x="214.5" y="-673.5" font-family="Helvetica,sans-Serif" font-size="10.00" fill="#000000">Util.path</text>
</a>
</g>
</g>
<!-- Node1&#45;&gt;Node15 -->
<g id="edge16" class="edge">
<title>Node1&#45;&gt;Node15</title>
<path fill="none" stroke="#191970" d="M61.7983,-425.7552C70.1839,-473.8532 94.3145,-579.7458 152,-646.5 158.9929,-654.5923 168.3409,-661.1975 177.6724,-666.4014"/>
<polygon fill="#191970" stroke="#191970" points="65.2054,-424.9061 60.1169,-415.6133 58.2996,-426.0511 65.2054,-424.9061"/>
</g>
<!-- Node21 -->
<g id="node21" class="node">
<title>Node21</title>
<g id="a_node21"><a xlink:href="../../df/dac/classorg_1_1cobbzilla_1_1util_1_1io_1_1FileUtil_a48ad97cb0518bc01fa28e009d209b514.html#a48ad97cb0518bc01fa28e009d209b514" target="_top" xlink:title="org.cobbzilla.util.io.File\lUtil.toFileOrDie">
<polygon fill="none" stroke="#000000" points="319,-617.5 319,-647.5 435,-647.5 435,-617.5 319,-617.5"/>
<text text-anchor="start" x="327" y="-635.5" font-family="Helvetica,sans-Serif" font-size="10.00" fill="#000000">org.cobbzilla.util.io.File</text>
<text text-anchor="middle" x="377" y="-624.5" font-family="Helvetica,sans-Serif" font-size="10.00" fill="#000000">Util.toFileOrDie</text>
</a>
</g>
</g>
<!-- Node1&#45;&gt;Node21 -->
<g id="edge29" class="edge">
<title>Node1&#45;&gt;Node21</title>
<path fill="none" stroke="#191970" d="M64.1198,-425.6352C74.9488,-464.5834 101.2861,-539.1214 152,-578.5 199.9116,-615.7026 269.5835,-627.8052 318.6761,-631.4746"/>
<polygon fill="#191970" stroke="#191970" points="67.4184,-424.4194 61.4694,-415.6524 60.6528,-426.2157 67.4184,-424.4194"/>
</g>
<!-- Node22 -->
<g id="node22" class="node">
<title>Node22</title>
<g id="a_node22"><a xlink:href="../../df/dac/classorg_1_1cobbzilla_1_1util_1_1io_1_1FileUtil_a60da0220507473d9c9126c89ae4b494a.html#a60da0220507473d9c9126c89ae4b494a" target="_top" xlink:title="org.cobbzilla.util.io.File\lUtil.toPropertiesOrDie">
<polygon fill="none" stroke="#000000" points="319,-568.5 319,-598.5 435,-598.5 435,-568.5 319,-568.5"/>
<text text-anchor="start" x="327" y="-586.5" font-family="Helvetica,sans-Serif" font-size="10.00" fill="#000000">org.cobbzilla.util.io.File</text>
<text text-anchor="middle" x="377" y="-575.5" font-family="Helvetica,sans-Serif" font-size="10.00" fill="#000000">Util.toPropertiesOrDie</text>
</a>
</g>
</g>
<!-- Node1&#45;&gt;Node22 -->
<g id="edge30" class="edge">
<title>Node1&#45;&gt;Node22</title>
<path fill="none" stroke="#191970" d="M66.715,-425.2283C79.7657,-458.3677 107.6964,-516.3804 152,-545.5 201.6576,-578.1386 270.3703,-585.5751 318.7593,-586.1377"/>
<polygon fill="#191970" stroke="#191970" points="69.9589,-423.9114 63.1408,-415.8018 63.4135,-426.3931 69.9589,-423.9114"/>
</g>
<!-- Node23 -->
<g id="node23" class="node">
<title>Node23</title>
<g id="a_node23"><a xlink:href="../../df/dac/classorg_1_1cobbzilla_1_1util_1_1io_1_1FileUtil_a58e4aaaf6b3d8f22db18ecae95c4dbc0.html#a58e4aaaf6b3d8f22db18ecae95c4dbc0" target="_top" xlink:title="org.cobbzilla.util.io.File\lUtil.toStringOrDie">
<polygon fill="none" stroke="#000000" points="319,-519.5 319,-549.5 435,-549.5 435,-519.5 319,-519.5"/>
<text text-anchor="start" x="327" y="-537.5" font-family="Helvetica,sans-Serif" font-size="10.00" fill="#000000">org.cobbzilla.util.io.File</text>
<text text-anchor="middle" x="377" y="-526.5" font-family="Helvetica,sans-Serif" font-size="10.00" fill="#000000">Util.toStringOrDie</text>
</a>
</g>
</g>
<!-- Node1&#45;&gt;Node23 -->
<g id="edge31" class="edge">
<title>Node1&#45;&gt;Node23</title>
<path fill="none" stroke="#191970" d="M69.2977,-424.7289C83.9494,-453.041 112.4011,-498.6624 152,-519.5 203.6214,-546.6641 271.3734,-547.2889 318.9916,-543.0657"/>
<polygon fill="#191970" stroke="#191970" points="72.292,-422.8905 64.6951,-415.5055 66.0285,-426.0161 72.292,-422.8905"/>
</g>
<!-- Node24 -->
<g id="node24" class="node">
<title>Node24</title>
<g id="a_node24"><a xlink:href="../../df/dac/classorg_1_1cobbzilla_1_1util_1_1io_1_1FileUtil_a865780a4f18123eb2fba2fbef39c212d.html#a865780a4f18123eb2fba2fbef39c212d" target="_top" xlink:title="org.cobbzilla.util.io.File\lUtil.renameOrDie">
<polygon fill="none" stroke="#000000" points="156.5,-98.5 156.5,-128.5 272.5,-128.5 272.5,-98.5 156.5,-98.5"/>
<text text-anchor="start" x="164.5" y="-116.5" font-family="Helvetica,sans-Serif" font-size="10.00" fill="#000000">org.cobbzilla.util.io.File</text>
<text text-anchor="middle" x="214.5" y="-105.5" font-family="Helvetica,sans-Serif" font-size="10.00" fill="#000000">Util.renameOrDie</text>
</a>
</g>
</g>
<!-- Node1&#45;&gt;Node24 -->
<g id="edge26" class="edge">
<title>Node1&#45;&gt;Node24</title>
<path fill="none" stroke="#191970" d="M60.1165,-375.2212C65.7461,-323.6655 85.5509,-205.5206 152,-137.5 155.3301,-134.0911 159.1967,-131.1586 163.3424,-128.6372"/>
<polygon fill="#191970" stroke="#191970" points="56.6062,-375.1496 59.0934,-385.4483 63.5715,-375.8464 56.6062,-375.1496"/>
</g>
<!-- Node27 -->
<g id="node27" class="node">
<title>Node27</title>
<g id="a_node27"><a xlink:href="../../df/dac/classorg_1_1cobbzilla_1_1util_1_1io_1_1FileUtil_a6c100c202fdfd098b929b107225cb52d.html#a6c100c202fdfd098b929b107225cb52d" target="_top" xlink:title="org.cobbzilla.util.io.File\lUtil.writeResourceToFile">
<polygon fill="none" stroke="#000000" points="152,-49.5 152,-79.5 277,-79.5 277,-49.5 152,-49.5"/>
<text text-anchor="start" x="160" y="-67.5" font-family="Helvetica,sans-Serif" font-size="10.00" fill="#000000">org.cobbzilla.util.io.File</text>
<text text-anchor="middle" x="214.5" y="-56.5" font-family="Helvetica,sans-Serif" font-size="10.00" fill="#000000">Util.writeResourceToFile</text>
</a>
</g>
</g>
<!-- Node1&#45;&gt;Node27 -->
<g id="edge32" class="edge">
<title>Node1&#45;&gt;Node27</title>
<path fill="none" stroke="#191970" d="M62.6382,-375.2782C75.2964,-308.8793 112.162,-131.4009 152,-88.5 155.1637,-85.0931 158.8646,-82.1649 162.8576,-79.649"/>
<polygon fill="#191970" stroke="#191970" points="59.1635,-374.8174 60.7529,-385.2924 66.0427,-376.1126 59.1635,-374.8174"/>
</g>
<!-- Node28 -->
<g id="node28" class="node">
<title>Node28</title>
<g id="a_node28"><a xlink:href="../../df/dac/classorg_1_1cobbzilla_1_1util_1_1io_1_1FileUtil_a9d680e296141a6eb8b2d57b4f58b90a0.html#a9d680e296141a6eb8b2d57b4f58b90a0" target="_top" xlink:title="org.cobbzilla.util.io.File\lUtil.writeStringOrDie">
<polygon fill="none" stroke="#000000" points="156.5,-.5 156.5,-30.5 272.5,-30.5 272.5,-.5 156.5,-.5"/>
<text text-anchor="start" x="164.5" y="-18.5" font-family="Helvetica,sans-Serif" font-size="10.00" fill="#000000">org.cobbzilla.util.io.File</text>
<text text-anchor="middle" x="214.5" y="-7.5" font-family="Helvetica,sans-Serif" font-size="10.00" fill="#000000">Util.writeStringOrDie</text>
</a>
</g>
</g>
<!-- Node1&#45;&gt;Node28 -->
<g id="edge33" class="edge">
<title>Node1&#45;&gt;Node28</title>
<path fill="none" stroke="#191970" d="M61.5923,-374.8526C72.3912,-301.0601 106.6348,-90.2487 152,-39.5 155.0985,-36.0338 158.7547,-33.0648 162.7185,-30.5223"/>
<polygon fill="#191970" stroke="#191970" points="58.0787,-374.6965 60.1162,-385.0935 65.0071,-375.6951 58.0787,-374.6965"/>
</g>
<!-- Node3 -->
<g id="node3" class="node">
<title>Node3</title>
<g id="a_node3"><a xlink:href="../../df/dac/classorg_1_1cobbzilla_1_1util_1_1io_1_1FileUtil_a82f7d4171a5a1234bebd97bebeaa0e47.html#a82f7d4171a5a1234bebd97bebeaa0e47" target="_top" xlink:title="org.cobbzilla.util.io.File\lUtil.touch">
<polygon fill="none" stroke="#000000" points="495.5,-886.5 495.5,-916.5 611.5,-916.5 611.5,-886.5 495.5,-886.5"/>
<text text-anchor="start" x="503.5" y="-904.5" font-family="Helvetica,sans-Serif" font-size="10.00" fill="#000000">org.cobbzilla.util.io.File</text>
<text text-anchor="middle" x="553.5" y="-893.5" font-family="Helvetica,sans-Serif" font-size="10.00" fill="#000000">Util.touch</text>
</a>
</g>
</g>
<!-- Node2&#45;&gt;Node3 -->
<g id="edge2" class="edge">
<title>Node2&#45;&gt;Node3</title>
<path fill="none" stroke="#191970" d="M445.3924,-886.7998C461.8681,-889.0401 479.3178,-891.4129 495.2793,-893.5833"/>
<polygon fill="#191970" stroke="#191970" points="445.6623,-883.3044 435.2819,-885.425 444.7191,-890.2406 445.6623,-883.3044"/>
</g>
<!-- Node4 -->
<g id="node4" class="node">
<title>Node4</title>
<g id="a_node4"><a xlink:href="../../df/dac/classorg_1_1cobbzilla_1_1util_1_1io_1_1FileUtil_a05f4bb822dc2fe6e5942b8f4957a0f85.html#a05f4bb822dc2fe6e5942b8f4957a0f85" target="_top" xlink:title="org.cobbzilla.util.io.File\lUtil.truncate">
<polygon fill="none" stroke="#000000" points="495.5,-837.5 495.5,-867.5 611.5,-867.5 611.5,-837.5 495.5,-837.5"/>
<text text-anchor="start" x="503.5" y="-855.5" font-family="Helvetica,sans-Serif" font-size="10.00" fill="#000000">org.cobbzilla.util.io.File</text>
<text text-anchor="middle" x="553.5" y="-844.5" font-family="Helvetica,sans-Serif" font-size="10.00" fill="#000000">Util.truncate</text>
</a>
</g>
</g>
<!-- Node2&#45;&gt;Node4 -->
<g id="edge3" class="edge">
<title>Node2&#45;&gt;Node4</title>
<path fill="none" stroke="#191970" d="M445.3924,-867.8127C461.8681,-865.479 479.3178,-863.0074 495.2793,-860.7466"/>
<polygon fill="#191970" stroke="#191970" points="444.6921,-864.3769 435.2819,-869.2448 445.6739,-871.3077 444.6921,-864.3769"/>
</g>
<!-- Node5&#45;&gt;Node6 -->
<g id="edge5" class="edge">
<title>Node5&#45;&gt;Node6</title>
<path fill="none" stroke="#191970" d="M282.7089,-476.5987C294.7541,-476.9694 307.1921,-477.3521 318.9262,-477.7131"/>
<polygon fill="#191970" stroke="#191970" points="282.8102,-473.1003 272.7072,-476.291 282.5948,-480.097 282.8102,-473.1003"/>
</g>
<!-- Node12 -->
<g id="node12" class="node">
<title>Node12</title>
<g id="a_node12"><a xlink:href="../../df/dac/classorg_1_1cobbzilla_1_1util_1_1io_1_1FileUtil_a0f554fe4d2d99a40f77746055e407d7a.html#a0f554fe4d2d99a40f77746055e407d7a" target="_top" xlink:title="org.cobbzilla.util.io.File\lUtil.toFile">
<polygon fill="none" stroke="#000000" points="319,-214.5 319,-244.5 435,-244.5 435,-214.5 319,-214.5"/>
<text text-anchor="start" x="327" y="-232.5" font-family="Helvetica,sans-Serif" font-size="10.00" fill="#000000">org.cobbzilla.util.io.File</text>
<text text-anchor="middle" x="377" y="-221.5" font-family="Helvetica,sans-Serif" font-size="10.00" fill="#000000">Util.toFile</text>
</a>
</g>
</g>
<!-- Node11&#45;&gt;Node12 -->
<g id="edge11" class="edge">
<title>Node11&#45;&gt;Node12</title>
<path fill="none" stroke="#191970" d="M282.7089,-229.5C294.7541,-229.5 307.1921,-229.5 318.9262,-229.5"/>
<polygon fill="#191970" stroke="#191970" points="282.7073,-226.0001 272.7072,-229.5 282.7072,-233.0001 282.7073,-226.0001"/>
</g>
<!-- Node13&#45;&gt;Node13 -->
<g id="edge13" class="edge">
<title>Node13&#45;&gt;Node13</title>
<path fill="none" stroke="#191970" d="M186.7807,-187.9579C190.221,-192.679 199.4608,-196 214.5,-196 239.1797,-196 248.2418,-187.0566 241.6862,-177.659"/>
<polygon fill="#191970" stroke="#191970" points="190.2921,-187.8266 187.3138,-177.659 183.3014,-187.4647 190.2921,-187.8266"/>
</g>
<!-- Node14 -->
<g id="node14" class="node">
<title>Node14</title>
<g id="a_node14"><a xlink:href="../../df/dac/classorg_1_1cobbzilla_1_1util_1_1io_1_1FileUtil_af067f2d794a10c9fb2934f4cbf088dc1.html#af067f2d794a10c9fb2934f4cbf088dc1" target="_top" xlink:title="org.cobbzilla.util.io.File\lUtil.extensionOrName">
<polygon fill="none" stroke="#000000" points="319,-147.5 319,-177.5 435,-177.5 435,-147.5 319,-147.5"/>
<text text-anchor="start" x="327" y="-165.5" font-family="Helvetica,sans-Serif" font-size="10.00" fill="#000000">org.cobbzilla.util.io.File</text>
<text text-anchor="middle" x="377" y="-154.5" font-family="Helvetica,sans-Serif" font-size="10.00" fill="#000000">Util.extensionOrName</text>
</a>
</g>
</g>
<!-- Node13&#45;&gt;Node14 -->
<g id="edge14" class="edge">
<title>Node13&#45;&gt;Node14</title>
<path fill="none" stroke="#191970" d="M282.7089,-162.5C294.7541,-162.5 307.1921,-162.5 318.9262,-162.5"/>
<polygon fill="#191970" stroke="#191970" points="282.7073,-159.0001 272.7072,-162.5 282.7072,-166.0001 282.7073,-159.0001"/>
</g>
<!-- Node15&#45;&gt;Node2 -->
<g id="edge17" class="edge">
<title>Node15&#45;&gt;Node2</title>
<path fill="none" stroke="#191970" d="M228.7998,-705.2325C241.6183,-726.6286 260.8381,-759.0123 277,-787.5 293.4877,-816.562 287.7723,-831.5909 313,-853.5 316.9422,-856.9236 321.4199,-859.8794 326.1326,-862.4269"/>
<polygon fill="#191970" stroke="#191970" points="231.7078,-703.2765 223.5602,-696.5039 225.7061,-706.8792 231.7078,-703.2765"/>
</g>
<!-- Node16 -->
<g id="node16" class="node">
<title>Node16</title>
<g id="a_node16"><a xlink:href="../../df/dac/classorg_1_1cobbzilla_1_1util_1_1io_1_1FileUtil_a9883e4dd07f8adbdd6316fdcbcf12079.html#a9883e4dd07f8adbdd6316fdcbcf12079" target="_top" xlink:title="org.cobbzilla.util.io.File\lUtil.basename">
<polygon fill="none" stroke="#000000" points="319,-813.5 319,-843.5 435,-843.5 435,-813.5 319,-813.5"/>
<text text-anchor="start" x="327" y="-831.5" font-family="Helvetica,sans-Serif" font-size="10.00" fill="#000000">org.cobbzilla.util.io.File</text>
<text text-anchor="middle" x="377" y="-820.5" font-family="Helvetica,sans-Serif" font-size="10.00" fill="#000000">Util.basename</text>
</a>
</g>
</g>
<!-- Node15&#45;&gt;Node16 -->
<g id="edge18" class="edge">
<title>Node15&#45;&gt;Node16</title>
<path fill="none" stroke="#191970" d="M228.172,-705.4647C244.9319,-732.8939 275.7479,-777.5003 313,-804.5 317.7081,-807.9123 322.9586,-810.8977 328.3714,-813.4944"/>
<polygon fill="#191970" stroke="#191970" points="230.9733,-703.3289 222.8425,-696.5361 224.9626,-706.9167 230.9733,-703.3289"/>
</g>
<!-- Node17 -->
<g id="node17" class="node">
<title>Node17</title>
<g id="a_node17"><a xlink:href="../../df/dac/classorg_1_1cobbzilla_1_1util_1_1io_1_1FileUtil_a2e17822dcfa2bdfe2d618736364f3cc8.html#a2e17822dcfa2bdfe2d618736364f3cc8" target="_top" xlink:title="Iterate through given paths and return File object for the first found path and filename combination ...">
<polygon fill="none" stroke="#000000" points="319,-764.5 319,-794.5 435,-794.5 435,-764.5 319,-764.5"/>
<text text-anchor="start" x="327" y="-782.5" font-family="Helvetica,sans-Serif" font-size="10.00" fill="#000000">org.cobbzilla.util.io.File</text>
<text text-anchor="middle" x="377" y="-771.5" font-family="Helvetica,sans-Serif" font-size="10.00" fill="#000000">Util.firstFoundFile</text>
</a>
</g>
</g>
<!-- Node15&#45;&gt;Node17 -->
<g id="edge19" class="edge">
<title>Node15&#45;&gt;Node17</title>
<path fill="none" stroke="#191970" d="M239.2557,-703.2628C258.3961,-719.2786 286.087,-740.7435 313,-755.5 318.931,-758.752 325.3936,-761.7456 331.8572,-764.4348"/>
<polygon fill="#191970" stroke="#191970" points="241.4924,-700.5705 231.6034,-696.768 236.9627,-705.9074 241.4924,-700.5705"/>
</g>
<!-- Node18 -->
<g id="node18" class="node">
<title>Node18</title>
<g id="a_node18"><a xlink:href="../../df/dac/classorg_1_1cobbzilla_1_1util_1_1io_1_1FileUtil_a611a14804c0fa4046d5b88f31379e399.html#a611a14804c0fa4046d5b88f31379e399" target="_top" xlink:title="org.cobbzilla.util.io.File\lUtil.isSymlink">
<polygon fill="none" stroke="#000000" points="319,-715.5 319,-745.5 435,-745.5 435,-715.5 319,-715.5"/>
<text text-anchor="start" x="327" y="-733.5" font-family="Helvetica,sans-Serif" font-size="10.00" fill="#000000">org.cobbzilla.util.io.File</text>
<text text-anchor="middle" x="377" y="-722.5" font-family="Helvetica,sans-Serif" font-size="10.00" fill="#000000">Util.isSymlink</text>
</a>
</g>
</g>
<!-- Node15&#45;&gt;Node18 -->
<g id="edge20" class="edge">
<title>Node15&#45;&gt;Node18</title>
<path fill="none" stroke="#191970" d="M274.5683,-699.6129C291.8441,-704.8222 310.4933,-710.4457 327.0841,-715.4484"/>
<polygon fill="#191970" stroke="#191970" points="275.166,-696.1375 264.5813,-696.6014 273.145,-702.8395 275.166,-696.1375"/>
</g>
<!-- Node19 -->
<g id="node19" class="node">
<title>Node19</title>
<g id="a_node19"><a xlink:href="../../df/dac/classorg_1_1cobbzilla_1_1util_1_1io_1_1FileUtil_a8b100ce51fe7aedf8001e878aff51f8d.html#a8b100ce51fe7aedf8001e878aff51f8d" target="_top" xlink:title="org.cobbzilla.util.io.File\lUtil.resourceToProperties">
<polygon fill="none" stroke="#000000" points="313,-666.5 313,-696.5 441,-696.5 441,-666.5 313,-666.5"/>
<text text-anchor="start" x="321" y="-684.5" font-family="Helvetica,sans-Serif" font-size="10.00" fill="#000000">org.cobbzilla.util.io.File</text>
<text text-anchor="middle" x="377" y="-673.5" font-family="Helvetica,sans-Serif" font-size="10.00" fill="#000000">Util.resourceToProperties</text>
</a>
</g>
</g>
<!-- Node15&#45;&gt;Node19 -->
<g id="edge21" class="edge">
<title>Node15&#45;&gt;Node19</title>
<path fill="none" stroke="#191970" d="M282.9257,-681.5C292.8469,-681.5 303.0297,-681.5 312.8623,-681.5"/>
<polygon fill="#191970" stroke="#191970" points="282.7073,-678.0001 272.7072,-681.5 282.7072,-685.0001 282.7073,-678.0001"/>
</g>
<!-- Node15&#45;&gt;Node21 -->
<g id="edge23" class="edge">
<title>Node15&#45;&gt;Node21</title>
<path fill="none" stroke="#191970" d="M274.5683,-663.3871C291.8441,-658.1778 310.4933,-652.5543 327.0841,-647.5516"/>
<polygon fill="#191970" stroke="#191970" points="273.145,-660.1605 264.5813,-666.3986 275.166,-666.8625 273.145,-660.1605"/>
</g>
<!-- Node15&#45;&gt;Node22 -->
<g id="edge24" class="edge">
<title>Node15&#45;&gt;Node22</title>
<path fill="none" stroke="#191970" d="M239.9712,-659.6614C259.1407,-643.9829 286.5516,-623.1243 313,-608.5 319.5767,-604.8635 326.7924,-601.5028 333.9343,-598.5024"/>
<polygon fill="#191970" stroke="#191970" points="237.4959,-657.1671 232.0322,-666.2445 241.9641,-662.5556 237.4959,-657.1671"/>
</g>
<!-- Node15&#45;&gt;Node23 -->
<g id="edge25" class="edge">
<title>Node15&#45;&gt;Node23</title>
<path fill="none" stroke="#191970" d="M228.5533,-657.3893C245.4765,-630.2361 276.2585,-586.4007 313,-559.5 318.1974,-555.6947 324.0498,-552.3824 330.0496,-549.5244"/>
<polygon fill="#191970" stroke="#191970" points="225.3731,-655.8821 223.1582,-666.2429 231.3507,-659.5247 225.3731,-655.8821"/>
</g>
<!-- Node20 -->
<g id="node20" class="node">
<title>Node20</title>
<g id="a_node20"><a xlink:href="../../df/dac/classorg_1_1cobbzilla_1_1util_1_1io_1_1FileUtil_a90fee53cf9d6174e475907548538fbf0.html#a90fee53cf9d6174e475907548538fbf0" target="_top" xlink:title="org.cobbzilla.util.io.File\lUtil.resourceToPropertiesOrDie">
<polygon fill="none" stroke="#000000" points="477,-666.5 477,-696.5 630,-696.5 630,-666.5 477,-666.5"/>
<text text-anchor="start" x="485" y="-684.5" font-family="Helvetica,sans-Serif" font-size="10.00" fill="#000000">org.cobbzilla.util.io.File</text>
<text text-anchor="middle" x="553.5" y="-673.5" font-family="Helvetica,sans-Serif" font-size="10.00" fill="#000000">Util.resourceToPropertiesOrDie</text>
</a>
</g>
</g>
<!-- Node19&#45;&gt;Node20 -->
<g id="edge22" class="edge">
<title>Node19&#45;&gt;Node20</title>
<path fill="none" stroke="#191970" d="M451.3479,-681.5C459.7383,-681.5 468.3006,-681.5 476.7213,-681.5"/>
<polygon fill="#191970" stroke="#191970" points="451.2199,-678.0001 441.2198,-681.5 451.2198,-685.0001 451.2199,-678.0001"/>
</g>
<!-- Node25 -->
<g id="node25" class="node">
<title>Node25</title>
<g id="a_node25"><a xlink:href="../../d5/dc2/classorg_1_1cobbzilla_1_1util_1_1io_1_1JarTrimmer_af3d4171c0e315e009d3436a293f5d9b1.html#af3d4171c0e315e009d3436a293f5d9b1" target="_top" xlink:title="org.cobbzilla.util.io.Jar\lTrimmer.trim">
<polygon fill="none" stroke="#000000" points="320,-98.5 320,-128.5 434,-128.5 434,-98.5 320,-98.5"/>
<text text-anchor="start" x="328" y="-116.5" font-family="Helvetica,sans-Serif" font-size="10.00" fill="#000000">org.cobbzilla.util.io.Jar</text>
<text text-anchor="middle" x="377" y="-105.5" font-family="Helvetica,sans-Serif" font-size="10.00" fill="#000000">Trimmer.trim</text>
</a>
</g>
</g>
<!-- Node24&#45;&gt;Node25 -->
<g id="edge27" class="edge">
<title>Node24&#45;&gt;Node25</title>
<path fill="none" stroke="#191970" d="M282.8929,-113.5C295.1612,-113.5 307.8308,-113.5 319.7443,-113.5"/>
<polygon fill="#191970" stroke="#191970" points="282.7073,-110.0001 272.7072,-113.5 282.7072,-117.0001 282.7073,-110.0001"/>
</g>
<!-- Node26 -->
<g id="node26" class="node">
<title>Node26</title>
<g id="a_node26"><a xlink:href="../../d1/dcf/classorg_1_1cobbzilla_1_1util_1_1io_1_1main_1_1JarTrimmerMain_a0d79049130f7976bee1c1f8eb13c1538.html#a0d79049130f7976bee1c1f8eb13c1538" target="_top" xlink:title="org.cobbzilla.util.io.main.\lJarTrimmerMain.run">
<polygon fill="none" stroke="#000000" points="491,-98.5 491,-128.5 616,-128.5 616,-98.5 491,-98.5"/>
<text text-anchor="start" x="499" y="-116.5" font-family="Helvetica,sans-Serif" font-size="10.00" fill="#000000">org.cobbzilla.util.io.main.</text>
<text text-anchor="middle" x="553.5" y="-105.5" font-family="Helvetica,sans-Serif" font-size="10.00" fill="#000000">JarTrimmerMain.run</text>
</a>
</g>
</g>
<!-- Node25&#45;&gt;Node26 -->
<g id="edge28" class="edge">
<title>Node25&#45;&gt;Node26</title>
<path fill="none" stroke="#191970" d="M444.6823,-113.5C459.9066,-113.5 475.9958,-113.5 490.9971,-113.5"/>
<polygon fill="#191970" stroke="#191970" points="444.3045,-110.0001 434.3045,-113.5 444.3045,-117.0001 444.3045,-110.0001"/>
</g>
</g>
</svg>
        <g id="navigator" transform="translate(0 0)" fill="#404254">
                <rect fill="#f2f5e9" fill-opacity="0.5" stroke="#606060" stroke-width=".5" x="0" y="0" width="60" height="60"/>
                <use id="zoomplus" xlink:href="#zoomPlus" x="17" y="9" onmousedown="handleZoom(evt,'in')"/>
                <use id="zoomminus" xlink:href="#zoomMin" x="42" y="9" onmousedown="handleZoom(evt,'out')"/>
                <use id="reset" xlink:href="#resetDef" x="30" y="36" onmousedown="handleReset()"/>
                <g id="arrowUp" xlink:href="#dirArrow" transform="translate(30 24)" onmousedown="handlePan(0,-1)">
                  <use xlink:href="#rim" fill="#404040">
                        <set attributeName="fill" to="#808080" begin="arrowUp.mouseover" end="arrowUp.mouseout"/>
                  </use>
                  <path fill="none" stroke="white" stroke-width="1.5" d="M0,-3.0v7 M-2.5,-0.5L0,-3.0L2.5,-0.5"/>
                </g>
                <g id="arrowRight" xlink:href="#dirArrow" transform="rotate(90) translate(36 -43)" onmousedown="handlePan(1,0)">
                  <use xlink:href="#rim" fill="#404040">
                        <set attributeName="fill" to="#808080" begin="arrowRight.mouseover" end="arrowRight.mouseout"/>
                  </use>
                  <path fill="none" stroke="white" stroke-width="1.5" d="M0,-3.0v7 M-2.5,-0.5L0,-3.0L2.5,-0.5"/>
                </g>
                <g id="arrowDown" xlink:href="#dirArrow" transform="rotate(180) translate(-30 -48)" onmousedown="handlePan(0,1)">
                  <use xlink:href="#rim" fill="#404040">
                        <set attributeName="fill" to="#808080" begin="arrowDown.mouseover" end="arrowDown.mouseout"/>
                  </use>
                  <path fill="none" stroke="white" stroke-width="1.5" d="M0,-3.0v7 M-2.5,-0.5L0,-3.0L2.5,-0.5"/>
                </g>
                <g id="arrowLeft" xlink:href="#dirArrow" transform="rotate(270) translate(-36 17)" onmousedown="handlePan(-1,0)">
                  <use xlink:href="#rim" fill="#404040">
                        <set attributeName="fill" to="#808080" begin="arrowLeft.mouseover" end="arrowLeft.mouseout"/>
                  </use>
                  <path fill="none" stroke="white" stroke-width="1.5" d="M0,-3.0v7 M-2.5,-0.5L0,-3.0L2.5,-0.5"/>
                </g>
        </g>
        <svg viewBox="0 0 15 15" width="100%" height="30px" preserveAspectRatio="xMaxYMin meet">
         <g id="arrow_out" transform="scale(0.3 0.3)">
          <a xlink:href="classorg_1_1cobbzilla_1_1util_1_1io_1_1FileUtil_a228e7020eaecd4316d09a553a2042b24_a228e7020eaecd4316d09a553a2042b24_icgraph_org.svg" target="_base">
           <rect id="button" ry="5" rx="5" y="6" x="6" height="38" width="38"
                fill="#f2f5e9" fill-opacity="0.5" stroke="#606060" stroke-width="1.0"/>
           <path id="arrow"
             d="M 11.500037,31.436501 C 11.940474,20.09759 22.043105,11.32322 32.158766,21.979434 L 37.068811,17.246167 C 37.068811,17.246167 37.088388,32 37.088388,32 L 22.160133,31.978069 C 22.160133,31.978069 26.997745,27.140456 26.997745,27.140456 C 18.528582,18.264221 13.291696,25.230495 11.500037,31.436501 z"
             style="fill:#404040;"/>
          </a>
         </g>
        </svg>
</svg>
