<?xml version="1.0" encoding="UTF-8" standalone="no"?>
<!DOCTYPE svg PUBLIC "-//W3C//DTD SVG 1.1//EN"
 "http://www.w3.org/Graphics/SVG/1.1/DTD/svg11.dtd">
<!-- Generated by graphviz version 2.40.1 (20161225.0304)
 -->
<!-- Title: org.cobbzilla.util.io.FileUtil.truncate Pages: 1 -->
<svg width="580pt" height="61pt"
 viewBox="0.00 0.00 580.00 61.00" xmlns="http://www.w3.org/2000/svg" xmlns:xlink="http://www.w3.org/1999/xlink">
<g id="graph0" class="graph" transform="scale(1 1) rotate(0) translate(4 57)">
<title>org.cobbzilla.util.io.FileUtil.truncate</title>
<!-- Node0 -->
<g id="node1" class="node">
<title>Node0</title>
<polygon fill="#bfbfbf" stroke="#000000" points="0,-22.5 0,-52.5 116,-52.5 116,-22.5 0,-22.5"/>
<text text-anchor="start" x="8" y="-40.5" font-family="Helvetica,sans-Serif" font-size="10.00" fill="#000000">org.cobbzilla.util.io.File</text>
<text text-anchor="middle" x="58" y="-29.5" font-family="Helvetica,sans-Serif" font-size="10.00" fill="#000000">Util.truncate</text>
</g>
<!-- Node1 -->
<g id="node2" class="node">
<title>Node1</title>
<g id="a_node2"><a xlink:href="../../df/dac/classorg_1_1cobbzilla_1_1util_1_1io_1_1FileUtil_a003745fb3eb843ccb575f22470a8bade.html#a003745fb3eb843ccb575f22470a8bade" target="_top" xlink:title="org.cobbzilla.util.io.File\lUtil._touch">
<polygon fill="none" stroke="#000000" points="152,-22.5 152,-52.5 268,-52.5 268,-22.5 152,-22.5"/>
<text text-anchor="start" x="160" y="-40.5" font-family="Helvetica,sans-Serif" font-size="10.00" fill="#000000">org.cobbzilla.util.io.File</text>
<text text-anchor="middle" x="210" y="-29.5" font-family="Helvetica,sans-Serif" font-size="10.00" fill="#000000">Util._touch</text>
</a>
</g>
</g>
<!-- Node0&#45;&gt;Node1 -->
<g id="edge1" class="edge">
<title>Node0&#45;&gt;Node1</title>
<path fill="none" stroke="#191970" d="M116.3325,-37.5C124.6057,-37.5 133.1747,-37.5 141.617,-37.5"/>
<polygon fill="#191970" stroke="#191970" points="141.8237,-41.0001 151.8236,-37.5 141.8236,-34.0001 141.8237,-41.0001"/>
</g>
<!-- Node2 -->
<g id="node3" class="node">
<title>Node2</title>
<g id="a_node3"><a xlink:href="../../df/dac/classorg_1_1cobbzilla_1_1util_1_1io_1_1FileUtil_a228e7020eaecd4316d09a553a2042b24.html#a228e7020eaecd4316d09a553a2042b24" target="_top" xlink:title="org.cobbzilla.util.io.File\lUtil.abs">
<polygon fill="none" stroke="#000000" points="456,-22.5 456,-52.5 572,-52.5 572,-22.5 456,-22.5"/>
<text text-anchor="start" x="464" y="-40.5" font-family="Helvetica,sans-Serif" font-size="10.00" fill="#000000">org.cobbzilla.util.io.File</text>
<text text-anchor="middle" x="514" y="-29.5" font-family="Helvetica,sans-Serif" font-size="10.00" fill="#000000">Util.abs</text>
</a>
</g>
</g>
<!-- Node1&#45;&gt;Node2 -->
<g id="edge2" class="edge">
<title>Node1&#45;&gt;Node2</title>
<path fill="none" stroke="#191970" d="M268.1594,-39.646C280.0166,-40.002 292.4088,-40.3151 304,-40.5 355.549,-41.3224 368.451,-41.3224 420,-40.5 428.3312,-40.3671 437.0762,-40.168 445.7389,-39.9343"/>
<polygon fill="#191970" stroke="#191970" points="445.9446,-43.4299 455.8406,-39.646 445.7448,-36.4328 445.9446,-43.4299"/>
</g>
<!-- Node3 -->
<g id="node4" class="node">
<title>Node3</title>
<g id="a_node4"><a xlink:href="../../df/dac/classorg_1_1cobbzilla_1_1util_1_1io_1_1FileUtil_a00b2881b17331777b1a28c62fbd83f2d.html#a00b2881b17331777b1a28c62fbd83f2d" target="_top" xlink:title="org.cobbzilla.util.io.File\lUtil.path">
<polygon fill="none" stroke="#000000" points="304,-.5 304,-30.5 420,-30.5 420,-.5 304,-.5"/>
<text text-anchor="start" x="312" y="-18.5" font-family="Helvetica,sans-Serif" font-size="10.00" fill="#000000">org.cobbzilla.util.io.File</text>
<text text-anchor="middle" x="362" y="-7.5" font-family="Helvetica,sans-Serif" font-size="10.00" fill="#000000">Util.path</text>
</a>
</g>
</g>
<!-- Node1&#45;&gt;Node3 -->
<g id="edge3" class="edge">
<title>Node1&#45;&gt;Node3</title>
<path fill="none" stroke="#191970" d="M268.3325,-29.0571C276.6966,-27.8465 285.3631,-26.5922 293.8953,-25.3573"/>
<polygon fill="#191970" stroke="#191970" points="294.4281,-28.8167 303.8236,-23.9203 293.4254,-21.8889 294.4281,-28.8167"/>
</g>
<!-- Node3&#45;&gt;Node2 -->
<g id="edge4" class="edge">
<title>Node3&#45;&gt;Node2</title>
<path fill="none" stroke="#191970" d="M420.3325,-23.9429C428.6966,-25.1535 437.3631,-26.4078 445.8953,-27.6427"/>
<polygon fill="#191970" stroke="#191970" points="445.4254,-31.1111 455.8236,-29.0797 446.4281,-24.1833 445.4254,-31.1111"/>
</g>
</g>
</svg>
