<?xml version="1.0" encoding="UTF-8" standalone="no"?>
<!DOCTYPE svg PUBLIC "-//W3C//DTD SVG 1.1//EN"
 "http://www.w3.org/Graphics/SVG/1.1/DTD/svg11.dtd">
<!-- Generated by graphviz version 2.40.1 (20161225.0304)
 -->
<!-- Title: org.cobbzilla.util.io.FileUtil.mostRecentFileIsNewerThan Pages: 1 -->
<svg width="474pt" height="39pt"
 viewBox="0.00 0.00 474.00 39.00" xmlns="http://www.w3.org/2000/svg" xmlns:xlink="http://www.w3.org/1999/xlink">
<g id="graph0" class="graph" transform="scale(1 1) rotate(0) translate(4 35)">
<title>org.cobbzilla.util.io.FileUtil.mostRecentFileIsNewerThan</title>
<!-- Node0 -->
<g id="node1" class="node">
<title>Node0</title>
<polygon fill="#bfbfbf" stroke="#000000" points="0,-.5 0,-30.5 162,-30.5 162,-.5 0,-.5"/>
<text text-anchor="start" x="8" y="-18.5" font-family="Helvetica,sans-Serif" font-size="10.00" fill="#000000">org.cobbzilla.util.io.File</text>
<text text-anchor="middle" x="81" y="-7.5" font-family="Helvetica,sans-Serif" font-size="10.00" fill="#000000">Util.mostRecentFileIsNewerThan</text>
</g>
<!-- Node1 -->
<g id="node2" class="node">
<title>Node1</title>
<g id="a_node2"><a xlink:href="../../df/dac/classorg_1_1cobbzilla_1_1util_1_1io_1_1FileUtil_a7223ce741891df5e6261a98216a69b8d.html#a7223ce741891df5e6261a98216a69b8d" target="_top" xlink:title="org.cobbzilla.util.io.File\lUtil.mostRecentFile">
<polygon fill="none" stroke="#000000" points="198,-.5 198,-30.5 314,-30.5 314,-.5 198,-.5"/>
<text text-anchor="start" x="206" y="-18.5" font-family="Helvetica,sans-Serif" font-size="10.00" fill="#000000">org.cobbzilla.util.io.File</text>
<text text-anchor="middle" x="256" y="-7.5" font-family="Helvetica,sans-Serif" font-size="10.00" fill="#000000">Util.mostRecentFile</text>
</a>
</g>
</g>
<!-- Node0&#45;&gt;Node1 -->
<g id="edge1" class="edge">
<title>Node0&#45;&gt;Node1</title>
<path fill="none" stroke="#191970" d="M162.0964,-15.5C170.6775,-15.5 179.3411,-15.5 187.7548,-15.5"/>
<polygon fill="#191970" stroke="#191970" points="187.8714,-19.0001 197.8714,-15.5 187.8714,-12.0001 187.8714,-19.0001"/>
</g>
<!-- Node2 -->
<g id="node3" class="node">
<title>Node2</title>
<g id="a_node3"><a xlink:href="../../df/dac/classorg_1_1cobbzilla_1_1util_1_1io_1_1FileUtil_ac372345e18bc917079f1c3d61d4cfd8c.html#ac372345e18bc917079f1c3d61d4cfd8c" target="_top" xlink:title="org.cobbzilla.util.io.File\lUtil.list">
<polygon fill="none" stroke="#000000" points="350,-.5 350,-30.5 466,-30.5 466,-.5 350,-.5"/>
<text text-anchor="start" x="358" y="-18.5" font-family="Helvetica,sans-Serif" font-size="10.00" fill="#000000">org.cobbzilla.util.io.File</text>
<text text-anchor="middle" x="408" y="-7.5" font-family="Helvetica,sans-Serif" font-size="10.00" fill="#000000">Util.list</text>
</a>
</g>
</g>
<!-- Node1&#45;&gt;Node2 -->
<g id="edge2" class="edge">
<title>Node1&#45;&gt;Node2</title>
<path fill="none" stroke="#191970" d="M314.3325,-15.5C322.6057,-15.5 331.1747,-15.5 339.617,-15.5"/>
<polygon fill="#191970" stroke="#191970" points="339.8237,-19.0001 349.8236,-15.5 339.8236,-12.0001 339.8237,-19.0001"/>
</g>
</g>
</svg>
