<?xml version="1.0" encoding="UTF-8" standalone="no"?>
<!DOCTYPE svg PUBLIC "-//W3C//DTD SVG 1.1//EN"
 "http://www.w3.org/Graphics/SVG/1.1/DTD/svg11.dtd">
<!-- Generated by graphviz version 2.40.1 (20161225.0304)
 -->
<!-- Title: org.cobbzilla.util.io.FileUtil.mkHomeDir Pages: 1 -->
<svg width="276pt" height="106pt"
 viewBox="0.00 0.00 276.00 106.00" xmlns="http://www.w3.org/2000/svg" xmlns:xlink="http://www.w3.org/1999/xlink">
<g id="graph0" class="graph" transform="scale(1 1) rotate(0) translate(4 102)">
<title>org.cobbzilla.util.io.FileUtil.mkHomeDir</title>
<!-- Node0 -->
<g id="node1" class="node">
<title>Node0</title>
<polygon fill="#bfbfbf" stroke="#000000" points="0,-33.5 0,-63.5 116,-63.5 116,-33.5 0,-33.5"/>
<text text-anchor="start" x="8" y="-51.5" font-family="Helvetica,sans-Serif" font-size="10.00" fill="#000000">org.cobbzilla.util.io.File</text>
<text text-anchor="middle" x="58" y="-40.5" font-family="Helvetica,sans-Serif" font-size="10.00" fill="#000000">Util.mkHomeDir</text>
</g>
<!-- Node1 -->
<g id="node2" class="node">
<title>Node1</title>
<g id="a_node2"><a xlink:href="../../df/dac/classorg_1_1cobbzilla_1_1util_1_1io_1_1FileUtil_a5763b067b8d0ea3b22f41a522e6244b3.html#a5763b067b8d0ea3b22f41a522e6244b3" target="_top" xlink:title="org.cobbzilla.util.io.File\lUtil.getUserHomeDir">
<polygon fill="none" stroke="#000000" points="152,-67.5 152,-97.5 268,-97.5 268,-67.5 152,-67.5"/>
<text text-anchor="start" x="160" y="-85.5" font-family="Helvetica,sans-Serif" font-size="10.00" fill="#000000">org.cobbzilla.util.io.File</text>
<text text-anchor="middle" x="210" y="-74.5" font-family="Helvetica,sans-Serif" font-size="10.00" fill="#000000">Util.getUserHomeDir</text>
</a>
</g>
</g>
<!-- Node0&#45;&gt;Node1 -->
<g id="edge1" class="edge">
<title>Node0&#45;&gt;Node1</title>
<path fill="none" stroke="#191970" d="M116.3325,-61.548C124.6966,-63.419 133.3631,-65.3575 141.8953,-67.2661"/>
<polygon fill="#191970" stroke="#191970" points="141.3007,-70.7195 151.8236,-69.4869 142.8288,-63.8883 141.3007,-70.7195"/>
</g>
<!-- Node2 -->
<g id="node3" class="node">
<title>Node2</title>
<g id="a_node3"><a xlink:href="../../df/dac/classorg_1_1cobbzilla_1_1util_1_1io_1_1FileUtil_a53028c20e45f972c04978ac736e5c39c.html#a53028c20e45f972c04978ac736e5c39c" target="_top" xlink:title="org.cobbzilla.util.io.File\lUtil.mkdirOrDie">
<polygon fill="none" stroke="#000000" points="152,-.5 152,-30.5 268,-30.5 268,-.5 152,-.5"/>
<text text-anchor="start" x="160" y="-18.5" font-family="Helvetica,sans-Serif" font-size="10.00" fill="#000000">org.cobbzilla.util.io.File</text>
<text text-anchor="middle" x="210" y="-7.5" font-family="Helvetica,sans-Serif" font-size="10.00" fill="#000000">Util.mkdirOrDie</text>
</a>
</g>
</g>
<!-- Node0&#45;&gt;Node2 -->
<g id="edge2" class="edge">
<title>Node0&#45;&gt;Node2</title>
<path fill="none" stroke="#191970" d="M116.3325,-35.8357C124.6966,-34.0198 133.3631,-32.1383 141.8953,-30.2859"/>
<polygon fill="#191970" stroke="#191970" points="142.7939,-33.6724 151.8236,-28.1304 141.3087,-26.8318 142.7939,-33.6724"/>
</g>
<!-- Node2&#45;&gt;Node2 -->
<g id="edge3" class="edge">
<title>Node2&#45;&gt;Node2</title>
<path fill="none" stroke="#191970" d="M183.5109,-30.659C177.1234,-40.0566 185.9531,-49 210,-49 224.6536,-49 233.6564,-45.679 237.0086,-40.9579"/>
<polygon fill="#191970" stroke="#191970" points="240.4885,-40.47 236.4891,-30.659 233.4974,-40.8226 240.4885,-40.47"/>
</g>
</g>
</svg>
