<?xml version="1.0" encoding="UTF-8" standalone="no"?>
<!DOCTYPE svg PUBLIC "-//W3C//DTD SVG 1.1//EN"
 "http://www.w3.org/Graphics/SVG/1.1/DTD/svg11.dtd">
<!-- Generated by graphviz version 2.40.1 (20161225.0304)
 -->
<!-- Title: org.cobbzilla.util.io.BufferedFilesystemWatcher.BfsMonitor.run Pages: 1 -->
<svg width="337pt" height="57pt"
 viewBox="0.00 0.00 337.00 57.00" xmlns="http://www.w3.org/2000/svg" xmlns:xlink="http://www.w3.org/1999/xlink">
<g id="graph0" class="graph" transform="scale(1 1) rotate(0) translate(4 53)">
<title>org.cobbzilla.util.io.BufferedFilesystemWatcher.BfsMonitor.run</title>
<!-- Node0 -->
<g id="node1" class="node">
<title>Node0</title>
<polygon fill="#bfbfbf" stroke="#000000" points="0,-.5 0,-30.5 168,-30.5 168,-.5 0,-.5"/>
<text text-anchor="start" x="8" y="-18.5" font-family="Helvetica,sans-Serif" font-size="10.00" fill="#000000">org.cobbzilla.util.io.Buffered</text>
<text text-anchor="middle" x="84" y="-7.5" font-family="Helvetica,sans-Serif" font-size="10.00" fill="#000000">FilesystemWatcher.BfsMonitor.run</text>
</g>
<!-- Node1 -->
<g id="node2" class="node">
<title>Node1</title>
<g id="a_node2"><a xlink:href="../../dd/d5e/classorg_1_1cobbzilla_1_1util_1_1system_1_1Sleep_a7a160ebe6f2659f9eb9d80d6554ca9a8.html#a7a160ebe6f2659f9eb9d80d6554ca9a8" target="_top" xlink:title="sleep for 100ms and throw an exception if interrupted ">
<polygon fill="none" stroke="#000000" points="204,-.5 204,-30.5 329,-30.5 329,-.5 204,-.5"/>
<text text-anchor="start" x="212" y="-18.5" font-family="Helvetica,sans-Serif" font-size="10.00" fill="#000000">org.cobbzilla.util.system.</text>
<text text-anchor="middle" x="266.5" y="-7.5" font-family="Helvetica,sans-Serif" font-size="10.00" fill="#000000">Sleep.sleep</text>
</a>
</g>
</g>
<!-- Node0&#45;&gt;Node1 -->
<g id="edge1" class="edge">
<title>Node0&#45;&gt;Node1</title>
<path fill="none" stroke="#191970" d="M168.0387,-15.5C176.6182,-15.5 185.2833,-15.5 193.728,-15.5"/>
<polygon fill="#191970" stroke="#191970" points="193.8989,-19.0001 203.8988,-15.5 193.8988,-12.0001 193.8989,-19.0001"/>
</g>
<!-- Node1&#45;&gt;Node1 -->
<g id="edge2" class="edge">
<title>Node1&#45;&gt;Node1</title>
<path fill="none" stroke="#191970" d="M234.7827,-30.659C227.1346,-40.0566 237.707,-49 266.5,-49 284.0457,-49 294.8254,-45.679 298.8392,-40.9579"/>
<polygon fill="#191970" stroke="#191970" points="302.3138,-40.4298 298.2173,-30.659 295.3265,-40.8518 302.3138,-40.4298"/>
</g>
</g>
</svg>
