<?xml version="1.0" encoding="UTF-8" standalone="no"?>
<!DOCTYPE svg PUBLIC "-//W3C//DTD SVG 1.1//EN"
 "http://www.w3.org/Graphics/SVG/1.1/DTD/svg11.dtd">
<!-- Generated by graphviz version 2.40.1 (20161225.0304)
 -->
<!-- Title: org.cobbzilla.util.string.ResourceMessages Pages: 1 -->
<svg width="125pt" height="193pt"
 viewBox="0.00 0.00 125.00 193.00" xmlns="http://www.w3.org/2000/svg" xmlns:xlink="http://www.w3.org/1999/xlink">
<g id="graph0" class="graph" transform="scale(1 1) rotate(0) translate(4 189)">
<title>org.cobbzilla.util.string.ResourceMessages</title>
<!-- Node1 -->
<g id="node1" class="node">
<title>Node1</title>
<polygon fill="#bfbfbf" stroke="#000000" points="0,-.5 0,-79.5 117,-79.5 117,-.5 0,-.5"/>
<text text-anchor="start" x="8" y="-67.5" font-family="Helvetica,sans-Serif" font-size="10.00" fill="#000000">org.cobbzilla.util.string.</text>
<text text-anchor="middle" x="58.5" y="-56.5" font-family="Helvetica,sans-Serif" font-size="10.00" fill="#000000">ResourceMessages</text>
<polyline fill="none" stroke="#000000" points="0,-49.5 117,-49.5 "/>
<text text-anchor="middle" x="58.5" y="-37.5" font-family="Helvetica,sans-Serif" font-size="10.00" fill="#000000"> </text>
<polyline fill="none" stroke="#000000" points="0,-30.5 117,-30.5 "/>
<text text-anchor="start" x="8" y="-18.5" font-family="Helvetica,sans-Serif" font-size="10.00" fill="#000000">+ translate()</text>
<text text-anchor="start" x="8" y="-7.5" font-family="Helvetica,sans-Serif" font-size="10.00" fill="#000000"># getBundleName()</text>
</g>
<!-- Node2 -->
<g id="node2" class="node">
<title>Node2</title>
<polygon fill="none" stroke="#bfbfbf" points="14,-127.5 14,-184.5 103,-184.5 103,-127.5 14,-127.5"/>
<text text-anchor="middle" x="58.5" y="-172.5" font-family="Helvetica,sans-Serif" font-size="10.00" fill="#000000">ResourceBundle</text>
<polyline fill="none" stroke="#bfbfbf" points="14,-165.5 103,-165.5 "/>
<text text-anchor="middle" x="58.5" y="-153.5" font-family="Helvetica,sans-Serif" font-size="10.00" fill="#000000"> </text>
<polyline fill="none" stroke="#bfbfbf" points="14,-146.5 103,-146.5 "/>
<text text-anchor="middle" x="58.5" y="-134.5" font-family="Helvetica,sans-Serif" font-size="10.00" fill="#000000"> </text>
</g>
<!-- Node2&#45;&gt;Node1 -->
<g id="edge1" class="edge">
<title>Node2&#45;&gt;Node1</title>
<path fill="none" stroke="#404040" d="M58.5,-127.3258C58.5,-116.5576 58.5,-103.9593 58.5,-91.7364"/>
<polygon fill="none" stroke="#404040" points="58.5001,-91.7203 54.5,-85.7203 58.5,-79.7203 62.5,-85.7203 58.5001,-91.7203"/>
<text text-anchor="middle" x="76" y="-101" font-family="Helvetica,sans-Serif" font-size="10.00" fill="#000000"> &#45;bundle</text>
</g>
</g>
</svg>
