<?xml version="1.0" encoding="UTF-8" standalone="no"?>
<!DOCTYPE svg PUBLIC "-//W3C//DTD SVG 1.1//EN"
 "http://www.w3.org/Graphics/SVG/1.1/DTD/svg11.dtd">
<!-- Generated by graphviz version 2.40.1 (20161225.0304)
 -->
<!-- Title: org.cobbzilla.util.xml.XmlUtil.MatchNodeName Pages: 1 -->
<svg width="318pt" height="447pt"
 viewBox="0.00 0.00 317.50 447.00" xmlns="http://www.w3.org/2000/svg" xmlns:xlink="http://www.w3.org/1999/xlink">
<g id="graph0" class="graph" transform="scale(1 1) rotate(0) translate(4 443)">
<title>org.cobbzilla.util.xml.XmlUtil.MatchNodeName</title>
<!-- Node0 -->
<g id="node1" class="node">
<title>Node0</title>
<polygon fill="#bfbfbf" stroke="#000000" points="93,-116.5 93,-195.5 219,-195.5 219,-116.5 93,-116.5"/>
<text text-anchor="start" x="101" y="-183.5" font-family="Helvetica,sans-Serif" font-size="10.00" fill="#000000">org.cobbzilla.util.xml.Xml</text>
<text text-anchor="middle" x="156" y="-172.5" font-family="Helvetica,sans-Serif" font-size="10.00" fill="#000000">Util.MatchNodeName</text>
<polyline fill="none" stroke="#000000" points="93,-165.5 219,-165.5 "/>
<text text-anchor="middle" x="156" y="-153.5" font-family="Helvetica,sans-Serif" font-size="10.00" fill="#000000"> </text>
<polyline fill="none" stroke="#000000" points="93,-146.5 219,-146.5 "/>
<text text-anchor="start" x="101" y="-134.5" font-family="Helvetica,sans-Serif" font-size="10.00" fill="#000000">+ MatchNodeName()</text>
<text text-anchor="start" x="101" y="-123.5" font-family="Helvetica,sans-Serif" font-size="10.00" fill="#000000"># check()</text>
</g>
<!-- Node3 -->
<g id="node4" class="node">
<title>Node3</title>
<g id="a_node4"><a xlink:href="../../d5/ddb/classorg_1_1cobbzilla_1_1util_1_1xml_1_1XmlUtil_1_1MatchNodeNameAndText.html" target="_top" xlink:title="{org.cobbzilla.util.xml.Xml\lUtil.MatchNodeNameAndText\n|&#45; text\l|+ MatchNodeNameAndText()\l# check()\l}">
<polygon fill="none" stroke="#000000" points="0,-.5 0,-79.5 148,-79.5 148,-.5 0,-.5"/>
<text text-anchor="start" x="8" y="-67.5" font-family="Helvetica,sans-Serif" font-size="10.00" fill="#000000">org.cobbzilla.util.xml.Xml</text>
<text text-anchor="middle" x="74" y="-56.5" font-family="Helvetica,sans-Serif" font-size="10.00" fill="#000000">Util.MatchNodeNameAndText</text>
<polyline fill="none" stroke="#000000" points="0,-49.5 148,-49.5 "/>
<text text-anchor="start" x="8" y="-37.5" font-family="Helvetica,sans-Serif" font-size="10.00" fill="#000000">&#45; text</text>
<polyline fill="none" stroke="#000000" points="0,-30.5 148,-30.5 "/>
<text text-anchor="start" x="8" y="-18.5" font-family="Helvetica,sans-Serif" font-size="10.00" fill="#000000">+ MatchNodeNameAndText()</text>
<text text-anchor="start" x="8" y="-7.5" font-family="Helvetica,sans-Serif" font-size="10.00" fill="#000000"># check()</text>
</a>
</g>
</g>
<!-- Node0&#45;&gt;Node3 -->
<g id="edge3" class="edge">
<title>Node0&#45;&gt;Node3</title>
<path fill="none" stroke="#191970" d="M122.2282,-108.2252C115.5508,-98.7792 108.6094,-88.9596 102.1427,-79.8116"/>
<polygon fill="none" stroke="#191970" points="119.3792,-110.2584 128.0096,-116.4038 125.0952,-106.2177 119.3792,-110.2584"/>
</g>
<!-- Node4 -->
<g id="node5" class="node">
<title>Node4</title>
<g id="a_node5"><a xlink:href="../../d2/dfa/classorg_1_1cobbzilla_1_1util_1_1xml_1_1XmlUtil_1_1MatchNodeSubElements.html" target="_top" xlink:title="{org.cobbzilla.util.xml.Xml\lUtil.MatchNodeSubElements\n|&#45; conditions\l|+ MatchNodeSubElements()\l# check()\l}">
<polygon fill="none" stroke="#000000" points="166.5,-.5 166.5,-79.5 309.5,-79.5 309.5,-.5 166.5,-.5"/>
<text text-anchor="start" x="174.5" y="-67.5" font-family="Helvetica,sans-Serif" font-size="10.00" fill="#000000">org.cobbzilla.util.xml.Xml</text>
<text text-anchor="middle" x="238" y="-56.5" font-family="Helvetica,sans-Serif" font-size="10.00" fill="#000000">Util.MatchNodeSubElements</text>
<polyline fill="none" stroke="#000000" points="166.5,-49.5 309.5,-49.5 "/>
<text text-anchor="start" x="174.5" y="-37.5" font-family="Helvetica,sans-Serif" font-size="10.00" fill="#000000">&#45; conditions</text>
<polyline fill="none" stroke="#000000" points="166.5,-30.5 309.5,-30.5 "/>
<text text-anchor="start" x="174.5" y="-18.5" font-family="Helvetica,sans-Serif" font-size="10.00" fill="#000000">+ MatchNodeSubElements()</text>
<text text-anchor="start" x="174.5" y="-7.5" font-family="Helvetica,sans-Serif" font-size="10.00" fill="#000000"># check()</text>
</a>
</g>
</g>
<!-- Node0&#45;&gt;Node4 -->
<g id="edge4" class="edge">
<title>Node0&#45;&gt;Node4</title>
<path fill="none" stroke="#191970" d="M189.7718,-108.2252C196.4492,-98.7792 203.3906,-88.9596 209.8573,-79.8116"/>
<polygon fill="none" stroke="#191970" points="186.9048,-106.2177 183.9904,-116.4038 192.6208,-110.2584 186.9048,-106.2177"/>
</g>
<!-- Node1 -->
<g id="node2" class="node">
<title>Node1</title>
<g id="a_node2"><a xlink:href="../../de/dc6/classorg_1_1cobbzilla_1_1util_1_1xml_1_1XmlUtil_1_1MatchNodeXMLFunction.html" target="_top" xlink:title="{org.cobbzilla.util.xml.Xml\lUtil.MatchNodeXMLFunction\n|# value\l# found\l|+ MatchNodeXMLFunction()\l+ apply()\l# check()\l}">
<polygon fill="none" stroke="#000000" points="84.5,-232.5 84.5,-333.5 227.5,-333.5 227.5,-232.5 84.5,-232.5"/>
<text text-anchor="start" x="92.5" y="-321.5" font-family="Helvetica,sans-Serif" font-size="10.00" fill="#000000">org.cobbzilla.util.xml.Xml</text>
<text text-anchor="middle" x="156" y="-310.5" font-family="Helvetica,sans-Serif" font-size="10.00" fill="#000000">Util.MatchNodeXMLFunction</text>
<polyline fill="none" stroke="#000000" points="84.5,-303.5 227.5,-303.5 "/>
<text text-anchor="start" x="92.5" y="-291.5" font-family="Helvetica,sans-Serif" font-size="10.00" fill="#000000"># value</text>
<text text-anchor="start" x="92.5" y="-280.5" font-family="Helvetica,sans-Serif" font-size="10.00" fill="#000000"># found</text>
<polyline fill="none" stroke="#000000" points="84.5,-273.5 227.5,-273.5 "/>
<text text-anchor="start" x="92.5" y="-261.5" font-family="Helvetica,sans-Serif" font-size="10.00" fill="#000000">+ MatchNodeXMLFunction()</text>
<text text-anchor="start" x="92.5" y="-250.5" font-family="Helvetica,sans-Serif" font-size="10.00" fill="#000000">+ apply()</text>
<text text-anchor="start" x="92.5" y="-239.5" font-family="Helvetica,sans-Serif" font-size="10.00" fill="#000000"># check()</text>
</a>
</g>
</g>
<!-- Node1&#45;&gt;Node0 -->
<g id="edge1" class="edge">
<title>Node1&#45;&gt;Node0</title>
<path fill="none" stroke="#191970" d="M156,-222.3446C156,-213.3388 156,-204.2565 156,-195.8243"/>
<polygon fill="none" stroke="#191970" points="152.5001,-222.4413 156,-232.4413 159.5001,-222.4414 152.5001,-222.4413"/>
</g>
<!-- Node2 -->
<g id="node3" class="node">
<title>Node2</title>
<g id="a_node3"><a xlink:href="../../d8/dba/interfaceorg_1_1cobbzilla_1_1util_1_1xml_1_1XmlElementFunction.html" target="_top" xlink:title="{org.cobbzilla.util.xml.Xml\lElementFunction\n||+ apply()\l}">
<polygon fill="none" stroke="#000000" points="93,-370.5 93,-438.5 219,-438.5 219,-370.5 93,-370.5"/>
<text text-anchor="start" x="101" y="-426.5" font-family="Helvetica,sans-Serif" font-size="10.00" fill="#000000">org.cobbzilla.util.xml.Xml</text>
<text text-anchor="middle" x="156" y="-415.5" font-family="Helvetica,sans-Serif" font-size="10.00" fill="#000000">ElementFunction</text>
<polyline fill="none" stroke="#000000" points="93,-408.5 219,-408.5 "/>
<text text-anchor="middle" x="156" y="-396.5" font-family="Helvetica,sans-Serif" font-size="10.00" fill="#000000"> </text>
<polyline fill="none" stroke="#000000" points="93,-389.5 219,-389.5 "/>
<text text-anchor="start" x="101" y="-377.5" font-family="Helvetica,sans-Serif" font-size="10.00" fill="#000000">+ apply()</text>
</a>
</g>
</g>
<!-- Node2&#45;&gt;Node1 -->
<g id="edge2" class="edge">
<title>Node2&#45;&gt;Node1</title>
<path fill="none" stroke="#191970" d="M156,-360.1349C156,-351.5408 156,-342.474 156,-333.6952"/>
<polygon fill="none" stroke="#191970" points="152.5001,-360.3321 156,-370.3321 159.5001,-360.3322 152.5001,-360.3321"/>
</g>
</g>
</svg>
