<?xml version="1.0" encoding="UTF-8" standalone="no"?>
<!DOCTYPE svg PUBLIC "-//W3C//DTD SVG 1.1//EN"
 "http://www.w3.org/Graphics/SVG/1.1/DTD/svg11.dtd">
<!-- Generated by graphviz version 2.40.1 (20161225.0304)
 -->
<!-- Title: org.cobbzilla.util.io.BufferedFilesystemWatcher Pages: 1 -->
<svg width="558pt" height="595pt"
 viewBox="0.00 0.00 558.00 595.00" xmlns="http://www.w3.org/2000/svg" xmlns:xlink="http://www.w3.org/1999/xlink">
<g id="graph0" class="graph" transform="scale(1 1) rotate(0) translate(4 591)">
<title>org.cobbzilla.util.io.BufferedFilesystemWatcher</title>
<!-- Node4 -->
<g id="node1" class="node">
<title>Node4</title>
<polygon fill="#bfbfbf" stroke="#000000" points="257.5,-.5 257.5,-189.5 410.5,-189.5 410.5,-.5 257.5,-.5"/>
<text text-anchor="start" x="265.5" y="-177.5" font-family="Helvetica,sans-Serif" font-size="10.00" fill="#000000">org.cobbzilla.util.io.Buffered</text>
<text text-anchor="middle" x="334" y="-166.5" font-family="Helvetica,sans-Serif" font-size="10.00" fill="#000000">FilesystemWatcher</text>
<polyline fill="none" stroke="#000000" points="257.5,-159.5 410.5,-159.5 "/>
<text text-anchor="start" x="265.5" y="-147.5" font-family="Helvetica,sans-Serif" font-size="10.00" fill="#000000">&#45; timeout</text>
<text text-anchor="start" x="265.5" y="-136.5" font-family="Helvetica,sans-Serif" font-size="10.00" fill="#000000">&#45; maxEvents</text>
<text text-anchor="start" x="265.5" y="-125.5" font-family="Helvetica,sans-Serif" font-size="10.00" fill="#000000">&#45; monitor</text>
<text text-anchor="start" x="265.5" y="-114.5" font-family="Helvetica,sans-Serif" font-size="10.00" fill="#000000">&#45; lastFlush</text>
<polyline fill="none" stroke="#000000" points="257.5,-107.5 410.5,-107.5 "/>
<text text-anchor="start" x="265.5" y="-95.5" font-family="Helvetica,sans-Serif" font-size="10.00" fill="#000000">+ BufferedFilesystemWatcher()</text>
<text text-anchor="start" x="265.5" y="-84.5" font-family="Helvetica,sans-Serif" font-size="10.00" fill="#000000">+ BufferedFilesystemWatcher()</text>
<text text-anchor="start" x="265.5" y="-73.5" font-family="Helvetica,sans-Serif" font-size="10.00" fill="#000000">+ close()</text>
<text text-anchor="start" x="265.5" y="-62.5" font-family="Helvetica,sans-Serif" font-size="10.00" fill="#000000"># fire()</text>
<text text-anchor="start" x="265.5" y="-51.5" font-family="Helvetica,sans-Serif" font-size="10.00" fill="#000000"># handleEvent()</text>
<text text-anchor="start" x="265.5" y="-40.5" font-family="Helvetica,sans-Serif" font-size="10.00" fill="#000000">&#45; beenTooLong()</text>
<text text-anchor="start" x="265.5" y="-29.5" font-family="Helvetica,sans-Serif" font-size="10.00" fill="#000000">&#45; bufferTooBig()</text>
<text text-anchor="start" x="265.5" y="-18.5" font-family="Helvetica,sans-Serif" font-size="10.00" fill="#000000">&#45; shouldFlush()</text>
<text text-anchor="start" x="265.5" y="-7.5" font-family="Helvetica,sans-Serif" font-size="10.00" fill="#000000">&#45; flush()</text>
</g>
<!-- Node5 -->
<g id="node2" class="node">
<title>Node5</title>
<g id="a_node2"><a xlink:href="../../d3/d98/classorg_1_1cobbzilla_1_1util_1_1io_1_1FilesystemWatcher.html" target="_top" xlink:title="{org.cobbzilla.util.io.Filesystem\lWatcher\n|+ STOP_TIMEOUT\l&#45; thread\l|+ FilesystemWatcher()\l+ FilesystemWatcher()\l+ start()\l+ stop()\l+ close()\l+ toFile()\l+ run()\l# handleEvent()\l# onDirCreated()\l# onFileCreated()\l# onDirModified()\l# onFileModified()\l# onDirDeleted()\l# onFileDeleted()\l# getSleepWhileNotExists()\l# getSleepAfterUnexpectedError()\l}">
<polygon fill="none" stroke="#000000" points="170,-237.5 170,-481.5 334,-481.5 334,-237.5 170,-237.5"/>
<text text-anchor="start" x="178" y="-469.5" font-family="Helvetica,sans-Serif" font-size="10.00" fill="#000000">org.cobbzilla.util.io.Filesystem</text>
<text text-anchor="middle" x="252" y="-458.5" font-family="Helvetica,sans-Serif" font-size="10.00" fill="#000000">Watcher</text>
<polyline fill="none" stroke="#000000" points="170,-451.5 334,-451.5 "/>
<text text-anchor="start" x="178" y="-439.5" font-family="Helvetica,sans-Serif" font-size="10.00" fill="#000000">+ STOP_TIMEOUT</text>
<text text-anchor="start" x="178" y="-428.5" font-family="Helvetica,sans-Serif" font-size="10.00" fill="#000000">&#45; thread</text>
<polyline fill="none" stroke="#000000" points="170,-421.5 334,-421.5 "/>
<text text-anchor="start" x="178" y="-409.5" font-family="Helvetica,sans-Serif" font-size="10.00" fill="#000000">+ FilesystemWatcher()</text>
<text text-anchor="start" x="178" y="-398.5" font-family="Helvetica,sans-Serif" font-size="10.00" fill="#000000">+ FilesystemWatcher()</text>
<text text-anchor="start" x="178" y="-387.5" font-family="Helvetica,sans-Serif" font-size="10.00" fill="#000000">+ start()</text>
<text text-anchor="start" x="178" y="-376.5" font-family="Helvetica,sans-Serif" font-size="10.00" fill="#000000">+ stop()</text>
<text text-anchor="start" x="178" y="-365.5" font-family="Helvetica,sans-Serif" font-size="10.00" fill="#000000">+ close()</text>
<text text-anchor="start" x="178" y="-354.5" font-family="Helvetica,sans-Serif" font-size="10.00" fill="#000000">+ toFile()</text>
<text text-anchor="start" x="178" y="-343.5" font-family="Helvetica,sans-Serif" font-size="10.00" fill="#000000">+ run()</text>
<text text-anchor="start" x="178" y="-332.5" font-family="Helvetica,sans-Serif" font-size="10.00" fill="#000000"># handleEvent()</text>
<text text-anchor="start" x="178" y="-321.5" font-family="Helvetica,sans-Serif" font-size="10.00" fill="#000000"># onDirCreated()</text>
<text text-anchor="start" x="178" y="-310.5" font-family="Helvetica,sans-Serif" font-size="10.00" fill="#000000"># onFileCreated()</text>
<text text-anchor="start" x="178" y="-299.5" font-family="Helvetica,sans-Serif" font-size="10.00" fill="#000000"># onDirModified()</text>
<text text-anchor="start" x="178" y="-288.5" font-family="Helvetica,sans-Serif" font-size="10.00" fill="#000000"># onFileModified()</text>
<text text-anchor="start" x="178" y="-277.5" font-family="Helvetica,sans-Serif" font-size="10.00" fill="#000000"># onDirDeleted()</text>
<text text-anchor="start" x="178" y="-266.5" font-family="Helvetica,sans-Serif" font-size="10.00" fill="#000000"># onFileDeleted()</text>
<text text-anchor="start" x="178" y="-255.5" font-family="Helvetica,sans-Serif" font-size="10.00" fill="#000000"># getSleepWhileNotExists()</text>
<text text-anchor="start" x="178" y="-244.5" font-family="Helvetica,sans-Serif" font-size="10.00" fill="#000000"># getSleepAfterUnexpectedError()</text>
</a>
</g>
</g>
<!-- Node5&#45;&gt;Node4 -->
<g id="edge1" class="edge">
<title>Node5&#45;&gt;Node4</title>
<path fill="none" stroke="#191970" d="M292.9022,-227.5654C296.8583,-214.8046 300.8156,-202.0398 304.6268,-189.7464"/>
<polygon fill="none" stroke="#191970" points="289.4978,-226.7271 289.8796,-237.3151 296.1839,-228.8 289.4978,-226.7271"/>
</g>
<!-- Node6 -->
<g id="node3" class="node">
<title>Node6</title>
<polygon fill="none" stroke="#bfbfbf" points="76,-529.5 76,-586.5 134,-586.5 134,-529.5 76,-529.5"/>
<text text-anchor="middle" x="105" y="-574.5" font-family="Helvetica,sans-Serif" font-size="10.00" fill="#000000">Runnable</text>
<polyline fill="none" stroke="#bfbfbf" points="76,-567.5 134,-567.5 "/>
<text text-anchor="middle" x="105" y="-555.5" font-family="Helvetica,sans-Serif" font-size="10.00" fill="#000000"> </text>
<polyline fill="none" stroke="#bfbfbf" points="76,-548.5 134,-548.5 "/>
<text text-anchor="middle" x="105" y="-536.5" font-family="Helvetica,sans-Serif" font-size="10.00" fill="#000000"> </text>
</g>
<!-- Node6&#45;&gt;Node5 -->
<g id="edge2" class="edge">
<title>Node6&#45;&gt;Node5</title>
<path fill="none" stroke="#191970" d="M132.5022,-520.8627C143.3729,-506.1835 156.4883,-488.4732 169.992,-470.2387"/>
<polygon fill="none" stroke="#191970" points="129.5137,-519.0171 126.3751,-529.1364 135.1391,-523.1831 129.5137,-519.0171"/>
</g>
<!-- Node10 -->
<g id="node7" class="node">
<title>Node10</title>
<g id="a_node7"><a xlink:href="../../d3/d80/classorg_1_1cobbzilla_1_1util_1_1io_1_1BufferedFilesystemWatcher_1_1BfsMonitor.html" target="_top" xlink:title="{org.cobbzilla.util.io.Buffered\lFilesystemWatcher.BfsMonitor\n|+ alive\l|+ run()\l}">
<polygon fill="none" stroke="#000000" points="0,-325.5 0,-393.5 152,-393.5 152,-325.5 0,-325.5"/>
<text text-anchor="start" x="8" y="-381.5" font-family="Helvetica,sans-Serif" font-size="10.00" fill="#000000">org.cobbzilla.util.io.Buffered</text>
<text text-anchor="middle" x="76" y="-370.5" font-family="Helvetica,sans-Serif" font-size="10.00" fill="#000000">FilesystemWatcher.BfsMonitor</text>
<polyline fill="none" stroke="#000000" points="0,-363.5 152,-363.5 "/>
<text text-anchor="start" x="8" y="-351.5" font-family="Helvetica,sans-Serif" font-size="10.00" fill="#000000">+ alive</text>
<polyline fill="none" stroke="#000000" points="0,-344.5 152,-344.5 "/>
<text text-anchor="start" x="8" y="-332.5" font-family="Helvetica,sans-Serif" font-size="10.00" fill="#000000">+ run()</text>
</a>
</g>
</g>
<!-- Node6&#45;&gt;Node10 -->
<g id="edge8" class="edge">
<title>Node6&#45;&gt;Node10</title>
<path fill="none" stroke="#191970" d="M99.2845,-518.8781C93.9556,-482.403 86.0864,-428.5398 81.001,-393.731"/>
<polygon fill="none" stroke="#191970" points="95.8742,-519.7474 100.7832,-529.1364 102.8007,-518.7354 95.8742,-519.7474"/>
</g>
<!-- Node7 -->
<g id="node4" class="node">
<title>Node7</title>
<polygon fill="none" stroke="#bfbfbf" points="322,-529.5 322,-586.5 382,-586.5 382,-529.5 322,-529.5"/>
<text text-anchor="middle" x="352" y="-574.5" font-family="Helvetica,sans-Serif" font-size="10.00" fill="#000000">Closeable</text>
<polyline fill="none" stroke="#bfbfbf" points="322,-567.5 382,-567.5 "/>
<text text-anchor="middle" x="352" y="-555.5" font-family="Helvetica,sans-Serif" font-size="10.00" fill="#000000"> </text>
<polyline fill="none" stroke="#bfbfbf" points="322,-548.5 382,-548.5 "/>
<text text-anchor="middle" x="352" y="-536.5" font-family="Helvetica,sans-Serif" font-size="10.00" fill="#000000"> </text>
</g>
<!-- Node7&#45;&gt;Node4 -->
<g id="edge6" class="edge">
<title>Node7&#45;&gt;Node4</title>
<path fill="none" stroke="#191970" d="M351.3496,-518.9871C350.2419,-458.5524 347.6454,-338.6619 343,-237 342.3009,-221.7006 341.4125,-205.4828 340.4676,-189.689"/>
<polygon fill="none" stroke="#191970" points="347.8542,-519.2775 351.5331,-529.2131 354.853,-519.1519 347.8542,-519.2775"/>
</g>
<!-- Node7&#45;&gt;Node5 -->
<g id="edge3" class="edge">
<title>Node7&#45;&gt;Node5</title>
<path fill="none" stroke="#191970" d="M332.8509,-519.9891C327.0995,-508.5724 320.454,-495.3812 313.4944,-481.5664"/>
<polygon fill="none" stroke="#191970" points="329.8342,-521.7804 337.4591,-529.1364 336.0857,-518.6309 329.8342,-521.7804"/>
</g>
<!-- Node8 -->
<g id="node5" class="node">
<title>Node8</title>
<polygon fill="none" stroke="#bfbfbf" points="160.5,-529.5 160.5,-586.5 197.5,-586.5 197.5,-529.5 160.5,-529.5"/>
<text text-anchor="middle" x="179" y="-574.5" font-family="Helvetica,sans-Serif" font-size="10.00" fill="#000000">Path</text>
<polyline fill="none" stroke="#bfbfbf" points="160.5,-567.5 197.5,-567.5 "/>
<text text-anchor="middle" x="179" y="-555.5" font-family="Helvetica,sans-Serif" font-size="10.00" fill="#000000"> </text>
<polyline fill="none" stroke="#bfbfbf" points="160.5,-548.5 197.5,-548.5 "/>
<text text-anchor="middle" x="179" y="-536.5" font-family="Helvetica,sans-Serif" font-size="10.00" fill="#000000"> </text>
</g>
<!-- Node8&#45;&gt;Node5 -->
<g id="edge4" class="edge">
<title>Node8&#45;&gt;Node5</title>
<path fill="none" stroke="#404040" d="M189.6148,-529.1364C193.4147,-518.8038 197.9858,-506.3743 202.9047,-492.9989"/>
<polygon fill="none" stroke="#404040" points="202.9671,-492.8289 201.2839,-485.817 207.1091,-481.5664 208.7923,-488.5783 202.9671,-492.8289"/>
<text text-anchor="middle" x="211.5" y="-503" font-family="Helvetica,sans-Serif" font-size="10.00" fill="#000000"> &#45;path</text>
</g>
<!-- Node9 -->
<g id="node6" class="node">
<title>Node9</title>
<polygon fill="none" stroke="#bfbfbf" points="215.5,-529.5 215.5,-586.5 298.5,-586.5 298.5,-529.5 215.5,-529.5"/>
<text text-anchor="middle" x="257" y="-574.5" font-family="Helvetica,sans-Serif" font-size="10.00" fill="#000000">AtomicBoolean</text>
<polyline fill="none" stroke="#bfbfbf" points="215.5,-567.5 298.5,-567.5 "/>
<text text-anchor="middle" x="257" y="-555.5" font-family="Helvetica,sans-Serif" font-size="10.00" fill="#000000"> </text>
<polyline fill="none" stroke="#bfbfbf" points="215.5,-548.5 298.5,-548.5 "/>
<text text-anchor="middle" x="257" y="-536.5" font-family="Helvetica,sans-Serif" font-size="10.00" fill="#000000"> </text>
</g>
<!-- Node9&#45;&gt;Node5 -->
<g id="edge5" class="edge">
<title>Node9&#45;&gt;Node5</title>
<path fill="none" stroke="#404040" d="M256.273,-529.1364C256.0179,-519.0104 255.7121,-506.8706 255.3829,-493.8003"/>
<polygon fill="none" stroke="#404040" points="255.377,-493.5626 251.2271,-487.6652 255.0747,-481.5664 259.2246,-487.4637 255.377,-493.5626"/>
<text text-anchor="middle" x="270" y="-503" font-family="Helvetica,sans-Serif" font-size="10.00" fill="#000000"> &#45;done</text>
</g>
<!-- Node10&#45;&gt;Node4 -->
<g id="edge7" class="edge">
<title>Node10&#45;&gt;Node4</title>
<path fill="none" stroke="#404040" d="M96.0605,-325.4078C111.9916,-299.7342 135.727,-264.3994 161,-237 186.9181,-208.9012 218.4647,-181.4281 247.4862,-158.2494"/>
<polygon fill="none" stroke="#404040" points="247.8041,-157.9982 250.0321,-151.1399 257.2197,-150.5587 254.9918,-157.417 247.8041,-157.9982"/>
<text text-anchor="middle" x="213" y="-211" font-family="Helvetica,sans-Serif" font-size="10.00" fill="#000000"> &#45;bfsMonitor</text>
</g>
<!-- Node11 -->
<g id="node8" class="node">
<title>Node11</title>
<polygon fill="none" stroke="#bfbfbf" points="390,-331 390,-388 524,-388 524,-331 390,-331"/>
<text text-anchor="middle" x="457" y="-376" font-family="Helvetica,sans-Serif" font-size="10.00" fill="#000000">Queue&lt; WatchEvent&lt;?&gt; &gt;</text>
<polyline fill="none" stroke="#bfbfbf" points="390,-369 524,-369 "/>
<text text-anchor="middle" x="457" y="-357" font-family="Helvetica,sans-Serif" font-size="10.00" fill="#000000"> </text>
<polyline fill="none" stroke="#bfbfbf" points="390,-350 524,-350 "/>
<text text-anchor="middle" x="457" y="-338" font-family="Helvetica,sans-Serif" font-size="10.00" fill="#000000"> </text>
</g>
<!-- Node11&#45;&gt;Node4 -->
<g id="edge9" class="edge">
<title>Node11&#45;&gt;Node4</title>
<path fill="none" stroke="#404040" d="M443.72,-330.9426C429.1972,-299.7126 405.0604,-247.8087 383.1175,-200.6227"/>
<polygon fill="none" stroke="#404040" points="383.0954,-200.5749 376.9384,-196.8211 378.0354,-189.6939 384.1924,-193.4477 383.0954,-200.5749"/>
<text text-anchor="middle" x="404.5" y="-211" font-family="Helvetica,sans-Serif" font-size="10.00" fill="#000000"> &#45;buffer</text>
</g>
<!-- Node12 -->
<g id="node9" class="node">
<title>Node12</title>
<polygon fill="none" stroke="#bfbfbf" points="434.5,-529.5 434.5,-586.5 479.5,-586.5 479.5,-529.5 434.5,-529.5"/>
<text text-anchor="middle" x="457" y="-574.5" font-family="Helvetica,sans-Serif" font-size="10.00" fill="#000000">Queue</text>
<polyline fill="none" stroke="#bfbfbf" points="434.5,-567.5 479.5,-567.5 "/>
<text text-anchor="middle" x="457" y="-555.5" font-family="Helvetica,sans-Serif" font-size="10.00" fill="#000000"> </text>
<polyline fill="none" stroke="#bfbfbf" points="434.5,-548.5 479.5,-548.5 "/>
<text text-anchor="middle" x="457" y="-536.5" font-family="Helvetica,sans-Serif" font-size="10.00" fill="#000000"> </text>
</g>
<!-- Node12&#45;&gt;Node11 -->
<g id="edge10" class="edge">
<title>Node12&#45;&gt;Node11</title>
<path fill="none" stroke="#ffa500" d="M457,-518.8218C457,-480.3069 457,-422.4444 457,-388.0764"/>
<polygon fill="#ffa500" stroke="#ffa500" points="453.5001,-519.1364 457,-529.1364 460.5001,-519.1364 453.5001,-519.1364"/>
<text text-anchor="middle" x="503.5" y="-503" font-family="Helvetica,sans-Serif" font-size="10.00" fill="#000000"> &lt; WatchEvent&lt;?&gt; &gt;</text>
</g>
</g>
</svg>
