<?xml version="1.0" encoding="UTF-8" standalone="no"?>
<!DOCTYPE svg PUBLIC "-//W3C//DTD SVG 1.1//EN"
 "http://www.w3.org/Graphics/SVG/1.1/DTD/svg11.dtd">
<!-- Generated by graphviz version 2.40.1 (20161225.0304)
 -->
<!-- Title: org.cobbzilla.util.reflect.NoSetters.NoSettersInvocationHandler Pages: 1 -->
<svg width="195pt" height="182pt"
 viewBox="0.00 0.00 195.00 182.00" xmlns="http://www.w3.org/2000/svg" xmlns:xlink="http://www.w3.org/1999/xlink">
<g id="graph0" class="graph" transform="scale(1 1) rotate(0) translate(4 178)">
<title>org.cobbzilla.util.reflect.NoSetters.NoSettersInvocationHandler</title>
<!-- Node2 -->
<g id="node1" class="node">
<title>Node2</title>
<polygon fill="#bfbfbf" stroke="#000000" points="0,-.5 0,-68.5 187,-68.5 187,-.5 0,-.5"/>
<text text-anchor="start" x="8" y="-56.5" font-family="Helvetica,sans-Serif" font-size="10.00" fill="#000000">org.cobbzilla.util.reflect.</text>
<text text-anchor="middle" x="93.5" y="-45.5" font-family="Helvetica,sans-Serif" font-size="10.00" fill="#000000">NoSetters.NoSettersInvocationHandler</text>
<polyline fill="none" stroke="#000000" points="0,-38.5 187,-38.5 "/>
<text text-anchor="middle" x="93.5" y="-26.5" font-family="Helvetica,sans-Serif" font-size="10.00" fill="#000000"> </text>
<polyline fill="none" stroke="#000000" points="0,-19.5 187,-19.5 "/>
<text text-anchor="start" x="8" y="-7.5" font-family="Helvetica,sans-Serif" font-size="10.00" fill="#000000">+ invoke()</text>
</g>
<!-- Node3 -->
<g id="node2" class="node">
<title>Node3</title>
<polygon fill="none" stroke="#bfbfbf" points="46,-116.5 46,-173.5 141,-173.5 141,-116.5 46,-116.5"/>
<text text-anchor="middle" x="93.5" y="-161.5" font-family="Helvetica,sans-Serif" font-size="10.00" fill="#000000">InvocationHandler</text>
<polyline fill="none" stroke="#bfbfbf" points="46,-154.5 141,-154.5 "/>
<text text-anchor="middle" x="93.5" y="-142.5" font-family="Helvetica,sans-Serif" font-size="10.00" fill="#000000"> </text>
<polyline fill="none" stroke="#bfbfbf" points="46,-135.5 141,-135.5 "/>
<text text-anchor="middle" x="93.5" y="-123.5" font-family="Helvetica,sans-Serif" font-size="10.00" fill="#000000"> </text>
</g>
<!-- Node3&#45;&gt;Node2 -->
<g id="edge1" class="edge">
<title>Node3&#45;&gt;Node2</title>
<path fill="none" stroke="#191970" d="M91.7096,-105.8938C91.6262,-103.2228 91.5547,-100.5721 91.5,-98 91.2983,-88.5165 91.4578,-78.2386 91.7587,-68.7701"/>
<polygon fill="none" stroke="#191970" points="88.222,-106.3057 92.0794,-116.1734 95.2175,-106.054 88.222,-106.3057"/>
</g>
<!-- Node3&#45;&gt;Node2 -->
<g id="edge2" class="edge">
<title>Node3&#45;&gt;Node2</title>
<path fill="none" stroke="#404040" d="M93.5,-116.2559C93.5,-105.4349 93.5,-92.8362 93.5,-80.8169"/>
<polygon fill="none" stroke="#404040" points="93.5001,-80.6001 89.5,-74.6001 93.5,-68.6001 97.5,-74.6 93.5001,-80.6001"/>
<text text-anchor="middle" x="116.5" y="-90" font-family="Helvetica,sans-Serif" font-size="10.00" fill="#000000"> +instance</text>
</g>
</g>
</svg>
