<?xml version="1.0" encoding="UTF-8" standalone="no"?>
<!DOCTYPE svg PUBLIC "-//W3C//DTD SVG 1.1//EN"
 "http://www.w3.org/Graphics/SVG/1.1/DTD/svg11.dtd">
<!-- Generated by graphviz version 2.40.1 (20161225.0304)
 -->
<!-- Title: org.cobbzilla.util.io.JarTrimmer Pages: 1 -->
<!--zoomable 524 -->
<svg id="main" version="1.1" xmlns="http://www.w3.org/2000/svg" xmlns:xlink="http://www.w3.org/1999/xlink" xml:space="preserve" onload="init(evt)">
<style type="text/css"><![CDATA[
.edge:hover path { stroke: red; }
.edge:hover polygon { stroke: red; fill: red; }
]]></style>
<script type="text/javascript"><![CDATA[
var edges = document.getElementsByTagName('g');
if (edges && edges.length) {
  for (var i=0;i<edges.length;i++) {
    if (edges[i].id.substr(0,4)=='edge') {
      edges[i].setAttribute('class','edge');
    }
  }
}
]]></script>
        <defs>
                <circle id="rim" cx="0" cy="0" r="7"/>
                <circle id="rim2" cx="0" cy="0" r="3.5"/>
                <g id="zoomPlus">
                        <use xlink:href="#rim" fill="#404040">
                                <set attributeName="fill" to="#808080" begin="zoomplus.mouseover" end="zoomplus.mouseout"/>
                        </use>
                        <path d="M-4,0h8M0,-4v8" fill="none" stroke="white" stroke-width="1.5" pointer-events="none"/>
                </g>
                <g id="zoomMin">
                        <use xlink:href="#rim" fill="#404040">
                                <set attributeName="fill" to="#808080" begin="zoomminus.mouseover" end="zoomminus.mouseout"/>
                        </use>
                        <path d="M-4,0h8" fill="none" stroke="white" stroke-width="1.5" pointer-events="none"/>
                </g>
                <g id="dirArrow">
                        <path fill="none" stroke="white" stroke-width="1.5" d="M0,-3.0v7 M-2.5,-0.5L0,-3.0L2.5,-0.5"/>
                </g>
               <g id="resetDef">
                       <use xlink:href="#rim2" fill="#404040">
                               <set attributeName="fill" to="#808080" begin="reset.mouseover" end="reset.mouseout"/>
                       </use>
               </g>
        </defs>

<script type="text/javascript">
var viewWidth = 190;
var viewHeight = 524;
var sectionId = 'dynsection-0';
</script>
<script xlink:href="../../svgpan.js"/>
<svg id="graph" class="graph">
<g id="viewport">
<title>org.cobbzilla.util.io.JarTrimmer</title>
<!-- Node1 -->
<g id="node1" class="node">
<title>Node1</title>
<polygon fill="#bfbfbf" stroke="#000000" points="23,-.5 23,-112.5 137,-112.5 137,-.5 23,-.5"/>
<text text-anchor="start" x="31" y="-100.5" font-family="Helvetica,sans-Serif" font-size="10.00" fill="#000000">org.cobbzilla.util.io.Jar</text>
<text text-anchor="middle" x="80" y="-89.5" font-family="Helvetica,sans-Serif" font-size="10.00" fill="#000000">Trimmer</text>
<polyline fill="none" stroke="#000000" points="23,-82.5 137,-82.5 "/>
<text text-anchor="start" x="31" y="-70.5" font-family="Helvetica,sans-Serif" font-size="10.00" fill="#000000">+ CLASS_SUFFIX</text>
<polyline fill="none" stroke="#000000" points="23,-63.5 137,-63.5 "/>
<text text-anchor="start" x="31" y="-51.5" font-family="Helvetica,sans-Serif" font-size="10.00" fill="#000000">+ trim()</text>
<text text-anchor="start" x="31" y="-40.5" font-family="Helvetica,sans-Serif" font-size="10.00" fill="#000000"># toClassName()</text>
<text text-anchor="start" x="31" y="-29.5" font-family="Helvetica,sans-Serif" font-size="10.00" fill="#000000">&#45; shouldInclude()</text>
<text text-anchor="start" x="31" y="-18.5" font-family="Helvetica,sans-Serif" font-size="10.00" fill="#000000">&#45; processJar()</text>
<text text-anchor="start" x="31" y="-7.5" font-family="Helvetica,sans-Serif" font-size="10.00" fill="#000000">&#45; toPath()</text>
</g>
<!-- Node2 -->
<g id="node2" class="node">
<title>Node2</title>
<g id="a_node2"><a xlink:href="../../db/d63/classorg_1_1cobbzilla_1_1util_1_1io_1_1JarTrimmer_1_1IncludeCount.html" target="_top" xlink:title="{org.cobbzilla.util.io.Jar\lTrimmer.IncludeCount\n|&#45; count\l&#45; path\l|+ getTotalCount()\l+ IncludeCount()\l+ incr()\l+ getCounter()\l}">
<polygon fill="none" stroke="#000000" points="23,-160.5 23,-272.5 137,-272.5 137,-160.5 23,-160.5"/>
<text text-anchor="start" x="31" y="-260.5" font-family="Helvetica,sans-Serif" font-size="10.00" fill="#000000">org.cobbzilla.util.io.Jar</text>
<text text-anchor="middle" x="80" y="-249.5" font-family="Helvetica,sans-Serif" font-size="10.00" fill="#000000">Trimmer.IncludeCount</text>
<polyline fill="none" stroke="#000000" points="23,-242.5 137,-242.5 "/>
<text text-anchor="start" x="31" y="-230.5" font-family="Helvetica,sans-Serif" font-size="10.00" fill="#000000">&#45; count</text>
<text text-anchor="start" x="31" y="-219.5" font-family="Helvetica,sans-Serif" font-size="10.00" fill="#000000">&#45; path</text>
<polyline fill="none" stroke="#000000" points="23,-212.5 137,-212.5 "/>
<text text-anchor="start" x="31" y="-200.5" font-family="Helvetica,sans-Serif" font-size="10.00" fill="#000000">+ getTotalCount()</text>
<text text-anchor="start" x="31" y="-189.5" font-family="Helvetica,sans-Serif" font-size="10.00" fill="#000000">+ IncludeCount()</text>
<text text-anchor="start" x="31" y="-178.5" font-family="Helvetica,sans-Serif" font-size="10.00" fill="#000000">+ incr()</text>
<text text-anchor="start" x="31" y="-167.5" font-family="Helvetica,sans-Serif" font-size="10.00" fill="#000000">+ getCounter()</text>
</a>
</g>
</g>
<!-- Node2&#45;&gt;Node1 -->
<g id="edge1" class="edge">
<title>Node2&#45;&gt;Node1</title>
<path fill="none" stroke="#404040" d="M80,-160.09C80,-148.6714 80,-136.5488 80,-124.7726"/>
<polygon fill="none" stroke="#404040" points="80.0001,-124.6701 76,-118.6701 80,-112.6701 84,-118.6701 80.0001,-124.6701"/>
<text text-anchor="middle" x="99.5" y="-134" font-family="Helvetica,sans-Serif" font-size="10.00" fill="#000000"> &#45;counter</text>
</g>
<!-- Node3 -->
<g id="node3" class="node">
<title>Node3</title>
<polygon fill="none" stroke="#bfbfbf" points="0,-320.5 0,-388.5 160,-388.5 160,-320.5 0,-320.5"/>
<text text-anchor="start" x="8" y="-376.5" font-family="Helvetica,sans-Serif" font-size="10.00" fill="#000000">Map&lt; String, org.cobbzilla.util.io.</text>
<text text-anchor="middle" x="80" y="-365.5" font-family="Helvetica,sans-Serif" font-size="10.00" fill="#000000">JarTrimmer.IncludeCount &gt;</text>
<polyline fill="none" stroke="#bfbfbf" points="0,-358.5 160,-358.5 "/>
<text text-anchor="middle" x="80" y="-346.5" font-family="Helvetica,sans-Serif" font-size="10.00" fill="#000000"> </text>
<polyline fill="none" stroke="#bfbfbf" points="0,-339.5 160,-339.5 "/>
<text text-anchor="middle" x="80" y="-327.5" font-family="Helvetica,sans-Serif" font-size="10.00" fill="#000000"> </text>
</g>
<!-- Node3&#45;&gt;Node2 -->
<g id="edge2" class="edge">
<title>Node3&#45;&gt;Node2</title>
<path fill="none" stroke="#404040" d="M80,-320.3876C80,-309.5526 80,-297.1601 80,-284.7976"/>
<polygon fill="none" stroke="#404040" points="80.0001,-284.504 76,-278.504 80,-272.504 84,-278.5039 80.0001,-284.504"/>
<text text-anchor="middle" x="104" y="-294" font-family="Helvetica,sans-Serif" font-size="10.00" fill="#000000"> &#45;subPaths</text>
</g>
<!-- Node4 -->
<g id="node4" class="node">
<title>Node4</title>
<polygon fill="none" stroke="#bfbfbf" points="62.5,-458.5 62.5,-515.5 97.5,-515.5 97.5,-458.5 62.5,-458.5"/>
<text text-anchor="middle" x="80" y="-503.5" font-family="Helvetica,sans-Serif" font-size="10.00" fill="#000000">Map</text>
<polyline fill="none" stroke="#bfbfbf" points="62.5,-496.5 97.5,-496.5 "/>
<text text-anchor="middle" x="80" y="-484.5" font-family="Helvetica,sans-Serif" font-size="10.00" fill="#000000"> </text>
<polyline fill="none" stroke="#bfbfbf" points="62.5,-477.5 97.5,-477.5 "/>
<text text-anchor="middle" x="80" y="-465.5" font-family="Helvetica,sans-Serif" font-size="10.00" fill="#000000"> </text>
</g>
<!-- Node4&#45;&gt;Node3 -->
<g id="edge3" class="edge">
<title>Node4&#45;&gt;Node3</title>
<path fill="none" stroke="#ffa500" d="M80,-448.2195C80,-429.4117 80,-407.0145 80,-388.8321"/>
<polygon fill="#ffa500" stroke="#ffa500" points="76.5001,-448.2494 80,-458.2495 83.5001,-448.2495 76.5001,-448.2494"/>
<text text-anchor="start" x="80" y="-432" font-family="Helvetica,sans-Serif" font-size="10.00" fill="#000000"> &lt; String, org::cobbzilla</text>
<text text-anchor="start" x="80" y="-421" font-family="Helvetica,sans-Serif" font-size="10.00" fill="#000000">::util::io::JarTrimmer</text>
<text text-anchor="middle" x="131" y="-410" font-family="Helvetica,sans-Serif" font-size="10.00" fill="#000000">::IncludeCount &gt;</text>
</g>
</g>
</svg>
        <g id="navigator" transform="translate(0 0)" fill="#404254">
                <rect fill="#f2f5e9" fill-opacity="0.5" stroke="#606060" stroke-width=".5" x="0" y="0" width="60" height="60"/>
                <use id="zoomplus" xlink:href="#zoomPlus" x="17" y="9" onmousedown="handleZoom(evt,'in')"/>
                <use id="zoomminus" xlink:href="#zoomMin" x="42" y="9" onmousedown="handleZoom(evt,'out')"/>
                <use id="reset" xlink:href="#resetDef" x="30" y="36" onmousedown="handleReset()"/>
                <g id="arrowUp" xlink:href="#dirArrow" transform="translate(30 24)" onmousedown="handlePan(0,-1)">
                  <use xlink:href="#rim" fill="#404040">
                        <set attributeName="fill" to="#808080" begin="arrowUp.mouseover" end="arrowUp.mouseout"/>
                  </use>
                  <path fill="none" stroke="white" stroke-width="1.5" d="M0,-3.0v7 M-2.5,-0.5L0,-3.0L2.5,-0.5"/>
                </g>
                <g id="arrowRight" xlink:href="#dirArrow" transform="rotate(90) translate(36 -43)" onmousedown="handlePan(1,0)">
                  <use xlink:href="#rim" fill="#404040">
                        <set attributeName="fill" to="#808080" begin="arrowRight.mouseover" end="arrowRight.mouseout"/>
                  </use>
                  <path fill="none" stroke="white" stroke-width="1.5" d="M0,-3.0v7 M-2.5,-0.5L0,-3.0L2.5,-0.5"/>
                </g>
                <g id="arrowDown" xlink:href="#dirArrow" transform="rotate(180) translate(-30 -48)" onmousedown="handlePan(0,1)">
                  <use xlink:href="#rim" fill="#404040">
                        <set attributeName="fill" to="#808080" begin="arrowDown.mouseover" end="arrowDown.mouseout"/>
                  </use>
                  <path fill="none" stroke="white" stroke-width="1.5" d="M0,-3.0v7 M-2.5,-0.5L0,-3.0L2.5,-0.5"/>
                </g>
                <g id="arrowLeft" xlink:href="#dirArrow" transform="rotate(270) translate(-36 17)" onmousedown="handlePan(-1,0)">
                  <use xlink:href="#rim" fill="#404040">
                        <set attributeName="fill" to="#808080" begin="arrowLeft.mouseover" end="arrowLeft.mouseout"/>
                  </use>
                  <path fill="none" stroke="white" stroke-width="1.5" d="M0,-3.0v7 M-2.5,-0.5L0,-3.0L2.5,-0.5"/>
                </g>
        </g>
        <svg viewBox="0 0 15 15" width="100%" height="30px" preserveAspectRatio="xMaxYMin meet">
         <g id="arrow_out" transform="scale(0.3 0.3)">
          <a xlink:href="classorg_1_1cobbzilla_1_1util_1_1io_1_1JarTrimmer__coll__graph_org.svg" target="_base">
           <rect id="button" ry="5" rx="5" y="6" x="6" height="38" width="38"
                fill="#f2f5e9" fill-opacity="0.5" stroke="#606060" stroke-width="1.0"/>
           <path id="arrow"
             d="M 11.500037,31.436501 C 11.940474,20.09759 22.043105,11.32322 32.158766,21.979434 L 37.068811,17.246167 C 37.068811,17.246167 37.088388,32 37.088388,32 L 22.160133,31.978069 C 22.160133,31.978069 26.997745,27.140456 26.997745,27.140456 C 18.528582,18.264221 13.291696,25.230495 11.500037,31.436501 z"
             style="fill:#404040;"/>
          </a>
         </g>
        </svg>
</svg>
