<?xml version="1.0" encoding="UTF-8" standalone="no"?>
<!DOCTYPE svg PUBLIC "-//W3C//DTD SVG 1.1//EN"
 "http://www.w3.org/Graphics/SVG/1.1/DTD/svg11.dtd">
<!-- Generated by graphviz version 2.40.1 (20161225.0304)
 -->
<!-- Title: org.cobbzilla.util.io.FileSuffixFilter Pages: 1 -->
<svg width="124pt" height="171pt"
 viewBox="0.00 0.00 124.00 171.00" xmlns="http://www.w3.org/2000/svg" xmlns:xlink="http://www.w3.org/1999/xlink">
<g id="graph0" class="graph" transform="scale(1 1) rotate(0) translate(4 167)">
<title>org.cobbzilla.util.io.FileSuffixFilter</title>
<!-- Node0 -->
<g id="node1" class="node">
<title>Node0</title>
<polygon fill="#bfbfbf" stroke="#000000" points="0,-.5 0,-68.5 116,-68.5 116,-.5 0,-.5"/>
<text text-anchor="start" x="8" y="-56.5" font-family="Helvetica,sans-Serif" font-size="10.00" fill="#000000">org.cobbzilla.util.io.File</text>
<text text-anchor="middle" x="58" y="-45.5" font-family="Helvetica,sans-Serif" font-size="10.00" fill="#000000">SuffixFilter</text>
<polyline fill="none" stroke="#000000" points="0,-38.5 116,-38.5 "/>
<text text-anchor="start" x="8" y="-26.5" font-family="Helvetica,sans-Serif" font-size="10.00" fill="#000000">&#45; suffix</text>
<polyline fill="none" stroke="#000000" points="0,-19.5 116,-19.5 "/>
<text text-anchor="start" x="8" y="-7.5" font-family="Helvetica,sans-Serif" font-size="10.00" fill="#000000">+ accept()</text>
</g>
<!-- Node1 -->
<g id="node2" class="node">
<title>Node1</title>
<polygon fill="none" stroke="#bfbfbf" points="31,-105.5 31,-162.5 85,-162.5 85,-105.5 31,-105.5"/>
<text text-anchor="middle" x="58" y="-150.5" font-family="Helvetica,sans-Serif" font-size="10.00" fill="#000000">FileFilter</text>
<polyline fill="none" stroke="#bfbfbf" points="31,-143.5 85,-143.5 "/>
<text text-anchor="middle" x="58" y="-131.5" font-family="Helvetica,sans-Serif" font-size="10.00" fill="#000000"> </text>
<polyline fill="none" stroke="#bfbfbf" points="31,-124.5 85,-124.5 "/>
<text text-anchor="middle" x="58" y="-112.5" font-family="Helvetica,sans-Serif" font-size="10.00" fill="#000000"> </text>
</g>
<!-- Node1&#45;&gt;Node0 -->
<g id="edge1" class="edge">
<title>Node1&#45;&gt;Node0</title>
<path fill="none" stroke="#191970" d="M58,-95.4268C58,-86.6025 58,-77.2834 58,-68.6596"/>
<polygon fill="none" stroke="#191970" points="54.5001,-95.4873 58,-105.4873 61.5001,-95.4873 54.5001,-95.4873"/>
</g>
</g>
</svg>
