<?xml version="1.0" encoding="UTF-8" standalone="no"?>
<!DOCTYPE svg PUBLIC "-//W3C//DTD SVG 1.1//EN"
 "http://www.w3.org/Graphics/SVG/1.1/DTD/svg11.dtd">
<!-- Generated by graphviz version 2.40.1 (20161225.0304)
 -->
<!-- Title: org.cobbzilla.util.jdbc.DbUrlUtil Pages: 1 -->
<svg width="167pt" height="182pt"
 viewBox="0.00 0.00 166.50 182.00" xmlns="http://www.w3.org/2000/svg" xmlns:xlink="http://www.w3.org/1999/xlink">
<g id="graph0" class="graph" transform="scale(1 1) rotate(0) translate(4 178)">
<title>org.cobbzilla.util.jdbc.DbUrlUtil</title>
<!-- Node1 -->
<g id="node1" class="node">
<title>Node1</title>
<polygon fill="#bfbfbf" stroke="#000000" points="0,-.5 0,-68.5 111,-68.5 111,-.5 0,-.5"/>
<text text-anchor="start" x="8" y="-56.5" font-family="Helvetica,sans-Serif" font-size="10.00" fill="#000000">org.cobbzilla.util.jdbc.</text>
<text text-anchor="middle" x="55.5" y="-45.5" font-family="Helvetica,sans-Serif" font-size="10.00" fill="#000000">DbUrlUtil</text>
<polyline fill="none" stroke="#000000" points="0,-38.5 111,-38.5 "/>
<text text-anchor="middle" x="55.5" y="-26.5" font-family="Helvetica,sans-Serif" font-size="10.00" fill="#000000"> </text>
<polyline fill="none" stroke="#000000" points="0,-19.5 111,-19.5 "/>
<text text-anchor="start" x="8" y="-7.5" font-family="Helvetica,sans-Serif" font-size="10.00" fill="#000000">+ setDbName()</text>
</g>
<!-- Node2 -->
<g id="node2" class="node">
<title>Node2</title>
<polygon fill="none" stroke="#bfbfbf" points="31.5,-116.5 31.5,-173.5 79.5,-173.5 79.5,-116.5 31.5,-116.5"/>
<text text-anchor="middle" x="55.5" y="-161.5" font-family="Helvetica,sans-Serif" font-size="10.00" fill="#000000">Pattern</text>
<polyline fill="none" stroke="#bfbfbf" points="31.5,-154.5 79.5,-154.5 "/>
<text text-anchor="middle" x="55.5" y="-142.5" font-family="Helvetica,sans-Serif" font-size="10.00" fill="#000000"> </text>
<polyline fill="none" stroke="#bfbfbf" points="31.5,-135.5 79.5,-135.5 "/>
<text text-anchor="middle" x="55.5" y="-123.5" font-family="Helvetica,sans-Serif" font-size="10.00" fill="#000000"> </text>
</g>
<!-- Node2&#45;&gt;Node1 -->
<g id="edge1" class="edge">
<title>Node2&#45;&gt;Node1</title>
<path fill="none" stroke="#404040" d="M55.5,-116.2559C55.5,-105.4349 55.5,-92.8362 55.5,-80.8169"/>
<polygon fill="none" stroke="#404040" points="55.5001,-80.6001 51.5,-74.6001 55.5,-68.6001 59.5,-74.6 55.5001,-80.6001"/>
<text text-anchor="middle" x="107" y="-90" font-family="Helvetica,sans-Serif" font-size="10.00" fill="#000000"> +JDBC_URL_REGEX</text>
</g>
</g>
</svg>
