<?xml version="1.0" encoding="UTF-8" standalone="no"?>
<!DOCTYPE svg PUBLIC "-//W3C//DTD SVG 1.1//EN"
 "http://www.w3.org/Graphics/SVG/1.1/DTD/svg11.dtd">
<!-- Generated by graphviz version 2.40.1 (20161225.0304)
 -->
<!-- Title: org.cobbzilla.util.collection.ArrayUtil.append Pages: 1 -->
<svg width="327pt" height="88pt"
 viewBox="0.00 0.00 327.00 88.00" xmlns="http://www.w3.org/2000/svg" xmlns:xlink="http://www.w3.org/1999/xlink">
<g id="graph0" class="graph" transform="scale(1 1) rotate(0) translate(4 84)">
<title>org.cobbzilla.util.collection.ArrayUtil.append</title>
<!-- Node1 -->
<g id="node1" class="node">
<title>Node1</title>
<polygon fill="#bfbfbf" stroke="#000000" points="0,-24.5 0,-54.5 134,-54.5 134,-24.5 0,-24.5"/>
<text text-anchor="start" x="8" y="-42.5" font-family="Helvetica,sans-Serif" font-size="10.00" fill="#000000">org.cobbzilla.util.collection.</text>
<text text-anchor="middle" x="67" y="-31.5" font-family="Helvetica,sans-Serif" font-size="10.00" fill="#000000">ArrayUtil.append</text>
</g>
<!-- Node2 -->
<g id="node2" class="node">
<title>Node2</title>
<g id="a_node2"><a xlink:href="../../d3/ded/classorg_1_1cobbzilla_1_1util_1_1io_1_1JarTrimmerConfig_a6940a7223b53711125ad3a0b1547aba0.html#a6940a7223b53711125ad3a0b1547aba0" target="_top" xlink:title="org.cobbzilla.util.io.Jar\lTrimmerConfig.requireClasses">
<polygon fill="none" stroke="#000000" points="170,-49.5 170,-79.5 319,-79.5 319,-49.5 170,-49.5"/>
<text text-anchor="start" x="178" y="-67.5" font-family="Helvetica,sans-Serif" font-size="10.00" fill="#000000">org.cobbzilla.util.io.Jar</text>
<text text-anchor="middle" x="244.5" y="-56.5" font-family="Helvetica,sans-Serif" font-size="10.00" fill="#000000">TrimmerConfig.requireClasses</text>
</a>
</g>
</g>
<!-- Node1&#45;&gt;Node2 -->
<g id="edge1" class="edge">
<title>Node1&#45;&gt;Node2</title>
<path fill="none" stroke="#191970" d="M144.0693,-50.3548C152.6317,-51.5608 161.3417,-52.7876 169.873,-53.9892"/>
<polygon fill="#191970" stroke="#191970" points="144.4956,-46.8804 134.1051,-48.9514 143.5192,-53.812 144.4956,-46.8804"/>
</g>
<!-- Node3 -->
<g id="node3" class="node">
<title>Node3</title>
<g id="a_node3"><a xlink:href="../../d3/ded/classorg_1_1cobbzilla_1_1util_1_1io_1_1JarTrimmerConfig_a2071f6ce21b4ae671d3d995215b96152.html#a2071f6ce21b4ae671d3d995215b96152" target="_top" xlink:title="org.cobbzilla.util.io.Jar\lTrimmerConfig.requirePrefix">
<polygon fill="none" stroke="#000000" points="175,-.5 175,-30.5 314,-30.5 314,-.5 175,-.5"/>
<text text-anchor="start" x="183" y="-18.5" font-family="Helvetica,sans-Serif" font-size="10.00" fill="#000000">org.cobbzilla.util.io.Jar</text>
<text text-anchor="middle" x="244.5" y="-7.5" font-family="Helvetica,sans-Serif" font-size="10.00" fill="#000000">TrimmerConfig.requirePrefix</text>
</a>
</g>
</g>
<!-- Node1&#45;&gt;Node3 -->
<g id="edge2" class="edge">
<title>Node1&#45;&gt;Node3</title>
<path fill="none" stroke="#191970" d="M144.2289,-29.0578C154.4421,-27.6768 164.8624,-26.2679 174.9363,-24.9058"/>
<polygon fill="#191970" stroke="#191970" points="143.546,-25.6182 134.1051,-30.4266 144.484,-32.5551 143.546,-25.6182"/>
</g>
</g>
</svg>
