<?xml version="1.0" encoding="UTF-8" standalone="no"?>
<!DOCTYPE svg PUBLIC "-//W3C//DTD SVG 1.1//EN"
 "http://www.w3.org/Graphics/SVG/1.1/DTD/svg11.dtd">
<!-- Generated by graphviz version 2.40.1 (20161225.0304)
 -->
<!-- Title: org.cobbzilla.util.collection.ArrayUtil.arrayToString Pages: 1 -->
<svg width="312pt" height="106pt"
 viewBox="0.00 0.00 312.00 106.00" xmlns="http://www.w3.org/2000/svg" xmlns:xlink="http://www.w3.org/1999/xlink">
<g id="graph0" class="graph" transform="scale(1 1) rotate(0) translate(4 102)">
<title>org.cobbzilla.util.collection.ArrayUtil.arrayToString</title>
<!-- Node0 -->
<g id="node1" class="node">
<title>Node0</title>
<polygon fill="#bfbfbf" stroke="#000000" points="0,-33.5 0,-63.5 134,-63.5 134,-33.5 0,-33.5"/>
<text text-anchor="start" x="8" y="-51.5" font-family="Helvetica,sans-Serif" font-size="10.00" fill="#000000">org.cobbzilla.util.collection.</text>
<text text-anchor="middle" x="67" y="-40.5" font-family="Helvetica,sans-Serif" font-size="10.00" fill="#000000">ArrayUtil.arrayToString</text>
</g>
<!-- Node1 -->
<g id="node2" class="node">
<title>Node1</title>
<g id="a_node2"><a xlink:href="../../d5/df3/classorg_1_1cobbzilla_1_1util_1_1collection_1_1ArrayUtil_a1df151917b01a81ee914991966ea594a.html#a1df151917b01a81ee914991966ea594a" target="_top" xlink:title="Produce a delimited string from an array. ">
<polygon fill="none" stroke="#000000" points="170,-67.5 170,-97.5 304,-97.5 304,-67.5 170,-67.5"/>
<text text-anchor="start" x="178" y="-85.5" font-family="Helvetica,sans-Serif" font-size="10.00" fill="#000000">org.cobbzilla.util.collection.</text>
<text text-anchor="middle" x="237" y="-74.5" font-family="Helvetica,sans-Serif" font-size="10.00" fill="#000000">ArrayUtil.arrayToString</text>
</a>
</g>
</g>
<!-- Node0&#45;&gt;Node1 -->
<g id="edge1" class="edge">
<title>Node0&#45;&gt;Node1</title>
<path fill="none" stroke="#191970" d="M134.1885,-61.9377C142.5935,-63.6187 151.2417,-65.3483 159.7842,-67.0568"/>
<polygon fill="#191970" stroke="#191970" points="159.2506,-70.5194 169.7428,-69.0486 160.6235,-63.6553 159.2506,-70.5194"/>
</g>
<!-- Node2 -->
<g id="node3" class="node">
<title>Node2</title>
<g id="a_node3"><a xlink:href="../../db/d9f/classorg_1_1cobbzilla_1_1util_1_1string_1_1StringUtil_a7241ffa301b092ebc9118059204827b0.html#a7241ffa301b092ebc9118059204827b0" target="_top" xlink:title="org.cobbzilla.util.string.\lStringUtil.toString">
<polygon fill="none" stroke="#000000" points="178.5,-.5 178.5,-30.5 295.5,-30.5 295.5,-.5 178.5,-.5"/>
<text text-anchor="start" x="186.5" y="-18.5" font-family="Helvetica,sans-Serif" font-size="10.00" fill="#000000">org.cobbzilla.util.string.</text>
<text text-anchor="middle" x="237" y="-7.5" font-family="Helvetica,sans-Serif" font-size="10.00" fill="#000000">StringUtil.toString</text>
</a>
</g>
</g>
<!-- Node0&#45;&gt;Node2 -->
<g id="edge2" class="edge">
<title>Node0&#45;&gt;Node2</title>
<path fill="none" stroke="#191970" d="M134.1885,-35.4575C145.3444,-33.292 156.9288,-31.0432 168.1257,-28.8697"/>
<polygon fill="#191970" stroke="#191970" points="169.1264,-32.2409 178.2762,-26.8993 167.7925,-25.3691 169.1264,-32.2409"/>
</g>
<!-- Node2&#45;&gt;Node2 -->
<g id="edge3" class="edge">
<title>Node2&#45;&gt;Node2</title>
<path fill="none" stroke="#191970" d="M207.374,-30.659C200.2301,-40.0566 210.1055,-49 237,-49 253.3889,-49 263.4578,-45.679 267.2069,-40.9579"/>
<polygon fill="#191970" stroke="#191970" points="270.6837,-40.446 266.626,-30.659 263.6948,-40.8403 270.6837,-40.446"/>
</g>
</g>
</svg>
