<?xml version="1.0" encoding="UTF-8" standalone="no"?>
<!DOCTYPE svg PUBLIC "-//W3C//DTD SVG 1.1//EN"
 "http://www.w3.org/Graphics/SVG/1.1/DTD/svg11.dtd">
<!-- Generated by graphviz version 2.40.1 (20161225.0304)
 -->
<!-- Title: org.cobbzilla.util.xml.XPathUtil Pages: 1 -->
<svg width="163pt" height="408pt"
 viewBox="0.00 0.00 162.50 408.00" xmlns="http://www.w3.org/2000/svg" xmlns:xlink="http://www.w3.org/1999/xlink">
<g id="graph0" class="graph" transform="scale(1 1) rotate(0) translate(4 404)">
<title>org.cobbzilla.util.xml.XPathUtil</title>
<!-- Node1 -->
<g id="node1" class="node">
<title>Node1</title>
<polygon fill="#bfbfbf" stroke="#000000" points="0,-.5 0,-189.5 151,-189.5 151,-.5 0,-.5"/>
<text text-anchor="middle" x="75.5" y="-177.5" font-family="Helvetica,sans-Serif" font-size="10.00" fill="#000000">org.cobbzilla.util.xml.XPathUtil</text>
<polyline fill="none" stroke="#000000" points="0,-170.5 151,-170.5 "/>
<text text-anchor="start" x="8" y="-158.5" font-family="Helvetica,sans-Serif" font-size="10.00" fill="#000000">+ DOC_ROOT_XPATH</text>
<text text-anchor="start" x="8" y="-147.5" font-family="Helvetica,sans-Serif" font-size="10.00" fill="#000000">&#45; useTidy</text>
<polyline fill="none" stroke="#000000" points="0,-140.5 151,-140.5 "/>
<text text-anchor="start" x="8" y="-128.5" font-family="Helvetica,sans-Serif" font-size="10.00" fill="#000000">+ XPathUtil()</text>
<text text-anchor="start" x="8" y="-117.5" font-family="Helvetica,sans-Serif" font-size="10.00" fill="#000000">+ XPathUtil()</text>
<text text-anchor="start" x="8" y="-106.5" font-family="Helvetica,sans-Serif" font-size="10.00" fill="#000000">+ XPathUtil()</text>
<text text-anchor="start" x="8" y="-95.5" font-family="Helvetica,sans-Serif" font-size="10.00" fill="#000000">+ XPathUtil()</text>
<text text-anchor="start" x="8" y="-84.5" font-family="Helvetica,sans-Serif" font-size="10.00" fill="#000000">+ XPathUtil()</text>
<text text-anchor="start" x="8" y="-73.5" font-family="Helvetica,sans-Serif" font-size="10.00" fill="#000000">+ XPathUtil()</text>
<text text-anchor="start" x="8" y="-62.5" font-family="Helvetica,sans-Serif" font-size="10.00" fill="#000000">+ getFirstMatchList()</text>
<text text-anchor="start" x="8" y="-51.5" font-family="Helvetica,sans-Serif" font-size="10.00" fill="#000000">+ getFirstMatchList()</text>
<text text-anchor="start" x="8" y="-40.5" font-family="Helvetica,sans-Serif" font-size="10.00" fill="#000000">+ getFirstMatchMap()</text>
<text text-anchor="start" x="8" y="-29.5" font-family="Helvetica,sans-Serif" font-size="10.00" fill="#000000">+ getFirstMatch()</text>
<text text-anchor="start" x="8" y="-18.5" font-family="Helvetica,sans-Serif" font-size="10.00" fill="#000000">and 8 more...</text>
<text text-anchor="start" x="8" y="-7.5" font-family="Helvetica,sans-Serif" font-size="10.00" fill="#000000">+ isTextNode()</text>
</g>
<!-- Node2 -->
<g id="node2" class="node">
<title>Node2</title>
<polygon fill="none" stroke="#bfbfbf" points="23.5,-237.5 23.5,-294.5 127.5,-294.5 127.5,-237.5 23.5,-237.5"/>
<text text-anchor="middle" x="75.5" y="-282.5" font-family="Helvetica,sans-Serif" font-size="10.00" fill="#000000">Collection&lt; String &gt;</text>
<polyline fill="none" stroke="#bfbfbf" points="23.5,-275.5 127.5,-275.5 "/>
<text text-anchor="middle" x="75.5" y="-263.5" font-family="Helvetica,sans-Serif" font-size="10.00" fill="#000000"> </text>
<polyline fill="none" stroke="#bfbfbf" points="23.5,-256.5 127.5,-256.5 "/>
<text text-anchor="middle" x="75.5" y="-244.5" font-family="Helvetica,sans-Serif" font-size="10.00" fill="#000000"> </text>
</g>
<!-- Node2&#45;&gt;Node1 -->
<g id="edge1" class="edge">
<title>Node2&#45;&gt;Node1</title>
<path fill="none" stroke="#404040" d="M75.5,-237.3784C75.5,-227.1146 75.5,-214.8493 75.5,-201.8829"/>
<polygon fill="none" stroke="#404040" points="75.5001,-201.8152 71.5,-195.8152 75.5,-189.8152 79.5,-195.8152 75.5001,-201.8152"/>
<text text-anchor="middle" x="115" y="-211" font-family="Helvetica,sans-Serif" font-size="10.00" fill="#000000"> &#45;pathExpressions</text>
</g>
<!-- Node3 -->
<g id="node3" class="node">
<title>Node3</title>
<polygon fill="none" stroke="#bfbfbf" points="45.5,-342.5 45.5,-399.5 105.5,-399.5 105.5,-342.5 45.5,-342.5"/>
<text text-anchor="middle" x="75.5" y="-387.5" font-family="Helvetica,sans-Serif" font-size="10.00" fill="#000000">Collection</text>
<polyline fill="none" stroke="#bfbfbf" points="45.5,-380.5 105.5,-380.5 "/>
<text text-anchor="middle" x="75.5" y="-368.5" font-family="Helvetica,sans-Serif" font-size="10.00" fill="#000000"> </text>
<polyline fill="none" stroke="#bfbfbf" points="45.5,-361.5 105.5,-361.5 "/>
<text text-anchor="middle" x="75.5" y="-349.5" font-family="Helvetica,sans-Serif" font-size="10.00" fill="#000000"> </text>
</g>
<!-- Node3&#45;&gt;Node2 -->
<g id="edge2" class="edge">
<title>Node3&#45;&gt;Node2</title>
<path fill="none" stroke="#ffa500" d="M75.5,-332.192C75.5,-319.7605 75.5,-306.2278 75.5,-294.657"/>
<polygon fill="#ffa500" stroke="#ffa500" points="72.0001,-332.3083 75.5,-342.3083 79.0001,-332.3083 72.0001,-332.3083"/>
<text text-anchor="middle" x="99" y="-316" font-family="Helvetica,sans-Serif" font-size="10.00" fill="#000000"> &lt; String &gt;</text>
</g>
</g>
</svg>
