<?xml version="1.0" encoding="UTF-8" standalone="no"?>
<!DOCTYPE svg PUBLIC "-//W3C//DTD SVG 1.1//EN"
 "http://www.w3.org/Graphics/SVG/1.1/DTD/svg11.dtd">
<!-- Generated by graphviz version 2.40.1 (20161225.0304)
 -->
<!-- Title: org.cobbzilla.util.xml.XmlUtil.MatchNodeSubElements Pages: 1 -->
<svg width="302pt" height="574pt"
 viewBox="0.00 0.00 302.00 574.00" xmlns="http://www.w3.org/2000/svg" xmlns:xlink="http://www.w3.org/1999/xlink">
<g id="graph0" class="graph" transform="scale(1 1) rotate(0) translate(4 570)">
<title>org.cobbzilla.util.xml.XmlUtil.MatchNodeSubElements</title>
<!-- Node4 -->
<g id="node1" class="node">
<title>Node4</title>
<polygon fill="#bfbfbf" stroke="#000000" points="74.5,-.5 74.5,-79.5 217.5,-79.5 217.5,-.5 74.5,-.5"/>
<text text-anchor="start" x="82.5" y="-67.5" font-family="Helvetica,sans-Serif" font-size="10.00" fill="#000000">org.cobbzilla.util.xml.Xml</text>
<text text-anchor="middle" x="146" y="-56.5" font-family="Helvetica,sans-Serif" font-size="10.00" fill="#000000">Util.MatchNodeSubElements</text>
<polyline fill="none" stroke="#000000" points="74.5,-49.5 217.5,-49.5 "/>
<text text-anchor="middle" x="146" y="-37.5" font-family="Helvetica,sans-Serif" font-size="10.00" fill="#000000"> </text>
<polyline fill="none" stroke="#000000" points="74.5,-30.5 217.5,-30.5 "/>
<text text-anchor="start" x="82.5" y="-18.5" font-family="Helvetica,sans-Serif" font-size="10.00" fill="#000000">+ MatchNodeSubElements()</text>
<text text-anchor="start" x="82.5" y="-7.5" font-family="Helvetica,sans-Serif" font-size="10.00" fill="#000000"># check()</text>
</g>
<!-- Node5 -->
<g id="node2" class="node">
<title>Node5</title>
<g id="a_node2"><a xlink:href="../../df/d83/classorg_1_1cobbzilla_1_1util_1_1xml_1_1XmlUtil_1_1MatchNodeName.html" target="_top" xlink:title="{org.cobbzilla.util.xml.Xml\lUtil.MatchNodeName\n||+ MatchNodeName()\l# check()\l}">
<polygon fill="none" stroke="#000000" points="16,-127.5 16,-206.5 142,-206.5 142,-127.5 16,-127.5"/>
<text text-anchor="start" x="24" y="-194.5" font-family="Helvetica,sans-Serif" font-size="10.00" fill="#000000">org.cobbzilla.util.xml.Xml</text>
<text text-anchor="middle" x="79" y="-183.5" font-family="Helvetica,sans-Serif" font-size="10.00" fill="#000000">Util.MatchNodeName</text>
<polyline fill="none" stroke="#000000" points="16,-176.5 142,-176.5 "/>
<text text-anchor="middle" x="79" y="-164.5" font-family="Helvetica,sans-Serif" font-size="10.00" fill="#000000"> </text>
<polyline fill="none" stroke="#000000" points="16,-157.5 142,-157.5 "/>
<text text-anchor="start" x="24" y="-145.5" font-family="Helvetica,sans-Serif" font-size="10.00" fill="#000000">+ MatchNodeName()</text>
<text text-anchor="start" x="24" y="-134.5" font-family="Helvetica,sans-Serif" font-size="10.00" fill="#000000"># check()</text>
</a>
</g>
</g>
<!-- Node5&#45;&gt;Node4 -->
<g id="edge1" class="edge">
<title>Node5&#45;&gt;Node4</title>
<path fill="none" stroke="#191970" d="M104.8024,-118.0911C111.5046,-105.3868 118.6414,-91.8588 125.0592,-79.6938"/>
<polygon fill="none" stroke="#191970" points="101.5859,-116.6871 100.0154,-127.1649 107.7771,-119.9533 101.5859,-116.6871"/>
</g>
<!-- Node6 -->
<g id="node3" class="node">
<title>Node6</title>
<g id="a_node3"><a xlink:href="../../de/dc6/classorg_1_1cobbzilla_1_1util_1_1xml_1_1XmlUtil_1_1MatchNodeXMLFunction.html" target="_top" xlink:title="{org.cobbzilla.util.xml.Xml\lUtil.MatchNodeXMLFunction\n|# value\l|+ MatchNodeXMLFunction()\l+ apply()\l# check()\l}">
<polygon fill="none" stroke="#000000" points="7.5,-254.5 7.5,-344.5 150.5,-344.5 150.5,-254.5 7.5,-254.5"/>
<text text-anchor="start" x="15.5" y="-332.5" font-family="Helvetica,sans-Serif" font-size="10.00" fill="#000000">org.cobbzilla.util.xml.Xml</text>
<text text-anchor="middle" x="79" y="-321.5" font-family="Helvetica,sans-Serif" font-size="10.00" fill="#000000">Util.MatchNodeXMLFunction</text>
<polyline fill="none" stroke="#000000" points="7.5,-314.5 150.5,-314.5 "/>
<text text-anchor="start" x="15.5" y="-302.5" font-family="Helvetica,sans-Serif" font-size="10.00" fill="#000000"># value</text>
<polyline fill="none" stroke="#000000" points="7.5,-295.5 150.5,-295.5 "/>
<text text-anchor="start" x="15.5" y="-283.5" font-family="Helvetica,sans-Serif" font-size="10.00" fill="#000000">+ MatchNodeXMLFunction()</text>
<text text-anchor="start" x="15.5" y="-272.5" font-family="Helvetica,sans-Serif" font-size="10.00" fill="#000000">+ apply()</text>
<text text-anchor="start" x="15.5" y="-261.5" font-family="Helvetica,sans-Serif" font-size="10.00" fill="#000000"># check()</text>
</a>
</g>
</g>
<!-- Node6&#45;&gt;Node5 -->
<g id="edge2" class="edge">
<title>Node6&#45;&gt;Node5</title>
<path fill="none" stroke="#191970" d="M79,-243.9331C79,-231.4312 79,-218.408 79,-206.7081"/>
<polygon fill="none" stroke="#191970" points="75.5001,-244.2716 79,-254.2716 82.5001,-244.2716 75.5001,-244.2716"/>
</g>
<!-- Node7 -->
<g id="node4" class="node">
<title>Node7</title>
<g id="a_node4"><a xlink:href="../../d8/dba/interfaceorg_1_1cobbzilla_1_1util_1_1xml_1_1XmlElementFunction.html" target="_top" xlink:title="{org.cobbzilla.util.xml.Xml\lElementFunction\n||+ apply()\l}">
<polygon fill="none" stroke="#000000" points="0,-392.5 0,-460.5 126,-460.5 126,-392.5 0,-392.5"/>
<text text-anchor="start" x="8" y="-448.5" font-family="Helvetica,sans-Serif" font-size="10.00" fill="#000000">org.cobbzilla.util.xml.Xml</text>
<text text-anchor="middle" x="63" y="-437.5" font-family="Helvetica,sans-Serif" font-size="10.00" fill="#000000">ElementFunction</text>
<polyline fill="none" stroke="#000000" points="0,-430.5 126,-430.5 "/>
<text text-anchor="middle" x="63" y="-418.5" font-family="Helvetica,sans-Serif" font-size="10.00" fill="#000000"> </text>
<polyline fill="none" stroke="#000000" points="0,-411.5 126,-411.5 "/>
<text text-anchor="start" x="8" y="-399.5" font-family="Helvetica,sans-Serif" font-size="10.00" fill="#000000">+ apply()</text>
</a>
</g>
</g>
<!-- Node7&#45;&gt;Node6 -->
<g id="edge3" class="edge">
<title>Node7&#45;&gt;Node6</title>
<path fill="none" stroke="#191970" d="M68.5458,-382.4801C70.0881,-370.2379 71.7652,-356.9262 73.3154,-344.6219"/>
<polygon fill="none" stroke="#191970" points="65.0652,-382.1072 67.2877,-392.4663 72.0103,-382.9823 65.0652,-382.1072"/>
</g>
<!-- Node8 -->
<g id="node5" class="node">
<title>Node8</title>
<polygon fill="none" stroke="#bfbfbf" points="144,-398 144,-455 230,-455 230,-398 144,-398"/>
<text text-anchor="middle" x="187" y="-443" font-family="Helvetica,sans-Serif" font-size="10.00" fill="#000000">List&lt; Element &gt;</text>
<polyline fill="none" stroke="#bfbfbf" points="144,-436 230,-436 "/>
<text text-anchor="middle" x="187" y="-424" font-family="Helvetica,sans-Serif" font-size="10.00" fill="#000000"> </text>
<polyline fill="none" stroke="#bfbfbf" points="144,-417 230,-417 "/>
<text text-anchor="middle" x="187" y="-405" font-family="Helvetica,sans-Serif" font-size="10.00" fill="#000000"> </text>
</g>
<!-- Node8&#45;&gt;Node6 -->
<g id="edge4" class="edge">
<title>Node8&#45;&gt;Node6</title>
<path fill="none" stroke="#404040" d="M162.7627,-397.9987C151.7412,-385.0383 138.3142,-369.2491 125.4673,-354.1421"/>
<polygon fill="none" stroke="#404040" points="125.3439,-353.9969 118.4097,-352.0175 117.57,-344.8554 124.5041,-346.8349 125.3439,-353.9969"/>
<text text-anchor="middle" x="156.5" y="-366" font-family="Helvetica,sans-Serif" font-size="10.00" fill="#000000"> #found</text>
</g>
<!-- Node9 -->
<g id="node6" class="node">
<title>Node9</title>
<polygon fill="none" stroke="#bfbfbf" points="171,-508.5 171,-565.5 203,-565.5 203,-508.5 171,-508.5"/>
<text text-anchor="middle" x="187" y="-553.5" font-family="Helvetica,sans-Serif" font-size="10.00" fill="#000000">List</text>
<polyline fill="none" stroke="#bfbfbf" points="171,-546.5 203,-546.5 "/>
<text text-anchor="middle" x="187" y="-534.5" font-family="Helvetica,sans-Serif" font-size="10.00" fill="#000000"> </text>
<polyline fill="none" stroke="#bfbfbf" points="171,-527.5 203,-527.5 "/>
<text text-anchor="middle" x="187" y="-515.5" font-family="Helvetica,sans-Serif" font-size="10.00" fill="#000000"> </text>
</g>
<!-- Node9&#45;&gt;Node8 -->
<g id="edge5" class="edge">
<title>Node9&#45;&gt;Node8</title>
<path fill="none" stroke="#ffa500" d="M187,-497.845C187,-483.7511 187,-468.1262 187,-455.1002"/>
<polygon fill="#ffa500" stroke="#ffa500" points="183.5001,-498.2559 187,-508.2559 190.5001,-498.2559 183.5001,-498.2559"/>
<text text-anchor="middle" x="216" y="-482" font-family="Helvetica,sans-Serif" font-size="10.00" fill="#000000"> &lt; Element &gt;</text>
</g>
<!-- Node10 -->
<g id="node7" class="node">
<title>Node10</title>
<polygon fill="none" stroke="#bfbfbf" points="160,-138.5 160,-195.5 270,-195.5 270,-138.5 160,-138.5"/>
<text text-anchor="middle" x="215" y="-183.5" font-family="Helvetica,sans-Serif" font-size="10.00" fill="#000000">Map&lt; String, String &gt;</text>
<polyline fill="none" stroke="#bfbfbf" points="160,-176.5 270,-176.5 "/>
<text text-anchor="middle" x="215" y="-164.5" font-family="Helvetica,sans-Serif" font-size="10.00" fill="#000000"> </text>
<polyline fill="none" stroke="#bfbfbf" points="160,-157.5 270,-157.5 "/>
<text text-anchor="middle" x="215" y="-145.5" font-family="Helvetica,sans-Serif" font-size="10.00" fill="#000000"> </text>
</g>
<!-- Node10&#45;&gt;Node4 -->
<g id="edge6" class="edge">
<title>Node10&#45;&gt;Node4</title>
<path fill="none" stroke="#404040" d="M199.5151,-138.4987C191.8962,-124.4756 182.478,-107.1408 173.677,-90.9417"/>
<polygon fill="none" stroke="#404040" points="173.441,-90.5073 167.0618,-87.1447 167.7122,-79.963 174.0913,-83.3255 173.441,-90.5073"/>
<text text-anchor="middle" x="208.5" y="-101" font-family="Helvetica,sans-Serif" font-size="10.00" fill="#000000"> &#45;conditions</text>
</g>
<!-- Node11 -->
<g id="node8" class="node">
<title>Node11</title>
<polygon fill="none" stroke="#bfbfbf" points="197.5,-271 197.5,-328 232.5,-328 232.5,-271 197.5,-271"/>
<text text-anchor="middle" x="215" y="-316" font-family="Helvetica,sans-Serif" font-size="10.00" fill="#000000">Map</text>
<polyline fill="none" stroke="#bfbfbf" points="197.5,-309 232.5,-309 "/>
<text text-anchor="middle" x="215" y="-297" font-family="Helvetica,sans-Serif" font-size="10.00" fill="#000000"> </text>
<polyline fill="none" stroke="#bfbfbf" points="197.5,-290 232.5,-290 "/>
<text text-anchor="middle" x="215" y="-278" font-family="Helvetica,sans-Serif" font-size="10.00" fill="#000000"> </text>
</g>
<!-- Node11&#45;&gt;Node10 -->
<g id="edge7" class="edge">
<title>Node11&#45;&gt;Node10</title>
<path fill="none" stroke="#ffa500" d="M215,-260.6376C215,-239.8494 215,-214.6948 215,-195.6944"/>
<polygon fill="#ffa500" stroke="#ffa500" points="211.5001,-260.7494 215,-270.7495 218.5001,-260.7495 211.5001,-260.7494"/>
<text text-anchor="middle" x="254.5" y="-228" font-family="Helvetica,sans-Serif" font-size="10.00" fill="#000000"> &lt; String, String &gt;</text>
</g>
</g>
</svg>
