<?xml version="1.0" encoding="UTF-8" standalone="no"?>
<!DOCTYPE svg PUBLIC "-//W3C//DTD SVG 1.1//EN"
 "http://www.w3.org/Graphics/SVG/1.1/DTD/svg11.dtd">
<!-- Generated by graphviz version 2.40.1 (20161225.0304)
 -->
<!-- Title: org.cobbzilla.util.system.CommandProgressFilter Pages: 1 -->
<!--zoomable 375 -->
<svg id="main" version="1.1" xmlns="http://www.w3.org/2000/svg" xmlns:xlink="http://www.w3.org/1999/xlink" xml:space="preserve" onload="init(evt)">
<style type="text/css"><![CDATA[
.edge:hover path { stroke: red; }
.edge:hover polygon { stroke: red; fill: red; }
]]></style>
<script type="text/javascript"><![CDATA[
var edges = document.getElementsByTagName('g');
if (edges && edges.length) {
  for (var i=0;i<edges.length;i++) {
    if (edges[i].id.substr(0,4)=='edge') {
      edges[i].setAttribute('class','edge');
    }
  }
}
]]></script>
        <defs>
                <circle id="rim" cx="0" cy="0" r="7"/>
                <circle id="rim2" cx="0" cy="0" r="3.5"/>
                <g id="zoomPlus">
                        <use xlink:href="#rim" fill="#404040">
                                <set attributeName="fill" to="#808080" begin="zoomplus.mouseover" end="zoomplus.mouseout"/>
                        </use>
                        <path d="M-4,0h8M0,-4v8" fill="none" stroke="white" stroke-width="1.5" pointer-events="none"/>
                </g>
                <g id="zoomMin">
                        <use xlink:href="#rim" fill="#404040">
                                <set attributeName="fill" to="#808080" begin="zoomminus.mouseover" end="zoomminus.mouseout"/>
                        </use>
                        <path d="M-4,0h8" fill="none" stroke="white" stroke-width="1.5" pointer-events="none"/>
                </g>
                <g id="dirArrow">
                        <path fill="none" stroke="white" stroke-width="1.5" d="M0,-3.0v7 M-2.5,-0.5L0,-3.0L2.5,-0.5"/>
                </g>
               <g id="resetDef">
                       <use xlink:href="#rim2" fill="#404040">
                               <set attributeName="fill" to="#808080" begin="reset.mouseover" end="reset.mouseout"/>
                       </use>
               </g>
        </defs>

<script type="text/javascript">
var viewWidth = 525;
var viewHeight = 375;
var sectionId = 'dynsection-1';
</script>
<script xlink:href="../../svgpan.js"/>
<svg id="graph" class="graph">
<g id="viewport">
<title>org.cobbzilla.util.system.CommandProgressFilter</title>
<!-- Node2 -->
<g id="node1" class="node">
<title>Node2</title>
<polygon fill="#bfbfbf" stroke="#000000" points="192.5,-.5 192.5,-112.5 317.5,-112.5 317.5,-.5 192.5,-.5"/>
<text text-anchor="start" x="200.5" y="-100.5" font-family="Helvetica,sans-Serif" font-size="10.00" fill="#000000">org.cobbzilla.util.system.</text>
<text text-anchor="middle" x="255" y="-89.5" font-family="Helvetica,sans-Serif" font-size="10.00" fill="#000000">CommandProgressFilter</text>
<polyline fill="none" stroke="#000000" points="192.5,-82.5 317.5,-82.5 "/>
<text text-anchor="start" x="200.5" y="-70.5" font-family="Helvetica,sans-Serif" font-size="10.00" fill="#000000">&#45; pctDone</text>
<text text-anchor="start" x="200.5" y="-59.5" font-family="Helvetica,sans-Serif" font-size="10.00" fill="#000000">&#45; indicatorPos</text>
<text text-anchor="start" x="200.5" y="-48.5" font-family="Helvetica,sans-Serif" font-size="10.00" fill="#000000">&#45; closed</text>
<polyline fill="none" stroke="#000000" points="192.5,-41.5 317.5,-41.5 "/>
<text text-anchor="start" x="200.5" y="-29.5" font-family="Helvetica,sans-Serif" font-size="10.00" fill="#000000">+ addIndicator()</text>
<text text-anchor="start" x="200.5" y="-18.5" font-family="Helvetica,sans-Serif" font-size="10.00" fill="#000000">+ close()</text>
<text text-anchor="start" x="200.5" y="-7.5" font-family="Helvetica,sans-Serif" font-size="10.00" fill="#000000"># processLine()</text>
</g>
<!-- Node3 -->
<g id="node2" class="node">
<title>Node3</title>
<polygon fill="none" stroke="#bfbfbf" points="0,-171.5 0,-228.5 132,-228.5 132,-171.5 0,-171.5"/>
<text text-anchor="middle" x="66" y="-216.5" font-family="Helvetica,sans-Serif" font-size="10.00" fill="#000000">LineOrientedOutputStream</text>
<polyline fill="none" stroke="#bfbfbf" points="0,-209.5 132,-209.5 "/>
<text text-anchor="middle" x="66" y="-197.5" font-family="Helvetica,sans-Serif" font-size="10.00" fill="#000000"> </text>
<polyline fill="none" stroke="#bfbfbf" points="0,-190.5 132,-190.5 "/>
<text text-anchor="middle" x="66" y="-178.5" font-family="Helvetica,sans-Serif" font-size="10.00" fill="#000000"> </text>
</g>
<!-- Node3&#45;&gt;Node2 -->
<g id="edge1" class="edge">
<title>Node3&#45;&gt;Node2</title>
<path fill="none" stroke="#191970" d="M111.7587,-165.2573C135.9525,-146.8879 166.0152,-124.0625 192.3436,-104.0724"/>
<polygon fill="none" stroke="#191970" points="109.6407,-162.4708 103.7927,-171.3055 113.8737,-168.046 109.6407,-162.4708"/>
</g>
<!-- Node4 -->
<g id="node3" class="node">
<title>Node4</title>
<polygon fill="none" stroke="#bfbfbf" points="150.5,-160.5 150.5,-239.5 359.5,-239.5 359.5,-160.5 150.5,-160.5"/>
<text text-anchor="start" x="158.5" y="-227.5" font-family="Helvetica,sans-Serif" font-size="10.00" fill="#000000">List&lt; org.cobbzilla.util.system.</text>
<text text-anchor="start" x="158.5" y="-216.5" font-family="Helvetica,sans-Serif" font-size="10.00" fill="#000000">CommandProgressFilter.CommandProgress</text>
<text text-anchor="middle" x="255" y="-205.5" font-family="Helvetica,sans-Serif" font-size="10.00" fill="#000000">Indicator &gt;</text>
<polyline fill="none" stroke="#bfbfbf" points="150.5,-198.5 359.5,-198.5 "/>
<text text-anchor="middle" x="255" y="-186.5" font-family="Helvetica,sans-Serif" font-size="10.00" fill="#000000"> </text>
<polyline fill="none" stroke="#bfbfbf" points="150.5,-179.5 359.5,-179.5 "/>
<text text-anchor="middle" x="255" y="-167.5" font-family="Helvetica,sans-Serif" font-size="10.00" fill="#000000"> </text>
</g>
<!-- Node4&#45;&gt;Node2 -->
<g id="edge2" class="edge">
<title>Node4&#45;&gt;Node2</title>
<path fill="none" stroke="#404040" d="M255,-160.4081C255,-149.3331 255,-136.9691 255,-124.7414"/>
<polygon fill="none" stroke="#404040" points="255.0001,-124.6118 251,-118.6119 255,-112.6118 259,-118.6118 255.0001,-124.6118"/>
<text text-anchor="middle" x="279.5" y="-134" font-family="Helvetica,sans-Serif" font-size="10.00" fill="#000000"> &#45;indicators</text>
</g>
<!-- Node5 -->
<g id="node4" class="node">
<title>Node5</title>
<polygon fill="none" stroke="#bfbfbf" points="239,-309.5 239,-366.5 271,-366.5 271,-309.5 239,-309.5"/>
<text text-anchor="middle" x="255" y="-354.5" font-family="Helvetica,sans-Serif" font-size="10.00" fill="#000000">List</text>
<polyline fill="none" stroke="#bfbfbf" points="239,-347.5 271,-347.5 "/>
<text text-anchor="middle" x="255" y="-335.5" font-family="Helvetica,sans-Serif" font-size="10.00" fill="#000000"> </text>
<polyline fill="none" stroke="#bfbfbf" points="239,-328.5 271,-328.5 "/>
<text text-anchor="middle" x="255" y="-316.5" font-family="Helvetica,sans-Serif" font-size="10.00" fill="#000000"> </text>
</g>
<!-- Node5&#45;&gt;Node4 -->
<g id="edge3" class="edge">
<title>Node5&#45;&gt;Node4</title>
<path fill="none" stroke="#ffa500" d="M255,-299.1964C255,-280.5643 255,-258.2729 255,-239.5453"/>
<polygon fill="#ffa500" stroke="#ffa500" points="251.5001,-299.4063 255,-309.4063 258.5001,-299.4063 251.5001,-299.4063"/>
<text text-anchor="start" x="255" y="-283" font-family="Helvetica,sans-Serif" font-size="10.00" fill="#000000"> &lt; org::cobbzilla::util</text>
<text text-anchor="start" x="255" y="-272" font-family="Helvetica,sans-Serif" font-size="10.00" fill="#000000">::system::CommandProgressFilter</text>
<text text-anchor="middle" x="330.5" y="-261" font-family="Helvetica,sans-Serif" font-size="10.00" fill="#000000">::CommandProgressIndicator &gt;</text>
</g>
<!-- Node6 -->
<g id="node5" class="node">
<title>Node6</title>
<g id="a_node5"><a xlink:href="../../df/dd0/interfaceorg_1_1cobbzilla_1_1util_1_1system_1_1CommandProgressCallback.html" target="_top" xlink:title="{org.cobbzilla.util.system.\lCommandProgressCallback\n||+ updateProgress()\l}">
<polygon fill="none" stroke="#000000" points="377.5,-166 377.5,-234 516.5,-234 516.5,-166 377.5,-166"/>
<text text-anchor="start" x="385.5" y="-222" font-family="Helvetica,sans-Serif" font-size="10.00" fill="#000000">org.cobbzilla.util.system.</text>
<text text-anchor="middle" x="447" y="-211" font-family="Helvetica,sans-Serif" font-size="10.00" fill="#000000">CommandProgressCallback</text>
<polyline fill="none" stroke="#000000" points="377.5,-204 516.5,-204 "/>
<text text-anchor="middle" x="447" y="-192" font-family="Helvetica,sans-Serif" font-size="10.00" fill="#000000"> </text>
<polyline fill="none" stroke="#000000" points="377.5,-185 516.5,-185 "/>
<text text-anchor="start" x="385.5" y="-173" font-family="Helvetica,sans-Serif" font-size="10.00" fill="#000000">+ updateProgress()</text>
</a>
</g>
</g>
<!-- Node6&#45;&gt;Node2 -->
<g id="edge4" class="edge">
<title>Node6&#45;&gt;Node2</title>
<path fill="none" stroke="#404040" d="M401.4987,-165.9925C379.3739,-149.4565 352.2464,-129.1816 327.3748,-110.5927"/>
<polygon fill="none" stroke="#404040" points="327.2185,-110.4758 320.0178,-110.0878 317.6065,-103.2918 324.8071,-103.6798 327.2185,-110.4758"/>
<text text-anchor="middle" x="389.5" y="-134" font-family="Helvetica,sans-Serif" font-size="10.00" fill="#000000"> &#45;callback</text>
</g>
</g>
</svg>
        <g id="navigator" transform="translate(0 0)" fill="#404254">
                <rect fill="#f2f5e9" fill-opacity="0.5" stroke="#606060" stroke-width=".5" x="0" y="0" width="60" height="60"/>
                <use id="zoomplus" xlink:href="#zoomPlus" x="17" y="9" onmousedown="handleZoom(evt,'in')"/>
                <use id="zoomminus" xlink:href="#zoomMin" x="42" y="9" onmousedown="handleZoom(evt,'out')"/>
                <use id="reset" xlink:href="#resetDef" x="30" y="36" onmousedown="handleReset()"/>
                <g id="arrowUp" xlink:href="#dirArrow" transform="translate(30 24)" onmousedown="handlePan(0,-1)">
                  <use xlink:href="#rim" fill="#404040">
                        <set attributeName="fill" to="#808080" begin="arrowUp.mouseover" end="arrowUp.mouseout"/>
                  </use>
                  <path fill="none" stroke="white" stroke-width="1.5" d="M0,-3.0v7 M-2.5,-0.5L0,-3.0L2.5,-0.5"/>
                </g>
                <g id="arrowRight" xlink:href="#dirArrow" transform="rotate(90) translate(36 -43)" onmousedown="handlePan(1,0)">
                  <use xlink:href="#rim" fill="#404040">
                        <set attributeName="fill" to="#808080" begin="arrowRight.mouseover" end="arrowRight.mouseout"/>
                  </use>
                  <path fill="none" stroke="white" stroke-width="1.5" d="M0,-3.0v7 M-2.5,-0.5L0,-3.0L2.5,-0.5"/>
                </g>
                <g id="arrowDown" xlink:href="#dirArrow" transform="rotate(180) translate(-30 -48)" onmousedown="handlePan(0,1)">
                  <use xlink:href="#rim" fill="#404040">
                        <set attributeName="fill" to="#808080" begin="arrowDown.mouseover" end="arrowDown.mouseout"/>
                  </use>
                  <path fill="none" stroke="white" stroke-width="1.5" d="M0,-3.0v7 M-2.5,-0.5L0,-3.0L2.5,-0.5"/>
                </g>
                <g id="arrowLeft" xlink:href="#dirArrow" transform="rotate(270) translate(-36 17)" onmousedown="handlePan(-1,0)">
                  <use xlink:href="#rim" fill="#404040">
                        <set attributeName="fill" to="#808080" begin="arrowLeft.mouseover" end="arrowLeft.mouseout"/>
                  </use>
                  <path fill="none" stroke="white" stroke-width="1.5" d="M0,-3.0v7 M-2.5,-0.5L0,-3.0L2.5,-0.5"/>
                </g>
        </g>
        <svg viewBox="0 0 15 15" width="100%" height="30px" preserveAspectRatio="xMaxYMin meet">
         <g id="arrow_out" transform="scale(0.3 0.3)">
          <a xlink:href="classorg_1_1cobbzilla_1_1util_1_1system_1_1CommandProgressFilter__coll__graph_org.svg" target="_base">
           <rect id="button" ry="5" rx="5" y="6" x="6" height="38" width="38"
                fill="#f2f5e9" fill-opacity="0.5" stroke="#606060" stroke-width="1.0"/>
           <path id="arrow"
             d="M 11.500037,31.436501 C 11.940474,20.09759 22.043105,11.32322 32.158766,21.979434 L 37.068811,17.246167 C 37.068811,17.246167 37.088388,32 37.088388,32 L 22.160133,31.978069 C 22.160133,31.978069 26.997745,27.140456 26.997745,27.140456 C 18.528582,18.264221 13.291696,25.230495 11.500037,31.436501 z"
             style="fill:#404040;"/>
          </a>
         </g>
        </svg>
</svg>
