<?xml version="1.0" encoding="UTF-8" standalone="no"?>
<!DOCTYPE svg PUBLIC "-//W3C//DTD SVG 1.1//EN"
 "http://www.w3.org/Graphics/SVG/1.1/DTD/svg11.dtd">
<!-- Generated by graphviz version 2.40.1 (20161225.0304)
 -->
<!-- Title: org.cobbzilla.util.system.CommandProgressFilter Pages: 1 -->
<svg width="525pt" height="375pt"
 viewBox="0.00 0.00 524.50 375.00" xmlns="http://www.w3.org/2000/svg" xmlns:xlink="http://www.w3.org/1999/xlink">
<g id="graph0" class="graph" transform="scale(1 1) rotate(0) translate(4 371)">
<title>org.cobbzilla.util.system.CommandProgressFilter</title>
<!-- Node2 -->
<g id="node1" class="node">
<title>Node2</title>
<polygon fill="#bfbfbf" stroke="#000000" points="192.5,-.5 192.5,-112.5 317.5,-112.5 317.5,-.5 192.5,-.5"/>
<text text-anchor="start" x="200.5" y="-100.5" font-family="Helvetica,sans-Serif" font-size="10.00" fill="#000000">org.cobbzilla.util.system.</text>
<text text-anchor="middle" x="255" y="-89.5" font-family="Helvetica,sans-Serif" font-size="10.00" fill="#000000">CommandProgressFilter</text>
<polyline fill="none" stroke="#000000" points="192.5,-82.5 317.5,-82.5 "/>
<text text-anchor="start" x="200.5" y="-70.5" font-family="Helvetica,sans-Serif" font-size="10.00" fill="#000000">&#45; pctDone</text>
<text text-anchor="start" x="200.5" y="-59.5" font-family="Helvetica,sans-Serif" font-size="10.00" fill="#000000">&#45; indicatorPos</text>
<text text-anchor="start" x="200.5" y="-48.5" font-family="Helvetica,sans-Serif" font-size="10.00" fill="#000000">&#45; closed</text>
<polyline fill="none" stroke="#000000" points="192.5,-41.5 317.5,-41.5 "/>
<text text-anchor="start" x="200.5" y="-29.5" font-family="Helvetica,sans-Serif" font-size="10.00" fill="#000000">+ addIndicator()</text>
<text text-anchor="start" x="200.5" y="-18.5" font-family="Helvetica,sans-Serif" font-size="10.00" fill="#000000">+ close()</text>
<text text-anchor="start" x="200.5" y="-7.5" font-family="Helvetica,sans-Serif" font-size="10.00" fill="#000000"># processLine()</text>
</g>
<!-- Node3 -->
<g id="node2" class="node">
<title>Node3</title>
<polygon fill="none" stroke="#bfbfbf" points="0,-171.5 0,-228.5 132,-228.5 132,-171.5 0,-171.5"/>
<text text-anchor="middle" x="66" y="-216.5" font-family="Helvetica,sans-Serif" font-size="10.00" fill="#000000">LineOrientedOutputStream</text>
<polyline fill="none" stroke="#bfbfbf" points="0,-209.5 132,-209.5 "/>
<text text-anchor="middle" x="66" y="-197.5" font-family="Helvetica,sans-Serif" font-size="10.00" fill="#000000"> </text>
<polyline fill="none" stroke="#bfbfbf" points="0,-190.5 132,-190.5 "/>
<text text-anchor="middle" x="66" y="-178.5" font-family="Helvetica,sans-Serif" font-size="10.00" fill="#000000"> </text>
</g>
<!-- Node3&#45;&gt;Node2 -->
<g id="edge1" class="edge">
<title>Node3&#45;&gt;Node2</title>
<path fill="none" stroke="#191970" d="M111.7587,-165.2573C135.9525,-146.8879 166.0152,-124.0625 192.3436,-104.0724"/>
<polygon fill="none" stroke="#191970" points="109.6407,-162.4708 103.7927,-171.3055 113.8737,-168.046 109.6407,-162.4708"/>
</g>
<!-- Node4 -->
<g id="node3" class="node">
<title>Node4</title>
<polygon fill="none" stroke="#bfbfbf" points="150.5,-160.5 150.5,-239.5 359.5,-239.5 359.5,-160.5 150.5,-160.5"/>
<text text-anchor="start" x="158.5" y="-227.5" font-family="Helvetica,sans-Serif" font-size="10.00" fill="#000000">List&lt; org.cobbzilla.util.system.</text>
<text text-anchor="start" x="158.5" y="-216.5" font-family="Helvetica,sans-Serif" font-size="10.00" fill="#000000">CommandProgressFilter.CommandProgress</text>
<text text-anchor="middle" x="255" y="-205.5" font-family="Helvetica,sans-Serif" font-size="10.00" fill="#000000">Indicator &gt;</text>
<polyline fill="none" stroke="#bfbfbf" points="150.5,-198.5 359.5,-198.5 "/>
<text text-anchor="middle" x="255" y="-186.5" font-family="Helvetica,sans-Serif" font-size="10.00" fill="#000000"> </text>
<polyline fill="none" stroke="#bfbfbf" points="150.5,-179.5 359.5,-179.5 "/>
<text text-anchor="middle" x="255" y="-167.5" font-family="Helvetica,sans-Serif" font-size="10.00" fill="#000000"> </text>
</g>
<!-- Node4&#45;&gt;Node2 -->
<g id="edge2" class="edge">
<title>Node4&#45;&gt;Node2</title>
<path fill="none" stroke="#404040" d="M255,-160.4081C255,-149.3331 255,-136.9691 255,-124.7414"/>
<polygon fill="none" stroke="#404040" points="255.0001,-124.6118 251,-118.6119 255,-112.6118 259,-118.6118 255.0001,-124.6118"/>
<text text-anchor="middle" x="279.5" y="-134" font-family="Helvetica,sans-Serif" font-size="10.00" fill="#000000"> &#45;indicators</text>
</g>
<!-- Node5 -->
<g id="node4" class="node">
<title>Node5</title>
<polygon fill="none" stroke="#bfbfbf" points="239,-309.5 239,-366.5 271,-366.5 271,-309.5 239,-309.5"/>
<text text-anchor="middle" x="255" y="-354.5" font-family="Helvetica,sans-Serif" font-size="10.00" fill="#000000">List</text>
<polyline fill="none" stroke="#bfbfbf" points="239,-347.5 271,-347.5 "/>
<text text-anchor="middle" x="255" y="-335.5" font-family="Helvetica,sans-Serif" font-size="10.00" fill="#000000"> </text>
<polyline fill="none" stroke="#bfbfbf" points="239,-328.5 271,-328.5 "/>
<text text-anchor="middle" x="255" y="-316.5" font-family="Helvetica,sans-Serif" font-size="10.00" fill="#000000"> </text>
</g>
<!-- Node5&#45;&gt;Node4 -->
<g id="edge3" class="edge">
<title>Node5&#45;&gt;Node4</title>
<path fill="none" stroke="#ffa500" d="M255,-299.1964C255,-280.5643 255,-258.2729 255,-239.5453"/>
<polygon fill="#ffa500" stroke="#ffa500" points="251.5001,-299.4063 255,-309.4063 258.5001,-299.4063 251.5001,-299.4063"/>
<text text-anchor="start" x="255" y="-283" font-family="Helvetica,sans-Serif" font-size="10.00" fill="#000000"> &lt; org::cobbzilla::util</text>
<text text-anchor="start" x="255" y="-272" font-family="Helvetica,sans-Serif" font-size="10.00" fill="#000000">::system::CommandProgressFilter</text>
<text text-anchor="middle" x="330.5" y="-261" font-family="Helvetica,sans-Serif" font-size="10.00" fill="#000000">::CommandProgressIndicator &gt;</text>
</g>
<!-- Node6 -->
<g id="node5" class="node">
<title>Node6</title>
<g id="a_node5"><a xlink:href="../../df/dd0/interfaceorg_1_1cobbzilla_1_1util_1_1system_1_1CommandProgressCallback.html" target="_top" xlink:title="{org.cobbzilla.util.system.\lCommandProgressCallback\n||+ updateProgress()\l}">
<polygon fill="none" stroke="#000000" points="377.5,-166 377.5,-234 516.5,-234 516.5,-166 377.5,-166"/>
<text text-anchor="start" x="385.5" y="-222" font-family="Helvetica,sans-Serif" font-size="10.00" fill="#000000">org.cobbzilla.util.system.</text>
<text text-anchor="middle" x="447" y="-211" font-family="Helvetica,sans-Serif" font-size="10.00" fill="#000000">CommandProgressCallback</text>
<polyline fill="none" stroke="#000000" points="377.5,-204 516.5,-204 "/>
<text text-anchor="middle" x="447" y="-192" font-family="Helvetica,sans-Serif" font-size="10.00" fill="#000000"> </text>
<polyline fill="none" stroke="#000000" points="377.5,-185 516.5,-185 "/>
<text text-anchor="start" x="385.5" y="-173" font-family="Helvetica,sans-Serif" font-size="10.00" fill="#000000">+ updateProgress()</text>
</a>
</g>
</g>
<!-- Node6&#45;&gt;Node2 -->
<g id="edge4" class="edge">
<title>Node6&#45;&gt;Node2</title>
<path fill="none" stroke="#404040" d="M401.4987,-165.9925C379.3739,-149.4565 352.2464,-129.1816 327.3748,-110.5927"/>
<polygon fill="none" stroke="#404040" points="327.2185,-110.4758 320.0178,-110.0878 317.6065,-103.2918 324.8071,-103.6798 327.2185,-110.4758"/>
<text text-anchor="middle" x="389.5" y="-134" font-family="Helvetica,sans-Serif" font-size="10.00" fill="#000000"> &#45;callback</text>
</g>
</g>
</svg>
