<?xml version="1.0" encoding="UTF-8" standalone="no"?>
<!DOCTYPE svg PUBLIC "-//W3C//DTD SVG 1.1//EN"
 "http://www.w3.org/Graphics/SVG/1.1/DTD/svg11.dtd">
<!-- Generated by graphviz version 2.40.1 (20161225.0304)
 -->
<!-- Title: org.cobbzilla.util.time.ImprovedTimezone.isGMT Pages: 1 -->
<svg width="465pt" height="39pt"
 viewBox="0.00 0.00 465.00 39.00" xmlns="http://www.w3.org/2000/svg" xmlns:xlink="http://www.w3.org/1999/xlink">
<g id="graph0" class="graph" transform="scale(1 1) rotate(0) translate(4 35)">
<title>org.cobbzilla.util.time.ImprovedTimezone.isGMT</title>
<!-- Node1 -->
<g id="node1" class="node">
<title>Node1</title>
<polygon fill="#bfbfbf" stroke="#000000" points="0,-.5 0,-30.5 132,-30.5 132,-.5 0,-.5"/>
<text text-anchor="start" x="8" y="-18.5" font-family="Helvetica,sans-Serif" font-size="10.00" fill="#000000">org.cobbzilla.util.time.</text>
<text text-anchor="middle" x="66" y="-7.5" font-family="Helvetica,sans-Serif" font-size="10.00" fill="#000000">ImprovedTimezone.isGMT</text>
</g>
<!-- Node2 -->
<g id="node2" class="node">
<title>Node2</title>
<g id="a_node2"><a xlink:href="../../d2/db5/classorg_1_1cobbzilla_1_1util_1_1time_1_1ImprovedTimezone_a515faf643be42223ae1ea6d6a8b7c13d.html#a515faf643be42223ae1ea6d6a8b7c13d" target="_top" xlink:title="org.cobbzilla.util.time.\lImprovedTimezone.initZone">
<polygon fill="none" stroke="#000000" points="168,-.5 168,-30.5 305,-30.5 305,-.5 168,-.5"/>
<text text-anchor="start" x="176" y="-18.5" font-family="Helvetica,sans-Serif" font-size="10.00" fill="#000000">org.cobbzilla.util.time.</text>
<text text-anchor="middle" x="236.5" y="-7.5" font-family="Helvetica,sans-Serif" font-size="10.00" fill="#000000">ImprovedTimezone.initZone</text>
</a>
</g>
</g>
<!-- Node1&#45;&gt;Node2 -->
<g id="edge1" class="edge">
<title>Node1&#45;&gt;Node2</title>
<path fill="none" stroke="#191970" d="M142.563,-15.5C150.9526,-15.5 159.4555,-15.5 167.7424,-15.5"/>
<polygon fill="#191970" stroke="#191970" points="142.408,-12.0001 132.408,-15.5 142.4079,-19.0001 142.408,-12.0001"/>
</g>
<!-- Node3 -->
<g id="node3" class="node">
<title>Node3</title>
<g id="a_node3"><a xlink:href="../../d2/db5/classorg_1_1cobbzilla_1_1util_1_1time_1_1ImprovedTimezone_ac1438d9fd95803a313cc2e3513e11bb6.html#ac1438d9fd95803a313cc2e3513e11bb6" target="_top" xlink:title="Initialize timezones from a file on classpath. ">
<polygon fill="none" stroke="#000000" points="341,-.5 341,-30.5 457,-30.5 457,-.5 341,-.5"/>
<text text-anchor="start" x="349" y="-18.5" font-family="Helvetica,sans-Serif" font-size="10.00" fill="#000000">org.cobbzilla.util.time.</text>
<text text-anchor="middle" x="399" y="-7.5" font-family="Helvetica,sans-Serif" font-size="10.00" fill="#000000">ImprovedTimezone.init</text>
</a>
</g>
</g>
<!-- Node2&#45;&gt;Node3 -->
<g id="edge2" class="edge">
<title>Node2&#45;&gt;Node3</title>
<path fill="none" stroke="#191970" d="M315.6805,-15.5C324.129,-15.5 332.6073,-15.5 340.7498,-15.5"/>
<polygon fill="#191970" stroke="#191970" points="315.4147,-12.0001 305.4146,-15.5 315.4146,-19.0001 315.4147,-12.0001"/>
</g>
</g>
</svg>
