<?xml version="1.0" encoding="UTF-8" standalone="no"?>
<!DOCTYPE svg PUBLIC "-//W3C//DTD SVG 1.1//EN"
 "http://www.w3.org/Graphics/SVG/1.1/DTD/svg11.dtd">
<!-- Generated by graphviz version 2.40.1 (20161225.0304)
 -->
<!-- Title: org.cobbzilla.util.time.ImprovedTimezone.init Pages: 1 -->
<svg width="520pt" height="112pt"
 viewBox="0.00 0.00 520.00 112.00" xmlns="http://www.w3.org/2000/svg" xmlns:xlink="http://www.w3.org/1999/xlink">
<g id="graph0" class="graph" transform="scale(1 1) rotate(0) translate(4 108)">
<title>org.cobbzilla.util.time.ImprovedTimezone.init</title>
<!-- Node0 -->
<g id="node1" class="node">
<title>Node0</title>
<polygon fill="#bfbfbf" stroke="#000000" points="0,-24.5 0,-54.5 116,-54.5 116,-24.5 0,-24.5"/>
<text text-anchor="start" x="8" y="-42.5" font-family="Helvetica,sans-Serif" font-size="10.00" fill="#000000">org.cobbzilla.util.time.</text>
<text text-anchor="middle" x="58" y="-31.5" font-family="Helvetica,sans-Serif" font-size="10.00" fill="#000000">ImprovedTimezone.init</text>
</g>
<!-- Node1 -->
<g id="node2" class="node">
<title>Node1</title>
<g id="a_node2"><a xlink:href="../../d2/db5/classorg_1_1cobbzilla_1_1util_1_1time_1_1ImprovedTimezone_a515faf643be42223ae1ea6d6a8b7c13d.html#a515faf643be42223ae1ea6d6a8b7c13d" target="_top" xlink:title="org.cobbzilla.util.time.\lImprovedTimezone.initZone">
<polygon fill="none" stroke="#000000" points="152.5,-49.5 152.5,-79.5 289.5,-79.5 289.5,-49.5 152.5,-49.5"/>
<text text-anchor="start" x="160.5" y="-67.5" font-family="Helvetica,sans-Serif" font-size="10.00" fill="#000000">org.cobbzilla.util.time.</text>
<text text-anchor="middle" x="221" y="-56.5" font-family="Helvetica,sans-Serif" font-size="10.00" fill="#000000">ImprovedTimezone.initZone</text>
</a>
</g>
</g>
<!-- Node0&#45;&gt;Node1 -->
<g id="edge1" class="edge">
<title>Node0&#45;&gt;Node1</title>
<path fill="none" stroke="#191970" d="M116.3863,-48.455C124.8819,-49.758 133.7427,-51.117 142.5558,-52.4687"/>
<polygon fill="#191970" stroke="#191970" points="142.0487,-55.9318 152.4638,-53.9883 143.11,-49.0127 142.0487,-55.9318"/>
</g>
<!-- Node4 -->
<g id="node5" class="node">
<title>Node4</title>
<g id="a_node5"><a xlink:href="../../dc/d81/classorg_1_1cobbzilla_1_1util_1_1io_1_1StreamUtil_aa82a9bc20749f971c1ec04a4025ef34d.html#aa82a9bc20749f971c1ec04a4025ef34d" target="_top" xlink:title="org.cobbzilla.util.io.Stream\lUtil.loadResourceAsStream">
<polygon fill="none" stroke="#000000" points="152,-.5 152,-30.5 290,-30.5 290,-.5 152,-.5"/>
<text text-anchor="start" x="160" y="-18.5" font-family="Helvetica,sans-Serif" font-size="10.00" fill="#000000">org.cobbzilla.util.io.Stream</text>
<text text-anchor="middle" x="221" y="-7.5" font-family="Helvetica,sans-Serif" font-size="10.00" fill="#000000">Util.loadResourceAsStream</text>
</a>
</g>
</g>
<!-- Node0&#45;&gt;Node4 -->
<g id="edge4" class="edge">
<title>Node0&#45;&gt;Node4</title>
<path fill="none" stroke="#191970" d="M116.3863,-30.9032C124.6592,-29.6851 133.2785,-28.4161 141.8627,-27.1521"/>
<polygon fill="#191970" stroke="#191970" points="142.5176,-30.5935 151.901,-25.6741 141.4978,-23.6682 142.5176,-30.5935"/>
</g>
<!-- Node2 -->
<g id="node3" class="node">
<title>Node2</title>
<g id="a_node3"><a xlink:href="../../d2/db5/classorg_1_1cobbzilla_1_1util_1_1time_1_1ImprovedTimezone_ad21754ce266960824b30aee3cf14a8f6.html#ad21754ce266960824b30aee3cf14a8f6" target="_top" xlink:title="org.cobbzilla.util.time.\lImprovedTimezone.ImprovedTimezone">
<polygon fill="none" stroke="#000000" points="326,-73.5 326,-103.5 512,-103.5 512,-73.5 326,-73.5"/>
<text text-anchor="start" x="334" y="-91.5" font-family="Helvetica,sans-Serif" font-size="10.00" fill="#000000">org.cobbzilla.util.time.</text>
<text text-anchor="middle" x="419" y="-80.5" font-family="Helvetica,sans-Serif" font-size="10.00" fill="#000000">ImprovedTimezone.ImprovedTimezone</text>
</a>
</g>
</g>
<!-- Node1&#45;&gt;Node2 -->
<g id="edge2" class="edge">
<title>Node1&#45;&gt;Node2</title>
<path fill="none" stroke="#191970" d="M289.6951,-72.8267C298.135,-73.8497 306.9,-74.9121 315.7104,-75.9801"/>
<polygon fill="#191970" stroke="#191970" points="315.3135,-79.4575 325.6621,-77.1863 316.1559,-72.5083 315.3135,-79.4575"/>
</g>
<!-- Node3 -->
<g id="node4" class="node">
<title>Node3</title>
<g id="a_node4"><a xlink:href="../../d2/db5/classorg_1_1cobbzilla_1_1util_1_1time_1_1ImprovedTimezone_a338219e52329b24004a085446a794df3.html#a338219e52329b24004a085446a794df3" target="_top" xlink:title="org.cobbzilla.util.time.\lImprovedTimezone.isGMT">
<polygon fill="none" stroke="#000000" points="353,-24.5 353,-54.5 485,-54.5 485,-24.5 353,-24.5"/>
<text text-anchor="start" x="361" y="-42.5" font-family="Helvetica,sans-Serif" font-size="10.00" fill="#000000">org.cobbzilla.util.time.</text>
<text text-anchor="middle" x="419" y="-31.5" font-family="Helvetica,sans-Serif" font-size="10.00" fill="#000000">ImprovedTimezone.isGMT</text>
</a>
</g>
</g>
<!-- Node1&#45;&gt;Node3 -->
<g id="edge3" class="edge">
<title>Node1&#45;&gt;Node3</title>
<path fill="none" stroke="#191970" d="M289.6951,-55.8264C306.7816,-53.669 325.201,-51.3433 342.6314,-49.1425"/>
<polygon fill="#191970" stroke="#191970" points="343.2796,-52.5885 352.7624,-47.8633 342.4027,-45.6437 343.2796,-52.5885"/>
</g>
</g>
</svg>
