<?xml version="1.0" encoding="UTF-8" standalone="no"?>
<!DOCTYPE svg PUBLIC "-//W3C//DTD SVG 1.1//EN"
 "http://www.w3.org/Graphics/SVG/1.1/DTD/svg11.dtd">
<!-- Generated by graphviz version 2.40.1 (20161225.0304)
 -->
<!-- Title: org.cobbzilla.util.http.CookieJar.add Pages: 1 -->
<svg width="264pt" height="88pt"
 viewBox="0.00 0.00 264.00 88.00" xmlns="http://www.w3.org/2000/svg" xmlns:xlink="http://www.w3.org/1999/xlink">
<g id="graph0" class="graph" transform="scale(1 1) rotate(0) translate(4 84)">
<title>org.cobbzilla.util.http.CookieJar.add</title>
<!-- Node4 -->
<g id="node1" class="node">
<title>Node4</title>
<polygon fill="#bfbfbf" stroke="#000000" points="0,-24.5 0,-54.5 110,-54.5 110,-24.5 0,-24.5"/>
<text text-anchor="start" x="8" y="-42.5" font-family="Helvetica,sans-Serif" font-size="10.00" fill="#000000">org.cobbzilla.util.http.</text>
<text text-anchor="middle" x="55" y="-31.5" font-family="Helvetica,sans-Serif" font-size="10.00" fill="#000000">CookieJar.add</text>
</g>
<!-- Node5 -->
<g id="node2" class="node">
<title>Node5</title>
<g id="a_node2"><a xlink:href="../../da/d50/classorg_1_1cobbzilla_1_1util_1_1http_1_1CookieJar_a66071c71677fdc75a9d6d39014682df0.html#a66071c71677fdc75a9d6d39014682df0" target="_top" xlink:title="org.cobbzilla.util.http.\lCookieJar.addCookie">
<polygon fill="none" stroke="#000000" points="146,-49.5 146,-79.5 256,-79.5 256,-49.5 146,-49.5"/>
<text text-anchor="start" x="154" y="-67.5" font-family="Helvetica,sans-Serif" font-size="10.00" fill="#000000">org.cobbzilla.util.http.</text>
<text text-anchor="middle" x="201" y="-56.5" font-family="Helvetica,sans-Serif" font-size="10.00" fill="#000000">CookieJar.addCookie</text>
</a>
</g>
</g>
<!-- Node4&#45;&gt;Node5 -->
<g id="edge1" class="edge">
<title>Node4&#45;&gt;Node5</title>
<path fill="none" stroke="#191970" d="M120.1314,-50.6526C128.6759,-52.1157 137.3658,-53.6037 145.7256,-55.0352"/>
<polygon fill="#191970" stroke="#191970" points="120.6436,-47.1895 110.1963,-48.9514 119.4621,-54.0891 120.6436,-47.1895"/>
</g>
<!-- Node6 -->
<g id="node3" class="node">
<title>Node6</title>
<g id="a_node3"><a xlink:href="../../da/d50/classorg_1_1cobbzilla_1_1util_1_1http_1_1CookieJar_a6c946c7bd92da7f4f33e7e026b27cb23.html#a6c946c7bd92da7f4f33e7e026b27cb23" target="_top" xlink:title="org.cobbzilla.util.http.\lCookieJar.CookieJar">
<polygon fill="none" stroke="#000000" points="146,-.5 146,-30.5 256,-30.5 256,-.5 146,-.5"/>
<text text-anchor="start" x="154" y="-18.5" font-family="Helvetica,sans-Serif" font-size="10.00" fill="#000000">org.cobbzilla.util.http.</text>
<text text-anchor="middle" x="201" y="-7.5" font-family="Helvetica,sans-Serif" font-size="10.00" fill="#000000">CookieJar.CookieJar</text>
</a>
</g>
</g>
<!-- Node4&#45;&gt;Node6 -->
<g id="edge2" class="edge">
<title>Node4&#45;&gt;Node6</title>
<path fill="none" stroke="#191970" d="M120.1314,-28.7935C128.6759,-27.3889 137.3658,-25.9604 145.7256,-24.5862"/>
<polygon fill="#191970" stroke="#191970" points="119.4962,-25.3508 110.1963,-30.4266 120.6317,-32.2581 119.4962,-25.3508"/>
</g>
</g>
</svg>
