<?xml version="1.0" encoding="UTF-8" standalone="no"?>
<!DOCTYPE svg PUBLIC "-//W3C//DTD SVG 1.1//EN"
 "http://www.w3.org/Graphics/SVG/1.1/DTD/svg11.dtd">
<!-- Generated by graphviz version 2.40.1 (20161225.0304)
 -->
<!-- Title: org.cobbzilla.util.http.CookieJar.addCookie Pages: 1 -->
<svg width="682pt" height="88pt"
 viewBox="0.00 0.00 682.00 88.00" xmlns="http://www.w3.org/2000/svg" xmlns:xlink="http://www.w3.org/1999/xlink">
<g id="graph0" class="graph" transform="scale(1 1) rotate(0) translate(4 84)">
<title>org.cobbzilla.util.http.CookieJar.addCookie</title>
<!-- Node0 -->
<g id="node1" class="node">
<title>Node0</title>
<polygon fill="#bfbfbf" stroke="#000000" points="0,-24.5 0,-54.5 110,-54.5 110,-24.5 0,-24.5"/>
<text text-anchor="start" x="8" y="-42.5" font-family="Helvetica,sans-Serif" font-size="10.00" fill="#000000">org.cobbzilla.util.http.</text>
<text text-anchor="middle" x="55" y="-31.5" font-family="Helvetica,sans-Serif" font-size="10.00" fill="#000000">CookieJar.addCookie</text>
</g>
<!-- Node1 -->
<g id="node2" class="node">
<title>Node1</title>
<g id="a_node2"><a xlink:href="../../da/d50/classorg_1_1cobbzilla_1_1util_1_1http_1_1CookieJar_a7e7511d898fb571e625be6cc1a066e71.html#a7e7511d898fb571e625be6cc1a066e71" target="_top" xlink:title="org.cobbzilla.util.http.\lCookieJar.add">
<polygon fill="none" stroke="#000000" points="146,-24.5 146,-54.5 256,-54.5 256,-24.5 146,-24.5"/>
<text text-anchor="start" x="154" y="-42.5" font-family="Helvetica,sans-Serif" font-size="10.00" fill="#000000">org.cobbzilla.util.http.</text>
<text text-anchor="middle" x="201" y="-31.5" font-family="Helvetica,sans-Serif" font-size="10.00" fill="#000000">CookieJar.add</text>
</a>
</g>
</g>
<!-- Node0&#45;&gt;Node1 -->
<g id="edge1" class="edge">
<title>Node0&#45;&gt;Node1</title>
<path fill="none" stroke="#191970" d="M110.1963,-39.5C118.4633,-39.5 127.0546,-39.5 135.5101,-39.5"/>
<polygon fill="#191970" stroke="#191970" points="135.7256,-43.0001 145.7256,-39.5 135.7256,-36.0001 135.7256,-43.0001"/>
</g>
<!-- Node2 -->
<g id="node3" class="node">
<title>Node2</title>
<g id="a_node3"><a xlink:href="../../d3/df2/classorg_1_1cobbzilla_1_1util_1_1http_1_1HttpCookieBean_adf03023f0d670522fb13979ac59e1dc1.html#adf03023f0d670522fb13979ac59e1dc1" target="_top" xlink:title="org.cobbzilla.util.http.\lHttpCookieBean.expired">
<polygon fill="none" stroke="#000000" points="313,-49.5 313,-79.5 436,-79.5 436,-49.5 313,-49.5"/>
<text text-anchor="start" x="321" y="-67.5" font-family="Helvetica,sans-Serif" font-size="10.00" fill="#000000">org.cobbzilla.util.http.</text>
<text text-anchor="middle" x="374.5" y="-56.5" font-family="Helvetica,sans-Serif" font-size="10.00" fill="#000000">HttpCookieBean.expired</text>
</a>
</g>
</g>
<!-- Node1&#45;&gt;Node2 -->
<g id="edge2" class="edge">
<title>Node1&#45;&gt;Node2</title>
<path fill="none" stroke="#191970" d="M256.3735,-47.4789C271.0982,-49.6006 287.2167,-51.9232 302.6824,-54.1516"/>
<polygon fill="#191970" stroke="#191970" points="302.3332,-57.6374 312.7301,-55.5994 303.3315,-50.7089 302.3332,-57.6374"/>
</g>
<!-- Node4 -->
<g id="node5" class="node">
<title>Node4</title>
<g id="a_node5"><a xlink:href="../../d4/d12/classorg_1_1cobbzilla_1_1util_1_1collection_1_1CaseInsensitiveStringKeyMap_ab34f2bc4fd1b924a76efdda7cce3b9ae.html#ab34f2bc4fd1b924a76efdda7cce3b9ae" target="_top" xlink:title="org.cobbzilla.util.collection.\lCaseInsensitiveStringKeyMap.put">
<polygon fill="none" stroke="#000000" points="292,-.5 292,-30.5 457,-30.5 457,-.5 292,-.5"/>
<text text-anchor="start" x="300" y="-18.5" font-family="Helvetica,sans-Serif" font-size="10.00" fill="#000000">org.cobbzilla.util.collection.</text>
<text text-anchor="middle" x="374.5" y="-7.5" font-family="Helvetica,sans-Serif" font-size="10.00" fill="#000000">CaseInsensitiveStringKeyMap.put</text>
</a>
</g>
</g>
<!-- Node1&#45;&gt;Node4 -->
<g id="edge4" class="edge">
<title>Node1&#45;&gt;Node4</title>
<path fill="none" stroke="#191970" d="M256.3735,-31.8403C264.4994,-30.7162 273.0498,-29.5335 281.6807,-28.3396"/>
<polygon fill="#191970" stroke="#191970" points="282.4029,-31.7731 291.829,-26.9358 281.4437,-24.8391 282.4029,-31.7731"/>
</g>
<!-- Node3 -->
<g id="node4" class="node">
<title>Node3</title>
<g id="a_node4"><a xlink:href="../../d3/df2/classorg_1_1cobbzilla_1_1util_1_1http_1_1HttpCookieBean_a4e92320dfbe05fbf69d3d245269416bd.html#a4e92320dfbe05fbf69d3d245269416bd" target="_top" xlink:title="org.cobbzilla.util.http.\lHttpCookieBean.getExpiredDateTime">
<polygon fill="none" stroke="#000000" points="493,-49.5 493,-79.5 674,-79.5 674,-49.5 493,-49.5"/>
<text text-anchor="start" x="501" y="-67.5" font-family="Helvetica,sans-Serif" font-size="10.00" fill="#000000">org.cobbzilla.util.http.</text>
<text text-anchor="middle" x="583.5" y="-56.5" font-family="Helvetica,sans-Serif" font-size="10.00" fill="#000000">HttpCookieBean.getExpiredDateTime</text>
</a>
</g>
</g>
<!-- Node2&#45;&gt;Node3 -->
<g id="edge3" class="edge">
<title>Node2&#45;&gt;Node3</title>
<path fill="none" stroke="#191970" d="M436.0765,-64.5C450.695,-64.5 466.6699,-64.5 482.536,-64.5"/>
<polygon fill="#191970" stroke="#191970" points="482.9313,-68.0001 492.9312,-64.5 482.9312,-61.0001 482.9313,-68.0001"/>
</g>
</g>
</svg>
