<?xml version="1.0" encoding="UTF-8" standalone="no"?>
<!DOCTYPE svg PUBLIC "-//W3C//DTD SVG 1.1//EN"
 "http://www.w3.org/Graphics/SVG/1.1/DTD/svg11.dtd">
<!-- Generated by graphviz version 2.40.1 (20161225.0304)
 -->
<!-- Title: org.cobbzilla.util.io.JarTrimmerConfig Pages: 1 -->
<svg width="190pt" height="397pt"
 viewBox="0.00 0.00 189.50 397.00" xmlns="http://www.w3.org/2000/svg" xmlns:xlink="http://www.w3.org/1999/xlink">
<g id="graph0" class="graph" transform="scale(1 1) rotate(0) translate(4 393)">
<title>org.cobbzilla.util.io.JarTrimmerConfig</title>
<!-- Node1 -->
<g id="node1" class="node">
<title>Node1</title>
<polygon fill="#bfbfbf" stroke="#000000" points="10.5,-.5 10.5,-156.5 168.5,-156.5 168.5,-.5 10.5,-.5"/>
<text text-anchor="start" x="18.5" y="-144.5" font-family="Helvetica,sans-Serif" font-size="10.00" fill="#000000">org.cobbzilla.util.io.Jar</text>
<text text-anchor="middle" x="89.5" y="-133.5" font-family="Helvetica,sans-Serif" font-size="10.00" fill="#000000">TrimmerConfig</text>
<polyline fill="none" stroke="#000000" points="10.5,-126.5 168.5,-126.5 "/>
<text text-anchor="start" x="18.5" y="-114.5" font-family="Helvetica,sans-Serif" font-size="10.00" fill="#000000">&#45; requiredClasses</text>
<text text-anchor="start" x="18.5" y="-103.5" font-family="Helvetica,sans-Serif" font-size="10.00" fill="#000000">&#45; requiredPrefixes</text>
<text text-anchor="start" x="18.5" y="-92.5" font-family="Helvetica,sans-Serif" font-size="10.00" fill="#000000">&#45; includeRootFiles</text>
<polyline fill="none" stroke="#000000" points="10.5,-85.5 168.5,-85.5 "/>
<text text-anchor="start" x="18.5" y="-73.5" font-family="Helvetica,sans-Serif" font-size="10.00" fill="#000000">+ getOutJar()</text>
<text text-anchor="start" x="18.5" y="-62.5" font-family="Helvetica,sans-Serif" font-size="10.00" fill="#000000">+ setRequiredClassesFromFile()</text>
<text text-anchor="start" x="18.5" y="-51.5" font-family="Helvetica,sans-Serif" font-size="10.00" fill="#000000">+ requirePrefix()</text>
<text text-anchor="start" x="18.5" y="-40.5" font-family="Helvetica,sans-Serif" font-size="10.00" fill="#000000">+ hasCounterFile()</text>
<text text-anchor="start" x="18.5" y="-29.5" font-family="Helvetica,sans-Serif" font-size="10.00" fill="#000000">+ required()</text>
<text text-anchor="start" x="18.5" y="-18.5" font-family="Helvetica,sans-Serif" font-size="10.00" fill="#000000">+ requireClasses()</text>
<text text-anchor="start" x="18.5" y="-7.5" font-family="Helvetica,sans-Serif" font-size="10.00" fill="#000000">&#45; requiredByPrefix()</text>
</g>
<!-- Node2 -->
<g id="node2" class="node">
<title>Node2</title>
<polygon fill="none" stroke="#bfbfbf" points="0,-226.5 0,-283.5 75,-283.5 75,-226.5 0,-226.5"/>
<text text-anchor="middle" x="37.5" y="-271.5" font-family="Helvetica,sans-Serif" font-size="10.00" fill="#000000">Set&lt; String &gt;</text>
<polyline fill="none" stroke="#bfbfbf" points="0,-264.5 75,-264.5 "/>
<text text-anchor="middle" x="37.5" y="-252.5" font-family="Helvetica,sans-Serif" font-size="10.00" fill="#000000"> </text>
<polyline fill="none" stroke="#bfbfbf" points="0,-245.5 75,-245.5 "/>
<text text-anchor="middle" x="37.5" y="-233.5" font-family="Helvetica,sans-Serif" font-size="10.00" fill="#000000"> </text>
</g>
<!-- Node2&#45;&gt;Node1 -->
<g id="edge1" class="edge">
<title>Node2&#45;&gt;Node1</title>
<path fill="none" stroke="#404040" d="M34.6334,-226.4384C33.8824,-210.9821 34.2498,-191.6909 38.5,-175 39.0874,-172.6931 39.74,-170.3803 40.45,-168.0676"/>
<polygon fill="none" stroke="#404040" points="40.5168,-167.8741 38.6991,-160.8958 44.4414,-156.534 46.2592,-163.5122 40.5168,-167.8741"/>
<text text-anchor="middle" x="79.5" y="-194.5" font-family="Helvetica,sans-Serif" font-size="10.00" fill="#000000"> &#45;requiredClassSet</text>
<text text-anchor="middle" x="79.5" y="-183.5" font-family="Helvetica,sans-Serif" font-size="10.00" fill="#000000">&#45;requiredPrefixSet</text>
</g>
<!-- Node3 -->
<g id="node3" class="node">
<title>Node3</title>
<polygon fill="none" stroke="#bfbfbf" points="21.5,-331.5 21.5,-388.5 53.5,-388.5 53.5,-331.5 21.5,-331.5"/>
<text text-anchor="middle" x="37.5" y="-376.5" font-family="Helvetica,sans-Serif" font-size="10.00" fill="#000000">Set</text>
<polyline fill="none" stroke="#bfbfbf" points="21.5,-369.5 53.5,-369.5 "/>
<text text-anchor="middle" x="37.5" y="-357.5" font-family="Helvetica,sans-Serif" font-size="10.00" fill="#000000"> </text>
<polyline fill="none" stroke="#bfbfbf" points="21.5,-350.5 53.5,-350.5 "/>
<text text-anchor="middle" x="37.5" y="-338.5" font-family="Helvetica,sans-Serif" font-size="10.00" fill="#000000"> </text>
</g>
<!-- Node3&#45;&gt;Node2 -->
<g id="edge2" class="edge">
<title>Node3&#45;&gt;Node2</title>
<path fill="none" stroke="#ffa500" d="M37.5,-321.192C37.5,-308.7605 37.5,-295.2278 37.5,-283.657"/>
<polygon fill="#ffa500" stroke="#ffa500" points="34.0001,-321.3083 37.5,-331.3083 41.0001,-321.3083 34.0001,-321.3083"/>
<text text-anchor="middle" x="61" y="-305" font-family="Helvetica,sans-Serif" font-size="10.00" fill="#000000"> &lt; String &gt;</text>
</g>
<!-- Node4 -->
<g id="node4" class="node">
<title>Node4</title>
<polygon fill="none" stroke="#bfbfbf" points="126.5,-226.5 126.5,-283.5 158.5,-283.5 158.5,-226.5 126.5,-226.5"/>
<text text-anchor="middle" x="142.5" y="-271.5" font-family="Helvetica,sans-Serif" font-size="10.00" fill="#000000">File</text>
<polyline fill="none" stroke="#bfbfbf" points="126.5,-264.5 158.5,-264.5 "/>
<text text-anchor="middle" x="142.5" y="-252.5" font-family="Helvetica,sans-Serif" font-size="10.00" fill="#000000"> </text>
<polyline fill="none" stroke="#bfbfbf" points="126.5,-245.5 158.5,-245.5 "/>
<text text-anchor="middle" x="142.5" y="-233.5" font-family="Helvetica,sans-Serif" font-size="10.00" fill="#000000"> </text>
</g>
<!-- Node4&#45;&gt;Node1 -->
<g id="edge3" class="edge">
<title>Node4&#45;&gt;Node1</title>
<path fill="none" stroke="#404040" d="M134.9527,-226.4066C130.8359,-211.111 125.5595,-191.9797 120.5,-175 119.831,-172.755 119.1478,-170.4825 118.4536,-168.1915"/>
<polygon fill="none" stroke="#404040" points="118.4245,-168.0961 112.8413,-163.5323 114.9066,-156.6232 120.4898,-161.187 118.4245,-168.0961"/>
<text text-anchor="middle" x="155.5" y="-200" font-family="Helvetica,sans-Serif" font-size="10.00" fill="#000000"> &#45;inJar</text>
<text text-anchor="middle" x="155.5" y="-189" font-family="Helvetica,sans-Serif" font-size="10.00" fill="#000000">&#45;outJar</text>
<text text-anchor="middle" x="155.5" y="-178" font-family="Helvetica,sans-Serif" font-size="10.00" fill="#000000">&#45;counterFile</text>
</g>
</g>
</svg>
