<?xml version="1.0" encoding="UTF-8" standalone="no"?>
<!DOCTYPE svg PUBLIC "-//W3C//DTD SVG 1.1//EN"
 "http://www.w3.org/Graphics/SVG/1.1/DTD/svg11.dtd">
<!-- Generated by graphviz version 2.40.1 (20161225.0304)
 -->
<!-- Title: org.cobbzilla.util.http.HttpUtil.getResponse Pages: 1 -->
<svg width="617pt" height="137pt"
 viewBox="0.00 0.00 617.00 137.00" xmlns="http://www.w3.org/2000/svg" xmlns:xlink="http://www.w3.org/1999/xlink">
<g id="graph0" class="graph" transform="scale(1 1) rotate(0) translate(4 133)">
<title>org.cobbzilla.util.http.HttpUtil.getResponse</title>
<!-- Node0 -->
<g id="node1" class="node">
<title>Node0</title>
<polygon fill="#bfbfbf" stroke="#000000" points="0,-49.5 0,-79.5 111,-79.5 111,-49.5 0,-49.5"/>
<text text-anchor="start" x="8" y="-67.5" font-family="Helvetica,sans-Serif" font-size="10.00" fill="#000000">org.cobbzilla.util.http.</text>
<text text-anchor="middle" x="55.5" y="-56.5" font-family="Helvetica,sans-Serif" font-size="10.00" fill="#000000">HttpUtil.getResponse</text>
</g>
<!-- Node1 -->
<g id="node2" class="node">
<title>Node1</title>
<g id="a_node2"><a xlink:href="../../d3/d9f/classorg_1_1cobbzilla_1_1util_1_1http_1_1HttpResponseBean_a3335d4b652ab569ab7ecbf336c31536f.html#a3335d4b652ab569ab7ecbf336c31536f" target="_top" xlink:title="org.cobbzilla.util.http.\lHttpResponseBean.addHeader">
<polygon fill="none" stroke="#000000" points="147,-98.5 147,-128.5 299,-128.5 299,-98.5 147,-98.5"/>
<text text-anchor="start" x="155" y="-116.5" font-family="Helvetica,sans-Serif" font-size="10.00" fill="#000000">org.cobbzilla.util.http.</text>
<text text-anchor="middle" x="223" y="-105.5" font-family="Helvetica,sans-Serif" font-size="10.00" fill="#000000">HttpResponseBean.addHeader</text>
</a>
</g>
</g>
<!-- Node0&#45;&gt;Node1 -->
<g id="edge1" class="edge">
<title>Node0&#45;&gt;Node1</title>
<path fill="none" stroke="#191970" d="M107.1223,-79.6014C124.3976,-84.6551 143.8225,-90.3376 161.7594,-95.5848"/>
<polygon fill="#191970" stroke="#191970" points="160.9677,-98.9999 171.5482,-98.4484 162.9331,-92.2814 160.9677,-98.9999"/>
</g>
<!-- Node2 -->
<g id="node3" class="node">
<title>Node2</title>
<g id="a_node3"><a xlink:href="../../d3/d9f/classorg_1_1cobbzilla_1_1util_1_1http_1_1HttpResponseBean_a785b5260bd743d27696b3535a5c3a664.html#a785b5260bd743d27696b3535a5c3a664" target="_top" xlink:title="org.cobbzilla.util.http.\lHttpResponseBean.getEntity">
<polygon fill="none" stroke="#000000" points="151,-49.5 151,-79.5 295,-79.5 295,-49.5 151,-49.5"/>
<text text-anchor="start" x="159" y="-67.5" font-family="Helvetica,sans-Serif" font-size="10.00" fill="#000000">org.cobbzilla.util.http.</text>
<text text-anchor="middle" x="223" y="-56.5" font-family="Helvetica,sans-Serif" font-size="10.00" fill="#000000">HttpResponseBean.getEntity</text>
</a>
</g>
</g>
<!-- Node0&#45;&gt;Node2 -->
<g id="edge2" class="edge">
<title>Node0&#45;&gt;Node2</title>
<path fill="none" stroke="#191970" d="M111.2751,-64.5C120.6692,-64.5 130.5938,-64.5 140.4952,-64.5"/>
<polygon fill="#191970" stroke="#191970" points="140.7819,-68.0001 150.7819,-64.5 140.7819,-61.0001 140.7819,-68.0001"/>
</g>
<!-- Node5 -->
<g id="node6" class="node">
<title>Node5</title>
<g id="a_node6"><a xlink:href="../../d3/d9f/classorg_1_1cobbzilla_1_1util_1_1http_1_1HttpResponseBean_a03c9eb2ea4c3a7524ca698d0b27f3960.html#a03c9eb2ea4c3a7524ca698d0b27f3960" target="_top" xlink:title="org.cobbzilla.util.http.\lHttpResponseBean.setEntity">
<polygon fill="none" stroke="#000000" points="151,-.5 151,-30.5 295,-30.5 295,-.5 151,-.5"/>
<text text-anchor="start" x="159" y="-18.5" font-family="Helvetica,sans-Serif" font-size="10.00" fill="#000000">org.cobbzilla.util.http.</text>
<text text-anchor="middle" x="223" y="-7.5" font-family="Helvetica,sans-Serif" font-size="10.00" fill="#000000">HttpResponseBean.setEntity</text>
</a>
</g>
</g>
<!-- Node0&#45;&gt;Node5 -->
<g id="edge5" class="edge">
<title>Node0&#45;&gt;Node5</title>
<path fill="none" stroke="#191970" d="M107.1223,-49.3986C124.3976,-44.3449 143.8225,-38.6624 161.7594,-33.4152"/>
<polygon fill="#191970" stroke="#191970" points="162.9331,-36.7186 171.5482,-30.5516 160.9677,-30.0001 162.9331,-36.7186"/>
</g>
<!-- Node3 -->
<g id="node4" class="node">
<title>Node3</title>
<g id="a_node4"><a xlink:href="../../dc/d2c/classorg_1_1cobbzilla_1_1util_1_1json_1_1JsonUtil_afa60fed1f5aa26f6b3806c8d7c9cbea5.html#afa60fed1f5aa26f6b3806c8d7c9cbea5" target="_top" xlink:title="org.cobbzilla.util.json.\lJsonUtil.fromJsonOrDie">
<polygon fill="none" stroke="#000000" points="335,-49.5 335,-79.5 457,-79.5 457,-49.5 335,-49.5"/>
<text text-anchor="start" x="343" y="-67.5" font-family="Helvetica,sans-Serif" font-size="10.00" fill="#000000">org.cobbzilla.util.json.</text>
<text text-anchor="middle" x="396" y="-56.5" font-family="Helvetica,sans-Serif" font-size="10.00" fill="#000000">JsonUtil.fromJsonOrDie</text>
</a>
</g>
</g>
<!-- Node2&#45;&gt;Node3 -->
<g id="edge3" class="edge">
<title>Node2&#45;&gt;Node3</title>
<path fill="none" stroke="#191970" d="M295.1149,-64.5C304.9548,-64.5 315.0502,-64.5 324.8725,-64.5"/>
<polygon fill="#191970" stroke="#191970" points="324.9872,-68.0001 334.9872,-64.5 324.9871,-61.0001 324.9872,-68.0001"/>
</g>
<!-- Node4 -->
<g id="node5" class="node">
<title>Node4</title>
<g id="a_node5"><a xlink:href="../../df/dac/classorg_1_1cobbzilla_1_1util_1_1io_1_1FileUtil_a0f510aeca1ca214915d575181815e6ac.html#a0f510aeca1ca214915d575181815e6ac" target="_top" xlink:title="org.cobbzilla.util.io.File\lUtil.toStringOrDie">
<polygon fill="none" stroke="#000000" points="493,-49.5 493,-79.5 609,-79.5 609,-49.5 493,-49.5"/>
<text text-anchor="start" x="501" y="-67.5" font-family="Helvetica,sans-Serif" font-size="10.00" fill="#000000">org.cobbzilla.util.io.File</text>
<text text-anchor="middle" x="551" y="-56.5" font-family="Helvetica,sans-Serif" font-size="10.00" fill="#000000">Util.toStringOrDie</text>
</a>
</g>
</g>
<!-- Node3&#45;&gt;Node4 -->
<g id="edge4" class="edge">
<title>Node3&#45;&gt;Node4</title>
<path fill="none" stroke="#191970" d="M457.2601,-64.5C465.6222,-64.5 474.2484,-64.5 482.7253,-64.5"/>
<polygon fill="#191970" stroke="#191970" points="482.9634,-68.0001 492.9634,-64.5 482.9633,-61.0001 482.9634,-68.0001"/>
</g>
</g>
</svg>
