<?xml version="1.0" encoding="UTF-8" standalone="no"?>
<!DOCTYPE svg PUBLIC "-//W3C//DTD SVG 1.1//EN"
 "http://www.w3.org/Graphics/SVG/1.1/DTD/svg11.dtd">
<!-- Generated by graphviz version 2.40.1 (20161225.0304)
 -->
<!-- Title: org.cobbzilla.util.http.HttpUtil.getStreamResponse Pages: 1 -->
<svg width="334pt" height="186pt"
 viewBox="0.00 0.00 334.00 186.00" xmlns="http://www.w3.org/2000/svg" xmlns:xlink="http://www.w3.org/1999/xlink">
<g id="graph0" class="graph" transform="scale(1 1) rotate(0) translate(4 182)">
<title>org.cobbzilla.util.http.HttpUtil.getStreamResponse</title>
<!-- Node0 -->
<g id="node1" class="node">
<title>Node0</title>
<polygon fill="#bfbfbf" stroke="#000000" points="0,-73.5 0,-103.5 143,-103.5 143,-73.5 0,-73.5"/>
<text text-anchor="start" x="8" y="-91.5" font-family="Helvetica,sans-Serif" font-size="10.00" fill="#000000">org.cobbzilla.util.http.</text>
<text text-anchor="middle" x="71.5" y="-80.5" font-family="Helvetica,sans-Serif" font-size="10.00" fill="#000000">HttpUtil.getStreamResponse</text>
</g>
<!-- Node1 -->
<g id="node2" class="node">
<title>Node1</title>
<g id="a_node2"><a xlink:href="../../d9/d6b/classorg_1_1cobbzilla_1_1util_1_1http_1_1HttpUtil_a77e04ecb730443c9270c369035edb80c.html#a77e04ecb730443c9270c369035edb80c" target="_top" xlink:title="org.cobbzilla.util.http.\lHttpUtil.addStreamHeader">
<polygon fill="none" stroke="#000000" points="186.5,-147.5 186.5,-177.5 318.5,-177.5 318.5,-147.5 186.5,-147.5"/>
<text text-anchor="start" x="194.5" y="-165.5" font-family="Helvetica,sans-Serif" font-size="10.00" fill="#000000">org.cobbzilla.util.http.</text>
<text text-anchor="middle" x="252.5" y="-154.5" font-family="Helvetica,sans-Serif" font-size="10.00" fill="#000000">HttpUtil.addStreamHeader</text>
</a>
</g>
</g>
<!-- Node0&#45;&gt;Node1 -->
<g id="edge1" class="edge">
<title>Node0&#45;&gt;Node1</title>
<path fill="none" stroke="#191970" d="M101.6591,-103.7105C122.9775,-114.1687 152.3827,-128.0078 179,-138.5 183.7943,-140.3899 188.8036,-142.2526 193.8556,-144.0539"/>
<polygon fill="#191970" stroke="#191970" points="192.9835,-147.4561 203.5783,-147.4332 195.2816,-140.8441 192.9835,-147.4561"/>
</g>
<!-- Node2 -->
<g id="node3" class="node">
<title>Node2</title>
<g id="a_node3"><a xlink:href="../../df/dcc/classorg_1_1cobbzilla_1_1util_1_1http_1_1HttpRequestBean_a7e2ff99eb3d51efea783da4f7e2b7842.html#a7e2ff99eb3d51efea783da4f7e2b7842" target="_top" xlink:title="org.cobbzilla.util.http.\lHttpRequestBean.hasStream">
<polygon fill="none" stroke="#000000" points="180,-98.5 180,-128.5 325,-128.5 325,-98.5 180,-98.5"/>
<text text-anchor="start" x="188" y="-116.5" font-family="Helvetica,sans-Serif" font-size="10.00" fill="#000000">org.cobbzilla.util.http.</text>
<text text-anchor="middle" x="252.5" y="-105.5" font-family="Helvetica,sans-Serif" font-size="10.00" fill="#000000">HttpRequestBean.hasStream</text>
</a>
</g>
</g>
<!-- Node0&#45;&gt;Node2 -->
<g id="edge2" class="edge">
<title>Node0&#45;&gt;Node2</title>
<path fill="none" stroke="#191970" d="M143.036,-98.3807C151.7949,-99.5905 160.8019,-100.8345 169.7087,-102.0647"/>
<polygon fill="#191970" stroke="#191970" points="169.3186,-105.544 179.7035,-103.4452 170.2764,-98.6098 169.3186,-105.544"/>
</g>
<!-- Node3 -->
<g id="node4" class="node">
<title>Node3</title>
<g id="a_node4"><a xlink:href="../../d3/d9f/classorg_1_1cobbzilla_1_1util_1_1http_1_1HttpResponseBean_a03c9eb2ea4c3a7524ca698d0b27f3960.html#a03c9eb2ea4c3a7524ca698d0b27f3960" target="_top" xlink:title="org.cobbzilla.util.http.\lHttpResponseBean.setEntity">
<polygon fill="none" stroke="#000000" points="180.5,-49.5 180.5,-79.5 324.5,-79.5 324.5,-49.5 180.5,-49.5"/>
<text text-anchor="start" x="188.5" y="-67.5" font-family="Helvetica,sans-Serif" font-size="10.00" fill="#000000">org.cobbzilla.util.http.</text>
<text text-anchor="middle" x="252.5" y="-56.5" font-family="Helvetica,sans-Serif" font-size="10.00" fill="#000000">HttpResponseBean.setEntity</text>
</a>
</g>
</g>
<!-- Node0&#45;&gt;Node3 -->
<g id="edge3" class="edge">
<title>Node0&#45;&gt;Node3</title>
<path fill="none" stroke="#191970" d="M143.036,-79.0146C151.9385,-77.8341 161.0973,-76.6197 170.1466,-75.4198"/>
<polygon fill="#191970" stroke="#191970" points="170.8444,-78.858 180.2976,-74.0738 169.9242,-71.9187 170.8444,-78.858"/>
</g>
<!-- Node4 -->
<g id="node5" class="node">
<title>Node4</title>
<g id="a_node5"><a xlink:href="../../df/dcc/classorg_1_1cobbzilla_1_1util_1_1http_1_1HttpRequestBean_a0686fc433e0902c281b119f40790f332.html#a0686fc433e0902c281b119f40790f332" target="_top" xlink:title="org.cobbzilla.util.http.\lHttpRequestBean.withHeader">
<polygon fill="none" stroke="#000000" points="179,-.5 179,-30.5 326,-30.5 326,-.5 179,-.5"/>
<text text-anchor="start" x="187" y="-18.5" font-family="Helvetica,sans-Serif" font-size="10.00" fill="#000000">org.cobbzilla.util.http.</text>
<text text-anchor="middle" x="252.5" y="-7.5" font-family="Helvetica,sans-Serif" font-size="10.00" fill="#000000">HttpRequestBean.withHeader</text>
</a>
</g>
</g>
<!-- Node0&#45;&gt;Node4 -->
<g id="edge4" class="edge">
<title>Node0&#45;&gt;Node4</title>
<path fill="none" stroke="#191970" d="M103.1601,-73.4397C124.4012,-63.5653 153.1233,-50.653 179,-40.5 184.5462,-38.3239 190.3685,-36.1539 196.2061,-34.0528"/>
<polygon fill="#191970" stroke="#191970" points="197.736,-37.2244 205.9989,-30.5929 195.4041,-30.6242 197.736,-37.2244"/>
</g>
</g>
</svg>
