<?xml version="1.0" encoding="UTF-8" standalone="no"?>
<!DOCTYPE svg PUBLIC "-//W3C//DTD SVG 1.1//EN"
 "http://www.w3.org/Graphics/SVG/1.1/DTD/svg11.dtd">
<!-- Generated by graphviz version 2.40.1 (20161225.0304)
 -->
<!-- Title: org.cobbzilla.util.http.HttpUtil.upload Pages: 1 -->
<svg width="328pt" height="88pt"
 viewBox="0.00 0.00 328.00 88.00" xmlns="http://www.w3.org/2000/svg" xmlns:xlink="http://www.w3.org/1999/xlink">
<g id="graph0" class="graph" transform="scale(1 1) rotate(0) translate(4 84)">
<title>org.cobbzilla.util.http.HttpUtil.upload</title>
<!-- Node0 -->
<g id="node1" class="node">
<title>Node0</title>
<polygon fill="#bfbfbf" stroke="#000000" points="0,-24.5 0,-54.5 110,-54.5 110,-24.5 0,-24.5"/>
<text text-anchor="start" x="8" y="-42.5" font-family="Helvetica,sans-Serif" font-size="10.00" fill="#000000">org.cobbzilla.util.http.</text>
<text text-anchor="middle" x="55" y="-31.5" font-family="Helvetica,sans-Serif" font-size="10.00" fill="#000000">HttpUtil.upload</text>
</g>
<!-- Node1 -->
<g id="node2" class="node">
<title>Node1</title>
<g id="a_node2"><a xlink:href="../../d3/d9f/classorg_1_1cobbzilla_1_1util_1_1http_1_1HttpResponseBean_a18ff799dc1d6240f302aa01660e1e551.html#a18ff799dc1d6240f302aa01660e1e551" target="_top" xlink:title="org.cobbzilla.util.http.\lHttpResponseBean.setEntityBytes">
<polygon fill="none" stroke="#000000" points="148,-49.5 148,-79.5 318,-79.5 318,-49.5 148,-49.5"/>
<text text-anchor="start" x="156" y="-67.5" font-family="Helvetica,sans-Serif" font-size="10.00" fill="#000000">org.cobbzilla.util.http.</text>
<text text-anchor="middle" x="233" y="-56.5" font-family="Helvetica,sans-Serif" font-size="10.00" fill="#000000">HttpResponseBean.setEntityBytes</text>
</a>
</g>
</g>
<!-- Node0&#45;&gt;Node1 -->
<g id="edge1" class="edge">
<title>Node0&#45;&gt;Node1</title>
<path fill="none" stroke="#191970" d="M110.3446,-47.2731C119.1134,-48.5047 128.3933,-49.8081 137.7659,-51.1244"/>
<polygon fill="#191970" stroke="#191970" points="137.5631,-54.6302 147.9528,-52.5552 138.5368,-47.6983 137.5631,-54.6302"/>
</g>
<!-- Node2 -->
<g id="node3" class="node">
<title>Node2</title>
<g id="a_node3"><a xlink:href="../../d3/d9f/classorg_1_1cobbzilla_1_1util_1_1http_1_1HttpResponseBean_ade1e7aa41e4584ac61f88d1b74d3d15d.html#ade1e7aa41e4584ac61f88d1b74d3d15d" target="_top" xlink:title="org.cobbzilla.util.http.\lHttpResponseBean.setHttpHeaders">
<polygon fill="none" stroke="#000000" points="146,-.5 146,-30.5 320,-30.5 320,-.5 146,-.5"/>
<text text-anchor="start" x="154" y="-18.5" font-family="Helvetica,sans-Serif" font-size="10.00" fill="#000000">org.cobbzilla.util.http.</text>
<text text-anchor="middle" x="233" y="-7.5" font-family="Helvetica,sans-Serif" font-size="10.00" fill="#000000">HttpResponseBean.setHttpHeaders</text>
</a>
</g>
</g>
<!-- Node0&#45;&gt;Node2 -->
<g id="edge2" class="edge">
<title>Node0&#45;&gt;Node2</title>
<path fill="none" stroke="#191970" d="M110.3446,-32.0378C118.5752,-30.9281 127.2561,-29.7576 136.0413,-28.5731"/>
<polygon fill="#191970" stroke="#191970" points="136.5434,-32.0372 145.986,-27.2322 135.6079,-25.0999 136.5434,-32.0372"/>
</g>
</g>
</svg>
