<?xml version="1.0" encoding="UTF-8" standalone="no"?>
<!DOCTYPE svg PUBLIC "-//W3C//DTD SVG 1.1//EN"
 "http://www.w3.org/Graphics/SVG/1.1/DTD/svg11.dtd">
<!-- Generated by graphviz version 2.40.1 (20161225.0304)
 -->
<!-- Title: org.cobbzilla.util.http.HttpUtil.addStreamHeader Pages: 1 -->
<svg width="466pt" height="39pt"
 viewBox="0.00 0.00 466.00 39.00" xmlns="http://www.w3.org/2000/svg" xmlns:xlink="http://www.w3.org/1999/xlink">
<g id="graph0" class="graph" transform="scale(1 1) rotate(0) translate(4 35)">
<title>org.cobbzilla.util.http.HttpUtil.addStreamHeader</title>
<!-- Node1 -->
<g id="node1" class="node">
<title>Node1</title>
<polygon fill="#bfbfbf" stroke="#000000" points="0,-.5 0,-30.5 132,-30.5 132,-.5 0,-.5"/>
<text text-anchor="start" x="8" y="-18.5" font-family="Helvetica,sans-Serif" font-size="10.00" fill="#000000">org.cobbzilla.util.http.</text>
<text text-anchor="middle" x="66" y="-7.5" font-family="Helvetica,sans-Serif" font-size="10.00" fill="#000000">HttpUtil.addStreamHeader</text>
</g>
<!-- Node2 -->
<g id="node2" class="node">
<title>Node2</title>
<g id="a_node2"><a xlink:href="../../d9/d6b/classorg_1_1cobbzilla_1_1util_1_1http_1_1HttpUtil_a72c117e88566027a8ad8437f3396095d.html#a72c117e88566027a8ad8437f3396095d" target="_top" xlink:title="org.cobbzilla.util.http.\lHttpUtil.getStreamResponse">
<polygon fill="none" stroke="#000000" points="168,-.5 168,-30.5 311,-30.5 311,-.5 168,-.5"/>
<text text-anchor="start" x="176" y="-18.5" font-family="Helvetica,sans-Serif" font-size="10.00" fill="#000000">org.cobbzilla.util.http.</text>
<text text-anchor="middle" x="239.5" y="-7.5" font-family="Helvetica,sans-Serif" font-size="10.00" fill="#000000">HttpUtil.getStreamResponse</text>
</a>
</g>
</g>
<!-- Node1&#45;&gt;Node2 -->
<g id="edge1" class="edge">
<title>Node1&#45;&gt;Node2</title>
<path fill="none" stroke="#191970" d="M142.3303,-15.5C150.8001,-15.5 159.4043,-15.5 167.8137,-15.5"/>
<polygon fill="#191970" stroke="#191970" points="142.0879,-12.0001 132.0879,-15.5 142.0878,-19.0001 142.0879,-12.0001"/>
</g>
<!-- Node3 -->
<g id="node3" class="node">
<title>Node3</title>
<g id="a_node3"><a xlink:href="../../d9/d6b/classorg_1_1cobbzilla_1_1util_1_1http_1_1HttpUtil_a79493a20601d122c25f84a7fc0f63e8c.html#a79493a20601d122c25f84a7fc0f63e8c" target="_top" xlink:title="org.cobbzilla.util.http.\lHttpUtil.getResponse">
<polygon fill="none" stroke="#000000" points="347,-.5 347,-30.5 458,-30.5 458,-.5 347,-.5"/>
<text text-anchor="start" x="355" y="-18.5" font-family="Helvetica,sans-Serif" font-size="10.00" fill="#000000">org.cobbzilla.util.http.</text>
<text text-anchor="middle" x="402.5" y="-7.5" font-family="Helvetica,sans-Serif" font-size="10.00" fill="#000000">HttpUtil.getResponse</text>
</a>
</g>
</g>
<!-- Node2&#45;&gt;Node3 -->
<g id="edge2" class="edge">
<title>Node2&#45;&gt;Node3</title>
<path fill="none" stroke="#191970" d="M321.718,-15.5C330.1363,-15.5 338.5443,-15.5 346.5828,-15.5"/>
<polygon fill="#191970" stroke="#191970" points="321.4687,-12.0001 311.4686,-15.5 321.4686,-19.0001 321.4687,-12.0001"/>
</g>
</g>
</svg>
