<?xml version="1.0" encoding="UTF-8" standalone="no"?>
<!DOCTYPE svg PUBLIC "-//W3C//DTD SVG 1.1//EN"
 "http://www.w3.org/Graphics/SVG/1.1/DTD/svg11.dtd">
<!-- Generated by graphviz version 2.40.1 (20161225.0304)
 -->
<!-- Title: org.cobbzilla.util.http.HttpUtil.isOk Pages: 1 -->
<svg width="571pt" height="124pt"
 viewBox="0.00 0.00 571.00 124.00" xmlns="http://www.w3.org/2000/svg" xmlns:xlink="http://www.w3.org/1999/xlink">
<g id="graph0" class="graph" transform="scale(1 1) rotate(0) translate(4 120)">
<title>org.cobbzilla.util.http.HttpUtil.isOk</title>
<!-- Node0 -->
<g id="node1" class="node">
<title>Node0</title>
<polygon fill="#bfbfbf" stroke="#000000" points="0,-33.5 0,-63.5 110,-63.5 110,-33.5 0,-33.5"/>
<text text-anchor="start" x="8" y="-51.5" font-family="Helvetica,sans-Serif" font-size="10.00" fill="#000000">org.cobbzilla.util.http.</text>
<text text-anchor="middle" x="55" y="-40.5" font-family="Helvetica,sans-Serif" font-size="10.00" fill="#000000">HttpUtil.isOk</text>
</g>
<!-- Node1 -->
<g id="node2" class="node">
<title>Node1</title>
<g id="a_node2"><a xlink:href="../../d9/d6b/classorg_1_1cobbzilla_1_1util_1_1http_1_1HttpUtil_a96da447913f0bdfe5915e584a576ebe6.html#a96da447913f0bdfe5915e584a576ebe6" target="_top" xlink:title="org.cobbzilla.util.http.\lHttpUtil.isOk">
<polygon fill="none" stroke="#000000" points="153.5,-67.5 153.5,-97.5 263.5,-97.5 263.5,-67.5 153.5,-67.5"/>
<text text-anchor="start" x="161.5" y="-85.5" font-family="Helvetica,sans-Serif" font-size="10.00" fill="#000000">org.cobbzilla.util.http.</text>
<text text-anchor="middle" x="208.5" y="-74.5" font-family="Helvetica,sans-Serif" font-size="10.00" fill="#000000">HttpUtil.isOk</text>
</a>
</g>
</g>
<!-- Node0&#45;&gt;Node1 -->
<g id="edge1" class="edge">
<title>Node0&#45;&gt;Node1</title>
<path fill="none" stroke="#191970" d="M110.417,-60.7748C121.134,-63.1486 132.4538,-65.6559 143.4459,-68.0906"/>
<polygon fill="#191970" stroke="#191970" points="142.9015,-71.5548 153.4218,-70.3003 144.4153,-64.7204 142.9015,-71.5548"/>
</g>
<!-- Node4 -->
<g id="node5" class="node">
<title>Node4</title>
<g id="a_node5"><a xlink:href="../../dd/d5e/classorg_1_1cobbzilla_1_1util_1_1system_1_1Sleep_a7a160ebe6f2659f9eb9d80d6554ca9a8.html#a7a160ebe6f2659f9eb9d80d6554ca9a8" target="_top" xlink:title="sleep for 100ms and throw an exception if interrupted ">
<polygon fill="none" stroke="#000000" points="146,-.5 146,-30.5 271,-30.5 271,-.5 146,-.5"/>
<text text-anchor="start" x="154" y="-18.5" font-family="Helvetica,sans-Serif" font-size="10.00" fill="#000000">org.cobbzilla.util.system.</text>
<text text-anchor="middle" x="208.5" y="-7.5" font-family="Helvetica,sans-Serif" font-size="10.00" fill="#000000">Sleep.sleep</text>
</a>
</g>
</g>
<!-- Node0&#45;&gt;Node4 -->
<g id="edge5" class="edge">
<title>Node0&#45;&gt;Node4</title>
<path fill="none" stroke="#191970" d="M110.417,-36.5862C118.6879,-34.8081 127.3178,-32.9528 135.879,-31.1123"/>
<polygon fill="#191970" stroke="#191970" points="136.831,-34.4877 145.872,-28.964 135.3597,-27.6441 136.831,-34.4877"/>
</g>
<!-- Node1&#45;&gt;Node1 -->
<g id="edge4" class="edge">
<title>Node1&#45;&gt;Node1</title>
<path fill="none" stroke="#191970" d="M182.0109,-97.659C175.6234,-107.0566 184.4531,-116 208.5,-116 223.1536,-116 232.1564,-112.679 235.5086,-107.9579"/>
<polygon fill="#191970" stroke="#191970" points="238.9885,-107.47 234.9891,-97.659 231.9974,-107.8226 238.9885,-107.47"/>
</g>
<!-- Node2 -->
<g id="node3" class="node">
<title>Node2</title>
<g id="a_node3"><a xlink:href="../../de/d2a/classorg_1_1cobbzilla_1_1util_1_1http_1_1URIUtil_a00093c83181939c2dcc8da04b0b98804.html#a00093c83181939c2dcc8da04b0b98804" target="_top" xlink:title="org.cobbzilla.util.http.\lURIUtil.getHost">
<polygon fill="none" stroke="#000000" points="307,-67.5 307,-97.5 417,-97.5 417,-67.5 307,-67.5"/>
<text text-anchor="start" x="315" y="-85.5" font-family="Helvetica,sans-Serif" font-size="10.00" fill="#000000">org.cobbzilla.util.http.</text>
<text text-anchor="middle" x="362" y="-74.5" font-family="Helvetica,sans-Serif" font-size="10.00" fill="#000000">URIUtil.getHost</text>
</a>
</g>
</g>
<!-- Node1&#45;&gt;Node2 -->
<g id="edge2" class="edge">
<title>Node1&#45;&gt;Node2</title>
<path fill="none" stroke="#191970" d="M263.917,-82.5C274.5247,-82.5 285.7229,-82.5 296.6093,-82.5"/>
<polygon fill="#191970" stroke="#191970" points="296.9218,-86.0001 306.9218,-82.5 296.9217,-79.0001 296.9218,-86.0001"/>
</g>
<!-- Node3 -->
<g id="node4" class="node">
<title>Node3</title>
<g id="a_node4"><a xlink:href="../../de/d2a/classorg_1_1cobbzilla_1_1util_1_1http_1_1URIUtil_a465007e3047f4b96ccc02c4b2f709b7f.html#a465007e3047f4b96ccc02c4b2f709b7f" target="_top" xlink:title="org.cobbzilla.util.http.\lURIUtil.toUri">
<polygon fill="none" stroke="#000000" points="453,-67.5 453,-97.5 563,-97.5 563,-67.5 453,-67.5"/>
<text text-anchor="start" x="461" y="-85.5" font-family="Helvetica,sans-Serif" font-size="10.00" fill="#000000">org.cobbzilla.util.http.</text>
<text text-anchor="middle" x="508" y="-74.5" font-family="Helvetica,sans-Serif" font-size="10.00" fill="#000000">URIUtil.toUri</text>
</a>
</g>
</g>
<!-- Node2&#45;&gt;Node3 -->
<g id="edge3" class="edge">
<title>Node2&#45;&gt;Node3</title>
<path fill="none" stroke="#191970" d="M417.1963,-82.5C425.4633,-82.5 434.0546,-82.5 442.5101,-82.5"/>
<polygon fill="#191970" stroke="#191970" points="442.7256,-86.0001 452.7256,-82.5 442.7256,-79.0001 442.7256,-86.0001"/>
</g>
<!-- Node4&#45;&gt;Node4 -->
<g id="edge6" class="edge">
<title>Node4&#45;&gt;Node4</title>
<path fill="none" stroke="#191970" d="M182.0109,-30.659C175.6234,-40.0566 184.4531,-49 208.5,-49 223.1536,-49 232.1564,-45.679 235.5086,-40.9579"/>
<polygon fill="#191970" stroke="#191970" points="238.9885,-40.47 234.9891,-30.659 231.9974,-40.8226 238.9885,-40.47"/>
</g>
</g>
</svg>
