<?xml version="1.0" encoding="UTF-8" standalone="no"?>
<!DOCTYPE svg PUBLIC "-//W3C//DTD SVG 1.1//EN"
 "http://www.w3.org/Graphics/SVG/1.1/DTD/svg11.dtd">
<!-- Generated by graphviz version 2.40.1 (20161225.0304)
 -->
<!-- Title: org.cobbzilla.util.security.MD5Util.MD5InputStream.md5hex Pages: 1 -->
<svg width="492pt" height="39pt"
 viewBox="0.00 0.00 492.00 39.00" xmlns="http://www.w3.org/2000/svg" xmlns:xlink="http://www.w3.org/1999/xlink">
<g id="graph0" class="graph" transform="scale(1 1) rotate(0) translate(4 35)">
<title>org.cobbzilla.util.security.MD5Util.MD5InputStream.md5hex</title>
<!-- Node0 -->
<g id="node1" class="node">
<title>Node0</title>
<polygon fill="#bfbfbf" stroke="#000000" points="0,-.5 0,-30.5 167,-30.5 167,-.5 0,-.5"/>
<text text-anchor="start" x="8" y="-18.5" font-family="Helvetica,sans-Serif" font-size="10.00" fill="#000000">org.cobbzilla.util.security.</text>
<text text-anchor="middle" x="83.5" y="-7.5" font-family="Helvetica,sans-Serif" font-size="10.00" fill="#000000">MD5Util.MD5InputStream.md5hex</text>
</g>
<!-- Node1 -->
<g id="node2" class="node">
<title>Node1</title>
<g id="a_node2"><a xlink:href="../../d9/d69/classorg_1_1cobbzilla_1_1util_1_1security_1_1MD5Util_a2e36332fa2be6009bd1b5bf3733b0eb2.html#a2e36332fa2be6009bd1b5bf3733b0eb2" target="_top" xlink:title="org.cobbzilla.util.security.\lMD5Util.md5hex">
<polygon fill="none" stroke="#000000" points="203,-.5 203,-30.5 331,-30.5 331,-.5 203,-.5"/>
<text text-anchor="start" x="211" y="-18.5" font-family="Helvetica,sans-Serif" font-size="10.00" fill="#000000">org.cobbzilla.util.security.</text>
<text text-anchor="middle" x="267" y="-7.5" font-family="Helvetica,sans-Serif" font-size="10.00" fill="#000000">MD5Util.md5hex</text>
</a>
</g>
</g>
<!-- Node0&#45;&gt;Node1 -->
<g id="edge1" class="edge">
<title>Node0&#45;&gt;Node1</title>
<path fill="none" stroke="#191970" d="M167.1953,-15.5C175.7297,-15.5 184.3579,-15.5 192.7813,-15.5"/>
<polygon fill="#191970" stroke="#191970" points="192.9344,-19.0001 202.9343,-15.5 192.9343,-12.0001 192.9344,-19.0001"/>
</g>
<!-- Node2 -->
<g id="node3" class="node">
<title>Node2</title>
<g id="a_node3"><a xlink:href="../../db/d9f/classorg_1_1cobbzilla_1_1util_1_1string_1_1StringUtil_afa3e20cacadb59529d8a3f5a104365b4.html#afa3e20cacadb59529d8a3f5a104365b4" target="_top" xlink:title="org.cobbzilla.util.string.\lStringUtil.tohex">
<polygon fill="none" stroke="#000000" points="367,-.5 367,-30.5 484,-30.5 484,-.5 367,-.5"/>
<text text-anchor="start" x="375" y="-18.5" font-family="Helvetica,sans-Serif" font-size="10.00" fill="#000000">org.cobbzilla.util.string.</text>
<text text-anchor="middle" x="425.5" y="-7.5" font-family="Helvetica,sans-Serif" font-size="10.00" fill="#000000">StringUtil.tohex</text>
</a>
</g>
</g>
<!-- Node1&#45;&gt;Node2 -->
<g id="edge2" class="edge">
<title>Node1&#45;&gt;Node2</title>
<path fill="none" stroke="#191970" d="M331.0111,-15.5C339.4404,-15.5 348.1087,-15.5 356.6149,-15.5"/>
<polygon fill="#191970" stroke="#191970" points="356.8833,-19.0001 366.8833,-15.5 356.8833,-12.0001 356.8833,-19.0001"/>
</g>
</g>
</svg>
