<?xml version="1.0" encoding="UTF-8" standalone="no"?>
<!DOCTYPE svg PUBLIC "-//W3C//DTD SVG 1.1//EN"
 "http://www.w3.org/Graphics/SVG/1.1/DTD/svg11.dtd">
<!-- Generated by graphviz version 2.40.1 (20161225.0304)
 -->
<!-- Title: org.cobbzilla.util.json.main.JsonEditor.run Pages: 1 -->
<svg width="659pt" height="228pt"
 viewBox="0.00 0.00 659.00 228.00" xmlns="http://www.w3.org/2000/svg" xmlns:xlink="http://www.w3.org/1999/xlink">
<g id="graph0" class="graph" transform="scale(1 1) rotate(0) translate(4 224)">
<title>org.cobbzilla.util.json.main.JsonEditor.run</title>
<!-- Node0 -->
<g id="node1" class="node">
<title>Node0</title>
<polygon fill="#bfbfbf" stroke="#000000" points="0,-115.5 0,-145.5 135,-145.5 135,-115.5 0,-115.5"/>
<text text-anchor="start" x="8" y="-133.5" font-family="Helvetica,sans-Serif" font-size="10.00" fill="#000000">org.cobbzilla.util.json.main.</text>
<text text-anchor="middle" x="67.5" y="-122.5" font-family="Helvetica,sans-Serif" font-size="10.00" fill="#000000">JsonEditor.run</text>
</g>
<!-- Node1 -->
<g id="node2" class="node">
<title>Node1</title>
<g id="a_node2"><a xlink:href="../../d0/d44/classorg_1_1cobbzilla_1_1util_1_1json_1_1JsonEdit_a89997f01f59da2657d094cff40f28ba4.html#a89997f01f59da2657d094cff40f28ba4" target="_top" xlink:title="org.cobbzilla.util.json.\lJsonEdit.edit">
<polygon fill="none" stroke="#000000" points="193.5,-189.5 193.5,-219.5 304.5,-219.5 304.5,-189.5 193.5,-189.5"/>
<text text-anchor="start" x="201.5" y="-207.5" font-family="Helvetica,sans-Serif" font-size="10.00" fill="#000000">org.cobbzilla.util.json.</text>
<text text-anchor="middle" x="249" y="-196.5" font-family="Helvetica,sans-Serif" font-size="10.00" fill="#000000">JsonEdit.edit</text>
</a>
</g>
</g>
<!-- Node0&#45;&gt;Node1 -->
<g id="edge1" class="edge">
<title>Node0&#45;&gt;Node1</title>
<path fill="none" stroke="#191970" d="M95.9764,-145.7033C116.4799,-156.2902 144.996,-170.2862 171,-180.5 176.0277,-182.4748 181.2879,-184.3936 186.5997,-186.2295"/>
<polygon fill="#191970" stroke="#191970" points="185.5839,-189.5803 196.1778,-189.4384 187.8077,-182.9429 185.5839,-189.5803"/>
</g>
<!-- Node3 -->
<g id="node4" class="node">
<title>Node3</title>
<g id="a_node4"><a xlink:href="../../d2/d5d/classorg_1_1cobbzilla_1_1util_1_1json_1_1main_1_1JsonEditorOptions_a5fc8d58c76c9786550d7b2e06b7fb56d.html#a5fc8d58c76c9786550d7b2e06b7fb56d" target="_top" xlink:title="org.cobbzilla.util.json.main.\lJsonEditorOptions.getInputJson">
<polygon fill="none" stroke="#000000" points="171,-140.5 171,-170.5 327,-170.5 327,-140.5 171,-140.5"/>
<text text-anchor="start" x="179" y="-158.5" font-family="Helvetica,sans-Serif" font-size="10.00" fill="#000000">org.cobbzilla.util.json.main.</text>
<text text-anchor="middle" x="249" y="-147.5" font-family="Helvetica,sans-Serif" font-size="10.00" fill="#000000">JsonEditorOptions.getInputJson</text>
</a>
</g>
</g>
<!-- Node0&#45;&gt;Node3 -->
<g id="edge3" class="edge">
<title>Node0&#45;&gt;Node3</title>
<path fill="none" stroke="#191970" d="M135.0839,-139.8091C143.487,-140.9665 152.1742,-142.1631 160.83,-143.3554"/>
<polygon fill="#191970" stroke="#191970" points="160.5738,-146.853 170.9579,-144.7504 161.529,-139.9185 160.5738,-146.853"/>
</g>
<!-- Node5 -->
<g id="node6" class="node">
<title>Node5</title>
<g id="a_node6"><a xlink:href="../../d2/d5d/classorg_1_1cobbzilla_1_1util_1_1json_1_1main_1_1JsonEditorOptions_a138efbda14d69af028ffd80064437fee.html#a138efbda14d69af028ffd80064437fee" target="_top" xlink:title="org.cobbzilla.util.json.main.\lJsonEditorOptions.hasOutfile">
<polygon fill="none" stroke="#000000" points="177,-91.5 177,-121.5 321,-121.5 321,-91.5 177,-91.5"/>
<text text-anchor="start" x="185" y="-109.5" font-family="Helvetica,sans-Serif" font-size="10.00" fill="#000000">org.cobbzilla.util.json.main.</text>
<text text-anchor="middle" x="249" y="-98.5" font-family="Helvetica,sans-Serif" font-size="10.00" fill="#000000">JsonEditorOptions.hasOutfile</text>
</a>
</g>
</g>
<!-- Node0&#45;&gt;Node5 -->
<g id="edge5" class="edge">
<title>Node0&#45;&gt;Node5</title>
<path fill="none" stroke="#191970" d="M135.0839,-121.5633C145.3949,-120.1998 156.1335,-118.7799 166.7172,-117.3804"/>
<polygon fill="#191970" stroke="#191970" points="167.343,-120.8282 176.7979,-116.0474 166.4253,-113.8886 167.343,-120.8282"/>
</g>
<!-- Node6 -->
<g id="node7" class="node">
<title>Node6</title>
<g id="a_node7"><a xlink:href="../../df/dac/classorg_1_1cobbzilla_1_1util_1_1io_1_1FileUtil_a7bd7d6a564be7a6169daa8eb5b33e9b7.html#a7bd7d6a564be7a6169daa8eb5b33e9b7" target="_top" xlink:title="org.cobbzilla.util.io.File\lUtil.toFile">
<polygon fill="none" stroke="#000000" points="191,-42.5 191,-72.5 307,-72.5 307,-42.5 191,-42.5"/>
<text text-anchor="start" x="199" y="-60.5" font-family="Helvetica,sans-Serif" font-size="10.00" fill="#000000">org.cobbzilla.util.io.File</text>
<text text-anchor="middle" x="249" y="-49.5" font-family="Helvetica,sans-Serif" font-size="10.00" fill="#000000">Util.toFile</text>
</a>
</g>
</g>
<!-- Node0&#45;&gt;Node6 -->
<g id="edge6" class="edge">
<title>Node0&#45;&gt;Node6</title>
<path fill="none" stroke="#191970" d="M97.415,-115.4242C117.8581,-105.4214 145.7224,-92.3685 171,-82.5 176.8243,-80.2262 182.9489,-77.9959 189.0988,-75.8614"/>
<polygon fill="#191970" stroke="#191970" points="190.3961,-79.1173 198.7441,-72.5934 188.1498,-72.4875 190.3961,-79.1173"/>
</g>
<!-- Node2 -->
<g id="node3" class="node">
<title>Node2</title>
<g id="a_node3"><a xlink:href="../../dc/d2c/classorg_1_1cobbzilla_1_1util_1_1json_1_1JsonUtil_a584c0d348fcc2caa471f4f69a9085353.html#a584c0d348fcc2caa471f4f69a9085353" target="_top" xlink:title="org.cobbzilla.util.json.\lJsonUtil.toString">
<polygon fill="none" stroke="#000000" points="375.5,-189.5 375.5,-219.5 486.5,-219.5 486.5,-189.5 375.5,-189.5"/>
<text text-anchor="start" x="383.5" y="-207.5" font-family="Helvetica,sans-Serif" font-size="10.00" fill="#000000">org.cobbzilla.util.json.</text>
<text text-anchor="middle" x="431" y="-196.5" font-family="Helvetica,sans-Serif" font-size="10.00" fill="#000000">JsonUtil.toString</text>
</a>
</g>
</g>
<!-- Node1&#45;&gt;Node2 -->
<g id="edge2" class="edge">
<title>Node1&#45;&gt;Node2</title>
<path fill="none" stroke="#191970" d="M304.5949,-204.5C323.7342,-204.5 345.3489,-204.5 365.2213,-204.5"/>
<polygon fill="#191970" stroke="#191970" points="365.4322,-208.0001 375.4322,-204.5 365.4321,-201.0001 365.4322,-208.0001"/>
</g>
<!-- Node4 -->
<g id="node5" class="node">
<title>Node4</title>
<g id="a_node5"><a xlink:href="../../d7/d90/classorg_1_1cobbzilla_1_1util_1_1main_1_1BaseMainOptions_abf5fb8556b3ab19b688dde4a245cdbfc.html#abf5fb8556b3ab19b688dde4a245cdbfc" target="_top" xlink:title="org.cobbzilla.util.main.\lBaseMainOptions.inStream">
<polygon fill="none" stroke="#000000" points="363,-140.5 363,-170.5 499,-170.5 499,-140.5 363,-140.5"/>
<text text-anchor="start" x="371" y="-158.5" font-family="Helvetica,sans-Serif" font-size="10.00" fill="#000000">org.cobbzilla.util.main.</text>
<text text-anchor="middle" x="431" y="-147.5" font-family="Helvetica,sans-Serif" font-size="10.00" fill="#000000">BaseMainOptions.inStream</text>
</a>
</g>
</g>
<!-- Node3&#45;&gt;Node4 -->
<g id="edge4" class="edge">
<title>Node3&#45;&gt;Node4</title>
<path fill="none" stroke="#191970" d="M327.2406,-155.5C335.6655,-155.5 344.2392,-155.5 352.6651,-155.5"/>
<polygon fill="#191970" stroke="#191970" points="352.8498,-159.0001 362.8497,-155.5 352.8497,-152.0001 352.8498,-159.0001"/>
</g>
<!-- Node7 -->
<g id="node8" class="node">
<title>Node7</title>
<g id="a_node8"><a xlink:href="../../df/dac/classorg_1_1cobbzilla_1_1util_1_1io_1_1FileUtil_a10f84be9d8fbe17dad8bf91e5e68b699.html#a10f84be9d8fbe17dad8bf91e5e68b699" target="_top" xlink:title="org.cobbzilla.util.io.File\lUtil.getDefaultTempDir">
<polygon fill="none" stroke="#000000" points="372.5,-67.5 372.5,-97.5 489.5,-97.5 489.5,-67.5 372.5,-67.5"/>
<text text-anchor="start" x="380.5" y="-85.5" font-family="Helvetica,sans-Serif" font-size="10.00" fill="#000000">org.cobbzilla.util.io.File</text>
<text text-anchor="middle" x="431" y="-74.5" font-family="Helvetica,sans-Serif" font-size="10.00" fill="#000000">Util.getDefaultTempDir</text>
</a>
</g>
</g>
<!-- Node6&#45;&gt;Node7 -->
<g id="edge7" class="edge">
<title>Node6&#45;&gt;Node7</title>
<path fill="none" stroke="#191970" d="M307.0863,-65.4789C324.6415,-67.8903 344.0853,-70.5612 362.2658,-73.0585"/>
<polygon fill="#191970" stroke="#191970" points="361.8328,-76.5318 372.2161,-74.4253 362.7855,-69.5969 361.8328,-76.5318"/>
</g>
<!-- Node9 -->
<g id="node10" class="node">
<title>Node9</title>
<g id="a_node10"><a xlink:href="../../df/dac/classorg_1_1cobbzilla_1_1util_1_1io_1_1FileUtil_a43aac0bb53ce0212efc2e57cb1024722.html#a43aac0bb53ce0212efc2e57cb1024722" target="_top" xlink:title="org.cobbzilla.util.io.File\lUtil.temp">
<polygon fill="none" stroke="#000000" points="373,-.5 373,-30.5 489,-30.5 489,-.5 373,-.5"/>
<text text-anchor="start" x="381" y="-18.5" font-family="Helvetica,sans-Serif" font-size="10.00" fill="#000000">org.cobbzilla.util.io.File</text>
<text text-anchor="middle" x="431" y="-7.5" font-family="Helvetica,sans-Serif" font-size="10.00" fill="#000000">Util.temp</text>
</a>
</g>
</g>
<!-- Node6&#45;&gt;Node9 -->
<g id="edge10" class="edge">
<title>Node6&#45;&gt;Node9</title>
<path fill="none" stroke="#191970" d="M307.0863,-44.0955C324.8991,-39.9848 344.6564,-35.4254 363.0654,-31.1772"/>
<polygon fill="#191970" stroke="#191970" points="363.8844,-34.5803 372.8413,-28.9212 362.3103,-27.7596 363.8844,-34.5803"/>
</g>
<!-- Node8 -->
<g id="node9" class="node">
<title>Node8</title>
<g id="a_node9"><a xlink:href="../../df/dac/classorg_1_1cobbzilla_1_1util_1_1io_1_1FileUtil_a53028c20e45f972c04978ac736e5c39c.html#a53028c20e45f972c04978ac736e5c39c" target="_top" xlink:title="org.cobbzilla.util.io.File\lUtil.mkdirOrDie">
<polygon fill="none" stroke="#000000" points="535,-67.5 535,-97.5 651,-97.5 651,-67.5 535,-67.5"/>
<text text-anchor="start" x="543" y="-85.5" font-family="Helvetica,sans-Serif" font-size="10.00" fill="#000000">org.cobbzilla.util.io.File</text>
<text text-anchor="middle" x="593" y="-74.5" font-family="Helvetica,sans-Serif" font-size="10.00" fill="#000000">Util.mkdirOrDie</text>
</a>
</g>
</g>
<!-- Node7&#45;&gt;Node8 -->
<g id="edge8" class="edge">
<title>Node7&#45;&gt;Node8</title>
<path fill="none" stroke="#191970" d="M489.944,-82.5C501.2794,-82.5 513.2386,-82.5 524.8375,-82.5"/>
<polygon fill="#191970" stroke="#191970" points="524.9129,-86.0001 534.9129,-82.5 524.9129,-79.0001 524.9129,-86.0001"/>
</g>
<!-- Node8&#45;&gt;Node8 -->
<g id="edge9" class="edge">
<title>Node8&#45;&gt;Node8</title>
<path fill="none" stroke="#191970" d="M564.7682,-97.659C557.9605,-107.0566 567.3711,-116 593,-116 608.6176,-116 618.2128,-112.679 621.7854,-107.9579"/>
<polygon fill="#191970" stroke="#191970" points="625.2636,-107.4567 621.2318,-97.659 618.2737,-107.8325 625.2636,-107.4567"/>
</g>
<!-- Node9&#45;&gt;Node9 -->
<g id="edge11" class="edge">
<title>Node9&#45;&gt;Node9</title>
<path fill="none" stroke="#191970" d="M402.7682,-30.659C395.9605,-40.0566 405.3711,-49 431,-49 446.6176,-49 456.2128,-45.679 459.7854,-40.9579"/>
<polygon fill="#191970" stroke="#191970" points="463.2636,-40.4567 459.2318,-30.659 456.2737,-40.8325 463.2636,-40.4567"/>
</g>
</g>
</svg>
