<?xml version="1.0" encoding="UTF-8" standalone="no"?>
<!DOCTYPE svg PUBLIC "-//W3C//DTD SVG 1.1//EN"
 "http://www.w3.org/Graphics/SVG/1.1/DTD/svg11.dtd">
<!-- Generated by graphviz version 2.40.1 (20161225.0304)
 -->
<!-- Title: org.cobbzilla.util.http.PhantomUtil.loadPageAndExec Pages: 1 -->
<svg width="473pt" height="39pt"
 viewBox="0.00 0.00 473.00 39.00" xmlns="http://www.w3.org/2000/svg" xmlns:xlink="http://www.w3.org/1999/xlink">
<g id="graph0" class="graph" transform="scale(1 1) rotate(0) translate(4 35)">
<title>org.cobbzilla.util.http.PhantomUtil.loadPageAndExec</title>
<!-- Node0 -->
<g id="node1" class="node">
<title>Node0</title>
<polygon fill="#bfbfbf" stroke="#000000" points="0,-.5 0,-30.5 154,-30.5 154,-.5 0,-.5"/>
<text text-anchor="start" x="8" y="-18.5" font-family="Helvetica,sans-Serif" font-size="10.00" fill="#000000">org.cobbzilla.util.http.</text>
<text text-anchor="middle" x="77" y="-7.5" font-family="Helvetica,sans-Serif" font-size="10.00" fill="#000000">PhantomUtil.loadPageAndExec</text>
</g>
<!-- Node1 -->
<g id="node2" class="node">
<title>Node1</title>
<g id="a_node2"><a xlink:href="../../de/d08/classorg_1_1cobbzilla_1_1util_1_1http_1_1PhantomUtil_a740553cce76b2a14be2d7defb4f55bef.html#a740553cce76b2a14be2d7defb4f55bef" target="_top" xlink:title="org.cobbzilla.util.http.\lPhantomUtil.execJs">
<polygon fill="none" stroke="#000000" points="190,-.5 190,-30.5 300,-30.5 300,-.5 190,-.5"/>
<text text-anchor="start" x="198" y="-18.5" font-family="Helvetica,sans-Serif" font-size="10.00" fill="#000000">org.cobbzilla.util.http.</text>
<text text-anchor="middle" x="245" y="-7.5" font-family="Helvetica,sans-Serif" font-size="10.00" fill="#000000">PhantomUtil.execJs</text>
</a>
</g>
</g>
<!-- Node0&#45;&gt;Node1 -->
<g id="edge1" class="edge">
<title>Node0&#45;&gt;Node1</title>
<path fill="none" stroke="#191970" d="M154.1162,-15.5C162.7017,-15.5 171.3836,-15.5 179.8002,-15.5"/>
<polygon fill="#191970" stroke="#191970" points="179.9106,-19.0001 189.9106,-15.5 179.9105,-12.0001 179.9106,-19.0001"/>
</g>
<!-- Node2 -->
<g id="node3" class="node">
<title>Node2</title>
<g id="a_node3"><a xlink:href="../../de/d08/classorg_1_1cobbzilla_1_1util_1_1http_1_1PhantomUtil_a551e60120a427571d2dc8e597927ddaf.html#a551e60120a427571d2dc8e597927ddaf" target="_top" xlink:title="org.cobbzilla.util.http.\lPhantomUtil.defaultDriver">
<polygon fill="none" stroke="#000000" points="336,-.5 336,-30.5 465,-30.5 465,-.5 336,-.5"/>
<text text-anchor="start" x="344" y="-18.5" font-family="Helvetica,sans-Serif" font-size="10.00" fill="#000000">org.cobbzilla.util.http.</text>
<text text-anchor="middle" x="400.5" y="-7.5" font-family="Helvetica,sans-Serif" font-size="10.00" fill="#000000">PhantomUtil.defaultDriver</text>
</a>
</g>
</g>
<!-- Node1&#45;&gt;Node2 -->
<g id="edge2" class="edge">
<title>Node1&#45;&gt;Node2</title>
<path fill="none" stroke="#191970" d="M300.2613,-15.5C308.5435,-15.5 317.1981,-15.5 325.8028,-15.5"/>
<polygon fill="#191970" stroke="#191970" points="325.8558,-19.0001 335.8557,-15.5 325.8557,-12.0001 325.8558,-19.0001"/>
</g>
</g>
</svg>
