<?xml version="1.0" encoding="UTF-8" standalone="no"?>
<!DOCTYPE svg PUBLIC "-//W3C//DTD SVG 1.1//EN"
 "http://www.w3.org/Graphics/SVG/1.1/DTD/svg11.dtd">
<!-- Generated by graphviz version 2.40.1 (20161225.0304)
 -->
<!-- Title: org.cobbzilla.util.http.PhantomUtil.loadPage Pages: 1 -->
<svg width="312pt" height="57pt"
 viewBox="0.00 0.00 312.00 57.00" xmlns="http://www.w3.org/2000/svg" xmlns:xlink="http://www.w3.org/1999/xlink">
<g id="graph0" class="graph" transform="scale(1 1) rotate(0) translate(4 53)">
<title>org.cobbzilla.util.http.PhantomUtil.loadPage</title>
<!-- Node0 -->
<g id="node1" class="node">
<title>Node0</title>
<polygon fill="#bfbfbf" stroke="#000000" points="0,-.5 0,-30.5 114,-30.5 114,-.5 0,-.5"/>
<text text-anchor="start" x="8" y="-18.5" font-family="Helvetica,sans-Serif" font-size="10.00" fill="#000000">org.cobbzilla.util.http.</text>
<text text-anchor="middle" x="57" y="-7.5" font-family="Helvetica,sans-Serif" font-size="10.00" fill="#000000">PhantomUtil.loadPage</text>
</g>
<!-- Node1 -->
<g id="node2" class="node">
<title>Node1</title>
<g id="a_node2"><a xlink:href="../../de/d08/classorg_1_1cobbzilla_1_1util_1_1http_1_1PhantomUtil_a6e8071d6ba7850308f56c600841e4de9.html#a6e8071d6ba7850308f56c600841e4de9" target="_top" xlink:title="org.cobbzilla.util.http.\lPhantomUtil.loadPageAndExec">
<polygon fill="none" stroke="#000000" points="150,-.5 150,-30.5 304,-30.5 304,-.5 150,-.5"/>
<text text-anchor="start" x="158" y="-18.5" font-family="Helvetica,sans-Serif" font-size="10.00" fill="#000000">org.cobbzilla.util.http.</text>
<text text-anchor="middle" x="227" y="-7.5" font-family="Helvetica,sans-Serif" font-size="10.00" fill="#000000">PhantomUtil.loadPageAndExec</text>
</a>
</g>
</g>
<!-- Node0&#45;&gt;Node1 -->
<g id="edge1" class="edge">
<title>Node0&#45;&gt;Node1</title>
<path fill="none" stroke="#191970" d="M114.0805,-15.5C122.3307,-15.5 130.9757,-15.5 139.6533,-15.5"/>
<polygon fill="#191970" stroke="#191970" points="139.8334,-19.0001 149.8334,-15.5 139.8333,-12.0001 139.8334,-19.0001"/>
</g>
<!-- Node1&#45;&gt;Node1 -->
<g id="edge2" class="edge">
<title>Node1&#45;&gt;Node1</title>
<path fill="none" stroke="#191970" d="M197.374,-30.659C190.2301,-40.0566 200.1055,-49 227,-49 243.3889,-49 253.4578,-45.679 257.2069,-40.9579"/>
<polygon fill="#191970" stroke="#191970" points="260.6837,-40.446 256.626,-30.659 253.6948,-40.8403 260.6837,-40.446"/>
</g>
</g>
</svg>
