<?xml version="1.0" encoding="UTF-8" standalone="no"?>
<!DOCTYPE svg PUBLIC "-//W3C//DTD SVG 1.1//EN"
 "http://www.w3.org/Graphics/SVG/1.1/DTD/svg11.dtd">
<!-- Generated by graphviz version 2.40.1 (20161225.0304)
 -->
<!-- Title: org.cobbzilla.util.http.PhantomUtil.loadPageAndExec Pages: 1 -->
<svg width="312pt" height="57pt"
 viewBox="0.00 0.00 312.00 57.00" xmlns="http://www.w3.org/2000/svg" xmlns:xlink="http://www.w3.org/1999/xlink">
<g id="graph0" class="graph" transform="scale(1 1) rotate(0) translate(4 53)">
<title>org.cobbzilla.util.http.PhantomUtil.loadPageAndExec</title>
<!-- Node1 -->
<g id="node1" class="node">
<title>Node1</title>
<polygon fill="#bfbfbf" stroke="#000000" points="0,-.5 0,-30.5 154,-30.5 154,-.5 0,-.5"/>
<text text-anchor="start" x="8" y="-18.5" font-family="Helvetica,sans-Serif" font-size="10.00" fill="#000000">org.cobbzilla.util.http.</text>
<text text-anchor="middle" x="77" y="-7.5" font-family="Helvetica,sans-Serif" font-size="10.00" fill="#000000">PhantomUtil.loadPageAndExec</text>
</g>
<!-- Node1&#45;&gt;Node1 -->
<g id="edge2" class="edge">
<title>Node1&#45;&gt;Node1</title>
<path fill="none" stroke="#191970" d="M46.7931,-40.9579C50.5422,-45.679 60.6111,-49 77,-49 103.8945,-49 113.7699,-40.0566 106.626,-30.659"/>
<polygon fill="#191970" stroke="#191970" points="50.3052,-40.8403 47.374,-30.659 43.3163,-40.446 50.3052,-40.8403"/>
</g>
<!-- Node2 -->
<g id="node2" class="node">
<title>Node2</title>
<g id="a_node2"><a xlink:href="../../de/d08/classorg_1_1cobbzilla_1_1util_1_1http_1_1PhantomUtil_ad48b1413b3c1a992e336bdced36437b7.html#ad48b1413b3c1a992e336bdced36437b7" target="_top" xlink:title="org.cobbzilla.util.http.\lPhantomUtil.loadPage">
<polygon fill="none" stroke="#000000" points="190,-.5 190,-30.5 304,-30.5 304,-.5 190,-.5"/>
<text text-anchor="start" x="198" y="-18.5" font-family="Helvetica,sans-Serif" font-size="10.00" fill="#000000">org.cobbzilla.util.http.</text>
<text text-anchor="middle" x="247" y="-7.5" font-family="Helvetica,sans-Serif" font-size="10.00" fill="#000000">PhantomUtil.loadPage</text>
</a>
</g>
</g>
<!-- Node1&#45;&gt;Node2 -->
<g id="edge1" class="edge">
<title>Node1&#45;&gt;Node2</title>
<path fill="none" stroke="#191970" d="M164.2259,-15.5C172.9078,-15.5 181.5587,-15.5 189.816,-15.5"/>
<polygon fill="#191970" stroke="#191970" points="164.0417,-12.0001 154.0416,-15.5 164.0416,-19.0001 164.0417,-12.0001"/>
</g>
</g>
</svg>
