<?xml version="1.0" encoding="UTF-8" standalone="no"?>
<!DOCTYPE svg PUBLIC "-//W3C//DTD SVG 1.1//EN"
 "http://www.w3.org/Graphics/SVG/1.1/DTD/svg11.dtd">
<!-- Generated by graphviz version 2.40.1 (20161225.0304)
 -->
<!-- Title: org.cobbzilla.util.security.CryptoUtilTest.testStringEncryption Pages: 1 -->
<!--zoomable 274 -->
<svg id="main" version="1.1" xmlns="http://www.w3.org/2000/svg" xmlns:xlink="http://www.w3.org/1999/xlink" xml:space="preserve" onload="init(evt)">
<style type="text/css"><![CDATA[
.edge:hover path { stroke: red; }
.edge:hover polygon { stroke: red; fill: red; }
]]></style>
<script type="text/javascript"><![CDATA[
var edges = document.getElementsByTagName('g');
if (edges && edges.length) {
  for (var i=0;i<edges.length;i++) {
    if (edges[i].id.substr(0,4)=='edge') {
      edges[i].setAttribute('class','edge');
    }
  }
}
]]></script>
        <defs>
                <circle id="rim" cx="0" cy="0" r="7"/>
                <circle id="rim2" cx="0" cy="0" r="3.5"/>
                <g id="zoomPlus">
                        <use xlink:href="#rim" fill="#404040">
                                <set attributeName="fill" to="#808080" begin="zoomplus.mouseover" end="zoomplus.mouseout"/>
                        </use>
                        <path d="M-4,0h8M0,-4v8" fill="none" stroke="white" stroke-width="1.5" pointer-events="none"/>
                </g>
                <g id="zoomMin">
                        <use xlink:href="#rim" fill="#404040">
                                <set attributeName="fill" to="#808080" begin="zoomminus.mouseover" end="zoomminus.mouseout"/>
                        </use>
                        <path d="M-4,0h8" fill="none" stroke="white" stroke-width="1.5" pointer-events="none"/>
                </g>
                <g id="dirArrow">
                        <path fill="none" stroke="white" stroke-width="1.5" d="M0,-3.0v7 M-2.5,-0.5L0,-3.0L2.5,-0.5"/>
                </g>
               <g id="resetDef">
                       <use xlink:href="#rim2" fill="#404040">
                               <set attributeName="fill" to="#808080" begin="reset.mouseover" end="reset.mouseout"/>
                       </use>
               </g>
        </defs>

<script type="text/javascript">
var viewWidth = 836;
var viewHeight = 274;
var sectionId = 'dynsection-0';
</script>
<script xlink:href="../../svgpan.js"/>
<svg id="graph" class="graph">
<g id="viewport">
<title>org.cobbzilla.util.security.CryptoUtilTest.testStringEncryption</title>
<!-- Node0 -->
<g id="node1" class="node">
<title>Node0</title>
<polygon fill="#bfbfbf" stroke="#000000" points="0,-110.5 0,-140.5 172,-140.5 172,-110.5 0,-110.5"/>
<text text-anchor="start" x="8" y="-128.5" font-family="Helvetica,sans-Serif" font-size="10.00" fill="#000000">org.cobbzilla.util.security.</text>
<text text-anchor="middle" x="86" y="-117.5" font-family="Helvetica,sans-Serif" font-size="10.00" fill="#000000">CryptoUtilTest.testStringEncryption</text>
</g>
<!-- Node1 -->
<g id="node2" class="node">
<title>Node1</title>
<g id="a_node2"><a xlink:href="../../d4/d79/classorg_1_1cobbzilla_1_1util_1_1security_1_1CryptoUtil_aff92a69c1906791656e1b7d0bdc78c53.html#aff92a69c1906791656e1b7d0bdc78c53" target="_top" xlink:title="org.cobbzilla.util.security.\lCryptoUtil.string_decrypt">
<polygon fill="none" stroke="#000000" points="208,-159.5 208,-189.5 336,-189.5 336,-159.5 208,-159.5"/>
<text text-anchor="start" x="216" y="-177.5" font-family="Helvetica,sans-Serif" font-size="10.00" fill="#000000">org.cobbzilla.util.security.</text>
<text text-anchor="middle" x="272" y="-166.5" font-family="Helvetica,sans-Serif" font-size="10.00" fill="#000000">CryptoUtil.string_decrypt</text>
</a>
</g>
</g>
<!-- Node0&#45;&gt;Node1 -->
<g id="edge1" class="edge">
<title>Node0&#45;&gt;Node1</title>
<path fill="none" stroke="#191970" d="M143.0702,-140.5346C162.7092,-145.7083 184.8742,-151.5475 205.2168,-156.9066"/>
<polygon fill="#191970" stroke="#191970" points="204.476,-160.3308 215.0377,-159.4938 206.2593,-153.5617 204.476,-160.3308"/>
</g>
<!-- Node6 -->
<g id="node7" class="node">
<title>Node6</title>
<g id="a_node7"><a xlink:href="../../d4/d79/classorg_1_1cobbzilla_1_1util_1_1security_1_1CryptoUtil_a02e1787e0e185ff4bc04c89d9cd17dba.html#a02e1787e0e185ff4bc04c89d9cd17dba" target="_top" xlink:title="org.cobbzilla.util.security.\lCryptoUtil.string_encrypt">
<polygon fill="none" stroke="#000000" points="208,-86.5 208,-116.5 336,-116.5 336,-86.5 208,-86.5"/>
<text text-anchor="start" x="216" y="-104.5" font-family="Helvetica,sans-Serif" font-size="10.00" fill="#000000">org.cobbzilla.util.security.</text>
<text text-anchor="middle" x="272" y="-93.5" font-family="Helvetica,sans-Serif" font-size="10.00" fill="#000000">CryptoUtil.string_encrypt</text>
</a>
</g>
</g>
<!-- Node0&#45;&gt;Node6 -->
<g id="edge6" class="edge">
<title>Node0&#45;&gt;Node6</title>
<path fill="none" stroke="#191970" d="M172.1939,-114.3782C180.7063,-113.2798 189.2952,-112.1716 197.6732,-111.0906"/>
<polygon fill="#191970" stroke="#191970" points="198.2987,-114.5389 207.7686,-109.7879 197.4029,-107.5965 198.2987,-114.5389"/>
</g>
<!-- Node2 -->
<g id="node3" class="node">
<title>Node2</title>
<g id="a_node3"><a xlink:href="../../df/da0/classorg_1_1cobbzilla_1_1util_1_1string_1_1Base64_ae0a97c79ead1a0fe7d0124429008b9f2.html#ae0a97c79ead1a0fe7d0124429008b9f2" target="_top" xlink:title="Low&#45;level access to decoding ASCII characters in the form of a byte array. ">
<polygon fill="none" stroke="#000000" points="377.5,-235.5 377.5,-265.5 494.5,-265.5 494.5,-235.5 377.5,-235.5"/>
<text text-anchor="start" x="385.5" y="-253.5" font-family="Helvetica,sans-Serif" font-size="10.00" fill="#000000">org.cobbzilla.util.string.</text>
<text text-anchor="middle" x="436" y="-242.5" font-family="Helvetica,sans-Serif" font-size="10.00" fill="#000000">Base64.decode</text>
</a>
</g>
</g>
<!-- Node1&#45;&gt;Node2 -->
<g id="edge2" class="edge">
<title>Node1&#45;&gt;Node2</title>
<path fill="none" stroke="#191970" d="M304.4011,-189.5152C330.1486,-201.4469 366.3465,-218.2216 394.2631,-231.1585"/>
<polygon fill="#191970" stroke="#191970" points="392.8412,-234.3571 403.3859,-235.3862 395.7844,-228.0059 392.8412,-234.3571"/>
</g>
<!-- Node3 -->
<g id="node4" class="node">
<title>Node3</title>
<g id="a_node4"><a xlink:href="../../d4/d79/classorg_1_1cobbzilla_1_1util_1_1security_1_1CryptoUtil_af2435d9d95e8671f6218721806a85e77.html#af2435d9d95e8671f6218721806a85e77" target="_top" xlink:title="org.cobbzilla.util.security.\lCryptoUtil.decrypt">
<polygon fill="none" stroke="#000000" points="536,-167.5 536,-197.5 664,-197.5 664,-167.5 536,-167.5"/>
<text text-anchor="start" x="544" y="-185.5" font-family="Helvetica,sans-Serif" font-size="10.00" fill="#000000">org.cobbzilla.util.security.</text>
<text text-anchor="middle" x="600" y="-174.5" font-family="Helvetica,sans-Serif" font-size="10.00" fill="#000000">CryptoUtil.decrypt</text>
</a>
</g>
</g>
<!-- Node1&#45;&gt;Node3 -->
<g id="edge3" class="edge">
<title>Node1&#45;&gt;Node3</title>
<path fill="none" stroke="#191970" d="M336.1641,-184.0879C348.0521,-185.5095 360.382,-186.748 372,-187.5 423.1336,-190.8098 480.8376,-189.4952 525.4002,-187.386"/>
<polygon fill="#191970" stroke="#191970" points="525.7515,-190.873 535.5653,-186.8805 525.4038,-183.8816 525.7515,-190.873"/>
</g>
<!-- Node5 -->
<g id="node6" class="node">
<title>Node5</title>
<g id="a_node6"><a xlink:href="../../d4/d79/classorg_1_1cobbzilla_1_1util_1_1security_1_1CryptoUtil_a04f01cff41591663a90c35b86421d077.html#a04f01cff41591663a90c35b86421d077" target="_top" xlink:title="org.cobbzilla.util.security.\lCryptoUtil.unpad">
<polygon fill="none" stroke="#000000" points="372,-147.5 372,-177.5 500,-177.5 500,-147.5 372,-147.5"/>
<text text-anchor="start" x="380" y="-165.5" font-family="Helvetica,sans-Serif" font-size="10.00" fill="#000000">org.cobbzilla.util.security.</text>
<text text-anchor="middle" x="436" y="-154.5" font-family="Helvetica,sans-Serif" font-size="10.00" fill="#000000">CryptoUtil.unpad</text>
</a>
</g>
</g>
<!-- Node1&#45;&gt;Node5 -->
<g id="edge5" class="edge">
<title>Node1&#45;&gt;Node5</title>
<path fill="none" stroke="#191970" d="M336.3464,-169.7917C344.6401,-169.1849 353.1868,-168.5595 361.6248,-167.9421"/>
<polygon fill="#191970" stroke="#191970" points="362.1212,-171.4152 371.8391,-167.1947 361.6103,-164.4339 362.1212,-171.4152"/>
</g>
<!-- Node4 -->
<g id="node5" class="node">
<title>Node4</title>
<g id="a_node5"><a xlink:href="../../d4/d79/classorg_1_1cobbzilla_1_1util_1_1security_1_1CryptoUtil_a99397e825c8ea1210fa9623a319225d1.html#a99397e825c8ea1210fa9623a319225d1" target="_top" xlink:title="org.cobbzilla.util.security.\lCryptoUtil.toBytes">
<polygon fill="none" stroke="#000000" points="700,-119.5 700,-149.5 828,-149.5 828,-119.5 700,-119.5"/>
<text text-anchor="start" x="708" y="-137.5" font-family="Helvetica,sans-Serif" font-size="10.00" fill="#000000">org.cobbzilla.util.security.</text>
<text text-anchor="middle" x="764" y="-126.5" font-family="Helvetica,sans-Serif" font-size="10.00" fill="#000000">CryptoUtil.toBytes</text>
</a>
</g>
</g>
<!-- Node3&#45;&gt;Node4 -->
<g id="edge4" class="edge">
<title>Node3&#45;&gt;Node4</title>
<path fill="none" stroke="#191970" d="M651.4407,-167.4442C667.774,-162.6637 685.995,-157.3307 702.9378,-152.3719"/>
<polygon fill="#191970" stroke="#191970" points="704.1277,-155.6705 712.7419,-149.5024 702.1613,-148.9524 704.1277,-155.6705"/>
</g>
<!-- Node7 -->
<g id="node8" class="node">
<title>Node7</title>
<g id="a_node8"><a xlink:href="../../df/da0/classorg_1_1cobbzilla_1_1util_1_1string_1_1Base64_abb94a9b460b25c09a5c1d2f593d6c173.html#abb94a9b460b25c09a5c1d2f593d6c173" target="_top" xlink:title="Encodes a byte array into Base64 notation. ">
<polygon fill="none" stroke="#000000" points="377.5,-98.5 377.5,-128.5 494.5,-128.5 494.5,-98.5 377.5,-98.5"/>
<text text-anchor="start" x="385.5" y="-116.5" font-family="Helvetica,sans-Serif" font-size="10.00" fill="#000000">org.cobbzilla.util.string.</text>
<text text-anchor="middle" x="436" y="-105.5" font-family="Helvetica,sans-Serif" font-size="10.00" fill="#000000">Base64.encodeBytes</text>
</a>
</g>
</g>
<!-- Node6&#45;&gt;Node7 -->
<g id="edge7" class="edge">
<title>Node6&#45;&gt;Node7</title>
<path fill="none" stroke="#191970" d="M336.3464,-106.2083C346.5092,-106.9519 357.0517,-107.7233 367.3088,-108.4738"/>
<polygon fill="#191970" stroke="#191970" points="367.2174,-111.9764 377.4461,-109.2156 367.7283,-104.9951 367.2174,-111.9764"/>
</g>
<!-- Node8 -->
<g id="node9" class="node">
<title>Node8</title>
<g id="a_node9"><a xlink:href="../../d4/d79/classorg_1_1cobbzilla_1_1util_1_1security_1_1CryptoUtil_a7b7ec904d493c64b678f6ddce81fc79b.html#a7b7ec904d493c64b678f6ddce81fc79b" target="_top" xlink:title="org.cobbzilla.util.security.\lCryptoUtil.encryptOrDie">
<polygon fill="none" stroke="#000000" points="372,-49.5 372,-79.5 500,-79.5 500,-49.5 372,-49.5"/>
<text text-anchor="start" x="380" y="-67.5" font-family="Helvetica,sans-Serif" font-size="10.00" fill="#000000">org.cobbzilla.util.security.</text>
<text text-anchor="middle" x="436" y="-56.5" font-family="Helvetica,sans-Serif" font-size="10.00" fill="#000000">CryptoUtil.encryptOrDie</text>
</a>
</g>
</g>
<!-- Node6&#45;&gt;Node8 -->
<g id="edge8" class="edge">
<title>Node6&#45;&gt;Node8</title>
<path fill="none" stroke="#191970" d="M336.3464,-86.9828C344.7313,-85.0911 353.3746,-83.1411 361.9029,-81.217"/>
<polygon fill="#191970" stroke="#191970" points="362.8546,-84.5904 371.8391,-78.9753 361.314,-77.762 362.8546,-84.5904"/>
</g>
<!-- Node10 -->
<g id="node11" class="node">
<title>Node10</title>
<g id="a_node11"><a xlink:href="../../d4/d79/classorg_1_1cobbzilla_1_1util_1_1security_1_1CryptoUtil_ad019b4010dbfc5a6c423d1bb0f9bad2f.html#ad019b4010dbfc5a6c423d1bb0f9bad2f" target="_top" xlink:title="org.cobbzilla.util.security.\lCryptoUtil.pad">
<polygon fill="none" stroke="#000000" points="372,-.5 372,-30.5 500,-30.5 500,-.5 372,-.5"/>
<text text-anchor="start" x="380" y="-18.5" font-family="Helvetica,sans-Serif" font-size="10.00" fill="#000000">org.cobbzilla.util.security.</text>
<text text-anchor="middle" x="436" y="-7.5" font-family="Helvetica,sans-Serif" font-size="10.00" fill="#000000">CryptoUtil.pad</text>
</a>
</g>
</g>
<!-- Node6&#45;&gt;Node10 -->
<g id="edge11" class="edge">
<title>Node6&#45;&gt;Node10</title>
<path fill="none" stroke="#191970" d="M293.5298,-86.4248C313.3155,-72.9952 343.7687,-53.3777 372,-39.5 375.5526,-37.7536 379.2661,-36.0549 383.0382,-34.4209"/>
<polygon fill="#191970" stroke="#191970" points="384.5832,-37.5693 392.4772,-30.5029 381.8995,-31.1041 384.5832,-37.5693"/>
</g>
<!-- Node9 -->
<g id="node10" class="node">
<title>Node9</title>
<g id="a_node10"><a xlink:href="../../d4/d79/classorg_1_1cobbzilla_1_1util_1_1security_1_1CryptoUtil_a12875a105550a65051eca231ffe48d4c.html#a12875a105550a65051eca231ffe48d4c" target="_top" xlink:title="org.cobbzilla.util.security.\lCryptoUtil.encrypt">
<polygon fill="none" stroke="#000000" points="536,-95.5 536,-125.5 664,-125.5 664,-95.5 536,-95.5"/>
<text text-anchor="start" x="544" y="-113.5" font-family="Helvetica,sans-Serif" font-size="10.00" fill="#000000">org.cobbzilla.util.security.</text>
<text text-anchor="middle" x="600" y="-102.5" font-family="Helvetica,sans-Serif" font-size="10.00" fill="#000000">CryptoUtil.encrypt</text>
</a>
</g>
</g>
<!-- Node8&#45;&gt;Node9 -->
<g id="edge9" class="edge">
<title>Node8&#45;&gt;Node9</title>
<path fill="none" stroke="#191970" d="M489.6997,-79.5621C504.6427,-83.7535 521.0149,-88.3456 536.4647,-92.6791"/>
<polygon fill="#191970" stroke="#191970" points="535.8862,-96.1519 546.4598,-95.4826 537.7767,-89.412 535.8862,-96.1519"/>
</g>
<!-- Node9&#45;&gt;Node4 -->
<g id="edge10" class="edge">
<title>Node9&#45;&gt;Node4</title>
<path fill="none" stroke="#191970" d="M664.3464,-119.9166C672.7313,-121.1436 681.3746,-122.4085 689.9029,-123.6565"/>
<polygon fill="#191970" stroke="#191970" points="689.4377,-127.1256 699.8391,-125.1106 690.4513,-120.1994 689.4377,-127.1256"/>
</g>
</g>
</svg>
        <g id="navigator" transform="translate(0 0)" fill="#404254">
                <rect fill="#f2f5e9" fill-opacity="0.5" stroke="#606060" stroke-width=".5" x="0" y="0" width="60" height="60"/>
                <use id="zoomplus" xlink:href="#zoomPlus" x="17" y="9" onmousedown="handleZoom(evt,'in')"/>
                <use id="zoomminus" xlink:href="#zoomMin" x="42" y="9" onmousedown="handleZoom(evt,'out')"/>
                <use id="reset" xlink:href="#resetDef" x="30" y="36" onmousedown="handleReset()"/>
                <g id="arrowUp" xlink:href="#dirArrow" transform="translate(30 24)" onmousedown="handlePan(0,-1)">
                  <use xlink:href="#rim" fill="#404040">
                        <set attributeName="fill" to="#808080" begin="arrowUp.mouseover" end="arrowUp.mouseout"/>
                  </use>
                  <path fill="none" stroke="white" stroke-width="1.5" d="M0,-3.0v7 M-2.5,-0.5L0,-3.0L2.5,-0.5"/>
                </g>
                <g id="arrowRight" xlink:href="#dirArrow" transform="rotate(90) translate(36 -43)" onmousedown="handlePan(1,0)">
                  <use xlink:href="#rim" fill="#404040">
                        <set attributeName="fill" to="#808080" begin="arrowRight.mouseover" end="arrowRight.mouseout"/>
                  </use>
                  <path fill="none" stroke="white" stroke-width="1.5" d="M0,-3.0v7 M-2.5,-0.5L0,-3.0L2.5,-0.5"/>
                </g>
                <g id="arrowDown" xlink:href="#dirArrow" transform="rotate(180) translate(-30 -48)" onmousedown="handlePan(0,1)">
                  <use xlink:href="#rim" fill="#404040">
                        <set attributeName="fill" to="#808080" begin="arrowDown.mouseover" end="arrowDown.mouseout"/>
                  </use>
                  <path fill="none" stroke="white" stroke-width="1.5" d="M0,-3.0v7 M-2.5,-0.5L0,-3.0L2.5,-0.5"/>
                </g>
                <g id="arrowLeft" xlink:href="#dirArrow" transform="rotate(270) translate(-36 17)" onmousedown="handlePan(-1,0)">
                  <use xlink:href="#rim" fill="#404040">
                        <set attributeName="fill" to="#808080" begin="arrowLeft.mouseover" end="arrowLeft.mouseout"/>
                  </use>
                  <path fill="none" stroke="white" stroke-width="1.5" d="M0,-3.0v7 M-2.5,-0.5L0,-3.0L2.5,-0.5"/>
                </g>
        </g>
        <svg viewBox="0 0 15 15" width="100%" height="30px" preserveAspectRatio="xMaxYMin meet">
         <g id="arrow_out" transform="scale(0.3 0.3)">
          <a xlink:href="classorg_1_1cobbzilla_1_1util_1_1security_1_1CryptoUtilTest_ae837f104c4898cea00b8565e0b1a5022_ae837f104c4898cea00b8565e0b1a5022_cgraph_org.svg" target="_base">
           <rect id="button" ry="5" rx="5" y="6" x="6" height="38" width="38"
                fill="#f2f5e9" fill-opacity="0.5" stroke="#606060" stroke-width="1.0"/>
           <path id="arrow"
             d="M 11.500037,31.436501 C 11.940474,20.09759 22.043105,11.32322 32.158766,21.979434 L 37.068811,17.246167 C 37.068811,17.246167 37.088388,32 37.088388,32 L 22.160133,31.978069 C 22.160133,31.978069 26.997745,27.140456 26.997745,27.140456 C 18.528582,18.264221 13.291696,25.230495 11.500037,31.436501 z"
             style="fill:#404040;"/>
          </a>
         </g>
        </svg>
</svg>
