<?xml version="1.0" encoding="UTF-8" standalone="no"?>
<!DOCTYPE svg PUBLIC "-//W3C//DTD SVG 1.1//EN"
 "http://www.w3.org/Graphics/SVG/1.1/DTD/svg11.dtd">
<!-- Generated by graphviz version 2.40.1 (20161225.0304)
 -->
<!-- Title: org.cobbzilla.util.http.HttpCookieBean.expired Pages: 1 -->
<svg width="423pt" height="88pt"
 viewBox="0.00 0.00 423.00 88.00" xmlns="http://www.w3.org/2000/svg" xmlns:xlink="http://www.w3.org/1999/xlink">
<g id="graph0" class="graph" transform="scale(1 1) rotate(0) translate(4 84)">
<title>org.cobbzilla.util.http.HttpCookieBean.expired</title>
<!-- Node2 -->
<g id="node1" class="node">
<title>Node2</title>
<polygon fill="#bfbfbf" stroke="#000000" points="0,-24.5 0,-54.5 123,-54.5 123,-24.5 0,-24.5"/>
<text text-anchor="start" x="8" y="-42.5" font-family="Helvetica,sans-Serif" font-size="10.00" fill="#000000">org.cobbzilla.util.http.</text>
<text text-anchor="middle" x="61.5" y="-31.5" font-family="Helvetica,sans-Serif" font-size="10.00" fill="#000000">HttpCookieBean.expired</text>
</g>
<!-- Node3 -->
<g id="node2" class="node">
<title>Node3</title>
<g id="a_node2"><a xlink:href="../../da/d50/classorg_1_1cobbzilla_1_1util_1_1http_1_1CookieJar_a7e7511d898fb571e625be6cc1a066e71.html#a7e7511d898fb571e625be6cc1a066e71" target="_top" xlink:title="org.cobbzilla.util.http.\lCookieJar.add">
<polygon fill="none" stroke="#000000" points="159,-24.5 159,-54.5 269,-54.5 269,-24.5 159,-24.5"/>
<text text-anchor="start" x="167" y="-42.5" font-family="Helvetica,sans-Serif" font-size="10.00" fill="#000000">org.cobbzilla.util.http.</text>
<text text-anchor="middle" x="214" y="-31.5" font-family="Helvetica,sans-Serif" font-size="10.00" fill="#000000">CookieJar.add</text>
</a>
</g>
</g>
<!-- Node2&#45;&gt;Node3 -->
<g id="edge1" class="edge">
<title>Node2&#45;&gt;Node3</title>
<path fill="none" stroke="#191970" d="M133.3599,-39.5C141.8337,-39.5 150.38,-39.5 158.5784,-39.5"/>
<polygon fill="#191970" stroke="#191970" points="133.088,-36.0001 123.088,-39.5 133.088,-43.0001 133.088,-36.0001"/>
</g>
<!-- Node4 -->
<g id="node3" class="node">
<title>Node4</title>
<g id="a_node3"><a xlink:href="../../da/d50/classorg_1_1cobbzilla_1_1util_1_1http_1_1CookieJar_a66071c71677fdc75a9d6d39014682df0.html#a66071c71677fdc75a9d6d39014682df0" target="_top" xlink:title="org.cobbzilla.util.http.\lCookieJar.addCookie">
<polygon fill="none" stroke="#000000" points="305,-49.5 305,-79.5 415,-79.5 415,-49.5 305,-49.5"/>
<text text-anchor="start" x="313" y="-67.5" font-family="Helvetica,sans-Serif" font-size="10.00" fill="#000000">org.cobbzilla.util.http.</text>
<text text-anchor="middle" x="360" y="-56.5" font-family="Helvetica,sans-Serif" font-size="10.00" fill="#000000">CookieJar.addCookie</text>
</a>
</g>
</g>
<!-- Node3&#45;&gt;Node4 -->
<g id="edge2" class="edge">
<title>Node3&#45;&gt;Node4</title>
<path fill="none" stroke="#191970" d="M279.1314,-50.6526C287.6759,-52.1157 296.3658,-53.6037 304.7256,-55.0352"/>
<polygon fill="#191970" stroke="#191970" points="279.6436,-47.1895 269.1963,-48.9514 278.4621,-54.0891 279.6436,-47.1895"/>
</g>
<!-- Node5 -->
<g id="node4" class="node">
<title>Node5</title>
<g id="a_node4"><a xlink:href="../../da/d50/classorg_1_1cobbzilla_1_1util_1_1http_1_1CookieJar_a6c946c7bd92da7f4f33e7e026b27cb23.html#a6c946c7bd92da7f4f33e7e026b27cb23" target="_top" xlink:title="org.cobbzilla.util.http.\lCookieJar.CookieJar">
<polygon fill="none" stroke="#000000" points="305,-.5 305,-30.5 415,-30.5 415,-.5 305,-.5"/>
<text text-anchor="start" x="313" y="-18.5" font-family="Helvetica,sans-Serif" font-size="10.00" fill="#000000">org.cobbzilla.util.http.</text>
<text text-anchor="middle" x="360" y="-7.5" font-family="Helvetica,sans-Serif" font-size="10.00" fill="#000000">CookieJar.CookieJar</text>
</a>
</g>
</g>
<!-- Node3&#45;&gt;Node5 -->
<g id="edge3" class="edge">
<title>Node3&#45;&gt;Node5</title>
<path fill="none" stroke="#191970" d="M279.1314,-28.7935C287.6759,-27.3889 296.3658,-25.9604 304.7256,-24.5862"/>
<polygon fill="#191970" stroke="#191970" points="278.4962,-25.3508 269.1963,-30.4266 279.6317,-32.2581 278.4962,-25.3508"/>
</g>
</g>
</svg>
