<?xml version="1.0" encoding="UTF-8" standalone="no"?>
<!DOCTYPE svg PUBLIC "-//W3C//DTD SVG 1.1//EN"
 "http://www.w3.org/Graphics/SVG/1.1/DTD/svg11.dtd">
<!-- Generated by graphviz version 2.40.1 (20161225.0304)
 -->
<!-- Title: org.cobbzilla.util.handlebars.PdfMerger.merge Pages: 1 -->
<svg width="511pt" height="186pt"
 viewBox="0.00 0.00 511.00 186.00" xmlns="http://www.w3.org/2000/svg" xmlns:xlink="http://www.w3.org/1999/xlink">
<g id="graph0" class="graph" transform="scale(1 1) rotate(0) translate(4 182)">
<title>org.cobbzilla.util.handlebars.PdfMerger.merge</title>
<!-- Node0 -->
<g id="node1" class="node">
<title>Node0</title>
<polygon fill="#bfbfbf" stroke="#000000" points="0,-48.5 0,-78.5 140,-78.5 140,-48.5 0,-48.5"/>
<text text-anchor="start" x="8" y="-66.5" font-family="Helvetica,sans-Serif" font-size="10.00" fill="#000000">org.cobbzilla.util.handlebars.</text>
<text text-anchor="middle" x="70" y="-55.5" font-family="Helvetica,sans-Serif" font-size="10.00" fill="#000000">PdfMerger.merge</text>
</g>
<!-- Node1 -->
<g id="node2" class="node">
<title>Node1</title>
<g id="a_node2"><a xlink:href="../../d9/d58/classorg_1_1cobbzilla_1_1util_1_1handlebars_1_1PdfMerger_a2ef83e677027e253ea4f30f9a41b6f6c.html#a2ef83e677027e253ea4f30f9a41b6f6c" target="_top" xlink:title="org.cobbzilla.util.handlebars.\lPdfMerger.insertImage">
<polygon fill="none" stroke="#000000" points="176,-85.5 176,-115.5 316,-115.5 316,-85.5 176,-85.5"/>
<text text-anchor="start" x="184" y="-103.5" font-family="Helvetica,sans-Serif" font-size="10.00" fill="#000000">org.cobbzilla.util.handlebars.</text>
<text text-anchor="middle" x="246" y="-92.5" font-family="Helvetica,sans-Serif" font-size="10.00" fill="#000000">PdfMerger.insertImage</text>
</a>
</g>
</g>
<!-- Node0&#45;&gt;Node1 -->
<g id="edge1" class="edge">
<title>Node0&#45;&gt;Node1</title>
<path fill="none" stroke="#191970" d="M140.0656,-78.2297C148.5403,-80.0113 157.2467,-81.8416 165.8522,-83.6507"/>
<polygon fill="#191970" stroke="#191970" points="165.3818,-87.1283 175.888,-85.7605 166.822,-80.278 165.3818,-87.1283"/>
</g>
<!-- Node5 -->
<g id="node6" class="node">
<title>Node5</title>
<g id="a_node6"><a xlink:href="../../d9/d58/classorg_1_1cobbzilla_1_1util_1_1handlebars_1_1PdfMerger_a18931c7af52fae879d678d72875d45e3.html#a18931c7af52fae879d678d72875d45e3" target="_top" xlink:title="org.cobbzilla.util.handlebars.\lPdfMerger.safeApply">
<polygon fill="none" stroke="#000000" points="176,-24.5 176,-54.5 316,-54.5 316,-24.5 176,-24.5"/>
<text text-anchor="start" x="184" y="-42.5" font-family="Helvetica,sans-Serif" font-size="10.00" fill="#000000">org.cobbzilla.util.handlebars.</text>
<text text-anchor="middle" x="246" y="-31.5" font-family="Helvetica,sans-Serif" font-size="10.00" fill="#000000">PdfMerger.safeApply</text>
</a>
</g>
</g>
<!-- Node0&#45;&gt;Node5 -->
<g id="edge5" class="edge">
<title>Node0&#45;&gt;Node5</title>
<path fill="none" stroke="#191970" d="M140.0656,-53.9456C148.5403,-52.79 157.2467,-51.6027 165.8522,-50.4292"/>
<polygon fill="#191970" stroke="#191970" points="166.4526,-53.8799 175.888,-49.0607 165.5068,-46.944 166.4526,-53.8799"/>
</g>
<!-- Node2 -->
<g id="node3" class="node">
<title>Node2</title>
<g id="a_node3"><a xlink:href="../../dc/d34/classorg_1_1cobbzilla_1_1util_1_1handlebars_1_1ImageInsertion_a272247b17de41423a3bee93a9999675a.html#a272247b17de41423a3bee93a9999675a" target="_top" xlink:title="org.cobbzilla.util.handlebars.\lImageInsertion.getImageFile">
<polygon fill="none" stroke="#000000" points="357.5,-147.5 357.5,-177.5 497.5,-177.5 497.5,-147.5 357.5,-147.5"/>
<text text-anchor="start" x="365.5" y="-165.5" font-family="Helvetica,sans-Serif" font-size="10.00" fill="#000000">org.cobbzilla.util.handlebars.</text>
<text text-anchor="middle" x="427.5" y="-154.5" font-family="Helvetica,sans-Serif" font-size="10.00" fill="#000000">ImageInsertion.getImageFile</text>
</a>
</g>
</g>
<!-- Node1&#45;&gt;Node2 -->
<g id="edge2" class="edge">
<title>Node1&#45;&gt;Node2</title>
<path fill="none" stroke="#191970" d="M286.9033,-115.5561C306.5337,-122.6811 330.4243,-131.2061 352,-138.5 357.5925,-140.3906 363.4321,-142.3219 369.2787,-144.2271"/>
<polygon fill="#191970" stroke="#191970" points="368.4905,-147.6506 379.0823,-147.397 370.6442,-140.9901 368.4905,-147.6506"/>
</g>
<!-- Node3 -->
<g id="node4" class="node">
<title>Node3</title>
<g id="a_node4"><a xlink:href="../../dc/d34/classorg_1_1cobbzilla_1_1util_1_1handlebars_1_1ImageInsertion_a46dcf4f62c0fec7dd315aba848f15746.html#a46dcf4f62c0fec7dd315aba848f15746" target="_top" xlink:title="org.cobbzilla.util.handlebars.\lImageInsertion.init">
<polygon fill="none" stroke="#000000" points="357.5,-98.5 357.5,-128.5 497.5,-128.5 497.5,-98.5 357.5,-98.5"/>
<text text-anchor="start" x="365.5" y="-116.5" font-family="Helvetica,sans-Serif" font-size="10.00" fill="#000000">org.cobbzilla.util.handlebars.</text>
<text text-anchor="middle" x="427.5" y="-105.5" font-family="Helvetica,sans-Serif" font-size="10.00" fill="#000000">ImageInsertion.init</text>
</a>
</g>
</g>
<!-- Node1&#45;&gt;Node3 -->
<g id="edge3" class="edge">
<title>Node1&#45;&gt;Node3</title>
<path fill="none" stroke="#191970" d="M316.1726,-105.5261C326.2727,-106.2496 336.7318,-106.9987 347.0129,-107.7351"/>
<polygon fill="#191970" stroke="#191970" points="346.9902,-111.2423 357.2147,-108.4658 347.4904,-104.2602 346.9902,-111.2423"/>
</g>
<!-- Node4 -->
<g id="node5" class="node">
<title>Node4</title>
<g id="a_node5"><a xlink:href="../../d9/d58/classorg_1_1cobbzilla_1_1util_1_1handlebars_1_1PdfMerger_a6b25a2d273a7b2dd9da38b88a6b95ab1.html#a6b25a2d273a7b2dd9da38b88a6b95ab1" target="_top" xlink:title="org.cobbzilla.util.handlebars.\lPdfMerger.insertImageOnPage">
<polygon fill="none" stroke="#000000" points="352,-49.5 352,-79.5 503,-79.5 503,-49.5 352,-49.5"/>
<text text-anchor="start" x="360" y="-67.5" font-family="Helvetica,sans-Serif" font-size="10.00" fill="#000000">org.cobbzilla.util.handlebars.</text>
<text text-anchor="middle" x="427.5" y="-56.5" font-family="Helvetica,sans-Serif" font-size="10.00" fill="#000000">PdfMerger.insertImageOnPage</text>
</a>
</g>
</g>
<!-- Node1&#45;&gt;Node4 -->
<g id="edge4" class="edge">
<title>Node1&#45;&gt;Node4</title>
<path fill="none" stroke="#191970" d="M316.1726,-86.5815C324.5613,-84.9176 333.1976,-83.2046 341.7739,-81.5035"/>
<polygon fill="#191970" stroke="#191970" points="342.6678,-84.8945 351.7958,-79.5157 341.3059,-78.0282 342.6678,-84.8945"/>
</g>
<!-- Node6 -->
<g id="node7" class="node">
<title>Node6</title>
<g id="a_node7"><a xlink:href="../../d0/d1b/classorg_1_1cobbzilla_1_1util_1_1handlebars_1_1HandlebarsUtil_a3798bc5bdea2ec45b6d6fe4e84e2caab.html#a3798bc5bdea2ec45b6d6fe4e84e2caab" target="_top" xlink:title="org.cobbzilla.util.handlebars.\lHandlebarsUtil.apply">
<polygon fill="none" stroke="#000000" points="357.5,-.5 357.5,-30.5 497.5,-30.5 497.5,-.5 357.5,-.5"/>
<text text-anchor="start" x="365.5" y="-18.5" font-family="Helvetica,sans-Serif" font-size="10.00" fill="#000000">org.cobbzilla.util.handlebars.</text>
<text text-anchor="middle" x="427.5" y="-7.5" font-family="Helvetica,sans-Serif" font-size="10.00" fill="#000000">HandlebarsUtil.apply</text>
</a>
</g>
</g>
<!-- Node5&#45;&gt;Node6 -->
<g id="edge6" class="edge">
<title>Node5&#45;&gt;Node6</title>
<path fill="none" stroke="#191970" d="M316.1726,-30.221C326.2727,-28.8854 336.7318,-27.5024 347.0129,-26.1429"/>
<polygon fill="#191970" stroke="#191970" points="347.7599,-29.5747 357.2147,-24.7939 346.8422,-22.6351 347.7599,-29.5747"/>
</g>
</g>
</svg>
