<?xml version="1.0" encoding="UTF-8" standalone="no"?>
<!DOCTYPE svg PUBLIC "-//W3C//DTD SVG 1.1//EN"
 "http://www.w3.org/Graphics/SVG/1.1/DTD/svg11.dtd">
<!-- Generated by graphviz version 2.40.1 (20161225.0304)
 -->
<!-- Title: org.cobbzilla.util.handlebars.PdfMerger.insertImage Pages: 1 -->
<svg width="335pt" height="137pt"
 viewBox="0.00 0.00 335.00 137.00" xmlns="http://www.w3.org/2000/svg" xmlns:xlink="http://www.w3.org/1999/xlink">
<g id="graph0" class="graph" transform="scale(1 1) rotate(0) translate(4 133)">
<title>org.cobbzilla.util.handlebars.PdfMerger.insertImage</title>
<!-- Node0 -->
<g id="node1" class="node">
<title>Node0</title>
<polygon fill="#bfbfbf" stroke="#000000" points="0,-49.5 0,-79.5 140,-79.5 140,-49.5 0,-49.5"/>
<text text-anchor="start" x="8" y="-67.5" font-family="Helvetica,sans-Serif" font-size="10.00" fill="#000000">org.cobbzilla.util.handlebars.</text>
<text text-anchor="middle" x="70" y="-56.5" font-family="Helvetica,sans-Serif" font-size="10.00" fill="#000000">PdfMerger.insertImage</text>
</g>
<!-- Node1 -->
<g id="node2" class="node">
<title>Node1</title>
<g id="a_node2"><a xlink:href="../../dc/d34/classorg_1_1cobbzilla_1_1util_1_1handlebars_1_1ImageInsertion_a272247b17de41423a3bee93a9999675a.html#a272247b17de41423a3bee93a9999675a" target="_top" xlink:title="org.cobbzilla.util.handlebars.\lImageInsertion.getImageFile">
<polygon fill="none" stroke="#000000" points="181.5,-98.5 181.5,-128.5 321.5,-128.5 321.5,-98.5 181.5,-98.5"/>
<text text-anchor="start" x="189.5" y="-116.5" font-family="Helvetica,sans-Serif" font-size="10.00" fill="#000000">org.cobbzilla.util.handlebars.</text>
<text text-anchor="middle" x="251.5" y="-105.5" font-family="Helvetica,sans-Serif" font-size="10.00" fill="#000000">ImageInsertion.getImageFile</text>
</a>
</g>
</g>
<!-- Node0&#45;&gt;Node1 -->
<g id="edge1" class="edge">
<title>Node0&#45;&gt;Node1</title>
<path fill="none" stroke="#191970" d="M125.937,-79.6014C144.9161,-84.7253 166.2898,-90.4956 185.9497,-95.8032"/>
<polygon fill="#191970" stroke="#191970" points="185.1811,-99.221 195.7477,-98.4484 187.0056,-92.4629 185.1811,-99.221"/>
</g>
<!-- Node2 -->
<g id="node3" class="node">
<title>Node2</title>
<g id="a_node3"><a xlink:href="../../dc/d34/classorg_1_1cobbzilla_1_1util_1_1handlebars_1_1ImageInsertion_a46dcf4f62c0fec7dd315aba848f15746.html#a46dcf4f62c0fec7dd315aba848f15746" target="_top" xlink:title="org.cobbzilla.util.handlebars.\lImageInsertion.init">
<polygon fill="none" stroke="#000000" points="181.5,-49.5 181.5,-79.5 321.5,-79.5 321.5,-49.5 181.5,-49.5"/>
<text text-anchor="start" x="189.5" y="-67.5" font-family="Helvetica,sans-Serif" font-size="10.00" fill="#000000">org.cobbzilla.util.handlebars.</text>
<text text-anchor="middle" x="251.5" y="-56.5" font-family="Helvetica,sans-Serif" font-size="10.00" fill="#000000">ImageInsertion.init</text>
</a>
</g>
</g>
<!-- Node0&#45;&gt;Node2 -->
<g id="edge2" class="edge">
<title>Node0&#45;&gt;Node2</title>
<path fill="none" stroke="#191970" d="M140.1726,-64.5C150.2727,-64.5 160.7318,-64.5 171.0129,-64.5"/>
<polygon fill="#191970" stroke="#191970" points="171.2148,-68.0001 181.2147,-64.5 171.2147,-61.0001 171.2148,-68.0001"/>
</g>
<!-- Node3 -->
<g id="node4" class="node">
<title>Node3</title>
<g id="a_node4"><a xlink:href="../../d9/d58/classorg_1_1cobbzilla_1_1util_1_1handlebars_1_1PdfMerger_a6b25a2d273a7b2dd9da38b88a6b95ab1.html#a6b25a2d273a7b2dd9da38b88a6b95ab1" target="_top" xlink:title="org.cobbzilla.util.handlebars.\lPdfMerger.insertImageOnPage">
<polygon fill="none" stroke="#000000" points="176,-.5 176,-30.5 327,-30.5 327,-.5 176,-.5"/>
<text text-anchor="start" x="184" y="-18.5" font-family="Helvetica,sans-Serif" font-size="10.00" fill="#000000">org.cobbzilla.util.handlebars.</text>
<text text-anchor="middle" x="251.5" y="-7.5" font-family="Helvetica,sans-Serif" font-size="10.00" fill="#000000">PdfMerger.insertImageOnPage</text>
</a>
</g>
</g>
<!-- Node0&#45;&gt;Node3 -->
<g id="edge3" class="edge">
<title>Node0&#45;&gt;Node3</title>
<path fill="none" stroke="#191970" d="M125.937,-49.3986C144.9161,-44.2747 166.2898,-38.5044 185.9497,-33.1968"/>
<polygon fill="#191970" stroke="#191970" points="187.0056,-36.5371 195.7477,-30.5516 185.1811,-29.779 187.0056,-36.5371"/>
</g>
</g>
</svg>
