<?xml version="1.0" encoding="UTF-8" standalone="no"?>
<!DOCTYPE svg PUBLIC "-//W3C//DTD SVG 1.1//EN"
 "http://www.w3.org/Graphics/SVG/1.1/DTD/svg11.dtd">
<!-- Generated by graphviz version 2.40.1 (20161225.0304)
 -->
<!-- Title: org.cobbzilla.util.io.UniqueFileFsWalker Pages: 1 -->
<svg width="359pt" height="309pt"
 viewBox="0.00 0.00 358.50 309.00" xmlns="http://www.w3.org/2000/svg" xmlns:xlink="http://www.w3.org/1999/xlink">
<g id="graph0" class="graph" transform="scale(1 1) rotate(0) translate(4 305)">
<title>org.cobbzilla.util.io.UniqueFileFsWalker</title>
<!-- Node2 -->
<g id="node1" class="node">
<title>Node2</title>
<polygon fill="#bfbfbf" stroke="#000000" points="58,-.5 58,-79.5 189,-79.5 189,-.5 58,-.5"/>
<text text-anchor="start" x="66" y="-67.5" font-family="Helvetica,sans-Serif" font-size="10.00" fill="#000000">org.cobbzilla.util.io.Unique</text>
<text text-anchor="middle" x="123.5" y="-56.5" font-family="Helvetica,sans-Serif" font-size="10.00" fill="#000000">FileFsWalker</text>
<polyline fill="none" stroke="#000000" points="58,-49.5 189,-49.5 "/>
<text text-anchor="middle" x="123.5" y="-37.5" font-family="Helvetica,sans-Serif" font-size="10.00" fill="#000000"> </text>
<polyline fill="none" stroke="#000000" points="58,-30.5 189,-30.5 "/>
<text text-anchor="start" x="66" y="-18.5" font-family="Helvetica,sans-Serif" font-size="10.00" fill="#000000">+ UniqueFileFsWalker()</text>
<text text-anchor="start" x="66" y="-7.5" font-family="Helvetica,sans-Serif" font-size="10.00" fill="#000000">+ visit()</text>
</g>
<!-- Node3 -->
<g id="node2" class="node">
<title>Node3</title>
<g id="a_node2"><a xlink:href="../../d4/d04/interfaceorg_1_1cobbzilla_1_1util_1_1io_1_1FilesystemVisitor.html" target="_top" xlink:title="{org.cobbzilla.util.io.Filesystem\lVisitor\n||+ visit()\l}">
<polygon fill="none" stroke="#000000" points="0,-127.5 0,-195.5 149,-195.5 149,-127.5 0,-127.5"/>
<text text-anchor="start" x="8" y="-183.5" font-family="Helvetica,sans-Serif" font-size="10.00" fill="#000000">org.cobbzilla.util.io.Filesystem</text>
<text text-anchor="middle" x="74.5" y="-172.5" font-family="Helvetica,sans-Serif" font-size="10.00" fill="#000000">Visitor</text>
<polyline fill="none" stroke="#000000" points="0,-165.5 149,-165.5 "/>
<text text-anchor="middle" x="74.5" y="-153.5" font-family="Helvetica,sans-Serif" font-size="10.00" fill="#000000"> </text>
<polyline fill="none" stroke="#000000" points="0,-146.5 149,-146.5 "/>
<text text-anchor="start" x="8" y="-134.5" font-family="Helvetica,sans-Serif" font-size="10.00" fill="#000000">+ visit()</text>
</a>
</g>
</g>
<!-- Node3&#45;&gt;Node2 -->
<g id="edge1" class="edge">
<title>Node3&#45;&gt;Node2</title>
<path fill="none" stroke="#191970" d="M92.1638,-117.7009C97.1382,-105.3666 102.5211,-92.019 107.3988,-79.9243"/>
<polygon fill="none" stroke="#191970" points="88.7739,-116.7488 88.2796,-127.3321 95.2659,-119.367 88.7739,-116.7488"/>
</g>
<!-- Node4 -->
<g id="node3" class="node">
<title>Node4</title>
<polygon fill="none" stroke="#bfbfbf" points="167,-133 167,-190 310,-190 310,-133 167,-133"/>
<text text-anchor="middle" x="238.5" y="-178" font-family="Helvetica,sans-Serif" font-size="10.00" fill="#000000">Map&lt; String, Set&lt; String &gt; &gt;</text>
<polyline fill="none" stroke="#bfbfbf" points="167,-171 310,-171 "/>
<text text-anchor="middle" x="238.5" y="-159" font-family="Helvetica,sans-Serif" font-size="10.00" fill="#000000"> </text>
<polyline fill="none" stroke="#bfbfbf" points="167,-152 310,-152 "/>
<text text-anchor="middle" x="238.5" y="-140" font-family="Helvetica,sans-Serif" font-size="10.00" fill="#000000"> </text>
</g>
<!-- Node4&#45;&gt;Node2 -->
<g id="edge2" class="edge">
<title>Node4&#45;&gt;Node2</title>
<path fill="none" stroke="#404040" d="M211.2466,-132.7062C198.8157,-119.5727 183.7481,-103.6534 169.6325,-88.74"/>
<polygon fill="none" stroke="#404040" points="169.2476,-88.3334 162.2181,-86.7254 160.9987,-79.6181 168.0282,-81.2261 169.2476,-88.3334"/>
<text text-anchor="middle" x="201.5" y="-101" font-family="Helvetica,sans-Serif" font-size="10.00" fill="#000000"> &#45;hash</text>
</g>
<!-- Node5 -->
<g id="node4" class="node">
<title>Node5</title>
<polygon fill="none" stroke="#bfbfbf" points="221,-243.5 221,-300.5 256,-300.5 256,-243.5 221,-243.5"/>
<text text-anchor="middle" x="238.5" y="-288.5" font-family="Helvetica,sans-Serif" font-size="10.00" fill="#000000">Map</text>
<polyline fill="none" stroke="#bfbfbf" points="221,-281.5 256,-281.5 "/>
<text text-anchor="middle" x="238.5" y="-269.5" font-family="Helvetica,sans-Serif" font-size="10.00" fill="#000000"> </text>
<polyline fill="none" stroke="#bfbfbf" points="221,-262.5 256,-262.5 "/>
<text text-anchor="middle" x="238.5" y="-250.5" font-family="Helvetica,sans-Serif" font-size="10.00" fill="#000000"> </text>
</g>
<!-- Node5&#45;&gt;Node4 -->
<g id="edge3" class="edge">
<title>Node5&#45;&gt;Node4</title>
<path fill="none" stroke="#ffa500" d="M238.5,-232.845C238.5,-218.7511 238.5,-203.1262 238.5,-190.1002"/>
<polygon fill="#ffa500" stroke="#ffa500" points="235.0001,-233.2559 238.5,-243.2559 242.0001,-233.2559 235.0001,-233.2559"/>
<text text-anchor="middle" x="294.5" y="-217" font-family="Helvetica,sans-Serif" font-size="10.00" fill="#000000"> &lt; String, Set&lt; String &gt; &gt;</text>
</g>
</g>
</svg>
