<?xml version="1.0" encoding="UTF-8" standalone="no"?>
<!DOCTYPE svg PUBLIC "-//W3C//DTD SVG 1.1//EN"
 "http://www.w3.org/Graphics/SVG/1.1/DTD/svg11.dtd">
<!-- Generated by graphviz version 2.40.1 (20161225.0304)
 -->
<!-- Title: org.cobbzilla.util.reflect.FieldComparator.compare Pages: 1 -->
<svg width="683pt" height="39pt"
 viewBox="0.00 0.00 683.00 39.00" xmlns="http://www.w3.org/2000/svg" xmlns:xlink="http://www.w3.org/1999/xlink">
<g id="graph0" class="graph" transform="scale(1 1) rotate(0) translate(4 35)">
<title>org.cobbzilla.util.reflect.FieldComparator.compare</title>
<!-- Node0 -->
<g id="node1" class="node">
<title>Node0</title>
<polygon fill="#bfbfbf" stroke="#000000" points="0,-.5 0,-30.5 129,-30.5 129,-.5 0,-.5"/>
<text text-anchor="start" x="8" y="-18.5" font-family="Helvetica,sans-Serif" font-size="10.00" fill="#000000">org.cobbzilla.util.reflect.</text>
<text text-anchor="middle" x="64.5" y="-7.5" font-family="Helvetica,sans-Serif" font-size="10.00" fill="#000000">FieldComparator.compare</text>
</g>
<!-- Node1 -->
<g id="node2" class="node">
<title>Node1</title>
<g id="a_node2"><a xlink:href="../../de/d45/classorg_1_1cobbzilla_1_1util_1_1reflect_1_1ReflectionUtil_a875bf838f367197bc1b9c5d46e5122bd.html#a875bf838f367197bc1b9c5d46e5122bd" target="_top" xlink:title="Call a getter. ">
<polygon fill="none" stroke="#000000" points="165,-.5 165,-30.5 285,-30.5 285,-.5 165,-.5"/>
<text text-anchor="start" x="173" y="-18.5" font-family="Helvetica,sans-Serif" font-size="10.00" fill="#000000">org.cobbzilla.util.reflect.</text>
<text text-anchor="middle" x="225" y="-7.5" font-family="Helvetica,sans-Serif" font-size="10.00" fill="#000000">ReflectionUtil.get</text>
</a>
</g>
</g>
<!-- Node0&#45;&gt;Node1 -->
<g id="edge1" class="edge">
<title>Node0&#45;&gt;Node1</title>
<path fill="none" stroke="#191970" d="M129.3189,-15.5C137.6689,-15.5 146.2507,-15.5 154.6838,-15.5"/>
<polygon fill="#191970" stroke="#191970" points="154.871,-19.0001 164.871,-15.5 154.871,-12.0001 154.871,-19.0001"/>
</g>
<!-- Node2 -->
<g id="node3" class="node">
<title>Node2</title>
<g id="a_node3"><a xlink:href="../../de/d45/classorg_1_1cobbzilla_1_1util_1_1reflect_1_1ReflectionUtil_a1acc0385c017266a2f5a416746f69863.html#a1acc0385c017266a2f5a416746f69863" target="_top" xlink:title="org.cobbzilla.util.reflect.\lReflectionUtil.invoke_get">
<polygon fill="none" stroke="#000000" points="321,-.5 321,-30.5 447,-30.5 447,-.5 321,-.5"/>
<text text-anchor="start" x="329" y="-18.5" font-family="Helvetica,sans-Serif" font-size="10.00" fill="#000000">org.cobbzilla.util.reflect.</text>
<text text-anchor="middle" x="384" y="-7.5" font-family="Helvetica,sans-Serif" font-size="10.00" fill="#000000">ReflectionUtil.invoke_get</text>
</a>
</g>
</g>
<!-- Node1&#45;&gt;Node2 -->
<g id="edge2" class="edge">
<title>Node1&#45;&gt;Node2</title>
<path fill="none" stroke="#191970" d="M285.1111,-15.5C293.5177,-15.5 302.2324,-15.5 310.8471,-15.5"/>
<polygon fill="#191970" stroke="#191970" points="310.8896,-19.0001 320.8896,-15.5 310.8895,-12.0001 310.8896,-19.0001"/>
</g>
<!-- Node3 -->
<g id="node4" class="node">
<title>Node3</title>
<g id="a_node4"><a xlink:href="../../de/d45/classorg_1_1cobbzilla_1_1util_1_1reflect_1_1ReflectionUtil_ad1861d10610bdbfd08ec4c2fc5abb667.html#ad1861d10610bdbfd08ec4c2fc5abb667" target="_top" xlink:title="org.cobbzilla.util.reflect.\lReflectionUtil.getAccessorMethodName">
<polygon fill="none" stroke="#000000" points="483,-.5 483,-30.5 675,-30.5 675,-.5 483,-.5"/>
<text text-anchor="start" x="491" y="-18.5" font-family="Helvetica,sans-Serif" font-size="10.00" fill="#000000">org.cobbzilla.util.reflect.</text>
<text text-anchor="middle" x="579" y="-7.5" font-family="Helvetica,sans-Serif" font-size="10.00" fill="#000000">ReflectionUtil.getAccessorMethodName</text>
</a>
</g>
</g>
<!-- Node2&#45;&gt;Node3 -->
<g id="edge3" class="edge">
<title>Node2&#45;&gt;Node3</title>
<path fill="none" stroke="#191970" d="M447.0416,-15.5C455.2793,-15.5 463.8937,-15.5 472.6035,-15.5"/>
<polygon fill="#191970" stroke="#191970" points="472.8551,-19.0001 482.8551,-15.5 472.8551,-12.0001 472.8551,-19.0001"/>
</g>
</g>
</svg>
