<?xml version="1.0" encoding="UTF-8" standalone="no"?>
<!DOCTYPE svg PUBLIC "-//W3C//DTD SVG 1.1//EN"
 "http://www.w3.org/Graphics/SVG/1.1/DTD/svg11.dtd">
<!-- Generated by graphviz version 2.40.1 (20161225.0304)
 -->
<!-- Title: org.cobbzilla.util.mustache.LocaleAwareMustacheFactoryTest Pages: 1 -->
<!--zoomable 656 -->
<svg id="main" version="1.1" xmlns="http://www.w3.org/2000/svg" xmlns:xlink="http://www.w3.org/1999/xlink" xml:space="preserve" onload="init(evt)">
<style type="text/css"><![CDATA[
.edge:hover path { stroke: red; }
.edge:hover polygon { stroke: red; fill: red; }
]]></style>
<script type="text/javascript"><![CDATA[
var edges = document.getElementsByTagName('g');
if (edges && edges.length) {
  for (var i=0;i<edges.length;i++) {
    if (edges[i].id.substr(0,4)=='edge') {
      edges[i].setAttribute('class','edge');
    }
  }
}
]]></script>
        <defs>
                <circle id="rim" cx="0" cy="0" r="7"/>
                <circle id="rim2" cx="0" cy="0" r="3.5"/>
                <g id="zoomPlus">
                        <use xlink:href="#rim" fill="#404040">
                                <set attributeName="fill" to="#808080" begin="zoomplus.mouseover" end="zoomplus.mouseout"/>
                        </use>
                        <path d="M-4,0h8M0,-4v8" fill="none" stroke="white" stroke-width="1.5" pointer-events="none"/>
                </g>
                <g id="zoomMin">
                        <use xlink:href="#rim" fill="#404040">
                                <set attributeName="fill" to="#808080" begin="zoomminus.mouseover" end="zoomminus.mouseout"/>
                        </use>
                        <path d="M-4,0h8" fill="none" stroke="white" stroke-width="1.5" pointer-events="none"/>
                </g>
                <g id="dirArrow">
                        <path fill="none" stroke="white" stroke-width="1.5" d="M0,-3.0v7 M-2.5,-0.5L0,-3.0L2.5,-0.5"/>
                </g>
               <g id="resetDef">
                       <use xlink:href="#rim2" fill="#404040">
                               <set attributeName="fill" to="#808080" begin="reset.mouseover" end="reset.mouseout"/>
                       </use>
               </g>
        </defs>

<script type="text/javascript">
var viewWidth = 703;
var viewHeight = 656;
var sectionId = 'dynsection-0';
</script>
<script xlink:href="../../svgpan.js"/>
<svg id="graph" class="graph">
<g id="viewport">
<title>org.cobbzilla.util.mustache.LocaleAwareMustacheFactoryTest</title>
<!-- Node1 -->
<g id="node1" class="node">
<title>Node1</title>
<polygon fill="#bfbfbf" stroke="#000000" points="0,-.5 0,-145.5 168,-145.5 168,-.5 0,-.5"/>
<text text-anchor="start" x="8" y="-133.5" font-family="Helvetica,sans-Serif" font-size="10.00" fill="#000000">org.cobbzilla.util.mustache.</text>
<text text-anchor="middle" x="84" y="-122.5" font-family="Helvetica,sans-Serif" font-size="10.00" fill="#000000">LocaleAwareMustacheFactoryTest</text>
<polyline fill="none" stroke="#000000" points="0,-115.5 168,-115.5 "/>
<text text-anchor="start" x="8" y="-103.5" font-family="Helvetica,sans-Serif" font-size="10.00" fill="#000000">+ LOCALE</text>
<polyline fill="none" stroke="#000000" points="0,-96.5 168,-96.5 "/>
<text text-anchor="start" x="8" y="-84.5" font-family="Helvetica,sans-Serif" font-size="10.00" fill="#000000">+ setUp()</text>
<text text-anchor="start" x="8" y="-73.5" font-family="Helvetica,sans-Serif" font-size="10.00" fill="#000000">+ tearDown()</text>
<text text-anchor="start" x="8" y="-62.5" font-family="Helvetica,sans-Serif" font-size="10.00" fill="#000000">+ testFindOnlyFullResource()</text>
<text text-anchor="start" x="8" y="-51.5" font-family="Helvetica,sans-Serif" font-size="10.00" fill="#000000">+ testFindLanguageResource()</text>
<text text-anchor="start" x="8" y="-40.5" font-family="Helvetica,sans-Serif" font-size="10.00" fill="#000000">+ testFindDefaultResource()</text>
<text text-anchor="start" x="8" y="-29.5" font-family="Helvetica,sans-Serif" font-size="10.00" fill="#000000">+ testFindMostSpecificResource()</text>
<text text-anchor="start" x="8" y="-18.5" font-family="Helvetica,sans-Serif" font-size="10.00" fill="#000000">+ testResourceNotFound()</text>
<text text-anchor="start" x="8" y="-7.5" font-family="Helvetica,sans-Serif" font-size="10.00" fill="#000000">&#45; populateTempDir()</text>
</g>
<!-- Node2 -->
<g id="node2" class="node">
<title>Node2</title>
<polygon fill="none" stroke="#bfbfbf" points="2,-259.5 2,-316.5 48,-316.5 48,-259.5 2,-259.5"/>
<text text-anchor="middle" x="25" y="-304.5" font-family="Helvetica,sans-Serif" font-size="10.00" fill="#000000">Logger</text>
<polyline fill="none" stroke="#bfbfbf" points="2,-297.5 48,-297.5 "/>
<text text-anchor="middle" x="25" y="-285.5" font-family="Helvetica,sans-Serif" font-size="10.00" fill="#000000"> </text>
<polyline fill="none" stroke="#bfbfbf" points="2,-278.5 48,-278.5 "/>
<text text-anchor="middle" x="25" y="-266.5" font-family="Helvetica,sans-Serif" font-size="10.00" fill="#000000"> </text>
</g>
<!-- Node2&#45;&gt;Node1 -->
<g id="edge1" class="edge">
<title>Node2&#45;&gt;Node1</title>
<path fill="none" stroke="#404040" d="M26.872,-259.4503C29.0731,-234.0033 33.6828,-195.952 43,-164 43.664,-161.723 44.3741,-159.4294 45.1237,-157.1275"/>
<polygon fill="none" stroke="#404040" points="45.1994,-156.9111 43.4086,-149.9259 49.1677,-145.5862 50.9585,-152.5714 45.1994,-156.9111"/>
<text text-anchor="middle" x="56.5" y="-167" font-family="Helvetica,sans-Serif" font-size="10.00" fill="#000000"> &#45;LOG</text>
</g>
<!-- Node3 -->
<g id="node3" class="node">
<title>Node3</title>
<polygon fill="none" stroke="#bfbfbf" points="68,-441.5 68,-498.5 100,-498.5 100,-441.5 68,-441.5"/>
<text text-anchor="middle" x="84" y="-486.5" font-family="Helvetica,sans-Serif" font-size="10.00" fill="#000000">File</text>
<polyline fill="none" stroke="#bfbfbf" points="68,-479.5 100,-479.5 "/>
<text text-anchor="middle" x="84" y="-467.5" font-family="Helvetica,sans-Serif" font-size="10.00" fill="#000000"> </text>
<polyline fill="none" stroke="#bfbfbf" points="68,-460.5 100,-460.5 "/>
<text text-anchor="middle" x="84" y="-448.5" font-family="Helvetica,sans-Serif" font-size="10.00" fill="#000000"> </text>
</g>
<!-- Node3&#45;&gt;Node1 -->
<g id="edge2" class="edge">
<title>Node3&#45;&gt;Node1</title>
<path fill="none" stroke="#404040" d="M84,-441.4487C84,-382.8917 84,-247.2033 84,-157.8498"/>
<polygon fill="none" stroke="#404040" points="84.0001,-157.834 80,-151.834 84,-145.834 88,-151.8339 84.0001,-157.834"/>
<text text-anchor="middle" x="104" y="-285.5" font-family="Helvetica,sans-Serif" font-size="10.00" fill="#000000"> &#45;fileRoot</text>
</g>
<!-- Node4 -->
<g id="node4" class="node">
<title>Node4</title>
<g id="a_node4"><a xlink:href="../../dd/d83/classorg_1_1cobbzilla_1_1util_1_1mustache_1_1LocaleAwareMustacheFactory.html" target="_top" xlink:title="(c) Copyright 2013 Jonathan Cobb. ">
<polygon fill="none" stroke="#000000" points="179,-193.5 179,-382.5 343,-382.5 343,-193.5 179,-193.5"/>
<text text-anchor="start" x="187" y="-370.5" font-family="Helvetica,sans-Serif" font-size="10.00" fill="#000000">org.cobbzilla.util.mustache.</text>
<text text-anchor="middle" x="261" y="-359.5" font-family="Helvetica,sans-Serif" font-size="10.00" fill="#000000">LocaleAwareMustacheFactory</text>
<polyline fill="none" stroke="#000000" points="179,-352.5 343,-352.5 "/>
<text text-anchor="start" x="187" y="-340.5" font-family="Helvetica,sans-Serif" font-size="10.00" fill="#000000">+ TEMPLATE_SUFFIX</text>
<text text-anchor="start" x="187" y="-329.5" font-family="Helvetica,sans-Serif" font-size="10.00" fill="#000000">&#45; skipClasspath</text>
<text text-anchor="start" x="187" y="-318.5" font-family="Helvetica,sans-Serif" font-size="10.00" fill="#000000">&#45; REFRESH_INTERVAL</text>
<polyline fill="none" stroke="#000000" points="179,-311.5 343,-311.5 "/>
<text text-anchor="start" x="187" y="-299.5" font-family="Helvetica,sans-Serif" font-size="10.00" fill="#000000">+ LocaleAwareMustacheFactory()</text>
<text text-anchor="start" x="187" y="-288.5" font-family="Helvetica,sans-Serif" font-size="10.00" fill="#000000">+ LocaleAwareMustacheFactory()</text>
<text text-anchor="start" x="187" y="-277.5" font-family="Helvetica,sans-Serif" font-size="10.00" fill="#000000">+ getReader()</text>
<text text-anchor="start" x="187" y="-266.5" font-family="Helvetica,sans-Serif" font-size="10.00" fill="#000000">+ render()</text>
<text text-anchor="start" x="187" y="-255.5" font-family="Helvetica,sans-Serif" font-size="10.00" fill="#000000">+ render()</text>
<text text-anchor="start" x="187" y="-244.5" font-family="Helvetica,sans-Serif" font-size="10.00" fill="#000000">+ getFactory()</text>
<text text-anchor="start" x="187" y="-233.5" font-family="Helvetica,sans-Serif" font-size="10.00" fill="#000000">+ getFactory()</text>
<text text-anchor="start" x="187" y="-222.5" font-family="Helvetica,sans-Serif" font-size="10.00" fill="#000000">+ flushCache()</text>
<text text-anchor="start" x="187" y="-211.5" font-family="Helvetica,sans-Serif" font-size="10.00" fill="#000000"># createMustacheCache()</text>
<text text-anchor="start" x="187" y="-200.5" font-family="Helvetica,sans-Serif" font-size="10.00" fill="#000000">&#45; getReader_internal()</text>
</a>
</g>
</g>
<!-- Node3&#45;&gt;Node4 -->
<g id="edge7" class="edge">
<title>Node3&#45;&gt;Node4</title>
<path fill="none" stroke="#404040" d="M100.2661,-442.4188C103.0486,-438.1679 106.0102,-433.8992 109,-430 126.7681,-406.8274 148.4762,-384.1266 169.8627,-363.9113"/>
<polygon fill="none" stroke="#404040" points="169.8933,-363.8828 171.5564,-356.866 178.673,-355.7024 177.01,-362.7192 169.8933,-363.8828"/>
<text text-anchor="middle" x="164.5" y="-404" font-family="Helvetica,sans-Serif" font-size="10.00" fill="#000000"> &#45;superFileRoot</text>
</g>
<!-- Node4&#45;&gt;Node1 -->
<g id="edge3" class="edge">
<title>Node4&#45;&gt;Node1</title>
<path fill="none" stroke="#404040" d="M183.1076,-193.385C172.6126,-180.6368 161.9157,-167.6434 151.6187,-155.1358"/>
<polygon fill="none" stroke="#404040" points="151.4595,-154.9424 144.5579,-152.8525 143.8325,-145.6779 150.7342,-147.7678 151.4595,-154.9424"/>
<text text-anchor="middle" x="186.5" y="-167" font-family="Helvetica,sans-Serif" font-size="10.00" fill="#000000"> &#45;factory</text>
</g>
<!-- Node5 -->
<g id="node5" class="node">
<title>Node5</title>
<polygon fill="none" stroke="#bfbfbf" points="118,-441.5 118,-498.5 242,-498.5 242,-441.5 118,-441.5"/>
<text text-anchor="middle" x="180" y="-486.5" font-family="Helvetica,sans-Serif" font-size="10.00" fill="#000000">DefaultMustacheFactory</text>
<polyline fill="none" stroke="#bfbfbf" points="118,-479.5 242,-479.5 "/>
<text text-anchor="middle" x="180" y="-467.5" font-family="Helvetica,sans-Serif" font-size="10.00" fill="#000000"> </text>
<polyline fill="none" stroke="#bfbfbf" points="118,-460.5 242,-460.5 "/>
<text text-anchor="middle" x="180" y="-448.5" font-family="Helvetica,sans-Serif" font-size="10.00" fill="#000000"> </text>
</g>
<!-- Node5&#45;&gt;Node4 -->
<g id="edge4" class="edge">
<title>Node5&#45;&gt;Node4</title>
<path fill="none" stroke="#191970" d="M197.0675,-431.6509C203.4766,-417.2502 211.0791,-400.1679 218.7652,-382.898"/>
<polygon fill="none" stroke="#191970" points="193.7032,-430.6024 192.8347,-441.1616 200.0984,-433.4486 193.7032,-430.6024"/>
</g>
<!-- Node6 -->
<g id="node6" class="node">
<title>Node6</title>
<polygon fill="none" stroke="#bfbfbf" points="260,-441.5 260,-498.5 336,-498.5 336,-441.5 260,-441.5"/>
<text text-anchor="middle" x="298" y="-486.5" font-family="Helvetica,sans-Serif" font-size="10.00" fill="#000000">List&lt; String &gt;</text>
<polyline fill="none" stroke="#bfbfbf" points="260,-479.5 336,-479.5 "/>
<text text-anchor="middle" x="298" y="-467.5" font-family="Helvetica,sans-Serif" font-size="10.00" fill="#000000"> </text>
<polyline fill="none" stroke="#bfbfbf" points="260,-460.5 336,-460.5 "/>
<text text-anchor="middle" x="298" y="-448.5" font-family="Helvetica,sans-Serif" font-size="10.00" fill="#000000"> </text>
</g>
<!-- Node6&#45;&gt;Node4 -->
<g id="edge5" class="edge">
<title>Node6&#45;&gt;Node4</title>
<path fill="none" stroke="#404040" d="M292.1372,-441.1616C289.4882,-428.1313 286.1771,-411.8439 282.7108,-394.7934"/>
<polygon fill="none" stroke="#404040" points="282.6832,-394.6574 277.568,-389.5746 280.2924,-382.898 285.4076,-387.9808 282.6832,-394.6574"/>
<text text-anchor="middle" x="319" y="-404" font-family="Helvetica,sans-Serif" font-size="10.00" fill="#000000"> &#45;suffixChecks</text>
</g>
<!-- Node7 -->
<g id="node7" class="node">
<title>Node7</title>
<polygon fill="none" stroke="#bfbfbf" points="282,-590.5 282,-647.5 314,-647.5 314,-590.5 282,-590.5"/>
<text text-anchor="middle" x="298" y="-635.5" font-family="Helvetica,sans-Serif" font-size="10.00" fill="#000000">List</text>
<polyline fill="none" stroke="#bfbfbf" points="282,-628.5 314,-628.5 "/>
<text text-anchor="middle" x="298" y="-616.5" font-family="Helvetica,sans-Serif" font-size="10.00" fill="#000000"> </text>
<polyline fill="none" stroke="#bfbfbf" points="282,-609.5 314,-609.5 "/>
<text text-anchor="middle" x="298" y="-597.5" font-family="Helvetica,sans-Serif" font-size="10.00" fill="#000000"> </text>
</g>
<!-- Node7&#45;&gt;Node6 -->
<g id="edge6" class="edge">
<title>Node7&#45;&gt;Node6</title>
<path fill="none" stroke="#ffa500" d="M298,-580.1806C298,-554.652 298,-521.8055 298,-498.6405"/>
<polygon fill="#ffa500" stroke="#ffa500" points="294.5001,-580.2713 298,-590.2713 301.5001,-580.2713 294.5001,-580.2713"/>
<text text-anchor="middle" x="321.5" y="-547.5" font-family="Helvetica,sans-Serif" font-size="10.00" fill="#000000"> &lt; String &gt;</text>
</g>
<!-- Node8 -->
<g id="node8" class="node">
<title>Node8</title>
<polygon fill="none" stroke="#bfbfbf" points="354,-441.5 354,-498.5 422,-498.5 422,-441.5 354,-441.5"/>
<text text-anchor="middle" x="388" y="-486.5" font-family="Helvetica,sans-Serif" font-size="10.00" fill="#000000">AtomicLong</text>
<polyline fill="none" stroke="#bfbfbf" points="354,-479.5 422,-479.5 "/>
<text text-anchor="middle" x="388" y="-467.5" font-family="Helvetica,sans-Serif" font-size="10.00" fill="#000000"> </text>
<polyline fill="none" stroke="#bfbfbf" points="354,-460.5 422,-460.5 "/>
<text text-anchor="middle" x="388" y="-448.5" font-family="Helvetica,sans-Serif" font-size="10.00" fill="#000000"> </text>
</g>
<!-- Node8&#45;&gt;Node4 -->
<g id="edge8" class="edge">
<title>Node8&#45;&gt;Node4</title>
<path fill="none" stroke="#404040" d="M376.1923,-441.2886C370.4755,-428.5571 363.097,-413.6328 355,-401 353.2217,-398.2255 351.3836,-395.4434 349.4963,-392.6615"/>
<polygon fill="none" stroke="#404040" points="349.341,-392.4392 342.6251,-389.813 342.4663,-382.6036 349.1821,-385.2298 349.341,-392.4392"/>
<text text-anchor="middle" x="390.5" y="-404" font-family="Helvetica,sans-Serif" font-size="10.00" fill="#000000"> &#45;lastRefresh</text>
</g>
<!-- Node9 -->
<g id="node9" class="node">
<title>Node9</title>
<polygon fill="none" stroke="#bfbfbf" points="440,-430.5 440,-509.5 654,-509.5 654,-430.5 440,-430.5"/>
<text text-anchor="start" x="448" y="-497.5" font-family="Helvetica,sans-Serif" font-size="10.00" fill="#000000">LoadingCache&lt; org.cobbzilla.util.mustache.</text>
<text text-anchor="start" x="448" y="-486.5" font-family="Helvetica,sans-Serif" font-size="10.00" fill="#000000">LAMFCacheKey, org.cobbzilla.util.mustache.</text>
<text text-anchor="middle" x="547" y="-475.5" font-family="Helvetica,sans-Serif" font-size="10.00" fill="#000000">LocaleAwareMustacheFactory &gt;</text>
<polyline fill="none" stroke="#bfbfbf" points="440,-468.5 654,-468.5 "/>
<text text-anchor="middle" x="547" y="-456.5" font-family="Helvetica,sans-Serif" font-size="10.00" fill="#000000"> </text>
<polyline fill="none" stroke="#bfbfbf" points="440,-449.5 654,-449.5 "/>
<text text-anchor="middle" x="547" y="-437.5" font-family="Helvetica,sans-Serif" font-size="10.00" fill="#000000"> </text>
</g>
<!-- Node9&#45;&gt;Node4 -->
<g id="edge9" class="edge">
<title>Node9&#45;&gt;Node4</title>
<path fill="none" stroke="#404040" d="M484.5895,-430.2842C446.1687,-405.8346 396.2239,-374.0515 353.2866,-346.7279"/>
<polygon fill="none" stroke="#404040" points="353.2286,-346.691 346.0191,-346.8443 343.1046,-340.2484 350.3141,-340.095 353.2286,-346.691"/>
<text text-anchor="middle" x="505.5" y="-404" font-family="Helvetica,sans-Serif" font-size="10.00" fill="#000000"> #factoryLoadingCache</text>
</g>
<!-- Node10 -->
<g id="node10" class="node">
<title>Node10</title>
<polygon fill="none" stroke="#bfbfbf" points="507.5,-590.5 507.5,-647.5 586.5,-647.5 586.5,-590.5 507.5,-590.5"/>
<text text-anchor="middle" x="547" y="-635.5" font-family="Helvetica,sans-Serif" font-size="10.00" fill="#000000">LoadingCache</text>
<polyline fill="none" stroke="#bfbfbf" points="507.5,-628.5 586.5,-628.5 "/>
<text text-anchor="middle" x="547" y="-616.5" font-family="Helvetica,sans-Serif" font-size="10.00" fill="#000000"> </text>
<polyline fill="none" stroke="#bfbfbf" points="507.5,-609.5 586.5,-609.5 "/>
<text text-anchor="middle" x="547" y="-597.5" font-family="Helvetica,sans-Serif" font-size="10.00" fill="#000000"> </text>
</g>
<!-- Node10&#45;&gt;Node9 -->
<g id="edge10" class="edge">
<title>Node10&#45;&gt;Node9</title>
<path fill="none" stroke="#ffa500" d="M547,-580.089C547,-558.3929 547,-531.4333 547,-509.6236"/>
<polygon fill="#ffa500" stroke="#ffa500" points="543.5001,-580.2713 547,-590.2713 550.5001,-580.2713 543.5001,-580.2713"/>
<text text-anchor="start" x="547" y="-564" font-family="Helvetica,sans-Serif" font-size="10.00" fill="#000000"> &lt; org::cobbzilla::util</text>
<text text-anchor="start" x="547" y="-553" font-family="Helvetica,sans-Serif" font-size="10.00" fill="#000000">::mustache::LAMFCacheKey,</text>
<text text-anchor="start" x="547" y="-542" font-family="Helvetica,sans-Serif" font-size="10.00" fill="#000000"> org::cobbzilla::util::mustache</text>
<text text-anchor="middle" x="621" y="-531" font-family="Helvetica,sans-Serif" font-size="10.00" fill="#000000">::LocaleAwareMustacheFactory &gt;</text>
</g>
</g>
</svg>
        <g id="navigator" transform="translate(0 0)" fill="#404254">
                <rect fill="#f2f5e9" fill-opacity="0.5" stroke="#606060" stroke-width=".5" x="0" y="0" width="60" height="60"/>
                <use id="zoomplus" xlink:href="#zoomPlus" x="17" y="9" onmousedown="handleZoom(evt,'in')"/>
                <use id="zoomminus" xlink:href="#zoomMin" x="42" y="9" onmousedown="handleZoom(evt,'out')"/>
                <use id="reset" xlink:href="#resetDef" x="30" y="36" onmousedown="handleReset()"/>
                <g id="arrowUp" xlink:href="#dirArrow" transform="translate(30 24)" onmousedown="handlePan(0,-1)">
                  <use xlink:href="#rim" fill="#404040">
                        <set attributeName="fill" to="#808080" begin="arrowUp.mouseover" end="arrowUp.mouseout"/>
                  </use>
                  <path fill="none" stroke="white" stroke-width="1.5" d="M0,-3.0v7 M-2.5,-0.5L0,-3.0L2.5,-0.5"/>
                </g>
                <g id="arrowRight" xlink:href="#dirArrow" transform="rotate(90) translate(36 -43)" onmousedown="handlePan(1,0)">
                  <use xlink:href="#rim" fill="#404040">
                        <set attributeName="fill" to="#808080" begin="arrowRight.mouseover" end="arrowRight.mouseout"/>
                  </use>
                  <path fill="none" stroke="white" stroke-width="1.5" d="M0,-3.0v7 M-2.5,-0.5L0,-3.0L2.5,-0.5"/>
                </g>
                <g id="arrowDown" xlink:href="#dirArrow" transform="rotate(180) translate(-30 -48)" onmousedown="handlePan(0,1)">
                  <use xlink:href="#rim" fill="#404040">
                        <set attributeName="fill" to="#808080" begin="arrowDown.mouseover" end="arrowDown.mouseout"/>
                  </use>
                  <path fill="none" stroke="white" stroke-width="1.5" d="M0,-3.0v7 M-2.5,-0.5L0,-3.0L2.5,-0.5"/>
                </g>
                <g id="arrowLeft" xlink:href="#dirArrow" transform="rotate(270) translate(-36 17)" onmousedown="handlePan(-1,0)">
                  <use xlink:href="#rim" fill="#404040">
                        <set attributeName="fill" to="#808080" begin="arrowLeft.mouseover" end="arrowLeft.mouseout"/>
                  </use>
                  <path fill="none" stroke="white" stroke-width="1.5" d="M0,-3.0v7 M-2.5,-0.5L0,-3.0L2.5,-0.5"/>
                </g>
        </g>
        <svg viewBox="0 0 15 15" width="100%" height="30px" preserveAspectRatio="xMaxYMin meet">
         <g id="arrow_out" transform="scale(0.3 0.3)">
          <a xlink:href="classorg_1_1cobbzilla_1_1util_1_1mustache_1_1LocaleAwareMustacheFactoryTest__coll__graph_org.svg" target="_base">
           <rect id="button" ry="5" rx="5" y="6" x="6" height="38" width="38"
                fill="#f2f5e9" fill-opacity="0.5" stroke="#606060" stroke-width="1.0"/>
           <path id="arrow"
             d="M 11.500037,31.436501 C 11.940474,20.09759 22.043105,11.32322 32.158766,21.979434 L 37.068811,17.246167 C 37.068811,17.246167 37.088388,32 37.088388,32 L 22.160133,31.978069 C 22.160133,31.978069 26.997745,27.140456 26.997745,27.140456 C 18.528582,18.264221 13.291696,25.230495 11.500037,31.436501 z"
             style="fill:#404040;"/>
          </a>
         </g>
        </svg>
</svg>
