<?xml version="1.0" encoding="UTF-8" standalone="no"?>
<!DOCTYPE svg PUBLIC "-//W3C//DTD SVG 1.1//EN"
 "http://www.w3.org/Graphics/SVG/1.1/DTD/svg11.dtd">
<!-- Generated by graphviz version 2.40.1 (20161225.0304)
 -->
<!-- Title: org.cobbzilla.util.io.TarballTest Pages: 1 -->
<svg width="157pt" height="204pt"
 viewBox="0.00 0.00 157.00 204.00" xmlns="http://www.w3.org/2000/svg" xmlns:xlink="http://www.w3.org/1999/xlink">
<g id="graph0" class="graph" transform="scale(1 1) rotate(0) translate(4 200)">
<title>org.cobbzilla.util.io.TarballTest</title>
<!-- Node1 -->
<g id="node1" class="node">
<title>Node1</title>
<polygon fill="#bfbfbf" stroke="#000000" points="0,-.5 0,-90.5 149,-90.5 149,-.5 0,-.5"/>
<text text-anchor="middle" x="74.5" y="-78.5" font-family="Helvetica,sans-Serif" font-size="10.00" fill="#000000">org.cobbzilla.util.io.TarballTest</text>
<polyline fill="none" stroke="#000000" points="0,-71.5 149,-71.5 "/>
<text text-anchor="middle" x="74.5" y="-59.5" font-family="Helvetica,sans-Serif" font-size="10.00" fill="#000000"> </text>
<polyline fill="none" stroke="#000000" points="0,-52.5 149,-52.5 "/>
<text text-anchor="start" x="8" y="-40.5" font-family="Helvetica,sans-Serif" font-size="10.00" fill="#000000">+ createTempDir()</text>
<text text-anchor="start" x="8" y="-29.5" font-family="Helvetica,sans-Serif" font-size="10.00" fill="#000000">+ deleteTempDir()</text>
<text text-anchor="start" x="8" y="-18.5" font-family="Helvetica,sans-Serif" font-size="10.00" fill="#000000">+ testUnrollAndReroll()</text>
<text text-anchor="start" x="8" y="-7.5" font-family="Helvetica,sans-Serif" font-size="10.00" fill="#000000"># validateUnrolledTarball()</text>
</g>
<!-- Node2 -->
<g id="node2" class="node">
<title>Node2</title>
<polygon fill="none" stroke="#bfbfbf" points="58.5,-138.5 58.5,-195.5 90.5,-195.5 90.5,-138.5 58.5,-138.5"/>
<text text-anchor="middle" x="74.5" y="-183.5" font-family="Helvetica,sans-Serif" font-size="10.00" fill="#000000">File</text>
<polyline fill="none" stroke="#bfbfbf" points="58.5,-176.5 90.5,-176.5 "/>
<text text-anchor="middle" x="74.5" y="-164.5" font-family="Helvetica,sans-Serif" font-size="10.00" fill="#000000"> </text>
<polyline fill="none" stroke="#bfbfbf" points="58.5,-157.5 90.5,-157.5 "/>
<text text-anchor="middle" x="74.5" y="-145.5" font-family="Helvetica,sans-Serif" font-size="10.00" fill="#000000"> </text>
</g>
<!-- Node2&#45;&gt;Node1 -->
<g id="edge1" class="edge">
<title>Node2&#45;&gt;Node1</title>
<path fill="none" stroke="#404040" d="M74.5,-138.2062C74.5,-127.5748 74.5,-115.1181 74.5,-102.847"/>
<polygon fill="none" stroke="#404040" points="74.5001,-102.7124 70.5,-96.7125 74.5,-90.7124 78.5,-96.7124 74.5001,-102.7124"/>
<text text-anchor="middle" x="95" y="-112" font-family="Helvetica,sans-Serif" font-size="10.00" fill="#000000"> &#45;tempDir</text>
</g>
</g>
</svg>
