<?xml version="1.0" encoding="UTF-8" standalone="no"?>
<!DOCTYPE svg PUBLIC "-//W3C//DTD SVG 1.1//EN"
 "http://www.w3.org/Graphics/SVG/1.1/DTD/svg11.dtd">
<!-- Generated by graphviz version 2.40.1 (20161225.0304)
 -->
<!-- Title: org.cobbzilla.util.collection.FieldTransformer.array Pages: 1 -->
<svg width="312pt" height="88pt"
 viewBox="0.00 0.00 312.00 88.00" xmlns="http://www.w3.org/2000/svg" xmlns:xlink="http://www.w3.org/1999/xlink">
<g id="graph0" class="graph" transform="scale(1 1) rotate(0) translate(4 84)">
<title>org.cobbzilla.util.collection.FieldTransformer.array</title>
<!-- Node0 -->
<g id="node1" class="node">
<title>Node0</title>
<polygon fill="#bfbfbf" stroke="#000000" points="0,-24.5 0,-54.5 134,-54.5 134,-24.5 0,-24.5"/>
<text text-anchor="start" x="8" y="-42.5" font-family="Helvetica,sans-Serif" font-size="10.00" fill="#000000">org.cobbzilla.util.collection.</text>
<text text-anchor="middle" x="67" y="-31.5" font-family="Helvetica,sans-Serif" font-size="10.00" fill="#000000">FieldTransformer.array</text>
</g>
<!-- Node1 -->
<g id="node2" class="node">
<title>Node1</title>
<g id="a_node2"><a xlink:href="../../d9/dc3/classorg_1_1cobbzilla_1_1util_1_1collection_1_1FieldTransformer_a0ef296a8fc33a465d154df691259db1d.html#a0ef296a8fc33a465d154df691259db1d" target="_top" xlink:title="org.cobbzilla.util.collection.\lFieldTransformer.collect">
<polygon fill="none" stroke="#000000" points="170,-49.5 170,-79.5 304,-79.5 304,-49.5 170,-49.5"/>
<text text-anchor="start" x="178" y="-67.5" font-family="Helvetica,sans-Serif" font-size="10.00" fill="#000000">org.cobbzilla.util.collection.</text>
<text text-anchor="middle" x="237" y="-56.5" font-family="Helvetica,sans-Serif" font-size="10.00" fill="#000000">FieldTransformer.collect</text>
</a>
</g>
</g>
<!-- Node0&#45;&gt;Node1 -->
<g id="edge1" class="edge">
<title>Node0&#45;&gt;Node1</title>
<path fill="none" stroke="#191970" d="M134.1885,-49.3807C142.5935,-50.6167 151.2417,-51.8885 159.7842,-53.1447"/>
<polygon fill="#191970" stroke="#191970" points="159.34,-56.617 169.7428,-54.6092 160.3585,-49.6915 159.34,-56.617"/>
</g>
<!-- Node2 -->
<g id="node3" class="node">
<title>Node2</title>
<g id="a_node3"><a xlink:href="../../de/d45/classorg_1_1cobbzilla_1_1util_1_1reflect_1_1ReflectionUtil_a84cd0ce9616d1d3ed59fea58495e12c4.html#a84cd0ce9616d1d3ed59fea58495e12c4" target="_top" xlink:title="org.cobbzilla.util.reflect.\lReflectionUtil.getterType">
<polygon fill="none" stroke="#000000" points="174.5,-.5 174.5,-30.5 299.5,-30.5 299.5,-.5 174.5,-.5"/>
<text text-anchor="start" x="182.5" y="-18.5" font-family="Helvetica,sans-Serif" font-size="10.00" fill="#000000">org.cobbzilla.util.reflect.</text>
<text text-anchor="middle" x="237" y="-7.5" font-family="Helvetica,sans-Serif" font-size="10.00" fill="#000000">ReflectionUtil.getterType</text>
</a>
</g>
</g>
<!-- Node0&#45;&gt;Node2 -->
<g id="edge2" class="edge">
<title>Node0&#45;&gt;Node2</title>
<path fill="none" stroke="#191970" d="M134.1885,-30.0146C144.1422,-28.6093 154.4371,-27.1559 164.4935,-25.7362"/>
<polygon fill="#191970" stroke="#191970" points="165.0364,-29.1944 174.4489,-24.3307 164.0578,-22.2631 165.0364,-29.1944"/>
</g>
</g>
</svg>
