<?xml version="1.0" encoding="UTF-8" standalone="no"?>
<!DOCTYPE svg PUBLIC "-//W3C//DTD SVG 1.1//EN"
 "http://www.w3.org/Graphics/SVG/1.1/DTD/svg11.dtd">
<!-- Generated by graphviz version 2.40.1 (20161225.0304)
 -->
<!-- Title: org.cobbzilla.util.cache.BackgroundRefreshingReference.Refresher.run Pages: 1 -->
<svg width="370pt" height="106pt"
 viewBox="0.00 0.00 370.00 106.00" xmlns="http://www.w3.org/2000/svg" xmlns:xlink="http://www.w3.org/1999/xlink">
<g id="graph0" class="graph" transform="scale(1 1) rotate(0) translate(4 102)">
<title>org.cobbzilla.util.cache.BackgroundRefreshingReference.Refresher.run</title>
<!-- Node0 -->
<g id="node1" class="node">
<title>Node0</title>
<polygon fill="#bfbfbf" stroke="#000000" points="0,-28 0,-69 164,-69 164,-28 0,-28"/>
<text text-anchor="start" x="8" y="-57" font-family="Helvetica,sans-Serif" font-size="10.00" fill="#000000">org.cobbzilla.util.cache.</text>
<text text-anchor="start" x="8" y="-46" font-family="Helvetica,sans-Serif" font-size="10.00" fill="#000000">BackgroundRefreshingReference.</text>
<text text-anchor="middle" x="82" y="-35" font-family="Helvetica,sans-Serif" font-size="10.00" fill="#000000">Refresher.run</text>
</g>
<!-- Node1 -->
<g id="node2" class="node">
<title>Node1</title>
<g id="a_node2"><a xlink:href="../../d3/d3f/classorg_1_1cobbzilla_1_1util_1_1cache_1_1AutoRefreshingReference_ab10758f6af4332c34009ed6d03e4fc4d.html#ab10758f6af4332c34009ed6d03e4fc4d" target="_top" xlink:title="org.cobbzilla.util.cache.\lAutoRefreshingReference.refresh">
<polygon fill="none" stroke="#000000" points="200,-67.5 200,-97.5 362,-97.5 362,-67.5 200,-67.5"/>
<text text-anchor="start" x="208" y="-85.5" font-family="Helvetica,sans-Serif" font-size="10.00" fill="#000000">org.cobbzilla.util.cache.</text>
<text text-anchor="middle" x="281" y="-74.5" font-family="Helvetica,sans-Serif" font-size="10.00" fill="#000000">AutoRefreshingReference.refresh</text>
</a>
</g>
</g>
<!-- Node0&#45;&gt;Node1 -->
<g id="edge1" class="edge">
<title>Node0&#45;&gt;Node1</title>
<path fill="none" stroke="#191970" d="M164.0898,-62.5254C172.5546,-63.9716 181.1928,-65.4475 189.7492,-66.9094"/>
<polygon fill="#191970" stroke="#191970" points="189.294,-70.3823 199.7407,-68.6165 190.473,-63.4823 189.294,-70.3823"/>
</g>
<!-- Node2 -->
<g id="node3" class="node">
<title>Node2</title>
<g id="a_node3"><a xlink:href="../../dd/d5e/classorg_1_1cobbzilla_1_1util_1_1system_1_1Sleep_a7a160ebe6f2659f9eb9d80d6554ca9a8.html#a7a160ebe6f2659f9eb9d80d6554ca9a8" target="_top" xlink:title="sleep for 100ms and throw an exception if interrupted ">
<polygon fill="none" stroke="#000000" points="218.5,-.5 218.5,-30.5 343.5,-30.5 343.5,-.5 218.5,-.5"/>
<text text-anchor="start" x="226.5" y="-18.5" font-family="Helvetica,sans-Serif" font-size="10.00" fill="#000000">org.cobbzilla.util.system.</text>
<text text-anchor="middle" x="281" y="-7.5" font-family="Helvetica,sans-Serif" font-size="10.00" fill="#000000">Sleep.sleep</text>
</a>
</g>
</g>
<!-- Node0&#45;&gt;Node2 -->
<g id="edge2" class="edge">
<title>Node0&#45;&gt;Node2</title>
<path fill="none" stroke="#191970" d="M164.0898,-34.8871C178.6497,-32.4727 193.7229,-29.9731 208.0096,-27.6039"/>
<polygon fill="#191970" stroke="#191970" points="208.9623,-30.9938 218.255,-25.905 207.8171,-24.0881 208.9623,-30.9938"/>
</g>
<!-- Node2&#45;&gt;Node2 -->
<g id="edge3" class="edge">
<title>Node2&#45;&gt;Node2</title>
<path fill="none" stroke="#191970" d="M246.4944,-30.659C238.1739,-40.0566 249.6758,-49 281,-49 300.0882,-49 311.8156,-45.679 316.1822,-40.9579"/>
<polygon fill="#191970" stroke="#191970" points="319.6537,-40.408 315.5056,-30.659 312.6688,-40.867 319.6537,-40.408"/>
</g>
</g>
</svg>
