<?xml version="1.0" encoding="UTF-8" standalone="no"?>
<!DOCTYPE svg PUBLIC "-//W3C//DTD SVG 1.1//EN"
 "http://www.w3.org/Graphics/SVG/1.1/DTD/svg11.dtd">
<!-- Generated by graphviz version 2.40.1 (20161225.0304)
 -->
<!-- Title: org.cobbzilla.util.main.IndexMain.main Pages: 1 -->
<svg width="292pt" height="155pt"
 viewBox="0.00 0.00 292.00 155.00" xmlns="http://www.w3.org/2000/svg" xmlns:xlink="http://www.w3.org/1999/xlink">
<g id="graph0" class="graph" transform="scale(1 1) rotate(0) translate(4 151)">
<title>org.cobbzilla.util.main.IndexMain.main</title>
<!-- Node0 -->
<g id="node1" class="node">
<title>Node0</title>
<polygon fill="#bfbfbf" stroke="#000000" points="0,-67.5 0,-97.5 114,-97.5 114,-67.5 0,-67.5"/>
<text text-anchor="start" x="8" y="-85.5" font-family="Helvetica,sans-Serif" font-size="10.00" fill="#000000">org.cobbzilla.util.main.</text>
<text text-anchor="middle" x="57" y="-74.5" font-family="Helvetica,sans-Serif" font-size="10.00" fill="#000000">IndexMain.main</text>
</g>
<!-- Node1 -->
<g id="node2" class="node">
<title>Node1</title>
<g id="a_node2"><a xlink:href="../../da/d75/classorg_1_1cobbzilla_1_1util_1_1main_1_1IndexMain_a00e8cd238d5a5aadc0adbe8e962488f5.html#a00e8cd238d5a5aadc0adbe8e962488f5" target="_top" xlink:title="org.cobbzilla.util.main.\lIndexMain.die">
<polygon fill="none" stroke="#000000" points="160,-116.5 160,-146.5 274,-146.5 274,-116.5 160,-116.5"/>
<text text-anchor="start" x="168" y="-134.5" font-family="Helvetica,sans-Serif" font-size="10.00" fill="#000000">org.cobbzilla.util.main.</text>
<text text-anchor="middle" x="217" y="-123.5" font-family="Helvetica,sans-Serif" font-size="10.00" fill="#000000">IndexMain.die</text>
</a>
</g>
</g>
<!-- Node0&#45;&gt;Node1 -->
<g id="edge1" class="edge">
<title>Node0&#45;&gt;Node1</title>
<path fill="none" stroke="#191970" d="M106.3108,-97.6014C122.6598,-102.6083 141.0243,-108.2324 158.0252,-113.439"/>
<polygon fill="#191970" stroke="#191970" points="157.2654,-116.8667 167.852,-116.4484 159.3152,-110.1735 157.2654,-116.8667"/>
</g>
<!-- Node2 -->
<g id="node3" class="node">
<title>Node2</title>
<g id="a_node3"><a xlink:href="../../d5/df3/classorg_1_1cobbzilla_1_1util_1_1collection_1_1ArrayUtil_ab5a41bc380c2382a18e54946a8374e3c.html#ab5a41bc380c2382a18e54946a8374e3c" target="_top" xlink:title="org.cobbzilla.util.collection.\lArrayUtil.remove">
<polygon fill="none" stroke="#000000" points="150,-67.5 150,-97.5 284,-97.5 284,-67.5 150,-67.5"/>
<text text-anchor="start" x="158" y="-85.5" font-family="Helvetica,sans-Serif" font-size="10.00" fill="#000000">org.cobbzilla.util.collection.</text>
<text text-anchor="middle" x="217" y="-74.5" font-family="Helvetica,sans-Serif" font-size="10.00" fill="#000000">ArrayUtil.remove</text>
</a>
</g>
</g>
<!-- Node0&#45;&gt;Node2 -->
<g id="edge2" class="edge">
<title>Node0&#45;&gt;Node2</title>
<path fill="none" stroke="#191970" d="M114.3117,-82.5C122.5613,-82.5 131.1617,-82.5 139.7205,-82.5"/>
<polygon fill="#191970" stroke="#191970" points="139.7252,-86.0001 149.7252,-82.5 139.7252,-79.0001 139.7252,-86.0001"/>
</g>
<!-- Node3 -->
<g id="node4" class="node">
<title>Node3</title>
<g id="a_node4"><a xlink:href="../../db/d9f/classorg_1_1cobbzilla_1_1util_1_1string_1_1StringUtil_a7241ffa301b092ebc9118059204827b0.html#a7241ffa301b092ebc9118059204827b0" target="_top" xlink:title="org.cobbzilla.util.string.\lStringUtil.toString">
<polygon fill="none" stroke="#000000" points="158.5,-.5 158.5,-30.5 275.5,-30.5 275.5,-.5 158.5,-.5"/>
<text text-anchor="start" x="166.5" y="-18.5" font-family="Helvetica,sans-Serif" font-size="10.00" fill="#000000">org.cobbzilla.util.string.</text>
<text text-anchor="middle" x="217" y="-7.5" font-family="Helvetica,sans-Serif" font-size="10.00" fill="#000000">StringUtil.toString</text>
</a>
</g>
</g>
<!-- Node0&#45;&gt;Node3 -->
<g id="edge3" class="edge">
<title>Node0&#45;&gt;Node3</title>
<path fill="none" stroke="#191970" d="M92.9071,-67.4639C116.1911,-57.7137 146.722,-44.9289 171.6734,-34.4805"/>
<polygon fill="#191970" stroke="#191970" points="173.0642,-37.6926 180.9363,-30.6017 170.3604,-31.2359 173.0642,-37.6926"/>
</g>
<!-- Node3&#45;&gt;Node3 -->
<g id="edge4" class="edge">
<title>Node3&#45;&gt;Node3</title>
<path fill="none" stroke="#191970" d="M189.1167,-30.659C182.3931,-40.0566 191.6875,-49 217,-49 232.4248,-49 241.9015,-45.679 245.4301,-40.9579"/>
<polygon fill="#191970" stroke="#191970" points="248.9086,-40.4594 244.8833,-30.659 241.9185,-40.8305 248.9086,-40.4594"/>
</g>
</g>
</svg>
