<?xml version="1.0" encoding="UTF-8" standalone="no"?>
<!DOCTYPE svg PUBLIC "-//W3C//DTD SVG 1.1//EN"
 "http://www.w3.org/Graphics/SVG/1.1/DTD/svg11.dtd">
<!-- Generated by graphviz version 2.40.1 (20161225.0304)
 -->
<!-- Title: org.cobbzilla.util.math.CumipmtCalculatorTest Pages: 1 -->
<svg width="219pt" height="364pt"
 viewBox="0.00 0.00 219.00 364.00" xmlns="http://www.w3.org/2000/svg" xmlns:xlink="http://www.w3.org/1999/xlink">
<g id="graph0" class="graph" transform="scale(1 1) rotate(0) translate(4 360)">
<title>org.cobbzilla.util.math.CumipmtCalculatorTest</title>
<!-- Node1 -->
<g id="node1" class="node">
<title>Node1</title>
<polygon fill="#bfbfbf" stroke="#000000" points="3.5,-.5 3.5,-145.5 140.5,-145.5 140.5,-.5 3.5,-.5"/>
<text text-anchor="start" x="11.5" y="-133.5" font-family="Helvetica,sans-Serif" font-size="10.00" fill="#000000">org.cobbzilla.util.math.</text>
<text text-anchor="middle" x="72" y="-122.5" font-family="Helvetica,sans-Serif" font-size="10.00" fill="#000000">CumipmtCalculatorTest</text>
<polyline fill="none" stroke="#000000" points="3.5,-115.5 140.5,-115.5 "/>
<text text-anchor="start" x="11.5" y="-103.5" font-family="Helvetica,sans-Serif" font-size="10.00" fill="#000000">&#45; periodCount</text>
<text text-anchor="start" x="11.5" y="-92.5" font-family="Helvetica,sans-Serif" font-size="10.00" fill="#000000">&#45; premium</text>
<text text-anchor="start" x="11.5" y="-81.5" font-family="Helvetica,sans-Serif" font-size="10.00" fill="#000000">&#45; downPercent</text>
<text text-anchor="start" x="11.5" y="-70.5" font-family="Helvetica,sans-Serif" font-size="10.00" fill="#000000">&#45; paymentsCount</text>
<text text-anchor="start" x="11.5" y="-59.5" font-family="Helvetica,sans-Serif" font-size="10.00" fill="#000000">&#45; expectedValue</text>
<text text-anchor="start" x="11.5" y="-48.5" font-family="Helvetica,sans-Serif" font-size="10.00" fill="#000000">&#45; PRECISSION</text>
<text text-anchor="start" x="11.5" y="-37.5" font-family="Helvetica,sans-Serif" font-size="10.00" fill="#000000">&#45; MAX_RATE_PERCENT</text>
<polyline fill="none" stroke="#000000" points="3.5,-30.5 140.5,-30.5 "/>
<text text-anchor="start" x="11.5" y="-18.5" font-family="Helvetica,sans-Serif" font-size="10.00" fill="#000000">+ testCumipmt()</text>
<text text-anchor="start" x="11.5" y="-7.5" font-family="Helvetica,sans-Serif" font-size="10.00" fill="#000000">+ paramsAndExpectedVal()</text>
</g>
<!-- Node2 -->
<g id="node2" class="node">
<title>Node2</title>
<polygon fill="none" stroke="#bfbfbf" points="0,-193.5 0,-250.5 144,-250.5 144,-193.5 0,-193.5"/>
<text text-anchor="middle" x="72" y="-238.5" font-family="Helvetica,sans-Serif" font-size="10.00" fill="#000000">HashMap&lt; Double, Double &gt;</text>
<polyline fill="none" stroke="#bfbfbf" points="0,-231.5 144,-231.5 "/>
<text text-anchor="middle" x="72" y="-219.5" font-family="Helvetica,sans-Serif" font-size="10.00" fill="#000000"> </text>
<polyline fill="none" stroke="#bfbfbf" points="0,-212.5 144,-212.5 "/>
<text text-anchor="middle" x="72" y="-200.5" font-family="Helvetica,sans-Serif" font-size="10.00" fill="#000000"> </text>
</g>
<!-- Node2&#45;&gt;Node1 -->
<g id="edge1" class="edge">
<title>Node2&#45;&gt;Node1</title>
<path fill="none" stroke="#404040" d="M72,-193.2713C72,-182.8895 72,-170.5716 72,-157.843"/>
<polygon fill="none" stroke="#404040" points="72.0001,-157.5631 68,-151.5632 72,-145.5631 76,-151.5631 72.0001,-157.5631"/>
<text text-anchor="middle" x="141.5" y="-167" font-family="Helvetica,sans-Serif" font-size="10.00" fill="#000000"> &#45;RATE_PERCENT_MAPPING</text>
</g>
<!-- Node3 -->
<g id="node3" class="node">
<title>Node3</title>
<polygon fill="none" stroke="#bfbfbf" points="42.5,-298.5 42.5,-355.5 101.5,-355.5 101.5,-298.5 42.5,-298.5"/>
<text text-anchor="middle" x="72" y="-343.5" font-family="Helvetica,sans-Serif" font-size="10.00" fill="#000000">HashMap</text>
<polyline fill="none" stroke="#bfbfbf" points="42.5,-336.5 101.5,-336.5 "/>
<text text-anchor="middle" x="72" y="-324.5" font-family="Helvetica,sans-Serif" font-size="10.00" fill="#000000"> </text>
<polyline fill="none" stroke="#bfbfbf" points="42.5,-317.5 101.5,-317.5 "/>
<text text-anchor="middle" x="72" y="-305.5" font-family="Helvetica,sans-Serif" font-size="10.00" fill="#000000"> </text>
</g>
<!-- Node3&#45;&gt;Node2 -->
<g id="edge2" class="edge">
<title>Node3&#45;&gt;Node2</title>
<path fill="none" stroke="#ffa500" d="M72,-288.192C72,-275.7605 72,-262.2278 72,-250.657"/>
<polygon fill="#ffa500" stroke="#ffa500" points="68.5001,-288.3083 72,-298.3083 75.5001,-288.3083 68.5001,-288.3083"/>
<text text-anchor="middle" x="116.5" y="-272" font-family="Helvetica,sans-Serif" font-size="10.00" fill="#000000"> &lt; Double, Double &gt;</text>
</g>
</g>
</svg>
