<?xml version="1.0" encoding="UTF-8" standalone="no"?>
<!DOCTYPE svg PUBLIC "-//W3C//DTD SVG 1.1//EN"
 "http://www.w3.org/Graphics/SVG/1.1/DTD/svg11.dtd">
<!-- Generated by graphviz version 2.40.1 (20161225.0304)
 -->
<!-- Title: org.cobbzilla.util.xml.XPath2.xpath Pages: 1 -->
<svg width="383pt" height="106pt"
 viewBox="0.00 0.00 383.00 106.00" xmlns="http://www.w3.org/2000/svg" xmlns:xlink="http://www.w3.org/1999/xlink">
<g id="graph0" class="graph" transform="scale(1 1) rotate(0) translate(4 102)">
<title>org.cobbzilla.util.xml.XPath2.xpath</title>
<!-- Node0 -->
<g id="node1" class="node">
<title>Node0</title>
<polygon fill="#bfbfbf" stroke="#000000" points="0,-30 0,-49 168,-49 168,-30 0,-30"/>
<text text-anchor="middle" x="84" y="-37" font-family="Helvetica,sans-Serif" font-size="10.00" fill="#000000">org.cobbzilla.util.xml.XPath2.xpath</text>
</g>
<!-- Node1 -->
<g id="node2" class="node">
<title>Node1</title>
<g id="a_node2"><a xlink:href="../../d0/db4/classorg_1_1cobbzilla_1_1util_1_1xml_1_1XPath2_a33b49a56ff2930b93882777587d309da.html#a33b49a56ff2930b93882777587d309da" target="_top" xlink:title="org.cobbzilla.util.xml.XPath2.match\lElements">
<polygon fill="none" stroke="#000000" points="204,-49.5 204,-79.5 375,-79.5 375,-49.5 204,-49.5"/>
<text text-anchor="start" x="212" y="-67.5" font-family="Helvetica,sans-Serif" font-size="10.00" fill="#000000">org.cobbzilla.util.xml.XPath2.match</text>
<text text-anchor="middle" x="289.5" y="-56.5" font-family="Helvetica,sans-Serif" font-size="10.00" fill="#000000">Elements</text>
</a>
</g>
</g>
<!-- Node0&#45;&gt;Node1 -->
<g id="edge1" class="edge">
<title>Node0&#45;&gt;Node1</title>
<path fill="none" stroke="#191970" d="M162.277,-49.0227C172.5917,-50.2776 183.2557,-51.5749 193.8196,-52.8601"/>
<polygon fill="#191970" stroke="#191970" points="193.5531,-56.3533 203.9026,-54.0867 194.3985,-49.4046 193.5531,-56.3533"/>
</g>
<!-- Node2 -->
<g id="node3" class="node">
<title>Node2</title>
<g id="a_node3"><a xlink:href="../../d0/db4/classorg_1_1cobbzilla_1_1util_1_1xml_1_1XPath2_a3be953ed5c42333993d28478c17ddd0f.html#a3be953ed5c42333993d28478c17ddd0f" target="_top" xlink:title="org.cobbzilla.util.xml.XPath2.\lXPath2">
<polygon fill="none" stroke="#000000" points="217.5,-.5 217.5,-30.5 361.5,-30.5 361.5,-.5 217.5,-.5"/>
<text text-anchor="start" x="225.5" y="-18.5" font-family="Helvetica,sans-Serif" font-size="10.00" fill="#000000">org.cobbzilla.util.xml.XPath2.</text>
<text text-anchor="middle" x="289.5" y="-7.5" font-family="Helvetica,sans-Serif" font-size="10.00" fill="#000000">XPath2</text>
</a>
</g>
</g>
<!-- Node0&#45;&gt;Node2 -->
<g id="edge3" class="edge">
<title>Node0&#45;&gt;Node2</title>
<path fill="none" stroke="#191970" d="M165.5142,-29.9801C179.3106,-28.3688 193.6411,-26.6952 207.4512,-25.0823"/>
<polygon fill="#191970" stroke="#191970" points="207.8735,-28.5569 217.4,-23.9204 207.0614,-21.6042 207.8735,-28.5569"/>
</g>
<!-- Node1&#45;&gt;Node1 -->
<g id="edge2" class="edge">
<title>Node1&#45;&gt;Node1</title>
<path fill="none" stroke="#191970" d="M253.9488,-79.659C245.3762,-89.0566 257.2266,-98 289.5,-98 309.1666,-98 321.2494,-94.679 325.7483,-89.9579"/>
<polygon fill="#191970" stroke="#191970" points="329.2187,-89.3998 325.0512,-79.659 322.2346,-89.8726 329.2187,-89.3998"/>
</g>
</g>
</svg>
