<?xml version="1.0" encoding="UTF-8" standalone="no"?>
<!DOCTYPE svg PUBLIC "-//W3C//DTD SVG 1.1//EN"
 "http://www.w3.org/Graphics/SVG/1.1/DTD/svg11.dtd">
<!-- Generated by graphviz version 2.40.1 (20161225.0304)
 -->
<!-- Title: org.cobbzilla.util.xml.XPath2.matchElements Pages: 1 -->
<svg width="383pt" height="57pt"
 viewBox="0.00 0.00 383.00 57.00" xmlns="http://www.w3.org/2000/svg" xmlns:xlink="http://www.w3.org/1999/xlink">
<g id="graph0" class="graph" transform="scale(1 1) rotate(0) translate(4 53)">
<title>org.cobbzilla.util.xml.XPath2.matchElements</title>
<!-- Node1 -->
<g id="node1" class="node">
<title>Node1</title>
<polygon fill="#bfbfbf" stroke="#000000" points="0,-.5 0,-30.5 171,-30.5 171,-.5 0,-.5"/>
<text text-anchor="start" x="8" y="-18.5" font-family="Helvetica,sans-Serif" font-size="10.00" fill="#000000">org.cobbzilla.util.xml.XPath2.match</text>
<text text-anchor="middle" x="85.5" y="-7.5" font-family="Helvetica,sans-Serif" font-size="10.00" fill="#000000">Elements</text>
</g>
<!-- Node1&#45;&gt;Node1 -->
<g id="edge1" class="edge">
<title>Node1&#45;&gt;Node1</title>
<path fill="none" stroke="#191970" d="M49.2517,-40.9579C53.7506,-45.679 65.8334,-49 85.5,-49 117.7734,-49 129.6238,-40.0566 121.0512,-30.659"/>
<polygon fill="#191970" stroke="#191970" points="52.7654,-40.8726 49.9488,-30.659 45.7813,-40.3998 52.7654,-40.8726"/>
</g>
<!-- Node2 -->
<g id="node2" class="node">
<title>Node2</title>
<g id="a_node2"><a xlink:href="../../d0/db4/classorg_1_1cobbzilla_1_1util_1_1xml_1_1XPath2_a143b2fb8ed9a82b57595484affe2d285.html#a143b2fb8ed9a82b57595484affe2d285" target="_top" xlink:title="org.cobbzilla.util.xml.XPath2.xpath">
<polygon fill="none" stroke="#000000" points="207,-6 207,-25 375,-25 375,-6 207,-6"/>
<text text-anchor="middle" x="291" y="-13" font-family="Helvetica,sans-Serif" font-size="10.00" fill="#000000">org.cobbzilla.util.xml.XPath2.xpath</text>
</a>
</g>
</g>
<!-- Node1&#45;&gt;Node2 -->
<g id="edge2" class="edge">
<title>Node1&#45;&gt;Node2</title>
<path fill="none" stroke="#191970" d="M181.1641,-15.5C189.7219,-15.5 198.3457,-15.5 206.7963,-15.5"/>
<polygon fill="#191970" stroke="#191970" points="181.1625,-12.0001 171.1624,-15.5 181.1624,-19.0001 181.1625,-12.0001"/>
</g>
</g>
</svg>
