<?xml version="1.0" encoding="UTF-8" standalone="no"?>
<!DOCTYPE svg PUBLIC "-//W3C//DTD SVG 1.1//EN"
 "http://www.w3.org/Graphics/SVG/1.1/DTD/svg11.dtd">
<!-- Generated by graphviz version 2.40.1 (20161225.0304)
 -->
<!-- Title: org.cobbzilla.util.io.FilesystemWalker.FsWalker Pages: 1 -->
<svg width="157pt" height="193pt"
 viewBox="0.00 0.00 157.00 193.00" xmlns="http://www.w3.org/2000/svg" xmlns:xlink="http://www.w3.org/1999/xlink">
<g id="graph0" class="graph" transform="scale(1 1) rotate(0) translate(4 189)">
<title>org.cobbzilla.util.io.FilesystemWalker.FsWalker</title>
<!-- Node2 -->
<g id="node1" class="node">
<title>Node2</title>
<polygon fill="#bfbfbf" stroke="#000000" points="0,-.5 0,-79.5 149,-79.5 149,-.5 0,-.5"/>
<text text-anchor="start" x="8" y="-67.5" font-family="Helvetica,sans-Serif" font-size="10.00" fill="#000000">org.cobbzilla.util.io.Filesystem</text>
<text text-anchor="middle" x="74.5" y="-56.5" font-family="Helvetica,sans-Serif" font-size="10.00" fill="#000000">Walker.FsWalker</text>
<polyline fill="none" stroke="#000000" points="0,-49.5 149,-49.5 "/>
<text text-anchor="middle" x="74.5" y="-37.5" font-family="Helvetica,sans-Serif" font-size="10.00" fill="#000000"> </text>
<polyline fill="none" stroke="#000000" points="0,-30.5 149,-30.5 "/>
<text text-anchor="start" x="8" y="-18.5" font-family="Helvetica,sans-Serif" font-size="10.00" fill="#000000">+ run()</text>
<text text-anchor="start" x="8" y="-7.5" font-family="Helvetica,sans-Serif" font-size="10.00" fill="#000000">&#45; visit()</text>
</g>
<!-- Node3 -->
<g id="node2" class="node">
<title>Node3</title>
<polygon fill="none" stroke="#bfbfbf" points="14.5,-127.5 14.5,-184.5 72.5,-184.5 72.5,-127.5 14.5,-127.5"/>
<text text-anchor="middle" x="43.5" y="-172.5" font-family="Helvetica,sans-Serif" font-size="10.00" fill="#000000">Runnable</text>
<polyline fill="none" stroke="#bfbfbf" points="14.5,-165.5 72.5,-165.5 "/>
<text text-anchor="middle" x="43.5" y="-153.5" font-family="Helvetica,sans-Serif" font-size="10.00" fill="#000000"> </text>
<polyline fill="none" stroke="#bfbfbf" points="14.5,-146.5 72.5,-146.5 "/>
<text text-anchor="middle" x="43.5" y="-134.5" font-family="Helvetica,sans-Serif" font-size="10.00" fill="#000000"> </text>
</g>
<!-- Node3&#45;&gt;Node2 -->
<g id="edge1" class="edge">
<title>Node3&#45;&gt;Node2</title>
<path fill="none" stroke="#191970" d="M53.7911,-117.4913C57.0337,-105.3578 60.6204,-91.9365 63.8851,-79.7203"/>
<polygon fill="none" stroke="#191970" points="50.3635,-116.7612 51.1629,-127.3258 57.1261,-118.5685 50.3635,-116.7612"/>
</g>
<!-- Node4 -->
<g id="node3" class="node">
<title>Node4</title>
<polygon fill="none" stroke="#bfbfbf" points="90.5,-127.5 90.5,-184.5 122.5,-184.5 122.5,-127.5 90.5,-127.5"/>
<text text-anchor="middle" x="106.5" y="-172.5" font-family="Helvetica,sans-Serif" font-size="10.00" fill="#000000">File</text>
<polyline fill="none" stroke="#bfbfbf" points="90.5,-165.5 122.5,-165.5 "/>
<text text-anchor="middle" x="106.5" y="-153.5" font-family="Helvetica,sans-Serif" font-size="10.00" fill="#000000"> </text>
<polyline fill="none" stroke="#bfbfbf" points="90.5,-146.5 122.5,-146.5 "/>
<text text-anchor="middle" x="106.5" y="-134.5" font-family="Helvetica,sans-Serif" font-size="10.00" fill="#000000"> </text>
</g>
<!-- Node4&#45;&gt;Node2 -->
<g id="edge2" class="edge">
<title>Node4&#45;&gt;Node2</title>
<path fill="none" stroke="#404040" d="M98.5899,-127.3258C95.5884,-116.4455 92.0715,-103.6966 88.6668,-91.3545"/>
<polygon fill="none" stroke="#404040" points="88.6485,-91.2882 83.197,-86.568 85.4573,-79.7203 90.9089,-84.4405 88.6485,-91.2882"/>
<text text-anchor="middle" x="102" y="-101" font-family="Helvetica,sans-Serif" font-size="10.00" fill="#000000"> &#45;file</text>
</g>
</g>
</svg>
