<?xml version="1.0" encoding="UTF-8" standalone="no"?>
<!DOCTYPE svg PUBLIC "-//W3C//DTD SVG 1.1//EN"
 "http://www.w3.org/Graphics/SVG/1.1/DTD/svg11.dtd">
<!-- Generated by graphviz version 2.40.1 (20161225.0304)
 -->
<!-- Title: org.cobbzilla.util.bean.BeanMerger.CopyEvaluator Pages: 1 -->
<svg width="268pt" height="182pt"
 viewBox="0.00 0.00 268.00 182.00" xmlns="http://www.w3.org/2000/svg" xmlns:xlink="http://www.w3.org/1999/xlink">
<g id="graph0" class="graph" transform="scale(1 1) rotate(0) translate(4 178)">
<title>org.cobbzilla.util.bean.BeanMerger.CopyEvaluator</title>
<!-- Node0 -->
<g id="node1" class="node">
<title>Node0</title>
<polygon fill="#bfbfbf" stroke="#000000" points="64.5,-105.5 64.5,-173.5 201.5,-173.5 201.5,-105.5 64.5,-105.5"/>
<text text-anchor="start" x="72.5" y="-161.5" font-family="Helvetica,sans-Serif" font-size="10.00" fill="#000000">org.cobbzilla.util.bean.</text>
<text text-anchor="middle" x="133" y="-150.5" font-family="Helvetica,sans-Serif" font-size="10.00" fill="#000000">BeanMerger.CopyEvaluator</text>
<polyline fill="none" stroke="#000000" points="64.5,-143.5 201.5,-143.5 "/>
<text text-anchor="middle" x="133" y="-131.5" font-family="Helvetica,sans-Serif" font-size="10.00" fill="#000000"> </text>
<polyline fill="none" stroke="#000000" points="64.5,-124.5 201.5,-124.5 "/>
<text text-anchor="start" x="72.5" y="-112.5" font-family="Helvetica,sans-Serif" font-size="10.00" fill="#000000">+ shouldCopy()</text>
</g>
<!-- Node1 -->
<g id="node2" class="node">
<title>Node1</title>
<g id="a_node2"><a xlink:href="../../df/df9/classorg_1_1cobbzilla_1_1util_1_1bean_1_1BeanMerger_1_1AlwaysCopy.html" target="_top" xlink:title="{org.cobbzilla.util.bean.\lBeanMerger.AlwaysCopy\n|~ INSTANCE\l|+ shouldCopy()\l}">
<polygon fill="none" stroke="#000000" points="0,-.5 0,-68.5 128,-68.5 128,-.5 0,-.5"/>
<text text-anchor="start" x="8" y="-56.5" font-family="Helvetica,sans-Serif" font-size="10.00" fill="#000000">org.cobbzilla.util.bean.</text>
<text text-anchor="middle" x="64" y="-45.5" font-family="Helvetica,sans-Serif" font-size="10.00" fill="#000000">BeanMerger.AlwaysCopy</text>
<polyline fill="none" stroke="#000000" points="0,-38.5 128,-38.5 "/>
<text text-anchor="start" x="8" y="-26.5" font-family="Helvetica,sans-Serif" font-size="10.00" fill="#000000">~ INSTANCE</text>
<polyline fill="none" stroke="#000000" points="0,-19.5 128,-19.5 "/>
<text text-anchor="start" x="8" y="-7.5" font-family="Helvetica,sans-Serif" font-size="10.00" fill="#000000">+ shouldCopy()</text>
</a>
</g>
</g>
<!-- Node0&#45;&gt;Node1 -->
<g id="edge1" class="edge">
<title>Node0&#45;&gt;Node1</title>
<path fill="none" stroke="#191970" d="M105.0461,-96.9615C98.8868,-87.5887 92.4386,-77.7762 86.526,-68.7788"/>
<polygon fill="none" stroke="#191970" points="102.1809,-98.9746 110.5977,-105.4095 108.0308,-95.1303 102.1809,-98.9746"/>
</g>
<!-- Node2 -->
<g id="node3" class="node">
<title>Node2</title>
<g id="a_node3"><a xlink:href="../../dc/d34/classorg_1_1cobbzilla_1_1util_1_1bean_1_1BeanMerger_1_1NotNull.html" target="_top" xlink:title="{org.cobbzilla.util.bean.\lBeanMerger.NotNull\n|~ INSTANCE\l|+ shouldCopy()\l}">
<polygon fill="none" stroke="#000000" points="146,-.5 146,-68.5 260,-68.5 260,-.5 146,-.5"/>
<text text-anchor="start" x="154" y="-56.5" font-family="Helvetica,sans-Serif" font-size="10.00" fill="#000000">org.cobbzilla.util.bean.</text>
<text text-anchor="middle" x="203" y="-45.5" font-family="Helvetica,sans-Serif" font-size="10.00" fill="#000000">BeanMerger.NotNull</text>
<polyline fill="none" stroke="#000000" points="146,-38.5 260,-38.5 "/>
<text text-anchor="start" x="154" y="-26.5" font-family="Helvetica,sans-Serif" font-size="10.00" fill="#000000">~ INSTANCE</text>
<polyline fill="none" stroke="#000000" points="146,-19.5 260,-19.5 "/>
<text text-anchor="start" x="154" y="-7.5" font-family="Helvetica,sans-Serif" font-size="10.00" fill="#000000">+ shouldCopy()</text>
</a>
</g>
</g>
<!-- Node0&#45;&gt;Node2 -->
<g id="edge2" class="edge">
<title>Node0&#45;&gt;Node2</title>
<path fill="none" stroke="#191970" d="M161.359,-96.9615C167.6075,-87.5887 174.1492,-77.7762 180.1475,-68.7788"/>
<polygon fill="none" stroke="#191970" points="158.3619,-95.1475 155.727,-105.4095 164.1862,-99.0305 158.3619,-95.1475"/>
</g>
</g>
</svg>
