<?xml version="1.0" encoding="UTF-8" standalone="no"?>
<!DOCTYPE svg PUBLIC "-//W3C//DTD SVG 1.1//EN"
 "http://www.w3.org/Graphics/SVG/1.1/DTD/svg11.dtd">
<!-- Generated by graphviz version 2.40.1 (20161225.0304)
 -->
<!-- Title: org.cobbzilla.util.handlebars.main.PdfConcatMain.run Pages: 1 -->
<svg width="550pt" height="137pt"
 viewBox="0.00 0.00 550.00 137.00" xmlns="http://www.w3.org/2000/svg" xmlns:xlink="http://www.w3.org/1999/xlink">
<g id="graph0" class="graph" transform="scale(1 1) rotate(0) translate(4 133)">
<title>org.cobbzilla.util.handlebars.main.PdfConcatMain.run</title>
<!-- Node0 -->
<g id="node1" class="node">
<title>Node0</title>
<polygon fill="#bfbfbf" stroke="#000000" points="0,-49.5 0,-79.5 164,-79.5 164,-49.5 0,-49.5"/>
<text text-anchor="start" x="8" y="-67.5" font-family="Helvetica,sans-Serif" font-size="10.00" fill="#000000">org.cobbzilla.util.handlebars.main.</text>
<text text-anchor="middle" x="82" y="-56.5" font-family="Helvetica,sans-Serif" font-size="10.00" fill="#000000">PdfConcatMain.run</text>
</g>
<!-- Node1 -->
<g id="node2" class="node">
<title>Node1</title>
<g id="a_node2"><a xlink:href="../../d9/d58/classorg_1_1cobbzilla_1_1util_1_1handlebars_1_1PdfMerger_ad7f76387335eb4fd04e0c09843989ccf.html#ad7f76387335eb4fd04e0c09843989ccf" target="_top" xlink:title="org.cobbzilla.util.handlebars.\lPdfMerger.concatenate">
<polygon fill="none" stroke="#000000" points="212,-98.5 212,-128.5 352,-128.5 352,-98.5 212,-98.5"/>
<text text-anchor="start" x="220" y="-116.5" font-family="Helvetica,sans-Serif" font-size="10.00" fill="#000000">org.cobbzilla.util.handlebars.</text>
<text text-anchor="middle" x="282" y="-105.5" font-family="Helvetica,sans-Serif" font-size="10.00" fill="#000000">PdfMerger.concatenate</text>
</a>
</g>
</g>
<!-- Node0&#45;&gt;Node1 -->
<g id="edge1" class="edge">
<title>Node0&#45;&gt;Node1</title>
<path fill="none" stroke="#191970" d="M143.3658,-79.5346C164.675,-84.7554 188.7499,-90.6537 210.7862,-96.0526"/>
<polygon fill="#191970" stroke="#191970" points="210.2046,-99.5136 220.7503,-98.4938 211.8704,-92.7147 210.2046,-99.5136"/>
</g>
<!-- Node2 -->
<g id="node3" class="node">
<title>Node2</title>
<g id="a_node3"><a xlink:href="../../d8/d78/classorg_1_1cobbzilla_1_1util_1_1handlebars_1_1main_1_1PdfConcatOptions_a147fe12c088247992633bd2972165091.html#a147fe12c088247992633bd2972165091" target="_top" xlink:title="org.cobbzilla.util.handlebars.main.\lPdfConcatOptions.getOut">
<polygon fill="none" stroke="#000000" points="200,-49.5 200,-79.5 364,-79.5 364,-49.5 200,-49.5"/>
<text text-anchor="start" x="208" y="-67.5" font-family="Helvetica,sans-Serif" font-size="10.00" fill="#000000">org.cobbzilla.util.handlebars.main.</text>
<text text-anchor="middle" x="282" y="-56.5" font-family="Helvetica,sans-Serif" font-size="10.00" fill="#000000">PdfConcatOptions.getOut</text>
</a>
</g>
</g>
<!-- Node0&#45;&gt;Node2 -->
<g id="edge2" class="edge">
<title>Node0&#45;&gt;Node2</title>
<path fill="none" stroke="#191970" d="M164.2135,-64.5C172.5625,-64.5 181.0824,-64.5 189.5302,-64.5"/>
<polygon fill="#191970" stroke="#191970" points="189.7826,-68.0001 199.7826,-64.5 189.7826,-61.0001 189.7826,-68.0001"/>
</g>
<!-- Node4 -->
<g id="node5" class="node">
<title>Node4</title>
<g id="a_node5"><a xlink:href="../../d6/dee/classorg_1_1cobbzilla_1_1util_1_1main_1_1BaseMain_aa16e0a2ec971a230dedb15fdb76d063f.html#aa16e0a2ec971a230dedb15fdb76d063f" target="_top" xlink:title="org.cobbzilla.util.main.\lBaseMain.out">
<polygon fill="none" stroke="#000000" points="225,-.5 225,-30.5 339,-30.5 339,-.5 225,-.5"/>
<text text-anchor="start" x="233" y="-18.5" font-family="Helvetica,sans-Serif" font-size="10.00" fill="#000000">org.cobbzilla.util.main.</text>
<text text-anchor="middle" x="282" y="-7.5" font-family="Helvetica,sans-Serif" font-size="10.00" fill="#000000">BaseMain.out</text>
</a>
</g>
</g>
<!-- Node0&#45;&gt;Node4 -->
<g id="edge4" class="edge">
<title>Node0&#45;&gt;Node4</title>
<path fill="none" stroke="#191970" d="M143.3658,-49.4654C166.0726,-43.9022 191.9199,-37.5696 215.0945,-31.8918"/>
<polygon fill="#191970" stroke="#191970" points="215.9661,-35.2819 224.8459,-29.5027 214.3003,-28.483 215.9661,-35.2819"/>
</g>
<!-- Node3 -->
<g id="node4" class="node">
<title>Node3</title>
<g id="a_node4"><a xlink:href="../../d7/d90/classorg_1_1cobbzilla_1_1util_1_1main_1_1BaseMainOptions_af375a67135b56319dc5bd9e75025089a.html#af375a67135b56319dc5bd9e75025089a" target="_top" xlink:title="org.cobbzilla.util.main.\lBaseMainOptions.outStream">
<polygon fill="none" stroke="#000000" points="400,-49.5 400,-79.5 542,-79.5 542,-49.5 400,-49.5"/>
<text text-anchor="start" x="408" y="-67.5" font-family="Helvetica,sans-Serif" font-size="10.00" fill="#000000">org.cobbzilla.util.main.</text>
<text text-anchor="middle" x="471" y="-56.5" font-family="Helvetica,sans-Serif" font-size="10.00" fill="#000000">BaseMainOptions.outStream</text>
</a>
</g>
</g>
<!-- Node2&#45;&gt;Node3 -->
<g id="edge3" class="edge">
<title>Node2&#45;&gt;Node3</title>
<path fill="none" stroke="#191970" d="M364.0736,-64.5C372.5725,-64.5 381.2078,-64.5 389.6982,-64.5"/>
<polygon fill="#191970" stroke="#191970" points="389.9638,-68.0001 399.9637,-64.5 389.9637,-61.0001 389.9638,-68.0001"/>
</g>
</g>
</svg>
