<?xml version="1.0" encoding="UTF-8" standalone="no"?>
<!DOCTYPE svg PUBLIC "-//W3C//DTD SVG 1.1//EN"
 "http://www.w3.org/Graphics/SVG/1.1/DTD/svg11.dtd">
<!-- Generated by graphviz version 2.40.1 (20161225.0304)
 -->
<!-- Title: org.cobbzilla.util.io.TempDir Pages: 1 -->
<svg width="416pt" height="491pt"
 viewBox="0.00 0.00 416.00 491.00" xmlns="http://www.w3.org/2000/svg" xmlns:xlink="http://www.w3.org/1999/xlink">
<g id="graph0" class="graph" transform="scale(1 1) rotate(0) translate(4 487)">
<title>org.cobbzilla.util.io.TempDir</title>
<!-- Node3 -->
<g id="node1" class="node">
<title>Node3</title>
<polygon fill="#bfbfbf" stroke="#000000" points="0,-.5 0,-101.5 138,-101.5 138,-.5 0,-.5"/>
<text text-anchor="middle" x="69" y="-89.5" font-family="Helvetica,sans-Serif" font-size="10.00" fill="#000000">org.cobbzilla.util.io.TempDir</text>
<polyline fill="none" stroke="#000000" points="0,-82.5 138,-82.5 "/>
<text text-anchor="start" x="8" y="-70.5" font-family="Helvetica,sans-Serif" font-size="10.00" fill="#000000">+ QT_NO_DELETE</text>
<polyline fill="none" stroke="#000000" points="0,-63.5 138,-63.5 "/>
<text text-anchor="start" x="8" y="-51.5" font-family="Helvetica,sans-Serif" font-size="10.00" fill="#000000">+ TempDir()</text>
<text text-anchor="start" x="8" y="-40.5" font-family="Helvetica,sans-Serif" font-size="10.00" fill="#000000">+ close()</text>
<text text-anchor="start" x="8" y="-29.5" font-family="Helvetica,sans-Serif" font-size="10.00" fill="#000000">+ delete()</text>
<text text-anchor="start" x="8" y="-18.5" font-family="Helvetica,sans-Serif" font-size="10.00" fill="#000000">+ quickTemp()</text>
<text text-anchor="start" x="8" y="-7.5" font-family="Helvetica,sans-Serif" font-size="10.00" fill="#000000">+ quickTemp()</text>
</g>
<!-- Node4 -->
<g id="node2" class="node">
<title>Node4</title>
<polygon fill="none" stroke="#bfbfbf" points="5,-171.5 5,-228.5 37,-228.5 37,-171.5 5,-171.5"/>
<text text-anchor="middle" x="21" y="-216.5" font-family="Helvetica,sans-Serif" font-size="10.00" fill="#000000">File</text>
<polyline fill="none" stroke="#bfbfbf" points="5,-209.5 37,-209.5 "/>
<text text-anchor="middle" x="21" y="-197.5" font-family="Helvetica,sans-Serif" font-size="10.00" fill="#000000"> </text>
<polyline fill="none" stroke="#bfbfbf" points="5,-190.5 37,-190.5 "/>
<text text-anchor="middle" x="21" y="-178.5" font-family="Helvetica,sans-Serif" font-size="10.00" fill="#000000"> </text>
</g>
<!-- Node4&#45;&gt;Node3 -->
<g id="edge1" class="edge">
<title>Node4&#45;&gt;Node3</title>
<path fill="none" stroke="#191970" d="M24.2081,-161.0864C25.9885,-147.8303 28.7441,-133.0658 33,-120 34.9668,-113.9618 37.4249,-107.815 40.1275,-101.803"/>
<polygon fill="none" stroke="#191970" points="20.695,-160.9872 22.9792,-171.3329 27.6452,-161.8208 20.695,-160.9872"/>
</g>
<!-- Node4&#45;&gt;Node3 -->
<g id="edge7" class="edge">
<title>Node4&#45;&gt;Node3</title>
<path fill="none" stroke="#404040" d="M30.2549,-171.2713C35.561,-154.8001 42.4372,-133.4555 48.9209,-113.3289"/>
<polygon fill="none" stroke="#404040" points="48.9986,-113.0875 47.0311,-106.1499 52.6782,-101.6655 54.6457,-108.603 48.9986,-113.0875"/>
<text text-anchor="middle" x="56.5" y="-123" font-family="Helvetica,sans-Serif" font-size="10.00" fill="#000000"> &#45;file</text>
</g>
<!-- Node5 -->
<g id="node3" class="node">
<title>Node5</title>
<polygon fill="none" stroke="#bfbfbf" points="56,-171.5 56,-228.5 116,-228.5 116,-171.5 56,-171.5"/>
<text text-anchor="middle" x="86" y="-216.5" font-family="Helvetica,sans-Serif" font-size="10.00" fill="#000000">Closeable</text>
<polyline fill="none" stroke="#bfbfbf" points="56,-209.5 116,-209.5 "/>
<text text-anchor="middle" x="86" y="-197.5" font-family="Helvetica,sans-Serif" font-size="10.00" fill="#000000"> </text>
<polyline fill="none" stroke="#bfbfbf" points="56,-190.5 116,-190.5 "/>
<text text-anchor="middle" x="86" y="-178.5" font-family="Helvetica,sans-Serif" font-size="10.00" fill="#000000"> </text>
</g>
<!-- Node5&#45;&gt;Node3 -->
<g id="edge2" class="edge">
<title>Node5&#45;&gt;Node3</title>
<path fill="none" stroke="#191970" d="M81.5858,-161.3104C79.5093,-143.1108 77.006,-121.17 74.7806,-101.6655"/>
<polygon fill="none" stroke="#191970" points="78.1111,-161.7325 82.7222,-171.2713 85.066,-160.939 78.1111,-161.7325"/>
</g>
<!-- Node6 -->
<g id="node4" class="node">
<title>Node6</title>
<g id="a_node4"><a xlink:href="../../d0/dae/classorg_1_1cobbzilla_1_1util_1_1io_1_1TempDir_1_1QuickTempReaper.html" target="_top" xlink:title="{org.cobbzilla.util.io.Temp\lDir.QuickTempReaper\n||+ add()\l+ add()\l+ run()\l+ start()\l}">
<polygon fill="none" stroke="#000000" points="134.5,-149.5 134.5,-250.5 259.5,-250.5 259.5,-149.5 134.5,-149.5"/>
<text text-anchor="start" x="142.5" y="-238.5" font-family="Helvetica,sans-Serif" font-size="10.00" fill="#000000">org.cobbzilla.util.io.Temp</text>
<text text-anchor="middle" x="197" y="-227.5" font-family="Helvetica,sans-Serif" font-size="10.00" fill="#000000">Dir.QuickTempReaper</text>
<polyline fill="none" stroke="#000000" points="134.5,-220.5 259.5,-220.5 "/>
<text text-anchor="middle" x="197" y="-208.5" font-family="Helvetica,sans-Serif" font-size="10.00" fill="#000000"> </text>
<polyline fill="none" stroke="#000000" points="134.5,-201.5 259.5,-201.5 "/>
<text text-anchor="start" x="142.5" y="-189.5" font-family="Helvetica,sans-Serif" font-size="10.00" fill="#000000">+ add()</text>
<text text-anchor="start" x="142.5" y="-178.5" font-family="Helvetica,sans-Serif" font-size="10.00" fill="#000000">+ add()</text>
<text text-anchor="start" x="142.5" y="-167.5" font-family="Helvetica,sans-Serif" font-size="10.00" fill="#000000">+ run()</text>
<text text-anchor="start" x="142.5" y="-156.5" font-family="Helvetica,sans-Serif" font-size="10.00" fill="#000000">+ start()</text>
</a>
</g>
</g>
<!-- Node6&#45;&gt;Node3 -->
<g id="edge3" class="edge">
<title>Node6&#45;&gt;Node3</title>
<path fill="none" stroke="#404040" d="M153.3077,-149.1394C142.7011,-136.7927 131.2643,-123.4796 120.3401,-110.7631"/>
<polygon fill="none" stroke="#404040" points="120.315,-110.7339 113.3711,-108.7892 112.4954,-101.6314 119.4394,-103.5761 120.315,-110.7339"/>
<text text-anchor="middle" x="160" y="-123" font-family="Helvetica,sans-Serif" font-size="10.00" fill="#000000"> &#45;qtReaper</text>
</g>
<!-- Node7 -->
<g id="node5" class="node">
<title>Node7</title>
<polygon fill="none" stroke="#bfbfbf" points="129,-304 129,-361 187,-361 187,-304 129,-304"/>
<text text-anchor="middle" x="158" y="-349" font-family="Helvetica,sans-Serif" font-size="10.00" fill="#000000">Runnable</text>
<polyline fill="none" stroke="#bfbfbf" points="129,-342 187,-342 "/>
<text text-anchor="middle" x="158" y="-330" font-family="Helvetica,sans-Serif" font-size="10.00" fill="#000000"> </text>
<polyline fill="none" stroke="#bfbfbf" points="129,-323 187,-323 "/>
<text text-anchor="middle" x="158" y="-311" font-family="Helvetica,sans-Serif" font-size="10.00" fill="#000000"> </text>
</g>
<!-- Node7&#45;&gt;Node6 -->
<g id="edge4" class="edge">
<title>Node7&#45;&gt;Node6</title>
<path fill="none" stroke="#191970" d="M169.3825,-293.8286C173.3593,-280.3176 177.8845,-264.9437 182.1045,-250.6065"/>
<polygon fill="none" stroke="#191970" points="165.9285,-293.1681 166.4624,-303.7495 172.6437,-295.1447 165.9285,-293.1681"/>
</g>
<!-- Node8 -->
<g id="node6" class="node">
<title>Node8</title>
<polygon fill="none" stroke="#bfbfbf" points="205.5,-298.5 205.5,-366.5 358.5,-366.5 358.5,-298.5 205.5,-298.5"/>
<text text-anchor="start" x="213.5" y="-354.5" font-family="Helvetica,sans-Serif" font-size="10.00" fill="#000000">SortedSet&lt; org.cobbzilla.util.io.</text>
<text text-anchor="middle" x="282" y="-343.5" font-family="Helvetica,sans-Serif" font-size="10.00" fill="#000000">TempDir.FileKillOrder &gt;</text>
<polyline fill="none" stroke="#bfbfbf" points="205.5,-336.5 358.5,-336.5 "/>
<text text-anchor="middle" x="282" y="-324.5" font-family="Helvetica,sans-Serif" font-size="10.00" fill="#000000"> </text>
<polyline fill="none" stroke="#bfbfbf" points="205.5,-317.5 358.5,-317.5 "/>
<text text-anchor="middle" x="282" y="-305.5" font-family="Helvetica,sans-Serif" font-size="10.00" fill="#000000"> </text>
</g>
<!-- Node8&#45;&gt;Node6 -->
<g id="edge5" class="edge">
<title>Node8&#45;&gt;Node6</title>
<path fill="none" stroke="#404040" d="M260.1104,-298.378C252.7358,-286.8823 244.2689,-273.6839 235.9816,-260.7655"/>
<polygon fill="none" stroke="#404040" points="235.8777,-260.6034 229.2712,-257.7131 229.3982,-250.5031 236.0047,-253.3934 235.8777,-260.6034"/>
<text text-anchor="middle" x="264" y="-272" font-family="Helvetica,sans-Serif" font-size="10.00" fill="#000000"> &#45;temps</text>
</g>
<!-- Node9 -->
<g id="node7" class="node">
<title>Node9</title>
<polygon fill="none" stroke="#bfbfbf" points="252,-425.5 252,-482.5 312,-482.5 312,-425.5 252,-425.5"/>
<text text-anchor="middle" x="282" y="-470.5" font-family="Helvetica,sans-Serif" font-size="10.00" fill="#000000">SortedSet</text>
<polyline fill="none" stroke="#bfbfbf" points="252,-463.5 312,-463.5 "/>
<text text-anchor="middle" x="282" y="-451.5" font-family="Helvetica,sans-Serif" font-size="10.00" fill="#000000"> </text>
<polyline fill="none" stroke="#bfbfbf" points="252,-444.5 312,-444.5 "/>
<text text-anchor="middle" x="282" y="-432.5" font-family="Helvetica,sans-Serif" font-size="10.00" fill="#000000"> </text>
</g>
<!-- Node9&#45;&gt;Node8 -->
<g id="edge6" class="edge">
<title>Node9&#45;&gt;Node8</title>
<path fill="none" stroke="#ffa500" d="M282,-414.8733C282,-399.3628 282,-381.6896 282,-366.7007"/>
<polygon fill="#ffa500" stroke="#ffa500" points="278.5001,-415.2062 282,-425.2062 285.5001,-415.2062 278.5001,-415.2062"/>
<text text-anchor="start" x="282" y="-399" font-family="Helvetica,sans-Serif" font-size="10.00" fill="#000000"> &lt; org::cobbzilla::util</text>
<text text-anchor="middle" x="345" y="-388" font-family="Helvetica,sans-Serif" font-size="10.00" fill="#000000">::io::TempDir::FileKillOrder &gt;</text>
</g>
</g>
</svg>
