<?xml version="1.0" encoding="UTF-8" standalone="no"?>
<!DOCTYPE svg PUBLIC "-//W3C//DTD SVG 1.1//EN"
 "http://www.w3.org/Graphics/SVG/1.1/DTD/svg11.dtd">
<!-- Generated by graphviz version 2.40.1 (20161225.0304)
 -->
<!-- Title: org.cobbzilla.util.io.DamperedCompositeBufferedFilesystemWatcher Pages: 1 -->
<!--zoomable 1383 -->
<svg id="main" version="1.1" xmlns="http://www.w3.org/2000/svg" xmlns:xlink="http://www.w3.org/1999/xlink" xml:space="preserve" onload="init(evt)">
<style type="text/css"><![CDATA[
.edge:hover path { stroke: red; }
.edge:hover polygon { stroke: red; fill: red; }
]]></style>
<script type="text/javascript"><![CDATA[
var edges = document.getElementsByTagName('g');
if (edges && edges.length) {
  for (var i=0;i<edges.length;i++) {
    if (edges[i].id.substr(0,4)=='edge') {
      edges[i].setAttribute('class','edge');
    }
  }
}
]]></script>
        <defs>
                <circle id="rim" cx="0" cy="0" r="7"/>
                <circle id="rim2" cx="0" cy="0" r="3.5"/>
                <g id="zoomPlus">
                        <use xlink:href="#rim" fill="#404040">
                                <set attributeName="fill" to="#808080" begin="zoomplus.mouseover" end="zoomplus.mouseout"/>
                        </use>
                        <path d="M-4,0h8M0,-4v8" fill="none" stroke="white" stroke-width="1.5" pointer-events="none"/>
                </g>
                <g id="zoomMin">
                        <use xlink:href="#rim" fill="#404040">
                                <set attributeName="fill" to="#808080" begin="zoomminus.mouseover" end="zoomminus.mouseout"/>
                        </use>
                        <path d="M-4,0h8" fill="none" stroke="white" stroke-width="1.5" pointer-events="none"/>
                </g>
                <g id="dirArrow">
                        <path fill="none" stroke="white" stroke-width="1.5" d="M0,-3.0v7 M-2.5,-0.5L0,-3.0L2.5,-0.5"/>
                </g>
               <g id="resetDef">
                       <use xlink:href="#rim2" fill="#404040">
                               <set attributeName="fill" to="#808080" begin="reset.mouseover" end="reset.mouseout"/>
                       </use>
               </g>
        </defs>

<script type="text/javascript">
var viewWidth = 627;
var viewHeight = 1383;
var sectionId = 'dynsection-1';
</script>
<script xlink:href="../../svgpan.js"/>
<svg id="graph" class="graph">
<g id="viewport">
<title>org.cobbzilla.util.io.DamperedCompositeBufferedFilesystemWatcher</title>
<!-- Node7 -->
<g id="node1" class="node">
<title>Node7</title>
<polygon fill="#bfbfbf" stroke="#000000" points="296.5,-.5 296.5,-211.5 481.5,-211.5 481.5,-.5 296.5,-.5"/>
<text text-anchor="start" x="304.5" y="-199.5" font-family="Helvetica,sans-Serif" font-size="10.00" fill="#000000">org.cobbzilla.util.io.Dampered</text>
<text text-anchor="middle" x="389" y="-188.5" font-family="Helvetica,sans-Serif" font-size="10.00" fill="#000000">CompositeBufferedFilesystemWatcher</text>
<polyline fill="none" stroke="#000000" points="296.5,-181.5 481.5,-181.5 "/>
<text text-anchor="middle" x="389" y="-169.5" font-family="Helvetica,sans-Serif" font-size="10.00" fill="#000000"> </text>
<polyline fill="none" stroke="#000000" points="296.5,-162.5 481.5,-162.5 "/>
<text text-anchor="start" x="304.5" y="-150.5" font-family="Helvetica,sans-Serif" font-size="10.00" fill="#000000">+ uber_fire()</text>
<text text-anchor="start" x="304.5" y="-139.5" font-family="Helvetica,sans-Serif" font-size="10.00" fill="#000000">+ fire()</text>
<text text-anchor="start" x="304.5" y="-128.5" font-family="Helvetica,sans-Serif" font-size="10.00" fill="#000000">+ DamperedCompositeBuffered</text>
<text text-anchor="start" x="304.5" y="-117.5" font-family="Helvetica,sans-Serif" font-size="10.00" fill="#000000">FilesystemWatcher()</text>
<text text-anchor="start" x="304.5" y="-106.5" font-family="Helvetica,sans-Serif" font-size="10.00" fill="#000000">+ DamperedCompositeBuffered</text>
<text text-anchor="start" x="304.5" y="-95.5" font-family="Helvetica,sans-Serif" font-size="10.00" fill="#000000">FilesystemWatcher()</text>
<text text-anchor="start" x="304.5" y="-84.5" font-family="Helvetica,sans-Serif" font-size="10.00" fill="#000000">+ DamperedCompositeBuffered</text>
<text text-anchor="start" x="304.5" y="-73.5" font-family="Helvetica,sans-Serif" font-size="10.00" fill="#000000">FilesystemWatcher()</text>
<text text-anchor="start" x="304.5" y="-62.5" font-family="Helvetica,sans-Serif" font-size="10.00" fill="#000000">+ DamperedCompositeBuffered</text>
<text text-anchor="start" x="304.5" y="-51.5" font-family="Helvetica,sans-Serif" font-size="10.00" fill="#000000">FilesystemWatcher()</text>
<text text-anchor="start" x="304.5" y="-40.5" font-family="Helvetica,sans-Serif" font-size="10.00" fill="#000000">+ DamperedCompositeBuffered</text>
<text text-anchor="start" x="304.5" y="-29.5" font-family="Helvetica,sans-Serif" font-size="10.00" fill="#000000">FilesystemWatcher()</text>
<text text-anchor="start" x="304.5" y="-18.5" font-family="Helvetica,sans-Serif" font-size="10.00" fill="#000000"># init()</text>
<text text-anchor="start" x="304.5" y="-7.5" font-family="Helvetica,sans-Serif" font-size="10.00" fill="#000000"># status()</text>
</g>
<!-- Node8 -->
<g id="node2" class="node">
<title>Node8</title>
<g id="a_node2"><a xlink:href="../../db/dee/classorg_1_1cobbzilla_1_1util_1_1io_1_1CompositeBufferedFilesystemWatcher.html" target="_top" xlink:title="{org.cobbzilla.util.io.Composite\lBufferedFilesystemWatcher\n|&#45; timeout\l&#45; maxEvents\l|+ CompositeBufferedFilesystem\lWatcher()\l+ CompositeBufferedFilesystem\lWatcher()\l+ CompositeBufferedFilesystem\lWatcher()\l+ CompositeBufferedFilesystem\lWatcher()\l+ fire()\l# newWatcher()\l&#45; _fire()\l}">
<polygon fill="none" stroke="#000000" points="81,-259.5 81,-448.5 239,-448.5 239,-259.5 81,-259.5"/>
<text text-anchor="start" x="89" y="-436.5" font-family="Helvetica,sans-Serif" font-size="10.00" fill="#000000">org.cobbzilla.util.io.Composite</text>
<text text-anchor="middle" x="160" y="-425.5" font-family="Helvetica,sans-Serif" font-size="10.00" fill="#000000">BufferedFilesystemWatcher</text>
<polyline fill="none" stroke="#000000" points="81,-418.5 239,-418.5 "/>
<text text-anchor="start" x="89" y="-406.5" font-family="Helvetica,sans-Serif" font-size="10.00" fill="#000000">&#45; timeout</text>
<text text-anchor="start" x="89" y="-395.5" font-family="Helvetica,sans-Serif" font-size="10.00" fill="#000000">&#45; maxEvents</text>
<polyline fill="none" stroke="#000000" points="81,-388.5 239,-388.5 "/>
<text text-anchor="start" x="89" y="-376.5" font-family="Helvetica,sans-Serif" font-size="10.00" fill="#000000">+ CompositeBufferedFilesystem</text>
<text text-anchor="start" x="89" y="-365.5" font-family="Helvetica,sans-Serif" font-size="10.00" fill="#000000">Watcher()</text>
<text text-anchor="start" x="89" y="-354.5" font-family="Helvetica,sans-Serif" font-size="10.00" fill="#000000">+ CompositeBufferedFilesystem</text>
<text text-anchor="start" x="89" y="-343.5" font-family="Helvetica,sans-Serif" font-size="10.00" fill="#000000">Watcher()</text>
<text text-anchor="start" x="89" y="-332.5" font-family="Helvetica,sans-Serif" font-size="10.00" fill="#000000">+ CompositeBufferedFilesystem</text>
<text text-anchor="start" x="89" y="-321.5" font-family="Helvetica,sans-Serif" font-size="10.00" fill="#000000">Watcher()</text>
<text text-anchor="start" x="89" y="-310.5" font-family="Helvetica,sans-Serif" font-size="10.00" fill="#000000">+ CompositeBufferedFilesystem</text>
<text text-anchor="start" x="89" y="-299.5" font-family="Helvetica,sans-Serif" font-size="10.00" fill="#000000">Watcher()</text>
<text text-anchor="start" x="89" y="-288.5" font-family="Helvetica,sans-Serif" font-size="10.00" fill="#000000">+ fire()</text>
<text text-anchor="start" x="89" y="-277.5" font-family="Helvetica,sans-Serif" font-size="10.00" fill="#000000"># newWatcher()</text>
<text text-anchor="start" x="89" y="-266.5" font-family="Helvetica,sans-Serif" font-size="10.00" fill="#000000">&#45; _fire()</text>
</a>
</g>
</g>
<!-- Node8&#45;&gt;Node7 -->
<g id="edge1" class="edge">
<title>Node8&#45;&gt;Node7</title>
<path fill="none" stroke="#191970" d="M246.1218,-260.7328C262.5662,-242.9239 279.8442,-224.2124 296.479,-206.1974"/>
<polygon fill="none" stroke="#191970" points="243.3421,-258.5839 239.1295,-268.3052 248.485,-263.3327 243.3421,-258.5839"/>
</g>
<!-- Node9 -->
<g id="node3" class="node">
<title>Node9</title>
<g id="a_node3"><a xlink:href="../../db/dd9/classorg_1_1cobbzilla_1_1util_1_1io_1_1CompositeFilesystemWatcher.html" target="_top" xlink:title="{org.cobbzilla.util.io.Composite\lFilesystemWatcher\&lt; BufferedFilesystem\lWatcher \&gt;\n|&#45; watchers\l|+ close()\l+ pathsWatching()\l+ dirsWatching()\l+ isEmpty()\l+ add()\l+ add()\l+ add()\l+ addAll()\l+ addAll()\l+ addAll()\l+ addAll()\l+ toString()\l# newWatcher()\l}">
<polygon fill="none" stroke="#000000" points="62.5,-507.5 62.5,-718.5 257.5,-718.5 257.5,-507.5 62.5,-507.5"/>
<text text-anchor="start" x="70.5" y="-706.5" font-family="Helvetica,sans-Serif" font-size="10.00" fill="#000000">org.cobbzilla.util.io.Composite</text>
<text text-anchor="start" x="70.5" y="-695.5" font-family="Helvetica,sans-Serif" font-size="10.00" fill="#000000">FilesystemWatcher&lt; BufferedFilesystem</text>
<text text-anchor="middle" x="160" y="-684.5" font-family="Helvetica,sans-Serif" font-size="10.00" fill="#000000">Watcher &gt;</text>
<polyline fill="none" stroke="#000000" points="62.5,-677.5 257.5,-677.5 "/>
<text text-anchor="start" x="70.5" y="-665.5" font-family="Helvetica,sans-Serif" font-size="10.00" fill="#000000">&#45; watchers</text>
<polyline fill="none" stroke="#000000" points="62.5,-658.5 257.5,-658.5 "/>
<text text-anchor="start" x="70.5" y="-646.5" font-family="Helvetica,sans-Serif" font-size="10.00" fill="#000000">+ close()</text>
<text text-anchor="start" x="70.5" y="-635.5" font-family="Helvetica,sans-Serif" font-size="10.00" fill="#000000">+ pathsWatching()</text>
<text text-anchor="start" x="70.5" y="-624.5" font-family="Helvetica,sans-Serif" font-size="10.00" fill="#000000">+ dirsWatching()</text>
<text text-anchor="start" x="70.5" y="-613.5" font-family="Helvetica,sans-Serif" font-size="10.00" fill="#000000">+ isEmpty()</text>
<text text-anchor="start" x="70.5" y="-602.5" font-family="Helvetica,sans-Serif" font-size="10.00" fill="#000000">+ add()</text>
<text text-anchor="start" x="70.5" y="-591.5" font-family="Helvetica,sans-Serif" font-size="10.00" fill="#000000">+ add()</text>
<text text-anchor="start" x="70.5" y="-580.5" font-family="Helvetica,sans-Serif" font-size="10.00" fill="#000000">+ add()</text>
<text text-anchor="start" x="70.5" y="-569.5" font-family="Helvetica,sans-Serif" font-size="10.00" fill="#000000">+ addAll()</text>
<text text-anchor="start" x="70.5" y="-558.5" font-family="Helvetica,sans-Serif" font-size="10.00" fill="#000000">+ addAll()</text>
<text text-anchor="start" x="70.5" y="-547.5" font-family="Helvetica,sans-Serif" font-size="10.00" fill="#000000">+ addAll()</text>
<text text-anchor="start" x="70.5" y="-536.5" font-family="Helvetica,sans-Serif" font-size="10.00" fill="#000000">+ addAll()</text>
<text text-anchor="start" x="70.5" y="-525.5" font-family="Helvetica,sans-Serif" font-size="10.00" fill="#000000">+ toString()</text>
<text text-anchor="start" x="70.5" y="-514.5" font-family="Helvetica,sans-Serif" font-size="10.00" fill="#000000"># newWatcher()</text>
</a>
</g>
</g>
<!-- Node9&#45;&gt;Node8 -->
<g id="edge2" class="edge">
<title>Node9&#45;&gt;Node8</title>
<path fill="none" stroke="#191970" d="M160,-497.1998C160,-480.9328 160,-464.3743 160,-448.5664"/>
<polygon fill="none" stroke="#191970" points="156.5001,-497.2812 160,-507.2812 163.5001,-497.2813 156.5001,-497.2812"/>
</g>
<!-- Node10 -->
<g id="node4" class="node">
<title>Node10</title>
<g id="a_node4"><a xlink:href="../../db/dd9/classorg_1_1cobbzilla_1_1util_1_1io_1_1CompositeFilesystemWatcher.html" target="_top" xlink:title="{org.cobbzilla.util.io.Composite\lFilesystemWatcher\&lt; T extends\l FilesystemWatcher \&gt;\n||+ close()\l+ pathsWatching()\l+ dirsWatching()\l+ isEmpty()\l+ add()\l+ add()\l+ add()\l+ addAll()\l+ addAll()\l+ addAll()\l+ addAll()\l+ toString()\l# newWatcher()\l}">
<polygon fill="none" stroke="#000000" points="83,-766.5 83,-977.5 237,-977.5 237,-766.5 83,-766.5"/>
<text text-anchor="start" x="91" y="-965.5" font-family="Helvetica,sans-Serif" font-size="10.00" fill="#000000">org.cobbzilla.util.io.Composite</text>
<text text-anchor="start" x="91" y="-954.5" font-family="Helvetica,sans-Serif" font-size="10.00" fill="#000000">FilesystemWatcher&lt; T extends</text>
<text text-anchor="middle" x="160" y="-943.5" font-family="Helvetica,sans-Serif" font-size="10.00" fill="#000000"> FilesystemWatcher &gt;</text>
<polyline fill="none" stroke="#000000" points="83,-936.5 237,-936.5 "/>
<text text-anchor="middle" x="160" y="-924.5" font-family="Helvetica,sans-Serif" font-size="10.00" fill="#000000"> </text>
<polyline fill="none" stroke="#000000" points="83,-917.5 237,-917.5 "/>
<text text-anchor="start" x="91" y="-905.5" font-family="Helvetica,sans-Serif" font-size="10.00" fill="#000000">+ close()</text>
<text text-anchor="start" x="91" y="-894.5" font-family="Helvetica,sans-Serif" font-size="10.00" fill="#000000">+ pathsWatching()</text>
<text text-anchor="start" x="91" y="-883.5" font-family="Helvetica,sans-Serif" font-size="10.00" fill="#000000">+ dirsWatching()</text>
<text text-anchor="start" x="91" y="-872.5" font-family="Helvetica,sans-Serif" font-size="10.00" fill="#000000">+ isEmpty()</text>
<text text-anchor="start" x="91" y="-861.5" font-family="Helvetica,sans-Serif" font-size="10.00" fill="#000000">+ add()</text>
<text text-anchor="start" x="91" y="-850.5" font-family="Helvetica,sans-Serif" font-size="10.00" fill="#000000">+ add()</text>
<text text-anchor="start" x="91" y="-839.5" font-family="Helvetica,sans-Serif" font-size="10.00" fill="#000000">+ add()</text>
<text text-anchor="start" x="91" y="-828.5" font-family="Helvetica,sans-Serif" font-size="10.00" fill="#000000">+ addAll()</text>
<text text-anchor="start" x="91" y="-817.5" font-family="Helvetica,sans-Serif" font-size="10.00" fill="#000000">+ addAll()</text>
<text text-anchor="start" x="91" y="-806.5" font-family="Helvetica,sans-Serif" font-size="10.00" fill="#000000">+ addAll()</text>
<text text-anchor="start" x="91" y="-795.5" font-family="Helvetica,sans-Serif" font-size="10.00" fill="#000000">+ addAll()</text>
<text text-anchor="start" x="91" y="-784.5" font-family="Helvetica,sans-Serif" font-size="10.00" fill="#000000">+ toString()</text>
<text text-anchor="start" x="91" y="-773.5" font-family="Helvetica,sans-Serif" font-size="10.00" fill="#000000"># newWatcher()</text>
</a>
</g>
</g>
<!-- Node10&#45;&gt;Node9 -->
<g id="edge3" class="edge">
<title>Node10&#45;&gt;Node9</title>
<path fill="none" stroke="#ffa500" d="M160,-755.9414C160,-743.5738 160,-731.0409 160,-718.8005"/>
<polygon fill="#ffa500" stroke="#ffa500" points="156.5001,-756.2812 160,-766.2812 163.5001,-756.2813 156.5001,-756.2812"/>
<text text-anchor="middle" x="231.5" y="-740" font-family="Helvetica,sans-Serif" font-size="10.00" fill="#000000"> &lt; BufferedFilesystemWatcher &gt;</text>
</g>
<!-- Node11 -->
<g id="node5" class="node">
<title>Node11</title>
<polygon fill="none" stroke="#bfbfbf" points="0,-1317.5 0,-1374.5 60,-1374.5 60,-1317.5 0,-1317.5"/>
<text text-anchor="middle" x="30" y="-1362.5" font-family="Helvetica,sans-Serif" font-size="10.00" fill="#000000">Closeable</text>
<polyline fill="none" stroke="#bfbfbf" points="0,-1355.5 60,-1355.5 "/>
<text text-anchor="middle" x="30" y="-1343.5" font-family="Helvetica,sans-Serif" font-size="10.00" fill="#000000"> </text>
<polyline fill="none" stroke="#bfbfbf" points="0,-1336.5 60,-1336.5 "/>
<text text-anchor="middle" x="30" y="-1324.5" font-family="Helvetica,sans-Serif" font-size="10.00" fill="#000000"> </text>
</g>
<!-- Node11&#45;&gt;Node10 -->
<g id="edge4" class="edge">
<title>Node11&#45;&gt;Node10</title>
<path fill="none" stroke="#191970" d="M29.6069,-1307.1708C30.1023,-1245.6387 35.6762,-1122.6918 69,-1025 74.4379,-1009.0583 81.6848,-992.97 89.7239,-977.52"/>
<polygon fill="none" stroke="#191970" points="26.1069,-1307.2028 29.5676,-1317.2165 33.1068,-1307.2303 26.1069,-1307.2028"/>
</g>
<!-- Node14 -->
<g id="node8" class="node">
<title>Node14</title>
<g id="a_node8"><a xlink:href="../../d3/d98/classorg_1_1cobbzilla_1_1util_1_1io_1_1FilesystemWatcher.html" target="_top" xlink:title="{org.cobbzilla.util.io.Filesystem\lWatcher\n|+ STOP_TIMEOUT\l&#45; thread\l|+ FilesystemWatcher()\l+ FilesystemWatcher()\l+ start()\l+ stop()\l+ close()\l+ toFile()\l+ run()\l# handleEvent()\l# onDirCreated()\l# onFileCreated()\l# onDirModified()\l# onFileModified()\l# onDirDeleted()\l# onFileDeleted()\l# getSleepWhileNotExists()\l# getSleepAfterUnexpectedError()\l}">
<polygon fill="none" stroke="#000000" points="78,-1025.5 78,-1269.5 242,-1269.5 242,-1025.5 78,-1025.5"/>
<text text-anchor="start" x="86" y="-1257.5" font-family="Helvetica,sans-Serif" font-size="10.00" fill="#000000">org.cobbzilla.util.io.Filesystem</text>
<text text-anchor="middle" x="160" y="-1246.5" font-family="Helvetica,sans-Serif" font-size="10.00" fill="#000000">Watcher</text>
<polyline fill="none" stroke="#000000" points="78,-1239.5 242,-1239.5 "/>
<text text-anchor="start" x="86" y="-1227.5" font-family="Helvetica,sans-Serif" font-size="10.00" fill="#000000">+ STOP_TIMEOUT</text>
<text text-anchor="start" x="86" y="-1216.5" font-family="Helvetica,sans-Serif" font-size="10.00" fill="#000000">&#45; thread</text>
<polyline fill="none" stroke="#000000" points="78,-1209.5 242,-1209.5 "/>
<text text-anchor="start" x="86" y="-1197.5" font-family="Helvetica,sans-Serif" font-size="10.00" fill="#000000">+ FilesystemWatcher()</text>
<text text-anchor="start" x="86" y="-1186.5" font-family="Helvetica,sans-Serif" font-size="10.00" fill="#000000">+ FilesystemWatcher()</text>
<text text-anchor="start" x="86" y="-1175.5" font-family="Helvetica,sans-Serif" font-size="10.00" fill="#000000">+ start()</text>
<text text-anchor="start" x="86" y="-1164.5" font-family="Helvetica,sans-Serif" font-size="10.00" fill="#000000">+ stop()</text>
<text text-anchor="start" x="86" y="-1153.5" font-family="Helvetica,sans-Serif" font-size="10.00" fill="#000000">+ close()</text>
<text text-anchor="start" x="86" y="-1142.5" font-family="Helvetica,sans-Serif" font-size="10.00" fill="#000000">+ toFile()</text>
<text text-anchor="start" x="86" y="-1131.5" font-family="Helvetica,sans-Serif" font-size="10.00" fill="#000000">+ run()</text>
<text text-anchor="start" x="86" y="-1120.5" font-family="Helvetica,sans-Serif" font-size="10.00" fill="#000000"># handleEvent()</text>
<text text-anchor="start" x="86" y="-1109.5" font-family="Helvetica,sans-Serif" font-size="10.00" fill="#000000"># onDirCreated()</text>
<text text-anchor="start" x="86" y="-1098.5" font-family="Helvetica,sans-Serif" font-size="10.00" fill="#000000"># onFileCreated()</text>
<text text-anchor="start" x="86" y="-1087.5" font-family="Helvetica,sans-Serif" font-size="10.00" fill="#000000"># onDirModified()</text>
<text text-anchor="start" x="86" y="-1076.5" font-family="Helvetica,sans-Serif" font-size="10.00" fill="#000000"># onFileModified()</text>
<text text-anchor="start" x="86" y="-1065.5" font-family="Helvetica,sans-Serif" font-size="10.00" fill="#000000"># onDirDeleted()</text>
<text text-anchor="start" x="86" y="-1054.5" font-family="Helvetica,sans-Serif" font-size="10.00" fill="#000000"># onFileDeleted()</text>
<text text-anchor="start" x="86" y="-1043.5" font-family="Helvetica,sans-Serif" font-size="10.00" fill="#000000"># getSleepWhileNotExists()</text>
<text text-anchor="start" x="86" y="-1032.5" font-family="Helvetica,sans-Serif" font-size="10.00" fill="#000000"># getSleepAfterUnexpectedError()</text>
</a>
</g>
</g>
<!-- Node11&#45;&gt;Node14 -->
<g id="edge9" class="edge">
<title>Node11&#45;&gt;Node14</title>
<path fill="none" stroke="#191970" d="M54.4466,-1308.6719C62.0253,-1297.0998 70.8289,-1283.6575 80.0573,-1269.5664"/>
<polygon fill="none" stroke="#191970" points="51.4539,-1306.8532 48.9031,-1317.1364 57.3099,-1310.6883 51.4539,-1306.8532"/>
</g>
<!-- Node12 -->
<g id="node6" class="node">
<title>Node12</title>
<polygon fill="none" stroke="#bfbfbf" points="273,-1119 273,-1176 359,-1176 359,-1119 273,-1119"/>
<text text-anchor="middle" x="316" y="-1164" font-family="Helvetica,sans-Serif" font-size="10.00" fill="#000000">Map&lt; Path, T &gt;</text>
<polyline fill="none" stroke="#bfbfbf" points="273,-1157 359,-1157 "/>
<text text-anchor="middle" x="316" y="-1145" font-family="Helvetica,sans-Serif" font-size="10.00" fill="#000000"> </text>
<polyline fill="none" stroke="#bfbfbf" points="273,-1138 359,-1138 "/>
<text text-anchor="middle" x="316" y="-1126" font-family="Helvetica,sans-Serif" font-size="10.00" fill="#000000"> </text>
</g>
<!-- Node12&#45;&gt;Node10 -->
<g id="edge5" class="edge">
<title>Node12&#45;&gt;Node10</title>
<path fill="none" stroke="#404040" d="M301.1576,-1118.5741C288.2302,-1093.6146 268.8172,-1056.6891 251,-1025 244.2549,-1013.0035 237.103,-1000.551 229.8897,-988.1642"/>
<polygon fill="none" stroke="#404040" points="229.8793,-988.1462 223.3981,-984.9847 223.8237,-977.7861 230.3049,-980.9477 229.8793,-988.1462"/>
<text text-anchor="middle" x="263" y="-999" font-family="Helvetica,sans-Serif" font-size="10.00" fill="#000000"> &#45;watchers</text>
</g>
<!-- Node13 -->
<g id="node7" class="node">
<title>Node13</title>
<polygon fill="none" stroke="#bfbfbf" points="310.5,-1317.5 310.5,-1374.5 345.5,-1374.5 345.5,-1317.5 310.5,-1317.5"/>
<text text-anchor="middle" x="328" y="-1362.5" font-family="Helvetica,sans-Serif" font-size="10.00" fill="#000000">Map</text>
<polyline fill="none" stroke="#bfbfbf" points="310.5,-1355.5 345.5,-1355.5 "/>
<text text-anchor="middle" x="328" y="-1343.5" font-family="Helvetica,sans-Serif" font-size="10.00" fill="#000000"> </text>
<polyline fill="none" stroke="#bfbfbf" points="310.5,-1336.5 345.5,-1336.5 "/>
<text text-anchor="middle" x="328" y="-1324.5" font-family="Helvetica,sans-Serif" font-size="10.00" fill="#000000"> </text>
</g>
<!-- Node13&#45;&gt;Node12 -->
<g id="edge6" class="edge">
<title>Node13&#45;&gt;Node12</title>
<path fill="none" stroke="#ffa500" d="M325.6315,-1306.8218C323.3032,-1268.3069 319.8052,-1210.4444 317.7275,-1176.0764"/>
<polygon fill="#ffa500" stroke="#ffa500" points="322.158,-1307.3659 326.2551,-1317.1364 329.1452,-1306.9434 322.158,-1307.3659"/>
<text text-anchor="middle" x="353" y="-1291" font-family="Helvetica,sans-Serif" font-size="10.00" fill="#000000"> &lt; Path, T &gt;</text>
</g>
<!-- Node14&#45;&gt;Node10 -->
<g id="edge7" class="edge">
<title>Node14&#45;&gt;Node10</title>
<path fill="none" stroke="#ffa500" d="M160,-1015.3188C160,-1002.6484 160,-989.915 160,-977.5484"/>
<polygon fill="#ffa500" stroke="#ffa500" points="156.5001,-1015.4585 160,-1025.4586 163.5001,-1015.4586 156.5001,-1015.4585"/>
<text text-anchor="middle" x="165" y="-999" font-family="Helvetica,sans-Serif" font-size="10.00" fill="#000000"> T</text>
</g>
<!-- Node15 -->
<g id="node9" class="node">
<title>Node15</title>
<polygon fill="none" stroke="#bfbfbf" points="78,-1317.5 78,-1374.5 136,-1374.5 136,-1317.5 78,-1317.5"/>
<text text-anchor="middle" x="107" y="-1362.5" font-family="Helvetica,sans-Serif" font-size="10.00" fill="#000000">Runnable</text>
<polyline fill="none" stroke="#bfbfbf" points="78,-1355.5 136,-1355.5 "/>
<text text-anchor="middle" x="107" y="-1343.5" font-family="Helvetica,sans-Serif" font-size="10.00" fill="#000000"> </text>
<polyline fill="none" stroke="#bfbfbf" points="78,-1336.5 136,-1336.5 "/>
<text text-anchor="middle" x="107" y="-1324.5" font-family="Helvetica,sans-Serif" font-size="10.00" fill="#000000"> </text>
</g>
<!-- Node15&#45;&gt;Node14 -->
<g id="edge8" class="edge">
<title>Node15&#45;&gt;Node14</title>
<path fill="none" stroke="#191970" d="M117.3325,-1307.302C120.3382,-1296.0445 123.7932,-1283.1049 127.408,-1269.5664"/>
<polygon fill="none" stroke="#191970" points="113.9048,-1306.5719 114.7067,-1317.1364 120.6679,-1308.3778 113.9048,-1306.5719"/>
</g>
<!-- Node16 -->
<g id="node10" class="node">
<title>Node16</title>
<polygon fill="none" stroke="#bfbfbf" points="154.5,-1317.5 154.5,-1374.5 191.5,-1374.5 191.5,-1317.5 154.5,-1317.5"/>
<text text-anchor="middle" x="173" y="-1362.5" font-family="Helvetica,sans-Serif" font-size="10.00" fill="#000000">Path</text>
<polyline fill="none" stroke="#bfbfbf" points="154.5,-1355.5 191.5,-1355.5 "/>
<text text-anchor="middle" x="173" y="-1343.5" font-family="Helvetica,sans-Serif" font-size="10.00" fill="#000000"> </text>
<polyline fill="none" stroke="#bfbfbf" points="154.5,-1336.5 191.5,-1336.5 "/>
<text text-anchor="middle" x="173" y="-1324.5" font-family="Helvetica,sans-Serif" font-size="10.00" fill="#000000"> </text>
</g>
<!-- Node16&#45;&gt;Node14 -->
<g id="edge10" class="edge">
<title>Node16&#45;&gt;Node14</title>
<path fill="none" stroke="#404040" d="M171.1097,-1317.1364C170.4465,-1307.0104 169.6515,-1294.8706 168.7955,-1281.8003"/>
<polygon fill="none" stroke="#404040" points="168.7786,-1281.5407 164.395,-1275.815 167.9943,-1269.5664 172.3779,-1275.2921 168.7786,-1281.5407"/>
<text text-anchor="middle" x="182.5" y="-1291" font-family="Helvetica,sans-Serif" font-size="10.00" fill="#000000"> &#45;path</text>
</g>
<!-- Node17 -->
<g id="node11" class="node">
<title>Node17</title>
<polygon fill="none" stroke="#bfbfbf" points="209.5,-1317.5 209.5,-1374.5 292.5,-1374.5 292.5,-1317.5 209.5,-1317.5"/>
<text text-anchor="middle" x="251" y="-1362.5" font-family="Helvetica,sans-Serif" font-size="10.00" fill="#000000">AtomicBoolean</text>
<polyline fill="none" stroke="#bfbfbf" points="209.5,-1355.5 292.5,-1355.5 "/>
<text text-anchor="middle" x="251" y="-1343.5" font-family="Helvetica,sans-Serif" font-size="10.00" fill="#000000"> </text>
<polyline fill="none" stroke="#bfbfbf" points="209.5,-1336.5 292.5,-1336.5 "/>
<text text-anchor="middle" x="251" y="-1324.5" font-family="Helvetica,sans-Serif" font-size="10.00" fill="#000000"> </text>
</g>
<!-- Node17&#45;&gt;Node14 -->
<g id="edge11" class="edge">
<title>Node17&#45;&gt;Node14</title>
<path fill="none" stroke="#404040" d="M237.7678,-1317.1364C232.9836,-1306.7005 227.2187,-1294.1255 221.0169,-1280.5973"/>
<polygon fill="none" stroke="#404040" points="220.9608,-1280.4747 214.8242,-1276.6875 215.9599,-1269.5664 222.0964,-1273.3536 220.9608,-1280.4747"/>
<text text-anchor="middle" x="244" y="-1291" font-family="Helvetica,sans-Serif" font-size="10.00" fill="#000000"> &#45;done</text>
</g>
<!-- Node18 -->
<g id="node12" class="node">
<title>Node18</title>
<polygon fill="none" stroke="#bfbfbf" points="257.5,-320 257.5,-388 374.5,-388 374.5,-320 257.5,-320"/>
<text text-anchor="start" x="265.5" y="-376" font-family="Helvetica,sans-Serif" font-size="10.00" fill="#000000">AtomicReference&lt; List</text>
<text text-anchor="middle" x="316" y="-365" font-family="Helvetica,sans-Serif" font-size="10.00" fill="#000000">&lt; WatchEvent&lt;?&gt; &gt; &gt;</text>
<polyline fill="none" stroke="#bfbfbf" points="257.5,-358 374.5,-358 "/>
<text text-anchor="middle" x="316" y="-346" font-family="Helvetica,sans-Serif" font-size="10.00" fill="#000000"> </text>
<polyline fill="none" stroke="#bfbfbf" points="257.5,-339 374.5,-339 "/>
<text text-anchor="middle" x="316" y="-327" font-family="Helvetica,sans-Serif" font-size="10.00" fill="#000000"> </text>
</g>
<!-- Node18&#45;&gt;Node7 -->
<g id="edge12" class="edge">
<title>Node18&#45;&gt;Node7</title>
<path fill="none" stroke="#404040" d="M326.0737,-319.777C333.4883,-294.5875 344.0388,-258.7447 354.3866,-223.5907"/>
<polygon fill="none" stroke="#404040" points="354.4947,-223.2233 352.3517,-216.338 357.8833,-211.7117 360.0262,-218.597 354.4947,-223.2233"/>
<text text-anchor="middle" x="368.5" y="-233" font-family="Helvetica,sans-Serif" font-size="10.00" fill="#000000"> &#45;buffer</text>
</g>
<!-- Node19 -->
<g id="node13" class="node">
<title>Node19</title>
<polygon fill="none" stroke="#bfbfbf" points="343,-584.5 343,-641.5 435,-641.5 435,-584.5 343,-584.5"/>
<text text-anchor="middle" x="389" y="-629.5" font-family="Helvetica,sans-Serif" font-size="10.00" fill="#000000">AtomicReference</text>
<polyline fill="none" stroke="#bfbfbf" points="343,-622.5 435,-622.5 "/>
<text text-anchor="middle" x="389" y="-610.5" font-family="Helvetica,sans-Serif" font-size="10.00" fill="#000000"> </text>
<polyline fill="none" stroke="#bfbfbf" points="343,-603.5 435,-603.5 "/>
<text text-anchor="middle" x="389" y="-591.5" font-family="Helvetica,sans-Serif" font-size="10.00" fill="#000000"> </text>
</g>
<!-- Node19&#45;&gt;Node18 -->
<g id="edge13" class="edge">
<title>Node19&#45;&gt;Node18</title>
<path fill="none" stroke="#ffa500" d="M372.2745,-575.2542C362.0598,-551.0018 349.3924,-518.6061 341,-489 331.4441,-455.2893 324.6194,-415.7801 320.5401,-388.2469"/>
<polygon fill="#ffa500" stroke="#ffa500" points="369.0559,-576.6295 376.1969,-584.4562 375.4953,-573.8846 369.0559,-576.6295"/>
<text text-anchor="start" x="341" y="-481" font-family="Helvetica,sans-Serif" font-size="10.00" fill="#000000"> &lt; List&lt; WatchEvent</text>
<text text-anchor="middle" x="386.5" y="-470" font-family="Helvetica,sans-Serif" font-size="10.00" fill="#000000">&lt;?&gt; &gt; &gt;</text>
</g>
<!-- Node20 -->
<g id="node14" class="node">
<title>Node20</title>
<polygon fill="none" stroke="#bfbfbf" points="393,-325.5 393,-382.5 533,-382.5 533,-325.5 393,-325.5"/>
<text text-anchor="middle" x="463" y="-370.5" font-family="Helvetica,sans-Serif" font-size="10.00" fill="#000000">AtomicReference&lt; Thread &gt;</text>
<polyline fill="none" stroke="#bfbfbf" points="393,-363.5 533,-363.5 "/>
<text text-anchor="middle" x="463" y="-351.5" font-family="Helvetica,sans-Serif" font-size="10.00" fill="#000000"> </text>
<polyline fill="none" stroke="#bfbfbf" points="393,-344.5 533,-344.5 "/>
<text text-anchor="middle" x="463" y="-332.5" font-family="Helvetica,sans-Serif" font-size="10.00" fill="#000000"> </text>
</g>
<!-- Node19&#45;&gt;Node20 -->
<g id="edge15" class="edge">
<title>Node19&#45;&gt;Node20</title>
<path fill="none" stroke="#ffa500" d="M403.5031,-574.6458C412.4012,-550.3192 423.6502,-518.064 432,-489 442.4249,-452.7132 451.7225,-410.1591 457.3546,-382.6728"/>
<polygon fill="#ffa500" stroke="#ffa500" points="400.1485,-573.6268 399.9728,-584.2202 406.7163,-576.0485 400.1485,-573.6268"/>
<text text-anchor="middle" x="463" y="-475.5" font-family="Helvetica,sans-Serif" font-size="10.00" fill="#000000"> &lt; Thread &gt;</text>
</g>
<!-- Node20&#45;&gt;Node7 -->
<g id="edge14" class="edge">
<title>Node20&#45;&gt;Node7</title>
<path fill="none" stroke="#404040" d="M454.3664,-325.0659C446.7997,-299.707 435.2772,-261.0911 424.0027,-223.3064"/>
<polygon fill="none" stroke="#404040" points="423.9476,-223.1215 418.399,-218.5157 420.5164,-211.6225 426.065,-216.2282 423.9476,-223.1215"/>
<text text-anchor="middle" x="462.5" y="-233" font-family="Helvetica,sans-Serif" font-size="10.00" fill="#000000"> &#45;damperThread</text>
</g>
<!-- Node21 -->
<g id="node15" class="node">
<title>Node21</title>
<polygon fill="none" stroke="#bfbfbf" points="551,-325.5 551,-382.5 619,-382.5 619,-325.5 551,-325.5"/>
<text text-anchor="middle" x="585" y="-370.5" font-family="Helvetica,sans-Serif" font-size="10.00" fill="#000000">AtomicLong</text>
<polyline fill="none" stroke="#bfbfbf" points="551,-363.5 619,-363.5 "/>
<text text-anchor="middle" x="585" y="-351.5" font-family="Helvetica,sans-Serif" font-size="10.00" fill="#000000"> </text>
<polyline fill="none" stroke="#bfbfbf" points="551,-344.5 619,-344.5 "/>
<text text-anchor="middle" x="585" y="-332.5" font-family="Helvetica,sans-Serif" font-size="10.00" fill="#000000"> </text>
</g>
<!-- Node21&#45;&gt;Node7 -->
<g id="edge16" class="edge">
<title>Node21&#45;&gt;Node7</title>
<path fill="none" stroke="#404040" d="M575.0743,-325.1508C567.5989,-305.5465 556.2141,-279.5458 542,-259 527.0803,-237.4343 508.9204,-216.253 490.397,-196.8502"/>
<polygon fill="none" stroke="#404040" points="490.2285,-196.6766 483.1794,-195.1569 481.8709,-188.0655 488.9201,-189.5852 490.2285,-196.6766"/>
<text text-anchor="middle" x="547.5" y="-233" font-family="Helvetica,sans-Serif" font-size="10.00" fill="#000000"> &#45;damper</text>
</g>
</g>
</svg>
        <g id="navigator" transform="translate(0 0)" fill="#404254">
                <rect fill="#f2f5e9" fill-opacity="0.5" stroke="#606060" stroke-width=".5" x="0" y="0" width="60" height="60"/>
                <use id="zoomplus" xlink:href="#zoomPlus" x="17" y="9" onmousedown="handleZoom(evt,'in')"/>
                <use id="zoomminus" xlink:href="#zoomMin" x="42" y="9" onmousedown="handleZoom(evt,'out')"/>
                <use id="reset" xlink:href="#resetDef" x="30" y="36" onmousedown="handleReset()"/>
                <g id="arrowUp" xlink:href="#dirArrow" transform="translate(30 24)" onmousedown="handlePan(0,-1)">
                  <use xlink:href="#rim" fill="#404040">
                        <set attributeName="fill" to="#808080" begin="arrowUp.mouseover" end="arrowUp.mouseout"/>
                  </use>
                  <path fill="none" stroke="white" stroke-width="1.5" d="M0,-3.0v7 M-2.5,-0.5L0,-3.0L2.5,-0.5"/>
                </g>
                <g id="arrowRight" xlink:href="#dirArrow" transform="rotate(90) translate(36 -43)" onmousedown="handlePan(1,0)">
                  <use xlink:href="#rim" fill="#404040">
                        <set attributeName="fill" to="#808080" begin="arrowRight.mouseover" end="arrowRight.mouseout"/>
                  </use>
                  <path fill="none" stroke="white" stroke-width="1.5" d="M0,-3.0v7 M-2.5,-0.5L0,-3.0L2.5,-0.5"/>
                </g>
                <g id="arrowDown" xlink:href="#dirArrow" transform="rotate(180) translate(-30 -48)" onmousedown="handlePan(0,1)">
                  <use xlink:href="#rim" fill="#404040">
                        <set attributeName="fill" to="#808080" begin="arrowDown.mouseover" end="arrowDown.mouseout"/>
                  </use>
                  <path fill="none" stroke="white" stroke-width="1.5" d="M0,-3.0v7 M-2.5,-0.5L0,-3.0L2.5,-0.5"/>
                </g>
                <g id="arrowLeft" xlink:href="#dirArrow" transform="rotate(270) translate(-36 17)" onmousedown="handlePan(-1,0)">
                  <use xlink:href="#rim" fill="#404040">
                        <set attributeName="fill" to="#808080" begin="arrowLeft.mouseover" end="arrowLeft.mouseout"/>
                  </use>
                  <path fill="none" stroke="white" stroke-width="1.5" d="M0,-3.0v7 M-2.5,-0.5L0,-3.0L2.5,-0.5"/>
                </g>
        </g>
        <svg viewBox="0 0 15 15" width="100%" height="30px" preserveAspectRatio="xMaxYMin meet">
         <g id="arrow_out" transform="scale(0.3 0.3)">
          <a xlink:href="classorg_1_1cobbzilla_1_1util_1_1io_1_1DamperedCompositeBufferedFilesystemWatcher__coll__graph_org.svg" target="_base">
           <rect id="button" ry="5" rx="5" y="6" x="6" height="38" width="38"
                fill="#f2f5e9" fill-opacity="0.5" stroke="#606060" stroke-width="1.0"/>
           <path id="arrow"
             d="M 11.500037,31.436501 C 11.940474,20.09759 22.043105,11.32322 32.158766,21.979434 L 37.068811,17.246167 C 37.068811,17.246167 37.088388,32 37.088388,32 L 22.160133,31.978069 C 22.160133,31.978069 26.997745,27.140456 26.997745,27.140456 C 18.528582,18.264221 13.291696,25.230495 11.500037,31.436501 z"
             style="fill:#404040;"/>
          </a>
         </g>
        </svg>
</svg>
