<?xml version="1.0" encoding="UTF-8" standalone="no"?>
<!DOCTYPE svg PUBLIC "-//W3C//DTD SVG 1.1//EN"
 "http://www.w3.org/Graphics/SVG/1.1/DTD/svg11.dtd">
<!-- Generated by graphviz version 2.40.1 (20161225.0304)
 -->
<!-- Title: org.cobbzilla.util.jdbc.UncheckedSqlException Pages: 1 -->
<svg width="206pt" height="226pt"
 viewBox="0.00 0.00 205.50 226.00" xmlns="http://www.w3.org/2000/svg" xmlns:xlink="http://www.w3.org/1999/xlink">
<g id="graph0" class="graph" transform="scale(1 1) rotate(0) translate(4 222)">
<title>org.cobbzilla.util.jdbc.UncheckedSqlException</title>
<!-- Node2 -->
<g id="node1" class="node">
<title>Node2</title>
<polygon fill="#bfbfbf" stroke="#000000" points="38.5,-.5 38.5,-112.5 164.5,-112.5 164.5,-.5 38.5,-.5"/>
<text text-anchor="start" x="46.5" y="-100.5" font-family="Helvetica,sans-Serif" font-size="10.00" fill="#000000">org.cobbzilla.util.jdbc.</text>
<text text-anchor="middle" x="101.5" y="-89.5" font-family="Helvetica,sans-Serif" font-size="10.00" fill="#000000">UncheckedSqlException</text>
<polyline fill="none" stroke="#000000" points="38.5,-82.5 164.5,-82.5 "/>
<text text-anchor="middle" x="101.5" y="-70.5" font-family="Helvetica,sans-Serif" font-size="10.00" fill="#000000"> </text>
<polyline fill="none" stroke="#000000" points="38.5,-63.5 164.5,-63.5 "/>
<text text-anchor="start" x="46.5" y="-51.5" font-family="Helvetica,sans-Serif" font-size="10.00" fill="#000000">+ getMessage()</text>
<text text-anchor="start" x="46.5" y="-40.5" font-family="Helvetica,sans-Serif" font-size="10.00" fill="#000000">+ getLocalizedMessage()</text>
<text text-anchor="start" x="46.5" y="-29.5" font-family="Helvetica,sans-Serif" font-size="10.00" fill="#000000">+ getCause()</text>
<text text-anchor="start" x="46.5" y="-18.5" font-family="Helvetica,sans-Serif" font-size="10.00" fill="#000000">+ initCause()</text>
<text text-anchor="start" x="46.5" y="-7.5" font-family="Helvetica,sans-Serif" font-size="10.00" fill="#000000">+ toString()</text>
</g>
<!-- Node3 -->
<g id="node2" class="node">
<title>Node3</title>
<polygon fill="none" stroke="#bfbfbf" points="0,-160.5 0,-217.5 97,-217.5 97,-160.5 0,-160.5"/>
<text text-anchor="middle" x="48.5" y="-205.5" font-family="Helvetica,sans-Serif" font-size="10.00" fill="#000000">RuntimeException</text>
<polyline fill="none" stroke="#bfbfbf" points="0,-198.5 97,-198.5 "/>
<text text-anchor="middle" x="48.5" y="-186.5" font-family="Helvetica,sans-Serif" font-size="10.00" fill="#000000"> </text>
<polyline fill="none" stroke="#bfbfbf" points="0,-179.5 97,-179.5 "/>
<text text-anchor="middle" x="48.5" y="-167.5" font-family="Helvetica,sans-Serif" font-size="10.00" fill="#000000"> </text>
</g>
<!-- Node3&#45;&gt;Node2 -->
<g id="edge1" class="edge">
<title>Node3&#45;&gt;Node2</title>
<path fill="none" stroke="#191970" d="M63.8285,-150.6789C68.5701,-138.8248 73.8958,-125.5106 79.0166,-112.7084"/>
<polygon fill="none" stroke="#191970" points="60.4645,-149.6648 60.0002,-160.2495 66.9638,-152.2646 60.4645,-149.6648"/>
</g>
<!-- Node4 -->
<g id="node3" class="node">
<title>Node4</title>
<polygon fill="none" stroke="#bfbfbf" points="115.5,-160.5 115.5,-217.5 195.5,-217.5 195.5,-160.5 115.5,-160.5"/>
<text text-anchor="middle" x="155.5" y="-205.5" font-family="Helvetica,sans-Serif" font-size="10.00" fill="#000000">SQLException</text>
<polyline fill="none" stroke="#bfbfbf" points="115.5,-198.5 195.5,-198.5 "/>
<text text-anchor="middle" x="155.5" y="-186.5" font-family="Helvetica,sans-Serif" font-size="10.00" fill="#000000"> </text>
<polyline fill="none" stroke="#bfbfbf" points="115.5,-179.5 195.5,-179.5 "/>
<text text-anchor="middle" x="155.5" y="-167.5" font-family="Helvetica,sans-Serif" font-size="10.00" fill="#000000"> </text>
</g>
<!-- Node4&#45;&gt;Node2 -->
<g id="edge2" class="edge">
<title>Node4&#45;&gt;Node2</title>
<path fill="none" stroke="#404040" d="M143.7828,-160.2495C139.3924,-149.4767 134.1981,-136.7314 128.9798,-123.9274"/>
<polygon fill="none" stroke="#404040" points="128.9365,-123.821 122.9679,-119.7744 124.4076,-112.7084 130.3763,-116.7551 128.9365,-123.821"/>
<text text-anchor="middle" x="166" y="-134" font-family="Helvetica,sans-Serif" font-size="10.00" fill="#000000"> &#45;sqlException</text>
</g>
</g>
</svg>
