<?xml version="1.0" encoding="UTF-8" standalone="no"?>
<!DOCTYPE svg PUBLIC "-//W3C//DTD SVG 1.1//EN"
 "http://www.w3.org/Graphics/SVG/1.1/DTD/svg11.dtd">
<!-- Generated by graphviz version 2.40.1 (20161225.0304)
 -->
<!-- Title: org.cobbzilla.util.system.WindowsAdminUtil Pages: 1 -->
<svg width="143pt" height="288pt"
 viewBox="0.00 0.00 143.00 288.00" xmlns="http://www.w3.org/2000/svg" xmlns:xlink="http://www.w3.org/1999/xlink">
<g id="graph0" class="graph" transform="scale(1 1) rotate(0) translate(4 284)">
<title>org.cobbzilla.util.system.WindowsAdminUtil</title>
<!-- Node1 -->
<g id="node1" class="node">
<title>Node1</title>
<polygon fill="#bfbfbf" stroke="#000000" points="3.5,-.5 3.5,-68.5 131.5,-68.5 131.5,-.5 3.5,-.5"/>
<text text-anchor="start" x="11.5" y="-56.5" font-family="Helvetica,sans-Serif" font-size="10.00" fill="#000000">org.cobbzilla.util.system.</text>
<text text-anchor="middle" x="67.5" y="-45.5" font-family="Helvetica,sans-Serif" font-size="10.00" fill="#000000">WindowsAdminUtil</text>
<polyline fill="none" stroke="#000000" points="3.5,-38.5 131.5,-38.5 "/>
<text text-anchor="middle" x="67.5" y="-26.5" font-family="Helvetica,sans-Serif" font-size="10.00" fill="#000000"> </text>
<polyline fill="none" stroke="#000000" points="3.5,-19.5 131.5,-19.5 "/>
<text text-anchor="start" x="11.5" y="-7.5" font-family="Helvetica,sans-Serif" font-size="10.00" fill="#000000">+ isUserWindowsAdmin()</text>
</g>
<!-- Node2 -->
<g id="node2" class="node">
<title>Node2</title>
<g id="a_node2"><a xlink:href="../../d4/d3a/interfaceorg_1_1cobbzilla_1_1util_1_1system_1_1WindowsAdminUtil_1_1Shell32.html" target="_top" xlink:title="{org.cobbzilla.util.system.\lWindowsAdminUtil.Shell32\n||+ IsUserAnAdmin()\l}">
<polygon fill="none" stroke="#000000" points="0,-116.5 0,-184.5 135,-184.5 135,-116.5 0,-116.5"/>
<text text-anchor="start" x="8" y="-172.5" font-family="Helvetica,sans-Serif" font-size="10.00" fill="#000000">org.cobbzilla.util.system.</text>
<text text-anchor="middle" x="67.5" y="-161.5" font-family="Helvetica,sans-Serif" font-size="10.00" fill="#000000">WindowsAdminUtil.Shell32</text>
<polyline fill="none" stroke="#000000" points="0,-154.5 135,-154.5 "/>
<text text-anchor="middle" x="67.5" y="-142.5" font-family="Helvetica,sans-Serif" font-size="10.00" fill="#000000"> </text>
<polyline fill="none" stroke="#000000" points="0,-135.5 135,-135.5 "/>
<text text-anchor="start" x="8" y="-123.5" font-family="Helvetica,sans-Serif" font-size="10.00" fill="#000000">+ IsUserAnAdmin()</text>
</a>
</g>
</g>
<!-- Node2&#45;&gt;Node1 -->
<g id="edge1" class="edge">
<title>Node2&#45;&gt;Node1</title>
<path fill="none" stroke="#404040" d="M67.5,-116.3236C67.5,-105.213 67.5,-92.6908 67.5,-80.8451"/>
<polygon fill="none" stroke="#404040" points="67.5001,-80.833 63.5,-74.833 67.5,-68.833 71.5,-74.833 67.5001,-80.833"/>
<text text-anchor="middle" x="98" y="-90" font-family="Helvetica,sans-Serif" font-size="10.00" fill="#000000"> +INSTANCE</text>
</g>
<!-- Node3 -->
<g id="node3" class="node">
<title>Node3</title>
<polygon fill="none" stroke="#bfbfbf" points="28.5,-222.5 28.5,-279.5 106.5,-279.5 106.5,-222.5 28.5,-222.5"/>
<text text-anchor="middle" x="67.5" y="-267.5" font-family="Helvetica,sans-Serif" font-size="10.00" fill="#000000">StdCallLibrary</text>
<polyline fill="none" stroke="#bfbfbf" points="28.5,-260.5 106.5,-260.5 "/>
<text text-anchor="middle" x="67.5" y="-248.5" font-family="Helvetica,sans-Serif" font-size="10.00" fill="#000000"> </text>
<polyline fill="none" stroke="#bfbfbf" points="28.5,-241.5 106.5,-241.5 "/>
<text text-anchor="middle" x="67.5" y="-229.5" font-family="Helvetica,sans-Serif" font-size="10.00" fill="#000000"> </text>
</g>
<!-- Node3&#45;&gt;Node2 -->
<g id="edge2" class="edge">
<title>Node3&#45;&gt;Node2</title>
<path fill="none" stroke="#191970" d="M67.5,-212.1903C67.5,-203.1667 67.5,-193.6233 67.5,-184.8097"/>
<polygon fill="none" stroke="#191970" points="64.0001,-212.4695 67.5,-222.4696 71.0001,-212.4696 64.0001,-212.4695"/>
</g>
</g>
</svg>
