<?xml version="1.0" encoding="UTF-8" standalone="no"?>
<!DOCTYPE svg PUBLIC "-//W3C//DTD SVG 1.1//EN"
 "http://www.w3.org/Graphics/SVG/1.1/DTD/svg11.dtd">
<!-- Generated by graphviz version 2.40.1 (20161225.0304)
 -->
<!-- Title: org.cobbzilla.util.handlebars.HandlebarsUtil.registerCurrencyHelpers Pages: 1 -->
<svg width="532pt" height="39pt"
 viewBox="0.00 0.00 532.00 39.00" xmlns="http://www.w3.org/2000/svg" xmlns:xlink="http://www.w3.org/1999/xlink">
<g id="graph0" class="graph" transform="scale(1 1) rotate(0) translate(4 35)">
<title>org.cobbzilla.util.handlebars.HandlebarsUtil.registerCurrencyHelpers</title>
<!-- Node0 -->
<g id="node1" class="node">
<title>Node0</title>
<polygon fill="#bfbfbf" stroke="#000000" points="0,-.5 0,-30.5 190,-30.5 190,-.5 0,-.5"/>
<text text-anchor="start" x="8" y="-18.5" font-family="Helvetica,sans-Serif" font-size="10.00" fill="#000000">org.cobbzilla.util.handlebars.</text>
<text text-anchor="middle" x="95" y="-7.5" font-family="Helvetica,sans-Serif" font-size="10.00" fill="#000000">HandlebarsUtil.registerCurrencyHelpers</text>
</g>
<!-- Node1 -->
<g id="node2" class="node">
<title>Node1</title>
<g id="a_node2"><a xlink:href="../../d0/d1b/classorg_1_1cobbzilla_1_1util_1_1handlebars_1_1HandlebarsUtil_af2302957780a3260d87a6a9f5e5cb82c.html#af2302957780a3260d87a6a9f5e5cb82c" target="_top" xlink:title="org.cobbzilla.util.handlebars.\lHandlebarsUtil.longDollarVal">
<polygon fill="none" stroke="#000000" points="226,-.5 226,-30.5 368,-30.5 368,-.5 226,-.5"/>
<text text-anchor="start" x="234" y="-18.5" font-family="Helvetica,sans-Serif" font-size="10.00" fill="#000000">org.cobbzilla.util.handlebars.</text>
<text text-anchor="middle" x="297" y="-7.5" font-family="Helvetica,sans-Serif" font-size="10.00" fill="#000000">HandlebarsUtil.longDollarVal</text>
</a>
</g>
</g>
<!-- Node0&#45;&gt;Node1 -->
<g id="edge1" class="edge">
<title>Node0&#45;&gt;Node1</title>
<path fill="none" stroke="#191970" d="M190.085,-15.5C198.6695,-15.5 207.3112,-15.5 215.7608,-15.5"/>
<polygon fill="#191970" stroke="#191970" points="215.9555,-19.0001 225.9555,-15.5 215.9554,-12.0001 215.9555,-19.0001"/>
</g>
<!-- Node2 -->
<g id="node3" class="node">
<title>Node2</title>
<g id="a_node3"><a xlink:href="../../de/d45/classorg_1_1cobbzilla_1_1util_1_1reflect_1_1ReflectionUtil_ad5ff44a6b0324da64e130f6f8c4cce10.html#ad5ff44a6b0324da64e130f6f8c4cce10" target="_top" xlink:title="org.cobbzilla.util.reflect.\lReflectionUtil.toLong">
<polygon fill="none" stroke="#000000" points="404,-.5 404,-30.5 524,-30.5 524,-.5 404,-.5"/>
<text text-anchor="start" x="412" y="-18.5" font-family="Helvetica,sans-Serif" font-size="10.00" fill="#000000">org.cobbzilla.util.reflect.</text>
<text text-anchor="middle" x="464" y="-7.5" font-family="Helvetica,sans-Serif" font-size="10.00" fill="#000000">ReflectionUtil.toLong</text>
</a>
</g>
</g>
<!-- Node1&#45;&gt;Node2 -->
<g id="edge2" class="edge">
<title>Node1&#45;&gt;Node2</title>
<path fill="none" stroke="#191970" d="M368.3074,-15.5C376.753,-15.5 385.3686,-15.5 393.7986,-15.5"/>
<polygon fill="#191970" stroke="#191970" points="393.9654,-19.0001 403.9654,-15.5 393.9653,-12.0001 393.9654,-19.0001"/>
</g>
</g>
</svg>
