<?xml version="1.0" encoding="UTF-8" standalone="no"?>
<!DOCTYPE svg PUBLIC "-//W3C//DTD SVG 1.1//EN"
 "http://www.w3.org/Graphics/SVG/1.1/DTD/svg11.dtd">
<!-- Generated by graphviz version 2.40.1 (20161225.0304)
 -->
<!-- Title: org.cobbzilla.util.handlebars.HandlebarsUtil.registerJavaScriptHelper Pages: 1 -->
<!--zoomable 179 -->
<svg id="main" version="1.1" xmlns="http://www.w3.org/2000/svg" xmlns:xlink="http://www.w3.org/1999/xlink" xml:space="preserve" onload="init(evt)">
<style type="text/css"><![CDATA[
.edge:hover path { stroke: red; }
.edge:hover polygon { stroke: red; fill: red; }
]]></style>
<script type="text/javascript"><![CDATA[
var edges = document.getElementsByTagName('g');
if (edges && edges.length) {
  for (var i=0;i<edges.length;i++) {
    if (edges[i].id.substr(0,4)=='edge') {
      edges[i].setAttribute('class','edge');
    }
  }
}
]]></script>
        <defs>
                <circle id="rim" cx="0" cy="0" r="7"/>
                <circle id="rim2" cx="0" cy="0" r="3.5"/>
                <g id="zoomPlus">
                        <use xlink:href="#rim" fill="#404040">
                                <set attributeName="fill" to="#808080" begin="zoomplus.mouseover" end="zoomplus.mouseout"/>
                        </use>
                        <path d="M-4,0h8M0,-4v8" fill="none" stroke="white" stroke-width="1.5" pointer-events="none"/>
                </g>
                <g id="zoomMin">
                        <use xlink:href="#rim" fill="#404040">
                                <set attributeName="fill" to="#808080" begin="zoomminus.mouseover" end="zoomminus.mouseout"/>
                        </use>
                        <path d="M-4,0h8" fill="none" stroke="white" stroke-width="1.5" pointer-events="none"/>
                </g>
                <g id="dirArrow">
                        <path fill="none" stroke="white" stroke-width="1.5" d="M0,-3.0v7 M-2.5,-0.5L0,-3.0L2.5,-0.5"/>
                </g>
               <g id="resetDef">
                       <use xlink:href="#rim2" fill="#404040">
                               <set attributeName="fill" to="#808080" begin="reset.mouseover" end="reset.mouseout"/>
                       </use>
               </g>
        </defs>

<script type="text/javascript">
var viewWidth = 513;
var viewHeight = 179;
var sectionId = 'dynsection-0';
</script>
<script xlink:href="../../svgpan.js"/>
<svg id="graph" class="graph">
<g id="viewport">
<title>org.cobbzilla.util.handlebars.HandlebarsUtil.registerJavaScriptHelper</title>
<!-- Node0 -->
<g id="node1" class="node">
<title>Node0</title>
<polygon fill="#bfbfbf" stroke="#000000" points="0,-44 0,-85 163,-85 163,-44 0,-44"/>
<text text-anchor="start" x="8" y="-73" font-family="Helvetica,sans-Serif" font-size="10.00" fill="#000000">org.cobbzilla.util.handlebars.</text>
<text text-anchor="start" x="8" y="-62" font-family="Helvetica,sans-Serif" font-size="10.00" fill="#000000">HandlebarsUtil.registerJavaScript</text>
<text text-anchor="middle" x="81.5" y="-51" font-family="Helvetica,sans-Serif" font-size="10.00" fill="#000000">Helper</text>
</g>
<!-- Node1 -->
<g id="node2" class="node">
<title>Node1</title>
<g id="a_node2"><a xlink:href="../../db/d96/classorg_1_1cobbzilla_1_1util_1_1javascript_1_1JsEngine_a60bba769760a2df3a1b2c8ab5c4dee8c.html#a60bba769760a2df3a1b2c8ab5c4dee8c" target="_top" xlink:title="org.cobbzilla.util.javascript.\lJsEngine.evaluate">
<polygon fill="none" stroke="#000000" points="199,-98.5 199,-128.5 334,-128.5 334,-98.5 199,-98.5"/>
<text text-anchor="start" x="207" y="-116.5" font-family="Helvetica,sans-Serif" font-size="10.00" fill="#000000">org.cobbzilla.util.javascript.</text>
<text text-anchor="middle" x="266.5" y="-105.5" font-family="Helvetica,sans-Serif" font-size="10.00" fill="#000000">JsEngine.evaluate</text>
</a>
</g>
</g>
<!-- Node0&#45;&gt;Node1 -->
<g id="edge1" class="edge">
<title>Node0&#45;&gt;Node1</title>
<path fill="none" stroke="#191970" d="M159.1525,-85.0674C172.7055,-88.6571 186.695,-92.3625 199.9162,-95.8643"/>
<polygon fill="#191970" stroke="#191970" points="199.294,-99.3201 209.8568,-98.4972 201.0863,-92.5534 199.294,-99.3201"/>
</g>
<!-- Node4 -->
<g id="node5" class="node">
<title>Node4</title>
<g id="a_node5"><a xlink:href="../../d9/dbd/classorg_1_1cobbzilla_1_1util_1_1string_1_1LocaleUtil_a40753fffe36bbb1d2875e7346a63a959.html#a40753fffe36bbb1d2875e7346a63a959" target="_top" xlink:title="org.cobbzilla.util.string.\lLocaleUtil.fromString">
<polygon fill="none" stroke="#000000" points="208,-49.5 208,-79.5 325,-79.5 325,-49.5 208,-49.5"/>
<text text-anchor="start" x="216" y="-67.5" font-family="Helvetica,sans-Serif" font-size="10.00" fill="#000000">org.cobbzilla.util.string.</text>
<text text-anchor="middle" x="266.5" y="-56.5" font-family="Helvetica,sans-Serif" font-size="10.00" fill="#000000">LocaleUtil.fromString</text>
</a>
</g>
</g>
<!-- Node0&#45;&gt;Node4 -->
<g id="edge5" class="edge">
<title>Node0&#45;&gt;Node4</title>
<path fill="none" stroke="#191970" d="M163.1822,-64.5C174.669,-64.5 186.3815,-64.5 197.5979,-64.5"/>
<polygon fill="#191970" stroke="#191970" points="197.7385,-68.0001 207.7385,-64.5 197.7384,-61.0001 197.7385,-68.0001"/>
</g>
<!-- Node5 -->
<g id="node6" class="node">
<title>Node5</title>
<g id="a_node6"><a xlink:href="../../d4/d50/interfaceorg_1_1cobbzilla_1_1util_1_1javascript_1_1JsEngineFactory_a8299d43585cf96c352b4b3f396167b99.html#a8299d43585cf96c352b4b3f396167b99" target="_top" xlink:title="org.cobbzilla.util.javascript.\lJsEngineFactory.getJs">
<polygon fill="none" stroke="#000000" points="199,-.5 199,-30.5 334,-30.5 334,-.5 199,-.5"/>
<text text-anchor="start" x="207" y="-18.5" font-family="Helvetica,sans-Serif" font-size="10.00" fill="#000000">org.cobbzilla.util.javascript.</text>
<text text-anchor="middle" x="266.5" y="-7.5" font-family="Helvetica,sans-Serif" font-size="10.00" fill="#000000">JsEngineFactory.getJs</text>
</a>
</g>
</g>
<!-- Node0&#45;&gt;Node5 -->
<g id="edge6" class="edge">
<title>Node0&#45;&gt;Node5</title>
<path fill="none" stroke="#191970" d="M159.1525,-43.9326C172.7055,-40.3429 186.695,-36.6375 199.9162,-33.1357"/>
<polygon fill="#191970" stroke="#191970" points="201.0863,-36.4466 209.8568,-30.5028 199.294,-29.6799 201.0863,-36.4466"/>
</g>
<!-- Node2 -->
<g id="node3" class="node">
<title>Node2</title>
<g id="a_node3"><a xlink:href="../../db/d96/classorg_1_1cobbzilla_1_1util_1_1javascript_1_1JsEngine_a910dcb21061881b153a71b6ff849d8da.html#a910dcb21061881b153a71b6ff849d8da" target="_top" xlink:title="org.cobbzilla.util.javascript.\lJsEngine.getNashorn">
<polygon fill="none" stroke="#000000" points="370,-122.5 370,-152.5 505,-152.5 505,-122.5 370,-122.5"/>
<text text-anchor="start" x="378" y="-140.5" font-family="Helvetica,sans-Serif" font-size="10.00" fill="#000000">org.cobbzilla.util.javascript.</text>
<text text-anchor="middle" x="437.5" y="-129.5" font-family="Helvetica,sans-Serif" font-size="10.00" fill="#000000">JsEngine.getNashorn</text>
</a>
</g>
</g>
<!-- Node1&#45;&gt;Node2 -->
<g id="edge2" class="edge">
<title>Node1&#45;&gt;Node2</title>
<path fill="none" stroke="#191970" d="M334.0837,-122.9854C342.5381,-124.172 351.2372,-125.3929 359.83,-126.5989"/>
<polygon fill="#191970" stroke="#191970" points="359.4578,-130.0809 369.8472,-128.0049 360.4308,-123.1489 359.4578,-130.0809"/>
</g>
<!-- Node3 -->
<g id="node4" class="node">
<title>Node3</title>
<g id="a_node4"><a xlink:href="../../db/d96/classorg_1_1cobbzilla_1_1util_1_1javascript_1_1JsEngine_a4f5dc618811183ac05be1a06c8f2973a.html#a4f5dc618811183ac05be1a06c8f2973a" target="_top" xlink:title="org.cobbzilla.util.javascript.\lJsEngine.getDefaultScript">
<polygon fill="none" stroke="#000000" points="370,-73.5 370,-103.5 505,-103.5 505,-73.5 370,-73.5"/>
<text text-anchor="start" x="378" y="-91.5" font-family="Helvetica,sans-Serif" font-size="10.00" fill="#000000">org.cobbzilla.util.javascript.</text>
<text text-anchor="middle" x="437.5" y="-80.5" font-family="Helvetica,sans-Serif" font-size="10.00" fill="#000000">JsEngine.getDefaultScript</text>
</a>
</g>
</g>
<!-- Node1&#45;&gt;Node3 -->
<g id="edge4" class="edge">
<title>Node1&#45;&gt;Node3</title>
<path fill="none" stroke="#191970" d="M334.0837,-103.6193C342.5381,-102.3833 351.2372,-101.1115 359.83,-99.8553"/>
<polygon fill="#191970" stroke="#191970" points="360.4587,-103.3006 369.8472,-98.3908 359.4461,-96.3743 360.4587,-103.3006"/>
</g>
<!-- Node2&#45;&gt;Node2 -->
<g id="edge3" class="edge">
<title>Node2&#45;&gt;Node2</title>
<path fill="none" stroke="#191970" d="M407.874,-152.659C400.7301,-162.0566 410.6055,-171 437.5,-171 453.8889,-171 463.9578,-167.679 467.7069,-162.9579"/>
<polygon fill="#191970" stroke="#191970" points="471.1837,-162.446 467.126,-152.659 464.1948,-162.8403 471.1837,-162.446"/>
</g>
</g>
</svg>
        <g id="navigator" transform="translate(0 0)" fill="#404254">
                <rect fill="#f2f5e9" fill-opacity="0.5" stroke="#606060" stroke-width=".5" x="0" y="0" width="60" height="60"/>
                <use id="zoomplus" xlink:href="#zoomPlus" x="17" y="9" onmousedown="handleZoom(evt,'in')"/>
                <use id="zoomminus" xlink:href="#zoomMin" x="42" y="9" onmousedown="handleZoom(evt,'out')"/>
                <use id="reset" xlink:href="#resetDef" x="30" y="36" onmousedown="handleReset()"/>
                <g id="arrowUp" xlink:href="#dirArrow" transform="translate(30 24)" onmousedown="handlePan(0,-1)">
                  <use xlink:href="#rim" fill="#404040">
                        <set attributeName="fill" to="#808080" begin="arrowUp.mouseover" end="arrowUp.mouseout"/>
                  </use>
                  <path fill="none" stroke="white" stroke-width="1.5" d="M0,-3.0v7 M-2.5,-0.5L0,-3.0L2.5,-0.5"/>
                </g>
                <g id="arrowRight" xlink:href="#dirArrow" transform="rotate(90) translate(36 -43)" onmousedown="handlePan(1,0)">
                  <use xlink:href="#rim" fill="#404040">
                        <set attributeName="fill" to="#808080" begin="arrowRight.mouseover" end="arrowRight.mouseout"/>
                  </use>
                  <path fill="none" stroke="white" stroke-width="1.5" d="M0,-3.0v7 M-2.5,-0.5L0,-3.0L2.5,-0.5"/>
                </g>
                <g id="arrowDown" xlink:href="#dirArrow" transform="rotate(180) translate(-30 -48)" onmousedown="handlePan(0,1)">
                  <use xlink:href="#rim" fill="#404040">
                        <set attributeName="fill" to="#808080" begin="arrowDown.mouseover" end="arrowDown.mouseout"/>
                  </use>
                  <path fill="none" stroke="white" stroke-width="1.5" d="M0,-3.0v7 M-2.5,-0.5L0,-3.0L2.5,-0.5"/>
                </g>
                <g id="arrowLeft" xlink:href="#dirArrow" transform="rotate(270) translate(-36 17)" onmousedown="handlePan(-1,0)">
                  <use xlink:href="#rim" fill="#404040">
                        <set attributeName="fill" to="#808080" begin="arrowLeft.mouseover" end="arrowLeft.mouseout"/>
                  </use>
                  <path fill="none" stroke="white" stroke-width="1.5" d="M0,-3.0v7 M-2.5,-0.5L0,-3.0L2.5,-0.5"/>
                </g>
        </g>
        <svg viewBox="0 0 15 15" width="100%" height="30px" preserveAspectRatio="xMaxYMin meet">
         <g id="arrow_out" transform="scale(0.3 0.3)">
          <a xlink:href="classorg_1_1cobbzilla_1_1util_1_1handlebars_1_1HandlebarsUtil_a2068d47b7f92065178a38a08e7c44e3c_a2068d47b7f92065178a38a08e7c44e3c_cgraph_org.svg" target="_base">
           <rect id="button" ry="5" rx="5" y="6" x="6" height="38" width="38"
                fill="#f2f5e9" fill-opacity="0.5" stroke="#606060" stroke-width="1.0"/>
           <path id="arrow"
             d="M 11.500037,31.436501 C 11.940474,20.09759 22.043105,11.32322 32.158766,21.979434 L 37.068811,17.246167 C 37.068811,17.246167 37.088388,32 37.088388,32 L 22.160133,31.978069 C 22.160133,31.978069 26.997745,27.140456 26.997745,27.140456 C 18.528582,18.264221 13.291696,25.230495 11.500037,31.436501 z"
             style="fill:#404040;"/>
          </a>
         </g>
        </svg>
</svg>
