<?xml version="1.0" encoding="UTF-8" standalone="no"?>
<!DOCTYPE svg PUBLIC "-//W3C//DTD SVG 1.1//EN"
 "http://www.w3.org/Graphics/SVG/1.1/DTD/svg11.dtd">
<!-- Generated by graphviz version 2.40.1 (20161225.0304)
 -->
<!-- Title: org.cobbzilla.util.handlebars.HandlebarsUtil.registerUtilityHelpers Pages: 1 -->
<!--zoomable 382 -->
<svg id="main" version="1.1" xmlns="http://www.w3.org/2000/svg" xmlns:xlink="http://www.w3.org/1999/xlink" xml:space="preserve" onload="init(evt)">
<style type="text/css"><![CDATA[
.edge:hover path { stroke: red; }
.edge:hover polygon { stroke: red; fill: red; }
]]></style>
<script type="text/javascript"><![CDATA[
var edges = document.getElementsByTagName('g');
if (edges && edges.length) {
  for (var i=0;i<edges.length;i++) {
    if (edges[i].id.substr(0,4)=='edge') {
      edges[i].setAttribute('class','edge');
    }
  }
}
]]></script>
        <defs>
                <circle id="rim" cx="0" cy="0" r="7"/>
                <circle id="rim2" cx="0" cy="0" r="3.5"/>
                <g id="zoomPlus">
                        <use xlink:href="#rim" fill="#404040">
                                <set attributeName="fill" to="#808080" begin="zoomplus.mouseover" end="zoomplus.mouseout"/>
                        </use>
                        <path d="M-4,0h8M0,-4v8" fill="none" stroke="white" stroke-width="1.5" pointer-events="none"/>
                </g>
                <g id="zoomMin">
                        <use xlink:href="#rim" fill="#404040">
                                <set attributeName="fill" to="#808080" begin="zoomminus.mouseover" end="zoomminus.mouseout"/>
                        </use>
                        <path d="M-4,0h8" fill="none" stroke="white" stroke-width="1.5" pointer-events="none"/>
                </g>
                <g id="dirArrow">
                        <path fill="none" stroke="white" stroke-width="1.5" d="M0,-3.0v7 M-2.5,-0.5L0,-3.0L2.5,-0.5"/>
                </g>
               <g id="resetDef">
                       <use xlink:href="#rim2" fill="#404040">
                               <set attributeName="fill" to="#808080" begin="reset.mouseover" end="reset.mouseout"/>
                       </use>
               </g>
        </defs>

<script type="text/javascript">
var viewWidth = 824;
var viewHeight = 382;
var sectionId = 'dynsection-0';
</script>
<script xlink:href="../../svgpan.js"/>
<svg id="graph" class="graph">
<g id="viewport">
<title>org.cobbzilla.util.handlebars.HandlebarsUtil.registerUtilityHelpers</title>
<!-- Node0 -->
<g id="node1" class="node">
<title>Node0</title>
<polygon fill="#bfbfbf" stroke="#000000" points="0,-171.5 0,-201.5 176,-201.5 176,-171.5 0,-171.5"/>
<text text-anchor="start" x="8" y="-189.5" font-family="Helvetica,sans-Serif" font-size="10.00" fill="#000000">org.cobbzilla.util.handlebars.</text>
<text text-anchor="middle" x="88" y="-178.5" font-family="Helvetica,sans-Serif" font-size="10.00" fill="#000000">HandlebarsUtil.registerUtilityHelpers</text>
</g>
<!-- Node1 -->
<g id="node2" class="node">
<title>Node1</title>
<g id="a_node2"><a xlink:href="../../d0/d1b/classorg_1_1cobbzilla_1_1util_1_1handlebars_1_1HandlebarsUtil_a3798bc5bdea2ec45b6d6fe4e84e2caab.html#a3798bc5bdea2ec45b6d6fe4e84e2caab" target="_top" xlink:title="org.cobbzilla.util.handlebars.\lHandlebarsUtil.apply">
<polygon fill="none" stroke="#000000" points="239,-343.5 239,-373.5 379,-373.5 379,-343.5 239,-343.5"/>
<text text-anchor="start" x="247" y="-361.5" font-family="Helvetica,sans-Serif" font-size="10.00" fill="#000000">org.cobbzilla.util.handlebars.</text>
<text text-anchor="middle" x="309" y="-350.5" font-family="Helvetica,sans-Serif" font-size="10.00" fill="#000000">HandlebarsUtil.apply</text>
</a>
</g>
</g>
<!-- Node0&#45;&gt;Node1 -->
<g id="edge1" class="edge">
<title>Node0&#45;&gt;Node1</title>
<path fill="none" stroke="#191970" d="M96.3209,-201.8096C113.6272,-232.1346 156.5485,-299.8907 212,-334.5 217.4084,-337.8756 223.263,-340.7766 229.3242,-343.2698"/>
<polygon fill="#191970" stroke="#191970" points="228.3918,-346.6571 238.9846,-346.8614 230.8312,-340.0959 228.3918,-346.6571"/>
</g>
<!-- Node2 -->
<g id="node3" class="node">
<title>Node2</title>
<g id="a_node3"><a xlink:href="../../d0/d1b/classorg_1_1cobbzilla_1_1util_1_1handlebars_1_1HandlebarsUtil_a6a356277e4c72467b4ea71f7a9af3311.html#a6a356277e4c72467b4ea71f7a9af3311" target="_top" xlink:title="org.cobbzilla.util.handlebars.\lHandlebarsUtil.compare">
<polygon fill="none" stroke="#000000" points="239,-294.5 239,-324.5 379,-324.5 379,-294.5 239,-294.5"/>
<text text-anchor="start" x="247" y="-312.5" font-family="Helvetica,sans-Serif" font-size="10.00" fill="#000000">org.cobbzilla.util.handlebars.</text>
<text text-anchor="middle" x="309" y="-301.5" font-family="Helvetica,sans-Serif" font-size="10.00" fill="#000000">HandlebarsUtil.compare</text>
</a>
</g>
</g>
<!-- Node0&#45;&gt;Node2 -->
<g id="edge2" class="edge">
<title>Node0&#45;&gt;Node2</title>
<path fill="none" stroke="#191970" d="M102.5388,-201.6967C124.2913,-223.5343 167.5285,-263.5688 212,-285.5 217.5137,-288.2191 223.3597,-290.6453 229.3402,-292.8076"/>
<polygon fill="#191970" stroke="#191970" points="228.2266,-296.1256 238.8206,-295.9924 230.4558,-289.49 228.2266,-296.1256"/>
</g>
<!-- Node4 -->
<g id="node5" class="node">
<title>Node4</title>
<g id="a_node5"><a xlink:href="../../d0/d1b/classorg_1_1cobbzilla_1_1util_1_1handlebars_1_1HandlebarsUtil_aeef00b3b32a68b992e75bf0d6f9bbd20.html#aeef00b3b32a68b992e75bf0d6f9bbd20" target="_top" xlink:title="org.cobbzilla.util.handlebars.\lHandlebarsUtil.cval">
<polygon fill="none" stroke="#000000" points="239,-245.5 239,-275.5 379,-275.5 379,-245.5 239,-245.5"/>
<text text-anchor="start" x="247" y="-263.5" font-family="Helvetica,sans-Serif" font-size="10.00" fill="#000000">org.cobbzilla.util.handlebars.</text>
<text text-anchor="middle" x="309" y="-252.5" font-family="Helvetica,sans-Serif" font-size="10.00" fill="#000000">HandlebarsUtil.cval</text>
</a>
</g>
</g>
<!-- Node0&#45;&gt;Node4 -->
<g id="edge4" class="edge">
<title>Node0&#45;&gt;Node4</title>
<path fill="none" stroke="#191970" d="M121.7355,-201.6051C146.4064,-212.2801 180.8604,-226.4249 212,-236.5 218.8086,-238.7029 225.9415,-240.819 233.1174,-242.8191"/>
<polygon fill="#191970" stroke="#191970" points="232.3356,-246.2334 242.903,-245.4719 234.1671,-239.4773 232.3356,-246.2334"/>
</g>
<!-- Node5 -->
<g id="node6" class="node">
<title>Node5</title>
<g id="a_node6"><a xlink:href="../../d9/dbd/classorg_1_1cobbzilla_1_1util_1_1string_1_1LocaleUtil_a40753fffe36bbb1d2875e7346a63a959.html#a40753fffe36bbb1d2875e7346a63a959" target="_top" xlink:title="org.cobbzilla.util.string.\lLocaleUtil.fromString">
<polygon fill="none" stroke="#000000" points="250.5,-196.5 250.5,-226.5 367.5,-226.5 367.5,-196.5 250.5,-196.5"/>
<text text-anchor="start" x="258.5" y="-214.5" font-family="Helvetica,sans-Serif" font-size="10.00" fill="#000000">org.cobbzilla.util.string.</text>
<text text-anchor="middle" x="309" y="-203.5" font-family="Helvetica,sans-Serif" font-size="10.00" fill="#000000">LocaleUtil.fromString</text>
</a>
</g>
</g>
<!-- Node0&#45;&gt;Node5 -->
<g id="edge5" class="edge">
<title>Node0&#45;&gt;Node5</title>
<path fill="none" stroke="#191970" d="M176.2978,-196.4884C197.5882,-198.8969 220.0255,-201.435 240.2695,-203.7251"/>
<polygon fill="#191970" stroke="#191970" points="239.9962,-207.2164 250.3263,-204.8627 240.7831,-200.2607 239.9962,-207.2164"/>
</g>
<!-- Node6 -->
<g id="node7" class="node">
<title>Node6</title>
<g id="a_node7"><a xlink:href="../../de/d45/classorg_1_1cobbzilla_1_1util_1_1reflect_1_1ReflectionUtil_a875bf838f367197bc1b9c5d46e5122bd.html#a875bf838f367197bc1b9c5d46e5122bd" target="_top" xlink:title="Call a getter. ">
<polygon fill="none" stroke="#000000" points="249,-147.5 249,-177.5 369,-177.5 369,-147.5 249,-147.5"/>
<text text-anchor="start" x="257" y="-165.5" font-family="Helvetica,sans-Serif" font-size="10.00" fill="#000000">org.cobbzilla.util.reflect.</text>
<text text-anchor="middle" x="309" y="-154.5" font-family="Helvetica,sans-Serif" font-size="10.00" fill="#000000">ReflectionUtil.get</text>
</a>
</g>
</g>
<!-- Node0&#45;&gt;Node6 -->
<g id="edge6" class="edge">
<title>Node0&#45;&gt;Node6</title>
<path fill="none" stroke="#191970" d="M176.2978,-176.9111C196.9791,-174.6652 218.7425,-172.3017 238.5266,-170.1532"/>
<polygon fill="#191970" stroke="#191970" points="239.1122,-173.6103 248.6758,-169.051 238.3564,-166.6512 239.1122,-173.6103"/>
</g>
<!-- Node9 -->
<g id="node10" class="node">
<title>Node9</title>
<g id="a_node10"><a xlink:href="../../d0/d1b/classorg_1_1cobbzilla_1_1util_1_1handlebars_1_1HandlebarsUtil_ad9314f960e003e5d6806c11a18c44f34.html#ad9314f960e003e5d6806c11a18c44f34" target="_top" xlink:title="org.cobbzilla.util.handlebars.\lHandlebarsUtil.getComparisonArgParam">
<polygon fill="none" stroke="#000000" points="212,-98.5 212,-128.5 406,-128.5 406,-98.5 212,-98.5"/>
<text text-anchor="start" x="220" y="-116.5" font-family="Helvetica,sans-Serif" font-size="10.00" fill="#000000">org.cobbzilla.util.handlebars.</text>
<text text-anchor="middle" x="309" y="-105.5" font-family="Helvetica,sans-Serif" font-size="10.00" fill="#000000">HandlebarsUtil.getComparisonArgParam</text>
</a>
</g>
</g>
<!-- Node0&#45;&gt;Node9 -->
<g id="edge9" class="edge">
<title>Node0&#45;&gt;Node9</title>
<path fill="none" stroke="#191970" d="M123.6845,-171.4065C148.2502,-161.3336 181.7796,-148.2067 212,-138.5 219.914,-135.9581 228.2541,-133.4938 236.5854,-131.1669"/>
<polygon fill="#191970" stroke="#191970" points="237.6121,-134.5147 246.3355,-128.5019 235.7665,-127.7624 237.6121,-134.5147"/>
</g>
<!-- Node10 -->
<g id="node11" class="node">
<title>Node10</title>
<g id="a_node11"><a xlink:href="../../d0/d1b/classorg_1_1cobbzilla_1_1util_1_1handlebars_1_1HandlebarsUtil_a5035699148caf065b77752a27fadeb17.html#a5035699148caf065b77752a27fadeb17" target="_top" xlink:title="org.cobbzilla.util.handlebars.\lHandlebarsUtil.getIterator">
<polygon fill="none" stroke="#000000" points="239,-49.5 239,-79.5 379,-79.5 379,-49.5 239,-49.5"/>
<text text-anchor="start" x="247" y="-67.5" font-family="Helvetica,sans-Serif" font-size="10.00" fill="#000000">org.cobbzilla.util.handlebars.</text>
<text text-anchor="middle" x="309" y="-56.5" font-family="Helvetica,sans-Serif" font-size="10.00" fill="#000000">HandlebarsUtil.getIterator</text>
</a>
</g>
</g>
<!-- Node0&#45;&gt;Node10 -->
<g id="edge10" class="edge">
<title>Node0&#45;&gt;Node10</title>
<path fill="none" stroke="#191970" d="M102.9964,-171.324C124.9782,-149.938 168.1186,-111.1337 212,-89.5 217.5276,-86.7749 223.3835,-84.3252 229.371,-82.1269"/>
<polygon fill="#191970" stroke="#191970" points="230.5343,-85.4281 238.86,-78.8758 228.2654,-78.806 230.5343,-85.4281"/>
</g>
<!-- Node11 -->
<g id="node12" class="node">
<title>Node11</title>
<g id="a_node12"><a xlink:href="../../d0/d1b/classorg_1_1cobbzilla_1_1util_1_1handlebars_1_1HandlebarsUtil_a78f4d1a6e7b34cb35b98e6d22eceb926.html#a78f4d1a6e7b34cb35b98e6d22eceb926" target="_top" xlink:title="org.cobbzilla.util.handlebars.\lHandlebarsUtil.sendContext">
<polygon fill="none" stroke="#000000" points="239,-.5 239,-30.5 379,-30.5 379,-.5 239,-.5"/>
<text text-anchor="start" x="247" y="-18.5" font-family="Helvetica,sans-Serif" font-size="10.00" fill="#000000">org.cobbzilla.util.handlebars.</text>
<text text-anchor="middle" x="309" y="-7.5" font-family="Helvetica,sans-Serif" font-size="10.00" fill="#000000">HandlebarsUtil.sendContext</text>
</a>
</g>
</g>
<!-- Node0&#45;&gt;Node11 -->
<g id="edge11" class="edge">
<title>Node0&#45;&gt;Node11</title>
<path fill="none" stroke="#191970" d="M96.3486,-171.2945C113.7045,-141.1758 156.7108,-73.8799 212,-39.5 217.3657,-36.1635 223.1681,-33.2906 229.1743,-30.8169"/>
<polygon fill="#191970" stroke="#191970" points="230.5989,-34.0211 238.7468,-27.249 228.1541,-27.4619 230.5989,-34.0211"/>
</g>
<!-- Node3 -->
<g id="node4" class="node">
<title>Node3</title>
<g id="a_node4"><a xlink:href="../../db/d9f/classorg_1_1cobbzilla_1_1util_1_1string_1_1StringUtil_aa417d699a84b1243caafaa5cfb469e8a.html#aa417d699a84b1243caafaa5cfb469e8a" target="_top" xlink:title="org.cobbzilla.util.string.\lStringUtil.split">
<polygon fill="none" stroke="#000000" points="456.5,-294.5 456.5,-324.5 573.5,-324.5 573.5,-294.5 456.5,-294.5"/>
<text text-anchor="start" x="464.5" y="-312.5" font-family="Helvetica,sans-Serif" font-size="10.00" fill="#000000">org.cobbzilla.util.string.</text>
<text text-anchor="middle" x="515" y="-301.5" font-family="Helvetica,sans-Serif" font-size="10.00" fill="#000000">StringUtil.split</text>
</a>
</g>
</g>
<!-- Node2&#45;&gt;Node3 -->
<g id="edge3" class="edge">
<title>Node2&#45;&gt;Node3</title>
<path fill="none" stroke="#191970" d="M379.0296,-309.5C400.7794,-309.5 424.7218,-309.5 446.3748,-309.5"/>
<polygon fill="#191970" stroke="#191970" points="446.4724,-313.0001 456.4724,-309.5 446.4724,-306.0001 446.4724,-313.0001"/>
</g>
<!-- Node7 -->
<g id="node8" class="node">
<title>Node7</title>
<g id="a_node8"><a xlink:href="../../de/d45/classorg_1_1cobbzilla_1_1util_1_1reflect_1_1ReflectionUtil_a1acc0385c017266a2f5a416746f69863.html#a1acc0385c017266a2f5a416746f69863" target="_top" xlink:title="org.cobbzilla.util.reflect.\lReflectionUtil.invoke_get">
<polygon fill="none" stroke="#000000" points="452,-147.5 452,-177.5 578,-177.5 578,-147.5 452,-147.5"/>
<text text-anchor="start" x="460" y="-165.5" font-family="Helvetica,sans-Serif" font-size="10.00" fill="#000000">org.cobbzilla.util.reflect.</text>
<text text-anchor="middle" x="515" y="-154.5" font-family="Helvetica,sans-Serif" font-size="10.00" fill="#000000">ReflectionUtil.invoke_get</text>
</a>
</g>
</g>
<!-- Node6&#45;&gt;Node7 -->
<g id="edge7" class="edge">
<title>Node6&#45;&gt;Node7</title>
<path fill="none" stroke="#191970" d="M369.1375,-162.5C391.8944,-162.5 418.0488,-162.5 441.8699,-162.5"/>
<polygon fill="#191970" stroke="#191970" points="441.9194,-166.0001 451.9193,-162.5 441.9193,-159.0001 441.9194,-166.0001"/>
</g>
<!-- Node8 -->
<g id="node9" class="node">
<title>Node8</title>
<g id="a_node9"><a xlink:href="../../de/d45/classorg_1_1cobbzilla_1_1util_1_1reflect_1_1ReflectionUtil_ad1861d10610bdbfd08ec4c2fc5abb667.html#ad1861d10610bdbfd08ec4c2fc5abb667" target="_top" xlink:title="org.cobbzilla.util.reflect.\lReflectionUtil.getAccessorMethodName">
<polygon fill="none" stroke="#000000" points="624,-147.5 624,-177.5 816,-177.5 816,-147.5 624,-147.5"/>
<text text-anchor="start" x="632" y="-165.5" font-family="Helvetica,sans-Serif" font-size="10.00" fill="#000000">org.cobbzilla.util.reflect.</text>
<text text-anchor="middle" x="720" y="-154.5" font-family="Helvetica,sans-Serif" font-size="10.00" fill="#000000">ReflectionUtil.getAccessorMethodName</text>
</a>
</g>
</g>
<!-- Node7&#45;&gt;Node8 -->
<g id="edge8" class="edge">
<title>Node7&#45;&gt;Node8</title>
<path fill="none" stroke="#191970" d="M578.1795,-162.5C589.4844,-162.5 601.5414,-162.5 613.67,-162.5"/>
<polygon fill="#191970" stroke="#191970" points="613.86,-166.0001 623.86,-162.5 613.86,-159.0001 613.86,-166.0001"/>
</g>
<!-- Node12 -->
<g id="node13" class="node">
<title>Node12</title>
<g id="a_node13"><a xlink:href="../../df/d45/interfaceorg_1_1cobbzilla_1_1util_1_1handlebars_1_1ContextMessageSender_af815765cad9125c3ef17f3f5f0d6fa42.html#af815765cad9125c3ef17f3f5f0d6fa42" target="_top" xlink:title="org.cobbzilla.util.handlebars.\lContextMessageSender.send">
<polygon fill="none" stroke="#000000" points="442,-.5 442,-30.5 588,-30.5 588,-.5 442,-.5"/>
<text text-anchor="start" x="450" y="-18.5" font-family="Helvetica,sans-Serif" font-size="10.00" fill="#000000">org.cobbzilla.util.handlebars.</text>
<text text-anchor="middle" x="515" y="-7.5" font-family="Helvetica,sans-Serif" font-size="10.00" fill="#000000">ContextMessageSender.send</text>
</a>
</g>
</g>
<!-- Node11&#45;&gt;Node12 -->
<g id="edge12" class="edge">
<title>Node11&#45;&gt;Node12</title>
<path fill="none" stroke="#191970" d="M379.0296,-15.5C395.8978,-15.5 414.0848,-15.5 431.4999,-15.5"/>
<polygon fill="#191970" stroke="#191970" points="431.6487,-19.0001 441.6486,-15.5 431.6486,-12.0001 431.6487,-19.0001"/>
</g>
</g>
</svg>
        <g id="navigator" transform="translate(0 0)" fill="#404254">
                <rect fill="#f2f5e9" fill-opacity="0.5" stroke="#606060" stroke-width=".5" x="0" y="0" width="60" height="60"/>
                <use id="zoomplus" xlink:href="#zoomPlus" x="17" y="9" onmousedown="handleZoom(evt,'in')"/>
                <use id="zoomminus" xlink:href="#zoomMin" x="42" y="9" onmousedown="handleZoom(evt,'out')"/>
                <use id="reset" xlink:href="#resetDef" x="30" y="36" onmousedown="handleReset()"/>
                <g id="arrowUp" xlink:href="#dirArrow" transform="translate(30 24)" onmousedown="handlePan(0,-1)">
                  <use xlink:href="#rim" fill="#404040">
                        <set attributeName="fill" to="#808080" begin="arrowUp.mouseover" end="arrowUp.mouseout"/>
                  </use>
                  <path fill="none" stroke="white" stroke-width="1.5" d="M0,-3.0v7 M-2.5,-0.5L0,-3.0L2.5,-0.5"/>
                </g>
                <g id="arrowRight" xlink:href="#dirArrow" transform="rotate(90) translate(36 -43)" onmousedown="handlePan(1,0)">
                  <use xlink:href="#rim" fill="#404040">
                        <set attributeName="fill" to="#808080" begin="arrowRight.mouseover" end="arrowRight.mouseout"/>
                  </use>
                  <path fill="none" stroke="white" stroke-width="1.5" d="M0,-3.0v7 M-2.5,-0.5L0,-3.0L2.5,-0.5"/>
                </g>
                <g id="arrowDown" xlink:href="#dirArrow" transform="rotate(180) translate(-30 -48)" onmousedown="handlePan(0,1)">
                  <use xlink:href="#rim" fill="#404040">
                        <set attributeName="fill" to="#808080" begin="arrowDown.mouseover" end="arrowDown.mouseout"/>
                  </use>
                  <path fill="none" stroke="white" stroke-width="1.5" d="M0,-3.0v7 M-2.5,-0.5L0,-3.0L2.5,-0.5"/>
                </g>
                <g id="arrowLeft" xlink:href="#dirArrow" transform="rotate(270) translate(-36 17)" onmousedown="handlePan(-1,0)">
                  <use xlink:href="#rim" fill="#404040">
                        <set attributeName="fill" to="#808080" begin="arrowLeft.mouseover" end="arrowLeft.mouseout"/>
                  </use>
                  <path fill="none" stroke="white" stroke-width="1.5" d="M0,-3.0v7 M-2.5,-0.5L0,-3.0L2.5,-0.5"/>
                </g>
        </g>
        <svg viewBox="0 0 15 15" width="100%" height="30px" preserveAspectRatio="xMaxYMin meet">
         <g id="arrow_out" transform="scale(0.3 0.3)">
          <a xlink:href="classorg_1_1cobbzilla_1_1util_1_1handlebars_1_1HandlebarsUtil_af8f3012d152b38e5472c15975a8921e2_af8f3012d152b38e5472c15975a8921e2_cgraph_org.svg" target="_base">
           <rect id="button" ry="5" rx="5" y="6" x="6" height="38" width="38"
                fill="#f2f5e9" fill-opacity="0.5" stroke="#606060" stroke-width="1.0"/>
           <path id="arrow"
             d="M 11.500037,31.436501 C 11.940474,20.09759 22.043105,11.32322 32.158766,21.979434 L 37.068811,17.246167 C 37.068811,17.246167 37.088388,32 37.088388,32 L 22.160133,31.978069 C 22.160133,31.978069 26.997745,27.140456 26.997745,27.140456 C 18.528582,18.264221 13.291696,25.230495 11.500037,31.436501 z"
             style="fill:#404040;"/>
          </a>
         </g>
        </svg>
</svg>
