<?xml version="1.0" encoding="UTF-8" standalone="no"?>
<!DOCTYPE svg PUBLIC "-//W3C//DTD SVG 1.1//EN"
 "http://www.w3.org/Graphics/SVG/1.1/DTD/svg11.dtd">
<!-- Generated by graphviz version 2.40.1 (20161225.0304)
 -->
<!-- Title: org.cobbzilla.util.handlebars.HandlebarsUtil.registerDateHelpers Pages: 1 -->
<!--zoomable 161 -->
<svg id="main" version="1.1" xmlns="http://www.w3.org/2000/svg" xmlns:xlink="http://www.w3.org/1999/xlink" xml:space="preserve" onload="init(evt)">
<style type="text/css"><![CDATA[
.edge:hover path { stroke: red; }
.edge:hover polygon { stroke: red; fill: red; }
]]></style>
<script type="text/javascript"><![CDATA[
var edges = document.getElementsByTagName('g');
if (edges && edges.length) {
  for (var i=0;i<edges.length;i++) {
    if (edges[i].id.substr(0,4)=='edge') {
      edges[i].setAttribute('class','edge');
    }
  }
}
]]></script>
        <defs>
                <circle id="rim" cx="0" cy="0" r="7"/>
                <circle id="rim2" cx="0" cy="0" r="3.5"/>
                <g id="zoomPlus">
                        <use xlink:href="#rim" fill="#404040">
                                <set attributeName="fill" to="#808080" begin="zoomplus.mouseover" end="zoomplus.mouseout"/>
                        </use>
                        <path d="M-4,0h8M0,-4v8" fill="none" stroke="white" stroke-width="1.5" pointer-events="none"/>
                </g>
                <g id="zoomMin">
                        <use xlink:href="#rim" fill="#404040">
                                <set attributeName="fill" to="#808080" begin="zoomminus.mouseover" end="zoomminus.mouseout"/>
                        </use>
                        <path d="M-4,0h8" fill="none" stroke="white" stroke-width="1.5" pointer-events="none"/>
                </g>
                <g id="dirArrow">
                        <path fill="none" stroke="white" stroke-width="1.5" d="M0,-3.0v7 M-2.5,-0.5L0,-3.0L2.5,-0.5"/>
                </g>
               <g id="resetDef">
                       <use xlink:href="#rim2" fill="#404040">
                               <set attributeName="fill" to="#808080" begin="reset.mouseover" end="reset.mouseout"/>
                       </use>
               </g>
        </defs>

<script type="text/javascript">
var viewWidth = 618;
var viewHeight = 161;
var sectionId = 'dynsection-0';
</script>
<script xlink:href="../../svgpan.js"/>
<svg id="graph" class="graph">
<g id="viewport">
<title>org.cobbzilla.util.handlebars.HandlebarsUtil.registerDateHelpers</title>
<!-- Node0 -->
<g id="node1" class="node">
<title>Node0</title>
<polygon fill="#bfbfbf" stroke="#000000" points="0,-56.5 0,-86.5 171,-86.5 171,-56.5 0,-56.5"/>
<text text-anchor="start" x="8" y="-74.5" font-family="Helvetica,sans-Serif" font-size="10.00" fill="#000000">org.cobbzilla.util.handlebars.</text>
<text text-anchor="middle" x="85.5" y="-63.5" font-family="Helvetica,sans-Serif" font-size="10.00" fill="#000000">HandlebarsUtil.registerDateHelpers</text>
</g>
<!-- Node1 -->
<g id="node2" class="node">
<title>Node1</title>
<g id="a_node2"><a xlink:href="../../d0/d1b/classorg_1_1cobbzilla_1_1util_1_1handlebars_1_1HandlebarsUtil_a3798bc5bdea2ec45b6d6fe4e84e2caab.html#a3798bc5bdea2ec45b6d6fe4e84e2caab" target="_top" xlink:title="org.cobbzilla.util.handlebars.\lHandlebarsUtil.apply">
<polygon fill="none" stroke="#000000" points="214.5,-122.5 214.5,-152.5 354.5,-152.5 354.5,-122.5 214.5,-122.5"/>
<text text-anchor="start" x="222.5" y="-140.5" font-family="Helvetica,sans-Serif" font-size="10.00" fill="#000000">org.cobbzilla.util.handlebars.</text>
<text text-anchor="middle" x="284.5" y="-129.5" font-family="Helvetica,sans-Serif" font-size="10.00" fill="#000000">HandlebarsUtil.apply</text>
</a>
</g>
</g>
<!-- Node0&#45;&gt;Node1 -->
<g id="edge1" class="edge">
<title>Node0&#45;&gt;Node1</title>
<path fill="none" stroke="#191970" d="M131.1546,-86.6417C160.3538,-96.3259 198.4061,-108.9463 229.2994,-119.1923"/>
<polygon fill="#191970" stroke="#191970" points="228.4644,-122.6028 239.0578,-122.4287 230.668,-115.9586 228.4644,-122.6028"/>
</g>
<!-- Node2 -->
<g id="node3" class="node">
<title>Node2</title>
<g id="a_node3"><a xlink:href="../../db/d54/classorg_1_1cobbzilla_1_1util_1_1handlebars_1_1HandlebarsUtil_1_1DateHelper_a314a2572f353991e2efe6a1da672630a.html#a314a2572f353991e2efe6a1da672630a" target="_top" xlink:title="org.cobbzilla.util.handlebars.\lHandlebarsUtil.DateHelper.getTimeZone">
<polygon fill="none" stroke="#000000" points="407,-72.5 407,-102.5 601,-102.5 601,-72.5 407,-72.5"/>
<text text-anchor="start" x="415" y="-90.5" font-family="Helvetica,sans-Serif" font-size="10.00" fill="#000000">org.cobbzilla.util.handlebars.</text>
<text text-anchor="middle" x="504" y="-79.5" font-family="Helvetica,sans-Serif" font-size="10.00" fill="#000000">HandlebarsUtil.DateHelper.getTimeZone</text>
</a>
</g>
</g>
<!-- Node0&#45;&gt;Node2 -->
<g id="edge2" class="edge">
<title>Node0&#45;&gt;Node2</title>
<path fill="none" stroke="#191970" d="M171.1996,-74.7764C236.3866,-77.2687 326.4968,-80.7137 396.5137,-83.3906"/>
<polygon fill="#191970" stroke="#191970" points="396.5664,-86.8951 406.6929,-83.7798 396.8339,-79.9002 396.5664,-86.8951"/>
</g>
<!-- Node3 -->
<g id="node4" class="node">
<title>Node3</title>
<g id="a_node4"><a xlink:href="../../db/d54/classorg_1_1cobbzilla_1_1util_1_1handlebars_1_1HandlebarsUtil_1_1DateHelper_af88617030039c50f7c5806cdb84e604f.html#af88617030039c50f7c5806cdb84e604f" target="_top" xlink:title="org.cobbzilla.util.handlebars.\lHandlebarsUtil.DateHelper.print">
<polygon fill="none" stroke="#000000" points="207,-34.5 207,-64.5 362,-64.5 362,-34.5 207,-34.5"/>
<text text-anchor="start" x="215" y="-52.5" font-family="Helvetica,sans-Serif" font-size="10.00" fill="#000000">org.cobbzilla.util.handlebars.</text>
<text text-anchor="middle" x="284.5" y="-41.5" font-family="Helvetica,sans-Serif" font-size="10.00" fill="#000000">HandlebarsUtil.DateHelper.print</text>
</a>
</g>
</g>
<!-- Node0&#45;&gt;Node3 -->
<g id="edge4" class="edge">
<title>Node0&#45;&gt;Node3</title>
<path fill="none" stroke="#191970" d="M171.0488,-62.0423C179.6047,-61.0965 188.3009,-60.1351 196.8777,-59.1869"/>
<polygon fill="#191970" stroke="#191970" points="197.3209,-62.6593 206.8758,-58.0816 196.5517,-55.7017 197.3209,-62.6593"/>
</g>
<!-- Node4 -->
<g id="node5" class="node">
<title>Node4</title>
<g id="a_node5"><a xlink:href="../../db/d54/classorg_1_1cobbzilla_1_1util_1_1handlebars_1_1HandlebarsUtil_1_1DateHelper_a8f6a8a28b317df47d41baa615088608f.html#a8f6a8a28b317df47d41baa615088608f" target="_top" xlink:title="org.cobbzilla.util.handlebars.\lHandlebarsUtil.DateHelper.zonedTimestamp">
<polygon fill="none" stroke="#000000" points="398,-.5 398,-30.5 610,-30.5 610,-.5 398,-.5"/>
<text text-anchor="start" x="406" y="-18.5" font-family="Helvetica,sans-Serif" font-size="10.00" fill="#000000">org.cobbzilla.util.handlebars.</text>
<text text-anchor="middle" x="504" y="-7.5" font-family="Helvetica,sans-Serif" font-size="10.00" fill="#000000">HandlebarsUtil.DateHelper.zonedTimestamp</text>
</a>
</g>
</g>
<!-- Node0&#45;&gt;Node4 -->
<g id="edge8" class="edge">
<title>Node0&#45;&gt;Node4</title>
<path fill="none" stroke="#191970" d="M116.0897,-56.3233C140.147,-45.2199 174.8571,-31.0056 207,-24.5 265.784,-12.6024 332.4322,-9.6551 387.6768,-9.9826"/>
<polygon fill="#191970" stroke="#191970" points="387.8218,-13.484 397.855,-10.0804 387.8892,-6.4844 387.8218,-13.484"/>
</g>
<!-- Node2&#45;&gt;Node2 -->
<g id="edge3" class="edge">
<title>Node2&#45;&gt;Node2</title>
<path fill="none" stroke="#191970" d="M466.009,-102.659C456.8481,-112.0566 469.5117,-121 504,-121 525.0163,-121 537.9283,-117.679 542.736,-112.9579"/>
<polygon fill="#191970" stroke="#191970" points="546.2034,-112.3804 541.991,-102.659 539.2217,-112.8855 546.2034,-112.3804"/>
</g>
<!-- Node3&#45;&gt;Node2 -->
<g id="edge7" class="edge">
<title>Node3&#45;&gt;Node2</title>
<path fill="none" stroke="#191970" d="M362.1964,-62.9509C376.6256,-65.4489 391.8651,-68.0871 406.7911,-70.6711"/>
<polygon fill="#191970" stroke="#191970" points="406.6101,-74.1918 417.0606,-72.449 407.8043,-67.2944 406.6101,-74.1918"/>
</g>
<!-- Node3&#45;&gt;Node4 -->
<g id="edge5" class="edge">
<title>Node3&#45;&gt;Node4</title>
<path fill="none" stroke="#191970" d="M362.1964,-37.465C373.3565,-35.7364 385.0013,-33.9326 396.6109,-32.1343"/>
<polygon fill="#191970" stroke="#191970" points="397.4448,-35.547 406.7911,-30.5574 396.3732,-28.6295 397.4448,-35.547"/>
</g>
<!-- Node4&#45;&gt;Node4 -->
<g id="edge6" class="edge">
<title>Node4&#45;&gt;Node4</title>
<path fill="none" stroke="#191970" d="M466.009,-30.659C456.8481,-40.0566 469.5117,-49 504,-49 525.0163,-49 537.9283,-45.679 542.736,-40.9579"/>
<polygon fill="#191970" stroke="#191970" points="546.2034,-40.3804 541.991,-30.659 539.2217,-40.8855 546.2034,-40.3804"/>
</g>
</g>
</svg>
        <g id="navigator" transform="translate(0 0)" fill="#404254">
                <rect fill="#f2f5e9" fill-opacity="0.5" stroke="#606060" stroke-width=".5" x="0" y="0" width="60" height="60"/>
                <use id="zoomplus" xlink:href="#zoomPlus" x="17" y="9" onmousedown="handleZoom(evt,'in')"/>
                <use id="zoomminus" xlink:href="#zoomMin" x="42" y="9" onmousedown="handleZoom(evt,'out')"/>
                <use id="reset" xlink:href="#resetDef" x="30" y="36" onmousedown="handleReset()"/>
                <g id="arrowUp" xlink:href="#dirArrow" transform="translate(30 24)" onmousedown="handlePan(0,-1)">
                  <use xlink:href="#rim" fill="#404040">
                        <set attributeName="fill" to="#808080" begin="arrowUp.mouseover" end="arrowUp.mouseout"/>
                  </use>
                  <path fill="none" stroke="white" stroke-width="1.5" d="M0,-3.0v7 M-2.5,-0.5L0,-3.0L2.5,-0.5"/>
                </g>
                <g id="arrowRight" xlink:href="#dirArrow" transform="rotate(90) translate(36 -43)" onmousedown="handlePan(1,0)">
                  <use xlink:href="#rim" fill="#404040">
                        <set attributeName="fill" to="#808080" begin="arrowRight.mouseover" end="arrowRight.mouseout"/>
                  </use>
                  <path fill="none" stroke="white" stroke-width="1.5" d="M0,-3.0v7 M-2.5,-0.5L0,-3.0L2.5,-0.5"/>
                </g>
                <g id="arrowDown" xlink:href="#dirArrow" transform="rotate(180) translate(-30 -48)" onmousedown="handlePan(0,1)">
                  <use xlink:href="#rim" fill="#404040">
                        <set attributeName="fill" to="#808080" begin="arrowDown.mouseover" end="arrowDown.mouseout"/>
                  </use>
                  <path fill="none" stroke="white" stroke-width="1.5" d="M0,-3.0v7 M-2.5,-0.5L0,-3.0L2.5,-0.5"/>
                </g>
                <g id="arrowLeft" xlink:href="#dirArrow" transform="rotate(270) translate(-36 17)" onmousedown="handlePan(-1,0)">
                  <use xlink:href="#rim" fill="#404040">
                        <set attributeName="fill" to="#808080" begin="arrowLeft.mouseover" end="arrowLeft.mouseout"/>
                  </use>
                  <path fill="none" stroke="white" stroke-width="1.5" d="M0,-3.0v7 M-2.5,-0.5L0,-3.0L2.5,-0.5"/>
                </g>
        </g>
        <svg viewBox="0 0 15 15" width="100%" height="30px" preserveAspectRatio="xMaxYMin meet">
         <g id="arrow_out" transform="scale(0.3 0.3)">
          <a xlink:href="classorg_1_1cobbzilla_1_1util_1_1handlebars_1_1HandlebarsUtil_a4eadff15b21a8fd540a8b14e9c45e200_a4eadff15b21a8fd540a8b14e9c45e200_cgraph_org.svg" target="_base">
           <rect id="button" ry="5" rx="5" y="6" x="6" height="38" width="38"
                fill="#f2f5e9" fill-opacity="0.5" stroke="#606060" stroke-width="1.0"/>
           <path id="arrow"
             d="M 11.500037,31.436501 C 11.940474,20.09759 22.043105,11.32322 32.158766,21.979434 L 37.068811,17.246167 C 37.068811,17.246167 37.088388,32 37.088388,32 L 22.160133,31.978069 C 22.160133,31.978069 26.997745,27.140456 26.997745,27.140456 C 18.528582,18.264221 13.291696,25.230495 11.500037,31.436501 z"
             style="fill:#404040;"/>
          </a>
         </g>
        </svg>
</svg>
