<?xml version="1.0" encoding="UTF-8" standalone="no"?>
<!DOCTYPE svg PUBLIC "-//W3C//DTD SVG 1.1//EN"
 "http://www.w3.org/Graphics/SVG/1.1/DTD/svg11.dtd">
<!-- Generated by graphviz version 2.40.1 (20161225.0304)
 -->
<!-- Title: org.cobbzilla.util.handlebars.HandlebarsUtil.longVal Pages: 1 -->
<svg width="396pt" height="88pt"
 viewBox="0.00 0.00 396.00 88.00" xmlns="http://www.w3.org/2000/svg" xmlns:xlink="http://www.w3.org/1999/xlink">
<g id="graph0" class="graph" transform="scale(1 1) rotate(0) translate(4 84)">
<title>org.cobbzilla.util.handlebars.HandlebarsUtil.longVal</title>
<!-- Node1 -->
<g id="node1" class="node">
<title>Node1</title>
<polygon fill="#bfbfbf" stroke="#000000" points="0,-24.5 0,-54.5 140,-54.5 140,-24.5 0,-24.5"/>
<text text-anchor="start" x="8" y="-42.5" font-family="Helvetica,sans-Serif" font-size="10.00" fill="#000000">org.cobbzilla.util.handlebars.</text>
<text text-anchor="middle" x="70" y="-31.5" font-family="Helvetica,sans-Serif" font-size="10.00" fill="#000000">HandlebarsUtil.longVal</text>
</g>
<!-- Node2 -->
<g id="node2" class="node">
<title>Node2</title>
<g id="a_node2"><a xlink:href="../../d0/d1b/classorg_1_1cobbzilla_1_1util_1_1handlebars_1_1HandlebarsUtil_a34d4d4ef16b591d7cb5267046c55cec7.html#a34d4d4ef16b591d7cb5267046c55cec7" target="_top" xlink:title="org.cobbzilla.util.handlebars.\lHandlebarsUtil.longVal">
<polygon fill="none" stroke="#000000" points="212,-49.5 212,-79.5 352,-79.5 352,-49.5 212,-49.5"/>
<text text-anchor="start" x="220" y="-67.5" font-family="Helvetica,sans-Serif" font-size="10.00" fill="#000000">org.cobbzilla.util.handlebars.</text>
<text text-anchor="middle" x="282" y="-56.5" font-family="Helvetica,sans-Serif" font-size="10.00" fill="#000000">HandlebarsUtil.longVal</text>
</a>
</g>
</g>
<!-- Node1&#45;&gt;Node2 -->
<g id="edge1" class="edge">
<title>Node1&#45;&gt;Node2</title>
<path fill="none" stroke="#191970" d="M150.1383,-48.9503C170.3897,-51.3384 191.9824,-53.8847 211.7073,-56.2108"/>
<polygon fill="#191970" stroke="#191970" points="150.3454,-45.4505 140.0043,-47.7552 149.5255,-52.4024 150.3454,-45.4505"/>
</g>
<!-- Node3 -->
<g id="node3" class="node">
<title>Node3</title>
<g id="a_node3"><a xlink:href="../../db/d54/classorg_1_1cobbzilla_1_1util_1_1handlebars_1_1HandlebarsUtil_1_1DateHelper_a8edbb76ae9f62bf7ab56e1107eeea00d.html#a8edbb76ae9f62bf7ab56e1107eeea00d" target="_top" xlink:title="org.cobbzilla.util.handlebars.\lHandlebarsUtil.DateHelper.zonedTimestamp">
<polygon fill="none" stroke="#000000" points="176,-.5 176,-30.5 388,-30.5 388,-.5 176,-.5"/>
<text text-anchor="start" x="184" y="-18.5" font-family="Helvetica,sans-Serif" font-size="10.00" fill="#000000">org.cobbzilla.util.handlebars.</text>
<text text-anchor="middle" x="282" y="-7.5" font-family="Helvetica,sans-Serif" font-size="10.00" fill="#000000">HandlebarsUtil.DateHelper.zonedTimestamp</text>
</a>
</g>
</g>
<!-- Node1&#45;&gt;Node3 -->
<g id="edge2" class="edge">
<title>Node1&#45;&gt;Node3</title>
<path fill="none" stroke="#191970" d="M150.0846,-30.4338C158.4545,-29.4863 167.0541,-28.5127 175.6567,-27.5389"/>
<polygon fill="#191970" stroke="#191970" points="149.5471,-26.9722 140.0043,-31.575 150.3345,-33.9278 149.5471,-26.9722"/>
</g>
</g>
</svg>
