<?xml version="1.0" encoding="UTF-8" standalone="no"?>
<!DOCTYPE svg PUBLIC "-//W3C//DTD SVG 1.1//EN"
 "http://www.w3.org/Graphics/SVG/1.1/DTD/svg11.dtd">
<!-- Generated by graphviz version 2.40.1 (20161225.0304)
 -->
<!-- Title: org.cobbzilla.util.handlebars.HandlebarsUtil.applyReflectively Pages: 1 -->
<svg width="379pt" height="186pt"
 viewBox="0.00 0.00 379.00 186.00" xmlns="http://www.w3.org/2000/svg" xmlns:xlink="http://www.w3.org/1999/xlink">
<g id="graph0" class="graph" transform="scale(1 1) rotate(0) translate(4 182)">
<title>org.cobbzilla.util.handlebars.HandlebarsUtil.applyReflectively</title>
<!-- Node0 -->
<g id="node1" class="node">
<title>Node0</title>
<polygon fill="#bfbfbf" stroke="#000000" points="0,-73.5 0,-103.5 159,-103.5 159,-73.5 0,-73.5"/>
<text text-anchor="start" x="8" y="-91.5" font-family="Helvetica,sans-Serif" font-size="10.00" fill="#000000">org.cobbzilla.util.handlebars.</text>
<text text-anchor="middle" x="79.5" y="-80.5" font-family="Helvetica,sans-Serif" font-size="10.00" fill="#000000">HandlebarsUtil.applyReflectively</text>
</g>
<!-- Node1 -->
<g id="node2" class="node">
<title>Node1</title>
<g id="a_node2"><a xlink:href="../../d0/d1b/classorg_1_1cobbzilla_1_1util_1_1handlebars_1_1HandlebarsUtil_a3798bc5bdea2ec45b6d6fe4e84e2caab.html#a3798bc5bdea2ec45b6d6fe4e84e2caab" target="_top" xlink:title="org.cobbzilla.util.handlebars.\lHandlebarsUtil.apply">
<polygon fill="none" stroke="#000000" points="213,-147.5 213,-177.5 353,-177.5 353,-147.5 213,-147.5"/>
<text text-anchor="start" x="221" y="-165.5" font-family="Helvetica,sans-Serif" font-size="10.00" fill="#000000">org.cobbzilla.util.handlebars.</text>
<text text-anchor="middle" x="283" y="-154.5" font-family="Helvetica,sans-Serif" font-size="10.00" fill="#000000">HandlebarsUtil.apply</text>
</a>
</g>
</g>
<!-- Node0&#45;&gt;Node1 -->
<g id="edge1" class="edge">
<title>Node0&#45;&gt;Node1</title>
<path fill="none" stroke="#191970" d="M110.8824,-103.5302C133.8426,-114.169 165.928,-128.3012 195,-138.5 200.8838,-140.5641 207.0394,-142.561 213.2441,-144.4626"/>
<polygon fill="#191970" stroke="#191970" points="212.4197,-147.8689 223.0027,-147.3682 214.4174,-141.16 212.4197,-147.8689"/>
</g>
<!-- Node2 -->
<g id="node3" class="node">
<title>Node2</title>
<g id="a_node3"><a xlink:href="../../d0/d1b/classorg_1_1cobbzilla_1_1util_1_1handlebars_1_1HandlebarsUtil_a41e0478c31a1168fb6a8ba75ad22efd0.html#a41e0478c31a1168fb6a8ba75ad22efd0" target="_top" xlink:title="Using reflection, we find all public getters of a thing (and if the getter returns an object...">
<polygon fill="none" stroke="#000000" points="203.5,-98.5 203.5,-128.5 362.5,-128.5 362.5,-98.5 203.5,-98.5"/>
<text text-anchor="start" x="211.5" y="-116.5" font-family="Helvetica,sans-Serif" font-size="10.00" fill="#000000">org.cobbzilla.util.handlebars.</text>
<text text-anchor="middle" x="283" y="-105.5" font-family="Helvetica,sans-Serif" font-size="10.00" fill="#000000">HandlebarsUtil.applyReflectively</text>
</a>
</g>
</g>
<!-- Node0&#45;&gt;Node2 -->
<g id="edge2" class="edge">
<title>Node0&#45;&gt;Node2</title>
<path fill="none" stroke="#191970" d="M159.0527,-98.2731C170.2613,-99.65 181.8477,-101.0734 193.2312,-102.4719"/>
<polygon fill="#191970" stroke="#191970" points="192.8158,-105.9471 203.168,-103.6926 193.6694,-98.9993 192.8158,-105.9471"/>
</g>
<!-- Node3 -->
<g id="node4" class="node">
<title>Node3</title>
<g id="a_node4"><a xlink:href="../../d0/d1b/classorg_1_1cobbzilla_1_1util_1_1handlebars_1_1HandlebarsUtil_a0d908831ccb66b40f33553cc94c59aed.html#a0d908831ccb66b40f33553cc94c59aed" target="_top" xlink:title="org.cobbzilla.util.handlebars.\lHandlebarsUtil.canApplyReflectively">
<polygon fill="none" stroke="#000000" points="195,-49.5 195,-79.5 371,-79.5 371,-49.5 195,-49.5"/>
<text text-anchor="start" x="203" y="-67.5" font-family="Helvetica,sans-Serif" font-size="10.00" fill="#000000">org.cobbzilla.util.handlebars.</text>
<text text-anchor="middle" x="283" y="-56.5" font-family="Helvetica,sans-Serif" font-size="10.00" fill="#000000">HandlebarsUtil.canApplyReflectively</text>
</a>
</g>
</g>
<!-- Node0&#45;&gt;Node3 -->
<g id="edge3" class="edge">
<title>Node0&#45;&gt;Node3</title>
<path fill="none" stroke="#191970" d="M159.0527,-79.1179C167.4657,-78.1257 176.0915,-77.1084 184.6846,-76.0949"/>
<polygon fill="#191970" stroke="#191970" points="185.2212,-79.556 194.7424,-74.9088 184.4013,-72.6042 185.2212,-79.556"/>
</g>
<!-- Node4 -->
<g id="node5" class="node">
<title>Node4</title>
<g id="a_node5"><a xlink:href="../../de/d45/classorg_1_1cobbzilla_1_1util_1_1reflect_1_1ReflectionUtil_a7009ec7b051c37c7269c707996664b21.html#a7009ec7b051c37c7269c707996664b21" target="_top" xlink:title="org.cobbzilla.util.reflect.\lReflectionUtil.setterForGetter">
<polygon fill="none" stroke="#000000" points="210.5,-.5 210.5,-30.5 355.5,-30.5 355.5,-.5 210.5,-.5"/>
<text text-anchor="start" x="218.5" y="-18.5" font-family="Helvetica,sans-Serif" font-size="10.00" fill="#000000">org.cobbzilla.util.reflect.</text>
<text text-anchor="middle" x="283" y="-7.5" font-family="Helvetica,sans-Serif" font-size="10.00" fill="#000000">ReflectionUtil.setterForGetter</text>
</a>
</g>
</g>
<!-- Node0&#45;&gt;Node4 -->
<g id="edge4" class="edge">
<title>Node0&#45;&gt;Node4</title>
<path fill="none" stroke="#191970" d="M112.9588,-73.3733C135.8047,-63.3485 166.9078,-50.29 195,-40.5 201.9083,-38.0925 209.1796,-35.742 216.4596,-33.5059"/>
<polygon fill="#191970" stroke="#191970" points="217.7883,-36.7614 226.359,-30.533 215.7749,-30.0571 217.7883,-36.7614"/>
</g>
</g>
</svg>
