<?xml version="1.0" encoding="UTF-8" standalone="no"?>
<!DOCTYPE svg PUBLIC "-//W3C//DTD SVG 1.1//EN"
 "http://www.w3.org/Graphics/SVG/1.1/DTD/svg11.dtd">
<!-- Generated by graphviz version 2.40.1 (20161225.0304)
 -->
<!-- Title: org.cobbzilla.util.handlebars.HandlebarsUtil.apply Pages: 1 -->
<svg width="536pt" height="333pt"
 viewBox="0.00 0.00 536.00 333.00" xmlns="http://www.w3.org/2000/svg" xmlns:xlink="http://www.w3.org/1999/xlink">
<g id="graph0" class="graph" transform="scale(1 1) rotate(0) translate(4 329)">
<title>org.cobbzilla.util.handlebars.HandlebarsUtil.apply</title>
<!-- Node1 -->
<g id="node1" class="node">
<title>Node1</title>
<polygon fill="#bfbfbf" stroke="#000000" points="0,-147.5 0,-177.5 140,-177.5 140,-147.5 0,-147.5"/>
<text text-anchor="start" x="8" y="-165.5" font-family="Helvetica,sans-Serif" font-size="10.00" fill="#000000">org.cobbzilla.util.handlebars.</text>
<text text-anchor="middle" x="70" y="-154.5" font-family="Helvetica,sans-Serif" font-size="10.00" fill="#000000">HandlebarsUtil.apply</text>
</g>
<!-- Node2 -->
<g id="node2" class="node">
<title>Node2</title>
<g id="a_node2"><a xlink:href="../../d0/d1b/classorg_1_1cobbzilla_1_1util_1_1handlebars_1_1HandlebarsUtil_a405e99f7eda22dfd8e2bf756280a1813.html#a405e99f7eda22dfd8e2bf756280a1813" target="_top" xlink:title="org.cobbzilla.util.handlebars.\lHandlebarsUtil.apply">
<polygon fill="none" stroke="#000000" points="194,-294.5 194,-324.5 334,-324.5 334,-294.5 194,-294.5"/>
<text text-anchor="start" x="202" y="-312.5" font-family="Helvetica,sans-Serif" font-size="10.00" fill="#000000">org.cobbzilla.util.handlebars.</text>
<text text-anchor="middle" x="264" y="-301.5" font-family="Helvetica,sans-Serif" font-size="10.00" fill="#000000">HandlebarsUtil.apply</text>
</a>
</g>
</g>
<!-- Node1&#45;&gt;Node2 -->
<g id="edge1" class="edge">
<title>Node1&#45;&gt;Node2</title>
<path fill="none" stroke="#191970" d="M84.1903,-186.2552C102.1025,-214.1834 135.5173,-259.9569 176,-285.5 181.491,-288.9646 187.4804,-291.9351 193.6676,-294.4808"/>
<polygon fill="#191970" stroke="#191970" points="86.996,-184.141 78.7223,-177.5231 81.0632,-187.8561 86.996,-184.141"/>
</g>
<!-- Node3 -->
<g id="node3" class="node">
<title>Node3</title>
<g id="a_node3"><a xlink:href="../../d0/d1b/classorg_1_1cobbzilla_1_1util_1_1handlebars_1_1HandlebarsUtil_a2393863473800a4ed3e7541ee95c8869.html#a2393863473800a4ed3e7541ee95c8869" target="_top" xlink:title="org.cobbzilla.util.handlebars.\lHandlebarsUtil.applyReflectively">
<polygon fill="none" stroke="#000000" points="184.5,-245.5 184.5,-275.5 343.5,-275.5 343.5,-245.5 184.5,-245.5"/>
<text text-anchor="start" x="192.5" y="-263.5" font-family="Helvetica,sans-Serif" font-size="10.00" fill="#000000">org.cobbzilla.util.handlebars.</text>
<text text-anchor="middle" x="264" y="-252.5" font-family="Helvetica,sans-Serif" font-size="10.00" fill="#000000">HandlebarsUtil.applyReflectively</text>
</a>
</g>
</g>
<!-- Node1&#45;&gt;Node3 -->
<g id="edge2" class="edge">
<title>Node1&#45;&gt;Node3</title>
<path fill="none" stroke="#191970" d="M95.4994,-184.0856C116.0618,-200.5222 146.3442,-222.6163 176,-236.5 183.1709,-239.8572 190.8977,-242.8185 198.6895,-245.4105"/>
<polygon fill="#191970" stroke="#191970" points="97.5486,-181.241 87.5808,-177.6503 93.1338,-186.6733 97.5486,-181.241"/>
</g>
<!-- Node4 -->
<g id="node4" class="node">
<title>Node4</title>
<g id="a_node4"><a xlink:href="../../d0/d1b/classorg_1_1cobbzilla_1_1util_1_1handlebars_1_1HandlebarsUtil_aa560d5318e8ff90c2367b23fc1a16da9.html#aa560d5318e8ff90c2367b23fc1a16da9" target="_top" xlink:title="org.cobbzilla.util.handlebars.\lHandlebarsUtil.getEmailRecipient">
<polygon fill="none" stroke="#000000" points="182,-196.5 182,-226.5 346,-226.5 346,-196.5 182,-196.5"/>
<text text-anchor="start" x="190" y="-214.5" font-family="Helvetica,sans-Serif" font-size="10.00" fill="#000000">org.cobbzilla.util.handlebars.</text>
<text text-anchor="middle" x="264" y="-203.5" font-family="Helvetica,sans-Serif" font-size="10.00" fill="#000000">HandlebarsUtil.getEmailRecipient</text>
</a>
</g>
</g>
<!-- Node1&#45;&gt;Node4 -->
<g id="edge3" class="edge">
<title>Node1&#45;&gt;Node4</title>
<path fill="none" stroke="#191970" d="M139.4829,-180.0498C160.7865,-185.4306 184.0207,-191.299 204.5878,-196.4938"/>
<polygon fill="#191970" stroke="#191970" points="140.0775,-176.5901 129.5248,-177.5346 138.3632,-183.377 140.0775,-176.5901"/>
</g>
<!-- Node5 -->
<g id="node5" class="node">
<title>Node5</title>
<g id="a_node5"><a xlink:href="../../d5/d0e/classorg_1_1cobbzilla_1_1util_1_1handlebars_1_1WordDocxMerger_abe8ac577d3579b4c26f2cee1183bea7a.html#abe8ac577d3579b4c26f2cee1183bea7a" target="_top" xlink:title="org.cobbzilla.util.handlebars.\lWordDocxMerger.merge">
<polygon fill="none" stroke="#000000" points="194,-147.5 194,-177.5 334,-177.5 334,-147.5 194,-147.5"/>
<text text-anchor="start" x="202" y="-165.5" font-family="Helvetica,sans-Serif" font-size="10.00" fill="#000000">org.cobbzilla.util.handlebars.</text>
<text text-anchor="middle" x="264" y="-154.5" font-family="Helvetica,sans-Serif" font-size="10.00" fill="#000000">WordDocxMerger.merge</text>
</a>
</g>
</g>
<!-- Node1&#45;&gt;Node5 -->
<g id="edge4" class="edge">
<title>Node1&#45;&gt;Node5</title>
<path fill="none" stroke="#191970" d="M150.4033,-162.5C164.7854,-162.5 179.6691,-162.5 193.7387,-162.5"/>
<polygon fill="#191970" stroke="#191970" points="150.0385,-159.0001 140.0385,-162.5 150.0384,-166.0001 150.0385,-159.0001"/>
</g>
<!-- Node6 -->
<g id="node6" class="node">
<title>Node6</title>
<g id="a_node6"><a xlink:href="../../d0/d1b/classorg_1_1cobbzilla_1_1util_1_1handlebars_1_1HandlebarsUtil_a4eadff15b21a8fd540a8b14e9c45e200.html#a4eadff15b21a8fd540a8b14e9c45e200" target="_top" xlink:title="org.cobbzilla.util.handlebars.\lHandlebarsUtil.registerDateHelpers">
<polygon fill="none" stroke="#000000" points="178.5,-98.5 178.5,-128.5 349.5,-128.5 349.5,-98.5 178.5,-98.5"/>
<text text-anchor="start" x="186.5" y="-116.5" font-family="Helvetica,sans-Serif" font-size="10.00" fill="#000000">org.cobbzilla.util.handlebars.</text>
<text text-anchor="middle" x="264" y="-105.5" font-family="Helvetica,sans-Serif" font-size="10.00" fill="#000000">HandlebarsUtil.registerDateHelpers</text>
</a>
</g>
</g>
<!-- Node1&#45;&gt;Node6 -->
<g id="edge5" class="edge">
<title>Node1&#45;&gt;Node6</title>
<path fill="none" stroke="#191970" d="M139.4829,-144.9502C160.7865,-139.5694 184.0207,-133.701 204.5878,-128.5062"/>
<polygon fill="#191970" stroke="#191970" points="138.3632,-141.623 129.5248,-147.4654 140.0775,-148.4099 138.3632,-141.623"/>
</g>
<!-- Node7 -->
<g id="node7" class="node">
<title>Node7</title>
<g id="a_node7"><a xlink:href="../../d0/d1b/classorg_1_1cobbzilla_1_1util_1_1handlebars_1_1HandlebarsUtil_af8f3012d152b38e5472c15975a8921e2.html#af8f3012d152b38e5472c15975a8921e2" target="_top" xlink:title="org.cobbzilla.util.handlebars.\lHandlebarsUtil.registerUtilityHelpers">
<polygon fill="none" stroke="#000000" points="176,-49.5 176,-79.5 352,-79.5 352,-49.5 176,-49.5"/>
<text text-anchor="start" x="184" y="-67.5" font-family="Helvetica,sans-Serif" font-size="10.00" fill="#000000">org.cobbzilla.util.handlebars.</text>
<text text-anchor="middle" x="264" y="-56.5" font-family="Helvetica,sans-Serif" font-size="10.00" fill="#000000">HandlebarsUtil.registerUtilityHelpers</text>
</a>
</g>
</g>
<!-- Node1&#45;&gt;Node7 -->
<g id="edge6" class="edge">
<title>Node1&#45;&gt;Node7</title>
<path fill="none" stroke="#191970" d="M95.9615,-141.0178C116.5642,-124.8914 146.6816,-103.3005 176,-89.5 183.9035,-85.7797 192.4728,-82.5041 201.0571,-79.6537"/>
<polygon fill="#191970" stroke="#191970" points="93.6629,-138.3739 88.0145,-147.3376 98.0198,-143.8527 93.6629,-138.3739"/>
</g>
<!-- Node8 -->
<g id="node8" class="node">
<title>Node8</title>
<g id="a_node8"><a xlink:href="../../d9/d58/classorg_1_1cobbzilla_1_1util_1_1handlebars_1_1PdfMerger_a18931c7af52fae879d678d72875d45e3.html#a18931c7af52fae879d678d72875d45e3" target="_top" xlink:title="org.cobbzilla.util.handlebars.\lPdfMerger.safeApply">
<polygon fill="none" stroke="#000000" points="194,-.5 194,-30.5 334,-30.5 334,-.5 194,-.5"/>
<text text-anchor="start" x="202" y="-18.5" font-family="Helvetica,sans-Serif" font-size="10.00" fill="#000000">org.cobbzilla.util.handlebars.</text>
<text text-anchor="middle" x="264" y="-7.5" font-family="Helvetica,sans-Serif" font-size="10.00" fill="#000000">PdfMerger.safeApply</text>
</a>
</g>
</g>
<!-- Node1&#45;&gt;Node8 -->
<g id="edge7" class="edge">
<title>Node1&#45;&gt;Node8</title>
<path fill="none" stroke="#191970" d="M84.5697,-138.5726C102.64,-110.9056 136.0015,-65.9199 176,-40.5 182.032,-36.6665 188.6625,-33.4083 195.4947,-30.6415"/>
<polygon fill="#191970" stroke="#191970" points="81.469,-136.9254 79.0402,-147.2381 87.3699,-140.6908 81.469,-136.9254"/>
</g>
<!-- Node9 -->
<g id="node9" class="node">
<title>Node9</title>
<g id="a_node9"><a xlink:href="../../d9/d58/classorg_1_1cobbzilla_1_1util_1_1handlebars_1_1PdfMerger_a8c662f16a750b51b2e9a6275e9f98b6f.html#a8c662f16a750b51b2e9a6275e9f98b6f" target="_top" xlink:title="org.cobbzilla.util.handlebars.\lPdfMerger.merge">
<polygon fill="none" stroke="#000000" points="388,-.5 388,-30.5 528,-30.5 528,-.5 388,-.5"/>
<text text-anchor="start" x="396" y="-18.5" font-family="Helvetica,sans-Serif" font-size="10.00" fill="#000000">org.cobbzilla.util.handlebars.</text>
<text text-anchor="middle" x="458" y="-7.5" font-family="Helvetica,sans-Serif" font-size="10.00" fill="#000000">PdfMerger.merge</text>
</a>
</g>
</g>
<!-- Node8&#45;&gt;Node9 -->
<g id="edge8" class="edge">
<title>Node8&#45;&gt;Node9</title>
<path fill="none" stroke="#191970" d="M344.4033,-15.5C358.7854,-15.5 373.6691,-15.5 387.7387,-15.5"/>
<polygon fill="#191970" stroke="#191970" points="344.0385,-12.0001 334.0385,-15.5 344.0384,-19.0001 344.0385,-12.0001"/>
</g>
</g>
</svg>
