<?xml version="1.0" encoding="UTF-8" standalone="no"?>
<!DOCTYPE svg PUBLIC "-//W3C//DTD SVG 1.1//EN"
 "http://www.w3.org/Graphics/SVG/1.1/DTD/svg11.dtd">
<!-- Generated by graphviz version 2.40.1 (20161225.0304)
 -->
<!-- Title: org.cobbzilla.util.handlebars.HandlebarsUtil.setFileIncludePath Pages: 1 -->
<svg width="379pt" height="57pt"
 viewBox="0.00 0.00 379.00 57.00" xmlns="http://www.w3.org/2000/svg" xmlns:xlink="http://www.w3.org/1999/xlink">
<g id="graph0" class="graph" transform="scale(1 1) rotate(0) translate(4 53)">
<title>org.cobbzilla.util.handlebars.HandlebarsUtil.setFileIncludePath</title>
<!-- Node0 -->
<g id="node1" class="node">
<title>Node0</title>
<polygon fill="#bfbfbf" stroke="#000000" points="0,-.5 0,-30.5 165,-30.5 165,-.5 0,-.5"/>
<text text-anchor="start" x="8" y="-18.5" font-family="Helvetica,sans-Serif" font-size="10.00" fill="#000000">org.cobbzilla.util.handlebars.</text>
<text text-anchor="middle" x="82.5" y="-7.5" font-family="Helvetica,sans-Serif" font-size="10.00" fill="#000000">HandlebarsUtil.setFileIncludePath</text>
</g>
<!-- Node1 -->
<g id="node2" class="node">
<title>Node1</title>
<g id="a_node2"><a xlink:href="../../d0/d1b/classorg_1_1cobbzilla_1_1util_1_1handlebars_1_1HandlebarsUtil_a1042e293692f24c284227fb54a239f79.html#a1042e293692f24c284227fb54a239f79" target="_top" xlink:title="org.cobbzilla.util.handlebars.\lHandlebarsUtil.setFileIncludePaths">
<polygon fill="none" stroke="#000000" points="201,-.5 201,-30.5 371,-30.5 371,-.5 201,-.5"/>
<text text-anchor="start" x="209" y="-18.5" font-family="Helvetica,sans-Serif" font-size="10.00" fill="#000000">org.cobbzilla.util.handlebars.</text>
<text text-anchor="middle" x="286" y="-7.5" font-family="Helvetica,sans-Serif" font-size="10.00" fill="#000000">HandlebarsUtil.setFileIncludePaths</text>
</a>
</g>
</g>
<!-- Node0&#45;&gt;Node1 -->
<g id="edge1" class="edge">
<title>Node0&#45;&gt;Node1</title>
<path fill="none" stroke="#191970" d="M165.2712,-15.5C173.7339,-15.5 182.3782,-15.5 190.9586,-15.5"/>
<polygon fill="#191970" stroke="#191970" points="190.9873,-19.0001 200.9872,-15.5 190.9872,-12.0001 190.9873,-19.0001"/>
</g>
<!-- Node1&#45;&gt;Node1 -->
<g id="edge2" class="edge">
<title>Node1&#45;&gt;Node1</title>
<path fill="none" stroke="#191970" d="M250.7973,-30.659C242.3087,-40.0566 254.043,-49 286,-49 305.4738,-49 317.4381,-45.679 321.893,-40.9579"/>
<polygon fill="#191970" stroke="#191970" points="325.3637,-40.4025 321.2027,-30.659 318.3794,-40.8707 325.3637,-40.4025"/>
</g>
</g>
</svg>
