<?xml version="1.0" encoding="UTF-8" standalone="no"?>
<!DOCTYPE svg PUBLIC "-//W3C//DTD SVG 1.1//EN"
 "http://www.w3.org/Graphics/SVG/1.1/DTD/svg11.dtd">
<!-- Generated by graphviz version 2.40.1 (20161225.0304)
 -->
<!-- Title: org.cobbzilla.util.string.Base64.InputStream.read Pages: 1 -->
<svg width="606pt" height="88pt"
 viewBox="0.00 0.00 606.00 88.00" xmlns="http://www.w3.org/2000/svg" xmlns:xlink="http://www.w3.org/1999/xlink">
<g id="graph0" class="graph" transform="scale(1 1) rotate(0) translate(4 84)">
<title>org.cobbzilla.util.string.Base64.InputStream.read</title>
<!-- Node0 -->
<g id="node1" class="node">
<title>Node0</title>
<polygon fill="#bfbfbf" stroke="#000000" points="0,-24.5 0,-54.5 128,-54.5 128,-24.5 0,-24.5"/>
<text text-anchor="start" x="8" y="-42.5" font-family="Helvetica,sans-Serif" font-size="10.00" fill="#000000">org.cobbzilla.util.string.</text>
<text text-anchor="middle" x="64" y="-31.5" font-family="Helvetica,sans-Serif" font-size="10.00" fill="#000000">Base64.InputStream.read</text>
</g>
<!-- Node1 -->
<g id="node2" class="node">
<title>Node1</title>
<g id="a_node2"><a xlink:href="../../dd/de6/classorg_1_1cobbzilla_1_1util_1_1string_1_1Base64_1_1InputStream_a676c8fb04978d792fd4a45327be8ba84.html#a676c8fb04978d792fd4a45327be8ba84" target="_top" xlink:title="Reads enough of the input stream to convert to/from Base64 and returns the next byte. ">
<polygon fill="none" stroke="#000000" points="164,-24.5 164,-54.5 292,-54.5 292,-24.5 164,-24.5"/>
<text text-anchor="start" x="172" y="-42.5" font-family="Helvetica,sans-Serif" font-size="10.00" fill="#000000">org.cobbzilla.util.string.</text>
<text text-anchor="middle" x="228" y="-31.5" font-family="Helvetica,sans-Serif" font-size="10.00" fill="#000000">Base64.InputStream.read</text>
</a>
</g>
</g>
<!-- Node0&#45;&gt;Node1 -->
<g id="edge1" class="edge">
<title>Node0&#45;&gt;Node1</title>
<path fill="none" stroke="#191970" d="M128.3464,-39.5C136.6401,-39.5 145.1868,-39.5 153.6248,-39.5"/>
<polygon fill="#191970" stroke="#191970" points="153.8392,-43.0001 163.8391,-39.5 153.8391,-36.0001 153.8392,-43.0001"/>
</g>
<!-- Node2 -->
<g id="node3" class="node">
<title>Node2</title>
<g id="a_node3"><a xlink:href="../../df/da0/classorg_1_1cobbzilla_1_1util_1_1string_1_1Base64_ac381dcac205c5ff0ae28dada8c04505b.html#ac381dcac205c5ff0ae28dada8c04505b" target="_top" xlink:title="Decodes four bytes from array source and writes the resulting bytes (up to three of them) to destinat...">
<polygon fill="none" stroke="#000000" points="328,-49.5 328,-79.5 445,-79.5 445,-49.5 328,-49.5"/>
<text text-anchor="start" x="336" y="-67.5" font-family="Helvetica,sans-Serif" font-size="10.00" fill="#000000">org.cobbzilla.util.string.</text>
<text text-anchor="middle" x="386.5" y="-56.5" font-family="Helvetica,sans-Serif" font-size="10.00" fill="#000000">Base64.decode4to3</text>
</a>
</g>
</g>
<!-- Node1&#45;&gt;Node2 -->
<g id="edge2" class="edge">
<title>Node1&#45;&gt;Node2</title>
<path fill="none" stroke="#191970" d="M292.0111,-49.5964C300.5331,-50.9405 309.2993,-52.3232 317.8953,-53.6791"/>
<polygon fill="#191970" stroke="#191970" points="317.4601,-57.1536 327.8833,-55.2545 318.5508,-50.2391 317.4601,-57.1536"/>
</g>
<!-- Node4 -->
<g id="node5" class="node">
<title>Node4</title>
<g id="a_node5"><a xlink:href="../../df/da0/classorg_1_1cobbzilla_1_1util_1_1string_1_1Base64_a65d2008e80f41c490a035b77f4628348.html#a65d2008e80f41c490a035b77f4628348" target="_top" xlink:title="Encodes up to the first three bytes of array threeBytes and returns a four&#45;byte array in Base64 notat...">
<polygon fill="none" stroke="#000000" points="328,-.5 328,-30.5 445,-30.5 445,-.5 328,-.5"/>
<text text-anchor="start" x="336" y="-18.5" font-family="Helvetica,sans-Serif" font-size="10.00" fill="#000000">org.cobbzilla.util.string.</text>
<text text-anchor="middle" x="386.5" y="-7.5" font-family="Helvetica,sans-Serif" font-size="10.00" fill="#000000">Base64.encode3to4</text>
</a>
</g>
</g>
<!-- Node1&#45;&gt;Node4 -->
<g id="edge4" class="edge">
<title>Node1&#45;&gt;Node4</title>
<path fill="none" stroke="#191970" d="M292.0111,-29.8075C300.5331,-28.5171 309.2993,-27.1897 317.8953,-25.8881"/>
<polygon fill="#191970" stroke="#191970" points="318.52,-29.3335 327.8833,-24.3757 317.472,-22.4124 318.52,-29.3335"/>
</g>
<!-- Node3 -->
<g id="node4" class="node">
<title>Node3</title>
<g id="a_node4"><a xlink:href="../../df/da0/classorg_1_1cobbzilla_1_1util_1_1string_1_1Base64_aac1f79f712d42154ced1cddbc3f037dc.html#aac1f79f712d42154ced1cddbc3f037dc" target="_top" xlink:title="Returns one of the _SOMETHING_DECODABET byte arrays depending on the options specified. ">
<polygon fill="none" stroke="#000000" points="481,-49.5 481,-79.5 598,-79.5 598,-49.5 481,-49.5"/>
<text text-anchor="start" x="489" y="-67.5" font-family="Helvetica,sans-Serif" font-size="10.00" fill="#000000">org.cobbzilla.util.string.</text>
<text text-anchor="middle" x="539.5" y="-56.5" font-family="Helvetica,sans-Serif" font-size="10.00" fill="#000000">Base64.getDecodabet</text>
</a>
</g>
</g>
<!-- Node2&#45;&gt;Node3 -->
<g id="edge3" class="edge">
<title>Node2&#45;&gt;Node3</title>
<path fill="none" stroke="#191970" d="M445.2162,-64.5C453.5439,-64.5 462.1693,-64.5 470.6671,-64.5"/>
<polygon fill="#191970" stroke="#191970" points="470.9409,-68.0001 480.9409,-64.5 470.9409,-61.0001 470.9409,-68.0001"/>
</g>
</g>
</svg>
