<?xml version="1.0" encoding="UTF-8" standalone="no"?>
<!DOCTYPE svg PUBLIC "-//W3C//DTD SVG 1.1//EN"
 "http://www.w3.org/Graphics/SVG/1.1/DTD/svg11.dtd">
<!-- Generated by graphviz version 2.40.1 (20161225.0304)
 -->
<!-- Title: org.cobbzilla.util.bean.BeanMerger.mergeNotNullProperties Pages: 1 -->
<svg width="561pt" height="39pt"
 viewBox="0.00 0.00 561.00 39.00" xmlns="http://www.w3.org/2000/svg" xmlns:xlink="http://www.w3.org/1999/xlink">
<g id="graph0" class="graph" transform="scale(1 1) rotate(0) translate(4 35)">
<title>org.cobbzilla.util.bean.BeanMerger.mergeNotNullProperties</title>
<!-- Node0 -->
<g id="node1" class="node">
<title>Node0</title>
<polygon fill="#bfbfbf" stroke="#000000" points="0,-.5 0,-30.5 176,-30.5 176,-.5 0,-.5"/>
<text text-anchor="start" x="8" y="-18.5" font-family="Helvetica,sans-Serif" font-size="10.00" fill="#000000">org.cobbzilla.util.bean.</text>
<text text-anchor="middle" x="88" y="-7.5" font-family="Helvetica,sans-Serif" font-size="10.00" fill="#000000">BeanMerger.mergeNotNullProperties</text>
</g>
<!-- Node1 -->
<g id="node2" class="node">
<title>Node1</title>
<g id="a_node2"><a xlink:href="../../dd/d78/classorg_1_1cobbzilla_1_1util_1_1bean_1_1BeanMerger_a4f64124d4a08c8196592167a51ff590f.html#a4f64124d4a08c8196592167a51ff590f" target="_top" xlink:title="org.cobbzilla.util.bean.\lBeanMerger.merge">
<polygon fill="none" stroke="#000000" points="212,-.5 212,-30.5 326,-30.5 326,-.5 212,-.5"/>
<text text-anchor="start" x="220" y="-18.5" font-family="Helvetica,sans-Serif" font-size="10.00" fill="#000000">org.cobbzilla.util.bean.</text>
<text text-anchor="middle" x="269" y="-7.5" font-family="Helvetica,sans-Serif" font-size="10.00" fill="#000000">BeanMerger.merge</text>
</a>
</g>
</g>
<!-- Node0&#45;&gt;Node1 -->
<g id="edge1" class="edge">
<title>Node0&#45;&gt;Node1</title>
<path fill="none" stroke="#191970" d="M176.114,-15.5C184.7428,-15.5 193.4004,-15.5 201.773,-15.5"/>
<polygon fill="#191970" stroke="#191970" points="201.8232,-19.0001 211.8232,-15.5 201.8231,-12.0001 201.8232,-19.0001"/>
</g>
<!-- Node2 -->
<g id="node3" class="node">
<title>Node2</title>
<g id="a_node3"><a xlink:href="../../d7/d8b/interfaceorg_1_1cobbzilla_1_1util_1_1bean_1_1BeanMerger_1_1CopyEvaluator_a0c1a5200a277bc0cb5a373437e2510c9.html#a0c1a5200a277bc0cb5a373437e2510c9" target="_top" xlink:title="org.cobbzilla.util.bean.\lBeanMerger.CopyEvaluator.shouldCopy">
<polygon fill="none" stroke="#000000" points="362,-.5 362,-30.5 553,-30.5 553,-.5 362,-.5"/>
<text text-anchor="start" x="370" y="-18.5" font-family="Helvetica,sans-Serif" font-size="10.00" fill="#000000">org.cobbzilla.util.bean.</text>
<text text-anchor="middle" x="457.5" y="-7.5" font-family="Helvetica,sans-Serif" font-size="10.00" fill="#000000">BeanMerger.CopyEvaluator.shouldCopy</text>
</a>
</g>
</g>
<!-- Node1&#45;&gt;Node2 -->
<g id="edge2" class="edge">
<title>Node1&#45;&gt;Node2</title>
<path fill="none" stroke="#191970" d="M326.0678,-15.5C334.3345,-15.5 343.0557,-15.5 351.9124,-15.5"/>
<polygon fill="#191970" stroke="#191970" points="351.9525,-19.0001 361.9525,-15.5 351.9524,-12.0001 351.9525,-19.0001"/>
</g>
</g>
</svg>
