<?xml version="1.0" encoding="UTF-8" standalone="no"?>
<!DOCTYPE svg PUBLIC "-//W3C//DTD SVG 1.1//EN"
 "http://www.w3.org/Graphics/SVG/1.1/DTD/svg11.dtd">
<!-- Generated by graphviz version 2.40.1 (20161225.0304)
 -->
<!-- Title: org.cobbzilla.util.bean.BeanMerger.mergeProperties Pages: 1 -->
<svg width="528pt" height="39pt"
 viewBox="0.00 0.00 528.00 39.00" xmlns="http://www.w3.org/2000/svg" xmlns:xlink="http://www.w3.org/1999/xlink">
<g id="graph0" class="graph" transform="scale(1 1) rotate(0) translate(4 35)">
<title>org.cobbzilla.util.bean.BeanMerger.mergeProperties</title>
<!-- Node0 -->
<g id="node1" class="node">
<title>Node0</title>
<polygon fill="#bfbfbf" stroke="#000000" points="0,-.5 0,-30.5 143,-30.5 143,-.5 0,-.5"/>
<text text-anchor="start" x="8" y="-18.5" font-family="Helvetica,sans-Serif" font-size="10.00" fill="#000000">org.cobbzilla.util.bean.</text>
<text text-anchor="middle" x="71.5" y="-7.5" font-family="Helvetica,sans-Serif" font-size="10.00" fill="#000000">BeanMerger.mergeProperties</text>
</g>
<!-- Node1 -->
<g id="node2" class="node">
<title>Node1</title>
<g id="a_node2"><a xlink:href="../../dd/d78/classorg_1_1cobbzilla_1_1util_1_1bean_1_1BeanMerger_a4f64124d4a08c8196592167a51ff590f.html#a4f64124d4a08c8196592167a51ff590f" target="_top" xlink:title="org.cobbzilla.util.bean.\lBeanMerger.merge">
<polygon fill="none" stroke="#000000" points="179,-.5 179,-30.5 293,-30.5 293,-.5 179,-.5"/>
<text text-anchor="start" x="187" y="-18.5" font-family="Helvetica,sans-Serif" font-size="10.00" fill="#000000">org.cobbzilla.util.bean.</text>
<text text-anchor="middle" x="236" y="-7.5" font-family="Helvetica,sans-Serif" font-size="10.00" fill="#000000">BeanMerger.merge</text>
</a>
</g>
</g>
<!-- Node0&#45;&gt;Node1 -->
<g id="edge1" class="edge">
<title>Node0&#45;&gt;Node1</title>
<path fill="none" stroke="#191970" d="M143.1736,-15.5C151.6679,-15.5 160.3154,-15.5 168.7453,-15.5"/>
<polygon fill="#191970" stroke="#191970" points="168.8951,-19.0001 178.8951,-15.5 168.8951,-12.0001 168.8951,-19.0001"/>
</g>
<!-- Node2 -->
<g id="node3" class="node">
<title>Node2</title>
<g id="a_node3"><a xlink:href="../../d7/d8b/interfaceorg_1_1cobbzilla_1_1util_1_1bean_1_1BeanMerger_1_1CopyEvaluator_a0c1a5200a277bc0cb5a373437e2510c9.html#a0c1a5200a277bc0cb5a373437e2510c9" target="_top" xlink:title="org.cobbzilla.util.bean.\lBeanMerger.CopyEvaluator.shouldCopy">
<polygon fill="none" stroke="#000000" points="329,-.5 329,-30.5 520,-30.5 520,-.5 329,-.5"/>
<text text-anchor="start" x="337" y="-18.5" font-family="Helvetica,sans-Serif" font-size="10.00" fill="#000000">org.cobbzilla.util.bean.</text>
<text text-anchor="middle" x="424.5" y="-7.5" font-family="Helvetica,sans-Serif" font-size="10.00" fill="#000000">BeanMerger.CopyEvaluator.shouldCopy</text>
</a>
</g>
</g>
<!-- Node1&#45;&gt;Node2 -->
<g id="edge2" class="edge">
<title>Node1&#45;&gt;Node2</title>
<path fill="none" stroke="#191970" d="M293.0678,-15.5C301.3345,-15.5 310.0557,-15.5 318.9124,-15.5"/>
<polygon fill="#191970" stroke="#191970" points="318.9525,-19.0001 328.9525,-15.5 318.9524,-12.0001 318.9525,-19.0001"/>
</g>
</g>
</svg>
