<?xml version="1.0" encoding="UTF-8" standalone="no"?>
<!DOCTYPE svg PUBLIC "-//W3C//DTD SVG 1.1//EN"
 "http://www.w3.org/Graphics/SVG/1.1/DTD/svg11.dtd">
<!-- Generated by graphviz version 2.40.1 (20161225.0304)
 -->
<!-- Title: org.cobbzilla.util.javascript.JsEngine.evaluate Pages: 1 -->
<!--zoomable 296 -->
<svg id="main" version="1.1" xmlns="http://www.w3.org/2000/svg" xmlns:xlink="http://www.w3.org/1999/xlink" xml:space="preserve" onload="init(evt)">
<style type="text/css"><![CDATA[
.edge:hover path { stroke: red; }
.edge:hover polygon { stroke: red; fill: red; }
]]></style>
<script type="text/javascript"><![CDATA[
var edges = document.getElementsByTagName('g');
if (edges && edges.length) {
  for (var i=0;i<edges.length;i++) {
    if (edges[i].id.substr(0,4)=='edge') {
      edges[i].setAttribute('class','edge');
    }
  }
}
]]></script>
        <defs>
                <circle id="rim" cx="0" cy="0" r="7"/>
                <circle id="rim2" cx="0" cy="0" r="3.5"/>
                <g id="zoomPlus">
                        <use xlink:href="#rim" fill="#404040">
                                <set attributeName="fill" to="#808080" begin="zoomplus.mouseover" end="zoomplus.mouseout"/>
                        </use>
                        <path d="M-4,0h8M0,-4v8" fill="none" stroke="white" stroke-width="1.5" pointer-events="none"/>
                </g>
                <g id="zoomMin">
                        <use xlink:href="#rim" fill="#404040">
                                <set attributeName="fill" to="#808080" begin="zoomminus.mouseover" end="zoomminus.mouseout"/>
                        </use>
                        <path d="M-4,0h8" fill="none" stroke="white" stroke-width="1.5" pointer-events="none"/>
                </g>
                <g id="dirArrow">
                        <path fill="none" stroke="white" stroke-width="1.5" d="M0,-3.0v7 M-2.5,-0.5L0,-3.0L2.5,-0.5"/>
                </g>
               <g id="resetDef">
                       <use xlink:href="#rim2" fill="#404040">
                               <set attributeName="fill" to="#808080" begin="reset.mouseover" end="reset.mouseout"/>
                       </use>
               </g>
        </defs>

<script type="text/javascript">
var viewWidth = 513;
var viewHeight = 296;
var sectionId = 'dynsection-1';
</script>
<script xlink:href="../../svgpan.js"/>
<svg id="graph" class="graph">
<g id="viewport">
<title>org.cobbzilla.util.javascript.JsEngine.evaluate</title>
<!-- Node3 -->
<g id="node1" class="node">
<title>Node3</title>
<polygon fill="#bfbfbf" stroke="#000000" points="0,-134 0,-164 135,-164 135,-134 0,-134"/>
<text text-anchor="start" x="8" y="-152" font-family="Helvetica,sans-Serif" font-size="10.00" fill="#000000">org.cobbzilla.util.javascript.</text>
<text text-anchor="middle" x="67.5" y="-141" font-family="Helvetica,sans-Serif" font-size="10.00" fill="#000000">JsEngine.evaluate</text>
</g>
<!-- Node4 -->
<g id="node2" class="node">
<title>Node4</title>
<g id="a_node2"><a xlink:href="../../db/d9f/classorg_1_1cobbzilla_1_1util_1_1string_1_1StringUtil_a1cb2e691882559f2b27638d9020ea850.html#a1cb2e691882559f2b27638d9020ea850" target="_top" xlink:title="org.cobbzilla.util.string.\lStringUtil.diff">
<polygon fill="none" stroke="#000000" points="194,-257 194,-287 311,-287 311,-257 194,-257"/>
<text text-anchor="start" x="202" y="-275" font-family="Helvetica,sans-Serif" font-size="10.00" fill="#000000">org.cobbzilla.util.string.</text>
<text text-anchor="middle" x="252.5" y="-264" font-family="Helvetica,sans-Serif" font-size="10.00" fill="#000000">StringUtil.diff</text>
</a>
</g>
</g>
<!-- Node3&#45;&gt;Node4 -->
<g id="edge1" class="edge">
<title>Node3&#45;&gt;Node4</title>
<path fill="none" stroke="#191970" d="M85.6112,-171.7835C104.6228,-194.2467 136.5019,-228.028 171,-248 178.0209,-252.0646 185.7868,-255.4904 193.6536,-258.3644"/>
<polygon fill="#191970" stroke="#191970" points="88.287,-169.5272 79.2081,-164.0662 82.8999,-173.997 88.287,-169.5272"/>
</g>
<!-- Node5 -->
<g id="node3" class="node">
<title>Node5</title>
<g id="a_node3"><a xlink:href="../../db/d96/classorg_1_1cobbzilla_1_1util_1_1javascript_1_1JsEngine_af4dabfbc8e14b208cd2d53b1836d0c3b.html#af4dabfbc8e14b208cd2d53b1836d0c3b" target="_top" xlink:title="org.cobbzilla.util.javascript.\lJsEngine.evaluateBoolean">
<polygon fill="none" stroke="#000000" points="185,-208 185,-238 320,-238 320,-208 185,-208"/>
<text text-anchor="start" x="193" y="-226" font-family="Helvetica,sans-Serif" font-size="10.00" fill="#000000">org.cobbzilla.util.javascript.</text>
<text text-anchor="middle" x="252.5" y="-215" font-family="Helvetica,sans-Serif" font-size="10.00" fill="#000000">JsEngine.evaluateBoolean</text>
</a>
</g>
</g>
<!-- Node3&#45;&gt;Node5 -->
<g id="edge2" class="edge">
<title>Node3&#45;&gt;Node5</title>
<path fill="none" stroke="#191970" d="M104.6137,-168.7558C124.0486,-178.6301 148.4401,-190.2964 171,-199 179.2569,-202.1855 188.1202,-205.1962 196.8523,-207.939"/>
<polygon fill="#191970" stroke="#191970" points="105.995,-165.5305 95.5008,-164.0732 102.7957,-171.7567 105.995,-165.5305"/>
</g>
<!-- Node7 -->
<g id="node5" class="node">
<title>Node7</title>
<g id="a_node5"><a xlink:href="../../db/d96/classorg_1_1cobbzilla_1_1util_1_1javascript_1_1JsEngine_adb475a2674380f13ae1b45615e552e2a.html#adb475a2674380f13ae1b45615e552e2a" target="_top" xlink:title="org.cobbzilla.util.javascript.\lJsEngine.evaluateInt">
<polygon fill="none" stroke="#000000" points="185,-159 185,-189 320,-189 320,-159 185,-159"/>
<text text-anchor="start" x="193" y="-177" font-family="Helvetica,sans-Serif" font-size="10.00" fill="#000000">org.cobbzilla.util.javascript.</text>
<text text-anchor="middle" x="252.5" y="-166" font-family="Helvetica,sans-Serif" font-size="10.00" fill="#000000">JsEngine.evaluateInt</text>
</a>
</g>
</g>
<!-- Node3&#45;&gt;Node7 -->
<g id="edge4" class="edge">
<title>Node3&#45;&gt;Node7</title>
<path fill="none" stroke="#191970" d="M145.0677,-159.4821C158.266,-161.2657 171.8809,-163.1055 184.799,-164.8512"/>
<polygon fill="#191970" stroke="#191970" points="145.4532,-156.0025 135.0745,-158.1317 144.5157,-162.9394 145.4532,-156.0025"/>
</g>
<!-- Node10 -->
<g id="node8" class="node">
<title>Node10</title>
<g id="a_node8"><a xlink:href="../../db/d96/classorg_1_1cobbzilla_1_1util_1_1javascript_1_1JsEngine_ae41fd6a6024cfdfcf3a22360d6b17ba4.html#ae41fd6a6024cfdfcf3a22360d6b17ba4" target="_top" xlink:title="org.cobbzilla.util.javascript.\lJsEngine.evaluateLong">
<polygon fill="none" stroke="#000000" points="185,-110 185,-140 320,-140 320,-110 185,-110"/>
<text text-anchor="start" x="193" y="-128" font-family="Helvetica,sans-Serif" font-size="10.00" fill="#000000">org.cobbzilla.util.javascript.</text>
<text text-anchor="middle" x="252.5" y="-117" font-family="Helvetica,sans-Serif" font-size="10.00" fill="#000000">JsEngine.evaluateLong</text>
</a>
</g>
</g>
<!-- Node3&#45;&gt;Node10 -->
<g id="edge7" class="edge">
<title>Node3&#45;&gt;Node10</title>
<path fill="none" stroke="#191970" d="M145.0677,-138.9372C158.266,-137.225 171.8809,-135.4587 184.799,-133.7828"/>
<polygon fill="#191970" stroke="#191970" points="144.5411,-135.4761 135.0745,-140.2336 145.4417,-142.4179 144.5411,-135.4761"/>
</g>
<!-- Node12 -->
<g id="node10" class="node">
<title>Node12</title>
<g id="a_node10"><a xlink:href="../../db/d96/classorg_1_1cobbzilla_1_1util_1_1javascript_1_1JsEngine_a8f5c2ffdf43fd7a3f6cdadfeba39077b.html#a8f5c2ffdf43fd7a3f6cdadfeba39077b" target="_top" xlink:title="org.cobbzilla.util.javascript.\lJsEngine.evaluateString">
<polygon fill="none" stroke="#000000" points="185,-61 185,-91 320,-91 320,-61 185,-61"/>
<text text-anchor="start" x="193" y="-79" font-family="Helvetica,sans-Serif" font-size="10.00" fill="#000000">org.cobbzilla.util.javascript.</text>
<text text-anchor="middle" x="252.5" y="-68" font-family="Helvetica,sans-Serif" font-size="10.00" fill="#000000">JsEngine.evaluateString</text>
</a>
</g>
</g>
<!-- Node3&#45;&gt;Node12 -->
<g id="edge9" class="edge">
<title>Node3&#45;&gt;Node12</title>
<path fill="none" stroke="#191970" d="M105.4864,-129.2711C124.7936,-119.6945 148.8101,-108.4608 171,-100 179.2693,-96.847 188.1393,-93.8536 196.8742,-91.1182"/>
<polygon fill="#191970" stroke="#191970" points="103.7855,-126.2086 96.4153,-133.8198 106.9233,-132.4659 103.7855,-126.2086"/>
</g>
<!-- Node14 -->
<g id="node12" class="node">
<title>Node14</title>
<g id="a_node12"><a xlink:href="../../d0/d1b/classorg_1_1cobbzilla_1_1util_1_1handlebars_1_1HandlebarsUtil_a2068d47b7f92065178a38a08e7c44e3c.html#a2068d47b7f92065178a38a08e7c44e3c" target="_top" xlink:title="org.cobbzilla.util.handlebars.\lHandlebarsUtil.registerJavaScript\lHelper">
<polygon fill="none" stroke="#000000" points="171,-.5 171,-41.5 334,-41.5 334,-.5 171,-.5"/>
<text text-anchor="start" x="179" y="-29.5" font-family="Helvetica,sans-Serif" font-size="10.00" fill="#000000">org.cobbzilla.util.handlebars.</text>
<text text-anchor="start" x="179" y="-18.5" font-family="Helvetica,sans-Serif" font-size="10.00" fill="#000000">HandlebarsUtil.registerJavaScript</text>
<text text-anchor="middle" x="252.5" y="-7.5" font-family="Helvetica,sans-Serif" font-size="10.00" fill="#000000">Helper</text>
</a>
</g>
</g>
<!-- Node3&#45;&gt;Node14 -->
<g id="edge11" class="edge">
<title>Node3&#45;&gt;Node14</title>
<path fill="none" stroke="#191970" d="M86.8449,-125.9066C106.2055,-104.0469 137.8134,-71.5947 171,-51 176.5088,-47.5814 182.4663,-44.4649 188.5665,-41.6453"/>
<polygon fill="#191970" stroke="#191970" points="83.9708,-123.8777 80.0466,-133.7191 89.2514,-128.4728 83.9708,-123.8777"/>
</g>
<!-- Node6 -->
<g id="node4" class="node">
<title>Node6</title>
<g id="a_node4"><a xlink:href="../../db/d96/classorg_1_1cobbzilla_1_1util_1_1javascript_1_1JsEngine_a72a3ec67a776ef94333a94b9a7855428.html#a72a3ec67a776ef94333a94b9a7855428" target="_top" xlink:title="org.cobbzilla.util.javascript.\lJsEngine.evaluateBoolean">
<polygon fill="none" stroke="#000000" points="370,-257 370,-287 505,-287 505,-257 370,-257"/>
<text text-anchor="start" x="378" y="-275" font-family="Helvetica,sans-Serif" font-size="10.00" fill="#000000">org.cobbzilla.util.javascript.</text>
<text text-anchor="middle" x="437.5" y="-264" font-family="Helvetica,sans-Serif" font-size="10.00" fill="#000000">JsEngine.evaluateBoolean</text>
</a>
</g>
</g>
<!-- Node5&#45;&gt;Node6 -->
<g id="edge3" class="edge">
<title>Node5&#45;&gt;Node6</title>
<path fill="none" stroke="#191970" d="M319.0354,-240.6229C339.2752,-245.9837 361.3198,-251.8225 380.844,-256.9938"/>
<polygon fill="#191970" stroke="#191970" points="319.8262,-237.2117 309.2633,-238.0346 318.0339,-243.9784 319.8262,-237.2117"/>
</g>
<!-- Node8 -->
<g id="node6" class="node">
<title>Node8</title>
<g id="a_node6"><a xlink:href="../../db/d96/classorg_1_1cobbzilla_1_1util_1_1javascript_1_1JsEngine_a3f0650d56ceb5dc194de45357d9c8bf0.html#a3f0650d56ceb5dc194de45357d9c8bf0" target="_top" xlink:title="org.cobbzilla.util.javascript.\lJsEngine.functionOfX">
<polygon fill="none" stroke="#000000" points="370,-208 370,-238 505,-238 505,-208 370,-208"/>
<text text-anchor="start" x="378" y="-226" font-family="Helvetica,sans-Serif" font-size="10.00" fill="#000000">org.cobbzilla.util.javascript.</text>
<text text-anchor="middle" x="437.5" y="-215" font-family="Helvetica,sans-Serif" font-size="10.00" fill="#000000">JsEngine.functionOfX</text>
</a>
</g>
</g>
<!-- Node7&#45;&gt;Node8 -->
<g id="edge5" class="edge">
<title>Node7&#45;&gt;Node8</title>
<path fill="none" stroke="#191970" d="M319.0354,-191.6229C339.2752,-196.9837 361.3198,-202.8225 380.844,-207.9938"/>
<polygon fill="#191970" stroke="#191970" points="319.8262,-188.2117 309.2633,-189.0346 318.0339,-194.9784 319.8262,-188.2117"/>
</g>
<!-- Node9 -->
<g id="node7" class="node">
<title>Node9</title>
<g id="a_node7"><a xlink:href="../../d3/d53/classorg_1_1cobbzilla_1_1util_1_1javascript_1_1StandardJsEngine_a5d87d197b6549ad54b53fa9b43217ed3.html#a5d87d197b6549ad54b53fa9b43217ed3" target="_top" xlink:title="org.cobbzilla.util.javascript.\lStandardJsEngine.round">
<polygon fill="none" stroke="#000000" points="370,-159 370,-189 505,-189 505,-159 370,-159"/>
<text text-anchor="start" x="378" y="-177" font-family="Helvetica,sans-Serif" font-size="10.00" fill="#000000">org.cobbzilla.util.javascript.</text>
<text text-anchor="middle" x="437.5" y="-166" font-family="Helvetica,sans-Serif" font-size="10.00" fill="#000000">StandardJsEngine.round</text>
</a>
</g>
</g>
<!-- Node7&#45;&gt;Node9 -->
<g id="edge6" class="edge">
<title>Node7&#45;&gt;Node9</title>
<path fill="none" stroke="#191970" d="M330.456,-174C343.5329,-174 357.0075,-174 369.799,-174"/>
<polygon fill="#191970" stroke="#191970" points="330.0746,-170.5001 320.0745,-174 330.0745,-177.5001 330.0746,-170.5001"/>
</g>
<!-- Node11 -->
<g id="node9" class="node">
<title>Node11</title>
<g id="a_node9"><a xlink:href="../../db/d96/classorg_1_1cobbzilla_1_1util_1_1javascript_1_1JsEngine_a01e5107b84fa263a4fb958901e1f8068.html#a01e5107b84fa263a4fb958901e1f8068" target="_top" xlink:title="org.cobbzilla.util.javascript.\lJsEngine.evaluateLong">
<polygon fill="none" stroke="#000000" points="370,-110 370,-140 505,-140 505,-110 370,-110"/>
<text text-anchor="start" x="378" y="-128" font-family="Helvetica,sans-Serif" font-size="10.00" fill="#000000">org.cobbzilla.util.javascript.</text>
<text text-anchor="middle" x="437.5" y="-117" font-family="Helvetica,sans-Serif" font-size="10.00" fill="#000000">JsEngine.evaluateLong</text>
</a>
</g>
</g>
<!-- Node10&#45;&gt;Node11 -->
<g id="edge8" class="edge">
<title>Node10&#45;&gt;Node11</title>
<path fill="none" stroke="#191970" d="M330.456,-125C343.5329,-125 357.0075,-125 369.799,-125"/>
<polygon fill="#191970" stroke="#191970" points="330.0746,-121.5001 320.0745,-125 330.0745,-128.5001 330.0746,-121.5001"/>
</g>
<!-- Node13 -->
<g id="node11" class="node">
<title>Node13</title>
<g id="a_node11"><a xlink:href="../../d4/d69/classorg_1_1cobbzilla_1_1util_1_1collection_1_1NameAndValue_a03f7bab5344f04626d8cd41068301199.html#a03f7bab5344f04626d8cd41068301199" target="_top" xlink:title="org.cobbzilla.util.collection.\lNameAndValue.evaluate">
<polygon fill="none" stroke="#000000" points="370.5,-61 370.5,-91 504.5,-91 504.5,-61 370.5,-61"/>
<text text-anchor="start" x="378.5" y="-79" font-family="Helvetica,sans-Serif" font-size="10.00" fill="#000000">org.cobbzilla.util.collection.</text>
<text text-anchor="middle" x="437.5" y="-68" font-family="Helvetica,sans-Serif" font-size="10.00" fill="#000000">NameAndValue.evaluate</text>
</a>
</g>
</g>
<!-- Node12&#45;&gt;Node13 -->
<g id="edge10" class="edge">
<title>Node12&#45;&gt;Node13</title>
<path fill="none" stroke="#191970" d="M330.1963,-76C343.5654,-76 357.3582,-76 370.418,-76"/>
<polygon fill="#191970" stroke="#191970" points="330.0746,-72.5001 320.0745,-76 330.0745,-79.5001 330.0746,-72.5001"/>
</g>
</g>
</svg>
        <g id="navigator" transform="translate(0 0)" fill="#404254">
                <rect fill="#f2f5e9" fill-opacity="0.5" stroke="#606060" stroke-width=".5" x="0" y="0" width="60" height="60"/>
                <use id="zoomplus" xlink:href="#zoomPlus" x="17" y="9" onmousedown="handleZoom(evt,'in')"/>
                <use id="zoomminus" xlink:href="#zoomMin" x="42" y="9" onmousedown="handleZoom(evt,'out')"/>
                <use id="reset" xlink:href="#resetDef" x="30" y="36" onmousedown="handleReset()"/>
                <g id="arrowUp" xlink:href="#dirArrow" transform="translate(30 24)" onmousedown="handlePan(0,-1)">
                  <use xlink:href="#rim" fill="#404040">
                        <set attributeName="fill" to="#808080" begin="arrowUp.mouseover" end="arrowUp.mouseout"/>
                  </use>
                  <path fill="none" stroke="white" stroke-width="1.5" d="M0,-3.0v7 M-2.5,-0.5L0,-3.0L2.5,-0.5"/>
                </g>
                <g id="arrowRight" xlink:href="#dirArrow" transform="rotate(90) translate(36 -43)" onmousedown="handlePan(1,0)">
                  <use xlink:href="#rim" fill="#404040">
                        <set attributeName="fill" to="#808080" begin="arrowRight.mouseover" end="arrowRight.mouseout"/>
                  </use>
                  <path fill="none" stroke="white" stroke-width="1.5" d="M0,-3.0v7 M-2.5,-0.5L0,-3.0L2.5,-0.5"/>
                </g>
                <g id="arrowDown" xlink:href="#dirArrow" transform="rotate(180) translate(-30 -48)" onmousedown="handlePan(0,1)">
                  <use xlink:href="#rim" fill="#404040">
                        <set attributeName="fill" to="#808080" begin="arrowDown.mouseover" end="arrowDown.mouseout"/>
                  </use>
                  <path fill="none" stroke="white" stroke-width="1.5" d="M0,-3.0v7 M-2.5,-0.5L0,-3.0L2.5,-0.5"/>
                </g>
                <g id="arrowLeft" xlink:href="#dirArrow" transform="rotate(270) translate(-36 17)" onmousedown="handlePan(-1,0)">
                  <use xlink:href="#rim" fill="#404040">
                        <set attributeName="fill" to="#808080" begin="arrowLeft.mouseover" end="arrowLeft.mouseout"/>
                  </use>
                  <path fill="none" stroke="white" stroke-width="1.5" d="M0,-3.0v7 M-2.5,-0.5L0,-3.0L2.5,-0.5"/>
                </g>
        </g>
        <svg viewBox="0 0 15 15" width="100%" height="30px" preserveAspectRatio="xMaxYMin meet">
         <g id="arrow_out" transform="scale(0.3 0.3)">
          <a xlink:href="classorg_1_1cobbzilla_1_1util_1_1javascript_1_1JsEngine_a60bba769760a2df3a1b2c8ab5c4dee8c_a60bba769760a2df3a1b2c8ab5c4dee8c_icgraph_org.svg" target="_base">
           <rect id="button" ry="5" rx="5" y="6" x="6" height="38" width="38"
                fill="#f2f5e9" fill-opacity="0.5" stroke="#606060" stroke-width="1.0"/>
           <path id="arrow"
             d="M 11.500037,31.436501 C 11.940474,20.09759 22.043105,11.32322 32.158766,21.979434 L 37.068811,17.246167 C 37.068811,17.246167 37.088388,32 37.088388,32 L 22.160133,31.978069 C 22.160133,31.978069 26.997745,27.140456 26.997745,27.140456 C 18.528582,18.264221 13.291696,25.230495 11.500037,31.436501 z"
             style="fill:#404040;"/>
          </a>
         </g>
        </svg>
</svg>
