<?xml version="1.0" encoding="UTF-8" standalone="no"?>
<!DOCTYPE svg PUBLIC "-//W3C//DTD SVG 1.1//EN"
 "http://www.w3.org/Graphics/SVG/1.1/DTD/svg11.dtd">
<!-- Generated by graphviz version 2.40.1 (20161225.0304)
 -->
<!-- Title: org.cobbzilla.util.javascript.JsEngine.getDefaultScript Pages: 1 -->
<!--zoomable 296 -->
<svg id="main" version="1.1" xmlns="http://www.w3.org/2000/svg" xmlns:xlink="http://www.w3.org/1999/xlink" xml:space="preserve" onload="init(evt)">
<style type="text/css"><![CDATA[
.edge:hover path { stroke: red; }
.edge:hover polygon { stroke: red; fill: red; }
]]></style>
<script type="text/javascript"><![CDATA[
var edges = document.getElementsByTagName('g');
if (edges && edges.length) {
  for (var i=0;i<edges.length;i++) {
    if (edges[i].id.substr(0,4)=='edge') {
      edges[i].setAttribute('class','edge');
    }
  }
}
]]></script>
        <defs>
                <circle id="rim" cx="0" cy="0" r="7"/>
                <circle id="rim2" cx="0" cy="0" r="3.5"/>
                <g id="zoomPlus">
                        <use xlink:href="#rim" fill="#404040">
                                <set attributeName="fill" to="#808080" begin="zoomplus.mouseover" end="zoomplus.mouseout"/>
                        </use>
                        <path d="M-4,0h8M0,-4v8" fill="none" stroke="white" stroke-width="1.5" pointer-events="none"/>
                </g>
                <g id="zoomMin">
                        <use xlink:href="#rim" fill="#404040">
                                <set attributeName="fill" to="#808080" begin="zoomminus.mouseover" end="zoomminus.mouseout"/>
                        </use>
                        <path d="M-4,0h8" fill="none" stroke="white" stroke-width="1.5" pointer-events="none"/>
                </g>
                <g id="dirArrow">
                        <path fill="none" stroke="white" stroke-width="1.5" d="M0,-3.0v7 M-2.5,-0.5L0,-3.0L2.5,-0.5"/>
                </g>
               <g id="resetDef">
                       <use xlink:href="#rim2" fill="#404040">
                               <set attributeName="fill" to="#808080" begin="reset.mouseover" end="reset.mouseout"/>
                       </use>
               </g>
        </defs>

<script type="text/javascript">
var viewWidth = 684;
var viewHeight = 296;
var sectionId = 'dynsection-0';
</script>
<script xlink:href="../../svgpan.js"/>
<svg id="graph" class="graph">
<g id="viewport">
<title>org.cobbzilla.util.javascript.JsEngine.getDefaultScript</title>
<!-- Node1 -->
<g id="node1" class="node">
<title>Node1</title>
<polygon fill="#bfbfbf" stroke="#000000" points="0,-134 0,-164 135,-164 135,-134 0,-134"/>
<text text-anchor="start" x="8" y="-152" font-family="Helvetica,sans-Serif" font-size="10.00" fill="#000000">org.cobbzilla.util.javascript.</text>
<text text-anchor="middle" x="67.5" y="-141" font-family="Helvetica,sans-Serif" font-size="10.00" fill="#000000">JsEngine.getDefaultScript</text>
</g>
<!-- Node2 -->
<g id="node2" class="node">
<title>Node2</title>
<g id="a_node2"><a xlink:href="../../db/d96/classorg_1_1cobbzilla_1_1util_1_1javascript_1_1JsEngine_a60bba769760a2df3a1b2c8ab5c4dee8c.html#a60bba769760a2df3a1b2c8ab5c4dee8c" target="_top" xlink:title="org.cobbzilla.util.javascript.\lJsEngine.evaluate">
<polygon fill="none" stroke="#000000" points="171,-134 171,-164 306,-164 306,-134 171,-134"/>
<text text-anchor="start" x="179" y="-152" font-family="Helvetica,sans-Serif" font-size="10.00" fill="#000000">org.cobbzilla.util.javascript.</text>
<text text-anchor="middle" x="238.5" y="-141" font-family="Helvetica,sans-Serif" font-size="10.00" fill="#000000">JsEngine.evaluate</text>
</a>
</g>
</g>
<!-- Node1&#45;&gt;Node2 -->
<g id="edge1" class="edge">
<title>Node1&#45;&gt;Node2</title>
<path fill="none" stroke="#191970" d="M145.0998,-149C153.692,-149 162.3915,-149 170.8472,-149"/>
<polygon fill="#191970" stroke="#191970" points="145.0838,-145.5001 135.0837,-149 145.0837,-152.5001 145.0838,-145.5001"/>
</g>
<!-- Node3 -->
<g id="node3" class="node">
<title>Node3</title>
<g id="a_node3"><a xlink:href="../../db/d9f/classorg_1_1cobbzilla_1_1util_1_1string_1_1StringUtil_a1cb2e691882559f2b27638d9020ea850.html#a1cb2e691882559f2b27638d9020ea850" target="_top" xlink:title="org.cobbzilla.util.string.\lStringUtil.diff">
<polygon fill="none" stroke="#000000" points="365,-257 365,-287 482,-287 482,-257 365,-257"/>
<text text-anchor="start" x="373" y="-275" font-family="Helvetica,sans-Serif" font-size="10.00" fill="#000000">org.cobbzilla.util.string.</text>
<text text-anchor="middle" x="423.5" y="-264" font-family="Helvetica,sans-Serif" font-size="10.00" fill="#000000">StringUtil.diff</text>
</a>
</g>
</g>
<!-- Node2&#45;&gt;Node3 -->
<g id="edge2" class="edge">
<title>Node2&#45;&gt;Node3</title>
<path fill="none" stroke="#191970" d="M256.6112,-171.7835C275.6228,-194.2467 307.5019,-228.028 342,-248 349.0209,-252.0646 356.7868,-255.4904 364.6536,-258.3644"/>
<polygon fill="#191970" stroke="#191970" points="259.287,-169.5272 250.2081,-164.0662 253.8999,-173.997 259.287,-169.5272"/>
</g>
<!-- Node4 -->
<g id="node4" class="node">
<title>Node4</title>
<g id="a_node4"><a xlink:href="../../db/d96/classorg_1_1cobbzilla_1_1util_1_1javascript_1_1JsEngine_af4dabfbc8e14b208cd2d53b1836d0c3b.html#af4dabfbc8e14b208cd2d53b1836d0c3b" target="_top" xlink:title="org.cobbzilla.util.javascript.\lJsEngine.evaluateBoolean">
<polygon fill="none" stroke="#000000" points="356,-208 356,-238 491,-238 491,-208 356,-208"/>
<text text-anchor="start" x="364" y="-226" font-family="Helvetica,sans-Serif" font-size="10.00" fill="#000000">org.cobbzilla.util.javascript.</text>
<text text-anchor="middle" x="423.5" y="-215" font-family="Helvetica,sans-Serif" font-size="10.00" fill="#000000">JsEngine.evaluateBoolean</text>
</a>
</g>
</g>
<!-- Node2&#45;&gt;Node4 -->
<g id="edge3" class="edge">
<title>Node2&#45;&gt;Node4</title>
<path fill="none" stroke="#191970" d="M275.6137,-168.7558C295.0486,-178.6301 319.4401,-190.2964 342,-199 350.2569,-202.1855 359.1202,-205.1962 367.8523,-207.939"/>
<polygon fill="#191970" stroke="#191970" points="276.995,-165.5305 266.5008,-164.0732 273.7957,-171.7567 276.995,-165.5305"/>
</g>
<!-- Node6 -->
<g id="node6" class="node">
<title>Node6</title>
<g id="a_node6"><a xlink:href="../../db/d96/classorg_1_1cobbzilla_1_1util_1_1javascript_1_1JsEngine_adb475a2674380f13ae1b45615e552e2a.html#adb475a2674380f13ae1b45615e552e2a" target="_top" xlink:title="org.cobbzilla.util.javascript.\lJsEngine.evaluateInt">
<polygon fill="none" stroke="#000000" points="356,-159 356,-189 491,-189 491,-159 356,-159"/>
<text text-anchor="start" x="364" y="-177" font-family="Helvetica,sans-Serif" font-size="10.00" fill="#000000">org.cobbzilla.util.javascript.</text>
<text text-anchor="middle" x="423.5" y="-166" font-family="Helvetica,sans-Serif" font-size="10.00" fill="#000000">JsEngine.evaluateInt</text>
</a>
</g>
</g>
<!-- Node2&#45;&gt;Node6 -->
<g id="edge5" class="edge">
<title>Node2&#45;&gt;Node6</title>
<path fill="none" stroke="#191970" d="M316.0677,-159.4821C329.266,-161.2657 342.8809,-163.1055 355.799,-164.8512"/>
<polygon fill="#191970" stroke="#191970" points="316.4532,-156.0025 306.0745,-158.1317 315.5157,-162.9394 316.4532,-156.0025"/>
</g>
<!-- Node9 -->
<g id="node9" class="node">
<title>Node9</title>
<g id="a_node9"><a xlink:href="../../db/d96/classorg_1_1cobbzilla_1_1util_1_1javascript_1_1JsEngine_ae41fd6a6024cfdfcf3a22360d6b17ba4.html#ae41fd6a6024cfdfcf3a22360d6b17ba4" target="_top" xlink:title="org.cobbzilla.util.javascript.\lJsEngine.evaluateLong">
<polygon fill="none" stroke="#000000" points="356,-110 356,-140 491,-140 491,-110 356,-110"/>
<text text-anchor="start" x="364" y="-128" font-family="Helvetica,sans-Serif" font-size="10.00" fill="#000000">org.cobbzilla.util.javascript.</text>
<text text-anchor="middle" x="423.5" y="-117" font-family="Helvetica,sans-Serif" font-size="10.00" fill="#000000">JsEngine.evaluateLong</text>
</a>
</g>
</g>
<!-- Node2&#45;&gt;Node9 -->
<g id="edge8" class="edge">
<title>Node2&#45;&gt;Node9</title>
<path fill="none" stroke="#191970" d="M316.0677,-138.9372C329.266,-137.225 342.8809,-135.4587 355.799,-133.7828"/>
<polygon fill="#191970" stroke="#191970" points="315.5411,-135.4761 306.0745,-140.2336 316.4417,-142.4179 315.5411,-135.4761"/>
</g>
<!-- Node11 -->
<g id="node11" class="node">
<title>Node11</title>
<g id="a_node11"><a xlink:href="../../db/d96/classorg_1_1cobbzilla_1_1util_1_1javascript_1_1JsEngine_a8f5c2ffdf43fd7a3f6cdadfeba39077b.html#a8f5c2ffdf43fd7a3f6cdadfeba39077b" target="_top" xlink:title="org.cobbzilla.util.javascript.\lJsEngine.evaluateString">
<polygon fill="none" stroke="#000000" points="356,-61 356,-91 491,-91 491,-61 356,-61"/>
<text text-anchor="start" x="364" y="-79" font-family="Helvetica,sans-Serif" font-size="10.00" fill="#000000">org.cobbzilla.util.javascript.</text>
<text text-anchor="middle" x="423.5" y="-68" font-family="Helvetica,sans-Serif" font-size="10.00" fill="#000000">JsEngine.evaluateString</text>
</a>
</g>
</g>
<!-- Node2&#45;&gt;Node11 -->
<g id="edge10" class="edge">
<title>Node2&#45;&gt;Node11</title>
<path fill="none" stroke="#191970" d="M276.4864,-129.2711C295.7936,-119.6945 319.8101,-108.4608 342,-100 350.2693,-96.847 359.1393,-93.8536 367.8742,-91.1182"/>
<polygon fill="#191970" stroke="#191970" points="274.7855,-126.2086 267.4153,-133.8198 277.9233,-132.4659 274.7855,-126.2086"/>
</g>
<!-- Node13 -->
<g id="node13" class="node">
<title>Node13</title>
<g id="a_node13"><a xlink:href="../../d0/d1b/classorg_1_1cobbzilla_1_1util_1_1handlebars_1_1HandlebarsUtil_a2068d47b7f92065178a38a08e7c44e3c.html#a2068d47b7f92065178a38a08e7c44e3c" target="_top" xlink:title="org.cobbzilla.util.handlebars.\lHandlebarsUtil.registerJavaScript\lHelper">
<polygon fill="none" stroke="#000000" points="342,-.5 342,-41.5 505,-41.5 505,-.5 342,-.5"/>
<text text-anchor="start" x="350" y="-29.5" font-family="Helvetica,sans-Serif" font-size="10.00" fill="#000000">org.cobbzilla.util.handlebars.</text>
<text text-anchor="start" x="350" y="-18.5" font-family="Helvetica,sans-Serif" font-size="10.00" fill="#000000">HandlebarsUtil.registerJavaScript</text>
<text text-anchor="middle" x="423.5" y="-7.5" font-family="Helvetica,sans-Serif" font-size="10.00" fill="#000000">Helper</text>
</a>
</g>
</g>
<!-- Node2&#45;&gt;Node13 -->
<g id="edge12" class="edge">
<title>Node2&#45;&gt;Node13</title>
<path fill="none" stroke="#191970" d="M257.8449,-125.9066C277.2055,-104.0469 308.8134,-71.5947 342,-51 347.5088,-47.5814 353.4663,-44.4649 359.5665,-41.6453"/>
<polygon fill="#191970" stroke="#191970" points="254.9708,-123.8777 251.0466,-133.7191 260.2514,-128.4728 254.9708,-123.8777"/>
</g>
<!-- Node5 -->
<g id="node5" class="node">
<title>Node5</title>
<g id="a_node5"><a xlink:href="../../db/d96/classorg_1_1cobbzilla_1_1util_1_1javascript_1_1JsEngine_a72a3ec67a776ef94333a94b9a7855428.html#a72a3ec67a776ef94333a94b9a7855428" target="_top" xlink:title="org.cobbzilla.util.javascript.\lJsEngine.evaluateBoolean">
<polygon fill="none" stroke="#000000" points="541,-257 541,-287 676,-287 676,-257 541,-257"/>
<text text-anchor="start" x="549" y="-275" font-family="Helvetica,sans-Serif" font-size="10.00" fill="#000000">org.cobbzilla.util.javascript.</text>
<text text-anchor="middle" x="608.5" y="-264" font-family="Helvetica,sans-Serif" font-size="10.00" fill="#000000">JsEngine.evaluateBoolean</text>
</a>
</g>
</g>
<!-- Node4&#45;&gt;Node5 -->
<g id="edge4" class="edge">
<title>Node4&#45;&gt;Node5</title>
<path fill="none" stroke="#191970" d="M490.0354,-240.6229C510.2752,-245.9837 532.3198,-251.8225 551.844,-256.9938"/>
<polygon fill="#191970" stroke="#191970" points="490.8262,-237.2117 480.2633,-238.0346 489.0339,-243.9784 490.8262,-237.2117"/>
</g>
<!-- Node7 -->
<g id="node7" class="node">
<title>Node7</title>
<g id="a_node7"><a xlink:href="../../db/d96/classorg_1_1cobbzilla_1_1util_1_1javascript_1_1JsEngine_a3f0650d56ceb5dc194de45357d9c8bf0.html#a3f0650d56ceb5dc194de45357d9c8bf0" target="_top" xlink:title="org.cobbzilla.util.javascript.\lJsEngine.functionOfX">
<polygon fill="none" stroke="#000000" points="541,-208 541,-238 676,-238 676,-208 541,-208"/>
<text text-anchor="start" x="549" y="-226" font-family="Helvetica,sans-Serif" font-size="10.00" fill="#000000">org.cobbzilla.util.javascript.</text>
<text text-anchor="middle" x="608.5" y="-215" font-family="Helvetica,sans-Serif" font-size="10.00" fill="#000000">JsEngine.functionOfX</text>
</a>
</g>
</g>
<!-- Node6&#45;&gt;Node7 -->
<g id="edge6" class="edge">
<title>Node6&#45;&gt;Node7</title>
<path fill="none" stroke="#191970" d="M490.0354,-191.6229C510.2752,-196.9837 532.3198,-202.8225 551.844,-207.9938"/>
<polygon fill="#191970" stroke="#191970" points="490.8262,-188.2117 480.2633,-189.0346 489.0339,-194.9784 490.8262,-188.2117"/>
</g>
<!-- Node8 -->
<g id="node8" class="node">
<title>Node8</title>
<g id="a_node8"><a xlink:href="../../d3/d53/classorg_1_1cobbzilla_1_1util_1_1javascript_1_1StandardJsEngine_a5d87d197b6549ad54b53fa9b43217ed3.html#a5d87d197b6549ad54b53fa9b43217ed3" target="_top" xlink:title="org.cobbzilla.util.javascript.\lStandardJsEngine.round">
<polygon fill="none" stroke="#000000" points="541,-159 541,-189 676,-189 676,-159 541,-159"/>
<text text-anchor="start" x="549" y="-177" font-family="Helvetica,sans-Serif" font-size="10.00" fill="#000000">org.cobbzilla.util.javascript.</text>
<text text-anchor="middle" x="608.5" y="-166" font-family="Helvetica,sans-Serif" font-size="10.00" fill="#000000">StandardJsEngine.round</text>
</a>
</g>
</g>
<!-- Node6&#45;&gt;Node8 -->
<g id="edge7" class="edge">
<title>Node6&#45;&gt;Node8</title>
<path fill="none" stroke="#191970" d="M501.456,-174C514.5329,-174 528.0075,-174 540.799,-174"/>
<polygon fill="#191970" stroke="#191970" points="501.0746,-170.5001 491.0745,-174 501.0745,-177.5001 501.0746,-170.5001"/>
</g>
<!-- Node10 -->
<g id="node10" class="node">
<title>Node10</title>
<g id="a_node10"><a xlink:href="../../db/d96/classorg_1_1cobbzilla_1_1util_1_1javascript_1_1JsEngine_a01e5107b84fa263a4fb958901e1f8068.html#a01e5107b84fa263a4fb958901e1f8068" target="_top" xlink:title="org.cobbzilla.util.javascript.\lJsEngine.evaluateLong">
<polygon fill="none" stroke="#000000" points="541,-110 541,-140 676,-140 676,-110 541,-110"/>
<text text-anchor="start" x="549" y="-128" font-family="Helvetica,sans-Serif" font-size="10.00" fill="#000000">org.cobbzilla.util.javascript.</text>
<text text-anchor="middle" x="608.5" y="-117" font-family="Helvetica,sans-Serif" font-size="10.00" fill="#000000">JsEngine.evaluateLong</text>
</a>
</g>
</g>
<!-- Node9&#45;&gt;Node10 -->
<g id="edge9" class="edge">
<title>Node9&#45;&gt;Node10</title>
<path fill="none" stroke="#191970" d="M501.456,-125C514.5329,-125 528.0075,-125 540.799,-125"/>
<polygon fill="#191970" stroke="#191970" points="501.0746,-121.5001 491.0745,-125 501.0745,-128.5001 501.0746,-121.5001"/>
</g>
<!-- Node12 -->
<g id="node12" class="node">
<title>Node12</title>
<g id="a_node12"><a xlink:href="../../d4/d69/classorg_1_1cobbzilla_1_1util_1_1collection_1_1NameAndValue_a03f7bab5344f04626d8cd41068301199.html#a03f7bab5344f04626d8cd41068301199" target="_top" xlink:title="org.cobbzilla.util.collection.\lNameAndValue.evaluate">
<polygon fill="none" stroke="#000000" points="541.5,-61 541.5,-91 675.5,-91 675.5,-61 541.5,-61"/>
<text text-anchor="start" x="549.5" y="-79" font-family="Helvetica,sans-Serif" font-size="10.00" fill="#000000">org.cobbzilla.util.collection.</text>
<text text-anchor="middle" x="608.5" y="-68" font-family="Helvetica,sans-Serif" font-size="10.00" fill="#000000">NameAndValue.evaluate</text>
</a>
</g>
</g>
<!-- Node11&#45;&gt;Node12 -->
<g id="edge11" class="edge">
<title>Node11&#45;&gt;Node12</title>
<path fill="none" stroke="#191970" d="M501.1963,-76C514.5654,-76 528.3582,-76 541.418,-76"/>
<polygon fill="#191970" stroke="#191970" points="501.0746,-72.5001 491.0745,-76 501.0745,-79.5001 501.0746,-72.5001"/>
</g>
</g>
</svg>
        <g id="navigator" transform="translate(0 0)" fill="#404254">
                <rect fill="#f2f5e9" fill-opacity="0.5" stroke="#606060" stroke-width=".5" x="0" y="0" width="60" height="60"/>
                <use id="zoomplus" xlink:href="#zoomPlus" x="17" y="9" onmousedown="handleZoom(evt,'in')"/>
                <use id="zoomminus" xlink:href="#zoomMin" x="42" y="9" onmousedown="handleZoom(evt,'out')"/>
                <use id="reset" xlink:href="#resetDef" x="30" y="36" onmousedown="handleReset()"/>
                <g id="arrowUp" xlink:href="#dirArrow" transform="translate(30 24)" onmousedown="handlePan(0,-1)">
                  <use xlink:href="#rim" fill="#404040">
                        <set attributeName="fill" to="#808080" begin="arrowUp.mouseover" end="arrowUp.mouseout"/>
                  </use>
                  <path fill="none" stroke="white" stroke-width="1.5" d="M0,-3.0v7 M-2.5,-0.5L0,-3.0L2.5,-0.5"/>
                </g>
                <g id="arrowRight" xlink:href="#dirArrow" transform="rotate(90) translate(36 -43)" onmousedown="handlePan(1,0)">
                  <use xlink:href="#rim" fill="#404040">
                        <set attributeName="fill" to="#808080" begin="arrowRight.mouseover" end="arrowRight.mouseout"/>
                  </use>
                  <path fill="none" stroke="white" stroke-width="1.5" d="M0,-3.0v7 M-2.5,-0.5L0,-3.0L2.5,-0.5"/>
                </g>
                <g id="arrowDown" xlink:href="#dirArrow" transform="rotate(180) translate(-30 -48)" onmousedown="handlePan(0,1)">
                  <use xlink:href="#rim" fill="#404040">
                        <set attributeName="fill" to="#808080" begin="arrowDown.mouseover" end="arrowDown.mouseout"/>
                  </use>
                  <path fill="none" stroke="white" stroke-width="1.5" d="M0,-3.0v7 M-2.5,-0.5L0,-3.0L2.5,-0.5"/>
                </g>
                <g id="arrowLeft" xlink:href="#dirArrow" transform="rotate(270) translate(-36 17)" onmousedown="handlePan(-1,0)">
                  <use xlink:href="#rim" fill="#404040">
                        <set attributeName="fill" to="#808080" begin="arrowLeft.mouseover" end="arrowLeft.mouseout"/>
                  </use>
                  <path fill="none" stroke="white" stroke-width="1.5" d="M0,-3.0v7 M-2.5,-0.5L0,-3.0L2.5,-0.5"/>
                </g>
        </g>
        <svg viewBox="0 0 15 15" width="100%" height="30px" preserveAspectRatio="xMaxYMin meet">
         <g id="arrow_out" transform="scale(0.3 0.3)">
          <a xlink:href="classorg_1_1cobbzilla_1_1util_1_1javascript_1_1JsEngine_a4f5dc618811183ac05be1a06c8f2973a_a4f5dc618811183ac05be1a06c8f2973a_icgraph_org.svg" target="_base">
           <rect id="button" ry="5" rx="5" y="6" x="6" height="38" width="38"
                fill="#f2f5e9" fill-opacity="0.5" stroke="#606060" stroke-width="1.0"/>
           <path id="arrow"
             d="M 11.500037,31.436501 C 11.940474,20.09759 22.043105,11.32322 32.158766,21.979434 L 37.068811,17.246167 C 37.068811,17.246167 37.088388,32 37.088388,32 L 22.160133,31.978069 C 22.160133,31.978069 26.997745,27.140456 26.997745,27.140456 C 18.528582,18.264221 13.291696,25.230495 11.500037,31.436501 z"
             style="fill:#404040;"/>
          </a>
         </g>
        </svg>
</svg>
