<?xml version="1.0" encoding="UTF-8" standalone="no"?>
<!DOCTYPE svg PUBLIC "-//W3C//DTD SVG 1.1//EN"
 "http://www.w3.org/Graphics/SVG/1.1/DTD/svg11.dtd">
<!-- Generated by graphviz version 2.40.1 (20161225.0304)
 -->
<!-- Title: org.cobbzilla.util.javascript.JsEngine.evaluate Pages: 1 -->
<svg width="314pt" height="106pt"
 viewBox="0.00 0.00 314.00 106.00" xmlns="http://www.w3.org/2000/svg" xmlns:xlink="http://www.w3.org/1999/xlink">
<g id="graph0" class="graph" transform="scale(1 1) rotate(0) translate(4 102)">
<title>org.cobbzilla.util.javascript.JsEngine.evaluate</title>
<!-- Node0 -->
<g id="node1" class="node">
<title>Node0</title>
<polygon fill="#bfbfbf" stroke="#000000" points="0,-33.5 0,-63.5 135,-63.5 135,-33.5 0,-33.5"/>
<text text-anchor="start" x="8" y="-51.5" font-family="Helvetica,sans-Serif" font-size="10.00" fill="#000000">org.cobbzilla.util.javascript.</text>
<text text-anchor="middle" x="67.5" y="-40.5" font-family="Helvetica,sans-Serif" font-size="10.00" fill="#000000">JsEngine.evaluate</text>
</g>
<!-- Node1 -->
<g id="node2" class="node">
<title>Node1</title>
<g id="a_node2"><a xlink:href="../../db/d96/classorg_1_1cobbzilla_1_1util_1_1javascript_1_1JsEngine_a4f5dc618811183ac05be1a06c8f2973a.html#a4f5dc618811183ac05be1a06c8f2973a" target="_top" xlink:title="org.cobbzilla.util.javascript.\lJsEngine.getDefaultScript">
<polygon fill="none" stroke="#000000" points="171,-67.5 171,-97.5 306,-97.5 306,-67.5 171,-67.5"/>
<text text-anchor="start" x="179" y="-85.5" font-family="Helvetica,sans-Serif" font-size="10.00" fill="#000000">org.cobbzilla.util.javascript.</text>
<text text-anchor="middle" x="238.5" y="-74.5" font-family="Helvetica,sans-Serif" font-size="10.00" fill="#000000">JsEngine.getDefaultScript</text>
</a>
</g>
</g>
<!-- Node0&#45;&gt;Node1 -->
<g id="edge1" class="edge">
<title>Node0&#45;&gt;Node1</title>
<path fill="none" stroke="#191970" d="M135.0837,-61.9377C143.5381,-63.6187 152.2372,-65.3483 160.83,-67.0568"/>
<polygon fill="#191970" stroke="#191970" points="160.3566,-70.5312 170.8472,-69.0486 161.7218,-63.6656 160.3566,-70.5312"/>
</g>
<!-- Node2 -->
<g id="node3" class="node">
<title>Node2</title>
<g id="a_node3"><a xlink:href="../../db/d96/classorg_1_1cobbzilla_1_1util_1_1javascript_1_1JsEngine_a910dcb21061881b153a71b6ff849d8da.html#a910dcb21061881b153a71b6ff849d8da" target="_top" xlink:title="org.cobbzilla.util.javascript.\lJsEngine.getNashorn">
<polygon fill="none" stroke="#000000" points="171,-.5 171,-30.5 306,-30.5 306,-.5 171,-.5"/>
<text text-anchor="start" x="179" y="-18.5" font-family="Helvetica,sans-Serif" font-size="10.00" fill="#000000">org.cobbzilla.util.javascript.</text>
<text text-anchor="middle" x="238.5" y="-7.5" font-family="Helvetica,sans-Serif" font-size="10.00" fill="#000000">JsEngine.getNashorn</text>
</a>
</g>
</g>
<!-- Node0&#45;&gt;Node2 -->
<g id="edge2" class="edge">
<title>Node0&#45;&gt;Node2</title>
<path fill="none" stroke="#191970" d="M135.0837,-35.4575C143.5381,-33.826 152.2372,-32.1472 160.83,-30.489"/>
<polygon fill="#191970" stroke="#191970" points="161.6916,-33.8873 170.8472,-28.5558 160.3651,-27.0142 161.6916,-33.8873"/>
</g>
<!-- Node2&#45;&gt;Node2 -->
<g id="edge3" class="edge">
<title>Node2&#45;&gt;Node2</title>
<path fill="none" stroke="#191970" d="M208.874,-30.659C201.7301,-40.0566 211.6055,-49 238.5,-49 254.8889,-49 264.9578,-45.679 268.7069,-40.9579"/>
<polygon fill="#191970" stroke="#191970" points="272.1837,-40.446 268.126,-30.659 265.1948,-40.8403 272.1837,-40.446"/>
</g>
</g>
</svg>
