<?xml version="1.0" encoding="UTF-8" standalone="no"?>
<!DOCTYPE svg PUBLIC "-//W3C//DTD SVG 1.1//EN"
 "http://www.w3.org/Graphics/SVG/1.1/DTD/svg11.dtd">
<!-- Generated by graphviz version 2.40.1 (20161225.0304)
 -->
<!-- Title: org.cobbzilla.util.io.DamperedCompositeBufferedFilesystemWatcher.uber_fire Pages: 1 -->
<svg width="989pt" height="94pt"
 viewBox="0.00 0.00 989.00 93.50" xmlns="http://www.w3.org/2000/svg" xmlns:xlink="http://www.w3.org/1999/xlink">
<g id="graph0" class="graph" transform="scale(1 1) rotate(0) translate(4 89.5)">
<title>org.cobbzilla.util.io.DamperedCompositeBufferedFilesystemWatcher.uber_fire</title>
<!-- Node1 -->
<g id="node1" class="node">
<title>Node1</title>
<polygon fill="#bfbfbf" stroke="#000000" points="0,-27.5 0,-57.5 226,-57.5 226,-27.5 0,-27.5"/>
<text text-anchor="start" x="8" y="-45.5" font-family="Helvetica,sans-Serif" font-size="10.00" fill="#000000">org.cobbzilla.util.io.Dampered</text>
<text text-anchor="middle" x="113" y="-34.5" font-family="Helvetica,sans-Serif" font-size="10.00" fill="#000000">CompositeBufferedFilesystemWatcher.uber_fire</text>
</g>
<!-- Node2 -->
<g id="node2" class="node">
<title>Node2</title>
<g id="a_node2"><a xlink:href="../../d8/d55/classorg_1_1cobbzilla_1_1util_1_1io_1_1DamperedCompositeBufferedFilesystemWatcher_a90a5731c7bf90efda9640d1d30986d7c.html#a90a5731c7bf90efda9640d1d30986d7c" target="_top" xlink:title="org.cobbzilla.util.io.Dampered\lCompositeBufferedFilesystemWatcher.init">
<polygon fill="none" stroke="#000000" points="513.5,-49.5 513.5,-79.5 714.5,-79.5 714.5,-49.5 513.5,-49.5"/>
<text text-anchor="start" x="521.5" y="-67.5" font-family="Helvetica,sans-Serif" font-size="10.00" fill="#000000">org.cobbzilla.util.io.Dampered</text>
<text text-anchor="middle" x="614" y="-56.5" font-family="Helvetica,sans-Serif" font-size="10.00" fill="#000000">CompositeBufferedFilesystemWatcher.init</text>
</a>
</g>
</g>
<!-- Node1&#45;&gt;Node2 -->
<g id="edge1" class="edge">
<title>Node1&#45;&gt;Node2</title>
<path fill="none" stroke="#191970" d="M236.0519,-47.9035C321.2745,-51.6458 433.3237,-56.5661 513.2449,-60.0756"/>
<polygon fill="#191970" stroke="#191970" points="236.2028,-44.4068 226.0589,-47.4647 235.8957,-51.4001 236.2028,-44.4068"/>
</g>
<!-- Node4 -->
<g id="node4" class="node">
<title>Node4</title>
<g id="a_node4"><a xlink:href="../../d8/d55/classorg_1_1cobbzilla_1_1util_1_1io_1_1DamperedCompositeBufferedFilesystemWatcher_adc982844650e9325f7971a09e1adc917.html#adc982844650e9325f7971a09e1adc917" target="_top" xlink:title="org.cobbzilla.util.io.Dampered\lCompositeBufferedFilesystemWatcher.status">
<polygon fill="none" stroke="#000000" points="262,-5.5 262,-35.5 477,-35.5 477,-5.5 262,-5.5"/>
<text text-anchor="start" x="270" y="-23.5" font-family="Helvetica,sans-Serif" font-size="10.00" fill="#000000">org.cobbzilla.util.io.Dampered</text>
<text text-anchor="middle" x="369.5" y="-12.5" font-family="Helvetica,sans-Serif" font-size="10.00" fill="#000000">CompositeBufferedFilesystemWatcher.status</text>
</a>
</g>
</g>
<!-- Node1&#45;&gt;Node4 -->
<g id="edge3" class="edge">
<title>Node1&#45;&gt;Node4</title>
<path fill="none" stroke="#191970" d="M236.2477,-31.929C244.7825,-31.197 253.3469,-30.4624 261.7894,-29.7383"/>
<polygon fill="#191970" stroke="#191970" points="235.9156,-28.4446 226.2513,-32.7864 236.5138,-35.419 235.9156,-28.4446"/>
</g>
<!-- Node3 -->
<g id="node3" class="node">
<title>Node3</title>
<g id="a_node3"><a xlink:href="../../d8/d55/classorg_1_1cobbzilla_1_1util_1_1io_1_1DamperedCompositeBufferedFilesystemWatcher_a8c4b4b4c3a369fc066a494c4ad261a2c.html#a8c4b4b4c3a369fc066a494c4ad261a2c" target="_top" xlink:title="org.cobbzilla.util.io.Dampered\lCompositeBufferedFilesystemWatcher.\lDamperedCompositeBufferedFilesystemWatcher">
<polygon fill="none" stroke="#000000" points="751,-44 751,-85 981,-85 981,-44 751,-44"/>
<text text-anchor="start" x="759" y="-73" font-family="Helvetica,sans-Serif" font-size="10.00" fill="#000000">org.cobbzilla.util.io.Dampered</text>
<text text-anchor="start" x="759" y="-62" font-family="Helvetica,sans-Serif" font-size="10.00" fill="#000000">CompositeBufferedFilesystemWatcher.</text>
<text text-anchor="middle" x="866" y="-51" font-family="Helvetica,sans-Serif" font-size="10.00" fill="#000000">DamperedCompositeBufferedFilesystemWatcher</text>
</a>
</g>
</g>
<!-- Node2&#45;&gt;Node3 -->
<g id="edge2" class="edge">
<title>Node2&#45;&gt;Node3</title>
<path fill="none" stroke="#191970" d="M724.8119,-64.5C733.4864,-64.5 742.2585,-64.5 750.9602,-64.5"/>
<polygon fill="#191970" stroke="#191970" points="724.6835,-61.0001 714.6835,-64.5 724.6835,-68.0001 724.6835,-61.0001"/>
</g>
<!-- Node4&#45;&gt;Node2 -->
<g id="edge5" class="edge">
<title>Node4&#45;&gt;Node2</title>
<path fill="none" stroke="#191970" d="M463.0527,-37.3357C485.2504,-41.3303 508.7861,-45.5658 530.5021,-49.4738"/>
<polygon fill="#191970" stroke="#191970" points="463.421,-33.8458 452.9592,-35.5192 462.1812,-40.7351 463.421,-33.8458"/>
</g>
<!-- Node5 -->
<g id="node5" class="node">
<title>Node5</title>
<g id="a_node5"><a xlink:href="../../d8/d55/classorg_1_1cobbzilla_1_1util_1_1io_1_1DamperedCompositeBufferedFilesystemWatcher_ad78a90f8ad45d8b695a8109fc5910f67.html#ad78a90f8ad45d8b695a8109fc5910f67" target="_top" xlink:title="org.cobbzilla.util.io.Dampered\lCompositeBufferedFilesystemWatcher.fire">
<polygon fill="none" stroke="#000000" points="513,-.5 513,-30.5 715,-30.5 715,-.5 513,-.5"/>
<text text-anchor="start" x="521" y="-18.5" font-family="Helvetica,sans-Serif" font-size="10.00" fill="#000000">org.cobbzilla.util.io.Dampered</text>
<text text-anchor="middle" x="614" y="-7.5" font-family="Helvetica,sans-Serif" font-size="10.00" fill="#000000">CompositeBufferedFilesystemWatcher.fire</text>
</a>
</g>
</g>
<!-- Node4&#45;&gt;Node5 -->
<g id="edge4" class="edge">
<title>Node4&#45;&gt;Node5</title>
<path fill="none" stroke="#191970" d="M487.1848,-18.0934C495.7986,-17.9172 504.4427,-17.7404 512.9456,-17.5666"/>
<polygon fill="#191970" stroke="#191970" points="487.0234,-14.5958 477.0971,-18.2997 487.1666,-21.5944 487.0234,-14.5958"/>
</g>
</g>
</svg>
