<?xml version="1.0" encoding="UTF-8" standalone="no"?>
<!DOCTYPE svg PUBLIC "-//W3C//DTD SVG 1.1//EN"
 "http://www.w3.org/Graphics/SVG/1.1/DTD/svg11.dtd">
<!-- Generated by graphviz version 2.40.1 (20161225.0304)
 -->
<!-- Title: org.cobbzilla.util.io.DamperedCompositeBufferedFilesystemWatcher.init Pages: 1 -->
<svg width="722pt" height="61pt"
 viewBox="0.00 0.00 722.00 61.00" xmlns="http://www.w3.org/2000/svg" xmlns:xlink="http://www.w3.org/1999/xlink">
<g id="graph0" class="graph" transform="scale(1 1) rotate(0) translate(4 57)">
<title>org.cobbzilla.util.io.DamperedCompositeBufferedFilesystemWatcher.init</title>
<!-- Node0 -->
<g id="node1" class="node">
<title>Node0</title>
<polygon fill="#bfbfbf" stroke="#000000" points="0,-.5 0,-30.5 201,-30.5 201,-.5 0,-.5"/>
<text text-anchor="start" x="8" y="-18.5" font-family="Helvetica,sans-Serif" font-size="10.00" fill="#000000">org.cobbzilla.util.io.Dampered</text>
<text text-anchor="middle" x="100.5" y="-7.5" font-family="Helvetica,sans-Serif" font-size="10.00" fill="#000000">CompositeBufferedFilesystemWatcher.init</text>
</g>
<!-- Node1 -->
<g id="node2" class="node">
<title>Node1</title>
<g id="a_node2"><a xlink:href="../../d8/d55/classorg_1_1cobbzilla_1_1util_1_1io_1_1DamperedCompositeBufferedFilesystemWatcher_adc982844650e9325f7971a09e1adc917.html#adc982844650e9325f7971a09e1adc917" target="_top" xlink:title="org.cobbzilla.util.io.Dampered\lCompositeBufferedFilesystemWatcher.status">
<polygon fill="none" stroke="#000000" points="237,-22.5 237,-52.5 452,-52.5 452,-22.5 237,-22.5"/>
<text text-anchor="start" x="245" y="-40.5" font-family="Helvetica,sans-Serif" font-size="10.00" fill="#000000">org.cobbzilla.util.io.Dampered</text>
<text text-anchor="middle" x="344.5" y="-29.5" font-family="Helvetica,sans-Serif" font-size="10.00" fill="#000000">CompositeBufferedFilesystemWatcher.status</text>
</a>
</g>
</g>
<!-- Node0&#45;&gt;Node1 -->
<g id="edge1" class="edge">
<title>Node0&#45;&gt;Node1</title>
<path fill="none" stroke="#191970" d="M201.1529,-24.5753C209.6447,-25.3409 218.2789,-26.1194 226.884,-26.8953"/>
<polygon fill="#191970" stroke="#191970" points="226.6881,-30.3917 236.962,-27.804 227.3168,-23.42 226.6881,-30.3917"/>
</g>
<!-- Node2 -->
<g id="node3" class="node">
<title>Node2</title>
<g id="a_node3"><a xlink:href="../../d8/d55/classorg_1_1cobbzilla_1_1util_1_1io_1_1DamperedCompositeBufferedFilesystemWatcher_a9213c11f92ecd3d29b0484bf21d47400.html#a9213c11f92ecd3d29b0484bf21d47400" target="_top" xlink:title="Called when the thing finally really fires. ">
<polygon fill="none" stroke="#000000" points="488,-.5 488,-30.5 714,-30.5 714,-.5 488,-.5"/>
<text text-anchor="start" x="496" y="-18.5" font-family="Helvetica,sans-Serif" font-size="10.00" fill="#000000">org.cobbzilla.util.io.Dampered</text>
<text text-anchor="middle" x="601" y="-7.5" font-family="Helvetica,sans-Serif" font-size="10.00" fill="#000000">CompositeBufferedFilesystemWatcher.uber_fire</text>
</a>
</g>
</g>
<!-- Node0&#45;&gt;Node2 -->
<g id="edge3" class="edge">
<title>Node0&#45;&gt;Node2</title>
<path fill="none" stroke="#191970" d="M201.1334,-13.8586C213.2189,-13.7108 225.3871,-13.5851 237,-13.5 332.553,-12.8 356.4466,-12.8587 452,-13.5 460.3673,-13.5562 468.9987,-13.63 477.6939,-13.7163"/>
<polygon fill="#191970" stroke="#191970" points="477.8826,-17.2184 487.9186,-13.8229 477.9557,-10.2187 477.8826,-17.2184"/>
</g>
<!-- Node1&#45;&gt;Node2 -->
<g id="edge2" class="edge">
<title>Node1&#45;&gt;Node2</title>
<path fill="none" stroke="#191970" d="M452.1642,-28.2656C460.6386,-27.5388 469.236,-26.8014 477.8034,-26.0666"/>
<polygon fill="#191970" stroke="#191970" points="478.1734,-29.5478 487.8377,-25.2059 477.5752,-22.5734 478.1734,-29.5478"/>
</g>
</g>
</svg>
