<?xml version="1.0" encoding="UTF-8" standalone="no"?>
<!DOCTYPE svg PUBLIC "-//W3C//DTD SVG 1.1//EN"
 "http://www.w3.org/Graphics/SVG/1.1/DTD/svg11.dtd">
<!-- Generated by graphviz version 2.40.1 (20161225.0304)
 -->
<!-- Title: org.cobbzilla.util.io.CompositeFilesystemWatcher&lt; T extends FilesystemWatcher &gt; Pages: 1 -->
<svg width="388pt" height="617pt"
 viewBox="0.00 0.00 388.00 617.00" xmlns="http://www.w3.org/2000/svg" xmlns:xlink="http://www.w3.org/1999/xlink">
<g id="graph0" class="graph" transform="scale(1 1) rotate(0) translate(4 613)">
<title>org.cobbzilla.util.io.CompositeFilesystemWatcher&lt; T extends FilesystemWatcher &gt;</title>
<!-- Node7 -->
<g id="node1" class="node">
<title>Node7</title>
<polygon fill="#bfbfbf" stroke="#000000" points="83,-.5 83,-211.5 237,-211.5 237,-.5 83,-.5"/>
<text text-anchor="start" x="91" y="-199.5" font-family="Helvetica,sans-Serif" font-size="10.00" fill="#000000">org.cobbzilla.util.io.Composite</text>
<text text-anchor="start" x="91" y="-188.5" font-family="Helvetica,sans-Serif" font-size="10.00" fill="#000000">FilesystemWatcher&lt; T extends</text>
<text text-anchor="middle" x="160" y="-177.5" font-family="Helvetica,sans-Serif" font-size="10.00" fill="#000000"> FilesystemWatcher &gt;</text>
<polyline fill="none" stroke="#000000" points="83,-170.5 237,-170.5 "/>
<text text-anchor="middle" x="160" y="-158.5" font-family="Helvetica,sans-Serif" font-size="10.00" fill="#000000"> </text>
<polyline fill="none" stroke="#000000" points="83,-151.5 237,-151.5 "/>
<text text-anchor="start" x="91" y="-139.5" font-family="Helvetica,sans-Serif" font-size="10.00" fill="#000000">+ close()</text>
<text text-anchor="start" x="91" y="-128.5" font-family="Helvetica,sans-Serif" font-size="10.00" fill="#000000">+ pathsWatching()</text>
<text text-anchor="start" x="91" y="-117.5" font-family="Helvetica,sans-Serif" font-size="10.00" fill="#000000">+ dirsWatching()</text>
<text text-anchor="start" x="91" y="-106.5" font-family="Helvetica,sans-Serif" font-size="10.00" fill="#000000">+ isEmpty()</text>
<text text-anchor="start" x="91" y="-95.5" font-family="Helvetica,sans-Serif" font-size="10.00" fill="#000000">+ add()</text>
<text text-anchor="start" x="91" y="-84.5" font-family="Helvetica,sans-Serif" font-size="10.00" fill="#000000">+ add()</text>
<text text-anchor="start" x="91" y="-73.5" font-family="Helvetica,sans-Serif" font-size="10.00" fill="#000000">+ add()</text>
<text text-anchor="start" x="91" y="-62.5" font-family="Helvetica,sans-Serif" font-size="10.00" fill="#000000">+ addAll()</text>
<text text-anchor="start" x="91" y="-51.5" font-family="Helvetica,sans-Serif" font-size="10.00" fill="#000000">+ addAll()</text>
<text text-anchor="start" x="91" y="-40.5" font-family="Helvetica,sans-Serif" font-size="10.00" fill="#000000">+ addAll()</text>
<text text-anchor="start" x="91" y="-29.5" font-family="Helvetica,sans-Serif" font-size="10.00" fill="#000000">+ addAll()</text>
<text text-anchor="start" x="91" y="-18.5" font-family="Helvetica,sans-Serif" font-size="10.00" fill="#000000">+ toString()</text>
<text text-anchor="start" x="91" y="-7.5" font-family="Helvetica,sans-Serif" font-size="10.00" fill="#000000"># newWatcher()</text>
</g>
<!-- Node8 -->
<g id="node2" class="node">
<title>Node8</title>
<polygon fill="none" stroke="#bfbfbf" points="0,-551.5 0,-608.5 60,-608.5 60,-551.5 0,-551.5"/>
<text text-anchor="middle" x="30" y="-596.5" font-family="Helvetica,sans-Serif" font-size="10.00" fill="#000000">Closeable</text>
<polyline fill="none" stroke="#bfbfbf" points="0,-589.5 60,-589.5 "/>
<text text-anchor="middle" x="30" y="-577.5" font-family="Helvetica,sans-Serif" font-size="10.00" fill="#000000"> </text>
<polyline fill="none" stroke="#bfbfbf" points="0,-570.5 60,-570.5 "/>
<text text-anchor="middle" x="30" y="-558.5" font-family="Helvetica,sans-Serif" font-size="10.00" fill="#000000"> </text>
</g>
<!-- Node8&#45;&gt;Node7 -->
<g id="edge1" class="edge">
<title>Node8&#45;&gt;Node7</title>
<path fill="none" stroke="#191970" d="M29.6069,-541.1708C30.1023,-479.6387 35.6762,-356.6918 69,-259 74.4379,-243.0583 81.6848,-226.97 89.7239,-211.52"/>
<polygon fill="none" stroke="#191970" points="26.1069,-541.2028 29.5676,-551.2165 33.1068,-541.2303 26.1069,-541.2028"/>
</g>
<!-- Node11 -->
<g id="node5" class="node">
<title>Node11</title>
<g id="a_node5"><a xlink:href="../../d3/d98/classorg_1_1cobbzilla_1_1util_1_1io_1_1FilesystemWatcher.html" target="_top" xlink:title="{org.cobbzilla.util.io.Filesystem\lWatcher\n|+ STOP_TIMEOUT\l&#45; thread\l|+ FilesystemWatcher()\l+ FilesystemWatcher()\l+ start()\l+ stop()\l+ close()\l+ toFile()\l+ run()\l# handleEvent()\l# onDirCreated()\l# onFileCreated()\l# onDirModified()\l# onFileModified()\l# onDirDeleted()\l# onFileDeleted()\l# getSleepWhileNotExists()\l# getSleepAfterUnexpectedError()\l}">
<polygon fill="none" stroke="#000000" points="78,-259.5 78,-503.5 242,-503.5 242,-259.5 78,-259.5"/>
<text text-anchor="start" x="86" y="-491.5" font-family="Helvetica,sans-Serif" font-size="10.00" fill="#000000">org.cobbzilla.util.io.Filesystem</text>
<text text-anchor="middle" x="160" y="-480.5" font-family="Helvetica,sans-Serif" font-size="10.00" fill="#000000">Watcher</text>
<polyline fill="none" stroke="#000000" points="78,-473.5 242,-473.5 "/>
<text text-anchor="start" x="86" y="-461.5" font-family="Helvetica,sans-Serif" font-size="10.00" fill="#000000">+ STOP_TIMEOUT</text>
<text text-anchor="start" x="86" y="-450.5" font-family="Helvetica,sans-Serif" font-size="10.00" fill="#000000">&#45; thread</text>
<polyline fill="none" stroke="#000000" points="78,-443.5 242,-443.5 "/>
<text text-anchor="start" x="86" y="-431.5" font-family="Helvetica,sans-Serif" font-size="10.00" fill="#000000">+ FilesystemWatcher()</text>
<text text-anchor="start" x="86" y="-420.5" font-family="Helvetica,sans-Serif" font-size="10.00" fill="#000000">+ FilesystemWatcher()</text>
<text text-anchor="start" x="86" y="-409.5" font-family="Helvetica,sans-Serif" font-size="10.00" fill="#000000">+ start()</text>
<text text-anchor="start" x="86" y="-398.5" font-family="Helvetica,sans-Serif" font-size="10.00" fill="#000000">+ stop()</text>
<text text-anchor="start" x="86" y="-387.5" font-family="Helvetica,sans-Serif" font-size="10.00" fill="#000000">+ close()</text>
<text text-anchor="start" x="86" y="-376.5" font-family="Helvetica,sans-Serif" font-size="10.00" fill="#000000">+ toFile()</text>
<text text-anchor="start" x="86" y="-365.5" font-family="Helvetica,sans-Serif" font-size="10.00" fill="#000000">+ run()</text>
<text text-anchor="start" x="86" y="-354.5" font-family="Helvetica,sans-Serif" font-size="10.00" fill="#000000"># handleEvent()</text>
<text text-anchor="start" x="86" y="-343.5" font-family="Helvetica,sans-Serif" font-size="10.00" fill="#000000"># onDirCreated()</text>
<text text-anchor="start" x="86" y="-332.5" font-family="Helvetica,sans-Serif" font-size="10.00" fill="#000000"># onFileCreated()</text>
<text text-anchor="start" x="86" y="-321.5" font-family="Helvetica,sans-Serif" font-size="10.00" fill="#000000"># onDirModified()</text>
<text text-anchor="start" x="86" y="-310.5" font-family="Helvetica,sans-Serif" font-size="10.00" fill="#000000"># onFileModified()</text>
<text text-anchor="start" x="86" y="-299.5" font-family="Helvetica,sans-Serif" font-size="10.00" fill="#000000"># onDirDeleted()</text>
<text text-anchor="start" x="86" y="-288.5" font-family="Helvetica,sans-Serif" font-size="10.00" fill="#000000"># onFileDeleted()</text>
<text text-anchor="start" x="86" y="-277.5" font-family="Helvetica,sans-Serif" font-size="10.00" fill="#000000"># getSleepWhileNotExists()</text>
<text text-anchor="start" x="86" y="-266.5" font-family="Helvetica,sans-Serif" font-size="10.00" fill="#000000"># getSleepAfterUnexpectedError()</text>
</a>
</g>
</g>
<!-- Node8&#45;&gt;Node11 -->
<g id="edge6" class="edge">
<title>Node8&#45;&gt;Node11</title>
<path fill="none" stroke="#191970" d="M54.4466,-542.6719C62.0253,-531.0998 70.8289,-517.6575 80.0573,-503.5664"/>
<polygon fill="none" stroke="#191970" points="51.4539,-540.8532 48.9031,-551.1364 57.3099,-544.6883 51.4539,-540.8532"/>
</g>
<!-- Node9 -->
<g id="node3" class="node">
<title>Node9</title>
<polygon fill="none" stroke="#bfbfbf" points="273,-353 273,-410 359,-410 359,-353 273,-353"/>
<text text-anchor="middle" x="316" y="-398" font-family="Helvetica,sans-Serif" font-size="10.00" fill="#000000">Map&lt; Path, T &gt;</text>
<polyline fill="none" stroke="#bfbfbf" points="273,-391 359,-391 "/>
<text text-anchor="middle" x="316" y="-379" font-family="Helvetica,sans-Serif" font-size="10.00" fill="#000000"> </text>
<polyline fill="none" stroke="#bfbfbf" points="273,-372 359,-372 "/>
<text text-anchor="middle" x="316" y="-360" font-family="Helvetica,sans-Serif" font-size="10.00" fill="#000000"> </text>
</g>
<!-- Node9&#45;&gt;Node7 -->
<g id="edge2" class="edge">
<title>Node9&#45;&gt;Node7</title>
<path fill="none" stroke="#404040" d="M301.1576,-352.5741C288.2302,-327.6146 268.8172,-290.6891 251,-259 244.2549,-247.0035 237.103,-234.551 229.8897,-222.1642"/>
<polygon fill="none" stroke="#404040" points="229.8793,-222.1462 223.3981,-218.9847 223.8237,-211.7861 230.3049,-214.9477 229.8793,-222.1462"/>
<text text-anchor="middle" x="263" y="-233" font-family="Helvetica,sans-Serif" font-size="10.00" fill="#000000"> &#45;watchers</text>
</g>
<!-- Node10 -->
<g id="node4" class="node">
<title>Node10</title>
<polygon fill="none" stroke="#bfbfbf" points="310.5,-551.5 310.5,-608.5 345.5,-608.5 345.5,-551.5 310.5,-551.5"/>
<text text-anchor="middle" x="328" y="-596.5" font-family="Helvetica,sans-Serif" font-size="10.00" fill="#000000">Map</text>
<polyline fill="none" stroke="#bfbfbf" points="310.5,-589.5 345.5,-589.5 "/>
<text text-anchor="middle" x="328" y="-577.5" font-family="Helvetica,sans-Serif" font-size="10.00" fill="#000000"> </text>
<polyline fill="none" stroke="#bfbfbf" points="310.5,-570.5 345.5,-570.5 "/>
<text text-anchor="middle" x="328" y="-558.5" font-family="Helvetica,sans-Serif" font-size="10.00" fill="#000000"> </text>
</g>
<!-- Node10&#45;&gt;Node9 -->
<g id="edge3" class="edge">
<title>Node10&#45;&gt;Node9</title>
<path fill="none" stroke="#ffa500" d="M325.6315,-540.8218C323.3032,-502.3069 319.8052,-444.4444 317.7275,-410.0764"/>
<polygon fill="#ffa500" stroke="#ffa500" points="322.158,-541.3659 326.2551,-551.1364 329.1452,-540.9434 322.158,-541.3659"/>
<text text-anchor="middle" x="353" y="-525" font-family="Helvetica,sans-Serif" font-size="10.00" fill="#000000"> &lt; Path, T &gt;</text>
</g>
<!-- Node11&#45;&gt;Node7 -->
<g id="edge4" class="edge">
<title>Node11&#45;&gt;Node7</title>
<path fill="none" stroke="#ffa500" d="M160,-249.3188C160,-236.6484 160,-223.915 160,-211.5484"/>
<polygon fill="#ffa500" stroke="#ffa500" points="156.5001,-249.4585 160,-259.4586 163.5001,-249.4586 156.5001,-249.4585"/>
<text text-anchor="middle" x="165" y="-233" font-family="Helvetica,sans-Serif" font-size="10.00" fill="#000000"> T</text>
</g>
<!-- Node12 -->
<g id="node6" class="node">
<title>Node12</title>
<polygon fill="none" stroke="#bfbfbf" points="78,-551.5 78,-608.5 136,-608.5 136,-551.5 78,-551.5"/>
<text text-anchor="middle" x="107" y="-596.5" font-family="Helvetica,sans-Serif" font-size="10.00" fill="#000000">Runnable</text>
<polyline fill="none" stroke="#bfbfbf" points="78,-589.5 136,-589.5 "/>
<text text-anchor="middle" x="107" y="-577.5" font-family="Helvetica,sans-Serif" font-size="10.00" fill="#000000"> </text>
<polyline fill="none" stroke="#bfbfbf" points="78,-570.5 136,-570.5 "/>
<text text-anchor="middle" x="107" y="-558.5" font-family="Helvetica,sans-Serif" font-size="10.00" fill="#000000"> </text>
</g>
<!-- Node12&#45;&gt;Node11 -->
<g id="edge5" class="edge">
<title>Node12&#45;&gt;Node11</title>
<path fill="none" stroke="#191970" d="M117.3325,-541.302C120.3382,-530.0445 123.7932,-517.1049 127.408,-503.5664"/>
<polygon fill="none" stroke="#191970" points="113.9048,-540.5719 114.7067,-551.1364 120.6679,-542.3778 113.9048,-540.5719"/>
</g>
<!-- Node13 -->
<g id="node7" class="node">
<title>Node13</title>
<polygon fill="none" stroke="#bfbfbf" points="154.5,-551.5 154.5,-608.5 191.5,-608.5 191.5,-551.5 154.5,-551.5"/>
<text text-anchor="middle" x="173" y="-596.5" font-family="Helvetica,sans-Serif" font-size="10.00" fill="#000000">Path</text>
<polyline fill="none" stroke="#bfbfbf" points="154.5,-589.5 191.5,-589.5 "/>
<text text-anchor="middle" x="173" y="-577.5" font-family="Helvetica,sans-Serif" font-size="10.00" fill="#000000"> </text>
<polyline fill="none" stroke="#bfbfbf" points="154.5,-570.5 191.5,-570.5 "/>
<text text-anchor="middle" x="173" y="-558.5" font-family="Helvetica,sans-Serif" font-size="10.00" fill="#000000"> </text>
</g>
<!-- Node13&#45;&gt;Node11 -->
<g id="edge7" class="edge">
<title>Node13&#45;&gt;Node11</title>
<path fill="none" stroke="#404040" d="M171.1097,-551.1364C170.4465,-541.0104 169.6515,-528.8706 168.7955,-515.8003"/>
<polygon fill="none" stroke="#404040" points="168.7786,-515.5407 164.395,-509.815 167.9943,-503.5664 172.3779,-509.2921 168.7786,-515.5407"/>
<text text-anchor="middle" x="182.5" y="-525" font-family="Helvetica,sans-Serif" font-size="10.00" fill="#000000"> &#45;path</text>
</g>
<!-- Node14 -->
<g id="node8" class="node">
<title>Node14</title>
<polygon fill="none" stroke="#bfbfbf" points="209.5,-551.5 209.5,-608.5 292.5,-608.5 292.5,-551.5 209.5,-551.5"/>
<text text-anchor="middle" x="251" y="-596.5" font-family="Helvetica,sans-Serif" font-size="10.00" fill="#000000">AtomicBoolean</text>
<polyline fill="none" stroke="#bfbfbf" points="209.5,-589.5 292.5,-589.5 "/>
<text text-anchor="middle" x="251" y="-577.5" font-family="Helvetica,sans-Serif" font-size="10.00" fill="#000000"> </text>
<polyline fill="none" stroke="#bfbfbf" points="209.5,-570.5 292.5,-570.5 "/>
<text text-anchor="middle" x="251" y="-558.5" font-family="Helvetica,sans-Serif" font-size="10.00" fill="#000000"> </text>
</g>
<!-- Node14&#45;&gt;Node11 -->
<g id="edge8" class="edge">
<title>Node14&#45;&gt;Node11</title>
<path fill="none" stroke="#404040" d="M237.7678,-551.1364C232.9836,-540.7005 227.2187,-528.1255 221.0169,-514.5973"/>
<polygon fill="none" stroke="#404040" points="220.9608,-514.4747 214.8242,-510.6875 215.9599,-503.5664 222.0964,-507.3536 220.9608,-514.4747"/>
<text text-anchor="middle" x="244" y="-525" font-family="Helvetica,sans-Serif" font-size="10.00" fill="#000000"> &#45;done</text>
</g>
</g>
</svg>
