<?xml version="1.0" encoding="UTF-8" standalone="no"?>
<!DOCTYPE svg PUBLIC "-//W3C//DTD SVG 1.1//EN"
 "http://www.w3.org/Graphics/SVG/1.1/DTD/svg11.dtd">
<!-- Generated by graphviz version 2.40.1 (20161225.0304)
 -->
<!-- Title: org.cobbzilla.util.http.CookieJar Pages: 1 -->
<!--zoomable 602 -->
<svg id="main" version="1.1" xmlns="http://www.w3.org/2000/svg" xmlns:xlink="http://www.w3.org/1999/xlink" xml:space="preserve" onload="init(evt)">
<style type="text/css"><![CDATA[
.edge:hover path { stroke: red; }
.edge:hover polygon { stroke: red; fill: red; }
]]></style>
<script type="text/javascript"><![CDATA[
var edges = document.getElementsByTagName('g');
if (edges && edges.length) {
  for (var i=0;i<edges.length;i++) {
    if (edges[i].id.substr(0,4)=='edge') {
      edges[i].setAttribute('class','edge');
    }
  }
}
]]></script>
        <defs>
                <circle id="rim" cx="0" cy="0" r="7"/>
                <circle id="rim2" cx="0" cy="0" r="3.5"/>
                <g id="zoomPlus">
                        <use xlink:href="#rim" fill="#404040">
                                <set attributeName="fill" to="#808080" begin="zoomplus.mouseover" end="zoomplus.mouseout"/>
                        </use>
                        <path d="M-4,0h8M0,-4v8" fill="none" stroke="white" stroke-width="1.5" pointer-events="none"/>
                </g>
                <g id="zoomMin">
                        <use xlink:href="#rim" fill="#404040">
                                <set attributeName="fill" to="#808080" begin="zoomminus.mouseover" end="zoomminus.mouseout"/>
                        </use>
                        <path d="M-4,0h8" fill="none" stroke="white" stroke-width="1.5" pointer-events="none"/>
                </g>
                <g id="dirArrow">
                        <path fill="none" stroke="white" stroke-width="1.5" d="M0,-3.0v7 M-2.5,-0.5L0,-3.0L2.5,-0.5"/>
                </g>
               <g id="resetDef">
                       <use xlink:href="#rim2" fill="#404040">
                               <set attributeName="fill" to="#808080" begin="reset.mouseover" end="reset.mouseout"/>
                       </use>
               </g>
        </defs>

<script type="text/javascript">
var viewWidth = 331;
var viewHeight = 602;
var sectionId = 'dynsection-1';
</script>
<script xlink:href="../../svgpan.js"/>
<svg id="graph" class="graph">
<g id="viewport">
<title>org.cobbzilla.util.http.CookieJar</title>
<!-- Node4 -->
<g id="node1" class="node">
<title>Node4</title>
<polygon fill="#bfbfbf" stroke="#000000" points="114.5,-.5 114.5,-145.5 224.5,-145.5 224.5,-.5 114.5,-.5"/>
<text text-anchor="start" x="122.5" y="-133.5" font-family="Helvetica,sans-Serif" font-size="10.00" fill="#000000">org.cobbzilla.util.http.</text>
<text text-anchor="middle" x="169.5" y="-122.5" font-family="Helvetica,sans-Serif" font-size="10.00" fill="#000000">CookieJar</text>
<polyline fill="none" stroke="#000000" points="114.5,-115.5 224.5,-115.5 "/>
<text text-anchor="middle" x="169.5" y="-103.5" font-family="Helvetica,sans-Serif" font-size="10.00" fill="#000000"> </text>
<polyline fill="none" stroke="#000000" points="114.5,-96.5 224.5,-96.5 "/>
<text text-anchor="start" x="122.5" y="-84.5" font-family="Helvetica,sans-Serif" font-size="10.00" fill="#000000">+ CookieJar()</text>
<text text-anchor="start" x="122.5" y="-73.5" font-family="Helvetica,sans-Serif" font-size="10.00" fill="#000000">+ CookieJar()</text>
<text text-anchor="start" x="122.5" y="-62.5" font-family="Helvetica,sans-Serif" font-size="10.00" fill="#000000">+ add()</text>
<text text-anchor="start" x="122.5" y="-51.5" font-family="Helvetica,sans-Serif" font-size="10.00" fill="#000000">+ getRequestValue()</text>
<text text-anchor="start" x="122.5" y="-40.5" font-family="Helvetica,sans-Serif" font-size="10.00" fill="#000000">+ getCookiesList()</text>
<text text-anchor="start" x="122.5" y="-29.5" font-family="Helvetica,sans-Serif" font-size="10.00" fill="#000000">+ addCookie()</text>
<text text-anchor="start" x="122.5" y="-18.5" font-family="Helvetica,sans-Serif" font-size="10.00" fill="#000000">+ getCookies()</text>
<text text-anchor="start" x="122.5" y="-7.5" font-family="Helvetica,sans-Serif" font-size="10.00" fill="#000000">+ clearExpired()</text>
</g>
<!-- Node5 -->
<g id="node2" class="node">
<title>Node5</title>
<g id="a_node2"><a xlink:href="../../d4/d12/classorg_1_1cobbzilla_1_1util_1_1collection_1_1CaseInsensitiveStringKeyMap.html" target="_top" xlink:title="{org::cobbzilla::util\l::collection::CaseInsensitive\lStringKeyMap\&lt; HttpCookieBean \&gt;\n||+ key()\l+ keySet()\l+ keys()\l+ get()\l+ containsKey()\l+ put()\l+ putIfAbsent()\l+ remove()\l+ remove()\l+ replace()\l+ replace()\l}">
<polygon fill="none" stroke="#000000" points="16.5,-183.5 16.5,-372.5 184.5,-372.5 184.5,-183.5 16.5,-183.5"/>
<text text-anchor="start" x="24.5" y="-360.5" font-family="Helvetica,sans-Serif" font-size="10.00" fill="#000000">org::cobbzilla::util</text>
<text text-anchor="start" x="24.5" y="-349.5" font-family="Helvetica,sans-Serif" font-size="10.00" fill="#000000">::collection::CaseInsensitive</text>
<text text-anchor="middle" x="100.5" y="-338.5" font-family="Helvetica,sans-Serif" font-size="10.00" fill="#000000">StringKeyMap&lt; HttpCookieBean &gt;</text>
<polyline fill="none" stroke="#000000" points="16.5,-331.5 184.5,-331.5 "/>
<text text-anchor="middle" x="100.5" y="-319.5" font-family="Helvetica,sans-Serif" font-size="10.00" fill="#000000"> </text>
<polyline fill="none" stroke="#000000" points="16.5,-312.5 184.5,-312.5 "/>
<text text-anchor="start" x="24.5" y="-300.5" font-family="Helvetica,sans-Serif" font-size="10.00" fill="#000000">+ key()</text>
<text text-anchor="start" x="24.5" y="-289.5" font-family="Helvetica,sans-Serif" font-size="10.00" fill="#000000">+ keySet()</text>
<text text-anchor="start" x="24.5" y="-278.5" font-family="Helvetica,sans-Serif" font-size="10.00" fill="#000000">+ keys()</text>
<text text-anchor="start" x="24.5" y="-267.5" font-family="Helvetica,sans-Serif" font-size="10.00" fill="#000000">+ get()</text>
<text text-anchor="start" x="24.5" y="-256.5" font-family="Helvetica,sans-Serif" font-size="10.00" fill="#000000">+ containsKey()</text>
<text text-anchor="start" x="24.5" y="-245.5" font-family="Helvetica,sans-Serif" font-size="10.00" fill="#000000">+ put()</text>
<text text-anchor="start" x="24.5" y="-234.5" font-family="Helvetica,sans-Serif" font-size="10.00" fill="#000000">+ putIfAbsent()</text>
<text text-anchor="start" x="24.5" y="-223.5" font-family="Helvetica,sans-Serif" font-size="10.00" fill="#000000">+ remove()</text>
<text text-anchor="start" x="24.5" y="-212.5" font-family="Helvetica,sans-Serif" font-size="10.00" fill="#000000">+ remove()</text>
<text text-anchor="start" x="24.5" y="-201.5" font-family="Helvetica,sans-Serif" font-size="10.00" fill="#000000">+ replace()</text>
<text text-anchor="start" x="24.5" y="-190.5" font-family="Helvetica,sans-Serif" font-size="10.00" fill="#000000">+ replace()</text>
</a>
</g>
</g>
<!-- Node5&#45;&gt;Node4 -->
<g id="edge1" class="edge">
<title>Node5&#45;&gt;Node4</title>
<path fill="none" stroke="#191970" d="M135.5848,-173.7625C138.7972,-164.2186 142.0027,-154.6948 145.0901,-145.5221"/>
<polygon fill="none" stroke="#191970" points="132.2473,-172.7068 132.3743,-183.3009 138.8815,-174.9399 132.2473,-172.7068"/>
</g>
<!-- Node6 -->
<g id="node3" class="node">
<title>Node6</title>
<polygon fill="none" stroke="#bfbfbf" points="0,-420.5 0,-488.5 169,-488.5 169,-420.5 0,-420.5"/>
<text text-anchor="start" x="8" y="-476.5" font-family="Helvetica,sans-Serif" font-size="10.00" fill="#000000">java::util::concurrent</text>
<text text-anchor="middle" x="84.5" y="-465.5" font-family="Helvetica,sans-Serif" font-size="10.00" fill="#000000">::ConcurrentHashMap&lt; String, V &gt;</text>
<polyline fill="none" stroke="#bfbfbf" points="0,-458.5 169,-458.5 "/>
<text text-anchor="middle" x="84.5" y="-446.5" font-family="Helvetica,sans-Serif" font-size="10.00" fill="#000000"> </text>
<polyline fill="none" stroke="#bfbfbf" points="0,-439.5 169,-439.5 "/>
<text text-anchor="middle" x="84.5" y="-427.5" font-family="Helvetica,sans-Serif" font-size="10.00" fill="#000000"> </text>
</g>
<!-- Node6&#45;&gt;Node5 -->
<g id="edge2" class="edge">
<title>Node6&#45;&gt;Node5</title>
<path fill="none" stroke="#191970" d="M88.5064,-410.3045C89.5503,-398.7885 90.7163,-385.9262 91.8999,-372.8697"/>
<polygon fill="none" stroke="#191970" points="85.0022,-410.1938 87.585,-420.469 91.9736,-410.8259 85.0022,-410.1938"/>
</g>
<!-- Node7 -->
<g id="node4" class="node">
<title>Node7</title>
<polygon fill="none" stroke="#bfbfbf" points="187,-420.5 187,-488.5 300,-488.5 300,-420.5 187,-420.5"/>
<text text-anchor="start" x="195" y="-476.5" font-family="Helvetica,sans-Serif" font-size="10.00" fill="#000000">ConcurrentHashMap&lt;</text>
<text text-anchor="middle" x="243.5" y="-465.5" font-family="Helvetica,sans-Serif" font-size="10.00" fill="#000000"> String, String &gt;</text>
<polyline fill="none" stroke="#bfbfbf" points="187,-458.5 300,-458.5 "/>
<text text-anchor="middle" x="243.5" y="-446.5" font-family="Helvetica,sans-Serif" font-size="10.00" fill="#000000"> </text>
<polyline fill="none" stroke="#bfbfbf" points="187,-439.5 300,-439.5 "/>
<text text-anchor="middle" x="243.5" y="-427.5" font-family="Helvetica,sans-Serif" font-size="10.00" fill="#000000"> </text>
</g>
<!-- Node7&#45;&gt;Node5 -->
<g id="edge3" class="edge">
<title>Node7&#45;&gt;Node5</title>
<path fill="none" stroke="#404040" d="M215.9282,-420.469C206.828,-409.2371 196.1779,-396.092 185.0931,-382.4104"/>
<polygon fill="none" stroke="#404040" points="184.9175,-382.1936 178.0324,-380.0497 177.3633,-372.8697 184.2483,-375.0136 184.9175,-382.1936"/>
<text text-anchor="middle" x="220" y="-394" font-family="Helvetica,sans-Serif" font-size="10.00" fill="#000000"> &#45;origKeys</text>
</g>
<!-- Node8 -->
<g id="node5" class="node">
<title>Node8</title>
<polygon fill="none" stroke="#bfbfbf" points="190,-536.5 190,-593.5 297,-593.5 297,-536.5 190,-536.5"/>
<text text-anchor="middle" x="243.5" y="-581.5" font-family="Helvetica,sans-Serif" font-size="10.00" fill="#000000">ConcurrentHashMap</text>
<polyline fill="none" stroke="#bfbfbf" points="190,-574.5 297,-574.5 "/>
<text text-anchor="middle" x="243.5" y="-562.5" font-family="Helvetica,sans-Serif" font-size="10.00" fill="#000000"> </text>
<polyline fill="none" stroke="#bfbfbf" points="190,-555.5 297,-555.5 "/>
<text text-anchor="middle" x="243.5" y="-543.5" font-family="Helvetica,sans-Serif" font-size="10.00" fill="#000000"> </text>
</g>
<!-- Node8&#45;&gt;Node7 -->
<g id="edge4" class="edge">
<title>Node8&#45;&gt;Node7</title>
<path fill="none" stroke="#ffa500" d="M243.5,-525.9162C243.5,-513.7375 243.5,-500.4096 243.5,-488.6001"/>
<polygon fill="#ffa500" stroke="#ffa500" points="240.0001,-526.2559 243.5,-536.2559 247.0001,-526.2559 240.0001,-526.2559"/>
<text text-anchor="middle" x="283" y="-510" font-family="Helvetica,sans-Serif" font-size="10.00" fill="#000000"> &lt; String, String &gt;</text>
</g>
<!-- Node9 -->
<g id="node6" class="node">
<title>Node9</title>
<polygon fill="none" stroke="#bfbfbf" points="203,-249.5 203,-306.5 274,-306.5 274,-249.5 203,-249.5"/>
<text text-anchor="middle" x="238.5" y="-294.5" font-family="Helvetica,sans-Serif" font-size="10.00" fill="#000000">CookieStore</text>
<polyline fill="none" stroke="#bfbfbf" points="203,-287.5 274,-287.5 "/>
<text text-anchor="middle" x="238.5" y="-275.5" font-family="Helvetica,sans-Serif" font-size="10.00" fill="#000000"> </text>
<polyline fill="none" stroke="#bfbfbf" points="203,-268.5 274,-268.5 "/>
<text text-anchor="middle" x="238.5" y="-256.5" font-family="Helvetica,sans-Serif" font-size="10.00" fill="#000000"> </text>
</g>
<!-- Node9&#45;&gt;Node4 -->
<g id="edge5" class="edge">
<title>Node9&#45;&gt;Node4</title>
<path fill="none" stroke="#191970" d="M225.6711,-239.8852C216.7952,-213.5147 204.7034,-177.5897 194.012,-145.8255"/>
<polygon fill="none" stroke="#191970" points="222.3986,-241.1346 228.9058,-249.4956 229.0329,-238.9016 222.3986,-241.1346"/>
</g>
</g>
</svg>
        <g id="navigator" transform="translate(0 0)" fill="#404254">
                <rect fill="#f2f5e9" fill-opacity="0.5" stroke="#606060" stroke-width=".5" x="0" y="0" width="60" height="60"/>
                <use id="zoomplus" xlink:href="#zoomPlus" x="17" y="9" onmousedown="handleZoom(evt,'in')"/>
                <use id="zoomminus" xlink:href="#zoomMin" x="42" y="9" onmousedown="handleZoom(evt,'out')"/>
                <use id="reset" xlink:href="#resetDef" x="30" y="36" onmousedown="handleReset()"/>
                <g id="arrowUp" xlink:href="#dirArrow" transform="translate(30 24)" onmousedown="handlePan(0,-1)">
                  <use xlink:href="#rim" fill="#404040">
                        <set attributeName="fill" to="#808080" begin="arrowUp.mouseover" end="arrowUp.mouseout"/>
                  </use>
                  <path fill="none" stroke="white" stroke-width="1.5" d="M0,-3.0v7 M-2.5,-0.5L0,-3.0L2.5,-0.5"/>
                </g>
                <g id="arrowRight" xlink:href="#dirArrow" transform="rotate(90) translate(36 -43)" onmousedown="handlePan(1,0)">
                  <use xlink:href="#rim" fill="#404040">
                        <set attributeName="fill" to="#808080" begin="arrowRight.mouseover" end="arrowRight.mouseout"/>
                  </use>
                  <path fill="none" stroke="white" stroke-width="1.5" d="M0,-3.0v7 M-2.5,-0.5L0,-3.0L2.5,-0.5"/>
                </g>
                <g id="arrowDown" xlink:href="#dirArrow" transform="rotate(180) translate(-30 -48)" onmousedown="handlePan(0,1)">
                  <use xlink:href="#rim" fill="#404040">
                        <set attributeName="fill" to="#808080" begin="arrowDown.mouseover" end="arrowDown.mouseout"/>
                  </use>
                  <path fill="none" stroke="white" stroke-width="1.5" d="M0,-3.0v7 M-2.5,-0.5L0,-3.0L2.5,-0.5"/>
                </g>
                <g id="arrowLeft" xlink:href="#dirArrow" transform="rotate(270) translate(-36 17)" onmousedown="handlePan(-1,0)">
                  <use xlink:href="#rim" fill="#404040">
                        <set attributeName="fill" to="#808080" begin="arrowLeft.mouseover" end="arrowLeft.mouseout"/>
                  </use>
                  <path fill="none" stroke="white" stroke-width="1.5" d="M0,-3.0v7 M-2.5,-0.5L0,-3.0L2.5,-0.5"/>
                </g>
        </g>
        <svg viewBox="0 0 15 15" width="100%" height="30px" preserveAspectRatio="xMaxYMin meet">
         <g id="arrow_out" transform="scale(0.3 0.3)">
          <a xlink:href="classorg_1_1cobbzilla_1_1util_1_1http_1_1CookieJar__coll__graph_org.svg" target="_base">
           <rect id="button" ry="5" rx="5" y="6" x="6" height="38" width="38"
                fill="#f2f5e9" fill-opacity="0.5" stroke="#606060" stroke-width="1.0"/>
           <path id="arrow"
             d="M 11.500037,31.436501 C 11.940474,20.09759 22.043105,11.32322 32.158766,21.979434 L 37.068811,17.246167 C 37.068811,17.246167 37.088388,32 37.088388,32 L 22.160133,31.978069 C 22.160133,31.978069 26.997745,27.140456 26.997745,27.140456 C 18.528582,18.264221 13.291696,25.230495 11.500037,31.436501 z"
             style="fill:#404040;"/>
          </a>
         </g>
        </svg>
</svg>
