<?xml version="1.0" encoding="UTF-8" standalone="no"?>
<!DOCTYPE svg PUBLIC "-//W3C//DTD SVG 1.1//EN"
 "http://www.w3.org/Graphics/SVG/1.1/DTD/svg11.dtd">
<!-- Generated by graphviz version 2.40.1 (20161225.0304)
 -->
<!-- Title: org.cobbzilla.util.time.TimeUtil Pages: 1 -->
<svg width="379pt" height="424pt"
 viewBox="0.00 0.00 379.00 424.00" xmlns="http://www.w3.org/2000/svg" xmlns:xlink="http://www.w3.org/1999/xlink">
<g id="graph0" class="graph" transform="scale(1 1) rotate(0) translate(4 420)">
<title>org.cobbzilla.util.time.TimeUtil</title>
<!-- Node1 -->
<g id="node1" class="node">
<title>Node1</title>
<polygon fill="#bfbfbf" stroke="#000000" points="52.5,-.5 52.5,-211.5 171.5,-211.5 171.5,-.5 52.5,-.5"/>
<text text-anchor="start" x="60.5" y="-199.5" font-family="Helvetica,sans-Serif" font-size="10.00" fill="#000000">org.cobbzilla.util.time.</text>
<text text-anchor="middle" x="112" y="-188.5" font-family="Helvetica,sans-Serif" font-size="10.00" fill="#000000">TimeUtil</text>
<polyline fill="none" stroke="#000000" points="52.5,-181.5 171.5,-181.5 "/>
<text text-anchor="start" x="60.5" y="-169.5" font-family="Helvetica,sans-Serif" font-size="10.00" fill="#000000">+ DAY</text>
<text text-anchor="start" x="60.5" y="-158.5" font-family="Helvetica,sans-Serif" font-size="10.00" fill="#000000">+ HOUR</text>
<text text-anchor="start" x="60.5" y="-147.5" font-family="Helvetica,sans-Serif" font-size="10.00" fill="#000000">+ MINUTE</text>
<text text-anchor="start" x="60.5" y="-136.5" font-family="Helvetica,sans-Serif" font-size="10.00" fill="#000000">+ SECOND</text>
<polyline fill="none" stroke="#000000" points="52.5,-129.5 171.5,-129.5 "/>
<text text-anchor="start" x="60.5" y="-117.5" font-family="Helvetica,sans-Serif" font-size="10.00" fill="#000000">+ parse()</text>
<text text-anchor="start" x="60.5" y="-106.5" font-family="Helvetica,sans-Serif" font-size="10.00" fill="#000000">+ parse()</text>
<text text-anchor="start" x="60.5" y="-95.5" font-family="Helvetica,sans-Serif" font-size="10.00" fill="#000000">+ parse()</text>
<text text-anchor="start" x="60.5" y="-84.5" font-family="Helvetica,sans-Serif" font-size="10.00" fill="#000000">+ parse()</text>
<text text-anchor="start" x="60.5" y="-73.5" font-family="Helvetica,sans-Serif" font-size="10.00" fill="#000000">+ format()</text>
<text text-anchor="start" x="60.5" y="-62.5" font-family="Helvetica,sans-Serif" font-size="10.00" fill="#000000">+ formatDurationFrom()</text>
<text text-anchor="start" x="60.5" y="-51.5" font-family="Helvetica,sans-Serif" font-size="10.00" fill="#000000">+ formatDuration()</text>
<text text-anchor="start" x="60.5" y="-40.5" font-family="Helvetica,sans-Serif" font-size="10.00" fill="#000000">+ parseDuration()</text>
<text text-anchor="start" x="60.5" y="-29.5" font-family="Helvetica,sans-Serif" font-size="10.00" fill="#000000">+ addYear()</text>
<text text-anchor="start" x="60.5" y="-18.5" font-family="Helvetica,sans-Serif" font-size="10.00" fill="#000000">+ add365days()</text>
<text text-anchor="start" x="60.5" y="-7.5" font-family="Helvetica,sans-Serif" font-size="10.00" fill="#000000">and 30 more...</text>
</g>
<!-- Node2 -->
<g id="node2" class="node">
<title>Node2</title>
<polygon fill="none" stroke="#bfbfbf" points="0,-358.5 0,-415.5 86,-415.5 86,-358.5 0,-358.5"/>
<text text-anchor="middle" x="43" y="-403.5" font-family="Helvetica,sans-Serif" font-size="10.00" fill="#000000">PeriodFormatter</text>
<polyline fill="none" stroke="#bfbfbf" points="0,-396.5 86,-396.5 "/>
<text text-anchor="middle" x="43" y="-384.5" font-family="Helvetica,sans-Serif" font-size="10.00" fill="#000000"> </text>
<polyline fill="none" stroke="#bfbfbf" points="0,-377.5 86,-377.5 "/>
<text text-anchor="middle" x="43" y="-365.5" font-family="Helvetica,sans-Serif" font-size="10.00" fill="#000000"> </text>
</g>
<!-- Node2&#45;&gt;Node1 -->
<g id="edge1" class="edge">
<title>Node2&#45;&gt;Node1</title>
<path fill="none" stroke="#404040" d="M39.0369,-358.3806C35.568,-326.4887 32.6652,-273.6639 44,-230 45.1977,-225.3863 46.6048,-220.7593 48.1827,-216.1474"/>
<polygon fill="none" stroke="#404040" points="48.2462,-215.9766 46.5919,-208.9578 52.4345,-204.7312 54.0888,-211.75 48.2462,-215.9766"/>
<text text-anchor="middle" x="102" y="-282.5" font-family="Helvetica,sans-Serif" font-size="10.00" fill="#000000"> +PERIOD_FORMATTER</text>
</g>
<!-- Node3 -->
<g id="node3" class="node">
<title>Node3</title>
<polygon fill="none" stroke="#bfbfbf" points="131.5,-358.5 131.5,-415.5 232.5,-415.5 232.5,-358.5 131.5,-358.5"/>
<text text-anchor="middle" x="182" y="-403.5" font-family="Helvetica,sans-Serif" font-size="10.00" fill="#000000">DateTimeFormatter</text>
<polyline fill="none" stroke="#bfbfbf" points="131.5,-396.5 232.5,-396.5 "/>
<text text-anchor="middle" x="182" y="-384.5" font-family="Helvetica,sans-Serif" font-size="10.00" fill="#000000"> </text>
<polyline fill="none" stroke="#bfbfbf" points="131.5,-377.5 232.5,-377.5 "/>
<text text-anchor="middle" x="182" y="-365.5" font-family="Helvetica,sans-Serif" font-size="10.00" fill="#000000"> </text>
</g>
<!-- Node3&#45;&gt;Node1 -->
<g id="edge2" class="edge">
<title>Node3&#45;&gt;Node1</title>
<path fill="none" stroke="#404040" d="M179.9671,-358.2506C177.2607,-326.4689 171.4235,-273.9531 160,-230 159.4366,-227.8321 158.8469,-225.6504 158.2337,-223.4591"/>
<polygon fill="none" stroke="#404040" points="158.151,-223.179 152.6133,-218.5601 154.7471,-211.6719 160.2848,-216.2909 158.151,-223.179"/>
<text text-anchor="start" x="178" y="-332" font-family="Helvetica,sans-Serif" font-size="10.00" fill="#000000"> +DATE_FORMAT_YYYY_MM</text>
<text text-anchor="middle" x="274.5" y="-321" font-family="Helvetica,sans-Serif" font-size="10.00" fill="#000000">_DD_HH_mm_ss</text>
<text text-anchor="middle" x="274.5" y="-310" font-family="Helvetica,sans-Serif" font-size="10.00" fill="#000000">+DATE_FORMAT_YYYYMMDDHHMMSS</text>
<text text-anchor="middle" x="274.5" y="-299" font-family="Helvetica,sans-Serif" font-size="10.00" fill="#000000">+DATE_FORMAT_MMMM_D_YYYY</text>
<text text-anchor="middle" x="274.5" y="-288" font-family="Helvetica,sans-Serif" font-size="10.00" fill="#000000">+DATE_FORMAT_HYPHEN_MMDDYYYY</text>
<text text-anchor="middle" x="274.5" y="-277" font-family="Helvetica,sans-Serif" font-size="10.00" fill="#000000">+DATE_FORMAT_MMM_DD_YYYY</text>
<text text-anchor="middle" x="274.5" y="-266" font-family="Helvetica,sans-Serif" font-size="10.00" fill="#000000">+DATE_TIME_FORMATS</text>
<text text-anchor="middle" x="274.5" y="-255" font-family="Helvetica,sans-Serif" font-size="10.00" fill="#000000">+DATE_FORMAT_MMDDYYYY</text>
<text text-anchor="middle" x="274.5" y="-244" font-family="Helvetica,sans-Serif" font-size="10.00" fill="#000000">+DATE_FORMAT_YYYYMMDD</text>
<text text-anchor="middle" x="274.5" y="-233" font-family="Helvetica,sans-Serif" font-size="10.00" fill="#000000">+DATE_FORMAT_YYYY_MM_DD</text>
</g>
</g>
</svg>
