<?xml version="1.0" encoding="UTF-8" standalone="no"?>
<!DOCTYPE svg PUBLIC "-//W3C//DTD SVG 1.1//EN"
 "http://www.w3.org/Graphics/SVG/1.1/DTD/svg11.dtd">
<!-- Generated by graphviz version 2.40.1 (20161225.0304)
 -->
<!-- Title: org.cobbzilla.util.system.CommandShellTest.TestFilterOutputStream Pages: 1 -->
<svg width="251pt" height="298pt"
 viewBox="0.00 0.00 251.00 298.00" xmlns="http://www.w3.org/2000/svg" xmlns:xlink="http://www.w3.org/1999/xlink">
<g id="graph0" class="graph" transform="scale(1 1) rotate(0) translate(4 294)">
<title>org.cobbzilla.util.system.CommandShellTest.TestFilterOutputStream</title>
<!-- Node2 -->
<g id="node1" class="node">
<title>Node2</title>
<polygon fill="#bfbfbf" stroke="#000000" points="17,-.5 17,-79.5 193,-79.5 193,-.5 17,-.5"/>
<text text-anchor="start" x="25" y="-67.5" font-family="Helvetica,sans-Serif" font-size="10.00" fill="#000000">org.cobbzilla.util.system.</text>
<text text-anchor="start" x="25" y="-56.5" font-family="Helvetica,sans-Serif" font-size="10.00" fill="#000000">CommandShellTest.TestFilterOutput</text>
<text text-anchor="middle" x="105" y="-45.5" font-family="Helvetica,sans-Serif" font-size="10.00" fill="#000000">Stream</text>
<polyline fill="none" stroke="#000000" points="17,-38.5 193,-38.5 "/>
<text text-anchor="middle" x="105" y="-26.5" font-family="Helvetica,sans-Serif" font-size="10.00" fill="#000000"> </text>
<polyline fill="none" stroke="#000000" points="17,-19.5 193,-19.5 "/>
<text text-anchor="start" x="25" y="-7.5" font-family="Helvetica,sans-Serif" font-size="10.00" fill="#000000"># processLine()</text>
</g>
<!-- Node3 -->
<g id="node2" class="node">
<title>Node3</title>
<polygon fill="none" stroke="#bfbfbf" points="0,-127.5 0,-184.5 132,-184.5 132,-127.5 0,-127.5"/>
<text text-anchor="middle" x="66" y="-172.5" font-family="Helvetica,sans-Serif" font-size="10.00" fill="#000000">LineOrientedOutputStream</text>
<polyline fill="none" stroke="#bfbfbf" points="0,-165.5 132,-165.5 "/>
<text text-anchor="middle" x="66" y="-153.5" font-family="Helvetica,sans-Serif" font-size="10.00" fill="#000000"> </text>
<polyline fill="none" stroke="#bfbfbf" points="0,-146.5 132,-146.5 "/>
<text text-anchor="middle" x="66" y="-134.5" font-family="Helvetica,sans-Serif" font-size="10.00" fill="#000000"> </text>
</g>
<!-- Node3&#45;&gt;Node2 -->
<g id="edge1" class="edge">
<title>Node3&#45;&gt;Node2</title>
<path fill="none" stroke="#191970" d="M78.9469,-117.4913C83.0263,-105.3578 87.5386,-91.9365 91.6458,-79.7203"/>
<polygon fill="none" stroke="#191970" points="75.5098,-116.7318 75.6405,-127.3258 82.1448,-118.9626 75.5098,-116.7318"/>
</g>
<!-- Node4 -->
<g id="node3" class="node">
<title>Node4</title>
<polygon fill="none" stroke="#bfbfbf" points="150,-127.5 150,-184.5 230,-184.5 230,-127.5 150,-127.5"/>
<text text-anchor="middle" x="190" y="-172.5" font-family="Helvetica,sans-Serif" font-size="10.00" fill="#000000">List&lt; Integer &gt;</text>
<polyline fill="none" stroke="#bfbfbf" points="150,-165.5 230,-165.5 "/>
<text text-anchor="middle" x="190" y="-153.5" font-family="Helvetica,sans-Serif" font-size="10.00" fill="#000000"> </text>
<polyline fill="none" stroke="#bfbfbf" points="150,-146.5 230,-146.5 "/>
<text text-anchor="middle" x="190" y="-134.5" font-family="Helvetica,sans-Serif" font-size="10.00" fill="#000000"> </text>
</g>
<!-- Node4&#45;&gt;Node2 -->
<g id="edge2" class="edge">
<title>Node4&#45;&gt;Node2</title>
<path fill="none" stroke="#404040" d="M168.9888,-127.3258C160.6051,-115.8846 150.7075,-102.3773 141.2346,-89.4495"/>
<polygon fill="none" stroke="#404040" points="141.1982,-89.3998 134.4253,-86.9243 134.1054,-79.7203 140.8783,-82.1958 141.1982,-89.3998"/>
<text text-anchor="middle" x="199" y="-101" font-family="Helvetica,sans-Serif" font-size="10.00" fill="#000000"> ~foundPercentages</text>
</g>
<!-- Node5 -->
<g id="node4" class="node">
<title>Node5</title>
<polygon fill="none" stroke="#bfbfbf" points="174,-232.5 174,-289.5 206,-289.5 206,-232.5 174,-232.5"/>
<text text-anchor="middle" x="190" y="-277.5" font-family="Helvetica,sans-Serif" font-size="10.00" fill="#000000">List</text>
<polyline fill="none" stroke="#bfbfbf" points="174,-270.5 206,-270.5 "/>
<text text-anchor="middle" x="190" y="-258.5" font-family="Helvetica,sans-Serif" font-size="10.00" fill="#000000"> </text>
<polyline fill="none" stroke="#bfbfbf" points="174,-251.5 206,-251.5 "/>
<text text-anchor="middle" x="190" y="-239.5" font-family="Helvetica,sans-Serif" font-size="10.00" fill="#000000"> </text>
</g>
<!-- Node5&#45;&gt;Node4 -->
<g id="edge3" class="edge">
<title>Node5&#45;&gt;Node4</title>
<path fill="none" stroke="#ffa500" d="M190,-222.192C190,-209.7605 190,-196.2278 190,-184.657"/>
<polygon fill="#ffa500" stroke="#ffa500" points="186.5001,-222.3083 190,-232.3083 193.5001,-222.3083 186.5001,-222.3083"/>
<text text-anchor="middle" x="216" y="-206" font-family="Helvetica,sans-Serif" font-size="10.00" fill="#000000"> &lt; Integer &gt;</text>
</g>
</g>
</svg>
